<?xml version='1.0' encoding='ASCII' standalone='yes'?>
<svg xmlns="http://www.w3.org/2000/svg" xmlns:xlink="http://www.w3.org/1999/xlink" version="1.1" width="518.6666666666666px" viewBox="0 0 518.6666666666666 216.0" height="216.0px">
  <g>
    <svg version="1.1" width="518.6666666666666px" viewBox="0 0 518.6666666666666 216.0" height="216.0px">
  <rect fill="#e7e6e5" x="0" y="0" width="518.6666666666666" height="216.0" rx="20" ry="20"/><g>
    <g transform="translate(171.24839951187457, 21.599999999999994) scale(1 1) translate(0, 0) scale(0.3041396789636722 0.3041396789636722) "><defs>
    <style>.cls-1{fill:#ffffff88;}</style>
    <!--
    ffffff88 is white with 50% transparency; this matches the colour of the tesa strip on
    ebd.hochfrequenz.de where it crosses the diagram SVG:
    https://github.com/Hochfrequenz/entscheidungsbaumdiagramme/blob/01bd43fa0f1d0333fa93596bc8b9fd1e4b285c8c/src/lib/components/features/svg-container.svelte#L54
    -->
  </defs>
  <path class="cls-1" d="M122.44,531.2h-56.1c-11,0-19.9-9.12-19.46-20.11C57.47,243.89,278.15,29.78,547.91,29.78v56.02c0,10.98-8.69,19.89-19.66,20.39-225.51,10.31-405.8,197-405.8,425Z"/>
  <path class="cls-1" d="M273.78,531.2h-55.93c-11.23,0-20.09-9.48-19.43-20.69,10.74-183.44,163.39-329.39,349.48-329.39v56.26c0,10.71-8.27,19.62-18.96,20.35-142.35,9.77-255.17,128.69-255.17,273.46Z"/>
  <path class="cls-1" d="M425.77,531.2h-55.45c-11.65,0-20.6-10.17-19.33-21.75,10.87-99.03,95.03-176.34,196.92-176.34v57.01c0,10.05-7.28,18.75-17.23,20.16-59.22,8.4-104.91,59.42-104.91,120.92Z"/>
</g>
    <svg width="389pt" height="162pt" viewBox="0.00 0.00 388.75 162.00">
<g id="graph0" class="graph" transform="scale(1 1) rotate(0) translate(18 144)">
<title>D</title>
<text text-anchor="start" x="8" y="-105.9" font-family="Roboto, sans-serif" font-weight="bold" font-size="18.00">GPKE</text>
<text text-anchor="start" x="8" y="-77.8" font-family="Roboto, sans-serif" font-weight="bold" font-size="16.00">6.10.3: AD: Netznutzungsabrechnung</text>
<!-- Empty -->
<g id="node1" class="node">
<title>Empty</title>
<path fill="#7a8da1" stroke="black" stroke-width="0" d="M206.53,-36C206.53,-36 146.22,-36 146.22,-36 140.22,-36 134.22,-30 134.22,-24 134.22,-24 134.22,-12 134.22,-12 134.22,-6 140.22,0 146.22,0 146.22,0 206.53,0 206.53,0 212.53,0 218.53,-6 218.53,-12 218.53,-12 218.53,-24 218.53,-24 218.53,-30 212.53,-36 206.53,-36"/>
<text text-anchor="start" x="148.62" y="-14.32" font-family="Roboto, sans-serif" font-weight="bold" font-size="14.00">E_0452</text>
</g>
</g>
</svg>
  </g>
</svg>
  </g>
</svg>
