<svg xmlns="http://www.w3.org/2000/svg" xmlns:xlink="http://www.w3.org/1999/xlink" version="1.1" width="1661.3333333333333px" viewBox="0 0 1661.3333333333333 1256.0" height="1256.0px">
  <g>
    <svg version="1.1" width="1661.3333333333333px" viewBox="0 0 1661.3333333333333 1256.0" height="1256.0px">
  <rect fill="#e7e6e5" x="0" y="0" width="1661.3333333333333" height="1256.0" rx="20" ry="20"/><g>
    <g transform="translate(318.4690885196658, 125.59999999999997) scale(1 1) translate(0, 0) scale(1.768515911010983 1.768515911010983) "><defs>
    <style>.cls-1{fill:#ffffff88;}</style>
    <!--
    ffffff88 is white with 50% transparency; this matches the colour of the tesa strip on
    ebd.hochfrequenz.de where it crosses the diagram SVG:
    https://github.com/Hochfrequenz/entscheidungsbaumdiagramme/blob/01bd43fa0f1d0333fa93596bc8b9fd1e4b285c8c/src/lib/components/features/svg-container.svelte#L54
    -->
  </defs>
  <path class="cls-1" d="M122.44,531.2h-56.1c-11,0-19.9-9.12-19.46-20.11C57.47,243.89,278.15,29.78,547.91,29.78v56.02c0,10.98-8.69,19.89-19.66,20.39-225.51,10.31-405.8,197-405.8,425Z"/>
  <path class="cls-1" d="M273.78,531.2h-55.93c-11.23,0-20.09-9.48-19.43-20.69,10.74-183.44,163.39-329.39,349.48-329.39v56.26c0,10.71-8.27,19.62-18.96,20.35-142.35,9.77-255.17,128.69-255.17,273.46Z"/>
  <path class="cls-1" d="M425.77,531.2h-55.45c-11.65,0-20.6-10.17-19.33-21.75,10.87-99.03,95.03-176.34,196.92-176.34v57.01c0,10.05-7.28,18.75-17.23,20.16-59.22,8.4-104.91,59.42-104.91,120.92Z"/>
</g>
    <svg width="1246pt" height="942pt" viewBox="0.00 0.00 1245.55 942.21">
<g id="graph0" class="graph" transform="scale(1 1) rotate(0) translate(18 924.21)">
<title>D</title>
<text text-anchor="start" x="391.78" y="-886.11" font-family="Roboto, sans-serif" font-weight="bold" font-size="18.00">GPKE</text>
<text text-anchor="start" x="391.78" y="-858.01" font-family="Roboto, sans-serif" font-weight="bold" font-size="16.00">6.7.1: AD: Beginn der Ersatz-/Grundversorgung</text>
<!-- Start -->
<g id="node1" class="node">
<title>Start</title>
<path fill="#8ba2d7" stroke="black" stroke-width="0" d="M380.17,-816.21C380.17,-816.21 247.12,-816.21 247.12,-816.21 241.12,-816.21 235.12,-810.21 235.12,-804.21 235.12,-804.21 235.12,-782.93 235.12,-782.93 235.12,-776.93 241.12,-770.93 247.12,-770.93 247.12,-770.93 380.17,-770.93 380.17,-770.93 386.17,-770.93 392.17,-776.93 392.17,-782.93 392.17,-782.93 392.17,-804.21 392.17,-804.21 392.17,-810.21 386.17,-816.21 380.17,-816.21"/>
<text text-anchor="start" x="249.52" y="-795.27" font-family="Roboto, sans-serif" font-weight="bold" font-size="14.00">E_0615</text>
<text text-anchor="start" x="249.52" y="-781.27" font-family="Roboto, sans-serif" font-size="14.00">Prüfende Rolle: </text>
<text text-anchor="start" x="359.02" y="-781.27" font-family="Roboto, sans-serif" font-weight="bold" font-size="14.00">LF</text>
</g>
<!-- 20 -->
<g id="node2" class="node">
<title>20</title>
<path fill="#c2cee9" stroke="black" stroke-width="0" d="M615.3,-733.93C615.3,-733.93 12,-733.93 12,-733.93 6,-733.93 0,-727.93 0,-721.93 0,-721.93 0,-686.65 0,-686.65 0,-680.65 6,-674.65 12,-674.65 12,-674.65 615.3,-674.65 615.3,-674.65 621.3,-674.65 627.3,-680.65 627.3,-686.65 627.3,-686.65 627.3,-721.93 627.3,-721.93 627.3,-727.93 621.3,-733.93 615.3,-733.93"/>
<text text-anchor="start" x="14.4" y="-712.99" font-family="Roboto, sans-serif" font-weight="bold" font-size="14.00">20: </text>
<text text-anchor="start" x="43.65" y="-712.99" font-family="Roboto, sans-serif" font-size="14.00">Befindet sich die Marktlokation im Grundversorgungsgebiet des Empfängers oder</text>
<text text-anchor="start" x="14.4" y="-698.99" font-family="Roboto, sans-serif" font-size="14.00">besteht für die Marktlokation eine vertragliche Vereinbarung zur</text>
<text text-anchor="start" x="14.4" y="-684.99" font-family="Roboto, sans-serif" font-size="14.00">Ersatzbelieferung?</text>
</g>
<!-- Start&#45;&gt;20 -->
<g id="edge1" class="edge">
<title>Start-&gt;20</title>
<path fill="none" stroke="#88a0d6" d="M313.65,-771C313.65,-763.2 313.65,-754.14 313.65,-745.27"/>
<polygon fill="#88a0d6" stroke="#88a0d6" points="317.15,-745.38 313.65,-735.38 310.15,-745.38 317.15,-745.38"/>
</g>
<!-- A02 -->
<g id="node3" class="node">
<title>A02</title>
<path fill="#c4cac1" stroke="black" stroke-width="0" d="M184.67,-621.4C184.67,-621.4 42.62,-621.4 42.62,-621.4 36.62,-621.4 30.62,-615.4 30.62,-609.4 30.62,-609.4 30.62,-560.12 30.62,-560.12 30.62,-554.12 36.62,-548.12 42.62,-548.12 42.62,-548.12 184.67,-548.12 184.67,-548.12 190.67,-548.12 196.67,-554.12 196.67,-560.12 196.67,-560.12 196.67,-609.4 196.67,-609.4 196.67,-615.4 190.67,-621.4 184.67,-621.4"/>
<text text-anchor="start" x="45.02" y="-600.46" font-family="Roboto, sans-serif" font-weight="bold" font-size="14.00">A02</text>
<text text-anchor="start" x="45.02" y="-572.46" font-family="Roboto, sans-serif" font-size="14.00">Cluster: Ablehnung</text>
<text text-anchor="start" x="45.02" y="-558.46" font-family="Roboto, sans-serif" font-size="14.00">Keine Zuständigkeit</text>
</g>
<!-- 20&#45;&gt;A02 -->
<g id="edge2" class="edge">
<title>20-&gt;A02</title>
<path fill="none" stroke="#88a0d6" d="M264.98,-674.69C240.57,-660.35 210.57,-642.72 183.73,-626.95"/>
<polygon fill="#88a0d6" stroke="#88a0d6" points="185.71,-624.04 175.31,-622 182.16,-630.08 185.71,-624.04"/>
<text text-anchor="start" x="230.65" y="-644.35" font-family="Roboto, sans-serif" font-weight="bold" font-size="14.00">NEIN</text>
</g>
<!-- 30 -->
<g id="node4" class="node">
<title>30</title>
<path fill="#c2cee9" stroke="black" stroke-width="0" d="M596.67,-602.76C596.67,-602.76 226.62,-602.76 226.62,-602.76 220.62,-602.76 214.62,-596.76 214.62,-590.76 214.62,-590.76 214.62,-578.76 214.62,-578.76 214.62,-572.76 220.62,-566.76 226.62,-566.76 226.62,-566.76 596.67,-566.76 596.67,-566.76 602.67,-566.76 608.67,-572.76 608.67,-578.76 608.67,-578.76 608.67,-590.76 608.67,-590.76 608.67,-596.76 602.67,-602.76 596.67,-602.76"/>
<text text-anchor="start" x="229.02" y="-581.09" font-family="Roboto, sans-serif" font-weight="bold" font-size="14.00">30: </text>
<text text-anchor="start" x="258.27" y="-581.09" font-family="Roboto, sans-serif" font-size="14.00">Wurden die Fristen zur Anmeldung eingehalten?</text>
</g>
<!-- 20&#45;&gt;30 -->
<g id="edge3" class="edge">
<title>20-&gt;30</title>
<path fill="none" stroke="#88a0d6" d="M337.37,-674.84C353.54,-655.46 374.75,-630.01 390.37,-611.28"/>
<polygon fill="#88a0d6" stroke="#88a0d6" points="392.85,-613.77 396.57,-603.85 387.48,-609.29 392.85,-613.77"/>
<text text-anchor="start" x="364.65" y="-644.35" font-family="Roboto, sans-serif" font-weight="bold" font-size="14.00">JA</text>
</g>
<!-- A03 -->
<g id="node5" class="node">
<title>A03</title>
<path fill="#c4cac1" stroke="black" stroke-width="0" d="M280.55,-494.87C280.55,-494.87 116.75,-494.87 116.75,-494.87 110.75,-494.87 104.75,-488.87 104.75,-482.87 104.75,-482.87 104.75,-433.59 104.75,-433.59 104.75,-427.59 110.75,-421.59 116.75,-421.59 116.75,-421.59 280.55,-421.59 280.55,-421.59 286.55,-421.59 292.55,-427.59 292.55,-433.59 292.55,-433.59 292.55,-482.87 292.55,-482.87 292.55,-488.87 286.55,-494.87 280.55,-494.87"/>
<text text-anchor="start" x="119.15" y="-473.93" font-family="Roboto, sans-serif" font-weight="bold" font-size="14.00">A03</text>
<text text-anchor="start" x="119.15" y="-445.93" font-family="Roboto, sans-serif" font-size="14.00">Cluster: Ablehnung</text>
<text text-anchor="start" x="119.15" y="-431.93" font-family="Roboto, sans-serif" font-size="14.00">Frist nicht eingehalten.</text>
</g>
<!-- 30&#45;&gt;A03 -->
<g id="edge4" class="edge">
<title>30-&gt;A03</title>
<path fill="none" stroke="#88a0d6" d="M382.92,-566.97C353.93,-550.01 308.02,-523.17 269.28,-500.52"/>
<polygon fill="#88a0d6" stroke="#88a0d6" points="271.3,-497.65 260.9,-495.63 267.77,-503.69 271.3,-497.65"/>
<text text-anchor="start" x="317.65" y="-517.82" font-family="Roboto, sans-serif" font-weight="bold" font-size="14.00">NEIN</text>
</g>
<!-- 40 -->
<g id="node6" class="node">
<title>40</title>
<path fill="#c2cee9" stroke="black" stroke-width="0" d="M906.55,-480.87C906.55,-480.87 322.75,-480.87 322.75,-480.87 316.75,-480.87 310.75,-474.87 310.75,-468.87 310.75,-468.87 310.75,-447.59 310.75,-447.59 310.75,-441.59 316.75,-435.59 322.75,-435.59 322.75,-435.59 906.55,-435.59 906.55,-435.59 912.55,-435.59 918.55,-441.59 918.55,-447.59 918.55,-447.59 918.55,-468.87 918.55,-468.87 918.55,-474.87 912.55,-480.87 906.55,-480.87"/>
<text text-anchor="start" x="325.15" y="-459.93" font-family="Roboto, sans-serif" font-weight="bold" font-size="14.00">40: </text>
<text text-anchor="start" x="354.4" y="-459.93" font-family="Roboto, sans-serif" font-size="14.00">Wurde der angefragte Geschäftsvorfall dem Anfragenden bereits zum gleichen</text>
<text text-anchor="start" x="325.15" y="-445.93" font-family="Roboto, sans-serif" font-size="14.00">Zeitpunkt mit einer früheren Meldung bestätigt?</text>
</g>
<!-- 30&#45;&gt;40 -->
<g id="edge5" class="edge">
<title>30-&gt;40</title>
<path fill="none" stroke="#88a0d6" d="M439.03,-566.97C472.55,-546.4 529.79,-511.29 569.78,-486.76"/>
<polygon fill="#88a0d6" stroke="#88a0d6" points="571.57,-489.77 578.26,-481.55 567.91,-483.8 571.57,-489.77"/>
<text text-anchor="start" x="524.65" y="-517.82" font-family="Roboto, sans-serif" font-weight="bold" font-size="14.00">JA</text>
</g>
<!-- A04 -->
<g id="node7" class="node">
<title>A04</title>
<path fill="#c4cac1" stroke="black" stroke-width="0" d="M484.8,-368.34C484.8,-368.34 346.5,-368.34 346.5,-368.34 340.5,-368.34 334.5,-362.34 334.5,-356.34 334.5,-356.34 334.5,-307.06 334.5,-307.06 334.5,-301.06 340.5,-295.06 346.5,-295.06 346.5,-295.06 484.8,-295.06 484.8,-295.06 490.8,-295.06 496.8,-301.06 496.8,-307.06 496.8,-307.06 496.8,-356.34 496.8,-356.34 496.8,-362.34 490.8,-368.34 484.8,-368.34"/>
<text text-anchor="start" x="348.9" y="-347.4" font-family="Roboto, sans-serif" font-weight="bold" font-size="14.00">A04</text>
<text text-anchor="start" x="348.9" y="-319.4" font-family="Roboto, sans-serif" font-size="14.00">Cluster: Ablehnung</text>
<text text-anchor="start" x="348.9" y="-305.4" font-family="Roboto, sans-serif" font-size="14.00">Doppelmeldung</text>
</g>
<!-- 40&#45;&gt;A04 -->
<g id="edge6" class="edge">
<title>40-&gt;A04</title>
<path fill="none" stroke="#88a0d6" d="M580.44,-435.82C553.44,-418.92 514.94,-394.83 481.95,-374.19"/>
<polygon fill="#88a0d6" stroke="#88a0d6" points="483.97,-371.33 473.64,-368.99 480.26,-377.26 483.97,-371.33"/>
<text text-anchor="start" x="526.65" y="-391.29" font-family="Roboto, sans-serif" font-weight="bold" font-size="14.00">JA</text>
</g>
<!-- 50 -->
<g id="node8" class="node">
<title>50</title>
<path fill="#c2cee9" stroke="black" stroke-width="0" d="M1096.05,-354.34C1096.05,-354.34 527.25,-354.34 527.25,-354.34 521.25,-354.34 515.25,-348.34 515.25,-342.34 515.25,-342.34 515.25,-321.06 515.25,-321.06 515.25,-315.06 521.25,-309.06 527.25,-309.06 527.25,-309.06 1096.05,-309.06 1096.05,-309.06 1102.05,-309.06 1108.05,-315.06 1108.05,-321.06 1108.05,-321.06 1108.05,-342.34 1108.05,-342.34 1108.05,-348.34 1102.05,-354.34 1096.05,-354.34"/>
<text text-anchor="start" x="529.65" y="-333.4" font-family="Roboto, sans-serif" font-weight="bold" font-size="14.00">50: </text>
<text text-anchor="start" x="558.9" y="-333.4" font-family="Roboto, sans-serif" font-size="14.00">Besteht eine gesetzliche Pflicht zur Grund- oder Ersatzversorgung, oder eine</text>
<text text-anchor="start" x="529.65" y="-319.4" font-family="Roboto, sans-serif" font-size="14.00">vertragliche Pflicht zur Ersatzbelieferung bzw. Übergangsversorgung?</text>
</g>
<!-- 40&#45;&gt;50 -->
<g id="edge7" class="edge">
<title>40-&gt;50</title>
<path fill="none" stroke="#88a0d6" d="M648.52,-435.82C681.64,-414.88 732.22,-382.91 768.27,-360.12"/>
<polygon fill="#88a0d6" stroke="#88a0d6" points="769.71,-363.36 776.29,-355.05 765.96,-357.44 769.71,-363.36"/>
<text text-anchor="start" x="724.65" y="-391.29" font-family="Roboto, sans-serif" font-weight="bold" font-size="14.00">NEIN</text>
</g>
<!-- A05 -->
<g id="node9" class="node">
<title>A05</title>
<path fill="#c4cac1" stroke="black" stroke-width="0" d="M701.92,-241.81C701.92,-241.81 165.38,-241.81 165.38,-241.81 159.38,-241.81 153.38,-235.81 153.38,-229.81 153.38,-229.81 153.38,-166.53 153.38,-166.53 153.38,-160.53 159.38,-154.53 165.38,-154.53 165.38,-154.53 701.92,-154.53 701.92,-154.53 707.92,-154.53 713.92,-160.53 713.92,-166.53 713.92,-166.53 713.92,-229.81 713.92,-229.81 713.92,-235.81 707.92,-241.81 701.92,-241.81"/>
<text text-anchor="start" x="167.77" y="-220.87" font-family="Roboto, sans-serif" font-weight="bold" font-size="14.00">A05</text>
<text text-anchor="start" x="167.77" y="-192.87" font-family="Roboto, sans-serif" font-size="14.00">Cluster: Ablehnung</text>
<text text-anchor="start" x="167.77" y="-178.87" font-family="Roboto, sans-serif" font-size="14.00">kein Grund-/Ersatzversorgungsfall bzw. kein Ersatzbelieferungsfall bzw. kein</text>
<text text-anchor="start" x="167.77" y="-164.87" font-family="Roboto, sans-serif" font-size="14.00">Übergangsversorgungsfall.</text>
</g>
<!-- 50&#45;&gt;A05 -->
<g id="edge8" class="edge">
<title>50-&gt;A05</title>
<path fill="none" stroke="#88a0d6" d="M749.65,-309.13C700.16,-291.9 629.03,-267.15 566.78,-245.49"/>
<polygon fill="#88a0d6" stroke="#88a0d6" points="568.1,-242.25 557.5,-242.27 565.8,-248.86 568.1,-242.25"/>
<text text-anchor="start" x="655.65" y="-264.76" font-family="Roboto, sans-serif" font-weight="bold" font-size="14.00">NEIN</text>
</g>
<!-- 90 -->
<g id="node10" class="node">
<title>90</title>
<path fill="#c2cee9" stroke="black" stroke-width="0" d="M1137.67,-216.17C1137.67,-216.17 743.62,-216.17 743.62,-216.17 737.62,-216.17 731.62,-210.17 731.62,-204.17 731.62,-204.17 731.62,-192.17 731.62,-192.17 731.62,-186.17 737.62,-180.17 743.62,-180.17 743.62,-180.17 1137.67,-180.17 1137.67,-180.17 1143.67,-180.17 1149.67,-186.17 1149.67,-192.17 1149.67,-192.17 1149.67,-204.17 1149.67,-204.17 1149.67,-210.17 1143.67,-216.17 1137.67,-216.17"/>
<text text-anchor="start" x="746.02" y="-194.5" font-family="Roboto, sans-serif" font-weight="bold" font-size="14.00">90: </text>
<text text-anchor="start" x="775.27" y="-194.5" font-family="Roboto, sans-serif" font-size="14.00">Ist ein zuvor nicht spezifizierter Fehler aufgetreten?</text>
</g>
<!-- 50&#45;&gt;90 -->
<g id="edge9" class="edge">
<title>50-&gt;90</title>
<path fill="none" stroke="#88a0d6" d="M832.66,-309.27C855.53,-285.96 892.04,-248.74 916.18,-224.12"/>
<polygon fill="#88a0d6" stroke="#88a0d6" points="918.59,-226.66 923.1,-217.07 913.59,-221.76 918.59,-226.66"/>
<text text-anchor="start" x="879.65" y="-264.76" font-family="Roboto, sans-serif" font-weight="bold" font-size="14.00">JA</text>
</g>
<!-- A99 -->
<g id="node11" class="node">
<title>A99</title>
<path fill="#c4cac1" stroke="black" stroke-width="0" d="M1003.92,-101.28C1003.92,-101.28 443.38,-101.28 443.38,-101.28 437.38,-101.28 431.38,-95.28 431.38,-89.28 431.38,-89.28 431.38,-12 431.38,-12 431.38,-6 437.38,0 443.38,0 443.38,0 1003.92,0 1003.92,0 1009.92,0 1015.92,-6 1015.92,-12 1015.92,-12 1015.92,-89.28 1015.92,-89.28 1015.92,-95.28 1009.92,-101.28 1003.92,-101.28"/>
<text text-anchor="start" x="445.77" y="-80.34" font-family="Roboto, sans-serif" font-weight="bold" font-size="14.00">A99</text>
<text text-anchor="start" x="445.77" y="-52.34" font-family="Roboto, sans-serif" font-size="14.00">Cluster: Ablehnung</text>
<text text-anchor="start" x="445.77" y="-38.34" font-family="Roboto, sans-serif" font-size="14.00">Sonstiges</text>
<text text-anchor="start" x="445.77" y="-24.34" font-family="Roboto, sans-serif" font-size="14.00">Hinweis: Das identifizierte Problem ist in der Antwort zu beschreiben/benennen.</text>
<text text-anchor="start" x="445.77" y="-10.34" font-family="Roboto, sans-serif" font-size="14.00">Nutzungsmöglichkeit Ende: 01.04.2027 00:00 Uhr</text>
</g>
<!-- 90&#45;&gt;A99 -->
<g id="edge10" class="edge">
<title>90-&gt;A99</title>
<path fill="none" stroke="#88a0d6" d="M915.33,-180.19C888.73,-162.35 845.46,-133.33 806.76,-107.38"/>
<polygon fill="#88a0d6" stroke="#88a0d6" points="809.06,-104.71 798.81,-102.04 805.16,-110.52 809.06,-104.71"/>
<text text-anchor="start" x="844.65" y="-124.23" font-family="Roboto, sans-serif" font-weight="bold" font-size="14.00">JA</text>
</g>
<!-- A09 -->
<g id="node12" class="node">
<title>A09</title>
<path fill="#c4cac1" stroke="black" stroke-width="0" d="M1197.55,-80.28C1197.55,-80.28 1045.75,-80.28 1045.75,-80.28 1039.75,-80.28 1033.75,-74.28 1033.75,-68.28 1033.75,-68.28 1033.75,-33 1033.75,-33 1033.75,-27 1039.75,-21 1045.75,-21 1045.75,-21 1197.55,-21 1197.55,-21 1203.55,-21 1209.55,-27 1209.55,-33 1209.55,-33 1209.55,-68.28 1209.55,-68.28 1209.55,-74.28 1203.55,-80.28 1197.55,-80.28"/>
<text text-anchor="start" x="1048.15" y="-59.34" font-family="Roboto, sans-serif" font-weight="bold" font-size="14.00">A09</text>
<text text-anchor="start" x="1048.15" y="-31.34" font-family="Roboto, sans-serif" font-size="14.00">Cluster: Zustimmung</text>
</g>
<!-- 90&#45;&gt;A09 -->
<g id="edge11" class="edge">
<title>90-&gt;A09</title>
<path fill="none" stroke="#88a0d6" d="M961.77,-180.19C990,-157.49 1040.74,-116.69 1077.5,-87.14"/>
<polygon fill="#88a0d6" stroke="#88a0d6" points="1079.28,-90.2 1084.88,-81.21 1074.89,-84.75 1079.28,-90.2"/>
<text text-anchor="start" x="1035.65" y="-124.23" font-family="Roboto, sans-serif" font-weight="bold" font-size="14.00">NEIN</text>
</g>
</g>
</svg>
  </g>
</svg>
  </g>
<a href="https://ebd.hochfrequenz.de" target="_blank"><text x="1651.3333333333333" y="1246.0" text-anchor="end" font-family="Roboto, sans-serif" font-size="10" fill="#666666" text-decoration="none">v4.3 (urspr. 01.04.2026) | ebdamame v1.0.0 | rebdhuhn v1.1.0</text></a></svg>