<?xml version='1.0' encoding='ASCII' standalone='yes'?>
<svg xmlns="http://www.w3.org/2000/svg" xmlns:xlink="http://www.w3.org/1999/xlink" version="1.1" width="680.0px" viewBox="0 0 680.0 228.0" height="228.0px">
  <g>
    <svg version="1.1" width="680.0px" viewBox="0 0 680.0 228.0" height="228.0px">
  <rect fill="#e7e6e5" x="0" y="0" width="680.0" height="228.0" rx="20" ry="20"/><g>
    <g transform="translate(247.02145874401577, 22.799999999999994) scale(1 1) translate(0, 0) scale(0.32103632779498736 0.32103632779498736) "><defs>
    <style>.cls-1{fill:#ffffff88;}</style>
    <!--
    ffffff88 is white with 50% transparency; this matches the colour of the tesa strip on
    ebd.hochfrequenz.de where it crosses the diagram SVG:
    https://github.com/Hochfrequenz/entscheidungsbaumdiagramme/blob/01bd43fa0f1d0333fa93596bc8b9fd1e4b285c8c/src/lib/components/features/svg-container.svelte#L54
    -->
  </defs>
  <path class="cls-1" d="M122.44,531.2h-56.1c-11,0-19.9-9.12-19.46-20.11C57.47,243.89,278.15,29.78,547.91,29.78v56.02c0,10.98-8.69,19.89-19.66,20.39-225.51,10.31-405.8,197-405.8,425Z"/>
  <path class="cls-1" d="M273.78,531.2h-55.93c-11.23,0-20.09-9.48-19.43-20.69,10.74-183.44,163.39-329.39,349.48-329.39v56.26c0,10.71-8.27,19.62-18.96,20.35-142.35,9.77-255.17,128.69-255.17,273.46Z"/>
  <path class="cls-1" d="M425.77,531.2h-55.45c-11.65,0-20.6-10.17-19.33-21.75,10.87-99.03,95.03-176.34,196.92-176.34v57.01c0,10.05-7.28,18.75-17.23,20.16-59.22,8.4-104.91,59.42-104.91,120.92Z"/>
</g>
    <svg width="510pt" height="171pt" viewBox="0.00 0.00 510.25 171.28">
<g id="graph0" class="graph" transform="scale(1 1) rotate(0) translate(18 153.28)">
<title>D</title>
<text text-anchor="start" x="8" y="-115.18" font-family="Roboto, sans-serif" font-weight="bold" font-size="18.00">WiM Gas</text>
<text text-anchor="start" x="8" y="-87.08" font-family="Roboto, sans-serif" font-weight="bold" font-size="16.00">13.6.5: AD: St&#246;rungsbehebung in der Messlokation</text>
<!-- Empty -->
<g id="node1" class="node">
<title>Empty</title>
<path fill="#7a8da1" stroke="black" stroke-width="0" d="M447.27,-45.28C447.27,-45.28 26.98,-45.28 26.98,-45.28 20.98,-45.28 14.97,-39.28 14.97,-33.28 14.97,-33.28 14.97,-12 14.97,-12 14.97,-6 20.97,0 26.97,0 26.97,0 447.27,0 447.27,0 453.27,0 459.27,-6 459.27,-12 459.27,-12 459.27,-33.28 459.27,-33.28 459.27,-39.28 453.27,-45.28 447.27,-45.28"/>
<text text-anchor="start" x="209.38" y="-24.34" font-family="Roboto, sans-serif" font-weight="bold" font-size="14.00">E_2015</text>
<text text-anchor="start" x="29.38" y="-10.34" font-family="Roboto, sans-serif" font-size="14.00">G_0084_Ablehnung der Rechnung vom MSBN an den MSBA</text>
</g>
</g>
</svg>
  </g>
</svg>
  </g>
</svg>
