<?xml version='1.0' encoding='ASCII' standalone='yes'?>
<svg xmlns="http://www.w3.org/2000/svg" xmlns:xlink="http://www.w3.org/1999/xlink" version="1.1" width="3953.3333333333335px" viewBox="0 0 3953.3333333333335 1452.0" height="1452.0px">
  <g>
    <svg version="1.1" width="3953.3333333333335px" viewBox="0 0 3953.3333333333335 1452.0" height="1452.0px">
  <polygon fill="#f3f1f6" points="0,0 3953.3333333333335,0 3953.3333333333335,1452.0 0,1452.0"/><g>
    <g transform="translate(1396.2974840876473, 145.19999999999996) scale(1 1) translate(0, 0) scale(6.56683821325468 6.56683821325468) "><sodipodi:namedview xmlns:sodipodi="http://sodipodi.sourceforge.net/DTD/sodipodi-0.dtd" xmlns:inkscape="http://www.inkscape.org/namespaces/inkscape" id="namedview7" pagecolor="#ffffff" bordercolor="#999999" borderopacity="1" inkscape:pageshadow="0" inkscape:pageopacity="0" inkscape:pagecheckerboard="0" inkscape:document-units="mm" showgrid="false" fit-margin-top="0" fit-margin-left="0" fit-margin-right="0" fit-margin-bottom="0" inkscape:zoom="0.64052329" inkscape:cx="130.36216" inkscape:cy="412.163" inkscape:window-width="1512" inkscape:window-height="916" inkscape:window-x="3840" inkscape:window-y="136" inkscape:window-maximized="0" inkscape:current-layer="layer1"/>
  <defs id="defs2">
    <clipPath clipPathUnits="userSpaceOnUse" id="clipPath23">
      <path d="M 0,568.156 H 579.236 V 0 H 0 Z" id="path21"/>
    </clipPath>
  </defs>
  <g xmlns:inkscape="http://www.inkscape.org/namespaces/inkscape" inkscape:label="Layer 1" inkscape:groupmode="layer" id="layer1" transform="translate(-16.541937,-55.305267)">
    <g id="g19" clip-path="url(#clipPath23)" transform="matrix(0.35277777,0,0,-0.35277777,0.01017023,243.73675)" style="opacity:0.2">
      <g id="g25" transform="translate(122.444,32.7195)">
        <path d="m 0,0 h -56.104 c -11,0 -19.898,9.123 -19.463,20.115 10.594,267.191 231.277,481.302 501.029,481.302 v -56.02 c 0,-10.98 -8.688,-19.892 -19.658,-20.393 C 180.29,414.697 0,228.005 0,0" style="fill:#6ead83;fill-opacity:1;fill-rule:nonzero;stroke:none" id="path27"/>
      </g>
      <g id="g29" transform="translate(273.7828,32.7195)">
        <path d="m 0,0 h -55.926 c -11.228,0 -20.091,9.482 -19.435,20.69 10.744,183.439 163.389,329.388 349.485,329.388 v -56.263 c 0,-10.709 -8.273,-19.617 -18.957,-20.35 C 112.819,263.696 0,144.774 0,0" style="fill:#6ead83;fill-opacity:1;fill-rule:nonzero;stroke:none" id="path31"/>
      </g>
      <g id="g33" transform="translate(425.7667,32.7195)">
        <path d="m 0,0 h -55.445 c -11.653,0 -20.604,10.17 -19.334,21.753 10.866,99.032 95.031,176.341 196.919,176.341 v -57.011 c 0,-10.046 -7.283,-18.755 -17.229,-20.165 C 45.688,112.522 0,61.497 0,0" style="fill:#6ead83;fill-opacity:1;fill-rule:nonzero;stroke:none" id="path35"/>
      </g>
    </g>
  </g>
</g>
    <svg width="2965pt" height="1089pt" viewBox="0.00 0.00 2965.05 1089.40">
<g id="graph0" class="graph" transform="scale(1 1) rotate(0) translate(4 1085.4)">
<title>D</title>
<text text-anchor="start" x="1445.15" y="-1061.3" font-family="Times,serif" font-weight="bold" font-size="18.00">MaBiS</text>
<text text-anchor="start" x="918.28" y="-1031.2" font-family="Times,serif" font-weight="bold" font-size="16.00">7.56.1: AD: Anforderung der Lieferantenausfallarbeitsclearingliste einmalig oder durch ein Abonnement (Erstabonnierung)</text>
<!-- Start -->
<g id="node1" class="node">
<title>Start</title>
<polygon fill="#7a8da1" stroke="black" points="338.18,-983.4 183.38,-983.4 183.38,-940.12 338.18,-940.12 338.18,-983.4"/>
<text text-anchor="start" x="232.65" y="-962.46" font-family="Times,serif" font-weight="bold" font-size="14.00">E_0094</text>
<text text-anchor="start" x="197.78" y="-950.36" font-family="Times,serif" font-weight="bold" text-decoration="underline" font-size="12.00">Pr&#252;fende Rolle:</text>
<text text-anchor="start" x="302.78" y="-950.36" font-family="Times,serif" font-weight="bold" font-size="12.00"> LF</text>
</g>
<!-- 1 -->
<g id="node2" class="node">
<title>1</title>
<path fill="#7aab8a" stroke="black" d="M509.55,-903.12C509.55,-903.12 12,-903.12 12,-903.12 6,-903.12 0,-897.12 0,-891.12 0,-891.12 0,-879.12 0,-879.12 0,-873.12 6,-867.12 12,-867.12 12,-867.12 509.55,-867.12 509.55,-867.12 515.55,-867.12 521.55,-873.12 521.55,-879.12 521.55,-879.12 521.55,-891.12 521.55,-891.12 521.55,-897.12 515.55,-903.12 509.55,-903.12"/>
<text text-anchor="start" x="14.4" y="-881.44" font-family="Times,serif" font-weight="bold" font-size="14.00">1: </text>
<text text-anchor="start" x="33.9" y="-881.44" font-family="Times,serif" font-size="14.00">Liegt f&#252;r diesen MaBiS-ZP ein g&#252;ltiges LF-AACL Abonnement vor?</text>
</g>
<!-- Start&#45;&gt;1 -->
<g id="edge1" class="edge">
<title>Start-&gt;1</title>
<path fill="none" stroke="black" d="M260.78,-939.97C260.78,-932.11 260.78,-923.03 260.78,-914.59"/>
<polygon fill="black" stroke="black" points="264.28,-914.79 260.78,-904.79 257.28,-914.79 264.28,-914.79"/>
</g>
<!-- A01 -->
<g id="node3" class="node">
<title>A01</title>
<polygon fill="#cfb986" stroke="black" points="362.02,-813.87 103.54,-813.87 103.54,-752.35 362.02,-752.35 362.02,-813.87"/>
<text text-anchor="start" x="217.78" y="-795.81" font-family="Times,serif" font-weight="bold" font-size="14.00">A01</text>
<text text-anchor="start" x="115.78" y="-783.71" font-family="Times,serif" text-decoration="underline" font-size="12.00">Hinweis:</text>
<text text-anchor="start" x="115.78" y="-771.71" font-family="Times,serif" font-size="12.00">Cluster: Ablehnung der gesamten Liste</text>
<text text-anchor="start" x="115.78" y="-759.71" font-family="Times,serif" font-size="12.00">Zeitraum nicht plausibel</text>
</g>
<!-- 1&#45;&gt;A01 -->
<g id="edge2" class="edge">
<title>1-&gt;A01</title>
<path fill="none" stroke="black" d="M255.9,-866.7C252.68,-855.19 248.31,-839.61 244.25,-825.08"/>
<polygon fill="black" stroke="black" points="247.69,-824.4 241.62,-815.72 240.95,-826.29 247.69,-824.4"/>
<text text-anchor="middle" x="268.65" y="-835.82" font-family="Times,serif" font-size="14.00">Nein</text>
</g>
<!-- 2 -->
<g id="node4" class="node">
<title>2</title>
<path fill="#7aab8a" stroke="black" d="M1115.8,-801.11C1115.8,-801.11 391.75,-801.11 391.75,-801.11 385.75,-801.11 379.75,-795.11 379.75,-789.11 379.75,-789.11 379.75,-777.11 379.75,-777.11 379.75,-771.11 385.75,-765.11 391.75,-765.11 391.75,-765.11 1115.8,-765.11 1115.8,-765.11 1121.8,-765.11 1127.8,-771.11 1127.8,-777.11 1127.8,-777.11 1127.8,-789.11 1127.8,-789.11 1127.8,-795.11 1121.8,-801.11 1115.8,-801.11"/>
<text text-anchor="start" x="394.15" y="-779.43" font-family="Times,serif" font-weight="bold" font-size="14.00">2: </text>
<text text-anchor="start" x="413.65" y="-779.43" font-family="Times,serif" font-size="14.00">Entspricht die Versionsangabe in der LF-AACL der Versionsangabe einer vorliegenden LF-AASZR?</text>
</g>
<!-- 1&#45;&gt;2 -->
<g id="edge3" class="edge">
<title>1-&gt;2</title>
<path fill="none" stroke="black" d="M346.93,-866.64C433.44,-849.09 566.5,-822.1 656.69,-803.8"/>
<polygon fill="black" stroke="black" points="657.16,-807.28 666.26,-801.86 655.77,-800.42 657.16,-807.28"/>
<text text-anchor="middle" x="514.53" y="-835.82" font-family="Times,serif" font-size="14.00">Ja</text>
</g>
<!-- A02 -->
<g id="node5" class="node">
<title>A02</title>
<polygon fill="#cfb986" stroke="black" points="768.89,-699.1 506.66,-699.1 506.66,-637.58 768.89,-637.58 768.89,-699.1"/>
<text text-anchor="start" x="622.78" y="-681.04" font-family="Times,serif" font-weight="bold" font-size="14.00">A02</text>
<text text-anchor="start" x="518.9" y="-668.94" font-family="Times,serif" text-decoration="underline" font-size="12.00">Hinweis:</text>
<text text-anchor="start" x="518.9" y="-656.94" font-family="Times,serif" font-size="12.00">Cluster: Ablehnung der gesamten Liste </text>
<text text-anchor="start" x="518.9" y="-644.94" font-family="Times,serif" font-size="12.00">Version nicht zugelassen</text>
</g>
<!-- 2&#45;&gt;A02 -->
<g id="edge4" class="edge">
<title>2-&gt;A02</title>
<path fill="none" stroke="black" d="M735.9,-764.74C720.15,-749.42 696.66,-726.58 676.6,-707.09"/>
<polygon fill="black" stroke="black" points="679.24,-704.77 669.63,-700.3 674.36,-709.78 679.24,-704.77"/>
<text text-anchor="middle" x="719.65" y="-721.05" font-family="Times,serif" font-size="14.00">Nein</text>
</g>
<!-- 3 -->
<g id="node6" class="node">
<title>3</title>
<path fill="#7aab8a" stroke="black" d="M1290.18,-686.34C1290.18,-686.34 799.38,-686.34 799.38,-686.34 793.38,-686.34 787.38,-680.34 787.38,-674.34 787.38,-674.34 787.38,-662.34 787.38,-662.34 787.38,-656.34 793.38,-650.34 799.38,-650.34 799.38,-650.34 1290.18,-650.34 1290.18,-650.34 1296.18,-650.34 1302.18,-656.34 1302.18,-662.34 1302.18,-662.34 1302.18,-674.34 1302.18,-674.34 1302.18,-680.34 1296.18,-686.34 1290.18,-686.34"/>
<text text-anchor="start" x="801.78" y="-664.66" font-family="Times,serif" font-weight="bold" font-size="14.00">3: </text>
<text text-anchor="start" x="821.28" y="-664.66" font-family="Times,serif" font-size="14.00">Ist eine erwartete Marktlokation in der LF-AACL nicht enthalten?</text>
</g>
<!-- 2&#45;&gt;3 -->
<g id="edge5" class="edge">
<title>2-&gt;3</title>
<path fill="none" stroke="black" d="M798.92,-764.61C850.26,-744.72 934.09,-712.23 989.35,-690.82"/>
<polygon fill="black" stroke="black" points="990.53,-694.12 998.59,-687.24 988,-687.59 990.53,-694.12"/>
<text text-anchor="middle" x="923.53" y="-721.05" font-family="Times,serif" font-size="14.00">Ja</text>
</g>
<!-- A03 -->
<g id="node7" class="node">
<title>A03</title>
<polygon fill="#cfb986" stroke="black" points="1034.27,-584.33 717.29,-584.33 717.29,-522.81 1034.27,-522.81 1034.27,-584.33"/>
<text text-anchor="start" x="860.78" y="-566.27" font-family="Times,serif" font-weight="bold" font-size="14.00">A03</text>
<text text-anchor="start" x="729.53" y="-554.17" font-family="Times,serif" text-decoration="underline" font-size="12.00">Hinweis:</text>
<text text-anchor="start" x="729.53" y="-542.17" font-family="Times,serif" font-size="12.00">Cluster: Korrekturliste wegen Ablehnung</text>
<text text-anchor="start" x="729.53" y="-530.17" font-family="Times,serif" font-size="12.00">Zus&#228;tzlicher Datensatz / erg&#228;nzte Marktlokation</text>
</g>
<!-- 3&#45;&gt;A03 -->
<g id="edge6" class="edge">
<title>3-&gt;A03</title>
<path fill="none" stroke="black" d="M1018.74,-649.97C995.26,-634.3 959.98,-610.76 930.33,-590.98"/>
<polygon fill="black" stroke="black" points="932.45,-588.18 922.19,-585.54 928.57,-594 932.45,-588.18"/>
<text text-anchor="middle" x="977.53" y="-606.28" font-family="Times,serif" font-size="14.00">Ja</text>
</g>
<!-- 4 -->
<g id="node8" class="node">
<title>4</title>
<path fill="#7aab8a" stroke="black" d="M1970.93,-571.57C1970.93,-571.57 1064.62,-571.57 1064.62,-571.57 1058.62,-571.57 1052.62,-565.57 1052.62,-559.57 1052.62,-559.57 1052.62,-547.57 1052.62,-547.57 1052.62,-541.57 1058.62,-535.57 1064.62,-535.57 1064.62,-535.57 1970.93,-535.57 1970.93,-535.57 1976.93,-535.57 1982.93,-541.57 1982.93,-547.57 1982.93,-547.57 1982.93,-559.57 1982.93,-559.57 1982.93,-565.57 1976.93,-571.57 1970.93,-571.57"/>
<text text-anchor="start" x="1067.03" y="-549.89" font-family="Times,serif" font-weight="bold" font-size="14.00">4: </text>
<text text-anchor="start" x="1086.53" y="-549.89" font-family="Times,serif" font-size="14.00">Ist in der LF-AACL eine Marktlokation enthalten, die im Bilanzierungsmonat dem LF zur Bilanzierung nicht zugeordnet ist?</text>
</g>
<!-- 3&#45;&gt;4 -->
<g id="edge7" class="edge">
<title>3-&gt;4</title>
<path fill="none" stroke="black" d="M1118.16,-649.84C1203.48,-629.5 1344.01,-596 1433.66,-574.62"/>
<polygon fill="black" stroke="black" points="1434.22,-578.09 1443.13,-572.37 1432.59,-571.28 1434.22,-578.09"/>
<text text-anchor="middle" x="1326.65" y="-606.28" font-family="Times,serif" font-size="14.00">Nein</text>
</g>
<!-- A04 -->
<g id="node9" class="node">
<title>A04</title>
<polygon fill="#cfb986" stroke="black" points="1531.77,-469.56 1259.79,-469.56 1259.79,-408.04 1531.77,-408.04 1531.77,-469.56"/>
<text text-anchor="start" x="1380.78" y="-451.5" font-family="Times,serif" font-weight="bold" font-size="14.00">A04</text>
<text text-anchor="start" x="1272.03" y="-439.4" font-family="Times,serif" text-decoration="underline" font-size="12.00">Hinweis:</text>
<text text-anchor="start" x="1272.03" y="-427.4" font-family="Times,serif" font-size="12.00">Cluster: Korrekturliste wegen Ablehnung</text>
<text text-anchor="start" x="1272.03" y="-415.4" font-family="Times,serif" font-size="12.00">Marktlokation falschem LF zugeordnet</text>
</g>
<!-- 4&#45;&gt;A04 -->
<g id="edge8" class="edge">
<title>4-&gt;A04</title>
<path fill="none" stroke="black" d="M1498.98,-535.2C1482.34,-519.82 1457.48,-496.84 1436.33,-477.29"/>
<polygon fill="black" stroke="black" points="1438.96,-474.95 1429.24,-470.74 1434.21,-480.09 1438.96,-474.95"/>
<text text-anchor="middle" x="1471.53" y="-491.51" font-family="Times,serif" font-size="14.00">Ja</text>
</g>
<!-- 5 -->
<g id="node10" class="node">
<title>5</title>
<path fill="#7aab8a" stroke="black" d="M2133.68,-456.8C2133.68,-456.8 1561.88,-456.8 1561.88,-456.8 1555.88,-456.8 1549.88,-450.8 1549.88,-444.8 1549.88,-444.8 1549.88,-432.8 1549.88,-432.8 1549.88,-426.8 1555.88,-420.8 1561.88,-420.8 1561.88,-420.8 2133.68,-420.8 2133.68,-420.8 2139.68,-420.8 2145.68,-426.8 2145.68,-432.8 2145.68,-432.8 2145.68,-444.8 2145.68,-444.8 2145.68,-450.8 2139.68,-456.8 2133.68,-456.8"/>
<text text-anchor="start" x="1564.28" y="-435.12" font-family="Times,serif" font-weight="bold" font-size="14.00">5: </text>
<text text-anchor="start" x="1583.78" y="-435.12" font-family="Times,serif" font-size="14.00">Ist die in der LF-AACL enthaltene Marktlokation dem MaBiS-ZP zugeordnet?</text>
</g>
<!-- 4&#45;&gt;5 -->
<g id="edge9" class="edge">
<title>4-&gt;5</title>
<path fill="none" stroke="black" d="M1568.98,-535.07C1627.59,-515.04 1723.56,-482.25 1786.2,-460.84"/>
<polygon fill="black" stroke="black" points="1786.96,-464.28 1795.29,-457.73 1784.7,-457.66 1786.96,-464.28"/>
<text text-anchor="middle" x="1719.65" y="-491.51" font-family="Times,serif" font-size="14.00">Nein</text>
</g>
<!-- A05 -->
<g id="node11" class="node">
<title>A05</title>
<polygon fill="#cfb986" stroke="black" points="1883.77,-354.79 1485.79,-354.79 1485.79,-293.27 1883.77,-293.27 1883.77,-354.79"/>
<text text-anchor="start" x="1669.78" y="-336.73" font-family="Times,serif" font-weight="bold" font-size="14.00">A05</text>
<text text-anchor="start" x="1498.03" y="-324.63" font-family="Times,serif" text-decoration="underline" font-size="12.00">Hinweis:</text>
<text text-anchor="start" x="1498.03" y="-312.63" font-family="Times,serif" font-size="12.00">Cluster: Korrekturliste wegen Ablehnung</text>
<text text-anchor="start" x="1498.03" y="-300.63" font-family="Times,serif" font-size="12.00">Zu viele Marktlokationen enthalten / entfallene Marktlokation</text>
</g>
<!-- 5&#45;&gt;A05 -->
<g id="edge10" class="edge">
<title>5-&gt;A05</title>
<path fill="none" stroke="black" d="M1822.66,-420.43C1800.12,-404.83 1766.28,-381.42 1737.77,-361.69"/>
<polygon fill="black" stroke="black" points="1739.79,-358.83 1729.57,-356.02 1735.81,-364.59 1739.79,-358.83"/>
<text text-anchor="middle" x="1793.65" y="-376.74" font-family="Times,serif" font-size="14.00">Nein</text>
</g>
<!-- 6 -->
<g id="node12" class="node">
<title>6</title>
<path fill="#7aab8a" stroke="black" d="M2649.8,-342.03C2649.8,-342.03 1913.75,-342.03 1913.75,-342.03 1907.75,-342.03 1901.75,-336.03 1901.75,-330.03 1901.75,-330.03 1901.75,-318.03 1901.75,-318.03 1901.75,-312.03 1907.75,-306.03 1913.75,-306.03 1913.75,-306.03 2649.8,-306.03 2649.8,-306.03 2655.8,-306.03 2661.8,-312.03 2661.8,-318.03 2661.8,-318.03 2661.8,-330.03 2661.8,-330.03 2661.8,-336.03 2655.8,-342.03 2649.8,-342.03"/>
<text text-anchor="start" x="1916.15" y="-320.35" font-family="Times,serif" font-weight="bold" font-size="14.00">6: </text>
<text text-anchor="start" x="1935.65" y="-320.35" font-family="Times,serif" font-size="14.00">Entspricht das Bilanzierungsgebiet dem zwischen NB und LF ausgetauschten Bilanzierungsgebiet?</text>
</g>
<!-- 5&#45;&gt;6 -->
<g id="edge11" class="edge">
<title>5-&gt;6</title>
<path fill="none" stroke="black" d="M1915.11,-420.3C1993.07,-400.05 2121.29,-366.73 2203.59,-345.35"/>
<polygon fill="black" stroke="black" points="2204.37,-348.76 2213.17,-342.86 2202.61,-341.98 2204.37,-348.76"/>
<text text-anchor="middle" x="2097.53" y="-376.74" font-family="Times,serif" font-size="14.00">Ja</text>
</g>
<!-- A06 -->
<g id="node13" class="node">
<title>A06</title>
<polygon fill="#cfb986" stroke="black" points="2385.89,-61.52 2087.66,-61.52 2087.66,0 2385.89,0 2385.89,-61.52"/>
<text text-anchor="start" x="2221.78" y="-43.46" font-family="Times,serif" font-weight="bold" font-size="14.00">A06</text>
<text text-anchor="start" x="2099.9" y="-31.36" font-family="Times,serif" text-decoration="underline" font-size="12.00">Hinweis:</text>
<text text-anchor="start" x="2099.9" y="-19.36" font-family="Times,serif" font-size="12.00">Cluster: Korrekturliste wegen Ablehnung</text>
<text text-anchor="start" x="2099.9" y="-7.36" font-family="Times,serif" font-size="12.00">Bilanzierungsrel. Daten nicht korrekt / fehlen</text>
</g>
<!-- 6&#45;&gt;A06 -->
<g id="edge12" class="edge">
<title>6-&gt;A06</title>
<path fill="none" stroke="black" d="M2258.87,-305.8C2240.87,-290.72 2217.17,-267.03 2206.78,-240.02 2185.41,-184.51 2203.36,-115.36 2219.26,-72.38"/>
<polygon fill="black" stroke="black" points="2222.47,-73.78 2222.79,-63.19 2215.93,-71.27 2222.47,-73.78"/>
<text text-anchor="middle" x="2214.65" y="-172.72" font-family="Times,serif" font-size="14.00">Nein</text>
</g>
<!-- 7 -->
<g id="node14" class="node">
<title>7</title>
<path fill="#7aab8a" stroke="black" d="M2839.93,-240.02C2839.93,-240.02 2227.62,-240.02 2227.62,-240.02 2221.62,-240.02 2215.62,-234.02 2215.62,-228.02 2215.62,-228.02 2215.62,-216.02 2215.62,-216.02 2215.62,-210.02 2221.62,-204.02 2227.62,-204.02 2227.62,-204.02 2839.93,-204.02 2839.93,-204.02 2845.93,-204.02 2851.93,-210.02 2851.93,-216.02 2851.93,-216.02 2851.93,-228.02 2851.93,-228.02 2851.93,-234.02 2845.93,-240.02 2839.93,-240.02"/>
<text text-anchor="start" x="2230.03" y="-218.34" font-family="Times,serif" font-weight="bold" font-size="14.00">7: </text>
<text text-anchor="start" x="2249.53" y="-218.34" font-family="Times,serif" font-size="14.00">Entspricht der Bilanzkreis dem zwischen NB und LF aus-getauschten Bilanzkreis?</text>
</g>
<!-- 6&#45;&gt;7 -->
<g id="edge13" class="edge">
<title>6-&gt;7</title>
<path fill="none" stroke="black" d="M2325.67,-305.61C2368.36,-288.67 2433.32,-262.89 2479.29,-244.64"/>
<polygon fill="black" stroke="black" points="2480.55,-247.91 2488.55,-240.97 2477.97,-241.4 2480.55,-247.91"/>
<text text-anchor="middle" x="2452.53" y="-261.97" font-family="Times,serif" font-size="14.00">Ja</text>
</g>
<!-- 7&#45;&gt;A06 -->
<g id="edge14" class="edge">
<title>7-&gt;A06</title>
<path fill="none" stroke="black" d="M2399.24,-203.56C2334.56,-192.24 2266.63,-175.01 2246.03,-150.77 2228.1,-129.68 2226.36,-98.21 2228.8,-72.92"/>
<polygon fill="black" stroke="black" points="2232.23,-73.66 2229.98,-63.3 2225.29,-72.8 2232.23,-73.66"/>
<text text-anchor="middle" x="2263.65" y="-128.09" font-family="Times,serif" font-size="14.00">Nein</text>
</g>
<!-- 8 -->
<g id="node15" class="node">
<title>8</title>
<path fill="#7aab8a" stroke="black" d="M2945.05,-150.77C2945.05,-150.77 2300.5,-150.77 2300.5,-150.77 2294.5,-150.77 2288.5,-144.77 2288.5,-138.77 2288.5,-138.77 2288.5,-126.77 2288.5,-126.77 2288.5,-120.77 2294.5,-114.77 2300.5,-114.77 2300.5,-114.77 2945.05,-114.77 2945.05,-114.77 2951.05,-114.77 2957.05,-120.77 2957.05,-126.77 2957.05,-126.77 2957.05,-138.77 2957.05,-138.77 2957.05,-144.77 2951.05,-150.77 2945.05,-150.77"/>
<text text-anchor="start" x="2302.9" y="-129.09" font-family="Times,serif" font-weight="bold" font-size="14.00">8: </text>
<text text-anchor="start" x="2322.4" y="-129.09" font-family="Times,serif" font-size="14.00">Entspricht die tats&#228;chliche Ausfallarbeitsmenge der er-warteten Ausfallarbeitsmenge?</text>
</g>
<!-- 7&#45;&gt;8 -->
<g id="edge15" class="edge">
<title>7-&gt;8</title>
<path fill="none" stroke="black" d="M2551.36,-203.78C2564.4,-191 2582.39,-173.36 2597.04,-158.99"/>
<polygon fill="black" stroke="black" points="2599.46,-161.53 2604.15,-152.03 2594.56,-156.53 2599.46,-161.53"/>
<text text-anchor="middle" x="2592.53" y="-172.72" font-family="Times,serif" font-size="14.00">Ja</text>
</g>
<!-- 8&#45;&gt;A06 -->
<g id="edge16" class="edge">
<title>8-&gt;A06</title>
<path fill="none" stroke="black" d="M2555.54,-114.35C2502.96,-100.73 2428.33,-81.39 2364.49,-64.85"/>
<polygon fill="black" stroke="black" points="2365.55,-61.51 2354.99,-62.39 2363.8,-68.29 2365.55,-61.51"/>
<text text-anchor="middle" x="2503.65" y="-83.47" font-family="Times,serif" font-size="14.00">Nein</text>
</g>
<!-- Ende -->
<g id="node16" class="node">
<title>Ende</title>
<polygon fill="#7a8da1" stroke="black" points="2655.55,-48.76 2590,-48.76 2590,-12.76 2655.55,-12.76 2655.55,-48.76"/>
<text text-anchor="middle" x="2622.78" y="-26.08" font-family="Times,serif" font-size="14.00">Ende</text>
</g>
<!-- 8&#45;&gt;Ende -->
<g id="edge17" class="edge">
<title>8-&gt;Ende</title>
<path fill="none" stroke="black" d="M2622.78,-114.35C2622.78,-99.51 2622.78,-77.88 2622.78,-60.48"/>
<polygon fill="black" stroke="black" points="2626.28,-60.49 2622.78,-50.49 2619.28,-60.49 2626.28,-60.49"/>
<text text-anchor="middle" x="2629.53" y="-83.47" font-family="Times,serif" font-size="14.00">Ja</text>
</g>
</g>
</svg>
  </g>
</svg>
  </g>
</svg>
