<?xml version='1.0' encoding='ASCII' standalone='yes'?>
<svg xmlns="http://www.w3.org/2000/svg" xmlns:xlink="http://www.w3.org/1999/xlink" version="1.1" width="1833.3333333333333px" viewBox="0 0 1833.3333333333333 1588.0" height="1588.0px">
  <g>
    <svg version="1.1" width="1833.3333333333333px" viewBox="0 0 1833.3333333333333 1588.0" height="1588.0px">
  <rect fill="#e7e6e5" x="0" y="0" width="1833.3333333333333" height="1588.0" rx="20" ry="20"/><g>
    <g transform="translate(269.0792828311272, 158.79999999999995) scale(1 1) translate(0, 0) scale(2.2359898620107015 2.2359898620107015) "><defs>
    <style>.cls-1{fill:#ffffff88;}</style>
    <!--
    ffffff88 is white with 50% transparency; this matches the colour of the tesa strip on
    ebd.hochfrequenz.de where it crosses the diagram SVG:
    https://github.com/Hochfrequenz/entscheidungsbaumdiagramme/blob/01bd43fa0f1d0333fa93596bc8b9fd1e4b285c8c/src/lib/components/features/svg-container.svelte#L54
    -->
  </defs>
  <path class="cls-1" d="M122.44,531.2h-56.1c-11,0-19.9-9.12-19.46-20.11C57.47,243.89,278.15,29.78,547.91,29.78v56.02c0,10.98-8.69,19.89-19.66,20.39-225.51,10.31-405.8,197-405.8,425Z"/>
  <path class="cls-1" d="M273.78,531.2h-55.93c-11.23,0-20.09-9.48-19.43-20.69,10.74-183.44,163.39-329.39,349.48-329.39v56.26c0,10.71-8.27,19.62-18.96,20.35-142.35,9.77-255.17,128.69-255.17,273.46Z"/>
  <path class="cls-1" d="M425.77,531.2h-55.45c-11.65,0-20.6-10.17-19.33-21.75,10.87-99.03,95.03-176.34,196.92-176.34v57.01c0,10.05-7.28,18.75-17.23,20.16-59.22,8.4-104.91,59.42-104.91,120.92Z"/>
</g>
    <svg width="1375pt" height="1191pt" viewBox="0.00 0.00 1374.80 1191.24">
<g id="graph0" class="graph" transform="scale(1 1) rotate(0) translate(18 1173.24)">
<title>D</title>
<text text-anchor="start" x="279.4" y="-1135.14" font-family="Roboto, sans-serif" font-weight="bold" font-size="18.00">MaBiS</text>
<text text-anchor="start" x="279.4" y="-1107.04" font-family="Roboto, sans-serif" font-weight="bold" font-size="16.00">7.58.1: AD: Austausch der Lieferantenausfallarbeitsclearingliste (g&#252;ltige Abonnierung)</text>
<!-- Start -->
<g id="node1" class="node">
<title>Start</title>
<path fill="#8ba2d7" stroke="black" stroke-width="0" d="M447.05,-1065.24C447.05,-1065.24 314,-1065.24 314,-1065.24 308,-1065.24 302,-1059.24 302,-1053.24 302,-1053.24 302,-1031.96 302,-1031.96 302,-1025.96 308,-1019.96 314,-1019.96 314,-1019.96 447.05,-1019.96 447.05,-1019.96 453.05,-1019.96 459.05,-1025.96 459.05,-1031.96 459.05,-1031.96 459.05,-1053.24 459.05,-1053.24 459.05,-1059.24 453.05,-1065.24 447.05,-1065.24"/>
<text text-anchor="start" x="316.4" y="-1044.3" font-family="Roboto, sans-serif" font-weight="bold" font-size="14.00">E_0096</text>
<text text-anchor="start" x="316.4" y="-1030.3" font-family="Roboto, sans-serif" font-size="14.00">Pr&#252;fende Rolle: </text>
<text text-anchor="start" x="425.9" y="-1030.3" font-family="Roboto, sans-serif" font-weight="bold" font-size="14.00">LF</text>
</g>
<!-- 1 -->
<g id="node2" class="node">
<title>1</title>
<path fill="#c2cee9" stroke="black" stroke-width="0" d="M619.55,-982.96C619.55,-982.96 141.5,-982.96 141.5,-982.96 135.5,-982.96 129.5,-976.96 129.5,-970.96 129.5,-970.96 129.5,-958.96 129.5,-958.96 129.5,-952.96 135.5,-946.96 141.5,-946.96 141.5,-946.96 619.55,-946.96 619.55,-946.96 625.55,-946.96 631.55,-952.96 631.55,-958.96 631.55,-958.96 631.55,-970.96 631.55,-970.96 631.55,-976.96 625.55,-982.96 619.55,-982.96"/>
<text text-anchor="start" x="143.9" y="-961.28" font-family="Roboto, sans-serif" font-weight="bold" font-size="14.00">1: </text>
<text text-anchor="start" x="163.4" y="-961.28" font-family="Roboto, sans-serif" font-size="14.00">Liegt f&#252;r diesen MaBiS-ZP ein g&#252;ltiges LF-AACL Abonnement vor?</text>
</g>
<!-- Start&#45;&gt;1 -->
<g id="edge1" class="edge">
<title>Start-&gt;1</title>
<path fill="none" stroke="#88a0d6" d="M380.52,-1020.13C380.52,-1012.05 380.52,-1002.75 380.52,-994.15"/>
<polygon fill="#88a0d6" stroke="#88a0d6" points="384.03,-994.19 380.53,-984.19 377.03,-994.19 384.03,-994.19"/>
</g>
<!-- A01 -->
<g id="node3" class="node">
<title>A01</title>
<path fill="#c4cac1" stroke="black" stroke-width="0" d="M292.68,-893.71C292.68,-893.71 16.38,-893.71 16.38,-893.71 10.38,-893.71 4.38,-887.71 4.38,-881.71 4.38,-881.71 4.38,-832.43 4.38,-832.43 4.38,-826.43 10.38,-820.43 16.38,-820.43 16.38,-820.43 292.68,-820.43 292.68,-820.43 298.68,-820.43 304.68,-826.43 304.68,-832.43 304.68,-832.43 304.68,-881.71 304.68,-881.71 304.68,-887.71 298.68,-893.71 292.68,-893.71"/>
<text text-anchor="start" x="18.78" y="-872.77" font-family="Roboto, sans-serif" font-weight="bold" font-size="14.00">A01</text>
<text text-anchor="start" x="18.78" y="-844.77" font-family="Roboto, sans-serif" font-size="14.00">Cluster: Ablehnung der gesamten Liste</text>
<text text-anchor="start" x="18.78" y="-830.77" font-family="Roboto, sans-serif" font-size="14.00">Zeitraum nicht plausibel</text>
</g>
<!-- 1&#45;&gt;A01 -->
<g id="edge2" class="edge">
<title>1-&gt;A01</title>
<path fill="none" stroke="#88a0d6" d="M344.46,-947.06C316.44,-933.93 276.4,-915.17 240.3,-898.26"/>
<polygon fill="#88a0d6" stroke="#88a0d6" points="242.14,-895.26 231.6,-894.18 239.17,-901.6 242.14,-895.26"/>
<text text-anchor="start" x="300.52" y="-916.66" font-family="Roboto, sans-serif" font-weight="bold" font-size="14.00">NEIN</text>
</g>
<!-- 2 -->
<g id="node4" class="node">
<title>2</title>
<path fill="#c2cee9" stroke="black" stroke-width="0" d="M858.42,-879.71C858.42,-879.71 334.62,-879.71 334.62,-879.71 328.62,-879.71 322.62,-873.71 322.62,-867.71 322.62,-867.71 322.62,-846.43 322.62,-846.43 322.62,-840.43 328.62,-834.43 334.62,-834.43 334.62,-834.43 858.42,-834.43 858.42,-834.43 864.42,-834.43 870.42,-840.43 870.42,-846.43 870.42,-846.43 870.42,-867.71 870.42,-867.71 870.42,-873.71 864.42,-879.71 858.42,-879.71"/>
<text text-anchor="start" x="337.02" y="-858.77" font-family="Roboto, sans-serif" font-weight="bold" font-size="14.00">2: </text>
<text text-anchor="start" x="356.52" y="-858.77" font-family="Roboto, sans-serif" font-size="14.00">Entspricht die Versionsangabe in der LF-AACL der Versionsangabe einer</text>
<text text-anchor="start" x="337.02" y="-844.77" font-family="Roboto, sans-serif" font-size="14.00">vorliegenden LF-AASZR?</text>
</g>
<!-- 1&#45;&gt;2 -->
<g id="edge3" class="edge">
<title>1-&gt;2</title>
<path fill="none" stroke="#88a0d6" d="M414.75,-947.18C449.11,-930.34 502.56,-904.14 542.62,-884.5"/>
<polygon fill="#88a0d6" stroke="#88a0d6" points="543.96,-887.74 551.4,-880.19 540.88,-881.45 543.96,-887.74"/>
<text text-anchor="start" x="481.52" y="-916.66" font-family="Roboto, sans-serif" font-weight="bold" font-size="14.00">JA</text>
</g>
<!-- A02 -->
<g id="node5" class="node">
<title>A02</title>
<path fill="#c4cac1" stroke="black" stroke-width="0" d="M373.93,-767.18C373.93,-767.18 93.12,-767.18 93.12,-767.18 87.12,-767.18 81.12,-761.18 81.12,-755.18 81.12,-755.18 81.12,-705.9 81.12,-705.9 81.12,-699.9 87.12,-693.9 93.12,-693.9 93.12,-693.9 373.93,-693.9 373.93,-693.9 379.93,-693.9 385.93,-699.9 385.93,-705.9 385.93,-705.9 385.93,-755.18 385.93,-755.18 385.93,-761.18 379.93,-767.18 373.93,-767.18"/>
<text text-anchor="start" x="95.53" y="-746.24" font-family="Roboto, sans-serif" font-weight="bold" font-size="14.00">A02</text>
<text text-anchor="start" x="95.53" y="-718.24" font-family="Roboto, sans-serif" font-size="14.00">Cluster: Ablehnung der gesamten Liste </text>
<text text-anchor="start" x="95.53" y="-704.24" font-family="Roboto, sans-serif" font-size="14.00">Version nicht zugelassen</text>
</g>
<!-- 2&#45;&gt;A02 -->
<g id="edge4" class="edge">
<title>2-&gt;A02</title>
<path fill="none" stroke="#88a0d6" d="M533.71,-834.52C482.59,-816.98 409.1,-791.77 347.63,-770.68"/>
<polygon fill="#88a0d6" stroke="#88a0d6" points="349.11,-767.49 338.52,-767.56 346.84,-774.11 349.11,-767.49"/>
<text text-anchor="start" x="436.52" y="-790.13" font-family="Roboto, sans-serif" font-weight="bold" font-size="14.00">NEIN</text>
</g>
<!-- 3 -->
<g id="node6" class="node">
<title>3</title>
<path fill="#c2cee9" stroke="black" stroke-width="0" d="M883.3,-748.54C883.3,-748.54 415.75,-748.54 415.75,-748.54 409.75,-748.54 403.75,-742.54 403.75,-736.54 403.75,-736.54 403.75,-724.54 403.75,-724.54 403.75,-718.54 409.75,-712.54 415.75,-712.54 415.75,-712.54 883.3,-712.54 883.3,-712.54 889.3,-712.54 895.3,-718.54 895.3,-724.54 895.3,-724.54 895.3,-736.54 895.3,-736.54 895.3,-742.54 889.3,-748.54 883.3,-748.54"/>
<text text-anchor="start" x="418.15" y="-726.87" font-family="Roboto, sans-serif" font-weight="bold" font-size="14.00">3: </text>
<text text-anchor="start" x="437.65" y="-726.87" font-family="Roboto, sans-serif" font-size="14.00">Ist eine erwartete Marktlokation in der LF-AACL nicht enthalten?</text>
</g>
<!-- 2&#45;&gt;3 -->
<g id="edge5" class="edge">
<title>2-&gt;3</title>
<path fill="none" stroke="#88a0d6" d="M605.64,-834.66C614.59,-813.63 628.28,-781.45 637.99,-758.64"/>
<polygon fill="#88a0d6" stroke="#88a0d6" points="641.11,-760.25 641.81,-749.68 634.67,-757.51 641.11,-760.25"/>
<text text-anchor="start" x="625.52" y="-790.13" font-family="Roboto, sans-serif" font-weight="bold" font-size="14.00">JA</text>
</g>
<!-- A03 -->
<g id="node7" class="node">
<title>A03</title>
<path fill="#c4cac1" stroke="black" stroke-width="0" d="M349.05,-640.65C349.05,-640.65 12,-640.65 12,-640.65 6,-640.65 0,-634.65 0,-628.65 0,-628.65 0,-579.37 0,-579.37 0,-573.37 6,-567.37 12,-567.37 12,-567.37 349.05,-567.37 349.05,-567.37 355.05,-567.37 361.05,-573.37 361.05,-579.37 361.05,-579.37 361.05,-628.65 361.05,-628.65 361.05,-634.65 355.05,-640.65 349.05,-640.65"/>
<text text-anchor="start" x="14.4" y="-619.71" font-family="Roboto, sans-serif" font-weight="bold" font-size="14.00">A03</text>
<text text-anchor="start" x="14.4" y="-591.71" font-family="Roboto, sans-serif" font-size="14.00">Cluster: Korrekturliste wegen Ablehnung</text>
<text text-anchor="start" x="14.4" y="-577.71" font-family="Roboto, sans-serif" font-size="14.00">Zus&#228;tzlicher Datensatz / erg&#228;nzte Marktlokation</text>
</g>
<!-- 3&#45;&gt;A03 -->
<g id="edge6" class="edge">
<title>3-&gt;A03</title>
<path fill="none" stroke="#88a0d6" d="M585.79,-712.62C519.25,-694.95 412.67,-666.65 325.51,-643.51"/>
<polygon fill="#88a0d6" stroke="#88a0d6" points="326.46,-640.14 315.9,-640.95 324.66,-646.9 326.46,-640.14"/>
<text text-anchor="start" x="442.52" y="-663.6" font-family="Roboto, sans-serif" font-weight="bold" font-size="14.00">JA</text>
</g>
<!-- 4 -->
<g id="node8" class="node">
<title>4</title>
<path fill="#c2cee9" stroke="black" stroke-width="0" d="M971.55,-626.65C971.55,-626.65 391.5,-626.65 391.5,-626.65 385.5,-626.65 379.5,-620.65 379.5,-614.65 379.5,-614.65 379.5,-593.37 379.5,-593.37 379.5,-587.37 385.5,-581.37 391.5,-581.37 391.5,-581.37 971.55,-581.37 971.55,-581.37 977.55,-581.37 983.55,-587.37 983.55,-593.37 983.55,-593.37 983.55,-614.65 983.55,-614.65 983.55,-620.65 977.55,-626.65 971.55,-626.65"/>
<text text-anchor="start" x="393.9" y="-605.71" font-family="Roboto, sans-serif" font-weight="bold" font-size="14.00">4: </text>
<text text-anchor="start" x="413.4" y="-605.71" font-family="Roboto, sans-serif" font-size="14.00">Ist in der LF-AACL eine Marktlokation enthalten, die im Bilanzierungsmonat dem</text>
<text text-anchor="start" x="393.9" y="-591.71" font-family="Roboto, sans-serif" font-size="14.00">LF zur Bilanzierung nicht zugeordnet ist?</text>
</g>
<!-- 3&#45;&gt;4 -->
<g id="edge7" class="edge">
<title>3-&gt;4</title>
<path fill="none" stroke="#88a0d6" d="M653.84,-712.75C658.77,-693.58 666.94,-661.76 673.13,-637.66"/>
<polygon fill="#88a0d6" stroke="#88a0d6" points="676.52,-638.56 675.62,-628.01 669.74,-636.82 676.52,-638.56"/>
<text text-anchor="start" x="666.52" y="-663.6" font-family="Roboto, sans-serif" font-weight="bold" font-size="14.00">NEIN</text>
</g>
<!-- A04 -->
<g id="node9" class="node">
<title>A04</title>
<path fill="#c4cac1" stroke="black" stroke-width="0" d="M485.17,-514.12C485.17,-514.12 199.88,-514.12 199.88,-514.12 193.88,-514.12 187.87,-508.12 187.87,-502.12 187.87,-502.12 187.87,-452.84 187.87,-452.84 187.87,-446.84 193.87,-440.84 199.87,-440.84 199.87,-440.84 485.17,-440.84 485.17,-440.84 491.17,-440.84 497.17,-446.84 497.17,-452.84 497.17,-452.84 497.17,-502.12 497.17,-502.12 497.17,-508.12 491.17,-514.12 485.17,-514.12"/>
<text text-anchor="start" x="202.27" y="-493.18" font-family="Roboto, sans-serif" font-weight="bold" font-size="14.00">A04</text>
<text text-anchor="start" x="202.27" y="-465.18" font-family="Roboto, sans-serif" font-size="14.00">Cluster: Korrekturliste wegen Ablehnung</text>
<text text-anchor="start" x="202.27" y="-451.18" font-family="Roboto, sans-serif" font-size="14.00">Marktlokation falschem LF zugeordnet</text>
</g>
<!-- 4&#45;&gt;A04 -->
<g id="edge8" class="edge">
<title>4-&gt;A04</title>
<path fill="none" stroke="#88a0d6" d="M622.86,-581.46C575.32,-564 507.06,-538.92 449.8,-517.89"/>
<polygon fill="#88a0d6" stroke="#88a0d6" points="451.26,-514.69 440.66,-514.53 448.84,-521.26 451.26,-514.69"/>
<text text-anchor="start" x="531.52" y="-537.07" font-family="Roboto, sans-serif" font-weight="bold" font-size="14.00">JA</text>
</g>
<!-- 5 -->
<g id="node10" class="node">
<title>5</title>
<path fill="#c2cee9" stroke="black" stroke-width="0" d="M1073.67,-495.48C1073.67,-495.48 527.38,-495.48 527.38,-495.48 521.38,-495.48 515.38,-489.48 515.38,-483.48 515.38,-483.48 515.38,-471.48 515.38,-471.48 515.38,-465.48 521.38,-459.48 527.38,-459.48 527.38,-459.48 1073.67,-459.48 1073.67,-459.48 1079.67,-459.48 1085.67,-465.48 1085.67,-471.48 1085.67,-471.48 1085.67,-483.48 1085.67,-483.48 1085.67,-489.48 1079.67,-495.48 1073.67,-495.48"/>
<text text-anchor="start" x="529.77" y="-473.8" font-family="Roboto, sans-serif" font-weight="bold" font-size="14.00">5: </text>
<text text-anchor="start" x="549.27" y="-473.8" font-family="Roboto, sans-serif" font-size="14.00">Ist die in der LF-AACL enthaltene Marktlokation dem MaBiS-ZP zugeordnet?</text>
</g>
<!-- 4&#45;&gt;5 -->
<g id="edge9" class="edge">
<title>4-&gt;5</title>
<path fill="none" stroke="#88a0d6" d="M701.98,-581.6C722.72,-559.9 754.8,-526.33 776.68,-503.43"/>
<polygon fill="#88a0d6" stroke="#88a0d6" points="779.1,-505.97 783.48,-496.32 774.04,-501.13 779.1,-505.97"/>
<text text-anchor="start" x="747.52" y="-537.07" font-family="Roboto, sans-serif" font-weight="bold" font-size="14.00">NEIN</text>
</g>
<!-- A05 -->
<g id="node11" class="node">
<title>A05</title>
<path fill="#c4cac1" stroke="black" stroke-width="0" d="M576.05,-387.59C576.05,-387.59 149,-387.59 149,-387.59 143,-387.59 137,-381.59 137,-375.59 137,-375.59 137,-326.31 137,-326.31 137,-320.31 143,-314.31 149,-314.31 149,-314.31 576.05,-314.31 576.05,-314.31 582.05,-314.31 588.05,-320.31 588.05,-326.31 588.05,-326.31 588.05,-375.59 588.05,-375.59 588.05,-381.59 582.05,-387.59 576.05,-387.59"/>
<text text-anchor="start" x="151.4" y="-366.65" font-family="Roboto, sans-serif" font-weight="bold" font-size="14.00">A05</text>
<text text-anchor="start" x="151.4" y="-338.65" font-family="Roboto, sans-serif" font-size="14.00">Cluster: Korrekturliste wegen Ablehnung</text>
<text text-anchor="start" x="151.4" y="-324.65" font-family="Roboto, sans-serif" font-size="14.00">Zu viele Marktlokationen enthalten / entfallene Marktlokation</text>
</g>
<!-- 5&#45;&gt;A05 -->
<g id="edge10" class="edge">
<title>5-&gt;A05</title>
<path fill="none" stroke="#88a0d6" d="M741,-459.56C678.99,-441.93 579.73,-413.71 498.42,-390.59"/>
<polygon fill="#88a0d6" stroke="#88a0d6" points="499.61,-387.29 489.04,-387.92 497.7,-394.02 499.61,-387.29"/>
<text text-anchor="start" x="607.52" y="-410.54" font-family="Roboto, sans-serif" font-weight="bold" font-size="14.00">NEIN</text>
</g>
<!-- 6 -->
<g id="node12" class="node">
<title>6</title>
<path fill="#c2cee9" stroke="black" stroke-width="0" d="M1180.92,-373.59C1180.92,-373.59 618.12,-373.59 618.12,-373.59 612.12,-373.59 606.12,-367.59 606.12,-361.59 606.12,-361.59 606.12,-340.31 606.12,-340.31 606.12,-334.31 612.12,-328.31 618.12,-328.31 618.12,-328.31 1180.92,-328.31 1180.92,-328.31 1186.92,-328.31 1192.92,-334.31 1192.92,-340.31 1192.92,-340.31 1192.92,-361.59 1192.92,-361.59 1192.92,-367.59 1186.92,-373.59 1180.92,-373.59"/>
<text text-anchor="start" x="620.52" y="-352.65" font-family="Roboto, sans-serif" font-weight="bold" font-size="14.00">6: </text>
<text text-anchor="start" x="640.02" y="-352.65" font-family="Roboto, sans-serif" font-size="14.00">Entspricht das Bilanzierungsgebiet dem zwischen NB und LF ausgetauschten</text>
<text text-anchor="start" x="620.52" y="-338.65" font-family="Roboto, sans-serif" font-size="14.00">Bilanzierungsgebiet?</text>
</g>
<!-- 5&#45;&gt;6 -->
<g id="edge11" class="edge">
<title>5-&gt;6</title>
<path fill="none" stroke="#88a0d6" d="M813.88,-459.69C829.6,-439.91 856.03,-406.66 875.38,-382.33"/>
<polygon fill="#88a0d6" stroke="#88a0d6" points="877.98,-384.67 881.47,-374.67 872.5,-380.32 877.98,-384.67"/>
<text text-anchor="start" x="855.52" y="-410.54" font-family="Roboto, sans-serif" font-weight="bold" font-size="14.00">JA</text>
</g>
<!-- A06 -->
<g id="node13" class="node">
<title>A06</title>
<path fill="#c4cac1" stroke="black" stroke-width="0" d="M958.17,-73.28C958.17,-73.28 642.88,-73.28 642.88,-73.28 636.88,-73.28 630.88,-67.28 630.88,-61.28 630.88,-61.28 630.88,-12 630.88,-12 630.88,-6 636.88,0 642.88,0 642.88,0 958.17,0 958.17,0 964.17,0 970.17,-6 970.17,-12 970.17,-12 970.17,-61.28 970.17,-61.28 970.17,-67.28 964.17,-73.28 958.17,-73.28"/>
<text text-anchor="start" x="645.27" y="-52.34" font-family="Roboto, sans-serif" font-weight="bold" font-size="14.00">A06</text>
<text text-anchor="start" x="645.27" y="-24.34" font-family="Roboto, sans-serif" font-size="14.00">Cluster: Korrekturliste wegen Ablehnung</text>
<text text-anchor="start" x="645.27" y="-10.34" font-family="Roboto, sans-serif" font-size="14.00">Bilanzierungsrel. Daten nicht korrekt / fehlen</text>
</g>
<!-- 6&#45;&gt;A06 -->
<g id="edge12" class="edge">
<title>6-&gt;A06</title>
<path fill="none" stroke="#88a0d6" d="M808.49,-328.45C773.16,-315.18 736.27,-294.12 715.52,-261.06 677.16,-199.92 704.76,-162.42 742.52,-100.91"/>
<path fill="none" stroke="#88a0d6" d="M742.52,-98.91C745.48,-93.04 749.18,-87.35 753.27,-81.95"/>
<polygon fill="#88a0d6" stroke="#88a0d6" points="755.87,-84.29 759.5,-74.34 750.46,-79.85 755.87,-84.29"/>
<text text-anchor="start" x="697.52" y="-194.76" font-family="Roboto, sans-serif" font-weight="bold" font-size="14.00">NEIN</text>
</g>
<!-- 7 -->
<g id="node14" class="node">
<title>7</title>
<path fill="#c2cee9" stroke="black" stroke-width="0" d="M1326.8,-261.06C1326.8,-261.06 736.25,-261.06 736.25,-261.06 730.25,-261.06 724.25,-255.06 724.25,-249.06 724.25,-249.06 724.25,-237.06 724.25,-237.06 724.25,-231.06 730.25,-225.06 736.25,-225.06 736.25,-225.06 1326.8,-225.06 1326.8,-225.06 1332.8,-225.06 1338.8,-231.06 1338.8,-237.06 1338.8,-237.06 1338.8,-249.06 1338.8,-249.06 1338.8,-255.06 1332.8,-261.06 1326.8,-261.06"/>
<text text-anchor="start" x="738.65" y="-239.38" font-family="Roboto, sans-serif" font-weight="bold" font-size="14.00">7: </text>
<text text-anchor="start" x="758.15" y="-239.38" font-family="Roboto, sans-serif" font-size="14.00">Entspricht der Bilanzkreis dem zwischen NB und LF aus-getauschten Bilanzkreis?</text>
</g>
<!-- 6&#45;&gt;7 -->
<g id="edge13" class="edge">
<title>6-&gt;7</title>
<path fill="none" stroke="#88a0d6" d="M926.24,-328.52C948.09,-310.99 978.97,-286.22 1001.64,-268.04"/>
<polygon fill="#88a0d6" stroke="#88a0d6" points="1003.7,-270.86 1009.31,-261.88 999.32,-265.4 1003.7,-270.86"/>
<text text-anchor="start" x="984.52" y="-284.01" font-family="Roboto, sans-serif" font-weight="bold" font-size="14.00">JA</text>
</g>
<!-- 7&#45;&gt;A06 -->
<g id="edge14" class="edge">
<title>7-&gt;A06</title>
<path fill="none" stroke="#88a0d6" d="M908.25,-225.07C843.36,-213.5 772.89,-195.9 751.52,-171.81 730.45,-148.05 724.87,-127.31 742.52,-100.91"/>
<text text-anchor="start" x="751.52" y="-145.5" font-family="Roboto, sans-serif" font-weight="bold" font-size="14.00">NEIN</text>
</g>
<!-- 8 -->
<g id="node15" class="node">
<title>8</title>
<path fill="#c2cee9" stroke="black" stroke-width="0" d="M1279.68,-171.81C1279.68,-171.81 811.38,-171.81 811.38,-171.81 805.38,-171.81 799.38,-165.81 799.38,-159.81 799.38,-159.81 799.38,-138.53 799.38,-138.53 799.38,-132.53 805.38,-126.53 811.38,-126.53 811.38,-126.53 1279.68,-126.53 1279.68,-126.53 1285.68,-126.53 1291.68,-132.53 1291.68,-138.53 1291.68,-138.53 1291.68,-159.81 1291.68,-159.81 1291.68,-165.81 1285.68,-171.81 1279.68,-171.81"/>
<text text-anchor="start" x="813.78" y="-150.87" font-family="Roboto, sans-serif" font-weight="bold" font-size="14.00">8: </text>
<text text-anchor="start" x="833.28" y="-150.87" font-family="Roboto, sans-serif" font-size="14.00">Entspricht die tats&#228;chliche Ausfallarbeitsmenge der er-warteten</text>
<text text-anchor="start" x="813.78" y="-136.87" font-family="Roboto, sans-serif" font-size="14.00">Ausfallarbeitsmenge?</text>
</g>
<!-- 7&#45;&gt;8 -->
<g id="edge15" class="edge">
<title>7-&gt;8</title>
<path fill="none" stroke="#88a0d6" d="M1034.09,-225.21C1035.9,-213.35 1038.37,-197.1 1040.56,-182.76"/>
<polygon fill="#88a0d6" stroke="#88a0d6" points="1043.96,-183.69 1042,-173.28 1037.04,-182.64 1043.96,-183.69"/>
<text text-anchor="start" x="1038.53" y="-194.76" font-family="Roboto, sans-serif" font-weight="bold" font-size="14.00">JA</text>
</g>
<!-- 8&#45;&gt;A06 -->
<g id="edge16" class="edge">
<title>8-&gt;A06</title>
<path fill="none" stroke="#88a0d6" d="M997.7,-126.6C966.9,-112.7 925.91,-94.21 889.28,-77.68"/>
<polygon fill="#88a0d6" stroke="#88a0d6" points="891.01,-74.62 880.46,-73.7 888.13,-81 891.01,-74.62"/>
<text text-anchor="start" x="951.52" y="-96.23" font-family="Roboto, sans-serif" font-weight="bold" font-size="14.00">NEIN</text>
</g>
<!-- Ende -->
<g id="node16" class="node">
<title>Ende</title>
<path fill="#8ba2d7" stroke="black" stroke-width="0" d="M1065.55,-54.64C1065.55,-54.64 1025.5,-54.64 1025.5,-54.64 1019.5,-54.64 1013.5,-48.64 1013.5,-42.64 1013.5,-42.64 1013.5,-30.64 1013.5,-30.64 1013.5,-24.64 1019.5,-18.64 1025.5,-18.64 1025.5,-18.64 1065.55,-18.64 1065.55,-18.64 1071.55,-18.64 1077.55,-24.64 1077.55,-30.64 1077.55,-30.64 1077.55,-42.64 1077.55,-42.64 1077.55,-48.64 1071.55,-54.64 1065.55,-54.64"/>
<text text-anchor="middle" x="1045.53" y="-31.96" font-family="Roboto, sans-serif" font-size="14.00">Ende</text>
</g>
<!-- 8&#45;&gt;Ende -->
<g id="edge17" class="edge">
<title>8-&gt;Ende</title>
<path fill="none" stroke="#88a0d6" d="M1045.53,-126.6C1045.53,-109.28 1045.53,-84.83 1045.53,-65.94"/>
<polygon fill="#88a0d6" stroke="#88a0d6" points="1049.03,-65.98 1045.53,-55.98 1042.03,-65.98 1049.03,-65.98"/>
<text text-anchor="start" x="1045.53" y="-96.23" font-family="Roboto, sans-serif" font-weight="bold" font-size="14.00">JA</text>
</g>
</g>
</svg>
  </g>
</svg>
  </g>
</svg>
