<?xml version='1.0' encoding='ASCII' standalone='yes'?>
<svg xmlns="http://www.w3.org/2000/svg" xmlns:xlink="http://www.w3.org/1999/xlink" version="1.1" width="7134.666666666667px" viewBox="0 0 7134.666666666667 1576.0" height="1576.0px">
  <g>
    <svg version="1.1" width="7134.666666666667px" viewBox="0 0 7134.666666666667 1576.0" height="1576.0px">
  <polygon fill="#f3f1f6" points="0,0 7134.666666666667,0 7134.666666666667,1576.0 0,1576.0"/><g>
    <g transform="translate(2937.4009423247007, 157.59999999999997) scale(1 1) translate(0, 0) scale(7.12764257857395 7.12764257857395) "><sodipodi:namedview xmlns:sodipodi="http://sodipodi.sourceforge.net/DTD/sodipodi-0.dtd" xmlns:inkscape="http://www.inkscape.org/namespaces/inkscape" id="namedview7" pagecolor="#ffffff" bordercolor="#999999" borderopacity="1" inkscape:pageshadow="0" inkscape:pageopacity="0" inkscape:pagecheckerboard="0" inkscape:document-units="mm" showgrid="false" fit-margin-top="0" fit-margin-left="0" fit-margin-right="0" fit-margin-bottom="0" inkscape:zoom="0.64052329" inkscape:cx="130.36216" inkscape:cy="412.163" inkscape:window-width="1512" inkscape:window-height="916" inkscape:window-x="3840" inkscape:window-y="136" inkscape:window-maximized="0" inkscape:current-layer="layer1"/>
  <defs id="defs2">
    <clipPath clipPathUnits="userSpaceOnUse" id="clipPath23">
      <path d="M 0,568.156 H 579.236 V 0 H 0 Z" id="path21"/>
    </clipPath>
  </defs>
  <g xmlns:inkscape="http://www.inkscape.org/namespaces/inkscape" inkscape:label="Layer 1" inkscape:groupmode="layer" id="layer1" transform="translate(-16.541937,-55.305267)">
    <g id="g19" clip-path="url(#clipPath23)" transform="matrix(0.35277777,0,0,-0.35277777,0.01017023,243.73675)" style="opacity:0.2">
      <g id="g25" transform="translate(122.444,32.7195)">
        <path d="m 0,0 h -56.104 c -11,0 -19.898,9.123 -19.463,20.115 10.594,267.191 231.277,481.302 501.029,481.302 v -56.02 c 0,-10.98 -8.688,-19.892 -19.658,-20.393 C 180.29,414.697 0,228.005 0,0" style="fill:#6ead83;fill-opacity:1;fill-rule:nonzero;stroke:none" id="path27"/>
      </g>
      <g id="g29" transform="translate(273.7828,32.7195)">
        <path d="m 0,0 h -55.926 c -11.228,0 -20.091,9.482 -19.435,20.69 10.744,183.439 163.389,329.388 349.485,329.388 v -56.263 c 0,-10.709 -8.273,-19.617 -18.957,-20.35 C 112.819,263.696 0,144.774 0,0" style="fill:#6ead83;fill-opacity:1;fill-rule:nonzero;stroke:none" id="path31"/>
      </g>
      <g id="g33" transform="translate(425.7667,32.7195)">
        <path d="m 0,0 h -55.445 c -11.653,0 -20.604,10.17 -19.334,21.753 10.866,99.032 95.031,176.341 196.919,176.341 v -57.011 c 0,-10.046 -7.283,-18.755 -17.229,-20.165 C 45.688,112.522 0,61.497 0,0" style="fill:#6ead83;fill-opacity:1;fill-rule:nonzero;stroke:none" id="path35"/>
      </g>
    </g>
  </g>
</g>
    <svg width="5351pt" height="1182pt" viewBox="0.00 0.00 5351.01 1181.69">
<g id="graph0" class="graph" transform="scale(1 1) rotate(0) translate(4 1177.69)">
<title>D</title>
<text text-anchor="start" x="2642.63" y="-1153.59" font-family="Times,serif" font-weight="bold" font-size="18.00">GPKE</text>
<text text-anchor="start" x="2128.51" y="-1123.49" font-family="Times,serif" font-weight="bold" font-size="16.00">6.28.2: AD: Information &#252;ber die Beendigung der Zuordnung einer Marktlokation zur Datenaggregation durch den &#220;NB</text>
<!-- Start -->
<g id="node1" class="node">
<title>Start</title>
<polygon fill="#7a8da1" stroke="black" points="909.89,-1075.69 739.34,-1075.69 739.34,-1032.41 909.89,-1032.41 909.89,-1075.69"/>
<text text-anchor="start" x="796.49" y="-1054.75" font-family="Times,serif" font-weight="bold" font-size="14.00">E_0450</text>
<text text-anchor="start" x="753.74" y="-1042.65" font-family="Times,serif" font-weight="bold" text-decoration="underline" font-size="12.00">Pr&#252;fende Rolle:</text>
<text text-anchor="start" x="858.74" y="-1042.65" font-family="Times,serif" font-weight="bold" font-size="12.00"> &#220;NB</text>
</g>
<!-- 1 -->
<g id="node2" class="node">
<title>1</title>
<path fill="#7aab8a" stroke="black" d="M1169.01,-995.41C1169.01,-995.41 480.21,-995.41 480.21,-995.41 474.21,-995.41 468.21,-989.41 468.21,-983.41 468.21,-983.41 468.21,-971.41 468.21,-971.41 468.21,-965.41 474.21,-959.41 480.21,-959.41 480.21,-959.41 1169.01,-959.41 1169.01,-959.41 1175.01,-959.41 1181.01,-965.41 1181.01,-971.41 1181.01,-971.41 1181.01,-983.41 1181.01,-983.41 1181.01,-989.41 1175.01,-995.41 1169.01,-995.41"/>
<text text-anchor="start" x="482.61" y="-973.74" font-family="Times,serif" font-weight="bold" font-size="14.00">1: </text>
<text text-anchor="start" x="502.11" y="-973.74" font-family="Times,serif" font-size="14.00">Sind Fehler im Rahmen der AHB-Pr&#252;fungen in den Stammdaten des NB festgestellt worden?</text>
</g>
<!-- Start&#45;&gt;1 -->
<g id="edge1" class="edge">
<title>Start-&gt;1</title>
<path fill="none" stroke="black" d="M824.61,-1032.26C824.61,-1024.4 824.61,-1015.32 824.61,-1006.88"/>
<polygon fill="black" stroke="black" points="828.12,-1007.08 824.62,-997.08 821.12,-1007.08 828.12,-1007.08"/>
</g>
<!-- A97 -->
<g id="node3" class="node">
<title>A97</title>
<polygon fill="#cfb986" stroke="black" points="1280.1,-906.16 333.12,-906.16 333.12,-844.64 1280.1,-844.64 1280.1,-906.16"/>
<text text-anchor="start" x="791.61" y="-888.1" font-family="Times,serif" font-weight="bold" font-size="14.00">A97</text>
<text text-anchor="start" x="345.36" y="-876" font-family="Times,serif" text-decoration="underline" font-size="12.00">Hinweis:</text>
<text text-anchor="start" x="345.36" y="-864" font-family="Times,serif" font-size="12.00">Die Stammdaten des NB gen&#252;gen nicht den AHB-Vorgaben.</text>
<text text-anchor="start" x="345.36" y="-852" font-family="Times,serif" font-size="12.00">Hinweis: Diese Pr&#252;fung ist auf alle Stammdaten des NB anzuwenden. Es sind die Fehlerorte aller dabei festgestellten Fehler in der Antwort zu benennen.</text>
</g>
<!-- 1&#45;&gt;A97 -->
<g id="edge2" class="edge">
<title>1-&gt;A97</title>
<path fill="none" stroke="black" d="M821.48,-958.99C819.43,-947.6 816.66,-932.21 814.07,-917.8"/>
<polygon fill="black" stroke="black" points="817.53,-917.26 812.31,-908.04 810.64,-918.5 817.53,-917.26"/>
<text text-anchor="middle" x="825.36" y="-928.11" font-family="Times,serif" font-size="14.00">Ja</text>
</g>
<!-- 2 -->
<g id="node4" class="node">
<title>2</title>
<path fill="#7aab8a" stroke="black" d="M1930.89,-893.4C1930.89,-893.4 1310.34,-893.4 1310.34,-893.4 1304.34,-893.4 1298.34,-887.4 1298.34,-881.4 1298.34,-881.4 1298.34,-869.4 1298.34,-869.4 1298.34,-863.4 1304.34,-857.4 1310.34,-857.4 1310.34,-857.4 1930.89,-857.4 1930.89,-857.4 1936.89,-857.4 1942.89,-863.4 1942.89,-869.4 1942.89,-869.4 1942.89,-881.4 1942.89,-881.4 1942.89,-887.4 1936.89,-893.4 1930.89,-893.4"/>
<text text-anchor="start" x="1312.74" y="-871.73" font-family="Times,serif" font-weight="bold" font-size="14.00">2: </text>
<text text-anchor="start" x="1332.24" y="-871.73" font-family="Times,serif" font-size="14.00">Wechselt f&#252;r die Marktlokation die Aggregationsverantwortung vom &#220;NB zum NB?</text>
</g>
<!-- 1&#45;&gt;2 -->
<g id="edge3" class="edge">
<title>1-&gt;2</title>
<path fill="none" stroke="black" d="M963.72,-958.93C1105.43,-941.13 1324.47,-913.61 1470.15,-895.3"/>
<polygon fill="black" stroke="black" points="1470.39,-898.8 1479.88,-894.08 1469.52,-891.86 1470.39,-898.8"/>
<text text-anchor="middle" x="1239.49" y="-928.11" font-family="Times,serif" font-size="14.00">Nein</text>
</g>
<!-- 3 -->
<g id="node5" class="node">
<title>3</title>
<path fill="#7aab8a" stroke="black" d="M1271.01,-791.39C1271.01,-791.39 120.21,-791.39 120.21,-791.39 114.21,-791.39 108.21,-785.39 108.21,-779.39 108.21,-779.39 108.21,-767.39 108.21,-767.39 108.21,-761.39 114.21,-755.39 120.21,-755.39 120.21,-755.39 1271.01,-755.39 1271.01,-755.39 1277.01,-755.39 1283.01,-761.39 1283.01,-767.39 1283.01,-767.39 1283.01,-779.39 1283.01,-779.39 1283.01,-785.39 1277.01,-791.39 1271.01,-791.39"/>
<text text-anchor="start" x="122.61" y="-769.72" font-family="Times,serif" font-weight="bold" font-size="14.00">3: </text>
<text text-anchor="start" x="142.11" y="-769.72" font-family="Times,serif" font-size="14.00">Ist die Marktlokation bzw. Tranche zu dem im Vorgang unter &#8222;Verwendung der Daten bis&#8220; genannten Zeitpunkt dem &#220;NB zur Datenaggregation zugeordnet?</text>
</g>
<!-- 2&#45;&gt;3 -->
<g id="edge4" class="edge">
<title>2-&gt;3</title>
<path fill="none" stroke="black" d="M1458.96,-856.92C1293.72,-839.06 1037.96,-811.4 868.69,-793.1"/>
<polygon fill="black" stroke="black" points="869.24,-789.64 858.92,-792.05 868.48,-796.6 869.24,-789.64"/>
<text text-anchor="middle" x="1165.36" y="-813.34" font-family="Times,serif" font-size="14.00">Ja</text>
</g>
<!-- 4 -->
<g id="node7" class="node">
<title>4</title>
<path fill="#7aab8a" stroke="black" d="M2839.51,-791.39C2839.51,-791.39 1343.71,-791.39 1343.71,-791.39 1337.71,-791.39 1331.71,-785.39 1331.71,-779.39 1331.71,-779.39 1331.71,-767.39 1331.71,-767.39 1331.71,-761.39 1337.71,-755.39 1343.71,-755.39 1343.71,-755.39 2839.51,-755.39 2839.51,-755.39 2845.51,-755.39 2851.51,-761.39 2851.51,-767.39 2851.51,-767.39 2851.51,-779.39 2851.51,-779.39 2851.51,-785.39 2845.51,-791.39 2839.51,-791.39"/>
<text text-anchor="start" x="1346.11" y="-769.72" font-family="Times,serif" font-weight="bold" font-size="14.00">4: </text>
<text text-anchor="start" x="1365.61" y="-769.72" font-family="Times,serif" font-size="14.00">Liegt eine Stilllegung der Marktlokation vor bzw. ist die Marktlokation nicht mehr bilanzierungsrelevant bzw. wurde die Marktlokation &#252;ber das Netz des NB in ein anderes &#220;bertragungsnetz eingebunden?</text>
</g>
<!-- 2&#45;&gt;4 -->
<g id="edge5" class="edge">
<title>2-&gt;4</title>
<path fill="none" stroke="black" d="M1702.93,-856.92C1785.41,-839.41 1912.18,-812.49 1998.34,-794.2"/>
<polygon fill="black" stroke="black" points="1998.89,-797.66 2007.95,-792.16 1997.44,-790.81 1998.89,-797.66"/>
<text text-anchor="middle" x="1943.49" y="-813.34" font-family="Times,serif" font-size="14.00">Nein</text>
</g>
<!-- A02 -->
<g id="node6" class="node">
<title>A02</title>
<polygon fill="#cfb986" stroke="black" points="667.23,-702.14 0,-702.14 0,-652.62 667.23,-652.62 667.23,-702.14"/>
<text text-anchor="start" x="318.61" y="-684.08" font-family="Times,serif" font-weight="bold" font-size="14.00">A02</text>
<text text-anchor="start" x="12.24" y="-671.98" font-family="Times,serif" text-decoration="underline" font-size="12.00">Hinweis:</text>
<text text-anchor="start" x="12.24" y="-659.98" font-family="Times,serif" font-size="12.00">Die Marktlokation bzw. Tranche ist zum genannten Zeitpunkt nicht dem &#220;NB zur Aggregation zugeordnet.</text>
</g>
<!-- 3&#45;&gt;A02 -->
<g id="edge6" class="edge">
<title>3-&gt;A02</title>
<path fill="none" stroke="black" d="M628.37,-754.93C574.85,-741.03 499,-721.33 437.65,-705.4"/>
<polygon fill="black" stroke="black" points="438.79,-702.08 428.23,-702.95 437.03,-708.85 438.79,-702.08"/>
<text text-anchor="middle" x="575.49" y="-724.09" font-family="Times,serif" font-size="14.00">Nein</text>
</g>
<!-- 9 -->
<g id="node16" class="node">
<title>9</title>
<path fill="#7aab8a" stroke="black" d="M1657.39,-483.84C1657.39,-483.84 211.84,-483.84 211.84,-483.84 205.84,-483.84 199.84,-477.84 199.84,-471.84 199.84,-471.84 199.84,-459.84 199.84,-459.84 199.84,-453.84 205.84,-447.84 211.84,-447.84 211.84,-447.84 1657.39,-447.84 1657.39,-447.84 1663.39,-447.84 1669.39,-453.84 1669.39,-459.84 1669.39,-459.84 1669.39,-471.84 1669.39,-471.84 1669.39,-477.84 1663.39,-483.84 1657.39,-483.84"/>
<text text-anchor="start" x="214.24" y="-462.16" font-family="Times,serif" font-weight="bold" font-size="14.00">9: </text>
<text text-anchor="start" x="233.74" y="-462.16" font-family="Times,serif" font-size="14.00">Liegt das im Vorgang unter "Verwendung der Daten bis" genannte Datum zum Zeitpunkt des Empfangs des Vorgangs beim &#220;NB vor dem Beginn des Monats, in dem der Vorgang beim &#220;NB eingeht?</text>
</g>
<!-- 3&#45;&gt;9 -->
<g id="edge7" class="edge">
<title>3-&gt;9</title>
<path fill="none" stroke="black" d="M691.42,-754.9C682.77,-714.26 667.48,-612.16 714.61,-549.85 737.76,-519.25 773.55,-499.93 809.6,-487.74"/>
<polygon fill="black" stroke="black" points="810.36,-491.17 818.82,-484.79 808.23,-484.5 810.36,-491.17"/>
<text text-anchor="middle" x="693.36" y="-621.32" font-family="Times,serif" font-size="14.00">Ja</text>
</g>
<!-- 5 -->
<g id="node8" class="node">
<title>5</title>
<path fill="#7aab8a" stroke="black" d="M3890.76,-695.38C3890.76,-695.38 2924.46,-695.38 2924.46,-695.38 2918.46,-695.38 2912.46,-689.38 2912.46,-683.38 2912.46,-683.38 2912.46,-671.38 2912.46,-671.38 2912.46,-665.38 2918.46,-659.38 2924.46,-659.38 2924.46,-659.38 3890.76,-659.38 3890.76,-659.38 3896.76,-659.38 3902.76,-665.38 3902.76,-671.38 3902.76,-671.38 3902.76,-683.38 3902.76,-683.38 3902.76,-689.38 3896.76,-695.38 3890.76,-695.38"/>
<text text-anchor="start" x="2926.86" y="-673.71" font-family="Times,serif" font-weight="bold" font-size="14.00">5: </text>
<text text-anchor="start" x="2946.36" y="-673.71" font-family="Times,serif" font-size="14.00">Ist die Marktlokation bzw. Tranche zu dem im Vorgang unter &#8222;Verwendung der Daten bis&#8220; genannten Zeitpunkt dem &#220;NB bekannt?</text>
</g>
<!-- 4&#45;&gt;5 -->
<g id="edge8" class="edge">
<title>4-&gt;5</title>
<path fill="none" stroke="black" d="M2336.45,-754.9C2568.53,-738.32 2915.81,-713.51 3151.54,-696.67"/>
<polygon fill="black" stroke="black" points="3151.44,-700.19 3161.17,-695.99 3150.94,-693.21 3151.44,-700.19"/>
<text text-anchor="middle" x="2795.36" y="-724.09" font-family="Times,serif" font-size="14.00">Ja</text>
</g>
<!-- 7 -->
<g id="node12" class="node">
<title>7</title>
<path fill="#7aab8a" stroke="black" d="M2661.01,-695.38C2661.01,-695.38 1522.21,-695.38 1522.21,-695.38 1516.21,-695.38 1510.21,-689.38 1510.21,-683.38 1510.21,-683.38 1510.21,-671.38 1510.21,-671.38 1510.21,-665.38 1516.21,-659.38 1522.21,-659.38 1522.21,-659.38 2661.01,-659.38 2661.01,-659.38 2667.01,-659.38 2673.01,-665.38 2673.01,-671.38 2673.01,-671.38 2673.01,-683.38 2673.01,-683.38 2673.01,-689.38 2667.01,-695.38 2661.01,-695.38"/>
<text text-anchor="start" x="1524.61" y="-673.71" font-family="Times,serif" font-weight="bold" font-size="14.00">7: </text>
<text text-anchor="start" x="1544.11" y="-673.71" font-family="Times,serif" font-size="14.00">Ist die Marktlokation bzw. Tranche zu dem im Vorgang unter &#8222;Verwendung der Daten bis&#8220; genannten Zeitpunkt dem NB zur Datenaggregation zugeordnet?</text>
</g>
<!-- 4&#45;&gt;7 -->
<g id="edge9" class="edge">
<title>4-&gt;7</title>
<path fill="none" stroke="black" d="M2091.61,-755.15C2091.61,-741.71 2091.61,-722.77 2091.61,-707.07"/>
<polygon fill="black" stroke="black" points="2095.12,-707.35 2091.62,-697.35 2088.12,-707.35 2095.12,-707.35"/>
<text text-anchor="middle" x="2108.49" y="-724.09" font-family="Times,serif" font-size="14.00">Nein</text>
</g>
<!-- A03 -->
<g id="node9" class="node">
<title>A03</title>
<polygon fill="#cfb986" stroke="black" points="3831.98,-599.37 2983.25,-599.37 2983.25,-549.85 3831.98,-549.85 3831.98,-599.37"/>
<text text-anchor="start" x="3392.61" y="-581.31" font-family="Times,serif" font-weight="bold" font-size="14.00">A03</text>
<text text-anchor="start" x="2995.49" y="-569.21" font-family="Times,serif" text-decoration="underline" font-size="12.00">Hinweis:</text>
<text text-anchor="start" x="2995.49" y="-557.21" font-family="Times,serif" font-size="12.00">Die Marktlokation bzw. Tranche ist zu dem im Vorgang unter &#8222;Verwendung der Daten bis&#8220; genannten Zeitpunkt dem &#220;NB nicht bekannt.</text>
</g>
<!-- 5&#45;&gt;A03 -->
<g id="edge10" class="edge">
<title>5-&gt;A03</title>
<path fill="none" stroke="black" d="M3407.61,-659.29C3407.61,-646.09 3407.61,-627.38 3407.61,-611"/>
<polygon fill="black" stroke="black" points="3411.12,-611.11 3407.62,-601.11 3404.12,-611.11 3411.12,-611.11"/>
<text text-anchor="middle" x="3424.49" y="-621.32" font-family="Times,serif" font-size="14.00">Nein</text>
</g>
<!-- 6 -->
<g id="node10" class="node">
<title>6</title>
<path fill="#7aab8a" stroke="black" d="M5331.01,-592.61C5331.01,-592.61 3862.21,-592.61 3862.21,-592.61 3856.21,-592.61 3850.21,-586.61 3850.21,-580.61 3850.21,-580.61 3850.21,-568.61 3850.21,-568.61 3850.21,-562.61 3856.21,-556.61 3862.21,-556.61 3862.21,-556.61 5331.01,-556.61 5331.01,-556.61 5337.01,-556.61 5343.01,-562.61 5343.01,-568.61 5343.01,-568.61 5343.01,-580.61 5343.01,-580.61 5343.01,-586.61 5337.01,-592.61 5331.01,-592.61"/>
<text text-anchor="start" x="3864.61" y="-570.94" font-family="Times,serif" font-weight="bold" font-size="14.00">6: </text>
<text text-anchor="start" x="3884.11" y="-570.94" font-family="Times,serif" font-size="14.00">Liegt das im Vorgang unter "Verwendung der Daten bis" genannte Datum zum Zeitpunkt des Empfangs des Vorgangs beim &#220;NB vor dem Beginn des Vormonats, in dem der Vorgang beim &#220;NB eingeht?</text>
</g>
<!-- 5&#45;&gt;6 -->
<g id="edge11" class="edge">
<title>5-&gt;6</title>
<path fill="none" stroke="black" d="M3614.04,-658.88C3827.95,-640.76 4160.89,-612.54 4378.88,-594.06"/>
<polygon fill="black" stroke="black" points="4378.97,-597.57 4388.63,-593.24 4378.37,-590.59 4378.97,-597.57"/>
<text text-anchor="middle" x="4079.36" y="-621.32" font-family="Times,serif" font-size="14.00">Ja</text>
</g>
<!-- A08 -->
<g id="node11" class="node">
<title>A08</title>
<polygon fill="#cfb986" stroke="black" points="4568.73,-496.6 2746.5,-496.6 2746.5,-435.08 4568.73,-435.08 4568.73,-496.6"/>
<text text-anchor="start" x="3642.61" y="-478.54" font-family="Times,serif" font-weight="bold" font-size="14.00">A08</text>
<text text-anchor="start" x="2758.74" y="-466.44" font-family="Times,serif" text-decoration="underline" font-size="12.00">Hinweis:</text>
<text text-anchor="start" x="2758.74" y="-454.44" font-family="Times,serif" font-size="12.00">Das Datum &#8222;Verwendung der Daten bis&#8220; des Vor-gangs liegt vor dem Beginn des Vormonats, in dem der Vorgang beim &#220;NB eingeht.</text>
<text text-anchor="start" x="2758.74" y="-442.44" font-family="Times,serif" font-size="12.00">Hinweis: Das Datum &#8222;Verwendung der Daten bis&#8220; wird beim &#220;NB auf den Beginn des Vormonats, in dem der Vorgang beim &#220;NB eingeht, gesetzt und vom &#220;NB entsprechend verarbeitet. Das vom &#220;NB verarbeitete Datum ist in der Antwort im DTM-Segment &#8222;Verwendung der Daten bis&#8220; anzugeben.</text>
</g>
<!-- 6&#45;&gt;A08 -->
<g id="edge12" class="edge">
<title>6-&gt;A08</title>
<path fill="none" stroke="black" d="M4442.87,-556.13C4305.46,-540.5 4100.79,-517.23 3934.85,-498.36"/>
<polygon fill="black" stroke="black" points="3935.31,-494.89 3924.98,-497.24 3934.52,-501.85 3935.31,-494.89"/>
<text text-anchor="middle" x="4217.36" y="-518.55" font-family="Times,serif" font-size="14.00">Ja</text>
</g>
<!-- 11 -->
<g id="node20" class="node">
<title>11</title>
<path fill="#7aab8a" stroke="black" d="M4300.26,-254.3C4300.26,-254.3 3048.96,-254.3 3048.96,-254.3 3042.96,-254.3 3036.96,-248.3 3036.96,-242.3 3036.96,-242.3 3036.96,-230.3 3036.96,-230.3 3036.96,-224.3 3042.96,-218.3 3048.96,-218.3 3048.96,-218.3 4300.26,-218.3 4300.26,-218.3 4306.26,-218.3 4312.26,-224.3 4312.26,-230.3 4312.26,-230.3 4312.26,-242.3 4312.26,-242.3 4312.26,-248.3 4306.26,-254.3 4300.26,-254.3"/>
<text text-anchor="start" x="3051.36" y="-232.62" font-family="Times,serif" font-weight="bold" font-size="14.00">11: </text>
<text text-anchor="start" x="3080.61" y="-232.62" font-family="Times,serif" font-size="14.00">Ist die Marktlokation bzw. Tranche zu dem im Vorgang unter &#8222;Verwendung der Daten bis&#8220; genannten Zeitpunkt dem im Vorgang angegebenen Netzbetreiber zugeordnet?</text>
</g>
<!-- 6&#45;&gt;11 -->
<g id="edge13" class="edge">
<title>6-&gt;11</title>
<path fill="none" stroke="black" d="M4599.93,-556.11C4604.36,-526.97 4608.42,-468.43 4577.61,-435.08 4485.83,-335.71 4123.37,-281.45 3886.51,-255.98"/>
<polygon fill="black" stroke="black" points="3887.15,-252.53 3876.84,-254.95 3886.41,-259.49 3887.15,-252.53"/>
<text text-anchor="middle" x="4570.49" y="-403.78" font-family="Times,serif" font-size="14.00">Nein</text>
</g>
<!-- A04 -->
<g id="node13" class="node">
<title>A04</title>
<polygon fill="#cfb986" stroke="black" points="1381.35,-599.37 723.87,-599.37 723.87,-549.85 1381.35,-549.85 1381.35,-599.37"/>
<text text-anchor="start" x="1037.61" y="-581.31" font-family="Times,serif" font-weight="bold" font-size="14.00">A04</text>
<text text-anchor="start" x="736.11" y="-569.21" font-family="Times,serif" text-decoration="underline" font-size="12.00">Hinweis:</text>
<text text-anchor="start" x="736.11" y="-557.21" font-family="Times,serif" font-size="12.00">Die Marktlokation bzw. Tranche ist zum genannten Zeitpunkt nicht dem NB zur Aggregation zugeordnet.</text>
</g>
<!-- 7&#45;&gt;A04 -->
<g id="edge14" class="edge">
<title>7-&gt;A04</title>
<path fill="none" stroke="black" d="M1911.23,-658.88C1746.22,-642.88 1500.16,-619.02 1313.69,-600.93"/>
<polygon fill="black" stroke="black" points="1314.13,-597.46 1303.84,-599.98 1313.46,-604.43 1314.13,-597.46"/>
<text text-anchor="middle" x="1651.49" y="-621.32" font-family="Times,serif" font-size="14.00">Nein</text>
</g>
<!-- 8 -->
<g id="node14" class="node">
<title>8</title>
<path fill="#7aab8a" stroke="black" d="M2953.39,-592.61C2953.39,-592.61 1411.84,-592.61 1411.84,-592.61 1405.84,-592.61 1399.84,-586.61 1399.84,-580.61 1399.84,-580.61 1399.84,-568.61 1399.84,-568.61 1399.84,-562.61 1405.84,-556.61 1411.84,-556.61 1411.84,-556.61 2953.39,-556.61 2953.39,-556.61 2959.39,-556.61 2965.39,-562.61 2965.39,-568.61 2965.39,-568.61 2965.39,-580.61 2965.39,-580.61 2965.39,-586.61 2959.39,-592.61 2953.39,-592.61"/>
<text text-anchor="start" x="1414.24" y="-570.94" font-family="Times,serif" font-weight="bold" font-size="14.00">8: </text>
<text text-anchor="start" x="1433.74" y="-570.94" font-family="Times,serif" font-size="14.00">Liegt die Marktlokation bzw. Tranche zu dem im Vorgang unter &#8222;Verwendung der Daten bis&#8220; genannten Zeitpunkt dem &#220;NB mit dem Bilanzierungsverfahren Bilanzierung auf Basis von Viertelstundenwerten vor?</text>
</g>
<!-- 7&#45;&gt;8 -->
<g id="edge15" class="edge">
<title>7-&gt;8</title>
<path fill="none" stroke="black" d="M2107.05,-659.29C2121.43,-643.36 2143.07,-619.41 2159.5,-601.2"/>
<polygon fill="black" stroke="black" points="2161.98,-603.68 2166.09,-593.91 2156.79,-598.99 2161.98,-603.68"/>
<text text-anchor="middle" x="2149.36" y="-621.32" font-family="Times,serif" font-size="14.00">Ja</text>
</g>
<!-- A05 -->
<g id="node15" class="node">
<title>A05</title>
<polygon fill="#cfb986" stroke="black" points="2711.73,-490.6 1687.5,-490.6 1687.5,-441.08 2711.73,-441.08 2711.73,-490.6"/>
<text text-anchor="start" x="2184.61" y="-472.54" font-family="Times,serif" font-weight="bold" font-size="14.00">A05</text>
<text text-anchor="start" x="1699.74" y="-460.44" font-family="Times,serif" text-decoration="underline" font-size="12.00">Hinweis:</text>
<text text-anchor="start" x="1699.74" y="-448.44" font-family="Times,serif" font-size="12.00">Die Marktlokation bzw. Tranche liegt zum genannten Zeitpunkt dem &#220;NB nicht mit dem Bilanzierungsverfahren Bilanzierung auf Basis von Viertelstundenwerten vor.</text>
</g>
<!-- 8&#45;&gt;A05 -->
<g id="edge16" class="edge">
<title>8-&gt;A05</title>
<path fill="none" stroke="black" d="M2185.35,-556.46C2187.68,-541.78 2191.12,-520.2 2194.04,-501.89"/>
<polygon fill="black" stroke="black" points="2197.46,-502.64 2195.58,-492.21 2190.55,-501.54 2197.46,-502.64"/>
<text text-anchor="middle" x="2208.49" y="-518.55" font-family="Times,serif" font-size="14.00">Nein</text>
</g>
<!-- 8&#45;&gt;9 -->
<g id="edge17" class="edge">
<title>8-&gt;9</title>
<path fill="none" stroke="black" d="M1978.28,-556.13C1750.25,-536.62 1382.87,-505.19 1150.33,-485.29"/>
<polygon fill="black" stroke="black" points="1150.78,-481.82 1140.52,-484.46 1150.19,-488.8 1150.78,-481.82"/>
<text text-anchor="middle" x="1677.36" y="-518.55" font-family="Times,serif" font-size="14.00">Ja</text>
</g>
<!-- A09 -->
<g id="node17" class="node">
<title>A09</title>
<polygon fill="#cfb986" stroke="black" points="3212.6,-381.83 1410.62,-381.83 1410.62,-320.31 3212.6,-320.31 3212.6,-381.83"/>
<text text-anchor="start" x="2296.61" y="-363.77" font-family="Times,serif" font-weight="bold" font-size="14.00">A09</text>
<text text-anchor="start" x="1422.86" y="-351.67" font-family="Times,serif" text-decoration="underline" font-size="12.00">Hinweis:</text>
<text text-anchor="start" x="1422.86" y="-339.67" font-family="Times,serif" font-size="12.00">Das Datum &#8222;Verwendung der Daten bis&#8220; des Vorgangs liegt vor dem Beginn des Monats, in dem der Vorgang beim &#220;NB eingeht.</text>
<text text-anchor="start" x="1422.86" y="-327.67" font-family="Times,serif" font-size="12.00">Hinweis: Das Datum &#8222;Verwendung der Daten bis&#8220; wird beim &#220;NB auf den Beginn des Monats, in dem der Vorgang beim &#220;NB eingeht, gesetzt und vom &#220;NB entsprechend verarbeitet. Das vom &#220;NB verarbeitete Datum ist in der Antwort im DTM-Segment &#8222;Verwendung der Daten bis&#8220; anzugeben.</text>
</g>
<!-- 9&#45;&gt;A09 -->
<g id="edge18" class="edge">
<title>9-&gt;A09</title>
<path fill="none" stroke="black" d="M1148.26,-447.34C1356.77,-430.27 1678.57,-403.91 1930.92,-383.25"/>
<polygon fill="black" stroke="black" points="1930.93,-386.76 1940.62,-382.45 1930.36,-379.78 1930.93,-386.76"/>
<text text-anchor="middle" x="1712.36" y="-403.78" font-family="Times,serif" font-size="14.00">Ja</text>
</g>
<!-- 10 -->
<g id="node18" class="node">
<title>10</title>
<path fill="#7aab8a" stroke="black" d="M1381.01,-369.07C1381.01,-369.07 488.21,-369.07 488.21,-369.07 482.21,-369.07 476.21,-363.07 476.21,-357.07 476.21,-357.07 476.21,-345.07 476.21,-345.07 476.21,-339.07 482.21,-333.07 488.21,-333.07 488.21,-333.07 1381.01,-333.07 1381.01,-333.07 1387.01,-333.07 1393.01,-339.07 1393.01,-345.07 1393.01,-345.07 1393.01,-357.07 1393.01,-357.07 1393.01,-363.07 1387.01,-369.07 1381.01,-369.07"/>
<text text-anchor="start" x="490.61" y="-347.39" font-family="Times,serif" font-weight="bold" font-size="14.00">10: </text>
<text text-anchor="start" x="519.86" y="-347.39" font-family="Times,serif" font-size="14.00">Ist das im Vorgang unter "Verwendung der Daten bis" genannte Datum ein anderes Datum, als der Erste eines Monats?</text>
</g>
<!-- 9&#45;&gt;10 -->
<g id="edge19" class="edge">
<title>9-&gt;10</title>
<path fill="none" stroke="black" d="M934.61,-447.71C934.61,-429.91 934.61,-401.75 934.61,-380.58"/>
<polygon fill="black" stroke="black" points="938.12,-380.87 934.62,-370.87 931.12,-380.87 938.12,-380.87"/>
<text text-anchor="middle" x="951.49" y="-403.78" font-family="Times,serif" font-size="14.00">Nein</text>
</g>
<!-- A10 -->
<g id="node19" class="node">
<title>A10</title>
<polygon fill="#cfb986" stroke="black" points="1281.73,-267.06 587.5,-267.06 587.5,-205.54 1281.73,-205.54 1281.73,-267.06"/>
<text text-anchor="start" x="919.61" y="-249" font-family="Times,serif" font-weight="bold" font-size="14.00">A10</text>
<text text-anchor="start" x="599.74" y="-236.9" font-family="Times,serif" text-decoration="underline" font-size="12.00">Hinweis:</text>
<text text-anchor="start" x="599.74" y="-224.9" font-family="Times,serif" font-size="12.00">Das Datum "Verwendung der Daten bis" ist nicht der Erste eines Monats.</text>
<text text-anchor="start" x="599.74" y="-212.9" font-family="Times,serif" font-size="12.00">Hinweis: Eine Korrektur des Datums "Verwendung der Daten bis" auf den Ersten eines Monats ist erforderlich.</text>
</g>
<!-- 10&#45;&gt;A10 -->
<g id="edge20" class="edge">
<title>10-&gt;A10</title>
<path fill="none" stroke="black" d="M934.61,-332.94C934.61,-318.55 934.61,-297.39 934.61,-278.63"/>
<polygon fill="black" stroke="black" points="938.12,-278.86 934.62,-268.86 931.12,-278.86 938.12,-278.86"/>
<text text-anchor="middle" x="941.36" y="-289.01" font-family="Times,serif" font-size="14.00">Ja</text>
</g>
<!-- 10&#45;&gt;11 -->
<g id="edge21" class="edge">
<title>10-&gt;11</title>
<path fill="none" stroke="black" d="M1189.34,-332.58C1258.21,-328.2 1332.75,-323.76 1401.61,-320.31 1963.84,-292.13 2604.75,-269.6 3062.36,-255.16"/>
<polygon fill="black" stroke="black" points="3062.42,-258.66 3072.3,-254.84 3062.2,-251.66 3062.42,-258.66"/>
<text text-anchor="middle" x="2167.49" y="-289.01" font-family="Times,serif" font-size="14.00">Nein</text>
</g>
<!-- A06 -->
<g id="node21" class="node">
<title>A06</title>
<polygon fill="#cfb986" stroke="black" points="3839.48,-152.29 3149.75,-152.29 3149.75,-102.77 3839.48,-102.77 3839.48,-152.29"/>
<text text-anchor="start" x="3479.61" y="-134.23" font-family="Times,serif" font-weight="bold" font-size="14.00">A06</text>
<text text-anchor="start" x="3161.99" y="-122.13" font-family="Times,serif" text-decoration="underline" font-size="12.00">Hinweis:</text>
<text text-anchor="start" x="3161.99" y="-110.13" font-family="Times,serif" font-size="12.00">Angegebener Netzbetreiber ist zum angegebenen Zeitpunkt der Marktlokation bzw. Tranche nicht zugeordnet.</text>
</g>
<!-- 11&#45;&gt;A06 -->
<g id="edge22" class="edge">
<title>11-&gt;A06</title>
<path fill="none" stroke="black" d="M3645.29,-217.91C3618.21,-201.84 3577.4,-177.64 3545.08,-158.47"/>
<polygon fill="black" stroke="black" points="3547.04,-155.56 3536.65,-153.47 3543.47,-161.58 3547.04,-155.56"/>
<text text-anchor="middle" x="3606.49" y="-174.24" font-family="Times,serif" font-size="14.00">Nein</text>
</g>
<!-- 12 -->
<g id="node22" class="node">
<title>12</title>
<path fill="#7aab8a" stroke="black" d="M4447.89,-145.53C4447.89,-145.53 3869.34,-145.53 3869.34,-145.53 3863.34,-145.53 3857.34,-139.53 3857.34,-133.53 3857.34,-133.53 3857.34,-121.53 3857.34,-121.53 3857.34,-115.53 3863.34,-109.53 3869.34,-109.53 3869.34,-109.53 4447.89,-109.53 4447.89,-109.53 4453.89,-109.53 4459.89,-115.53 4459.89,-121.53 4459.89,-121.53 4459.89,-133.53 4459.89,-133.53 4459.89,-139.53 4453.89,-145.53 4447.89,-145.53"/>
<text text-anchor="start" x="3871.74" y="-123.86" font-family="Times,serif" font-weight="bold" font-size="14.00">12: </text>
<text text-anchor="start" x="3900.99" y="-123.86" font-family="Times,serif" font-size="14.00">Ist der im Vorgang genannte LF identisch mit dem Absender der Nachricht?</text>
</g>
<!-- 11&#45;&gt;12 -->
<g id="edge23" class="edge">
<title>11-&gt;12</title>
<path fill="none" stroke="black" d="M3753.73,-217.85C3840.05,-198.81 3977.98,-168.38 4068.44,-148.42"/>
<polygon fill="black" stroke="black" points="4069.01,-151.88 4078.02,-146.31 4067.5,-145.05 4069.01,-151.88"/>
<text text-anchor="middle" x="3966.36" y="-174.24" font-family="Times,serif" font-size="14.00">Ja</text>
</g>
<!-- A07 -->
<g id="node23" class="node">
<title>A07</title>
<polygon fill="#cfb986" stroke="black" points="4131.85,-49.52 3861.38,-49.52 3861.38,0 4131.85,0 4131.85,-49.52"/>
<text text-anchor="start" x="3981.61" y="-31.46" font-family="Times,serif" font-weight="bold" font-size="14.00">A07</text>
<text text-anchor="start" x="3873.61" y="-19.36" font-family="Times,serif" text-decoration="underline" font-size="12.00">Hinweis:</text>
<text text-anchor="start" x="3873.61" y="-7.36" font-family="Times,serif" font-size="12.00">LF im Vorgang weicht vom Absender ab.</text>
</g>
<!-- 12&#45;&gt;A07 -->
<g id="edge24" class="edge">
<title>12-&gt;A07</title>
<path fill="none" stroke="black" d="M4130.77,-109.21C4107.3,-94.61 4073.17,-73.38 4045.21,-55.99"/>
<polygon fill="black" stroke="black" points="4047.23,-53.13 4036.89,-50.82 4043.54,-59.07 4047.23,-53.13"/>
<text text-anchor="middle" x="4103.49" y="-71.47" font-family="Times,serif" font-size="14.00">Nein</text>
</g>
<!-- A01 -->
<g id="node24" class="node">
<title>A01</title>
<polygon fill="#cfb986" stroke="black" points="4493.6,-49.52 4149.62,-49.52 4149.62,0 4493.6,0 4493.6,-49.52"/>
<text text-anchor="start" x="4306.61" y="-31.46" font-family="Times,serif" font-weight="bold" font-size="14.00">A01</text>
<text text-anchor="start" x="4161.86" y="-19.36" font-family="Times,serif" text-decoration="underline" font-size="12.00">Hinweis:</text>
<text text-anchor="start" x="4161.86" y="-7.36" font-family="Times,serif" font-size="12.00">Stammdaten wurden widerspruchsfrei &#252;bernommen.</text>
</g>
<!-- 12&#45;&gt;A01 -->
<g id="edge25" class="edge">
<title>12-&gt;A01</title>
<path fill="none" stroke="black" d="M4186.64,-109.21C4210.25,-94.61 4244.58,-73.38 4272.72,-55.99"/>
<polygon fill="black" stroke="black" points="4274.43,-59.05 4281.09,-50.81 4270.75,-53.09 4274.43,-59.05"/>
<text text-anchor="middle" x="4256.36" y="-71.47" font-family="Times,serif" font-size="14.00">Ja</text>
</g>
</g>
</svg>
  </g>
</svg>
  </g>
</svg>
