<svg xmlns="http://www.w3.org/2000/svg" xmlns:xlink="http://www.w3.org/1999/xlink" version="1.1" width="1260.0px" viewBox="0 0 1260.0 476.0" height="476.0px">
  <g>
    <svg version="1.1" width="1260.0px" viewBox="0 0 1260.0 476.0" height="476.0px">
  <rect fill="#e7e6e5" x="0" y="0" width="1260.0" height="476.0" rx="20" ry="20"/><g>
    <g transform="translate(435.8869050971557, 47.59999999999999) scale(1 1) translate(0, 0) scale(0.6702337369754999 0.6702337369754999) "><defs>
    <style>.cls-1{fill:#ffffff88;}</style>
    <!--
    ffffff88 is white with 50% transparency; this matches the colour of the tesa strip on
    ebd.hochfrequenz.de where it crosses the diagram SVG:
    https://github.com/Hochfrequenz/entscheidungsbaumdiagramme/blob/01bd43fa0f1d0333fa93596bc8b9fd1e4b285c8c/src/lib/components/features/svg-container.svelte#L54
    -->
  </defs>
  <path class="cls-1" d="M122.44,531.2h-56.1c-11,0-19.9-9.12-19.46-20.11C57.47,243.89,278.15,29.78,547.91,29.78v56.02c0,10.98-8.69,19.89-19.66,20.39-225.51,10.31-405.8,197-405.8,425Z"/>
  <path class="cls-1" d="M273.78,531.2h-55.93c-11.23,0-20.09-9.48-19.43-20.69,10.74-183.44,163.39-329.39,349.48-329.39v56.26c0,10.71-8.27,19.62-18.96,20.35-142.35,9.77-255.17,128.69-255.17,273.46Z"/>
  <path class="cls-1" d="M425.77,531.2h-55.45c-11.65,0-20.6-10.17-19.33-21.75,10.87-99.03,95.03-176.34,196.92-176.34v57.01c0,10.05-7.28,18.75-17.23,20.16-59.22,8.4-104.91,59.42-104.91,120.92Z"/>
</g>
    <svg width="945pt" height="357pt" viewBox="0.00 0.00 944.50 356.81">
<g id="graph0" class="graph" transform="scale(1 1) rotate(0) translate(18 338.81)">
<title>D</title>
<text text-anchor="start" x="8" y="-300.71" font-family="Roboto, sans-serif" font-weight="bold" font-size="18.00">MaBiS</text>
<text text-anchor="start" x="8" y="-272.61" font-family="Roboto, sans-serif" font-weight="bold" font-size="16.00">7.35.2: AD: Übermittlung Datenstatus für die Bilanzkreissummenzeitreihe vom BIKO an NB und BKV</text>
<!-- Start -->
<g id="node1" class="node">
<title>Start</title>
<path fill="#8ba2d7" stroke="black" stroke-width="0" d="M530.52,-230.81C530.52,-230.81 377.98,-230.81 377.98,-230.81 371.98,-230.81 365.98,-224.81 365.98,-218.81 365.98,-218.81 365.98,-197.53 365.98,-197.53 365.98,-191.53 371.98,-185.53 377.98,-185.53 377.98,-185.53 530.52,-185.53 530.52,-185.53 536.52,-185.53 542.52,-191.53 542.52,-197.53 542.52,-197.53 542.52,-218.81 542.52,-218.81 542.52,-224.81 536.52,-230.81 530.52,-230.81"/>
<text text-anchor="start" x="380.38" y="-209.87" font-family="Roboto, sans-serif" font-weight="bold" font-size="14.00">E_0057</text>
<text text-anchor="start" x="380.38" y="-195.87" font-family="Roboto, sans-serif" font-size="14.00">Prüfende Rolle: </text>
<text text-anchor="start" x="489.88" y="-195.87" font-family="Roboto, sans-serif" font-weight="bold" font-size="14.00">BIKO</text>
</g>
<!-- 1 -->
<g id="node2" class="node">
<title>1</title>
<path fill="#c2cee9" stroke="black" stroke-width="0" d="M731.52,-148.53C731.52,-148.53 176.98,-148.53 176.98,-148.53 170.98,-148.53 164.98,-142.53 164.98,-136.53 164.98,-136.53 164.98,-124.53 164.98,-124.53 164.98,-118.53 170.98,-112.53 176.98,-112.53 176.98,-112.53 731.52,-112.53 731.52,-112.53 737.52,-112.53 743.52,-118.53 743.52,-124.53 743.52,-124.53 743.52,-136.53 743.52,-136.53 743.52,-142.53 737.52,-148.53 731.52,-148.53"/>
<text text-anchor="start" x="179.38" y="-126.86" font-family="Roboto, sans-serif" font-weight="bold" font-size="14.00">1: </text>
<text text-anchor="start" x="198.88" y="-126.86" font-family="Roboto, sans-serif" font-size="14.00">Erfolgt der Eingang der Zeitreihe vor Ablauf der Frist für den Erstaufschlag?</text>
</g>
<!-- Start&#45;&gt;1 -->
<g id="edge1" class="edge">
<title>Start-&gt;1</title>
<path fill="none" stroke="#88a0d6" d="M454.25,-185.7C454.25,-177.62 454.25,-168.32 454.25,-159.72"/>
<polygon fill="#88a0d6" stroke="#88a0d6" points="457.75,-159.76 454.25,-149.76 450.75,-159.76 457.75,-159.76"/>
</g>
<!-- A01 -->
<g id="node3" class="node">
<title>A01</title>
<path fill="#c4cac1" stroke="black" stroke-width="0" d="M448.65,-59.28C448.65,-59.28 209.85,-59.28 209.85,-59.28 203.85,-59.28 197.85,-53.28 197.85,-47.28 197.85,-47.28 197.85,-12 197.85,-12 197.85,-6 203.85,0 209.85,0 209.85,0 448.65,0 448.65,0 454.65,0 460.65,-6 460.65,-12 460.65,-12 460.65,-47.28 460.65,-47.28 460.65,-53.28 454.65,-59.28 448.65,-59.28"/>
<text text-anchor="start" x="212.25" y="-38.34" font-family="Roboto, sans-serif" font-weight="bold" font-size="14.00">A01</text>
<text text-anchor="start" x="212.25" y="-10.34" font-family="Roboto, sans-serif" font-size="14.00">Datenstatus „Abrechnungsdaten“</text>
</g>
<!-- 1&#45;&gt;A01 -->
<g id="edge2" class="edge">
<title>1-&gt;A01</title>
<path fill="none" stroke="#88a0d6" d="M432.76,-112.53C416.66,-99.79 394.06,-81.91 374.08,-66.1"/>
<polygon fill="#88a0d6" stroke="#88a0d6" points="376.32,-63.41 366.3,-59.95 371.97,-68.9 376.32,-63.41"/>
<text text-anchor="start" x="406.25" y="-82.23" font-family="Roboto, sans-serif" font-weight="bold" font-size="14.00">JA</text>
</g>
<!-- A02 -->
<g id="node4" class="node">
<title>A02</title>
<path fill="#c4cac1" stroke="black" stroke-width="0" d="M665.4,-59.28C665.4,-59.28 491.1,-59.28 491.1,-59.28 485.1,-59.28 479.1,-53.28 479.1,-47.28 479.1,-47.28 479.1,-12 479.1,-12 479.1,-6 485.1,0 491.1,0 491.1,0 665.4,0 665.4,0 671.4,0 677.4,-6 677.4,-12 677.4,-12 677.4,-47.28 677.4,-47.28 677.4,-53.28 671.4,-59.28 665.4,-59.28"/>
<text text-anchor="start" x="493.5" y="-38.34" font-family="Roboto, sans-serif" font-weight="bold" font-size="14.00">A02</text>
<text text-anchor="start" x="493.5" y="-10.34" font-family="Roboto, sans-serif" font-size="14.00">Datenstatus „Prüfdaten“</text>
</g>
<!-- 1&#45;&gt;A02 -->
<g id="edge3" class="edge">
<title>1-&gt;A02</title>
<path fill="none" stroke="#88a0d6" d="M475.57,-112.53C491.54,-99.79 513.96,-81.91 533.78,-66.1"/>
<polygon fill="#88a0d6" stroke="#88a0d6" points="535.85,-68.93 541.49,-59.96 531.49,-63.46 535.85,-68.93"/>
<text text-anchor="start" x="516.25" y="-82.23" font-family="Roboto, sans-serif" font-weight="bold" font-size="14.00">NEIN</text>
</g>
</g>
</svg>
  </g>
</svg>
  </g>
<text x="1250.0" y="466.0" text-anchor="end" font-family="Roboto, sans-serif" font-size="10" fill="#666666">v4.2 | 11.12.2025 (urspr. 01.10.2025)</text></svg>