<svg xmlns="http://www.w3.org/2000/svg" xmlns:xlink="http://www.w3.org/1999/xlink" version="1.1" width="1484.0px" viewBox="0 0 1484.0 920.0" height="920.0px">
  <g>
    <svg version="1.1" width="1484.0px" viewBox="0 0 1484.0 920.0" height="920.0px">
  <rect fill="#e7e6e5" x="0" y="0" width="1484.0" height="920.0" rx="20" ry="20"/><g>
    <g transform="translate(366.82343001971276, 91.99999999999999) scale(1 1) translate(0, 0) scale(1.2954097437341594 1.2954097437341594) "><defs>
    <style>.cls-1{fill:#ffffff88;}</style>
    <!--
    ffffff88 is white with 50% transparency; this matches the colour of the tesa strip on
    ebd.hochfrequenz.de where it crosses the diagram SVG:
    https://github.com/Hochfrequenz/entscheidungsbaumdiagramme/blob/01bd43fa0f1d0333fa93596bc8b9fd1e4b285c8c/src/lib/components/features/svg-container.svelte#L54
    -->
  </defs>
  <path class="cls-1" d="M122.44,531.2h-56.1c-11,0-19.9-9.12-19.46-20.11C57.47,243.89,278.15,29.78,547.91,29.78v56.02c0,10.98-8.69,19.89-19.66,20.39-225.51,10.31-405.8,197-405.8,425Z"/>
  <path class="cls-1" d="M273.78,531.2h-55.93c-11.23,0-20.09-9.48-19.43-20.69,10.74-183.44,163.39-329.39,349.48-329.39v56.26c0,10.71-8.27,19.62-18.96,20.35-142.35,9.77-255.17,128.69-255.17,273.46Z"/>
  <path class="cls-1" d="M425.77,531.2h-55.45c-11.65,0-20.6-10.17-19.33-21.75,10.87-99.03,95.03-176.34,196.92-176.34v57.01c0,10.05-7.28,18.75-17.23,20.16-59.22,8.4-104.91,59.42-104.91,120.92Z"/>
</g>
    <svg width="1113pt" height="690pt" viewBox="0.00 0.00 1112.93 689.68">
<g id="graph0" class="graph" transform="scale(1 1) rotate(0) translate(18 671.68)">
<title>D</title>
<text text-anchor="start" x="101.59" y="-633.58" font-family="Roboto, sans-serif" font-weight="bold" font-size="18.00">WiM Strom</text>
<text text-anchor="start" x="101.59" y="-605.48" font-family="Roboto, sans-serif" font-weight="bold" font-size="16.00">8.11.2: AD: Anfrage zur Rechnungsabwicklung des Messtellenbetriebes über den LF durch den LF</text>
<!-- Start -->
<g id="node1" class="node">
<title>Start</title>
<path fill="#8ba2d7" stroke="black" stroke-width="0" d="M479.05,-563.68C479.05,-563.68 346,-563.68 346,-563.68 340,-563.68 334,-557.68 334,-551.68 334,-551.68 334,-530.4 334,-530.4 334,-524.4 340,-518.4 346,-518.4 346,-518.4 479.05,-518.4 479.05,-518.4 485.05,-518.4 491.05,-524.4 491.05,-530.4 491.05,-530.4 491.05,-551.68 491.05,-551.68 491.05,-557.68 485.05,-563.68 479.05,-563.68"/>
<text text-anchor="start" x="348.4" y="-542.74" font-family="Roboto, sans-serif" font-weight="bold" font-size="14.00">E_0208</text>
<text text-anchor="start" x="348.4" y="-528.74" font-family="Roboto, sans-serif" font-size="14.00">Prüfende Rolle: </text>
<text text-anchor="start" x="457.9" y="-528.74" font-family="Roboto, sans-serif" font-weight="bold" font-size="14.00">LF</text>
</g>
<!-- 10 -->
<g id="node2" class="node">
<title>10</title>
<path fill="#c2cee9" stroke="black" stroke-width="0" d="M728.8,-481.4C728.8,-481.4 96.25,-481.4 96.25,-481.4 90.25,-481.4 84.25,-475.4 84.25,-469.4 84.25,-469.4 84.25,-448.12 84.25,-448.12 84.25,-442.12 90.25,-436.12 96.25,-436.12 96.25,-436.12 728.8,-436.12 728.8,-436.12 734.8,-436.12 740.8,-442.12 740.8,-448.12 740.8,-448.12 740.8,-469.4 740.8,-469.4 740.8,-475.4 734.8,-481.4 728.8,-481.4"/>
<text text-anchor="start" x="98.65" y="-460.46" font-family="Roboto, sans-serif" font-weight="bold" font-size="14.00">10: </text>
<text text-anchor="start" x="127.9" y="-460.46" font-family="Roboto, sans-serif" font-size="14.00">Lässt das Vertragsverhältnis mit dem Kunden das im Angebot benannte Beginndatum</text>
<text text-anchor="start" x="98.65" y="-446.46" font-family="Roboto, sans-serif" font-size="14.00">zum Messstellenbetrieb zu?</text>
</g>
<!-- Start&#45;&gt;10 -->
<g id="edge1" class="edge">
<title>Start-&gt;10</title>
<path fill="none" stroke="#88a0d6" d="M412.52,-518.53C412.52,-510.61 412.52,-501.45 412.52,-492.75"/>
<polygon fill="#88a0d6" stroke="#88a0d6" points="416.03,-492.85 412.53,-482.85 409.03,-492.85 416.03,-492.85"/>
</g>
<!-- A01 -->
<g id="node3" class="node">
<title>A01</title>
<path fill="#c4cac1" stroke="black" stroke-width="0" d="M457.05,-382.87C457.05,-382.87 12,-382.87 12,-382.87 6,-382.87 0,-376.87 0,-370.87 0,-370.87 0,-335.59 0,-335.59 0,-329.59 6,-323.59 12,-323.59 12,-323.59 457.05,-323.59 457.05,-323.59 463.05,-323.59 469.05,-329.59 469.05,-335.59 469.05,-335.59 469.05,-370.87 469.05,-370.87 469.05,-376.87 463.05,-382.87 457.05,-382.87"/>
<text text-anchor="start" x="14.4" y="-361.93" font-family="Roboto, sans-serif" font-weight="bold" font-size="14.00">A01</text>
<text text-anchor="start" x="14.4" y="-333.93" font-family="Roboto, sans-serif" font-size="14.00">Vertragsverhältnis mit Dritten lässt das Beginn-datum nicht zu.</text>
</g>
<!-- 10&#45;&gt;A01 -->
<g id="edge2" class="edge">
<title>10-&gt;A01</title>
<path fill="none" stroke="#88a0d6" d="M375.64,-436.31C351.88,-422.49 320.47,-404.22 293.31,-388.42"/>
<polygon fill="#88a0d6" stroke="#88a0d6" points="295.23,-385.49 284.83,-383.49 291.71,-391.54 295.23,-385.49"/>
<text text-anchor="start" x="338.52" y="-405.82" font-family="Roboto, sans-serif" font-weight="bold" font-size="14.00">NEIN</text>
</g>
<!-- 20 -->
<g id="node4" class="node">
<title>20</title>
<path fill="#c2cee9" stroke="black" stroke-width="0" d="M956.42,-371.23C956.42,-371.23 498.62,-371.23 498.62,-371.23 492.62,-371.23 486.62,-365.23 486.62,-359.23 486.62,-359.23 486.62,-347.23 486.62,-347.23 486.62,-341.23 492.62,-335.23 498.62,-335.23 498.62,-335.23 956.42,-335.23 956.42,-335.23 962.42,-335.23 968.42,-341.23 968.42,-347.23 968.42,-347.23 968.42,-359.23 968.42,-359.23 968.42,-365.23 962.42,-371.23 956.42,-371.23"/>
<text text-anchor="start" x="501.02" y="-349.55" font-family="Roboto, sans-serif" font-weight="bold" font-size="14.00">20: </text>
<text text-anchor="start" x="530.27" y="-349.55" font-family="Roboto, sans-serif" font-size="14.00">Handelt es sich um ein Angebot auf Basis eines Preisblattes?</text>
</g>
<!-- 10&#45;&gt;20 -->
<g id="edge3" class="edge">
<title>10-&gt;20</title>
<path fill="none" stroke="#88a0d6" d="M478.18,-436.18C533.17,-418.11 611.12,-392.49 665.17,-374.72"/>
<polygon fill="#88a0d6" stroke="#88a0d6" points="666.14,-378.09 674.55,-371.64 663.95,-371.44 666.14,-378.09"/>
<text text-anchor="start" x="578.52" y="-405.82" font-family="Roboto, sans-serif" font-weight="bold" font-size="14.00">JA</text>
</g>
<!-- 40 -->
<g id="node5" class="node">
<title>40</title>
<path fill="#c2cee9" stroke="black" stroke-width="0" d="M768.17,-270.34C768.17,-270.34 212.88,-270.34 212.88,-270.34 206.88,-270.34 200.88,-264.34 200.88,-258.34 200.88,-258.34 200.88,-237.06 200.88,-237.06 200.88,-231.06 206.88,-225.06 212.88,-225.06 212.88,-225.06 768.17,-225.06 768.17,-225.06 774.17,-225.06 780.17,-231.06 780.17,-237.06 780.17,-237.06 780.17,-258.34 780.17,-258.34 780.17,-264.34 774.17,-270.34 768.17,-270.34"/>
<text text-anchor="start" x="215.27" y="-249.4" font-family="Roboto, sans-serif" font-weight="bold" font-size="14.00">40: </text>
<text text-anchor="start" x="244.52" y="-249.4" font-family="Roboto, sans-serif" font-size="14.00">Liegt dem LF ein gültiges Preisblatt mit allen im Angebot angegebenen</text>
<text text-anchor="start" x="215.27" y="-235.4" font-family="Roboto, sans-serif" font-size="14.00">Preisschlüsselstämmen bzw. mit allen im Angebot angegebenen Artikel-ID vor?</text>
</g>
<!-- 20&#45;&gt;40 -->
<g id="edge4" class="edge">
<title>20-&gt;40</title>
<path fill="none" stroke="#88a0d6" d="M688.65,-335.25C651.05,-318.82 593.52,-293.69 550.13,-274.74"/>
<polygon fill="#88a0d6" stroke="#88a0d6" points="551.65,-271.58 541.09,-270.79 548.85,-278 551.65,-271.58"/>
<text text-anchor="start" x="615.52" y="-293.29" font-family="Roboto, sans-serif" font-weight="bold" font-size="14.00">JA</text>
</g>
<!-- 50 -->
<g id="node7" class="node">
<title>50</title>
<path fill="#c2cee9" stroke="black" stroke-width="0" d="M1064.92,-160.17C1064.92,-160.17 568.12,-160.17 568.12,-160.17 562.12,-160.17 556.12,-154.17 556.12,-148.17 556.12,-148.17 556.12,-136.17 556.12,-136.17 556.12,-130.17 562.12,-124.17 568.12,-124.17 568.12,-124.17 1064.92,-124.17 1064.92,-124.17 1070.92,-124.17 1076.92,-130.17 1076.92,-136.17 1076.92,-136.17 1076.92,-148.17 1076.92,-148.17 1076.92,-154.17 1070.92,-160.17 1064.92,-160.17"/>
<text text-anchor="start" x="570.52" y="-138.5" font-family="Roboto, sans-serif" font-weight="bold" font-size="14.00">50: </text>
<text text-anchor="start" x="599.77" y="-138.5" font-family="Roboto, sans-serif" font-size="14.00">Entsprechen die angebotenen Positionen dem Vertrags-verhältnis?</text>
</g>
<!-- 20&#45;&gt;50 -->
<g id="edge5" class="edge">
<title>20-&gt;50</title>
<path fill="none" stroke="#88a0d6" d="M743.77,-335.48C757.99,-319.88 778.11,-295.32 789.52,-270.34 804.25,-238.12 811.07,-197.6 814.14,-171.08"/>
<polygon fill="#88a0d6" stroke="#88a0d6" points="817.59,-171.77 815.15,-161.46 810.62,-171.04 817.59,-171.77"/>
<text text-anchor="start" x="804.52" y="-244.02" font-family="Roboto, sans-serif" font-weight="bold" font-size="14.00">NEIN</text>
</g>
<!-- A02 -->
<g id="node6" class="node">
<title>A02</title>
<path fill="#c4cac1" stroke="black" stroke-width="0" d="M526.42,-171.81C526.42,-171.81 344.62,-171.81 344.62,-171.81 338.62,-171.81 332.62,-165.81 332.62,-159.81 332.62,-159.81 332.62,-124.53 332.62,-124.53 332.62,-118.53 338.62,-112.53 344.62,-112.53 344.62,-112.53 526.42,-112.53 526.42,-112.53 532.42,-112.53 538.42,-118.53 538.42,-124.53 538.42,-124.53 538.42,-159.81 538.42,-159.81 538.42,-165.81 532.42,-171.81 526.42,-171.81"/>
<text text-anchor="start" x="347.02" y="-150.87" font-family="Roboto, sans-serif" font-weight="bold" font-size="14.00">A02</text>
<text text-anchor="start" x="347.02" y="-122.87" font-family="Roboto, sans-serif" font-size="14.00">Kein Preisblatt vorhanden</text>
</g>
<!-- 40&#45;&gt;A02 -->
<g id="edge6" class="edge">
<title>40-&gt;A02</title>
<path fill="none" stroke="#88a0d6" d="M479.13,-225.25C472.43,-212.64 463.76,-196.33 455.93,-181.57"/>
<polygon fill="#88a0d6" stroke="#88a0d6" points="459.16,-180.19 451.37,-173 452.98,-183.48 459.16,-180.19"/>
<text text-anchor="start" x="467.52" y="-194.76" font-family="Roboto, sans-serif" font-weight="bold" font-size="14.00">NEIN</text>
</g>
<!-- 40&#45;&gt;50 -->
<g id="edge7" class="edge">
<title>40-&gt;50</title>
<path fill="none" stroke="#88a0d6" d="M558.47,-225.12C615.5,-207.01 696.39,-181.32 752.34,-163.55"/>
<polygon fill="#88a0d6" stroke="#88a0d6" points="753.27,-166.93 761.74,-160.57 751.15,-160.26 753.27,-166.93"/>
<text text-anchor="start" x="662.52" y="-194.76" font-family="Roboto, sans-serif" font-weight="bold" font-size="14.00">JA</text>
</g>
<!-- A03 -->
<g id="node8" class="node">
<title>A03</title>
<path fill="#c4cac1" stroke="black" stroke-width="0" d="M855.92,-59.28C855.92,-59.28 455.12,-59.28 455.12,-59.28 449.12,-59.28 443.12,-53.28 443.12,-47.28 443.12,-47.28 443.12,-12 443.12,-12 443.12,-6 449.12,0 455.12,0 455.12,0 855.92,0 855.92,0 861.92,0 867.92,-6 867.92,-12 867.92,-12 867.92,-47.28 867.92,-47.28 867.92,-53.28 861.92,-59.28 855.92,-59.28"/>
<text text-anchor="start" x="457.52" y="-38.34" font-family="Roboto, sans-serif" font-weight="bold" font-size="14.00">A03</text>
<text text-anchor="start" x="457.52" y="-10.34" font-family="Roboto, sans-serif" font-size="14.00">Angebotspositionen abweichend zum Vertrags-verhältnis</text>
</g>
<!-- 50&#45;&gt;A03 -->
<g id="edge8" class="edge">
<title>50-&gt;A03</title>
<path fill="none" stroke="#88a0d6" d="M792.07,-124.38C769.47,-108.87 735.16,-85.31 706.59,-65.7"/>
<polygon fill="#88a0d6" stroke="#88a0d6" points="708.62,-62.85 698.39,-60.07 704.66,-68.62 708.62,-62.85"/>
<text text-anchor="start" x="745.52" y="-82.23" font-family="Roboto, sans-serif" font-weight="bold" font-size="14.00">NEIN</text>
</g>
<!-- Bestellung versenden -->
<g id="node9" class="node">
<title>Bestellung versenden</title>
<path fill="#c4cac1" stroke="black" stroke-width="0" d="M1054.67,-47.64C1054.67,-47.64 898.38,-47.64 898.38,-47.64 892.38,-47.64 886.38,-41.64 886.38,-35.64 886.38,-35.64 886.38,-23.64 886.38,-23.64 886.38,-17.64 892.38,-11.64 898.38,-11.64 898.38,-11.64 1054.67,-11.64 1054.67,-11.64 1060.67,-11.64 1066.67,-17.64 1066.67,-23.64 1066.67,-23.64 1066.67,-35.64 1066.67,-35.64 1066.67,-41.64 1060.67,-47.64 1054.67,-47.64"/>
<text text-anchor="start" x="900.77" y="-24.96" font-family="Roboto, sans-serif" font-size="14.00">Bestellung versenden</text>
</g>
<!-- 50&#45;&gt;Bestellung versenden -->
<g id="edge9" class="edge">
<title>50-&gt;Bestellung versenden</title>
<path fill="none" stroke="#88a0d6" d="M840.83,-124.38C867.96,-105.64 912.07,-75.17 942.6,-54.08"/>
<polygon fill="#88a0d6" stroke="#88a0d6" points="944.51,-57.01 950.75,-48.45 940.53,-51.25 944.51,-57.01"/>
<text text-anchor="start" x="905.52" y="-82.23" font-family="Roboto, sans-serif" font-weight="bold" font-size="14.00">JA</text>
</g>
</g>
</svg>
  </g>
</svg>
  </g>
<text x="1474.0" y="910.0" text-anchor="end" font-family="Roboto, sans-serif" font-size="10" fill="#666666">v4.2 | 11.12.2025 (urspr. 01.10.2025) | ebdamame v1.0.0 | rebdhuhn v1.0.1</text></svg>