<?xml version='1.0' encoding='ASCII' standalone='yes'?>
<svg xmlns="http://www.w3.org/2000/svg" xmlns:xlink="http://www.w3.org/1999/xlink" version="1.1" width="1890.6666666666667px" viewBox="0 0 1890.6666666666667 1061.3333333333333" height="1061.3333333333333px">
  <g>
    <svg version="1.1" width="1890.6666666666667px" viewBox="0 0 1890.6666666666667 1061.3333333333333" height="1061.3333333333333px">
  <polygon fill="#f3f1f6" points="0,0 1890.6666666666667,0 1890.6666666666667,1061.3333333333333 0,1061.3333333333333"/><g>
    <g transform="translate(521.1149041938481, 106.1333333333333) scale(1 1) translate(0, 0) scale(4.800002954775688 4.800002954775688) "><sodipodi:namedview xmlns:sodipodi="http://sodipodi.sourceforge.net/DTD/sodipodi-0.dtd" xmlns:inkscape="http://www.inkscape.org/namespaces/inkscape" id="namedview7" pagecolor="#ffffff" bordercolor="#999999" borderopacity="1" inkscape:pageshadow="0" inkscape:pageopacity="0" inkscape:pagecheckerboard="0" inkscape:document-units="mm" showgrid="false" fit-margin-top="0" fit-margin-left="0" fit-margin-right="0" fit-margin-bottom="0" inkscape:zoom="0.64052329" inkscape:cx="130.36216" inkscape:cy="412.163" inkscape:window-width="1512" inkscape:window-height="916" inkscape:window-x="3840" inkscape:window-y="136" inkscape:window-maximized="0" inkscape:current-layer="layer1"/>
  <defs id="defs2">
    <clipPath clipPathUnits="userSpaceOnUse" id="clipPath23">
      <path d="M 0,568.156 H 579.236 V 0 H 0 Z" id="path21"/>
    </clipPath>
  </defs>
  <g xmlns:inkscape="http://www.inkscape.org/namespaces/inkscape" inkscape:label="Layer 1" inkscape:groupmode="layer" id="layer1" transform="translate(-16.541937,-55.305267)">
    <g id="g19" clip-path="url(#clipPath23)" transform="matrix(0.35277777,0,0,-0.35277777,0.01017023,243.73675)" style="opacity:0.2">
      <g id="g25" transform="translate(122.444,32.7195)">
        <path d="m 0,0 h -56.104 c -11,0 -19.898,9.123 -19.463,20.115 10.594,267.191 231.277,481.302 501.029,481.302 v -56.02 c 0,-10.98 -8.688,-19.892 -19.658,-20.393 C 180.29,414.697 0,228.005 0,0" style="fill:#6ead83;fill-opacity:0.5;fill-rule:nonzero;stroke:none" id="path27"/>
      </g>
      <g id="g29" transform="translate(273.7828,32.7195)">
        <path d="m 0,0 h -55.926 c -11.228,0 -20.091,9.482 -19.435,20.69 10.744,183.439 163.389,329.388 349.485,329.388 v -56.263 c 0,-10.709 -8.273,-19.617 -18.957,-20.35 C 112.819,263.696 0,144.774 0,0" style="fill:#6ead83;fill-opacity:0.5;fill-rule:nonzero;stroke:none" id="path31"/>
      </g>
      <g id="g33" transform="translate(425.7667,32.7195)">
        <path d="m 0,0 h -55.445 c -11.653,0 -20.604,10.17 -19.334,21.753 10.866,99.032 95.031,176.341 196.919,176.341 v -57.011 c 0,-10.046 -7.283,-18.755 -17.229,-20.165 C 45.688,112.522 0,61.497 0,0" style="fill:#6ead83;fill-opacity:0.5;fill-rule:nonzero;stroke:none" id="path35"/>
      </g>
    </g>
  </g>
</g>
    <svg width="1418pt" height="796pt" viewBox="0.00 0.00 1417.64 796.13">
<g id="graph0" class="graph" transform="scale(1 1) rotate(0) translate(4 792.13)">
<title>D</title>
<text text-anchor="start" x="671.45" y="-768.03" font-family="Times,serif" font-weight="bold" font-size="18.00">MaBiS</text>
<text text-anchor="start" x="366.2" y="-737.93" font-family="Times,serif" font-weight="bold" font-size="16.00">7.16.1: AD: &#220;bermittlung der Lieferantensummenzeitreihe vom &#220;NB an LF</text>
<!-- Start -->
<g id="node1" class="node">
<title>Start</title>
<polygon fill="#7a8da1" stroke="black" points="427.26,-690.13 272.47,-690.13 272.47,-646.85 427.26,-646.85 427.26,-690.13"/>
<text text-anchor="start" x="321.74" y="-669.19" font-family="Times,serif" font-weight="bold" font-size="14.00">E_0041</text>
<text text-anchor="start" x="286.87" y="-657.09" font-family="Times,serif" font-weight="bold" text-decoration="underline" font-size="12.00">Pr&#252;fende Rolle:</text>
<text text-anchor="start" x="391.87" y="-657.09" font-family="Times,serif" font-weight="bold" font-size="12.00"> LF</text>
</g>
<!-- 1 -->
<g id="node2" class="node">
<title>1</title>
<path fill="#7aab8a" stroke="black" d="M640.64,-609.85C640.64,-609.85 59.09,-609.85 59.09,-609.85 53.09,-609.85 47.09,-603.85 47.09,-597.85 47.09,-597.85 47.09,-585.85 47.09,-585.85 47.09,-579.85 53.09,-573.85 59.09,-573.85 59.09,-573.85 640.64,-573.85 640.64,-573.85 646.64,-573.85 652.64,-579.85 652.64,-585.85 652.64,-585.85 652.64,-597.85 652.64,-597.85 652.64,-603.85 646.64,-609.85 640.64,-609.85"/>
<text text-anchor="start" x="61.49" y="-588.18" font-family="Times,serif" font-weight="bold" font-size="14.00">1: </text>
<text text-anchor="start" x="80.99" y="-588.18" font-family="Times,serif" font-size="14.00">Erfolgt der Eingang der Zeitreihe nach Ablauf der Clearingfrist f&#252;r die KBKA?</text>
</g>
<!-- Start&#45;&gt;1 -->
<g id="edge1" class="edge">
<title>Start-&gt;1</title>
<path fill="none" stroke="black" d="M349.87,-646.7C349.87,-638.84 349.87,-629.76 349.87,-621.32"/>
<polygon fill="black" stroke="black" points="353.37,-621.52 349.87,-611.52 346.37,-621.52 353.37,-621.52"/>
</g>
<!-- A01 -->
<g id="node3" class="node">
<title>A01</title>
<polygon fill="#cfb986" stroke="black" points="255.11,-520.6 110.63,-520.6 110.63,-459.08 255.11,-459.08 255.11,-520.6"/>
<text text-anchor="start" x="167.87" y="-502.54" font-family="Times,serif" font-weight="bold" font-size="14.00">A01</text>
<text text-anchor="start" x="122.87" y="-490.44" font-family="Times,serif" text-decoration="underline" font-size="12.00">Hinweis:</text>
<text text-anchor="start" x="122.87" y="-478.44" font-family="Times,serif" font-size="12.00">Cluster: Abweisung</text>
<text text-anchor="start" x="122.87" y="-466.44" font-family="Times,serif" font-size="12.00">Frist&#252;berschreitung</text>
</g>
<!-- 1&#45;&gt;A01 -->
<g id="edge2" class="edge">
<title>1-&gt;A01</title>
<path fill="none" stroke="black" d="M320.78,-573.43C299.3,-560.57 269.33,-542.62 242.8,-526.74"/>
<polygon fill="black" stroke="black" points="244.89,-523.9 234.51,-521.77 241.29,-529.91 244.89,-523.9"/>
<text text-anchor="middle" x="297.62" y="-542.55" font-family="Times,serif" font-size="14.00">Ja</text>
</g>
<!-- 2 -->
<g id="node4" class="node">
<title>2</title>
<path fill="#7aab8a" stroke="black" d="M758.64,-507.84C758.64,-507.84 285.09,-507.84 285.09,-507.84 279.09,-507.84 273.09,-501.84 273.09,-495.84 273.09,-495.84 273.09,-483.84 273.09,-483.84 273.09,-477.84 279.09,-471.84 285.09,-471.84 285.09,-471.84 758.64,-471.84 758.64,-471.84 764.64,-471.84 770.64,-477.84 770.64,-483.84 770.64,-483.84 770.64,-495.84 770.64,-495.84 770.64,-501.84 764.64,-507.84 758.64,-507.84"/>
<text text-anchor="start" x="287.49" y="-486.16" font-family="Times,serif" font-weight="bold" font-size="14.00">2: </text>
<text text-anchor="start" x="306.99" y="-486.16" font-family="Times,serif" font-size="14.00">Ist der MaBiS-ZP zum betrachteten Bilanzierungsmonat aktiv?</text>
</g>
<!-- 1&#45;&gt;2 -->
<g id="edge3" class="edge">
<title>1-&gt;2</title>
<path fill="none" stroke="black" d="M379.83,-573.43C408.22,-556.92 451.07,-532.01 482.27,-513.86"/>
<polygon fill="black" stroke="black" points="483.77,-517.04 490.65,-508.99 480.25,-510.99 483.77,-517.04"/>
<text text-anchor="middle" x="452.74" y="-542.55" font-family="Times,serif" font-size="14.00">Nein</text>
</g>
<!-- A02 -->
<g id="node5" class="node">
<title>A02</title>
<polygon fill="#cfb986" stroke="black" points="305.98,-405.83 73.75,-405.83 73.75,-344.31 305.98,-344.31 305.98,-405.83"/>
<text text-anchor="start" x="174.87" y="-387.77" font-family="Times,serif" font-weight="bold" font-size="14.00">A02</text>
<text text-anchor="start" x="85.99" y="-375.67" font-family="Times,serif" text-decoration="underline" font-size="12.00">Hinweis:</text>
<text text-anchor="start" x="85.99" y="-363.67" font-family="Times,serif" font-size="12.00">Cluster: Abweisung</text>
<text text-anchor="start" x="85.99" y="-351.67" font-family="Times,serif" font-size="12.00">Gew&#228;hlter Zeitraum nicht zul&#228;ssig</text>
</g>
<!-- 2&#45;&gt;A02 -->
<g id="edge4" class="edge">
<title>2-&gt;A02</title>
<path fill="none" stroke="black" d="M470.35,-471.34C422.16,-454.97 348.86,-430.08 289.28,-409.84"/>
<polygon fill="black" stroke="black" points="290.73,-406.64 280.14,-406.73 288.48,-413.26 290.73,-406.64"/>
<text text-anchor="middle" x="391.74" y="-427.78" font-family="Times,serif" font-size="14.00">Nein</text>
</g>
<!-- 3 -->
<g id="node6" class="node">
<title>3</title>
<path fill="#7aab8a" stroke="black" d="M1105.76,-393.07C1105.76,-393.07 335.97,-393.07 335.97,-393.07 329.97,-393.07 323.97,-387.07 323.97,-381.07 323.97,-381.07 323.97,-369.07 323.97,-369.07 323.97,-363.07 329.97,-357.07 335.97,-357.07 335.97,-357.07 1105.76,-357.07 1105.76,-357.07 1111.76,-357.07 1117.76,-363.07 1117.76,-369.07 1117.76,-369.07 1117.76,-381.07 1117.76,-381.07 1117.76,-387.07 1111.76,-393.07 1105.76,-393.07"/>
<text text-anchor="start" x="338.37" y="-371.39" font-family="Times,serif" font-weight="bold" font-size="14.00">3: </text>
<text text-anchor="start" x="357.87" y="-371.39" font-family="Times,serif" font-size="14.00">Liegt die Version der Zeitreihe des MaBiS-ZP f&#252;r diesen Bilanzierungsmonat und MaBiS-ZP bereits vor?</text>
</g>
<!-- 2&#45;&gt;3 -->
<g id="edge5" class="edge">
<title>2-&gt;3</title>
<path fill="none" stroke="black" d="M552.52,-471.47C586.85,-452.01 642.62,-420.41 680.48,-398.96"/>
<polygon fill="black" stroke="black" points="681.88,-402.18 688.86,-394.21 678.43,-396.09 681.88,-402.18"/>
<text text-anchor="middle" x="639.62" y="-427.78" font-family="Times,serif" font-size="14.00">Ja</text>
</g>
<!-- A03 -->
<g id="node7" class="node">
<title>A03</title>
<polygon fill="#cfb986" stroke="black" points="191.73,-291.06 0,-291.06 0,-229.54 191.73,-229.54 191.73,-291.06"/>
<text text-anchor="start" x="80.86" y="-273" font-family="Times,serif" font-weight="bold" font-size="14.00">A03</text>
<text text-anchor="start" x="12.24" y="-260.9" font-family="Times,serif" text-decoration="underline" font-size="12.00">Hinweis:</text>
<text text-anchor="start" x="12.24" y="-248.9" font-family="Times,serif" font-size="12.00">Cluster: Abweisung</text>
<text text-anchor="start" x="12.24" y="-236.9" font-family="Times,serif" font-size="12.00">Zeitreihe bereits vorhanden</text>
</g>
<!-- 3&#45;&gt;A03 -->
<g id="edge6" class="edge">
<title>3-&gt;A03</title>
<path fill="none" stroke="black" d="M583.18,-356.6C480.66,-342.53 337.22,-320.63 203.04,-291.46"/>
<polygon fill="black" stroke="black" points="204.16,-288.12 193.64,-289.39 202.66,-294.96 204.16,-288.12"/>
<text text-anchor="middle" x="377.62" y="-313.01" font-family="Times,serif" font-size="14.00">Ja</text>
</g>
<!-- 4 -->
<g id="node8" class="node">
<title>4</title>
<path fill="#7aab8a" stroke="black" d="M1397.64,-278.3C1397.64,-278.3 222.09,-278.3 222.09,-278.3 216.09,-278.3 210.09,-272.3 210.09,-266.3 210.09,-266.3 210.09,-254.3 210.09,-254.3 210.09,-248.3 216.09,-242.3 222.09,-242.3 222.09,-242.3 1397.64,-242.3 1397.64,-242.3 1403.64,-242.3 1409.64,-248.3 1409.64,-254.3 1409.64,-254.3 1409.64,-266.3 1409.64,-266.3 1409.64,-272.3 1403.64,-278.3 1397.64,-278.3"/>
<text text-anchor="start" x="224.49" y="-256.62" font-family="Times,serif" font-weight="bold" font-size="14.00">4: </text>
<text text-anchor="start" x="243.99" y="-256.62" font-family="Times,serif" font-size="14.00">Ist die Version der Zeitreihe des MaBiS-ZP h&#246;her als die bisher h&#246;chste verarbeitete Version der Zeitreihe f&#252;r diesen Bilanzierungsmonat und diesen MaBiS-ZP?</text>
</g>
<!-- 3&#45;&gt;4 -->
<g id="edge7" class="edge">
<title>3-&gt;4</title>
<path fill="none" stroke="black" d="M734.38,-356.94C748.95,-338.48 772.32,-308.87 789.2,-287.48"/>
<polygon fill="black" stroke="black" points="791.84,-289.79 795.28,-279.78 786.34,-285.46 791.84,-289.79"/>
<text text-anchor="middle" x="786.74" y="-313.01" font-family="Times,serif" font-size="14.00">Nein</text>
</g>
<!-- A04 -->
<g id="node9" class="node">
<title>A04</title>
<polygon fill="#cfb986" stroke="black" points="626.98,-176.29 454.75,-176.29 454.75,-114.77 626.98,-114.77 626.98,-176.29"/>
<text text-anchor="start" x="525.87" y="-158.23" font-family="Times,serif" font-weight="bold" font-size="14.00">A04</text>
<text text-anchor="start" x="466.99" y="-146.13" font-family="Times,serif" text-decoration="underline" font-size="12.00">Hinweis:</text>
<text text-anchor="start" x="466.99" y="-134.13" font-family="Times,serif" font-size="12.00">Cluster: Abweisung</text>
<text text-anchor="start" x="466.99" y="-122.13" font-family="Times,serif" font-size="12.00">Version nicht zugelassen</text>
</g>
<!-- 4&#45;&gt;A04 -->
<g id="edge8" class="edge">
<title>4-&gt;A04</title>
<path fill="none" stroke="black" d="M768.13,-241.8C729.56,-225.64 671.16,-201.15 623.22,-181.05"/>
<polygon fill="black" stroke="black" points="624.82,-177.93 614.24,-177.29 622.11,-184.39 624.82,-177.93"/>
<text text-anchor="middle" x="707.74" y="-198.24" font-family="Times,serif" font-size="14.00">Nein</text>
</g>
<!-- 5 -->
<g id="node10" class="node">
<title>5</title>
<path fill="#7aab8a" stroke="black" d="M1341.01,-163.53C1341.01,-163.53 656.72,-163.53 656.72,-163.53 650.72,-163.53 644.72,-157.53 644.72,-151.53 644.72,-151.53 644.72,-139.53 644.72,-139.53 644.72,-133.53 650.72,-127.53 656.72,-127.53 656.72,-127.53 1341.01,-127.53 1341.01,-127.53 1347.01,-127.53 1353.01,-133.53 1353.01,-139.53 1353.01,-139.53 1353.01,-151.53 1353.01,-151.53 1353.01,-157.53 1347.01,-163.53 1341.01,-163.53"/>
<text text-anchor="start" x="659.12" y="-141.85" font-family="Times,serif" font-weight="bold" font-size="14.00">5: </text>
<text text-anchor="start" x="678.62" y="-141.85" font-family="Times,serif" font-size="14.00">Entsprechen die Energiemengen der LF-SZR (Kategorie B) den erwarteten Energiemengen?</text>
</g>
<!-- 4&#45;&gt;5 -->
<g id="edge9" class="edge">
<title>4-&gt;5</title>
<path fill="none" stroke="black" d="M838.98,-241.93C871.45,-222.56 924.1,-191.14 960.05,-169.69"/>
<polygon fill="black" stroke="black" points="961.62,-172.83 968.42,-164.7 958.03,-166.82 961.62,-172.83"/>
<text text-anchor="middle" x="921.62" y="-198.24" font-family="Times,serif" font-size="14.00">Ja</text>
</g>
<!-- A05 -->
<g id="node11" class="node">
<title>A05</title>
<polygon fill="#cfb986" stroke="black" points="1014.98,-61.52 764.75,-61.52 764.75,0 1014.98,0 1014.98,-61.52"/>
<text text-anchor="start" x="874.87" y="-43.46" font-family="Times,serif" font-weight="bold" font-size="14.00">A05</text>
<text text-anchor="start" x="776.99" y="-31.36" font-family="Times,serif" text-decoration="underline" font-size="12.00">Hinweis:</text>
<text text-anchor="start" x="776.99" y="-19.36" font-family="Times,serif" font-size="12.00">Cluster: Ablehnung</text>
<text text-anchor="start" x="776.99" y="-7.36" font-family="Times,serif" font-size="12.00">Energiemenge falsch / nicht plausibel</text>
</g>
<!-- 5&#45;&gt;A05 -->
<g id="edge10" class="edge">
<title>5-&gt;A05</title>
<path fill="none" stroke="black" d="M982.31,-127.4C967.61,-112.2 945.61,-89.44 926.76,-69.93"/>
<polygon fill="black" stroke="black" points="929.42,-67.65 919.95,-62.89 924.39,-72.51 929.42,-67.65"/>
<text text-anchor="middle" x="967.74" y="-83.47" font-family="Times,serif" font-size="14.00">Nein</text>
</g>
<!-- A06 -->
<g id="node12" class="node">
<title>A06</title>
<polygon fill="#cfb986" stroke="black" points="1183.11,-61.52 1032.62,-61.52 1032.62,0 1183.11,0 1183.11,-61.52"/>
<text text-anchor="start" x="1092.87" y="-43.46" font-family="Times,serif" font-weight="bold" font-size="14.00">A06</text>
<text text-anchor="start" x="1044.87" y="-31.36" font-family="Times,serif" text-decoration="underline" font-size="12.00">Hinweis:</text>
<text text-anchor="start" x="1044.87" y="-19.36" font-family="Times,serif" font-size="12.00">Cluster: Zustimmung</text>
<text text-anchor="start" x="1044.87" y="-7.36" font-family="Times,serif" font-size="12.00">Zeitreihe akzeptiert</text>
</g>
<!-- 5&#45;&gt;A06 -->
<g id="edge11" class="edge">
<title>5-&gt;A06</title>
<path fill="none" stroke="black" d="M1015.42,-127.4C1030.12,-112.2 1052.12,-89.44 1070.97,-69.93"/>
<polygon fill="black" stroke="black" points="1073.34,-72.51 1077.78,-62.89 1068.31,-67.65 1073.34,-72.51"/>
<text text-anchor="middle" x="1066.62" y="-83.47" font-family="Times,serif" font-size="14.00">Ja</text>
</g>
</g>
</svg>
  </g>
</svg>
  </g>
</svg>
