<?xml version='1.0' encoding='ASCII' standalone='yes'?>
<svg xmlns="http://www.w3.org/2000/svg" xmlns:xlink="http://www.w3.org/1999/xlink" version="1.1" width="1562.6666666666667px" viewBox="0 0 1562.6666666666667 465.3333333333333" height="465.3333333333333px">
  <g>
    <svg version="1.1" width="1562.6666666666667px" viewBox="0 0 1562.6666666666667 465.3333333333333" height="465.3333333333333px">
  <polygon fill="#f3f1f6" points="0,0 1562.6666666666667,0 1562.6666666666667,465.3333333333333 0,465.3333333333333"/><g>
    <g transform="translate(595.3380672910214, 46.533333333333324) scale(1 1) translate(0, 0) scale(2.1045239085637126 2.1045239085637126) "><sodipodi:namedview xmlns:sodipodi="http://sodipodi.sourceforge.net/DTD/sodipodi-0.dtd" xmlns:inkscape="http://www.inkscape.org/namespaces/inkscape" id="namedview7" pagecolor="#ffffff" bordercolor="#999999" borderopacity="1" inkscape:pageshadow="0" inkscape:pageopacity="0" inkscape:pagecheckerboard="0" inkscape:document-units="mm" showgrid="false" fit-margin-top="0" fit-margin-left="0" fit-margin-right="0" fit-margin-bottom="0" inkscape:zoom="0.64052329" inkscape:cx="130.36216" inkscape:cy="412.163" inkscape:window-width="1512" inkscape:window-height="916" inkscape:window-x="3840" inkscape:window-y="136" inkscape:window-maximized="0" inkscape:current-layer="layer1"/>
  <defs id="defs2">
    <clipPath clipPathUnits="userSpaceOnUse" id="clipPath23">
      <path d="M 0,568.156 H 579.236 V 0 H 0 Z" id="path21"/>
    </clipPath>
  </defs>
  <g xmlns:inkscape="http://www.inkscape.org/namespaces/inkscape" inkscape:label="Layer 1" inkscape:groupmode="layer" id="layer1" transform="translate(-16.541937,-55.305267)">
    <g id="g19" clip-path="url(#clipPath23)" transform="matrix(0.35277777,0,0,-0.35277777,0.01017023,243.73675)" style="opacity:0.2">
      <g id="g25" transform="translate(122.444,32.7195)">
        <path d="m 0,0 h -56.104 c -11,0 -19.898,9.123 -19.463,20.115 10.594,267.191 231.277,481.302 501.029,481.302 v -56.02 c 0,-10.98 -8.688,-19.892 -19.658,-20.393 C 180.29,414.697 0,228.005 0,0" style="fill:#6ead83;fill-opacity:0.5;fill-rule:nonzero;stroke:none" id="path27"/>
      </g>
      <g id="g29" transform="translate(273.7828,32.7195)">
        <path d="m 0,0 h -55.926 c -11.228,0 -20.091,9.482 -19.435,20.69 10.744,183.439 163.389,329.388 349.485,329.388 v -56.263 c 0,-10.709 -8.273,-19.617 -18.957,-20.35 C 112.819,263.696 0,144.774 0,0" style="fill:#6ead83;fill-opacity:0.5;fill-rule:nonzero;stroke:none" id="path31"/>
      </g>
      <g id="g33" transform="translate(425.7667,32.7195)">
        <path d="m 0,0 h -55.445 c -11.653,0 -20.604,10.17 -19.334,21.753 10.866,99.032 95.031,176.341 196.919,176.341 v -57.011 c 0,-10.046 -7.283,-18.755 -17.229,-20.165 C 45.688,112.522 0,61.497 0,0" style="fill:#6ead83;fill-opacity:0.5;fill-rule:nonzero;stroke:none" id="path35"/>
      </g>
    </g>
  </g>
</g>
    <svg width="1172pt" height="349pt" viewBox="0.00 0.00 1172.25 349.05">
<g id="graph0" class="graph" transform="scale(1 1) rotate(0) translate(4 345.05)">
<title>D</title>
<text text-anchor="start" x="8" y="-320.95" font-family="Times,serif" font-weight="bold" font-size="18.00">MaBiS</text>
<text text-anchor="start" x="8" y="-290.85" font-family="Times,serif" font-weight="bold" font-size="16.00">7.69.1: AD: &#220;bermittlung Datenstatus f&#252;r die monatliche Ausfallarbeits&#252;berf&#252;hrungszeitreihe (AA&#220;Z) an NB und BKV (anfNB)</text>
<!-- Start -->
<g id="node1" class="node">
<title>Start</title>
<path fill="#7a8da1" stroke="black" stroke-width="0" d="M647.02,-243.05C647.02,-243.05 496.73,-243.05 496.73,-243.05 490.73,-243.05 484.73,-237.05 484.73,-231.05 484.73,-231.05 484.73,-211.77 484.73,-211.77 484.73,-205.77 490.73,-199.77 496.73,-199.77 496.73,-199.77 647.02,-199.77 647.02,-199.77 653.02,-199.77 659.02,-205.77 659.02,-211.77 659.02,-211.77 659.02,-231.05 659.02,-231.05 659.02,-237.05 653.02,-243.05 647.02,-243.05"/>
<text text-anchor="start" x="543.75" y="-222.11" font-family="Times,serif" font-weight="bold" font-size="14.00">E_0082</text>
<text text-anchor="start" x="499.12" y="-210.01" font-family="Times,serif" font-weight="bold" text-decoration="underline" font-size="12.00">Pr&#252;fende Rolle:</text>
<text text-anchor="start" x="604.12" y="-210.01" font-family="Times,serif" font-weight="bold" font-size="12.00"> BIKO</text>
</g>
<!-- 1 -->
<g id="node2" class="node">
<title>1</title>
<path fill="#7aab8a" stroke="black" stroke-width="0" d="M701.02,-162.77C701.02,-162.77 442.73,-162.77 442.73,-162.77 436.73,-162.77 430.73,-156.77 430.73,-150.77 430.73,-150.77 430.73,-138.77 430.73,-138.77 430.73,-132.77 436.73,-126.77 442.73,-126.77 442.73,-126.77 701.02,-126.77 701.02,-126.77 707.02,-126.77 713.02,-132.77 713.02,-138.77 713.02,-138.77 713.02,-150.77 713.02,-150.77 713.02,-156.77 707.02,-162.77 701.02,-162.77"/>
<text text-anchor="start" x="445.12" y="-141.09" font-family="Times,serif" font-weight="bold" font-size="14.00">1: </text>
<text text-anchor="start" x="464.62" y="-141.09" font-family="Times,serif" font-size="14.00">Ist die BKA (ohne KBKA) erfolgt?</text>
</g>
<!-- Start&#45;&gt;1 -->
<g id="edge1" class="edge">
<title>Start-&gt;1</title>
<path fill="none" stroke="black" d="M571.88,-200.01C571.88,-191.94 571.88,-182.53 571.88,-173.84"/>
<polygon fill="black" stroke="black" points="575.38,-174.13 571.88,-164.13 568.38,-174.13 575.38,-174.13"/>
</g>
<!-- A03 -->
<g id="node3" class="node">
<title>A03</title>
<path fill="#cfb986" stroke="black" stroke-width="0" d="M541.87,-67.52C541.87,-67.52 71.88,-67.52 71.88,-67.52 65.88,-67.52 59.88,-61.52 59.88,-55.52 59.88,-55.52 59.88,-18 59.88,-18 59.88,-12 65.88,-6 71.88,-6 71.88,-6 541.87,-6 541.87,-6 547.87,-6 553.87,-12 553.87,-18 553.87,-18 553.87,-55.52 553.87,-55.52 553.87,-61.52 547.87,-67.52 541.87,-67.52"/>
<text text-anchor="start" x="72.12" y="-49.46" font-family="Times,serif" font-weight="bold" font-size="14.00">A03</text>
<text text-anchor="start" x="72.12" y="-37.36" font-family="Times,serif" text-decoration="underline" font-size="12.00">Hinweis:</text>
<text text-anchor="start" x="72.12" y="-25.36" font-family="Times,serif" font-size="12.00">Datenstatus &#8222;Abgerechnete Daten&#8220; f&#252;r die h&#246;chste Version der AA&#220;Z mit dem</text>
<text text-anchor="start" x="72.12" y="-13.36" font-family="Times,serif" font-size="12.00">Datenstatus &#8222;Abrechnungsdaten&#8220; in diesem Bilanzierungsmonat.</text>
</g>
<!-- 1&#45;&gt;A03 -->
<g id="edge2" class="edge">
<title>1-&gt;A03</title>
<path fill="none" stroke="#7aab8a" d="M529.59,-126.86C492.58,-112.05 437.69,-90.09 391.66,-71.68"/>
<polygon fill="#7aab8a" stroke="#7aab8a" points="393.07,-68.47 382.49,-68.01 390.47,-74.97 393.07,-68.47"/>
<text text-anchor="start" x="477.88" y="-96.47" font-family="Times,serif" font-weight="bold" font-size="14.00">JA</text>
</g>
<!-- A06 -->
<g id="node4" class="node">
<title>A06</title>
<path fill="#cfb986" stroke="black" stroke-width="0" d="M1092.37,-73.52C1092.37,-73.52 583.38,-73.52 583.38,-73.52 577.38,-73.52 571.38,-67.52 571.38,-61.52 571.38,-61.52 571.38,-12 571.38,-12 571.38,-6 577.38,0 583.38,0 583.38,0 1092.37,0 1092.37,0 1098.37,0 1104.37,-6 1104.37,-12 1104.37,-12 1104.37,-61.52 1104.37,-61.52 1104.37,-67.52 1098.37,-73.52 1092.37,-73.52"/>
<text text-anchor="start" x="583.62" y="-55.46" font-family="Times,serif" font-weight="bold" font-size="14.00">A06</text>
<text text-anchor="start" x="583.62" y="-43.36" font-family="Times,serif" text-decoration="underline" font-size="12.00">Hinweis:</text>
<text text-anchor="start" x="583.62" y="-31.36" font-family="Times,serif" font-size="12.00">Datenstatus &#8222;Abgerechnete Daten KBKA&#8220; f&#252;r die h&#246;chste Version der AA&#220;Z mit dem</text>
<text text-anchor="start" x="583.62" y="-19.36" font-family="Times,serif" font-size="12.00">Datenstatus &#8222;Abrechnungsdaten&#8220;, &#8222;Abgerechnete Daten&#8220; oder &#8222;Abrechnungsdaten</text>
<text text-anchor="start" x="583.62" y="-7.36" font-family="Times,serif" font-size="12.00">KBKA&#8220; in diesem Bilanzierungsmonat.</text>
</g>
<!-- 1&#45;&gt;A06 -->
<g id="edge3" class="edge">
<title>1-&gt;A06</title>
<path fill="none" stroke="#7aab8a" d="M614.32,-126.86C647.52,-113.62 695.05,-94.68 737.76,-77.66"/>
<polygon fill="#7aab8a" stroke="#7aab8a" points="738.81,-81.01 746.81,-74.05 736.22,-74.5 738.81,-81.01"/>
<text text-anchor="start" x="696.88" y="-96.47" font-family="Times,serif" font-weight="bold" font-size="14.00">NEIN</text>
</g>
</g>
</svg>
  </g>
</svg>
  </g>
</svg>
