<?xml version='1.0' encoding='ASCII' standalone='yes'?>
<svg xmlns="http://www.w3.org/2000/svg" xmlns:xlink="http://www.w3.org/1999/xlink" version="1.1" width="1376.0px" viewBox="0 0 1376.0 433.3333333333333" height="433.3333333333333px">
  <g>
    <svg version="1.1" width="1376.0px" viewBox="0 0 1376.0 433.3333333333333" height="433.3333333333333px">
  <polygon fill="#f3f1f6" points="0,0 1376.0,0 1376.0,433.3333333333333 0,433.3333333333333"/><g>
    <g transform="translate(514.7952393588785, 43.33333333333332) scale(1 1) translate(0, 0) scale(1.9598002013845461 1.9598002013845461) "><sodipodi:namedview xmlns:sodipodi="http://sodipodi.sourceforge.net/DTD/sodipodi-0.dtd" xmlns:inkscape="http://www.inkscape.org/namespaces/inkscape" id="namedview7" pagecolor="#ffffff" bordercolor="#999999" borderopacity="1" inkscape:pageshadow="0" inkscape:pageopacity="0" inkscape:pagecheckerboard="0" inkscape:document-units="mm" showgrid="false" fit-margin-top="0" fit-margin-left="0" fit-margin-right="0" fit-margin-bottom="0" inkscape:zoom="0.64052329" inkscape:cx="130.36216" inkscape:cy="412.163" inkscape:window-width="1512" inkscape:window-height="916" inkscape:window-x="3840" inkscape:window-y="136" inkscape:window-maximized="0" inkscape:current-layer="layer1"/>
  <defs id="defs2">
    <clipPath clipPathUnits="userSpaceOnUse" id="clipPath23">
      <path d="M 0,568.156 H 579.236 V 0 H 0 Z" id="path21"/>
    </clipPath>
  </defs>
  <g xmlns:inkscape="http://www.inkscape.org/namespaces/inkscape" inkscape:label="Layer 1" inkscape:groupmode="layer" id="layer1" transform="translate(-16.541937,-55.305267)">
    <g id="g19" clip-path="url(#clipPath23)" transform="matrix(0.35277777,0,0,-0.35277777,0.01017023,243.73675)" style="opacity:0.2">
      <g id="g25" transform="translate(122.444,32.7195)">
        <path d="m 0,0 h -56.104 c -11,0 -19.898,9.123 -19.463,20.115 10.594,267.191 231.277,481.302 501.029,481.302 v -56.02 c 0,-10.98 -8.688,-19.892 -19.658,-20.393 C 180.29,414.697 0,228.005 0,0" style="fill:#6ead83;fill-opacity:0.5;fill-rule:nonzero;stroke:none" id="path27"/>
      </g>
      <g id="g29" transform="translate(273.7828,32.7195)">
        <path d="m 0,0 h -55.926 c -11.228,0 -20.091,9.482 -19.435,20.69 10.744,183.439 163.389,329.388 349.485,329.388 v -56.263 c 0,-10.709 -8.273,-19.617 -18.957,-20.35 C 112.819,263.696 0,144.774 0,0" style="fill:#6ead83;fill-opacity:0.5;fill-rule:nonzero;stroke:none" id="path31"/>
      </g>
      <g id="g33" transform="translate(425.7667,32.7195)">
        <path d="m 0,0 h -55.445 c -11.653,0 -20.604,10.17 -19.334,21.753 10.866,99.032 95.031,176.341 196.919,176.341 v -57.011 c 0,-10.046 -7.283,-18.755 -17.229,-20.165 C 45.688,112.522 0,61.497 0,0" style="fill:#6ead83;fill-opacity:0.5;fill-rule:nonzero;stroke:none" id="path35"/>
      </g>
    </g>
  </g>
</g>
    <svg width="1032pt" height="325pt" viewBox="0.00 0.00 1032.00 325.05">
<g id="graph0" class="graph" transform="scale(1 1) rotate(0) translate(4 321.05)">
<title>D</title>
<text text-anchor="start" x="8" y="-296.95" font-family="Times,serif" font-weight="bold" font-size="18.00">MaBiS</text>
<text text-anchor="start" x="8" y="-266.85" font-family="Times,serif" font-weight="bold" font-size="16.00">7.27.2: AD: &#220;bermittlung Datenstatus f&#252;r die Bilanzierungsgebietssummenzeitreihe vom BIKO an &#220;NB und NB</text>
<!-- Start -->
<g id="node1" class="node">
<title>Start</title>
<path fill="#7a8da1" stroke="black" stroke-width="0" d="M587.15,-219.05C587.15,-219.05 436.85,-219.05 436.85,-219.05 430.85,-219.05 424.85,-213.05 424.85,-207.05 424.85,-207.05 424.85,-187.77 424.85,-187.77 424.85,-181.77 430.85,-175.77 436.85,-175.77 436.85,-175.77 587.15,-175.77 587.15,-175.77 593.15,-175.77 599.15,-181.77 599.15,-187.77 599.15,-187.77 599.15,-207.05 599.15,-207.05 599.15,-213.05 593.15,-219.05 587.15,-219.05"/>
<text text-anchor="start" x="483.88" y="-198.11" font-family="Times,serif" font-weight="bold" font-size="14.00">E_0054</text>
<text text-anchor="start" x="439.25" y="-186.01" font-family="Times,serif" font-weight="bold" text-decoration="underline" font-size="12.00">Pr&#252;fende Rolle:</text>
<text text-anchor="start" x="544.25" y="-186.01" font-family="Times,serif" font-weight="bold" font-size="12.00"> BIKO</text>
</g>
<!-- 1 -->
<g id="node2" class="node">
<title>1</title>
<path fill="#7aab8a" stroke="black" stroke-width="0" d="M800.9,-138.77C800.9,-138.77 223.1,-138.77 223.1,-138.77 217.1,-138.77 211.1,-132.77 211.1,-126.77 211.1,-126.77 211.1,-114.77 211.1,-114.77 211.1,-108.77 217.1,-102.77 223.1,-102.77 223.1,-102.77 800.9,-102.77 800.9,-102.77 806.9,-102.77 812.9,-108.77 812.9,-114.77 812.9,-114.77 812.9,-126.77 812.9,-126.77 812.9,-132.77 806.9,-138.77 800.9,-138.77"/>
<text text-anchor="start" x="225.5" y="-117.09" font-family="Times,serif" font-weight="bold" font-size="14.00">1: </text>
<text text-anchor="start" x="245" y="-117.09" font-family="Times,serif" font-size="14.00">Erfolgt der Eingang der Zeitreihe vor Ablauf der Frist f&#252;r den Erstaufschlag?</text>
</g>
<!-- Start&#45;&gt;1 -->
<g id="edge1" class="edge">
<title>Start-&gt;1</title>
<path fill="none" stroke="black" d="M512,-176.01C512,-167.94 512,-158.53 512,-149.84"/>
<polygon fill="black" stroke="black" points="515.5,-150.13 512,-140.13 508.5,-150.13 515.5,-150.13"/>
</g>
<!-- A01 -->
<g id="node3" class="node">
<title>A01</title>
<path fill="#cfb986" stroke="black" stroke-width="0" d="M503.74,-49.52C503.74,-49.52 302.26,-49.52 302.26,-49.52 296.26,-49.52 290.26,-43.52 290.26,-37.52 290.26,-37.52 290.26,-12 290.26,-12 290.26,-6 296.26,0 302.26,0 302.26,0 503.74,0 503.74,0 509.74,0 515.74,-6 515.74,-12 515.74,-12 515.74,-37.52 515.74,-37.52 515.74,-43.52 509.74,-49.52 503.74,-49.52"/>
<text text-anchor="start" x="302.5" y="-31.46" font-family="Times,serif" font-weight="bold" font-size="14.00">A01</text>
<text text-anchor="start" x="302.5" y="-19.36" font-family="Times,serif" text-decoration="underline" font-size="12.00">Hinweis:</text>
<text text-anchor="start" x="302.5" y="-7.36" font-family="Times,serif" font-size="12.00">Datenstatus &#8222;Abrechnungsdaten&#8220;</text>
</g>
<!-- 1&#45;&gt;A01 -->
<g id="edge2" class="edge">
<title>1-&gt;A01</title>
<path fill="none" stroke="#7aab8a" d="M492.51,-102.96C477.67,-90.16 456.83,-72.18 438.99,-56.8"/>
<polygon fill="#7aab8a" stroke="#7aab8a" points="441.51,-54.35 431.65,-50.47 436.94,-59.65 441.51,-54.35"/>
<text text-anchor="start" x="470" y="-72.47" font-family="Times,serif" font-weight="bold" font-size="14.00">JA</text>
</g>
<!-- A02 -->
<g id="node4" class="node">
<title>A02</title>
<path fill="#cfb986" stroke="black" stroke-width="0" d="M694.12,-49.52C694.12,-49.52 545.88,-49.52 545.88,-49.52 539.88,-49.52 533.88,-43.52 533.88,-37.52 533.88,-37.52 533.88,-12 533.88,-12 533.88,-6 539.88,0 545.88,0 545.88,0 694.12,0 694.12,0 700.12,0 706.12,-6 706.12,-12 706.12,-12 706.12,-37.52 706.12,-37.52 706.12,-43.52 700.12,-49.52 694.12,-49.52"/>
<text text-anchor="start" x="546.12" y="-31.46" font-family="Times,serif" font-weight="bold" font-size="14.00">A02</text>
<text text-anchor="start" x="546.12" y="-19.36" font-family="Times,serif" text-decoration="underline" font-size="12.00">Hinweis:</text>
<text text-anchor="start" x="546.12" y="-7.36" font-family="Times,serif" font-size="12.00">Datenstatus &#8222;Pr&#252;fdaten&#8220;</text>
</g>
<!-- 1&#45;&gt;A02 -->
<g id="edge3" class="edge">
<title>1-&gt;A02</title>
<path fill="none" stroke="#7aab8a" d="M531.31,-102.96C546.01,-90.16 566.67,-72.18 584.34,-56.8"/>
<polygon fill="#7aab8a" stroke="#7aab8a" points="586.36,-59.68 591.6,-50.48 581.76,-54.4 586.36,-59.68"/>
<text text-anchor="start" x="569" y="-72.47" font-family="Times,serif" font-weight="bold" font-size="14.00">NEIN</text>
</g>
</g>
</svg>
  </g>
</svg>
  </g>
</svg>
