<?xml version='1.0' encoding='ASCII' standalone='yes'?>
<svg xmlns="http://www.w3.org/2000/svg" xmlns:xlink="http://www.w3.org/1999/xlink" version="1.1" width="1798.6666666666667px" viewBox="0 0 1798.6666666666667 981.3333333333334" height="981.3333333333334px">
  <g>
    <svg version="1.1" width="1798.6666666666667px" viewBox="0 0 1798.6666666666667 981.3333333333334" height="981.3333333333334px">
  <polygon fill="#f3f1f6" points="0,0 1798.6666666666667,0 1798.6666666666667,981.3333333333334 0,981.3333333333334"/><g>
    <g transform="translate(507.09116769682436, 98.13333333333331) scale(1 1) translate(0, 0) scale(4.4381936868277725 4.4381936868277725) "><sodipodi:namedview xmlns:sodipodi="http://sodipodi.sourceforge.net/DTD/sodipodi-0.dtd" xmlns:inkscape="http://www.inkscape.org/namespaces/inkscape" id="namedview7" pagecolor="#ffffff" bordercolor="#999999" borderopacity="1" inkscape:pageshadow="0" inkscape:pageopacity="0" inkscape:pagecheckerboard="0" inkscape:document-units="mm" showgrid="false" fit-margin-top="0" fit-margin-left="0" fit-margin-right="0" fit-margin-bottom="0" inkscape:zoom="0.64052329" inkscape:cx="130.36216" inkscape:cy="412.163" inkscape:window-width="1512" inkscape:window-height="916" inkscape:window-x="3840" inkscape:window-y="136" inkscape:window-maximized="0" inkscape:current-layer="layer1"/>
  <defs id="defs2">
    <clipPath clipPathUnits="userSpaceOnUse" id="clipPath23">
      <path d="M 0,568.156 H 579.236 V 0 H 0 Z" id="path21"/>
    </clipPath>
  </defs>
  <g xmlns:inkscape="http://www.inkscape.org/namespaces/inkscape" inkscape:label="Layer 1" inkscape:groupmode="layer" id="layer1" transform="translate(-16.541937,-55.305267)">
    <g id="g19" clip-path="url(#clipPath23)" transform="matrix(0.35277777,0,0,-0.35277777,0.01017023,243.73675)" style="opacity:0.2">
      <g id="g25" transform="translate(122.444,32.7195)">
        <path d="m 0,0 h -56.104 c -11,0 -19.898,9.123 -19.463,20.115 10.594,267.191 231.277,481.302 501.029,481.302 v -56.02 c 0,-10.98 -8.688,-19.892 -19.658,-20.393 C 180.29,414.697 0,228.005 0,0" style="fill:#6ead83;fill-opacity:0.5;fill-rule:nonzero;stroke:none" id="path27"/>
      </g>
      <g id="g29" transform="translate(273.7828,32.7195)">
        <path d="m 0,0 h -55.926 c -11.228,0 -20.091,9.482 -19.435,20.69 10.744,183.439 163.389,329.388 349.485,329.388 v -56.263 c 0,-10.709 -8.273,-19.617 -18.957,-20.35 C 112.819,263.696 0,144.774 0,0" style="fill:#6ead83;fill-opacity:0.5;fill-rule:nonzero;stroke:none" id="path31"/>
      </g>
      <g id="g33" transform="translate(425.7667,32.7195)">
        <path d="m 0,0 h -55.445 c -11.653,0 -20.604,10.17 -19.334,21.753 10.866,99.032 95.031,176.341 196.919,176.341 v -57.011 c 0,-10.046 -7.283,-18.755 -17.229,-20.165 C 45.688,112.522 0,61.497 0,0" style="fill:#6ead83;fill-opacity:0.5;fill-rule:nonzero;stroke:none" id="path35"/>
      </g>
    </g>
  </g>
</g>
    <svg width="1349pt" height="736pt" viewBox="0.00 0.00 1349.43 736.13">
<g id="graph0" class="graph" transform="scale(1 1) rotate(0) translate(4 732.13)">
<title>D</title>
<text text-anchor="start" x="162.96" y="-708.03" font-family="Times,serif" font-weight="bold" font-size="18.00">MaBiS</text>
<text text-anchor="start" x="162.96" y="-677.93" font-family="Times,serif" font-weight="bold" font-size="16.00">7.67.1: AD: &#220;bermittlung der monatlichen Ausfallarbeits&#252;berf&#252;hrungszeitreihe zwischen ANB und BKV (anfNB)</text>
<!-- Start -->
<g id="node1" class="node">
<title>Start</title>
<path fill="#7a8da1" stroke="black" stroke-width="0" d="M377.92,-630.13C377.92,-630.13 227.62,-630.13 227.62,-630.13 221.62,-630.13 215.62,-624.13 215.62,-618.13 215.62,-618.13 215.62,-598.85 215.62,-598.85 215.62,-592.85 221.62,-586.85 227.62,-586.85 227.62,-586.85 377.92,-586.85 377.92,-586.85 383.92,-586.85 389.92,-592.85 389.92,-598.85 389.92,-598.85 389.92,-618.13 389.92,-618.13 389.92,-624.13 383.92,-630.13 377.92,-630.13"/>
<text text-anchor="start" x="274.65" y="-609.19" font-family="Times,serif" font-weight="bold" font-size="14.00">E_0080</text>
<text text-anchor="start" x="230.02" y="-597.09" font-family="Times,serif" font-weight="bold" text-decoration="underline" font-size="12.00">Pr&#252;fende Rolle:</text>
<text text-anchor="start" x="335.02" y="-597.09" font-family="Times,serif" font-weight="bold" font-size="12.00"> BIKO</text>
</g>
<!-- 1 -->
<g id="node2" class="node">
<title>1</title>
<path fill="#7aab8a" stroke="black" stroke-width="0" d="M593.55,-549.85C593.55,-549.85 12,-549.85 12,-549.85 6,-549.85 0,-543.85 0,-537.85 0,-537.85 0,-525.85 0,-525.85 0,-519.85 6,-513.85 12,-513.85 12,-513.85 593.55,-513.85 593.55,-513.85 599.55,-513.85 605.55,-519.85 605.55,-525.85 605.55,-525.85 605.55,-537.85 605.55,-537.85 605.55,-543.85 599.55,-549.85 593.55,-549.85"/>
<text text-anchor="start" x="14.4" y="-528.17" font-family="Times,serif" font-weight="bold" font-size="14.00">1: </text>
<text text-anchor="start" x="33.9" y="-528.17" font-family="Times,serif" font-size="14.00">Erfolgt der Eingang der Zeitreihe nach Ablauf der Clearingfrist f&#252;r die KBKA?</text>
</g>
<!-- Start&#45;&gt;1 -->
<g id="edge1" class="edge">
<title>Start-&gt;1</title>
<path fill="none" stroke="black" d="M302.77,-587.09C302.77,-579.02 302.77,-569.61 302.77,-560.92"/>
<polygon fill="black" stroke="black" points="306.28,-561.21 302.78,-551.21 299.28,-561.21 306.28,-561.21"/>
</g>
<!-- A01 -->
<g id="node3" class="node">
<title>A01</title>
<path fill="#cfb986" stroke="black" stroke-width="0" d="M151.01,-460.6C151.01,-460.6 30.53,-460.6 30.53,-460.6 24.53,-460.6 18.53,-454.6 18.53,-448.6 18.53,-448.6 18.53,-423.08 18.53,-423.08 18.53,-417.08 24.53,-411.08 30.53,-411.08 30.53,-411.08 151.01,-411.08 151.01,-411.08 157.01,-411.08 163.01,-417.08 163.01,-423.08 163.01,-423.08 163.01,-448.6 163.01,-448.6 163.01,-454.6 157.01,-460.6 151.01,-460.6"/>
<text text-anchor="start" x="30.77" y="-442.54" font-family="Times,serif" font-weight="bold" font-size="14.00">A01</text>
<text text-anchor="start" x="30.77" y="-430.44" font-family="Times,serif" text-decoration="underline" font-size="12.00">Hinweis:</text>
<text text-anchor="start" x="30.77" y="-418.44" font-family="Times,serif" font-size="12.00">Frist&#252;berschreitung</text>
</g>
<!-- 1&#45;&gt;A01 -->
<g id="edge2" class="edge">
<title>1-&gt;A01</title>
<path fill="none" stroke="#7aab8a" d="M264.87,-514.04C234.31,-500.49 190.63,-481.12 154.68,-465.18"/>
<polygon fill="#7aab8a" stroke="#7aab8a" points="156.22,-462.03 145.66,-461.18 153.38,-468.43 156.22,-462.03"/>
<text text-anchor="start" x="221.77" y="-483.55" font-family="Times,serif" font-weight="bold" font-size="14.00">JA</text>
</g>
<!-- 2 -->
<g id="node4" class="node">
<title>2</title>
<path fill="#7aab8a" stroke="black" stroke-width="0" d="M666.55,-453.84C666.55,-453.84 193,-453.84 193,-453.84 187,-453.84 181,-447.84 181,-441.84 181,-441.84 181,-429.84 181,-429.84 181,-423.84 187,-417.84 193,-417.84 193,-417.84 666.55,-417.84 666.55,-417.84 672.55,-417.84 678.55,-423.84 678.55,-429.84 678.55,-429.84 678.55,-441.84 678.55,-441.84 678.55,-447.84 672.55,-453.84 666.55,-453.84"/>
<text text-anchor="start" x="195.4" y="-432.16" font-family="Times,serif" font-weight="bold" font-size="14.00">2: </text>
<text text-anchor="start" x="214.9" y="-432.16" font-family="Times,serif" font-size="14.00">Ist der MaBiS-ZP zum betrachteten Bilanzierungsmonat aktiv?</text>
</g>
<!-- 1&#45;&gt;2 -->
<g id="edge3" class="edge">
<title>1-&gt;2</title>
<path fill="none" stroke="#7aab8a" d="M325.48,-514.04C345.58,-499.16 375.14,-477.28 397.67,-460.61"/>
<polygon fill="#7aab8a" stroke="#7aab8a" points="399.67,-463.48 405.62,-454.72 395.5,-457.86 399.67,-463.48"/>
<text text-anchor="start" x="369.77" y="-483.55" font-family="Times,serif" font-weight="bold" font-size="14.00">NEIN</text>
</g>
<!-- A02 -->
<g id="node5" class="node">
<title>A02</title>
<path fill="#cfb986" stroke="black" stroke-width="0" d="M316.89,-357.83C316.89,-357.83 108.66,-357.83 108.66,-357.83 102.66,-357.83 96.66,-351.83 96.66,-345.83 96.66,-345.83 96.66,-320.31 96.66,-320.31 96.66,-314.31 102.66,-308.31 108.66,-308.31 108.66,-308.31 316.89,-308.31 316.89,-308.31 322.89,-308.31 328.89,-314.31 328.89,-320.31 328.89,-320.31 328.89,-345.83 328.89,-345.83 328.89,-351.83 322.89,-357.83 316.89,-357.83"/>
<text text-anchor="start" x="108.9" y="-339.77" font-family="Times,serif" font-weight="bold" font-size="14.00">A02</text>
<text text-anchor="start" x="108.9" y="-327.67" font-family="Times,serif" text-decoration="underline" font-size="12.00">Hinweis:</text>
<text text-anchor="start" x="108.9" y="-315.67" font-family="Times,serif" font-size="12.00">Gew&#228;hlter Zeitraum nicht zul&#228;ssig</text>
</g>
<!-- 2&#45;&gt;A02 -->
<g id="edge4" class="edge">
<title>2-&gt;A02</title>
<path fill="none" stroke="#7aab8a" d="M393.45,-417.97C360.89,-402.85 312.46,-380.36 273.93,-362.47"/>
<polygon fill="#7aab8a" stroke="#7aab8a" points="275.77,-359.47 265.23,-358.43 272.82,-365.81 275.77,-359.47"/>
<text text-anchor="start" x="333.77" y="-380.78" font-family="Times,serif" font-weight="bold" font-size="14.00">NEIN</text>
</g>
<!-- 3 -->
<g id="node6" class="node">
<title>3</title>
<path fill="#7aab8a" stroke="black" stroke-width="0" d="M950.8,-355.71C950.8,-355.71 358.75,-355.71 358.75,-355.71 352.75,-355.71 346.75,-349.71 346.75,-343.71 346.75,-343.71 346.75,-322.43 346.75,-322.43 346.75,-316.43 352.75,-310.43 358.75,-310.43 358.75,-310.43 950.8,-310.43 950.8,-310.43 956.8,-310.43 962.8,-316.43 962.8,-322.43 962.8,-322.43 962.8,-343.71 962.8,-343.71 962.8,-349.71 956.8,-355.71 950.8,-355.71"/>
<text text-anchor="start" x="361.15" y="-334.77" font-family="Times,serif" font-weight="bold" font-size="14.00">3: </text>
<text text-anchor="start" x="380.65" y="-334.77" font-family="Times,serif" font-size="14.00">Wird die Frist von 2 WT vor dem erforderlichen Versand der Zeitreihe nach der</text>
<text text-anchor="start" x="361.15" y="-320.77" font-family="Times,serif" font-size="14.00">Aktivierung eingehalten?</text>
</g>
<!-- 2&#45;&gt;3 -->
<g id="edge5" class="edge">
<title>2-&gt;3</title>
<path fill="none" stroke="#7aab8a" d="M467.69,-417.86C502.83,-402.12 555.64,-378.47 596.2,-360.3"/>
<polygon fill="#7aab8a" stroke="#7aab8a" points="597.42,-363.59 605.11,-356.31 594.55,-357.21 597.42,-363.59"/>
<text text-anchor="start" x="554.77" y="-380.78" font-family="Times,serif" font-weight="bold" font-size="14.00">JA</text>
</g>
<!-- A03 -->
<g id="node7" class="node">
<title>A03</title>
<path fill="#cfb986" stroke="black" stroke-width="0" d="M543.26,-255.06C543.26,-255.06 418.28,-255.06 418.28,-255.06 412.28,-255.06 406.28,-249.06 406.28,-243.06 406.28,-243.06 406.28,-217.54 406.28,-217.54 406.28,-211.54 412.28,-205.54 418.28,-205.54 418.28,-205.54 543.26,-205.54 543.26,-205.54 549.26,-205.54 555.26,-211.54 555.26,-217.54 555.26,-217.54 555.26,-243.06 555.26,-243.06 555.26,-249.06 549.26,-255.06 543.26,-255.06"/>
<text text-anchor="start" x="418.52" y="-237" font-family="Times,serif" font-weight="bold" font-size="14.00">A03</text>
<text text-anchor="start" x="418.52" y="-224.9" font-family="Times,serif" text-decoration="underline" font-size="12.00">Hinweis:</text>
<text text-anchor="start" x="418.52" y="-212.9" font-family="Times,serif" font-size="12.00">Fristunterschreitung</text>
</g>
<!-- 3&#45;&gt;A03 -->
<g id="edge6" class="edge">
<title>3-&gt;A03</title>
<path fill="none" stroke="#7aab8a" d="M617.45,-310.45C592.37,-295.93 559.01,-276.61 531.52,-260.69"/>
<polygon fill="#7aab8a" stroke="#7aab8a" points="533.41,-257.74 523,-255.75 529.9,-263.79 533.41,-257.74"/>
<text text-anchor="start" x="577.77" y="-278.01" font-family="Times,serif" font-weight="bold" font-size="14.00">NEIN</text>
</g>
<!-- 4 -->
<g id="node8" class="node">
<title>4</title>
<path fill="#7aab8a" stroke="black" stroke-width="0" d="M1158.05,-252.94C1158.05,-252.94 585.5,-252.94 585.5,-252.94 579.5,-252.94 573.5,-246.94 573.5,-240.94 573.5,-240.94 573.5,-219.66 573.5,-219.66 573.5,-213.66 579.5,-207.66 585.5,-207.66 585.5,-207.66 1158.05,-207.66 1158.05,-207.66 1164.05,-207.66 1170.05,-213.66 1170.05,-219.66 1170.05,-219.66 1170.05,-240.94 1170.05,-240.94 1170.05,-246.94 1164.05,-252.94 1158.05,-252.94"/>
<text text-anchor="start" x="587.9" y="-232" font-family="Times,serif" font-weight="bold" font-size="14.00">4: </text>
<text text-anchor="start" x="607.4" y="-232" font-family="Times,serif" font-size="14.00">Liegt die Version der Zeitreihe des MaBiS-ZP f&#252;r diesen Bilanzierungsmonat</text>
<text text-anchor="start" x="587.9" y="-218" font-family="Times,serif" font-size="14.00">bereits vor?</text>
</g>
<!-- 3&#45;&gt;4 -->
<g id="edge7" class="edge">
<title>3-&gt;4</title>
<path fill="none" stroke="#7aab8a" d="M701.33,-310.45C734.65,-294.98 779.7,-274.06 815.11,-257.61"/>
<polygon fill="#7aab8a" stroke="#7aab8a" points="816.33,-260.91 823.93,-253.52 813.38,-254.56 816.33,-260.91"/>
<text text-anchor="start" x="775.77" y="-278.01" font-family="Times,serif" font-weight="bold" font-size="14.00">JA</text>
</g>
<!-- A04 -->
<g id="node9" class="node">
<title>A04</title>
<path fill="#cfb986" stroke="black" stroke-width="0" d="M647.64,-152.29C647.64,-152.29 479.91,-152.29 479.91,-152.29 473.91,-152.29 467.91,-146.29 467.91,-140.29 467.91,-140.29 467.91,-114.77 467.91,-114.77 467.91,-108.77 473.91,-102.77 479.91,-102.77 479.91,-102.77 647.64,-102.77 647.64,-102.77 653.64,-102.77 659.64,-108.77 659.64,-114.77 659.64,-114.77 659.64,-140.29 659.64,-140.29 659.64,-146.29 653.64,-152.29 647.64,-152.29"/>
<text text-anchor="start" x="480.15" y="-134.23" font-family="Times,serif" font-weight="bold" font-size="14.00">A04</text>
<text text-anchor="start" x="480.15" y="-122.13" font-family="Times,serif" text-decoration="underline" font-size="12.00">Hinweis:</text>
<text text-anchor="start" x="480.15" y="-110.13" font-family="Times,serif" font-size="12.00">Zeitreihe bereits vorhanden</text>
</g>
<!-- 4&#45;&gt;A04 -->
<g id="edge8" class="edge">
<title>4-&gt;A04</title>
<path fill="none" stroke="#7aab8a" d="M805.7,-207.68C759.26,-192.49 696.78,-172.05 646.95,-155.74"/>
<polygon fill="#7aab8a" stroke="#7aab8a" points="648.23,-152.48 637.64,-152.7 646.05,-159.13 648.23,-152.48"/>
<text text-anchor="start" x="735.77" y="-175.24" font-family="Times,serif" font-weight="bold" font-size="14.00">JA</text>
</g>
<!-- 5 -->
<g id="node10" class="node">
<title>5</title>
<path fill="#7aab8a" stroke="black" stroke-width="0" d="M1329.42,-150.17C1329.42,-150.17 690.12,-150.17 690.12,-150.17 684.12,-150.17 678.12,-144.17 678.12,-138.17 678.12,-138.17 678.12,-116.89 678.12,-116.89 678.12,-110.89 684.12,-104.89 690.12,-104.89 690.12,-104.89 1329.42,-104.89 1329.42,-104.89 1335.42,-104.89 1341.42,-110.89 1341.42,-116.89 1341.42,-116.89 1341.42,-138.17 1341.42,-138.17 1341.42,-144.17 1335.42,-150.17 1329.42,-150.17"/>
<text text-anchor="start" x="692.52" y="-129.23" font-family="Times,serif" font-weight="bold" font-size="14.00">5: </text>
<text text-anchor="start" x="712.02" y="-129.23" font-family="Times,serif" font-size="14.00">Ist die Version der Zeitreihe des MaBiS-ZP h&#246;her als die bisher h&#246;chste</text>
<text text-anchor="start" x="692.52" y="-115.23" font-family="Times,serif" font-size="14.00">verarbeitete Version der Zeitreihe f&#252;r diesen Bilanzierungsmonat und diesen MaBiS-ZP?</text>
</g>
<!-- 4&#45;&gt;5 -->
<g id="edge9" class="edge">
<title>4-&gt;5</title>
<path fill="none" stroke="#7aab8a" d="M901.38,-207.68C921.75,-192.81 949.02,-172.9 971.11,-156.77"/>
<polygon fill="#7aab8a" stroke="#7aab8a" points="972.99,-159.73 979,-151 968.86,-154.08 972.99,-159.73"/>
<text text-anchor="start" x="948.77" y="-175.24" font-family="Times,serif" font-weight="bold" font-size="14.00">NEIN</text>
</g>
<!-- A05 -->
<g id="node11" class="node">
<title>A05</title>
<path fill="#cfb986" stroke="black" stroke-width="0" d="M1014.89,-49.52C1014.89,-49.52 866.66,-49.52 866.66,-49.52 860.66,-49.52 854.66,-43.52 854.66,-37.52 854.66,-37.52 854.66,-12 854.66,-12 854.66,-6 860.66,0 866.66,0 866.66,0 1014.89,0 1014.89,0 1020.89,0 1026.89,-6 1026.89,-12 1026.89,-12 1026.89,-37.52 1026.89,-37.52 1026.89,-43.52 1020.89,-49.52 1014.89,-49.52"/>
<text text-anchor="start" x="866.9" y="-31.46" font-family="Times,serif" font-weight="bold" font-size="14.00">A05</text>
<text text-anchor="start" x="866.9" y="-19.36" font-family="Times,serif" text-decoration="underline" font-size="12.00">Hinweis:</text>
<text text-anchor="start" x="866.9" y="-7.36" font-family="Times,serif" font-size="12.00">Version nicht zugelassen</text>
</g>
<!-- 5&#45;&gt;A05 -->
<g id="edge10" class="edge">
<title>5-&gt;A05</title>
<path fill="none" stroke="#7aab8a" d="M995.14,-105.16C985.84,-91.57 973.61,-73.71 963.11,-58.38"/>
<polygon fill="#7aab8a" stroke="#7aab8a" points="966.23,-56.73 957.69,-50.46 960.45,-60.69 966.23,-56.73"/>
<text text-anchor="start" x="978.77" y="-72.47" font-family="Times,serif" font-weight="bold" font-size="14.00">NEIN</text>
</g>
<!-- Ende -->
<g id="node12" class="node">
<title>Ende</title>
<path fill="#7a8da1" stroke="black" stroke-width="0" d="M1098.55,-42.76C1098.55,-42.76 1057,-42.76 1057,-42.76 1051,-42.76 1045,-36.76 1045,-30.76 1045,-30.76 1045,-18.76 1045,-18.76 1045,-12.76 1051,-6.76 1057,-6.76 1057,-6.76 1098.55,-6.76 1098.55,-6.76 1104.55,-6.76 1110.55,-12.76 1110.55,-18.76 1110.55,-18.76 1110.55,-30.76 1110.55,-30.76 1110.55,-36.76 1104.55,-42.76 1098.55,-42.76"/>
<text text-anchor="middle" x="1077.78" y="-20.08" font-family="Times,serif" font-size="14.00">Ende</text>
</g>
<!-- 5&#45;&gt;Ende -->
<g id="edge11" class="edge">
<title>5-&gt;Ende</title>
<path fill="none" stroke="#7aab8a" d="M1024.2,-105.16C1034.76,-89.51 1049.14,-68.2 1060.34,-51.6"/>
<polygon fill="#7aab8a" stroke="#7aab8a" points="1062.98,-53.94 1065.67,-43.7 1057.18,-50.03 1062.98,-53.94"/>
<text text-anchor="start" x="1047.78" y="-72.47" font-family="Times,serif" font-weight="bold" font-size="14.00">JA</text>
</g>
</g>
</svg>
  </g>
</svg>
  </g>
</svg>
