<?xml version='1.0' encoding='ASCII' standalone='yes'?>
<svg xmlns="http://www.w3.org/2000/svg" xmlns:xlink="http://www.w3.org/1999/xlink" version="1.1" width="1920.0px" viewBox="0 0 1920.0 614.6666666666666" height="614.6666666666666px">
  <g>
    <svg version="1.1" width="1920.0px" viewBox="0 0 1920.0 614.6666666666666" height="614.6666666666666px">
  <polygon fill="#f3f1f6" points="0,0 1920.0,0 1920.0,614.6666666666666 0,614.6666666666666"/><g>
    <g transform="translate(714.3157087521323, 61.46666666666665) scale(1 1) translate(0, 0) scale(2.7799012087331563 2.7799012087331563) "><sodipodi:namedview xmlns:sodipodi="http://sodipodi.sourceforge.net/DTD/sodipodi-0.dtd" xmlns:inkscape="http://www.inkscape.org/namespaces/inkscape" id="namedview7" pagecolor="#ffffff" bordercolor="#999999" borderopacity="1" inkscape:pageshadow="0" inkscape:pageopacity="0" inkscape:pagecheckerboard="0" inkscape:document-units="mm" showgrid="false" fit-margin-top="0" fit-margin-left="0" fit-margin-right="0" fit-margin-bottom="0" inkscape:zoom="0.64052329" inkscape:cx="130.36216" inkscape:cy="412.163" inkscape:window-width="1512" inkscape:window-height="916" inkscape:window-x="3840" inkscape:window-y="136" inkscape:window-maximized="0" inkscape:current-layer="layer1"/>
  <defs id="defs2">
    <clipPath clipPathUnits="userSpaceOnUse" id="clipPath23">
      <path d="M 0,568.156 H 579.236 V 0 H 0 Z" id="path21"/>
    </clipPath>
  </defs>
  <g xmlns:inkscape="http://www.inkscape.org/namespaces/inkscape" inkscape:label="Layer 1" inkscape:groupmode="layer" id="layer1" transform="translate(-16.541937,-55.305267)">
    <g id="g19" clip-path="url(#clipPath23)" transform="matrix(0.35277777,0,0,-0.35277777,0.01017023,243.73675)" style="opacity:0.2">
      <g id="g25" transform="translate(122.444,32.7195)">
        <path d="m 0,0 h -56.104 c -11,0 -19.898,9.123 -19.463,20.115 10.594,267.191 231.277,481.302 501.029,481.302 v -56.02 c 0,-10.98 -8.688,-19.892 -19.658,-20.393 C 180.29,414.697 0,228.005 0,0" style="fill:#6ead83;fill-opacity:0.5;fill-rule:nonzero;stroke:none" id="path27"/>
      </g>
      <g id="g29" transform="translate(273.7828,32.7195)">
        <path d="m 0,0 h -55.926 c -11.228,0 -20.091,9.482 -19.435,20.69 10.744,183.439 163.389,329.388 349.485,329.388 v -56.263 c 0,-10.709 -8.273,-19.617 -18.957,-20.35 C 112.819,263.696 0,144.774 0,0" style="fill:#6ead83;fill-opacity:0.5;fill-rule:nonzero;stroke:none" id="path31"/>
      </g>
      <g id="g33" transform="translate(425.7667,32.7195)">
        <path d="m 0,0 h -55.445 c -11.653,0 -20.604,10.17 -19.334,21.753 10.866,99.032 95.031,176.341 196.919,176.341 v -57.011 c 0,-10.046 -7.283,-18.755 -17.229,-20.165 C 45.688,112.522 0,61.497 0,0" style="fill:#6ead83;fill-opacity:0.5;fill-rule:nonzero;stroke:none" id="path35"/>
      </g>
    </g>
  </g>
</g>
    <svg width="1440pt" height="461pt" viewBox="0.00 0.00 1440.00 461.38">
<g id="graph0" class="graph" transform="scale(0.744359 0.744359) rotate(0) translate(4 615.84)">
<title>D</title>
<text text-anchor="start" x="929.9" y="-591.74" font-family="Times,serif" font-weight="bold" font-size="18.00">MaBiS</text>
<text text-anchor="start" x="485.15" y="-561.64" font-family="Times,serif" font-weight="bold" font-size="16.00">7.44.2: AD: &#220;bermittlung Pr&#252;fmitteilung f&#252;r die Bilanzkreissummenzeitreihe vom BKV an BIKO und &#220;NB</text>
<!-- Start -->
<g id="node1" class="node">
<title>Start</title>
<polygon fill="#7a8da1" stroke="black" points="488.42,-513.84 314.12,-513.84 314.12,-470.56 488.42,-470.56 488.42,-513.84"/>
<text text-anchor="start" x="373.15" y="-492.9" font-family="Times,serif" font-weight="bold" font-size="14.00">E_0025</text>
<text text-anchor="start" x="328.52" y="-480.8" font-family="Times,serif" font-weight="bold" text-decoration="underline" font-size="12.00">Pr&#252;fende Rolle:</text>
<text text-anchor="start" x="433.52" y="-480.8" font-family="Times,serif" font-weight="bold" font-size="12.00"> BIKO</text>
</g>
<!-- 1 -->
<g id="node2" class="node">
<title>1</title>
<path fill="#7aab8a" stroke="black" d="M711.92,-433.56C711.92,-433.56 90.62,-433.56 90.62,-433.56 84.62,-433.56 78.62,-427.56 78.62,-421.56 78.62,-421.56 78.62,-409.56 78.62,-409.56 78.62,-403.56 84.62,-397.56 90.62,-397.56 90.62,-397.56 711.92,-397.56 711.92,-397.56 717.92,-397.56 723.92,-403.56 723.92,-409.56 723.92,-409.56 723.92,-421.56 723.92,-421.56 723.92,-427.56 717.92,-433.56 711.92,-433.56"/>
<text text-anchor="start" x="93.02" y="-411.88" font-family="Times,serif" font-weight="bold" font-size="14.00">1: </text>
<text text-anchor="start" x="112.52" y="-411.88" font-family="Times,serif" font-size="14.00">Erfolgt der Eingang der Pr&#252;fmitteilung nach Ablauf der Clearingfrist f&#252;r die KBKA?</text>
</g>
<!-- Start&#45;&gt;1 -->
<g id="edge1" class="edge">
<title>Start-&gt;1</title>
<path fill="none" stroke="black" d="M401.27,-470.41C401.27,-462.55 401.27,-453.47 401.27,-445.03"/>
<polygon fill="black" stroke="black" points="404.78,-445.23 401.28,-435.23 397.78,-445.23 404.78,-445.23"/>
</g>
<!-- A01 -->
<g id="node3" class="node">
<title>A01</title>
<polygon fill="#cfb986" stroke="black" points="320.51,-344.31 176.03,-344.31 176.03,-294.79 320.51,-294.79 320.51,-344.31"/>
<text text-anchor="start" x="233.27" y="-326.25" font-family="Times,serif" font-weight="bold" font-size="14.00">A01</text>
<text text-anchor="start" x="188.27" y="-314.15" font-family="Times,serif" text-decoration="underline" font-size="12.00">Hinweis:</text>
<text text-anchor="start" x="188.27" y="-302.15" font-family="Times,serif" font-size="12.00">Frist&#252;berschreitung</text>
</g>
<!-- 1&#45;&gt;A01 -->
<g id="edge2" class="edge">
<title>1-&gt;A01</title>
<path fill="none" stroke="black" d="M372.86,-397.1C351.65,-384.07 322.15,-365.94 297.18,-350.6"/>
<polygon fill="black" stroke="black" points="299.14,-347.7 288.79,-345.44 295.48,-353.66 299.14,-347.7"/>
<text text-anchor="middle" x="349.02" y="-366.26" font-family="Times,serif" font-size="14.00">Ja</text>
</g>
<!-- 2 -->
<g id="node4" class="node">
<title>2</title>
<path fill="#7aab8a" stroke="black" d="M802.17,-337.55C802.17,-337.55 350.37,-337.55 350.37,-337.55 344.37,-337.55 338.37,-331.55 338.37,-325.55 338.37,-325.55 338.37,-313.55 338.37,-313.55 338.37,-307.55 344.37,-301.55 350.37,-301.55 350.37,-301.55 802.17,-301.55 802.17,-301.55 808.17,-301.55 814.17,-307.55 814.17,-313.55 814.17,-313.55 814.17,-325.55 814.17,-325.55 814.17,-331.55 808.17,-337.55 802.17,-337.55"/>
<text text-anchor="start" x="352.77" y="-315.87" font-family="Times,serif" font-weight="bold" font-size="14.00">2: </text>
<text text-anchor="start" x="372.27" y="-315.87" font-family="Times,serif" font-size="14.00">Befindet sich der MaBiS-ZP auf der Aggregationsebene RZ?</text>
</g>
<!-- 1&#45;&gt;2 -->
<g id="edge3" class="edge">
<title>1-&gt;2</title>
<path fill="none" stroke="black" d="M433.78,-397.1C462.02,-381.93 503.11,-359.85 533.92,-343.3"/>
<polygon fill="black" stroke="black" points="535.46,-346.45 542.61,-338.63 532.14,-340.28 535.46,-346.45"/>
<text text-anchor="middle" x="510.15" y="-366.26" font-family="Times,serif" font-size="14.00">Nein</text>
</g>
<!-- 3 -->
<g id="node5" class="node">
<title>3</title>
<path fill="#7aab8a" stroke="black" d="M831.92,-241.54C831.92,-241.54 12.62,-241.54 12.62,-241.54 6.62,-241.54 0.62,-235.54 0.62,-229.54 0.62,-229.54 0.62,-217.54 0.62,-217.54 0.62,-211.54 6.62,-205.54 12.62,-205.54 12.62,-205.54 831.92,-205.54 831.92,-205.54 837.92,-205.54 843.92,-211.54 843.92,-217.54 843.92,-217.54 843.92,-229.54 843.92,-229.54 843.92,-235.54 837.92,-241.54 831.92,-241.54"/>
<text text-anchor="start" x="15.02" y="-219.86" font-family="Times,serif" font-weight="bold" font-size="14.00">3: </text>
<text text-anchor="start" x="34.52" y="-219.86" font-family="Times,serif" font-size="14.00">Hat der BKV f&#252;r den BK dieses MaBiS-ZP in diesem Bilanzierungsmonat die Aggregationsebene RZ abbestellt?</text>
</g>
<!-- 2&#45;&gt;3 -->
<g id="edge4" class="edge">
<title>2-&gt;3</title>
<path fill="none" stroke="black" d="M547.67,-301.09C523.03,-286.05 487.28,-264.23 460.25,-247.72"/>
<polygon fill="black" stroke="black" points="462.38,-244.92 452.02,-242.7 458.73,-250.9 462.38,-244.92"/>
<text text-anchor="middle" x="520.15" y="-263.49" font-family="Times,serif" font-size="14.00">Nein</text>
</g>
<!-- 5 -->
<g id="node9" class="node">
<title>5</title>
<path fill="#7aab8a" stroke="black" d="M1914.55,-241.54C1914.55,-241.54 874,-241.54 874,-241.54 868,-241.54 862,-235.54 862,-229.54 862,-229.54 862,-217.54 862,-217.54 862,-211.54 868,-205.54 874,-205.54 874,-205.54 1914.55,-205.54 1914.55,-205.54 1920.55,-205.54 1926.55,-211.54 1926.55,-217.54 1926.55,-217.54 1926.55,-229.54 1926.55,-229.54 1926.55,-235.54 1920.55,-241.54 1914.55,-241.54"/>
<text text-anchor="start" x="876.4" y="-219.86" font-family="Times,serif" font-weight="bold" font-size="14.00">5: </text>
<text text-anchor="start" x="895.9" y="-219.86" font-family="Times,serif" font-size="14.00">Hat der BKV dem BIKO f&#252;r diesen Bilanzierungsmonat bereits mitgeteilt, dass die weiteren Pr&#252;fungen auf Ebene des BG stattfinden m&#252;ssen?</text>
</g>
<!-- 2&#45;&gt;5 -->
<g id="edge5" class="edge">
<title>2-&gt;5</title>
<path fill="none" stroke="black" d="M728.22,-301.09C871.07,-284.67 1084.3,-260.16 1230.8,-243.33"/>
<polygon fill="black" stroke="black" points="1231.07,-246.82 1240.6,-242.2 1230.27,-239.87 1231.07,-246.82"/>
<text text-anchor="middle" x="1089.03" y="-263.49" font-family="Times,serif" font-size="14.00">Ja</text>
</g>
<!-- Ende -->
<g id="node6" class="node">
<title>Ende</title>
<polygon fill="#7a8da1" stroke="black" points="1011.05,-42.76 945.5,-42.76 945.5,-6.76 1011.05,-6.76 1011.05,-42.76"/>
<text text-anchor="middle" x="978.27" y="-20.08" font-family="Times,serif" font-size="14.00">Ende</text>
</g>
<!-- 3&#45;&gt;Ende -->
<g id="edge7" class="edge">
<title>3-&gt;Ende</title>
<path fill="none" stroke="black" d="M834.72,-205.04C936.83,-194.7 1029.55,-178.29 1073.28,-152.29 1090.73,-141.91 1140.8,-90.23 1125.28,-77.14"/>
<path fill="none" stroke="black" d="M1125.28,-75.14C1094.71,-52.76 1053.33,-40.07 1022.26,-33.17"/>
<polygon fill="black" stroke="black" points="1023.31,-29.81 1012.8,-31.19 1021.87,-36.66 1023.31,-29.81"/>
<text text-anchor="middle" x="1127.03" y="-122.86" font-family="Times,serif" font-size="14.00">Ja</text>
</g>
<!-- 4 -->
<g id="node7" class="node">
<title>4</title>
<path fill="#7aab8a" stroke="black" d="M1052.55,-145.53C1052.55,-145.53 12,-145.53 12,-145.53 6,-145.53 0,-139.53 0,-133.53 0,-133.53 0,-121.53 0,-121.53 0,-115.53 6,-109.53 12,-109.53 12,-109.53 1052.55,-109.53 1052.55,-109.53 1058.55,-109.53 1064.55,-115.53 1064.55,-121.53 1064.55,-121.53 1064.55,-133.53 1064.55,-133.53 1064.55,-139.53 1058.55,-145.53 1052.55,-145.53"/>
<text text-anchor="start" x="14.4" y="-123.86" font-family="Times,serif" font-weight="bold" font-size="14.00">4: </text>
<text text-anchor="start" x="33.9" y="-123.86" font-family="Times,serif" font-size="14.00">Hat der BKV dem BIKO f&#252;r diesen Bilanzierungsmonat bereits mitgeteilt, dass die weiteren Pr&#252;fungen auf Ebene des BG stattfinden m&#252;ssen?</text>
</g>
<!-- 3&#45;&gt;4 -->
<g id="edge6" class="edge">
<title>3-&gt;4</title>
<path fill="none" stroke="black" d="M442.71,-205.08C459.76,-190.5 484.28,-169.55 503.35,-153.25"/>
<polygon fill="black" stroke="black" points="505.47,-156.04 510.8,-146.88 500.93,-150.72 505.47,-156.04"/>
<text text-anchor="middle" x="497.15" y="-174.24" font-family="Times,serif" font-size="14.00">Nein</text>
</g>
<!-- 4&#45;&gt;Ende -->
<g id="edge9" class="edge">
<title>4-&gt;Ende</title>
<path fill="none" stroke="black" d="M609.71,-109.03C703.55,-87.83 858.46,-52.83 934.04,-35.75"/>
<polygon fill="black" stroke="black" points="934.58,-39.22 943.56,-33.6 933.03,-32.39 934.58,-39.22"/>
<text text-anchor="middle" x="788.02" y="-71.47" font-family="Times,serif" font-size="14.00">Ja</text>
</g>
<!-- A02 -->
<g id="node8" class="node">
<title>A02</title>
<polygon fill="#cfb986" stroke="black" points="638.64,-49.52 425.91,-49.52 425.91,0 638.64,0 638.64,-49.52"/>
<text text-anchor="start" x="517.27" y="-31.46" font-family="Times,serif" font-weight="bold" font-size="14.00">A02</text>
<text text-anchor="start" x="438.15" y="-19.36" font-family="Times,serif" text-decoration="underline" font-size="12.00">Hinweis:</text>
<text text-anchor="start" x="438.15" y="-7.36" font-family="Times,serif" font-size="12.00">Falsche Aggregationsebene BG</text>
</g>
<!-- 4&#45;&gt;A02 -->
<g id="edge8" class="edge">
<title>4-&gt;A02</title>
<path fill="none" stroke="black" d="M532.27,-109.44C532.27,-96.24 532.27,-77.53 532.27,-61.15"/>
<polygon fill="black" stroke="black" points="535.78,-61.26 532.28,-51.26 528.78,-61.26 535.78,-61.26"/>
<text text-anchor="middle" x="549.15" y="-71.47" font-family="Times,serif" font-size="14.00">Nein</text>
</g>
<!-- 5&#45;&gt;Ende -->
<g id="edge11" class="edge">
<title>5-&gt;Ende</title>
<path fill="none" stroke="black" d="M1327.83,-205.1C1265.2,-185.02 1173.9,-145.65 1125.28,-77.15"/>
<text text-anchor="middle" x="1224.15" y="-122.86" font-family="Times,serif" font-size="14.00">Nein</text>
</g>
<!-- A03 -->
<g id="node10" class="node">
<title>A03</title>
<polygon fill="#cfb986" stroke="black" points="1499.89,-152.29 1288.66,-152.29 1288.66,-102.77 1499.89,-102.77 1499.89,-152.29"/>
<text text-anchor="start" x="1379.28" y="-134.23" font-family="Times,serif" font-weight="bold" font-size="14.00">A03</text>
<text text-anchor="start" x="1300.9" y="-122.13" font-family="Times,serif" text-decoration="underline" font-size="12.00">Hinweis:</text>
<text text-anchor="start" x="1300.9" y="-110.13" font-family="Times,serif" font-size="12.00">Falsche Aggregationsebene RZ</text>
</g>
<!-- 5&#45;&gt;A03 -->
<g id="edge10" class="edge">
<title>5-&gt;A03</title>
<path fill="none" stroke="black" d="M1394.28,-205.3C1394.28,-193.78 1394.28,-178.23 1394.28,-164.12"/>
<polygon fill="black" stroke="black" points="1397.78,-164.26 1394.28,-154.26 1390.78,-164.26 1397.78,-164.26"/>
<text text-anchor="middle" x="1401.03" y="-174.24" font-family="Times,serif" font-size="14.00">Ja</text>
</g>
</g>
</svg>
  </g>
</svg>
  </g>
</svg>
