<?xml version='1.0' encoding='ASCII' standalone='yes'?>
<svg xmlns="http://www.w3.org/2000/svg" xmlns:xlink="http://www.w3.org/1999/xlink" version="1.1" width="1909.3333333333333px" viewBox="0 0 1909.3333333333333 1220.0" height="1220.0px">
  <g>
    <svg version="1.1" width="1909.3333333333333px" viewBox="0 0 1909.3333333333333 1220.0" height="1220.0px">
  <polygon fill="#f3f1f6" points="0,0 1909.3333333333333,0 1909.3333333333333,1220.0 0,1220.0"/><g>
    <g transform="translate(467.0286482462784, 121.99999999999997) scale(1 1) translate(0, 0) scale(5.517591336205722 5.517591336205722) "><sodipodi:namedview xmlns:sodipodi="http://sodipodi.sourceforge.net/DTD/sodipodi-0.dtd" xmlns:inkscape="http://www.inkscape.org/namespaces/inkscape" id="namedview7" pagecolor="#ffffff" bordercolor="#999999" borderopacity="1" inkscape:pageshadow="0" inkscape:pageopacity="0" inkscape:pagecheckerboard="0" inkscape:document-units="mm" showgrid="false" fit-margin-top="0" fit-margin-left="0" fit-margin-right="0" fit-margin-bottom="0" inkscape:zoom="0.64052329" inkscape:cx="130.36216" inkscape:cy="412.163" inkscape:window-width="1512" inkscape:window-height="916" inkscape:window-x="3840" inkscape:window-y="136" inkscape:window-maximized="0" inkscape:current-layer="layer1"/>
  <defs id="defs2">
    <clipPath clipPathUnits="userSpaceOnUse" id="clipPath23">
      <path d="M 0,568.156 H 579.236 V 0 H 0 Z" id="path21"/>
    </clipPath>
  </defs>
  <g xmlns:inkscape="http://www.inkscape.org/namespaces/inkscape" inkscape:label="Layer 1" inkscape:groupmode="layer" id="layer1" transform="translate(-16.541937,-55.305267)">
    <g id="g19" clip-path="url(#clipPath23)" transform="matrix(0.35277777,0,0,-0.35277777,0.01017023,243.73675)" style="opacity:0.2">
      <g id="g25" transform="translate(122.444,32.7195)">
        <path d="m 0,0 h -56.104 c -11,0 -19.898,9.123 -19.463,20.115 10.594,267.191 231.277,481.302 501.029,481.302 v -56.02 c 0,-10.98 -8.688,-19.892 -19.658,-20.393 C 180.29,414.697 0,228.005 0,0" style="fill:#6ead83;fill-opacity:0.5;fill-rule:nonzero;stroke:none" id="path27"/>
      </g>
      <g id="g29" transform="translate(273.7828,32.7195)">
        <path d="m 0,0 h -55.926 c -11.228,0 -20.091,9.482 -19.435,20.69 10.744,183.439 163.389,329.388 349.485,329.388 v -56.263 c 0,-10.709 -8.273,-19.617 -18.957,-20.35 C 112.819,263.696 0,144.774 0,0" style="fill:#6ead83;fill-opacity:0.5;fill-rule:nonzero;stroke:none" id="path31"/>
      </g>
      <g id="g33" transform="translate(425.7667,32.7195)">
        <path d="m 0,0 h -55.445 c -11.653,0 -20.604,10.17 -19.334,21.753 10.866,99.032 95.031,176.341 196.919,176.341 v -57.011 c 0,-10.046 -7.283,-18.755 -17.229,-20.165 C 45.688,112.522 0,61.497 0,0" style="fill:#6ead83;fill-opacity:0.5;fill-rule:nonzero;stroke:none" id="path35"/>
      </g>
    </g>
  </g>
</g>
    <svg width="1432pt" height="915pt" viewBox="0.00 0.00 1431.80 914.63">
<g id="graph0" class="graph" transform="scale(1 1) rotate(0) translate(4 910.63)">
<title>D</title>
<text text-anchor="start" x="678.53" y="-886.53" font-family="Times,serif" font-weight="bold" font-size="18.00">MaBiS</text>
<text text-anchor="start" x="318.9" y="-856.43" font-family="Times,serif" font-weight="bold" font-size="16.00">7.43.1: AD: &#220;bermittlung der Bilanzkreissummenzeitreihe vom &#220;NB an BIKO und BKV</text>
<!-- Start -->
<g id="node1" class="node">
<title>Start</title>
<polygon fill="#7a8da1" stroke="black" points="444.17,-808.63 269.88,-808.63 269.88,-765.35 444.17,-765.35 444.17,-808.63"/>
<text text-anchor="start" x="328.9" y="-787.69" font-family="Times,serif" font-weight="bold" font-size="14.00">E_0023</text>
<text text-anchor="start" x="284.27" y="-775.59" font-family="Times,serif" font-weight="bold" text-decoration="underline" font-size="12.00">Pr&#252;fende Rolle:</text>
<text text-anchor="start" x="389.27" y="-775.59" font-family="Times,serif" font-weight="bold" font-size="12.00"> BIKO</text>
</g>
<!-- 1 -->
<g id="node2" class="node">
<title>1</title>
<path fill="#7aab8a" stroke="black" d="M647.8,-728.35C647.8,-728.35 66.25,-728.35 66.25,-728.35 60.25,-728.35 54.25,-722.35 54.25,-716.35 54.25,-716.35 54.25,-704.35 54.25,-704.35 54.25,-698.35 60.25,-692.35 66.25,-692.35 66.25,-692.35 647.8,-692.35 647.8,-692.35 653.8,-692.35 659.8,-698.35 659.8,-704.35 659.8,-704.35 659.8,-716.35 659.8,-716.35 659.8,-722.35 653.8,-728.35 647.8,-728.35"/>
<text text-anchor="start" x="68.65" y="-706.67" font-family="Times,serif" font-weight="bold" font-size="14.00">1: </text>
<text text-anchor="start" x="88.15" y="-706.67" font-family="Times,serif" font-size="14.00">Erfolgt der Eingang der Zeitreihe nach Ablauf der Clearingfrist f&#252;r die KBKA?</text>
</g>
<!-- Start&#45;&gt;1 -->
<g id="edge1" class="edge">
<title>Start-&gt;1</title>
<path fill="none" stroke="black" d="M357.02,-765.2C357.02,-757.34 357.02,-748.26 357.02,-739.82"/>
<polygon fill="black" stroke="black" points="360.53,-740.02 357.03,-730.02 353.53,-740.02 360.53,-740.02"/>
</g>
<!-- A01 -->
<g id="node3" class="node">
<title>A01</title>
<polygon fill="#cfb986" stroke="black" points="263.26,-639.1 118.78,-639.1 118.78,-589.58 263.26,-589.58 263.26,-639.1"/>
<text text-anchor="start" x="176.02" y="-621.04" font-family="Times,serif" font-weight="bold" font-size="14.00">A01</text>
<text text-anchor="start" x="131.02" y="-608.94" font-family="Times,serif" text-decoration="underline" font-size="12.00">Hinweis:</text>
<text text-anchor="start" x="131.02" y="-596.94" font-family="Times,serif" font-size="12.00">Frist&#252;berschreitung</text>
</g>
<!-- 1&#45;&gt;A01 -->
<g id="edge2" class="edge">
<title>1-&gt;A01</title>
<path fill="none" stroke="black" d="M326.19,-691.89C302.98,-678.74 270.6,-660.41 243.36,-644.98"/>
<polygon fill="black" stroke="black" points="245.33,-642.07 234.9,-640.19 241.88,-648.16 245.33,-642.07"/>
<text text-anchor="middle" x="299.77" y="-661.05" font-family="Times,serif" font-size="14.00">Ja</text>
</g>
<!-- 2 -->
<g id="node4" class="node">
<title>2</title>
<path fill="#7aab8a" stroke="black" d="M766.8,-632.34C766.8,-632.34 293.25,-632.34 293.25,-632.34 287.25,-632.34 281.25,-626.34 281.25,-620.34 281.25,-620.34 281.25,-608.34 281.25,-608.34 281.25,-602.34 287.25,-596.34 293.25,-596.34 293.25,-596.34 766.8,-596.34 766.8,-596.34 772.8,-596.34 778.8,-602.34 778.8,-608.34 778.8,-608.34 778.8,-620.34 778.8,-620.34 778.8,-626.34 772.8,-632.34 766.8,-632.34"/>
<text text-anchor="start" x="295.65" y="-610.66" font-family="Times,serif" font-weight="bold" font-size="14.00">2: </text>
<text text-anchor="start" x="315.15" y="-610.66" font-family="Times,serif" font-size="14.00">Ist der MaBiS-ZP zum betrachteten Bilanzierungsmonat aktiv?</text>
</g>
<!-- 1&#45;&gt;2 -->
<g id="edge3" class="edge">
<title>1-&gt;2</title>
<path fill="none" stroke="black" d="M389.16,-691.89C417.08,-676.72 457.7,-654.64 488.16,-638.09"/>
<polygon fill="black" stroke="black" points="489.62,-641.28 496.73,-633.43 486.28,-635.13 489.62,-641.28"/>
<text text-anchor="middle" x="464.9" y="-661.05" font-family="Times,serif" font-size="14.00">Nein</text>
</g>
<!-- A02 -->
<g id="node5" class="node">
<title>A02</title>
<polygon fill="#cfb986" stroke="black" points="408.14,-536.33 175.91,-536.33 175.91,-486.81 408.14,-486.81 408.14,-536.33"/>
<text text-anchor="start" x="277.02" y="-518.27" font-family="Times,serif" font-weight="bold" font-size="14.00">A02</text>
<text text-anchor="start" x="188.15" y="-506.17" font-family="Times,serif" text-decoration="underline" font-size="12.00">Hinweis:</text>
<text text-anchor="start" x="188.15" y="-494.17" font-family="Times,serif" font-size="12.00">Gew&#228;hlter Zeitraum nicht zul&#228;ssig</text>
</g>
<!-- 2&#45;&gt;A02 -->
<g id="edge4" class="edge">
<title>2-&gt;A02</title>
<path fill="none" stroke="black" d="M488.84,-595.9C453.27,-580.84 401.19,-558.79 359.53,-541.15"/>
<polygon fill="black" stroke="black" points="361.15,-538.04 350.58,-537.36 358.42,-544.48 361.15,-538.04"/>
<text text-anchor="middle" x="441.9" y="-558.28" font-family="Times,serif" font-size="14.00">Nein</text>
</g>
<!-- 3 -->
<g id="node6" class="node">
<title>3</title>
<path fill="#7aab8a" stroke="black" d="M1213.92,-529.57C1213.92,-529.57 438.12,-529.57 438.12,-529.57 432.12,-529.57 426.12,-523.57 426.12,-517.57 426.12,-517.57 426.12,-505.57 426.12,-505.57 426.12,-499.57 432.12,-493.57 438.12,-493.57 438.12,-493.57 1213.92,-493.57 1213.92,-493.57 1219.92,-493.57 1225.92,-499.57 1225.92,-505.57 1225.92,-505.57 1225.92,-517.57 1225.92,-517.57 1225.92,-523.57 1219.92,-529.57 1213.92,-529.57"/>
<text text-anchor="start" x="440.52" y="-507.89" font-family="Times,serif" font-weight="bold" font-size="14.00">3: </text>
<text text-anchor="start" x="460.02" y="-507.89" font-family="Times,serif" font-size="14.00">Wird die Frist von 2 WT vor dem erforderlichen Versand der Zeitreihe nach der Aktivierung eingehalten?</text>
</g>
<!-- 2&#45;&gt;3 -->
<g id="edge5" class="edge">
<title>2-&gt;3</title>
<path fill="none" stroke="black" d="M581.25,-595.9C632.02,-578.62 709.86,-552.12 764.08,-533.66"/>
<polygon fill="black" stroke="black" points="765.16,-536.99 773.5,-530.45 762.91,-530.36 765.16,-536.99"/>
<text text-anchor="middle" x="701.77" y="-558.28" font-family="Times,serif" font-size="14.00">Ja</text>
</g>
<!-- A03 -->
<g id="node7" class="node">
<title>A03</title>
<polygon fill="#cfb986" stroke="black" points="574.51,-433.56 425.53,-433.56 425.53,-384.04 574.51,-384.04 574.51,-433.56"/>
<text text-anchor="start" x="485.02" y="-415.5" font-family="Times,serif" font-weight="bold" font-size="14.00">A03</text>
<text text-anchor="start" x="437.77" y="-403.4" font-family="Times,serif" text-decoration="underline" font-size="12.00">Hinweis:</text>
<text text-anchor="start" x="437.77" y="-391.4" font-family="Times,serif" font-size="12.00">Fristunterschreitung</text>
</g>
<!-- 3&#45;&gt;A03 -->
<g id="edge6" class="edge">
<title>3-&gt;A03</title>
<path fill="none" stroke="black" d="M769.61,-493.13C718.92,-477.46 643.73,-454.22 585.62,-436.26"/>
<polygon fill="black" stroke="black" points="587.02,-433.03 576.43,-433.42 584.95,-439.71 587.02,-433.03"/>
<text text-anchor="middle" x="698.9" y="-455.51" font-family="Times,serif" font-size="14.00">Nein</text>
</g>
<!-- 4 -->
<g id="node8" class="node">
<title>4</title>
<path fill="#7aab8a" stroke="black" d="M1267.3,-426.8C1267.3,-426.8 604.75,-426.8 604.75,-426.8 598.75,-426.8 592.75,-420.8 592.75,-414.8 592.75,-414.8 592.75,-402.8 592.75,-402.8 592.75,-396.8 598.75,-390.8 604.75,-390.8 604.75,-390.8 1267.3,-390.8 1267.3,-390.8 1273.3,-390.8 1279.3,-396.8 1279.3,-402.8 1279.3,-402.8 1279.3,-414.8 1279.3,-414.8 1279.3,-420.8 1273.3,-426.8 1267.3,-426.8"/>
<text text-anchor="start" x="607.15" y="-405.12" font-family="Times,serif" font-weight="bold" font-size="14.00">4: </text>
<text text-anchor="start" x="626.65" y="-405.12" font-family="Times,serif" font-size="14.00">Liegt die Version der Zeitreihe des MaBiS-ZP f&#252;r diesen Bilanzierungsmonat bereits vor?</text>
</g>
<!-- 3&#45;&gt;4 -->
<g id="edge7" class="edge">
<title>3-&gt;4</title>
<path fill="none" stroke="black" d="M844.69,-493.48C862.31,-477.33 888.93,-452.94 908.9,-434.65"/>
<polygon fill="black" stroke="black" points="911.15,-437.34 916.16,-428 906.42,-432.17 911.15,-437.34"/>
<text text-anchor="middle" x="893.77" y="-455.51" font-family="Times,serif" font-size="14.00">Ja</text>
</g>
<!-- A04 -->
<g id="node9" class="node">
<title>A04</title>
<polygon fill="#cfb986" stroke="black" points="517.89,-330.79 326.16,-330.79 326.16,-281.27 517.89,-281.27 517.89,-330.79"/>
<text text-anchor="start" x="407.02" y="-312.73" font-family="Times,serif" font-weight="bold" font-size="14.00">A04</text>
<text text-anchor="start" x="338.4" y="-300.63" font-family="Times,serif" text-decoration="underline" font-size="12.00">Hinweis:</text>
<text text-anchor="start" x="338.4" y="-288.63" font-family="Times,serif" font-size="12.00">Zeitreihe bereits vorhanden</text>
</g>
<!-- 4&#45;&gt;A04 -->
<g id="edge8" class="edge">
<title>4-&gt;A04</title>
<path fill="none" stroke="black" d="M837.9,-390.36C757.6,-375.85 640.8,-354.19 529.25,-331.22"/>
<polygon fill="black" stroke="black" points="530.11,-327.83 519.61,-329.23 528.69,-334.68 530.11,-327.83"/>
<text text-anchor="middle" x="701.77" y="-352.74" font-family="Times,serif" font-size="14.00">Ja</text>
</g>
<!-- 5 -->
<g id="node10" class="node">
<title>5</title>
<path fill="#7aab8a" stroke="black" d="M1367.67,-324.03C1367.67,-324.03 548.38,-324.03 548.38,-324.03 542.38,-324.03 536.38,-318.03 536.38,-312.03 536.38,-312.03 536.38,-300.03 536.38,-300.03 536.38,-294.03 542.38,-288.03 548.38,-288.03 548.38,-288.03 1367.67,-288.03 1367.67,-288.03 1373.67,-288.03 1379.67,-294.03 1379.67,-300.03 1379.67,-300.03 1379.67,-312.03 1379.67,-312.03 1379.67,-318.03 1373.67,-324.03 1367.67,-324.03"/>
<text text-anchor="start" x="550.77" y="-302.35" font-family="Times,serif" font-weight="bold" font-size="14.00">5: </text>
<text text-anchor="start" x="570.27" y="-302.35" font-family="Times,serif" font-size="14.00">Hat der BKV f&#252;r den BK dieses MaBiS-ZP in diesem Bilanzierungsmonat die Aggregationsebene RZ abbestellt?</text>
</g>
<!-- 4&#45;&gt;5 -->
<g id="edge9" class="edge">
<title>4-&gt;5</title>
<path fill="none" stroke="black" d="M939.76,-390.71C943.06,-375.58 947.94,-353.2 951.83,-335.39"/>
<polygon fill="black" stroke="black" points="955.24,-336.2 953.95,-325.69 948.4,-334.71 955.24,-336.2"/>
<text text-anchor="middle" x="964.9" y="-352.74" font-family="Times,serif" font-size="14.00">Nein</text>
</g>
<!-- 6 -->
<g id="node11" class="node">
<title>6</title>
<path fill="#7aab8a" stroke="black" d="M976.05,-228.02C976.05,-228.02 12,-228.02 12,-228.02 6,-228.02 0,-222.02 0,-216.02 0,-216.02 0,-204.02 0,-204.02 0,-198.02 6,-192.02 12,-192.02 12,-192.02 976.05,-192.02 976.05,-192.02 982.05,-192.02 988.05,-198.02 988.05,-204.02 988.05,-204.02 988.05,-216.02 988.05,-216.02 988.05,-222.02 982.05,-228.02 976.05,-228.02"/>
<text text-anchor="start" x="14.4" y="-206.34" font-family="Times,serif" font-weight="bold" font-size="14.00">6: </text>
<text text-anchor="start" x="33.9" y="-206.34" font-family="Times,serif" font-size="14.00">Hat der BKV f&#252;r diesen Bilanzierungsmonat bereits mitgeteilt, dass die weiteren Pr&#252;fungen auf Ebene des BG stattfinden m&#252;ssen?</text>
</g>
<!-- 5&#45;&gt;6 -->
<g id="edge11" class="edge">
<title>5-&gt;6</title>
<path fill="none" stroke="black" d="M871.84,-287.57C792.28,-271.45 674.26,-247.54 591.35,-230.74"/>
<polygon fill="black" stroke="black" points="592.12,-227.32 581.63,-228.77 590.73,-234.18 592.12,-227.32"/>
<text text-anchor="middle" x="755.9" y="-249.97" font-family="Times,serif" font-size="14.00">Nein</text>
</g>
<!-- 7 -->
<g id="node13" class="node">
<title>7</title>
<path fill="#7aab8a" stroke="black" d="M1411.8,-138.77C1411.8,-138.77 236.25,-138.77 236.25,-138.77 230.25,-138.77 224.25,-132.77 224.25,-126.77 224.25,-126.77 224.25,-114.77 224.25,-114.77 224.25,-108.77 230.25,-102.77 236.25,-102.77 236.25,-102.77 1411.8,-102.77 1411.8,-102.77 1417.8,-102.77 1423.8,-108.77 1423.8,-114.77 1423.8,-114.77 1423.8,-126.77 1423.8,-126.77 1423.8,-132.77 1417.8,-138.77 1411.8,-138.77"/>
<text text-anchor="start" x="238.65" y="-117.09" font-family="Times,serif" font-weight="bold" font-size="14.00">7: </text>
<text text-anchor="start" x="258.15" y="-117.09" font-family="Times,serif" font-size="14.00">Ist die Version der Zeitreihe des MaBiS-ZP h&#246;her als die bisher h&#246;chste verarbeitete Version der Zeitreihe f&#252;r diesen Bilanzierungsmonat und diesen MaBiS-ZP?</text>
</g>
<!-- 5&#45;&gt;7 -->
<g id="edge10" class="edge">
<title>5-&gt;7</title>
<path fill="none" stroke="black" d="M973.05,-287.7C991.34,-264.37 1017.43,-222.32 997.02,-192.02 981.59,-169.09 957.25,-153.65 931.65,-143.24"/>
<polygon fill="black" stroke="black" points="933.02,-140.02 922.43,-139.76 930.54,-146.57 933.02,-140.02"/>
<text text-anchor="middle" x="1010.77" y="-205.34" font-family="Times,serif" font-size="14.00">Ja</text>
</g>
<!-- Ende -->
<g id="node12" class="node">
<title>Ende</title>
<polygon fill="#7a8da1" stroke="black" points="462.8,-42.76 397.25,-42.76 397.25,-6.76 462.8,-6.76 462.8,-42.76"/>
<text text-anchor="middle" x="430.02" y="-20.08" font-family="Times,serif" font-size="14.00">Ende</text>
</g>
<!-- 6&#45;&gt;Ende -->
<g id="edge13" class="edge">
<title>6-&gt;Ende</title>
<path fill="none" stroke="black" d="M333.82,-191.58C267.55,-180.76 201.44,-163.97 181.27,-138.77 123.26,-66.28 299.41,-38.57 385.54,-29.55"/>
<polygon fill="black" stroke="black" points="385.7,-33.05 395.31,-28.57 385.01,-26.08 385.7,-33.05"/>
<text text-anchor="middle" x="197.9" y="-116.09" font-family="Times,serif" font-size="14.00">Nein</text>
</g>
<!-- 6&#45;&gt;7 -->
<g id="edge12" class="edge">
<title>6-&gt;7</title>
<path fill="none" stroke="black" d="M560.01,-191.57C613.88,-177.33 690.1,-157.18 746.8,-142.19"/>
<polygon fill="black" stroke="black" points="747.63,-145.59 756.41,-139.65 745.84,-138.82 747.63,-145.59"/>
<text text-anchor="middle" x="694.77" y="-160.72" font-family="Times,serif" font-size="14.00">Ja</text>
</g>
<!-- 7&#45;&gt;Ende -->
<g id="edge15" class="edge">
<title>7-&gt;Ende</title>
<path fill="none" stroke="black" d="M750.84,-102.31C669.64,-82.93 541.23,-52.29 474.15,-36.29"/>
<polygon fill="black" stroke="black" points="475.15,-32.93 464.61,-34.01 473.53,-39.74 475.15,-32.93"/>
<text text-anchor="middle" x="679.77" y="-71.47" font-family="Times,serif" font-size="14.00">Ja</text>
</g>
<!-- A05 -->
<g id="node14" class="node">
<title>A05</title>
<polygon fill="#cfb986" stroke="black" points="910.14,-49.52 737.91,-49.52 737.91,0 910.14,0 910.14,-49.52"/>
<text text-anchor="start" x="809.02" y="-31.46" font-family="Times,serif" font-weight="bold" font-size="14.00">A05</text>
<text text-anchor="start" x="750.15" y="-19.36" font-family="Times,serif" text-decoration="underline" font-size="12.00">Hinweis:</text>
<text text-anchor="start" x="750.15" y="-7.36" font-family="Times,serif" font-size="12.00">Version nicht zugelassen</text>
</g>
<!-- 7&#45;&gt;A05 -->
<g id="edge14" class="edge">
<title>7-&gt;A05</title>
<path fill="none" stroke="black" d="M824.02,-102.53C824.02,-91.01 824.02,-75.46 824.02,-61.35"/>
<polygon fill="black" stroke="black" points="827.53,-61.49 824.03,-51.49 820.53,-61.49 827.53,-61.49"/>
<text text-anchor="middle" x="840.9" y="-71.47" font-family="Times,serif" font-size="14.00">Nein</text>
</g>
</g>
</svg>
  </g>
</svg>
  </g>
</svg>
