<?xml version='1.0' encoding='ASCII' standalone='yes'?>
<svg xmlns="http://www.w3.org/2000/svg" xmlns:xlink="http://www.w3.org/1999/xlink" version="1.1" width="1477.3333333333333px" viewBox="0 0 1477.3333333333333 465.3333333333333" height="465.3333333333333px">
  <g>
    <svg version="1.1" width="1477.3333333333333px" viewBox="0 0 1477.3333333333333 465.3333333333333" height="465.3333333333333px">
  <polygon fill="#c2cee9" points="0,0 1477.3333333333333,0 1477.3333333333333,465.3333333333333 0,465.3333333333333"/><g>
    <g transform="translate(548.9034450389561, 46.533333333333324) scale(1 1) translate(0, 0) scale(0.6552144935698865 0.6552144935698865) "><!-- note that I manually added the width and height attribute to the root node
  https://chatgpt.com/share/678e3028-70cc-800b-a296-782714735772
  -->
  <defs>
    <style>.cls-1{fill:#fff;}</style>
  </defs>
  <path class="cls-1" d="M122.44,531.2h-56.1c-11,0-19.9-9.12-19.46-20.11C57.47,243.89,278.15,29.78,547.91,29.78v56.02c0,10.98-8.69,19.89-19.66,20.39-225.51,10.31-405.8,197-405.8,425Z"/>
  <path class="cls-1" d="M273.78,531.2h-55.93c-11.23,0-20.09-9.48-19.43-20.69,10.74-183.44,163.39-329.39,349.48-329.39v56.26c0,10.71-8.27,19.62-18.96,20.35-142.35,9.77-255.17,128.69-255.17,273.46Z"/>
  <path class="cls-1" d="M425.77,531.2h-55.45c-11.65,0-20.6-10.17-19.33-21.75,10.87-99.03,95.03-176.34,196.92-176.34v57.01c0,10.05-7.28,18.75-17.23,20.16-59.22,8.4-104.91,59.42-104.91,120.92Z"/>
</g>
    <svg width="1108pt" height="349pt" viewBox="0.00 0.00 1107.75 349.05">
<g id="graph0" class="graph" transform="scale(1 1) rotate(0) translate(4 345.05)">
<title>D</title>
<text text-anchor="start" x="8" y="-320.95" font-family="Roboto, sans-serif" font-weight="bold" font-size="18.00">MaBiS</text>
<text text-anchor="start" x="8" y="-290.85" font-family="Roboto, sans-serif" font-weight="bold" font-size="16.00">7.64.1: AD: &#220;bermittlung Datenstatus f&#252;r die monatliche Ausfallarbeits&#252;berf&#252;hrungszeitreihe (AA&#220;Z) an NB und BKV(LF)</text>
<!-- Start -->
<g id="node1" class="node">
<title>Start</title>
<path fill="#7a8da1" stroke="black" stroke-width="0" d="M614.15,-243.05C614.15,-243.05 468.35,-243.05 468.35,-243.05 462.35,-243.05 456.35,-237.05 456.35,-231.05 456.35,-231.05 456.35,-211.77 456.35,-211.77 456.35,-205.77 462.35,-199.77 468.35,-199.77 468.35,-199.77 614.15,-199.77 614.15,-199.77 620.15,-199.77 626.15,-205.77 626.15,-211.77 626.15,-211.77 626.15,-231.05 626.15,-231.05 626.15,-237.05 620.15,-243.05 614.15,-243.05"/>
<text text-anchor="start" x="513.5" y="-222.11" font-family="Roboto, sans-serif" font-weight="bold" font-size="14.00">E_0075</text>
<text text-anchor="start" x="470.75" y="-210.01" font-family="Roboto, sans-serif" font-weight="bold" text-decoration="underline" font-size="12.00">Pr&#252;fende Rolle:</text>
<text text-anchor="start" x="574.25" y="-210.01" font-family="Roboto, sans-serif" font-weight="bold" font-size="12.00"> BIKO</text>
</g>
<!-- 1 -->
<g id="node2" class="node">
<title>1</title>
<path fill="#7aab8a" stroke="black" stroke-width="0" d="M665.9,-162.77C665.9,-162.77 416.6,-162.77 416.6,-162.77 410.6,-162.77 404.6,-156.77 404.6,-150.77 404.6,-150.77 404.6,-138.77 404.6,-138.77 404.6,-132.77 410.6,-126.77 416.6,-126.77 416.6,-126.77 665.9,-126.77 665.9,-126.77 671.9,-126.77 677.9,-132.77 677.9,-138.77 677.9,-138.77 677.9,-150.77 677.9,-150.77 677.9,-156.77 671.9,-162.77 665.9,-162.77"/>
<text text-anchor="start" x="419" y="-141.09" font-family="Roboto, sans-serif" font-weight="bold" font-size="14.00">1: </text>
<text text-anchor="start" x="438.5" y="-141.09" font-family="Roboto, sans-serif" font-size="14.00">Ist die BKA (ohne KBKA) erfolgt?</text>
</g>
<!-- Start&#45;&gt;1 -->
<g id="edge1" class="edge">
<title>Start-&gt;1</title>
<path fill="none" stroke="black" d="M541.25,-200.01C541.25,-191.94 541.25,-182.53 541.25,-173.84"/>
<polygon fill="black" stroke="black" points="544.75,-174.13 541.25,-164.13 537.75,-174.13 544.75,-174.13"/>
</g>
<!-- A03 -->
<g id="node3" class="node">
<title>A03</title>
<path fill="#cfb986" stroke="black" stroke-width="0" d="M511.49,-67.52C511.49,-67.52 43.01,-67.52 43.01,-67.52 37.01,-67.52 31.01,-61.52 31.01,-55.52 31.01,-55.52 31.01,-18 31.01,-18 31.01,-12 37.01,-6 43.01,-6 43.01,-6 511.49,-6 511.49,-6 517.49,-6 523.49,-12 523.49,-18 523.49,-18 523.49,-55.52 523.49,-55.52 523.49,-61.52 517.49,-67.52 511.49,-67.52"/>
<text text-anchor="start" x="43.25" y="-49.46" font-family="Roboto, sans-serif" font-weight="bold" font-size="14.00">A03</text>
<text text-anchor="start" x="43.25" y="-37.36" font-family="Roboto, sans-serif" text-decoration="underline" font-size="12.00">Hinweis:</text>
<text text-anchor="start" x="43.25" y="-25.36" font-family="Roboto, sans-serif" font-size="12.00">Datenstatus &#8222;Abgerechnete Daten&#8220; f&#252;r die h&#246;chste Version der AA&#220;Z mit dem</text>
<text text-anchor="start" x="43.25" y="-13.36" font-family="Roboto, sans-serif" font-size="12.00">Datenstatus &#8222;Abrechnungsdaten&#8220; in diesem Bilanzierungsmonat.</text>
</g>
<!-- 1&#45;&gt;A03 -->
<g id="edge2" class="edge">
<title>1-&gt;A03</title>
<path fill="none" stroke="#7aab8a" d="M499.13,-126.86C462.26,-112.05 407.57,-90.09 361.72,-71.68"/>
<polygon fill="#7aab8a" stroke="#7aab8a" points="363.16,-68.49 352.58,-68.01 360.55,-74.98 363.16,-68.49"/>
<text text-anchor="start" x="448.25" y="-96.47" font-family="Roboto, sans-serif" font-weight="bold" font-size="14.00">JA</text>
</g>
<!-- A06 -->
<g id="node4" class="node">
<title>A06</title>
<path fill="#cfb986" stroke="black" stroke-width="0" d="M1056.74,-73.52C1056.74,-73.52 553.76,-73.52 553.76,-73.52 547.76,-73.52 541.76,-67.52 541.76,-61.52 541.76,-61.52 541.76,-12 541.76,-12 541.76,-6 547.76,0 553.76,0 553.76,0 1056.74,0 1056.74,0 1062.74,0 1068.74,-6 1068.74,-12 1068.74,-12 1068.74,-61.52 1068.74,-61.52 1068.74,-67.52 1062.74,-73.52 1056.74,-73.52"/>
<text text-anchor="start" x="554" y="-55.46" font-family="Roboto, sans-serif" font-weight="bold" font-size="14.00">A06</text>
<text text-anchor="start" x="554" y="-43.36" font-family="Roboto, sans-serif" text-decoration="underline" font-size="12.00">Hinweis:</text>
<text text-anchor="start" x="554" y="-31.36" font-family="Roboto, sans-serif" font-size="12.00">Datenstatus &#8222;Abgerechnete Daten KBKA&#8220; f&#252;r die h&#246;chste Version der AA&#220;Z mit dem</text>
<text text-anchor="start" x="554" y="-19.36" font-family="Roboto, sans-serif" font-size="12.00">Daten-status &#8222;Abrechnungsdaten&#8220;, &#8222;Abgerechnete Daten&#8220; oder &#8222;Abrechnungsdaten</text>
<text text-anchor="start" x="554" y="-7.36" font-family="Roboto, sans-serif" font-size="12.00">KBKA&#8220; in diesem Bilanzierungsmonat.</text>
</g>
<!-- 1&#45;&gt;A06 -->
<g id="edge3" class="edge">
<title>1-&gt;A06</title>
<path fill="none" stroke="#7aab8a" d="M583.37,-126.86C616.25,-113.65 663.3,-94.76 705.62,-77.77"/>
<polygon fill="#7aab8a" stroke="#7aab8a" points="706.88,-81.03 714.86,-74.06 704.27,-74.54 706.88,-81.03"/>
<text text-anchor="start" x="665.25" y="-96.47" font-family="Roboto, sans-serif" font-weight="bold" font-size="14.00">NEIN</text>
</g>
</g>
</svg>
  </g>
</svg>
  </g>
</svg>
