<?xml version='1.0' encoding='ASCII' standalone='yes'?>
<svg xmlns="http://www.w3.org/2000/svg" xmlns:xlink="http://www.w3.org/1999/xlink" version="1.1" width="1434.6666666666667px" viewBox="0 0 1434.6666666666667 445.3333333333333" height="445.3333333333333px">
  <g>
    <svg version="1.1" width="1434.6666666666667px" viewBox="0 0 1434.6666666666667 445.3333333333333" height="445.3333333333333px">
  <polygon fill="#f3f1f6" points="0,0 1434.6666666666667,0 1434.6666666666667,445.3333333333333 0,445.3333333333333"/><g>
    <g transform="translate(539.3321331667655, 44.533333333333324) scale(1 1) translate(0, 0) scale(2.0140715915767333 2.0140715915767333) "><sodipodi:namedview xmlns:sodipodi="http://sodipodi.sourceforge.net/DTD/sodipodi-0.dtd" xmlns:inkscape="http://www.inkscape.org/namespaces/inkscape" id="namedview7" pagecolor="#ffffff" bordercolor="#999999" borderopacity="1" inkscape:pageshadow="0" inkscape:pageopacity="0" inkscape:pagecheckerboard="0" inkscape:document-units="mm" showgrid="false" fit-margin-top="0" fit-margin-left="0" fit-margin-right="0" fit-margin-bottom="0" inkscape:zoom="0.64052329" inkscape:cx="130.36216" inkscape:cy="412.163" inkscape:window-width="1512" inkscape:window-height="916" inkscape:window-x="3840" inkscape:window-y="136" inkscape:window-maximized="0" inkscape:current-layer="layer1"/>
  <defs id="defs2">
    <clipPath clipPathUnits="userSpaceOnUse" id="clipPath23">
      <path d="M 0,568.156 H 579.236 V 0 H 0 Z" id="path21"/>
    </clipPath>
  </defs>
  <g xmlns:inkscape="http://www.inkscape.org/namespaces/inkscape" inkscape:label="Layer 1" inkscape:groupmode="layer" id="layer1" transform="translate(-16.541937,-55.305267)">
    <g id="g19" clip-path="url(#clipPath23)" transform="matrix(0.35277777,0,0,-0.35277777,0.01017023,243.73675)" style="opacity:0.2">
      <g id="g25" transform="translate(122.444,32.7195)">
        <path d="m 0,0 h -56.104 c -11,0 -19.898,9.123 -19.463,20.115 10.594,267.191 231.277,481.302 501.029,481.302 v -56.02 c 0,-10.98 -8.688,-19.892 -19.658,-20.393 C 180.29,414.697 0,228.005 0,0" style="fill:#6ead83;fill-opacity:0.5;fill-rule:nonzero;stroke:none" id="path27"/>
      </g>
      <g id="g29" transform="translate(273.7828,32.7195)">
        <path d="m 0,0 h -55.926 c -11.228,0 -20.091,9.482 -19.435,20.69 10.744,183.439 163.389,329.388 349.485,329.388 v -56.263 c 0,-10.709 -8.273,-19.617 -18.957,-20.35 C 112.819,263.696 0,144.774 0,0" style="fill:#6ead83;fill-opacity:0.5;fill-rule:nonzero;stroke:none" id="path31"/>
      </g>
      <g id="g33" transform="translate(425.7667,32.7195)">
        <path d="m 0,0 h -55.445 c -11.653,0 -20.604,10.17 -19.334,21.753 10.866,99.032 95.031,176.341 196.919,176.341 v -57.011 c 0,-10.046 -7.283,-18.755 -17.229,-20.165 C 45.688,112.522 0,61.497 0,0" style="fill:#6ead83;fill-opacity:0.5;fill-rule:nonzero;stroke:none" id="path35"/>
      </g>
    </g>
  </g>
</g>
    <svg width="1076pt" height="334pt" viewBox="0.00 0.00 1076.25 334.33">
<g id="graph0" class="graph" transform="scale(1 1) rotate(0) translate(4 330.33)">
<title>D</title>
<text text-anchor="start" x="8" y="-306.23" font-family="Times,serif" font-weight="bold" font-size="18.00">MaBiS</text>
<text text-anchor="start" x="8" y="-276.13" font-family="Times,serif" font-weight="bold" font-size="16.00">7.39.1: AD: Anforderung und &#220;bermittlung Bilanzkreiszuordnungsliste zwischen &#220;NB und BKV (Einzelanforderung)</text>
<!-- Start -->
<g id="node1" class="node">
<title>Start</title>
<path fill="#7a8da1" stroke="black" stroke-width="0" d="M607.4,-228.33C607.4,-228.33 460.85,-228.33 460.85,-228.33 454.85,-228.33 448.85,-222.33 448.85,-216.33 448.85,-216.33 448.85,-197.05 448.85,-197.05 448.85,-191.05 454.85,-185.05 460.85,-185.05 460.85,-185.05 607.4,-185.05 607.4,-185.05 613.4,-185.05 619.4,-191.05 619.4,-197.05 619.4,-197.05 619.4,-216.33 619.4,-216.33 619.4,-222.33 613.4,-228.33 607.4,-228.33"/>
<text text-anchor="start" x="506" y="-207.39" font-family="Times,serif" font-weight="bold" font-size="14.00">E_0039</text>
<text text-anchor="start" x="463.25" y="-195.29" font-family="Times,serif" font-weight="bold" text-decoration="underline" font-size="12.00">Pr&#252;fende Rolle:</text>
<text text-anchor="start" x="568.25" y="-195.29" font-family="Times,serif" font-weight="bold" font-size="12.00"> &#220;NB</text>
</g>
<!-- 1 -->
<g id="node2" class="node">
<title>1</title>
<path fill="#7aab8a" stroke="black" stroke-width="0" d="M835.4,-148.05C835.4,-148.05 232.85,-148.05 232.85,-148.05 226.85,-148.05 220.85,-142.05 220.85,-136.05 220.85,-136.05 220.85,-114.77 220.85,-114.77 220.85,-108.77 226.85,-102.77 232.85,-102.77 232.85,-102.77 835.4,-102.77 835.4,-102.77 841.4,-102.77 847.4,-108.77 847.4,-114.77 847.4,-114.77 847.4,-136.05 847.4,-136.05 847.4,-142.05 841.4,-148.05 835.4,-148.05"/>
<text text-anchor="start" x="235.25" y="-127.11" font-family="Times,serif" font-weight="bold" font-size="14.00">1: </text>
<text text-anchor="start" x="254.75" y="-127.11" font-family="Times,serif" font-size="14.00">Sind in dem angefragten Gebiet (Bilanzierungsgebiet oder Regelzone) f&#252;r diesen</text>
<text text-anchor="start" x="235.25" y="-113.11" font-family="Times,serif" font-size="14.00">Bilanzkreis LF-SZR zum angegebenen Zeitpunkt g&#252;ltig?</text>
</g>
<!-- Start&#45;&gt;1 -->
<g id="edge1" class="edge">
<title>Start-&gt;1</title>
<path fill="none" stroke="black" d="M534.12,-185.27C534.12,-177.3 534.12,-167.95 534.12,-159.09"/>
<polygon fill="black" stroke="black" points="537.63,-159.38 534.13,-149.38 530.63,-159.38 537.63,-159.38"/>
</g>
<!-- A01 -->
<g id="node3" class="node">
<title>A01</title>
<path fill="#cfb986" stroke="black" stroke-width="0" d="M542.12,-49.52C542.12,-49.52 384.13,-49.52 384.13,-49.52 378.13,-49.52 372.13,-43.52 372.13,-37.52 372.13,-37.52 372.13,-12 372.13,-12 372.13,-6 378.13,0 384.13,0 384.13,0 542.12,0 542.12,0 548.12,0 554.12,-6 554.12,-12 554.12,-12 554.12,-37.52 554.12,-37.52 554.12,-43.52 548.12,-49.52 542.12,-49.52"/>
<text text-anchor="start" x="384.38" y="-31.46" font-family="Times,serif" font-weight="bold" font-size="14.00">A01</text>
<text text-anchor="start" x="384.38" y="-19.36" font-family="Times,serif" text-decoration="underline" font-size="12.00">Hinweis:</text>
<text text-anchor="start" x="384.38" y="-7.36" font-family="Times,serif" font-size="12.00">Kein Lieferant zugeordnet</text>
</g>
<!-- 1&#45;&gt;A01 -->
<g id="edge2" class="edge">
<title>1-&gt;A01</title>
<path fill="none" stroke="#7aab8a" d="M518.72,-103C509.35,-89.99 497.2,-73.11 486.65,-58.44"/>
<polygon fill="#7aab8a" stroke="#7aab8a" points="489.56,-56.49 480.87,-50.42 483.88,-60.58 489.56,-56.49"/>
<text text-anchor="start" x="504.12" y="-72.47" font-family="Times,serif" font-weight="bold" font-size="14.00">NEIN</text>
</g>
<!-- Ende -->
<g id="node4" class="node">
<title>Ende</title>
<path fill="#7a8da1" stroke="black" stroke-width="0" d="M625.9,-42.76C625.9,-42.76 584.35,-42.76 584.35,-42.76 578.35,-42.76 572.35,-36.76 572.35,-30.76 572.35,-30.76 572.35,-18.76 572.35,-18.76 572.35,-12.76 578.35,-6.76 584.35,-6.76 584.35,-6.76 625.9,-6.76 625.9,-6.76 631.9,-6.76 637.9,-12.76 637.9,-18.76 637.9,-18.76 637.9,-30.76 637.9,-30.76 637.9,-36.76 631.9,-42.76 625.9,-42.76"/>
<text text-anchor="middle" x="605.12" y="-20.08" font-family="Times,serif" font-size="14.00">Ende</text>
</g>
<!-- 1&#45;&gt;Ende -->
<g id="edge3" class="edge">
<title>1-&gt;Ende</title>
<path fill="none" stroke="#7aab8a" d="M549.53,-103C560.34,-87.99 574.85,-67.82 586.34,-51.86"/>
<polygon fill="#7aab8a" stroke="#7aab8a" points="589.16,-53.94 592.16,-43.78 583.47,-49.85 589.16,-53.94"/>
<text text-anchor="start" x="573.12" y="-72.47" font-family="Times,serif" font-weight="bold" font-size="14.00">JA</text>
</g>
</g>
</svg>
  </g>
</svg>
  </g>
</svg>
