<?xml version='1.0' encoding='ASCII' standalone='yes'?>
<svg xmlns="http://www.w3.org/2000/svg" xmlns:xlink="http://www.w3.org/1999/xlink" version="1.1" width="1794.6666666666667px" viewBox="0 0 1794.6666666666667 1510.6666666666667" height="1510.6666666666667px">
  <g>
    <svg version="1.1" width="1794.6666666666667px" viewBox="0 0 1794.6666666666667 1510.6666666666667" height="1510.6666666666667px">
  <rect fill="#e7e6e5" x="0" y="0" width="1794.6666666666667" height="1510.6666666666667" rx="20" ry="20"/><g>
    <g transform="translate(281.2825307425137, 151.06666666666663) scale(1 1) translate(0, 0) scale(2.1271003473200043 2.1271003473200043) "><!-- note that I manually added the width and height attribute to the root node
  https://chatgpt.com/share/678e3028-70cc-800b-a296-782714735772
  -->
  <defs>
    <style>.cls-1{fill:#fff;}</style>
  </defs>
  <path class="cls-1" d="M122.44,531.2h-56.1c-11,0-19.9-9.12-19.46-20.11C57.47,243.89,278.15,29.78,547.91,29.78v56.02c0,10.98-8.69,19.89-19.66,20.39-225.51,10.31-405.8,197-405.8,425Z"/>
  <path class="cls-1" d="M273.78,531.2h-55.93c-11.23,0-20.09-9.48-19.43-20.69,10.74-183.44,163.39-329.39,349.48-329.39v56.26c0,10.71-8.27,19.62-18.96,20.35-142.35,9.77-255.17,128.69-255.17,273.46Z"/>
  <path class="cls-1" d="M425.77,531.2h-55.45c-11.65,0-20.6-10.17-19.33-21.75,10.87-99.03,95.03-176.34,196.92-176.34v57.01c0,10.05-7.28,18.75-17.23,20.16-59.22,8.4-104.91,59.42-104.91,120.92Z"/>
</g>
    <svg width="1346pt" height="1133pt" viewBox="0.00 0.00 1345.55 1133.24">
<g id="graph0" class="graph" transform="scale(1 1) rotate(0) translate(4 1129.24)">
<title>D</title>
<text text-anchor="start" x="278.78" y="-1105.14" font-family="Roboto, sans-serif" font-weight="bold" font-size="18.00">MaBiS</text>
<text text-anchor="start" x="278.78" y="-1075.04" font-family="Roboto, sans-serif" font-weight="bold" font-size="16.00">7.58.1: AD: Austausch der Lieferantenausfallarbeitsclearingliste (g&#252;ltige Abonnierung)</text>
<!-- Start -->
<g id="node1" class="node">
<title>Start</title>
<path fill="#8ba2d7" stroke="black" stroke-width="0" d="M430.55,-1027.24C430.55,-1027.24 302,-1027.24 302,-1027.24 296,-1027.24 290,-1021.24 290,-1015.24 290,-1015.24 290,-995.96 290,-995.96 290,-989.96 296,-983.96 302,-983.96 302,-983.96 430.55,-983.96 430.55,-983.96 436.55,-983.96 442.55,-989.96 442.55,-995.96 442.55,-995.96 442.55,-1015.24 442.55,-1015.24 442.55,-1021.24 436.55,-1027.24 430.55,-1027.24"/>
<text text-anchor="start" x="304.4" y="-1006.3" font-family="Roboto, sans-serif" font-weight="bold" font-size="14.00">E_0096</text>
<text text-anchor="start" x="304.4" y="-994.2" font-family="Roboto, sans-serif" font-weight="bold" text-decoration="underline" font-size="12.00">Pr&#252;fende Rolle:</text>
<text text-anchor="start" x="407.9" y="-994.2" font-family="Roboto, sans-serif" font-weight="bold" font-size="12.00"> LF</text>
</g>
<!-- 1 -->
<g id="node2" class="node">
<title>1</title>
<path fill="#c2cee9" stroke="black" stroke-width="0" d="M605.3,-946.96C605.3,-946.96 127.25,-946.96 127.25,-946.96 121.25,-946.96 115.25,-940.96 115.25,-934.96 115.25,-934.96 115.25,-922.96 115.25,-922.96 115.25,-916.96 121.25,-910.96 127.25,-910.96 127.25,-910.96 605.3,-910.96 605.3,-910.96 611.3,-910.96 617.3,-916.96 617.3,-922.96 617.3,-922.96 617.3,-934.96 617.3,-934.96 617.3,-940.96 611.3,-946.96 605.3,-946.96"/>
<text text-anchor="start" x="129.65" y="-925.28" font-family="Roboto, sans-serif" font-weight="bold" font-size="14.00">1: </text>
<text text-anchor="start" x="149.15" y="-925.28" font-family="Roboto, sans-serif" font-size="14.00">Liegt f&#252;r diesen MaBiS-ZP ein g&#252;ltiges LF-AACL Abonnement vor?</text>
</g>
<!-- Start&#45;&gt;1 -->
<g id="edge1" class="edge">
<title>Start-&gt;1</title>
<path fill="none" stroke="#88a0d6" d="M366.27,-984.2C366.27,-976.13 366.27,-966.72 366.27,-958.03"/>
<polygon fill="#88a0d6" stroke="#88a0d6" points="369.78,-958.32 366.28,-948.32 362.78,-958.32 369.78,-958.32"/>
</g>
<!-- A01 -->
<g id="node3" class="node">
<title>A01</title>
<path fill="#c4cac1" stroke="black" stroke-width="0" d="M254.55,-857.71C254.55,-857.71 18,-857.71 18,-857.71 12,-857.71 6,-851.71 6,-845.71 6,-845.71 6,-802.43 6,-802.43 6,-796.43 12,-790.43 18,-790.43 18,-790.43 254.55,-790.43 254.55,-790.43 260.55,-790.43 266.55,-796.43 266.55,-802.43 266.55,-802.43 266.55,-845.71 266.55,-845.71 266.55,-851.71 260.55,-857.71 254.55,-857.71"/>
<text text-anchor="start" x="20.4" y="-836.77" font-family="Roboto, sans-serif" font-weight="bold" font-size="14.00">A01</text>
<text text-anchor="start" x="20.4" y="-824.67" font-family="Roboto, sans-serif" text-decoration="underline" font-size="12.00">Hinweis:</text>
<text text-anchor="start" x="20.4" y="-812.67" font-family="Roboto, sans-serif" font-size="12.00">Cluster: Ablehnung der gesamten Liste</text>
<text text-anchor="start" x="20.4" y="-800.67" font-family="Roboto, sans-serif" font-size="12.00">Zeitraum nicht plausibel</text>
</g>
<!-- 1&#45;&gt;A01 -->
<g id="edge2" class="edge">
<title>1-&gt;A01</title>
<path fill="none" stroke="#88a0d6" d="M328.3,-910.97C298.79,-897.77 256.76,-878.97 219.55,-862.32"/>
<polygon fill="#88a0d6" stroke="#88a0d6" points="221.13,-859.2 210.57,-858.31 218.27,-865.59 221.13,-859.2"/>
<text text-anchor="start" x="285.27" y="-880.66" font-family="Roboto, sans-serif" font-weight="bold" font-size="14.00">NEIN</text>
</g>
<!-- 2 -->
<g id="node4" class="node">
<title>2</title>
<path fill="#c2cee9" stroke="black" stroke-width="0" d="M820.17,-846.71C820.17,-846.71 296.38,-846.71 296.38,-846.71 290.38,-846.71 284.38,-840.71 284.38,-834.71 284.38,-834.71 284.38,-813.43 284.38,-813.43 284.38,-807.43 290.38,-801.43 296.38,-801.43 296.38,-801.43 820.17,-801.43 820.17,-801.43 826.17,-801.43 832.17,-807.43 832.17,-813.43 832.17,-813.43 832.17,-834.71 832.17,-834.71 832.17,-840.71 826.17,-846.71 820.17,-846.71"/>
<text text-anchor="start" x="298.77" y="-825.77" font-family="Roboto, sans-serif" font-weight="bold" font-size="14.00">2: </text>
<text text-anchor="start" x="318.27" y="-825.77" font-family="Roboto, sans-serif" font-size="14.00">Entspricht die Versionsangabe in der LF-AACL der Versionsangabe einer</text>
<text text-anchor="start" x="298.77" y="-811.77" font-family="Roboto, sans-serif" font-size="14.00">vorliegenden LF-AASZR?</text>
</g>
<!-- 1&#45;&gt;2 -->
<g id="edge3" class="edge">
<title>1-&gt;2</title>
<path fill="none" stroke="#88a0d6" d="M397.98,-910.97C427.93,-894.92 473.35,-870.58 508.2,-851.91"/>
<polygon fill="#88a0d6" stroke="#88a0d6" points="509.69,-855.08 516.85,-847.27 506.38,-848.91 509.69,-855.08"/>
<text text-anchor="start" x="462.27" y="-880.66" font-family="Roboto, sans-serif" font-weight="bold" font-size="14.00">JA</text>
</g>
<!-- A02 -->
<g id="node5" class="node">
<title>A02</title>
<path fill="#c4cac1" stroke="black" stroke-width="0" d="M330.43,-737.18C330.43,-737.18 90.12,-737.18 90.12,-737.18 84.12,-737.18 78.12,-731.18 78.12,-725.18 78.12,-725.18 78.12,-681.9 78.12,-681.9 78.12,-675.9 84.12,-669.9 90.12,-669.9 90.12,-669.9 330.43,-669.9 330.43,-669.9 336.43,-669.9 342.43,-675.9 342.43,-681.9 342.43,-681.9 342.43,-725.18 342.43,-725.18 342.43,-731.18 336.43,-737.18 330.43,-737.18"/>
<text text-anchor="start" x="92.53" y="-716.24" font-family="Roboto, sans-serif" font-weight="bold" font-size="14.00">A02</text>
<text text-anchor="start" x="92.53" y="-704.14" font-family="Roboto, sans-serif" text-decoration="underline" font-size="12.00">Hinweis:</text>
<text text-anchor="start" x="92.53" y="-692.14" font-family="Roboto, sans-serif" font-size="12.00">Cluster: Ablehnung der gesamten Liste </text>
<text text-anchor="start" x="92.53" y="-680.14" font-family="Roboto, sans-serif" font-size="12.00">Version nicht zugelassen</text>
</g>
<!-- 2&#45;&gt;A02 -->
<g id="edge4" class="edge">
<title>2-&gt;A02</title>
<path fill="none" stroke="#88a0d6" d="M494.85,-801.47C445.2,-784.56 375.05,-760.66 316.82,-740.83"/>
<polygon fill="#88a0d6" stroke="#88a0d6" points="318.12,-737.58 307.53,-737.67 315.87,-744.2 318.12,-737.58"/>
<text text-anchor="start" x="404.27" y="-760.13" font-family="Roboto, sans-serif" font-weight="bold" font-size="14.00">NEIN</text>
</g>
<!-- 3 -->
<g id="node6" class="node">
<title>3</title>
<path fill="#c2cee9" stroke="black" stroke-width="0" d="M840.05,-721.54C840.05,-721.54 372.5,-721.54 372.5,-721.54 366.5,-721.54 360.5,-715.54 360.5,-709.54 360.5,-709.54 360.5,-697.54 360.5,-697.54 360.5,-691.54 366.5,-685.54 372.5,-685.54 372.5,-685.54 840.05,-685.54 840.05,-685.54 846.05,-685.54 852.05,-691.54 852.05,-697.54 852.05,-697.54 852.05,-709.54 852.05,-709.54 852.05,-715.54 846.05,-721.54 840.05,-721.54"/>
<text text-anchor="start" x="374.9" y="-699.87" font-family="Roboto, sans-serif" font-weight="bold" font-size="14.00">3: </text>
<text text-anchor="start" x="394.4" y="-699.87" font-family="Roboto, sans-serif" font-size="14.00">Ist eine erwartete Marktlokation in der LF-AACL nicht enthalten?</text>
</g>
<!-- 2&#45;&gt;3 -->
<g id="edge5" class="edge">
<title>2-&gt;3</title>
<path fill="none" stroke="#88a0d6" d="M566.97,-801.61C574.89,-782.04 586.64,-753.04 595.22,-731.83"/>
<polygon fill="#88a0d6" stroke="#88a0d6" points="598.43,-733.24 598.94,-722.66 591.94,-730.61 598.43,-733.24"/>
<text text-anchor="start" x="584.27" y="-760.13" font-family="Roboto, sans-serif" font-weight="bold" font-size="14.00">JA</text>
</g>
<!-- A03 -->
<g id="node7" class="node">
<title>A03</title>
<path fill="#c4cac1" stroke="black" stroke-width="0" d="M302.55,-616.65C302.55,-616.65 12,-616.65 12,-616.65 6,-616.65 0,-610.65 0,-604.65 0,-604.65 0,-561.37 0,-561.37 0,-555.37 6,-549.37 12,-549.37 12,-549.37 302.55,-549.37 302.55,-549.37 308.55,-549.37 314.55,-555.37 314.55,-561.37 314.55,-561.37 314.55,-604.65 314.55,-604.65 314.55,-610.65 308.55,-616.65 302.55,-616.65"/>
<text text-anchor="start" x="14.4" y="-595.71" font-family="Roboto, sans-serif" font-weight="bold" font-size="14.00">A03</text>
<text text-anchor="start" x="14.4" y="-583.61" font-family="Roboto, sans-serif" text-decoration="underline" font-size="12.00">Hinweis:</text>
<text text-anchor="start" x="14.4" y="-571.61" font-family="Roboto, sans-serif" font-size="12.00">Cluster: Korrekturliste wegen Ablehnung</text>
<text text-anchor="start" x="14.4" y="-559.61" font-family="Roboto, sans-serif" font-size="12.00">Zus&#228;tzlicher Datensatz / erg&#228;nzte Marktlokation</text>
</g>
<!-- 3&#45;&gt;A03 -->
<g id="edge6" class="edge">
<title>3-&gt;A03</title>
<path fill="none" stroke="#88a0d6" d="M541.94,-685.56C476.97,-668.4 374.63,-641.39 291.85,-619.54"/>
<polygon fill="#88a0d6" stroke="#88a0d6" points="292.85,-616.18 282.28,-617.01 291.06,-622.95 292.85,-616.18"/>
<text text-anchor="start" x="408.27" y="-639.6" font-family="Roboto, sans-serif" font-weight="bold" font-size="14.00">JA</text>
</g>
<!-- 4 -->
<g id="node8" class="node">
<title>4</title>
<path fill="#c2cee9" stroke="black" stroke-width="0" d="M924.3,-605.65C924.3,-605.65 344.25,-605.65 344.25,-605.65 338.25,-605.65 332.25,-599.65 332.25,-593.65 332.25,-593.65 332.25,-572.37 332.25,-572.37 332.25,-566.37 338.25,-560.37 344.25,-560.37 344.25,-560.37 924.3,-560.37 924.3,-560.37 930.3,-560.37 936.3,-566.37 936.3,-572.37 936.3,-572.37 936.3,-593.65 936.3,-593.65 936.3,-599.65 930.3,-605.65 924.3,-605.65"/>
<text text-anchor="start" x="346.65" y="-584.71" font-family="Roboto, sans-serif" font-weight="bold" font-size="14.00">4: </text>
<text text-anchor="start" x="366.15" y="-584.71" font-family="Roboto, sans-serif" font-size="14.00">Ist in der LF-AACL eine Marktlokation enthalten, die im Bilanzierungsmonat dem</text>
<text text-anchor="start" x="346.65" y="-570.71" font-family="Roboto, sans-serif" font-size="14.00">LF zur Bilanzierung nicht zugeordnet ist?</text>
</g>
<!-- 3&#45;&gt;4 -->
<g id="edge7" class="edge">
<title>3-&gt;4</title>
<path fill="none" stroke="#88a0d6" d="M610.29,-685.56C614.54,-667.57 621.35,-638.74 626.63,-616.38"/>
<polygon fill="#88a0d6" stroke="#88a0d6" points="629.99,-617.38 628.88,-606.85 623.17,-615.77 629.99,-617.38"/>
<text text-anchor="start" x="621.27" y="-639.6" font-family="Roboto, sans-serif" font-weight="bold" font-size="14.00">NEIN</text>
</g>
<!-- A04 -->
<g id="node9" class="node">
<title>A04</title>
<path fill="#c4cac1" stroke="black" stroke-width="0" d="M449.3,-496.12C449.3,-496.12 205.25,-496.12 205.25,-496.12 199.25,-496.12 193.25,-490.12 193.25,-484.12 193.25,-484.12 193.25,-440.84 193.25,-440.84 193.25,-434.84 199.25,-428.84 205.25,-428.84 205.25,-428.84 449.3,-428.84 449.3,-428.84 455.3,-428.84 461.3,-434.84 461.3,-440.84 461.3,-440.84 461.3,-484.12 461.3,-484.12 461.3,-490.12 455.3,-496.12 449.3,-496.12"/>
<text text-anchor="start" x="207.65" y="-475.18" font-family="Roboto, sans-serif" font-weight="bold" font-size="14.00">A04</text>
<text text-anchor="start" x="207.65" y="-463.08" font-family="Roboto, sans-serif" text-decoration="underline" font-size="12.00">Hinweis:</text>
<text text-anchor="start" x="207.65" y="-451.08" font-family="Roboto, sans-serif" font-size="12.00">Cluster: Korrekturliste wegen Ablehnung</text>
<text text-anchor="start" x="207.65" y="-439.08" font-family="Roboto, sans-serif" font-size="12.00">Marktlokation falschem LF zugeordnet</text>
</g>
<!-- 4&#45;&gt;A04 -->
<g id="edge8" class="edge">
<title>4-&gt;A04</title>
<path fill="none" stroke="#88a0d6" d="M578.32,-560.41C534.8,-543.6 473.41,-519.9 422.23,-500.14"/>
<polygon fill="#88a0d6" stroke="#88a0d6" points="423.81,-497 413.22,-496.66 421.29,-503.53 423.81,-497"/>
<text text-anchor="start" x="498.27" y="-519.07" font-family="Roboto, sans-serif" font-weight="bold" font-size="14.00">JA</text>
</g>
<!-- 5 -->
<g id="node10" class="node">
<title>5</title>
<path fill="#c2cee9" stroke="black" stroke-width="0" d="M1037.42,-480.48C1037.42,-480.48 491.12,-480.48 491.12,-480.48 485.12,-480.48 479.12,-474.48 479.12,-468.48 479.12,-468.48 479.12,-456.48 479.12,-456.48 479.12,-450.48 485.12,-444.48 491.12,-444.48 491.12,-444.48 1037.42,-444.48 1037.42,-444.48 1043.42,-444.48 1049.42,-450.48 1049.42,-456.48 1049.42,-456.48 1049.42,-468.48 1049.42,-468.48 1049.42,-474.48 1043.42,-480.48 1037.42,-480.48"/>
<text text-anchor="start" x="493.52" y="-458.8" font-family="Roboto, sans-serif" font-weight="bold" font-size="14.00">5: </text>
<text text-anchor="start" x="513.02" y="-458.8" font-family="Roboto, sans-serif" font-size="14.00">Ist die in der LF-AACL enthaltene Marktlokation dem MaBiS-ZP zugeordnet?</text>
</g>
<!-- 4&#45;&gt;5 -->
<g id="edge9" class="edge">
<title>4-&gt;5</title>
<path fill="none" stroke="#88a0d6" d="M657.82,-560.55C680.27,-540.08 714.04,-509.29 737.5,-487.89"/>
<polygon fill="#88a0d6" stroke="#88a0d6" points="739.79,-490.54 744.82,-481.21 735.08,-485.37 739.79,-490.54"/>
<text text-anchor="start" x="706.27" y="-519.07" font-family="Roboto, sans-serif" font-weight="bold" font-size="14.00">NEIN</text>
</g>
<!-- A05 -->
<g id="node11" class="node">
<title>A05</title>
<path fill="#c4cac1" stroke="black" stroke-width="0" d="M553.3,-375.59C553.3,-375.59 183.25,-375.59 183.25,-375.59 177.25,-375.59 171.25,-369.59 171.25,-363.59 171.25,-363.59 171.25,-320.31 171.25,-320.31 171.25,-314.31 177.25,-308.31 183.25,-308.31 183.25,-308.31 553.3,-308.31 553.3,-308.31 559.3,-308.31 565.3,-314.31 565.3,-320.31 565.3,-320.31 565.3,-363.59 565.3,-363.59 565.3,-369.59 559.3,-375.59 553.3,-375.59"/>
<text text-anchor="start" x="185.65" y="-354.65" font-family="Roboto, sans-serif" font-weight="bold" font-size="14.00">A05</text>
<text text-anchor="start" x="185.65" y="-342.55" font-family="Roboto, sans-serif" text-decoration="underline" font-size="12.00">Hinweis:</text>
<text text-anchor="start" x="185.65" y="-330.55" font-family="Roboto, sans-serif" font-size="12.00">Cluster: Korrekturliste wegen Ablehnung</text>
<text text-anchor="start" x="185.65" y="-318.55" font-family="Roboto, sans-serif" font-size="12.00">Zu viele Marktlokationen enthalten / entfallene Marktlokation</text>
</g>
<!-- 5&#45;&gt;A05 -->
<g id="edge10" class="edge">
<title>5-&gt;A05</title>
<path fill="none" stroke="#88a0d6" d="M707.54,-444.5C650.46,-427.41 560.71,-400.55 487.86,-378.74"/>
<polygon fill="#88a0d6" stroke="#88a0d6" points="489.27,-375.51 478.69,-376 487.26,-382.22 489.27,-375.51"/>
<text text-anchor="start" x="589.27" y="-398.54" font-family="Roboto, sans-serif" font-weight="bold" font-size="14.00">NEIN</text>
</g>
<!-- 6 -->
<g id="node12" class="node">
<title>6</title>
<path fill="#c2cee9" stroke="black" stroke-width="0" d="M1157.67,-364.59C1157.67,-364.59 594.88,-364.59 594.88,-364.59 588.88,-364.59 582.88,-358.59 582.88,-352.59 582.88,-352.59 582.88,-331.31 582.88,-331.31 582.88,-325.31 588.88,-319.31 594.88,-319.31 594.88,-319.31 1157.67,-319.31 1157.67,-319.31 1163.67,-319.31 1169.67,-325.31 1169.67,-331.31 1169.67,-331.31 1169.67,-352.59 1169.67,-352.59 1169.67,-358.59 1163.67,-364.59 1157.67,-364.59"/>
<text text-anchor="start" x="597.27" y="-343.65" font-family="Roboto, sans-serif" font-weight="bold" font-size="14.00">6: </text>
<text text-anchor="start" x="616.77" y="-343.65" font-family="Roboto, sans-serif" font-size="14.00">Entspricht das Bilanzierungsgebiet dem zwischen NB und LF ausgetauschten</text>
<text text-anchor="start" x="597.27" y="-329.65" font-family="Roboto, sans-serif" font-size="14.00">Bilanzierungsgebiet?</text>
</g>
<!-- 5&#45;&gt;6 -->
<g id="edge11" class="edge">
<title>5-&gt;6</title>
<path fill="none" stroke="#88a0d6" d="M780.32,-444.5C798.02,-425.77 826.83,-395.28 848.27,-372.59"/>
<polygon fill="#88a0d6" stroke="#88a0d6" points="850.72,-375.09 855.05,-365.41 845.64,-370.28 850.72,-375.09"/>
<text text-anchor="start" x="826.27" y="-398.54" font-family="Roboto, sans-serif" font-weight="bold" font-size="14.00">JA</text>
</g>
<!-- A06 -->
<g id="node13" class="node">
<title>A06</title>
<path fill="#c4cac1" stroke="black" stroke-width="0" d="M946.42,-67.28C946.42,-67.28 676.12,-67.28 676.12,-67.28 670.12,-67.28 664.12,-61.28 664.12,-55.28 664.12,-55.28 664.12,-12 664.12,-12 664.12,-6 670.12,0 676.12,0 676.12,0 946.42,0 946.42,0 952.42,0 958.42,-6 958.42,-12 958.42,-12 958.42,-55.28 958.42,-55.28 958.42,-61.28 952.42,-67.28 946.42,-67.28"/>
<text text-anchor="start" x="678.52" y="-46.34" font-family="Roboto, sans-serif" font-weight="bold" font-size="14.00">A06</text>
<text text-anchor="start" x="678.52" y="-34.24" font-family="Roboto, sans-serif" text-decoration="underline" font-size="12.00">Hinweis:</text>
<text text-anchor="start" x="678.52" y="-22.24" font-family="Roboto, sans-serif" font-size="12.00">Cluster: Korrekturliste wegen Ablehnung</text>
<text text-anchor="start" x="678.52" y="-10.24" font-family="Roboto, sans-serif" font-size="12.00">Bilanzierungsrel. Daten nicht korrekt / fehlen</text>
</g>
<!-- 6&#45;&gt;A06 -->
<g id="edge12" class="edge">
<title>6-&gt;A06</title>
<path fill="none" stroke="#88a0d6" d="M798.46,-319.34C766.56,-306.23 732.82,-285.88 714.27,-255.06 677.06,-193.21 699.95,-154.09 741.27,-94.91"/>
<path fill="none" stroke="#88a0d6" d="M741.27,-92.91C745.04,-86.49 749.78,-80.46 755.01,-74.9"/>
<polygon fill="#88a0d6" stroke="#88a0d6" points="757.2,-77.65 761.9,-68.16 752.3,-72.66 757.2,-77.65"/>
<text text-anchor="start" x="695.27" y="-188.76" font-family="Roboto, sans-serif" font-weight="bold" font-size="14.00">NEIN</text>
</g>
<!-- 7 -->
<g id="node14" class="node">
<title>7</title>
<path fill="#c2cee9" stroke="black" stroke-width="0" d="M1325.55,-255.06C1325.55,-255.06 735,-255.06 735,-255.06 729,-255.06 723,-249.06 723,-243.06 723,-243.06 723,-231.06 723,-231.06 723,-225.06 729,-219.06 735,-219.06 735,-219.06 1325.55,-219.06 1325.55,-219.06 1331.55,-219.06 1337.55,-225.06 1337.55,-231.06 1337.55,-231.06 1337.55,-243.06 1337.55,-243.06 1337.55,-249.06 1331.55,-255.06 1325.55,-255.06"/>
<text text-anchor="start" x="737.4" y="-233.38" font-family="Roboto, sans-serif" font-weight="bold" font-size="14.00">7: </text>
<text text-anchor="start" x="756.9" y="-233.38" font-family="Roboto, sans-serif" font-size="14.00">Entspricht der Bilanzkreis dem zwischen NB und LF aus-getauschten Bilanzkreis?</text>
</g>
<!-- 6&#45;&gt;7 -->
<g id="edge13" class="edge">
<title>6-&gt;7</title>
<path fill="none" stroke="#88a0d6" d="M908.56,-319.38C934.05,-302.35 969.56,-278.63 995.64,-261.2"/>
<polygon fill="#88a0d6" stroke="#88a0d6" points="997.51,-264.16 1003.88,-255.69 993.62,-258.34 997.51,-264.16"/>
<text text-anchor="start" x="975.27" y="-278.01" font-family="Roboto, sans-serif" font-weight="bold" font-size="14.00">JA</text>
</g>
<!-- 7&#45;&gt;A06 -->
<g id="edge14" class="edge">
<title>7-&gt;A06</title>
<path fill="none" stroke="#88a0d6" d="M907,-219.07C842.11,-207.5 771.64,-189.9 750.27,-165.81 729.2,-142.05 722.09,-120.22 741.27,-94.91"/>
<text text-anchor="start" x="750.27" y="-139.5" font-family="Roboto, sans-serif" font-weight="bold" font-size="14.00">NEIN</text>
</g>
<!-- 8 -->
<g id="node15" class="node">
<title>8</title>
<path fill="#c2cee9" stroke="black" stroke-width="0" d="M1278.43,-165.81C1278.43,-165.81 810.13,-165.81 810.13,-165.81 804.13,-165.81 798.13,-159.81 798.13,-153.81 798.13,-153.81 798.13,-132.53 798.13,-132.53 798.13,-126.53 804.13,-120.53 810.13,-120.53 810.13,-120.53 1278.43,-120.53 1278.43,-120.53 1284.43,-120.53 1290.43,-126.53 1290.43,-132.53 1290.43,-132.53 1290.43,-153.81 1290.43,-153.81 1290.43,-159.81 1284.43,-165.81 1278.43,-165.81"/>
<text text-anchor="start" x="812.53" y="-144.87" font-family="Roboto, sans-serif" font-weight="bold" font-size="14.00">8: </text>
<text text-anchor="start" x="832.03" y="-144.87" font-family="Roboto, sans-serif" font-size="14.00">Entspricht die tats&#228;chliche Ausfallarbeitsmenge der er-warteten</text>
<text text-anchor="start" x="812.53" y="-130.87" font-family="Roboto, sans-serif" font-size="14.00">Ausfallarbeitsmenge?</text>
</g>
<!-- 7&#45;&gt;8 -->
<g id="edge15" class="edge">
<title>7-&gt;8</title>
<path fill="none" stroke="#88a0d6" d="M1032.84,-219.21C1034.65,-207.35 1037.12,-191.1 1039.31,-176.76"/>
<polygon fill="#88a0d6" stroke="#88a0d6" points="1042.71,-177.69 1040.75,-167.28 1035.79,-176.64 1042.71,-177.69"/>
<text text-anchor="start" x="1037.28" y="-188.76" font-family="Roboto, sans-serif" font-weight="bold" font-size="14.00">JA</text>
</g>
<!-- 8&#45;&gt;A06 -->
<g id="edge16" class="edge">
<title>8-&gt;A06</title>
<path fill="none" stroke="#88a0d6" d="M997.4,-120.54C967.29,-106.64 927.36,-88.22 892.22,-72"/>
<polygon fill="#88a0d6" stroke="#88a0d6" points="893.88,-68.91 883.34,-67.9 890.95,-75.27 893.88,-68.91"/>
<text text-anchor="start" x="955.27" y="-90.23" font-family="Roboto, sans-serif" font-weight="bold" font-size="14.00">NEIN</text>
</g>
<!-- Ende -->
<g id="node16" class="node">
<title>Ende</title>
<path fill="#8ba2d7" stroke="black" stroke-width="0" d="M1064.3,-51.64C1064.3,-51.64 1024.25,-51.64 1024.25,-51.64 1018.25,-51.64 1012.25,-45.64 1012.25,-39.64 1012.25,-39.64 1012.25,-27.64 1012.25,-27.64 1012.25,-21.64 1018.25,-15.64 1024.25,-15.64 1024.25,-15.64 1064.3,-15.64 1064.3,-15.64 1070.3,-15.64 1076.3,-21.64 1076.3,-27.64 1076.3,-27.64 1076.3,-39.64 1076.3,-39.64 1076.3,-45.64 1070.3,-51.64 1064.3,-51.64"/>
<text text-anchor="middle" x="1044.28" y="-28.96" font-family="Roboto, sans-serif" font-size="14.00">Ende</text>
</g>
<!-- 8&#45;&gt;Ende -->
<g id="edge17" class="edge">
<title>8-&gt;Ende</title>
<path fill="none" stroke="#88a0d6" d="M1044.28,-120.67C1044.28,-104.06 1044.28,-80.92 1044.28,-62.83"/>
<polygon fill="#88a0d6" stroke="#88a0d6" points="1047.78,-63.03 1044.28,-53.03 1040.78,-63.03 1047.78,-63.03"/>
<text text-anchor="start" x="1044.28" y="-90.23" font-family="Roboto, sans-serif" font-weight="bold" font-size="14.00">JA</text>
</g>
</g>
</svg>
  </g>
</svg>
  </g>
</svg>
