<?xml version='1.0' encoding='ASCII' standalone='yes'?>
<svg xmlns="http://www.w3.org/2000/svg" xmlns:xlink="http://www.w3.org/1999/xlink" version="1.1" width="1633.3333333333333px" viewBox="0 0 1633.3333333333333 1920.0" height="1920.0px">
  <g>
    <svg version="1.1" width="1633.3333333333333px" viewBox="0 0 1633.3333333333333 1920.0" height="1920.0px">
  <polygon fill="#f3f1f6" points="0,0 1633.3333333333333,0 1633.3333333333333,1920.0 0,1920.0"/><g>
    <g transform="translate(163.3333333333333, 306.1816867777336) scale(1 1) translate(0, 0) scale(7.39242266493405 7.39242266493405) "><sodipodi:namedview xmlns:sodipodi="http://sodipodi.sourceforge.net/DTD/sodipodi-0.dtd" xmlns:inkscape="http://www.inkscape.org/namespaces/inkscape" id="namedview7" pagecolor="#ffffff" bordercolor="#999999" borderopacity="1" inkscape:pageshadow="0" inkscape:pageopacity="0" inkscape:pagecheckerboard="0" inkscape:document-units="mm" showgrid="false" fit-margin-top="0" fit-margin-left="0" fit-margin-right="0" fit-margin-bottom="0" inkscape:zoom="0.64052329" inkscape:cx="130.36216" inkscape:cy="412.163" inkscape:window-width="1512" inkscape:window-height="916" inkscape:window-x="3840" inkscape:window-y="136" inkscape:window-maximized="0" inkscape:current-layer="layer1"/>
  <defs id="defs2">
    <clipPath clipPathUnits="userSpaceOnUse" id="clipPath23">
      <path d="M 0,568.156 H 579.236 V 0 H 0 Z" id="path21"/>
    </clipPath>
  </defs>
  <g xmlns:inkscape="http://www.inkscape.org/namespaces/inkscape" inkscape:label="Layer 1" inkscape:groupmode="layer" id="layer1" transform="translate(-16.541937,-55.305267)">
    <g id="g19" clip-path="url(#clipPath23)" transform="matrix(0.35277777,0,0,-0.35277777,0.01017023,243.73675)" style="opacity:0.2">
      <g id="g25" transform="translate(122.444,32.7195)">
        <path d="m 0,0 h -56.104 c -11,0 -19.898,9.123 -19.463,20.115 10.594,267.191 231.277,481.302 501.029,481.302 v -56.02 c 0,-10.98 -8.688,-19.892 -19.658,-20.393 C 180.29,414.697 0,228.005 0,0" style="fill:#6ead83;fill-opacity:0.5;fill-rule:nonzero;stroke:none" id="path27"/>
      </g>
      <g id="g29" transform="translate(273.7828,32.7195)">
        <path d="m 0,0 h -55.926 c -11.228,0 -20.091,9.482 -19.435,20.69 10.744,183.439 163.389,329.388 349.485,329.388 v -56.263 c 0,-10.709 -8.273,-19.617 -18.957,-20.35 C 112.819,263.696 0,144.774 0,0" style="fill:#6ead83;fill-opacity:0.5;fill-rule:nonzero;stroke:none" id="path31"/>
      </g>
      <g id="g33" transform="translate(425.7667,32.7195)">
        <path d="m 0,0 h -55.445 c -11.653,0 -20.604,10.17 -19.334,21.753 10.866,99.032 95.031,176.341 196.919,176.341 v -57.011 c 0,-10.046 -7.283,-18.755 -17.229,-20.165 C 45.688,112.522 0,61.497 0,0" style="fill:#6ead83;fill-opacity:0.5;fill-rule:nonzero;stroke:none" id="path35"/>
      </g>
    </g>
  </g>
</g>
    <svg width="1225pt" height="1440pt" viewBox="0.00 0.00 1225.14 1440.00">
<g id="graph0" class="graph" transform="scale(0.855462 0.855462) rotate(0) translate(4 1679.3)">
<title>D</title>
<text text-anchor="start" x="678.7" y="-1655.2" font-family="Times,serif" font-weight="bold" font-size="18.00">MaBiS</text>
<text text-anchor="start" x="266.2" y="-1625.1" font-family="Times,serif" font-weight="bold" font-size="16.00">7.24.1: AD: &#220;bermittlung Bilanzierungsgebietsclearingliste von &#220;NB an NB (g&#252;ltige Abonnierung)</text>
<!-- Start -->
<g id="node1" class="node">
<title>Start</title>
<polygon fill="#7a8da1" stroke="black" points="489.89,-1577.3 329.84,-1577.3 329.84,-1534.02 489.89,-1534.02 489.89,-1577.3"/>
<text text-anchor="start" x="381.74" y="-1556.36" font-family="Times,serif" font-weight="bold" font-size="14.00">E_0052</text>
<text text-anchor="start" x="344.24" y="-1544.26" font-family="Times,serif" font-weight="bold" text-decoration="underline" font-size="12.00">Pr&#252;fende Rolle:</text>
<text text-anchor="start" x="449.24" y="-1544.26" font-family="Times,serif" font-weight="bold" font-size="12.00"> NB</text>
</g>
<!-- 1 -->
<g id="node2" class="node">
<title>1</title>
<path fill="#7aab8a" stroke="black" d="M650.76,-1497.02C650.76,-1497.02 168.97,-1497.02 168.97,-1497.02 162.97,-1497.02 156.97,-1491.02 156.97,-1485.02 156.97,-1485.02 156.97,-1473.02 156.97,-1473.02 156.97,-1467.02 162.97,-1461.02 168.97,-1461.02 168.97,-1461.02 650.76,-1461.02 650.76,-1461.02 656.76,-1461.02 662.76,-1467.02 662.76,-1473.02 662.76,-1473.02 662.76,-1485.02 662.76,-1485.02 662.76,-1491.02 656.76,-1497.02 650.76,-1497.02"/>
<text text-anchor="start" x="171.37" y="-1475.34" font-family="Times,serif" font-weight="bold" font-size="14.00">1: </text>
<text text-anchor="start" x="190.87" y="-1475.34" font-family="Times,serif" font-size="14.00">Liegt f&#252;r diesen MaBiS-ZP ein g&#252;ltiges BG-CL Abonnement vor?</text>
</g>
<!-- Start&#45;&gt;1 -->
<g id="edge1" class="edge">
<title>Start-&gt;1</title>
<path fill="none" stroke="black" d="M409.87,-1533.87C409.87,-1526.01 409.87,-1516.93 409.87,-1508.49"/>
<polygon fill="black" stroke="black" points="413.37,-1508.69 409.87,-1498.69 406.37,-1508.69 413.37,-1508.69"/>
</g>
<!-- A01 -->
<g id="node3" class="node">
<title>A01</title>
<polygon fill="#cfb986" stroke="black" points="515.73,-1407.77 0,-1407.77 0,-1334.25 515.73,-1334.25 515.73,-1407.77"/>
<text text-anchor="start" x="242.87" y="-1389.71" font-family="Times,serif" font-weight="bold" font-size="14.00">A01</text>
<text text-anchor="start" x="12.24" y="-1377.61" font-family="Times,serif" text-decoration="underline" font-size="12.00">Hinweis:</text>
<text text-anchor="start" x="12.24" y="-1365.61" font-family="Times,serif" font-size="12.00">Cluster: Ablehnung der gesamten Liste</text>
<text text-anchor="start" x="12.24" y="-1353.61" font-family="Times,serif" font-size="12.00">Abonnement wurde nicht bestellt (bedeutet auch, dass ein Abonnement f&#252;r diesen</text>
<text text-anchor="start" x="12.24" y="-1341.61" font-family="Times,serif" font-size="12.00">Zeitraum bereits beendet wurde).</text>
</g>
<!-- 1&#45;&gt;A01 -->
<g id="edge2" class="edge">
<title>1-&gt;A01</title>
<path fill="none" stroke="black" d="M385.11,-1460.75C367.21,-1448.27 342.23,-1430.85 319.13,-1414.74"/>
<polygon fill="black" stroke="black" points="321.16,-1411.89 310.96,-1409.04 317.16,-1417.63 321.16,-1411.89"/>
<text text-anchor="middle" x="372.74" y="-1429.72" font-family="Times,serif" font-size="14.00">Nein</text>
</g>
<!-- 2 -->
<g id="node4" class="node">
<title>2</title>
<path fill="#7aab8a" stroke="black" d="M1072.26,-1393.65C1072.26,-1393.65 545.47,-1393.65 545.47,-1393.65 539.47,-1393.65 533.47,-1387.65 533.47,-1381.65 533.47,-1381.65 533.47,-1360.37 533.47,-1360.37 533.47,-1354.37 539.47,-1348.37 545.47,-1348.37 545.47,-1348.37 1072.26,-1348.37 1072.26,-1348.37 1078.26,-1348.37 1084.26,-1354.37 1084.26,-1360.37 1084.26,-1360.37 1084.26,-1381.65 1084.26,-1381.65 1084.26,-1387.65 1078.26,-1393.65 1072.26,-1393.65"/>
<text text-anchor="start" x="547.87" y="-1372.71" font-family="Times,serif" font-weight="bold" font-size="14.00">2: </text>
<text text-anchor="start" x="567.37" y="-1372.71" font-family="Times,serif" font-size="14.00">Entspricht die Versionsangabe in der BG-CL der Versionsangabe einer</text>
<text text-anchor="start" x="547.87" y="-1358.71" font-family="Times,serif" font-size="14.00">vorliegenden BG-SZR (Kategorie B)?</text>
</g>
<!-- 1&#45;&gt;2 -->
<g id="edge3" class="edge">
<title>1-&gt;2</title>
<path fill="none" stroke="black" d="M475.3,-1460.63C540.39,-1443.34 640.9,-1416.64 714.59,-1397.06"/>
<polygon fill="black" stroke="black" points="715.49,-1400.44 724.25,-1394.49 713.69,-1393.68 715.49,-1400.44"/>
<text text-anchor="middle" x="603.62" y="-1429.72" font-family="Times,serif" font-size="14.00">Ja</text>
</g>
<!-- A02 -->
<g id="node5" class="node">
<title>A02</title>
<polygon fill="#cfb986" stroke="black" points="539.11,-1281 280.62,-1281 280.62,-1219.48 539.11,-1219.48 539.11,-1281"/>
<text text-anchor="start" x="394.87" y="-1262.94" font-family="Times,serif" font-weight="bold" font-size="14.00">A02</text>
<text text-anchor="start" x="292.87" y="-1250.84" font-family="Times,serif" text-decoration="underline" font-size="12.00">Hinweis:</text>
<text text-anchor="start" x="292.87" y="-1238.84" font-family="Times,serif" font-size="12.00">Cluster: Ablehnung der gesamten Liste</text>
<text text-anchor="start" x="292.87" y="-1226.84" font-family="Times,serif" font-size="12.00">Version nicht zugelassen</text>
</g>
<!-- 2&#45;&gt;A02 -->
<g id="edge4" class="edge">
<title>2-&gt;A02</title>
<path fill="none" stroke="black" d="M734.75,-1347.95C675.07,-1330.18 590.2,-1304.92 522.18,-1284.67"/>
<polygon fill="black" stroke="black" points="523.44,-1281.4 512.86,-1281.9 521.45,-1288.11 523.44,-1281.4"/>
<text text-anchor="middle" x="637.74" y="-1302.95" font-family="Times,serif" font-size="14.00">Nein</text>
</g>
<!-- 3 -->
<g id="node6" class="node">
<title>3</title>
<path fill="#7aab8a" stroke="black" d="M1044.39,-1268.24C1044.39,-1268.24 569.34,-1268.24 569.34,-1268.24 563.34,-1268.24 557.34,-1262.24 557.34,-1256.24 557.34,-1256.24 557.34,-1244.24 557.34,-1244.24 557.34,-1238.24 563.34,-1232.24 569.34,-1232.24 569.34,-1232.24 1044.39,-1232.24 1044.39,-1232.24 1050.39,-1232.24 1056.39,-1238.24 1056.39,-1244.24 1056.39,-1244.24 1056.39,-1256.24 1056.39,-1256.24 1056.39,-1262.24 1050.39,-1268.24 1044.39,-1268.24"/>
<text text-anchor="start" x="571.74" y="-1246.56" font-family="Times,serif" font-weight="bold" font-size="14.00">3: </text>
<text text-anchor="start" x="591.24" y="-1246.56" font-family="Times,serif" font-size="14.00">Ist eine erwartete Marktlokation in der BG-CL nicht enthalten?</text>
</g>
<!-- 2&#45;&gt;3 -->
<g id="edge5" class="edge">
<title>2-&gt;3</title>
<path fill="none" stroke="black" d="M808.49,-1347.95C808.17,-1328.77 807.7,-1300.86 807.35,-1279.94"/>
<polygon fill="black" stroke="black" points="810.85,-1280.01 807.18,-1270.07 803.85,-1280.13 810.85,-1280.01"/>
<text text-anchor="middle" x="814.62" y="-1302.95" font-family="Times,serif" font-size="14.00">Ja</text>
</g>
<!-- A03 -->
<g id="node7" class="node">
<title>A03</title>
<polygon fill="#cfb986" stroke="black" points="432.36,-1166.23 115.38,-1166.23 115.38,-1104.71 432.36,-1104.71 432.36,-1166.23"/>
<text text-anchor="start" x="258.87" y="-1148.17" font-family="Times,serif" font-weight="bold" font-size="14.00">A03</text>
<text text-anchor="start" x="127.62" y="-1136.07" font-family="Times,serif" text-decoration="underline" font-size="12.00">Hinweis:</text>
<text text-anchor="start" x="127.62" y="-1124.07" font-family="Times,serif" font-size="12.00">Cluster: Korrekturliste wegen Ablehnung</text>
<text text-anchor="start" x="127.62" y="-1112.07" font-family="Times,serif" font-size="12.00">Zus&#228;tzlicher Datensatz / erg&#228;nzte Marktlokation</text>
</g>
<!-- 3&#45;&gt;A03 -->
<g id="edge6" class="edge">
<title>3-&gt;A03</title>
<path fill="none" stroke="black" d="M724.17,-1231.74C645.26,-1215.05 524.45,-1189.49 427.81,-1169.04"/>
<polygon fill="black" stroke="black" points="428.74,-1165.66 418.23,-1167.02 427.29,-1172.51 428.74,-1165.66"/>
<text text-anchor="middle" x="578.62" y="-1188.18" font-family="Times,serif" font-size="14.00">Ja</text>
</g>
<!-- 4 -->
<g id="node8" class="node">
<title>4</title>
<path fill="#7aab8a" stroke="black" d="M1073.64,-1158.11C1073.64,-1158.11 462.09,-1158.11 462.09,-1158.11 456.09,-1158.11 450.09,-1152.11 450.09,-1146.11 450.09,-1146.11 450.09,-1124.83 450.09,-1124.83 450.09,-1118.83 456.09,-1112.83 462.09,-1112.83 462.09,-1112.83 1073.64,-1112.83 1073.64,-1112.83 1079.64,-1112.83 1085.64,-1118.83 1085.64,-1124.83 1085.64,-1124.83 1085.64,-1146.11 1085.64,-1146.11 1085.64,-1152.11 1079.64,-1158.11 1073.64,-1158.11"/>
<text text-anchor="start" x="464.49" y="-1137.17" font-family="Times,serif" font-weight="bold" font-size="14.00">4: </text>
<text text-anchor="start" x="483.99" y="-1137.17" font-family="Times,serif" font-size="14.00">Ist in der BG-CL eine Marktlokation enthalten, die im Bilanzierungsmonat dem LF</text>
<text text-anchor="start" x="464.49" y="-1123.17" font-family="Times,serif" font-size="14.00">zur Bilanzierung nicht zu-geordnet ist?</text>
</g>
<!-- 3&#45;&gt;4 -->
<g id="edge7" class="edge">
<title>3-&gt;4</title>
<path fill="none" stroke="black" d="M800.94,-1232.11C795.19,-1215.48 786.3,-1189.79 779.19,-1169.22"/>
<polygon fill="black" stroke="black" points="782.52,-1168.15 775.95,-1159.84 775.91,-1170.44 782.52,-1168.15"/>
<text text-anchor="middle" x="805.74" y="-1188.18" font-family="Times,serif" font-size="14.00">Nein</text>
</g>
<!-- A04 -->
<g id="node9" class="node">
<title>A04</title>
<polygon fill="#cfb986" stroke="black" points="440.86,-1051.46 168.88,-1051.46 168.88,-989.94 440.86,-989.94 440.86,-1051.46"/>
<text text-anchor="start" x="289.87" y="-1033.4" font-family="Times,serif" font-weight="bold" font-size="14.00">A04</text>
<text text-anchor="start" x="181.12" y="-1021.3" font-family="Times,serif" text-decoration="underline" font-size="12.00">Hinweis:</text>
<text text-anchor="start" x="181.12" y="-1009.3" font-family="Times,serif" font-size="12.00">Cluster: Korrekturliste wegen Ablehnung</text>
<text text-anchor="start" x="181.12" y="-997.3" font-family="Times,serif" font-size="12.00">Marktlokation falschem LF zugeordnet</text>
</g>
<!-- 4&#45;&gt;A04 -->
<g id="edge8" class="edge">
<title>4-&gt;A04</title>
<path fill="none" stroke="black" d="M677.22,-1112.39C609.72,-1095.95 516.45,-1073.23 440.15,-1054.65"/>
<polygon fill="black" stroke="black" points="441.03,-1051.26 430.49,-1052.3 439.38,-1058.06 441.03,-1051.26"/>
<text text-anchor="middle" x="570.62" y="-1073.41" font-family="Times,serif" font-size="14.00">Ja</text>
</g>
<!-- 5 -->
<g id="node10" class="node">
<title>5</title>
<path fill="#7aab8a" stroke="black" d="M1026.89,-1038.7C1026.89,-1038.7 470.84,-1038.7 470.84,-1038.7 464.84,-1038.7 458.84,-1032.7 458.84,-1026.7 458.84,-1026.7 458.84,-1014.7 458.84,-1014.7 458.84,-1008.7 464.84,-1002.7 470.84,-1002.7 470.84,-1002.7 1026.89,-1002.7 1026.89,-1002.7 1032.89,-1002.7 1038.89,-1008.7 1038.89,-1014.7 1038.89,-1014.7 1038.89,-1026.7 1038.89,-1026.7 1038.89,-1032.7 1032.89,-1038.7 1026.89,-1038.7"/>
<text text-anchor="start" x="473.24" y="-1017.02" font-family="Times,serif" font-weight="bold" font-size="14.00">5: </text>
<text text-anchor="start" x="492.74" y="-1017.02" font-family="Times,serif" font-size="14.00">Ist die in der BG-CL enthaltene Marktlokation dem MaBiS-ZP zugeordnet?</text>
</g>
<!-- 4&#45;&gt;5 -->
<g id="edge9" class="edge">
<title>4-&gt;5</title>
<path fill="none" stroke="black" d="M764.16,-1112.46C761.15,-1094.62 756.9,-1069.37 753.64,-1050.03"/>
<polygon fill="black" stroke="black" points="757.12,-1049.64 752.01,-1040.36 750.22,-1050.8 757.12,-1049.64"/>
<text text-anchor="middle" x="775.74" y="-1073.41" font-family="Times,serif" font-size="14.00">Nein</text>
</g>
<!-- A05 -->
<g id="node11" class="node">
<title>A05</title>
<polygon fill="#cfb986" stroke="black" points="434.86,-936.69 36.87,-936.69 36.87,-875.17 434.86,-875.17 434.86,-936.69"/>
<text text-anchor="start" x="220.87" y="-918.63" font-family="Times,serif" font-weight="bold" font-size="14.00">A05</text>
<text text-anchor="start" x="49.12" y="-906.53" font-family="Times,serif" text-decoration="underline" font-size="12.00">Hinweis:</text>
<text text-anchor="start" x="49.12" y="-894.53" font-family="Times,serif" font-size="12.00">Cluster: Korrekturliste wegen Ablehnung</text>
<text text-anchor="start" x="49.12" y="-882.53" font-family="Times,serif" font-size="12.00">Zu viele Marktlokationen enthalten / entfallene Marktlokation</text>
</g>
<!-- 5&#45;&gt;A05 -->
<g id="edge10" class="edge">
<title>5-&gt;A05</title>
<path fill="none" stroke="black" d="M669.27,-1002.2C593.48,-985.54 477.52,-960.05 384.6,-939.63"/>
<polygon fill="black" stroke="black" points="385.39,-936.22 374.87,-937.49 383.89,-943.05 385.39,-936.22"/>
<text text-anchor="middle" x="539.74" y="-958.64" font-family="Times,serif" font-size="14.00">Nein</text>
</g>
<!-- 6 -->
<g id="node12" class="node">
<title>6</title>
<path fill="#7aab8a" stroke="black" d="M1015.26,-928.57C1015.26,-928.57 464.47,-928.57 464.47,-928.57 458.47,-928.57 452.47,-922.57 452.47,-916.57 452.47,-916.57 452.47,-895.29 452.47,-895.29 452.47,-889.29 458.47,-883.29 464.47,-883.29 464.47,-883.29 1015.26,-883.29 1015.26,-883.29 1021.26,-883.29 1027.26,-889.29 1027.26,-895.29 1027.26,-895.29 1027.26,-916.57 1027.26,-916.57 1027.26,-922.57 1021.26,-928.57 1015.26,-928.57"/>
<text text-anchor="start" x="466.87" y="-907.63" font-family="Times,serif" font-weight="bold" font-size="14.00">6: </text>
<text text-anchor="start" x="486.37" y="-907.63" font-family="Times,serif" font-size="14.00">Entspricht das Bilanzierungsgebiet dem zwischen NB (&#252;ber LF) und &#220;NB</text>
<text text-anchor="start" x="466.87" y="-893.63" font-family="Times,serif" font-size="14.00">ausgetauschten Bilanzierungsgebiet?</text>
</g>
<!-- 5&#45;&gt;6 -->
<g id="edge11" class="edge">
<title>5-&gt;6</title>
<path fill="none" stroke="black" d="M747.5,-1002.57C746.18,-986.09 744.16,-960.72 742.52,-940.26"/>
<polygon fill="black" stroke="black" points="746.02,-940.07 741.74,-930.38 739.04,-940.63 746.02,-940.07"/>
<text text-anchor="middle" x="751.62" y="-958.64" font-family="Times,serif" font-size="14.00">Ja</text>
</g>
<!-- A06 -->
<g id="node13" class="node">
<title>A06</title>
<polygon fill="#cfb986" stroke="black" points="950.98,-61.52 652.75,-61.52 652.75,0 950.98,0 950.98,-61.52"/>
<text text-anchor="start" x="786.87" y="-43.46" font-family="Times,serif" font-weight="bold" font-size="14.00">A06</text>
<text text-anchor="start" x="664.99" y="-31.36" font-family="Times,serif" text-decoration="underline" font-size="12.00">Hinweis:</text>
<text text-anchor="start" x="664.99" y="-19.36" font-family="Times,serif" font-size="12.00">Cluster: Korrekturliste wegen Ablehnung</text>
<text text-anchor="start" x="664.99" y="-7.36" font-family="Times,serif" font-size="12.00">Bilanzierungsrel. Daten nicht korrekt / fehlen</text>
</g>
<!-- 6&#45;&gt;A06 -->
<g id="edge12" class="edge">
<title>6-&gt;A06</title>
<path fill="none" stroke="black" d="M564.6,-882.83C477.6,-866.77 390.87,-840.64 390.87,-800.28 390.87,-800.28 390.87,-800.28 390.87,-471.98 390.87,-424.46 407.31,-412.67 436.87,-375.45"/>
<path fill="none" stroke="black" d="M436.87,-373.45C454.81,-348.3 468.83,-350.54 487.87,-326.19"/>
<path fill="none" stroke="black" d="M487.87,-324.19C505.92,-301.1 516.26,-300.36 533.87,-276.92"/>
<path fill="none" stroke="black" d="M533.87,-274.92C552.42,-250.21 565.92,-252.07 584.87,-227.66"/>
<path fill="none" stroke="black" d="M584.87,-225.66C602.84,-202.5 615.07,-203.09 630.87,-178.39"/>
<path fill="none" stroke="black" d="M630.87,-176.39C643.77,-156.21 651.4,-154.23 663.87,-133.77"/>
<path fill="none" stroke="black" d="M663.87,-131.77C678.37,-107.97 690.37,-109.07 709.87,-89.14"/>
<path fill="none" stroke="black" d="M709.87,-87.14C716.52,-80.34 724.18,-74.05 732.17,-68.34"/>
<polygon fill="black" stroke="black" points="734.1,-71.26 740.42,-62.75 730.18,-65.46 734.1,-71.26"/>
<text text-anchor="middle" x="407.74" y="-468.31" font-family="Times,serif" font-size="14.00">Nein</text>
</g>
<!-- 7 -->
<g id="node14" class="node">
<title>7</title>
<path fill="#7aab8a" stroke="black" d="M1039.51,-821.92C1039.51,-821.92 436.22,-821.92 436.22,-821.92 430.22,-821.92 424.22,-815.92 424.22,-809.92 424.22,-809.92 424.22,-788.64 424.22,-788.64 424.22,-782.64 430.22,-776.64 436.22,-776.64 436.22,-776.64 1039.51,-776.64 1039.51,-776.64 1045.51,-776.64 1051.51,-782.64 1051.51,-788.64 1051.51,-788.64 1051.51,-809.92 1051.51,-809.92 1051.51,-815.92 1045.51,-821.92 1039.51,-821.92"/>
<text text-anchor="start" x="438.62" y="-800.98" font-family="Times,serif" font-weight="bold" font-size="14.00">7: </text>
<text text-anchor="start" x="458.12" y="-800.98" font-family="Times,serif" font-size="14.00">Entspricht der Bilanzkreis dem zwischen NB (&#252;ber LF) und &#220;NB ausgetauschten</text>
<text text-anchor="start" x="438.62" y="-786.98" font-family="Times,serif" font-size="14.00">Bilanzkreis?</text>
</g>
<!-- 6&#45;&gt;7 -->
<g id="edge13" class="edge">
<title>6-&gt;7</title>
<path fill="none" stroke="black" d="M739.45,-882.99C739.17,-868.62 738.81,-849.57 738.5,-833.37"/>
<polygon fill="black" stroke="black" points="742,-833.63 738.31,-823.7 735,-833.77 742,-833.63"/>
<text text-anchor="middle" x="745.62" y="-843.87" font-family="Times,serif" font-size="14.00">Ja</text>
</g>
<!-- 7&#45;&gt;A06 -->
<g id="edge14" class="edge">
<title>7-&gt;A06</title>
<path fill="none" stroke="black" d="M577.96,-776.16C507.27,-761.74 439.87,-739.35 439.87,-706.39 439.87,-706.39 439.87,-706.39 439.87,-521.25 439.87,-456.44 399.22,-428.21 436.87,-375.45"/>
<text text-anchor="middle" x="440.74" y="-419.04" font-family="Times,serif" font-size="14.00">Nein</text>
</g>
<!-- 8 -->
<g id="node15" class="node">
<title>8</title>
<path fill="#7aab8a" stroke="black" d="M964.89,-723.39C964.89,-723.39 510.84,-723.39 510.84,-723.39 504.84,-723.39 498.84,-717.39 498.84,-711.39 498.84,-711.39 498.84,-699.39 498.84,-699.39 498.84,-693.39 504.84,-687.39 510.84,-687.39 510.84,-687.39 964.89,-687.39 964.89,-687.39 970.89,-687.39 976.89,-693.39 976.89,-699.39 976.89,-699.39 976.89,-711.39 976.89,-711.39 976.89,-717.39 970.89,-723.39 964.89,-723.39"/>
<text text-anchor="start" x="513.24" y="-701.71" font-family="Times,serif" font-weight="bold" font-size="14.00">8: </text>
<text text-anchor="start" x="532.74" y="-701.71" font-family="Times,serif" font-size="14.00">Entspricht der Bilanzierungsbeginn der Erwartung des NB?</text>
</g>
<!-- 7&#45;&gt;8 -->
<g id="edge15" class="edge">
<title>7-&gt;8</title>
<path fill="none" stroke="black" d="M737.87,-776.5C737.87,-764.15 737.87,-748.54 737.87,-735.19"/>
<polygon fill="black" stroke="black" points="741.37,-735.23 737.87,-725.23 734.37,-735.23 741.37,-735.23"/>
<text text-anchor="middle" x="744.62" y="-745.34" font-family="Times,serif" font-size="14.00">Ja</text>
</g>
<!-- 8&#45;&gt;A06 -->
<g id="edge16" class="edge">
<title>8-&gt;A06</title>
<path fill="none" stroke="black" d="M639.62,-686.94C573.7,-672.33 498.87,-648.78 498.87,-617.14 498.87,-617.14 498.87,-617.14 498.87,-471.98 498.87,-407 450.41,-379.29 487.87,-326.19"/>
<text text-anchor="middle" x="491.74" y="-369.78" font-family="Times,serif" font-size="14.00">Nein</text>
</g>
<!-- 9 -->
<g id="node16" class="node">
<title>9</title>
<path fill="#7aab8a" stroke="black" d="M979.14,-634.14C979.14,-634.14 538.59,-634.14 538.59,-634.14 532.59,-634.14 526.59,-628.14 526.59,-622.14 526.59,-622.14 526.59,-610.14 526.59,-610.14 526.59,-604.14 532.59,-598.14 538.59,-598.14 538.59,-598.14 979.14,-598.14 979.14,-598.14 985.14,-598.14 991.14,-604.14 991.14,-610.14 991.14,-610.14 991.14,-622.14 991.14,-622.14 991.14,-628.14 985.14,-634.14 979.14,-634.14"/>
<text text-anchor="start" x="540.99" y="-612.46" font-family="Times,serif" font-weight="bold" font-size="14.00">9: </text>
<text text-anchor="start" x="560.49" y="-612.46" font-family="Times,serif" font-size="14.00">Entspricht das Bilanzierungsende der Erwartung des NB?</text>
</g>
<!-- 8&#45;&gt;9 -->
<g id="edge17" class="edge">
<title>8-&gt;9</title>
<path fill="none" stroke="black" d="M742.01,-687.15C744.89,-675.2 748.78,-659.02 752.11,-645.22"/>
<polygon fill="black" stroke="black" points="755.43,-646.35 754.37,-635.81 748.63,-644.72 755.43,-646.35"/>
<text text-anchor="middle" x="756.62" y="-656.09" font-family="Times,serif" font-size="14.00">Ja</text>
</g>
<!-- 9&#45;&gt;A06 -->
<g id="edge18" class="edge">
<title>9-&gt;A06</title>
<path fill="none" stroke="black" d="M639.03,-597.73C607.51,-587.38 576.57,-570.95 555.87,-544.89 537.28,-521.5 516.51,-301.24 533.87,-276.92"/>
<text text-anchor="middle" x="544.74" y="-320.51" font-family="Times,serif" font-size="14.00">Nein</text>
</g>
<!-- 10 -->
<g id="node17" class="node">
<title>10</title>
<path fill="#7aab8a" stroke="black" d="M1108.51,-544.89C1108.51,-544.89 577.22,-544.89 577.22,-544.89 571.22,-544.89 565.22,-538.89 565.22,-532.89 565.22,-532.89 565.22,-511.61 565.22,-511.61 565.22,-505.61 571.22,-499.61 577.22,-499.61 577.22,-499.61 1108.51,-499.61 1108.51,-499.61 1114.51,-499.61 1120.51,-505.61 1120.51,-511.61 1120.51,-511.61 1120.51,-532.89 1120.51,-532.89 1120.51,-538.89 1114.51,-544.89 1108.51,-544.89"/>
<text text-anchor="start" x="579.62" y="-523.95" font-family="Times,serif" font-weight="bold" font-size="14.00">10: </text>
<text text-anchor="start" x="608.87" y="-523.95" font-family="Times,serif" font-size="14.00">Entspricht das normierte Profil dem zwischen NB (&#252;ber LF) und &#220;NB</text>
<text text-anchor="start" x="579.62" y="-509.95" font-family="Times,serif" font-size="14.00">ausgetauschten normierten Profil?</text>
</g>
<!-- 9&#45;&gt;10 -->
<g id="edge19" class="edge">
<title>9-&gt;10</title>
<path fill="none" stroke="black" d="M774.66,-597.86C786.03,-585.43 801.65,-568.34 815.07,-553.65"/>
<polygon fill="black" stroke="black" points="817.49,-556.19 821.66,-546.45 812.32,-551.47 817.49,-556.19"/>
<text text-anchor="middle" x="812.62" y="-566.84" font-family="Times,serif" font-size="14.00">Ja</text>
</g>
<!-- 10&#45;&gt;A06 -->
<g id="edge20" class="edge">
<title>10-&gt;A06</title>
<path fill="none" stroke="black" d="M697.32,-499.19C666.2,-488.05 636.29,-471.35 614.87,-446.36 582.94,-409.11 556.59,-267.74 584.87,-227.66"/>
<text text-anchor="middle" x="589.74" y="-271.25" font-family="Times,serif" font-size="14.00">Nein</text>
</g>
<!-- 11 -->
<g id="node18" class="node">
<title>11</title>
<path fill="#7aab8a" stroke="black" d="M1164.01,-446.36C1164.01,-446.36 635.72,-446.36 635.72,-446.36 629.72,-446.36 623.72,-440.36 623.72,-434.36 623.72,-434.36 623.72,-413.08 623.72,-413.08 623.72,-407.08 629.72,-401.08 635.72,-401.08 635.72,-401.08 1164.01,-401.08 1164.01,-401.08 1170.01,-401.08 1176.01,-407.08 1176.01,-413.08 1176.01,-413.08 1176.01,-434.36 1176.01,-434.36 1176.01,-440.36 1170.01,-446.36 1164.01,-446.36"/>
<text text-anchor="start" x="638.12" y="-425.42" font-family="Times,serif" font-weight="bold" font-size="14.00">11: </text>
<text text-anchor="start" x="667.37" y="-425.42" font-family="Times,serif" font-size="14.00">Entspricht die Versionsangabe des Profils der zwischen NB und &#220;NB</text>
<text text-anchor="start" x="638.12" y="-411.42" font-family="Times,serif" font-size="14.00">ausgetauschten Version des Profils?</text>
</g>
<!-- 10&#45;&gt;11 -->
<g id="edge21" class="edge">
<title>10-&gt;11</title>
<path fill="none" stroke="black" d="M855.8,-499.35C863.31,-486.63 872.89,-470.4 881.2,-456.33"/>
<polygon fill="black" stroke="black" points="884.14,-458.23 886.21,-447.84 878.11,-454.67 884.14,-458.23"/>
<text text-anchor="middle" x="880.62" y="-468.31" font-family="Times,serif" font-size="14.00">Ja</text>
</g>
<!-- 11&#45;&gt;A06 -->
<g id="edge22" class="edge">
<title>11-&gt;A06</title>
<path fill="none" stroke="black" d="M733.44,-400.66C702.78,-389.37 673.86,-372.62 652.87,-347.83 628.32,-318.86 611.45,-211.02 630.87,-178.39"/>
<text text-anchor="middle" x="639.74" y="-221.98" font-family="Times,serif" font-size="14.00">Nein</text>
</g>
<!-- 12 -->
<g id="node19" class="node">
<title>12</title>
<path fill="#7aab8a" stroke="black" d="M1301.89,-347.83C1301.89,-347.83 673.84,-347.83 673.84,-347.83 667.84,-347.83 661.84,-341.83 661.84,-335.83 661.84,-335.83 661.84,-314.55 661.84,-314.55 661.84,-308.55 667.84,-302.55 673.84,-302.55 673.84,-302.55 1301.89,-302.55 1301.89,-302.55 1307.89,-302.55 1313.89,-308.55 1313.89,-314.55 1313.89,-314.55 1313.89,-335.83 1313.89,-335.83 1313.89,-341.83 1307.89,-347.83 1301.89,-347.83"/>
<text text-anchor="start" x="676.24" y="-326.89" font-family="Times,serif" font-weight="bold" font-size="14.00">12: </text>
<text text-anchor="start" x="705.49" y="-326.89" font-family="Times,serif" font-size="14.00">Entspricht die veranschlagte Prognosemenge (JVP) der zwischen NB (&#252;ber LF) und</text>
<text text-anchor="start" x="676.24" y="-312.89" font-family="Times,serif" font-size="14.00">&#220;NB ausgetauschten Prognosemenge?</text>
</g>
<!-- 11&#45;&gt;12 -->
<g id="edge23" class="edge">
<title>11-&gt;12</title>
<path fill="none" stroke="black" d="M919.83,-400.82C931.87,-387.61 947.37,-370.61 960.54,-356.17"/>
<polygon fill="black" stroke="black" points="962.81,-358.87 966.96,-349.13 957.63,-354.16 962.81,-358.87"/>
<text text-anchor="middle" x="955.62" y="-369.78" font-family="Times,serif" font-size="14.00">Ja</text>
</g>
<!-- 12&#45;&gt;A06 -->
<g id="edge24" class="edge">
<title>12-&gt;A06</title>
<path fill="none" stroke="black" d="M812.44,-302.13C776.05,-290.93 740.21,-274.21 711.87,-249.3 690.98,-230.95 648.69,-157.06 663.87,-133.77"/>
<text text-anchor="middle" x="686.74" y="-172.72" font-family="Times,serif" font-size="14.00">Nein</text>
</g>
<!-- 13 -->
<g id="node20" class="node">
<title>13</title>
<path fill="#7aab8a" stroke="black" d="M1341.14,-249.3C1341.14,-249.3 732.59,-249.3 732.59,-249.3 726.59,-249.3 720.59,-243.3 720.59,-237.3 720.59,-237.3 720.59,-216.02 720.59,-216.02 720.59,-210.02 726.59,-204.02 732.59,-204.02 732.59,-204.02 1341.14,-204.02 1341.14,-204.02 1347.14,-204.02 1353.14,-210.02 1353.14,-216.02 1353.14,-216.02 1353.14,-237.3 1353.14,-237.3 1353.14,-243.3 1347.14,-249.3 1341.14,-249.3"/>
<text text-anchor="start" x="734.99" y="-228.36" font-family="Times,serif" font-weight="bold" font-size="14.00">13: </text>
<text text-anchor="start" x="764.24" y="-228.36" font-family="Times,serif" font-size="14.00">Entspricht die tats&#228;chlich bilanzierte Menge der erwarteten bilanzierten Menge</text>
<text text-anchor="start" x="734.99" y="-214.36" font-family="Times,serif" font-size="14.00">(monatlich gemessene Menge auf Basis der Summe der 1/4-h-Werten)?</text>
</g>
<!-- 12&#45;&gt;13 -->
<g id="edge25" class="edge">
<title>12-&gt;13</title>
<path fill="none" stroke="black" d="M998.98,-302.29C1005.37,-289.7 1013.52,-273.66 1020.61,-259.68"/>
<polygon fill="black" stroke="black" points="1023.7,-261.33 1025.11,-250.83 1017.46,-258.16 1023.7,-261.33"/>
<text text-anchor="middle" x="1021.62" y="-271.25" font-family="Times,serif" font-size="14.00">Ja</text>
</g>
<!-- 13&#45;&gt;A06 -->
<g id="edge26" class="edge">
<title>13-&gt;A06</title>
<path fill="none" stroke="black" d="M847.08,-203.56C746.39,-184.4 653.95,-149.83 709.87,-89.14"/>
<text text-anchor="middle" x="719.74" y="-128.09" font-family="Times,serif" font-size="14.00">Nein</text>
</g>
<!-- 14 -->
<g id="node21" class="node">
<title>14</title>
<path fill="#7aab8a" stroke="black" d="M1412.14,-150.77C1412.14,-150.77 773.59,-150.77 773.59,-150.77 767.59,-150.77 761.59,-144.77 761.59,-138.77 761.59,-138.77 761.59,-126.77 761.59,-126.77 761.59,-120.77 767.59,-114.77 773.59,-114.77 773.59,-114.77 1412.14,-114.77 1412.14,-114.77 1418.14,-114.77 1424.14,-120.77 1424.14,-126.77 1424.14,-126.77 1424.14,-138.77 1424.14,-138.77 1424.14,-144.77 1418.14,-150.77 1412.14,-150.77"/>
<text text-anchor="start" x="775.99" y="-129.09" font-family="Times,serif" font-weight="bold" font-size="14.00">14: </text>
<text text-anchor="start" x="805.24" y="-129.09" font-family="Times,serif" font-size="14.00">Entspricht der Zeitreihentyp dem zwischen NB (&#252;ber LF) und &#220;NB ausgetauschten?</text>
</g>
<!-- 13&#45;&gt;14 -->
<g id="edge27" class="edge">
<title>13-&gt;14</title>
<path fill="none" stroke="black" d="M1050.14,-203.88C1058.05,-190.9 1068.15,-174.32 1076.55,-160.54"/>
<polygon fill="black" stroke="black" points="1079.3,-162.75 1081.52,-152.39 1073.33,-159.1 1079.3,-162.75"/>
<text text-anchor="middle" x="1077.62" y="-172.72" font-family="Times,serif" font-size="14.00">Ja</text>
</g>
<!-- 14&#45;&gt;A06 -->
<g id="edge28" class="edge">
<title>14-&gt;A06</title>
<path fill="none" stroke="black" d="M1042.18,-114.35C1003.19,-100.95 948.13,-82.03 900.54,-65.67"/>
<polygon fill="black" stroke="black" points="901.91,-62.44 891.32,-62.5 899.63,-69.06 901.91,-62.44"/>
<text text-anchor="middle" x="1006.74" y="-83.47" font-family="Times,serif" font-size="14.00">Nein</text>
</g>
<!-- Ende -->
<g id="node22" class="node">
<title>Ende</title>
<polygon fill="#7a8da1" stroke="black" points="1125.64,-48.76 1060.09,-48.76 1060.09,-12.76 1125.64,-12.76 1125.64,-48.76"/>
<text text-anchor="middle" x="1092.87" y="-26.08" font-family="Times,serif" font-size="14.00">Ende</text>
</g>
<!-- 14&#45;&gt;Ende -->
<g id="edge29" class="edge">
<title>14-&gt;Ende</title>
<path fill="none" stroke="black" d="M1092.87,-114.35C1092.87,-99.51 1092.87,-77.88 1092.87,-60.48"/>
<polygon fill="black" stroke="black" points="1096.37,-60.49 1092.87,-50.49 1089.37,-60.49 1096.37,-60.49"/>
<text text-anchor="middle" x="1099.62" y="-83.47" font-family="Times,serif" font-size="14.00">Ja</text>
</g>
</g>
</svg>
  </g>
</svg>
  </g>
</svg>
