<?xml version='1.0' encoding='ASCII' standalone='yes'?>
<svg xmlns="http://www.w3.org/2000/svg" xmlns:xlink="http://www.w3.org/1999/xlink" version="1.1" width="1760.0px" viewBox="0 0 1760.0 828.0" height="828.0px">
  <g>
    <svg version="1.1" width="1760.0px" viewBox="0 0 1760.0 828.0" height="828.0px">
  <polygon fill="#f3f1f6" points="0,0 1760.0,0 1760.0,828.0 0,828.0"/><g>
    <g transform="translate(549.0456727441955, 82.79999999999998) scale(1 1) translate(0, 0) scale(3.7447259232609333 3.7447259232609333) "><sodipodi:namedview xmlns:sodipodi="http://sodipodi.sourceforge.net/DTD/sodipodi-0.dtd" xmlns:inkscape="http://www.inkscape.org/namespaces/inkscape" id="namedview7" pagecolor="#ffffff" bordercolor="#999999" borderopacity="1" inkscape:pageshadow="0" inkscape:pageopacity="0" inkscape:pagecheckerboard="0" inkscape:document-units="mm" showgrid="false" fit-margin-top="0" fit-margin-left="0" fit-margin-right="0" fit-margin-bottom="0" inkscape:zoom="0.64052329" inkscape:cx="130.36216" inkscape:cy="412.163" inkscape:window-width="1512" inkscape:window-height="916" inkscape:window-x="3840" inkscape:window-y="136" inkscape:window-maximized="0" inkscape:current-layer="layer1"/>
  <defs id="defs2">
    <clipPath clipPathUnits="userSpaceOnUse" id="clipPath23">
      <path d="M 0,568.156 H 579.236 V 0 H 0 Z" id="path21"/>
    </clipPath>
  </defs>
  <g xmlns:inkscape="http://www.inkscape.org/namespaces/inkscape" inkscape:label="Layer 1" inkscape:groupmode="layer" id="layer1" transform="translate(-16.541937,-55.305267)">
    <g id="g19" clip-path="url(#clipPath23)" transform="matrix(0.35277777,0,0,-0.35277777,0.01017023,243.73675)" style="opacity:0.2">
      <g id="g25" transform="translate(122.444,32.7195)">
        <path d="m 0,0 h -56.104 c -11,0 -19.898,9.123 -19.463,20.115 10.594,267.191 231.277,481.302 501.029,481.302 v -56.02 c 0,-10.98 -8.688,-19.892 -19.658,-20.393 C 180.29,414.697 0,228.005 0,0" style="fill:#6ead83;fill-opacity:0.5;fill-rule:nonzero;stroke:none" id="path27"/>
      </g>
      <g id="g29" transform="translate(273.7828,32.7195)">
        <path d="m 0,0 h -55.926 c -11.228,0 -20.091,9.482 -19.435,20.69 10.744,183.439 163.389,329.388 349.485,329.388 v -56.263 c 0,-10.709 -8.273,-19.617 -18.957,-20.35 C 112.819,263.696 0,144.774 0,0" style="fill:#6ead83;fill-opacity:0.5;fill-rule:nonzero;stroke:none" id="path31"/>
      </g>
      <g id="g33" transform="translate(425.7667,32.7195)">
        <path d="m 0,0 h -55.445 c -11.653,0 -20.604,10.17 -19.334,21.753 10.866,99.032 95.031,176.341 196.919,176.341 v -57.011 c 0,-10.046 -7.283,-18.755 -17.229,-20.165 C 45.688,112.522 0,61.497 0,0" style="fill:#6ead83;fill-opacity:0.5;fill-rule:nonzero;stroke:none" id="path35"/>
      </g>
    </g>
  </g>
</g>
    <svg width="1320pt" height="621pt" viewBox="0.00 0.00 1320.18 620.64">
<g id="graph0" class="graph" transform="scale(1 1) rotate(0) translate(4 616.64)">
<title>D</title>
<text text-anchor="start" x="622.71" y="-592.54" font-family="Times,serif" font-weight="bold" font-size="18.00">MaBiS</text>
<text text-anchor="start" x="190.71" y="-562.44" font-family="Times,serif" font-weight="bold" font-size="16.00">7.45.1: AD: &#220;bermittlung Datenstatus f&#252;r die Bilanzkreissummenzeitreihe vom BIKO an &#220;NB und BKV</text>
<!-- Start -->
<g id="node1" class="node">
<title>Start</title>
<polygon fill="#7a8da1" stroke="black" points="803.92,-514.64 629.62,-514.64 629.62,-471.36 803.92,-471.36 803.92,-514.64"/>
<text text-anchor="start" x="688.65" y="-493.7" font-family="Times,serif" font-weight="bold" font-size="14.00">E_0026</text>
<text text-anchor="start" x="644.02" y="-481.6" font-family="Times,serif" font-weight="bold" text-decoration="underline" font-size="12.00">Pr&#252;fende Rolle:</text>
<text text-anchor="start" x="749.02" y="-481.6" font-family="Times,serif" font-weight="bold" font-size="12.00"> BIKO</text>
</g>
<!-- 1 -->
<g id="node2" class="node">
<title>1</title>
<path fill="#7aab8a" stroke="black" d="M942.67,-434.36C942.67,-434.36 490.87,-434.36 490.87,-434.36 484.87,-434.36 478.87,-428.36 478.87,-422.36 478.87,-422.36 478.87,-410.36 478.87,-410.36 478.87,-404.36 484.87,-398.36 490.87,-398.36 490.87,-398.36 942.67,-398.36 942.67,-398.36 948.67,-398.36 954.67,-404.36 954.67,-410.36 954.67,-410.36 954.67,-422.36 954.67,-422.36 954.67,-428.36 948.67,-434.36 942.67,-434.36"/>
<text text-anchor="start" x="493.27" y="-412.68" font-family="Times,serif" font-weight="bold" font-size="14.00">1: </text>
<text text-anchor="start" x="512.77" y="-412.68" font-family="Times,serif" font-size="14.00">Befindet sich der MaBiS-ZP auf der Aggregationsebene RZ?</text>
</g>
<!-- Start&#45;&gt;1 -->
<g id="edge1" class="edge">
<title>Start-&gt;1</title>
<path fill="none" stroke="black" d="M716.77,-471.21C716.77,-463.35 716.77,-454.27 716.77,-445.83"/>
<polygon fill="black" stroke="black" points="720.28,-446.03 716.78,-436.03 713.28,-446.03 720.28,-446.03"/>
</g>
<!-- 2 -->
<g id="node3" class="node">
<title>2</title>
<path fill="#7aab8a" stroke="black" d="M1300.17,-345.11C1300.17,-345.11 731.38,-345.11 731.38,-345.11 725.38,-345.11 719.38,-339.11 719.38,-333.11 719.38,-333.11 719.38,-311.83 719.38,-311.83 719.38,-305.83 725.38,-299.83 731.38,-299.83 731.38,-299.83 1300.17,-299.83 1300.17,-299.83 1306.17,-299.83 1312.17,-305.83 1312.17,-311.83 1312.17,-311.83 1312.17,-333.11 1312.17,-333.11 1312.17,-339.11 1306.17,-345.11 1300.17,-345.11"/>
<text text-anchor="start" x="733.77" y="-324.17" font-family="Times,serif" font-weight="bold" font-size="14.00">2: </text>
<text text-anchor="start" x="753.27" y="-324.17" font-family="Times,serif" font-size="14.00">Hat der BKV f&#252;r den BK dieses MaBiS-ZP in diesem Bilanzierungsmonat die</text>
<text text-anchor="start" x="733.77" y="-310.17" font-family="Times,serif" font-size="14.00">Aggregationsebene RZ abbestellt?</text>
</g>
<!-- 1&#45;&gt;2 -->
<g id="edge2" class="edge">
<title>1-&gt;2</title>
<path fill="none" stroke="black" d="M773.37,-397.97C818.4,-384.13 882.06,-364.56 932.85,-348.96"/>
<polygon fill="black" stroke="black" points="933.83,-352.32 942.36,-346.03 931.77,-345.62 933.83,-352.32"/>
<text text-anchor="middle" x="900.65" y="-367.06" font-family="Times,serif" font-size="14.00">Nein</text>
</g>
<!-- 5 -->
<g id="node9" class="node">
<title>5</title>
<path fill="#7aab8a" stroke="black" d="M688.92,-345.11C688.92,-345.11 148.62,-345.11 148.62,-345.11 142.62,-345.11 136.62,-339.11 136.62,-333.11 136.62,-333.11 136.62,-311.83 136.62,-311.83 136.62,-305.83 142.62,-299.83 148.62,-299.83 148.62,-299.83 688.92,-299.83 688.92,-299.83 694.92,-299.83 700.92,-305.83 700.92,-311.83 700.92,-311.83 700.92,-333.11 700.92,-333.11 700.92,-339.11 694.92,-345.11 688.92,-345.11"/>
<text text-anchor="start" x="151.02" y="-324.17" font-family="Times,serif" font-weight="bold" font-size="14.00">5: </text>
<text text-anchor="start" x="170.52" y="-324.17" font-family="Times,serif" font-size="14.00">Hat der BKV f&#252;r diesen Bilanzierungsmonat bereits mit-geteilt, dass die</text>
<text text-anchor="start" x="151.02" y="-310.17" font-family="Times,serif" font-size="14.00">weiteren Pr&#252;fungen auf Ebene des BG stattfinden m&#252;ssen?</text>
</g>
<!-- 1&#45;&gt;5 -->
<g id="edge3" class="edge">
<title>1-&gt;5</title>
<path fill="none" stroke="black" d="M660.37,-397.97C615.49,-384.13 552.04,-364.56 501.42,-348.96"/>
<polygon fill="black" stroke="black" points="502.54,-345.64 491.95,-346.03 500.47,-352.32 502.54,-345.64"/>
<text text-anchor="middle" x="609.52" y="-367.06" font-family="Times,serif" font-size="14.00">Ja</text>
</g>
<!-- 3 -->
<g id="node4" class="node">
<title>3</title>
<path fill="#7aab8a" stroke="black" d="M1054.92,-246.58C1054.92,-246.58 514.62,-246.58 514.62,-246.58 508.62,-246.58 502.62,-240.58 502.62,-234.58 502.62,-234.58 502.62,-213.3 502.62,-213.3 502.62,-207.3 508.62,-201.3 514.62,-201.3 514.62,-201.3 1054.92,-201.3 1054.92,-201.3 1060.92,-201.3 1066.92,-207.3 1066.92,-213.3 1066.92,-213.3 1066.92,-234.58 1066.92,-234.58 1066.92,-240.58 1060.92,-246.58 1054.92,-246.58"/>
<text text-anchor="start" x="517.02" y="-225.64" font-family="Times,serif" font-weight="bold" font-size="14.00">3: </text>
<text text-anchor="start" x="536.52" y="-225.64" font-family="Times,serif" font-size="14.00">Hat der BKV f&#252;r diesen Bilanzierungsmonat bereits mit-geteilt, dass die</text>
<text text-anchor="start" x="517.02" y="-211.64" font-family="Times,serif" font-size="14.00">weiteren Pr&#252;fungen auf Ebene des BG stattfinden m&#252;ssen?</text>
</g>
<!-- 2&#45;&gt;3 -->
<g id="edge5" class="edge">
<title>2-&gt;3</title>
<path fill="none" stroke="black" d="M963.07,-299.45C928.89,-285.16 884.18,-266.48 848.07,-251.39"/>
<polygon fill="black" stroke="black" points="849.63,-248.25 839.05,-247.62 846.93,-254.71 849.63,-248.25"/>
<text text-anchor="middle" x="930.65" y="-268.53" font-family="Times,serif" font-size="14.00">Nein</text>
</g>
<!-- 4 -->
<g id="node6" class="node">
<title>4</title>
<path fill="#7aab8a" stroke="black" d="M959.92,-143.41C959.92,-143.41 701.62,-143.41 701.62,-143.41 695.62,-143.41 689.62,-137.41 689.62,-131.41 689.62,-131.41 689.62,-119.41 689.62,-119.41 689.62,-113.41 695.62,-107.41 701.62,-107.41 701.62,-107.41 959.92,-107.41 959.92,-107.41 965.92,-107.41 971.92,-113.41 971.92,-119.41 971.92,-119.41 971.92,-131.41 971.92,-131.41 971.92,-137.41 965.92,-143.41 959.92,-143.41"/>
<text text-anchor="start" x="704.02" y="-121.73" font-family="Times,serif" font-weight="bold" font-size="14.00">4: </text>
<text text-anchor="start" x="723.52" y="-121.73" font-family="Times,serif" font-size="14.00">Ist die BKA (ohne KBKA) erfolgt?</text>
</g>
<!-- 2&#45;&gt;4 -->
<g id="edge4" class="edge">
<title>2-&gt;4</title>
<path fill="none" stroke="black" d="M1040.89,-299.35C1066.35,-274.2 1098.94,-232.6 1075.78,-201.3 1058.69,-178.21 996.46,-159.35 939.01,-146.34"/>
<polygon fill="black" stroke="black" points="939.97,-142.97 929.45,-144.22 938.46,-149.8 939.97,-142.97"/>
<text text-anchor="middle" x="1089.53" y="-219.26" font-family="Times,serif" font-size="14.00">Ja</text>
</g>
<!-- Ende -->
<g id="node5" class="node">
<title>Ende</title>
<polygon fill="#7a8da1" stroke="black" points="671.55,-143.41 606,-143.41 606,-107.41 671.55,-107.41 671.55,-143.41"/>
<text text-anchor="middle" x="638.77" y="-120.73" font-family="Times,serif" font-size="14.00">Ende</text>
</g>
<!-- 3&#45;&gt;Ende -->
<g id="edge7" class="edge">
<title>3-&gt;Ende</title>
<path fill="none" stroke="black" d="M751.65,-201.04C728.57,-185.78 697.84,-165.46 674.27,-149.88"/>
<polygon fill="black" stroke="black" points="676.51,-147.16 666.23,-144.57 672.65,-153 676.51,-147.16"/>
<text text-anchor="middle" x="736.65" y="-170" font-family="Times,serif" font-size="14.00">Nein</text>
</g>
<!-- 3&#45;&gt;4 -->
<g id="edge6" class="edge">
<title>3-&gt;4</title>
<path fill="none" stroke="black" d="M795.21,-201.04C801.87,-187.07 810.55,-168.86 817.67,-153.92"/>
<polygon fill="black" stroke="black" points="820.73,-155.63 821.87,-145.1 814.41,-152.62 820.73,-155.63"/>
<text text-anchor="middle" x="816.52" y="-170" font-family="Times,serif" font-size="14.00">Ja</text>
</g>
<!-- A03 -->
<g id="node7" class="node">
<title>A03</title>
<polygon fill="#cfb986" stroke="black" points="510.39,-49.52 275.16,-49.52 275.16,0 510.39,0 510.39,-49.52"/>
<text text-anchor="start" x="377.77" y="-31.46" font-family="Times,serif" font-weight="bold" font-size="14.00">A03</text>
<text text-anchor="start" x="287.4" y="-19.36" font-family="Times,serif" text-decoration="underline" font-size="12.00">Hinweis:</text>
<text text-anchor="start" x="287.4" y="-7.36" font-family="Times,serif" font-size="12.00">Datenstatus &#8222;Abgerechnete Daten&#8220;</text>
</g>
<!-- 4&#45;&gt;A03 -->
<g id="edge8" class="edge">
<title>4-&gt;A03</title>
<path fill="none" stroke="black" d="M753.23,-106.94C686.25,-91.86 588.42,-69.82 511.57,-52.52"/>
<polygon fill="black" stroke="black" points="512.39,-49.11 501.87,-50.33 510.85,-55.94 512.39,-49.11"/>
<text text-anchor="middle" x="657.52" y="-71.47" font-family="Times,serif" font-size="14.00">Ja</text>
</g>
<!-- A06 -->
<g id="node8" class="node">
<title>A06</title>
<polygon fill="#cfb986" stroke="black" points="934.89,-49.52 660.66,-49.52 660.66,0 934.89,0 934.89,-49.52"/>
<text text-anchor="start" x="782.77" y="-31.46" font-family="Times,serif" font-weight="bold" font-size="14.00">A06</text>
<text text-anchor="start" x="672.9" y="-19.36" font-family="Times,serif" text-decoration="underline" font-size="12.00">Hinweis:</text>
<text text-anchor="start" x="672.9" y="-7.36" font-family="Times,serif" font-size="12.00">Datenstatus &#8222;Abgerechnete Daten KBKA&#8220;</text>
</g>
<!-- 4&#45;&gt;A06 -->
<g id="edge9" class="edge">
<title>4-&gt;A06</title>
<path fill="none" stroke="black" d="M825.03,-107.23C820.71,-94.31 814.64,-76.18 809.33,-60.31"/>
<polygon fill="black" stroke="black" points="812.78,-59.57 806.29,-51.2 806.14,-61.8 812.78,-59.57"/>
<text text-anchor="middle" x="833.65" y="-71.47" font-family="Times,serif" font-size="14.00">Nein</text>
</g>
<!-- 5&#45;&gt;Ende -->
<g id="edge10" class="edge">
<title>5-&gt;Ende</title>
<path fill="none" stroke="black" d="M425.04,-299.69C433.6,-273.31 451.32,-229 480.27,-201.3 519,-164.25 542.68,-171.81 595.6,-148.33"/>
<polygon fill="black" stroke="black" points="596.87,-151.6 604.46,-144.21 593.92,-145.25 596.87,-151.6"/>
<text text-anchor="middle" x="486.52" y="-219.26" font-family="Times,serif" font-size="14.00">Ja</text>
</g>
<!-- 6 -->
<g id="node10" class="node">
<title>6</title>
<path fill="#7aab8a" stroke="black" d="M422.92,-241.94C422.92,-241.94 164.62,-241.94 164.62,-241.94 158.62,-241.94 152.62,-235.94 152.62,-229.94 152.62,-229.94 152.62,-217.94 152.62,-217.94 152.62,-211.94 158.62,-205.94 164.62,-205.94 164.62,-205.94 422.92,-205.94 422.92,-205.94 428.92,-205.94 434.92,-211.94 434.92,-217.94 434.92,-217.94 434.92,-229.94 434.92,-229.94 434.92,-235.94 428.92,-241.94 422.92,-241.94"/>
<text text-anchor="start" x="167.02" y="-220.26" font-family="Times,serif" font-weight="bold" font-size="14.00">6: </text>
<text text-anchor="start" x="186.52" y="-220.26" font-family="Times,serif" font-size="14.00">Ist die BKA (ohne KBKA) erfolgt?</text>
</g>
<!-- 5&#45;&gt;6 -->
<g id="edge11" class="edge">
<title>5-&gt;6</title>
<path fill="none" stroke="black" d="M390.41,-299.57C371.01,-284.58 345.28,-264.71 325.24,-249.24"/>
<polygon fill="black" stroke="black" points="327.46,-246.53 317.4,-243.19 323.18,-252.07 327.46,-246.53"/>
<text text-anchor="middle" x="379.65" y="-268.53" font-family="Times,serif" font-size="14.00">Nein</text>
</g>
<!-- 7 -->
<g id="node11" class="node">
<title>7</title>
<path fill="#7aab8a" stroke="black" d="M575.55,-148.05C575.55,-148.05 12,-148.05 12,-148.05 6,-148.05 0,-142.05 0,-136.05 0,-136.05 0,-114.77 0,-114.77 0,-108.77 6,-102.77 12,-102.77 12,-102.77 575.55,-102.77 575.55,-102.77 581.55,-102.77 587.55,-108.77 587.55,-114.77 587.55,-114.77 587.55,-136.05 587.55,-136.05 587.55,-142.05 581.55,-148.05 575.55,-148.05"/>
<text text-anchor="start" x="14.4" y="-127.11" font-family="Times,serif" font-weight="bold" font-size="14.00">7: </text>
<text text-anchor="start" x="33.9" y="-127.11" font-family="Times,serif" font-size="14.00">Hat die zugeh&#246;rige Version auf der Aggregationsebene RZ den Datenstatus</text>
<text text-anchor="start" x="14.4" y="-113.11" font-family="Times,serif" font-size="14.00">&#8222;Abgerechnete Daten&#8220;?</text>
</g>
<!-- 6&#45;&gt;7 -->
<g id="edge12" class="edge">
<title>6-&gt;7</title>
<path fill="none" stroke="black" d="M293.77,-205.68C293.77,-192.89 293.77,-175.06 293.77,-159.55"/>
<polygon fill="black" stroke="black" points="297.28,-159.77 293.78,-149.77 290.28,-159.77 297.28,-159.77"/>
<text text-anchor="middle" x="310.65" y="-170" font-family="Times,serif" font-size="14.00">Nein</text>
</g>
<!-- 7&#45;&gt;A03 -->
<g id="edge13" class="edge">
<title>7-&gt;A03</title>
<path fill="none" stroke="black" d="M315.75,-102.52C328.92,-89.39 345.9,-72.47 360.56,-57.86"/>
<polygon fill="black" stroke="black" points="362.75,-60.62 367.36,-51.08 357.81,-55.66 362.75,-60.62"/>
<text text-anchor="middle" x="355.52" y="-71.47" font-family="Times,serif" font-size="14.00">Ja</text>
</g>
<!-- 7&#45;&gt;A06 -->
<g id="edge14" class="edge">
<title>7-&gt;A06</title>
<path fill="none" stroke="black" d="M386.43,-102.29C434.25,-91.2 493.62,-77.96 547.02,-67.52 579.91,-61.09 615.34,-54.81 648.92,-49.14"/>
<polygon fill="black" stroke="black" points="649.45,-52.6 658.73,-47.49 648.29,-45.7 649.45,-52.6"/>
<text text-anchor="middle" x="563.65" y="-71.47" font-family="Times,serif" font-size="14.00">Nein</text>
</g>
</g>
</svg>
  </g>
</svg>
  </g>
</svg>
