<?xml version='1.0' encoding='ASCII' standalone='yes'?>
<svg xmlns="http://www.w3.org/2000/svg" xmlns:xlink="http://www.w3.org/1999/xlink" version="1.1" width="1288.0px" viewBox="0 0 1288.0 614.6666666666666" height="614.6666666666666px">
  <g>
    <svg version="1.1" width="1288.0px" viewBox="0 0 1288.0 614.6666666666666" height="614.6666666666666px">
  <polygon fill="#f3f1f6" points="0,0 1288.0,0 1288.0,614.6666666666666 0,614.6666666666666"/><g>
    <g transform="translate(398.3157087521323, 61.46666666666665) scale(1 1) translate(0, 0) scale(2.7799012087331563 2.7799012087331563) "><sodipodi:namedview xmlns:sodipodi="http://sodipodi.sourceforge.net/DTD/sodipodi-0.dtd" xmlns:inkscape="http://www.inkscape.org/namespaces/inkscape" id="namedview7" pagecolor="#ffffff" bordercolor="#999999" borderopacity="1" inkscape:pageshadow="0" inkscape:pageopacity="0" inkscape:pagecheckerboard="0" inkscape:document-units="mm" showgrid="false" fit-margin-top="0" fit-margin-left="0" fit-margin-right="0" fit-margin-bottom="0" inkscape:zoom="0.64052329" inkscape:cx="130.36216" inkscape:cy="412.163" inkscape:window-width="1512" inkscape:window-height="916" inkscape:window-x="3840" inkscape:window-y="136" inkscape:window-maximized="0" inkscape:current-layer="layer1"/>
  <defs id="defs2">
    <clipPath clipPathUnits="userSpaceOnUse" id="clipPath23">
      <path d="M 0,568.156 H 579.236 V 0 H 0 Z" id="path21"/>
    </clipPath>
  </defs>
  <g xmlns:inkscape="http://www.inkscape.org/namespaces/inkscape" inkscape:label="Layer 1" inkscape:groupmode="layer" id="layer1" transform="translate(-16.541937,-55.305267)">
    <g id="g19" clip-path="url(#clipPath23)" transform="matrix(0.35277777,0,0,-0.35277777,0.01017023,243.73675)" style="opacity:0.2">
      <g id="g25" transform="translate(122.444,32.7195)">
        <path d="m 0,0 h -56.104 c -11,0 -19.898,9.123 -19.463,20.115 10.594,267.191 231.277,481.302 501.029,481.302 v -56.02 c 0,-10.98 -8.688,-19.892 -19.658,-20.393 C 180.29,414.697 0,228.005 0,0" style="fill:#6ead83;fill-opacity:0.5;fill-rule:nonzero;stroke:none" id="path27"/>
      </g>
      <g id="g29" transform="translate(273.7828,32.7195)">
        <path d="m 0,0 h -55.926 c -11.228,0 -20.091,9.482 -19.435,20.69 10.744,183.439 163.389,329.388 349.485,329.388 v -56.263 c 0,-10.709 -8.273,-19.617 -18.957,-20.35 C 112.819,263.696 0,144.774 0,0" style="fill:#6ead83;fill-opacity:0.5;fill-rule:nonzero;stroke:none" id="path31"/>
      </g>
      <g id="g33" transform="translate(425.7667,32.7195)">
        <path d="m 0,0 h -55.445 c -11.653,0 -20.604,10.17 -19.334,21.753 10.866,99.032 95.031,176.341 196.919,176.341 v -57.011 c 0,-10.046 -7.283,-18.755 -17.229,-20.165 C 45.688,112.522 0,61.497 0,0" style="fill:#6ead83;fill-opacity:0.5;fill-rule:nonzero;stroke:none" id="path35"/>
      </g>
    </g>
  </g>
</g>
    <svg width="966pt" height="461pt" viewBox="0.00 0.00 966.00 461.10">
<g id="graph0" class="graph" transform="scale(1 1) rotate(0) translate(4 457.1)">
<title>D</title>
<text text-anchor="start" x="8" y="-433" font-family="Times,serif" font-weight="bold" font-size="18.00">MaBiS</text>
<text text-anchor="start" x="8" y="-402.9" font-family="Times,serif" font-weight="bold" font-size="16.00">7.34.1: AD: &#220;bermittlung Pr&#252;fmitteilung f&#252;r die Bilanzkreissummenzeitreihe vom BKV an BIKO und NB</text>
<!-- Start -->
<g id="node1" class="node">
<title>Start</title>
<path fill="#7a8da1" stroke="black" stroke-width="0" d="M437.15,-355.1C437.15,-355.1 292.85,-355.1 292.85,-355.1 286.85,-355.1 280.85,-349.1 280.85,-343.1 280.85,-343.1 280.85,-323.82 280.85,-323.82 280.85,-317.82 286.85,-311.82 292.85,-311.82 292.85,-311.82 437.15,-311.82 437.15,-311.82 443.15,-311.82 449.15,-317.82 449.15,-323.82 449.15,-323.82 449.15,-343.1 449.15,-343.1 449.15,-349.1 443.15,-355.1 437.15,-355.1"/>
<text text-anchor="start" x="336.88" y="-334.16" font-family="Times,serif" font-weight="bold" font-size="14.00">E_0063</text>
<text text-anchor="start" x="295.25" y="-322.06" font-family="Times,serif" font-weight="bold" text-decoration="underline" font-size="12.00">Pr&#252;fende Rolle:</text>
<text text-anchor="start" x="400.25" y="-322.06" font-family="Times,serif" font-weight="bold" font-size="12.00"> BKV</text>
</g>
<!-- 1 -->
<g id="node2" class="node">
<title>1</title>
<path fill="#7aab8a" stroke="black" stroke-width="0" d="M651.27,-274.82C651.27,-274.82 78.73,-274.82 78.73,-274.82 72.73,-274.82 66.73,-268.82 66.73,-262.82 66.73,-262.82 66.73,-241.54 66.73,-241.54 66.73,-235.54 72.73,-229.54 78.73,-229.54 78.73,-229.54 651.27,-229.54 651.27,-229.54 657.27,-229.54 663.27,-235.54 663.27,-241.54 663.27,-241.54 663.27,-262.82 663.27,-262.82 663.27,-268.82 657.27,-274.82 651.27,-274.82"/>
<text text-anchor="start" x="81.12" y="-253.88" font-family="Times,serif" font-weight="bold" font-size="14.00">1: </text>
<text text-anchor="start" x="100.62" y="-253.88" font-family="Times,serif" font-size="14.00">Liegt die Version der Zeitreihe des MaBiS-ZP f&#252;r diesen Bilanzierungsmonat</text>
<text text-anchor="start" x="81.12" y="-239.88" font-family="Times,serif" font-size="14.00">bereits vor?</text>
</g>
<!-- Start&#45;&gt;1 -->
<g id="edge1" class="edge">
<title>Start-&gt;1</title>
<path fill="none" stroke="black" d="M365,-312.04C365,-304.07 365,-294.72 365,-285.86"/>
<polygon fill="black" stroke="black" points="368.5,-286.15 365,-276.15 361.5,-286.15 368.5,-286.15"/>
</g>
<!-- A01 -->
<g id="node3" class="node">
<title>A01</title>
<path fill="#cfb986" stroke="black" stroke-width="0" d="M276.87,-176.29C276.87,-176.29 109.13,-176.29 109.13,-176.29 103.13,-176.29 97.14,-170.29 97.14,-164.29 97.14,-164.29 97.14,-126.77 97.14,-126.77 97.14,-120.77 103.14,-114.77 109.14,-114.77 109.14,-114.77 276.87,-114.77 276.87,-114.77 282.87,-114.77 288.87,-120.77 288.87,-126.77 288.87,-126.77 288.87,-164.29 288.87,-164.29 288.87,-170.29 282.87,-176.29 276.87,-176.29"/>
<text text-anchor="start" x="109.38" y="-158.23" font-family="Times,serif" font-weight="bold" font-size="14.00">A01</text>
<text text-anchor="start" x="109.38" y="-146.13" font-family="Times,serif" text-decoration="underline" font-size="12.00">Hinweis:</text>
<text text-anchor="start" x="109.38" y="-134.13" font-family="Times,serif" font-size="12.00">Cluster: Abweisung</text>
<text text-anchor="start" x="109.38" y="-122.13" font-family="Times,serif" font-size="12.00">Zeitreihe bereits vorhanden</text>
</g>
<!-- 1&#45;&gt;A01 -->
<g id="edge2" class="edge">
<title>1-&gt;A01</title>
<path fill="none" stroke="#7aab8a" d="M329.78,-229.75C307.29,-216.07 277.59,-198 251.62,-182.19"/>
<polygon fill="#7aab8a" stroke="#7aab8a" points="253.52,-179.26 243.16,-177.05 249.88,-185.24 253.52,-179.26"/>
<text text-anchor="start" x="299" y="-199.24" font-family="Times,serif" font-weight="bold" font-size="14.00">JA</text>
</g>
<!-- 2 -->
<g id="node4" class="node">
<title>2</title>
<path fill="#7aab8a" stroke="black" stroke-width="0" d="M879.27,-168.17C879.27,-168.17 318.73,-168.17 318.73,-168.17 312.73,-168.17 306.73,-162.17 306.73,-156.17 306.73,-156.17 306.73,-134.89 306.73,-134.89 306.73,-128.89 312.73,-122.89 318.73,-122.89 318.73,-122.89 879.27,-122.89 879.27,-122.89 885.27,-122.89 891.27,-128.89 891.27,-134.89 891.27,-134.89 891.27,-156.17 891.27,-156.17 891.27,-162.17 885.27,-168.17 879.27,-168.17"/>
<text text-anchor="start" x="321.12" y="-147.23" font-family="Times,serif" font-weight="bold" font-size="14.00">2: </text>
<text text-anchor="start" x="340.62" y="-147.23" font-family="Times,serif" font-size="14.00">Entsprechen die Energiemengen der BK-SZR (Kategorie A) den erwarteten</text>
<text text-anchor="start" x="321.12" y="-133.23" font-family="Times,serif" font-size="14.00">Energiemengen?</text>
</g>
<!-- 1&#45;&gt;2 -->
<g id="edge3" class="edge">
<title>1-&gt;2</title>
<path fill="none" stroke="#7aab8a" d="M413.2,-229.62C450.09,-213.13 501.13,-190.3 540.38,-172.75"/>
<polygon fill="#7aab8a" stroke="#7aab8a" points="541.78,-175.95 549.48,-168.68 538.92,-169.56 541.78,-175.95"/>
<text text-anchor="start" x="489" y="-199.24" font-family="Times,serif" font-weight="bold" font-size="14.00">NEIN</text>
</g>
<!-- A02 -->
<g id="node5" class="node">
<title>A02</title>
<path fill="#cfb986" stroke="black" stroke-width="0" d="M603.12,-61.52C603.12,-61.52 376.88,-61.52 376.88,-61.52 370.88,-61.52 364.88,-55.52 364.88,-49.52 364.88,-49.52 364.88,-12 364.88,-12 364.88,-6 370.88,0 376.88,0 376.88,0 603.12,0 603.12,0 609.12,0 615.12,-6 615.12,-12 615.12,-12 615.12,-49.52 615.12,-49.52 615.12,-55.52 609.12,-61.52 603.12,-61.52"/>
<text text-anchor="start" x="377.12" y="-43.46" font-family="Times,serif" font-weight="bold" font-size="14.00">A02</text>
<text text-anchor="start" x="377.12" y="-31.36" font-family="Times,serif" text-decoration="underline" font-size="12.00">Hinweis:</text>
<text text-anchor="start" x="377.12" y="-19.36" font-family="Times,serif" font-size="12.00">Cluster: Ablehnung</text>
<text text-anchor="start" x="377.12" y="-7.36" font-family="Times,serif" font-size="12.00">Energiemenge falsch / nicht plausibel</text>
</g>
<!-- 2&#45;&gt;A02 -->
<g id="edge4" class="edge">
<title>2-&gt;A02</title>
<path fill="none" stroke="#7aab8a" d="M578.24,-123.05C563.56,-107.87 543.51,-87.12 526.22,-69.23"/>
<polygon fill="#7aab8a" stroke="#7aab8a" points="529.02,-67.1 519.56,-62.34 523.99,-71.96 529.02,-67.1"/>
<text text-anchor="start" x="551" y="-84.47" font-family="Times,serif" font-weight="bold" font-size="14.00">NEIN</text>
</g>
<!-- A03 -->
<g id="node6" class="node">
<title>A03</title>
<path fill="#cfb986" stroke="black" stroke-width="0" d="M771.24,-61.52C771.24,-61.52 644.76,-61.52 644.76,-61.52 638.76,-61.52 632.76,-55.52 632.76,-49.52 632.76,-49.52 632.76,-12 632.76,-12 632.76,-6 638.76,0 644.76,0 644.76,0 771.24,0 771.24,0 777.24,0 783.24,-6 783.24,-12 783.24,-12 783.24,-49.52 783.24,-49.52 783.24,-55.52 777.24,-61.52 771.24,-61.52"/>
<text text-anchor="start" x="645" y="-43.46" font-family="Times,serif" font-weight="bold" font-size="14.00">A03</text>
<text text-anchor="start" x="645" y="-31.36" font-family="Times,serif" text-decoration="underline" font-size="12.00">Hinweis:</text>
<text text-anchor="start" x="645" y="-19.36" font-family="Times,serif" font-size="12.00">Cluster: Zustimmung</text>
<text text-anchor="start" x="645" y="-7.36" font-family="Times,serif" font-size="12.00">Zeitreihe akzeptiert</text>
</g>
<!-- 2&#45;&gt;A03 -->
<g id="edge5" class="edge">
<title>2-&gt;A03</title>
<path fill="none" stroke="#7aab8a" d="M619.76,-123.05C634.44,-107.87 654.49,-87.12 671.78,-69.23"/>
<polygon fill="#7aab8a" stroke="#7aab8a" points="674.01,-71.96 678.44,-62.34 668.98,-67.1 674.01,-71.96"/>
<text text-anchor="start" x="660" y="-84.47" font-family="Times,serif" font-weight="bold" font-size="14.00">JA</text>
</g>
</g>
</svg>
  </g>
</svg>
  </g>
</svg>
