<?xml version='1.0' encoding='ASCII' standalone='yes'?>
<svg xmlns="http://www.w3.org/2000/svg" xmlns:xlink="http://www.w3.org/1999/xlink" version="1.1" width="1385.3333333333333px" viewBox="0 0 1385.3333333333333 420.0" height="420.0px">
  <g>
    <svg version="1.1" width="1385.3333333333333px" viewBox="0 0 1385.3333333333333 420.0" height="420.0px">
  <rect fill="#e7e6e5" x="0" y="0" width="1385.3333333333333" height="420.0" rx="20" ry="20"/><g>
    <g transform="translate(521.3904064582746, 41.99999999999999) scale(1 1) translate(0, 0) scale(0.5913827090960293 0.5913827090960293) "><!-- note that I manually added the width and height attribute to the root node
  https://chatgpt.com/share/678e3028-70cc-800b-a296-782714735772
  -->
  <defs>
    <style>.cls-1{fill:#fff;}</style>
  </defs>
  <path class="cls-1" d="M122.44,531.2h-56.1c-11,0-19.9-9.12-19.46-20.11C57.47,243.89,278.15,29.78,547.91,29.78v56.02c0,10.98-8.69,19.89-19.66,20.39-225.51,10.31-405.8,197-405.8,425Z"/>
  <path class="cls-1" d="M273.78,531.2h-55.93c-11.23,0-20.09-9.48-19.43-20.69,10.74-183.44,163.39-329.39,349.48-329.39v56.26c0,10.71-8.27,19.62-18.96,20.35-142.35,9.77-255.17,128.69-255.17,273.46Z"/>
  <path class="cls-1" d="M425.77,531.2h-55.45c-11.65,0-20.6-10.17-19.33-21.75,10.87-99.03,95.03-176.34,196.92-176.34v57.01c0,10.05-7.28,18.75-17.23,20.16-59.22,8.4-104.91,59.42-104.91,120.92Z"/>
</g>
    <svg width="1039pt" height="315pt" viewBox="0.00 0.00 1038.75 314.81">
<g id="graph0" class="graph" transform="scale(1 1) rotate(0) translate(4 310.81)">
<title>D</title>
<text text-anchor="start" x="8" y="-286.71" font-family="Roboto, sans-serif" font-weight="bold" font-size="18.00">MaBiS</text>
<text text-anchor="start" x="8" y="-258.61" font-family="Roboto, sans-serif" font-weight="bold" font-size="16.00">7.31.1: AD: Anforderung und &#220;bermittlung Bilanzkreiszuordnungsliste zwischen NB und BKV (Einzelanforderung)</text>
<!-- Start -->
<g id="node1" class="node">
<title>Start</title>
<path fill="#8ba2d7" stroke="black" stroke-width="0" d="M583.77,-216.81C583.77,-216.81 446.98,-216.81 446.98,-216.81 440.98,-216.81 434.98,-210.81 434.98,-204.81 434.98,-204.81 434.98,-183.53 434.98,-183.53 434.98,-177.53 440.98,-171.53 446.98,-171.53 446.98,-171.53 583.77,-171.53 583.77,-171.53 589.77,-171.53 595.77,-177.53 595.77,-183.53 595.77,-183.53 595.77,-204.81 595.77,-204.81 595.77,-210.81 589.77,-216.81 583.77,-216.81"/>
<text text-anchor="start" x="449.38" y="-195.87" font-family="Roboto, sans-serif" font-weight="bold" font-size="14.00">E_0068</text>
<text text-anchor="start" x="449.38" y="-181.87" font-family="Roboto, sans-serif" font-size="14.00">Pr&#252;fende Rolle: </text>
<text text-anchor="start" x="558.88" y="-181.87" font-family="Roboto, sans-serif" font-weight="bold" font-size="14.00">NB</text>
</g>
<!-- 1 -->
<g id="node2" class="node">
<title>1</title>
<path fill="#c2cee9" stroke="black" stroke-width="0" d="M808.77,-134.53C808.77,-134.53 221.98,-134.53 221.98,-134.53 215.98,-134.53 209.98,-128.53 209.98,-122.53 209.98,-122.53 209.98,-101.25 209.98,-101.25 209.98,-95.25 215.98,-89.25 221.98,-89.25 221.98,-89.25 808.77,-89.25 808.77,-89.25 814.77,-89.25 820.77,-95.25 820.77,-101.25 820.77,-101.25 820.77,-122.53 820.77,-122.53 820.77,-128.53 814.77,-134.53 808.77,-134.53"/>
<text text-anchor="start" x="224.38" y="-113.59" font-family="Roboto, sans-serif" font-weight="bold" font-size="14.00">1: </text>
<text text-anchor="start" x="243.88" y="-113.59" font-family="Roboto, sans-serif" font-size="14.00">Sind in dem angefragten Gebiet (Bilanzierungsgebiet oder Regelzone) f&#252;r diesen</text>
<text text-anchor="start" x="224.38" y="-99.59" font-family="Roboto, sans-serif" font-size="14.00">Bilanzkreis LF-SZR zum angegebenen Zeitpunkt g&#252;ltig?</text>
</g>
<!-- Start&#45;&gt;1 -->
<g id="edge1" class="edge">
<title>Start-&gt;1</title>
<path fill="none" stroke="#88a0d6" d="M515.38,-171.66C515.38,-163.74 515.38,-154.58 515.38,-145.88"/>
<polygon fill="#88a0d6" stroke="#88a0d6" points="518.88,-145.98 515.38,-135.98 511.88,-145.98 518.88,-145.98"/>
</g>
<!-- A01 -->
<g id="node3" class="node">
<title>A01</title>
<path fill="#c4cac1" stroke="black" stroke-width="0" d="M530.02,-36C530.02,-36 346.73,-36 346.73,-36 340.73,-36 334.73,-30 334.73,-24 334.73,-24 334.73,-12 334.73,-12 334.73,-6 340.73,0 346.73,0 346.73,0 530.02,0 530.02,0 536.02,0 542.02,-6 542.02,-12 542.02,-12 542.02,-24 542.02,-24 542.02,-30 536.02,-36 530.02,-36"/>
<text text-anchor="start" x="349.12" y="-13.32" font-family="Roboto, sans-serif" font-size="14.00">Kein Lieferant zugeordnet</text>
</g>
<!-- 1&#45;&gt;A01 -->
<g id="edge2" class="edge">
<title>1-&gt;A01</title>
<path fill="none" stroke="#88a0d6" d="M497.52,-89.58C486.29,-76.18 471.74,-58.82 459.88,-44.67"/>
<polygon fill="#88a0d6" stroke="#88a0d6" points="462.62,-42.48 453.51,-37.07 457.26,-46.98 462.62,-42.48"/>
<text text-anchor="start" x="481.38" y="-58.95" font-family="Roboto, sans-serif" font-weight="bold" font-size="14.00">NEIN</text>
</g>
<!-- Ende -->
<g id="node4" class="node">
<title>Ende</title>
<path fill="#8ba2d7" stroke="black" stroke-width="0" d="M612.4,-36C612.4,-36 572.35,-36 572.35,-36 566.35,-36 560.35,-30 560.35,-24 560.35,-24 560.35,-12 560.35,-12 560.35,-6 566.35,0 572.35,0 572.35,0 612.4,0 612.4,0 618.4,0 624.4,-6 624.4,-12 624.4,-12 624.4,-24 624.4,-24 624.4,-30 618.4,-36 612.4,-36"/>
<text text-anchor="middle" x="592.38" y="-13.32" font-family="Roboto, sans-serif" font-size="14.00">Ende</text>
</g>
<!-- 1&#45;&gt;Ende -->
<g id="edge3" class="edge">
<title>1-&gt;Ende</title>
<path fill="none" stroke="#88a0d6" d="M533.23,-89.58C544.46,-76.18 559.01,-58.82 570.87,-44.67"/>
<polygon fill="#88a0d6" stroke="#88a0d6" points="573.49,-46.98 577.24,-37.07 568.13,-42.48 573.49,-46.98"/>
<text text-anchor="start" x="562.38" y="-58.95" font-family="Roboto, sans-serif" font-weight="bold" font-size="14.00">JA</text>
</g>
</g>
</svg>
  </g>
</svg>
  </g>
</svg>
