<?xml version='1.0' encoding='ASCII' standalone='yes'?>
<svg xmlns="http://www.w3.org/2000/svg" xmlns:xlink="http://www.w3.org/1999/xlink" version="1.1" width="1850.6666666666667px" viewBox="0 0 1850.6666666666667 1920.0" height="1920.0px">
  <g>
    <svg version="1.1" width="1850.6666666666667px" viewBox="0 0 1850.6666666666667 1920.0" height="1920.0px">
  <polygon fill="#f3f1f6" points="0,0 1850.6666666666667,0 1850.6666666666667,1920.0 0,1920.0"/><g>
    <g transform="translate(185.06666666666663, 219.1838214265258) scale(1 1) translate(0, 0) scale(8.376067476676296 8.376067476676296) "><sodipodi:namedview xmlns:sodipodi="http://sodipodi.sourceforge.net/DTD/sodipodi-0.dtd" xmlns:inkscape="http://www.inkscape.org/namespaces/inkscape" id="namedview7" pagecolor="#ffffff" bordercolor="#999999" borderopacity="1" inkscape:pageshadow="0" inkscape:pageopacity="0" inkscape:pagecheckerboard="0" inkscape:document-units="mm" showgrid="false" fit-margin-top="0" fit-margin-left="0" fit-margin-right="0" fit-margin-bottom="0" inkscape:zoom="0.64052329" inkscape:cx="130.36216" inkscape:cy="412.163" inkscape:window-width="1512" inkscape:window-height="916" inkscape:window-x="3840" inkscape:window-y="136" inkscape:window-maximized="0" inkscape:current-layer="layer1"/>
  <defs id="defs2">
    <clipPath clipPathUnits="userSpaceOnUse" id="clipPath23">
      <path d="M 0,568.156 H 579.236 V 0 H 0 Z" id="path21"/>
    </clipPath>
  </defs>
  <g xmlns:inkscape="http://www.inkscape.org/namespaces/inkscape" inkscape:label="Layer 1" inkscape:groupmode="layer" id="layer1" transform="translate(-16.541937,-55.305267)">
    <g id="g19" clip-path="url(#clipPath23)" transform="matrix(0.35277777,0,0,-0.35277777,0.01017023,243.73675)" style="opacity:0.2">
      <g id="g25" transform="translate(122.444,32.7195)">
        <path d="m 0,0 h -56.104 c -11,0 -19.898,9.123 -19.463,20.115 10.594,267.191 231.277,481.302 501.029,481.302 v -56.02 c 0,-10.98 -8.688,-19.892 -19.658,-20.393 C 180.29,414.697 0,228.005 0,0" style="fill:#6ead83;fill-opacity:0.5;fill-rule:nonzero;stroke:none" id="path27"/>
      </g>
      <g id="g29" transform="translate(273.7828,32.7195)">
        <path d="m 0,0 h -55.926 c -11.228,0 -20.091,9.482 -19.435,20.69 10.744,183.439 163.389,329.388 349.485,329.388 v -56.263 c 0,-10.709 -8.273,-19.617 -18.957,-20.35 C 112.819,263.696 0,144.774 0,0" style="fill:#6ead83;fill-opacity:0.5;fill-rule:nonzero;stroke:none" id="path31"/>
      </g>
      <g id="g33" transform="translate(425.7667,32.7195)">
        <path d="m 0,0 h -55.445 c -11.653,0 -20.604,10.17 -19.334,21.753 10.866,99.032 95.031,176.341 196.919,176.341 v -57.011 c 0,-10.046 -7.283,-18.755 -17.229,-20.165 C 45.688,112.522 0,61.497 0,0" style="fill:#6ead83;fill-opacity:0.5;fill-rule:nonzero;stroke:none" id="path35"/>
      </g>
    </g>
  </g>
</g>
    <svg width="1388pt" height="1440pt" viewBox="0.00 0.00 1388.46 1440.00">
<g id="graph0" class="graph" transform="scale(0.90027 0.90027) rotate(0) translate(4 1595.52)">
<title>D</title>
<text text-anchor="start" x="733.76" y="-1571.42" font-family="Times,serif" font-weight="bold" font-size="18.00">MaBiS</text>
<text text-anchor="start" x="383.51" y="-1541.32" font-family="Times,serif" font-weight="bold" font-size="16.00">7.60.1: AD: Aktivierung eines MaBiS-ZP f&#252;r die mtl. AA&#220;Z zwischen NB und BKV(LF)</text>
<!-- Start -->
<g id="node1" class="node">
<title>Start</title>
<polygon fill="#7a8da1" stroke="black" points="408.76,-1493.52 234.47,-1493.52 234.47,-1450.24 408.76,-1450.24 408.76,-1493.52"/>
<text text-anchor="start" x="293.49" y="-1472.58" font-family="Times,serif" font-weight="bold" font-size="14.00">E_0071</text>
<text text-anchor="start" x="248.87" y="-1460.48" font-family="Times,serif" font-weight="bold" text-decoration="underline" font-size="12.00">Pr&#252;fende Rolle:</text>
<text text-anchor="start" x="353.87" y="-1460.48" font-family="Times,serif" font-weight="bold" font-size="12.00"> BIKO</text>
</g>
<!-- 1 -->
<g id="node2" class="node">
<title>1</title>
<path fill="#7aab8a" stroke="black" d="M574.14,-1413.24C574.14,-1413.24 69.09,-1413.24 69.09,-1413.24 63.09,-1413.24 57.09,-1407.24 57.09,-1401.24 57.09,-1401.24 57.09,-1389.24 57.09,-1389.24 57.09,-1383.24 63.09,-1377.24 69.09,-1377.24 69.09,-1377.24 574.14,-1377.24 574.14,-1377.24 580.14,-1377.24 586.14,-1383.24 586.14,-1389.24 586.14,-1389.24 586.14,-1401.24 586.14,-1401.24 586.14,-1407.24 580.14,-1413.24 574.14,-1413.24"/>
<text text-anchor="start" x="71.49" y="-1391.57" font-family="Times,serif" font-weight="bold" font-size="14.00">1: </text>
<text text-anchor="start" x="90.99" y="-1391.57" font-family="Times,serif" font-size="14.00">Erfolgt die Aktivierung nach Ablauf der Clearingfrist f&#252;r die KBKA?</text>
</g>
<!-- Start&#45;&gt;1 -->
<g id="edge1" class="edge">
<title>Start-&gt;1</title>
<path fill="none" stroke="black" d="M321.62,-1450.09C321.62,-1442.23 321.62,-1433.15 321.62,-1424.71"/>
<polygon fill="black" stroke="black" points="325.12,-1424.91 321.62,-1414.91 318.12,-1424.91 325.12,-1424.91"/>
</g>
<!-- A01 -->
<g id="node3" class="node">
<title>A01</title>
<polygon fill="#cfb986" stroke="black" points="159.86,-1323.99 15.38,-1323.99 15.38,-1262.47 159.86,-1262.47 159.86,-1323.99"/>
<text text-anchor="start" x="72.62" y="-1305.93" font-family="Times,serif" font-weight="bold" font-size="14.00">A01</text>
<text text-anchor="start" x="27.62" y="-1293.83" font-family="Times,serif" text-decoration="underline" font-size="12.00">Hinweis:</text>
<text text-anchor="start" x="27.62" y="-1281.83" font-family="Times,serif" font-size="12.00">Cluster: Ablehnung</text>
<text text-anchor="start" x="27.62" y="-1269.83" font-family="Times,serif" font-size="12.00">Frist&#252;berschreitung</text>
</g>
<!-- 1&#45;&gt;A01 -->
<g id="edge2" class="edge">
<title>1-&gt;A01</title>
<path fill="none" stroke="black" d="M280.86,-1376.82C249.98,-1363.62 206.55,-1345.06 168.68,-1328.88"/>
<polygon fill="black" stroke="black" points="170.12,-1325.69 159.55,-1324.98 167.37,-1332.12 170.12,-1325.69"/>
<text text-anchor="middle" x="245.37" y="-1345.94" font-family="Times,serif" font-size="14.00">Ja</text>
</g>
<!-- 2 -->
<g id="node4" class="node">
<title>2</title>
<path fill="#7aab8a" stroke="black" d="M601.27,-1311.23C601.27,-1311.23 189.96,-1311.23 189.96,-1311.23 183.96,-1311.23 177.96,-1305.23 177.96,-1299.23 177.96,-1299.23 177.96,-1287.23 177.96,-1287.23 177.96,-1281.23 183.96,-1275.23 189.96,-1275.23 189.96,-1275.23 601.27,-1275.23 601.27,-1275.23 607.27,-1275.23 613.27,-1281.23 613.27,-1287.23 613.27,-1287.23 613.27,-1299.23 613.27,-1299.23 613.27,-1305.23 607.27,-1311.23 601.27,-1311.23"/>
<text text-anchor="start" x="192.37" y="-1289.56" font-family="Times,serif" font-weight="bold" font-size="14.00">2: </text>
<text text-anchor="start" x="211.87" y="-1289.56" font-family="Times,serif" font-size="14.00">Erfolgt die Aktivierung zum Monatsersten 00:00 Uhr?</text>
</g>
<!-- 1&#45;&gt;2 -->
<g id="edge3" class="edge">
<title>1-&gt;2</title>
<path fill="none" stroke="black" d="M334.5,-1376.82C345.96,-1361.33 362.89,-1338.46 376.02,-1320.71"/>
<polygon fill="black" stroke="black" points="378.84,-1322.79 381.97,-1312.67 373.21,-1318.62 378.84,-1322.79"/>
<text text-anchor="middle" x="375.49" y="-1345.94" font-family="Times,serif" font-size="14.00">Nein</text>
</g>
<!-- A02 -->
<g id="node5" class="node">
<title>A02</title>
<polygon fill="#cfb986" stroke="black" points="273.86,-1209.22 39.38,-1209.22 39.38,-1147.7 273.86,-1147.7 273.86,-1209.22"/>
<text text-anchor="start" x="141.62" y="-1191.16" font-family="Times,serif" font-weight="bold" font-size="14.00">A02</text>
<text text-anchor="start" x="51.62" y="-1179.06" font-family="Times,serif" text-decoration="underline" font-size="12.00">Hinweis:</text>
<text text-anchor="start" x="51.62" y="-1167.06" font-family="Times,serif" font-size="12.00">Cluster: Ablehnung</text>
<text text-anchor="start" x="51.62" y="-1155.06" font-family="Times,serif" font-size="12.00">Gew&#228;hlter Zeitpunkt nicht zul&#228;ssig</text>
</g>
<!-- 2&#45;&gt;A02 -->
<g id="edge4" class="edge">
<title>2-&gt;A02</title>
<path fill="none" stroke="black" d="M358.53,-1274.73C324.5,-1258.67 273.07,-1234.41 230.63,-1214.38"/>
<polygon fill="black" stroke="black" points="232.24,-1211.27 221.7,-1210.17 229.25,-1217.6 232.24,-1211.27"/>
<text text-anchor="middle" x="306.49" y="-1231.17" font-family="Times,serif" font-size="14.00">Nein</text>
</g>
<!-- 3 -->
<g id="node6" class="node">
<title>3</title>
<path fill="#7aab8a" stroke="black" d="M601.26,-1196.46C601.26,-1196.46 303.97,-1196.46 303.97,-1196.46 297.97,-1196.46 291.97,-1190.46 291.97,-1184.46 291.97,-1184.46 291.97,-1172.46 291.97,-1172.46 291.97,-1166.46 297.97,-1160.46 303.97,-1160.46 303.97,-1160.46 601.26,-1160.46 601.26,-1160.46 607.26,-1160.46 613.26,-1166.46 613.26,-1172.46 613.26,-1172.46 613.26,-1184.46 613.26,-1184.46 613.26,-1190.46 607.26,-1196.46 601.26,-1196.46"/>
<text text-anchor="start" x="306.37" y="-1174.79" font-family="Times,serif" font-weight="bold" font-size="14.00">3: </text>
<text text-anchor="start" x="325.87" y="-1174.79" font-family="Times,serif" font-size="14.00">Ist die richtige Regelzone angegeben?</text>
</g>
<!-- 2&#45;&gt;3 -->
<g id="edge5" class="edge">
<title>2-&gt;3</title>
<path fill="none" stroke="black" d="M404.27,-1275.1C413.44,-1256.97 428.04,-1228.09 438.8,-1206.8"/>
<polygon fill="black" stroke="black" points="441.81,-1208.6 443.19,-1198.1 435.56,-1205.45 441.81,-1208.6"/>
<text text-anchor="middle" x="433.37" y="-1231.17" font-family="Times,serif" font-size="14.00">Ja</text>
</g>
<!-- A03 -->
<g id="node7" class="node">
<title>A03</title>
<polygon fill="#cfb986" stroke="black" points="198.61,-1094.45 58.63,-1094.45 58.63,-1032.93 198.61,-1032.93 198.61,-1094.45"/>
<text text-anchor="start" x="113.62" y="-1076.39" font-family="Times,serif" font-weight="bold" font-size="14.00">A03</text>
<text text-anchor="start" x="70.87" y="-1064.29" font-family="Times,serif" text-decoration="underline" font-size="12.00">Hinweis:</text>
<text text-anchor="start" x="70.87" y="-1052.29" font-family="Times,serif" font-size="12.00">Cluster: Ablehnung</text>
<text text-anchor="start" x="70.87" y="-1040.29" font-family="Times,serif" font-size="12.00">Regelzone falsch</text>
</g>
<!-- 3&#45;&gt;A03 -->
<g id="edge6" class="edge">
<title>3-&gt;A03</title>
<path fill="none" stroke="black" d="M399.39,-1160C351.97,-1144.31 280.46,-1120.35 209.28,-1095.01"/>
<polygon fill="black" stroke="black" points="210.8,-1091.84 200.21,-1091.77 208.45,-1098.43 210.8,-1091.84"/>
<text text-anchor="middle" x="324.49" y="-1116.4" font-family="Times,serif" font-size="14.00">Nein</text>
</g>
<!-- 4 -->
<g id="node8" class="node">
<title>4</title>
<path fill="#7aab8a" stroke="black" d="M876.39,-1081.69C876.39,-1081.69 228.84,-1081.69 228.84,-1081.69 222.84,-1081.69 216.84,-1075.69 216.84,-1069.69 216.84,-1069.69 216.84,-1057.69 216.84,-1057.69 216.84,-1051.69 222.84,-1045.69 228.84,-1045.69 228.84,-1045.69 876.39,-1045.69 876.39,-1045.69 882.39,-1045.69 888.39,-1051.69 888.39,-1057.69 888.39,-1057.69 888.39,-1069.69 888.39,-1069.69 888.39,-1075.69 882.39,-1081.69 876.39,-1081.69"/>
<text text-anchor="start" x="231.24" y="-1060.02" font-family="Times,serif" font-weight="bold" font-size="14.00">4: </text>
<text text-anchor="start" x="250.74" y="-1060.02" font-family="Times,serif" font-size="14.00">Ist das Bilanzierungsgebiet zum Aktivierungsbeginn in der Regelzone des BIKO g&#252;ltig?</text>
</g>
<!-- 3&#45;&gt;4 -->
<g id="edge7" class="edge">
<title>3-&gt;4</title>
<path fill="none" stroke="black" d="M467.8,-1160.33C484.25,-1141.79 510.67,-1111.99 529.65,-1090.58"/>
<polygon fill="black" stroke="black" points="532.26,-1092.92 536.28,-1083.11 527.03,-1088.27 532.26,-1092.92"/>
<text text-anchor="middle" x="514.37" y="-1116.4" font-family="Times,serif" font-size="14.00">Ja</text>
</g>
<!-- A04 -->
<g id="node9" class="node">
<title>A04</title>
<polygon fill="#cfb986" stroke="black" points="286.48,-979.68 70.75,-979.68 70.75,-918.16 286.48,-918.16 286.48,-979.68"/>
<text text-anchor="start" x="163.62" y="-961.62" font-family="Times,serif" font-weight="bold" font-size="14.00">A04</text>
<text text-anchor="start" x="82.99" y="-949.52" font-family="Times,serif" text-decoration="underline" font-size="12.00">Hinweis:</text>
<text text-anchor="start" x="82.99" y="-937.52" font-family="Times,serif" font-size="12.00">Cluster: Ablehnung</text>
<text text-anchor="start" x="82.99" y="-925.52" font-family="Times,serif" font-size="12.00">Bilanzierungsgebiet nicht g&#252;ltig</text>
</g>
<!-- 4&#45;&gt;A04 -->
<g id="edge8" class="edge">
<title>4-&gt;A04</title>
<path fill="none" stroke="black" d="M494.59,-1045.19C439.96,-1028.72 356.7,-1003.62 289.36,-983.31"/>
<polygon fill="black" stroke="black" points="290.73,-980.07 280.14,-980.53 288.71,-986.77 290.73,-980.07"/>
<text text-anchor="middle" x="404.49" y="-1001.63" font-family="Times,serif" font-size="14.00">Nein</text>
</g>
<!-- 5 -->
<g id="node10" class="node">
<title>5</title>
<path fill="#7aab8a" stroke="black" d="M1049.14,-966.92C1049.14,-966.92 316.09,-966.92 316.09,-966.92 310.09,-966.92 304.09,-960.92 304.09,-954.92 304.09,-954.92 304.09,-942.92 304.09,-942.92 304.09,-936.92 310.09,-930.92 316.09,-930.92 316.09,-930.92 1049.14,-930.92 1049.14,-930.92 1055.14,-930.92 1061.14,-936.92 1061.14,-942.92 1061.14,-942.92 1061.14,-954.92 1061.14,-954.92 1061.14,-960.92 1055.14,-966.92 1049.14,-966.92"/>
<text text-anchor="start" x="318.49" y="-945.25" font-family="Times,serif" font-weight="bold" font-size="14.00">5: </text>
<text text-anchor="start" x="337.99" y="-945.25" font-family="Times,serif" font-size="14.00">Ist der Redispatch-Bilanzkreis des ANB zum Aktivierungsbeginn in der Regelzone des BIKO g&#252;ltig?</text>
</g>
<!-- 4&#45;&gt;5 -->
<g id="edge9" class="edge">
<title>4-&gt;5</title>
<path fill="none" stroke="black" d="M572.64,-1045.32C594.46,-1026.39 629.55,-995.95 654.21,-974.56"/>
<polygon fill="black" stroke="black" points="656.37,-977.32 661.63,-968.12 651.79,-972.03 656.37,-977.32"/>
<text text-anchor="middle" x="631.37" y="-1001.63" font-family="Times,serif" font-size="14.00">Ja</text>
</g>
<!-- A05 -->
<g id="node11" class="node">
<title>A05</title>
<polygon fill="#cfb986" stroke="black" points="372.98,-864.91 82.25,-864.91 82.25,-803.39 372.98,-803.39 372.98,-864.91"/>
<text text-anchor="start" x="212.62" y="-846.85" font-family="Times,serif" font-weight="bold" font-size="14.00">A05</text>
<text text-anchor="start" x="94.49" y="-834.75" font-family="Times,serif" text-decoration="underline" font-size="12.00">Hinweis:</text>
<text text-anchor="start" x="94.49" y="-822.75" font-family="Times,serif" font-size="12.00">Cluster: Ablehnung</text>
<text text-anchor="start" x="94.49" y="-810.75" font-family="Times,serif" font-size="12.00">Redispatch-Bilanzkreis des ANB nicht g&#252;ltig</text>
</g>
<!-- 5&#45;&gt;A05 -->
<g id="edge10" class="edge">
<title>5-&gt;A05</title>
<path fill="none" stroke="black" d="M612.02,-930.42C545.01,-913.82 442.6,-888.43 360.32,-868.04"/>
<polygon fill="black" stroke="black" points="361.39,-864.7 350.84,-865.69 359.7,-871.49 361.39,-864.7"/>
<text text-anchor="middle" x="498.49" y="-886.86" font-family="Times,serif" font-size="14.00">Nein</text>
</g>
<!-- 6 -->
<g id="node12" class="node">
<title>6</title>
<path fill="#7aab8a" stroke="black" d="M1269.89,-852.15C1269.89,-852.15 403.34,-852.15 403.34,-852.15 397.34,-852.15 391.34,-846.15 391.34,-840.15 391.34,-840.15 391.34,-828.15 391.34,-828.15 391.34,-822.15 397.34,-816.15 403.34,-816.15 403.34,-816.15 1269.89,-816.15 1269.89,-816.15 1275.89,-816.15 1281.89,-822.15 1281.89,-828.15 1281.89,-828.15 1281.89,-840.15 1281.89,-840.15 1281.89,-846.15 1275.89,-852.15 1269.89,-852.15"/>
<text text-anchor="start" x="405.74" y="-830.48" font-family="Times,serif" font-weight="bold" font-size="14.00">6: </text>
<text text-anchor="start" x="425.24" y="-830.48" font-family="Times,serif" font-size="14.00">Ist der Sender zum Aktivierungsbeginn der verantwortliche NB f&#252;r den angegebenen Redispatch-Bilanzkreis des NB?</text>
</g>
<!-- 5&#45;&gt;6 -->
<g id="edge11" class="edge">
<title>5-&gt;6</title>
<path fill="none" stroke="black" d="M706.34,-930.55C732.45,-911.42 774.6,-880.56 803.85,-859.14"/>
<polygon fill="black" stroke="black" points="805.64,-862.17 811.64,-853.44 801.51,-856.52 805.64,-862.17"/>
<text text-anchor="middle" x="775.37" y="-886.86" font-family="Times,serif" font-size="14.00">Ja</text>
</g>
<!-- A06 -->
<g id="node13" class="node">
<title>A06</title>
<polygon fill="#cfb986" stroke="black" points="295.11,-750.14 152.12,-750.14 152.12,-688.62 295.11,-688.62 295.11,-750.14"/>
<text text-anchor="start" x="208.62" y="-732.08" font-family="Times,serif" font-weight="bold" font-size="14.00">A06</text>
<text text-anchor="start" x="164.37" y="-719.98" font-family="Times,serif" text-decoration="underline" font-size="12.00">Hinweis:</text>
<text text-anchor="start" x="164.37" y="-707.98" font-family="Times,serif" font-size="12.00">Cluster: Ablehnung</text>
<text text-anchor="start" x="164.37" y="-695.98" font-family="Times,serif" font-size="12.00">Keine Berechtigung</text>
</g>
<!-- 6&#45;&gt;A06 -->
<g id="edge12" class="edge">
<title>6-&gt;A06</title>
<path fill="none" stroke="black" d="M669.54,-815.66C566.86,-802.87 432.81,-782.51 306.4,-750.41"/>
<polygon fill="black" stroke="black" points="307.39,-747.05 296.84,-747.95 305.65,-753.83 307.39,-747.05"/>
<text text-anchor="middle" x="479.49" y="-772.09" font-family="Times,serif" font-size="14.00">Nein</text>
</g>
<!-- 7 -->
<g id="node14" class="node">
<title>7</title>
<path fill="#7aab8a" stroke="black" d="M1473.89,-737.38C1473.89,-737.38 325.34,-737.38 325.34,-737.38 319.34,-737.38 313.34,-731.38 313.34,-725.38 313.34,-725.38 313.34,-713.38 313.34,-713.38 313.34,-707.38 319.34,-701.38 325.34,-701.38 325.34,-701.38 1473.89,-701.38 1473.89,-701.38 1479.89,-701.38 1485.89,-707.38 1485.89,-713.38 1485.89,-713.38 1485.89,-725.38 1485.89,-725.38 1485.89,-731.38 1479.89,-737.38 1473.89,-737.38"/>
<text text-anchor="start" x="327.74" y="-715.71" font-family="Times,serif" font-weight="bold" font-size="14.00">7: </text>
<text text-anchor="start" x="347.24" y="-715.71" font-family="Times,serif" font-size="14.00">Existiert bereits ein abweichendes Tupel aus Bilanzierungs-gebiet, Redispatch-Bilanzkreis des ANB, Bilanzkreis des LF und ZRT unter der ID des MaBiS-ZP?</text>
</g>
<!-- 6&#45;&gt;7 -->
<g id="edge13" class="edge">
<title>6-&gt;7</title>
<path fill="none" stroke="black" d="M846.18,-816.02C856.31,-797.89 872.45,-769.01 884.34,-747.72"/>
<polygon fill="black" stroke="black" points="887.4,-749.43 889.22,-738.99 881.29,-746.01 887.4,-749.43"/>
<text text-anchor="middle" x="878.37" y="-772.09" font-family="Times,serif" font-size="14.00">Ja</text>
</g>
<!-- A07 -->
<g id="node15" class="node">
<title>A07</title>
<polygon fill="#cfb986" stroke="black" points="289.23,-635.37 0,-635.37 0,-573.85 289.23,-573.85 289.23,-635.37"/>
<text text-anchor="start" x="129.62" y="-617.31" font-family="Times,serif" font-weight="bold" font-size="14.00">A07</text>
<text text-anchor="start" x="12.24" y="-605.21" font-family="Times,serif" text-decoration="underline" font-size="12.00">Hinweis:</text>
<text text-anchor="start" x="12.24" y="-593.21" font-family="Times,serif" font-size="12.00">Cluster: Ablehnung</text>
<text text-anchor="start" x="12.24" y="-581.21" font-family="Times,serif" font-size="12.00">Abweichender MaBiS-ZP bereits vorhanden</text>
</g>
<!-- 7&#45;&gt;A07 -->
<g id="edge14" class="edge">
<title>7-&gt;A07</title>
<path fill="none" stroke="black" d="M756.36,-700.88C636.92,-685.77 462.06,-662.42 300.64,-635.85"/>
<polygon fill="black" stroke="black" points="301.47,-632.43 291.03,-634.26 300.33,-639.34 301.47,-632.43"/>
<text text-anchor="middle" x="535.37" y="-657.32" font-family="Times,serif" font-size="14.00">Ja</text>
</g>
<!-- 8 -->
<g id="node16" class="node">
<title>8</title>
<path fill="#7aab8a" stroke="black" d="M1522.26,-622.61C1522.26,-622.61 318.97,-622.61 318.97,-622.61 312.97,-622.61 306.97,-616.61 306.97,-610.61 306.97,-610.61 306.97,-598.61 306.97,-598.61 306.97,-592.61 312.97,-586.61 318.97,-586.61 318.97,-586.61 1522.26,-586.61 1522.26,-586.61 1528.26,-586.61 1534.26,-592.61 1534.26,-598.61 1534.26,-598.61 1534.26,-610.61 1534.26,-610.61 1534.26,-616.61 1528.26,-622.61 1522.26,-622.61"/>
<text text-anchor="start" x="321.37" y="-600.94" font-family="Times,serif" font-weight="bold" font-size="14.00">8: </text>
<text text-anchor="start" x="340.87" y="-600.94" font-family="Times,serif" font-size="14.00">Existiert bereits f&#252;r das genannte Tupel aus Bilanzierungs-gebiet, Redispatch-Bilanzkreis des ANB, Bilanzkreis des LF und ZRT eine abweichende ID des MaBiS-ZP?</text>
</g>
<!-- 7&#45;&gt;8 -->
<g id="edge15" class="edge">
<title>7-&gt;8</title>
<path fill="none" stroke="black" d="M902.8,-701.25C906.12,-683.45 911.36,-655.29 915.31,-634.12"/>
<polygon fill="black" stroke="black" points="918.73,-634.86 917.12,-624.39 911.85,-633.58 918.73,-634.86"/>
<text text-anchor="middle" x="927.49" y="-657.32" font-family="Times,serif" font-size="14.00">Nein</text>
</g>
<!-- A08 -->
<g id="node17" class="node">
<title>A08</title>
<polygon fill="#cfb986" stroke="black" points="854.48,-520.6 524.75,-520.6 524.75,-459.08 854.48,-459.08 854.48,-520.6"/>
<text text-anchor="start" x="674.62" y="-502.54" font-family="Times,serif" font-weight="bold" font-size="14.00">A08</text>
<text text-anchor="start" x="536.99" y="-490.44" font-family="Times,serif" text-decoration="underline" font-size="12.00">Hinweis:</text>
<text text-anchor="start" x="536.99" y="-478.44" font-family="Times,serif" font-size="12.00">Cluster: Ablehnung</text>
<text text-anchor="start" x="536.99" y="-466.44" font-family="Times,serif" font-size="12.00">Abweichende ID zum MaBiS-ZP bereits vorhanden</text>
</g>
<!-- 8&#45;&gt;A08 -->
<g id="edge16" class="edge">
<title>8-&gt;A08</title>
<path fill="none" stroke="black" d="M884.77,-586.11C851.95,-570.09 802.38,-545.89 761.41,-525.89"/>
<polygon fill="black" stroke="black" points="763.08,-522.81 752.56,-521.57 760.01,-529.1 763.08,-522.81"/>
<text text-anchor="middle" x="825.37" y="-542.55" font-family="Times,serif" font-size="14.00">Ja</text>
</g>
<!-- 9 -->
<g id="node18" class="node">
<title>9</title>
<path fill="#7aab8a" stroke="black" d="M1324.89,-507.84C1324.89,-507.84 884.34,-507.84 884.34,-507.84 878.34,-507.84 872.34,-501.84 872.34,-495.84 872.34,-495.84 872.34,-483.84 872.34,-483.84 872.34,-477.84 878.34,-471.84 884.34,-471.84 884.34,-471.84 1324.89,-471.84 1324.89,-471.84 1330.89,-471.84 1336.89,-477.84 1336.89,-483.84 1336.89,-483.84 1336.89,-495.84 1336.89,-495.84 1336.89,-501.84 1330.89,-507.84 1324.89,-507.84"/>
<text text-anchor="start" x="886.74" y="-486.16" font-family="Times,serif" font-weight="bold" font-size="14.00">9: </text>
<text text-anchor="start" x="906.24" y="-486.16" font-family="Times,serif" font-size="14.00">Ist der Bilanzkreis des LF zum Aktivierungsbeginn g&#252;ltig?</text>
</g>
<!-- 8&#45;&gt;9 -->
<g id="edge17" class="edge">
<title>8-&gt;9</title>
<path fill="none" stroke="black" d="M948.96,-586.24C980.57,-566.87 1031.83,-535.45 1066.83,-514"/>
<polygon fill="black" stroke="black" points="1068.25,-517.23 1074.95,-509.02 1064.59,-511.27 1068.25,-517.23"/>
<text text-anchor="middle" x="1040.49" y="-542.55" font-family="Times,serif" font-size="14.00">Nein</text>
</g>
<!-- A09 -->
<g id="node19" class="node">
<title>A09</title>
<polygon fill="#cfb986" stroke="black" points="979.61,-405.83 815.62,-405.83 815.62,-344.31 979.61,-344.31 979.61,-405.83"/>
<text text-anchor="start" x="882.62" y="-387.77" font-family="Times,serif" font-weight="bold" font-size="14.00">A09</text>
<text text-anchor="start" x="827.87" y="-375.67" font-family="Times,serif" text-decoration="underline" font-size="12.00">Hinweis:</text>
<text text-anchor="start" x="827.87" y="-363.67" font-family="Times,serif" font-size="12.00">Cluster: Ablehnung</text>
<text text-anchor="start" x="827.87" y="-351.67" font-family="Times,serif" font-size="12.00">Bilanzkreis nicht g&#252;ltig</text>
</g>
<!-- 9&#45;&gt;A09 -->
<g id="edge18" class="edge">
<title>9-&gt;A09</title>
<path fill="none" stroke="black" d="M1072.72,-471.47C1043.6,-455.6 999.62,-431.64 963.03,-411.71"/>
<polygon fill="black" stroke="black" points="964.71,-408.64 954.25,-406.93 961.36,-414.78 964.71,-408.64"/>
<text text-anchor="middle" x="1029.49" y="-427.78" font-family="Times,serif" font-size="14.00">Nein</text>
</g>
<!-- 10 -->
<g id="node20" class="node">
<title>10</title>
<path fill="#7aab8a" stroke="black" d="M1383.14,-393.07C1383.14,-393.07 1010.09,-393.07 1010.09,-393.07 1004.09,-393.07 998.09,-387.07 998.09,-381.07 998.09,-381.07 998.09,-369.07 998.09,-369.07 998.09,-363.07 1004.09,-357.07 1010.09,-357.07 1010.09,-357.07 1383.14,-357.07 1383.14,-357.07 1389.14,-357.07 1395.14,-363.07 1395.14,-369.07 1395.14,-369.07 1395.14,-381.07 1395.14,-381.07 1395.14,-387.07 1389.14,-393.07 1383.14,-393.07"/>
<text text-anchor="start" x="1012.49" y="-371.39" font-family="Times,serif" font-weight="bold" font-size="14.00">10: </text>
<text text-anchor="start" x="1041.74" y="-371.39" font-family="Times,serif" font-size="14.00">Ist der NB zur Aktivierung des ZRT berechtigt?</text>
</g>
<!-- 9&#45;&gt;10 -->
<g id="edge19" class="edge">
<title>9-&gt;10</title>
<path fill="none" stroke="black" d="M1118.59,-471.71C1133.65,-453.25 1157.81,-423.64 1175.26,-402.25"/>
<polygon fill="black" stroke="black" points="1177.94,-404.49 1181.55,-394.53 1172.52,-400.07 1177.94,-404.49"/>
<text text-anchor="middle" x="1162.37" y="-427.78" font-family="Times,serif" font-size="14.00">Ja</text>
</g>
<!-- A10 -->
<g id="node21" class="node">
<title>A10</title>
<polygon fill="#cfb986" stroke="black" points="1046.23,-291.06 823,-291.06 823,-229.54 1046.23,-229.54 1046.23,-291.06"/>
<text text-anchor="start" x="919.62" y="-273" font-family="Times,serif" font-weight="bold" font-size="14.00">A10</text>
<text text-anchor="start" x="835.24" y="-260.9" font-family="Times,serif" text-decoration="underline" font-size="12.00">Hinweis:</text>
<text text-anchor="start" x="835.24" y="-248.9" font-family="Times,serif" font-size="12.00">Cluster: Ablehnung</text>
<text text-anchor="start" x="835.24" y="-236.9" font-family="Times,serif" font-size="12.00">ZRT Aktivierung nicht berechtigt</text>
</g>
<!-- 10&#45;&gt;A10 -->
<g id="edge20" class="edge">
<title>10-&gt;A10</title>
<path fill="none" stroke="black" d="M1155.96,-356.57C1118.48,-340.44 1061.76,-316.03 1015.12,-295.95"/>
<polygon fill="black" stroke="black" points="1016.68,-292.81 1006.11,-292.07 1013.92,-299.24 1016.68,-292.81"/>
<text text-anchor="middle" x="1097.49" y="-313.01" font-family="Times,serif" font-size="14.00">Nein</text>
</g>
<!-- 11 -->
<g id="node22" class="node">
<title>11</title>
<path fill="#7aab8a" stroke="black" d="M1408.52,-278.3C1408.52,-278.3 1076.71,-278.3 1076.71,-278.3 1070.71,-278.3 1064.71,-272.3 1064.71,-266.3 1064.71,-266.3 1064.71,-254.3 1064.71,-254.3 1064.71,-248.3 1070.71,-242.3 1076.71,-242.3 1076.71,-242.3 1408.52,-242.3 1408.52,-242.3 1414.52,-242.3 1420.52,-248.3 1420.52,-254.3 1420.52,-254.3 1420.52,-266.3 1420.52,-266.3 1420.52,-272.3 1414.52,-278.3 1408.52,-278.3"/>
<text text-anchor="start" x="1079.12" y="-256.62" font-family="Times,serif" font-weight="bold" font-size="14.00">11: </text>
<text text-anchor="start" x="1108.37" y="-256.62" font-family="Times,serif" font-size="14.00">Passt die Angabe des Mediums zum ZRT?</text>
</g>
<!-- 10&#45;&gt;11 -->
<g id="edge21" class="edge">
<title>10-&gt;11</title>
<path fill="none" stroke="black" d="M1203.6,-356.94C1210.93,-338.98 1222.57,-310.45 1231.22,-289.22"/>
<polygon fill="black" stroke="black" points="1234.45,-290.57 1234.99,-279.99 1227.97,-287.93 1234.45,-290.57"/>
<text text-anchor="middle" x="1228.37" y="-313.01" font-family="Times,serif" font-size="14.00">Ja</text>
</g>
<!-- A11 -->
<g id="node23" class="node">
<title>A11</title>
<polygon fill="#cfb986" stroke="black" points="980.36,-176.29 820.88,-176.29 820.88,-114.77 980.36,-114.77 980.36,-176.29"/>
<text text-anchor="start" x="885.62" y="-158.23" font-family="Times,serif" font-weight="bold" font-size="14.00">A11</text>
<text text-anchor="start" x="833.12" y="-146.13" font-family="Times,serif" text-decoration="underline" font-size="12.00">Hinweis:</text>
<text text-anchor="start" x="833.12" y="-134.13" font-family="Times,serif" font-size="12.00">Cluster: Ablehnung</text>
<text text-anchor="start" x="833.12" y="-122.13" font-family="Times,serif" font-size="12.00">Medium nicht passend</text>
</g>
<!-- 11&#45;&gt;A11 -->
<g id="edge22" class="edge">
<title>11-&gt;A11</title>
<path fill="none" stroke="black" d="M1189.28,-241.9C1140.36,-225.91 1065.6,-201.43 991.16,-176.8"/>
<polygon fill="black" stroke="black" points="992.69,-173.62 982.1,-173.8 990.49,-180.26 992.69,-173.62"/>
<text text-anchor="middle" x="1110.49" y="-198.24" font-family="Times,serif" font-size="14.00">Nein</text>
</g>
<!-- 12 -->
<g id="node24" class="node">
<title>12</title>
<path fill="#7aab8a" stroke="black" d="M1520.39,-163.53C1520.39,-163.53 1010.84,-163.53 1010.84,-163.53 1004.84,-163.53 998.84,-157.53 998.84,-151.53 998.84,-151.53 998.84,-139.53 998.84,-139.53 998.84,-133.53 1004.84,-127.53 1010.84,-127.53 1010.84,-127.53 1520.39,-127.53 1520.39,-127.53 1526.39,-127.53 1532.39,-133.53 1532.39,-139.53 1532.39,-139.53 1532.39,-151.53 1532.39,-151.53 1532.39,-157.53 1526.39,-163.53 1520.39,-163.53"/>
<text text-anchor="start" x="1013.24" y="-141.85" font-family="Times,serif" font-weight="bold" font-size="14.00">12: </text>
<text text-anchor="start" x="1042.49" y="-141.85" font-family="Times,serif" font-size="14.00">Ist der MaBiS-ZP zum Zeitpunkt der Aktivierung bereits aktiviert?</text>
</g>
<!-- 11&#45;&gt;12 -->
<g id="edge23" class="edge">
<title>11-&gt;12</title>
<path fill="none" stroke="black" d="M1246.11,-242.17C1249.74,-224.37 1255.48,-196.21 1259.8,-175.04"/>
<polygon fill="black" stroke="black" points="1263.22,-175.8 1261.79,-165.3 1256.36,-174.4 1263.22,-175.8"/>
<text text-anchor="middle" x="1261.37" y="-198.24" font-family="Times,serif" font-size="14.00">Ja</text>
</g>
<!-- A12 -->
<g id="node25" class="node">
<title>A12</title>
<polygon fill="#cfb986" stroke="black" points="1248.48,-61.52 1062.75,-61.52 1062.75,0 1248.48,0 1248.48,-61.52"/>
<text text-anchor="start" x="1140.62" y="-43.46" font-family="Times,serif" font-weight="bold" font-size="14.00">A12</text>
<text text-anchor="start" x="1074.99" y="-31.36" font-family="Times,serif" text-decoration="underline" font-size="12.00">Hinweis:</text>
<text text-anchor="start" x="1074.99" y="-19.36" font-family="Times,serif" font-size="12.00">Cluster: Ablehnung</text>
<text text-anchor="start" x="1074.99" y="-7.36" font-family="Times,serif" font-size="12.00">MaBiS-ZP bereits aktiviert</text>
</g>
<!-- 12&#45;&gt;A12 -->
<g id="edge24" class="edge">
<title>12-&gt;A12</title>
<path fill="none" stroke="black" d="M1248.91,-127.4C1234.08,-112.2 1211.87,-89.44 1192.85,-69.93"/>
<polygon fill="black" stroke="black" points="1195.46,-67.6 1185.98,-62.89 1190.45,-72.49 1195.46,-67.6"/>
<text text-anchor="middle" x="1223.37" y="-83.47" font-family="Times,serif" font-size="14.00">Ja</text>
</g>
<!-- A13 -->
<g id="node26" class="node">
<title>A13</title>
<polygon fill="#cfb986" stroke="black" points="1444.73,-61.52 1266.5,-61.52 1266.5,0 1444.73,0 1444.73,-61.52"/>
<text text-anchor="start" x="1340.62" y="-43.46" font-family="Times,serif" font-weight="bold" font-size="14.00">A13</text>
<text text-anchor="start" x="1278.74" y="-31.36" font-family="Times,serif" text-decoration="underline" font-size="12.00">Hinweis:</text>
<text text-anchor="start" x="1278.74" y="-19.36" font-family="Times,serif" font-size="12.00">Cluster: Zustimmung</text>
<text text-anchor="start" x="1278.74" y="-7.36" font-family="Times,serif" font-size="12.00">Aktivierung durchgef&#252;hrt</text>
</g>
<!-- 12&#45;&gt;A13 -->
<g id="edge25" class="edge">
<title>12-&gt;A13</title>
<path fill="none" stroke="black" d="M1279.28,-127.4C1291.26,-112.4 1309.1,-90.04 1324.52,-70.72"/>
<polygon fill="black" stroke="black" points="1327.19,-72.98 1330.69,-62.99 1321.72,-68.62 1327.19,-72.98"/>
<text text-anchor="middle" x="1332.49" y="-83.47" font-family="Times,serif" font-size="14.00">Nein</text>
</g>
</g>
</svg>
  </g>
</svg>
  </g>
</svg>
