<?xml version='1.0' encoding='ASCII' standalone='yes'?>
<svg xmlns="http://www.w3.org/2000/svg" xmlns:xlink="http://www.w3.org/1999/xlink" version="1.1" width="4256.0px" viewBox="0 0 4256.0 1826.6666666666667" height="1826.6666666666667px">
  <g>
    <svg version="1.1" width="4256.0px" viewBox="0 0 4256.0 1826.6666666666667" height="1826.6666666666667px">
  <polygon fill="#f3f1f6" points="0,0 4256.0,0 4256.0,1826.6666666666667 0,1826.6666666666667"/><g>
    <g transform="translate(1397.8753166820416, 182.66666666666663) scale(1 1) translate(0, 0) scale(8.261311618144088 8.261311618144088) "><sodipodi:namedview xmlns:sodipodi="http://sodipodi.sourceforge.net/DTD/sodipodi-0.dtd" xmlns:inkscape="http://www.inkscape.org/namespaces/inkscape" id="namedview7" pagecolor="#ffffff" bordercolor="#999999" borderopacity="1" inkscape:pageshadow="0" inkscape:pageopacity="0" inkscape:pagecheckerboard="0" inkscape:document-units="mm" showgrid="false" fit-margin-top="0" fit-margin-left="0" fit-margin-right="0" fit-margin-bottom="0" inkscape:zoom="0.64052329" inkscape:cx="130.36216" inkscape:cy="412.163" inkscape:window-width="1512" inkscape:window-height="916" inkscape:window-x="3840" inkscape:window-y="136" inkscape:window-maximized="0" inkscape:current-layer="layer1"/>
  <defs id="defs2">
    <clipPath clipPathUnits="userSpaceOnUse" id="clipPath23">
      <path d="M 0,568.156 H 579.236 V 0 H 0 Z" id="path21"/>
    </clipPath>
  </defs>
  <g xmlns:inkscape="http://www.inkscape.org/namespaces/inkscape" inkscape:label="Layer 1" inkscape:groupmode="layer" id="layer1" transform="translate(-16.541937,-55.305267)">
    <g id="g19" clip-path="url(#clipPath23)" transform="matrix(0.35277777,0,0,-0.35277777,0.01017023,243.73675)" style="opacity:0.2">
      <g id="g25" transform="translate(122.444,32.7195)">
        <path d="m 0,0 h -56.104 c -11,0 -19.898,9.123 -19.463,20.115 10.594,267.191 231.277,481.302 501.029,481.302 v -56.02 c 0,-10.98 -8.688,-19.892 -19.658,-20.393 C 180.29,414.697 0,228.005 0,0" style="fill:#6ead83;fill-opacity:1;fill-rule:nonzero;stroke:none" id="path27"/>
      </g>
      <g id="g29" transform="translate(273.7828,32.7195)">
        <path d="m 0,0 h -55.926 c -11.228,0 -20.091,9.482 -19.435,20.69 10.744,183.439 163.389,329.388 349.485,329.388 v -56.263 c 0,-10.709 -8.273,-19.617 -18.957,-20.35 C 112.819,263.696 0,144.774 0,0" style="fill:#6ead83;fill-opacity:1;fill-rule:nonzero;stroke:none" id="path31"/>
      </g>
      <g id="g33" transform="translate(425.7667,32.7195)">
        <path d="m 0,0 h -55.445 c -11.653,0 -20.604,10.17 -19.334,21.753 10.866,99.032 95.031,176.341 196.919,176.341 v -57.011 c 0,-10.046 -7.283,-18.755 -17.229,-20.165 C 45.688,112.522 0,61.497 0,0" style="fill:#6ead83;fill-opacity:1;fill-rule:nonzero;stroke:none" id="path35"/>
      </g>
    </g>
  </g>
</g>
    <svg width="3192pt" height="1370pt" viewBox="0.00 0.00 3192.30 1369.98">
<g id="graph0" class="graph" transform="scale(1 1) rotate(0) translate(4 1365.98)">
<title>D</title>
<text text-anchor="start" x="1558.78" y="-1341.88" font-family="Times,serif" font-weight="bold" font-size="18.00">MaBiS</text>
<text text-anchor="start" x="1090.03" y="-1311.78" font-family="Times,serif" font-weight="bold" font-size="16.00">7.20.1: AD: Aktivierung eines MaBiS-ZP f&#252;r Bilanzierungsgebietssummenzeitreihen vom &#220;NB an BIKO und NB</text>
<!-- Start -->
<g id="node1" class="node">
<title>Start</title>
<polygon fill="#7a8da1" stroke="black" points="351.68,-1263.98 177.38,-1263.98 177.38,-1220.7 351.68,-1220.7 351.68,-1263.98"/>
<text text-anchor="start" x="236.4" y="-1243.04" font-family="Times,serif" font-weight="bold" font-size="14.00">E_0015</text>
<text text-anchor="start" x="191.78" y="-1230.94" font-family="Times,serif" font-weight="bold" text-decoration="underline" font-size="12.00">Pr&#252;fende Rolle:</text>
<text text-anchor="start" x="296.78" y="-1230.94" font-family="Times,serif" font-weight="bold" font-size="12.00"> BIKO</text>
</g>
<!-- 1 -->
<g id="node2" class="node">
<title>1</title>
<path fill="#7aab8a" stroke="black" d="M517.05,-1183.7C517.05,-1183.7 12,-1183.7 12,-1183.7 6,-1183.7 0,-1177.7 0,-1171.7 0,-1171.7 0,-1159.7 0,-1159.7 0,-1153.7 6,-1147.7 12,-1147.7 12,-1147.7 517.05,-1147.7 517.05,-1147.7 523.05,-1147.7 529.05,-1153.7 529.05,-1159.7 529.05,-1159.7 529.05,-1171.7 529.05,-1171.7 529.05,-1177.7 523.05,-1183.7 517.05,-1183.7"/>
<text text-anchor="start" x="14.4" y="-1162.03" font-family="Times,serif" font-weight="bold" font-size="14.00">1: </text>
<text text-anchor="start" x="33.9" y="-1162.03" font-family="Times,serif" font-size="14.00">Erfolgt die Aktivierung nach Ablauf der Clearingfrist f&#252;r die KBKA?</text>
</g>
<!-- Start&#45;&gt;1 -->
<g id="edge1" class="edge">
<title>Start-&gt;1</title>
<path fill="none" stroke="black" d="M264.53,-1220.55C264.53,-1212.69 264.53,-1203.61 264.53,-1195.17"/>
<polygon fill="black" stroke="black" points="268.03,-1195.37 264.53,-1185.37 261.03,-1195.37 268.03,-1195.37"/>
</g>
<!-- A01 -->
<g id="node3" class="node">
<title>A01</title>
<polygon fill="#cfb986" stroke="black" points="318.77,-1094.45 174.29,-1094.45 174.29,-1032.93 318.77,-1032.93 318.77,-1094.45"/>
<text text-anchor="start" x="231.53" y="-1076.39" font-family="Times,serif" font-weight="bold" font-size="14.00">A01</text>
<text text-anchor="start" x="186.53" y="-1064.29" font-family="Times,serif" text-decoration="underline" font-size="12.00">Hinweis:</text>
<text text-anchor="start" x="186.53" y="-1052.29" font-family="Times,serif" font-size="12.00">Cluster: Ablehnung</text>
<text text-anchor="start" x="186.53" y="-1040.29" font-family="Times,serif" font-size="12.00">Frist&#252;berschreitung</text>
</g>
<!-- 1&#45;&gt;A01 -->
<g id="edge2" class="edge">
<title>1-&gt;A01</title>
<path fill="none" stroke="black" d="M261.39,-1147.28C259.34,-1135.89 256.57,-1120.5 253.98,-1106.09"/>
<polygon fill="black" stroke="black" points="257.44,-1105.55 252.22,-1096.33 250.55,-1106.79 257.44,-1105.55"/>
<text text-anchor="middle" x="265.28" y="-1116.4" font-family="Times,serif" font-size="14.00">Ja</text>
</g>
<!-- 2 -->
<g id="node4" class="node">
<title>2</title>
<path fill="#7aab8a" stroke="black" d="M760.18,-1081.69C760.18,-1081.69 348.88,-1081.69 348.88,-1081.69 342.88,-1081.69 336.88,-1075.69 336.88,-1069.69 336.88,-1069.69 336.88,-1057.69 336.88,-1057.69 336.88,-1051.69 342.88,-1045.69 348.88,-1045.69 348.88,-1045.69 760.18,-1045.69 760.18,-1045.69 766.18,-1045.69 772.18,-1051.69 772.18,-1057.69 772.18,-1057.69 772.18,-1069.69 772.18,-1069.69 772.18,-1075.69 766.18,-1081.69 760.18,-1081.69"/>
<text text-anchor="start" x="351.28" y="-1060.02" font-family="Times,serif" font-weight="bold" font-size="14.00">2: </text>
<text text-anchor="start" x="370.78" y="-1060.02" font-family="Times,serif" font-size="14.00">Erfolgt die Aktivierung zum Monatsersten 00:00 Uhr?</text>
</g>
<!-- 1&#45;&gt;2 -->
<g id="edge3" class="edge">
<title>1-&gt;2</title>
<path fill="none" stroke="black" d="M315.04,-1147.28C364.68,-1130.16 440.5,-1104.01 493.49,-1085.74"/>
<polygon fill="black" stroke="black" points="494.36,-1089.14 502.67,-1082.57 492.08,-1082.52 494.36,-1089.14"/>
<text text-anchor="middle" x="426.4" y="-1116.4" font-family="Times,serif" font-size="14.00">Nein</text>
</g>
<!-- A02 -->
<g id="node5" class="node">
<title>A02</title>
<polygon fill="#cfb986" stroke="black" points="583.77,-979.68 349.29,-979.68 349.29,-918.16 583.77,-918.16 583.77,-979.68"/>
<text text-anchor="start" x="451.53" y="-961.62" font-family="Times,serif" font-weight="bold" font-size="14.00">A02</text>
<text text-anchor="start" x="361.53" y="-949.52" font-family="Times,serif" text-decoration="underline" font-size="12.00">Hinweis:</text>
<text text-anchor="start" x="361.53" y="-937.52" font-family="Times,serif" font-size="12.00">Cluster: Ablehnung</text>
<text text-anchor="start" x="361.53" y="-925.52" font-family="Times,serif" font-size="12.00">Gew&#228;hlter Zeitpunkt nicht zul&#228;ssig</text>
</g>
<!-- 2&#45;&gt;A02 -->
<g id="edge4" class="edge">
<title>2-&gt;A02</title>
<path fill="none" stroke="black" d="M541.16,-1045.56C529.45,-1030.56 512.01,-1008.2 496.92,-988.88"/>
<polygon fill="black" stroke="black" points="499.81,-986.89 490.9,-981.16 494.29,-991.19 499.81,-986.89"/>
<text text-anchor="middle" x="533.4" y="-1001.63" font-family="Times,serif" font-size="14.00">Nein</text>
</g>
<!-- 3 -->
<g id="node6" class="node">
<title>3</title>
<path fill="#7aab8a" stroke="black" d="M911.18,-966.92C911.18,-966.92 613.88,-966.92 613.88,-966.92 607.88,-966.92 601.88,-960.92 601.88,-954.92 601.88,-954.92 601.88,-942.92 601.88,-942.92 601.88,-936.92 607.88,-930.92 613.88,-930.92 613.88,-930.92 911.18,-930.92 911.18,-930.92 917.18,-930.92 923.18,-936.92 923.18,-942.92 923.18,-942.92 923.18,-954.92 923.18,-954.92 923.18,-960.92 917.18,-966.92 911.18,-966.92"/>
<text text-anchor="start" x="616.28" y="-945.25" font-family="Times,serif" font-weight="bold" font-size="14.00">3: </text>
<text text-anchor="start" x="635.78" y="-945.25" font-family="Times,serif" font-size="14.00">Ist die richtige Regelzone angegeben?</text>
</g>
<!-- 2&#45;&gt;3 -->
<g id="edge5" class="edge">
<title>2-&gt;3</title>
<path fill="none" stroke="black" d="M586.57,-1045.32C622.53,-1025.82 680.99,-994.12 720.57,-972.67"/>
<polygon fill="black" stroke="black" points="721.99,-975.88 729.11,-968.03 718.65,-969.72 721.99,-975.88"/>
<text text-anchor="middle" x="678.28" y="-1001.63" font-family="Times,serif" font-size="14.00">Ja</text>
</g>
<!-- A03 -->
<g id="node7" class="node">
<title>A03</title>
<polygon fill="#cfb986" stroke="black" points="712.52,-864.91 572.54,-864.91 572.54,-803.39 712.52,-803.39 712.52,-864.91"/>
<text text-anchor="start" x="627.53" y="-846.85" font-family="Times,serif" font-weight="bold" font-size="14.00">A03</text>
<text text-anchor="start" x="584.78" y="-834.75" font-family="Times,serif" text-decoration="underline" font-size="12.00">Hinweis:</text>
<text text-anchor="start" x="584.78" y="-822.75" font-family="Times,serif" font-size="12.00">Cluster: Ablehnung</text>
<text text-anchor="start" x="584.78" y="-810.75" font-family="Times,serif" font-size="12.00">Regelzone falsch</text>
</g>
<!-- 3&#45;&gt;A03 -->
<g id="edge6" class="edge">
<title>3-&gt;A03</title>
<path fill="none" stroke="black" d="M744.04,-930.55C727.74,-915.23 703.44,-892.39 682.69,-872.9"/>
<polygon fill="black" stroke="black" points="685.14,-870.39 675.45,-866.1 680.35,-875.49 685.14,-870.39"/>
<text text-anchor="middle" x="727.4" y="-886.86" font-family="Times,serif" font-size="14.00">Nein</text>
</g>
<!-- 4 -->
<g id="node8" class="node">
<title>4</title>
<path fill="#7aab8a" stroke="black" d="M1390.3,-852.15C1390.3,-852.15 742.75,-852.15 742.75,-852.15 736.75,-852.15 730.75,-846.15 730.75,-840.15 730.75,-840.15 730.75,-828.15 730.75,-828.15 730.75,-822.15 736.75,-816.15 742.75,-816.15 742.75,-816.15 1390.3,-816.15 1390.3,-816.15 1396.3,-816.15 1402.3,-822.15 1402.3,-828.15 1402.3,-828.15 1402.3,-840.15 1402.3,-840.15 1402.3,-846.15 1396.3,-852.15 1390.3,-852.15"/>
<text text-anchor="start" x="745.15" y="-830.48" font-family="Times,serif" font-weight="bold" font-size="14.00">4: </text>
<text text-anchor="start" x="764.65" y="-830.48" font-family="Times,serif" font-size="14.00">Ist das Bilanzierungsgebiet zum Aktivierungsbeginn in der Regelzone des BIKO g&#252;ltig?</text>
</g>
<!-- 3&#45;&gt;4 -->
<g id="edge7" class="edge">
<title>3-&gt;4</title>
<path fill="none" stroke="black" d="M809.69,-930.42C863.43,-910.49 951.26,-877.91 1008.98,-856.5"/>
<polygon fill="black" stroke="black" points="1010.17,-859.79 1018.33,-853.03 1007.74,-853.23 1010.17,-859.79"/>
<text text-anchor="middle" x="940.28" y="-886.86" font-family="Times,serif" font-size="14.00">Ja</text>
</g>
<!-- A04 -->
<g id="node9" class="node">
<title>A04</title>
<polygon fill="#cfb986" stroke="black" points="1054.39,-750.14 838.66,-750.14 838.66,-688.62 1054.39,-688.62 1054.39,-750.14"/>
<text text-anchor="start" x="931.53" y="-732.08" font-family="Times,serif" font-weight="bold" font-size="14.00">A04</text>
<text text-anchor="start" x="850.9" y="-719.98" font-family="Times,serif" text-decoration="underline" font-size="12.00">Hinweis:</text>
<text text-anchor="start" x="850.9" y="-707.98" font-family="Times,serif" font-size="12.00">Cluster: Ablehnung</text>
<text text-anchor="start" x="850.9" y="-695.98" font-family="Times,serif" font-size="12.00">Bilanzierungsgebiet nicht g&#252;ltig</text>
</g>
<!-- 4&#45;&gt;A04 -->
<g id="edge8" class="edge">
<title>4-&gt;A04</title>
<path fill="none" stroke="black" d="M1048.04,-815.78C1031.74,-800.46 1007.44,-777.62 986.69,-758.13"/>
<polygon fill="black" stroke="black" points="989.14,-755.62 979.45,-751.33 984.35,-760.72 989.14,-755.62"/>
<text text-anchor="middle" x="1031.4" y="-772.09" font-family="Times,serif" font-size="14.00">Nein</text>
</g>
<!-- 5 -->
<g id="node10" class="node">
<title>5</title>
<path fill="#7aab8a" stroke="black" d="M1658.18,-737.38C1658.18,-737.38 1084.88,-737.38 1084.88,-737.38 1078.88,-737.38 1072.88,-731.38 1072.88,-725.38 1072.88,-725.38 1072.88,-713.38 1072.88,-713.38 1072.88,-707.38 1078.88,-701.38 1084.88,-701.38 1084.88,-701.38 1658.18,-701.38 1658.18,-701.38 1664.18,-701.38 1670.18,-707.38 1670.18,-713.38 1670.18,-713.38 1670.18,-725.38 1670.18,-725.38 1670.18,-731.38 1664.18,-737.38 1658.18,-737.38"/>
<text text-anchor="start" x="1087.28" y="-715.71" font-family="Times,serif" font-weight="bold" font-size="14.00">5: </text>
<text text-anchor="start" x="1106.78" y="-715.71" font-family="Times,serif" font-size="14.00">Ist der &#220;NB zum Aktivierungsbeginn f&#252;r das Bilanzierungsgebiet zust&#228;ndig?</text>
</g>
<!-- 4&#45;&gt;5 -->
<g id="edge9" class="edge">
<title>4-&gt;5</title>
<path fill="none" stroke="black" d="M1113.85,-815.65C1167.8,-795.71 1255.99,-763.1 1313.9,-741.69"/>
<polygon fill="black" stroke="black" points="1314.76,-745.1 1322.92,-738.35 1312.33,-738.53 1314.76,-745.1"/>
<text text-anchor="middle" x="1244.28" y="-772.09" font-family="Times,serif" font-size="14.00">Ja</text>
</g>
<!-- A05 -->
<g id="node11" class="node">
<title>A05</title>
<polygon fill="#cfb986" stroke="black" points="1338.02,-635.37 1195.04,-635.37 1195.04,-573.85 1338.02,-573.85 1338.02,-635.37"/>
<text text-anchor="start" x="1251.53" y="-617.31" font-family="Times,serif" font-weight="bold" font-size="14.00">A05</text>
<text text-anchor="start" x="1207.28" y="-605.21" font-family="Times,serif" text-decoration="underline" font-size="12.00">Hinweis:</text>
<text text-anchor="start" x="1207.28" y="-593.21" font-family="Times,serif" font-size="12.00">Cluster: Ablehnung</text>
<text text-anchor="start" x="1207.28" y="-581.21" font-family="Times,serif" font-size="12.00">Keine Berechtigung</text>
</g>
<!-- 5&#45;&gt;A05 -->
<g id="edge10" class="edge">
<title>5-&gt;A05</title>
<path fill="none" stroke="black" d="M1355.58,-701.25C1341.48,-686.12 1320.42,-663.49 1302.31,-644.04"/>
<polygon fill="black" stroke="black" points="1304.9,-641.69 1295.53,-636.76 1299.78,-646.46 1304.9,-641.69"/>
<text text-anchor="middle" x="1342.4" y="-657.32" font-family="Times,serif" font-size="14.00">Nein</text>
</g>
<!-- 6 -->
<g id="node12" class="node">
<title>6</title>
<path fill="#7aab8a" stroke="black" d="M1890.68,-622.61C1890.68,-622.61 1368.38,-622.61 1368.38,-622.61 1362.38,-622.61 1356.38,-616.61 1356.38,-610.61 1356.38,-610.61 1356.38,-598.61 1356.38,-598.61 1356.38,-592.61 1362.38,-586.61 1368.38,-586.61 1368.38,-586.61 1890.68,-586.61 1890.68,-586.61 1896.68,-586.61 1902.68,-592.61 1902.68,-598.61 1902.68,-598.61 1902.68,-610.61 1902.68,-610.61 1902.68,-616.61 1896.68,-622.61 1890.68,-622.61"/>
<text text-anchor="start" x="1370.78" y="-600.94" font-family="Times,serif" font-weight="bold" font-size="14.00">6: </text>
<text text-anchor="start" x="1390.28" y="-600.94" font-family="Times,serif" font-size="14.00">Existiert bereits ein abweichendes Tupel unter der ID des MaBiS-ZP?</text>
</g>
<!-- 5&#45;&gt;6 -->
<g id="edge11" class="edge">
<title>5-&gt;6</title>
<path fill="none" stroke="black" d="M1411.55,-700.88C1456.78,-681.11 1530.46,-648.91 1579.46,-627.49"/>
<polygon fill="black" stroke="black" points="1580.68,-630.78 1588.44,-623.57 1577.87,-624.37 1580.68,-630.78"/>
<text text-anchor="middle" x="1523.28" y="-657.32" font-family="Times,serif" font-size="14.00">Ja</text>
</g>
<!-- A06 -->
<g id="node13" class="node">
<title>A06</title>
<polygon fill="#cfb986" stroke="black" points="1575.14,-520.6 1285.91,-520.6 1285.91,-459.08 1575.14,-459.08 1575.14,-520.6"/>
<text text-anchor="start" x="1415.53" y="-502.54" font-family="Times,serif" font-weight="bold" font-size="14.00">A06</text>
<text text-anchor="start" x="1298.15" y="-490.44" font-family="Times,serif" text-decoration="underline" font-size="12.00">Hinweis:</text>
<text text-anchor="start" x="1298.15" y="-478.44" font-family="Times,serif" font-size="12.00">Cluster: Ablehnung</text>
<text text-anchor="start" x="1298.15" y="-466.44" font-family="Times,serif" font-size="12.00">Abweichender MaBiS-ZP bereits vorhanden</text>
</g>
<!-- 6&#45;&gt;A06 -->
<g id="edge12" class="edge">
<title>6-&gt;A06</title>
<path fill="none" stroke="black" d="M1598.87,-586.24C1570.86,-570.37 1528.59,-546.41 1493.41,-526.48"/>
<polygon fill="black" stroke="black" points="1495.44,-523.6 1485.01,-521.72 1491.99,-529.69 1495.44,-523.6"/>
<text text-anchor="middle" x="1549.28" y="-542.55" font-family="Times,serif" font-size="14.00">Ja</text>
</g>
<!-- 7 -->
<g id="node14" class="node">
<title>7</title>
<path fill="#7aab8a" stroke="black" d="M2778.18,-507.84C2778.18,-507.84 1604.88,-507.84 1604.88,-507.84 1598.88,-507.84 1592.88,-501.84 1592.88,-495.84 1592.88,-495.84 1592.88,-483.84 1592.88,-483.84 1592.88,-477.84 1598.88,-471.84 1604.88,-471.84 1604.88,-471.84 2778.18,-471.84 2778.18,-471.84 2784.18,-471.84 2790.18,-477.84 2790.18,-483.84 2790.18,-483.84 2790.18,-495.84 2790.18,-495.84 2790.18,-501.84 2784.18,-507.84 2778.18,-507.84"/>
<text text-anchor="start" x="1607.28" y="-486.16" font-family="Times,serif" font-weight="bold" font-size="14.00">7: </text>
<text text-anchor="start" x="1626.78" y="-486.16" font-family="Times,serif" font-size="14.00">Existiert bereits f&#252;r das genannte Tupel aus Aggregationsverantwortlicher, Bilanzierungsgebiet, Spannungsebene und ZRT eine abweichende ID des MaBiS-ZP?</text>
</g>
<!-- 6&#45;&gt;7 -->
<g id="edge13" class="edge">
<title>6-&gt;7</title>
<path fill="none" stroke="black" d="M1716.72,-586.11C1818.71,-565.65 1987.1,-531.86 2093.53,-510.5"/>
<polygon fill="black" stroke="black" points="2093.99,-513.98 2103.1,-508.58 2092.61,-507.12 2093.99,-513.98"/>
<text text-anchor="middle" x="1961.4" y="-542.55" font-family="Times,serif" font-size="14.00">Nein</text>
</g>
<!-- A07 -->
<g id="node15" class="node">
<title>A07</title>
<polygon fill="#cfb986" stroke="black" points="2251.39,-405.83 1921.66,-405.83 1921.66,-344.31 2251.39,-344.31 2251.39,-405.83"/>
<text text-anchor="start" x="2071.53" y="-387.77" font-family="Times,serif" font-weight="bold" font-size="14.00">A07</text>
<text text-anchor="start" x="1933.9" y="-375.67" font-family="Times,serif" text-decoration="underline" font-size="12.00">Hinweis:</text>
<text text-anchor="start" x="1933.9" y="-363.67" font-family="Times,serif" font-size="12.00">Cluster: Ablehnung</text>
<text text-anchor="start" x="1933.9" y="-351.67" font-family="Times,serif" font-size="12.00">Abweichende ID zum MaBiS-ZP bereits vorhanden</text>
</g>
<!-- 7&#45;&gt;A07 -->
<g id="edge14" class="edge">
<title>7-&gt;A07</title>
<path fill="none" stroke="black" d="M2175.58,-471.71C2161.48,-456.58 2140.42,-433.95 2122.31,-414.5"/>
<polygon fill="black" stroke="black" points="2124.9,-412.15 2115.53,-407.22 2119.78,-416.92 2124.9,-412.15"/>
<text text-anchor="middle" x="2152.28" y="-427.78" font-family="Times,serif" font-size="14.00">Ja</text>
</g>
<!-- 8 -->
<g id="node16" class="node">
<title>8</title>
<path fill="#7aab8a" stroke="black" d="M2657.18,-393.07C2657.18,-393.07 2281.88,-393.07 2281.88,-393.07 2275.88,-393.07 2269.88,-387.07 2269.88,-381.07 2269.88,-381.07 2269.88,-369.07 2269.88,-369.07 2269.88,-363.07 2275.88,-357.07 2281.88,-357.07 2281.88,-357.07 2657.18,-357.07 2657.18,-357.07 2663.18,-357.07 2669.18,-363.07 2669.18,-369.07 2669.18,-369.07 2669.18,-381.07 2669.18,-381.07 2669.18,-387.07 2663.18,-393.07 2657.18,-393.07"/>
<text text-anchor="start" x="2284.28" y="-371.39" font-family="Times,serif" font-weight="bold" font-size="14.00">8: </text>
<text text-anchor="start" x="2303.78" y="-371.39" font-family="Times,serif" font-size="14.00">Ist der &#220;NB zur Aktivierung des ZRT berechtigt?</text>
</g>
<!-- 7&#45;&gt;8 -->
<g id="edge15" class="edge">
<title>7-&gt;8</title>
<path fill="none" stroke="black" d="M2234.66,-471.34C2283.6,-451.49 2363.45,-419.1 2416.24,-397.68"/>
<polygon fill="black" stroke="black" points="2417.39,-400.99 2425.35,-393.99 2414.76,-394.51 2417.39,-400.99"/>
<text text-anchor="middle" x="2364.4" y="-427.78" font-family="Times,serif" font-size="14.00">Nein</text>
</g>
<!-- A08 -->
<g id="node17" class="node">
<title>A08</title>
<polygon fill="#cfb986" stroke="black" points="2497.14,-291.06 2273.91,-291.06 2273.91,-229.54 2497.14,-229.54 2497.14,-291.06"/>
<text text-anchor="start" x="2370.53" y="-273" font-family="Times,serif" font-weight="bold" font-size="14.00">A08</text>
<text text-anchor="start" x="2286.15" y="-260.9" font-family="Times,serif" text-decoration="underline" font-size="12.00">Hinweis:</text>
<text text-anchor="start" x="2286.15" y="-248.9" font-family="Times,serif" font-size="12.00">Cluster: Ablehnung</text>
<text text-anchor="start" x="2286.15" y="-236.9" font-family="Times,serif" font-size="12.00">ZRT Aktivierung nicht berechtigt</text>
</g>
<!-- 8&#45;&gt;A08 -->
<g id="edge16" class="edge">
<title>8-&gt;A08</title>
<path fill="none" stroke="black" d="M2456.77,-356.94C2445.64,-342.01 2429.09,-319.79 2414.74,-300.52"/>
<polygon fill="black" stroke="black" points="2417.59,-298.48 2408.81,-292.56 2411.97,-302.67 2417.59,-298.48"/>
<text text-anchor="middle" x="2450.4" y="-313.01" font-family="Times,serif" font-size="14.00">Nein</text>
</g>
<!-- 9 -->
<g id="node18" class="node">
<title>9</title>
<path fill="#7aab8a" stroke="black" d="M2802.3,-278.3C2802.3,-278.3 2526.75,-278.3 2526.75,-278.3 2520.75,-278.3 2514.75,-272.3 2514.75,-266.3 2514.75,-266.3 2514.75,-254.3 2514.75,-254.3 2514.75,-248.3 2520.75,-242.3 2526.75,-242.3 2526.75,-242.3 2802.3,-242.3 2802.3,-242.3 2808.3,-242.3 2814.3,-248.3 2814.3,-254.3 2814.3,-254.3 2814.3,-266.3 2814.3,-266.3 2814.3,-272.3 2808.3,-278.3 2802.3,-278.3"/>
<text text-anchor="start" x="2529.15" y="-256.62" font-family="Times,serif" font-weight="bold" font-size="14.00">9: </text>
<text text-anchor="start" x="2548.65" y="-256.62" font-family="Times,serif" font-size="14.00">Passt die OBIS-Kennzahl zum ZRT?</text>
</g>
<!-- 8&#45;&gt;9 -->
<g id="edge17" class="edge">
<title>8-&gt;9</title>
<path fill="none" stroke="black" d="M2499.57,-356.7C2533.2,-337.24 2587.85,-305.64 2624.95,-284.19"/>
<polygon fill="black" stroke="black" points="2626.23,-287.49 2633.14,-279.45 2622.73,-281.43 2626.23,-287.49"/>
<text text-anchor="middle" x="2586.28" y="-313.01" font-family="Times,serif" font-size="14.00">Ja</text>
</g>
<!-- A09 -->
<g id="node19" class="node">
<title>A09</title>
<polygon fill="#cfb986" stroke="black" points="2632.64,-176.29 2490.41,-176.29 2490.41,-114.77 2632.64,-114.77 2632.64,-176.29"/>
<text text-anchor="start" x="2546.53" y="-158.23" font-family="Times,serif" font-weight="bold" font-size="14.00">A09</text>
<text text-anchor="start" x="2502.65" y="-146.13" font-family="Times,serif" text-decoration="underline" font-size="12.00">Hinweis:</text>
<text text-anchor="start" x="2502.65" y="-134.13" font-family="Times,serif" font-size="12.00">Cluster: Ablehnung</text>
<text text-anchor="start" x="2502.65" y="-122.13" font-family="Times,serif" font-size="12.00">OBIS nicht passend</text>
</g>
<!-- 9&#45;&gt;A09 -->
<g id="edge18" class="edge">
<title>9-&gt;A09</title>
<path fill="none" stroke="black" d="M2648.88,-242.17C2635.06,-227.04 2614.39,-204.41 2596.63,-184.96"/>
<polygon fill="black" stroke="black" points="2599.31,-182.71 2589.99,-177.69 2594.14,-187.43 2599.31,-182.71"/>
<text text-anchor="middle" x="2636.4" y="-198.24" font-family="Times,serif" font-size="14.00">Nein</text>
</g>
<!-- 10 -->
<g id="node20" class="node">
<title>10</title>
<path fill="#7aab8a" stroke="black" d="M3172.3,-163.53C3172.3,-163.53 2662.75,-163.53 2662.75,-163.53 2656.75,-163.53 2650.75,-157.53 2650.75,-151.53 2650.75,-151.53 2650.75,-139.53 2650.75,-139.53 2650.75,-133.53 2656.75,-127.53 2662.75,-127.53 2662.75,-127.53 3172.3,-127.53 3172.3,-127.53 3178.3,-127.53 3184.3,-133.53 3184.3,-139.53 3184.3,-139.53 3184.3,-151.53 3184.3,-151.53 3184.3,-157.53 3178.3,-163.53 3172.3,-163.53"/>
<text text-anchor="start" x="2665.15" y="-141.85" font-family="Times,serif" font-weight="bold" font-size="14.00">10: </text>
<text text-anchor="start" x="2694.4" y="-141.85" font-family="Times,serif" font-size="14.00">Ist der MaBiS-ZP zum Zeitpunkt der Aktivierung bereits aktiviert?</text>
</g>
<!-- 9&#45;&gt;10 -->
<g id="edge19" class="edge">
<title>9-&gt;10</title>
<path fill="none" stroke="black" d="M2703.78,-241.8C2748.04,-222.08 2820.08,-189.96 2868.13,-168.55"/>
<polygon fill="black" stroke="black" points="2869.5,-171.77 2877.21,-164.5 2866.65,-165.37 2869.5,-171.77"/>
<text text-anchor="middle" x="2813.28" y="-198.24" font-family="Times,serif" font-size="14.00">Ja</text>
</g>
<!-- A10 -->
<g id="node21" class="node">
<title>A10</title>
<polygon fill="#cfb986" stroke="black" points="2910.39,-61.52 2724.66,-61.52 2724.66,0 2910.39,0 2910.39,-61.52"/>
<text text-anchor="start" x="2802.53" y="-43.46" font-family="Times,serif" font-weight="bold" font-size="14.00">A10</text>
<text text-anchor="start" x="2736.9" y="-31.36" font-family="Times,serif" text-decoration="underline" font-size="12.00">Hinweis:</text>
<text text-anchor="start" x="2736.9" y="-19.36" font-family="Times,serif" font-size="12.00">Cluster: Ablehnung</text>
<text text-anchor="start" x="2736.9" y="-7.36" font-family="Times,serif" font-size="12.00">MaBiS-ZP bereits aktiviert</text>
</g>
<!-- 10&#45;&gt;A10 -->
<g id="edge20" class="edge">
<title>10-&gt;A10</title>
<path fill="none" stroke="black" d="M2902.34,-127.4C2888.92,-112.27 2868.85,-89.64 2851.6,-70.19"/>
<polygon fill="black" stroke="black" points="2854.42,-68.09 2845.17,-62.93 2849.19,-72.74 2854.42,-68.09"/>
<text text-anchor="middle" x="2880.28" y="-83.47" font-family="Times,serif" font-size="14.00">Ja</text>
</g>
<!-- A11 -->
<g id="node22" class="node">
<title>A11</title>
<polygon fill="#cfb986" stroke="black" points="3106.64,-61.52 2928.41,-61.52 2928.41,0 3106.64,0 3106.64,-61.52"/>
<text text-anchor="start" x="3002.53" y="-43.46" font-family="Times,serif" font-weight="bold" font-size="14.00">A11</text>
<text text-anchor="start" x="2940.65" y="-31.36" font-family="Times,serif" text-decoration="underline" font-size="12.00">Hinweis:</text>
<text text-anchor="start" x="2940.65" y="-19.36" font-family="Times,serif" font-size="12.00">Cluster: Zustimmung</text>
<text text-anchor="start" x="2940.65" y="-7.36" font-family="Times,serif" font-size="12.00">Aktivierung durchgef&#252;hrt</text>
</g>
<!-- 10&#45;&gt;A11 -->
<g id="edge21" class="edge">
<title>10-&gt;A11</title>
<path fill="none" stroke="black" d="M2932.71,-127.4C2946.13,-112.27 2966.2,-89.64 2983.45,-70.19"/>
<polygon fill="black" stroke="black" points="2985.86,-72.74 2989.88,-62.93 2980.63,-68.09 2985.86,-72.74"/>
<text text-anchor="middle" x="2990.4" y="-83.47" font-family="Times,serif" font-size="14.00">Nein</text>
</g>
</g>
</svg>
  </g>
</svg>
  </g>
</svg>
