<?xml version='1.0' encoding='ASCII' standalone='yes'?>
<svg xmlns="http://www.w3.org/2000/svg" xmlns:xlink="http://www.w3.org/1999/xlink" version="1.1" width="1920.0px" viewBox="0 0 1920.0 1473.3333333333333" height="1473.3333333333333px">
  <g>
    <svg version="1.1" width="1920.0px" viewBox="0 0 1920.0 1473.3333333333333" height="1473.3333333333333px">
  <rect fill="#e7e6e5" x="0" y="0" width="1920.0" height="1473.3333333333333" rx="20" ry="20"/><g>
    <g transform="translate(359.1737538721486, 147.3333333333333) scale(1 1) translate(0, 0) scale(2.074532995400357 2.074532995400357) "><!-- note that I manually added the width and height attribute to the root node
  https://chatgpt.com/share/678e3028-70cc-800b-a296-782714735772
  -->
  <defs>
    <style>.cls-1{fill:#fff;}</style>
  </defs>
  <path class="cls-1" d="M122.44,531.2h-56.1c-11,0-19.9-9.12-19.46-20.11C57.47,243.89,278.15,29.78,547.91,29.78v56.02c0,10.98-8.69,19.89-19.66,20.39-225.51,10.31-405.8,197-405.8,425Z"/>
  <path class="cls-1" d="M273.78,531.2h-55.93c-11.23,0-20.09-9.48-19.43-20.69,10.74-183.44,163.39-329.39,349.48-329.39v56.26c0,10.71-8.27,19.62-18.96,20.35-142.35,9.77-255.17,128.69-255.17,273.46Z"/>
  <path class="cls-1" d="M425.77,531.2h-55.45c-11.65,0-20.6-10.17-19.33-21.75,10.87-99.03,95.03-176.34,196.92-176.34v57.01c0,10.05-7.28,18.75-17.23,20.16-59.22,8.4-104.91,59.42-104.91,120.92Z"/>
</g>
    <svg width="1440pt" height="1105pt" viewBox="0.00 0.00 1440.00 1104.56">
<g id="graph0" class="graph" transform="scale(0.809136 0.809136) rotate(0) translate(4 1361.11)">
<title>D</title>
<text text-anchor="start" x="388.21" y="-1337.01" font-family="Roboto, sans-serif" font-weight="bold" font-size="18.00">MaBiS</text>
<text text-anchor="start" x="388.21" y="-1308.91" font-family="Roboto, sans-serif" font-weight="bold" font-size="16.00">7.36.1: AD: Aktivierung eines MaBiS-Z&#228;hlpunkts f&#252;r die Bilanzkreissummenzeitreihe vom &#220;NB an BIKO und BKV</text>
<!-- Start -->
<g id="node1" class="node">
<title>Start</title>
<path fill="#8ba2d7" stroke="black" stroke-width="0" d="M399.3,-1267.11C399.3,-1267.11 246.75,-1267.11 246.75,-1267.11 240.75,-1267.11 234.75,-1261.11 234.75,-1255.11 234.75,-1255.11 234.75,-1233.83 234.75,-1233.83 234.75,-1227.83 240.75,-1221.83 246.75,-1221.83 246.75,-1221.83 399.3,-1221.83 399.3,-1221.83 405.3,-1221.83 411.3,-1227.83 411.3,-1233.83 411.3,-1233.83 411.3,-1255.11 411.3,-1255.11 411.3,-1261.11 405.3,-1267.11 399.3,-1267.11"/>
<text text-anchor="start" x="249.15" y="-1246.17" font-family="Roboto, sans-serif" font-weight="bold" font-size="14.00">E_0011</text>
<text text-anchor="start" x="249.15" y="-1232.17" font-family="Roboto, sans-serif" font-size="14.00">Pr&#252;fende Rolle: </text>
<text text-anchor="start" x="358.65" y="-1232.17" font-family="Roboto, sans-serif" font-weight="bold" font-size="14.00">BIKO</text>
</g>
<!-- 1 -->
<g id="node2" class="node">
<title>1</title>
<path fill="#c2cee9" stroke="black" stroke-width="0" d="M566.17,-1184.83C566.17,-1184.83 79.88,-1184.83 79.88,-1184.83 73.88,-1184.83 67.87,-1178.83 67.87,-1172.83 67.87,-1172.83 67.87,-1160.83 67.87,-1160.83 67.87,-1154.83 73.87,-1148.83 79.87,-1148.83 79.87,-1148.83 566.17,-1148.83 566.17,-1148.83 572.17,-1148.83 578.17,-1154.83 578.17,-1160.83 578.17,-1160.83 578.17,-1172.83 578.17,-1172.83 578.17,-1178.83 572.17,-1184.83 566.17,-1184.83"/>
<text text-anchor="start" x="82.27" y="-1163.15" font-family="Roboto, sans-serif" font-weight="bold" font-size="14.00">1: </text>
<text text-anchor="start" x="101.77" y="-1163.15" font-family="Roboto, sans-serif" font-size="14.00">Erfolgt die Aktivierung nach Ablauf der Clearingfrist f&#252;r die KBKA?</text>
</g>
<!-- Start&#45;&gt;1 -->
<g id="edge1" class="edge">
<title>Start-&gt;1</title>
<path fill="none" stroke="#88a0d6" d="M323.02,-1222C323.02,-1213.92 323.02,-1204.62 323.02,-1196.02"/>
<polygon fill="#88a0d6" stroke="#88a0d6" points="326.53,-1196.06 323.03,-1186.06 319.53,-1196.06 326.53,-1196.06"/>
</g>
<!-- A01 -->
<g id="node3" class="node">
<title>A01</title>
<path fill="#c4cac1" stroke="black" stroke-width="0" d="M178.93,-1095.58C178.93,-1095.58 39.12,-1095.58 39.12,-1095.58 33.12,-1095.58 27.12,-1089.58 27.12,-1083.58 27.12,-1083.58 27.12,-1055.8 27.12,-1055.8 27.12,-1049.8 33.12,-1043.8 39.12,-1043.8 39.12,-1043.8 178.93,-1043.8 178.93,-1043.8 184.93,-1043.8 190.93,-1049.8 190.93,-1055.8 190.93,-1055.8 190.93,-1083.58 190.93,-1083.58 190.93,-1089.58 184.93,-1095.58 178.93,-1095.58"/>
<text text-anchor="start" x="41.53" y="-1073.64" font-family="Roboto, sans-serif" font-size="14.00">Cluster: Ablehnung</text>
<text text-anchor="start" x="41.53" y="-1056.39" font-family="Roboto, sans-serif" font-size="14.00">Frist&#252;berschreitung</text>
</g>
<!-- 1&#45;&gt;A01 -->
<g id="edge2" class="edge">
<title>1-&gt;A01</title>
<path fill="none" stroke="#88a0d6" d="M285.26,-1149.04C254.9,-1135.54 211.51,-1116.25 175.38,-1100.19"/>
<polygon fill="#88a0d6" stroke="#88a0d6" points="176.85,-1097.01 166.29,-1096.15 174.01,-1103.41 176.85,-1097.01"/>
<text text-anchor="start" x="241.03" y="-1118.53" font-family="Roboto, sans-serif" font-weight="bold" font-size="14.00">JA</text>
</g>
<!-- 2 -->
<g id="node4" class="node">
<title>2</title>
<path fill="#c2cee9" stroke="black" stroke-width="0" d="M617.55,-1087.69C617.55,-1087.69 220.5,-1087.69 220.5,-1087.69 214.5,-1087.69 208.5,-1081.69 208.5,-1075.69 208.5,-1075.69 208.5,-1063.69 208.5,-1063.69 208.5,-1057.69 214.5,-1051.69 220.5,-1051.69 220.5,-1051.69 617.55,-1051.69 617.55,-1051.69 623.55,-1051.69 629.55,-1057.69 629.55,-1063.69 629.55,-1063.69 629.55,-1075.69 629.55,-1075.69 629.55,-1081.69 623.55,-1087.69 617.55,-1087.69"/>
<text text-anchor="start" x="222.9" y="-1066.01" font-family="Roboto, sans-serif" font-weight="bold" font-size="14.00">2: </text>
<text text-anchor="start" x="242.4" y="-1066.01" font-family="Roboto, sans-serif" font-size="14.00">Erfolgt die Aktivierung zum Monatsersten 00:00 Uhr?</text>
</g>
<!-- 1&#45;&gt;2 -->
<g id="edge3" class="edge">
<title>1-&gt;2</title>
<path fill="none" stroke="#88a0d6" d="M339.75,-1149.26C354.8,-1134.34 377.11,-1112.23 394.24,-1095.26"/>
<polygon fill="#88a0d6" stroke="#88a0d6" points="396.46,-1097.98 401.1,-1088.46 391.53,-1093.01 396.46,-1097.98"/>
<text text-anchor="start" x="373.02" y="-1118.53" font-family="Roboto, sans-serif" font-weight="bold" font-size="14.00">NEIN</text>
</g>
<!-- A02 -->
<g id="node5" class="node">
<title>A02</title>
<path fill="#c4cac1" stroke="black" stroke-width="0" d="M271.55,-990.55C271.55,-990.55 24.5,-990.55 24.5,-990.55 18.5,-990.55 12.5,-984.55 12.5,-978.55 12.5,-978.55 12.5,-950.77 12.5,-950.77 12.5,-944.77 18.5,-938.77 24.5,-938.77 24.5,-938.77 271.55,-938.77 271.55,-938.77 277.55,-938.77 283.55,-944.77 283.55,-950.77 283.55,-950.77 283.55,-978.55 283.55,-978.55 283.55,-984.55 277.55,-990.55 271.55,-990.55"/>
<text text-anchor="start" x="26.9" y="-968.61" font-family="Roboto, sans-serif" font-size="14.00">Cluster: Ablehnung</text>
<text text-anchor="start" x="26.9" y="-951.36" font-family="Roboto, sans-serif" font-size="14.00">Gew&#228;hlter Zeitpunkt nicht zul&#228;ssig</text>
</g>
<!-- 2&#45;&gt;A02 -->
<g id="edge4" class="edge">
<title>2-&gt;A02</title>
<path fill="none" stroke="#88a0d6" d="M374.58,-1051.79C333.73,-1036.26 272.33,-1012.92 223.75,-994.45"/>
<polygon fill="#88a0d6" stroke="#88a0d6" points="225.28,-991.29 214.69,-991.01 222.8,-997.83 225.28,-991.29"/>
<text text-anchor="start" x="299.02" y="-1013.5" font-family="Roboto, sans-serif" font-weight="bold" font-size="14.00">NEIN</text>
</g>
<!-- 3 -->
<g id="node6" class="node">
<title>3</title>
<path fill="#c2cee9" stroke="black" stroke-width="0" d="M602.92,-982.66C602.92,-982.66 313.12,-982.66 313.12,-982.66 307.12,-982.66 301.12,-976.66 301.12,-970.66 301.12,-970.66 301.12,-958.66 301.12,-958.66 301.12,-952.66 307.12,-946.66 313.12,-946.66 313.12,-946.66 602.92,-946.66 602.92,-946.66 608.92,-946.66 614.92,-952.66 614.92,-958.66 614.92,-958.66 614.92,-970.66 614.92,-970.66 614.92,-976.66 608.92,-982.66 602.92,-982.66"/>
<text text-anchor="start" x="315.52" y="-960.98" font-family="Roboto, sans-serif" font-weight="bold" font-size="14.00">3: </text>
<text text-anchor="start" x="335.02" y="-960.98" font-family="Roboto, sans-serif" font-size="14.00">Ist die richtige Regelzone angegeben?</text>
</g>
<!-- 2&#45;&gt;3 -->
<g id="edge5" class="edge">
<title>2-&gt;3</title>
<path fill="none" stroke="#88a0d6" d="M425.29,-1052.14C431.31,-1036.23 440.52,-1011.92 447.63,-993.11"/>
<polygon fill="#88a0d6" stroke="#88a0d6" points="450.84,-994.52 451.11,-983.93 444.3,-992.04 450.84,-994.52"/>
<text text-anchor="start" x="440.02" y="-1013.5" font-family="Roboto, sans-serif" font-weight="bold" font-size="14.00">JA</text>
</g>
<!-- A03 -->
<g id="node7" class="node">
<title>A03</title>
<path fill="#c4cac1" stroke="black" stroke-width="0" d="M308.18,-885.52C308.18,-885.52 169.88,-885.52 169.88,-885.52 163.88,-885.52 157.88,-879.52 157.88,-873.52 157.88,-873.52 157.88,-845.74 157.88,-845.74 157.88,-839.74 163.88,-833.74 169.88,-833.74 169.88,-833.74 308.18,-833.74 308.18,-833.74 314.18,-833.74 320.18,-839.74 320.18,-845.74 320.18,-845.74 320.18,-873.52 320.18,-873.52 320.18,-879.52 314.18,-885.52 308.18,-885.52"/>
<text text-anchor="start" x="172.28" y="-863.58" font-family="Roboto, sans-serif" font-size="14.00">Cluster: Ablehnung</text>
<text text-anchor="start" x="172.28" y="-846.33" font-family="Roboto, sans-serif" font-size="14.00">Regelzone falsch</text>
</g>
<!-- 3&#45;&gt;A03 -->
<g id="edge6" class="edge">
<title>3-&gt;A03</title>
<path fill="none" stroke="#88a0d6" d="M422.35,-946.88C389.86,-931.59 341.15,-908.67 302.1,-890.3"/>
<polygon fill="#88a0d6" stroke="#88a0d6" points="303.79,-887.23 293.25,-886.14 300.81,-893.56 303.79,-887.23"/>
<text text-anchor="start" x="361.02" y="-908.47" font-family="Roboto, sans-serif" font-weight="bold" font-size="14.00">NEIN</text>
</g>
<!-- 4 -->
<g id="node8" class="node">
<title>4</title>
<path fill="#c2cee9" stroke="black" stroke-width="0" d="M885.55,-877.63C885.55,-877.63 350.5,-877.63 350.5,-877.63 344.5,-877.63 338.5,-871.63 338.5,-865.63 338.5,-865.63 338.5,-853.63 338.5,-853.63 338.5,-847.63 344.5,-841.63 350.5,-841.63 350.5,-841.63 885.55,-841.63 885.55,-841.63 891.55,-841.63 897.55,-847.63 897.55,-853.63 897.55,-853.63 897.55,-865.63 897.55,-865.63 897.55,-871.63 891.55,-877.63 885.55,-877.63"/>
<text text-anchor="start" x="352.9" y="-855.95" font-family="Roboto, sans-serif" font-weight="bold" font-size="14.00">4: </text>
<text text-anchor="start" x="372.4" y="-855.95" font-family="Roboto, sans-serif" font-size="14.00">Erfolgt die Aktivierung des MaBiS-ZP auf Ebene des Bilanzierungsgebiet?</text>
</g>
<!-- 3&#45;&gt;4 -->
<g id="edge7" class="edge">
<title>3-&gt;4</title>
<path fill="none" stroke="#88a0d6" d="M484.09,-946.88C510.74,-929.72 552.34,-902.93 582.11,-883.76"/>
<polygon fill="#88a0d6" stroke="#88a0d6" points="583.92,-886.75 590.43,-878.4 580.13,-880.87 583.92,-886.75"/>
<text text-anchor="start" x="547.02" y="-908.47" font-family="Roboto, sans-serif" font-weight="bold" font-size="14.00">JA</text>
</g>
<!-- 5 -->
<g id="node9" class="node">
<title>5</title>
<path fill="#c2cee9" stroke="black" stroke-width="0" d="M759.05,-775.85C759.05,-775.85 131,-775.85 131,-775.85 125,-775.85 119,-769.85 119,-763.85 119,-763.85 119,-751.85 119,-751.85 119,-745.85 125,-739.85 131,-739.85 131,-739.85 759.05,-739.85 759.05,-739.85 765.05,-739.85 771.05,-745.85 771.05,-751.85 771.05,-751.85 771.05,-763.85 771.05,-763.85 771.05,-769.85 765.05,-775.85 759.05,-775.85"/>
<text text-anchor="start" x="133.4" y="-754.17" font-family="Roboto, sans-serif" font-weight="bold" font-size="14.00">5: </text>
<text text-anchor="start" x="152.9" y="-754.17" font-family="Roboto, sans-serif" font-size="14.00">Ist das Bilanzierungsgebiet zum Aktivierungsbeginn in der Regelzone des BIKO g&#252;ltig?</text>
</g>
<!-- 4&#45;&gt;5 -->
<g id="edge9" class="edge">
<title>4-&gt;5</title>
<path fill="none" stroke="#88a0d6" d="M588.68,-841.7C559.89,-825.1 515.8,-799.67 484.06,-781.37"/>
<polygon fill="#88a0d6" stroke="#88a0d6" points="485.95,-778.41 475.54,-776.45 482.45,-784.48 485.95,-778.41"/>
<text text-anchor="start" x="541.02" y="-803.44" font-family="Roboto, sans-serif" font-weight="bold" font-size="14.00">JA</text>
</g>
<!-- 8 -->
<g id="node15" class="node">
<title>8</title>
<path fill="#c2cee9" stroke="black" stroke-width="0" d="M1348.93,-780.49C1348.93,-780.49 801.13,-780.49 801.13,-780.49 795.13,-780.49 789.13,-774.49 789.13,-768.49 789.13,-768.49 789.13,-747.21 789.13,-747.21 789.13,-741.21 795.13,-735.21 801.13,-735.21 801.13,-735.21 1348.93,-735.21 1348.93,-735.21 1354.93,-735.21 1360.93,-741.21 1360.93,-747.21 1360.93,-747.21 1360.93,-768.49 1360.93,-768.49 1360.93,-774.49 1354.93,-780.49 1348.93,-780.49"/>
<text text-anchor="start" x="803.53" y="-759.55" font-family="Roboto, sans-serif" font-weight="bold" font-size="14.00">8: </text>
<text text-anchor="start" x="823.03" y="-759.55" font-family="Roboto, sans-serif" font-size="14.00">Existiert bereits ein abweichendes Tupel aus Aggregationsverantwortlicher,</text>
<text text-anchor="start" x="803.53" y="-745.55" font-family="Roboto, sans-serif" font-size="14.00">Regelzone, Bilanzkreis und ZRT unter der ID des MaBiS-ZP?</text>
</g>
<!-- 4&#45;&gt;8 -->
<g id="edge8" class="edge">
<title>4-&gt;8</title>
<path fill="none" stroke="#88a0d6" d="M695.81,-841.65C769.81,-825.49 881.9,-801.02 965.04,-782.86"/>
<polygon fill="#88a0d6" stroke="#88a0d6" points="965.55,-786.33 974.58,-780.78 964.06,-779.5 965.55,-786.33"/>
<text text-anchor="start" x="887.02" y="-803.44" font-family="Roboto, sans-serif" font-weight="bold" font-size="14.00">NEIN</text>
</g>
<!-- A04 -->
<g id="node10" class="node">
<title>A04</title>
<path fill="#c4cac1" stroke="black" stroke-width="0" d="M238.05,-681.96C238.05,-681.96 12,-681.96 12,-681.96 6,-681.96 0,-675.96 0,-669.96 0,-669.96 0,-642.18 0,-642.18 0,-636.18 6,-630.18 12,-630.18 12,-630.18 238.05,-630.18 238.05,-630.18 244.05,-630.18 250.05,-636.18 250.05,-642.18 250.05,-642.18 250.05,-669.96 250.05,-669.96 250.05,-675.96 244.05,-681.96 238.05,-681.96"/>
<text text-anchor="start" x="14.4" y="-660.02" font-family="Roboto, sans-serif" font-size="14.00">Cluster: Ablehnung</text>
<text text-anchor="start" x="14.4" y="-642.77" font-family="Roboto, sans-serif" font-size="14.00">Bilanzierungsgebiet nicht g&#252;ltig</text>
</g>
<!-- 5&#45;&gt;A04 -->
<g id="edge10" class="edge">
<title>5-&gt;A04</title>
<path fill="none" stroke="#88a0d6" d="M390.74,-739.92C342.83,-724.98 272.03,-702.91 215.56,-685.3"/>
<polygon fill="#88a0d6" stroke="#88a0d6" points="216.86,-682.04 206.27,-682.4 214.78,-688.72 216.86,-682.04"/>
<text text-anchor="start" x="313.02" y="-704.91" font-family="Roboto, sans-serif" font-weight="bold" font-size="14.00">NEIN</text>
</g>
<!-- 6 -->
<g id="node11" class="node">
<title>6</title>
<path fill="#c2cee9" stroke="black" stroke-width="0" d="M827.92,-678.71C827.92,-678.71 280.12,-678.71 280.12,-678.71 274.12,-678.71 268.12,-672.71 268.12,-666.71 268.12,-666.71 268.12,-645.43 268.12,-645.43 268.12,-639.43 274.12,-633.43 280.12,-633.43 280.12,-633.43 827.92,-633.43 827.92,-633.43 833.92,-633.43 839.92,-639.43 839.92,-645.43 839.92,-645.43 839.92,-666.71 839.92,-666.71 839.92,-672.71 833.92,-678.71 827.92,-678.71"/>
<text text-anchor="start" x="282.52" y="-657.77" font-family="Roboto, sans-serif" font-weight="bold" font-size="14.00">6: </text>
<text text-anchor="start" x="302.02" y="-657.77" font-family="Roboto, sans-serif" font-size="14.00">Existiert bereits ein abweichendes Tupel aus Aggregationsverantwortlicher,</text>
<text text-anchor="start" x="282.52" y="-643.77" font-family="Roboto, sans-serif" font-size="14.00">Bilanzierungsgebiet, Bilanzkreis und ZRT unter der ID des MaBiS-ZP?</text>
</g>
<!-- 5&#45;&gt;6 -->
<g id="edge11" class="edge">
<title>5-&gt;6</title>
<path fill="none" stroke="#88a0d6" d="M463.52,-739.92C479.53,-725.27 503.05,-703.74 522.1,-686.3"/>
<polygon fill="#88a0d6" stroke="#88a0d6" points="524.36,-688.97 529.37,-679.64 519.64,-683.81 524.36,-688.97"/>
<text text-anchor="start" x="506.02" y="-704.91" font-family="Roboto, sans-serif" font-weight="bold" font-size="14.00">JA</text>
</g>
<!-- A05 -->
<g id="node12" class="node">
<title>A05</title>
<path fill="#c4cac1" stroke="black" stroke-width="0" d="M453.42,-576.93C453.42,-576.93 148.62,-576.93 148.62,-576.93 142.62,-576.93 136.62,-570.93 136.62,-564.93 136.62,-564.93 136.62,-537.15 136.62,-537.15 136.62,-531.15 142.62,-525.15 148.62,-525.15 148.62,-525.15 453.42,-525.15 453.42,-525.15 459.42,-525.15 465.42,-531.15 465.42,-537.15 465.42,-537.15 465.42,-564.93 465.42,-564.93 465.42,-570.93 459.42,-576.93 453.42,-576.93"/>
<text text-anchor="start" x="151.02" y="-554.99" font-family="Roboto, sans-serif" font-size="14.00">Cluster: Ablehnung</text>
<text text-anchor="start" x="151.02" y="-537.74" font-family="Roboto, sans-serif" font-size="14.00">Abweichender MaBiS-ZP bereits vorhanden</text>
</g>
<!-- 6&#45;&gt;A05 -->
<g id="edge12" class="edge">
<title>6-&gt;A05</title>
<path fill="none" stroke="#88a0d6" d="M500.99,-633.47C463.67,-618.27 413.29,-597.76 372.43,-581.12"/>
<polygon fill="#88a0d6" stroke="#88a0d6" points="373.98,-577.97 363.4,-577.44 371.34,-584.45 373.98,-577.97"/>
<text text-anchor="start" x="442.02" y="-599.88" font-family="Roboto, sans-serif" font-weight="bold" font-size="14.00">JA</text>
</g>
<!-- 7 -->
<g id="node13" class="node">
<title>7</title>
<path fill="#c2cee9" stroke="black" stroke-width="0" d="M1042.17,-573.68C1042.17,-573.68 495.88,-573.68 495.88,-573.68 489.88,-573.68 483.88,-567.68 483.88,-561.68 483.88,-561.68 483.88,-540.4 483.88,-540.4 483.88,-534.4 489.88,-528.4 495.88,-528.4 495.88,-528.4 1042.17,-528.4 1042.17,-528.4 1048.17,-528.4 1054.17,-534.4 1054.17,-540.4 1054.17,-540.4 1054.17,-561.68 1054.17,-561.68 1054.17,-567.68 1048.17,-573.68 1042.17,-573.68"/>
<text text-anchor="start" x="498.27" y="-552.74" font-family="Roboto, sans-serif" font-weight="bold" font-size="14.00">7: </text>
<text text-anchor="start" x="517.77" y="-552.74" font-family="Roboto, sans-serif" font-size="14.00">Existiert bereits f&#252;r das genannte Tupel aus Aggregationsverantwortlicher,</text>
<text text-anchor="start" x="498.27" y="-538.74" font-family="Roboto, sans-serif" font-size="14.00">Bilanzierungsgebiet, Bilanzkreis und ZRT eine abweichende ID des MaBiS-ZP?</text>
</g>
<!-- 6&#45;&gt;7 -->
<g id="edge13" class="edge">
<title>6-&gt;7</title>
<path fill="none" stroke="#88a0d6" d="M599.1,-633.47C632.49,-617.47 678.19,-595.57 713.79,-578.51"/>
<polygon fill="#88a0d6" stroke="#88a0d6" points="715.14,-581.74 722.65,-574.26 712.12,-575.43 715.14,-581.74"/>
<text text-anchor="start" x="674.02" y="-599.88" font-family="Roboto, sans-serif" font-weight="bold" font-size="14.00">NEIN</text>
</g>
<!-- A06 -->
<g id="node14" class="node">
<title>A06</title>
<path fill="#c4cac1" stroke="black" stroke-width="0" d="M945.42,-471.9C945.42,-471.9 592.62,-471.9 592.62,-471.9 586.62,-471.9 580.62,-465.9 580.62,-459.9 580.62,-459.9 580.62,-432.12 580.62,-432.12 580.62,-426.12 586.62,-420.12 592.62,-420.12 592.62,-420.12 945.42,-420.12 945.42,-420.12 951.42,-420.12 957.42,-426.12 957.42,-432.12 957.42,-432.12 957.42,-459.9 957.42,-459.9 957.42,-465.9 951.42,-471.9 945.42,-471.9"/>
<text text-anchor="start" x="595.02" y="-449.96" font-family="Roboto, sans-serif" font-size="14.00">Cluster: Ablehnung</text>
<text text-anchor="start" x="595.02" y="-432.71" font-family="Roboto, sans-serif" font-size="14.00">Abweichende ID zum MaBiS-ZP bereits vorhanden</text>
</g>
<!-- 7&#45;&gt;A06 -->
<g id="edge14" class="edge">
<title>7-&gt;A06</title>
<path fill="none" stroke="#88a0d6" d="M769.02,-528.69C769.02,-515.45 769.02,-498.09 769.02,-482.79"/>
<polygon fill="#88a0d6" stroke="#88a0d6" points="772.53,-483.1 769.03,-473.1 765.53,-483.1 772.53,-483.1"/>
<text text-anchor="start" x="769.02" y="-494.85" font-family="Roboto, sans-serif" font-weight="bold" font-size="14.00">JA</text>
</g>
<!-- 10 -->
<g id="node19" class="node">
<title>10</title>
<path fill="#c2cee9" stroke="black" stroke-width="0" d="M1500.55,-464.01C1500.55,-464.01 1115.5,-464.01 1115.5,-464.01 1109.5,-464.01 1103.5,-458.01 1103.5,-452.01 1103.5,-452.01 1103.5,-440.01 1103.5,-440.01 1103.5,-434.01 1109.5,-428.01 1115.5,-428.01 1115.5,-428.01 1500.55,-428.01 1500.55,-428.01 1506.55,-428.01 1512.55,-434.01 1512.55,-440.01 1512.55,-440.01 1512.55,-452.01 1512.55,-452.01 1512.55,-458.01 1506.55,-464.01 1500.55,-464.01"/>
<text text-anchor="start" x="1117.9" y="-442.33" font-family="Roboto, sans-serif" font-weight="bold" font-size="14.00">10: </text>
<text text-anchor="start" x="1147.15" y="-442.33" font-family="Roboto, sans-serif" font-size="14.00">Ist der Bilanzkreis zum Aktivierungsbeginn g&#252;ltig?</text>
</g>
<!-- 7&#45;&gt;10 -->
<g id="edge15" class="edge">
<title>7-&gt;10</title>
<path fill="none" stroke="#88a0d6" d="M882.02,-528.44C978.42,-510.01 1115.72,-483.77 1208.16,-466.1"/>
<polygon fill="#88a0d6" stroke="#88a0d6" points="1208.55,-469.59 1217.72,-464.27 1207.24,-462.71 1208.55,-469.59"/>
<text text-anchor="start" x="1070.03" y="-494.85" font-family="Roboto, sans-serif" font-weight="bold" font-size="14.00">NEIN</text>
</g>
<!-- A07 -->
<g id="node16" class="node">
<title>A07</title>
<path fill="#c4cac1" stroke="black" stroke-width="0" d="M1174.42,-681.96C1174.42,-681.96 869.62,-681.96 869.62,-681.96 863.62,-681.96 857.62,-675.96 857.62,-669.96 857.62,-669.96 857.62,-642.18 857.62,-642.18 857.62,-636.18 863.62,-630.18 869.62,-630.18 869.62,-630.18 1174.42,-630.18 1174.42,-630.18 1180.42,-630.18 1186.42,-636.18 1186.42,-642.18 1186.42,-642.18 1186.42,-669.96 1186.42,-669.96 1186.42,-675.96 1180.42,-681.96 1174.42,-681.96"/>
<text text-anchor="start" x="872.02" y="-660.02" font-family="Roboto, sans-serif" font-size="14.00">Cluster: Ablehnung</text>
<text text-anchor="start" x="872.02" y="-642.77" font-family="Roboto, sans-serif" font-size="14.00">Abweichender MaBiS-ZP bereits vorhanden</text>
</g>
<!-- 8&#45;&gt;A07 -->
<g id="edge16" class="edge">
<title>8-&gt;A07</title>
<path fill="none" stroke="#88a0d6" d="M1063.79,-735.69C1056.97,-722.86 1048.11,-706.19 1040.31,-691.5"/>
<polygon fill="#88a0d6" stroke="#88a0d6" points="1043.61,-690.24 1035.83,-683.06 1037.43,-693.53 1043.61,-690.24"/>
<text text-anchor="start" x="1053.03" y="-704.91" font-family="Roboto, sans-serif" font-weight="bold" font-size="14.00">JA</text>
</g>
<!-- 9 -->
<g id="node17" class="node">
<title>9</title>
<path fill="#c2cee9" stroke="black" stroke-width="0" d="M1759.68,-678.71C1759.68,-678.71 1216.38,-678.71 1216.38,-678.71 1210.38,-678.71 1204.38,-672.71 1204.38,-666.71 1204.38,-666.71 1204.38,-645.43 1204.38,-645.43 1204.38,-639.43 1210.38,-633.43 1216.38,-633.43 1216.38,-633.43 1759.68,-633.43 1759.68,-633.43 1765.68,-633.43 1771.68,-639.43 1771.68,-645.43 1771.68,-645.43 1771.68,-666.71 1771.68,-666.71 1771.68,-672.71 1765.68,-678.71 1759.68,-678.71"/>
<text text-anchor="start" x="1218.78" y="-657.77" font-family="Roboto, sans-serif" font-weight="bold" font-size="14.00">9: </text>
<text text-anchor="start" x="1238.28" y="-657.77" font-family="Roboto, sans-serif" font-size="14.00">Existiert bereits f&#252;r das genannte Tupel aus Aggregationsverantwortlicher,</text>
<text text-anchor="start" x="1218.78" y="-643.77" font-family="Roboto, sans-serif" font-size="14.00">Regelzone, Bilanzkreis und ZRT eine abweichende ID des MaBiS-ZP?</text>
</g>
<!-- 8&#45;&gt;9 -->
<g id="edge17" class="edge">
<title>8-&gt;9</title>
<path fill="none" stroke="#88a0d6" d="M1164.39,-735.26C1229.99,-719.41 1319.17,-697.87 1387.3,-681.4"/>
<polygon fill="#88a0d6" stroke="#88a0d6" points="1388.11,-684.81 1397,-679.06 1386.46,-678.01 1388.11,-684.81"/>
<text text-anchor="start" x="1306.03" y="-704.91" font-family="Roboto, sans-serif" font-weight="bold" font-size="14.00">NEIN</text>
</g>
<!-- A08 -->
<g id="node18" class="node">
<title>A08</title>
<path fill="#c4cac1" stroke="black" stroke-width="0" d="M1441.68,-576.93C1441.68,-576.93 1084.38,-576.93 1084.38,-576.93 1078.38,-576.93 1072.38,-570.93 1072.38,-564.93 1072.38,-564.93 1072.38,-537.15 1072.38,-537.15 1072.38,-531.15 1078.38,-525.15 1084.38,-525.15 1084.38,-525.15 1441.68,-525.15 1441.68,-525.15 1447.68,-525.15 1453.68,-531.15 1453.68,-537.15 1453.68,-537.15 1453.68,-564.93 1453.68,-564.93 1453.68,-570.93 1447.68,-576.93 1441.68,-576.93"/>
<text text-anchor="start" x="1086.78" y="-554.99" font-family="Roboto, sans-serif" font-size="14.00">Cluster: Ablehnung</text>
<text text-anchor="start" x="1086.78" y="-537.74" font-family="Roboto, sans-serif" font-size="14.00">Abweichende ID zum MaBiS-ZP bereits vor-handen</text>
</g>
<!-- 9&#45;&gt;A08 -->
<g id="edge18" class="edge">
<title>9-&gt;A08</title>
<path fill="none" stroke="#88a0d6" d="M1440.86,-633.47C1408.02,-618.43 1363.81,-598.19 1327.69,-581.65"/>
<polygon fill="#88a0d6" stroke="#88a0d6" points="1329.17,-578.48 1318.63,-577.5 1326.26,-584.85 1329.17,-578.48"/>
<text text-anchor="start" x="1388.03" y="-599.88" font-family="Roboto, sans-serif" font-weight="bold" font-size="14.00">JA</text>
</g>
<!-- 9&#45;&gt;10 -->
<g id="edge19" class="edge">
<title>9-&gt;10</title>
<path fill="none" stroke="#88a0d6" d="M1489.39,-633.44C1490.01,-605.6 1487.12,-557.04 1463.03,-525.15 1442.79,-498.37 1410.83,-480.1 1381.17,-468.01"/>
<polygon fill="#88a0d6" stroke="#88a0d6" points="1382.8,-464.89 1372.21,-464.53 1380.27,-471.41 1382.8,-464.89"/>
<text text-anchor="start" x="1484.03" y="-547.37" font-family="Roboto, sans-serif" font-weight="bold" font-size="14.00">NEIN</text>
</g>
<!-- A09 -->
<g id="node20" class="node">
<title>A09</title>
<path fill="#c4cac1" stroke="black" stroke-width="0" d="M1198.55,-366.87C1198.55,-366.87 1035.5,-366.87 1035.5,-366.87 1029.5,-366.87 1023.5,-360.87 1023.5,-354.87 1023.5,-354.87 1023.5,-327.09 1023.5,-327.09 1023.5,-321.09 1029.5,-315.09 1035.5,-315.09 1035.5,-315.09 1198.55,-315.09 1198.55,-315.09 1204.55,-315.09 1210.55,-321.09 1210.55,-327.09 1210.55,-327.09 1210.55,-354.87 1210.55,-354.87 1210.55,-360.87 1204.55,-366.87 1198.55,-366.87"/>
<text text-anchor="start" x="1037.9" y="-344.93" font-family="Roboto, sans-serif" font-size="14.00">Cluster: Ablehnung</text>
<text text-anchor="start" x="1037.9" y="-327.68" font-family="Roboto, sans-serif" font-size="14.00">Bilanzkreis nicht g&#252;ltig</text>
</g>
<!-- 10&#45;&gt;A09 -->
<g id="edge20" class="edge">
<title>10-&gt;A09</title>
<path fill="none" stroke="#88a0d6" d="M1276.91,-428.23C1248.82,-413.07 1206.81,-390.41 1172.9,-372.12"/>
<polygon fill="#88a0d6" stroke="#88a0d6" points="1174.91,-369.23 1164.45,-367.56 1171.59,-375.39 1174.91,-369.23"/>
<text text-anchor="start" x="1223.03" y="-389.82" font-family="Roboto, sans-serif" font-weight="bold" font-size="14.00">NEIN</text>
</g>
<!-- 11 -->
<g id="node21" class="node">
<title>11</title>
<path fill="#c2cee9" stroke="black" stroke-width="0" d="M1609.68,-358.98C1609.68,-358.98 1240.38,-358.98 1240.38,-358.98 1234.38,-358.98 1228.38,-352.98 1228.38,-346.98 1228.38,-346.98 1228.38,-334.98 1228.38,-334.98 1228.38,-328.98 1234.38,-322.98 1240.38,-322.98 1240.38,-322.98 1609.68,-322.98 1609.68,-322.98 1615.68,-322.98 1621.68,-328.98 1621.68,-334.98 1621.68,-334.98 1621.68,-346.98 1621.68,-346.98 1621.68,-352.98 1615.68,-358.98 1609.68,-358.98"/>
<text text-anchor="start" x="1242.78" y="-337.3" font-family="Roboto, sans-serif" font-weight="bold" font-size="14.00">11: </text>
<text text-anchor="start" x="1272.03" y="-337.3" font-family="Roboto, sans-serif" font-size="14.00">Ist der &#220;NB zur Aktivierung des ZRT berechtigt?</text>
</g>
<!-- 10&#45;&gt;11 -->
<g id="edge21" class="edge">
<title>10-&gt;11</title>
<path fill="none" stroke="#88a0d6" d="M1327.08,-428.23C1346.21,-411.39 1375.85,-385.28 1397.52,-366.2"/>
<polygon fill="#88a0d6" stroke="#88a0d6" points="1399.65,-368.99 1404.84,-359.76 1395.02,-363.74 1399.65,-368.99"/>
<text text-anchor="start" x="1373.03" y="-389.82" font-family="Roboto, sans-serif" font-weight="bold" font-size="14.00">JA</text>
</g>
<!-- A10 -->
<g id="node22" class="node">
<title>A10</title>
<path fill="#c4cac1" stroke="black" stroke-width="0" d="M1304.3,-261.84C1304.3,-261.84 1073.75,-261.84 1073.75,-261.84 1067.75,-261.84 1061.75,-255.84 1061.75,-249.84 1061.75,-249.84 1061.75,-222.06 1061.75,-222.06 1061.75,-216.06 1067.75,-210.06 1073.75,-210.06 1073.75,-210.06 1304.3,-210.06 1304.3,-210.06 1310.3,-210.06 1316.3,-216.06 1316.3,-222.06 1316.3,-222.06 1316.3,-249.84 1316.3,-249.84 1316.3,-255.84 1310.3,-261.84 1304.3,-261.84"/>
<text text-anchor="start" x="1076.15" y="-239.9" font-family="Roboto, sans-serif" font-size="14.00">Cluster: Ablehnung</text>
<text text-anchor="start" x="1076.15" y="-222.65" font-family="Roboto, sans-serif" font-size="14.00">ZRT Aktivierung nicht berechtigt</text>
</g>
<!-- 11&#45;&gt;A10 -->
<g id="edge22" class="edge">
<title>11-&gt;A10</title>
<path fill="none" stroke="#88a0d6" d="M1386.32,-323.08C1351.12,-307.71 1298.4,-284.7 1256.31,-266.32"/>
<polygon fill="#88a0d6" stroke="#88a0d6" points="1257.8,-263.16 1247.24,-262.36 1255,-269.57 1257.8,-263.16"/>
<text text-anchor="start" x="1321.03" y="-284.79" font-family="Roboto, sans-serif" font-weight="bold" font-size="14.00">NEIN</text>
</g>
<!-- 12 -->
<g id="node23" class="node">
<title>12</title>
<path fill="#c2cee9" stroke="black" stroke-width="0" d="M1622.18,-253.95C1622.18,-253.95 1345.88,-253.95 1345.88,-253.95 1339.88,-253.95 1333.88,-247.95 1333.88,-241.95 1333.88,-241.95 1333.88,-229.95 1333.88,-229.95 1333.88,-223.95 1339.88,-217.95 1345.88,-217.95 1345.88,-217.95 1622.18,-217.95 1622.18,-217.95 1628.18,-217.95 1634.18,-223.95 1634.18,-229.95 1634.18,-229.95 1634.18,-241.95 1634.18,-241.95 1634.18,-247.95 1628.18,-253.95 1622.18,-253.95"/>
<text text-anchor="start" x="1348.28" y="-232.27" font-family="Roboto, sans-serif" font-weight="bold" font-size="14.00">12: </text>
<text text-anchor="start" x="1377.53" y="-232.27" font-family="Roboto, sans-serif" font-size="14.00">Passt die OBIS-Kennzahl zum ZRT?</text>
</g>
<!-- 11&#45;&gt;12 -->
<g id="edge23" class="edge">
<title>11-&gt;12</title>
<path fill="none" stroke="#88a0d6" d="M1434.5,-323.43C1443.74,-307.3 1457.93,-282.52 1468.76,-263.61"/>
<polygon fill="#88a0d6" stroke="#88a0d6" points="1471.69,-265.54 1473.62,-255.12 1465.61,-262.06 1471.69,-265.54"/>
<text text-anchor="start" x="1458.03" y="-284.79" font-family="Roboto, sans-serif" font-weight="bold" font-size="14.00">JA</text>
</g>
<!-- A11 -->
<g id="node24" class="node">
<title>A11</title>
<path fill="#c4cac1" stroke="black" stroke-width="0" d="M1226.68,-156.81C1226.68,-156.81 1085.38,-156.81 1085.38,-156.81 1079.38,-156.81 1073.38,-150.81 1073.38,-144.81 1073.38,-144.81 1073.38,-117.03 1073.38,-117.03 1073.38,-111.03 1079.38,-105.03 1085.38,-105.03 1085.38,-105.03 1226.68,-105.03 1226.68,-105.03 1232.68,-105.03 1238.68,-111.03 1238.68,-117.03 1238.68,-117.03 1238.68,-144.81 1238.68,-144.81 1238.68,-150.81 1232.68,-156.81 1226.68,-156.81"/>
<text text-anchor="start" x="1087.78" y="-134.87" font-family="Roboto, sans-serif" font-size="14.00">Cluster: Ablehnung</text>
<text text-anchor="start" x="1087.78" y="-117.62" font-family="Roboto, sans-serif" font-size="14.00">OBIS nicht passend</text>
</g>
<!-- 12&#45;&gt;A11 -->
<g id="edge24" class="edge">
<title>12-&gt;A11</title>
<path fill="none" stroke="#88a0d6" d="M1430.23,-218.05C1380.27,-202.36 1304.92,-178.69 1245.84,-160.13"/>
<polygon fill="#88a0d6" stroke="#88a0d6" points="1247.04,-156.84 1236.45,-157.18 1244.94,-163.52 1247.04,-156.84"/>
<text text-anchor="start" x="1339.03" y="-179.76" font-family="Roboto, sans-serif" font-weight="bold" font-size="14.00">NEIN</text>
</g>
<!-- 13 -->
<g id="node25" class="node">
<title>13</title>
<path fill="#c2cee9" stroke="black" stroke-width="0" d="M1757.68,-148.92C1757.68,-148.92 1268.38,-148.92 1268.38,-148.92 1262.38,-148.92 1256.38,-142.92 1256.38,-136.92 1256.38,-136.92 1256.38,-124.92 1256.38,-124.92 1256.38,-118.92 1262.38,-112.92 1268.38,-112.92 1268.38,-112.92 1757.68,-112.92 1757.68,-112.92 1763.68,-112.92 1769.68,-118.92 1769.68,-124.92 1769.68,-124.92 1769.68,-136.92 1769.68,-136.92 1769.68,-142.92 1763.68,-148.92 1757.68,-148.92"/>
<text text-anchor="start" x="1270.78" y="-127.25" font-family="Roboto, sans-serif" font-weight="bold" font-size="14.00">13: </text>
<text text-anchor="start" x="1300.03" y="-127.25" font-family="Roboto, sans-serif" font-size="14.00">Ist der MaBiS-ZP zum Zeitpunkt der Aktivierung bereits aktiviert?</text>
</g>
<!-- 12&#45;&gt;13 -->
<g id="edge25" class="edge">
<title>12-&gt;13</title>
<path fill="none" stroke="#88a0d6" d="M1488.68,-218.4C1493.14,-202.57 1499.94,-178.4 1505.22,-159.64"/>
<polygon fill="#88a0d6" stroke="#88a0d6" points="1508.53,-160.81 1507.87,-150.23 1501.79,-158.91 1508.53,-160.81"/>
<text text-anchor="start" x="1500.03" y="-179.76" font-family="Roboto, sans-serif" font-weight="bold" font-size="14.00">JA</text>
</g>
<!-- A12 -->
<g id="node26" class="node">
<title>A12</title>
<path fill="#c4cac1" stroke="black" stroke-width="0" d="M1459.05,-51.78C1459.05,-51.78 1275,-51.78 1275,-51.78 1269,-51.78 1263,-45.78 1263,-39.78 1263,-39.78 1263,-12 1263,-12 1263,-6 1269,0 1275,0 1275,0 1459.05,0 1459.05,0 1465.05,0 1471.05,-6 1471.05,-12 1471.05,-12 1471.05,-39.78 1471.05,-39.78 1471.05,-45.78 1465.05,-51.78 1459.05,-51.78"/>
<text text-anchor="start" x="1277.4" y="-29.84" font-family="Roboto, sans-serif" font-size="14.00">Cluster: Ablehnung</text>
<text text-anchor="start" x="1277.4" y="-12.59" font-family="Roboto, sans-serif" font-size="14.00">MaBiS-ZP bereits aktiviert</text>
</g>
<!-- 13&#45;&gt;A12 -->
<g id="edge26" class="edge">
<title>13-&gt;A12</title>
<path fill="none" stroke="#88a0d6" d="M1489.24,-113.14C1468.23,-98.31 1437.03,-76.29 1411.42,-58.22"/>
<polygon fill="#88a0d6" stroke="#88a0d6" points="1413.69,-55.53 1403.5,-52.63 1409.65,-61.25 1413.69,-55.53"/>
<text text-anchor="start" x="1448.03" y="-74.73" font-family="Roboto, sans-serif" font-weight="bold" font-size="14.00">JA</text>
</g>
<!-- A13 -->
<g id="node27" class="node">
<title>A13</title>
<path fill="#c4cac1" stroke="black" stroke-width="0" d="M1682.55,-51.78C1682.55,-51.78 1501.5,-51.78 1501.5,-51.78 1495.5,-51.78 1489.5,-45.78 1489.5,-39.78 1489.5,-39.78 1489.5,-12 1489.5,-12 1489.5,-6 1495.5,0 1501.5,0 1501.5,0 1682.55,0 1682.55,0 1688.55,0 1694.55,-6 1694.55,-12 1694.55,-12 1694.55,-39.78 1694.55,-39.78 1694.55,-45.78 1688.55,-51.78 1682.55,-51.78"/>
<text text-anchor="start" x="1503.9" y="-29.84" font-family="Roboto, sans-serif" font-size="14.00">Cluster: Zustimmung </text>
<text text-anchor="start" x="1503.9" y="-12.59" font-family="Roboto, sans-serif" font-size="14.00">Aktivierung durchgef&#252;hrt</text>
</g>
<!-- 13&#45;&gt;A13 -->
<g id="edge27" class="edge">
<title>13-&gt;A13</title>
<path fill="none" stroke="#88a0d6" d="M1525.72,-113.37C1536.64,-99.13 1552.73,-78.13 1566.33,-60.4"/>
<polygon fill="#88a0d6" stroke="#88a0d6" points="1568.94,-62.74 1572.25,-52.68 1563.39,-58.48 1568.94,-62.74"/>
<text text-anchor="start" x="1557.03" y="-74.73" font-family="Roboto, sans-serif" font-weight="bold" font-size="14.00">NEIN</text>
</g>
</g>
</svg>
  </g>
</svg>
  </g>
</svg>
