<?xml version='1.0' encoding='ASCII' standalone='yes'?>
<svg xmlns="http://www.w3.org/2000/svg" xmlns:xlink="http://www.w3.org/1999/xlink" version="1.1" width="1278.6666666666667px" viewBox="0 0 1278.6666666666667 585.3333333333334" height="585.3333333333334px">
  <g>
    <svg version="1.1" width="1278.6666666666667px" viewBox="0 0 1278.6666666666667 585.3333333333334" height="585.3333333333334px">
  <rect fill="#e7e6e5" x="0" y="0" width="1278.6666666666667" height="585.3333333333334" rx="20" ry="20"/><g>
    <g transform="translate(400.634037360368, 58.533333333333324) scale(1 1) translate(0, 0) scale(0.8241809818830378 0.8241809818830378) "><!-- note that I manually added the width and height attribute to the root node
  https://chatgpt.com/share/678e3028-70cc-800b-a296-782714735772
  -->
  <defs>
    <style>.cls-1{fill:#fff;}</style>
  </defs>
  <path class="cls-1" d="M122.44,531.2h-56.1c-11,0-19.9-9.12-19.46-20.11C57.47,243.89,278.15,29.78,547.91,29.78v56.02c0,10.98-8.69,19.89-19.66,20.39-225.51,10.31-405.8,197-405.8,425Z"/>
  <path class="cls-1" d="M273.78,531.2h-55.93c-11.23,0-20.09-9.48-19.43-20.69,10.74-183.44,163.39-329.39,349.48-329.39v56.26c0,10.71-8.27,19.62-18.96,20.35-142.35,9.77-255.17,128.69-255.17,273.46Z"/>
  <path class="cls-1" d="M425.77,531.2h-55.45c-11.65,0-20.6-10.17-19.33-21.75,10.87-99.03,95.03-176.34,196.92-176.34v57.01c0,10.05-7.28,18.75-17.23,20.16-59.22,8.4-104.91,59.42-104.91,120.92Z"/>
</g>
    <svg width="959pt" height="439pt" viewBox="0.00 0.00 958.50 439.34">
<g id="graph0" class="graph" transform="scale(1 1) rotate(0) translate(4 435.34)">
<title>D</title>
<text text-anchor="start" x="8" y="-411.24" font-family="Roboto, sans-serif" font-weight="bold" font-size="18.00">MaBiS</text>
<text text-anchor="start" x="8" y="-381.14" font-family="Roboto, sans-serif" font-weight="bold" font-size="16.00">7.42.1: AD: Bestellung der Aggregationsebene der Bilanzkreissummenzeitreihe auf Ebene der Regelzone</text>
<!-- Start -->
<g id="node1" class="node">
<title>Start</title>
<path fill="#8ba2d7" stroke="black" stroke-width="0" d="M464.71,-333.34C464.71,-333.34 323.41,-333.34 323.41,-333.34 317.41,-333.34 311.41,-327.34 311.41,-321.34 311.41,-321.34 311.41,-302.06 311.41,-302.06 311.41,-296.06 317.41,-290.06 323.41,-290.06 323.41,-290.06 464.71,-290.06 464.71,-290.06 470.71,-290.06 476.71,-296.06 476.71,-302.06 476.71,-302.06 476.71,-321.34 476.71,-321.34 476.71,-327.34 470.71,-333.34 464.71,-333.34"/>
<text text-anchor="start" x="325.81" y="-312.4" font-family="Roboto, sans-serif" font-weight="bold" font-size="14.00">E_0003</text>
<text text-anchor="start" x="325.81" y="-300.3" font-family="Roboto, sans-serif" font-weight="bold" text-decoration="underline" font-size="12.00">Pr&#252;fende Rolle:</text>
<text text-anchor="start" x="429.31" y="-300.3" font-family="Roboto, sans-serif" font-weight="bold" font-size="12.00"> &#220;NB</text>
</g>
<!-- 1 -->
<g id="node2" class="node">
<title>1</title>
<path fill="#c2cee9" stroke="black" stroke-width="0" d="M573.09,-253.06C573.09,-253.06 215.04,-253.06 215.04,-253.06 209.04,-253.06 203.04,-247.06 203.04,-241.06 203.04,-241.06 203.04,-229.06 203.04,-229.06 203.04,-223.06 209.04,-217.06 215.04,-217.06 215.04,-217.06 573.09,-217.06 573.09,-217.06 579.09,-217.06 585.09,-223.06 585.09,-229.06 585.09,-229.06 585.09,-241.06 585.09,-241.06 585.09,-247.06 579.09,-253.06 573.09,-253.06"/>
<text text-anchor="start" x="217.44" y="-231.38" font-family="Roboto, sans-serif" font-weight="bold" font-size="14.00">1: </text>
<text text-anchor="start" x="236.94" y="-231.38" font-family="Roboto, sans-serif" font-size="14.00">Erfolgt der Eingang der Bestellung fristgerecht?</text>
</g>
<!-- Start&#45;&gt;1 -->
<g id="edge1" class="edge">
<title>Start-&gt;1</title>
<path fill="none" stroke="#88a0d6" d="M394.06,-290.3C394.06,-282.23 394.06,-272.82 394.06,-264.13"/>
<polygon fill="#88a0d6" stroke="#88a0d6" points="397.56,-264.42 394.06,-254.42 390.56,-264.42 397.56,-264.42"/>
</g>
<!-- A01 -->
<g id="node3" class="node">
<title>A01</title>
<path fill="#c4cac1" stroke="black" stroke-width="0" d="M318.84,-163.81C318.84,-163.81 199.29,-163.81 199.29,-163.81 193.29,-163.81 187.29,-157.81 187.29,-151.81 187.29,-151.81 187.29,-120.53 187.29,-120.53 187.29,-114.53 193.29,-108.53 199.29,-108.53 199.29,-108.53 318.84,-108.53 318.84,-108.53 324.84,-108.53 330.84,-114.53 330.84,-120.53 330.84,-120.53 330.84,-151.81 330.84,-151.81 330.84,-157.81 324.84,-163.81 318.84,-163.81"/>
<text text-anchor="start" x="201.69" y="-142.87" font-family="Roboto, sans-serif" font-weight="bold" font-size="14.00">A01</text>
<text text-anchor="start" x="201.69" y="-130.77" font-family="Roboto, sans-serif" text-decoration="underline" font-size="12.00">Hinweis:</text>
<text text-anchor="start" x="201.69" y="-118.77" font-family="Roboto, sans-serif" font-size="12.00">Frist&#252;berschreitung</text>
</g>
<!-- 1&#45;&gt;A01 -->
<g id="edge2" class="edge">
<title>1-&gt;A01</title>
<path fill="none" stroke="#88a0d6" d="M370.55,-217.18C352.57,-204.28 327.21,-186.08 305.23,-170.3"/>
<polygon fill="#88a0d6" stroke="#88a0d6" points="307.44,-167.58 297.27,-164.59 303.35,-173.27 307.44,-167.58"/>
<text text-anchor="start" x="342.06" y="-186.76" font-family="Roboto, sans-serif" font-weight="bold" font-size="14.00">NEIN</text>
</g>
<!-- 2 -->
<g id="node4" class="node">
<title>2</title>
<path fill="#c2cee9" stroke="black" stroke-width="0" d="M751.21,-154.17C751.21,-154.17 360.91,-154.17 360.91,-154.17 354.91,-154.17 348.91,-148.17 348.91,-142.17 348.91,-142.17 348.91,-130.17 348.91,-130.17 348.91,-124.17 354.91,-118.17 360.91,-118.17 360.91,-118.17 751.21,-118.17 751.21,-118.17 757.21,-118.17 763.21,-124.17 763.21,-130.17 763.21,-130.17 763.21,-142.17 763.21,-142.17 763.21,-148.17 757.21,-154.17 751.21,-154.17"/>
<text text-anchor="start" x="363.31" y="-132.5" font-family="Roboto, sans-serif" font-weight="bold" font-size="14.00">2: </text>
<text text-anchor="start" x="382.81" y="-132.5" font-family="Roboto, sans-serif" font-size="14.00">Erfolgt die Bestellung zum Monatsersten 00:00 Uhr?</text>
</g>
<!-- 1&#45;&gt;2 -->
<g id="edge3" class="edge">
<title>1-&gt;2</title>
<path fill="none" stroke="#88a0d6" d="M422.28,-217.18C448.91,-201.25 489.03,-177.26 518.39,-159.7"/>
<polygon fill="#88a0d6" stroke="#88a0d6" points="519.81,-162.93 526.6,-154.79 516.22,-156.92 519.81,-162.93"/>
<text text-anchor="start" x="479.06" y="-186.76" font-family="Roboto, sans-serif" font-weight="bold" font-size="14.00">JA</text>
</g>
<!-- A02 -->
<g id="node5" class="node">
<title>A02</title>
<path fill="#c4cac1" stroke="black" stroke-width="0" d="M577.21,-55.28C577.21,-55.28 366.91,-55.28 366.91,-55.28 360.91,-55.28 354.91,-49.28 354.91,-43.28 354.91,-43.28 354.91,-12 354.91,-12 354.91,-6 360.91,0 366.91,0 366.91,0 577.21,0 577.21,0 583.21,0 589.21,-6 589.21,-12 589.21,-12 589.21,-43.28 589.21,-43.28 589.21,-49.28 583.21,-55.28 577.21,-55.28"/>
<text text-anchor="start" x="369.31" y="-34.34" font-family="Roboto, sans-serif" font-weight="bold" font-size="14.00">A02</text>
<text text-anchor="start" x="369.31" y="-22.24" font-family="Roboto, sans-serif" text-decoration="underline" font-size="12.00">Hinweis:</text>
<text text-anchor="start" x="369.31" y="-10.24" font-family="Roboto, sans-serif" font-size="12.00">Gew&#228;hlter Zeitpunkt nicht zul&#228;ssig</text>
</g>
<!-- 2&#45;&gt;A02 -->
<g id="edge4" class="edge">
<title>2-&gt;A02</title>
<path fill="none" stroke="#88a0d6" d="M542.94,-118.52C531.49,-104.01 514.5,-82.45 500.02,-64.09"/>
<polygon fill="#88a0d6" stroke="#88a0d6" points="502.81,-61.98 493.87,-56.3 497.32,-66.32 502.81,-61.98"/>
<text text-anchor="start" x="519.06" y="-78.23" font-family="Roboto, sans-serif" font-weight="bold" font-size="14.00">NEIN</text>
</g>
<!-- Ende -->
<g id="node6" class="node">
<title>Ende</title>
<path fill="#8ba2d7" stroke="black" stroke-width="0" d="M659.09,-45.64C659.09,-45.64 619.04,-45.64 619.04,-45.64 613.04,-45.64 607.04,-39.64 607.04,-33.64 607.04,-33.64 607.04,-21.64 607.04,-21.64 607.04,-15.64 613.04,-9.64 619.04,-9.64 619.04,-9.64 659.09,-9.64 659.09,-9.64 665.09,-9.64 671.09,-15.64 671.09,-21.64 671.09,-21.64 671.09,-33.64 671.09,-33.64 671.09,-39.64 665.09,-45.64 659.09,-45.64"/>
<text text-anchor="middle" x="639.06" y="-22.96" font-family="Roboto, sans-serif" font-size="14.00">Ende</text>
</g>
<!-- 2&#45;&gt;Ende -->
<g id="edge5" class="edge">
<title>2-&gt;Ende</title>
<path fill="none" stroke="#88a0d6" d="M569.03,-118.52C582.41,-101.35 603.47,-74.33 619,-54.39"/>
<polygon fill="#88a0d6" stroke="#88a0d6" points="621.6,-56.75 624.98,-46.71 616.07,-52.45 621.6,-56.75"/>
<text text-anchor="start" x="602.06" y="-78.23" font-family="Roboto, sans-serif" font-weight="bold" font-size="14.00">JA</text>
</g>
</g>
</svg>
  </g>
</svg>
  </g>
</svg>
