<?xml version='1.0' encoding='ASCII' standalone='yes'?>
<svg xmlns="http://www.w3.org/2000/svg" xmlns:xlink="http://www.w3.org/1999/xlink" version="1.1" width="1800.0px" viewBox="0 0 1800.0 1061.3333333333333" height="1061.3333333333333px">
  <g>
    <svg version="1.1" width="1800.0px" viewBox="0 0 1800.0 1061.3333333333333" height="1061.3333333333333px">
  <polygon fill="#f3f1f6" points="0,0 1800.0,0 1800.0,1061.3333333333333 0,1061.3333333333333"/><g>
    <g transform="translate(475.78157086051476, 106.1333333333333) scale(1 1) translate(0, 0) scale(4.800002954775688 4.800002954775688) "><sodipodi:namedview xmlns:sodipodi="http://sodipodi.sourceforge.net/DTD/sodipodi-0.dtd" xmlns:inkscape="http://www.inkscape.org/namespaces/inkscape" id="namedview7" pagecolor="#ffffff" bordercolor="#999999" borderopacity="1" inkscape:pageshadow="0" inkscape:pageopacity="0" inkscape:pagecheckerboard="0" inkscape:document-units="mm" showgrid="false" fit-margin-top="0" fit-margin-left="0" fit-margin-right="0" fit-margin-bottom="0" inkscape:zoom="0.64052329" inkscape:cx="130.36216" inkscape:cy="412.163" inkscape:window-width="1512" inkscape:window-height="916" inkscape:window-x="3840" inkscape:window-y="136" inkscape:window-maximized="0" inkscape:current-layer="layer1"/>
  <defs id="defs2">
    <clipPath clipPathUnits="userSpaceOnUse" id="clipPath23">
      <path d="M 0,568.156 H 579.236 V 0 H 0 Z" id="path21"/>
    </clipPath>
  </defs>
  <g xmlns:inkscape="http://www.inkscape.org/namespaces/inkscape" inkscape:label="Layer 1" inkscape:groupmode="layer" id="layer1" transform="translate(-16.541937,-55.305267)">
    <g id="g19" clip-path="url(#clipPath23)" transform="matrix(0.35277777,0,0,-0.35277777,0.01017023,243.73675)" style="opacity:0.2">
      <g id="g25" transform="translate(122.444,32.7195)">
        <path d="m 0,0 h -56.104 c -11,0 -19.898,9.123 -19.463,20.115 10.594,267.191 231.277,481.302 501.029,481.302 v -56.02 c 0,-10.98 -8.688,-19.892 -19.658,-20.393 C 180.29,414.697 0,228.005 0,0" style="fill:#6ead83;fill-opacity:0.5;fill-rule:nonzero;stroke:none" id="path27"/>
      </g>
      <g id="g29" transform="translate(273.7828,32.7195)">
        <path d="m 0,0 h -55.926 c -11.228,0 -20.091,9.482 -19.435,20.69 10.744,183.439 163.389,329.388 349.485,329.388 v -56.263 c 0,-10.709 -8.273,-19.617 -18.957,-20.35 C 112.819,263.696 0,144.774 0,0" style="fill:#6ead83;fill-opacity:0.5;fill-rule:nonzero;stroke:none" id="path31"/>
      </g>
      <g id="g33" transform="translate(425.7667,32.7195)">
        <path d="m 0,0 h -55.445 c -11.653,0 -20.604,10.17 -19.334,21.753 10.866,99.032 95.031,176.341 196.919,176.341 v -57.011 c 0,-10.046 -7.283,-18.755 -17.229,-20.165 C 45.688,112.522 0,61.497 0,0" style="fill:#6ead83;fill-opacity:0.5;fill-rule:nonzero;stroke:none" id="path35"/>
      </g>
    </g>
  </g>
</g>
    <svg width="1350pt" height="796pt" viewBox="0.00 0.00 1349.93 796.13">
<g id="graph0" class="graph" transform="scale(1 1) rotate(0) translate(4 792.13)">
<title>D</title>
<text text-anchor="start" x="637.59" y="-768.03" font-family="Times,serif" font-weight="bold" font-size="18.00">MaBiS</text>
<text text-anchor="start" x="485.34" y="-737.93" font-family="Times,serif" font-weight="bold" font-size="16.00">7.5.1: AD: Abstimmung der Netzzeitreihe</text>
<!-- Start -->
<g id="node1" class="node">
<title>Start</title>
<polygon fill="#7a8da1" stroke="black" points="382.8,-690.13 222.75,-690.13 222.75,-646.85 382.8,-646.85 382.8,-690.13"/>
<text text-anchor="start" x="274.65" y="-669.19" font-family="Times,serif" font-weight="bold" font-size="14.00">E_0040</text>
<text text-anchor="start" x="237.15" y="-657.09" font-family="Times,serif" font-weight="bold" text-decoration="underline" font-size="12.00">Pr&#252;fende Rolle:</text>
<text text-anchor="start" x="342.15" y="-657.09" font-family="Times,serif" font-weight="bold" font-size="12.00"> NB</text>
</g>
<!-- 1 -->
<g id="node2" class="node">
<title>1</title>
<path fill="#7aab8a" stroke="black" d="M593.55,-609.85C593.55,-609.85 12,-609.85 12,-609.85 6,-609.85 0,-603.85 0,-597.85 0,-597.85 0,-585.85 0,-585.85 0,-579.85 6,-573.85 12,-573.85 12,-573.85 593.55,-573.85 593.55,-573.85 599.55,-573.85 605.55,-579.85 605.55,-585.85 605.55,-585.85 605.55,-597.85 605.55,-597.85 605.55,-603.85 599.55,-609.85 593.55,-609.85"/>
<text text-anchor="start" x="14.4" y="-588.18" font-family="Times,serif" font-weight="bold" font-size="14.00">1: </text>
<text text-anchor="start" x="33.9" y="-588.18" font-family="Times,serif" font-size="14.00">Erfolgt der Eingang der Zeitreihe nach Ablauf der Clearingfrist f&#252;r die KBKA?</text>
</g>
<!-- Start&#45;&gt;1 -->
<g id="edge1" class="edge">
<title>Start-&gt;1</title>
<path fill="none" stroke="black" d="M302.77,-646.7C302.77,-638.84 302.77,-629.76 302.77,-621.32"/>
<polygon fill="black" stroke="black" points="306.28,-621.52 302.78,-611.52 299.28,-621.52 306.28,-621.52"/>
</g>
<!-- A01 -->
<g id="node3" class="node">
<title>A01</title>
<polygon fill="#cfb986" stroke="black" points="166.01,-520.6 21.53,-520.6 21.53,-459.08 166.01,-459.08 166.01,-520.6"/>
<text text-anchor="start" x="78.77" y="-502.54" font-family="Times,serif" font-weight="bold" font-size="14.00">A01</text>
<text text-anchor="start" x="33.77" y="-490.44" font-family="Times,serif" text-decoration="underline" font-size="12.00">Hinweis:</text>
<text text-anchor="start" x="33.77" y="-478.44" font-family="Times,serif" font-size="12.00">Cluster: Abweisung</text>
<text text-anchor="start" x="33.77" y="-466.44" font-family="Times,serif" font-size="12.00">Frist&#252;berschreitung</text>
</g>
<!-- 1&#45;&gt;A01 -->
<g id="edge2" class="edge">
<title>1-&gt;A01</title>
<path fill="none" stroke="black" d="M266.37,-573.43C239.02,-560.34 200.66,-541.99 167.05,-525.9"/>
<polygon fill="black" stroke="black" points="168.68,-522.8 158.15,-521.64 165.66,-529.12 168.68,-522.8"/>
<text text-anchor="middle" x="235.52" y="-542.55" font-family="Times,serif" font-size="14.00">Ja</text>
</g>
<!-- 2 -->
<g id="node4" class="node">
<title>2</title>
<path fill="#7aab8a" stroke="black" d="M669.55,-507.84C669.55,-507.84 196,-507.84 196,-507.84 190,-507.84 184,-501.84 184,-495.84 184,-495.84 184,-483.84 184,-483.84 184,-477.84 190,-471.84 196,-471.84 196,-471.84 669.55,-471.84 669.55,-471.84 675.55,-471.84 681.55,-477.84 681.55,-483.84 681.55,-483.84 681.55,-495.84 681.55,-495.84 681.55,-501.84 675.55,-507.84 669.55,-507.84"/>
<text text-anchor="start" x="198.4" y="-486.16" font-family="Times,serif" font-weight="bold" font-size="14.00">2: </text>
<text text-anchor="start" x="217.9" y="-486.16" font-family="Times,serif" font-size="14.00">Ist der MaBiS-ZP zum betrachteten Bilanzierungsmonat aktiv?</text>
</g>
<!-- 1&#45;&gt;2 -->
<g id="edge3" class="edge">
<title>1-&gt;2</title>
<path fill="none" stroke="black" d="M325.42,-573.43C346.48,-557.22 378.06,-532.93 401.52,-514.88"/>
<polygon fill="black" stroke="black" points="403.4,-517.86 409.19,-508.98 399.13,-512.31 403.4,-517.86"/>
<text text-anchor="middle" x="384.65" y="-542.55" font-family="Times,serif" font-size="14.00">Nein</text>
</g>
<!-- A02 -->
<g id="node5" class="node">
<title>A02</title>
<polygon fill="#cfb986" stroke="black" points="334.89,-405.83 102.66,-405.83 102.66,-344.31 334.89,-344.31 334.89,-405.83"/>
<text text-anchor="start" x="203.77" y="-387.77" font-family="Times,serif" font-weight="bold" font-size="14.00">A02</text>
<text text-anchor="start" x="114.9" y="-375.67" font-family="Times,serif" text-decoration="underline" font-size="12.00">Hinweis:</text>
<text text-anchor="start" x="114.9" y="-363.67" font-family="Times,serif" font-size="12.00">Cluster: Abweisung</text>
<text text-anchor="start" x="114.9" y="-351.67" font-family="Times,serif" font-size="12.00">Gew&#228;hlter Zeitraum nicht zul&#228;ssig</text>
</g>
<!-- 2&#45;&gt;A02 -->
<g id="edge4" class="edge">
<title>2-&gt;A02</title>
<path fill="none" stroke="black" d="M399.81,-471.47C369.56,-455.53 323.84,-431.44 285.92,-411.45"/>
<polygon fill="black" stroke="black" points="287.77,-408.47 277.29,-406.91 284.51,-414.67 287.77,-408.47"/>
<text text-anchor="middle" x="354.65" y="-427.78" font-family="Times,serif" font-size="14.00">Nein</text>
</g>
<!-- 3 -->
<g id="node6" class="node">
<title>3</title>
<path fill="#7aab8a" stroke="black" d="M968.8,-397.71C968.8,-397.71 364.75,-397.71 364.75,-397.71 358.75,-397.71 352.75,-391.71 352.75,-385.71 352.75,-385.71 352.75,-364.43 352.75,-364.43 352.75,-358.43 358.75,-352.43 364.75,-352.43 364.75,-352.43 968.8,-352.43 968.8,-352.43 974.8,-352.43 980.8,-358.43 980.8,-364.43 980.8,-364.43 980.8,-385.71 980.8,-385.71 980.8,-391.71 974.8,-397.71 968.8,-397.71"/>
<text text-anchor="start" x="367.15" y="-376.77" font-family="Times,serif" font-weight="bold" font-size="14.00">3: </text>
<text text-anchor="start" x="386.65" y="-376.77" font-family="Times,serif" font-size="14.00">Liegt die Version der Zeitreihe des MaBiS-ZP f&#252;r diesen Bilanzierungsmonat und</text>
<text text-anchor="start" x="367.15" y="-362.77" font-family="Times,serif" font-size="14.00">MaBiS-ZP bereits vor?</text>
</g>
<!-- 2&#45;&gt;3 -->
<g id="edge5" class="edge">
<title>2-&gt;3</title>
<path fill="none" stroke="black" d="M469.08,-471.34C506.99,-453.07 566.94,-424.18 610.89,-403"/>
<polygon fill="black" stroke="black" points="612.28,-406.22 619.77,-398.72 609.24,-399.91 612.28,-406.22"/>
<text text-anchor="middle" x="570.52" y="-427.78" font-family="Times,serif" font-size="14.00">Ja</text>
</g>
<!-- A03 -->
<g id="node7" class="node">
<title>A03</title>
<polygon fill="#cfb986" stroke="black" points="557.64,-291.06 365.91,-291.06 365.91,-229.54 557.64,-229.54 557.64,-291.06"/>
<text text-anchor="start" x="446.77" y="-273" font-family="Times,serif" font-weight="bold" font-size="14.00">A03</text>
<text text-anchor="start" x="378.15" y="-260.9" font-family="Times,serif" text-decoration="underline" font-size="12.00">Hinweis:</text>
<text text-anchor="start" x="378.15" y="-248.9" font-family="Times,serif" font-size="12.00">Cluster: Abweisung</text>
<text text-anchor="start" x="378.15" y="-236.9" font-family="Times,serif" font-size="12.00">Zeitreihe bereits vorhanden</text>
</g>
<!-- 3&#45;&gt;A03 -->
<g id="edge6" class="edge">
<title>3-&gt;A03</title>
<path fill="none" stroke="black" d="M626.76,-352.06C598.25,-336.38 559.31,-314.95 526.42,-296.86"/>
<polygon fill="black" stroke="black" points="528.2,-293.84 517.75,-292.09 524.82,-299.98 528.2,-293.84"/>
<text text-anchor="middle" x="582.52" y="-313.01" font-family="Times,serif" font-size="14.00">Ja</text>
</g>
<!-- 4 -->
<g id="node8" class="node">
<title>4</title>
<path fill="#7aab8a" stroke="black" d="M1227.42,-282.94C1227.42,-282.94 588.12,-282.94 588.12,-282.94 582.12,-282.94 576.12,-276.94 576.12,-270.94 576.12,-270.94 576.12,-249.66 576.12,-249.66 576.12,-243.66 582.12,-237.66 588.12,-237.66 588.12,-237.66 1227.42,-237.66 1227.42,-237.66 1233.42,-237.66 1239.42,-243.66 1239.42,-249.66 1239.42,-249.66 1239.42,-270.94 1239.42,-270.94 1239.42,-276.94 1233.42,-282.94 1227.42,-282.94"/>
<text text-anchor="start" x="590.52" y="-262" font-family="Times,serif" font-weight="bold" font-size="14.00">4: </text>
<text text-anchor="start" x="610.02" y="-262" font-family="Times,serif" font-size="14.00">Ist die Version der Zeitreihe des MaBiS-ZP h&#246;her als die bisher h&#246;chste</text>
<text text-anchor="start" x="590.52" y="-248" font-family="Times,serif" font-size="14.00">verarbeitete Version der Zeitreihe f&#252;r diesen Bilanzierungsmonat und diesen MaBiS-ZP?</text>
</g>
<!-- 3&#45;&gt;4 -->
<g id="edge7" class="edge">
<title>3-&gt;4</title>
<path fill="none" stroke="black" d="M713.81,-352.06C752.96,-333.74 808.84,-307.6 850.57,-288.07"/>
<polygon fill="black" stroke="black" points="851.91,-291.31 859.48,-283.9 848.94,-284.97 851.91,-291.31"/>
<text text-anchor="middle" x="817.65" y="-313.01" font-family="Times,serif" font-size="14.00">Nein</text>
</g>
<!-- A04 -->
<g id="node9" class="node">
<title>A04</title>
<polygon fill="#cfb986" stroke="black" points="735.89,-176.29 563.66,-176.29 563.66,-114.77 735.89,-114.77 735.89,-176.29"/>
<text text-anchor="start" x="634.77" y="-158.23" font-family="Times,serif" font-weight="bold" font-size="14.00">A04</text>
<text text-anchor="start" x="575.9" y="-146.13" font-family="Times,serif" text-decoration="underline" font-size="12.00">Hinweis:</text>
<text text-anchor="start" x="575.9" y="-134.13" font-family="Times,serif" font-size="12.00">Cluster: Abweisung</text>
<text text-anchor="start" x="575.9" y="-122.13" font-family="Times,serif" font-size="12.00">Version nicht zugelassen</text>
</g>
<!-- 4&#45;&gt;A04 -->
<g id="edge8" class="edge">
<title>4-&gt;A04</title>
<path fill="none" stroke="black" d="M857.42,-237.29C820.92,-221.33 770.83,-199.44 729,-181.16"/>
<polygon fill="black" stroke="black" points="730.5,-178 719.94,-177.2 727.7,-184.41 730.5,-178"/>
<text text-anchor="middle" x="810.65" y="-198.24" font-family="Times,serif" font-size="14.00">Nein</text>
</g>
<!-- 5 -->
<g id="node10" class="node">
<title>5</title>
<path fill="#7aab8a" stroke="black" d="M1329.93,-163.53C1329.93,-163.53 765.63,-163.53 765.63,-163.53 759.63,-163.53 753.63,-157.53 753.63,-151.53 753.63,-151.53 753.63,-139.53 753.63,-139.53 753.63,-133.53 759.63,-127.53 765.63,-127.53 765.63,-127.53 1329.93,-127.53 1329.93,-127.53 1335.93,-127.53 1341.93,-133.53 1341.93,-139.53 1341.93,-139.53 1341.93,-151.53 1341.93,-151.53 1341.93,-157.53 1335.93,-163.53 1329.93,-163.53"/>
<text text-anchor="start" x="768.03" y="-141.85" font-family="Times,serif" font-weight="bold" font-size="14.00">5: </text>
<text text-anchor="start" x="787.53" y="-141.85" font-family="Times,serif" font-size="14.00">Entsprechen die Energiemengen der NZR den erwarteten Energiemengen?</text>
</g>
<!-- 4&#45;&gt;5 -->
<g id="edge9" class="edge">
<title>4-&gt;5</title>
<path fill="none" stroke="black" d="M935.1,-237.29C958.81,-218.19 993.08,-190.59 1017.59,-170.84"/>
<polygon fill="black" stroke="black" points="1019.69,-173.64 1025.29,-164.65 1015.3,-168.19 1019.69,-173.64"/>
<text text-anchor="middle" x="992.52" y="-198.24" font-family="Times,serif" font-size="14.00">Ja</text>
</g>
<!-- A05 -->
<g id="node11" class="node">
<title>A05</title>
<polygon fill="#cfb986" stroke="black" points="1063.89,-61.52 813.66,-61.52 813.66,0 1063.89,0 1063.89,-61.52"/>
<text text-anchor="start" x="923.77" y="-43.46" font-family="Times,serif" font-weight="bold" font-size="14.00">A05</text>
<text text-anchor="start" x="825.9" y="-31.36" font-family="Times,serif" text-decoration="underline" font-size="12.00">Hinweis:</text>
<text text-anchor="start" x="825.9" y="-19.36" font-family="Times,serif" font-size="12.00">Cluster: Ablehnung</text>
<text text-anchor="start" x="825.9" y="-7.36" font-family="Times,serif" font-size="12.00">Energiemenge falsch / nicht plausibel</text>
</g>
<!-- 5&#45;&gt;A05 -->
<g id="edge10" class="edge">
<title>5-&gt;A05</title>
<path fill="none" stroke="black" d="M1031.22,-127.4C1016.52,-112.2 994.52,-89.44 975.67,-69.93"/>
<polygon fill="black" stroke="black" points="978.33,-67.65 968.86,-62.89 973.3,-72.51 978.33,-67.65"/>
<text text-anchor="middle" x="1016.65" y="-83.47" font-family="Times,serif" font-size="14.00">Nein</text>
</g>
<!-- A06 -->
<g id="node12" class="node">
<title>A06</title>
<polygon fill="#cfb986" stroke="black" points="1232.02,-61.52 1081.54,-61.52 1081.54,0 1232.02,0 1232.02,-61.52"/>
<text text-anchor="start" x="1141.78" y="-43.46" font-family="Times,serif" font-weight="bold" font-size="14.00">A06</text>
<text text-anchor="start" x="1093.78" y="-31.36" font-family="Times,serif" text-decoration="underline" font-size="12.00">Hinweis:</text>
<text text-anchor="start" x="1093.78" y="-19.36" font-family="Times,serif" font-size="12.00">Cluster: Zustimmung</text>
<text text-anchor="start" x="1093.78" y="-7.36" font-family="Times,serif" font-size="12.00">Zeitreihe akzeptiert</text>
</g>
<!-- 5&#45;&gt;A06 -->
<g id="edge11" class="edge">
<title>5-&gt;A06</title>
<path fill="none" stroke="black" d="M1064.33,-127.4C1079.03,-112.2 1101.03,-89.44 1119.88,-69.93"/>
<polygon fill="black" stroke="black" points="1122.25,-72.51 1126.69,-62.89 1117.22,-67.65 1122.25,-72.51"/>
<text text-anchor="middle" x="1115.53" y="-83.47" font-family="Times,serif" font-size="14.00">Ja</text>
</g>
</g>
</svg>
  </g>
</svg>
  </g>
</svg>
