<?xml version='1.0' encoding='ASCII' standalone='yes'?>
<svg xmlns="http://www.w3.org/2000/svg" xmlns:xlink="http://www.w3.org/1999/xlink" version="1.1" width="5604.0px" viewBox="0 0 5604.0 2133.3333333333335" height="2133.3333333333335px">
  <g>
    <svg version="1.1" width="5604.0px" viewBox="0 0 5604.0 2133.3333333333335" height="2133.3333333333335px">
  <polygon fill="#f3f1f6" points="0,0 5604.0,0 5604.0,2133.3333333333335 0,2133.3333333333335"/><g>
    <g transform="translate(1949.2996399206324, 213.33333333333331) scale(1 1) translate(0, 0) scale(9.648247145277768 9.648247145277768) "><sodipodi:namedview xmlns:sodipodi="http://sodipodi.sourceforge.net/DTD/sodipodi-0.dtd" xmlns:inkscape="http://www.inkscape.org/namespaces/inkscape" id="namedview7" pagecolor="#ffffff" bordercolor="#999999" borderopacity="1" inkscape:pageshadow="0" inkscape:pageopacity="0" inkscape:pagecheckerboard="0" inkscape:document-units="mm" showgrid="false" fit-margin-top="0" fit-margin-left="0" fit-margin-right="0" fit-margin-bottom="0" inkscape:zoom="0.64052329" inkscape:cx="130.36216" inkscape:cy="412.163" inkscape:window-width="1512" inkscape:window-height="916" inkscape:window-x="3840" inkscape:window-y="136" inkscape:window-maximized="0" inkscape:current-layer="layer1"/>
  <defs id="defs2">
    <clipPath clipPathUnits="userSpaceOnUse" id="clipPath23">
      <path d="M 0,568.156 H 579.236 V 0 H 0 Z" id="path21"/>
    </clipPath>
  </defs>
  <g xmlns:inkscape="http://www.inkscape.org/namespaces/inkscape" inkscape:label="Layer 1" inkscape:groupmode="layer" id="layer1" transform="translate(-16.541937,-55.305267)">
    <g id="g19" clip-path="url(#clipPath23)" transform="matrix(0.35277777,0,0,-0.35277777,0.01017023,243.73675)" style="opacity:0.2">
      <g id="g25" transform="translate(122.444,32.7195)">
        <path d="m 0,0 h -56.104 c -11,0 -19.898,9.123 -19.463,20.115 10.594,267.191 231.277,481.302 501.029,481.302 v -56.02 c 0,-10.98 -8.688,-19.892 -19.658,-20.393 C 180.29,414.697 0,228.005 0,0" style="fill:#6ead83;fill-opacity:1;fill-rule:nonzero;stroke:none" id="path27"/>
      </g>
      <g id="g29" transform="translate(273.7828,32.7195)">
        <path d="m 0,0 h -55.926 c -11.228,0 -20.091,9.482 -19.435,20.69 10.744,183.439 163.389,329.388 349.485,329.388 v -56.263 c 0,-10.709 -8.273,-19.617 -18.957,-20.35 C 112.819,263.696 0,144.774 0,0" style="fill:#6ead83;fill-opacity:1;fill-rule:nonzero;stroke:none" id="path31"/>
      </g>
      <g id="g33" transform="translate(425.7667,32.7195)">
        <path d="m 0,0 h -55.445 c -11.653,0 -20.604,10.17 -19.334,21.753 10.866,99.032 95.031,176.341 196.919,176.341 v -57.011 c 0,-10.046 -7.283,-18.755 -17.229,-20.165 C 45.688,112.522 0,61.497 0,0" style="fill:#6ead83;fill-opacity:1;fill-rule:nonzero;stroke:none" id="path35"/>
      </g>
    </g>
  </g>
</g>
    <svg width="4203pt" height="1600pt" viewBox="0.00 0.00 4203.30 1599.52">
<g id="graph0" class="graph" transform="scale(1 1) rotate(0) translate(4 1595.52)">
<title>D</title>
<text text-anchor="start" x="2064.28" y="-1571.42" font-family="Times,serif" font-weight="bold" font-size="18.00">MaBiS</text>
<text text-anchor="start" x="1714.03" y="-1541.32" font-family="Times,serif" font-weight="bold" font-size="16.00">7.60.1: AD: Aktivierung eines MaBiS-ZP f&#252;r die mtl. AA&#220;Z zwischen NB und BKV(LF)</text>
<!-- Start -->
<g id="node1" class="node">
<title>Start</title>
<polygon fill="#7a8da1" stroke="black" points="351.68,-1493.52 177.38,-1493.52 177.38,-1450.24 351.68,-1450.24 351.68,-1493.52"/>
<text text-anchor="start" x="236.4" y="-1472.58" font-family="Times,serif" font-weight="bold" font-size="14.00">E_0071</text>
<text text-anchor="start" x="191.78" y="-1460.48" font-family="Times,serif" font-weight="bold" text-decoration="underline" font-size="12.00">Pr&#252;fende Rolle:</text>
<text text-anchor="start" x="296.78" y="-1460.48" font-family="Times,serif" font-weight="bold" font-size="12.00"> BIKO</text>
</g>
<!-- 1 -->
<g id="node2" class="node">
<title>1</title>
<path fill="#7aab8a" stroke="black" d="M517.05,-1413.24C517.05,-1413.24 12,-1413.24 12,-1413.24 6,-1413.24 0,-1407.24 0,-1401.24 0,-1401.24 0,-1389.24 0,-1389.24 0,-1383.24 6,-1377.24 12,-1377.24 12,-1377.24 517.05,-1377.24 517.05,-1377.24 523.05,-1377.24 529.05,-1383.24 529.05,-1389.24 529.05,-1389.24 529.05,-1401.24 529.05,-1401.24 529.05,-1407.24 523.05,-1413.24 517.05,-1413.24"/>
<text text-anchor="start" x="14.4" y="-1391.57" font-family="Times,serif" font-weight="bold" font-size="14.00">1: </text>
<text text-anchor="start" x="33.9" y="-1391.57" font-family="Times,serif" font-size="14.00">Erfolgt die Aktivierung nach Ablauf der Clearingfrist f&#252;r die KBKA?</text>
</g>
<!-- Start&#45;&gt;1 -->
<g id="edge1" class="edge">
<title>Start-&gt;1</title>
<path fill="none" stroke="black" d="M264.53,-1450.09C264.53,-1442.23 264.53,-1433.15 264.53,-1424.71"/>
<polygon fill="black" stroke="black" points="268.03,-1424.91 264.53,-1414.91 261.03,-1424.91 268.03,-1424.91"/>
</g>
<!-- A01 -->
<g id="node3" class="node">
<title>A01</title>
<polygon fill="#cfb986" stroke="black" points="318.77,-1323.99 174.29,-1323.99 174.29,-1262.47 318.77,-1262.47 318.77,-1323.99"/>
<text text-anchor="start" x="231.53" y="-1305.93" font-family="Times,serif" font-weight="bold" font-size="14.00">A01</text>
<text text-anchor="start" x="186.53" y="-1293.83" font-family="Times,serif" text-decoration="underline" font-size="12.00">Hinweis:</text>
<text text-anchor="start" x="186.53" y="-1281.83" font-family="Times,serif" font-size="12.00">Cluster: Ablehnung</text>
<text text-anchor="start" x="186.53" y="-1269.83" font-family="Times,serif" font-size="12.00">Frist&#252;berschreitung</text>
</g>
<!-- 1&#45;&gt;A01 -->
<g id="edge2" class="edge">
<title>1-&gt;A01</title>
<path fill="none" stroke="black" d="M261.39,-1376.82C259.34,-1365.43 256.57,-1350.04 253.98,-1335.63"/>
<polygon fill="black" stroke="black" points="257.44,-1335.09 252.22,-1325.87 250.55,-1336.33 257.44,-1335.09"/>
<text text-anchor="middle" x="265.28" y="-1345.94" font-family="Times,serif" font-size="14.00">Ja</text>
</g>
<!-- 2 -->
<g id="node4" class="node">
<title>2</title>
<path fill="#7aab8a" stroke="black" d="M760.18,-1311.23C760.18,-1311.23 348.88,-1311.23 348.88,-1311.23 342.88,-1311.23 336.88,-1305.23 336.88,-1299.23 336.88,-1299.23 336.88,-1287.23 336.88,-1287.23 336.88,-1281.23 342.88,-1275.23 348.88,-1275.23 348.88,-1275.23 760.18,-1275.23 760.18,-1275.23 766.18,-1275.23 772.18,-1281.23 772.18,-1287.23 772.18,-1287.23 772.18,-1299.23 772.18,-1299.23 772.18,-1305.23 766.18,-1311.23 760.18,-1311.23"/>
<text text-anchor="start" x="351.28" y="-1289.56" font-family="Times,serif" font-weight="bold" font-size="14.00">2: </text>
<text text-anchor="start" x="370.78" y="-1289.56" font-family="Times,serif" font-size="14.00">Erfolgt die Aktivierung zum Monatsersten 00:00 Uhr?</text>
</g>
<!-- 1&#45;&gt;2 -->
<g id="edge3" class="edge">
<title>1-&gt;2</title>
<path fill="none" stroke="black" d="M315.04,-1376.82C364.68,-1359.7 440.5,-1333.55 493.49,-1315.28"/>
<polygon fill="black" stroke="black" points="494.36,-1318.68 502.67,-1312.11 492.08,-1312.06 494.36,-1318.68"/>
<text text-anchor="middle" x="426.4" y="-1345.94" font-family="Times,serif" font-size="14.00">Nein</text>
</g>
<!-- A02 -->
<g id="node5" class="node">
<title>A02</title>
<polygon fill="#cfb986" stroke="black" points="583.77,-1209.22 349.29,-1209.22 349.29,-1147.7 583.77,-1147.7 583.77,-1209.22"/>
<text text-anchor="start" x="451.53" y="-1191.16" font-family="Times,serif" font-weight="bold" font-size="14.00">A02</text>
<text text-anchor="start" x="361.53" y="-1179.06" font-family="Times,serif" text-decoration="underline" font-size="12.00">Hinweis:</text>
<text text-anchor="start" x="361.53" y="-1167.06" font-family="Times,serif" font-size="12.00">Cluster: Ablehnung</text>
<text text-anchor="start" x="361.53" y="-1155.06" font-family="Times,serif" font-size="12.00">Gew&#228;hlter Zeitpunkt nicht zul&#228;ssig</text>
</g>
<!-- 2&#45;&gt;A02 -->
<g id="edge4" class="edge">
<title>2-&gt;A02</title>
<path fill="none" stroke="black" d="M541.16,-1275.1C529.45,-1260.1 512.01,-1237.74 496.92,-1218.42"/>
<polygon fill="black" stroke="black" points="499.81,-1216.43 490.9,-1210.7 494.29,-1220.73 499.81,-1216.43"/>
<text text-anchor="middle" x="533.4" y="-1231.17" font-family="Times,serif" font-size="14.00">Nein</text>
</g>
<!-- 3 -->
<g id="node6" class="node">
<title>3</title>
<path fill="#7aab8a" stroke="black" d="M911.18,-1196.46C911.18,-1196.46 613.88,-1196.46 613.88,-1196.46 607.88,-1196.46 601.88,-1190.46 601.88,-1184.46 601.88,-1184.46 601.88,-1172.46 601.88,-1172.46 601.88,-1166.46 607.88,-1160.46 613.88,-1160.46 613.88,-1160.46 911.18,-1160.46 911.18,-1160.46 917.18,-1160.46 923.18,-1166.46 923.18,-1172.46 923.18,-1172.46 923.18,-1184.46 923.18,-1184.46 923.18,-1190.46 917.18,-1196.46 911.18,-1196.46"/>
<text text-anchor="start" x="616.28" y="-1174.79" font-family="Times,serif" font-weight="bold" font-size="14.00">3: </text>
<text text-anchor="start" x="635.78" y="-1174.79" font-family="Times,serif" font-size="14.00">Ist die richtige Regelzone angegeben?</text>
</g>
<!-- 2&#45;&gt;3 -->
<g id="edge5" class="edge">
<title>2-&gt;3</title>
<path fill="none" stroke="black" d="M586.57,-1274.86C622.53,-1255.36 680.99,-1223.66 720.57,-1202.21"/>
<polygon fill="black" stroke="black" points="721.99,-1205.42 729.11,-1197.57 718.65,-1199.26 721.99,-1205.42"/>
<text text-anchor="middle" x="678.28" y="-1231.17" font-family="Times,serif" font-size="14.00">Ja</text>
</g>
<!-- A03 -->
<g id="node7" class="node">
<title>A03</title>
<polygon fill="#cfb986" stroke="black" points="712.52,-1094.45 572.54,-1094.45 572.54,-1032.93 712.52,-1032.93 712.52,-1094.45"/>
<text text-anchor="start" x="627.53" y="-1076.39" font-family="Times,serif" font-weight="bold" font-size="14.00">A03</text>
<text text-anchor="start" x="584.78" y="-1064.29" font-family="Times,serif" text-decoration="underline" font-size="12.00">Hinweis:</text>
<text text-anchor="start" x="584.78" y="-1052.29" font-family="Times,serif" font-size="12.00">Cluster: Ablehnung</text>
<text text-anchor="start" x="584.78" y="-1040.29" font-family="Times,serif" font-size="12.00">Regelzone falsch</text>
</g>
<!-- 3&#45;&gt;A03 -->
<g id="edge6" class="edge">
<title>3-&gt;A03</title>
<path fill="none" stroke="black" d="M744.04,-1160.09C727.74,-1144.77 703.44,-1121.93 682.69,-1102.44"/>
<polygon fill="black" stroke="black" points="685.14,-1099.93 675.45,-1095.64 680.35,-1105.03 685.14,-1099.93"/>
<text text-anchor="middle" x="727.4" y="-1116.4" font-family="Times,serif" font-size="14.00">Nein</text>
</g>
<!-- 4 -->
<g id="node8" class="node">
<title>4</title>
<path fill="#7aab8a" stroke="black" d="M1390.3,-1081.69C1390.3,-1081.69 742.75,-1081.69 742.75,-1081.69 736.75,-1081.69 730.75,-1075.69 730.75,-1069.69 730.75,-1069.69 730.75,-1057.69 730.75,-1057.69 730.75,-1051.69 736.75,-1045.69 742.75,-1045.69 742.75,-1045.69 1390.3,-1045.69 1390.3,-1045.69 1396.3,-1045.69 1402.3,-1051.69 1402.3,-1057.69 1402.3,-1057.69 1402.3,-1069.69 1402.3,-1069.69 1402.3,-1075.69 1396.3,-1081.69 1390.3,-1081.69"/>
<text text-anchor="start" x="745.15" y="-1060.02" font-family="Times,serif" font-weight="bold" font-size="14.00">4: </text>
<text text-anchor="start" x="764.65" y="-1060.02" font-family="Times,serif" font-size="14.00">Ist das Bilanzierungsgebiet zum Aktivierungsbeginn in der Regelzone des BIKO g&#252;ltig?</text>
</g>
<!-- 3&#45;&gt;4 -->
<g id="edge7" class="edge">
<title>3-&gt;4</title>
<path fill="none" stroke="black" d="M809.69,-1159.96C863.43,-1140.03 951.26,-1107.45 1008.98,-1086.04"/>
<polygon fill="black" stroke="black" points="1010.17,-1089.33 1018.33,-1082.57 1007.74,-1082.77 1010.17,-1089.33"/>
<text text-anchor="middle" x="940.28" y="-1116.4" font-family="Times,serif" font-size="14.00">Ja</text>
</g>
<!-- A04 -->
<g id="node9" class="node">
<title>A04</title>
<polygon fill="#cfb986" stroke="black" points="1034.39,-979.68 818.66,-979.68 818.66,-918.16 1034.39,-918.16 1034.39,-979.68"/>
<text text-anchor="start" x="911.53" y="-961.62" font-family="Times,serif" font-weight="bold" font-size="14.00">A04</text>
<text text-anchor="start" x="830.9" y="-949.52" font-family="Times,serif" text-decoration="underline" font-size="12.00">Hinweis:</text>
<text text-anchor="start" x="830.9" y="-937.52" font-family="Times,serif" font-size="12.00">Cluster: Ablehnung</text>
<text text-anchor="start" x="830.9" y="-925.52" font-family="Times,serif" font-size="12.00">Bilanzierungsgebiet nicht g&#252;ltig</text>
</g>
<!-- 4&#45;&gt;A04 -->
<g id="edge8" class="edge">
<title>4-&gt;A04</title>
<path fill="none" stroke="black" d="M1044.96,-1045.32C1025.76,-1029.85 997.03,-1006.72 972.68,-987.1"/>
<polygon fill="black" stroke="black" points="975.09,-984.55 965.11,-981 970.7,-990 975.09,-984.55"/>
<text text-anchor="middle" x="1022.4" y="-1001.63" font-family="Times,serif" font-size="14.00">Nein</text>
</g>
<!-- 5 -->
<g id="node10" class="node">
<title>5</title>
<path fill="#7aab8a" stroke="black" d="M1797.05,-966.92C1797.05,-966.92 1064,-966.92 1064,-966.92 1058,-966.92 1052,-960.92 1052,-954.92 1052,-954.92 1052,-942.92 1052,-942.92 1052,-936.92 1058,-930.92 1064,-930.92 1064,-930.92 1797.05,-930.92 1797.05,-930.92 1803.05,-930.92 1809.05,-936.92 1809.05,-942.92 1809.05,-942.92 1809.05,-954.92 1809.05,-954.92 1809.05,-960.92 1803.05,-966.92 1797.05,-966.92"/>
<text text-anchor="start" x="1066.4" y="-945.25" font-family="Times,serif" font-weight="bold" font-size="14.00">5: </text>
<text text-anchor="start" x="1085.9" y="-945.25" font-family="Times,serif" font-size="14.00">Ist der Redispatch-Bilanzkreis des ANB zum Aktivierungsbeginn in der Regelzone des BIKO g&#252;ltig?</text>
</g>
<!-- 4&#45;&gt;5 -->
<g id="edge9" class="edge">
<title>4-&gt;5</title>
<path fill="none" stroke="black" d="M1123,-1045.19C1187.92,-1025.08 1294.39,-992.1 1363.46,-970.7"/>
<polygon fill="black" stroke="black" points="1364.25,-974.12 1372.77,-967.81 1362.18,-967.43 1364.25,-974.12"/>
<text text-anchor="middle" x="1277.28" y="-1001.63" font-family="Times,serif" font-size="14.00">Ja</text>
</g>
<!-- A05 -->
<g id="node11" class="node">
<title>A05</title>
<polygon fill="#cfb986" stroke="black" points="1409.89,-864.91 1119.16,-864.91 1119.16,-803.39 1409.89,-803.39 1409.89,-864.91"/>
<text text-anchor="start" x="1249.53" y="-846.85" font-family="Times,serif" font-weight="bold" font-size="14.00">A05</text>
<text text-anchor="start" x="1131.4" y="-834.75" font-family="Times,serif" text-decoration="underline" font-size="12.00">Hinweis:</text>
<text text-anchor="start" x="1131.4" y="-822.75" font-family="Times,serif" font-size="12.00">Cluster: Ablehnung</text>
<text text-anchor="start" x="1131.4" y="-810.75" font-family="Times,serif" font-size="12.00">Redispatch-Bilanzkreis des ANB nicht g&#252;ltig</text>
</g>
<!-- 5&#45;&gt;A05 -->
<g id="edge10" class="edge">
<title>5-&gt;A05</title>
<path fill="none" stroke="black" d="M1404.95,-930.55C1381.89,-914.88 1347.23,-891.34 1318.12,-871.56"/>
<polygon fill="black" stroke="black" points="1320.37,-868.86 1310.13,-866.13 1316.44,-874.65 1320.37,-868.86"/>
<text text-anchor="middle" x="1374.4" y="-886.86" font-family="Times,serif" font-size="14.00">Nein</text>
</g>
<!-- 6 -->
<g id="node12" class="node">
<title>6</title>
<path fill="#7aab8a" stroke="black" d="M2306.8,-852.15C2306.8,-852.15 1440.25,-852.15 1440.25,-852.15 1434.25,-852.15 1428.25,-846.15 1428.25,-840.15 1428.25,-840.15 1428.25,-828.15 1428.25,-828.15 1428.25,-822.15 1434.25,-816.15 1440.25,-816.15 1440.25,-816.15 2306.8,-816.15 2306.8,-816.15 2312.8,-816.15 2318.8,-822.15 2318.8,-828.15 2318.8,-828.15 2318.8,-840.15 2318.8,-840.15 2318.8,-846.15 2312.8,-852.15 2306.8,-852.15"/>
<text text-anchor="start" x="1442.65" y="-830.48" font-family="Times,serif" font-weight="bold" font-size="14.00">6: </text>
<text text-anchor="start" x="1462.15" y="-830.48" font-family="Times,serif" font-size="14.00">Ist der Sender zum Aktivierungsbeginn der verantwortliche NB f&#252;r den angegebenen Redispatch-Bilanzkreis des NB?</text>
</g>
<!-- 5&#45;&gt;6 -->
<g id="edge11" class="edge">
<title>5-&gt;6</title>
<path fill="none" stroke="black" d="M1499.26,-930.42C1578.92,-910.15 1709.98,-876.78 1793.98,-855.4"/>
<polygon fill="black" stroke="black" points="1794.7,-858.83 1803.53,-852.97 1792.97,-852.04 1794.7,-858.83"/>
<text text-anchor="middle" x="1686.28" y="-886.86" font-family="Times,serif" font-size="14.00">Ja</text>
</g>
<!-- A06 -->
<g id="node13" class="node">
<title>A06</title>
<polygon fill="#cfb986" stroke="black" points="1762.02,-750.14 1619.04,-750.14 1619.04,-688.62 1762.02,-688.62 1762.02,-750.14"/>
<text text-anchor="start" x="1675.53" y="-732.08" font-family="Times,serif" font-weight="bold" font-size="14.00">A06</text>
<text text-anchor="start" x="1631.28" y="-719.98" font-family="Times,serif" text-decoration="underline" font-size="12.00">Hinweis:</text>
<text text-anchor="start" x="1631.28" y="-707.98" font-family="Times,serif" font-size="12.00">Cluster: Ablehnung</text>
<text text-anchor="start" x="1631.28" y="-695.98" font-family="Times,serif" font-size="12.00">Keine Berechtigung</text>
</g>
<!-- 6&#45;&gt;A06 -->
<g id="edge12" class="edge">
<title>6-&gt;A06</title>
<path fill="none" stroke="black" d="M1845.33,-815.78C1819.8,-800.04 1781.37,-776.36 1749.19,-756.53"/>
<polygon fill="black" stroke="black" points="1751.06,-753.57 1740.71,-751.31 1747.39,-759.53 1751.06,-753.57"/>
<text text-anchor="middle" x="1810.4" y="-772.09" font-family="Times,serif" font-size="14.00">Nein</text>
</g>
<!-- 7 -->
<g id="node14" class="node">
<title>7</title>
<path fill="#7aab8a" stroke="black" d="M2940.8,-737.38C2940.8,-737.38 1792.25,-737.38 1792.25,-737.38 1786.25,-737.38 1780.25,-731.38 1780.25,-725.38 1780.25,-725.38 1780.25,-713.38 1780.25,-713.38 1780.25,-707.38 1786.25,-701.38 1792.25,-701.38 1792.25,-701.38 2940.8,-701.38 2940.8,-701.38 2946.8,-701.38 2952.8,-707.38 2952.8,-713.38 2952.8,-713.38 2952.8,-725.38 2952.8,-725.38 2952.8,-731.38 2946.8,-737.38 2940.8,-737.38"/>
<text text-anchor="start" x="1794.65" y="-715.71" font-family="Times,serif" font-weight="bold" font-size="14.00">7: </text>
<text text-anchor="start" x="1814.15" y="-715.71" font-family="Times,serif" font-size="14.00">Existiert bereits ein abweichendes Tupel aus Bilanzierungs-gebiet, Redispatch-Bilanzkreis des ANB, Bilanzkreis des LF und ZRT unter der ID des MaBiS-ZP?</text>
</g>
<!-- 6&#45;&gt;7 -->
<g id="edge13" class="edge">
<title>6-&gt;7</title>
<path fill="none" stroke="black" d="M1950.02,-815.65C2039.03,-795.29 2185.71,-761.74 2279.14,-740.37"/>
<polygon fill="black" stroke="black" points="2279.82,-743.8 2288.79,-738.16 2278.26,-736.98 2279.82,-743.8"/>
<text text-anchor="middle" x="2157.28" y="-772.09" font-family="Times,serif" font-size="14.00">Ja</text>
</g>
<!-- A07 -->
<g id="node15" class="node">
<title>A07</title>
<polygon fill="#cfb986" stroke="black" points="2308.14,-635.37 2018.91,-635.37 2018.91,-573.85 2308.14,-573.85 2308.14,-635.37"/>
<text text-anchor="start" x="2148.53" y="-617.31" font-family="Times,serif" font-weight="bold" font-size="14.00">A07</text>
<text text-anchor="start" x="2031.15" y="-605.21" font-family="Times,serif" text-decoration="underline" font-size="12.00">Hinweis:</text>
<text text-anchor="start" x="2031.15" y="-593.21" font-family="Times,serif" font-size="12.00">Cluster: Ablehnung</text>
<text text-anchor="start" x="2031.15" y="-581.21" font-family="Times,serif" font-size="12.00">Abweichender MaBiS-ZP bereits vorhanden</text>
</g>
<!-- 7&#45;&gt;A07 -->
<g id="edge14" class="edge">
<title>7-&gt;A07</title>
<path fill="none" stroke="black" d="M2335.25,-701.01C2306.68,-685.14 2263.56,-661.18 2227.68,-641.25"/>
<polygon fill="black" stroke="black" points="2229.53,-638.27 2219.09,-636.48 2226.13,-644.39 2229.53,-638.27"/>
<text text-anchor="middle" x="2284.28" y="-657.32" font-family="Times,serif" font-size="14.00">Ja</text>
</g>
<!-- 8 -->
<g id="node16" class="node">
<title>8</title>
<path fill="#7aab8a" stroke="black" d="M3541.18,-622.61C3541.18,-622.61 2337.88,-622.61 2337.88,-622.61 2331.88,-622.61 2325.88,-616.61 2325.88,-610.61 2325.88,-610.61 2325.88,-598.61 2325.88,-598.61 2325.88,-592.61 2331.88,-586.61 2337.88,-586.61 2337.88,-586.61 3541.18,-586.61 3541.18,-586.61 3547.18,-586.61 3553.18,-592.61 3553.18,-598.61 3553.18,-598.61 3553.18,-610.61 3553.18,-610.61 3553.18,-616.61 3547.18,-622.61 3541.18,-622.61"/>
<text text-anchor="start" x="2340.28" y="-600.94" font-family="Times,serif" font-weight="bold" font-size="14.00">8: </text>
<text text-anchor="start" x="2359.78" y="-600.94" font-family="Times,serif" font-size="14.00">Existiert bereits f&#252;r das genannte Tupel aus Bilanzierungs-gebiet, Redispatch-Bilanzkreis des ANB, Bilanzkreis des LF und ZRT eine abweichende ID des MaBiS-ZP?</text>
</g>
<!-- 7&#45;&gt;8 -->
<g id="edge15" class="edge">
<title>7-&gt;8</title>
<path fill="none" stroke="black" d="M2455.43,-700.88C2559.41,-680.42 2731.1,-646.63 2839.61,-625.27"/>
<polygon fill="black" stroke="black" points="2840.26,-628.71 2849.4,-623.35 2838.91,-621.84 2840.26,-628.71"/>
<text text-anchor="middle" x="2704.4" y="-657.32" font-family="Times,serif" font-size="14.00">Nein</text>
</g>
<!-- A08 -->
<g id="node17" class="node">
<title>A08</title>
<polygon fill="#cfb986" stroke="black" points="2991.39,-520.6 2661.66,-520.6 2661.66,-459.08 2991.39,-459.08 2991.39,-520.6"/>
<text text-anchor="start" x="2811.53" y="-502.54" font-family="Times,serif" font-weight="bold" font-size="14.00">A08</text>
<text text-anchor="start" x="2673.9" y="-490.44" font-family="Times,serif" text-decoration="underline" font-size="12.00">Hinweis:</text>
<text text-anchor="start" x="2673.9" y="-478.44" font-family="Times,serif" font-size="12.00">Cluster: Ablehnung</text>
<text text-anchor="start" x="2673.9" y="-466.44" font-family="Times,serif" font-size="12.00">Abweichende ID zum MaBiS-ZP bereits vorhanden</text>
</g>
<!-- 8&#45;&gt;A08 -->
<g id="edge16" class="edge">
<title>8-&gt;A08</title>
<path fill="none" stroke="black" d="M2922.36,-586.48C2907.13,-571.28 2884.32,-548.52 2864.77,-529.01"/>
<polygon fill="black" stroke="black" points="2867.25,-526.54 2857.7,-521.95 2862.31,-531.49 2867.25,-526.54"/>
<text text-anchor="middle" x="2897.28" y="-542.55" font-family="Times,serif" font-size="14.00">Ja</text>
</g>
<!-- 9 -->
<g id="node18" class="node">
<title>9</title>
<path fill="#7aab8a" stroke="black" d="M3461.8,-507.84C3461.8,-507.84 3021.25,-507.84 3021.25,-507.84 3015.25,-507.84 3009.25,-501.84 3009.25,-495.84 3009.25,-495.84 3009.25,-483.84 3009.25,-483.84 3009.25,-477.84 3015.25,-471.84 3021.25,-471.84 3021.25,-471.84 3461.8,-471.84 3461.8,-471.84 3467.8,-471.84 3473.8,-477.84 3473.8,-483.84 3473.8,-483.84 3473.8,-495.84 3473.8,-495.84 3473.8,-501.84 3467.8,-507.84 3461.8,-507.84"/>
<text text-anchor="start" x="3023.65" y="-486.16" font-family="Times,serif" font-weight="bold" font-size="14.00">9: </text>
<text text-anchor="start" x="3043.15" y="-486.16" font-family="Times,serif" font-size="14.00">Ist der Bilanzkreis des LF zum Aktivierungsbeginn g&#252;ltig?</text>
</g>
<!-- 8&#45;&gt;9 -->
<g id="edge17" class="edge">
<title>8-&gt;9</title>
<path fill="none" stroke="black" d="M2986.38,-586.11C3039.77,-566.18 3127.02,-533.6 3184.36,-512.19"/>
<polygon fill="black" stroke="black" points="3185.49,-515.5 3193.64,-508.72 3183.04,-508.94 3185.49,-515.5"/>
<text text-anchor="middle" x="3126.4" y="-542.55" font-family="Times,serif" font-size="14.00">Nein</text>
</g>
<!-- A09 -->
<g id="node19" class="node">
<title>A09</title>
<polygon fill="#cfb986" stroke="black" points="3234.51,-405.83 3070.54,-405.83 3070.54,-344.31 3234.51,-344.31 3234.51,-405.83"/>
<text text-anchor="start" x="3137.53" y="-387.77" font-family="Times,serif" font-weight="bold" font-size="14.00">A09</text>
<text text-anchor="start" x="3082.78" y="-375.67" font-family="Times,serif" text-decoration="underline" font-size="12.00">Hinweis:</text>
<text text-anchor="start" x="3082.78" y="-363.67" font-family="Times,serif" font-size="12.00">Cluster: Ablehnung</text>
<text text-anchor="start" x="3082.78" y="-351.67" font-family="Times,serif" font-size="12.00">Bilanzkreis nicht g&#252;ltig</text>
</g>
<!-- 9&#45;&gt;A09 -->
<g id="edge18" class="edge">
<title>9-&gt;A09</title>
<path fill="none" stroke="black" d="M3228.01,-471.71C3216.17,-456.71 3198.52,-434.35 3183.27,-415.03"/>
<polygon fill="black" stroke="black" points="3186.12,-412.98 3177.17,-407.3 3180.62,-417.32 3186.12,-412.98"/>
<text text-anchor="middle" x="3219.4" y="-427.78" font-family="Times,serif" font-size="14.00">Nein</text>
</g>
<!-- 10 -->
<g id="node20" class="node">
<title>10</title>
<path fill="#7aab8a" stroke="black" d="M3638.05,-393.07C3638.05,-393.07 3265,-393.07 3265,-393.07 3259,-393.07 3253,-387.07 3253,-381.07 3253,-381.07 3253,-369.07 3253,-369.07 3253,-363.07 3259,-357.07 3265,-357.07 3265,-357.07 3638.05,-357.07 3638.05,-357.07 3644.05,-357.07 3650.05,-363.07 3650.05,-369.07 3650.05,-369.07 3650.05,-381.07 3650.05,-381.07 3650.05,-387.07 3644.05,-393.07 3638.05,-393.07"/>
<text text-anchor="start" x="3267.4" y="-371.39" font-family="Times,serif" font-weight="bold" font-size="14.00">10: </text>
<text text-anchor="start" x="3296.65" y="-371.39" font-family="Times,serif" font-size="14.00">Ist der NB zur Aktivierung des ZRT berechtigt?</text>
</g>
<!-- 9&#45;&gt;10 -->
<g id="edge19" class="edge">
<title>9-&gt;10</title>
<path fill="none" stroke="black" d="M3273.88,-471.47C3310.18,-451.97 3369.21,-420.27 3409.16,-398.82"/>
<polygon fill="black" stroke="black" points="3410.65,-401.99 3417.8,-394.18 3407.34,-395.83 3410.65,-401.99"/>
<text text-anchor="middle" x="3366.28" y="-427.78" font-family="Times,serif" font-size="14.00">Ja</text>
</g>
<!-- A10 -->
<g id="node21" class="node">
<title>A10</title>
<polygon fill="#cfb986" stroke="black" points="3472.14,-291.06 3248.91,-291.06 3248.91,-229.54 3472.14,-229.54 3472.14,-291.06"/>
<text text-anchor="start" x="3345.53" y="-273" font-family="Times,serif" font-weight="bold" font-size="14.00">A10</text>
<text text-anchor="start" x="3261.15" y="-260.9" font-family="Times,serif" text-decoration="underline" font-size="12.00">Hinweis:</text>
<text text-anchor="start" x="3261.15" y="-248.9" font-family="Times,serif" font-size="12.00">Cluster: Ablehnung</text>
<text text-anchor="start" x="3261.15" y="-236.9" font-family="Times,serif" font-size="12.00">ZRT Aktivierung nicht berechtigt</text>
</g>
<!-- 10&#45;&gt;A10 -->
<g id="edge20" class="edge">
<title>10-&gt;A10</title>
<path fill="none" stroke="black" d="M3437.7,-356.94C3425.6,-341.94 3407.56,-319.58 3391.96,-300.26"/>
<polygon fill="black" stroke="black" points="3394.72,-298.1 3385.72,-292.52 3389.27,-302.5 3394.72,-298.1"/>
<text text-anchor="middle" x="3428.4" y="-313.01" font-family="Times,serif" font-size="14.00">Nein</text>
</g>
<!-- 11 -->
<g id="node22" class="node">
<title>11</title>
<path fill="#7aab8a" stroke="black" d="M3834.43,-278.3C3834.43,-278.3 3502.62,-278.3 3502.62,-278.3 3496.62,-278.3 3490.62,-272.3 3490.62,-266.3 3490.62,-266.3 3490.62,-254.3 3490.62,-254.3 3490.62,-248.3 3496.62,-242.3 3502.62,-242.3 3502.62,-242.3 3834.43,-242.3 3834.43,-242.3 3840.43,-242.3 3846.43,-248.3 3846.43,-254.3 3846.43,-254.3 3846.43,-266.3 3846.43,-266.3 3846.43,-272.3 3840.43,-278.3 3834.43,-278.3"/>
<text text-anchor="start" x="3505.03" y="-256.62" font-family="Times,serif" font-weight="bold" font-size="14.00">11: </text>
<text text-anchor="start" x="3534.28" y="-256.62" font-family="Times,serif" font-size="14.00">Passt die Angabe des Mediums zum ZRT?</text>
</g>
<!-- 10&#45;&gt;11 -->
<g id="edge21" class="edge">
<title>10-&gt;11</title>
<path fill="none" stroke="black" d="M3484.96,-356.7C3522.55,-337.16 3583.72,-305.37 3625.01,-283.91"/>
<polygon fill="black" stroke="black" points="3626.45,-287.11 3633.71,-279.39 3623.23,-280.9 3626.45,-287.11"/>
<text text-anchor="middle" x="3580.28" y="-313.01" font-family="Times,serif" font-size="14.00">Ja</text>
</g>
<!-- A11 -->
<g id="node23" class="node">
<title>A11</title>
<polygon fill="#cfb986" stroke="black" points="3643.26,-176.29 3483.79,-176.29 3483.79,-114.77 3643.26,-114.77 3643.26,-176.29"/>
<text text-anchor="start" x="3548.53" y="-158.23" font-family="Times,serif" font-weight="bold" font-size="14.00">A11</text>
<text text-anchor="start" x="3496.03" y="-146.13" font-family="Times,serif" text-decoration="underline" font-size="12.00">Hinweis:</text>
<text text-anchor="start" x="3496.03" y="-134.13" font-family="Times,serif" font-size="12.00">Cluster: Ablehnung</text>
<text text-anchor="start" x="3496.03" y="-122.13" font-family="Times,serif" font-size="12.00">Medium nicht passend</text>
</g>
<!-- 11&#45;&gt;A11 -->
<g id="edge22" class="edge">
<title>11-&gt;A11</title>
<path fill="none" stroke="black" d="M3652.58,-242.17C3638.48,-227.04 3617.42,-204.41 3599.31,-184.96"/>
<polygon fill="black" stroke="black" points="3601.9,-182.61 3592.53,-177.68 3596.78,-187.38 3601.9,-182.61"/>
<text text-anchor="middle" x="3639.4" y="-198.24" font-family="Times,serif" font-size="14.00">Nein</text>
</g>
<!-- 12 -->
<g id="node24" class="node">
<title>12</title>
<path fill="#7aab8a" stroke="black" d="M4183.3,-163.53C4183.3,-163.53 3673.75,-163.53 3673.75,-163.53 3667.75,-163.53 3661.75,-157.53 3661.75,-151.53 3661.75,-151.53 3661.75,-139.53 3661.75,-139.53 3661.75,-133.53 3667.75,-127.53 3673.75,-127.53 3673.75,-127.53 4183.3,-127.53 4183.3,-127.53 4189.3,-127.53 4195.3,-133.53 4195.3,-139.53 4195.3,-139.53 4195.3,-151.53 4195.3,-151.53 4195.3,-157.53 4189.3,-163.53 4183.3,-163.53"/>
<text text-anchor="start" x="3676.15" y="-141.85" font-family="Times,serif" font-weight="bold" font-size="14.00">12: </text>
<text text-anchor="start" x="3705.4" y="-141.85" font-family="Times,serif" font-size="14.00">Ist der MaBiS-ZP zum Zeitpunkt der Aktivierung bereits aktiviert?</text>
</g>
<!-- 11&#45;&gt;12 -->
<g id="edge23" class="edge">
<title>11-&gt;12</title>
<path fill="none" stroke="black" d="M3708.86,-241.8C3754.44,-222.03 3828.69,-189.83 3878.07,-168.41"/>
<polygon fill="black" stroke="black" points="3879.35,-171.67 3887.13,-164.48 3876.56,-165.25 3879.35,-171.67"/>
<text text-anchor="middle" x="3821.28" y="-198.24" font-family="Times,serif" font-size="14.00">Ja</text>
</g>
<!-- A12 -->
<g id="node25" class="node">
<title>A12</title>
<polygon fill="#cfb986" stroke="black" points="3921.39,-61.52 3735.66,-61.52 3735.66,0 3921.39,0 3921.39,-61.52"/>
<text text-anchor="start" x="3813.53" y="-43.46" font-family="Times,serif" font-weight="bold" font-size="14.00">A12</text>
<text text-anchor="start" x="3747.9" y="-31.36" font-family="Times,serif" text-decoration="underline" font-size="12.00">Hinweis:</text>
<text text-anchor="start" x="3747.9" y="-19.36" font-family="Times,serif" font-size="12.00">Cluster: Ablehnung</text>
<text text-anchor="start" x="3747.9" y="-7.36" font-family="Times,serif" font-size="12.00">MaBiS-ZP bereits aktiviert</text>
</g>
<!-- 12&#45;&gt;A12 -->
<g id="edge24" class="edge">
<title>12-&gt;A12</title>
<path fill="none" stroke="black" d="M3913.34,-127.4C3899.92,-112.27 3879.85,-89.64 3862.6,-70.19"/>
<polygon fill="black" stroke="black" points="3865.42,-68.09 3856.17,-62.93 3860.19,-72.74 3865.42,-68.09"/>
<text text-anchor="middle" x="3891.28" y="-83.47" font-family="Times,serif" font-size="14.00">Ja</text>
</g>
<!-- A13 -->
<g id="node26" class="node">
<title>A13</title>
<polygon fill="#cfb986" stroke="black" points="4117.64,-61.52 3939.41,-61.52 3939.41,0 4117.64,0 4117.64,-61.52"/>
<text text-anchor="start" x="4013.53" y="-43.46" font-family="Times,serif" font-weight="bold" font-size="14.00">A13</text>
<text text-anchor="start" x="3951.65" y="-31.36" font-family="Times,serif" text-decoration="underline" font-size="12.00">Hinweis:</text>
<text text-anchor="start" x="3951.65" y="-19.36" font-family="Times,serif" font-size="12.00">Cluster: Zustimmung</text>
<text text-anchor="start" x="3951.65" y="-7.36" font-family="Times,serif" font-size="12.00">Aktivierung durchgef&#252;hrt</text>
</g>
<!-- 12&#45;&gt;A13 -->
<g id="edge25" class="edge">
<title>12-&gt;A13</title>
<path fill="none" stroke="black" d="M3943.71,-127.4C3957.13,-112.27 3977.2,-89.64 3994.45,-70.19"/>
<polygon fill="black" stroke="black" points="3996.86,-72.74 4000.88,-62.93 3991.63,-68.09 3996.86,-72.74"/>
<text text-anchor="middle" x="4001.4" y="-83.47" font-family="Times,serif" font-size="14.00">Nein</text>
</g>
</g>
</svg>
  </g>
</svg>
  </g>
</svg>
