<?xml version='1.0' encoding='ASCII' standalone='yes'?>
<svg xmlns="http://www.w3.org/2000/svg" xmlns:xlink="http://www.w3.org/1999/xlink" version="1.1" width="1844.0px" viewBox="0 0 1844.0 1917.3333333333333" height="1917.3333333333333px">
  <g>
    <svg version="1.1" width="1844.0px" viewBox="0 0 1844.0 1917.3333333333333" height="1917.3333333333333px">
  <polygon fill="#f3f1f6" points="0,0 1844.0,0 1844.0,1917.3333333333333 0,1917.3333333333333"/><g>
    <g transform="translate(184.39999999999995, 220.51913426960994) scale(1 1) translate(0, 0) scale(8.34589432294187 8.34589432294187) "><sodipodi:namedview xmlns:sodipodi="http://sodipodi.sourceforge.net/DTD/sodipodi-0.dtd" xmlns:inkscape="http://www.inkscape.org/namespaces/inkscape" id="namedview7" pagecolor="#ffffff" bordercolor="#999999" borderopacity="1" inkscape:pageshadow="0" inkscape:pageopacity="0" inkscape:pagecheckerboard="0" inkscape:document-units="mm" showgrid="false" fit-margin-top="0" fit-margin-left="0" fit-margin-right="0" fit-margin-bottom="0" inkscape:zoom="0.64052329" inkscape:cx="130.36216" inkscape:cy="412.163" inkscape:window-width="1512" inkscape:window-height="916" inkscape:window-x="3840" inkscape:window-y="136" inkscape:window-maximized="0" inkscape:current-layer="layer1"/>
  <defs id="defs2">
    <clipPath clipPathUnits="userSpaceOnUse" id="clipPath23">
      <path d="M 0,568.156 H 579.236 V 0 H 0 Z" id="path21"/>
    </clipPath>
  </defs>
  <g xmlns:inkscape="http://www.inkscape.org/namespaces/inkscape" inkscape:label="Layer 1" inkscape:groupmode="layer" id="layer1" transform="translate(-16.541937,-55.305267)">
    <g id="g19" clip-path="url(#clipPath23)" transform="matrix(0.35277777,0,0,-0.35277777,0.01017023,243.73675)" style="opacity:0.2">
      <g id="g25" transform="translate(122.444,32.7195)">
        <path d="m 0,0 h -56.104 c -11,0 -19.898,9.123 -19.463,20.115 10.594,267.191 231.277,481.302 501.029,481.302 v -56.02 c 0,-10.98 -8.688,-19.892 -19.658,-20.393 C 180.29,414.697 0,228.005 0,0" style="fill:#6ead83;fill-opacity:0.5;fill-rule:nonzero;stroke:none" id="path27"/>
      </g>
      <g id="g29" transform="translate(273.7828,32.7195)">
        <path d="m 0,0 h -55.926 c -11.228,0 -20.091,9.482 -19.435,20.69 10.744,183.439 163.389,329.388 349.485,329.388 v -56.263 c 0,-10.709 -8.273,-19.617 -18.957,-20.35 C 112.819,263.696 0,144.774 0,0" style="fill:#6ead83;fill-opacity:0.5;fill-rule:nonzero;stroke:none" id="path31"/>
      </g>
      <g id="g33" transform="translate(425.7667,32.7195)">
        <path d="m 0,0 h -55.445 c -11.653,0 -20.604,10.17 -19.334,21.753 10.866,99.032 95.031,176.341 196.919,176.341 v -57.011 c 0,-10.046 -7.283,-18.755 -17.229,-20.165 C 45.688,112.522 0,61.497 0,0" style="fill:#6ead83;fill-opacity:0.5;fill-rule:nonzero;stroke:none" id="path35"/>
      </g>
    </g>
  </g>
</g>
    <svg width="1383pt" height="1438pt" viewBox="0.00 0.00 1382.89 1437.52">
<g id="graph0" class="graph" transform="scale(1 1) rotate(0) translate(4 1433.52)">
<title>D</title>
<text text-anchor="start" x="360.07" y="-1409.42" font-family="Times,serif" font-weight="bold" font-size="18.00">MaBiS</text>
<text text-anchor="start" x="360.07" y="-1379.32" font-family="Times,serif" font-weight="bold" font-size="16.00">7.48.1: AD: Austausch der Deltazeitreihen&#252;bertrag-Liste von &#220;NB an NB</text>
<!-- Start -->
<g id="node1" class="node">
<title>Start</title>
<path fill="#7a8da1" stroke="black" stroke-width="0" d="M421.14,-1331.52C421.14,-1331.52 285.09,-1331.52 285.09,-1331.52 279.09,-1331.52 273.09,-1325.52 273.09,-1319.52 273.09,-1319.52 273.09,-1300.24 273.09,-1300.24 273.09,-1294.24 279.09,-1288.24 285.09,-1288.24 285.09,-1288.24 421.14,-1288.24 421.14,-1288.24 427.14,-1288.24 433.14,-1294.24 433.14,-1300.24 433.14,-1300.24 433.14,-1319.52 433.14,-1319.52 433.14,-1325.52 427.14,-1331.52 421.14,-1331.52"/>
<text text-anchor="start" x="324.99" y="-1310.58" font-family="Times,serif" font-weight="bold" font-size="14.00">E_0070</text>
<text text-anchor="start" x="287.49" y="-1298.48" font-family="Times,serif" font-weight="bold" text-decoration="underline" font-size="12.00">Pr&#252;fende Rolle:</text>
<text text-anchor="start" x="392.49" y="-1298.48" font-family="Times,serif" font-weight="bold" font-size="12.00"> NB</text>
</g>
<!-- 1 -->
<g id="node2" class="node">
<title>1</title>
<path fill="#7aab8a" stroke="black" stroke-width="0" d="M628.51,-1251.24C628.51,-1251.24 77.72,-1251.24 77.72,-1251.24 71.72,-1251.24 65.72,-1245.24 65.72,-1239.24 65.72,-1239.24 65.72,-1227.24 65.72,-1227.24 65.72,-1221.24 71.72,-1215.24 77.72,-1215.24 77.72,-1215.24 628.51,-1215.24 628.51,-1215.24 634.51,-1215.24 640.51,-1221.24 640.51,-1227.24 640.51,-1227.24 640.51,-1239.24 640.51,-1239.24 640.51,-1245.24 634.51,-1251.24 628.51,-1251.24"/>
<text text-anchor="start" x="80.12" y="-1229.57" font-family="Times,serif" font-weight="bold" font-size="14.00">1: </text>
<text text-anchor="start" x="99.62" y="-1229.57" font-family="Times,serif" font-size="14.00">Erfolgt der Eingang der DZ&#220;-Liste innerhalb der Clearingphase f&#252;r DZ&#220;?</text>
</g>
<!-- Start&#45;&gt;1 -->
<g id="edge1" class="edge">
<title>Start-&gt;1</title>
<path fill="none" stroke="black" d="M353.12,-1288.48C353.12,-1280.41 353.12,-1271 353.12,-1262.31"/>
<polygon fill="black" stroke="black" points="356.62,-1262.6 353.12,-1252.6 349.62,-1262.6 356.62,-1262.6"/>
</g>
<!-- A01 -->
<g id="node3" class="node">
<title>A01</title>
<path fill="#cfb986" stroke="black" stroke-width="0" d="M334.23,-1161.99C334.23,-1161.99 12,-1161.99 12,-1161.99 6,-1161.99 0,-1155.99 0,-1149.99 0,-1149.99 0,-1112.47 0,-1112.47 0,-1106.47 6,-1100.47 12,-1100.47 12,-1100.47 334.23,-1100.47 334.23,-1100.47 340.23,-1100.47 346.23,-1106.47 346.23,-1112.47 346.23,-1112.47 346.23,-1149.99 346.23,-1149.99 346.23,-1155.99 340.23,-1161.99 334.23,-1161.99"/>
<text text-anchor="start" x="12.24" y="-1143.93" font-family="Times,serif" font-weight="bold" font-size="14.00">A01</text>
<text text-anchor="start" x="12.24" y="-1131.83" font-family="Times,serif" text-decoration="underline" font-size="12.00">Hinweis:</text>
<text text-anchor="start" x="12.24" y="-1119.83" font-family="Times,serif" font-size="12.00">Cluster: Ablehnung der gesamten Liste</text>
<text text-anchor="start" x="12.24" y="-1107.83" font-family="Times,serif" font-size="12.00">Eingang liegt nicht innerhalb der Clearingphase DZ&#220;</text>
</g>
<!-- 1&#45;&gt;A01 -->
<g id="edge2" class="edge">
<title>1-&gt;A01</title>
<path fill="none" stroke="#7aab8a" d="M322.58,-1215.27C298.97,-1202.16 265.48,-1183.55 236.18,-1167.27"/>
<polygon fill="#7aab8a" stroke="#7aab8a" points="238.19,-1164.38 227.75,-1162.58 234.79,-1170.5 238.19,-1164.38"/>
<text text-anchor="start" x="289.12" y="-1184.94" font-family="Times,serif" font-weight="bold" font-size="14.00">NEIN</text>
</g>
<!-- 2 -->
<g id="node4" class="node">
<title>2</title>
<path fill="#7aab8a" stroke="black" stroke-width="0" d="M620.14,-1149.23C620.14,-1149.23 376.09,-1149.23 376.09,-1149.23 370.09,-1149.23 364.09,-1143.23 364.09,-1137.23 364.09,-1137.23 364.09,-1125.23 364.09,-1125.23 364.09,-1119.23 370.09,-1113.23 376.09,-1113.23 376.09,-1113.23 620.14,-1113.23 620.14,-1113.23 626.14,-1113.23 632.14,-1119.23 632.14,-1125.23 632.14,-1125.23 632.14,-1137.23 632.14,-1137.23 632.14,-1143.23 626.14,-1149.23 620.14,-1149.23"/>
<text text-anchor="start" x="378.49" y="-1127.56" font-family="Times,serif" font-weight="bold" font-size="14.00">2: </text>
<text text-anchor="start" x="397.99" y="-1127.56" font-family="Times,serif" font-size="14.00">Ist die Marktlokation bekannt?</text>
</g>
<!-- 1&#45;&gt;2 -->
<g id="edge3" class="edge">
<title>1-&gt;2</title>
<path fill="none" stroke="#7aab8a" d="M377.71,-1215.27C401.6,-1198.8 438.06,-1173.65 464.59,-1155.35"/>
<polygon fill="#7aab8a" stroke="#7aab8a" points="466.39,-1158.36 472.64,-1149.8 462.42,-1152.6 466.39,-1158.36"/>
<text text-anchor="start" x="425.12" y="-1184.94" font-family="Times,serif" font-weight="bold" font-size="14.00">JA</text>
</g>
<!-- A02 -->
<g id="node5" class="node">
<title>A02</title>
<path fill="#cfb986" stroke="black" stroke-width="0" d="M269.11,-1047.22C269.11,-1047.22 21.12,-1047.22 21.12,-1047.22 15.12,-1047.22 9.12,-1041.22 9.12,-1035.22 9.12,-1035.22 9.12,-997.7 9.12,-997.7 9.12,-991.7 15.12,-985.7 21.12,-985.7 21.12,-985.7 269.11,-985.7 269.11,-985.7 275.11,-985.7 281.11,-991.7 281.11,-997.7 281.11,-997.7 281.11,-1035.22 281.11,-1035.22 281.11,-1041.22 275.11,-1047.22 269.11,-1047.22"/>
<text text-anchor="start" x="21.37" y="-1029.16" font-family="Times,serif" font-weight="bold" font-size="14.00">A02</text>
<text text-anchor="start" x="21.37" y="-1017.06" font-family="Times,serif" text-decoration="underline" font-size="12.00">Hinweis:</text>
<text text-anchor="start" x="21.37" y="-1005.06" font-family="Times,serif" font-size="12.00">Cluster: Korrekturliste wegen Ablehnung</text>
<text text-anchor="start" x="21.37" y="-993.06" font-family="Times,serif" font-size="12.00">Marktlokation ist nicht bekannt</text>
</g>
<!-- 2&#45;&gt;A02 -->
<g id="edge4" class="edge">
<title>2-&gt;A02</title>
<path fill="none" stroke="#7aab8a" d="M445.27,-1113.35C393.52,-1096.82 313.29,-1071.19 248.79,-1050.58"/>
<polygon fill="#7aab8a" stroke="#7aab8a" points="250.2,-1047.36 239.61,-1047.65 248.07,-1054.03 250.2,-1047.36"/>
<text text-anchor="start" x="342.12" y="-1070.17" font-family="Times,serif" font-weight="bold" font-size="14.00">NEIN</text>
</g>
<!-- 3 -->
<g id="node6" class="node">
<title>3</title>
<path fill="#7aab8a" stroke="black" stroke-width="0" d="M861.51,-1039.1C861.51,-1039.1 310.72,-1039.1 310.72,-1039.1 304.72,-1039.1 298.72,-1033.1 298.72,-1027.1 298.72,-1027.1 298.72,-1005.82 298.72,-1005.82 298.72,-999.82 304.72,-993.82 310.72,-993.82 310.72,-993.82 861.51,-993.82 861.51,-993.82 867.51,-993.82 873.51,-999.82 873.51,-1005.82 873.51,-1005.82 873.51,-1027.1 873.51,-1027.1 873.51,-1033.1 867.51,-1039.1 861.51,-1039.1"/>
<text text-anchor="start" x="313.12" y="-1018.16" font-family="Times,serif" font-weight="bold" font-size="14.00">3: </text>
<text text-anchor="start" x="332.62" y="-1018.16" font-family="Times,serif" font-size="14.00">Entspricht das Bilanzierungsgebiet dem zwischen NB (&#252;ber LF) und &#220;NB</text>
<text text-anchor="start" x="313.12" y="-1004.16" font-family="Times,serif" font-size="14.00">ausgetauschten Bilanzierungsgebiet?</text>
</g>
<!-- 2&#45;&gt;3 -->
<g id="edge5" class="edge">
<title>2-&gt;3</title>
<path fill="none" stroke="#7aab8a" d="M511.1,-1113.59C524.59,-1096.3 546,-1068.86 562.51,-1047.72"/>
<polygon fill="#7aab8a" stroke="#7aab8a" points="565.14,-1050.03 568.53,-1039.99 559.62,-1045.72 565.14,-1050.03"/>
<text text-anchor="start" x="547.12" y="-1070.17" font-family="Times,serif" font-weight="bold" font-size="14.00">JA</text>
</g>
<!-- A03 -->
<g id="node7" class="node">
<title>A03</title>
<path fill="#cfb986" stroke="black" stroke-width="0" d="M921.61,-73.52C921.61,-73.52 616.62,-73.52 616.62,-73.52 610.62,-73.52 604.62,-67.52 604.62,-61.52 604.62,-61.52 604.62,-12 604.62,-12 604.62,-6 610.62,0 616.62,0 616.62,0 921.61,0 921.61,0 927.61,0 933.61,-6 933.61,-12 933.61,-12 933.61,-61.52 933.61,-61.52 933.61,-67.52 927.61,-73.52 921.61,-73.52"/>
<text text-anchor="start" x="616.87" y="-55.46" font-family="Times,serif" font-weight="bold" font-size="14.00">A03</text>
<text text-anchor="start" x="616.87" y="-43.36" font-family="Times,serif" text-decoration="underline" font-size="12.00">Hinweis:</text>
<text text-anchor="start" x="616.87" y="-31.36" font-family="Times,serif" font-size="12.00">Cluster: Korrekturliste wegen Ablehnung</text>
<text text-anchor="start" x="616.87" y="-19.36" font-family="Times,serif" font-size="12.00">Bilanzierungsrel. Daten nicht korrekt / fehlen</text>
<text text-anchor="start" x="616.87" y="-7.36" font-family="Times,serif" font-size="12.00">Ist mit Werten des NB zu allen Stammdaten gef&#252;llt</text>
</g>
<!-- 3&#45;&gt;A03 -->
<g id="edge6" class="edge">
<title>3-&gt;A03</title>
<path fill="none" stroke="#7aab8a" d="M449.23,-993.91C366.97,-976.94 278.12,-949.64 278.12,-910.81 278.12,-910.81 278.12,-910.81 278.12,-582.51 278.12,-550.84 274.14,-541.23 285.37,-511.61 299.88,-473.3 313.36,-468.59 339.12,-436.72"/>
<path fill="none" stroke="#7aab8a" d="M339.12,-434.72C358.19,-409.99 370.8,-411.18 391.12,-387.45"/>
<path fill="none" stroke="#7aab8a" d="M391.12,-385.45C412.08,-360.97 425.73,-363.15 446.12,-338.19"/>
<path fill="none" stroke="#7aab8a" d="M446.12,-336.19C465.05,-313 475.26,-312.18 494.12,-288.93"/>
<path fill="none" stroke="#7aab8a" d="M494.12,-286.93C512.94,-263.72 527.5,-267.68 546.12,-244.3"/>
<path fill="none" stroke="#7aab8a" d="M546.12,-242.3C563.47,-220.49 575.58,-222.11 592.12,-199.68"/>
<path fill="none" stroke="#7aab8a" d="M592.12,-197.68C610.65,-172.54 625.24,-175.29 644.12,-150.41"/>
<path fill="none" stroke="#7aab8a" d="M644.12,-148.41C661.83,-125.06 672.92,-124.88 690.12,-101.14"/>
<path fill="none" stroke="#7aab8a" d="M690.12,-99.14C694.81,-92.67 700.37,-86.53 706.34,-80.83"/>
<polygon fill="#7aab8a" stroke="#7aab8a" points="708.46,-83.62 713.55,-74.33 703.78,-78.42 708.46,-83.62"/>
<text text-anchor="start" x="285.12" y="-530.58" font-family="Times,serif" font-weight="bold" font-size="14.00">NEIN</text>
</g>
<!-- 4 -->
<g id="node8" class="node">
<title>4</title>
<path fill="#7aab8a" stroke="black" stroke-width="0" d="M921.76,-932.45C921.76,-932.45 318.47,-932.45 318.47,-932.45 312.47,-932.45 306.47,-926.45 306.47,-920.45 306.47,-920.45 306.47,-899.17 306.47,-899.17 306.47,-893.17 312.47,-887.17 318.47,-887.17 318.47,-887.17 921.76,-887.17 921.76,-887.17 927.76,-887.17 933.76,-893.17 933.76,-899.17 933.76,-899.17 933.76,-920.45 933.76,-920.45 933.76,-926.45 927.76,-932.45 921.76,-932.45"/>
<text text-anchor="start" x="320.87" y="-911.51" font-family="Times,serif" font-weight="bold" font-size="14.00">4: </text>
<text text-anchor="start" x="340.37" y="-911.51" font-family="Times,serif" font-size="14.00">Entspricht der Bilanzkreis dem zwischen NB (&#252;ber LF) und &#220;NB ausgetauschten</text>
<text text-anchor="start" x="320.87" y="-897.51" font-family="Times,serif" font-size="14.00">Bilanzkreis?</text>
</g>
<!-- 3&#45;&gt;4 -->
<g id="edge7" class="edge">
<title>3-&gt;4</title>
<path fill="none" stroke="#7aab8a" d="M593.08,-994.03C597.84,-979.36 604.25,-959.63 609.63,-943.07"/>
<polygon fill="#7aab8a" stroke="#7aab8a" points="612.93,-944.24 612.69,-933.65 606.28,-942.08 612.93,-944.24"/>
<text text-anchor="start" x="607.12" y="-955.4" font-family="Times,serif" font-weight="bold" font-size="14.00">JA</text>
</g>
<!-- 4&#45;&gt;A03 -->
<g id="edge8" class="edge">
<title>4-&gt;A03</title>
<path fill="none" stroke="#7aab8a" d="M487,-887.24C418.46,-872.22 349.12,-849.09 349.12,-816.92 349.12,-816.92 349.12,-816.92 349.12,-582.51 349.12,-517.56 300.92,-489.25 339.12,-436.72"/>
<text text-anchor="start" x="326.12" y="-481.31" font-family="Times,serif" font-weight="bold" font-size="14.00">NEIN</text>
</g>
<!-- 5 -->
<g id="node9" class="node">
<title>5</title>
<path fill="#7aab8a" stroke="black" stroke-width="0" d="M847.14,-833.92C847.14,-833.92 393.09,-833.92 393.09,-833.92 387.09,-833.92 381.09,-827.92 381.09,-821.92 381.09,-821.92 381.09,-809.92 381.09,-809.92 381.09,-803.92 387.09,-797.92 393.09,-797.92 393.09,-797.92 847.14,-797.92 847.14,-797.92 853.14,-797.92 859.14,-803.92 859.14,-809.92 859.14,-809.92 859.14,-821.92 859.14,-821.92 859.14,-827.92 853.14,-833.92 847.14,-833.92"/>
<text text-anchor="start" x="395.49" y="-812.25" font-family="Times,serif" font-weight="bold" font-size="14.00">5: </text>
<text text-anchor="start" x="414.99" y="-812.25" font-family="Times,serif" font-size="14.00">Entspricht der Bilanzierungsbeginn der Erwartung des NB?</text>
</g>
<!-- 4&#45;&gt;5 -->
<g id="edge9" class="edge">
<title>4-&gt;5</title>
<path fill="none" stroke="#7aab8a" d="M620.12,-887.5C620.12,-874.87 620.12,-858.71 620.12,-845.05"/>
<polygon fill="#7aab8a" stroke="#7aab8a" points="623.62,-845.34 620.12,-835.34 616.62,-845.34 623.62,-845.34"/>
<text text-anchor="start" x="620.12" y="-856.87" font-family="Times,serif" font-weight="bold" font-size="14.00">JA</text>
</g>
<!-- 5&#45;&gt;A03 -->
<g id="edge10" class="edge">
<title>5-&gt;A03</title>
<path fill="none" stroke="#7aab8a" d="M534.85,-797.94C471.9,-782.87 397.12,-758.49 397.12,-727.67 397.12,-727.67 397.12,-727.67 397.12,-533.25 397.12,-468.4 351.2,-438.57 391.12,-387.45"/>
<text text-anchor="start" x="379.12" y="-432.04" font-family="Times,serif" font-weight="bold" font-size="14.00">NEIN</text>
</g>
<!-- 6 -->
<g id="node10" class="node">
<title>6</title>
<path fill="#7aab8a" stroke="black" stroke-width="0" d="M877.39,-744.67C877.39,-744.67 436.84,-744.67 436.84,-744.67 430.84,-744.67 424.84,-738.67 424.84,-732.67 424.84,-732.67 424.84,-720.67 424.84,-720.67 424.84,-714.67 430.84,-708.67 436.84,-708.67 436.84,-708.67 877.39,-708.67 877.39,-708.67 883.39,-708.67 889.39,-714.67 889.39,-720.67 889.39,-720.67 889.39,-732.67 889.39,-732.67 889.39,-738.67 883.39,-744.67 877.39,-744.67"/>
<text text-anchor="start" x="439.24" y="-723" font-family="Times,serif" font-weight="bold" font-size="14.00">6: </text>
<text text-anchor="start" x="458.74" y="-723" font-family="Times,serif" font-size="14.00">Entspricht das Bilanzierungsende der Erwartung des NB?</text>
</g>
<!-- 5&#45;&gt;6 -->
<g id="edge11" class="edge">
<title>5-&gt;6</title>
<path fill="none" stroke="#7aab8a" d="M627.25,-798.1C632.47,-785.79 639.66,-768.82 645.68,-754.63"/>
<polygon fill="#7aab8a" stroke="#7aab8a" points="648.73,-756.41 649.41,-745.83 642.29,-753.67 648.73,-756.41"/>
<text text-anchor="start" x="641.12" y="-767.62" font-family="Times,serif" font-weight="bold" font-size="14.00">JA</text>
</g>
<!-- 6&#45;&gt;A03 -->
<g id="edge12" class="edge">
<title>6-&gt;A03</title>
<path fill="none" stroke="#7aab8a" d="M534.17,-708.67C495.23,-695.81 462.12,-673.26 462.12,-633.78 462.12,-633.78 462.12,-633.78 462.12,-483.98 462.12,-418.8 407.15,-390.45 446.12,-338.19"/>
<text text-anchor="start" x="434.12" y="-382.78" font-family="Times,serif" font-weight="bold" font-size="14.00">NEIN</text>
</g>
<!-- 7 -->
<g id="node11" class="node">
<title>7</title>
<path fill="#7aab8a" stroke="black" stroke-width="0" d="M1053.89,-655.42C1053.89,-655.42 502.34,-655.42 502.34,-655.42 496.34,-655.42 490.34,-649.42 490.34,-643.42 490.34,-643.42 490.34,-622.14 490.34,-622.14 490.34,-616.14 496.34,-610.14 502.34,-610.14 502.34,-610.14 1053.89,-610.14 1053.89,-610.14 1059.89,-610.14 1065.89,-616.14 1065.89,-622.14 1065.89,-622.14 1065.89,-643.42 1065.89,-643.42 1065.89,-649.42 1059.89,-655.42 1053.89,-655.42"/>
<text text-anchor="start" x="504.74" y="-634.48" font-family="Times,serif" font-weight="bold" font-size="14.00">7: </text>
<text text-anchor="start" x="524.24" y="-634.48" font-family="Times,serif" font-size="14.00">Entspricht das normierte Profil dem zwischen NB und LF ausgetauschten</text>
<text text-anchor="start" x="504.74" y="-620.48" font-family="Times,serif" font-size="14.00">normierten Profil?</text>
</g>
<!-- 6&#45;&gt;7 -->
<g id="edge13" class="edge">
<title>6-&gt;7</title>
<path fill="none" stroke="#7aab8a" d="M679.31,-708.82C696.47,-695.79 720.61,-677.45 740.73,-662.17"/>
<polygon fill="#7aab8a" stroke="#7aab8a" points="742.6,-665.14 748.45,-656.31 738.37,-659.57 742.6,-665.14"/>
<text text-anchor="start" x="724.12" y="-678.37" font-family="Times,serif" font-weight="bold" font-size="14.00">JA</text>
</g>
<!-- 7&#45;&gt;A03 -->
<g id="edge14" class="edge">
<title>7-&gt;A03</title>
<path fill="none" stroke="#7aab8a" d="M660.03,-610.19C602.44,-597.17 541.62,-578.86 523.12,-556.89 503.82,-533.99 475.81,-312.63 494.12,-288.93"/>
<text text-anchor="start" x="488.12" y="-333.51" font-family="Times,serif" font-weight="bold" font-size="14.00">NEIN</text>
</g>
<!-- 8 -->
<g id="node12" class="node">
<title>8</title>
<path fill="#7aab8a" stroke="black" stroke-width="0" d="M1121.64,-556.89C1121.64,-556.89 544.59,-556.89 544.59,-556.89 538.59,-556.89 532.59,-550.89 532.59,-544.89 532.59,-544.89 532.59,-523.61 532.59,-523.61 532.59,-517.61 538.59,-511.61 544.59,-511.61 544.59,-511.61 1121.64,-511.61 1121.64,-511.61 1127.64,-511.61 1133.64,-517.61 1133.64,-523.61 1133.64,-523.61 1133.64,-544.89 1133.64,-544.89 1133.64,-550.89 1127.64,-556.89 1121.64,-556.89"/>
<text text-anchor="start" x="546.99" y="-535.95" font-family="Times,serif" font-weight="bold" font-size="14.00">8: </text>
<text text-anchor="start" x="566.49" y="-535.95" font-family="Times,serif" font-size="14.00">Entspricht die Versionsangabe des Profils der zwischen NB und &#220;NB f&#252;r SLS</text>
<text text-anchor="start" x="546.99" y="-521.95" font-family="Times,serif" font-size="14.00">ausgetauschten Version des Profils?</text>
</g>
<!-- 7&#45;&gt;8 -->
<g id="edge15" class="edge">
<title>7-&gt;8</title>
<path fill="none" stroke="#7aab8a" d="M790.32,-610.36C797.66,-597.48 807.12,-580.88 815.28,-566.55"/>
<polygon fill="#7aab8a" stroke="#7aab8a" points="818.28,-568.35 820.19,-557.93 812.2,-564.88 818.28,-568.35"/>
<text text-anchor="start" x="808.12" y="-579.84" font-family="Times,serif" font-weight="bold" font-size="14.00">JA</text>
</g>
<!-- 8&#45;&gt;A03 -->
<g id="edge16" class="edge">
<title>8-&gt;A03</title>
<path fill="none" stroke="#7aab8a" d="M670.56,-511.62C638.15,-500.39 607.08,-483.55 584.12,-458.36 567.84,-440.51 531.23,-263.32 546.12,-244.3"/>
<text text-anchor="start" x="544.12" y="-284.25" font-family="Times,serif" font-weight="bold" font-size="14.00">NEIN</text>
</g>
<!-- 9 -->
<g id="node13" class="node">
<title>9</title>
<path fill="#7aab8a" stroke="black" stroke-width="0" d="M1175.26,-458.36C1175.26,-458.36 604.97,-458.36 604.97,-458.36 598.97,-458.36 592.97,-452.36 592.97,-446.36 592.97,-446.36 592.97,-425.08 592.97,-425.08 592.97,-419.08 598.97,-413.08 604.97,-413.08 604.97,-413.08 1175.26,-413.08 1175.26,-413.08 1181.26,-413.08 1187.26,-419.08 1187.26,-425.08 1187.26,-425.08 1187.26,-446.36 1187.26,-446.36 1187.26,-452.36 1181.26,-458.36 1175.26,-458.36"/>
<text text-anchor="start" x="607.37" y="-437.42" font-family="Times,serif" font-weight="bold" font-size="14.00">9: </text>
<text text-anchor="start" x="626.87" y="-437.42" font-family="Times,serif" font-size="14.00">Entspricht die veranschlagte Prognosemenge (JVP) der zwischen NB und LF</text>
<text text-anchor="start" x="607.37" y="-423.42" font-family="Times,serif" font-size="14.00">ausgetauschten Prognosemenge?</text>
</g>
<!-- 8&#45;&gt;9 -->
<g id="edge17" class="edge">
<title>8-&gt;9</title>
<path fill="none" stroke="#7aab8a" d="M845.77,-511.83C853.44,-498.83 863.36,-482.02 871.88,-467.61"/>
<polygon fill="#7aab8a" stroke="#7aab8a" points="874.66,-469.78 876.73,-459.39 868.63,-466.22 874.66,-469.78"/>
<text text-anchor="start" x="864.12" y="-481.31" font-family="Times,serif" font-weight="bold" font-size="14.00">JA</text>
</g>
<!-- 9&#45;&gt;A03 -->
<g id="edge18" class="edge">
<title>9-&gt;A03</title>
<path fill="none" stroke="#7aab8a" d="M711.16,-413.19C678.25,-401.85 646.84,-384.93 623.12,-359.83 610.66,-346.66 581.23,-214.17 592.12,-199.68"/>
<text text-anchor="start" x="594.12" y="-239.62" font-family="Times,serif" font-weight="bold" font-size="14.00">NEIN</text>
</g>
<!-- 10 -->
<g id="node14" class="node">
<title>10</title>
<path fill="#7aab8a" stroke="black" stroke-width="0" d="M1252.39,-359.83C1252.39,-359.83 643.84,-359.83 643.84,-359.83 637.84,-359.83 631.84,-353.83 631.84,-347.83 631.84,-347.83 631.84,-326.55 631.84,-326.55 631.84,-320.55 637.84,-314.55 643.84,-314.55 643.84,-314.55 1252.39,-314.55 1252.39,-314.55 1258.39,-314.55 1264.39,-320.55 1264.39,-326.55 1264.39,-326.55 1264.39,-347.83 1264.39,-347.83 1264.39,-353.83 1258.39,-359.83 1252.39,-359.83"/>
<text text-anchor="start" x="646.24" y="-338.89" font-family="Times,serif" font-weight="bold" font-size="14.00">10: </text>
<text text-anchor="start" x="675.49" y="-338.89" font-family="Times,serif" font-size="14.00">Entspricht die tats&#228;chlich bilanzierte Menge der erwarteten bilanzierten Menge</text>
<text text-anchor="start" x="646.24" y="-324.89" font-family="Times,serif" font-size="14.00">(monatlich gemessene Menge auf Basis von 1/4-h-Werten)?</text>
</g>
<!-- 9&#45;&gt;10 -->
<g id="edge19" class="edge">
<title>9-&gt;10</title>
<path fill="none" stroke="#7aab8a" d="M902.99,-413.3C910.8,-400.3 920.89,-383.49 929.56,-369.08"/>
<polygon fill="#7aab8a" stroke="#7aab8a" points="932.35,-371.22 934.5,-360.85 926.35,-367.62 932.35,-371.22"/>
<text text-anchor="start" x="922.12" y="-382.78" font-family="Times,serif" font-weight="bold" font-size="14.00">JA</text>
</g>
<!-- 10&#45;&gt;A03 -->
<g id="edge20" class="edge">
<title>10-&gt;A03</title>
<path fill="none" stroke="#7aab8a" d="M778.51,-314.56C743.26,-303.35 708.78,-286.52 682.12,-261.3 644.26,-225.5 613.91,-192.86 644.12,-150.41"/>
<text text-anchor="start" x="636.12" y="-195" font-family="Times,serif" font-weight="bold" font-size="14.00">NEIN</text>
</g>
<!-- 11 -->
<g id="node15" class="node">
<title>11</title>
<path fill="#7aab8a" stroke="black" stroke-width="0" d="M1254.89,-261.3C1254.89,-261.3 703.34,-261.3 703.34,-261.3 697.34,-261.3 691.34,-255.3 691.34,-249.3 691.34,-249.3 691.34,-237.3 691.34,-237.3 691.34,-231.3 697.34,-225.3 703.34,-225.3 703.34,-225.3 1254.89,-225.3 1254.89,-225.3 1260.89,-225.3 1266.89,-231.3 1266.89,-237.3 1266.89,-237.3 1266.89,-249.3 1266.89,-249.3 1266.89,-255.3 1260.89,-261.3 1254.89,-261.3"/>
<text text-anchor="start" x="705.74" y="-239.62" font-family="Times,serif" font-weight="bold" font-size="14.00">11: </text>
<text text-anchor="start" x="734.99" y="-239.62" font-family="Times,serif" font-size="14.00">Entspricht der Zeitreihentyp dem zwischen NB und LF ausgetauschten?</text>
</g>
<!-- 10&#45;&gt;11 -->
<g id="edge21" class="edge">
<title>10-&gt;11</title>
<path fill="none" stroke="#7aab8a" d="M955.3,-314.88C959.61,-302.12 965.13,-285.77 969.77,-272.01"/>
<polygon fill="#7aab8a" stroke="#7aab8a" points="973.05,-273.24 972.93,-262.64 966.41,-271 973.05,-273.24"/>
<text text-anchor="start" x="967.12" y="-284.25" font-family="Times,serif" font-weight="bold" font-size="14.00">JA</text>
</g>
<!-- 11&#45;&gt;A03 -->
<g id="edge22" class="edge">
<title>11-&gt;A03</title>
<path fill="none" stroke="#7aab8a" d="M856.35,-225.33C791.43,-213.76 720.8,-196.13 699.37,-172.05 678.24,-148.31 670.49,-126.14 690.12,-101.14"/>
<text text-anchor="start" x="699.12" y="-145.73" font-family="Times,serif" font-weight="bold" font-size="14.00">NEIN</text>
</g>
<!-- 12 -->
<g id="node16" class="node">
<title>12</title>
<path fill="#7aab8a" stroke="black" stroke-width="0" d="M1362.89,-172.05C1362.89,-172.05 763.34,-172.05 763.34,-172.05 757.34,-172.05 751.34,-166.05 751.34,-160.05 751.34,-160.05 751.34,-138.77 751.34,-138.77 751.34,-132.77 757.34,-126.77 763.34,-126.77 763.34,-126.77 1362.89,-126.77 1362.89,-126.77 1368.89,-126.77 1374.89,-132.77 1374.89,-138.77 1374.89,-138.77 1374.89,-160.05 1374.89,-160.05 1374.89,-166.05 1368.89,-172.05 1362.89,-172.05"/>
<text text-anchor="start" x="765.74" y="-151.11" font-family="Times,serif" font-weight="bold" font-size="14.00">12: </text>
<text text-anchor="start" x="794.99" y="-151.11" font-family="Times,serif" font-size="14.00">Ist der &#220;bertrag der Energiemenge der Marktlokation aus der &#220;NB-DZR in die</text>
<text text-anchor="start" x="765.74" y="-137.11" font-family="Times,serif" font-size="14.00">NB-DZR berechtigt?</text>
</g>
<!-- 11&#45;&gt;12 -->
<g id="edge23" class="edge">
<title>11-&gt;12</title>
<path fill="none" stroke="#7aab8a" d="M994.52,-225.45C1006,-212.89 1021.99,-195.4 1035.64,-180.46"/>
<polygon fill="#7aab8a" stroke="#7aab8a" points="1038.17,-182.88 1042.34,-173.14 1033.01,-178.16 1038.17,-182.88"/>
<text text-anchor="start" x="1026.12" y="-195" font-family="Times,serif" font-weight="bold" font-size="14.00">JA</text>
</g>
<!-- 12&#45;&gt;A03 -->
<g id="edge24" class="edge">
<title>12-&gt;A03</title>
<path fill="none" stroke="#7aab8a" d="M1005.73,-126.81C968.45,-112.78 918.73,-94.07 874.49,-77.42"/>
<polygon fill="#7aab8a" stroke="#7aab8a" points="875.97,-74.24 865.38,-73.99 873.5,-80.79 875.97,-74.24"/>
<text text-anchor="start" x="950.12" y="-96.47" font-family="Times,serif" font-weight="bold" font-size="14.00">NEIN</text>
</g>
<!-- Ende -->
<g id="node17" class="node">
<title>Ende</title>
<path fill="#7a8da1" stroke="black" stroke-width="0" d="M1083.89,-54.76C1083.89,-54.76 1042.34,-54.76 1042.34,-54.76 1036.34,-54.76 1030.34,-48.76 1030.34,-42.76 1030.34,-42.76 1030.34,-30.76 1030.34,-30.76 1030.34,-24.76 1036.34,-18.76 1042.34,-18.76 1042.34,-18.76 1083.89,-18.76 1083.89,-18.76 1089.89,-18.76 1095.89,-24.76 1095.89,-30.76 1095.89,-30.76 1095.89,-42.76 1095.89,-42.76 1095.89,-48.76 1089.89,-54.76 1083.89,-54.76"/>
<text text-anchor="middle" x="1063.12" y="-32.09" font-family="Times,serif" font-size="14.00">Ende</text>
</g>
<!-- 12&#45;&gt;Ende -->
<g id="edge25" class="edge">
<title>12-&gt;Ende</title>
<path fill="none" stroke="#7aab8a" d="M1063.12,-126.81C1063.12,-109.48 1063.12,-85 1063.12,-66.09"/>
<polygon fill="#7aab8a" stroke="#7aab8a" points="1066.62,-66.12 1063.12,-56.12 1059.62,-66.12 1066.62,-66.12"/>
<text text-anchor="start" x="1063.12" y="-96.47" font-family="Times,serif" font-weight="bold" font-size="14.00">JA</text>
</g>
</g>
</svg>
  </g>
</svg>
  </g>
</svg>
