<?xml version='1.0' encoding='ASCII' standalone='yes'?>
<svg xmlns="http://www.w3.org/2000/svg" xmlns:xlink="http://www.w3.org/1999/xlink" version="1.1" width="1542.6666666666667px" viewBox="0 0 1542.6666666666667 602.6666666666666" height="602.6666666666666px">
  <g>
    <svg version="1.1" width="1542.6666666666667px" viewBox="0 0 1542.6666666666667 602.6666666666666" height="602.6666666666666px">
  <polygon fill="#f3f1f6" points="0,0 1542.6666666666667,0 1542.6666666666667,602.6666666666666 0,602.6666666666666"/><g>
    <g transform="translate(530.4454816109121, 60.26666666666665) scale(1 1) translate(0, 0) scale(2.725629818540969 2.725629818540969) "><sodipodi:namedview xmlns:sodipodi="http://sodipodi.sourceforge.net/DTD/sodipodi-0.dtd" xmlns:inkscape="http://www.inkscape.org/namespaces/inkscape" id="namedview7" pagecolor="#ffffff" bordercolor="#999999" borderopacity="1" inkscape:pageshadow="0" inkscape:pageopacity="0" inkscape:pagecheckerboard="0" inkscape:document-units="mm" showgrid="false" fit-margin-top="0" fit-margin-left="0" fit-margin-right="0" fit-margin-bottom="0" inkscape:zoom="0.64052329" inkscape:cx="130.36216" inkscape:cy="412.163" inkscape:window-width="1512" inkscape:window-height="916" inkscape:window-x="3840" inkscape:window-y="136" inkscape:window-maximized="0" inkscape:current-layer="layer1"/>
  <defs id="defs2">
    <clipPath clipPathUnits="userSpaceOnUse" id="clipPath23">
      <path d="M 0,568.156 H 579.236 V 0 H 0 Z" id="path21"/>
    </clipPath>
  </defs>
  <g xmlns:inkscape="http://www.inkscape.org/namespaces/inkscape" inkscape:label="Layer 1" inkscape:groupmode="layer" id="layer1" transform="translate(-16.541937,-55.305267)">
    <g id="g19" clip-path="url(#clipPath23)" transform="matrix(0.35277777,0,0,-0.35277777,0.01017023,243.73675)" style="opacity:0.2">
      <g id="g25" transform="translate(122.444,32.7195)">
        <path d="m 0,0 h -56.104 c -11,0 -19.898,9.123 -19.463,20.115 10.594,267.191 231.277,481.302 501.029,481.302 v -56.02 c 0,-10.98 -8.688,-19.892 -19.658,-20.393 C 180.29,414.697 0,228.005 0,0" style="fill:#6ead83;fill-opacity:0.5;fill-rule:nonzero;stroke:none" id="path27"/>
      </g>
      <g id="g29" transform="translate(273.7828,32.7195)">
        <path d="m 0,0 h -55.926 c -11.228,0 -20.091,9.482 -19.435,20.69 10.744,183.439 163.389,329.388 349.485,329.388 v -56.263 c 0,-10.709 -8.273,-19.617 -18.957,-20.35 C 112.819,263.696 0,144.774 0,0" style="fill:#6ead83;fill-opacity:0.5;fill-rule:nonzero;stroke:none" id="path31"/>
      </g>
      <g id="g33" transform="translate(425.7667,32.7195)">
        <path d="m 0,0 h -55.445 c -11.653,0 -20.604,10.17 -19.334,21.753 10.866,99.032 95.031,176.341 196.919,176.341 v -57.011 c 0,-10.046 -7.283,-18.755 -17.229,-20.165 C 45.688,112.522 0,61.497 0,0" style="fill:#6ead83;fill-opacity:0.5;fill-rule:nonzero;stroke:none" id="path35"/>
      </g>
    </g>
  </g>
</g>
    <svg width="1157pt" height="452pt" viewBox="0.00 0.00 1157.17 451.82">
<g id="graph0" class="graph" transform="scale(1 1) rotate(0) translate(4 447.82)">
<title>D</title>
<text text-anchor="start" x="541.21" y="-423.72" font-family="Times,serif" font-weight="bold" font-size="18.00">MaBiS</text>
<text text-anchor="start" x="103.59" y="-393.62" font-family="Times,serif" font-weight="bold" font-size="16.00">7.34.1: AD: &#220;bermittlung Pr&#252;fmitteilung f&#252;r die Bilanzkreissummenzeitreihe vom BKV an BIKO und NB</text>
<!-- Start -->
<g id="node1" class="node">
<title>Start</title>
<polygon fill="#7a8da1" stroke="black" points="427.42,-345.82 259.12,-345.82 259.12,-302.54 427.42,-302.54 427.42,-345.82"/>
<text text-anchor="start" x="315.15" y="-324.88" font-family="Times,serif" font-weight="bold" font-size="14.00">E_0063</text>
<text text-anchor="start" x="273.52" y="-312.78" font-family="Times,serif" font-weight="bold" text-decoration="underline" font-size="12.00">Pr&#252;fende Rolle:</text>
<text text-anchor="start" x="378.52" y="-312.78" font-family="Times,serif" font-weight="bold" font-size="12.00"> BKV</text>
</g>
<!-- 1 -->
<g id="node2" class="node">
<title>1</title>
<path fill="#7aab8a" stroke="black" d="M674.55,-265.54C674.55,-265.54 12,-265.54 12,-265.54 6,-265.54 0,-259.54 0,-253.54 0,-253.54 0,-241.54 0,-241.54 0,-235.54 6,-229.54 12,-229.54 12,-229.54 674.55,-229.54 674.55,-229.54 680.55,-229.54 686.55,-235.54 686.55,-241.54 686.55,-241.54 686.55,-253.54 686.55,-253.54 686.55,-259.54 680.55,-265.54 674.55,-265.54"/>
<text text-anchor="start" x="14.4" y="-243.86" font-family="Times,serif" font-weight="bold" font-size="14.00">1: </text>
<text text-anchor="start" x="33.9" y="-243.86" font-family="Times,serif" font-size="14.00">Liegt die Version der Zeitreihe des MaBiS-ZP f&#252;r diesen Bilanzierungsmonat bereits vor?</text>
</g>
<!-- Start&#45;&gt;1 -->
<g id="edge1" class="edge">
<title>Start-&gt;1</title>
<path fill="none" stroke="black" d="M343.27,-302.39C343.27,-294.53 343.27,-285.45 343.27,-277.01"/>
<polygon fill="black" stroke="black" points="346.78,-277.21 343.28,-267.21 339.78,-277.21 346.78,-277.21"/>
</g>
<!-- A01 -->
<g id="node3" class="node">
<title>A01</title>
<polygon fill="#cfb986" stroke="black" points="421.14,-176.29 229.41,-176.29 229.41,-114.77 421.14,-114.77 421.14,-176.29"/>
<text text-anchor="start" x="310.27" y="-158.23" font-family="Times,serif" font-weight="bold" font-size="14.00">A01</text>
<text text-anchor="start" x="241.65" y="-146.13" font-family="Times,serif" text-decoration="underline" font-size="12.00">Hinweis:</text>
<text text-anchor="start" x="241.65" y="-134.13" font-family="Times,serif" font-size="12.00">Cluster: Abweisung</text>
<text text-anchor="start" x="241.65" y="-122.13" font-family="Times,serif" font-size="12.00">Zeitreihe bereits vorhanden</text>
</g>
<!-- 1&#45;&gt;A01 -->
<g id="edge2" class="edge">
<title>1-&gt;A01</title>
<path fill="none" stroke="black" d="M340.14,-229.12C338.09,-217.73 335.32,-202.34 332.73,-187.93"/>
<polygon fill="black" stroke="black" points="336.19,-187.39 330.97,-178.17 329.3,-188.63 336.19,-187.39"/>
<text text-anchor="middle" x="344.02" y="-198.24" font-family="Times,serif" font-size="14.00">Ja</text>
</g>
<!-- 2 -->
<g id="node4" class="node">
<title>2</title>
<path fill="#7aab8a" stroke="black" d="M1137.17,-163.53C1137.17,-163.53 451.38,-163.53 451.38,-163.53 445.38,-163.53 439.38,-157.53 439.38,-151.53 439.38,-151.53 439.38,-139.53 439.38,-139.53 439.38,-133.53 445.38,-127.53 451.38,-127.53 451.38,-127.53 1137.17,-127.53 1137.17,-127.53 1143.17,-127.53 1149.17,-133.53 1149.17,-139.53 1149.17,-139.53 1149.17,-151.53 1149.17,-151.53 1149.17,-157.53 1143.17,-163.53 1137.17,-163.53"/>
<text text-anchor="start" x="453.77" y="-141.85" font-family="Times,serif" font-weight="bold" font-size="14.00">2: </text>
<text text-anchor="start" x="473.27" y="-141.85" font-family="Times,serif" font-size="14.00">Entsprechen die Energiemengen der BK-SZR (Kategorie A) den erwarteten Energiemengen?</text>
</g>
<!-- 1&#45;&gt;2 -->
<g id="edge3" class="edge">
<title>1-&gt;2</title>
<path fill="none" stroke="black" d="M422.09,-229.06C500.91,-211.58 621.96,-184.74 704.45,-166.45"/>
<polygon fill="black" stroke="black" points="705.09,-169.89 714.1,-164.31 703.58,-163.06 705.09,-169.89"/>
<text text-anchor="middle" x="586.15" y="-198.24" font-family="Times,serif" font-size="14.00">Nein</text>
</g>
<!-- A02 -->
<g id="node5" class="node">
<title>A02</title>
<polygon fill="#cfb986" stroke="black" points="810.39,-61.52 560.16,-61.52 560.16,0 810.39,0 810.39,-61.52"/>
<text text-anchor="start" x="670.27" y="-43.46" font-family="Times,serif" font-weight="bold" font-size="14.00">A02</text>
<text text-anchor="start" x="572.4" y="-31.36" font-family="Times,serif" text-decoration="underline" font-size="12.00">Hinweis:</text>
<text text-anchor="start" x="572.4" y="-19.36" font-family="Times,serif" font-size="12.00">Cluster: Ablehnung</text>
<text text-anchor="start" x="572.4" y="-7.36" font-family="Times,serif" font-size="12.00">Energiemenge falsch / nicht plausibel</text>
</g>
<!-- 2&#45;&gt;A02 -->
<g id="edge4" class="edge">
<title>2-&gt;A02</title>
<path fill="none" stroke="black" d="M777.72,-127.4C763.02,-112.2 741.02,-89.44 722.17,-69.93"/>
<polygon fill="black" stroke="black" points="724.83,-67.65 715.36,-62.89 719.8,-72.51 724.83,-67.65"/>
<text text-anchor="middle" x="764.15" y="-83.47" font-family="Times,serif" font-size="14.00">Nein</text>
</g>
<!-- A03 -->
<g id="node6" class="node">
<title>A03</title>
<polygon fill="#cfb986" stroke="black" points="978.51,-61.52 828.03,-61.52 828.03,0 978.51,0 978.51,-61.52"/>
<text text-anchor="start" x="888.27" y="-43.46" font-family="Times,serif" font-weight="bold" font-size="14.00">A03</text>
<text text-anchor="start" x="840.27" y="-31.36" font-family="Times,serif" text-decoration="underline" font-size="12.00">Hinweis:</text>
<text text-anchor="start" x="840.27" y="-19.36" font-family="Times,serif" font-size="12.00">Cluster: Zustimmung</text>
<text text-anchor="start" x="840.27" y="-7.36" font-family="Times,serif" font-size="12.00">Zeitreihe akzeptiert</text>
</g>
<!-- 2&#45;&gt;A03 -->
<g id="edge5" class="edge">
<title>2-&gt;A03</title>
<path fill="none" stroke="black" d="M810.83,-127.4C825.53,-112.2 847.53,-89.44 866.38,-69.93"/>
<polygon fill="black" stroke="black" points="868.75,-72.51 873.19,-62.89 863.72,-67.65 868.75,-72.51"/>
<text text-anchor="middle" x="862.02" y="-83.47" font-family="Times,serif" font-size="14.00">Ja</text>
</g>
</g>
</svg>
  </g>
</svg>
  </g>
</svg>
