<?xml version='1.0' encoding='ASCII' standalone='yes'?>
<svg xmlns="http://www.w3.org/2000/svg" xmlns:xlink="http://www.w3.org/1999/xlink" version="1.1" width="1288.0px" viewBox="0 0 1288.0 433.3333333333333" height="433.3333333333333px">
  <g>
    <svg version="1.1" width="1288.0px" viewBox="0 0 1288.0 433.3333333333333" height="433.3333333333333px">
  <polygon fill="#f3f1f6" points="0,0 1288.0,0 1288.0,433.3333333333333 0,433.3333333333333"/><g>
    <g transform="translate(470.7952393588785, 43.33333333333332) scale(1 1) translate(0, 0) scale(1.9598002013845461 1.9598002013845461) "><sodipodi:namedview xmlns:sodipodi="http://sodipodi.sourceforge.net/DTD/sodipodi-0.dtd" xmlns:inkscape="http://www.inkscape.org/namespaces/inkscape" id="namedview7" pagecolor="#ffffff" bordercolor="#999999" borderopacity="1" inkscape:pageshadow="0" inkscape:pageopacity="0" inkscape:pagecheckerboard="0" inkscape:document-units="mm" showgrid="false" fit-margin-top="0" fit-margin-left="0" fit-margin-right="0" fit-margin-bottom="0" inkscape:zoom="0.64052329" inkscape:cx="130.36216" inkscape:cy="412.163" inkscape:window-width="1512" inkscape:window-height="916" inkscape:window-x="3840" inkscape:window-y="136" inkscape:window-maximized="0" inkscape:current-layer="layer1"/>
  <defs id="defs2">
    <clipPath clipPathUnits="userSpaceOnUse" id="clipPath23">
      <path d="M 0,568.156 H 579.236 V 0 H 0 Z" id="path21"/>
    </clipPath>
  </defs>
  <g xmlns:inkscape="http://www.inkscape.org/namespaces/inkscape" inkscape:label="Layer 1" inkscape:groupmode="layer" id="layer1" transform="translate(-16.541937,-55.305267)">
    <g id="g19" clip-path="url(#clipPath23)" transform="matrix(0.35277777,0,0,-0.35277777,0.01017023,243.73675)" style="opacity:0.2">
      <g id="g25" transform="translate(122.444,32.7195)">
        <path d="m 0,0 h -56.104 c -11,0 -19.898,9.123 -19.463,20.115 10.594,267.191 231.277,481.302 501.029,481.302 v -56.02 c 0,-10.98 -8.688,-19.892 -19.658,-20.393 C 180.29,414.697 0,228.005 0,0" style="fill:#6ead83;fill-opacity:0.5;fill-rule:nonzero;stroke:none" id="path27"/>
      </g>
      <g id="g29" transform="translate(273.7828,32.7195)">
        <path d="m 0,0 h -55.926 c -11.228,0 -20.091,9.482 -19.435,20.69 10.744,183.439 163.389,329.388 349.485,329.388 v -56.263 c 0,-10.709 -8.273,-19.617 -18.957,-20.35 C 112.819,263.696 0,144.774 0,0" style="fill:#6ead83;fill-opacity:0.5;fill-rule:nonzero;stroke:none" id="path31"/>
      </g>
      <g id="g33" transform="translate(425.7667,32.7195)">
        <path d="m 0,0 h -55.445 c -11.653,0 -20.604,10.17 -19.334,21.753 10.866,99.032 95.031,176.341 196.919,176.341 v -57.011 c 0,-10.046 -7.283,-18.755 -17.229,-20.165 C 45.688,112.522 0,61.497 0,0" style="fill:#6ead83;fill-opacity:0.5;fill-rule:nonzero;stroke:none" id="path35"/>
      </g>
    </g>
  </g>
</g>
    <svg width="966pt" height="325pt" viewBox="0.00 0.00 966.00 325.05">
<g id="graph0" class="graph" transform="scale(1 1) rotate(0) translate(4 321.05)">
<title>D</title>
<text text-anchor="start" x="8" y="-296.95" font-family="Times,serif" font-weight="bold" font-size="18.00">MaBiS</text>
<text text-anchor="start" x="8" y="-266.85" font-family="Times,serif" font-weight="bold" font-size="16.00">7.34.2: AD: &#220;bermittlung Pr&#252;fmitteilung f&#252;r die Bilanzkreissummenzeitreihe vom BKV an BIKO und NB</text>
<!-- Start -->
<g id="node1" class="node">
<title>Start</title>
<path fill="#7a8da1" stroke="black" stroke-width="0" d="M554.15,-219.05C554.15,-219.05 403.85,-219.05 403.85,-219.05 397.85,-219.05 391.85,-213.05 391.85,-207.05 391.85,-207.05 391.85,-187.77 391.85,-187.77 391.85,-181.77 397.85,-175.77 403.85,-175.77 403.85,-175.77 554.15,-175.77 554.15,-175.77 560.15,-175.77 566.15,-181.77 566.15,-187.77 566.15,-187.77 566.15,-207.05 566.15,-207.05 566.15,-213.05 560.15,-219.05 554.15,-219.05"/>
<text text-anchor="start" x="450.88" y="-198.11" font-family="Times,serif" font-weight="bold" font-size="14.00">E_0021</text>
<text text-anchor="start" x="406.25" y="-186.01" font-family="Times,serif" font-weight="bold" text-decoration="underline" font-size="12.00">Pr&#252;fende Rolle:</text>
<text text-anchor="start" x="511.25" y="-186.01" font-family="Times,serif" font-weight="bold" font-size="12.00"> BIKO</text>
</g>
<!-- 1 -->
<g id="node2" class="node">
<title>1</title>
<path fill="#7aab8a" stroke="black" stroke-width="0" d="M789.65,-138.77C789.65,-138.77 168.35,-138.77 168.35,-138.77 162.35,-138.77 156.35,-132.77 156.35,-126.77 156.35,-126.77 156.35,-114.77 156.35,-114.77 156.35,-108.77 162.35,-102.77 168.35,-102.77 168.35,-102.77 789.65,-102.77 789.65,-102.77 795.65,-102.77 801.65,-108.77 801.65,-114.77 801.65,-114.77 801.65,-126.77 801.65,-126.77 801.65,-132.77 795.65,-138.77 789.65,-138.77"/>
<text text-anchor="start" x="170.75" y="-117.09" font-family="Times,serif" font-weight="bold" font-size="14.00">1: </text>
<text text-anchor="start" x="190.25" y="-117.09" font-family="Times,serif" font-size="14.00">Erfolgt der Eingang der Pr&#252;fmitteilung nach Ablauf der Clearingfrist f&#252;r die KBKA?</text>
</g>
<!-- Start&#45;&gt;1 -->
<g id="edge1" class="edge">
<title>Start-&gt;1</title>
<path fill="none" stroke="black" d="M479,-176.01C479,-167.94 479,-158.53 479,-149.84"/>
<polygon fill="black" stroke="black" points="482.5,-150.13 479,-140.13 475.5,-150.13 482.5,-150.13"/>
</g>
<!-- A01 -->
<g id="node3" class="node">
<title>A01</title>
<path fill="#cfb986" stroke="black" stroke-width="0" d="M477.24,-49.52C477.24,-49.52 356.76,-49.52 356.76,-49.52 350.76,-49.52 344.76,-43.52 344.76,-37.52 344.76,-37.52 344.76,-12 344.76,-12 344.76,-6 350.76,0 356.76,0 356.76,0 477.24,0 477.24,0 483.24,0 489.24,-6 489.24,-12 489.24,-12 489.24,-37.52 489.24,-37.52 489.24,-43.52 483.24,-49.52 477.24,-49.52"/>
<text text-anchor="start" x="357" y="-31.46" font-family="Times,serif" font-weight="bold" font-size="14.00">A01</text>
<text text-anchor="start" x="357" y="-19.36" font-family="Times,serif" text-decoration="underline" font-size="12.00">Hinweis:</text>
<text text-anchor="start" x="357" y="-7.36" font-family="Times,serif" font-size="12.00">Frist&#252;berschreitung</text>
</g>
<!-- 1&#45;&gt;A01 -->
<g id="edge2" class="edge">
<title>1-&gt;A01</title>
<path fill="none" stroke="#7aab8a" d="M467.92,-102.96C459.86,-90.75 448.69,-73.81 438.86,-58.91"/>
<polygon fill="#7aab8a" stroke="#7aab8a" points="441.91,-57.17 433.48,-50.75 436.06,-61.02 441.91,-57.17"/>
<text text-anchor="start" x="455" y="-72.47" font-family="Times,serif" font-weight="bold" font-size="14.00">JA</text>
</g>
<!-- Ende -->
<g id="node4" class="node">
<title>Ende</title>
<path fill="#7a8da1" stroke="black" stroke-width="0" d="M560.77,-42.76C560.77,-42.76 519.23,-42.76 519.23,-42.76 513.23,-42.76 507.23,-36.76 507.23,-30.76 507.23,-30.76 507.23,-18.76 507.23,-18.76 507.23,-12.76 513.23,-6.76 519.23,-6.76 519.23,-6.76 560.77,-6.76 560.77,-6.76 566.77,-6.76 572.77,-12.76 572.77,-18.76 572.77,-18.76 572.77,-30.76 572.77,-30.76 572.77,-36.76 566.77,-42.76 560.77,-42.76"/>
<text text-anchor="middle" x="540" y="-20.08" font-family="Times,serif" font-size="14.00">Ende</text>
</g>
<!-- 1&#45;&gt;Ende -->
<g id="edge3" class="edge">
<title>1-&gt;Ende</title>
<path fill="none" stroke="#7aab8a" d="M489.91,-102.96C499.04,-88.88 512.25,-68.53 522.81,-52.25"/>
<polygon fill="#7aab8a" stroke="#7aab8a" points="525.65,-54.3 528.16,-44.01 519.78,-50.49 525.65,-54.3"/>
<text text-anchor="start" x="511" y="-72.47" font-family="Times,serif" font-weight="bold" font-size="14.00">NEIN</text>
</g>
</g>
</svg>
  </g>
</svg>
  </g>
</svg>
