<?xml version='1.0' encoding='ASCII' standalone='yes'?>
<svg xmlns="http://www.w3.org/2000/svg" xmlns:xlink="http://www.w3.org/1999/xlink" version="1.1" width="1605.3333333333333px" viewBox="0 0 1605.3333333333333 452.0" height="452.0px">
  <g>
    <svg version="1.1" width="1605.3333333333333px" viewBox="0 0 1605.3333333333333 452.0" height="452.0px">
  <rect fill="#e7e6e5" x="0" y="0" width="1605.3333333333333" height="452.0" rx="20" ry="20"/><g>
    <g transform="translate(618.3407866328733, 45.19999999999999) scale(1 1) translate(0, 0) scale(0.6364404393128696 0.6364404393128696) "><!-- note that I manually added the width and height attribute to the root node
  https://chatgpt.com/share/678e3028-70cc-800b-a296-782714735772
  -->
  <defs>
    <style>.cls-1{fill:#fff;}</style>
  </defs>
  <path class="cls-1" d="M122.44,531.2h-56.1c-11,0-19.9-9.12-19.46-20.11C57.47,243.89,278.15,29.78,547.91,29.78v56.02c0,10.98-8.69,19.89-19.66,20.39-225.51,10.31-405.8,197-405.8,425Z"/>
  <path class="cls-1" d="M273.78,531.2h-55.93c-11.23,0-20.09-9.48-19.43-20.69,10.74-183.44,163.39-329.39,349.48-329.39v56.26c0,10.71-8.27,19.62-18.96,20.35-142.35,9.77-255.17,128.69-255.17,273.46Z"/>
  <path class="cls-1" d="M425.77,531.2h-55.45c-11.65,0-20.6-10.17-19.33-21.75,10.87-99.03,95.03-176.34,196.92-176.34v57.01c0,10.05-7.28,18.75-17.23,20.16-59.22,8.4-104.91,59.42-104.91,120.92Z"/>
</g>
    <svg width="1204pt" height="339pt" viewBox="0.00 0.00 1204.05 338.56">
<g id="graph0" class="graph" transform="scale(1 1) rotate(0) translate(4 334.56)">
<title>D</title>
<text text-anchor="start" x="178.03" y="-310.46" font-family="Roboto, sans-serif" font-weight="bold" font-size="18.00">MaBiS</text>
<text text-anchor="start" x="178.03" y="-282.36" font-family="Roboto, sans-serif" font-weight="bold" font-size="16.00">7.51.1: AD: &#220;bermittlung Datenstatus des Deltazeitreihen&#252;bertrags vom BIKO an &#220;NB und NB</text>
<!-- Start -->
<g id="node1" class="node">
<title>Start</title>
<path fill="#8ba2d7" stroke="black" stroke-width="0" d="M661.8,-240.56C661.8,-240.56 509.25,-240.56 509.25,-240.56 503.25,-240.56 497.25,-234.56 497.25,-228.56 497.25,-228.56 497.25,-207.28 497.25,-207.28 497.25,-201.28 503.25,-195.28 509.25,-195.28 509.25,-195.28 661.8,-195.28 661.8,-195.28 667.8,-195.28 673.8,-201.28 673.8,-207.28 673.8,-207.28 673.8,-228.56 673.8,-228.56 673.8,-234.56 667.8,-240.56 661.8,-240.56"/>
<text text-anchor="start" x="511.65" y="-219.62" font-family="Roboto, sans-serif" font-weight="bold" font-size="14.00">E_0059</text>
<text text-anchor="start" x="511.65" y="-205.62" font-family="Roboto, sans-serif" font-size="14.00">Pr&#252;fende Rolle: </text>
<text text-anchor="start" x="621.15" y="-205.62" font-family="Roboto, sans-serif" font-weight="bold" font-size="14.00">BIKO</text>
</g>
<!-- 1 -->
<g id="node2" class="node">
<title>1</title>
<path fill="#c2cee9" stroke="black" stroke-width="0" d="M710.17,-158.28C710.17,-158.28 460.88,-158.28 460.88,-158.28 454.88,-158.28 448.88,-152.28 448.88,-146.28 448.88,-146.28 448.88,-134.28 448.88,-134.28 448.88,-128.28 454.88,-122.28 460.88,-122.28 460.88,-122.28 710.17,-122.28 710.17,-122.28 716.17,-122.28 722.17,-128.28 722.17,-134.28 722.17,-134.28 722.17,-146.28 722.17,-146.28 722.17,-152.28 716.17,-158.28 710.17,-158.28"/>
<text text-anchor="start" x="463.27" y="-136.6" font-family="Roboto, sans-serif" font-weight="bold" font-size="14.00">1: </text>
<text text-anchor="start" x="482.77" y="-136.6" font-family="Roboto, sans-serif" font-size="14.00">Ist die BKA (ohne KBKA) erfolgt?</text>
</g>
<!-- Start&#45;&gt;1 -->
<g id="edge1" class="edge">
<title>Start-&gt;1</title>
<path fill="none" stroke="#88a0d6" d="M585.52,-195.45C585.52,-187.37 585.52,-178.07 585.52,-169.47"/>
<polygon fill="#88a0d6" stroke="#88a0d6" points="589.03,-169.51 585.53,-159.51 582.03,-169.51 589.03,-169.51"/>
</g>
<!-- A03 -->
<g id="node3" class="node">
<title>A03</title>
<path fill="#c4cac1" stroke="black" stroke-width="0" d="M553.05,-60.41C553.05,-60.41 12,-60.41 12,-60.41 6,-60.41 0,-54.41 0,-48.41 0,-48.41 0,-20.62 0,-20.62 0,-14.62 6,-8.62 12,-8.62 12,-8.62 553.05,-8.62 553.05,-8.62 559.05,-8.62 565.05,-14.62 565.05,-20.62 565.05,-20.62 565.05,-48.41 565.05,-48.41 565.05,-54.41 559.05,-60.41 553.05,-60.41"/>
<text text-anchor="start" x="14.4" y="-38.47" font-family="Roboto, sans-serif" font-size="14.00">Datenstatus &#8222;Abgerechnete Daten&#8220; f&#252;r die h&#246;chste Version des DZ&#220; mit dem</text>
<text text-anchor="start" x="14.4" y="-21.21" font-family="Roboto, sans-serif" font-size="14.00">Datenstatus &#8222;Abrechnungsdaten&#8220; in diesem Bilanzierungsmonat.</text>
</g>
<!-- 1&#45;&gt;A03 -->
<g id="edge2" class="edge">
<title>1-&gt;A03</title>
<path fill="none" stroke="#88a0d6" d="M536.17,-122.38C490.11,-106.6 420.46,-82.75 365.8,-64.03"/>
<polygon fill="#88a0d6" stroke="#88a0d6" points="367.1,-60.78 356.51,-60.85 364.83,-67.4 367.1,-60.78"/>
<text text-anchor="start" x="478.52" y="-91.98" font-family="Roboto, sans-serif" font-weight="bold" font-size="14.00">JA</text>
</g>
<!-- A06 -->
<g id="node4" class="node">
<title>A06</title>
<path fill="#c4cac1" stroke="black" stroke-width="0" d="M1184.05,-69.03C1184.05,-69.03 595,-69.03 595,-69.03 589,-69.03 583,-63.03 583,-57.03 583,-57.03 583,-12 583,-12 583,-6 589,0 595,0 595,0 1184.05,0 1184.05,0 1190.05,0 1196.05,-6 1196.05,-12 1196.05,-12 1196.05,-57.03 1196.05,-57.03 1196.05,-63.03 1190.05,-69.03 1184.05,-69.03"/>
<text text-anchor="start" x="597.4" y="-47.09" font-family="Roboto, sans-serif" font-size="14.00">Datenstatus &#8222;Abgerechnete Daten KBKA&#8220; f&#252;r die h&#246;chste Version des DZ&#220; mit dem</text>
<text text-anchor="start" x="597.4" y="-29.84" font-family="Roboto, sans-serif" font-size="14.00">Daten-status &#8222;Abrechnungsdaten&#8220;, &#8222;Abgerechnete Daten&#8220; oder &#8222;Abrechnungsdaten</text>
<text text-anchor="start" x="597.4" y="-12.59" font-family="Roboto, sans-serif" font-size="14.00">KBKA&#8220; in diesem Bilanzierungsmonat.</text>
</g>
<!-- 1&#45;&gt;A06 -->
<g id="edge3" class="edge">
<title>1-&gt;A06</title>
<path fill="none" stroke="#88a0d6" d="M635.04,-122.38C674.39,-108.95 730.88,-89.67 780.64,-72.68"/>
<polygon fill="#88a0d6" stroke="#88a0d6" points="781.71,-76.01 790.05,-69.47 779.45,-69.39 781.71,-76.01"/>
<text text-anchor="start" x="737.52" y="-91.98" font-family="Roboto, sans-serif" font-weight="bold" font-size="14.00">NEIN</text>
</g>
</g>
</svg>
  </g>
</svg>
  </g>
</svg>
