<?xml version='1.0' encoding='ASCII' standalone='yes'?>
<svg xmlns="http://www.w3.org/2000/svg" xmlns:xlink="http://www.w3.org/1999/xlink" version="1.1" width="1504.0px" viewBox="0 0 1504.0 1920.0" height="1920.0px">
  <g>
    <svg version="1.1" width="1504.0px" viewBox="0 0 1504.0 1920.0" height="1920.0px">
  <rect fill="#e7e6e5" x="0" y="0" width="1504.0" height="1920.0" rx="20" ry="20"/><g>
    <g transform="translate(150.39999999999998, 369.9077135556937) scale(1 1) translate(0, 0) scale(2.0772046129410953 2.0772046129410953) "><!-- note that I manually added the width and height attribute to the root node
  https://chatgpt.com/share/678e3028-70cc-800b-a296-782714735772
  -->
  <defs>
    <style>.cls-1{fill:#fff;}</style>
  </defs>
  <path class="cls-1" d="M122.44,531.2h-56.1c-11,0-19.9-9.12-19.46-20.11C57.47,243.89,278.15,29.78,547.91,29.78v56.02c0,10.98-8.69,19.89-19.66,20.39-225.51,10.31-405.8,197-405.8,425Z"/>
  <path class="cls-1" d="M273.78,531.2h-55.93c-11.23,0-20.09-9.48-19.43-20.69,10.74-183.44,163.39-329.39,349.48-329.39v56.26c0,10.71-8.27,19.62-18.96,20.35-142.35,9.77-255.17,128.69-255.17,273.46Z"/>
  <path class="cls-1" d="M425.77,531.2h-55.45c-11.65,0-20.6-10.17-19.33-21.75,10.87-99.03,95.03-176.34,196.92-176.34v57.01c0,10.05-7.28,18.75-17.23,20.16-59.22,8.4-104.91,59.42-104.91,120.92Z"/>
</g>
    <svg width="1128pt" height="1440pt" viewBox="0.00 0.00 1128.31 1440.00">
<g id="graph0" class="graph" transform="scale(0.792467 0.792467) rotate(0) translate(4 1813.11)">
<title>D</title>
<text text-anchor="start" x="296.53" y="-1789.01" font-family="Roboto, sans-serif" font-weight="bold" font-size="18.00">MaBiS</text>
<text text-anchor="start" x="296.53" y="-1758.91" font-family="Roboto, sans-serif" font-weight="bold" font-size="16.00">7.14.2: AD: Austausch der Lieferantenclearingliste zwischen NB und LF (Einzelanforderung)</text>
<!-- Start -->
<g id="node1" class="node">
<title>Start</title>
<path fill="#8ba2d7" stroke="black" stroke-width="0" d="M424.3,-1711.11C424.3,-1711.11 295.75,-1711.11 295.75,-1711.11 289.75,-1711.11 283.75,-1705.11 283.75,-1699.11 283.75,-1699.11 283.75,-1679.83 283.75,-1679.83 283.75,-1673.83 289.75,-1667.83 295.75,-1667.83 295.75,-1667.83 424.3,-1667.83 424.3,-1667.83 430.3,-1667.83 436.3,-1673.83 436.3,-1679.83 436.3,-1679.83 436.3,-1699.11 436.3,-1699.11 436.3,-1705.11 430.3,-1711.11 424.3,-1711.11"/>
<text text-anchor="start" x="298.15" y="-1690.17" font-family="Roboto, sans-serif" font-weight="bold" font-size="14.00">E_0047</text>
<text text-anchor="start" x="298.15" y="-1678.07" font-family="Roboto, sans-serif" font-weight="bold" text-decoration="underline" font-size="12.00">Pr&#252;fende Rolle:</text>
<text text-anchor="start" x="401.65" y="-1678.07" font-family="Roboto, sans-serif" font-weight="bold" font-size="12.00"> LF</text>
</g>
<!-- 1 -->
<g id="node2" class="node">
<title>1</title>
<path fill="#c2cee9" stroke="black" stroke-width="0" d="M585.17,-1630.83C585.17,-1630.83 134.88,-1630.83 134.88,-1630.83 128.88,-1630.83 122.87,-1624.83 122.87,-1618.83 122.87,-1618.83 122.87,-1606.83 122.87,-1606.83 122.87,-1600.83 128.87,-1594.83 134.87,-1594.83 134.87,-1594.83 585.17,-1594.83 585.17,-1594.83 591.17,-1594.83 597.17,-1600.83 597.17,-1606.83 597.17,-1606.83 597.17,-1618.83 597.17,-1618.83 597.17,-1624.83 591.17,-1630.83 585.17,-1630.83"/>
<text text-anchor="start" x="137.27" y="-1609.16" font-family="Roboto, sans-serif" font-weight="bold" font-size="14.00">1: </text>
<text text-anchor="start" x="156.77" y="-1609.16" font-family="Roboto, sans-serif" font-size="14.00">Entspricht die G&#252;ltigkeit (Monat) dem angefragten Zeitraum?</text>
</g>
<!-- Start&#45;&gt;1 -->
<g id="edge1" class="edge">
<title>Start-&gt;1</title>
<path fill="none" stroke="#88a0d6" d="M360.02,-1668.07C360.02,-1660 360.02,-1650.59 360.02,-1641.9"/>
<polygon fill="#88a0d6" stroke="#88a0d6" points="363.53,-1642.19 360.03,-1632.19 356.53,-1642.19 363.53,-1642.19"/>
</g>
<!-- A01 -->
<g id="node3" class="node">
<title>A01</title>
<path fill="#c4cac1" stroke="black" stroke-width="0" d="M328.3,-1541.58C328.3,-1541.58 91.75,-1541.58 91.75,-1541.58 85.75,-1541.58 79.75,-1535.58 79.75,-1529.58 79.75,-1529.58 79.75,-1486.3 79.75,-1486.3 79.75,-1480.3 85.75,-1474.3 91.75,-1474.3 91.75,-1474.3 328.3,-1474.3 328.3,-1474.3 334.3,-1474.3 340.3,-1480.3 340.3,-1486.3 340.3,-1486.3 340.3,-1529.58 340.3,-1529.58 340.3,-1535.58 334.3,-1541.58 328.3,-1541.58"/>
<text text-anchor="start" x="94.15" y="-1520.64" font-family="Roboto, sans-serif" font-weight="bold" font-size="14.00">A01</text>
<text text-anchor="start" x="94.15" y="-1508.54" font-family="Roboto, sans-serif" text-decoration="underline" font-size="12.00">Hinweis:</text>
<text text-anchor="start" x="94.15" y="-1496.54" font-family="Roboto, sans-serif" font-size="12.00">Cluster: Ablehnung der gesamten Liste</text>
<text text-anchor="start" x="94.15" y="-1484.54" font-family="Roboto, sans-serif" font-size="12.00">Zeitraum nicht plausibel</text>
</g>
<!-- 1&#45;&gt;A01 -->
<g id="edge2" class="edge">
<title>1-&gt;A01</title>
<path fill="none" stroke="#88a0d6" d="M335.26,-1594.84C316.67,-1582.09 290.47,-1564.12 266.83,-1547.91"/>
<polygon fill="#88a0d6" stroke="#88a0d6" points="269.05,-1545.19 258.83,-1542.42 265.09,-1550.96 269.05,-1545.19"/>
<text text-anchor="start" x="307.02" y="-1564.53" font-family="Roboto, sans-serif" font-weight="bold" font-size="14.00">NEIN</text>
</g>
<!-- 2 -->
<g id="node4" class="node">
<title>2</title>
<path fill="#c2cee9" stroke="black" stroke-width="0" d="M767.55,-1525.94C767.55,-1525.94 370.5,-1525.94 370.5,-1525.94 364.5,-1525.94 358.5,-1519.94 358.5,-1513.94 358.5,-1513.94 358.5,-1501.94 358.5,-1501.94 358.5,-1495.94 364.5,-1489.94 370.5,-1489.94 370.5,-1489.94 767.55,-1489.94 767.55,-1489.94 773.55,-1489.94 779.55,-1495.94 779.55,-1501.94 779.55,-1501.94 779.55,-1513.94 779.55,-1513.94 779.55,-1519.94 773.55,-1525.94 767.55,-1525.94"/>
<text text-anchor="start" x="372.9" y="-1504.27" font-family="Roboto, sans-serif" font-weight="bold" font-size="14.00">2: </text>
<text text-anchor="start" x="392.4" y="-1504.27" font-family="Roboto, sans-serif" font-size="14.00">Entspricht der MaBiS-ZP dem angefragten MaBiS-ZP?</text>
</g>
<!-- 1&#45;&gt;2 -->
<g id="edge3" class="edge">
<title>1-&gt;2</title>
<path fill="none" stroke="#88a0d6" d="M394.54,-1594.84C430.19,-1577.29 485.96,-1549.83 524.82,-1530.7"/>
<polygon fill="#88a0d6" stroke="#88a0d6" points="526.03,-1534.01 533.45,-1526.45 522.93,-1527.73 526.03,-1534.01"/>
<text text-anchor="start" x="464.02" y="-1564.53" font-family="Roboto, sans-serif" font-weight="bold" font-size="14.00">JA</text>
</g>
<!-- A02 -->
<g id="node5" class="node">
<title>A02</title>
<path fill="#c4cac1" stroke="black" stroke-width="0" d="M340.05,-1421.05C340.05,-1421.05 12,-1421.05 12,-1421.05 6,-1421.05 0,-1415.05 0,-1409.05 0,-1409.05 0,-1365.77 0,-1365.77 0,-1359.77 6,-1353.77 12,-1353.77 12,-1353.77 340.05,-1353.77 340.05,-1353.77 346.05,-1353.77 352.05,-1359.77 352.05,-1365.77 352.05,-1365.77 352.05,-1409.05 352.05,-1409.05 352.05,-1415.05 346.05,-1421.05 340.05,-1421.05"/>
<text text-anchor="start" x="14.4" y="-1400.11" font-family="Roboto, sans-serif" font-weight="bold" font-size="14.00">A02</text>
<text text-anchor="start" x="14.4" y="-1388.01" font-family="Roboto, sans-serif" text-decoration="underline" font-size="12.00">Hinweis:</text>
<text text-anchor="start" x="14.4" y="-1376.01" font-family="Roboto, sans-serif" font-size="12.00">Cluster: Ablehnung der gesamten Liste</text>
<text text-anchor="start" x="14.4" y="-1364.01" font-family="Roboto, sans-serif" font-size="12.00">MaBiS-ZP entspricht nicht dem angefragten MaBiS-ZP</text>
</g>
<!-- 2&#45;&gt;A02 -->
<g id="edge4" class="edge">
<title>2-&gt;A02</title>
<path fill="none" stroke="#88a0d6" d="M512.72,-1489.96C456.19,-1472.91 367.37,-1446.12 295.15,-1424.34"/>
<polygon fill="#88a0d6" stroke="#88a0d6" points="296.2,-1421 285.61,-1421.46 294.17,-1427.7 296.2,-1421"/>
<text text-anchor="start" x="396.02" y="-1444" font-family="Roboto, sans-serif" font-weight="bold" font-size="14.00">NEIN</text>
</g>
<!-- 3 -->
<g id="node6" class="node">
<title>3</title>
<path fill="#c2cee9" stroke="black" stroke-width="0" d="M929.92,-1410.05C929.92,-1410.05 382.12,-1410.05 382.12,-1410.05 376.12,-1410.05 370.12,-1404.05 370.12,-1398.05 370.12,-1398.05 370.12,-1376.77 370.12,-1376.77 370.12,-1370.77 376.12,-1364.77 382.12,-1364.77 382.12,-1364.77 929.92,-1364.77 929.92,-1364.77 935.92,-1364.77 941.92,-1370.77 941.92,-1376.77 941.92,-1376.77 941.92,-1398.05 941.92,-1398.05 941.92,-1404.05 935.92,-1410.05 929.92,-1410.05"/>
<text text-anchor="start" x="384.52" y="-1389.11" font-family="Roboto, sans-serif" font-weight="bold" font-size="14.00">3: </text>
<text text-anchor="start" x="404.02" y="-1389.11" font-family="Roboto, sans-serif" font-size="14.00">Entspricht die Versionsangabe in der LF-CL der Versionsangabe der LF-SZR</text>
<text text-anchor="start" x="384.52" y="-1375.11" font-family="Roboto, sans-serif" font-size="14.00">(Kategorie A), zu der eine LF-CL angefordert wurde?</text>
</g>
<!-- 2&#45;&gt;3 -->
<g id="edge5" class="edge">
<title>2-&gt;3</title>
<path fill="none" stroke="#88a0d6" d="M581.49,-1489.96C595.06,-1471.47 617.03,-1441.54 633.61,-1418.95"/>
<polygon fill="#88a0d6" stroke="#88a0d6" points="636.35,-1421.13 639.45,-1410.99 630.71,-1416.98 636.35,-1421.13"/>
<text text-anchor="start" x="617.02" y="-1444" font-family="Roboto, sans-serif" font-weight="bold" font-size="14.00">JA</text>
</g>
<!-- A03 -->
<g id="node7" class="node">
<title>A03</title>
<path fill="#c4cac1" stroke="black" stroke-width="0" d="M402.17,-1300.52C402.17,-1300.52 161.88,-1300.52 161.88,-1300.52 155.88,-1300.52 149.87,-1294.52 149.87,-1288.52 149.87,-1288.52 149.87,-1245.24 149.87,-1245.24 149.87,-1239.24 155.87,-1233.24 161.87,-1233.24 161.87,-1233.24 402.17,-1233.24 402.17,-1233.24 408.17,-1233.24 414.17,-1239.24 414.17,-1245.24 414.17,-1245.24 414.17,-1288.52 414.17,-1288.52 414.17,-1294.52 408.17,-1300.52 402.17,-1300.52"/>
<text text-anchor="start" x="164.27" y="-1279.58" font-family="Roboto, sans-serif" font-weight="bold" font-size="14.00">A03</text>
<text text-anchor="start" x="164.27" y="-1267.48" font-family="Roboto, sans-serif" text-decoration="underline" font-size="12.00">Hinweis:</text>
<text text-anchor="start" x="164.27" y="-1255.48" font-family="Roboto, sans-serif" font-size="12.00">Cluster: Ablehnung der gesamten Liste </text>
<text text-anchor="start" x="164.27" y="-1243.48" font-family="Roboto, sans-serif" font-size="12.00">Version nicht zugelassen</text>
</g>
<!-- 3&#45;&gt;A03 -->
<g id="edge6" class="edge">
<title>3-&gt;A03</title>
<path fill="none" stroke="#88a0d6" d="M587.86,-1364.81C534.29,-1347.83 458.49,-1323.81 395.76,-1303.92"/>
<polygon fill="#88a0d6" stroke="#88a0d6" points="397.04,-1300.66 386.45,-1300.97 394.92,-1307.33 397.04,-1300.66"/>
<text text-anchor="start" x="491.02" y="-1323.47" font-family="Roboto, sans-serif" font-weight="bold" font-size="14.00">NEIN</text>
</g>
<!-- 4 -->
<g id="node8" class="node">
<title>4</title>
<path fill="#c2cee9" stroke="black" stroke-width="0" d="M893.8,-1284.88C893.8,-1284.88 444.25,-1284.88 444.25,-1284.88 438.25,-1284.88 432.25,-1278.88 432.25,-1272.88 432.25,-1272.88 432.25,-1260.88 432.25,-1260.88 432.25,-1254.88 438.25,-1248.88 444.25,-1248.88 444.25,-1248.88 893.8,-1248.88 893.8,-1248.88 899.8,-1248.88 905.8,-1254.88 905.8,-1260.88 905.8,-1260.88 905.8,-1272.88 905.8,-1272.88 905.8,-1278.88 899.8,-1284.88 893.8,-1284.88"/>
<text text-anchor="start" x="446.65" y="-1263.21" font-family="Roboto, sans-serif" font-weight="bold" font-size="14.00">4: </text>
<text text-anchor="start" x="466.15" y="-1263.21" font-family="Roboto, sans-serif" font-size="14.00">Ist eine erwartete Marktlokation in der LF-CL nicht enthalten?</text>
</g>
<!-- 3&#45;&gt;4 -->
<g id="edge7" class="edge">
<title>3-&gt;4</title>
<path fill="none" stroke="#88a0d6" d="M658.38,-1364.95C660.51,-1345.56 663.65,-1316.91 665.97,-1295.76"/>
<polygon fill="#88a0d6" stroke="#88a0d6" points="669.42,-1296.42 667.03,-1286.1 662.46,-1295.66 669.42,-1296.42"/>
<text text-anchor="start" x="663.02" y="-1323.47" font-family="Roboto, sans-serif" font-weight="bold" font-size="14.00">JA</text>
</g>
<!-- A04 -->
<g id="node9" class="node">
<title>A04</title>
<path fill="#c4cac1" stroke="black" stroke-width="0" d="M347.8,-1179.99C347.8,-1179.99 30.25,-1179.99 30.25,-1179.99 24.25,-1179.99 18.25,-1173.99 18.25,-1167.99 18.25,-1167.99 18.25,-1124.71 18.25,-1124.71 18.25,-1118.71 24.25,-1112.71 30.25,-1112.71 30.25,-1112.71 347.8,-1112.71 347.8,-1112.71 353.8,-1112.71 359.8,-1118.71 359.8,-1124.71 359.8,-1124.71 359.8,-1167.99 359.8,-1167.99 359.8,-1173.99 353.8,-1179.99 347.8,-1179.99"/>
<text text-anchor="start" x="32.65" y="-1159.05" font-family="Roboto, sans-serif" font-weight="bold" font-size="14.00">A04</text>
<text text-anchor="start" x="32.65" y="-1146.95" font-family="Roboto, sans-serif" text-decoration="underline" font-size="12.00">Hinweis:</text>
<text text-anchor="start" x="32.65" y="-1134.95" font-family="Roboto, sans-serif" font-size="12.00">Cluster: Korrekturliste wegen Ablehnung</text>
<text text-anchor="start" x="32.65" y="-1122.95" font-family="Roboto, sans-serif" font-size="12.00">Zus&#228;tzlicher Datensatz bzw. erg&#228;nzte Markt-lokation</text>
</g>
<!-- 4&#45;&gt;A04 -->
<g id="edge8" class="edge">
<title>4-&gt;A04</title>
<path fill="none" stroke="#88a0d6" d="M600.25,-1248.9C530.58,-1231.69 420.72,-1204.56 332.08,-1182.67"/>
<polygon fill="#88a0d6" stroke="#88a0d6" points="333.12,-1179.33 322.57,-1180.33 331.44,-1186.12 333.12,-1179.33"/>
<text text-anchor="start" x="457.02" y="-1202.94" font-family="Roboto, sans-serif" font-weight="bold" font-size="14.00">JA</text>
</g>
<!-- 5 -->
<g id="node10" class="node">
<title>5</title>
<path fill="#c2cee9" stroke="black" stroke-width="0" d="M972.17,-1168.99C972.17,-1168.99 389.88,-1168.99 389.88,-1168.99 383.88,-1168.99 377.88,-1162.99 377.88,-1156.99 377.88,-1156.99 377.88,-1135.71 377.88,-1135.71 377.88,-1129.71 383.88,-1123.71 389.88,-1123.71 389.88,-1123.71 972.17,-1123.71 972.17,-1123.71 978.17,-1123.71 984.17,-1129.71 984.17,-1135.71 984.17,-1135.71 984.17,-1156.99 984.17,-1156.99 984.17,-1162.99 978.17,-1168.99 972.17,-1168.99"/>
<text text-anchor="start" x="392.27" y="-1148.05" font-family="Roboto, sans-serif" font-weight="bold" font-size="14.00">5: </text>
<text text-anchor="start" x="411.77" y="-1148.05" font-family="Roboto, sans-serif" font-size="14.00">Ist in der LF-CL eine Marktlokation enthalten, die im Bilanzierungsmonat dem LF</text>
<text text-anchor="start" x="392.27" y="-1134.05" font-family="Roboto, sans-serif" font-size="14.00">zur Bilanzierung nicht zugeordnet ist?</text>
</g>
<!-- 4&#45;&gt;5 -->
<g id="edge9" class="edge">
<title>4-&gt;5</title>
<path fill="none" stroke="#88a0d6" d="M670.74,-1248.9C672.56,-1230.99 675.46,-1202.34 677.72,-1180.03"/>
<polygon fill="#88a0d6" stroke="#88a0d6" points="681.18,-1180.52 678.71,-1170.22 674.22,-1179.82 681.18,-1180.52"/>
<text text-anchor="start" x="675.02" y="-1202.94" font-family="Roboto, sans-serif" font-weight="bold" font-size="14.00">NEIN</text>
</g>
<!-- A05 -->
<g id="node11" class="node">
<title>A05</title>
<path fill="#c4cac1" stroke="black" stroke-width="0" d="M411.05,-1059.46C411.05,-1059.46 167,-1059.46 167,-1059.46 161,-1059.46 155,-1053.46 155,-1047.46 155,-1047.46 155,-1004.18 155,-1004.18 155,-998.18 161,-992.18 167,-992.18 167,-992.18 411.05,-992.18 411.05,-992.18 417.05,-992.18 423.05,-998.18 423.05,-1004.18 423.05,-1004.18 423.05,-1047.46 423.05,-1047.46 423.05,-1053.46 417.05,-1059.46 411.05,-1059.46"/>
<text text-anchor="start" x="169.4" y="-1038.52" font-family="Roboto, sans-serif" font-weight="bold" font-size="14.00">A05</text>
<text text-anchor="start" x="169.4" y="-1026.42" font-family="Roboto, sans-serif" text-decoration="underline" font-size="12.00">Hinweis:</text>
<text text-anchor="start" x="169.4" y="-1014.42" font-family="Roboto, sans-serif" font-size="12.00">Cluster: Korrekturliste wegen Ablehnung</text>
<text text-anchor="start" x="169.4" y="-1002.42" font-family="Roboto, sans-serif" font-size="12.00">Marktlokation falschem LF zugeordnet</text>
</g>
<!-- 5&#45;&gt;A05 -->
<g id="edge10" class="edge">
<title>5-&gt;A05</title>
<path fill="none" stroke="#88a0d6" d="M609.58,-1123.75C553.31,-1106.73 473.65,-1082.65 407.82,-1062.74"/>
<polygon fill="#88a0d6" stroke="#88a0d6" points="409,-1059.44 398.41,-1059.9 406.97,-1066.14 409,-1059.44"/>
<text text-anchor="start" x="508.02" y="-1082.41" font-family="Roboto, sans-serif" font-weight="bold" font-size="14.00">JA</text>
</g>
<!-- 6 -->
<g id="node12" class="node">
<title>6</title>
<path fill="#c2cee9" stroke="black" stroke-width="0" d="M981.17,-1043.82C981.17,-1043.82 452.88,-1043.82 452.88,-1043.82 446.88,-1043.82 440.88,-1037.82 440.88,-1031.82 440.88,-1031.82 440.88,-1019.82 440.88,-1019.82 440.88,-1013.82 446.88,-1007.82 452.88,-1007.82 452.88,-1007.82 981.17,-1007.82 981.17,-1007.82 987.17,-1007.82 993.17,-1013.82 993.17,-1019.82 993.17,-1019.82 993.17,-1031.82 993.17,-1031.82 993.17,-1037.82 987.17,-1043.82 981.17,-1043.82"/>
<text text-anchor="start" x="455.27" y="-1022.14" font-family="Roboto, sans-serif" font-weight="bold" font-size="14.00">6: </text>
<text text-anchor="start" x="474.77" y="-1022.14" font-family="Roboto, sans-serif" font-size="14.00">Ist die in der LF-CL enthaltene Marktlokation dem MaBiS-ZP zugeordnet?</text>
</g>
<!-- 5&#45;&gt;6 -->
<g id="edge11" class="edge">
<title>5-&gt;6</title>
<path fill="none" stroke="#88a0d6" d="M687.54,-1123.89C693.46,-1104.41 702.21,-1075.59 708.65,-1054.41"/>
<polygon fill="#88a0d6" stroke="#88a0d6" points="711.95,-1055.57 711.51,-1044.98 705.25,-1053.53 711.95,-1055.57"/>
<text text-anchor="start" x="701.02" y="-1082.41" font-family="Roboto, sans-serif" font-weight="bold" font-size="14.00">NEIN</text>
</g>
<!-- A06 -->
<g id="node13" class="node">
<title>A06</title>
<path fill="#c4cac1" stroke="black" stroke-width="0" d="M421.05,-938.93C421.05,-938.93 51,-938.93 51,-938.93 45,-938.93 39,-932.93 39,-926.93 39,-926.93 39,-883.65 39,-883.65 39,-877.65 45,-871.65 51,-871.65 51,-871.65 421.05,-871.65 421.05,-871.65 427.05,-871.65 433.05,-877.65 433.05,-883.65 433.05,-883.65 433.05,-926.93 433.05,-926.93 433.05,-932.93 427.05,-938.93 421.05,-938.93"/>
<text text-anchor="start" x="53.4" y="-917.99" font-family="Roboto, sans-serif" font-weight="bold" font-size="14.00">A06</text>
<text text-anchor="start" x="53.4" y="-905.89" font-family="Roboto, sans-serif" text-decoration="underline" font-size="12.00">Hinweis:</text>
<text text-anchor="start" x="53.4" y="-893.89" font-family="Roboto, sans-serif" font-size="12.00">Cluster: Korrekturliste wegen Ablehnung</text>
<text text-anchor="start" x="53.4" y="-881.89" font-family="Roboto, sans-serif" font-size="12.00">Zu viele Marktlokationen enthalten / entfallene Marktlokation</text>
</g>
<!-- 6&#45;&gt;A06 -->
<g id="edge12" class="edge">
<title>6-&gt;A06</title>
<path fill="none" stroke="#88a0d6" d="M648.11,-1007.84C578.29,-990.63 468.2,-963.5 379.37,-941.61"/>
<polygon fill="#88a0d6" stroke="#88a0d6" points="380.39,-938.26 369.84,-939.27 378.72,-945.06 380.39,-938.26"/>
<text text-anchor="start" x="505.02" y="-961.88" font-family="Roboto, sans-serif" font-weight="bold" font-size="14.00">NEIN</text>
</g>
<!-- 7 -->
<g id="node14" class="node">
<title>7</title>
<path fill="#c2cee9" stroke="black" stroke-width="0" d="M1025.42,-927.93C1025.42,-927.93 462.62,-927.93 462.62,-927.93 456.62,-927.93 450.62,-921.93 450.62,-915.93 450.62,-915.93 450.62,-894.65 450.62,-894.65 450.62,-888.65 456.62,-882.65 462.62,-882.65 462.62,-882.65 1025.42,-882.65 1025.42,-882.65 1031.42,-882.65 1037.42,-888.65 1037.42,-894.65 1037.42,-894.65 1037.42,-915.93 1037.42,-915.93 1037.42,-921.93 1031.42,-927.93 1025.42,-927.93"/>
<text text-anchor="start" x="465.02" y="-906.99" font-family="Roboto, sans-serif" font-weight="bold" font-size="14.00">7: </text>
<text text-anchor="start" x="484.52" y="-906.99" font-family="Roboto, sans-serif" font-size="14.00">Entspricht das Bilanzierungsgebiet dem zwischen NB und LF ausgetauschten</text>
<text text-anchor="start" x="465.02" y="-892.99" font-family="Roboto, sans-serif" font-size="14.00">Bilanzierungsgebiet?</text>
</g>
<!-- 6&#45;&gt;7 -->
<g id="edge13" class="edge">
<title>6-&gt;7</title>
<path fill="none" stroke="#88a0d6" d="M720.89,-1007.84C724.99,-989.85 731.56,-961.02 736.65,-938.66"/>
<polygon fill="#88a0d6" stroke="#88a0d6" points="740.01,-939.66 738.82,-929.13 733.19,-938.1 740.01,-939.66"/>
<text text-anchor="start" x="732.02" y="-961.88" font-family="Roboto, sans-serif" font-weight="bold" font-size="14.00">JA</text>
</g>
<!-- A07 -->
<g id="node15" class="node">
<title>A07</title>
<path fill="#c4cac1" stroke="black" stroke-width="0" d="M1022.17,-67.28C1022.17,-67.28 751.88,-67.28 751.88,-67.28 745.88,-67.28 739.88,-61.28 739.88,-55.28 739.88,-55.28 739.88,-12 739.88,-12 739.88,-6 745.88,0 751.88,0 751.88,0 1022.17,0 1022.17,0 1028.17,0 1034.17,-6 1034.17,-12 1034.17,-12 1034.17,-55.28 1034.17,-55.28 1034.17,-61.28 1028.17,-67.28 1022.17,-67.28"/>
<text text-anchor="start" x="754.27" y="-46.34" font-family="Roboto, sans-serif" font-weight="bold" font-size="14.00">A07</text>
<text text-anchor="start" x="754.27" y="-34.24" font-family="Roboto, sans-serif" text-decoration="underline" font-size="12.00">Hinweis:</text>
<text text-anchor="start" x="754.27" y="-22.24" font-family="Roboto, sans-serif" font-size="12.00">Cluster: Korrekturliste wegen Ablehnung</text>
<text text-anchor="start" x="754.27" y="-10.24" font-family="Roboto, sans-serif" font-size="12.00">Bilanzierungsrel. Daten nicht korrekt / fehlen</text>
</g>
<!-- 7&#45;&gt;A07 -->
<g id="edge14" class="edge">
<title>7-&gt;A07</title>
<path fill="none" stroke="#88a0d6" d="M608.04,-882.67C527.89,-865.95 442.02,-839.2 442.02,-801.4 442.02,-801.4 442.02,-801.4 442.02,-527.01 442.02,-501.72 437.42,-494.78 443.02,-470.12 449.89,-439.95 455.34,-432.89 472.02,-406.84 480.12,-394.2 484.26,-392.62 494.02,-381.21"/>
<path fill="none" stroke="#88a0d6" d="M494.02,-379.21C513.55,-353.57 528.3,-356.63 549.02,-331.95"/>
<path fill="none" stroke="#88a0d6" d="M549.02,-329.95C568.69,-306.53 579.62,-306.32 599.02,-282.69"/>
<path fill="none" stroke="#88a0d6" d="M599.02,-280.69C619.91,-255.25 634.82,-258.59 656.02,-233.42"/>
<path fill="none" stroke="#88a0d6" d="M656.02,-231.42C675.52,-208.28 685.83,-207.55 705.02,-184.16"/>
<path fill="none" stroke="#88a0d6" d="M705.02,-182.16C723.55,-159.58 736.13,-161.79 755.02,-139.53"/>
<path fill="none" stroke="#88a0d6" d="M755.02,-137.53C773.06,-116.28 782.42,-115.66 801.02,-94.91"/>
<path fill="none" stroke="#88a0d6" d="M801.02,-92.91C807.17,-86.05 814.28,-79.62 821.73,-73.7"/>
<polygon fill="#88a0d6" stroke="#88a0d6" points="823.51,-76.74 829.38,-67.92 819.29,-71.16 823.51,-76.74"/>
<text text-anchor="start" x="443.02" y="-475.07" font-family="Roboto, sans-serif" font-weight="bold" font-size="14.00">NEIN</text>
</g>
<!-- 8 -->
<g id="node16" class="node">
<title>8</title>
<path fill="#c2cee9" stroke="black" stroke-width="0" d="M1067.67,-818.4C1067.67,-818.4 482.38,-818.4 482.38,-818.4 476.38,-818.4 470.38,-812.4 470.38,-806.4 470.38,-806.4 470.38,-794.4 470.38,-794.4 470.38,-788.4 476.38,-782.4 482.38,-782.4 482.38,-782.4 1067.67,-782.4 1067.67,-782.4 1073.67,-782.4 1079.67,-788.4 1079.67,-794.4 1079.67,-794.4 1079.67,-806.4 1079.67,-806.4 1079.67,-812.4 1073.67,-818.4 1067.67,-818.4"/>
<text text-anchor="start" x="484.77" y="-796.73" font-family="Roboto, sans-serif" font-weight="bold" font-size="14.00">8: </text>
<text text-anchor="start" x="504.27" y="-796.73" font-family="Roboto, sans-serif" font-size="14.00">Entspricht der Bilanzkreis dem zwischen NB und LF ausgetauschten Bilanzkreis?</text>
</g>
<!-- 7&#45;&gt;8 -->
<g id="edge15" class="edge">
<title>7-&gt;8</title>
<path fill="none" stroke="#88a0d6" d="M750.45,-882.97C755.15,-867.38 761.56,-846.09 766.66,-829.17"/>
<polygon fill="#88a0d6" stroke="#88a0d6" points="769.97,-830.31 769.5,-819.73 763.27,-828.29 769.97,-830.31"/>
<text text-anchor="start" x="764.02" y="-841.35" font-family="Roboto, sans-serif" font-weight="bold" font-size="14.00">JA</text>
</g>
<!-- 8&#45;&gt;A07 -->
<g id="edge16" class="edge">
<title>8-&gt;A07</title>
<path fill="none" stroke="#88a0d6" d="M647.77,-782.46C574.19,-768.96 496.02,-746.53 496.02,-712.15 496.02,-712.15 496.02,-712.15 496.02,-527.01 496.02,-462.21 454.55,-432.61 494.02,-381.21"/>
<text text-anchor="start" x="480.02" y="-425.8" font-family="Roboto, sans-serif" font-weight="bold" font-size="14.00">NEIN</text>
</g>
<!-- 9 -->
<g id="node17" class="node">
<title>9</title>
<path fill="#c2cee9" stroke="black" stroke-width="0" d="M991.17,-729.15C991.17,-729.15 558.88,-729.15 558.88,-729.15 552.88,-729.15 546.88,-723.15 546.88,-717.15 546.88,-717.15 546.88,-705.15 546.88,-705.15 546.88,-699.15 552.88,-693.15 558.88,-693.15 558.88,-693.15 991.17,-693.15 991.17,-693.15 997.17,-693.15 1003.17,-699.15 1003.17,-705.15 1003.17,-705.15 1003.17,-717.15 1003.17,-717.15 1003.17,-723.15 997.17,-729.15 991.17,-729.15"/>
<text text-anchor="start" x="561.27" y="-707.48" font-family="Roboto, sans-serif" font-weight="bold" font-size="14.00">9: </text>
<text text-anchor="start" x="580.77" y="-707.48" font-family="Roboto, sans-serif" font-size="14.00">Entspricht der Bilanzierungsbeginn der Erwartung des LF?</text>
</g>
<!-- 8&#45;&gt;9 -->
<g id="edge17" class="edge">
<title>8-&gt;9</title>
<path fill="none" stroke="#88a0d6" d="M775.02,-782.58C775.02,-770.63 775.02,-754.3 775.02,-740.37"/>
<polygon fill="#88a0d6" stroke="#88a0d6" points="778.53,-740.43 775.03,-730.43 771.53,-740.43 778.53,-740.43"/>
<text text-anchor="start" x="775.02" y="-752.1" font-family="Roboto, sans-serif" font-weight="bold" font-size="14.00">JA</text>
</g>
<!-- 9&#45;&gt;A07 -->
<g id="edge18" class="edge">
<title>9-&gt;A07</title>
<path fill="none" stroke="#88a0d6" d="M621.78,-693.22C587.47,-680.51 561.02,-659.01 561.02,-622.9 561.02,-622.9 561.02,-622.9 561.02,-477.74 561.02,-412.73 509.63,-383.67 549.02,-331.95"/>
<text text-anchor="start" x="536.02" y="-376.54" font-family="Roboto, sans-serif" font-weight="bold" font-size="14.00">NEIN</text>
</g>
<!-- 10 -->
<g id="node18" class="node">
<title>10</title>
<path fill="#c2cee9" stroke="black" stroke-width="0" d="M1031.05,-639.9C1031.05,-639.9 601,-639.9 601,-639.9 595,-639.9 589,-633.9 589,-627.9 589,-627.9 589,-615.9 589,-615.9 589,-609.9 595,-603.9 601,-603.9 601,-603.9 1031.05,-603.9 1031.05,-603.9 1037.05,-603.9 1043.05,-609.9 1043.05,-615.9 1043.05,-615.9 1043.05,-627.9 1043.05,-627.9 1043.05,-633.9 1037.05,-639.9 1031.05,-639.9"/>
<text text-anchor="start" x="603.4" y="-618.23" font-family="Roboto, sans-serif" font-weight="bold" font-size="14.00">10: </text>
<text text-anchor="start" x="632.65" y="-618.23" font-family="Roboto, sans-serif" font-size="14.00">Entspricht das Bilanzierungsende der Erwartung des LF?</text>
</g>
<!-- 9&#45;&gt;10 -->
<g id="edge19" class="edge">
<title>9-&gt;10</title>
<path fill="none" stroke="#88a0d6" d="M782.93,-693.33C788.72,-681.02 796.69,-664.05 803.36,-649.86"/>
<polygon fill="#88a0d6" stroke="#88a0d6" points="806.42,-651.58 807.5,-641.04 800.08,-648.6 806.42,-651.58"/>
<text text-anchor="start" x="799.02" y="-662.85" font-family="Roboto, sans-serif" font-weight="bold" font-size="14.00">JA</text>
</g>
<!-- 10&#45;&gt;A07 -->
<g id="edge20" class="edge">
<title>10-&gt;A07</title>
<path fill="none" stroke="#88a0d6" d="M706.57,-603.97C674.72,-593.68 642.92,-577.17 622.02,-550.65 603.53,-527.18 580.61,-306.22 599.02,-282.69"/>
<text text-anchor="start" x="593.02" y="-327.27" font-family="Roboto, sans-serif" font-weight="bold" font-size="14.00">NEIN</text>
</g>
<!-- 11 -->
<g id="node19" class="node">
<title>11</title>
<path fill="#c2cee9" stroke="black" stroke-width="0" d="M1184.55,-550.65C1184.55,-550.65 643.5,-550.65 643.5,-550.65 637.5,-550.65 631.5,-544.65 631.5,-538.65 631.5,-538.65 631.5,-517.37 631.5,-517.37 631.5,-511.37 637.5,-505.37 643.5,-505.37 643.5,-505.37 1184.55,-505.37 1184.55,-505.37 1190.55,-505.37 1196.55,-511.37 1196.55,-517.37 1196.55,-517.37 1196.55,-538.65 1196.55,-538.65 1196.55,-544.65 1190.55,-550.65 1184.55,-550.65"/>
<text text-anchor="start" x="645.9" y="-529.71" font-family="Roboto, sans-serif" font-weight="bold" font-size="14.00">11: </text>
<text text-anchor="start" x="675.15" y="-529.71" font-family="Roboto, sans-serif" font-size="14.00">Entspricht das normierte Profil dem zwischen NB und LF ausgetauschten</text>
<text text-anchor="start" x="645.9" y="-515.71" font-family="Roboto, sans-serif" font-size="14.00">normierten Profil?</text>
</g>
<!-- 10&#45;&gt;11 -->
<g id="edge21" class="edge">
<title>10-&gt;11</title>
<path fill="none" stroke="#88a0d6" d="M834,-604.05C847.65,-591.25 866.75,-573.34 882.86,-558.23"/>
<polygon fill="#88a0d6" stroke="#88a0d6" points="884.97,-561.05 889.87,-551.66 880.18,-555.95 884.97,-561.05"/>
<text text-anchor="start" x="870.02" y="-573.6" font-family="Roboto, sans-serif" font-weight="bold" font-size="14.00">JA</text>
</g>
<!-- 11&#45;&gt;A07 -->
<g id="edge22" class="edge">
<title>11-&gt;A07</title>
<path fill="none" stroke="#88a0d6" d="M769.58,-505.39C737.78,-494.25 707.06,-477.44 685.02,-452.12 652.84,-415.13 626.22,-272.34 656.02,-233.42"/>
<text text-anchor="start" x="643.02" y="-278.01" font-family="Roboto, sans-serif" font-weight="bold" font-size="14.00">NEIN</text>
</g>
<!-- 12 -->
<g id="node20" class="node">
<title>12</title>
<path fill="#c2cee9" stroke="black" stroke-width="0" d="M1315.67,-452.12C1315.67,-452.12 706.38,-452.12 706.38,-452.12 700.38,-452.12 694.38,-446.12 694.38,-440.12 694.38,-440.12 694.38,-418.84 694.38,-418.84 694.38,-412.84 700.38,-406.84 706.38,-406.84 706.38,-406.84 1315.67,-406.84 1315.67,-406.84 1321.67,-406.84 1327.67,-412.84 1327.67,-418.84 1327.67,-418.84 1327.67,-440.12 1327.67,-440.12 1327.67,-446.12 1321.67,-452.12 1315.67,-452.12"/>
<text text-anchor="start" x="708.77" y="-431.18" font-family="Roboto, sans-serif" font-weight="bold" font-size="14.00">12: </text>
<text text-anchor="start" x="738.02" y="-431.18" font-family="Roboto, sans-serif" font-size="14.00">Entspricht die Versionsangabe des Profils der zwischen NB und LF ausgetauschten</text>
<text text-anchor="start" x="708.77" y="-417.18" font-family="Roboto, sans-serif" font-size="14.00">Version des Profils?</text>
</g>
<!-- 11&#45;&gt;12 -->
<g id="edge23" class="edge">
<title>11-&gt;12</title>
<path fill="none" stroke="#88a0d6" d="M935.55,-505.59C949.12,-492.09 966.8,-474.49 981.65,-459.71"/>
<polygon fill="#88a0d6" stroke="#88a0d6" points="983.87,-462.45 988.48,-452.91 978.93,-457.48 983.87,-462.45"/>
<text text-anchor="start" x="968.02" y="-475.07" font-family="Roboto, sans-serif" font-weight="bold" font-size="14.00">JA</text>
</g>
<!-- 12&#45;&gt;A07 -->
<g id="edge24" class="edge">
<title>12-&gt;A07</title>
<path fill="none" stroke="#88a0d6" d="M877.54,-406.89C815.26,-394.14 750.22,-376.08 729.02,-353.59 702.94,-325.91 681.96,-214.39 705.02,-184.16"/>
<text text-anchor="start" x="696.02" y="-228.75" font-family="Roboto, sans-serif" font-weight="bold" font-size="14.00">NEIN</text>
</g>
<!-- 13 -->
<g id="node21" class="node">
<title>13</title>
<path fill="#c2cee9" stroke="black" stroke-width="0" d="M1338.18,-353.59C1338.18,-353.59 749.88,-353.59 749.88,-353.59 743.88,-353.59 737.88,-347.59 737.88,-341.59 737.88,-341.59 737.88,-320.31 737.88,-320.31 737.88,-314.31 743.88,-308.31 749.88,-308.31 749.88,-308.31 1338.18,-308.31 1338.18,-308.31 1344.18,-308.31 1350.18,-314.31 1350.18,-320.31 1350.18,-320.31 1350.18,-341.59 1350.18,-341.59 1350.18,-347.59 1344.18,-353.59 1338.18,-353.59"/>
<text text-anchor="start" x="752.28" y="-332.65" font-family="Roboto, sans-serif" font-weight="bold" font-size="14.00">13: </text>
<text text-anchor="start" x="781.53" y="-332.65" font-family="Roboto, sans-serif" font-size="14.00">Entspricht die veranschlagte Prognosemenge (JVP, spezifische Arbeit, usw.) der</text>
<text text-anchor="start" x="752.28" y="-318.65" font-family="Roboto, sans-serif" font-size="14.00">zwischen NB und LF ausgetauschten Prognosemenge?</text>
</g>
<!-- 12&#45;&gt;13 -->
<g id="edge25" class="edge">
<title>12-&gt;13</title>
<path fill="none" stroke="#88a0d6" d="M1018.35,-407.06C1022.66,-394.43 1028.21,-378.22 1033.04,-364.09"/>
<polygon fill="#88a0d6" stroke="#88a0d6" points="1036.31,-365.34 1036.23,-354.75 1029.69,-363.08 1036.31,-365.34"/>
<text text-anchor="start" x="1029.03" y="-376.54" font-family="Roboto, sans-serif" font-weight="bold" font-size="14.00">JA</text>
</g>
<!-- 13&#45;&gt;A07 -->
<g id="edge26" class="edge">
<title>13-&gt;A07</title>
<path fill="none" stroke="#88a0d6" d="M885.06,-308.38C850.54,-297.22 816.71,-280.38 791.02,-255.06 752.72,-217.3 722.24,-182.16 755.02,-139.53"/>
<text text-anchor="start" x="743.02" y="-179.48" font-family="Roboto, sans-serif" font-weight="bold" font-size="14.00">NEIN</text>
</g>
<!-- 14 -->
<g id="node22" class="node">
<title>14</title>
<path fill="#c2cee9" stroke="black" stroke-width="0" d="M1395.93,-255.06C1395.93,-255.06 812.13,-255.06 812.13,-255.06 806.13,-255.06 800.13,-249.06 800.13,-243.06 800.13,-243.06 800.13,-221.78 800.13,-221.78 800.13,-215.78 806.13,-209.78 812.13,-209.78 812.13,-209.78 1395.93,-209.78 1395.93,-209.78 1401.93,-209.78 1407.93,-215.78 1407.93,-221.78 1407.93,-221.78 1407.93,-243.06 1407.93,-243.06 1407.93,-249.06 1401.93,-255.06 1395.93,-255.06"/>
<text text-anchor="start" x="814.53" y="-234.12" font-family="Roboto, sans-serif" font-weight="bold" font-size="14.00">14: </text>
<text text-anchor="start" x="843.78" y="-234.12" font-family="Roboto, sans-serif" font-size="14.00">Entspricht die tats&#228;chlich bilanzierte Menge der erwarteten bilanzierten Menge</text>
<text text-anchor="start" x="814.53" y="-220.12" font-family="Roboto, sans-serif" font-size="14.00">(monatlich gemessene Menge auf Basis der Summe der 1/4-h-Werten)?</text>
</g>
<!-- 13&#45;&gt;14 -->
<g id="edge27" class="edge">
<title>13-&gt;14</title>
<path fill="none" stroke="#88a0d6" d="M1057.34,-308.53C1065.42,-295.53 1075.87,-278.72 1084.83,-264.31"/>
<polygon fill="#88a0d6" stroke="#88a0d6" points="1087.64,-266.41 1089.95,-256.07 1081.7,-262.71 1087.64,-266.41"/>
<text text-anchor="start" x="1077.03" y="-278.01" font-family="Roboto, sans-serif" font-weight="bold" font-size="14.00">JA</text>
</g>
<!-- 14&#45;&gt;A07 -->
<g id="edge28" class="edge">
<title>14-&gt;A07</title>
<path fill="none" stroke="#88a0d6" d="M938.95,-209.8C842.14,-190.37 748.28,-155.32 801.02,-94.91"/>
<text text-anchor="start" x="798.02" y="-134.85" font-family="Roboto, sans-serif" font-weight="bold" font-size="14.00">NEIN</text>
</g>
<!-- 15 -->
<g id="node23" class="node">
<title>15</title>
<path fill="#c2cee9" stroke="black" stroke-width="0" d="M1403.8,-156.53C1403.8,-156.53 870.25,-156.53 870.25,-156.53 864.25,-156.53 858.25,-150.53 858.25,-144.53 858.25,-144.53 858.25,-132.53 858.25,-132.53 858.25,-126.53 864.25,-120.53 870.25,-120.53 870.25,-120.53 1403.8,-120.53 1403.8,-120.53 1409.8,-120.53 1415.8,-126.53 1415.8,-132.53 1415.8,-132.53 1415.8,-144.53 1415.8,-144.53 1415.8,-150.53 1409.8,-156.53 1403.8,-156.53"/>
<text text-anchor="start" x="872.65" y="-134.85" font-family="Roboto, sans-serif" font-weight="bold" font-size="14.00">15: </text>
<text text-anchor="start" x="901.9" y="-134.85" font-family="Roboto, sans-serif" font-size="14.00">Entspricht der Zeitreihentyp dem zwischen NB und LF ausgetauschten?</text>
</g>
<!-- 14&#45;&gt;15 -->
<g id="edge29" class="edge">
<title>14-&gt;15</title>
<path fill="none" stroke="#88a0d6" d="M1111.68,-210.11C1116.26,-197.35 1122.13,-181 1127.07,-167.24"/>
<polygon fill="#88a0d6" stroke="#88a0d6" points="1130.36,-168.46 1130.44,-157.86 1123.77,-166.09 1130.36,-168.46"/>
<text text-anchor="start" x="1124.03" y="-179.48" font-family="Roboto, sans-serif" font-weight="bold" font-size="14.00">JA</text>
</g>
<!-- 15&#45;&gt;A07 -->
<g id="edge30" class="edge">
<title>15-&gt;A07</title>
<path fill="none" stroke="#88a0d6" d="M1095.74,-120.54C1063.46,-107.26 1017.4,-88.3 976.76,-71.57"/>
<polygon fill="#88a0d6" stroke="#88a0d6" points="978.26,-68.4 967.68,-67.84 975.6,-74.88 978.26,-68.4"/>
<text text-anchor="start" x="1049.03" y="-90.23" font-family="Roboto, sans-serif" font-weight="bold" font-size="14.00">NEIN</text>
</g>
<!-- Ende -->
<g id="node24" class="node">
<title>Ende</title>
<path fill="#8ba2d7" stroke="black" stroke-width="0" d="M1157.05,-51.64C1157.05,-51.64 1117,-51.64 1117,-51.64 1111,-51.64 1105,-45.64 1105,-39.64 1105,-39.64 1105,-27.64 1105,-27.64 1105,-21.64 1111,-15.64 1117,-15.64 1117,-15.64 1157.05,-15.64 1157.05,-15.64 1163.05,-15.64 1169.05,-21.64 1169.05,-27.64 1169.05,-27.64 1169.05,-39.64 1169.05,-39.64 1169.05,-45.64 1163.05,-51.64 1157.05,-51.64"/>
<text text-anchor="middle" x="1137.03" y="-28.96" font-family="Roboto, sans-serif" font-size="14.00">Ende</text>
</g>
<!-- 15&#45;&gt;Ende -->
<g id="edge31" class="edge">
<title>15-&gt;Ende</title>
<path fill="none" stroke="#88a0d6" d="M1137.03,-120.54C1137.03,-104.81 1137.03,-81.12 1137.03,-62.6"/>
<polygon fill="#88a0d6" stroke="#88a0d6" points="1140.53,-62.83 1137.03,-52.83 1133.53,-62.83 1140.53,-62.83"/>
<text text-anchor="start" x="1137.03" y="-90.23" font-family="Roboto, sans-serif" font-weight="bold" font-size="14.00">JA</text>
</g>
</g>
</svg>
  </g>
</svg>
  </g>
</svg>
