<?xml version='1.0' encoding='ASCII' standalone='yes'?>
<svg xmlns="http://www.w3.org/2000/svg" xmlns:xlink="http://www.w3.org/1999/xlink" version="1.1" width="1249.3333333333333px" viewBox="0 0 1249.3333333333333 630.6666666666666" height="630.6666666666666px">
  <g>
    <svg version="1.1" width="1249.3333333333333px" viewBox="0 0 1249.3333333333333 630.6666666666666" height="630.6666666666666px">
  <rect fill="#e7e6e5" x="0" y="0" width="1249.3333333333333" height="630.6666666666666" rx="20" ry="20"/><g>
    <g transform="translate(367.4804092743828, 63.06666666666665) scale(1 1) translate(0, 0) scale(0.8880127663568947 0.8880127663568947) "><!-- note that I manually added the width and height attribute to the root node
  https://chatgpt.com/share/678e3028-70cc-800b-a296-782714735772
  -->
  <defs>
    <style>.cls-1{fill:#fff;}</style>
  </defs>
  <path class="cls-1" d="M122.44,531.2h-56.1c-11,0-19.9-9.12-19.46-20.11C57.47,243.89,278.15,29.78,547.91,29.78v56.02c0,10.98-8.69,19.89-19.66,20.39-225.51,10.31-405.8,197-405.8,425Z"/>
  <path class="cls-1" d="M273.78,531.2h-55.93c-11.23,0-20.09-9.48-19.43-20.69,10.74-183.44,163.39-329.39,349.48-329.39v56.26c0,10.71-8.27,19.62-18.96,20.35-142.35,9.77-255.17,128.69-255.17,273.46Z"/>
  <path class="cls-1" d="M425.77,531.2h-55.45c-11.65,0-20.6-10.17-19.33-21.75,10.87-99.03,95.03-176.34,196.92-176.34v57.01c0,10.05-7.28,18.75-17.23,20.16-59.22,8.4-104.91,59.42-104.91,120.92Z"/>
</g>
    <svg width="937pt" height="473pt" viewBox="0.00 0.00 936.75 472.62">
<g id="graph0" class="graph" transform="scale(1 1) rotate(0) translate(4 468.62)">
<title>D</title>
<text text-anchor="start" x="8" y="-444.52" font-family="Roboto, sans-serif" font-weight="bold" font-size="18.00">MaBiS</text>
<text text-anchor="start" x="8" y="-414.42" font-family="Roboto, sans-serif" font-weight="bold" font-size="16.00">7.34.1: AD: &#220;bermittlung Pr&#252;fmitteilung f&#252;r die Bilanzkreissummenzeitreihe vom BKV an BIKO und NB</text>
<!-- Start -->
<g id="node1" class="node">
<title>Start</title>
<path fill="#8ba2d7" stroke="black" stroke-width="0" d="M421.4,-366.62C421.4,-366.62 281.6,-366.62 281.6,-366.62 275.6,-366.62 269.6,-360.62 269.6,-354.62 269.6,-354.62 269.6,-335.34 269.6,-335.34 269.6,-329.34 275.6,-323.34 281.6,-323.34 281.6,-323.34 421.4,-323.34 421.4,-323.34 427.4,-323.34 433.4,-329.34 433.4,-335.34 433.4,-335.34 433.4,-354.62 433.4,-354.62 433.4,-360.62 427.4,-366.62 421.4,-366.62"/>
<text text-anchor="start" x="284" y="-345.68" font-family="Roboto, sans-serif" font-weight="bold" font-size="14.00">E_0063</text>
<text text-anchor="start" x="284" y="-333.58" font-family="Roboto, sans-serif" font-weight="bold" text-decoration="underline" font-size="12.00">Pr&#252;fende Rolle:</text>
<text text-anchor="start" x="387.5" y="-333.58" font-family="Roboto, sans-serif" font-weight="bold" font-size="12.00"> BKV</text>
</g>
<!-- 1 -->
<g id="node2" class="node">
<title>1</title>
<path fill="#c2cee9" stroke="black" stroke-width="0" d="M626.9,-286.34C626.9,-286.34 76.1,-286.34 76.1,-286.34 70.1,-286.34 64.1,-280.34 64.1,-274.34 64.1,-274.34 64.1,-253.06 64.1,-253.06 64.1,-247.06 70.1,-241.06 76.1,-241.06 76.1,-241.06 626.9,-241.06 626.9,-241.06 632.9,-241.06 638.9,-247.06 638.9,-253.06 638.9,-253.06 638.9,-274.34 638.9,-274.34 638.9,-280.34 632.9,-286.34 626.9,-286.34"/>
<text text-anchor="start" x="78.5" y="-265.4" font-family="Roboto, sans-serif" font-weight="bold" font-size="14.00">1: </text>
<text text-anchor="start" x="98" y="-265.4" font-family="Roboto, sans-serif" font-size="14.00">Liegt die Version der Zeitreihe des MaBiS-ZP f&#252;r diesen Bilanzierungsmonat</text>
<text text-anchor="start" x="78.5" y="-251.4" font-family="Roboto, sans-serif" font-size="14.00">bereits vor?</text>
</g>
<!-- Start&#45;&gt;1 -->
<g id="edge1" class="edge">
<title>Start-&gt;1</title>
<path fill="none" stroke="#88a0d6" d="M351.5,-323.56C351.5,-315.59 351.5,-306.24 351.5,-297.38"/>
<polygon fill="#88a0d6" stroke="#88a0d6" points="355,-297.67 351.5,-287.67 348,-297.67 355,-297.67"/>
</g>
<!-- A01 -->
<g id="node3" class="node">
<title>A01</title>
<path fill="#c4cac1" stroke="black" stroke-width="0" d="M270.4,-187.81C270.4,-187.81 100.6,-187.81 100.6,-187.81 94.6,-187.81 88.6,-181.81 88.6,-175.81 88.6,-175.81 88.6,-132.53 88.6,-132.53 88.6,-126.53 94.6,-120.53 100.6,-120.53 100.6,-120.53 270.4,-120.53 270.4,-120.53 276.4,-120.53 282.4,-126.53 282.4,-132.53 282.4,-132.53 282.4,-175.81 282.4,-175.81 282.4,-181.81 276.4,-187.81 270.4,-187.81"/>
<text text-anchor="start" x="103" y="-166.87" font-family="Roboto, sans-serif" font-weight="bold" font-size="14.00">A01</text>
<text text-anchor="start" x="103" y="-154.77" font-family="Roboto, sans-serif" text-decoration="underline" font-size="12.00">Hinweis:</text>
<text text-anchor="start" x="103" y="-142.77" font-family="Roboto, sans-serif" font-size="12.00">Cluster: Abweisung</text>
<text text-anchor="start" x="103" y="-130.77" font-family="Roboto, sans-serif" font-size="12.00">Zeitreihe bereits vorhanden</text>
</g>
<!-- 1&#45;&gt;A01 -->
<g id="edge2" class="edge">
<title>1-&gt;A01</title>
<path fill="none" stroke="#88a0d6" d="M318.31,-241.2C297.42,-227.67 269.87,-209.82 245.27,-193.89"/>
<polygon fill="#88a0d6" stroke="#88a0d6" points="247.22,-190.98 236.93,-188.48 243.42,-196.86 247.22,-190.98"/>
<text text-anchor="start" x="287.5" y="-210.76" font-family="Roboto, sans-serif" font-weight="bold" font-size="14.00">JA</text>
</g>
<!-- 2 -->
<g id="node4" class="node">
<title>2</title>
<path fill="#c2cee9" stroke="black" stroke-width="0" d="M852.65,-176.81C852.65,-176.81 312.35,-176.81 312.35,-176.81 306.35,-176.81 300.35,-170.81 300.35,-164.81 300.35,-164.81 300.35,-143.53 300.35,-143.53 300.35,-137.53 306.35,-131.53 312.35,-131.53 312.35,-131.53 852.65,-131.53 852.65,-131.53 858.65,-131.53 864.65,-137.53 864.65,-143.53 864.65,-143.53 864.65,-164.81 864.65,-164.81 864.65,-170.81 858.65,-176.81 852.65,-176.81"/>
<text text-anchor="start" x="314.75" y="-155.87" font-family="Roboto, sans-serif" font-weight="bold" font-size="14.00">2: </text>
<text text-anchor="start" x="334.25" y="-155.87" font-family="Roboto, sans-serif" font-size="14.00">Entsprechen die Energiemengen der BK-SZR (Kategorie A) den erwarteten</text>
<text text-anchor="start" x="314.75" y="-141.87" font-family="Roboto, sans-serif" font-size="14.00">Energiemengen?</text>
</g>
<!-- 1&#45;&gt;2 -->
<g id="edge3" class="edge">
<title>1-&gt;2</title>
<path fill="none" stroke="#88a0d6" d="M397.97,-241.07C434.86,-223.9 486.58,-199.82 525.89,-181.52"/>
<polygon fill="#88a0d6" stroke="#88a0d6" points="527.14,-184.8 534.73,-177.41 524.19,-178.45 527.14,-184.8"/>
<text text-anchor="start" x="466.5" y="-210.76" font-family="Roboto, sans-serif" font-weight="bold" font-size="14.00">NEIN</text>
</g>
<!-- A02 -->
<g id="node5" class="node">
<title>A02</title>
<path fill="#c4cac1" stroke="black" stroke-width="0" d="M586.27,-67.28C586.27,-67.28 358.72,-67.28 358.72,-67.28 352.72,-67.28 346.72,-61.28 346.72,-55.28 346.72,-55.28 346.72,-12 346.72,-12 346.72,-6 352.72,0 358.72,0 358.72,0 586.27,0 586.27,0 592.27,0 598.27,-6 598.27,-12 598.27,-12 598.27,-55.28 598.27,-55.28 598.27,-61.28 592.27,-67.28 586.27,-67.28"/>
<text text-anchor="start" x="361.12" y="-46.34" font-family="Roboto, sans-serif" font-weight="bold" font-size="14.00">A02</text>
<text text-anchor="start" x="361.12" y="-34.24" font-family="Roboto, sans-serif" text-decoration="underline" font-size="12.00">Hinweis:</text>
<text text-anchor="start" x="361.12" y="-22.24" font-family="Roboto, sans-serif" font-size="12.00">Cluster: Ablehnung</text>
<text text-anchor="start" x="361.12" y="-10.24" font-family="Roboto, sans-serif" font-size="12.00">Energiemenge falsch / nicht plausibel</text>
</g>
<!-- 2&#45;&gt;A02 -->
<g id="edge4" class="edge">
<title>2-&gt;A02</title>
<path fill="none" stroke="#88a0d6" d="M562.58,-131.71C548.02,-116.01 527.83,-94.26 510.25,-75.32"/>
<polygon fill="#88a0d6" stroke="#88a0d6" points="513.04,-73.18 503.68,-68.23 507.91,-77.94 513.04,-73.18"/>
<text text-anchor="start" x="533.5" y="-90.23" font-family="Roboto, sans-serif" font-weight="bold" font-size="14.00">NEIN</text>
</g>
<!-- A03 -->
<g id="node6" class="node">
<title>A03</title>
<path fill="#c4cac1" stroke="black" stroke-width="0" d="M757.15,-67.28C757.15,-67.28 627.85,-67.28 627.85,-67.28 621.85,-67.28 615.85,-61.28 615.85,-55.28 615.85,-55.28 615.85,-12 615.85,-12 615.85,-6 621.85,0 627.85,0 627.85,0 757.15,0 757.15,0 763.15,0 769.15,-6 769.15,-12 769.15,-12 769.15,-55.28 769.15,-55.28 769.15,-61.28 763.15,-67.28 757.15,-67.28"/>
<text text-anchor="start" x="630.25" y="-46.34" font-family="Roboto, sans-serif" font-weight="bold" font-size="14.00">A03</text>
<text text-anchor="start" x="630.25" y="-34.24" font-family="Roboto, sans-serif" text-decoration="underline" font-size="12.00">Hinweis:</text>
<text text-anchor="start" x="630.25" y="-22.24" font-family="Roboto, sans-serif" font-size="12.00">Cluster: Zustimmung</text>
<text text-anchor="start" x="630.25" y="-10.24" font-family="Roboto, sans-serif" font-size="12.00">Zeitreihe akzeptiert</text>
</g>
<!-- 2&#45;&gt;A03 -->
<g id="edge5" class="edge">
<title>2-&gt;A03</title>
<path fill="none" stroke="#88a0d6" d="M602.42,-131.71C616.98,-116.01 637.17,-94.26 654.75,-75.32"/>
<polygon fill="#88a0d6" stroke="#88a0d6" points="657.09,-77.94 661.32,-68.23 651.96,-73.18 657.09,-77.94"/>
<text text-anchor="start" x="643.5" y="-90.23" font-family="Roboto, sans-serif" font-weight="bold" font-size="14.00">JA</text>
</g>
</g>
</svg>
  </g>
</svg>
  </g>
</svg>
