<?xml version='1.0' encoding='ASCII' standalone='yes'?>
<svg xmlns="http://www.w3.org/2000/svg" xmlns:xlink="http://www.w3.org/1999/xlink" version="1.1" width="1560.0px" viewBox="0 0 1560.0 408.0" height="408.0px">
  <g>
    <svg version="1.1" width="1560.0px" viewBox="0 0 1560.0 408.0" height="408.0px">
  <rect fill="#e7e6e5" x="0" y="0" width="1560.0" height="408.0" rx="20" ry="20"/><g>
    <g transform="translate(613.6173472261335, 40.79999999999999) scale(1 1) translate(0, 0) scale(0.5744860602647143 0.5744860602647143) "><!-- note that I manually added the width and height attribute to the root node
  https://chatgpt.com/share/678e3028-70cc-800b-a296-782714735772
  -->
  <defs>
    <style>.cls-1{fill:#fff;}</style>
  </defs>
  <path class="cls-1" d="M122.44,531.2h-56.1c-11,0-19.9-9.12-19.46-20.11C57.47,243.89,278.15,29.78,547.91,29.78v56.02c0,10.98-8.69,19.89-19.66,20.39-225.51,10.31-405.8,197-405.8,425Z"/>
  <path class="cls-1" d="M273.78,531.2h-55.93c-11.23,0-20.09-9.48-19.43-20.69,10.74-183.44,163.39-329.39,349.48-329.39v56.26c0,10.71-8.27,19.62-18.96,20.35-142.35,9.77-255.17,128.69-255.17,273.46Z"/>
  <path class="cls-1" d="M425.77,531.2h-55.45c-11.65,0-20.6-10.17-19.33-21.75,10.87-99.03,95.03-176.34,196.92-176.34v57.01c0,10.05-7.28,18.75-17.23,20.16-59.22,8.4-104.91,59.42-104.91,120.92Z"/>
</g>
    <svg width="1170pt" height="306pt" viewBox="0.00 0.00 1170.00 305.53">
<g id="graph0" class="graph" transform="scale(1 1) rotate(0) translate(4 301.53)">
<title>D</title>
<text text-anchor="start" x="8" y="-277.43" font-family="Roboto, sans-serif" font-weight="bold" font-size="18.00">MaBiS</text>
<text text-anchor="start" x="8" y="-249.33" font-family="Roboto, sans-serif" font-weight="bold" font-size="16.00">7.68.2: AD: &#220;bermittlung Pr&#252;fmitteilung f&#252;r die monatliche Ausfallarbeits&#252;berf&#252;hrungszeitreihe (AA&#220;Z) vom BKV (anfNB) an NB</text>
<!-- Start -->
<g id="node1" class="node">
<title>Start</title>
<path fill="#8ba2d7" stroke="black" stroke-width="0" d="M657.27,-207.53C657.27,-207.53 504.73,-207.53 504.73,-207.53 498.73,-207.53 492.73,-201.53 492.73,-195.53 492.73,-195.53 492.73,-174.25 492.73,-174.25 492.73,-168.25 498.73,-162.25 504.73,-162.25 504.73,-162.25 657.27,-162.25 657.27,-162.25 663.27,-162.25 669.27,-168.25 669.27,-174.25 669.27,-174.25 669.27,-195.53 669.27,-195.53 669.27,-201.53 663.27,-207.53 657.27,-207.53"/>
<text text-anchor="start" x="507.12" y="-186.59" font-family="Roboto, sans-serif" font-weight="bold" font-size="14.00">E_0081</text>
<text text-anchor="start" x="507.12" y="-172.59" font-family="Roboto, sans-serif" font-size="14.00">Pr&#252;fende Rolle: </text>
<text text-anchor="start" x="616.62" y="-172.59" font-family="Roboto, sans-serif" font-weight="bold" font-size="14.00">BIKO</text>
</g>
<!-- 1 -->
<g id="node2" class="node">
<title>1</title>
<path fill="#c2cee9" stroke="black" stroke-width="0" d="M879.27,-125.25C879.27,-125.25 282.73,-125.25 282.73,-125.25 276.73,-125.25 270.73,-119.25 270.73,-113.25 270.73,-113.25 270.73,-101.25 270.73,-101.25 270.73,-95.25 276.73,-89.25 282.73,-89.25 282.73,-89.25 879.27,-89.25 879.27,-89.25 885.27,-89.25 891.27,-95.25 891.27,-101.25 891.27,-101.25 891.27,-113.25 891.27,-113.25 891.27,-119.25 885.27,-125.25 879.27,-125.25"/>
<text text-anchor="start" x="285.12" y="-103.58" font-family="Roboto, sans-serif" font-weight="bold" font-size="14.00">1: </text>
<text text-anchor="start" x="304.62" y="-103.58" font-family="Roboto, sans-serif" font-size="14.00">Erfolgt der Eingang der Pr&#252;fmitteilung nach Ablauf der Clearingfrist f&#252;r die KBKA?</text>
</g>
<!-- Start&#45;&gt;1 -->
<g id="edge1" class="edge">
<title>Start-&gt;1</title>
<path fill="none" stroke="#88a0d6" d="M581,-162.42C581,-154.34 581,-145.04 581,-136.44"/>
<polygon fill="#88a0d6" stroke="#88a0d6" points="584.5,-136.48 581,-126.48 577.5,-136.48 584.5,-136.48"/>
</g>
<!-- A01 -->
<g id="node3" class="node">
<title>A01</title>
<path fill="#c4cac1" stroke="black" stroke-width="0" d="M584.9,-36C584.9,-36 445.1,-36 445.1,-36 439.1,-36 433.1,-30 433.1,-24 433.1,-24 433.1,-12 433.1,-12 433.1,-6 439.1,0 445.1,0 445.1,0 584.9,0 584.9,0 590.9,0 596.9,-6 596.9,-12 596.9,-12 596.9,-24 596.9,-24 596.9,-30 590.9,-36 584.9,-36"/>
<text text-anchor="start" x="447.5" y="-13.32" font-family="Roboto, sans-serif" font-size="14.00">Frist&#252;berschreitung</text>
</g>
<!-- 1&#45;&gt;A01 -->
<g id="edge2" class="edge">
<title>1-&gt;A01</title>
<path fill="none" stroke="#88a0d6" d="M568.27,-89.43C558.69,-76.75 545.37,-59.15 534.45,-44.72"/>
<polygon fill="#88a0d6" stroke="#88a0d6" points="537.42,-42.84 528.6,-36.98 531.84,-47.06 537.42,-42.84"/>
<text text-anchor="start" x="553" y="-58.95" font-family="Roboto, sans-serif" font-weight="bold" font-size="14.00">JA</text>
</g>
<!-- Ende -->
<g id="node4" class="node">
<title>Ende</title>
<path fill="#8ba2d7" stroke="black" stroke-width="0" d="M667.02,-36C667.02,-36 626.98,-36 626.98,-36 620.98,-36 614.98,-30 614.98,-24 614.98,-24 614.98,-12 614.98,-12 614.98,-6 620.98,0 626.98,0 626.98,0 667.02,0 667.02,0 673.02,0 679.02,-6 679.02,-12 679.02,-12 679.02,-24 679.02,-24 679.02,-30 673.02,-36 667.02,-36"/>
<text text-anchor="middle" x="647" y="-13.32" font-family="Roboto, sans-serif" font-size="14.00">Ende</text>
</g>
<!-- 1&#45;&gt;Ende -->
<g id="edge3" class="edge">
<title>1-&gt;Ende</title>
<path fill="none" stroke="#88a0d6" d="M593.73,-89.43C603.31,-76.75 616.63,-59.15 627.55,-44.72"/>
<polygon fill="#88a0d6" stroke="#88a0d6" points="630.16,-47.06 633.4,-36.98 624.58,-42.84 630.16,-47.06"/>
<text text-anchor="start" x="619" y="-58.95" font-family="Roboto, sans-serif" font-weight="bold" font-size="14.00">NEIN</text>
</g>
</g>
</svg>
  </g>
</svg>
  </g>
</svg>
