<?xml version='1.0' encoding='ASCII' standalone='yes'?>
<svg xmlns="http://www.w3.org/2000/svg" xmlns:xlink="http://www.w3.org/1999/xlink" version="1.1" width="1920.0px" viewBox="0 0 1920.0 1646.6666666666667" height="1646.6666666666667px">
  <g>
    <svg version="1.1" width="1920.0px" viewBox="0 0 1920.0 1646.6666666666667" height="1646.6666666666667px">
  <polygon fill="#f3f1f6" points="0,0 1920.0,0 1920.0,1646.6666666666667 0,1646.6666666666667"/><g>
    <g transform="translate(301.82190956373825, 164.66666666666663) scale(1 1) translate(0, 0) scale(7.447240765261276 7.447240765261276) "><sodipodi:namedview xmlns:sodipodi="http://sodipodi.sourceforge.net/DTD/sodipodi-0.dtd" xmlns:inkscape="http://www.inkscape.org/namespaces/inkscape" id="namedview7" pagecolor="#ffffff" bordercolor="#999999" borderopacity="1" inkscape:pageshadow="0" inkscape:pageopacity="0" inkscape:pagecheckerboard="0" inkscape:document-units="mm" showgrid="false" fit-margin-top="0" fit-margin-left="0" fit-margin-right="0" fit-margin-bottom="0" inkscape:zoom="0.64052329" inkscape:cx="130.36216" inkscape:cy="412.163" inkscape:window-width="1512" inkscape:window-height="916" inkscape:window-x="3840" inkscape:window-y="136" inkscape:window-maximized="0" inkscape:current-layer="layer1"/>
  <defs id="defs2">
    <clipPath clipPathUnits="userSpaceOnUse" id="clipPath23">
      <path d="M 0,568.156 H 579.236 V 0 H 0 Z" id="path21"/>
    </clipPath>
  </defs>
  <g xmlns:inkscape="http://www.inkscape.org/namespaces/inkscape" inkscape:label="Layer 1" inkscape:groupmode="layer" id="layer1" transform="translate(-16.541937,-55.305267)">
    <g id="g19" clip-path="url(#clipPath23)" transform="matrix(0.35277777,0,0,-0.35277777,0.01017023,243.73675)" style="opacity:0.2">
      <g id="g25" transform="translate(122.444,32.7195)">
        <path d="m 0,0 h -56.104 c -11,0 -19.898,9.123 -19.463,20.115 10.594,267.191 231.277,481.302 501.029,481.302 v -56.02 c 0,-10.98 -8.688,-19.892 -19.658,-20.393 C 180.29,414.697 0,228.005 0,0" style="fill:#6ead83;fill-opacity:0.5;fill-rule:nonzero;stroke:none" id="path27"/>
      </g>
      <g id="g29" transform="translate(273.7828,32.7195)">
        <path d="m 0,0 h -55.926 c -11.228,0 -20.091,9.482 -19.435,20.69 10.744,183.439 163.389,329.388 349.485,329.388 v -56.263 c 0,-10.709 -8.273,-19.617 -18.957,-20.35 C 112.819,263.696 0,144.774 0,0" style="fill:#6ead83;fill-opacity:0.5;fill-rule:nonzero;stroke:none" id="path31"/>
      </g>
      <g id="g33" transform="translate(425.7667,32.7195)">
        <path d="m 0,0 h -55.445 c -11.653,0 -20.604,10.17 -19.334,21.753 10.866,99.032 95.031,176.341 196.919,176.341 v -57.011 c 0,-10.046 -7.283,-18.755 -17.229,-20.165 C 45.688,112.522 0,61.497 0,0" style="fill:#6ead83;fill-opacity:0.5;fill-rule:nonzero;stroke:none" id="path35"/>
      </g>
    </g>
  </g>
</g>
    <svg width="1440pt" height="1235pt" viewBox="0.00 0.00 1440.00 1234.73">
<g id="graph0" class="graph" transform="scale(0.98368 0.98368) rotate(0) translate(4 1251.21)">
<title>D</title>
<text text-anchor="start" x="694.57" y="-1227.11" font-family="Times,serif" font-weight="bold" font-size="18.00">MaBiS</text>
<text text-anchor="start" x="237.82" y="-1197.01" font-family="Times,serif" font-weight="bold" font-size="16.00">7.46.1: AD: Aktivierung eines MaBiS-Z&#228;hlpunkts f&#252;r den Deltazeitreihen&#252;bertrag vom &#220;NB an BIKO und NB</text>
<!-- Start -->
<g id="node1" class="node">
<title>Start</title>
<polygon fill="#7a8da1" stroke="black" points="408.76,-1149.21 234.47,-1149.21 234.47,-1105.93 408.76,-1105.93 408.76,-1149.21"/>
<text text-anchor="start" x="293.49" y="-1128.27" font-family="Times,serif" font-weight="bold" font-size="14.00">E_0027</text>
<text text-anchor="start" x="248.87" y="-1116.17" font-family="Times,serif" font-weight="bold" text-decoration="underline" font-size="12.00">Pr&#252;fende Rolle:</text>
<text text-anchor="start" x="353.87" y="-1116.17" font-family="Times,serif" font-weight="bold" font-size="12.00"> BIKO</text>
</g>
<!-- 1 -->
<g id="node2" class="node">
<title>1</title>
<path fill="#7aab8a" stroke="black" d="M574.14,-1068.93C574.14,-1068.93 69.09,-1068.93 69.09,-1068.93 63.09,-1068.93 57.09,-1062.93 57.09,-1056.93 57.09,-1056.93 57.09,-1044.93 57.09,-1044.93 57.09,-1038.93 63.09,-1032.93 69.09,-1032.93 69.09,-1032.93 574.14,-1032.93 574.14,-1032.93 580.14,-1032.93 586.14,-1038.93 586.14,-1044.93 586.14,-1044.93 586.14,-1056.93 586.14,-1056.93 586.14,-1062.93 580.14,-1068.93 574.14,-1068.93"/>
<text text-anchor="start" x="71.49" y="-1047.25" font-family="Times,serif" font-weight="bold" font-size="14.00">1: </text>
<text text-anchor="start" x="90.99" y="-1047.25" font-family="Times,serif" font-size="14.00">Erfolgt die Aktivierung nach Ablauf der Clearingfrist f&#252;r die KBKA?</text>
</g>
<!-- Start&#45;&gt;1 -->
<g id="edge1" class="edge">
<title>Start-&gt;1</title>
<path fill="none" stroke="black" d="M321.62,-1105.78C321.62,-1097.92 321.62,-1088.84 321.62,-1080.4"/>
<polygon fill="black" stroke="black" points="325.12,-1080.6 321.62,-1070.6 318.12,-1080.6 325.12,-1080.6"/>
</g>
<!-- A01 -->
<g id="node3" class="node">
<title>A01</title>
<polygon fill="#cfb986" stroke="black" points="159.86,-979.68 15.38,-979.68 15.38,-918.16 159.86,-918.16 159.86,-979.68"/>
<text text-anchor="start" x="72.62" y="-961.62" font-family="Times,serif" font-weight="bold" font-size="14.00">A01</text>
<text text-anchor="start" x="27.62" y="-949.52" font-family="Times,serif" text-decoration="underline" font-size="12.00">Hinweis:</text>
<text text-anchor="start" x="27.62" y="-937.52" font-family="Times,serif" font-size="12.00">Cluster: Ablehnung</text>
<text text-anchor="start" x="27.62" y="-925.52" font-family="Times,serif" font-size="12.00">Frist&#252;berschreitung</text>
</g>
<!-- 1&#45;&gt;A01 -->
<g id="edge2" class="edge">
<title>1-&gt;A01</title>
<path fill="none" stroke="black" d="M280.86,-1032.51C249.98,-1019.31 206.55,-1000.75 168.68,-984.57"/>
<polygon fill="black" stroke="black" points="170.12,-981.38 159.55,-980.67 167.37,-987.81 170.12,-981.38"/>
<text text-anchor="middle" x="245.37" y="-1001.63" font-family="Times,serif" font-size="14.00">Ja</text>
</g>
<!-- 2 -->
<g id="node4" class="node">
<title>2</title>
<path fill="#7aab8a" stroke="black" d="M601.27,-966.92C601.27,-966.92 189.96,-966.92 189.96,-966.92 183.96,-966.92 177.96,-960.92 177.96,-954.92 177.96,-954.92 177.96,-942.92 177.96,-942.92 177.96,-936.92 183.96,-930.92 189.96,-930.92 189.96,-930.92 601.27,-930.92 601.27,-930.92 607.27,-930.92 613.27,-936.92 613.27,-942.92 613.27,-942.92 613.27,-954.92 613.27,-954.92 613.27,-960.92 607.27,-966.92 601.27,-966.92"/>
<text text-anchor="start" x="192.37" y="-945.25" font-family="Times,serif" font-weight="bold" font-size="14.00">2: </text>
<text text-anchor="start" x="211.87" y="-945.25" font-family="Times,serif" font-size="14.00">Erfolgt die Aktivierung zum Monatsersten 00:00 Uhr?</text>
</g>
<!-- 1&#45;&gt;2 -->
<g id="edge3" class="edge">
<title>1-&gt;2</title>
<path fill="none" stroke="black" d="M334.5,-1032.51C345.96,-1017.02 362.89,-994.15 376.02,-976.4"/>
<polygon fill="black" stroke="black" points="378.84,-978.48 381.97,-968.36 373.21,-974.31 378.84,-978.48"/>
<text text-anchor="middle" x="375.49" y="-1001.63" font-family="Times,serif" font-size="14.00">Nein</text>
</g>
<!-- A02 -->
<g id="node5" class="node">
<title>A02</title>
<polygon fill="#cfb986" stroke="black" points="273.86,-864.91 39.38,-864.91 39.38,-803.39 273.86,-803.39 273.86,-864.91"/>
<text text-anchor="start" x="141.62" y="-846.85" font-family="Times,serif" font-weight="bold" font-size="14.00">A02</text>
<text text-anchor="start" x="51.62" y="-834.75" font-family="Times,serif" text-decoration="underline" font-size="12.00">Hinweis:</text>
<text text-anchor="start" x="51.62" y="-822.75" font-family="Times,serif" font-size="12.00">Cluster: Ablehnung</text>
<text text-anchor="start" x="51.62" y="-810.75" font-family="Times,serif" font-size="12.00">Gew&#228;hlter Zeitpunkt nicht zul&#228;ssig</text>
</g>
<!-- 2&#45;&gt;A02 -->
<g id="edge4" class="edge">
<title>2-&gt;A02</title>
<path fill="none" stroke="black" d="M358.53,-930.42C324.5,-914.36 273.07,-890.1 230.63,-870.07"/>
<polygon fill="black" stroke="black" points="232.24,-866.96 221.7,-865.86 229.25,-873.29 232.24,-866.96"/>
<text text-anchor="middle" x="306.49" y="-886.86" font-family="Times,serif" font-size="14.00">Nein</text>
</g>
<!-- 3 -->
<g id="node6" class="node">
<title>3</title>
<path fill="#7aab8a" stroke="black" d="M601.26,-852.15C601.26,-852.15 303.97,-852.15 303.97,-852.15 297.97,-852.15 291.97,-846.15 291.97,-840.15 291.97,-840.15 291.97,-828.15 291.97,-828.15 291.97,-822.15 297.97,-816.15 303.97,-816.15 303.97,-816.15 601.26,-816.15 601.26,-816.15 607.26,-816.15 613.26,-822.15 613.26,-828.15 613.26,-828.15 613.26,-840.15 613.26,-840.15 613.26,-846.15 607.26,-852.15 601.26,-852.15"/>
<text text-anchor="start" x="306.37" y="-830.48" font-family="Times,serif" font-weight="bold" font-size="14.00">3: </text>
<text text-anchor="start" x="325.87" y="-830.48" font-family="Times,serif" font-size="14.00">Ist die richtige Regelzone angegeben?</text>
</g>
<!-- 2&#45;&gt;3 -->
<g id="edge5" class="edge">
<title>2-&gt;3</title>
<path fill="none" stroke="black" d="M404.27,-930.79C413.44,-912.66 428.04,-883.78 438.8,-862.49"/>
<polygon fill="black" stroke="black" points="441.81,-864.29 443.19,-853.79 435.56,-861.14 441.81,-864.29"/>
<text text-anchor="middle" x="433.37" y="-886.86" font-family="Times,serif" font-size="14.00">Ja</text>
</g>
<!-- A03 -->
<g id="node7" class="node">
<title>A03</title>
<polygon fill="#cfb986" stroke="black" points="282.61,-750.14 142.62,-750.14 142.62,-688.62 282.61,-688.62 282.61,-750.14"/>
<text text-anchor="start" x="197.62" y="-732.08" font-family="Times,serif" font-weight="bold" font-size="14.00">A03</text>
<text text-anchor="start" x="154.87" y="-719.98" font-family="Times,serif" text-decoration="underline" font-size="12.00">Hinweis:</text>
<text text-anchor="start" x="154.87" y="-707.98" font-family="Times,serif" font-size="12.00">Cluster: Ablehnung</text>
<text text-anchor="start" x="154.87" y="-695.98" font-family="Times,serif" font-size="12.00">Regelzone falsch</text>
</g>
<!-- 3&#45;&gt;A03 -->
<g id="edge6" class="edge">
<title>3-&gt;A03</title>
<path fill="none" stroke="black" d="M415.38,-815.65C381.2,-799.59 329.55,-775.33 286.94,-755.3"/>
<polygon fill="black" stroke="black" points="288.51,-752.17 277.97,-751.09 285.53,-758.51 288.51,-752.17"/>
<text text-anchor="middle" x="363.49" y="-772.09" font-family="Times,serif" font-size="14.00">Nein</text>
</g>
<!-- 4 -->
<g id="node8" class="node">
<title>4</title>
<path fill="#7aab8a" stroke="black" d="M960.39,-737.38C960.39,-737.38 312.84,-737.38 312.84,-737.38 306.84,-737.38 300.84,-731.38 300.84,-725.38 300.84,-725.38 300.84,-713.38 300.84,-713.38 300.84,-707.38 306.84,-701.38 312.84,-701.38 312.84,-701.38 960.39,-701.38 960.39,-701.38 966.39,-701.38 972.39,-707.38 972.39,-713.38 972.39,-713.38 972.39,-725.38 972.39,-725.38 972.39,-731.38 966.39,-737.38 960.39,-737.38"/>
<text text-anchor="start" x="315.24" y="-715.71" font-family="Times,serif" font-weight="bold" font-size="14.00">4: </text>
<text text-anchor="start" x="334.74" y="-715.71" font-family="Times,serif" font-size="14.00">Ist das Bilanzierungsgebiet zum Aktivierungsbeginn in der Regelzone des BIKO g&#252;ltig?</text>
</g>
<!-- 3&#45;&gt;4 -->
<g id="edge7" class="edge">
<title>3-&gt;4</title>
<path fill="none" stroke="black" d="M480.96,-815.78C512.57,-796.41 563.83,-764.99 598.83,-743.54"/>
<polygon fill="black" stroke="black" points="600.25,-746.77 606.95,-738.56 596.59,-740.81 600.25,-746.77"/>
<text text-anchor="middle" x="562.37" y="-772.09" font-family="Times,serif" font-size="14.00">Ja</text>
</g>
<!-- A04 -->
<g id="node9" class="node">
<title>A04</title>
<polygon fill="#cfb986" stroke="black" points="265.48,-635.37 49.75,-635.37 49.75,-573.85 265.48,-573.85 265.48,-635.37"/>
<text text-anchor="start" x="142.62" y="-617.31" font-family="Times,serif" font-weight="bold" font-size="14.00">A04</text>
<text text-anchor="start" x="61.99" y="-605.21" font-family="Times,serif" text-decoration="underline" font-size="12.00">Hinweis:</text>
<text text-anchor="start" x="61.99" y="-593.21" font-family="Times,serif" font-size="12.00">Cluster: Ablehnung</text>
<text text-anchor="start" x="61.99" y="-581.21" font-family="Times,serif" font-size="12.00">Bilanzierungsgebiet nicht g&#252;ltig</text>
</g>
<!-- 4&#45;&gt;A04 -->
<g id="edge8" class="edge">
<title>4-&gt;A04</title>
<path fill="none" stroke="black" d="M558.11,-700.94C487.21,-685.06 379.72,-660.67 276.86,-635.9"/>
<polygon fill="black" stroke="black" points="277.97,-632.56 267.43,-633.62 276.33,-639.37 277.97,-632.56"/>
<text text-anchor="middle" x="439.49" y="-657.32" font-family="Times,serif" font-size="14.00">Nein</text>
</g>
<!-- 5 -->
<g id="node10" class="node">
<title>5</title>
<path fill="#7aab8a" stroke="black" d="M1365.51,-622.61C1365.51,-622.61 295.72,-622.61 295.72,-622.61 289.72,-622.61 283.72,-616.61 283.72,-610.61 283.72,-610.61 283.72,-598.61 283.72,-598.61 283.72,-592.61 289.72,-586.61 295.72,-586.61 295.72,-586.61 1365.51,-586.61 1365.51,-586.61 1371.51,-586.61 1377.51,-592.61 1377.51,-598.61 1377.51,-598.61 1377.51,-610.61 1377.51,-610.61 1377.51,-616.61 1371.51,-622.61 1365.51,-622.61"/>
<text text-anchor="start" x="298.12" y="-600.94" font-family="Times,serif" font-weight="bold" font-size="14.00">5: </text>
<text text-anchor="start" x="317.62" y="-600.94" font-family="Times,serif" font-size="14.00">Existiert bereits ein abweichendes Tupel aus Aggregationsverantwortlicher, Bilanzierungsgebiet, Regelzone und ZRT unter der ID des MaBiS-ZP?</text>
</g>
<!-- 4&#45;&gt;5 -->
<g id="edge9" class="edge">
<title>4-&gt;5</title>
<path fill="none" stroke="black" d="M666.5,-701.01C699.83,-681.64 753.88,-650.22 790.77,-628.77"/>
<polygon fill="black" stroke="black" points="792.5,-631.82 799.39,-623.76 788.98,-625.76 792.5,-631.82"/>
<text text-anchor="middle" x="751.37" y="-657.32" font-family="Times,serif" font-size="14.00">Ja</text>
</g>
<!-- A05 -->
<g id="node11" class="node">
<title>A05</title>
<polygon fill="#cfb986" stroke="black" points="289.23,-520.6 0,-520.6 0,-459.08 289.23,-459.08 289.23,-520.6"/>
<text text-anchor="start" x="129.62" y="-502.54" font-family="Times,serif" font-weight="bold" font-size="14.00">A05</text>
<text text-anchor="start" x="12.24" y="-490.44" font-family="Times,serif" text-decoration="underline" font-size="12.00">Hinweis:</text>
<text text-anchor="start" x="12.24" y="-478.44" font-family="Times,serif" font-size="12.00">Cluster: Ablehnung</text>
<text text-anchor="start" x="12.24" y="-466.44" font-family="Times,serif" font-size="12.00">Abweichender MaBiS-ZP bereits vorhanden</text>
</g>
<!-- 5&#45;&gt;A05 -->
<g id="edge10" class="edge">
<title>5-&gt;A05</title>
<path fill="none" stroke="black" d="M710.51,-586.13C605.18,-570.52 447.65,-546.45 300.69,-520.94"/>
<polygon fill="black" stroke="black" points="301.62,-517.55 291.17,-519.28 300.42,-524.45 301.62,-517.55"/>
<text text-anchor="middle" x="509.37" y="-542.55" font-family="Times,serif" font-size="14.00">Ja</text>
</g>
<!-- 6 -->
<g id="node12" class="node">
<title>6</title>
<path fill="#7aab8a" stroke="black" d="M1443.89,-507.84C1443.89,-507.84 319.34,-507.84 319.34,-507.84 313.34,-507.84 307.34,-501.84 307.34,-495.84 307.34,-495.84 307.34,-483.84 307.34,-483.84 307.34,-477.84 313.34,-471.84 319.34,-471.84 319.34,-471.84 1443.89,-471.84 1443.89,-471.84 1449.89,-471.84 1455.89,-477.84 1455.89,-483.84 1455.89,-483.84 1455.89,-495.84 1455.89,-495.84 1455.89,-501.84 1449.89,-507.84 1443.89,-507.84"/>
<text text-anchor="start" x="321.74" y="-486.16" font-family="Times,serif" font-weight="bold" font-size="14.00">6: </text>
<text text-anchor="start" x="341.24" y="-486.16" font-family="Times,serif" font-size="14.00">Existiert bereits f&#252;r das genannte Tupel aus Aggregationsverantwortlicher, Bilanzierungsgebiet, Regelzone und ZRT eine abweichende ID des MaBiS-ZP?</text>
</g>
<!-- 5&#45;&gt;6 -->
<g id="edge11" class="edge">
<title>5-&gt;6</title>
<path fill="none" stroke="black" d="M838.36,-586.48C846.52,-568.43 859.51,-539.73 869.12,-518.47"/>
<polygon fill="black" stroke="black" points="872.24,-520.06 873.17,-509.51 865.86,-517.18 872.24,-520.06"/>
<text text-anchor="middle" x="875.49" y="-542.55" font-family="Times,serif" font-size="14.00">Nein</text>
</g>
<!-- A06 -->
<g id="node13" class="node">
<title>A06</title>
<polygon fill="#cfb986" stroke="black" points="839.36,-405.83 505.88,-405.83 505.88,-344.31 839.36,-344.31 839.36,-405.83"/>
<text text-anchor="start" x="657.62" y="-387.77" font-family="Times,serif" font-weight="bold" font-size="14.00">A06</text>
<text text-anchor="start" x="518.12" y="-375.67" font-family="Times,serif" text-decoration="underline" font-size="12.00">Hinweis:</text>
<text text-anchor="start" x="518.12" y="-363.67" font-family="Times,serif" font-size="12.00">Cluster: Ablehnung</text>
<text text-anchor="start" x="518.12" y="-351.67" font-family="Times,serif" font-size="12.00">Abweichende ID zum MaBiS-ZP bereits vor-handen</text>
</g>
<!-- 6&#45;&gt;A06 -->
<g id="edge12" class="edge">
<title>6-&gt;A06</title>
<path fill="none" stroke="black" d="M849.42,-471.47C819.88,-455.53 775.23,-431.44 738.19,-411.45"/>
<polygon fill="black" stroke="black" points="740.25,-408.59 729.79,-406.92 736.93,-414.75 740.25,-408.59"/>
<text text-anchor="middle" x="796.37" y="-427.78" font-family="Times,serif" font-size="14.00">Ja</text>
</g>
<!-- 7 -->
<g id="node14" class="node">
<title>7</title>
<path fill="#7aab8a" stroke="black" d="M1244.27,-393.07C1244.27,-393.07 868.97,-393.07 868.97,-393.07 862.97,-393.07 856.97,-387.07 856.97,-381.07 856.97,-381.07 856.97,-369.07 856.97,-369.07 856.97,-363.07 862.97,-357.07 868.97,-357.07 868.97,-357.07 1244.27,-357.07 1244.27,-357.07 1250.27,-357.07 1256.27,-363.07 1256.27,-369.07 1256.27,-369.07 1256.27,-381.07 1256.27,-381.07 1256.27,-387.07 1250.27,-393.07 1244.27,-393.07"/>
<text text-anchor="start" x="871.37" y="-371.39" font-family="Times,serif" font-weight="bold" font-size="14.00">7: </text>
<text text-anchor="start" x="890.87" y="-371.39" font-family="Times,serif" font-size="14.00">Ist der &#220;NB zur Aktivierung des ZRT berechtigt?</text>
</g>
<!-- 6&#45;&gt;7 -->
<g id="edge13" class="edge">
<title>6-&gt;7</title>
<path fill="none" stroke="black" d="M908.58,-471.47C938.51,-452.18 986.97,-420.95 1020.25,-399.51"/>
<polygon fill="black" stroke="black" points="1021.84,-402.64 1028.35,-394.28 1018.05,-396.76 1021.84,-402.64"/>
<text text-anchor="middle" x="995.49" y="-427.78" font-family="Times,serif" font-size="14.00">Nein</text>
</g>
<!-- A07 -->
<g id="node15" class="node">
<title>A07</title>
<polygon fill="#cfb986" stroke="black" points="977.23,-291.06 754,-291.06 754,-229.54 977.23,-229.54 977.23,-291.06"/>
<text text-anchor="start" x="850.62" y="-273" font-family="Times,serif" font-weight="bold" font-size="14.00">A07</text>
<text text-anchor="start" x="766.24" y="-260.9" font-family="Times,serif" text-decoration="underline" font-size="12.00">Hinweis:</text>
<text text-anchor="start" x="766.24" y="-248.9" font-family="Times,serif" font-size="12.00">Cluster: Ablehnung</text>
<text text-anchor="start" x="766.24" y="-236.9" font-family="Times,serif" font-size="12.00">ZRT Aktivierung nicht berechtigt</text>
</g>
<!-- 7&#45;&gt;A07 -->
<g id="edge14" class="edge">
<title>7-&gt;A07</title>
<path fill="none" stroke="black" d="M1027.19,-356.7C1000.43,-340.9 960.09,-317.08 926.41,-297.19"/>
<polygon fill="black" stroke="black" points="928.34,-294.27 917.95,-292.2 924.78,-300.3 928.34,-294.27"/>
<text text-anchor="middle" x="988.49" y="-313.01" font-family="Times,serif" font-size="14.00">Nein</text>
</g>
<!-- 8 -->
<g id="node16" class="node">
<title>8</title>
<path fill="#7aab8a" stroke="black" d="M1282.39,-278.3C1282.39,-278.3 1006.84,-278.3 1006.84,-278.3 1000.84,-278.3 994.84,-272.3 994.84,-266.3 994.84,-266.3 994.84,-254.3 994.84,-254.3 994.84,-248.3 1000.84,-242.3 1006.84,-242.3 1006.84,-242.3 1282.39,-242.3 1282.39,-242.3 1288.39,-242.3 1294.39,-248.3 1294.39,-254.3 1294.39,-254.3 1294.39,-266.3 1294.39,-266.3 1294.39,-272.3 1288.39,-278.3 1282.39,-278.3"/>
<text text-anchor="start" x="1009.24" y="-256.62" font-family="Times,serif" font-weight="bold" font-size="14.00">8: </text>
<text text-anchor="start" x="1028.74" y="-256.62" font-family="Times,serif" font-size="14.00">Passt die OBIS-Kennzahl zum ZRT?</text>
</g>
<!-- 7&#45;&gt;8 -->
<g id="edge15" class="edge">
<title>7-&gt;8</title>
<path fill="none" stroke="black" d="M1069.98,-356.94C1084.39,-338.48 1107.5,-308.87 1124.19,-287.48"/>
<polygon fill="black" stroke="black" points="1126.8,-289.82 1130.19,-279.78 1121.28,-285.51 1126.8,-289.82"/>
<text text-anchor="middle" x="1112.37" y="-313.01" font-family="Times,serif" font-size="14.00">Ja</text>
</g>
<!-- A08 -->
<g id="node17" class="node">
<title>A08</title>
<polygon fill="#cfb986" stroke="black" points="908.73,-176.29 766.5,-176.29 766.5,-114.77 908.73,-114.77 908.73,-176.29"/>
<text text-anchor="start" x="822.62" y="-158.23" font-family="Times,serif" font-weight="bold" font-size="14.00">A08</text>
<text text-anchor="start" x="778.74" y="-146.13" font-family="Times,serif" text-decoration="underline" font-size="12.00">Hinweis:</text>
<text text-anchor="start" x="778.74" y="-134.13" font-family="Times,serif" font-size="12.00">Cluster: Ablehnung</text>
<text text-anchor="start" x="778.74" y="-122.13" font-family="Times,serif" font-size="12.00">OBIS nicht passend</text>
</g>
<!-- 8&#45;&gt;A08 -->
<g id="edge16" class="edge">
<title>8-&gt;A08</title>
<path fill="none" stroke="black" d="M1096.76,-241.89C1053.13,-225.99 986.61,-201.71 919.85,-177.11"/>
<polygon fill="black" stroke="black" points="921.15,-173.86 910.56,-173.68 918.73,-180.43 921.15,-173.86"/>
<text text-anchor="middle" x="1027.49" y="-198.24" font-family="Times,serif" font-size="14.00">Nein</text>
</g>
<!-- 9 -->
<g id="node18" class="node">
<title>9</title>
<path fill="#7aab8a" stroke="black" d="M1438.51,-163.53C1438.51,-163.53 938.72,-163.53 938.72,-163.53 932.72,-163.53 926.72,-157.53 926.72,-151.53 926.72,-151.53 926.72,-139.53 926.72,-139.53 926.72,-133.53 932.72,-127.53 938.72,-127.53 938.72,-127.53 1438.51,-127.53 1438.51,-127.53 1444.51,-127.53 1450.51,-133.53 1450.51,-139.53 1450.51,-139.53 1450.51,-151.53 1450.51,-151.53 1450.51,-157.53 1444.51,-163.53 1438.51,-163.53"/>
<text text-anchor="start" x="941.12" y="-141.85" font-family="Times,serif" font-weight="bold" font-size="14.00">9: </text>
<text text-anchor="start" x="960.62" y="-141.85" font-family="Times,serif" font-size="14.00">Ist der MaBiS-ZP zum Zeitpunkt der Aktivierung bereits aktiviert?</text>
</g>
<!-- 8&#45;&gt;9 -->
<g id="edge17" class="edge">
<title>8-&gt;9</title>
<path fill="none" stroke="black" d="M1151.3,-242.17C1158.31,-224.21 1169.44,-195.68 1177.72,-174.45"/>
<polygon fill="black" stroke="black" points="1180.94,-175.82 1181.32,-165.23 1174.42,-173.27 1180.94,-175.82"/>
<text text-anchor="middle" x="1175.37" y="-198.24" font-family="Times,serif" font-size="14.00">Ja</text>
</g>
<!-- A09 -->
<g id="node19" class="node">
<title>A09</title>
<polygon fill="#cfb986" stroke="black" points="1170.48,-61.52 984.75,-61.52 984.75,0 1170.48,0 1170.48,-61.52"/>
<text text-anchor="start" x="1062.62" y="-43.46" font-family="Times,serif" font-weight="bold" font-size="14.00">A09</text>
<text text-anchor="start" x="996.99" y="-31.36" font-family="Times,serif" text-decoration="underline" font-size="12.00">Hinweis:</text>
<text text-anchor="start" x="996.99" y="-19.36" font-family="Times,serif" font-size="12.00">Cluster: Ablehnung</text>
<text text-anchor="start" x="996.99" y="-7.36" font-family="Times,serif" font-size="12.00">MaBiS-ZP bereits aktiviert</text>
</g>
<!-- 9&#45;&gt;A09 -->
<g id="edge18" class="edge">
<title>9-&gt;A09</title>
<path fill="none" stroke="black" d="M1171.76,-127.4C1156.79,-112.2 1134.39,-89.44 1115.19,-69.93"/>
<polygon fill="black" stroke="black" points="1117.76,-67.55 1108.25,-62.88 1112.77,-72.46 1117.76,-67.55"/>
<text text-anchor="middle" x="1146.37" y="-83.47" font-family="Times,serif" font-size="14.00">Ja</text>
</g>
<!-- A10 -->
<g id="node20" class="node">
<title>A10</title>
<polygon fill="#cfb986" stroke="black" points="1366.73,-61.52 1188.5,-61.52 1188.5,0 1366.73,0 1366.73,-61.52"/>
<text text-anchor="start" x="1262.62" y="-43.46" font-family="Times,serif" font-weight="bold" font-size="14.00">A10</text>
<text text-anchor="start" x="1200.74" y="-31.36" font-family="Times,serif" text-decoration="underline" font-size="12.00">Hinweis:</text>
<text text-anchor="start" x="1200.74" y="-19.36" font-family="Times,serif" font-size="12.00">Cluster: Zustimmung </text>
<text text-anchor="start" x="1200.74" y="-7.36" font-family="Times,serif" font-size="12.00">Aktivierung durchgef&#252;hrt</text>
</g>
<!-- 9&#45;&gt;A10 -->
<g id="edge19" class="edge">
<title>9-&gt;A10</title>
<path fill="none" stroke="black" d="M1202.13,-127.4C1213.97,-112.4 1231.62,-90.04 1246.87,-70.72"/>
<polygon fill="black" stroke="black" points="1249.52,-73.01 1252.97,-62.99 1244.02,-68.67 1249.52,-73.01"/>
<text text-anchor="middle" x="1254.49" y="-83.47" font-family="Times,serif" font-size="14.00">Nein</text>
</g>
</g>
</svg>
  </g>
</svg>
  </g>
</svg>
