<?xml version='1.0' encoding='ASCII' standalone='yes'?>
<svg xmlns="http://www.w3.org/2000/svg" xmlns:xlink="http://www.w3.org/1999/xlink" version="1.1" width="1920.0px" viewBox="0 0 1920.0 644.0" height="644.0px">
  <g>
    <svg version="1.1" width="1920.0px" viewBox="0 0 1920.0 644.0" height="644.0px">
  <polygon fill="#f3f1f6" points="0,0 1920.0,0 1920.0,644.0 0,644.0"/><g>
    <g transform="translate(702.591078801041, 64.39999999999999) scale(1 1) translate(0, 0) scale(2.912564606980726 2.912564606980726) "><sodipodi:namedview xmlns:sodipodi="http://sodipodi.sourceforge.net/DTD/sodipodi-0.dtd" xmlns:inkscape="http://www.inkscape.org/namespaces/inkscape" id="namedview7" pagecolor="#ffffff" bordercolor="#999999" borderopacity="1" inkscape:pageshadow="0" inkscape:pageopacity="0" inkscape:pagecheckerboard="0" inkscape:document-units="mm" showgrid="false" fit-margin-top="0" fit-margin-left="0" fit-margin-right="0" fit-margin-bottom="0" inkscape:zoom="0.64052329" inkscape:cx="130.36216" inkscape:cy="412.163" inkscape:window-width="1512" inkscape:window-height="916" inkscape:window-x="3840" inkscape:window-y="136" inkscape:window-maximized="0" inkscape:current-layer="layer1"/>
  <defs id="defs2">
    <clipPath clipPathUnits="userSpaceOnUse" id="clipPath23">
      <path d="M 0,568.156 H 579.236 V 0 H 0 Z" id="path21"/>
    </clipPath>
  </defs>
  <g xmlns:inkscape="http://www.inkscape.org/namespaces/inkscape" inkscape:label="Layer 1" inkscape:groupmode="layer" id="layer1" transform="translate(-16.541937,-55.305267)">
    <g id="g19" clip-path="url(#clipPath23)" transform="matrix(0.35277777,0,0,-0.35277777,0.01017023,243.73675)" style="opacity:0.2">
      <g id="g25" transform="translate(122.444,32.7195)">
        <path d="m 0,0 h -56.104 c -11,0 -19.898,9.123 -19.463,20.115 10.594,267.191 231.277,481.302 501.029,481.302 v -56.02 c 0,-10.98 -8.688,-19.892 -19.658,-20.393 C 180.29,414.697 0,228.005 0,0" style="fill:#6ead83;fill-opacity:0.5;fill-rule:nonzero;stroke:none" id="path27"/>
      </g>
      <g id="g29" transform="translate(273.7828,32.7195)">
        <path d="m 0,0 h -55.926 c -11.228,0 -20.091,9.482 -19.435,20.69 10.744,183.439 163.389,329.388 349.485,329.388 v -56.263 c 0,-10.709 -8.273,-19.617 -18.957,-20.35 C 112.819,263.696 0,144.774 0,0" style="fill:#6ead83;fill-opacity:0.5;fill-rule:nonzero;stroke:none" id="path31"/>
      </g>
      <g id="g33" transform="translate(425.7667,32.7195)">
        <path d="m 0,0 h -55.445 c -11.653,0 -20.604,10.17 -19.334,21.753 10.866,99.032 95.031,176.341 196.919,176.341 v -57.011 c 0,-10.046 -7.283,-18.755 -17.229,-20.165 C 45.688,112.522 0,61.497 0,0" style="fill:#6ead83;fill-opacity:0.5;fill-rule:nonzero;stroke:none" id="path35"/>
      </g>
    </g>
  </g>
</g>
    <svg width="1440pt" height="483pt" viewBox="0.00 0.00 1440.00 483.04">
<g id="graph0" class="graph" transform="scale(0.585235 0.585235) rotate(0) translate(4 821.38)">
<title>D</title>
<text text-anchor="start" x="1192.9" y="-797.28" font-family="Times,serif" font-weight="bold" font-size="18.00">MaBiS</text>
<text text-anchor="start" x="808.15" y="-767.18" font-family="Times,serif" font-weight="bold" font-size="16.00">7.11.1: AD: &#220;bermittlung von normierten Profilen und Profilscharen vom NB an LF bzw. &#220;NB</text>
<!-- Start -->
<g id="node1" class="node">
<title>Start</title>
<polygon fill="#7a8da1" stroke="black" points="641.93,-719.38 487.13,-719.38 487.13,-676.1 641.93,-676.1 641.93,-719.38"/>
<text text-anchor="start" x="536.4" y="-698.44" font-family="Times,serif" font-weight="bold" font-size="14.00">E_0100</text>
<text text-anchor="start" x="501.53" y="-686.34" font-family="Times,serif" font-weight="bold" text-decoration="underline" font-size="12.00">Pr&#252;fende Rolle:</text>
<text text-anchor="start" x="606.53" y="-686.34" font-family="Times,serif" font-weight="bold" font-size="12.00"> LF</text>
</g>
<!-- 1 -->
<g id="node2" class="node">
<title>1</title>
<path fill="#7aab8a" stroke="black" d="M1031.55,-639.1C1031.55,-639.1 97.5,-639.1 97.5,-639.1 91.5,-639.1 85.5,-633.1 85.5,-627.1 85.5,-627.1 85.5,-615.1 85.5,-615.1 85.5,-609.1 91.5,-603.1 97.5,-603.1 97.5,-603.1 1031.55,-603.1 1031.55,-603.1 1037.55,-603.1 1043.55,-609.1 1043.55,-615.1 1043.55,-615.1 1043.55,-627.1 1043.55,-627.1 1043.55,-633.1 1037.55,-639.1 1031.55,-639.1"/>
<text text-anchor="start" x="99.9" y="-617.43" font-family="Times,serif" font-weight="bold" font-size="14.00">1: </text>
<text text-anchor="start" x="119.4" y="-617.43" font-family="Times,serif" font-size="14.00">Geh&#246;rt das empfangene Profil bzw. die Profilschar zu einer zuvor abonnierten Profilgruppe aus der Liste der Profildefinitionen?</text>
</g>
<!-- Start&#45;&gt;1 -->
<g id="edge1" class="edge">
<title>Start-&gt;1</title>
<path fill="none" stroke="black" d="M564.53,-675.95C564.53,-668.09 564.53,-659.01 564.53,-650.57"/>
<polygon fill="black" stroke="black" points="568.03,-650.77 564.53,-640.77 561.03,-650.77 568.03,-650.77"/>
</g>
<!-- A01 -->
<g id="node3" class="node">
<title>A01</title>
<polygon fill="#cfb986" stroke="black" points="614.89,-549.85 132.16,-549.85 132.16,-500.33 614.89,-500.33 614.89,-549.85"/>
<text text-anchor="start" x="358.53" y="-531.79" font-family="Times,serif" font-weight="bold" font-size="14.00">A01</text>
<text text-anchor="start" x="144.4" y="-519.69" font-family="Times,serif" text-decoration="underline" font-size="12.00">Hinweis:</text>
<text text-anchor="start" x="144.4" y="-507.69" font-family="Times,serif" font-size="12.00">Profil bzw. Profilschar geh&#246;rt nicht zu einer zuvor abonnierten Profilgruppe</text>
</g>
<!-- 1&#45;&gt;A01 -->
<g id="edge2" class="edge">
<title>1-&gt;A01</title>
<path fill="none" stroke="black" d="M529.05,-602.64C501.98,-589.32 464.11,-570.67 432.51,-555.12"/>
<polygon fill="black" stroke="black" points="434.37,-552.14 423.85,-550.86 431.28,-558.42 434.37,-552.14"/>
<text text-anchor="middle" x="508.4" y="-571.8" font-family="Times,serif" font-size="14.00">Nein</text>
</g>
<!-- 2 -->
<g id="node4" class="node">
<title>2</title>
<path fill="#7aab8a" stroke="black" d="M923.8,-543.09C923.8,-543.09 645.25,-543.09 645.25,-543.09 639.25,-543.09 633.25,-537.09 633.25,-531.09 633.25,-531.09 633.25,-519.09 633.25,-519.09 633.25,-513.09 639.25,-507.09 645.25,-507.09 645.25,-507.09 923.8,-507.09 923.8,-507.09 929.8,-507.09 935.8,-513.09 935.8,-519.09 935.8,-519.09 935.8,-531.09 935.8,-531.09 935.8,-537.09 929.8,-543.09 923.8,-543.09"/>
<text text-anchor="start" x="647.65" y="-521.42" font-family="Times,serif" font-weight="bold" font-size="14.00">2: </text>
<text text-anchor="start" x="667.15" y="-521.42" font-family="Times,serif" font-size="14.00">Wurde eine Profilschar empfangen?</text>
</g>
<!-- 1&#45;&gt;2 -->
<g id="edge3" class="edge">
<title>1-&gt;2</title>
<path fill="none" stroke="black" d="M605.39,-602.64C641.66,-587.14 694.81,-564.43 733.79,-547.77"/>
<polygon fill="black" stroke="black" points="734.67,-551.2 742.49,-544.05 731.92,-544.76 734.67,-551.2"/>
<text text-anchor="middle" x="687.28" y="-571.8" font-family="Times,serif" font-size="14.00">Ja</text>
</g>
<!-- 3 -->
<g id="node5" class="node">
<title>3</title>
<path fill="#7aab8a" stroke="black" d="M1159.05,-447.08C1159.05,-447.08 12,-447.08 12,-447.08 6,-447.08 0,-441.08 0,-435.08 0,-435.08 0,-423.08 0,-423.08 0,-417.08 6,-411.08 12,-411.08 12,-411.08 1159.05,-411.08 1159.05,-411.08 1165.05,-411.08 1171.05,-417.08 1171.05,-423.08 1171.05,-423.08 1171.05,-435.08 1171.05,-435.08 1171.05,-441.08 1165.05,-447.08 1159.05,-447.08"/>
<text text-anchor="start" x="14.4" y="-425.4" font-family="Times,serif" font-weight="bold" font-size="14.00">3: </text>
<text text-anchor="start" x="33.9" y="-425.4" font-family="Times,serif" font-size="14.00">Ist die &#252;bermittelte Version des Profils f&#252;r den &#252;bermittelten Zeitraum h&#246;her als die bisher h&#246;chste verarbeitete Version des Profils des gleichen Zeitraums?</text>
</g>
<!-- 2&#45;&gt;3 -->
<g id="edge4" class="edge">
<title>2-&gt;3</title>
<path fill="none" stroke="black" d="M747.56,-506.63C715.03,-491.26 667.5,-468.8 632.32,-452.19"/>
<polygon fill="black" stroke="black" points="634.2,-449.2 623.66,-448.1 631.21,-455.53 634.2,-449.2"/>
<text text-anchor="middle" x="707.4" y="-469.03" font-family="Times,serif" font-size="14.00">Nein</text>
</g>
<!-- 4 -->
<g id="node8" class="node">
<title>4</title>
<path fill="#7aab8a" stroke="black" d="M2440.18,-447.08C2440.18,-447.08 1200.88,-447.08 1200.88,-447.08 1194.88,-447.08 1188.88,-441.08 1188.88,-435.08 1188.88,-435.08 1188.88,-423.08 1188.88,-423.08 1188.88,-417.08 1194.88,-411.08 1200.88,-411.08 1200.88,-411.08 2440.18,-411.08 2440.18,-411.08 2446.18,-411.08 2452.18,-417.08 2452.18,-423.08 2452.18,-423.08 2452.18,-435.08 2452.18,-435.08 2452.18,-441.08 2446.18,-447.08 2440.18,-447.08"/>
<text text-anchor="start" x="1203.28" y="-425.4" font-family="Times,serif" font-weight="bold" font-size="14.00">4: </text>
<text text-anchor="start" x="1222.78" y="-425.4" font-family="Times,serif" font-size="14.00">Ist die &#252;bermittelte Version der Profilschar f&#252;r den &#252;bermittelten Beginnzeitpunkt h&#246;her als die bisher h&#246;chste verarbeitete Version der Profilschar zu diesem Zeitpunkt?</text>
</g>
<!-- 2&#45;&gt;4 -->
<g id="edge5" class="edge">
<title>2-&gt;4</title>
<path fill="none" stroke="black" d="M936.28,-510.32C1116.1,-494 1416.48,-466.74 1616.53,-448.59"/>
<polygon fill="black" stroke="black" points="1616.61,-452.1 1626.26,-447.71 1615.98,-445.13 1616.61,-452.1"/>
<text text-anchor="middle" x="1432.28" y="-469.03" font-family="Times,serif" font-size="14.00">Ja</text>
</g>
<!-- A02 -->
<g id="node6" class="node">
<title>A02</title>
<polygon fill="#cfb986" stroke="black" points="353.39,-357.83 113.66,-357.83 113.66,-308.31 353.39,-308.31 353.39,-357.83"/>
<text text-anchor="start" x="218.53" y="-339.77" font-family="Times,serif" font-weight="bold" font-size="14.00">A02</text>
<text text-anchor="start" x="125.9" y="-327.67" font-family="Times,serif" text-decoration="underline" font-size="12.00">Hinweis:</text>
<text text-anchor="start" x="125.9" y="-315.67" font-family="Times,serif" font-size="12.00">Version des Profils nicht zugelassen</text>
</g>
<!-- 3&#45;&gt;A02 -->
<g id="edge6" class="edge">
<title>3-&gt;A02</title>
<path fill="none" stroke="black" d="M398.97,-410.59C376.69,-406.03 354.51,-400.3 333.78,-393.08 313.85,-386.14 293.48,-375.03 276.36,-364.32"/>
<polygon fill="black" stroke="black" points="278.26,-361.38 267.96,-358.91 274.47,-367.26 278.26,-361.38"/>
<text text-anchor="middle" x="350.4" y="-379.78" font-family="Times,serif" font-size="14.00">Nein</text>
</g>
<!-- Ende -->
<g id="node7" class="node">
<title>Ende</title>
<polygon fill="#7a8da1" stroke="black" points="914.3,-42.76 848.75,-42.76 848.75,-6.76 914.3,-6.76 914.3,-42.76"/>
<text text-anchor="middle" x="881.53" y="-20.08" font-family="Times,serif" font-size="14.00">Ende</text>
</g>
<!-- 3&#45;&gt;Ende -->
<g id="edge7" class="edge">
<title>3-&gt;Ende</title>
<path fill="none" stroke="black" d="M454.31,-410.62C414.71,-397.41 381.53,-374.33 381.53,-334.07 381.53,-334.07 381.53,-334.07 381.53,-126.53 381.53,-33.99 714.81,-25.39 837.17,-25.35"/>
<polygon fill="black" stroke="black" points="836.81,-28.84 846.82,-25.36 836.82,-21.84 836.81,-28.84"/>
<text text-anchor="middle" x="388.28" y="-225.62" font-family="Times,serif" font-size="14.00">Ja</text>
</g>
<!-- A03 -->
<g id="node9" class="node">
<title>A03</title>
<polygon fill="#cfb986" stroke="black" points="1201.27,-357.83 933.79,-357.83 933.79,-308.31 1201.27,-308.31 1201.27,-357.83"/>
<text text-anchor="start" x="1052.53" y="-339.77" font-family="Times,serif" font-weight="bold" font-size="14.00">A03</text>
<text text-anchor="start" x="946.03" y="-327.67" font-family="Times,serif" text-decoration="underline" font-size="12.00">Hinweis:</text>
<text text-anchor="start" x="946.03" y="-315.67" font-family="Times,serif" font-size="12.00">Version der Profilschar nicht zugelassen</text>
</g>
<!-- 4&#45;&gt;A03 -->
<g id="edge8" class="edge">
<title>4-&gt;A03</title>
<path fill="none" stroke="black" d="M1648.67,-410.61C1529.16,-397.9 1365.91,-379.46 1212.49,-358.08"/>
<polygon fill="black" stroke="black" points="1213.35,-354.66 1202.96,-356.74 1212.38,-361.6 1213.35,-354.66"/>
<text text-anchor="middle" x="1494.4" y="-379.78" font-family="Times,serif" font-size="14.00">Nein</text>
</g>
<!-- 5 -->
<g id="node10" class="node">
<title>5</title>
<path fill="#7aab8a" stroke="black" d="M2389.68,-351.07C2389.68,-351.07 1231.38,-351.07 1231.38,-351.07 1225.38,-351.07 1219.38,-345.07 1219.38,-339.07 1219.38,-339.07 1219.38,-327.07 1219.38,-327.07 1219.38,-321.07 1225.38,-315.07 1231.38,-315.07 1231.38,-315.07 2389.68,-315.07 2389.68,-315.07 2395.68,-315.07 2401.68,-321.07 2401.68,-327.07 2401.68,-327.07 2401.68,-339.07 2401.68,-339.07 2401.68,-345.07 2395.68,-351.07 2389.68,-351.07"/>
<text text-anchor="start" x="1233.78" y="-329.39" font-family="Times,serif" font-weight="bold" font-size="14.00">5: </text>
<text text-anchor="start" x="1253.28" y="-329.39" font-family="Times,serif" font-size="14.00">Stimmt die angegebene Ma&#223;einheit der verwendeten OBIS-Kennzahl mit der Ma&#223;einheit des Normierungsfaktors aus der Liste der Profildefinitionen &#252;berein?</text>
</g>
<!-- 4&#45;&gt;5 -->
<g id="edge9" class="edge">
<title>4-&gt;5</title>
<path fill="none" stroke="black" d="M1818.69,-410.84C1817.26,-397.4 1815.25,-378.46 1813.58,-362.76"/>
<polygon fill="black" stroke="black" points="1817.08,-362.6 1812.54,-353.03 1810.12,-363.34 1817.08,-362.6"/>
<text text-anchor="middle" x="1823.28" y="-379.78" font-family="Times,serif" font-size="14.00">Ja</text>
</g>
<!-- A04 -->
<g id="node11" class="node">
<title>A04</title>
<polygon fill="#cfb986" stroke="black" points="1238.64,-255.06 892.41,-255.06 892.41,-205.54 1238.64,-205.54 1238.64,-255.06"/>
<text text-anchor="start" x="1050.53" y="-237" font-family="Times,serif" font-weight="bold" font-size="14.00">A04</text>
<text text-anchor="start" x="904.65" y="-224.9" font-family="Times,serif" text-decoration="underline" font-size="12.00">Hinweis:</text>
<text text-anchor="start" x="904.65" y="-212.9" font-family="Times,serif" font-size="12.00">Ma&#223;einheit weicht von Liste der Profildefinitionen ab</text>
</g>
<!-- 5&#45;&gt;A04 -->
<g id="edge10" class="edge">
<title>5-&gt;A04</title>
<path fill="none" stroke="black" d="M1681.18,-314.57C1562.13,-298.47 1384.23,-274.41 1250.23,-256.28"/>
<polygon fill="black" stroke="black" points="1250.91,-252.84 1240.54,-254.97 1249.98,-259.78 1250.91,-252.84"/>
<text text-anchor="middle" x="1499.4" y="-277.01" font-family="Times,serif" font-size="14.00">Nein</text>
</g>
<!-- 6 -->
<g id="node12" class="node">
<title>6</title>
<path fill="#7aab8a" stroke="black" d="M2188.8,-248.3C2188.8,-248.3 1268.25,-248.3 1268.25,-248.3 1262.25,-248.3 1256.25,-242.3 1256.25,-236.3 1256.25,-236.3 1256.25,-224.3 1256.25,-224.3 1256.25,-218.3 1262.25,-212.3 1268.25,-212.3 1268.25,-212.3 2188.8,-212.3 2188.8,-212.3 2194.8,-212.3 2200.8,-218.3 2200.8,-224.3 2200.8,-224.3 2200.8,-236.3 2200.8,-236.3 2200.8,-242.3 2194.8,-248.3 2188.8,-248.3"/>
<text text-anchor="start" x="1270.65" y="-226.62" font-family="Times,serif" font-weight="bold" font-size="14.00">6: </text>
<text text-anchor="start" x="1290.15" y="-226.62" font-family="Times,serif" font-size="14.00">Entspricht die niedrigste Temperaturma&#223;zahl der Profilschar der Begrenzungskonstante aus der Liste der Profildefinitionen?</text>
</g>
<!-- 5&#45;&gt;6 -->
<g id="edge11" class="edge">
<title>5-&gt;6</title>
<path fill="none" stroke="black" d="M1796.61,-314.98C1783.77,-299.2 1764.52,-275.53 1749.76,-257.39"/>
<polygon fill="black" stroke="black" points="1752.49,-255.2 1743.46,-249.65 1747.06,-259.62 1752.49,-255.2"/>
<text text-anchor="middle" x="1780.28" y="-277.01" font-family="Times,serif" font-size="14.00">Ja</text>
</g>
<!-- A05 -->
<g id="node13" class="node">
<title>A05</title>
<polygon fill="#cfb986" stroke="black" points="876.02,-152.29 409.04,-152.29 409.04,-102.77 876.02,-102.77 876.02,-152.29"/>
<text text-anchor="start" x="627.53" y="-134.23" font-family="Times,serif" font-weight="bold" font-size="14.00">A05</text>
<text text-anchor="start" x="421.28" y="-122.13" font-family="Times,serif" text-decoration="underline" font-size="12.00">Hinweis:</text>
<text text-anchor="start" x="421.28" y="-110.13" font-family="Times,serif" font-size="12.00">Niedrigste Temperaturma&#223;zahl weicht von Liste der Profildefinitionen ab</text>
</g>
<!-- 6&#45;&gt;A05 -->
<g id="edge12" class="edge">
<title>6-&gt;A05</title>
<path fill="none" stroke="black" d="M1533.45,-211.83C1365.32,-196.7 1115.75,-174.03 887.48,-152.47"/>
<polygon fill="black" stroke="black" points="888.08,-149.01 877.79,-151.56 887.42,-155.98 888.08,-149.01"/>
<text text-anchor="middle" x="1271.4" y="-174.24" font-family="Times,serif" font-size="14.00">Nein</text>
</g>
<!-- 7 -->
<g id="node14" class="node">
<title>7</title>
<path fill="#7aab8a" stroke="black" d="M2440.55,-145.53C2440.55,-145.53 906.5,-145.53 906.5,-145.53 900.5,-145.53 894.5,-139.53 894.5,-133.53 894.5,-133.53 894.5,-121.53 894.5,-121.53 894.5,-115.53 900.5,-109.53 906.5,-109.53 906.5,-109.53 2440.55,-109.53 2440.55,-109.53 2446.55,-109.53 2452.55,-115.53 2452.55,-121.53 2452.55,-121.53 2452.55,-133.53 2452.55,-133.53 2452.55,-139.53 2446.55,-145.53 2440.55,-145.53"/>
<text text-anchor="start" x="908.9" y="-123.86" font-family="Times,serif" font-weight="bold" font-size="14.00">7: </text>
<text text-anchor="start" x="928.4" y="-123.86" font-family="Times,serif" font-size="14.00">Entspricht die Anzahl der Temperaturma&#223;zahlen der Profilschar der erwarteten Anzahl der Temperaturma&#223;zahlen gem&#228;&#223; der Bezugstemperatur und der Begrenzungskonstante aus der Liste der Profildefinition?</text>
</g>
<!-- 6&#45;&gt;7 -->
<g id="edge13" class="edge">
<title>6-&gt;7</title>
<path fill="none" stroke="black" d="M1719.19,-212.21C1710.74,-196.72 1698.14,-173.63 1688.31,-155.62"/>
<polygon fill="black" stroke="black" points="1691.49,-154.14 1683.63,-147.04 1685.34,-157.49 1691.49,-154.14"/>
<text text-anchor="middle" x="1710.28" y="-174.24" font-family="Times,serif" font-size="14.00">Ja</text>
</g>
<!-- 7&#45;&gt;Ende -->
<g id="edge15" class="edge">
<title>7-&gt;Ende</title>
<path fill="none" stroke="black" d="M1536.02,-109.03C1353.58,-85.82 1041.15,-46.07 925.91,-31.41"/>
<polygon fill="black" stroke="black" points="926.61,-27.97 916.25,-30.18 925.73,-34.91 926.61,-27.97"/>
<text text-anchor="middle" x="1331.28" y="-71.47" font-family="Times,serif" font-size="14.00">Ja</text>
</g>
<!-- A06 -->
<g id="node15" class="node">
<title>A06</title>
<polygon fill="#cfb986" stroke="black" points="1915.27,-49.52 1431.79,-49.52 1431.79,0 1915.27,0 1915.27,-49.52"/>
<text text-anchor="start" x="1658.53" y="-31.46" font-family="Times,serif" font-weight="bold" font-size="14.00">A06</text>
<text text-anchor="start" x="1444.03" y="-19.36" font-family="Times,serif" text-decoration="underline" font-size="12.00">Hinweis:</text>
<text text-anchor="start" x="1444.03" y="-7.36" font-family="Times,serif" font-size="12.00">Anzahl der Temperaturma&#223;zahlen weicht von Liste der Profildefinitionen ab</text>
</g>
<!-- 7&#45;&gt;A06 -->
<g id="edge14" class="edge">
<title>7-&gt;A06</title>
<path fill="none" stroke="black" d="M1673.53,-109.44C1673.53,-96.24 1673.53,-77.53 1673.53,-61.15"/>
<polygon fill="black" stroke="black" points="1677.03,-61.26 1673.53,-51.26 1670.03,-61.26 1677.03,-61.26"/>
<text text-anchor="middle" x="1690.4" y="-71.47" font-family="Times,serif" font-size="14.00">Nein</text>
</g>
</g>
</svg>
  </g>
</svg>
  </g>
</svg>
