<?xml version='1.0' encoding='ASCII' standalone='yes'?>
<svg xmlns="http://www.w3.org/2000/svg" xmlns:xlink="http://www.w3.org/1999/xlink" version="1.1" width="1462.6666666666667px" viewBox="0 0 1462.6666666666667 1321.3333333333333" height="1321.3333333333333px">
  <g>
    <svg version="1.1" width="1462.6666666666667px" viewBox="0 0 1462.6666666666667 1321.3333333333333" height="1321.3333333333333px">
  <rect fill="#e7e6e5" x="0" y="0" width="1462.6666666666667" height="1321.3333333333333" rx="20" ry="20"/><g>
    <g transform="translate(192.49278137613817, 132.1333333333333) scale(1 1) translate(0, 0) scale(1.8605087768703652 1.8605087768703652) "><!-- note that I manually added the width and height attribute to the root node
  https://chatgpt.com/share/678e3028-70cc-800b-a296-782714735772
  -->
  <defs>
    <style>.cls-1{fill:#fff;}</style>
  </defs>
  <path class="cls-1" d="M122.44,531.2h-56.1c-11,0-19.9-9.12-19.46-20.11C57.47,243.89,278.15,29.78,547.91,29.78v56.02c0,10.98-8.69,19.89-19.66,20.39-225.51,10.31-405.8,197-405.8,425Z"/>
  <path class="cls-1" d="M273.78,531.2h-55.93c-11.23,0-20.09-9.48-19.43-20.69,10.74-183.44,163.39-329.39,349.48-329.39v56.26c0,10.71-8.27,19.62-18.96,20.35-142.35,9.77-255.17,128.69-255.17,273.46Z"/>
  <path class="cls-1" d="M425.77,531.2h-55.45c-11.65,0-20.6-10.17-19.33-21.75,10.87-99.03,95.03-176.34,196.92-176.34v57.01c0,10.05-7.28,18.75-17.23,20.16-59.22,8.4-104.91,59.42-104.91,120.92Z"/>
</g>
    <svg width="1097pt" height="991pt" viewBox="0.00 0.00 1096.68 990.74">
<g id="graph0" class="graph" transform="scale(1 1) rotate(0) translate(4 986.74)">
<title>D</title>
<text text-anchor="start" x="197.84" y="-962.64" font-family="Roboto, sans-serif" font-weight="bold" font-size="18.00">MaBiS</text>
<text text-anchor="start" x="197.84" y="-932.54" font-family="Roboto, sans-serif" font-weight="bold" font-size="16.00">7.8.1: AD: Zuordnung einer Netzgangzeitreihe zu einer Netzzeitreihe beim NB</text>
<!-- Start -->
<g id="node1" class="node">
<title>Start</title>
<path fill="#8ba2d7" stroke="black" stroke-width="0" d="M475.55,-884.74C475.55,-884.74 344,-884.74 344,-884.74 338,-884.74 332,-878.74 332,-872.74 332,-872.74 332,-853.46 332,-853.46 332,-847.46 338,-841.46 344,-841.46 344,-841.46 475.55,-841.46 475.55,-841.46 481.55,-841.46 487.55,-847.46 487.55,-853.46 487.55,-853.46 487.55,-872.74 487.55,-872.74 487.55,-878.74 481.55,-884.74 475.55,-884.74"/>
<text text-anchor="start" x="346.4" y="-863.8" font-family="Roboto, sans-serif" font-weight="bold" font-size="14.00">E_0102</text>
<text text-anchor="start" x="346.4" y="-851.7" font-family="Roboto, sans-serif" font-weight="bold" text-decoration="underline" font-size="12.00">Pr&#252;fende Rolle:</text>
<text text-anchor="start" x="449.9" y="-851.7" font-family="Roboto, sans-serif" font-weight="bold" font-size="12.00"> NB</text>
</g>
<!-- 1 -->
<g id="node2" class="node">
<title>1</title>
<path fill="#c2cee9" stroke="black" stroke-width="0" d="M658.55,-804.46C658.55,-804.46 161,-804.46 161,-804.46 155,-804.46 149,-798.46 149,-792.46 149,-792.46 149,-771.18 149,-771.18 149,-765.18 155,-759.18 161,-759.18 161,-759.18 658.55,-759.18 658.55,-759.18 664.55,-759.18 670.55,-765.18 670.55,-771.18 670.55,-771.18 670.55,-792.46 670.55,-792.46 670.55,-798.46 664.55,-804.46 658.55,-804.46"/>
<text text-anchor="start" x="163.4" y="-783.52" font-family="Roboto, sans-serif" font-weight="bold" font-size="14.00">1: </text>
<text text-anchor="start" x="182.9" y="-783.52" font-family="Roboto, sans-serif" font-size="14.00">Wird die ID der Netzgangzeitreihe bereits f&#252;r die Identifikation eines</text>
<text text-anchor="start" x="163.4" y="-769.52" font-family="Roboto, sans-serif" font-size="14.00">Nicht-MaBiS-ZP verwendet?</text>
</g>
<!-- Start&#45;&gt;1 -->
<g id="edge1" class="edge">
<title>Start-&gt;1</title>
<path fill="none" stroke="#88a0d6" d="M409.77,-841.68C409.77,-833.71 409.77,-824.36 409.77,-815.5"/>
<polygon fill="#88a0d6" stroke="#88a0d6" points="413.28,-815.79 409.78,-805.79 406.28,-815.79 413.28,-815.79"/>
</g>
<!-- A01 -->
<g id="node3" class="node">
<title>A01</title>
<path fill="#c4cac1" stroke="black" stroke-width="0" d="M245.55,-705.93C245.55,-705.93 12,-705.93 12,-705.93 6,-705.93 0,-699.93 0,-693.93 0,-693.93 0,-650.65 0,-650.65 0,-644.65 6,-638.65 12,-638.65 12,-638.65 245.55,-638.65 245.55,-638.65 251.55,-638.65 257.55,-644.65 257.55,-650.65 257.55,-650.65 257.55,-693.93 257.55,-693.93 257.55,-699.93 251.55,-705.93 245.55,-705.93"/>
<text text-anchor="start" x="14.4" y="-684.99" font-family="Roboto, sans-serif" font-weight="bold" font-size="14.00">A01</text>
<text text-anchor="start" x="14.4" y="-672.89" font-family="Roboto, sans-serif" text-decoration="underline" font-size="12.00">Hinweis:</text>
<text text-anchor="start" x="14.4" y="-660.89" font-family="Roboto, sans-serif" font-size="12.00">Cluster: Ablehnung</text>
<text text-anchor="start" x="14.4" y="-648.89" font-family="Roboto, sans-serif" font-size="12.00">ID bereits au&#223;erhalb MaBiS verwendet</text>
</g>
<!-- 1&#45;&gt;A01 -->
<g id="edge2" class="edge">
<title>1-&gt;A01</title>
<path fill="none" stroke="#88a0d6" d="M353.25,-759.19C316.46,-745.11 267.54,-726.39 224.76,-710.02"/>
<polygon fill="#88a0d6" stroke="#88a0d6" points="226.03,-706.76 215.44,-706.45 223.53,-713.3 226.03,-706.76"/>
<text text-anchor="start" x="301.77" y="-728.88" font-family="Roboto, sans-serif" font-weight="bold" font-size="14.00">JA</text>
</g>
<!-- 2 -->
<g id="node4" class="node">
<title>2</title>
<path fill="#c2cee9" stroke="black" stroke-width="0" d="M839.92,-694.93C839.92,-694.93 287.62,-694.93 287.62,-694.93 281.62,-694.93 275.62,-688.93 275.62,-682.93 275.62,-682.93 275.62,-661.65 275.62,-661.65 275.62,-655.65 281.62,-649.65 287.62,-649.65 287.62,-649.65 839.92,-649.65 839.92,-649.65 845.92,-649.65 851.92,-655.65 851.92,-661.65 851.92,-661.65 851.92,-682.93 851.92,-682.93 851.92,-688.93 845.92,-694.93 839.92,-694.93"/>
<text text-anchor="start" x="290.02" y="-673.99" font-family="Roboto, sans-serif" font-weight="bold" font-size="14.00">2: </text>
<text text-anchor="start" x="309.52" y="-673.99" font-family="Roboto, sans-serif" font-size="14.00">Entspricht die Zuordnung der Netzgangzeitreihe zur Netzzeitreihe der</text>
<text text-anchor="start" x="290.02" y="-659.99" font-family="Roboto, sans-serif" font-size="14.00">Vereinbarung zur messtechnischen Abgrenzung der beiden benachbarten NB?</text>
</g>
<!-- 1&#45;&gt;2 -->
<g id="edge3" class="edge">
<title>1-&gt;2</title>
<path fill="none" stroke="#88a0d6" d="M440.57,-759.32C464.49,-742.61 497.85,-719.32 523.83,-701.18"/>
<polygon fill="#88a0d6" stroke="#88a0d6" points="525.6,-704.22 531.79,-695.62 521.59,-698.48 525.6,-704.22"/>
<text text-anchor="start" x="486.77" y="-728.88" font-family="Roboto, sans-serif" font-weight="bold" font-size="14.00">NEIN</text>
</g>
<!-- A02 -->
<g id="node5" class="node">
<title>A02</title>
<path fill="#c4cac1" stroke="black" stroke-width="0" d="M279.18,-585.4C279.18,-585.4 34.38,-585.4 34.38,-585.4 28.38,-585.4 22.38,-579.4 22.38,-573.4 22.38,-573.4 22.38,-530.12 22.38,-530.12 22.38,-524.12 28.38,-518.12 34.38,-518.12 34.38,-518.12 279.18,-518.12 279.18,-518.12 285.18,-518.12 291.18,-524.12 291.18,-530.12 291.18,-530.12 291.18,-573.4 291.18,-573.4 291.18,-579.4 285.18,-585.4 279.18,-585.4"/>
<text text-anchor="start" x="36.78" y="-564.46" font-family="Roboto, sans-serif" font-weight="bold" font-size="14.00">A02</text>
<text text-anchor="start" x="36.78" y="-552.36" font-family="Roboto, sans-serif" text-decoration="underline" font-size="12.00">Hinweis:</text>
<text text-anchor="start" x="36.78" y="-540.36" font-family="Roboto, sans-serif" font-size="12.00">Cluster: Ablehnung</text>
<text text-anchor="start" x="36.78" y="-528.36" font-family="Roboto, sans-serif" font-size="12.00">Zuordnung passt nicht zur Vereinbarung</text>
</g>
<!-- 2&#45;&gt;A02 -->
<g id="edge4" class="edge">
<title>2-&gt;A02</title>
<path fill="none" stroke="#88a0d6" d="M489.6,-649.69C431.05,-632.64 348.12,-608.49 279.69,-588.56"/>
<polygon fill="#88a0d6" stroke="#88a0d6" points="280.88,-585.26 270.3,-585.82 278.92,-591.98 280.88,-585.26"/>
<text text-anchor="start" x="383.77" y="-608.35" font-family="Roboto, sans-serif" font-weight="bold" font-size="14.00">NEIN</text>
</g>
<!-- 3 -->
<g id="node6" class="node">
<title>3</title>
<path fill="#c2cee9" stroke="black" stroke-width="0" d="M846.42,-569.76C846.42,-569.76 321.12,-569.76 321.12,-569.76 315.12,-569.76 309.12,-563.76 309.12,-557.76 309.12,-557.76 309.12,-545.76 309.12,-545.76 309.12,-539.76 315.12,-533.76 321.12,-533.76 321.12,-533.76 846.42,-533.76 846.42,-533.76 852.42,-533.76 858.42,-539.76 858.42,-545.76 858.42,-545.76 858.42,-557.76 858.42,-557.76 858.42,-563.76 852.42,-569.76 846.42,-569.76"/>
<text text-anchor="start" x="323.52" y="-548.09" font-family="Roboto, sans-serif" font-weight="bold" font-size="14.00">3: </text>
<text text-anchor="start" x="343.02" y="-548.09" font-family="Roboto, sans-serif" font-size="14.00">Ist der Absender zum Zuordnungsbeginn an der Netzzeitreihe beteiligt?</text>
</g>
<!-- 2&#45;&gt;3 -->
<g id="edge5" class="edge">
<title>2-&gt;3</title>
<path fill="none" stroke="#88a0d6" d="M567.4,-649.83C570.67,-630.44 575.5,-601.79 579.07,-580.64"/>
<polygon fill="#88a0d6" stroke="#88a0d6" points="582.49,-581.41 580.7,-570.97 575.59,-580.25 582.49,-581.41"/>
<text text-anchor="start" x="574.77" y="-608.35" font-family="Roboto, sans-serif" font-weight="bold" font-size="14.00">JA</text>
</g>
<!-- A03 -->
<g id="node7" class="node">
<title>A03</title>
<path fill="#c4cac1" stroke="black" stroke-width="0" d="M292.55,-464.87C292.55,-464.87 47,-464.87 47,-464.87 41,-464.87 35,-458.87 35,-452.87 35,-452.87 35,-409.59 35,-409.59 35,-403.59 41,-397.59 47,-397.59 47,-397.59 292.55,-397.59 292.55,-397.59 298.55,-397.59 304.55,-403.59 304.55,-409.59 304.55,-409.59 304.55,-452.87 304.55,-452.87 304.55,-458.87 298.55,-464.87 292.55,-464.87"/>
<text text-anchor="start" x="49.4" y="-443.93" font-family="Roboto, sans-serif" font-weight="bold" font-size="14.00">A03</text>
<text text-anchor="start" x="49.4" y="-431.83" font-family="Roboto, sans-serif" text-decoration="underline" font-size="12.00">Hinweis:</text>
<text text-anchor="start" x="49.4" y="-419.83" font-family="Roboto, sans-serif" font-size="12.00">Cluster: Ablehnung</text>
<text text-anchor="start" x="49.4" y="-407.83" font-family="Roboto, sans-serif" font-size="12.00">Keine Berechtigung f&#252;r die Netzzeitreihe</text>
</g>
<!-- 3&#45;&gt;A03 -->
<g id="edge6" class="edge">
<title>3-&gt;A03</title>
<path fill="none" stroke="#88a0d6" d="M524.46,-533.78C464.67,-516.66 370.58,-489.72 294.33,-467.89"/>
<polygon fill="#88a0d6" stroke="#88a0d6" points="295.72,-464.65 285.14,-465.26 293.8,-471.38 295.72,-464.65"/>
<text text-anchor="start" x="400.77" y="-487.82" font-family="Roboto, sans-serif" font-weight="bold" font-size="14.00">NEIN</text>
</g>
<!-- 4 -->
<g id="node8" class="node">
<title>4</title>
<path fill="#c2cee9" stroke="black" stroke-width="0" d="M870.67,-449.23C870.67,-449.23 334.88,-449.23 334.88,-449.23 328.88,-449.23 322.88,-443.23 322.88,-437.23 322.88,-437.23 322.88,-425.23 322.88,-425.23 322.88,-419.23 328.88,-413.23 334.88,-413.23 334.88,-413.23 870.67,-413.23 870.67,-413.23 876.67,-413.23 882.67,-419.23 882.67,-425.23 882.67,-425.23 882.67,-437.23 882.67,-437.23 882.67,-443.23 876.67,-449.23 870.67,-449.23"/>
<text text-anchor="start" x="337.27" y="-427.55" font-family="Roboto, sans-serif" font-weight="bold" font-size="14.00">4: </text>
<text text-anchor="start" x="356.77" y="-427.55" font-family="Roboto, sans-serif" font-size="14.00">Ist der Empf&#228;nger zum Zuordnungsbeginn an der Netzzeitreihe beteiligt?</text>
</g>
<!-- 3&#45;&gt;4 -->
<g id="edge7" class="edge">
<title>3-&gt;4</title>
<path fill="none" stroke="#88a0d6" d="M586.5,-533.78C589.56,-514.68 594.58,-483.35 598.24,-460.54"/>
<polygon fill="#88a0d6" stroke="#88a0d6" points="601.69,-461.1 599.82,-450.68 594.78,-460 601.69,-461.1"/>
<text text-anchor="start" x="593.77" y="-487.82" font-family="Roboto, sans-serif" font-weight="bold" font-size="14.00">JA</text>
</g>
<!-- A04 -->
<g id="node9" class="node">
<title>A04</title>
<path fill="#c4cac1" stroke="black" stroke-width="0" d="M405.17,-344.34C405.17,-344.34 172.38,-344.34 172.38,-344.34 166.38,-344.34 160.37,-338.34 160.37,-332.34 160.37,-332.34 160.37,-289.06 160.37,-289.06 160.37,-283.06 166.37,-277.06 172.37,-277.06 172.37,-277.06 405.17,-277.06 405.17,-277.06 411.17,-277.06 417.17,-283.06 417.17,-289.06 417.17,-289.06 417.17,-332.34 417.17,-332.34 417.17,-338.34 411.17,-344.34 405.17,-344.34"/>
<text text-anchor="start" x="174.77" y="-323.4" font-family="Roboto, sans-serif" font-weight="bold" font-size="14.00">A04</text>
<text text-anchor="start" x="174.77" y="-311.3" font-family="Roboto, sans-serif" text-decoration="underline" font-size="12.00">Hinweis:</text>
<text text-anchor="start" x="174.77" y="-299.3" font-family="Roboto, sans-serif" font-size="12.00">Cluster: Ablehnung</text>
<text text-anchor="start" x="174.77" y="-287.3" font-family="Roboto, sans-serif" font-size="12.00">Keine Beteiligung an der Netzzeitreihe</text>
</g>
<!-- 4&#45;&gt;A04 -->
<g id="edge8" class="edge">
<title>4-&gt;A04</title>
<path fill="none" stroke="#88a0d6" d="M557.79,-413.25C513.09,-396.37 443.11,-369.96 385.73,-348.3"/>
<polygon fill="#88a0d6" stroke="#88a0d6" points="387.18,-345.11 376.59,-344.85 384.71,-351.65 387.18,-345.11"/>
<text text-anchor="start" x="463.77" y="-367.29" font-family="Roboto, sans-serif" font-weight="bold" font-size="14.00">NEIN</text>
</g>
<!-- 5 -->
<g id="node10" class="node">
<title>5</title>
<path fill="#c2cee9" stroke="black" stroke-width="0" d="M994.67,-333.34C994.67,-333.34 446.88,-333.34 446.88,-333.34 440.88,-333.34 434.88,-327.34 434.88,-321.34 434.88,-321.34 434.88,-300.06 434.88,-300.06 434.88,-294.06 440.88,-288.06 446.88,-288.06 446.88,-288.06 994.67,-288.06 994.67,-288.06 1000.67,-288.06 1006.67,-294.06 1006.67,-300.06 1006.67,-300.06 1006.67,-321.34 1006.67,-321.34 1006.67,-327.34 1000.67,-333.34 994.67,-333.34"/>
<text text-anchor="start" x="449.27" y="-312.4" font-family="Roboto, sans-serif" font-weight="bold" font-size="14.00">5: </text>
<text text-anchor="start" x="468.77" y="-312.4" font-family="Roboto, sans-serif" font-size="14.00">Existiert zum Zuordnungsbeginn bereits eine Zuordnung der angegebenen</text>
<text text-anchor="start" x="449.27" y="-298.4" font-family="Roboto, sans-serif" font-size="14.00">Netzgangzeitreihe zu einer Netzzeitreihe?</text>
</g>
<!-- 4&#45;&gt;5 -->
<g id="edge9" class="edge">
<title>4-&gt;5</title>
<path fill="none" stroke="#88a0d6" d="M619.68,-413.25C638.41,-394.43 668.95,-363.76 691.57,-341.04"/>
<polygon fill="#88a0d6" stroke="#88a0d6" points="693.86,-343.69 698.44,-334.14 688.9,-338.75 693.86,-343.69"/>
<text text-anchor="start" x="668.77" y="-367.29" font-family="Roboto, sans-serif" font-weight="bold" font-size="14.00">JA</text>
</g>
<!-- A05 -->
<g id="node11" class="node">
<title>A05</title>
<path fill="#c4cac1" stroke="black" stroke-width="0" d="M608.42,-223.81C608.42,-223.81 191.12,-223.81 191.12,-223.81 185.12,-223.81 179.12,-217.81 179.12,-211.81 179.12,-211.81 179.12,-156.53 179.12,-156.53 179.12,-150.53 185.12,-144.53 191.12,-144.53 191.12,-144.53 608.42,-144.53 608.42,-144.53 614.42,-144.53 620.42,-150.53 620.42,-156.53 620.42,-156.53 620.42,-211.81 620.42,-211.81 620.42,-217.81 614.42,-223.81 608.42,-223.81"/>
<text text-anchor="start" x="193.52" y="-202.87" font-family="Roboto, sans-serif" font-weight="bold" font-size="14.00">A05</text>
<text text-anchor="start" x="193.52" y="-190.77" font-family="Roboto, sans-serif" text-decoration="underline" font-size="12.00">Hinweis:</text>
<text text-anchor="start" x="193.52" y="-178.77" font-family="Roboto, sans-serif" font-size="12.00">Cluster: Ablehnung</text>
<text text-anchor="start" x="193.52" y="-166.77" font-family="Roboto, sans-serif" font-size="12.00">Zuordnung bereits vorhanden</text>
<text text-anchor="start" x="193.52" y="-154.77" font-family="Roboto, sans-serif" font-size="12.00">Hinweis: In der Antwort ist die zugeordnete Netzzeitreihe anzugeben.</text>
</g>
<!-- 5&#45;&gt;A05 -->
<g id="edge10" class="edge">
<title>5-&gt;A05</title>
<path fill="none" stroke="#88a0d6" d="M665.23,-288.15C622.59,-271.61 562.35,-248.24 510.03,-227.94"/>
<polygon fill="#88a0d6" stroke="#88a0d6" points="511.34,-224.7 500.75,-224.34 508.8,-231.22 511.34,-224.7"/>
<text text-anchor="start" x="588.77" y="-246.76" font-family="Roboto, sans-serif" font-weight="bold" font-size="14.00">JA</text>
</g>
<!-- 6 -->
<g id="node12" class="node">
<title>6</title>
<path fill="#c2cee9" stroke="black" stroke-width="0" d="M991.17,-202.17C991.17,-202.17 650.38,-202.17 650.38,-202.17 644.38,-202.17 638.38,-196.17 638.38,-190.17 638.38,-190.17 638.38,-178.17 638.38,-178.17 638.38,-172.17 644.38,-166.17 650.38,-166.17 650.38,-166.17 991.17,-166.17 991.17,-166.17 997.17,-166.17 1003.17,-172.17 1003.17,-178.17 1003.17,-178.17 1003.17,-190.17 1003.17,-190.17 1003.17,-196.17 997.17,-202.17 991.17,-202.17"/>
<text text-anchor="start" x="652.77" y="-180.5" font-family="Roboto, sans-serif" font-weight="bold" font-size="14.00">6: </text>
<text text-anchor="start" x="672.27" y="-180.5" font-family="Roboto, sans-serif" font-size="14.00">Ist ein nicht spezifizierter Fehler aufgetreten?</text>
</g>
<!-- 5&#45;&gt;6 -->
<g id="edge11" class="edge">
<title>5-&gt;6</title>
<path fill="none" stroke="#88a0d6" d="M737.97,-288.29C755.24,-266.78 781.87,-233.61 800.25,-210.73"/>
<polygon fill="#88a0d6" stroke="#88a0d6" points="802.85,-213.08 806.38,-203.1 797.39,-208.7 802.85,-213.08"/>
<text text-anchor="start" x="772.77" y="-246.76" font-family="Roboto, sans-serif" font-weight="bold" font-size="14.00">NEIN</text>
</g>
<!-- A99 -->
<g id="node13" class="node">
<title>A99</title>
<path fill="#c4cac1" stroke="black" stroke-width="0" d="M882.92,-91.28C882.92,-91.28 396.62,-91.28 396.62,-91.28 390.62,-91.28 384.62,-85.28 384.62,-79.28 384.62,-79.28 384.62,-12 384.62,-12 384.62,-6 390.62,0 396.62,0 396.62,0 882.92,0 882.92,0 888.92,0 894.92,-6 894.92,-12 894.92,-12 894.92,-79.28 894.92,-79.28 894.92,-85.28 888.92,-91.28 882.92,-91.28"/>
<text text-anchor="start" x="399.02" y="-70.34" font-family="Roboto, sans-serif" font-weight="bold" font-size="14.00">A99</text>
<text text-anchor="start" x="399.02" y="-58.24" font-family="Roboto, sans-serif" text-decoration="underline" font-size="12.00">Hinweis:</text>
<text text-anchor="start" x="399.02" y="-46.24" font-family="Roboto, sans-serif" font-size="12.00">Cluster: Ablehnung</text>
<text text-anchor="start" x="399.02" y="-34.24" font-family="Roboto, sans-serif" font-size="12.00">Sonstiges</text>
<text text-anchor="start" x="399.02" y="-22.24" font-family="Roboto, sans-serif" font-size="12.00">Hinweis: Das identifizierte Problem ist in der Antwort zu beschreiben / benennen.</text>
<text text-anchor="start" x="399.02" y="-10.24" font-family="Roboto, sans-serif" font-size="12.00">Nutzungsm&#246;glichkeit Ende: 01.04.2026 00:00 Uhr</text>
</g>
<!-- 6&#45;&gt;A99 -->
<g id="edge12" class="edge">
<title>6-&gt;A99</title>
<path fill="none" stroke="#88a0d6" d="M798.58,-166.43C775.97,-149.38 739.77,-122.07 707.64,-97.83"/>
<polygon fill="#88a0d6" stroke="#88a0d6" points="710,-95.22 699.91,-92 705.78,-100.81 710,-95.22"/>
<text text-anchor="start" x="740.77" y="-114.23" font-family="Roboto, sans-serif" font-weight="bold" font-size="14.00">JA</text>
</g>
<!-- A06 -->
<g id="node14" class="node">
<title>A06</title>
<path fill="#c4cac1" stroke="black" stroke-width="0" d="M1076.67,-79.28C1076.67,-79.28 924.88,-79.28 924.88,-79.28 918.88,-79.28 912.88,-73.28 912.88,-67.28 912.88,-67.28 912.88,-24 912.88,-24 912.88,-18 918.88,-12 924.88,-12 924.88,-12 1076.67,-12 1076.67,-12 1082.67,-12 1088.67,-18 1088.67,-24 1088.67,-24 1088.67,-67.28 1088.67,-67.28 1088.67,-73.28 1082.67,-79.28 1076.67,-79.28"/>
<text text-anchor="start" x="927.27" y="-58.34" font-family="Roboto, sans-serif" font-weight="bold" font-size="14.00">A06</text>
<text text-anchor="start" x="927.27" y="-46.24" font-family="Roboto, sans-serif" text-decoration="underline" font-size="12.00">Hinweis:</text>
<text text-anchor="start" x="927.27" y="-34.24" font-family="Roboto, sans-serif" font-size="12.00">Cluster: Zustimmung</text>
<text text-anchor="start" x="927.27" y="-22.24" font-family="Roboto, sans-serif" font-size="12.00">Zuordnung durchgef&#252;hrt</text>
</g>
<!-- 6&#45;&gt;A06 -->
<g id="edge13" class="edge">
<title>6-&gt;A06</title>
<path fill="none" stroke="#88a0d6" d="M842.85,-166.43C869.04,-146.56 913.6,-112.76 948.72,-86.12"/>
<polygon fill="#88a0d6" stroke="#88a0d6" points="950.83,-88.92 956.68,-80.08 946.6,-83.34 950.83,-88.92"/>
<text text-anchor="start" x="915.77" y="-114.23" font-family="Roboto, sans-serif" font-weight="bold" font-size="14.00">NEIN</text>
</g>
</g>
</svg>
  </g>
</svg>
  </g>
</svg>
