<?xml version='1.0' encoding='ASCII' standalone='yes'?>
<svg xmlns="http://www.w3.org/2000/svg" xmlns:xlink="http://www.w3.org/1999/xlink" version="1.1" width="1542.6666666666667px" viewBox="0 0 1542.6666666666667 1046.6666666666667" height="1046.6666666666667px">
  <g>
    <svg version="1.1" width="1542.6666666666667px" viewBox="0 0 1542.6666666666667 1046.6666666666667" height="1046.6666666666667px">
  <rect fill="#e7e6e5" x="0" y="0" width="1542.6666666666667" height="1046.6666666666667" rx="20" ry="20"/><g>
    <g transform="translate(344.50201821083255, 104.66666666666666) scale(1 1) translate(0, 0) scale(1.4737632591758194 1.4737632591758194) "><!-- note that I manually added the width and height attribute to the root node
  https://chatgpt.com/share/678e3028-70cc-800b-a296-782714735772
  -->
  <defs>
    <style>.cls-1{fill:#fff;}</style>
  </defs>
  <path class="cls-1" d="M122.44,531.2h-56.1c-11,0-19.9-9.12-19.46-20.11C57.47,243.89,278.15,29.78,547.91,29.78v56.02c0,10.98-8.69,19.89-19.66,20.39-225.51,10.31-405.8,197-405.8,425Z"/>
  <path class="cls-1" d="M273.78,531.2h-55.93c-11.23,0-20.09-9.48-19.43-20.69,10.74-183.44,163.39-329.39,349.48-329.39v56.26c0,10.71-8.27,19.62-18.96,20.35-142.35,9.77-255.17,128.69-255.17,273.46Z"/>
  <path class="cls-1" d="M425.77,531.2h-55.45c-11.65,0-20.6-10.17-19.33-21.75,10.87-99.03,95.03-176.34,196.92-176.34v57.01c0,10.05-7.28,18.75-17.23,20.16-59.22,8.4-104.91,59.42-104.91,120.92Z"/>
</g>
    <svg width="1157pt" height="785pt" viewBox="0.00 0.00 1157.43 785.21">
<g id="graph0" class="graph" transform="scale(1 1) rotate(0) translate(4 781.21)">
<title>D</title>
<text text-anchor="start" x="155.09" y="-757.11" font-family="Roboto, sans-serif" font-weight="bold" font-size="18.00">MaBiS</text>
<text text-anchor="start" x="155.09" y="-729.01" font-family="Roboto, sans-serif" font-weight="bold" font-size="16.00">7.9.1: AD: Beendigung der Zuordnung einer Netzgangzeitreihe zu einer Netzzeitreihe beim NB</text>
<!-- Start -->
<g id="node1" class="node">
<title>Start</title>
<path fill="#8ba2d7" stroke="black" stroke-width="0" d="M553.3,-687.21C553.3,-687.21 416.5,-687.21 416.5,-687.21 410.5,-687.21 404.5,-681.21 404.5,-675.21 404.5,-675.21 404.5,-653.93 404.5,-653.93 404.5,-647.93 410.5,-641.93 416.5,-641.93 416.5,-641.93 553.3,-641.93 553.3,-641.93 559.3,-641.93 565.3,-647.93 565.3,-653.93 565.3,-653.93 565.3,-675.21 565.3,-675.21 565.3,-681.21 559.3,-687.21 553.3,-687.21"/>
<text text-anchor="start" x="418.9" y="-666.27" font-family="Roboto, sans-serif" font-weight="bold" font-size="14.00">E_0103</text>
<text text-anchor="start" x="418.9" y="-652.27" font-family="Roboto, sans-serif" font-size="14.00">Pr&#252;fende Rolle: </text>
<text text-anchor="start" x="528.4" y="-652.27" font-family="Roboto, sans-serif" font-weight="bold" font-size="14.00">NB</text>
</g>
<!-- 1 -->
<g id="node2" class="node">
<title>1</title>
<path fill="#c2cee9" stroke="black" stroke-width="0" d="M784.67,-604.93C784.67,-604.93 185.12,-604.93 185.12,-604.93 179.12,-604.93 173.12,-598.93 173.12,-592.93 173.12,-592.93 173.12,-571.65 173.12,-571.65 173.12,-565.65 179.12,-559.65 185.12,-559.65 185.12,-559.65 784.67,-559.65 784.67,-559.65 790.67,-559.65 796.67,-565.65 796.67,-571.65 796.67,-571.65 796.67,-592.93 796.67,-592.93 796.67,-598.93 790.67,-604.93 784.67,-604.93"/>
<text text-anchor="start" x="187.52" y="-583.99" font-family="Roboto, sans-serif" font-weight="bold" font-size="14.00">1: </text>
<text text-anchor="start" x="207.02" y="-583.99" font-family="Roboto, sans-serif" font-size="14.00">Entspricht die Beendigung der Zuordnung der Netzgangzeitreihe zur Netzzeitreihe</text>
<text text-anchor="start" x="187.52" y="-569.99" font-family="Roboto, sans-serif" font-size="14.00">der Vereinbarung zur messtechnischen Abgrenzung der beiden benachbarten NB?</text>
</g>
<!-- Start&#45;&gt;1 -->
<g id="edge1" class="edge">
<title>Start-&gt;1</title>
<path fill="none" stroke="#88a0d6" d="M484.9,-642.06C484.9,-634.14 484.9,-624.98 484.9,-616.28"/>
<polygon fill="#88a0d6" stroke="#88a0d6" points="488.4,-616.38 484.9,-606.38 481.4,-616.38 488.4,-616.38"/>
</g>
<!-- A01 -->
<g id="node3" class="node">
<title>A01</title>
<path fill="#c4cac1" stroke="black" stroke-width="0" d="M415.8,-506.4C415.8,-506.4 12,-506.4 12,-506.4 6,-506.4 0,-500.4 0,-494.4 0,-494.4 0,-466.62 0,-466.62 0,-460.62 6,-454.62 12,-454.62 12,-454.62 415.8,-454.62 415.8,-454.62 421.8,-454.62 427.8,-460.62 427.8,-466.62 427.8,-466.62 427.8,-494.4 427.8,-494.4 427.8,-500.4 421.8,-506.4 415.8,-506.4"/>
<text text-anchor="start" x="14.4" y="-484.46" font-family="Roboto, sans-serif" font-size="14.00">Cluster: Ablehnung</text>
<text text-anchor="start" x="14.4" y="-467.21" font-family="Roboto, sans-serif" font-size="14.00">Beendigung der Zuordnung passt nicht zur Vereinbarung</text>
</g>
<!-- 1&#45;&gt;A01 -->
<g id="edge2" class="edge">
<title>1-&gt;A01</title>
<path fill="none" stroke="#88a0d6" d="M426.43,-559.76C387.13,-545.29 334.88,-526.05 292.02,-510.27"/>
<polygon fill="#88a0d6" stroke="#88a0d6" points="293.35,-507.03 282.76,-506.86 290.93,-513.6 293.35,-507.03"/>
<text text-anchor="start" x="372.9" y="-529.35" font-family="Roboto, sans-serif" font-weight="bold" font-size="14.00">NEIN</text>
</g>
<!-- 2 -->
<g id="node4" class="node">
<title>2</title>
<path fill="#c2cee9" stroke="black" stroke-width="0" d="M969.8,-498.51C969.8,-498.51 458,-498.51 458,-498.51 452,-498.51 446,-492.51 446,-486.51 446,-486.51 446,-474.51 446,-474.51 446,-468.51 452,-462.51 458,-462.51 458,-462.51 969.8,-462.51 969.8,-462.51 975.8,-462.51 981.8,-468.51 981.8,-474.51 981.8,-474.51 981.8,-486.51 981.8,-486.51 981.8,-492.51 975.8,-498.51 969.8,-498.51"/>
<text text-anchor="start" x="460.4" y="-476.83" font-family="Roboto, sans-serif" font-weight="bold" font-size="14.00">2: </text>
<text text-anchor="start" x="479.9" y="-476.83" font-family="Roboto, sans-serif" font-size="14.00">Ist der Absender zum Zuordnungsende an der Netzzeitreihe beteiligt?</text>
</g>
<!-- 1&#45;&gt;2 -->
<g id="edge3" class="edge">
<title>1-&gt;2</title>
<path fill="none" stroke="#88a0d6" d="M534.31,-559.76C572.89,-542.95 626.23,-519.71 664.74,-502.93"/>
<polygon fill="#88a0d6" stroke="#88a0d6" points="666.03,-506.18 673.8,-498.98 663.24,-499.77 666.03,-506.18"/>
<text text-anchor="start" x="612.9" y="-529.35" font-family="Roboto, sans-serif" font-weight="bold" font-size="14.00">JA</text>
</g>
<!-- A02 -->
<g id="node5" class="node">
<title>A02</title>
<path fill="#c4cac1" stroke="black" stroke-width="0" d="M488.55,-401.37C488.55,-401.37 203.25,-401.37 203.25,-401.37 197.25,-401.37 191.25,-395.37 191.25,-389.37 191.25,-389.37 191.25,-361.59 191.25,-361.59 191.25,-355.59 197.25,-349.59 203.25,-349.59 203.25,-349.59 488.55,-349.59 488.55,-349.59 494.55,-349.59 500.55,-355.59 500.55,-361.59 500.55,-361.59 500.55,-389.37 500.55,-389.37 500.55,-395.37 494.55,-401.37 488.55,-401.37"/>
<text text-anchor="start" x="205.65" y="-379.43" font-family="Roboto, sans-serif" font-size="14.00">Cluster: Ablehnung</text>
<text text-anchor="start" x="205.65" y="-362.18" font-family="Roboto, sans-serif" font-size="14.00">Keine Berechtigung f&#252;r die Netzzeitreihe</text>
</g>
<!-- 2&#45;&gt;A02 -->
<g id="edge4" class="edge">
<title>2-&gt;A02</title>
<path fill="none" stroke="#88a0d6" d="M653.54,-462.61C597.14,-446.82 511.89,-422.95 445.43,-404.35"/>
<polygon fill="#88a0d6" stroke="#88a0d6" points="446.54,-401.02 435.97,-401.7 444.65,-407.76 446.54,-401.02"/>
<text text-anchor="start" x="551.9" y="-424.32" font-family="Roboto, sans-serif" font-weight="bold" font-size="14.00">NEIN</text>
</g>
<!-- 3 -->
<g id="node6" class="node">
<title>3</title>
<path fill="#c2cee9" stroke="black" stroke-width="0" d="M1053.05,-393.48C1053.05,-393.48 530.75,-393.48 530.75,-393.48 524.75,-393.48 518.75,-387.48 518.75,-381.48 518.75,-381.48 518.75,-369.48 518.75,-369.48 518.75,-363.48 524.75,-357.48 530.75,-357.48 530.75,-357.48 1053.05,-357.48 1053.05,-357.48 1059.05,-357.48 1065.05,-363.48 1065.05,-369.48 1065.05,-369.48 1065.05,-381.48 1065.05,-381.48 1065.05,-387.48 1059.05,-393.48 1053.05,-393.48"/>
<text text-anchor="start" x="533.15" y="-371.8" font-family="Roboto, sans-serif" font-weight="bold" font-size="14.00">3: </text>
<text text-anchor="start" x="552.65" y="-371.8" font-family="Roboto, sans-serif" font-size="14.00">Ist der Empf&#228;nger zum Zuordnungsende an der Netzzeitreihe beteiligt?</text>
</g>
<!-- 2&#45;&gt;3 -->
<g id="edge5" class="edge">
<title>2-&gt;3</title>
<path fill="none" stroke="#88a0d6" d="M726.43,-462.96C738.81,-446.61 757.92,-421.36 772.31,-402.36"/>
<polygon fill="#88a0d6" stroke="#88a0d6" points="774.98,-404.63 778.23,-394.54 769.4,-400.4 774.98,-404.63"/>
<text text-anchor="start" x="756.9" y="-424.32" font-family="Roboto, sans-serif" font-weight="bold" font-size="14.00">JA</text>
</g>
<!-- A03 -->
<g id="node7" class="node">
<title>A03</title>
<path fill="#c4cac1" stroke="black" stroke-width="0" d="M482.05,-296.34C482.05,-296.34 211.75,-296.34 211.75,-296.34 205.75,-296.34 199.75,-290.34 199.75,-284.34 199.75,-284.34 199.75,-256.56 199.75,-256.56 199.75,-250.56 205.75,-244.56 211.75,-244.56 211.75,-244.56 482.05,-244.56 482.05,-244.56 488.05,-244.56 494.05,-250.56 494.05,-256.56 494.05,-256.56 494.05,-284.34 494.05,-284.34 494.05,-290.34 488.05,-296.34 482.05,-296.34"/>
<text text-anchor="start" x="214.15" y="-274.4" font-family="Roboto, sans-serif" font-size="14.00">Cluster: Ablehnung</text>
<text text-anchor="start" x="214.15" y="-257.15" font-family="Roboto, sans-serif" font-size="14.00">Keine Beteiligung an der Netzzeitreihe</text>
</g>
<!-- 3&#45;&gt;A03 -->
<g id="edge6" class="edge">
<title>3-&gt;A03</title>
<path fill="none" stroke="#88a0d6" d="M718.92,-357.58C650.01,-341.63 545.5,-317.43 464.77,-298.74"/>
<polygon fill="#88a0d6" stroke="#88a0d6" points="466.06,-295.45 455.52,-296.6 464.48,-302.27 466.06,-295.45"/>
<text text-anchor="start" x="595.9" y="-319.29" font-family="Roboto, sans-serif" font-weight="bold" font-size="14.00">NEIN</text>
</g>
<!-- 4 -->
<g id="node8" class="node">
<title>4</title>
<path fill="#c2cee9" stroke="black" stroke-width="0" d="M1137.42,-293.09C1137.42,-293.09 524.38,-293.09 524.38,-293.09 518.38,-293.09 512.38,-287.09 512.38,-281.09 512.38,-281.09 512.38,-259.81 512.38,-259.81 512.38,-253.81 518.38,-247.81 524.38,-247.81 524.38,-247.81 1137.42,-247.81 1137.42,-247.81 1143.42,-247.81 1149.42,-253.81 1149.42,-259.81 1149.42,-259.81 1149.42,-281.09 1149.42,-281.09 1149.42,-287.09 1143.42,-293.09 1137.42,-293.09"/>
<text text-anchor="start" x="526.77" y="-272.15" font-family="Roboto, sans-serif" font-weight="bold" font-size="14.00">4: </text>
<text text-anchor="start" x="546.27" y="-272.15" font-family="Roboto, sans-serif" font-size="14.00">Existiert zum Zuordnungsende eine Zuordnung der angegebenen Netzgangzeitreihe</text>
<text text-anchor="start" x="526.77" y="-258.15" font-family="Roboto, sans-serif" font-size="14.00">zu der angegebenen Netzzeitreihe?</text>
</g>
<!-- 3&#45;&gt;4 -->
<g id="edge7" class="edge">
<title>3-&gt;4</title>
<path fill="none" stroke="#88a0d6" d="M798.17,-357.93C803.69,-343.32 811.91,-321.62 818.72,-303.62"/>
<polygon fill="#88a0d6" stroke="#88a0d6" points="821.95,-304.98 822.22,-294.39 815.4,-302.5 821.95,-304.98"/>
<text text-anchor="start" x="812.9" y="-319.29" font-family="Roboto, sans-serif" font-weight="bold" font-size="14.00">JA</text>
</g>
<!-- A04 -->
<g id="node9" class="node">
<title>A04</title>
<path fill="#c4cac1" stroke="black" stroke-width="0" d="M643.8,-191.31C643.8,-191.31 444,-191.31 444,-191.31 438,-191.31 432,-185.31 432,-179.31 432,-179.31 432,-151.53 432,-151.53 432,-145.53 438,-139.53 444,-139.53 444,-139.53 643.8,-139.53 643.8,-139.53 649.8,-139.53 655.8,-145.53 655.8,-151.53 655.8,-151.53 655.8,-179.31 655.8,-179.31 655.8,-185.31 649.8,-191.31 643.8,-191.31"/>
<text text-anchor="start" x="446.4" y="-169.37" font-family="Roboto, sans-serif" font-size="14.00">Cluster: Ablehnung</text>
<text text-anchor="start" x="446.4" y="-152.12" font-family="Roboto, sans-serif" font-size="14.00">Zuordnung nicht vorhanden</text>
</g>
<!-- 4&#45;&gt;A04 -->
<g id="edge8" class="edge">
<title>4-&gt;A04</title>
<path fill="none" stroke="#88a0d6" d="M770.74,-247.85C728.04,-232.52 670.28,-211.79 623.73,-195.08"/>
<polygon fill="#88a0d6" stroke="#88a0d6" points="625.09,-191.85 614.49,-191.76 622.72,-198.43 625.09,-191.85"/>
<text text-anchor="start" x="703.9" y="-214.26" font-family="Roboto, sans-serif" font-weight="bold" font-size="14.00">NEIN</text>
</g>
<!-- 5 -->
<g id="node10" class="node">
<title>5</title>
<path fill="#c2cee9" stroke="black" stroke-width="0" d="M1026.3,-183.42C1026.3,-183.42 685.5,-183.42 685.5,-183.42 679.5,-183.42 673.5,-177.42 673.5,-171.42 673.5,-171.42 673.5,-159.42 673.5,-159.42 673.5,-153.42 679.5,-147.42 685.5,-147.42 685.5,-147.42 1026.3,-147.42 1026.3,-147.42 1032.3,-147.42 1038.3,-153.42 1038.3,-159.42 1038.3,-159.42 1038.3,-171.42 1038.3,-171.42 1038.3,-177.42 1032.3,-183.42 1026.3,-183.42"/>
<text text-anchor="start" x="687.9" y="-161.75" font-family="Roboto, sans-serif" font-weight="bold" font-size="14.00">5: </text>
<text text-anchor="start" x="707.4" y="-161.75" font-family="Roboto, sans-serif" font-size="14.00">Ist ein nicht spezifizierter Fehler aufgetreten?</text>
</g>
<!-- 4&#45;&gt;5 -->
<g id="edge9" class="edge">
<title>4-&gt;5</title>
<path fill="none" stroke="#88a0d6" d="M836.08,-248.1C839.87,-232.49 845.04,-211.17 849.15,-194.23"/>
<polygon fill="#88a0d6" stroke="#88a0d6" points="852.49,-195.33 851.44,-184.79 845.68,-193.68 852.49,-195.33"/>
<text text-anchor="start" x="843.9" y="-214.26" font-family="Roboto, sans-serif" font-weight="bold" font-size="14.00">JA</text>
</g>
<!-- A99 -->
<g id="node11" class="node">
<title>A99</title>
<path fill="#c4cac1" stroke="black" stroke-width="0" d="M674.67,-86.28C674.67,-86.28 105.12,-86.28 105.12,-86.28 99.12,-86.28 93.12,-80.28 93.12,-74.28 93.12,-74.28 93.12,-12 93.12,-12 93.12,-6 99.12,0 105.12,0 105.12,0 674.67,0 674.67,0 680.67,0 686.67,-6 686.67,-12 686.67,-12 686.67,-74.28 686.67,-74.28 686.67,-80.28 680.67,-86.28 674.67,-86.28"/>
<text text-anchor="start" x="107.52" y="-64.34" font-family="Roboto, sans-serif" font-size="14.00">Cluster: Ablehnung</text>
<text text-anchor="start" x="107.52" y="-47.09" font-family="Roboto, sans-serif" font-size="14.00">Sonstiges</text>
<text text-anchor="start" x="107.52" y="-29.84" font-family="Roboto, sans-serif" font-size="14.00">Hinweis: Das identifizierte Problem ist in der Antwort zu beschreiben / benennen.</text>
<text text-anchor="start" x="107.52" y="-12.59" font-family="Roboto, sans-serif" font-size="14.00">Nutzungsm&#246;glichkeit Ende: 01.04.2026 00:00 Uhr</text>
</g>
<!-- 5&#45;&gt;A99 -->
<g id="edge10" class="edge">
<title>5-&gt;A99</title>
<path fill="none" stroke="#88a0d6" d="M790.12,-147.44C731.42,-132.29 642.78,-109.41 563.83,-89.03"/>
<polygon fill="#88a0d6" stroke="#88a0d6" points="564.78,-85.66 554.22,-86.55 563.03,-92.44 564.78,-85.66"/>
<text text-anchor="start" x="677.9" y="-109.23" font-family="Roboto, sans-serif" font-weight="bold" font-size="14.00">JA</text>
</g>
<!-- A05 -->
<g id="node12" class="node">
<title>A05</title>
<path fill="#c4cac1" stroke="black" stroke-width="0" d="M1011.05,-69.03C1011.05,-69.03 716.75,-69.03 716.75,-69.03 710.75,-69.03 704.75,-63.03 704.75,-57.03 704.75,-57.03 704.75,-29.25 704.75,-29.25 704.75,-23.25 710.75,-17.25 716.75,-17.25 716.75,-17.25 1011.05,-17.25 1011.05,-17.25 1017.05,-17.25 1023.05,-23.25 1023.05,-29.25 1023.05,-29.25 1023.05,-57.03 1023.05,-57.03 1023.05,-63.03 1017.05,-69.03 1011.05,-69.03"/>
<text text-anchor="start" x="719.15" y="-47.09" font-family="Roboto, sans-serif" font-size="14.00">Cluster: Zustimmung</text>
<text text-anchor="start" x="719.15" y="-29.84" font-family="Roboto, sans-serif" font-size="14.00">Beendigung der Zuordnung durchgef&#252;hrt</text>
</g>
<!-- 5&#45;&gt;A05 -->
<g id="edge11" class="edge">
<title>5-&gt;A05</title>
<path fill="none" stroke="#88a0d6" d="M857.03,-147.44C858.18,-130.1 860.01,-102.63 861.49,-80.37"/>
<polygon fill="#88a0d6" stroke="#88a0d6" points="864.98,-80.69 862.15,-70.48 857.99,-80.22 864.98,-80.69"/>
<text text-anchor="start" x="859.9" y="-109.23" font-family="Roboto, sans-serif" font-weight="bold" font-size="14.00">NEIN</text>
</g>
</g>
</svg>
  </g>
</svg>
  </g>
</svg>
