<?xml version='1.0' encoding='ASCII' standalone='yes'?>
<svg xmlns="http://www.w3.org/2000/svg" xmlns:xlink="http://www.w3.org/1999/xlink" version="1.1" width="444.0px" viewBox="0 0 444.0 198.66666666666666" height="198.66666666666666px">
  <g>
    <svg version="1.1" width="444.0px" viewBox="0 0 444.0 198.66666666666666" height="198.66666666666666px">
  <polygon fill="#f3f1f6" points="0,0 444.0,0 444.0,198.66666666666666 0,198.66666666666666"/><g>
    <g transform="translate(142.59227896760893, 19.86666666666666) scale(1 1) translate(0, 0) scale(0.898493015403992 0.898493015403992) "><sodipodi:namedview xmlns:sodipodi="http://sodipodi.sourceforge.net/DTD/sodipodi-0.dtd" xmlns:inkscape="http://www.inkscape.org/namespaces/inkscape" id="namedview7" pagecolor="#ffffff" bordercolor="#999999" borderopacity="1" inkscape:pageshadow="0" inkscape:pageopacity="0" inkscape:pagecheckerboard="0" inkscape:document-units="mm" showgrid="false" fit-margin-top="0" fit-margin-left="0" fit-margin-right="0" fit-margin-bottom="0" inkscape:zoom="0.64052329" inkscape:cx="130.36216" inkscape:cy="412.163" inkscape:window-width="1512" inkscape:window-height="916" inkscape:window-x="3840" inkscape:window-y="136" inkscape:window-maximized="0" inkscape:current-layer="layer1"/>
  <defs id="defs2">
    <clipPath clipPathUnits="userSpaceOnUse" id="clipPath23">
      <path d="M 0,568.156 H 579.236 V 0 H 0 Z" id="path21"/>
    </clipPath>
  </defs>
  <g xmlns:inkscape="http://www.inkscape.org/namespaces/inkscape" inkscape:label="Layer 1" inkscape:groupmode="layer" id="layer1" transform="translate(-16.541937,-55.305267)">
    <g id="g19" clip-path="url(#clipPath23)" transform="matrix(0.35277777,0,0,-0.35277777,0.01017023,243.73675)" style="opacity:0.2">
      <g id="g25" transform="translate(122.444,32.7195)">
        <path d="m 0,0 h -56.104 c -11,0 -19.898,9.123 -19.463,20.115 10.594,267.191 231.277,481.302 501.029,481.302 v -56.02 c 0,-10.98 -8.688,-19.892 -19.658,-20.393 C 180.29,414.697 0,228.005 0,0" style="fill:#6ead83;fill-opacity:0.5;fill-rule:nonzero;stroke:none" id="path27"/>
      </g>
      <g id="g29" transform="translate(273.7828,32.7195)">
        <path d="m 0,0 h -55.926 c -11.228,0 -20.091,9.482 -19.435,20.69 10.744,183.439 163.389,329.388 349.485,329.388 v -56.263 c 0,-10.709 -8.273,-19.617 -18.957,-20.35 C 112.819,263.696 0,144.774 0,0" style="fill:#6ead83;fill-opacity:0.5;fill-rule:nonzero;stroke:none" id="path31"/>
      </g>
      <g id="g33" transform="translate(425.7667,32.7195)">
        <path d="m 0,0 h -55.445 c -11.653,0 -20.604,10.17 -19.334,21.753 10.866,99.032 95.031,176.341 196.919,176.341 v -57.011 c 0,-10.046 -7.283,-18.755 -17.229,-20.165 C 45.688,112.522 0,61.497 0,0" style="fill:#6ead83;fill-opacity:0.5;fill-rule:nonzero;stroke:none" id="path35"/>
      </g>
    </g>
  </g>
</g>
    <svg width="333pt" height="149pt" viewBox="0.00 0.00 333.00 149.28">
<g id="graph0" class="graph" transform="scale(1 1) rotate(0) translate(4 145.28)">
<title>D</title>
<text text-anchor="start" x="8" y="-121.18" font-family="Times,serif" font-weight="bold" font-size="18.00">WiM Strom</text>
<text text-anchor="start" x="8" y="-91.08" font-family="Times,serif" font-weight="bold" font-size="16.00">8.23.1: AD: Reklamation vom &#220;NB</text>
<!-- Empty -->
<g id="node1" class="node">
<title>Empty</title>
<path fill="#7a8da1" stroke="black" stroke-width="0" d="M303.27,-43.28C303.27,-43.28 21.73,-43.28 21.73,-43.28 15.73,-43.28 9.72,-37.28 9.72,-31.28 9.72,-31.28 9.72,-12 9.72,-12 9.72,-6 15.72,0 21.72,0 21.72,0 303.27,0 303.27,0 309.27,0 315.27,-6 315.27,-12 315.27,-12 315.27,-31.28 315.27,-31.28 315.27,-37.28 309.27,-43.28 303.27,-43.28"/>
<text text-anchor="start" x="134.38" y="-22.34" font-family="Times,serif" font-weight="bold" font-size="14.00">E_0230</text>
<text text-anchor="start" x="24.12" y="-10.24" font-family="Times,serif" font-size="12.00">S_0079_ORDRSP Ablehnung der Reklamation</text>
</g>
</g>
</svg>
  </g>
</svg>
  </g>
</svg>
