<?xml version='1.0' encoding='ASCII' standalone='yes'?>
<svg xmlns="http://www.w3.org/2000/svg" xmlns:xlink="http://www.w3.org/1999/xlink" version="1.1" width="1920.0px" viewBox="0 0 1920.0 1240.0" height="1240.0px">
  <g>
    <svg version="1.1" width="1920.0px" viewBox="0 0 1920.0 1240.0" height="1240.0px">
  <polygon fill="#f3f1f6" points="0,0 1920.0,0 1920.0,1240.0 0,1240.0"/><g>
    <g transform="translate(464.36791570386777, 123.99999999999997) scale(1 1) translate(0, 0) scale(5.608043653192701 5.608043653192701) "><sodipodi:namedview xmlns:sodipodi="http://sodipodi.sourceforge.net/DTD/sodipodi-0.dtd" xmlns:inkscape="http://www.inkscape.org/namespaces/inkscape" id="namedview7" pagecolor="#ffffff" bordercolor="#999999" borderopacity="1" inkscape:pageshadow="0" inkscape:pageopacity="0" inkscape:pagecheckerboard="0" inkscape:document-units="mm" showgrid="false" fit-margin-top="0" fit-margin-left="0" fit-margin-right="0" fit-margin-bottom="0" inkscape:zoom="0.64052329" inkscape:cx="130.36216" inkscape:cy="412.163" inkscape:window-width="1512" inkscape:window-height="916" inkscape:window-x="3840" inkscape:window-y="136" inkscape:window-maximized="0" inkscape:current-layer="layer1"/>
  <defs id="defs2">
    <clipPath clipPathUnits="userSpaceOnUse" id="clipPath23">
      <path d="M 0,568.156 H 579.236 V 0 H 0 Z" id="path21"/>
    </clipPath>
  </defs>
  <g xmlns:inkscape="http://www.inkscape.org/namespaces/inkscape" inkscape:label="Layer 1" inkscape:groupmode="layer" id="layer1" transform="translate(-16.541937,-55.305267)">
    <g id="g19" clip-path="url(#clipPath23)" transform="matrix(0.35277777,0,0,-0.35277777,0.01017023,243.73675)" style="opacity:0.2">
      <g id="g25" transform="translate(122.444,32.7195)">
        <path d="m 0,0 h -56.104 c -11,0 -19.898,9.123 -19.463,20.115 10.594,267.191 231.277,481.302 501.029,481.302 v -56.02 c 0,-10.98 -8.688,-19.892 -19.658,-20.393 C 180.29,414.697 0,228.005 0,0" style="fill:#6ead83;fill-opacity:0.5;fill-rule:nonzero;stroke:none" id="path27"/>
      </g>
      <g id="g29" transform="translate(273.7828,32.7195)">
        <path d="m 0,0 h -55.926 c -11.228,0 -20.091,9.482 -19.435,20.69 10.744,183.439 163.389,329.388 349.485,329.388 v -56.263 c 0,-10.709 -8.273,-19.617 -18.957,-20.35 C 112.819,263.696 0,144.774 0,0" style="fill:#6ead83;fill-opacity:0.5;fill-rule:nonzero;stroke:none" id="path31"/>
      </g>
      <g id="g33" transform="translate(425.7667,32.7195)">
        <path d="m 0,0 h -55.445 c -11.653,0 -20.604,10.17 -19.334,21.753 10.866,99.032 95.031,176.341 196.919,176.341 v -57.011 c 0,-10.046 -7.283,-18.755 -17.229,-20.165 C 45.688,112.522 0,61.497 0,0" style="fill:#6ead83;fill-opacity:0.5;fill-rule:nonzero;stroke:none" id="path35"/>
      </g>
    </g>
  </g>
</g>
    <svg width="1440pt" height="930pt" viewBox="0.00 0.00 1440.00 930.37">
<g id="graph0" class="graph" transform="scale(0.854022 0.854022) rotate(0) translate(4 1085.4)">
<title>D</title>
<text text-anchor="start" x="781.7" y="-1061.3" font-family="Times,serif" font-weight="bold" font-size="18.00">WiM Strom</text>
<text text-anchor="start" x="555.95" y="-1031.2" font-family="Times,serif" font-weight="bold" font-size="16.00">8.25.1: AD: Anfrage und Bestellung von Werten durch den ESA</text>
<!-- Start -->
<g id="node1" class="node">
<title>Start</title>
<polygon fill="#7a8da1" stroke="black" points="1054.89,-983.4 883.59,-983.4 883.59,-940.12 1054.89,-940.12 1054.89,-983.4"/>
<text text-anchor="start" x="941.12" y="-962.46" font-family="Times,serif" font-weight="bold" font-size="14.00">E_0252</text>
<text text-anchor="start" x="897.99" y="-950.36" font-family="Times,serif" font-weight="bold" text-decoration="underline" font-size="12.00">Pr&#252;fende Rolle:</text>
<text text-anchor="start" x="1002.99" y="-950.36" font-family="Times,serif" font-weight="bold" font-size="12.00"> MSB</text>
</g>
<!-- 1 -->
<g id="node2" class="node">
<title>1</title>
<path fill="#7aab8a" stroke="black" d="M1373.26,-903.12C1373.26,-903.12 565.22,-903.12 565.22,-903.12 559.22,-903.12 553.22,-897.12 553.22,-891.12 553.22,-891.12 553.22,-879.12 553.22,-879.12 553.22,-873.12 559.22,-867.12 565.22,-867.12 565.22,-867.12 1373.26,-867.12 1373.26,-867.12 1379.26,-867.12 1385.26,-873.12 1385.26,-879.12 1385.26,-879.12 1385.26,-891.12 1385.26,-891.12 1385.26,-897.12 1379.26,-903.12 1373.26,-903.12"/>
<text text-anchor="start" x="567.62" y="-881.44" font-family="Times,serif" font-weight="bold" font-size="14.00">1: </text>
<text text-anchor="start" x="587.12" y="-881.44" font-family="Times,serif" font-size="14.00">Ist das vom ESA gew&#252;nschte Messprodukt in der Codeliste der Konfigurationen als &#8222;Pflicht&#8220; gekennzeichnet?</text>
</g>
<!-- Start&#45;&gt;1 -->
<g id="edge1" class="edge">
<title>Start-&gt;1</title>
<path fill="none" stroke="black" d="M969.24,-939.97C969.24,-932.11 969.24,-923.03 969.24,-914.59"/>
<polygon fill="black" stroke="black" points="972.74,-914.79 969.24,-904.79 965.74,-914.79 972.74,-914.79"/>
</g>
<!-- 2 -->
<g id="node3" class="node">
<title>2</title>
<path fill="#7aab8a" stroke="black" d="M1030.76,-813.87C1030.76,-813.87 249.72,-813.87 249.72,-813.87 243.72,-813.87 237.72,-807.87 237.72,-801.87 237.72,-801.87 237.72,-789.87 237.72,-789.87 237.72,-783.87 243.72,-777.87 249.72,-777.87 249.72,-777.87 1030.76,-777.87 1030.76,-777.87 1036.76,-777.87 1042.76,-783.87 1042.76,-789.87 1042.76,-789.87 1042.76,-801.87 1042.76,-801.87 1042.76,-807.87 1036.76,-813.87 1030.76,-813.87"/>
<text text-anchor="start" x="252.12" y="-792.19" font-family="Times,serif" font-weight="bold" font-size="14.00">2: </text>
<text text-anchor="start" x="271.62" y="-792.19" font-family="Times,serif" font-size="14.00">Wird das vom ESA gew&#252;nschte Messprodukt entsprechend der Codeliste der Konfigurationen angeboten?</text>
</g>
<!-- 1&#45;&gt;2 -->
<g id="edge2" class="edge">
<title>1-&gt;2</title>
<path fill="none" stroke="black" d="M903.45,-866.67C849.75,-852.43 773.76,-832.28 717.23,-817.29"/>
<polygon fill="black" stroke="black" points="718.22,-813.93 707.66,-814.75 716.43,-820.7 718.22,-813.93"/>
<text text-anchor="middle" x="850.12" y="-835.82" font-family="Times,serif" font-size="14.00">Nein</text>
</g>
<!-- 3 -->
<g id="node5" class="node">
<title>3</title>
<path fill="#7aab8a" stroke="black" d="M1665.89,-711.86C1665.89,-711.86 492.59,-711.86 492.59,-711.86 486.59,-711.86 480.59,-705.86 480.59,-699.86 480.59,-699.86 480.59,-687.86 480.59,-687.86 480.59,-681.86 486.59,-675.86 492.59,-675.86 492.59,-675.86 1665.89,-675.86 1665.89,-675.86 1671.89,-675.86 1677.89,-681.86 1677.89,-687.86 1677.89,-687.86 1677.89,-699.86 1677.89,-699.86 1677.89,-705.86 1671.89,-711.86 1665.89,-711.86"/>
<text text-anchor="start" x="494.99" y="-690.18" font-family="Times,serif" font-weight="bold" font-size="14.00">3: </text>
<text text-anchor="start" x="514.49" y="-690.18" font-family="Times,serif" font-size="14.00">Liegt die vertragliche Grundlage zur Anfrage und &#220;bermittlung der Werte und Abrechnung der erbrachten Dienstleistung vom MSB an den ESA beim MSB vor?</text>
</g>
<!-- 1&#45;&gt;3 -->
<g id="edge3" class="edge">
<title>1-&gt;3</title>
<path fill="none" stroke="black" d="M998.07,-866.75C1016.32,-854.27 1038.91,-835.81 1052.24,-813.87 1069.06,-786.17 1075.42,-749.08 1077.81,-723.71"/>
<polygon fill="black" stroke="black" points="1081.3,-724.04 1078.58,-713.8 1074.32,-723.5 1081.3,-724.04"/>
<text text-anchor="middle" x="1073.99" y="-791.19" font-family="Times,serif" font-size="14.00">Ja</text>
</g>
<!-- A02 -->
<g id="node4" class="node">
<title>A02</title>
<polygon fill="#cfb986" stroke="black" points="462.48,-724.62 0,-724.62 0,-663.1 462.48,-663.1 462.48,-724.62"/>
<text text-anchor="start" x="216.24" y="-706.56" font-family="Times,serif" font-weight="bold" font-size="14.00">A02</text>
<text text-anchor="start" x="12.24" y="-694.46" font-family="Times,serif" text-decoration="underline" font-size="12.00">Hinweis:</text>
<text text-anchor="start" x="12.24" y="-682.46" font-family="Times,serif" font-size="12.00">Cluster: Ablehnung</text>
<text text-anchor="start" x="12.24" y="-670.46" font-family="Times,serif" font-size="12.00">Das vom ESA gew&#252;nschte Messprodukt wird vom MSB nicht angeboten.</text>
</g>
<!-- 2&#45;&gt;A02 -->
<g id="edge4" class="edge">
<title>2-&gt;A02</title>
<path fill="none" stroke="black" d="M569,-777.45C513.06,-763.77 433.55,-744.33 365.73,-727.75"/>
<polygon fill="black" stroke="black" points="366.97,-724.45 356.42,-725.47 365.3,-731.24 366.97,-724.45"/>
<text text-anchor="middle" x="513.12" y="-746.57" font-family="Times,serif" font-size="14.00">Nein</text>
</g>
<!-- 2&#45;&gt;3 -->
<g id="edge5" class="edge">
<title>2-&gt;3</title>
<path fill="none" stroke="black" d="M716.96,-777.39C793.6,-759.93 911.27,-733.13 991.56,-714.83"/>
<polygon fill="black" stroke="black" points="992.19,-718.28 1001.16,-712.65 990.63,-711.46 992.19,-718.28"/>
<text text-anchor="middle" x="865.99" y="-746.57" font-family="Times,serif" font-size="14.00">Ja</text>
</g>
<!-- A03 -->
<g id="node6" class="node">
<title>A03</title>
<polygon fill="#cfb986" stroke="black" points="320.36,-609.85 10.12,-609.85 10.12,-548.33 320.36,-548.33 320.36,-609.85"/>
<text text-anchor="start" x="150.24" y="-591.79" font-family="Times,serif" font-weight="bold" font-size="14.00">A03</text>
<text text-anchor="start" x="22.37" y="-579.69" font-family="Times,serif" text-decoration="underline" font-size="12.00">Hinweis:</text>
<text text-anchor="start" x="22.37" y="-567.69" font-family="Times,serif" font-size="12.00">Cluster: Ablehnung</text>
<text text-anchor="start" x="22.37" y="-555.69" font-family="Times,serif" font-size="12.00">Vertragliche Grundlage des ESA liegt nicht vor.</text>
</g>
<!-- 3&#45;&gt;A03 -->
<g id="edge6" class="edge">
<title>3-&gt;A03</title>
<path fill="none" stroke="black" d="M888.04,-675.38C739.09,-660.9 526.92,-638.36 331.91,-610.21"/>
<polygon fill="black" stroke="black" points="332.47,-606.75 322.07,-608.78 331.47,-613.68 332.47,-606.75"/>
<text text-anchor="middle" x="613.12" y="-631.8" font-family="Times,serif" font-size="14.00">Nein</text>
</g>
<!-- 4 -->
<g id="node7" class="node">
<title>4</title>
<path fill="#7aab8a" stroke="black" d="M1666.14,-608.73C1666.14,-608.73 350.34,-608.73 350.34,-608.73 344.34,-608.73 338.34,-602.73 338.34,-596.73 338.34,-596.73 338.34,-561.45 338.34,-561.45 338.34,-555.45 344.34,-549.45 350.34,-549.45 350.34,-549.45 1666.14,-549.45 1666.14,-549.45 1672.14,-549.45 1678.14,-555.45 1678.14,-561.45 1678.14,-561.45 1678.14,-596.73 1678.14,-596.73 1678.14,-602.73 1672.14,-608.73 1666.14,-608.73"/>
<text text-anchor="start" x="352.74" y="-587.79" font-family="Times,serif" font-weight="bold" font-size="14.00">4: </text>
<text text-anchor="start" x="372.24" y="-587.79" font-family="Times,serif" font-size="14.00">Liegt dem MSB eine g&#252;ltige datenschutzrechtliche Einwilligung (wie z. B. das BDEW-Muster &#8222;Einwilligungserkl&#228;rung in die Verarbeitung personenbezogener Daten nach DS-GVO - </text>
<text text-anchor="start" x="352.74" y="-573.79" font-family="Times,serif" font-size="14.00">Anfrage und &#220;bermittlung von Messprodukten </text>
<text text-anchor="start" x="352.74" y="-559.79" font-family="Times,serif" font-size="14.00">gem&#228;&#223; BNetzA-Festlegung BK6-20-160&#8220;) zur Anfrage und &#220;bermittlung von Messprodukten vor?</text>
</g>
<!-- 3&#45;&gt;4 -->
<g id="edge7" class="edge">
<title>3-&gt;4</title>
<path fill="none" stroke="black" d="M1068.46,-675.73C1058.9,-660.55 1044.6,-637.83 1032.33,-618.35"/>
<polygon fill="black" stroke="black" points="1035.41,-616.68 1027.12,-610.08 1029.49,-620.41 1035.41,-616.68"/>
<text text-anchor="middle" x="1053.99" y="-631.8" font-family="Times,serif" font-size="14.00">Ja</text>
</g>
<!-- A04 -->
<g id="node8" class="node">
<title>A04</title>
<polygon fill="#cfb986" stroke="black" points="830.11,-495.08 422.38,-495.08 422.38,-433.56 830.11,-433.56 830.11,-495.08"/>
<text text-anchor="start" x="611.24" y="-477.02" font-family="Times,serif" font-weight="bold" font-size="14.00">A04</text>
<text text-anchor="start" x="434.62" y="-464.92" font-family="Times,serif" text-decoration="underline" font-size="12.00">Hinweis:</text>
<text text-anchor="start" x="434.62" y="-452.92" font-family="Times,serif" font-size="12.00">Cluster: Ablehnung</text>
<text text-anchor="start" x="434.62" y="-440.92" font-family="Times,serif" font-size="12.00">Die unterzeichnete Einwilligung f&#252;r die Lokation liegt nicht vor.</text>
</g>
<!-- 4&#45;&gt;A04 -->
<g id="edge8" class="edge">
<title>4-&gt;A04</title>
<path fill="none" stroke="black" d="M909.87,-549.05C857.85,-533.69 793.75,-514.77 739.65,-498.8"/>
<polygon fill="black" stroke="black" points="740.65,-495.45 730.07,-495.97 738.67,-502.16 740.65,-495.45"/>
<text text-anchor="middle" x="856.12" y="-517.03" font-family="Times,serif" font-size="14.00">Nein</text>
</g>
<!-- 5 -->
<g id="node9" class="node">
<title>5</title>
<path fill="#7aab8a" stroke="black" d="M1322.39,-482.32C1322.39,-482.32 860.09,-482.32 860.09,-482.32 854.09,-482.32 848.09,-476.32 848.09,-470.32 848.09,-470.32 848.09,-458.32 848.09,-458.32 848.09,-452.32 854.09,-446.32 860.09,-446.32 860.09,-446.32 1322.39,-446.32 1322.39,-446.32 1328.39,-446.32 1334.39,-452.32 1334.39,-458.32 1334.39,-458.32 1334.39,-470.32 1334.39,-470.32 1334.39,-476.32 1328.39,-482.32 1322.39,-482.32"/>
<text text-anchor="start" x="862.49" y="-460.64" font-family="Times,serif" font-weight="bold" font-size="14.00">5: </text>
<text text-anchor="start" x="881.99" y="-460.64" font-family="Times,serif" font-size="14.00">Sind die Daten in der Einwilligung plausibel und vollst&#228;ndig?</text>
</g>
<!-- 4&#45;&gt;5 -->
<g id="edge9" class="edge">
<title>4-&gt;5</title>
<path fill="none" stroke="black" d="M1029.61,-549.05C1042.66,-531.32 1059.22,-508.83 1071.88,-491.62"/>
<polygon fill="black" stroke="black" points="1074.46,-494.02 1077.57,-483.89 1068.83,-489.87 1074.46,-494.02"/>
<text text-anchor="middle" x="1060.99" y="-517.03" font-family="Times,serif" font-size="14.00">Ja</text>
</g>
<!-- A05 -->
<g id="node10" class="node">
<title>A05</title>
<polygon fill="#cfb986" stroke="black" points="671.11,-380.31 281.38,-380.31 281.38,-318.79 671.11,-318.79 671.11,-380.31"/>
<text text-anchor="start" x="461.24" y="-362.25" font-family="Times,serif" font-weight="bold" font-size="14.00">A05</text>
<text text-anchor="start" x="293.62" y="-350.15" font-family="Times,serif" text-decoration="underline" font-size="12.00">Hinweis:</text>
<text text-anchor="start" x="293.62" y="-338.15" font-family="Times,serif" font-size="12.00">Cluster: Ablehnung</text>
<text text-anchor="start" x="293.62" y="-326.15" font-family="Times,serif" font-size="12.00">Vorliegende Einwilligung ist nicht plausibel oder vollst&#228;ndig.</text>
</g>
<!-- 5&#45;&gt;A05 -->
<g id="edge10" class="edge">
<title>5-&gt;A05</title>
<path fill="none" stroke="black" d="M995.82,-445.82C904.32,-429.04 763.96,-403.31 652.18,-382.81"/>
<polygon fill="black" stroke="black" points="653.07,-379.42 642.6,-381.05 651.8,-386.3 653.07,-379.42"/>
<text text-anchor="middle" x="837.12" y="-402.26" font-family="Times,serif" font-size="14.00">Nein</text>
</g>
<!-- 6 -->
<g id="node11" class="node">
<title>6</title>
<path fill="#7aab8a" stroke="black" d="M1563.64,-367.55C1563.64,-367.55 700.84,-367.55 700.84,-367.55 694.84,-367.55 688.84,-361.55 688.84,-355.55 688.84,-355.55 688.84,-343.55 688.84,-343.55 688.84,-337.55 694.84,-331.55 700.84,-331.55 700.84,-331.55 1563.64,-331.55 1563.64,-331.55 1569.64,-331.55 1575.64,-337.55 1575.64,-343.55 1575.64,-343.55 1575.64,-355.55 1575.64,-355.55 1575.64,-361.55 1569.64,-367.55 1563.64,-367.55"/>
<text text-anchor="start" x="703.24" y="-345.87" font-family="Times,serif" font-weight="bold" font-size="14.00">6: </text>
<text text-anchor="start" x="722.74" y="-345.87" font-family="Times,serif" font-size="14.00">Erm&#246;glicht die vorhandene Ger&#228;tetechnik die &#220;bermittlung der angefragten Werte entsprechend dem Messprodukt?</text>
</g>
<!-- 5&#45;&gt;6 -->
<g id="edge11" class="edge">
<title>5-&gt;6</title>
<path fill="none" stroke="black" d="M1097.47,-446.19C1104,-428.23 1114.37,-399.7 1122.09,-378.47"/>
<polygon fill="black" stroke="black" points="1125.31,-379.86 1125.44,-369.26 1118.73,-377.46 1125.31,-379.86"/>
<text text-anchor="middle" x="1119.99" y="-402.26" font-family="Times,serif" font-size="14.00">Ja</text>
</g>
<!-- A06 -->
<g id="node12" class="node">
<title>A06</title>
<polygon fill="#cfb986" stroke="black" points="753.98,-265.54 366.5,-265.54 366.5,-204.02 753.98,-204.02 753.98,-265.54"/>
<text text-anchor="start" x="545.24" y="-247.48" font-family="Times,serif" font-weight="bold" font-size="14.00">A06</text>
<text text-anchor="start" x="378.74" y="-235.38" font-family="Times,serif" text-decoration="underline" font-size="12.00">Hinweis:</text>
<text text-anchor="start" x="378.74" y="-223.38" font-family="Times,serif" font-size="12.00">Cluster: Ablehnung</text>
<text text-anchor="start" x="378.74" y="-211.38" font-family="Times,serif" font-size="12.00">Die Ger&#228;tetechnik misst die angeforderten Messwerte nicht.</text>
</g>
<!-- 6&#45;&gt;A06 -->
<g id="edge12" class="edge">
<title>6-&gt;A06</title>
<path fill="none" stroke="black" d="M1043.49,-331.05C958.64,-314.33 828.63,-288.69 724.82,-268.23"/>
<polygon fill="black" stroke="black" points="725.56,-264.81 715.07,-266.3 724.2,-271.67 725.56,-264.81"/>
<text text-anchor="middle" x="897.12" y="-287.49" font-family="Times,serif" font-size="14.00">Nein</text>
</g>
<!-- 7 -->
<g id="node13" class="node">
<title>7</title>
<path fill="#7aab8a" stroke="black" d="M1520.26,-252.78C1520.26,-252.78 784.22,-252.78 784.22,-252.78 778.22,-252.78 772.22,-246.78 772.22,-240.78 772.22,-240.78 772.22,-228.78 772.22,-228.78 772.22,-222.78 778.22,-216.78 784.22,-216.78 784.22,-216.78 1520.26,-216.78 1520.26,-216.78 1526.26,-216.78 1532.26,-222.78 1532.26,-228.78 1532.26,-228.78 1532.26,-240.78 1532.26,-240.78 1532.26,-246.78 1526.26,-252.78 1520.26,-252.78"/>
<text text-anchor="start" x="786.62" y="-231.1" font-family="Times,serif" font-weight="bold" font-size="14.00">7: </text>
<text text-anchor="start" x="806.12" y="-231.1" font-family="Times,serif" font-size="14.00">Handelt es sich um eine Anfrage von Werten auf Ebene der Marktlokation / Tranche / Netzlokation?</text>
</g>
<!-- 6&#45;&gt;7 -->
<g id="edge13" class="edge">
<title>6-&gt;7</title>
<path fill="none" stroke="black" d="M1135.28,-331.42C1138.43,-313.62 1143.43,-285.46 1147.18,-264.29"/>
<polygon fill="black" stroke="black" points="1150.61,-265.02 1148.91,-254.56 1143.72,-263.79 1150.61,-265.02"/>
<text text-anchor="middle" x="1149.99" y="-287.49" font-family="Times,serif" font-size="14.00">Ja</text>
</g>
<!-- Ende -->
<g id="node14" class="node">
<title>Ende</title>
<polygon fill="#7a8da1" stroke="black" points="719.01,-48.76 653.47,-48.76 653.47,-12.76 719.01,-12.76 719.01,-48.76"/>
<text text-anchor="middle" x="686.24" y="-26.08" font-family="Times,serif" font-size="14.00">Ende</text>
</g>
<!-- 7&#45;&gt;Ende -->
<g id="edge15" class="edge">
<title>7-&gt;Ende</title>
<path fill="none" stroke="black" d="M955.14,-216.28C808.4,-201.21 629.6,-177.66 606.49,-150.77 580.26,-120.25 619.04,-80.77 651.13,-55.85"/>
<polygon fill="black" stroke="black" points="652.84,-58.94 658.74,-50.14 648.64,-53.35 652.84,-58.94"/>
<text text-anchor="middle" x="623.12" y="-128.09" font-family="Times,serif" font-size="14.00">Nein</text>
</g>
<!-- 8 -->
<g id="node15" class="node">
<title>8</title>
<path fill="#7aab8a" stroke="black" d="M1665.51,-150.77C1665.51,-150.77 660.97,-150.77 660.97,-150.77 654.97,-150.77 648.97,-144.77 648.97,-138.77 648.97,-138.77 648.97,-126.77 648.97,-126.77 648.97,-120.77 654.97,-114.77 660.97,-114.77 660.97,-114.77 1665.51,-114.77 1665.51,-114.77 1671.51,-114.77 1677.51,-120.77 1677.51,-126.77 1677.51,-126.77 1677.51,-138.77 1677.51,-138.77 1677.51,-144.77 1671.51,-150.77 1665.51,-150.77"/>
<text text-anchor="start" x="663.37" y="-129.09" font-family="Times,serif" font-weight="bold" font-size="14.00">8: </text>
<text text-anchor="start" x="682.87" y="-129.09" font-family="Times,serif" font-size="14.00">Ist der MSB an allen der Marktlokation (inkl. Tranche) / Netzlokation zugeordneten Messlokationen auch der MSB der Messlokation(en)?</text>
</g>
<!-- 7&#45;&gt;8 -->
<g id="edge14" class="edge">
<title>7-&gt;8</title>
<path fill="none" stroke="black" d="M1154.16,-216.36C1155.8,-201.45 1158.19,-179.68 1160.11,-162.24"/>
<polygon fill="black" stroke="black" points="1163.57,-162.82 1161.18,-152.5 1156.61,-162.05 1163.57,-162.82"/>
<text text-anchor="middle" x="1165.99" y="-172.72" font-family="Times,serif" font-size="14.00">Ja</text>
</g>
<!-- 8&#45;&gt;Ende -->
<g id="edge17" class="edge">
<title>8-&gt;Ende</title>
<path fill="none" stroke="black" d="M1074.23,-114.29C1004.28,-100.4 904.43,-80.27 817.24,-61.52 788.27,-55.29 755.79,-47.91 730.42,-42.06"/>
<polygon fill="black" stroke="black" points="731.31,-38.68 720.78,-39.83 729.73,-45.5 731.31,-38.68"/>
<text text-anchor="middle" x="983.99" y="-83.47" font-family="Times,serif" font-size="14.00">Ja</text>
</g>
<!-- A07 -->
<g id="node16" class="node">
<title>A07</title>
<polygon fill="#cfb986" stroke="black" points="1500.61,-61.52 825.88,-61.52 825.88,0 1500.61,0 1500.61,-61.52"/>
<text text-anchor="start" x="1148.24" y="-43.46" font-family="Times,serif" font-weight="bold" font-size="14.00">A07</text>
<text text-anchor="start" x="838.12" y="-31.36" font-family="Times,serif" text-decoration="underline" font-size="12.00">Hinweis:</text>
<text text-anchor="start" x="838.12" y="-19.36" font-family="Times,serif" font-size="12.00">Cluster: Ablehnung</text>
<text text-anchor="start" x="838.12" y="-7.36" font-family="Times,serif" font-size="12.00">Der MSB der Marktlokation / Netzlokation ist nicht zeitgleich der allen Messlokation(en) zugeordnete MSB.</text>
</g>
<!-- 8&#45;&gt;A07 -->
<g id="edge16" class="edge">
<title>8-&gt;A07</title>
<path fill="none" stroke="black" d="M1163.24,-114.35C1163.24,-102.96 1163.24,-87.57 1163.24,-73.16"/>
<polygon fill="black" stroke="black" points="1166.74,-73.42 1163.24,-63.42 1159.74,-73.42 1166.74,-73.42"/>
<text text-anchor="middle" x="1180.12" y="-83.47" font-family="Times,serif" font-size="14.00">Nein</text>
</g>
</g>
</svg>
  </g>
</svg>
  </g>
</svg>
