<?xml version='1.0' encoding='ASCII' standalone='yes'?>
<svg xmlns="http://www.w3.org/2000/svg" xmlns:xlink="http://www.w3.org/1999/xlink" version="1.1" width="9194.666666666666px" viewBox="0 0 9194.666666666666 2028.0" height="2028.0px">
  <g>
    <svg version="1.1" width="9194.666666666666px" viewBox="0 0 9194.666666666666 2028.0" height="2028.0px">
  <polygon fill="#f3f1f6" points="0,0 9194.666666666666,0 9194.666666666666,2028.0 0,2028.0"/><g>
    <g transform="translate(3786.735053532884, 202.79999999999995) scale(1 1) translate(0, 0) scale(9.171864942479676 9.171864942479676) "><sodipodi:namedview xmlns:sodipodi="http://sodipodi.sourceforge.net/DTD/sodipodi-0.dtd" xmlns:inkscape="http://www.inkscape.org/namespaces/inkscape" id="namedview7" pagecolor="#ffffff" bordercolor="#999999" borderopacity="1" inkscape:pageshadow="0" inkscape:pageopacity="0" inkscape:pagecheckerboard="0" inkscape:document-units="mm" showgrid="false" fit-margin-top="0" fit-margin-left="0" fit-margin-right="0" fit-margin-bottom="0" inkscape:zoom="0.64052329" inkscape:cx="130.36216" inkscape:cy="412.163" inkscape:window-width="1512" inkscape:window-height="916" inkscape:window-x="3840" inkscape:window-y="136" inkscape:window-maximized="0" inkscape:current-layer="layer1"/>
  <defs id="defs2">
    <clipPath clipPathUnits="userSpaceOnUse" id="clipPath23">
      <path d="M 0,568.156 H 579.236 V 0 H 0 Z" id="path21"/>
    </clipPath>
  </defs>
  <g xmlns:inkscape="http://www.inkscape.org/namespaces/inkscape" inkscape:label="Layer 1" inkscape:groupmode="layer" id="layer1" transform="translate(-16.541937,-55.305267)">
    <g id="g19" clip-path="url(#clipPath23)" transform="matrix(0.35277777,0,0,-0.35277777,0.01017023,243.73675)" style="opacity:0.2">
      <g id="g25" transform="translate(122.444,32.7195)">
        <path d="m 0,0 h -56.104 c -11,0 -19.898,9.123 -19.463,20.115 10.594,267.191 231.277,481.302 501.029,481.302 v -56.02 c 0,-10.98 -8.688,-19.892 -19.658,-20.393 C 180.29,414.697 0,228.005 0,0" style="fill:#6ead83;fill-opacity:0.5;fill-rule:nonzero;stroke:none" id="path27"/>
      </g>
      <g id="g29" transform="translate(273.7828,32.7195)">
        <path d="m 0,0 h -55.926 c -11.228,0 -20.091,9.482 -19.435,20.69 10.744,183.439 163.389,329.388 349.485,329.388 v -56.263 c 0,-10.709 -8.273,-19.617 -18.957,-20.35 C 112.819,263.696 0,144.774 0,0" style="fill:#6ead83;fill-opacity:0.5;fill-rule:nonzero;stroke:none" id="path31"/>
      </g>
      <g id="g33" transform="translate(425.7667,32.7195)">
        <path d="m 0,0 h -55.445 c -11.653,0 -20.604,10.17 -19.334,21.753 10.866,99.032 95.031,176.341 196.919,176.341 v -57.011 c 0,-10.046 -7.283,-18.755 -17.229,-20.165 C 45.688,112.522 0,61.497 0,0" style="fill:#6ead83;fill-opacity:0.5;fill-rule:nonzero;stroke:none" id="path35"/>
      </g>
    </g>
  </g>
</g>
    <svg width="6896pt" height="1521pt" viewBox="0.00 0.00 6896.36 1520.77">
<g id="graph0" class="graph" transform="scale(1 1) rotate(0) translate(4 1516.77)">
<title>D</title>
<text text-anchor="start" x="3386.81" y="-1492.67" font-family="Times,serif" font-weight="bold" font-size="18.00">WiM Strom</text>
<text text-anchor="start" x="3213.56" y="-1462.57" font-family="Times,serif" font-weight="bold" font-size="16.00">8.16.1: AD: St&#246;rungsbehebung in der Messlokation</text>
<!-- Start -->
<g id="node1" class="node">
<title>Start</title>
<polygon fill="#7a8da1" stroke="black" points="1901.65,-1399.65 1730.35,-1399.65 1730.35,-1356.37 1901.65,-1356.37 1901.65,-1399.65"/>
<text text-anchor="start" x="1787.88" y="-1378.71" font-family="Times,serif" font-weight="bold" font-size="14.00">E_0217</text>
<text text-anchor="start" x="1744.75" y="-1366.61" font-family="Times,serif" font-weight="bold" text-decoration="underline" font-size="12.00">Pr&#252;fende Rolle:</text>
<text text-anchor="start" x="1849.75" y="-1366.61" font-family="Times,serif" font-weight="bold" font-size="12.00"> MSB</text>
</g>
<!-- 5 -->
<g id="node2" class="node">
<title>5</title>
<path fill="#7aab8a" stroke="black" d="M2072.65,-1304.25C2072.65,-1304.25 1559.35,-1304.25 1559.35,-1304.25 1553.35,-1304.25 1547.35,-1298.25 1547.35,-1292.25 1547.35,-1292.25 1547.35,-1280.25 1547.35,-1280.25 1547.35,-1274.25 1553.35,-1268.25 1559.35,-1268.25 1559.35,-1268.25 2072.65,-1268.25 2072.65,-1268.25 2078.65,-1268.25 2084.65,-1274.25 2084.65,-1280.25 2084.65,-1280.25 2084.65,-1292.25 2084.65,-1292.25 2084.65,-1298.25 2078.65,-1304.25 2072.65,-1304.25"/>
<text text-anchor="start" x="1561.75" y="-1282.58" font-family="Times,serif" font-weight="bold" font-size="14.00">5: </text>
<text text-anchor="start" x="1581.25" y="-1282.58" font-family="Times,serif" font-size="14.00">Handelt es sich um eine Berechnungsformel f&#252;r eine Marktlokation?</text>
</g>
<!-- Start&#45;&gt;5 -->
<g id="edge1" class="edge">
<title>Start-&gt;5</title>
<path fill="none" stroke="black" d="M1816,-1356.19C1816,-1344.22 1816,-1329 1816,-1315.91"/>
<polygon fill="black" stroke="black" points="1819.5,-1316.15 1816,-1306.15 1812.5,-1316.15 1819.5,-1316.15"/>
</g>
<!-- 10 -->
<g id="node3" class="node">
<title>10</title>
<path fill="#7aab8a" stroke="black" d="M2356.65,-1215C2356.65,-1215 1843.35,-1215 1843.35,-1215 1837.35,-1215 1831.35,-1209 1831.35,-1203 1831.35,-1203 1831.35,-1191 1831.35,-1191 1831.35,-1185 1837.35,-1179 1843.35,-1179 1843.35,-1179 2356.65,-1179 2356.65,-1179 2362.65,-1179 2368.65,-1185 2368.65,-1191 2368.65,-1191 2368.65,-1203 2368.65,-1203 2368.65,-1209 2362.65,-1215 2356.65,-1215"/>
<text text-anchor="start" x="1845.75" y="-1193.33" font-family="Times,serif" font-weight="bold" font-size="14.00">10: </text>
<text text-anchor="start" x="1875" y="-1193.33" font-family="Times,serif" font-size="14.00">Handelt es sich um eine Berechnungsformel f&#252;r eine Netzlokation?</text>
</g>
<!-- 5&#45;&gt;10 -->
<g id="edge3" class="edge">
<title>5-&gt;10</title>
<path fill="none" stroke="black" d="M1872.79,-1267.8C1918.84,-1253.66 1983.86,-1233.68 2032.56,-1218.72"/>
<polygon fill="black" stroke="black" points="2033.33,-1222.14 2041.86,-1215.86 2031.28,-1215.45 2033.33,-1222.14"/>
<text text-anchor="middle" x="1999.88" y="-1236.95" font-family="Times,serif" font-size="14.00">Nein</text>
</g>
<!-- 15 -->
<g id="node4" class="node">
<title>15</title>
<path fill="#7aab8a" stroke="black" d="M2214.53,-1125.75C2214.53,-1125.75 1385.47,-1125.75 1385.47,-1125.75 1379.47,-1125.75 1373.47,-1119.75 1373.47,-1113.75 1373.47,-1113.75 1373.47,-1101.75 1373.47,-1101.75 1373.47,-1095.75 1379.47,-1089.75 1385.47,-1089.75 1385.47,-1089.75 2214.53,-1089.75 2214.53,-1089.75 2220.53,-1089.75 2226.53,-1095.75 2226.53,-1101.75 2226.53,-1101.75 2226.53,-1113.75 2226.53,-1113.75 2226.53,-1119.75 2220.53,-1125.75 2214.53,-1125.75"/>
<text text-anchor="start" x="1387.88" y="-1104.08" font-family="Times,serif" font-weight="bold" font-size="14.00">15: </text>
<text text-anchor="start" x="1417.12" y="-1104.08" font-family="Times,serif" font-size="14.00">Handelt es sich bei dem &#8222;Verwendungszeitraum der Daten&#8220; um einen Zeitraum mit dem Status &#8222;keine Daten&#8220;?</text>
</g>
<!-- 5&#45;&gt;15 -->
<g id="edge2" class="edge">
<title>5-&gt;15</title>
<path fill="none" stroke="black" d="M1814.02,-1267.94C1812.43,-1253.73 1810.19,-1233.07 1808.5,-1215 1806.04,-1188.69 1803.68,-1158.68 1802.08,-1137.28"/>
<polygon fill="black" stroke="black" points="1805.59,-1137.28 1801.36,-1127.57 1798.61,-1137.8 1805.59,-1137.28"/>
<text text-anchor="middle" x="1815.75" y="-1192.33" font-family="Times,serif" font-size="14.00">Ja</text>
</g>
<!-- 10&#45;&gt;15 -->
<g id="edge4" class="edge">
<title>10-&gt;15</title>
<path fill="none" stroke="black" d="M2040.01,-1178.55C1991.34,-1164.4 1922.62,-1144.41 1871.17,-1129.45"/>
<polygon fill="black" stroke="black" points="1872.17,-1126.1 1861.59,-1126.66 1870.22,-1132.82 1872.17,-1126.1"/>
<text text-anchor="middle" x="1982.75" y="-1147.7" font-family="Times,serif" font-size="14.00">Ja</text>
</g>
<!-- 110 -->
<g id="node24" class="node">
<title>110</title>
<path fill="#7aab8a" stroke="black" d="M1507.03,-214.5C1507.03,-214.5 1088.97,-214.5 1088.97,-214.5 1082.97,-214.5 1076.97,-208.5 1076.97,-202.5 1076.97,-202.5 1076.97,-190.5 1076.97,-190.5 1076.97,-184.5 1082.97,-178.5 1088.97,-178.5 1088.97,-178.5 1507.03,-178.5 1507.03,-178.5 1513.03,-178.5 1519.03,-184.5 1519.03,-190.5 1519.03,-190.5 1519.03,-202.5 1519.03,-202.5 1519.03,-208.5 1513.03,-214.5 1507.03,-214.5"/>
<text text-anchor="start" x="1091.38" y="-192.82" font-family="Times,serif" font-weight="bold" font-size="14.00">110: </text>
<text text-anchor="start" x="1130.38" y="-192.82" font-family="Times,serif" font-size="14.00">Ist ein zuvor nicht spezifizierter Fehler aufgetreten?</text>
</g>
<!-- 10&#45;&gt;110 -->
<g id="edge5" class="edge">
<title>10-&gt;110</title>
<path fill="none" stroke="black" d="M2229.54,-1178.6C2264.57,-1166.13 2293,-1144.88 2293,-1108.75 2293,-1108.75 2293,-1108.75 2293,-284.75 2293,-273.42 2284.43,-272.17 2274,-267.75 2144.84,-213.01 1776.14,-199.66 1530.72,-197.08"/>
<polygon fill="black" stroke="black" points="1531.04,-193.58 1521,-196.98 1530.97,-200.58 1531.04,-193.58"/>
<text text-anchor="middle" x="2309.88" y="-692.08" font-family="Times,serif" font-size="14.00">Nein</text>
</g>
<!-- 18 -->
<g id="node5" class="node">
<title>18</title>
<path fill="#7aab8a" stroke="black" d="M1523.53,-1036.5C1523.53,-1036.5 796.48,-1036.5 796.48,-1036.5 790.48,-1036.5 784.48,-1030.5 784.48,-1024.5 784.48,-1024.5 784.48,-1012.5 784.48,-1012.5 784.48,-1006.5 790.48,-1000.5 796.48,-1000.5 796.48,-1000.5 1523.53,-1000.5 1523.53,-1000.5 1529.53,-1000.5 1535.53,-1006.5 1535.53,-1012.5 1535.53,-1012.5 1535.53,-1024.5 1535.53,-1024.5 1535.53,-1030.5 1529.53,-1036.5 1523.53,-1036.5"/>
<text text-anchor="start" x="798.88" y="-1014.83" font-family="Times,serif" font-weight="bold" font-size="14.00">18: </text>
<text text-anchor="start" x="828.12" y="-1014.83" font-family="Times,serif" font-size="14.00">Werden f&#252;r den Verwendungszeitraum der Daten mit dem Status &#8222;keine Daten&#8220; Daten erwartet?</text>
</g>
<!-- 15&#45;&gt;18 -->
<g id="edge7" class="edge">
<title>15-&gt;18</title>
<path fill="none" stroke="black" d="M1671.64,-1089.25C1563.86,-1074.56 1410.17,-1053.61 1299.4,-1038.5"/>
<polygon fill="black" stroke="black" points="1300.03,-1035.06 1289.65,-1037.17 1299.08,-1041.99 1300.03,-1035.06"/>
<text text-anchor="middle" x="1544.75" y="-1058.45" font-family="Times,serif" font-size="14.00">Ja</text>
</g>
<!-- 20 -->
<g id="node7" class="node">
<title>20</title>
<path fill="#7aab8a" stroke="black" d="M1666.4,-947.25C1666.4,-947.25 653.6,-947.25 653.6,-947.25 647.6,-947.25 641.6,-941.25 641.6,-935.25 641.6,-935.25 641.6,-923.25 641.6,-923.25 641.6,-917.25 647.6,-911.25 653.6,-911.25 653.6,-911.25 1666.4,-911.25 1666.4,-911.25 1672.4,-911.25 1678.4,-917.25 1678.4,-923.25 1678.4,-923.25 1678.4,-935.25 1678.4,-935.25 1678.4,-941.25 1672.4,-947.25 1666.4,-947.25"/>
<text text-anchor="start" x="656" y="-925.58" font-family="Times,serif" font-weight="bold" font-size="14.00">20: </text>
<text text-anchor="start" x="685.25" y="-925.58" font-family="Times,serif" font-size="14.00">Ist im Gesch&#228;ftsvorfall der Status der Berechnungsformel mit &#8222;Berechnungsformel muss beim Absender angefragt werden&#8220; angegeben?</text>
</g>
<!-- 15&#45;&gt;20 -->
<g id="edge6" class="edge">
<title>15-&gt;20</title>
<path fill="none" stroke="black" d="M1764.98,-1089.32C1716.63,-1065.92 1626.17,-1024.51 1545,-1000.5 1467.54,-977.58 1378.98,-960.8 1306.35,-949.4"/>
<polygon fill="black" stroke="black" points="1307.2,-945.99 1296.78,-947.91 1306.13,-952.9 1307.2,-945.99"/>
<text text-anchor="middle" x="1661.88" y="-1013.83" font-family="Times,serif" font-size="14.00">Nein</text>
</g>
<!-- 18&#45;&gt;20 -->
<g id="edge8" class="edge">
<title>18-&gt;20</title>
<path fill="none" stroke="black" d="M1160,-1000.26C1160,-988.43 1160,-972.45 1160,-958.75"/>
<polygon fill="black" stroke="black" points="1163.5,-958.97 1160,-948.97 1156.5,-958.97 1163.5,-958.97"/>
<text text-anchor="middle" x="1176.88" y="-969.2" font-family="Times,serif" font-size="14.00">Nein</text>
</g>
<!-- 120 -->
<g id="node27" class="node">
<title>120</title>
<path fill="#7aab8a" stroke="black" d="M451.15,-125.25C451.15,-125.25 24.85,-125.25 24.85,-125.25 18.85,-125.25 12.85,-119.25 12.85,-113.25 12.85,-113.25 12.85,-101.25 12.85,-101.25 12.85,-95.25 18.85,-89.25 24.85,-89.25 24.85,-89.25 451.15,-89.25 451.15,-89.25 457.15,-89.25 463.15,-95.25 463.15,-101.25 463.15,-101.25 463.15,-113.25 463.15,-113.25 463.15,-119.25 457.15,-125.25 451.15,-125.25"/>
<text text-anchor="start" x="27.25" y="-103.58" font-family="Times,serif" font-weight="bold" font-size="14.00">120: </text>
<text text-anchor="start" x="66.25" y="-103.58" font-family="Times,serif" font-size="14.00">Sind noch weitere Verwendungszeitr&#228;ume zu pr&#252;fen?</text>
</g>
<!-- 18&#45;&gt;120 -->
<g id="edge9" class="edge">
<title>18-&gt;120</title>
<path fill="none" stroke="black" d="M784.18,-1006.61C445.37,-994.21 0,-970.29 0,-930.25 0,-930.25 0,-930.25 0,-195.5 0,-162.74 23.04,-158.58 52,-143.25 62.45,-137.72 73.64,-133.05 85.15,-129.11"/>
<polygon fill="black" stroke="black" points="85.9,-132.54 94.36,-126.16 83.77,-125.88 85.9,-132.54"/>
<text text-anchor="middle" x="6.75" y="-548.83" font-family="Times,serif" font-size="14.00">Ja</text>
</g>
<!-- A13 -->
<g id="node6" class="node">
<title>A13</title>
<polygon fill="#cfb986" stroke="black" points="2460.24,-1408.77 1919.76,-1408.77 1919.76,-1347.25 2460.24,-1347.25 2460.24,-1408.77"/>
<text text-anchor="start" x="2175" y="-1390.71" font-family="Times,serif" font-weight="bold" font-size="14.00">A13</text>
<text text-anchor="start" x="1932" y="-1378.61" font-family="Times,serif" text-decoration="underline" font-size="12.00">Hinweis:</text>
<text text-anchor="start" x="1932" y="-1366.61" font-family="Times,serif" font-size="12.00">Cluster: Ablehnung</text>
<text text-anchor="start" x="1932" y="-1354.61" font-family="Times,serif" font-size="12.00">F&#252;r den Verwendungszeitraum mit dem Status &#8222;keine Daten&#8220; werden Daten erwartet.</text>
</g>
<!-- 30 -->
<g id="node9" class="node">
<title>30</title>
<path fill="#7aab8a" stroke="black" d="M1634.15,-858C1634.15,-858 685.85,-858 685.85,-858 679.85,-858 673.85,-852 673.85,-846 673.85,-846 673.85,-834 673.85,-834 673.85,-828 679.85,-822 685.85,-822 685.85,-822 1634.15,-822 1634.15,-822 1640.15,-822 1646.15,-828 1646.15,-834 1646.15,-834 1646.15,-846 1646.15,-846 1646.15,-852 1640.15,-858 1634.15,-858"/>
<text text-anchor="start" x="688.25" y="-836.33" font-family="Times,serif" font-weight="bold" font-size="14.00">30: </text>
<text text-anchor="start" x="717.5" y="-836.33" font-family="Times,serif" font-size="14.00">Ist im Gesch&#228;ftsvorfall der Status der Berechnungsformel mit &#8222;Berechnungsformel besitzt keine Rechenoperation&#8220; angegeben?</text>
</g>
<!-- 20&#45;&gt;30 -->
<g id="edge11" class="edge">
<title>20-&gt;30</title>
<path fill="none" stroke="black" d="M1160,-911.01C1160,-899.18 1160,-883.2 1160,-869.5"/>
<polygon fill="black" stroke="black" points="1163.5,-869.72 1160,-859.72 1156.5,-869.72 1163.5,-869.72"/>
<text text-anchor="middle" x="1176.88" y="-879.95" font-family="Times,serif" font-size="14.00">Nein</text>
</g>
<!-- 20&#45;&gt;120 -->
<g id="edge10" class="edge">
<title>20-&gt;120</title>
<path fill="none" stroke="black" d="M658.23,-910.76C361.02,-896.9 42,-874.28 42,-841 42,-841 42,-841 42,-195.5 42,-163.12 64.6,-142.67 94.45,-129.79"/>
<polygon fill="black" stroke="black" points="95.39,-133.17 103.42,-126.25 92.83,-126.66 95.39,-133.17"/>
<text text-anchor="middle" x="48.75" y="-504.2" font-family="Times,serif" font-size="14.00">Ja</text>
</g>
<!-- A09 -->
<g id="node8" class="node">
<title>A09</title>
<polygon fill="#cfb986" stroke="black" points="2845.99,-1408.77 2478.01,-1408.77 2478.01,-1347.25 2845.99,-1347.25 2845.99,-1408.77"/>
<text text-anchor="start" x="2647" y="-1390.71" font-family="Times,serif" font-weight="bold" font-size="14.00">A09</text>
<text text-anchor="start" x="2490.25" y="-1378.61" font-family="Times,serif" text-decoration="underline" font-size="12.00">Hinweis:</text>
<text text-anchor="start" x="2490.25" y="-1366.61" font-family="Times,serif" font-size="12.00">Cluster: Zustimmung</text>
<text text-anchor="start" x="2490.25" y="-1354.61" font-family="Times,serif" font-size="12.00">Berechnungsformel muss bilateral ausgetauscht werden.</text>
</g>
<!-- 40 -->
<g id="node10" class="node">
<title>40</title>
<path fill="#7aab8a" stroke="black" d="M1801.4,-714.75C1801.4,-714.75 68.6,-714.75 68.6,-714.75 62.6,-714.75 56.6,-708.75 56.6,-702.75 56.6,-702.75 56.6,-690.75 56.6,-690.75 56.6,-684.75 62.6,-678.75 68.6,-678.75 68.6,-678.75 1801.4,-678.75 1801.4,-678.75 1807.4,-678.75 1813.4,-684.75 1813.4,-690.75 1813.4,-690.75 1813.4,-702.75 1813.4,-702.75 1813.4,-708.75 1807.4,-714.75 1801.4,-714.75"/>
<text text-anchor="start" x="71" y="-693.08" font-family="Times,serif" font-weight="bold" font-size="14.00">40: </text>
<text text-anchor="start" x="100.25" y="-693.08" font-family="Times,serif" font-size="14.00">Ist in den zuvor ausgetauschten Stammdatenmeldungen (z.B.&#160;Anmeldebest&#228;tigung, Stammdaten&#228;nderung (inklusive Lokationsb&#252;ndelstruktur&#228;nderung)) f&#252;r den betroffenen Zeitraum genau eine Messlokation dieser Lokation zugeordnet?</text>
</g>
<!-- 30&#45;&gt;40 -->
<g id="edge12" class="edge">
<title>30-&gt;40</title>
<path fill="none" stroke="black" d="M1132.41,-821.68C1092.26,-796.48 1017.62,-749.62 972.52,-721.3"/>
<polygon fill="black" stroke="black" points="974.43,-718.37 964.1,-716.02 970.71,-724.3 974.43,-718.37"/>
<text text-anchor="middle" x="1110.75" y="-790.7" font-family="Times,serif" font-size="14.00">Ja</text>
</g>
<!-- 50 -->
<g id="node13" class="node">
<title>50</title>
<path fill="#7aab8a" stroke="black" d="M2252.65,-768.75C2252.65,-768.75 1349.35,-768.75 1349.35,-768.75 1343.35,-768.75 1337.35,-762.75 1337.35,-756.75 1337.35,-756.75 1337.35,-744.75 1337.35,-744.75 1337.35,-738.75 1343.35,-732.75 1349.35,-732.75 1349.35,-732.75 2252.65,-732.75 2252.65,-732.75 2258.65,-732.75 2264.65,-738.75 2264.65,-744.75 2264.65,-744.75 2264.65,-756.75 2264.65,-756.75 2264.65,-762.75 2258.65,-768.75 2252.65,-768.75"/>
<text text-anchor="start" x="1351.75" y="-747.08" font-family="Times,serif" font-weight="bold" font-size="14.00">50: </text>
<text text-anchor="start" x="1381" y="-747.08" font-family="Times,serif" font-size="14.00">Liegt eine &#196;nderung der Lokationsb&#252;ndelstruktur durch den NB vor, die durch Stammdaten&#228;nderung &#252;bermittelt wurde?</text>
</g>
<!-- 30&#45;&gt;50 -->
<g id="edge13" class="edge">
<title>30-&gt;50</title>
<path fill="none" stroke="black" d="M1288.56,-821.5C1396.5,-806.81 1550.44,-785.86 1661.38,-770.75"/>
<polygon fill="black" stroke="black" points="1661.72,-774.24 1671.15,-769.42 1660.77,-767.3 1661.72,-774.24"/>
<text text-anchor="middle" x="1554.88" y="-790.7" font-family="Times,serif" font-size="14.00">Nein</text>
</g>
<!-- 40&#45;&gt;120 -->
<g id="edge14" class="edge">
<title>40-&gt;120</title>
<path fill="none" stroke="black" d="M471.68,-678.27C285.91,-664.79 115,-641.01 115,-599.12 115,-599.12 115,-599.12 115,-195.5 115,-164.84 140.74,-143.97 168.68,-130.35"/>
<polygon fill="black" stroke="black" points="169.98,-133.6 177.64,-126.28 167.09,-127.23 169.98,-133.6"/>
<text text-anchor="middle" x="121.75" y="-414.95" font-family="Times,serif" font-size="14.00">Ja</text>
</g>
<!-- A10 -->
<g id="node11" class="node">
<title>A10</title>
<polygon fill="#cfb986" stroke="black" points="3244.36,-1408.77 2863.64,-1408.77 2863.64,-1347.25 3244.36,-1347.25 3244.36,-1408.77"/>
<text text-anchor="start" x="3039" y="-1390.71" font-family="Times,serif" font-weight="bold" font-size="14.00">A10</text>
<text text-anchor="start" x="2875.88" y="-1378.61" font-family="Times,serif" text-decoration="underline" font-size="12.00">Hinweis:</text>
<text text-anchor="start" x="2875.88" y="-1366.61" font-family="Times,serif" font-size="12.00">Cluster: Ablehnung</text>
<text text-anchor="start" x="2875.88" y="-1354.61" font-family="Times,serif" font-size="12.00">Der Lokation ist nicht genau eine Messlokation zugeordnet</text>
</g>
<!-- A11 -->
<g id="node12" class="node">
<title>A11</title>
<polygon fill="#cfb986" stroke="black" points="3777.49,-1408.77 3262.51,-1408.77 3262.51,-1347.25 3777.49,-1347.25 3777.49,-1408.77"/>
<text text-anchor="start" x="3505" y="-1390.71" font-family="Times,serif" font-weight="bold" font-size="14.00">A11</text>
<text text-anchor="start" x="3274.75" y="-1378.61" font-family="Times,serif" text-decoration="underline" font-size="12.00">Hinweis:</text>
<text text-anchor="start" x="3274.75" y="-1366.61" font-family="Times,serif" font-size="12.00">Cluster: Zustimmung</text>
<text text-anchor="start" x="3274.75" y="-1354.61" font-family="Times,serif" font-size="12.00">Energiemenge der Lokation ist mit der Energiemenge der Messlokation identisch</text>
</g>
<!-- 60 -->
<g id="node14" class="node">
<title>60</title>
<path fill="#7aab8a" stroke="black" d="M1547.15,-660.75C1547.15,-660.75 568.85,-660.75 568.85,-660.75 562.85,-660.75 556.85,-654.75 556.85,-648.75 556.85,-648.75 556.85,-636.75 556.85,-636.75 556.85,-630.75 562.85,-624.75 568.85,-624.75 568.85,-624.75 1547.15,-624.75 1547.15,-624.75 1553.15,-624.75 1559.15,-630.75 1559.15,-636.75 1559.15,-636.75 1559.15,-648.75 1559.15,-648.75 1559.15,-654.75 1553.15,-660.75 1547.15,-660.75"/>
<text text-anchor="start" x="571.25" y="-639.08" font-family="Times,serif" font-weight="bold" font-size="14.00">60: </text>
<text text-anchor="start" x="600.5" y="-639.08" font-family="Times,serif" font-size="14.00">Ist der Zeitraum der Zeitraum-ID der Berechnungsformel identisch mit dem Zeitraum der Struktur&#228;nderung des Lokationsb&#252;ndels?</text>
</g>
<!-- 50&#45;&gt;60 -->
<g id="edge15" class="edge">
<title>50-&gt;60</title>
<path fill="none" stroke="black" d="M1811.42,-732.49C1819.62,-716.46 1827.59,-692.98 1814,-678.75 1803.35,-667.6 1698.83,-659.92 1570.72,-654.66"/>
<polygon fill="black" stroke="black" points="1571.1,-651.18 1560.97,-654.27 1570.82,-658.17 1571.1,-651.18"/>
<text text-anchor="middle" x="1828.75" y="-692.08" font-family="Times,serif" font-size="14.00">Ja</text>
</g>
<!-- 70 -->
<g id="node16" class="node">
<title>70</title>
<path fill="#7aab8a" stroke="black" d="M1815.28,-571.5C1815.28,-571.5 300.72,-571.5 300.72,-571.5 294.72,-571.5 288.73,-565.5 288.73,-559.5 288.73,-559.5 288.73,-547.5 288.73,-547.5 288.73,-541.5 294.73,-535.5 300.73,-535.5 300.73,-535.5 1815.28,-535.5 1815.28,-535.5 1821.28,-535.5 1827.28,-541.5 1827.28,-547.5 1827.28,-547.5 1827.28,-559.5 1827.28,-559.5 1827.28,-565.5 1821.28,-571.5 1815.28,-571.5"/>
<text text-anchor="start" x="303.12" y="-549.83" font-family="Times,serif" font-weight="bold" font-size="14.00">70: </text>
<text text-anchor="start" x="332.38" y="-549.83" font-family="Times,serif" font-size="14.00">Ist die Anzahl der gemeldeten / vorliegenden Mess-lokationen aus den Stammdatenmeldungen (z. B. Anmeldebest&#228;tigung, Stammdaten&#228;nderung) gem&#228;&#223; dem Zeitraum kleiner als in der Berechnungsformel?</text>
</g>
<!-- 50&#45;&gt;70 -->
<g id="edge16" class="edge">
<title>50-&gt;70</title>
<path fill="none" stroke="black" d="M1826.75,-732.29C1832.11,-727.31 1837.03,-721.4 1840,-714.75 1846.52,-700.14 1850.15,-691.12 1840,-678.75 1792.54,-620.94 1644.11,-589.82 1489.14,-573.16"/>
<polygon fill="black" stroke="black" points="1489.79,-569.71 1479.48,-572.14 1489.06,-576.67 1489.79,-569.71"/>
<text text-anchor="middle" x="1833.88" y="-638.08" font-family="Times,serif" font-size="14.00">Nein</text>
</g>
<!-- 60&#45;&gt;70 -->
<g id="edge18" class="edge">
<title>60-&gt;70</title>
<path fill="none" stroke="black" d="M1058,-624.51C1058,-612.68 1058,-596.7 1058,-583"/>
<polygon fill="black" stroke="black" points="1061.5,-583.22 1058,-573.22 1054.5,-583.22 1061.5,-583.22"/>
<text text-anchor="middle" x="1064.75" y="-593.45" font-family="Times,serif" font-size="14.00">Ja</text>
</g>
<!-- 60&#45;&gt;120 -->
<g id="edge17" class="edge">
<title>60-&gt;120</title>
<path fill="none" stroke="black" d="M556.4,-633.23C351.18,-622.75 161,-600.61 161,-554.5 161,-554.5 161,-554.5 161,-195.5 161,-169.51 180.44,-147.61 199.78,-132.25"/>
<polygon fill="black" stroke="black" points="201.76,-135.15 207.68,-126.36 197.57,-129.54 201.76,-135.15"/>
<text text-anchor="middle" x="177.88" y="-370.32" font-family="Times,serif" font-size="14.00">Nein</text>
</g>
<!-- A02 -->
<g id="node15" class="node">
<title>A02</title>
<polygon fill="#cfb986" stroke="black" points="4098.36,-1408.77 3795.64,-1408.77 3795.64,-1347.25 4098.36,-1347.25 4098.36,-1408.77"/>
<text text-anchor="start" x="3932" y="-1390.71" font-family="Times,serif" font-weight="bold" font-size="14.00">A02</text>
<text text-anchor="start" x="3807.88" y="-1378.61" font-family="Times,serif" text-decoration="underline" font-size="12.00">Hinweis:</text>
<text text-anchor="start" x="3807.88" y="-1366.61" font-family="Times,serif" font-size="12.00">Cluster: Ablehnung</text>
<text text-anchor="start" x="3807.88" y="-1354.61" font-family="Times,serif" font-size="12.00">Zeitraum der Berechnungsformel unplausibel.</text>
</g>
<!-- 80 -->
<g id="node18" class="node">
<title>80</title>
<path fill="#7aab8a" stroke="black" d="M1834.03,-482.25C1834.03,-482.25 281.97,-482.25 281.97,-482.25 275.97,-482.25 269.98,-476.25 269.98,-470.25 269.98,-470.25 269.98,-458.25 269.98,-458.25 269.98,-452.25 275.98,-446.25 281.98,-446.25 281.98,-446.25 1834.03,-446.25 1834.03,-446.25 1840.03,-446.25 1846.03,-452.25 1846.03,-458.25 1846.03,-458.25 1846.03,-470.25 1846.03,-470.25 1846.03,-476.25 1840.03,-482.25 1834.03,-482.25"/>
<text text-anchor="start" x="284.38" y="-460.57" font-family="Times,serif" font-weight="bold" font-size="14.00">80: </text>
<text text-anchor="start" x="313.62" y="-460.57" font-family="Times,serif" font-size="14.00">Ist die Anzahl gem&#228;&#223; der gemeldeten/vorliegenden Messlokationen aus den Stammdatenmeldungen (z.&#160;B. Anmeldebest&#228;tigung, Stammdaten&#228;nderung) gem&#228;&#223; dem Zeitraum gr&#246;&#223;er als in der Berechnungsformel?</text>
</g>
<!-- 70&#45;&gt;80 -->
<g id="edge20" class="edge">
<title>70-&gt;80</title>
<path fill="none" stroke="black" d="M1058,-535.26C1058,-523.43 1058,-507.45 1058,-493.75"/>
<polygon fill="black" stroke="black" points="1061.5,-493.97 1058,-483.97 1054.5,-493.97 1061.5,-493.97"/>
<text text-anchor="middle" x="1074.88" y="-504.2" font-family="Times,serif" font-size="14.00">Nein</text>
</g>
<!-- 70&#45;&gt;120 -->
<g id="edge19" class="edge">
<title>70-&gt;120</title>
<path fill="none" stroke="black" d="M603.94,-535.01C440.66,-524.44 289.37,-507.87 261,-482.25 161.99,-392.83 206.85,-206.66 228.62,-136.14"/>
<polygon fill="black" stroke="black" points="231.86,-137.51 231.55,-126.91 225.18,-135.38 231.86,-137.51"/>
<text text-anchor="middle" x="207.75" y="-325.7" font-family="Times,serif" font-size="14.00">Ja</text>
</g>
<!-- A04 -->
<g id="node17" class="node">
<title>A04</title>
<polygon fill="#cfb986" stroke="black" points="4687.61,-1408.77 4116.39,-1408.77 4116.39,-1347.25 4687.61,-1347.25 4687.61,-1408.77"/>
<text text-anchor="start" x="4387" y="-1390.71" font-family="Times,serif" font-weight="bold" font-size="14.00">A04</text>
<text text-anchor="start" x="4128.62" y="-1378.61" font-family="Times,serif" text-decoration="underline" font-size="12.00">Hinweis:</text>
<text text-anchor="start" x="4128.62" y="-1366.61" font-family="Times,serif" font-size="12.00">Cluster: Ablehnung</text>
<text text-anchor="start" x="4128.62" y="-1354.61" font-family="Times,serif" font-size="12.00">Es sind zu viele Messlokationen in der Berechnungsformel f&#252;r diesen Zeitraum vorhanden.</text>
</g>
<!-- 90 -->
<g id="node20" class="node">
<title>90</title>
<path fill="#7aab8a" stroke="black" d="M1928.53,-393C1928.53,-393 301.47,-393 301.47,-393 295.47,-393 289.48,-387 289.48,-381 289.48,-381 289.48,-369 289.48,-369 289.48,-363 295.48,-357 301.48,-357 301.48,-357 1928.53,-357 1928.53,-357 1934.53,-357 1940.53,-363 1940.53,-369 1940.53,-369 1940.53,-381 1940.53,-381 1940.53,-387 1934.53,-393 1928.53,-393"/>
<text text-anchor="start" x="303.88" y="-371.32" font-family="Times,serif" font-weight="bold" font-size="14.00">90: </text>
<text text-anchor="start" x="333.12" y="-371.32" font-family="Times,serif" font-size="14.00">Sind alle ID der Messlokationen in der Berechnungsformel mit den zuvor in den Stammdatenmeldungen (z. B. Anmeldebest&#228;tigung, Stammdaten&#228;nderung) gemeldeten ID der Messlokationen f&#252;r diesen Zeitraum identisch?</text>
</g>
<!-- 80&#45;&gt;90 -->
<g id="edge22" class="edge">
<title>80-&gt;90</title>
<path fill="none" stroke="black" d="M1069.26,-446.01C1077.38,-433.58 1088.49,-416.58 1097.73,-402.44"/>
<polygon fill="black" stroke="black" points="1100.4,-404.76 1102.93,-394.47 1094.53,-400.93 1100.4,-404.76"/>
<text text-anchor="middle" x="1108.88" y="-414.95" font-family="Times,serif" font-size="14.00">Nein</text>
</g>
<!-- 80&#45;&gt;120 -->
<g id="edge21" class="edge">
<title>80-&gt;120</title>
<path fill="none" stroke="black" d="M548.45,-445.75C392.38,-433.35 261,-412.17 261,-376 261,-376 261,-376 261,-195.5 261,-175.26 255.14,-153.23 249.34,-136.37"/>
<polygon fill="black" stroke="black" points="252.65,-135.22 245.92,-127.03 246.07,-137.62 252.65,-135.22"/>
<text text-anchor="middle" x="267.75" y="-281.07" font-family="Times,serif" font-size="14.00">Ja</text>
</g>
<!-- A05 -->
<g id="node19" class="node">
<title>A05</title>
<polygon fill="#cfb986" stroke="black" points="5052.49,-1408.77 4705.51,-1408.77 4705.51,-1347.25 5052.49,-1347.25 5052.49,-1408.77"/>
<text text-anchor="start" x="4864" y="-1390.71" font-family="Times,serif" font-weight="bold" font-size="14.00">A05</text>
<text text-anchor="start" x="4717.75" y="-1378.61" font-family="Times,serif" text-decoration="underline" font-size="12.00">Hinweis:</text>
<text text-anchor="start" x="4717.75" y="-1366.61" font-family="Times,serif" font-size="12.00">Cluster: Ablehnung</text>
<text text-anchor="start" x="4717.75" y="-1354.61" font-family="Times,serif" font-size="12.00">Es fehlen Messlokationen in der Berechnungs-formel.</text>
</g>
<!-- 100 -->
<g id="node22" class="node">
<title>100</title>
<path fill="#7aab8a" stroke="black" d="M2253.28,-303.75C2253.28,-303.75 342.72,-303.75 342.72,-303.75 336.72,-303.75 330.73,-297.75 330.73,-291.75 330.73,-291.75 330.73,-279.75 330.73,-279.75 330.73,-273.75 336.73,-267.75 342.73,-267.75 342.73,-267.75 2253.28,-267.75 2253.28,-267.75 2259.28,-267.75 2265.28,-273.75 2265.28,-279.75 2265.28,-279.75 2265.28,-291.75 2265.28,-291.75 2265.28,-297.75 2259.28,-303.75 2253.28,-303.75"/>
<text text-anchor="start" x="345.12" y="-282.07" font-family="Times,serif" font-weight="bold" font-size="14.00">100: </text>
<text text-anchor="start" x="384.12" y="-282.07" font-family="Times,serif" font-size="14.00">Existiert f&#252;r jede Flussrichtung der in der Berechnungsformel vorhandenen Messlokationen mindestens eine zuvor in den Stammdatenmeldungen (z.&#160;B. Anmeldebest&#228;tigung, Stammdaten&#228;nderung) ausgetauschte OBIS-Kennzahl* mit identischer Flussrichtung?</text>
</g>
<!-- 90&#45;&gt;100 -->
<g id="edge24" class="edge">
<title>90-&gt;100</title>
<path fill="none" stroke="black" d="M1151.59,-356.55C1180.27,-342.88 1220.36,-323.77 1251.34,-309"/>
<polygon fill="black" stroke="black" points="1252.58,-312.28 1260.1,-304.82 1249.57,-305.96 1252.58,-312.28"/>
<text text-anchor="middle" x="1229.75" y="-325.7" font-family="Times,serif" font-size="14.00">Ja</text>
</g>
<!-- 90&#45;&gt;120 -->
<g id="edge23" class="edge">
<title>90-&gt;120</title>
<path fill="none" stroke="black" d="M686.82,-356.52C516.22,-345.73 352.75,-328.98 322,-303.75 264.54,-256.6 313.79,-206.66 275,-143.25 272.95,-139.91 270.51,-136.67 267.86,-133.6"/>
<polygon fill="black" stroke="black" points="270.54,-131.34 261.08,-126.56 265.49,-136.19 270.54,-131.34"/>
<text text-anchor="middle" x="309.88" y="-236.45" font-family="Times,serif" font-size="14.00">Nein</text>
</g>
<!-- A06 -->
<g id="node21" class="node">
<title>A06</title>
<polygon fill="#cfb986" stroke="black" points="5475.74,-1408.77 5070.26,-1408.77 5070.26,-1347.25 5475.74,-1347.25 5475.74,-1408.77"/>
<text text-anchor="start" x="5258" y="-1390.71" font-family="Times,serif" font-weight="bold" font-size="14.00">A06</text>
<text text-anchor="start" x="5082.5" y="-1378.61" font-family="Times,serif" text-decoration="underline" font-size="12.00">Hinweis:</text>
<text text-anchor="start" x="5082.5" y="-1366.61" font-family="Times,serif" font-size="12.00">Cluster: Ablehnung</text>
<text text-anchor="start" x="5082.5" y="-1354.61" font-family="Times,serif" font-size="12.00">ID der Messlokationen stimmen f&#252;r den Zeitraum nicht &#252;berein</text>
</g>
<!-- 100&#45;&gt;110 -->
<g id="edge26" class="edge">
<title>100-&gt;110</title>
<path fill="none" stroke="black" d="M1298,-267.51C1298,-255.68 1298,-239.7 1298,-226"/>
<polygon fill="black" stroke="black" points="1301.5,-226.22 1298,-216.22 1294.5,-226.22 1301.5,-226.22"/>
<text text-anchor="middle" x="1304.75" y="-236.45" font-family="Times,serif" font-size="14.00">Ja</text>
</g>
<!-- 100&#45;&gt;120 -->
<g id="edge25" class="edge">
<title>100-&gt;120</title>
<path fill="none" stroke="black" d="M1192.98,-267.26C993.59,-234.06 561.66,-162.14 354.04,-127.57"/>
<polygon fill="black" stroke="black" points="354.74,-124.14 344.3,-125.95 353.59,-131.05 354.74,-124.14"/>
<text text-anchor="middle" x="890.88" y="-191.82" font-family="Times,serif" font-size="14.00">Nein</text>
</g>
<!-- A07 -->
<g id="node23" class="node">
<title>A07</title>
<polygon fill="#cfb986" stroke="black" points="5988.36,-1408.77 5493.64,-1408.77 5493.64,-1347.25 5988.36,-1347.25 5988.36,-1408.77"/>
<text text-anchor="start" x="5726" y="-1390.71" font-family="Times,serif" font-weight="bold" font-size="14.00">A07</text>
<text text-anchor="start" x="5505.88" y="-1378.61" font-family="Times,serif" text-decoration="underline" font-size="12.00">Hinweis:</text>
<text text-anchor="start" x="5505.88" y="-1366.61" font-family="Times,serif" font-size="12.00">Cluster: Ablehnung</text>
<text text-anchor="start" x="5505.88" y="-1354.61" font-family="Times,serif" font-size="12.00">Die Flussrichtung mindestens einer Messlokation ist nicht korrekt angegeben.</text>
</g>
<!-- 110&#45;&gt;120 -->
<g id="edge27" class="edge">
<title>110-&gt;120</title>
<path fill="none" stroke="black" d="M1105.79,-178.01C989.28,-167.56 837.62,-154.23 703,-143.25 628.84,-137.2 548,-130.99 474.82,-125.5"/>
<polygon fill="black" stroke="black" points="475.36,-122.03 465.13,-124.78 474.84,-129.01 475.36,-122.03"/>
<text text-anchor="middle" x="906.75" y="-147.2" font-family="Times,serif" font-size="14.00">Ja</text>
</g>
<!-- A12 -->
<g id="node25" class="node">
<title>A12</title>
<polygon fill="#cfb986" stroke="black" points="6160.11,-1408.77 6005.89,-1408.77 6005.89,-1347.25 6160.11,-1347.25 6160.11,-1408.77"/>
<text text-anchor="start" x="6068" y="-1390.71" font-family="Times,serif" font-weight="bold" font-size="14.00">A12</text>
<text text-anchor="start" x="6018.12" y="-1378.61" font-family="Times,serif" text-decoration="underline" font-size="12.00">Hinweis:</text>
<text text-anchor="start" x="6018.12" y="-1366.61" font-family="Times,serif" font-size="12.00">Cluster: Zustimmung </text>
<text text-anchor="start" x="6018.12" y="-1354.61" font-family="Times,serif" font-size="12.00">Zustimmung</text>
</g>
<!-- A99 -->
<g id="node26" class="node">
<title>A99</title>
<polygon fill="#cfb986" stroke="black" points="6888.36,-1414.77 6177.64,-1414.77 6177.64,-1341.25 6888.36,-1341.25 6888.36,-1414.77"/>
<text text-anchor="start" x="6518" y="-1396.71" font-family="Times,serif" font-weight="bold" font-size="14.00">A99</text>
<text text-anchor="start" x="6189.88" y="-1384.61" font-family="Times,serif" text-decoration="underline" font-size="12.00">Hinweis:</text>
<text text-anchor="start" x="6189.88" y="-1372.61" font-family="Times,serif" font-size="12.00">Cluster: Ablehnung </text>
<text text-anchor="start" x="6189.88" y="-1360.61" font-family="Times,serif" font-size="12.00">Sonstiges </text>
<text text-anchor="start" x="6189.88" y="-1348.61" font-family="Times,serif" font-size="12.00">Hinweis: Das identifizierte Problem ist in der Antwort zu beschreiben/benennen. Nutzungsm&#246;glichkeit Ende: offen</text>
</g>
<!-- 120&#45;&gt;15 -->
<g id="edge28" class="edge">
<title>120-&gt;15</title>
<path fill="none" stroke="black" d="M463.16,-111.82C1005.94,-121.16 2342,-148.89 2342,-195.5 2342,-1019.5 2342,-1019.5 2342,-1019.5 2342,-1051.6 2191.86,-1074.08 2049.62,-1088.18"/>
<polygon fill="black" stroke="black" points="2049.64,-1084.66 2040.02,-1089.11 2050.32,-1091.63 2049.64,-1084.66"/>
<text text-anchor="middle" x="2348.75" y="-593.45" font-family="Times,serif" font-size="14.00">Ja</text>
</g>
<!-- Ende -->
<g id="node28" class="node">
<title>Ende</title>
<polygon fill="#7a8da1" stroke="black" points="270.77,-36 205.22,-36 205.22,0 270.77,0 270.77,-36"/>
<text text-anchor="middle" x="238" y="-13.32" font-family="Times,serif" font-size="14.00">Ende</text>
</g>
<!-- 120&#45;&gt;Ende -->
<g id="edge29" class="edge">
<title>120-&gt;Ende</title>
<path fill="none" stroke="black" d="M238,-89.01C238,-77.18 238,-61.2 238,-47.5"/>
<polygon fill="black" stroke="black" points="241.5,-47.72 238,-37.72 234.5,-47.72 241.5,-47.72"/>
<text text-anchor="middle" x="254.88" y="-57.95" font-family="Times,serif" font-size="14.00">Nein</text>
</g>
</g>
</svg>
  </g>
</svg>
  </g>
</svg>
