<?xml version='1.0' encoding='ASCII' standalone='yes'?>
<svg xmlns="http://www.w3.org/2000/svg" xmlns:xlink="http://www.w3.org/1999/xlink" version="1.1" width="1257.3333333333333px" viewBox="0 0 1257.3333333333333 449.3333333333333" height="449.3333333333333px">
  <g>
    <svg version="1.1" width="1257.3333333333333px" viewBox="0 0 1257.3333333333333 449.3333333333333" height="449.3333333333333px">
  <polygon fill="#f3f1f6" points="0,0 1257.3333333333333,0 1257.3333333333333,449.3333333333333 0,449.3333333333333"/><g>
    <g transform="translate(449.0666533249498, 44.93333333333332) scale(1 1) translate(0, 0) scale(2.0321620549741297 2.0321620549741297) "><sodipodi:namedview xmlns:sodipodi="http://sodipodi.sourceforge.net/DTD/sodipodi-0.dtd" xmlns:inkscape="http://www.inkscape.org/namespaces/inkscape" id="namedview7" pagecolor="#ffffff" bordercolor="#999999" borderopacity="1" inkscape:pageshadow="0" inkscape:pageopacity="0" inkscape:pagecheckerboard="0" inkscape:document-units="mm" showgrid="false" fit-margin-top="0" fit-margin-left="0" fit-margin-right="0" fit-margin-bottom="0" inkscape:zoom="0.64052329" inkscape:cx="130.36216" inkscape:cy="412.163" inkscape:window-width="1512" inkscape:window-height="916" inkscape:window-x="3840" inkscape:window-y="136" inkscape:window-maximized="0" inkscape:current-layer="layer1"/>
  <defs id="defs2">
    <clipPath clipPathUnits="userSpaceOnUse" id="clipPath23">
      <path d="M 0,568.156 H 579.236 V 0 H 0 Z" id="path21"/>
    </clipPath>
  </defs>
  <g xmlns:inkscape="http://www.inkscape.org/namespaces/inkscape" inkscape:label="Layer 1" inkscape:groupmode="layer" id="layer1" transform="translate(-16.541937,-55.305267)">
    <g id="g19" clip-path="url(#clipPath23)" transform="matrix(0.35277777,0,0,-0.35277777,0.01017023,243.73675)" style="opacity:0.2">
      <g id="g25" transform="translate(122.444,32.7195)">
        <path d="m 0,0 h -56.104 c -11,0 -19.898,9.123 -19.463,20.115 10.594,267.191 231.277,481.302 501.029,481.302 v -56.02 c 0,-10.98 -8.688,-19.892 -19.658,-20.393 C 180.29,414.697 0,228.005 0,0" style="fill:#6ead83;fill-opacity:1;fill-rule:nonzero;stroke:none" id="path27"/>
      </g>
      <g id="g29" transform="translate(273.7828,32.7195)">
        <path d="m 0,0 h -55.926 c -11.228,0 -20.091,9.482 -19.435,20.69 10.744,183.439 163.389,329.388 349.485,329.388 v -56.263 c 0,-10.709 -8.273,-19.617 -18.957,-20.35 C 112.819,263.696 0,144.774 0,0" style="fill:#6ead83;fill-opacity:1;fill-rule:nonzero;stroke:none" id="path31"/>
      </g>
      <g id="g33" transform="translate(425.7667,32.7195)">
        <path d="m 0,0 h -55.445 c -11.653,0 -20.604,10.17 -19.334,21.753 10.866,99.032 95.031,176.341 196.919,176.341 v -57.011 c 0,-10.046 -7.283,-18.755 -17.229,-20.165 C 45.688,112.522 0,61.497 0,0" style="fill:#6ead83;fill-opacity:1;fill-rule:nonzero;stroke:none" id="path35"/>
      </g>
    </g>
  </g>
</g>
    <svg width="943pt" height="337pt" viewBox="0.00 0.00 942.75 337.05">
<g id="graph0" class="graph" transform="scale(1 1) rotate(0) translate(4 333.05)">
<title>D</title>
<text text-anchor="start" x="410" y="-308.95" font-family="Times,serif" font-weight="bold" font-size="18.00">WiM Strom</text>
<text text-anchor="start" x="8" y="-278.85" font-family="Times,serif" font-weight="bold" font-size="16.00">8.10.1: AD: Beendigung Rechnungsabwicklung des Messstellenbetriebes &#252;ber den LF durch den MSB</text>
<!-- Start -->
<g id="node1" class="node">
<title>Start</title>
<polygon fill="#7a8da1" stroke="black" points="563.13,-231.05 408.33,-231.05 408.33,-187.77 563.13,-187.77 563.13,-231.05"/>
<text text-anchor="start" x="457.61" y="-210.11" font-family="Times,serif" font-weight="bold" font-size="14.00">E_0206</text>
<text text-anchor="start" x="422.73" y="-198.01" font-family="Times,serif" font-weight="bold" text-decoration="underline" font-size="12.00">Pr&#252;fende Rolle:</text>
<text text-anchor="start" x="527.73" y="-198.01" font-family="Times,serif" font-weight="bold" font-size="12.00"> LF</text>
</g>
<!-- 1 -->
<g id="node2" class="node">
<title>1</title>
<path fill="#7aab8a" stroke="black" d="M771.26,-150.77C771.26,-150.77 200.21,-150.77 200.21,-150.77 194.21,-150.77 188.21,-144.77 188.21,-138.77 188.21,-138.77 188.21,-126.77 188.21,-126.77 188.21,-120.77 194.21,-114.77 200.21,-114.77 200.21,-114.77 771.26,-114.77 771.26,-114.77 777.26,-114.77 783.26,-120.77 783.26,-126.77 783.26,-126.77 783.26,-138.77 783.26,-138.77 783.26,-144.77 777.26,-150.77 771.26,-150.77"/>
<text text-anchor="start" x="202.61" y="-129.09" font-family="Times,serif" font-weight="bold" font-size="14.00">1: </text>
<text text-anchor="start" x="222.11" y="-129.09" font-family="Times,serif" font-size="14.00">Besteht ein Vertragsverh&#228;ltnis &#252;ber die Rechnungsabwicklung &#252;ber den LF?</text>
</g>
<!-- Start&#45;&gt;1 -->
<g id="edge1" class="edge">
<title>Start-&gt;1</title>
<path fill="none" stroke="black" d="M485.73,-187.62C485.73,-179.76 485.73,-170.68 485.73,-162.24"/>
<polygon fill="black" stroke="black" points="489.23,-162.44 485.73,-152.44 482.23,-162.44 489.23,-162.44"/>
</g>
<!-- A01 -->
<g id="node3" class="node">
<title>A01</title>
<polygon fill="#cfb986" stroke="black" points="535.97,-61.52 151.49,-61.52 151.49,0 535.97,0 535.97,-61.52"/>
<text text-anchor="start" x="328.73" y="-43.46" font-family="Times,serif" font-weight="bold" font-size="14.00">A01</text>
<text text-anchor="start" x="163.73" y="-31.36" font-family="Times,serif" text-decoration="underline" font-size="12.00">Hinweis:</text>
<text text-anchor="start" x="163.73" y="-19.36" font-family="Times,serif" font-size="12.00">Cluster: Ablehnung</text>
<text text-anchor="start" x="163.73" y="-7.36" font-family="Times,serif" font-size="12.00">Keine Vereinbarung &#252;ber die Abrechnung MSB &#252;ber den LF</text>
</g>
<!-- 1&#45;&gt;A01 -->
<g id="edge2" class="edge">
<title>1-&gt;A01</title>
<path fill="none" stroke="black" d="M461,-114.35C443.06,-101.72 418.14,-84.17 395.89,-68.49"/>
<polygon fill="black" stroke="black" points="397.97,-65.68 387.78,-62.78 393.94,-71.4 397.97,-65.68"/>
<text text-anchor="middle" x="453.61" y="-83.47" font-family="Times,serif" font-size="14.00">Nein</text>
</g>
<!-- A02 -->
<g id="node4" class="node">
<title>A02</title>
<polygon fill="#cfb986" stroke="black" points="703.97,-61.52 553.49,-61.52 553.49,0 703.97,0 703.97,-61.52"/>
<text text-anchor="start" x="613.73" y="-43.46" font-family="Times,serif" font-weight="bold" font-size="14.00">A02</text>
<text text-anchor="start" x="565.73" y="-31.36" font-family="Times,serif" text-decoration="underline" font-size="12.00">Hinweis:</text>
<text text-anchor="start" x="565.73" y="-19.36" font-family="Times,serif" font-size="12.00">Cluster: Zustimmung</text>
<text text-anchor="start" x="565.73" y="-7.36" font-family="Times,serif" font-size="12.00">Zustimmung</text>
</g>
<!-- 1&#45;&gt;A02 -->
<g id="edge3" class="edge">
<title>1-&gt;A02</title>
<path fill="none" stroke="black" d="M510.64,-114.35C528.71,-101.72 553.8,-84.17 576.21,-68.49"/>
<polygon fill="black" stroke="black" points="578.19,-71.38 584.38,-62.78 574.18,-65.64 578.19,-71.38"/>
<text text-anchor="middle" x="564.48" y="-83.47" font-family="Times,serif" font-size="14.00">Ja</text>
</g>
</g>
</svg>
  </g>
</svg>
  </g>
</svg>
