<?xml version='1.0' encoding='ASCII' standalone='yes'?>
<svg xmlns="http://www.w3.org/2000/svg" xmlns:xlink="http://www.w3.org/1999/xlink" version="1.1" width="1258.6666666666667px" viewBox="0 0 1258.6666666666667 602.6666666666666" height="602.6666666666666px">
  <g>
    <svg version="1.1" width="1258.6666666666667px" viewBox="0 0 1258.6666666666667 602.6666666666666" height="602.6666666666666px">
  <polygon fill="#c2cee9" points="0,0 1258.6666666666667,0 1258.6666666666667,602.6666666666666 0,602.6666666666666"/><g>
    <g transform="translate(383.56549328827566, 60.26666666666665) scale(1 1) translate(0, 0) scale(0.8485872524171595 0.8485872524171595) "><!-- note that I manually added the width and height attribute to the root node
  https://chatgpt.com/share/678e3028-70cc-800b-a296-782714735772
  -->
  <defs>
    <style>.cls-1{fill:#fff;}</style>
  </defs>
  <path class="cls-1" d="M122.44,531.2h-56.1c-11,0-19.9-9.12-19.46-20.11C57.47,243.89,278.15,29.78,547.91,29.78v56.02c0,10.98-8.69,19.89-19.66,20.39-225.51,10.31-405.8,197-405.8,425Z"/>
  <path class="cls-1" d="M273.78,531.2h-55.93c-11.23,0-20.09-9.48-19.43-20.69,10.74-183.44,163.39-329.39,349.48-329.39v56.26c0,10.71-8.27,19.62-18.96,20.35-142.35,9.77-255.17,128.69-255.17,273.46Z"/>
  <path class="cls-1" d="M425.77,531.2h-55.45c-11.65,0-20.6-10.17-19.33-21.75,10.87-99.03,95.03-176.34,196.92-176.34v57.01c0,10.05-7.28,18.75-17.23,20.16-59.22,8.4-104.91,59.42-104.91,120.92Z"/>
</g>
    <svg width="944pt" height="452pt" viewBox="0.00 0.00 943.50 451.82">
<g id="graph0" class="graph" transform="scale(1 1) rotate(0) translate(4 447.82)">
<title>D</title>
<text text-anchor="start" x="8" y="-423.72" font-family="Roboto, sans-serif" font-weight="bold" font-size="18.00">WiM Strom</text>
<text text-anchor="start" x="8" y="-393.62" font-family="Roboto, sans-serif" font-weight="bold" font-size="16.00">8.12.1: AD: Beendigung der Rechnungsabwicklung des Messstellenbetriebes &#252;ber den LF durch den LF</text>
<!-- Start -->
<g id="node1" class="node">
<title>Start</title>
<path fill="#7a8da1" stroke="black" stroke-width="0" d="M414.01,-345.82C414.01,-345.82 271.21,-345.82 271.21,-345.82 265.21,-345.82 259.21,-339.82 259.21,-333.82 259.21,-333.82 259.21,-314.54 259.21,-314.54 259.21,-308.54 265.21,-302.54 271.21,-302.54 271.21,-302.54 414.01,-302.54 414.01,-302.54 420.01,-302.54 426.01,-308.54 426.01,-314.54 426.01,-314.54 426.01,-333.82 426.01,-333.82 426.01,-339.82 420.01,-345.82 414.01,-345.82"/>
<text text-anchor="start" x="314.86" y="-324.88" font-family="Roboto, sans-serif" font-weight="bold" font-size="14.00">E_0209</text>
<text text-anchor="start" x="273.61" y="-312.78" font-family="Roboto, sans-serif" font-weight="bold" text-decoration="underline" font-size="12.00">Pr&#252;fende Rolle:</text>
<text text-anchor="start" x="377.11" y="-312.78" font-family="Roboto, sans-serif" font-weight="bold" font-size="12.00"> MSB</text>
</g>
<!-- 1 -->
<g id="node2" class="node">
<title>1</title>
<path fill="#7aab8a" stroke="black" stroke-width="0" d="M618.76,-265.54C618.76,-265.54 66.46,-265.54 66.46,-265.54 60.46,-265.54 54.46,-259.54 54.46,-253.54 54.46,-253.54 54.46,-241.54 54.46,-241.54 54.46,-235.54 60.46,-229.54 66.46,-229.54 66.46,-229.54 618.76,-229.54 618.76,-229.54 624.76,-229.54 630.76,-235.54 630.76,-241.54 630.76,-241.54 630.76,-253.54 630.76,-253.54 630.76,-259.54 624.76,-265.54 618.76,-265.54"/>
<text text-anchor="start" x="68.86" y="-243.86" font-family="Roboto, sans-serif" font-weight="bold" font-size="14.00">1: </text>
<text text-anchor="start" x="88.36" y="-243.86" font-family="Roboto, sans-serif" font-size="14.00">Besteht ein Vertragsverh&#228;ltnis &#252;ber die Rechnungsabwicklung &#252;ber den LF?</text>
</g>
<!-- Start&#45;&gt;1 -->
<g id="edge1" class="edge">
<title>Start-&gt;1</title>
<path fill="none" stroke="black" d="M342.61,-302.78C342.61,-294.71 342.61,-285.3 342.61,-276.61"/>
<polygon fill="black" stroke="black" points="346.11,-276.9 342.61,-266.9 339.11,-276.9 346.11,-276.9"/>
</g>
<!-- A01 -->
<g id="node3" class="node">
<title>A01</title>
<path fill="#cfb986" stroke="black" stroke-width="0" d="M287.22,-176.29C287.22,-176.29 33.99,-176.29 33.99,-176.29 27.99,-176.29 21.99,-170.29 21.99,-164.29 21.99,-164.29 21.99,-126.77 21.99,-126.77 21.99,-120.77 27.99,-114.77 33.99,-114.77 33.99,-114.77 287.22,-114.77 287.22,-114.77 293.22,-114.77 299.22,-120.77 299.22,-126.77 299.22,-126.77 299.22,-164.29 299.22,-164.29 299.22,-170.29 293.22,-176.29 287.22,-176.29"/>
<text text-anchor="start" x="34.23" y="-158.23" font-family="Roboto, sans-serif" font-weight="bold" font-size="14.00">A01</text>
<text text-anchor="start" x="34.23" y="-146.13" font-family="Roboto, sans-serif" text-decoration="underline" font-size="12.00">Hinweis:</text>
<text text-anchor="start" x="34.23" y="-134.13" font-family="Roboto, sans-serif" font-size="12.00">Cluster: Ablehnung</text>
<text text-anchor="start" x="34.23" y="-122.13" font-family="Roboto, sans-serif" font-size="12.00">LF ist nicht Zahler des Messstellenbetriebs</text>
</g>
<!-- 1&#45;&gt;A01 -->
<g id="edge2" class="edge">
<title>1-&gt;A01</title>
<path fill="none" stroke="#7aab8a" d="M311.73,-229.57C287.86,-216.46 254,-197.85 224.37,-181.57"/>
<polygon fill="#7aab8a" stroke="#7aab8a" points="226.29,-178.63 215.84,-176.88 222.91,-184.76 226.29,-178.63"/>
<text text-anchor="start" x="277.61" y="-199.24" font-family="Roboto, sans-serif" font-weight="bold" font-size="14.00">NEIN</text>
</g>
<!-- 2 -->
<g id="node4" class="node">
<title>2</title>
<path fill="#7aab8a" stroke="black" stroke-width="0" d="M901.51,-168.17C901.51,-168.17 329.71,-168.17 329.71,-168.17 323.71,-168.17 317.71,-162.17 317.71,-156.17 317.71,-156.17 317.71,-134.89 317.71,-134.89 317.71,-128.89 323.71,-122.89 329.71,-122.89 329.71,-122.89 901.51,-122.89 901.51,-122.89 907.51,-122.89 913.51,-128.89 913.51,-134.89 913.51,-134.89 913.51,-156.17 913.51,-156.17 913.51,-162.17 907.51,-168.17 901.51,-168.17"/>
<text text-anchor="start" x="332.11" y="-147.23" font-family="Roboto, sans-serif" font-weight="bold" font-size="14.00">2: </text>
<text text-anchor="start" x="351.61" y="-147.23" font-family="Roboto, sans-serif" font-size="14.00">Liegt das Beendigungsdatum nach dem Stichtag, der wie folgt berechnet wird:</text>
<text text-anchor="start" x="332.11" y="-133.23" font-family="Roboto, sans-serif" font-size="14.00">Eingangsdatum der Nachricht - (6 Wochen + 5 WT)?</text>
</g>
<!-- 1&#45;&gt;2 -->
<g id="edge3" class="edge">
<title>1-&gt;2</title>
<path fill="none" stroke="#7aab8a" d="M388.92,-229.57C432,-213.79 496.79,-190.06 546.08,-172"/>
<polygon fill="#7aab8a" stroke="#7aab8a" points="547.06,-175.37 555.24,-168.64 544.65,-168.8 547.06,-175.37"/>
<text text-anchor="start" x="478.61" y="-199.24" font-family="Roboto, sans-serif" font-weight="bold" font-size="14.00">JA</text>
</g>
<!-- A04 -->
<g id="node5" class="node">
<title>A04</title>
<path fill="#cfb986" stroke="black" stroke-width="0" d="M595.85,-61.52C595.85,-61.52 463.37,-61.52 463.37,-61.52 457.37,-61.52 451.37,-55.52 451.37,-49.52 451.37,-49.52 451.37,-12 451.37,-12 451.37,-6 457.37,0 463.37,0 463.37,0 595.85,0 595.85,0 601.85,0 607.85,-6 607.85,-12 607.85,-12 607.85,-49.52 607.85,-49.52 607.85,-55.52 601.85,-61.52 595.85,-61.52"/>
<text text-anchor="start" x="463.61" y="-43.46" font-family="Roboto, sans-serif" font-weight="bold" font-size="14.00">A04</text>
<text text-anchor="start" x="463.61" y="-31.36" font-family="Roboto, sans-serif" text-decoration="underline" font-size="12.00">Hinweis:</text>
<text text-anchor="start" x="463.61" y="-19.36" font-family="Roboto, sans-serif" font-size="12.00">Cluster: Ablehnung</text>
<text text-anchor="start" x="463.61" y="-7.36" font-family="Roboto, sans-serif" font-size="12.00">Frist nicht eingehalten</text>
</g>
<!-- 2&#45;&gt;A04 -->
<g id="edge4" class="edge">
<title>2-&gt;A04</title>
<path fill="none" stroke="#7aab8a" d="M599.23,-123.05C587.86,-108.14 572.39,-87.86 558.92,-70.2"/>
<polygon fill="#7aab8a" stroke="#7aab8a" points="561.86,-68.28 553.01,-62.45 556.3,-72.53 561.86,-68.28"/>
<text text-anchor="start" x="577.61" y="-84.47" font-family="Roboto, sans-serif" font-weight="bold" font-size="14.00">NEIN</text>
</g>
<!-- A02 -->
<g id="node6" class="node">
<title>A02</title>
<path fill="#cfb986" stroke="black" stroke-width="0" d="M763.1,-61.52C763.1,-61.52 638.12,-61.52 638.12,-61.52 632.12,-61.52 626.12,-55.52 626.12,-49.52 626.12,-49.52 626.12,-12 626.12,-12 626.12,-6 632.12,0 638.12,0 638.12,0 763.1,0 763.1,0 769.1,0 775.1,-6 775.1,-12 775.1,-12 775.1,-49.52 775.1,-49.52 775.1,-55.52 769.1,-61.52 763.1,-61.52"/>
<text text-anchor="start" x="638.36" y="-43.46" font-family="Roboto, sans-serif" font-weight="bold" font-size="14.00">A02</text>
<text text-anchor="start" x="638.36" y="-31.36" font-family="Roboto, sans-serif" text-decoration="underline" font-size="12.00">Hinweis:</text>
<text text-anchor="start" x="638.36" y="-19.36" font-family="Roboto, sans-serif" font-size="12.00">Cluster: Zustimmung</text>
<text text-anchor="start" x="638.36" y="-7.36" font-family="Roboto, sans-serif" font-size="12.00">Zustimmung</text>
</g>
<!-- 2&#45;&gt;A02 -->
<g id="edge5" class="edge">
<title>2-&gt;A02</title>
<path fill="none" stroke="#7aab8a" d="M631.8,-123.05C643.03,-108.14 658.32,-87.86 671.63,-70.2"/>
<polygon fill="#7aab8a" stroke="#7aab8a" points="674.24,-72.55 677.47,-62.46 668.65,-68.34 674.24,-72.55"/>
<text text-anchor="start" x="662.61" y="-84.47" font-family="Roboto, sans-serif" font-weight="bold" font-size="14.00">JA</text>
</g>
</g>
</svg>
  </g>
</svg>
  </g>
</svg>
