<?xml version='1.0' encoding='ASCII' standalone='yes'?>
<svg xmlns="http://www.w3.org/2000/svg" xmlns:xlink="http://www.w3.org/1999/xlink" version="1.1" width="1920.0px" viewBox="0 0 1920.0 1094.6666666666667" height="1094.6666666666667px">
  <g>
    <svg version="1.1" width="1920.0px" viewBox="0 0 1920.0 1094.6666666666667" height="1094.6666666666667px">
  <polygon fill="#f3f1f6" points="0,0 1920.0,0 1920.0,1094.6666666666667 0,1094.6666666666667"/><g>
    <g transform="translate(522.4581277342745, 109.46666666666665) scale(1 1) translate(0, 0) scale(4.950756816420654 4.950756816420654) "><sodipodi:namedview xmlns:sodipodi="http://sodipodi.sourceforge.net/DTD/sodipodi-0.dtd" xmlns:inkscape="http://www.inkscape.org/namespaces/inkscape" id="namedview7" pagecolor="#ffffff" bordercolor="#999999" borderopacity="1" inkscape:pageshadow="0" inkscape:pageopacity="0" inkscape:pagecheckerboard="0" inkscape:document-units="mm" showgrid="false" fit-margin-top="0" fit-margin-left="0" fit-margin-right="0" fit-margin-bottom="0" inkscape:zoom="0.64052329" inkscape:cx="130.36216" inkscape:cy="412.163" inkscape:window-width="1512" inkscape:window-height="916" inkscape:window-x="3840" inkscape:window-y="136" inkscape:window-maximized="0" inkscape:current-layer="layer1"/>
  <defs id="defs2">
    <clipPath clipPathUnits="userSpaceOnUse" id="clipPath23">
      <path d="M 0,568.156 H 579.236 V 0 H 0 Z" id="path21"/>
    </clipPath>
  </defs>
  <g xmlns:inkscape="http://www.inkscape.org/namespaces/inkscape" inkscape:label="Layer 1" inkscape:groupmode="layer" id="layer1" transform="translate(-16.541937,-55.305267)">
    <g id="g19" clip-path="url(#clipPath23)" transform="matrix(0.35277777,0,0,-0.35277777,0.01017023,243.73675)" style="opacity:0.2">
      <g id="g25" transform="translate(122.444,32.7195)">
        <path d="m 0,0 h -56.104 c -11,0 -19.898,9.123 -19.463,20.115 10.594,267.191 231.277,481.302 501.029,481.302 v -56.02 c 0,-10.98 -8.688,-19.892 -19.658,-20.393 C 180.29,414.697 0,228.005 0,0" style="fill:#6ead83;fill-opacity:0.5;fill-rule:nonzero;stroke:none" id="path27"/>
      </g>
      <g id="g29" transform="translate(273.7828,32.7195)">
        <path d="m 0,0 h -55.926 c -11.228,0 -20.091,9.482 -19.435,20.69 10.744,183.439 163.389,329.388 349.485,329.388 v -56.263 c 0,-10.709 -8.273,-19.617 -18.957,-20.35 C 112.819,263.696 0,144.774 0,0" style="fill:#6ead83;fill-opacity:0.5;fill-rule:nonzero;stroke:none" id="path31"/>
      </g>
      <g id="g33" transform="translate(425.7667,32.7195)">
        <path d="m 0,0 h -55.445 c -11.653,0 -20.604,10.17 -19.334,21.753 10.866,99.032 95.031,176.341 196.919,176.341 v -57.011 c 0,-10.046 -7.283,-18.755 -17.229,-20.165 C 45.688,112.522 0,61.497 0,0" style="fill:#6ead83;fill-opacity:0.5;fill-rule:nonzero;stroke:none" id="path35"/>
      </g>
    </g>
  </g>
</g>
    <svg width="1440pt" height="821pt" viewBox="0.00 0.00 1440.00 821.38">
<g id="graph0" class="graph" transform="scale(0.689114 0.689114) rotate(0) translate(4 1187.93)">
<title>D</title>
<text text-anchor="start" x="1011.95" y="-1163.83" font-family="Times,serif" font-weight="bold" font-size="18.00">GPKE</text>
<text text-anchor="start" x="870.95" y="-1133.73" font-family="Times,serif" font-weight="bold" font-size="16.00">6.11.7: AD: Netznutzungsabrechnung</text>
<!-- Start -->
<g id="node1" class="node">
<title>Start</title>
<polygon fill="#7a8da1" stroke="black" points="560.89,-1085.93 406.09,-1085.93 406.09,-1042.65 560.89,-1042.65 560.89,-1085.93"/>
<text text-anchor="start" x="455.37" y="-1064.99" font-family="Times,serif" font-weight="bold" font-size="14.00">E_0459</text>
<text text-anchor="start" x="420.49" y="-1052.89" font-family="Times,serif" font-weight="bold" text-decoration="underline" font-size="12.00">Pr&#252;fende Rolle:</text>
<text text-anchor="start" x="525.49" y="-1052.89" font-family="Times,serif" font-weight="bold" font-size="12.00"> LF</text>
</g>
<!-- 10 -->
<g id="node2" class="node">
<title>10</title>
<path fill="#7aab8a" stroke="black" d="M716.14,-1005.65C716.14,-1005.65 250.84,-1005.65 250.84,-1005.65 244.84,-1005.65 238.84,-999.65 238.84,-993.65 238.84,-993.65 238.84,-981.65 238.84,-981.65 238.84,-975.65 244.84,-969.65 250.84,-969.65 250.84,-969.65 716.14,-969.65 716.14,-969.65 722.14,-969.65 728.14,-975.65 728.14,-981.65 728.14,-981.65 728.14,-993.65 728.14,-993.65 728.14,-999.65 722.14,-1005.65 716.14,-1005.65"/>
<text text-anchor="start" x="253.24" y="-983.97" font-family="Times,serif" font-weight="bold" font-size="14.00">10: </text>
<text text-anchor="start" x="282.49" y="-983.97" font-family="Times,serif" font-size="14.00">Ist die zu stornierende Rechnung beim Empf&#228;nger bekannt?</text>
</g>
<!-- Start&#45;&gt;10 -->
<g id="edge1" class="edge">
<title>Start-&gt;10</title>
<path fill="none" stroke="black" d="M483.49,-1042.5C483.49,-1034.64 483.49,-1025.56 483.49,-1017.12"/>
<polygon fill="black" stroke="black" points="486.99,-1017.32 483.49,-1007.32 479.99,-1017.32 486.99,-1017.32"/>
</g>
<!-- A01 -->
<g id="node3" class="node">
<title>A01</title>
<polygon fill="#cfb986" stroke="black" points="360.36,-916.4 30.62,-916.4 30.62,-866.88 360.36,-866.88 360.36,-916.4"/>
<text text-anchor="start" x="180.49" y="-898.34" font-family="Times,serif" font-weight="bold" font-size="14.00">A01</text>
<text text-anchor="start" x="42.87" y="-886.24" font-family="Times,serif" text-decoration="underline" font-size="12.00">Hinweis:</text>
<text text-anchor="start" x="42.87" y="-874.24" font-family="Times,serif" font-size="12.00">Die zu stornierende Rechnung ist nicht vorhanden.</text>
</g>
<!-- 10&#45;&gt;A01 -->
<g id="edge2" class="edge">
<title>10-&gt;A01</title>
<path fill="none" stroke="black" d="M429.99,-969.19C388.03,-955.49 328.81,-936.16 280.39,-920.35"/>
<polygon fill="black" stroke="black" points="281.63,-917.08 271.04,-917.3 279.46,-923.73 281.63,-917.08"/>
<text text-anchor="middle" x="390.37" y="-938.35" font-family="Times,serif" font-size="14.00">Nein</text>
</g>
<!-- 15 -->
<g id="node4" class="node">
<title>15</title>
<path fill="#7aab8a" stroke="black" d="M1114.89,-909.64C1114.89,-909.64 390.09,-909.64 390.09,-909.64 384.09,-909.64 378.09,-903.64 378.09,-897.64 378.09,-897.64 378.09,-885.64 378.09,-885.64 378.09,-879.64 384.09,-873.64 390.09,-873.64 390.09,-873.64 1114.89,-873.64 1114.89,-873.64 1120.89,-873.64 1126.89,-879.64 1126.89,-885.64 1126.89,-885.64 1126.89,-897.64 1126.89,-897.64 1126.89,-903.64 1120.89,-909.64 1114.89,-909.64"/>
<text text-anchor="start" x="392.49" y="-887.96" font-family="Times,serif" font-weight="bold" font-size="14.00">15: </text>
<text text-anchor="start" x="421.74" y="-887.96" font-family="Times,serif" font-size="14.00">Liegt vom Rechnungssteller die in dieser Rechnung verwendete Rechnungsnummer bereits vor?</text>
</g>
<!-- 10&#45;&gt;15 -->
<g id="edge3" class="edge">
<title>10-&gt;15</title>
<path fill="none" stroke="black" d="M533.46,-969.19C578.28,-953.52 644.17,-930.49 691.97,-913.79"/>
<polygon fill="black" stroke="black" points="693.08,-917.11 701.36,-910.51 690.77,-910.5 693.08,-917.11"/>
<text text-anchor="middle" x="632.24" y="-938.35" font-family="Times,serif" font-size="14.00">Ja</text>
</g>
<!-- A06 -->
<g id="node5" class="node">
<title>A06</title>
<polygon fill="#cfb986" stroke="black" points="668.61,-813.63 370.38,-813.63 370.38,-764.11 668.61,-764.11 668.61,-813.63"/>
<text text-anchor="start" x="504.49" y="-795.57" font-family="Times,serif" font-weight="bold" font-size="14.00">A06</text>
<text text-anchor="start" x="382.62" y="-783.47" font-family="Times,serif" text-decoration="underline" font-size="12.00">Hinweis:</text>
<text text-anchor="start" x="382.62" y="-771.47" font-family="Times,serif" font-size="12.00">Rechnungsnummer wurde bereits verwendet.</text>
</g>
<!-- 15&#45;&gt;A06 -->
<g id="edge4" class="edge">
<title>15-&gt;A06</title>
<path fill="none" stroke="black" d="M712.17,-873.2C677.42,-858.17 626.57,-836.18 585.84,-818.56"/>
<polygon fill="black" stroke="black" points="587.4,-815.43 576.84,-814.67 584.62,-821.85 587.4,-815.43"/>
<text text-anchor="middle" x="656.24" y="-835.58" font-family="Times,serif" font-size="14.00">Ja</text>
</g>
<!-- 20 -->
<g id="node6" class="node">
<title>20</title>
<path fill="#7aab8a" stroke="black" d="M1128.14,-806.87C1128.14,-806.87 698.84,-806.87 698.84,-806.87 692.84,-806.87 686.84,-800.87 686.84,-794.87 686.84,-794.87 686.84,-782.87 686.84,-782.87 686.84,-776.87 692.84,-770.87 698.84,-770.87 698.84,-770.87 1128.14,-770.87 1128.14,-770.87 1134.14,-770.87 1140.14,-776.87 1140.14,-782.87 1140.14,-782.87 1140.14,-794.87 1140.14,-794.87 1140.14,-800.87 1134.14,-806.87 1128.14,-806.87"/>
<text text-anchor="start" x="701.24" y="-785.19" font-family="Times,serif" font-weight="bold" font-size="14.00">20: </text>
<text text-anchor="start" x="730.49" y="-785.19" font-family="Times,serif" font-size="14.00">Wurde die zu stornierende Rechnung bereits storniert?</text>
</g>
<!-- 15&#45;&gt;20 -->
<g id="edge5" class="edge">
<title>15-&gt;20</title>
<path fill="none" stroke="black" d="M780.17,-873.32C806.66,-856.73 846.82,-831.6 876.14,-813.25"/>
<polygon fill="black" stroke="black" points="877.73,-816.38 884.35,-808.11 874.02,-810.45 877.73,-816.38"/>
<text text-anchor="middle" x="859.37" y="-835.58" font-family="Times,serif" font-size="14.00">Nein</text>
</g>
<!-- A02 -->
<g id="node7" class="node">
<title>A02</title>
<polygon fill="#cfb986" stroke="black" points="629.98,-710.86 277,-710.86 277,-661.34 629.98,-661.34 629.98,-710.86"/>
<text text-anchor="start" x="438.49" y="-692.8" font-family="Times,serif" font-weight="bold" font-size="14.00">A02</text>
<text text-anchor="start" x="289.24" y="-680.7" font-family="Times,serif" text-decoration="underline" font-size="12.00">Hinweis:</text>
<text text-anchor="start" x="289.24" y="-668.7" font-family="Times,serif" font-size="12.00">Die zu stornierende Rechnung wurde bereits storniert.</text>
</g>
<!-- 20&#45;&gt;A02 -->
<g id="edge6" class="edge">
<title>20-&gt;A02</title>
<path fill="none" stroke="black" d="M833.63,-770.37C762.3,-754.75 656.75,-731.63 574.96,-713.71"/>
<polygon fill="black" stroke="black" points="575.83,-710.32 565.31,-711.6 574.33,-717.16 575.83,-710.32"/>
<text text-anchor="middle" x="717.24" y="-732.81" font-family="Times,serif" font-size="14.00">Ja</text>
</g>
<!-- 30 -->
<g id="node8" class="node">
<title>30</title>
<path fill="#7aab8a" stroke="black" d="M1461.14,-704.1C1461.14,-704.1 659.84,-704.1 659.84,-704.1 653.84,-704.1 647.84,-698.1 647.84,-692.1 647.84,-692.1 647.84,-680.1 647.84,-680.1 647.84,-674.1 653.84,-668.1 659.84,-668.1 659.84,-668.1 1461.14,-668.1 1461.14,-668.1 1467.14,-668.1 1473.14,-674.1 1473.14,-680.1 1473.14,-680.1 1473.14,-692.1 1473.14,-692.1 1473.14,-698.1 1467.14,-704.1 1461.14,-704.1"/>
<text text-anchor="start" x="662.24" y="-682.42" font-family="Times,serif" font-weight="bold" font-size="14.00">30: </text>
<text text-anchor="start" x="691.49" y="-682.42" font-family="Times,serif" font-size="14.00">Ist der Rechnungstyp der Stornorechnung identisch mit dem Rechnungstyp der urspr&#252;nglichen Rechnung?</text>
</g>
<!-- 20&#45;&gt;30 -->
<g id="edge7" class="edge">
<title>20-&gt;30</title>
<path fill="none" stroke="black" d="M938.76,-770.55C962.74,-754.11 998.98,-729.26 1025.69,-710.96"/>
<polygon fill="black" stroke="black" points="1027.54,-713.93 1033.81,-705.39 1023.58,-708.16 1027.54,-713.93"/>
<text text-anchor="middle" x="1012.37" y="-732.81" font-family="Times,serif" font-size="14.00">Nein</text>
</g>
<!-- A03 -->
<g id="node9" class="node">
<title>A03</title>
<polygon fill="#cfb986" stroke="black" points="703.86,-608.09 5.12,-608.09 5.12,-558.57 703.86,-558.57 703.86,-608.09"/>
<text text-anchor="start" x="339.49" y="-590.03" font-family="Times,serif" font-weight="bold" font-size="14.00">A03</text>
<text text-anchor="start" x="17.37" y="-577.93" font-family="Times,serif" text-decoration="underline" font-size="12.00">Hinweis:</text>
<text text-anchor="start" x="17.37" y="-565.93" font-family="Times,serif" font-size="12.00">Der Rechnungstyp der Stornorechnung ist nicht identisch mit dem Rechnungstyp der urspr&#252;nglichen Rechnung.</text>
</g>
<!-- 30&#45;&gt;A03 -->
<g id="edge8" class="edge">
<title>30-&gt;A03</title>
<path fill="none" stroke="black" d="M937.92,-667.6C826.86,-651.75 661.75,-628.19 535.5,-610.17"/>
<polygon fill="black" stroke="black" points="536.07,-606.71 525.67,-608.76 535.08,-613.64 536.07,-606.71"/>
<text text-anchor="middle" x="766.37" y="-630.04" font-family="Times,serif" font-size="14.00">Nein</text>
</g>
<!-- 40 -->
<g id="node10" class="node">
<title>40</title>
<path fill="#7aab8a" stroke="black" d="M2064.89,-601.33C2064.89,-601.33 734.09,-601.33 734.09,-601.33 728.09,-601.33 722.09,-595.33 722.09,-589.33 722.09,-589.33 722.09,-577.33 722.09,-577.33 722.09,-571.33 728.09,-565.33 734.09,-565.33 734.09,-565.33 2064.89,-565.33 2064.89,-565.33 2070.89,-565.33 2076.89,-571.33 2076.89,-577.33 2076.89,-577.33 2076.89,-589.33 2076.89,-589.33 2076.89,-595.33 2070.89,-601.33 2064.89,-601.33"/>
<text text-anchor="start" x="736.49" y="-579.65" font-family="Times,serif" font-weight="bold" font-size="14.00">40: </text>
<text text-anchor="start" x="765.74" y="-579.65" font-family="Times,serif" font-size="14.00">Ist der Abrechnungszeitraum bzw. das Ausf&#252;hrungsdatum der Stornorechnung identisch mit dem Abrechnungszeitraum bzw. dem Ausf&#252;hrungsdatum der urspr&#252;nglichen Rechnung?</text>
</g>
<!-- 30&#45;&gt;40 -->
<g id="edge9" class="edge">
<title>30-&gt;40</title>
<path fill="none" stroke="black" d="M1119.15,-667.66C1177.7,-650.26 1267.66,-623.52 1329.81,-605.04"/>
<polygon fill="black" stroke="black" points="1330.66,-608.44 1339.24,-602.24 1328.66,-601.73 1330.66,-608.44"/>
<text text-anchor="middle" x="1256.24" y="-630.04" font-family="Times,serif" font-size="14.00">Ja</text>
</g>
<!-- A04 -->
<g id="node11" class="node">
<title>A04</title>
<polygon fill="#cfb986" stroke="black" points="1144.98,-493.44 0,-493.44 0,-443.92 1144.98,-443.92 1144.98,-493.44"/>
<text text-anchor="start" x="557.49" y="-475.38" font-family="Times,serif" font-weight="bold" font-size="14.00">A04</text>
<text text-anchor="start" x="12.24" y="-463.28" font-family="Times,serif" text-decoration="underline" font-size="12.00">Hinweis:</text>
<text text-anchor="start" x="12.24" y="-451.28" font-family="Times,serif" font-size="12.00">Der Abrechnungszeitraum bzw. des Ausf&#252;hrungsdatum der Stornorechnung ist nicht identisch mit dem Abrechnungszeitraum bzw. dem Ausf&#252;hrungsdatum der urspr&#252;nglichen Rechnung.</text>
</g>
<!-- 40&#45;&gt;A04 -->
<g id="edge10" class="edge">
<title>40-&gt;A04</title>
<path fill="none" stroke="black" d="M1271.18,-564.85C1134.72,-546.26 917.46,-516.67 761.43,-495.42"/>
<polygon fill="black" stroke="black" points="762.19,-491.99 751.81,-494.11 761.24,-498.92 762.19,-491.99"/>
<text text-anchor="middle" x="1100.37" y="-527.27" font-family="Times,serif" font-size="14.00">Nein</text>
</g>
<!-- 50 -->
<g id="node12" class="node">
<title>50</title>
<path fill="#7aab8a" stroke="black" d="M2069.64,-505.32C2069.64,-505.32 1175.34,-505.32 1175.34,-505.32 1169.34,-505.32 1163.34,-499.32 1163.34,-493.32 1163.34,-493.32 1163.34,-444.04 1163.34,-444.04 1163.34,-438.04 1169.34,-432.04 1175.34,-432.04 1175.34,-432.04 2069.64,-432.04 2069.64,-432.04 2075.64,-432.04 2081.64,-438.04 2081.64,-444.04 2081.64,-444.04 2081.64,-493.32 2081.64,-493.32 2081.64,-499.32 2075.64,-505.32 2069.64,-505.32"/>
<text text-anchor="start" x="1177.74" y="-484.38" font-family="Times,serif" font-weight="bold" font-size="14.00">50: </text>
<text text-anchor="start" x="1206.99" y="-484.38" font-family="Times,serif" font-size="14.00">Sind die mit (-1) multiplizierten Betr&#228;ge der Stornorechnung mit den Betr&#228;gen der urspr&#252;nglichen Rechnung identisch?</text>
<text text-anchor="start" x="1177.74" y="-456.38" font-family="Times,serif" font-size="14.00">Hinweis:</text>
<text text-anchor="start" x="1177.74" y="-442.38" font-family="Times,serif" font-size="14.00">Als Betrag ist der jeweilige Wert des jeweiligen MOA-Segments zu verstehen.</text>
</g>
<!-- 40&#45;&gt;50 -->
<g id="edge11" class="edge">
<title>40-&gt;50</title>
<path fill="none" stroke="black" d="M1433.85,-564.98C1462.32,-550.59 1503.97,-529.55 1540.89,-510.9"/>
<polygon fill="black" stroke="black" points="1542.46,-514.03 1549.81,-506.39 1539.31,-507.78 1542.46,-514.03"/>
<text text-anchor="middle" x="1517.24" y="-527.27" font-family="Times,serif" font-size="14.00">Ja</text>
</g>
<!-- A05 -->
<g id="node13" class="node">
<title>A05</title>
<polygon fill="#cfb986" stroke="black" points="1527.86,-378.79 895.12,-378.79 895.12,-329.27 1527.86,-329.27 1527.86,-378.79"/>
<text text-anchor="start" x="1196.49" y="-360.73" font-family="Times,serif" font-weight="bold" font-size="14.00">A05</text>
<text text-anchor="start" x="907.37" y="-348.63" font-family="Times,serif" text-decoration="underline" font-size="12.00">Hinweis:</text>
<text text-anchor="start" x="907.37" y="-336.63" font-family="Times,serif" font-size="12.00">Mindestens ein Betrag der Stornorechnung passt nicht zu dem Betrag der urspr&#252;nglichen Rechnung.</text>
</g>
<!-- 50&#45;&gt;A05 -->
<g id="edge12" class="edge">
<title>50-&gt;A05</title>
<path fill="none" stroke="black" d="M1490.75,-431.57C1432.32,-415.56 1364.72,-397.03 1310.66,-382.21"/>
<polygon fill="black" stroke="black" points="1311.72,-378.87 1301.15,-379.6 1309.87,-385.62 1311.72,-378.87"/>
<text text-anchor="middle" x="1433.37" y="-400.74" font-family="Times,serif" font-size="14.00">Nein</text>
</g>
<!-- 60 -->
<g id="node14" class="node">
<title>60</title>
<path fill="#7aab8a" stroke="black" d="M1966.64,-372.03C1966.64,-372.03 1558.34,-372.03 1558.34,-372.03 1552.34,-372.03 1546.34,-366.03 1546.34,-360.03 1546.34,-360.03 1546.34,-348.03 1546.34,-348.03 1546.34,-342.03 1552.34,-336.03 1558.34,-336.03 1558.34,-336.03 1966.64,-336.03 1966.64,-336.03 1972.64,-336.03 1978.64,-342.03 1978.64,-348.03 1978.64,-348.03 1978.64,-360.03 1978.64,-360.03 1978.64,-366.03 1972.64,-372.03 1966.64,-372.03"/>
<text text-anchor="start" x="1560.74" y="-350.35" font-family="Times,serif" font-weight="bold" font-size="14.00">60: </text>
<text text-anchor="start" x="1589.99" y="-350.35" font-family="Times,serif" font-size="14.00">Ist ein zuvor nicht spezifizierter Fehler aufgetreten?</text>
</g>
<!-- 50&#45;&gt;60 -->
<g id="edge13" class="edge">
<title>50-&gt;60</title>
<path fill="none" stroke="black" d="M1667.17,-431.73C1688.35,-414.68 1713.11,-394.76 1732.08,-379.5"/>
<polygon fill="black" stroke="black" points="1734.11,-382.35 1739.71,-373.36 1729.73,-376.9 1734.11,-382.35"/>
<text text-anchor="middle" x="1715.24" y="-400.74" font-family="Times,serif" font-size="14.00">Ja</text>
</g>
<!-- A99 -->
<g id="node15" class="node">
<title>A99</title>
<polygon fill="#cfb986" stroke="black" points="1609.11,-276.02 1097.88,-276.02 1097.88,-178.5 1609.11,-178.5 1609.11,-276.02"/>
<text text-anchor="start" x="1338.49" y="-257.96" font-family="Times,serif" font-weight="bold" font-size="14.00">A99</text>
<text text-anchor="start" x="1110.12" y="-245.86" font-family="Times,serif" text-decoration="underline" font-size="12.00">Hinweis:</text>
<text text-anchor="start" x="1110.12" y="-233.86" font-family="Times,serif" font-size="12.00">Ablehnung </text>
<text text-anchor="start" x="1110.12" y="-209.86" font-family="Times,serif" font-size="12.00">Sonstiges</text>
<text text-anchor="start" x="1110.12" y="-197.86" font-family="Times,serif" font-size="12.00">Hinweis: Das identifizierte Problem ist in der Antwort zu beschreiben/benennen. </text>
<text text-anchor="start" x="1110.12" y="-185.86" font-family="Times,serif" font-size="12.00">Nutzungsm&#246;glichkeit Ende: 01.04.2026 00:00 Uhr</text>
</g>
<!-- 60&#45;&gt;A99 -->
<g id="edge14" class="edge">
<title>60-&gt;A99</title>
<path fill="none" stroke="black" d="M1705.19,-335.55C1657.6,-321.03 1587.4,-299.62 1522.2,-279.73"/>
<polygon fill="black" stroke="black" points="1523.39,-276.43 1512.81,-276.86 1521.35,-283.13 1523.39,-276.43"/>
<text text-anchor="middle" x="1625.24" y="-297.97" font-family="Times,serif" font-size="14.00">Ja</text>
</g>
<!-- 70 -->
<g id="node16" class="node">
<title>70</title>
<path fill="#7aab8a" stroke="black" d="M2033.89,-245.26C2033.89,-245.26 1639.09,-245.26 1639.09,-245.26 1633.09,-245.26 1627.09,-239.26 1627.09,-233.26 1627.09,-233.26 1627.09,-221.26 1627.09,-221.26 1627.09,-215.26 1633.09,-209.26 1639.09,-209.26 1639.09,-209.26 2033.89,-209.26 2033.89,-209.26 2039.89,-209.26 2045.89,-215.26 2045.89,-221.26 2045.89,-221.26 2045.89,-233.26 2045.89,-233.26 2045.89,-239.26 2039.89,-245.26 2033.89,-245.26"/>
<text text-anchor="start" x="1641.49" y="-223.58" font-family="Times,serif" font-weight="bold" font-size="14.00">70: </text>
<text text-anchor="start" x="1670.74" y="-223.58" font-family="Times,serif" font-size="14.00">Wurde der urspr&#252;nglichen Rechnung zugestimmt?</text>
</g>
<!-- 60&#45;&gt;70 -->
<g id="edge15" class="edge">
<title>60-&gt;70</title>
<path fill="none" stroke="black" d="M1772.78,-335.68C1785.15,-314.82 1806.05,-279.58 1820.52,-255.18"/>
<polygon fill="black" stroke="black" points="1823.43,-257.15 1825.52,-246.76 1817.4,-253.58 1823.43,-257.15"/>
<text text-anchor="middle" x="1813.37" y="-297.97" font-family="Times,serif" font-size="14.00">Nein</text>
</g>
<!-- Ende -->
<g id="node17" class="node">
<title>Ende</title>
<polygon fill="#7a8da1" stroke="black" points="1699.27,-36 1633.71,-36 1633.71,0 1699.27,0 1699.27,-36"/>
<text text-anchor="middle" x="1666.49" y="-13.32" font-family="Times,serif" font-size="14.00">Ende</text>
</g>
<!-- 70&#45;&gt;Ende -->
<g id="edge16" class="edge">
<title>70-&gt;Ende</title>
<path fill="none" stroke="black" d="M1775.01,-208.85C1734.53,-193.83 1684.61,-167.7 1659.99,-125.25 1646.25,-101.56 1650.6,-69.7 1656.69,-47.06"/>
<polygon fill="black" stroke="black" points="1660.01,-48.19 1659.52,-37.61 1653.3,-46.19 1660.01,-48.19"/>
<text text-anchor="middle" x="1666.24" y="-102.58" font-family="Times,serif" font-size="14.00">Ja</text>
</g>
<!-- 80 -->
<g id="node18" class="node">
<title>80</title>
<path fill="#7aab8a" stroke="black" d="M2064.51,-125.25C2064.51,-125.25 1694.46,-125.25 1694.46,-125.25 1688.46,-125.25 1682.46,-119.25 1682.46,-113.25 1682.46,-113.25 1682.46,-101.25 1682.46,-101.25 1682.46,-95.25 1688.46,-89.25 1694.46,-89.25 1694.46,-89.25 2064.51,-89.25 2064.51,-89.25 2070.51,-89.25 2076.51,-95.25 2076.51,-101.25 2076.51,-101.25 2076.51,-113.25 2076.51,-113.25 2076.51,-119.25 2070.51,-125.25 2064.51,-125.25"/>
<text text-anchor="start" x="1696.87" y="-103.58" font-family="Times,serif" font-weight="bold" font-size="14.00">80: </text>
<text text-anchor="start" x="1726.12" y="-103.58" font-family="Times,serif" font-size="14.00">Wurde die urspr&#252;ngliche Rechnung abgelehnt?</text>
</g>
<!-- 70&#45;&gt;80 -->
<g id="edge17" class="edge">
<title>70-&gt;80</title>
<path fill="none" stroke="black" d="M1842.83,-208.85C1849.79,-189.76 1861.05,-158.86 1869.26,-136.34"/>
<polygon fill="black" stroke="black" points="1872.47,-137.75 1872.6,-127.16 1865.89,-135.35 1872.47,-137.75"/>
<text text-anchor="middle" x="1882.37" y="-147.2" font-family="Times,serif" font-size="14.00">Nein</text>
</g>
<!-- 80&#45;&gt;Ende -->
<g id="edge18" class="edge">
<title>80-&gt;Ende</title>
<path fill="none" stroke="black" d="M1836.9,-88.8C1800.1,-73.73 1747.16,-52.04 1710.07,-36.85"/>
<polygon fill="black" stroke="black" points="1711.57,-33.68 1700.99,-33.13 1708.92,-40.16 1711.57,-33.68"/>
<text text-anchor="middle" x="1808.37" y="-57.95" font-family="Times,serif" font-size="14.00">Nein</text>
</g>
</g>
</svg>
  </g>
</svg>
  </g>
</svg>
