<?xml version='1.0' encoding='ASCII' standalone='yes'?>
<svg xmlns="http://www.w3.org/2000/svg" xmlns:xlink="http://www.w3.org/1999/xlink" version="1.1" width="1884.0px" viewBox="0 0 1884.0 1236.0" height="1236.0px">
  <g>
    <svg version="1.1" width="1884.0px" viewBox="0 0 1884.0 1236.0" height="1236.0px">
  <polygon fill="#c2cee9" points="0,0 1884.0,0 1884.0,1236.0 0,1236.0"/><g>
    <g transform="translate(437.9584342438749, 123.59999999999997) scale(1 1) translate(0, 0) scale(1.7403548296254578 1.7403548296254578) "><!-- note that I manually added the width and height attribute to the root node
  https://chatgpt.com/share/678e3028-70cc-800b-a296-782714735772
  -->
  <defs>
    <style>.cls-1{fill:#fff;}</style>
  </defs>
  <path class="cls-1" d="M122.44,531.2h-56.1c-11,0-19.9-9.12-19.46-20.11C57.47,243.89,278.15,29.78,547.91,29.78v56.02c0,10.98-8.69,19.89-19.66,20.39-225.51,10.31-405.8,197-405.8,425Z"/>
  <path class="cls-1" d="M273.78,531.2h-55.93c-11.23,0-20.09-9.48-19.43-20.69,10.74-183.44,163.39-329.39,349.48-329.39v56.26c0,10.71-8.27,19.62-18.96,20.35-142.35,9.77-255.17,128.69-255.17,273.46Z"/>
  <path class="cls-1" d="M425.77,531.2h-55.45c-11.65,0-20.6-10.17-19.33-21.75,10.87-99.03,95.03-176.34,196.92-176.34v57.01c0,10.05-7.28,18.75-17.23,20.16-59.22,8.4-104.91,59.42-104.91,120.92Z"/>
</g>
    <svg width="1413pt" height="927pt" viewBox="0.00 0.00 1413.14 927.17">
<g id="graph0" class="graph" transform="scale(1 1) rotate(0) translate(4 923.17)">
<title>D</title>
<text text-anchor="start" x="303.57" y="-899.07" font-family="Roboto, sans-serif" font-weight="bold" font-size="18.00">GPKE</text>
<text text-anchor="start" x="303.57" y="-868.97" font-family="Roboto, sans-serif" font-weight="bold" font-size="16.00">6.14.1: AD: Wiederherstellung der Anschlussnutzung (Entsperren) auf Anweisung des LF</text>
<!-- Start -->
<g id="node1" class="node">
<title>Start</title>
<path fill="#7a8da1" stroke="black" stroke-width="0" d="M630.76,-821.17C630.76,-821.17 499.22,-821.17 499.22,-821.17 493.22,-821.17 487.22,-815.17 487.22,-809.17 487.22,-809.17 487.22,-789.89 487.22,-789.89 487.22,-783.89 493.22,-777.89 499.22,-777.89 499.22,-777.89 630.76,-777.89 630.76,-777.89 636.76,-777.89 642.76,-783.89 642.76,-789.89 642.76,-789.89 642.76,-809.17 642.76,-809.17 642.76,-815.17 636.76,-821.17 630.76,-821.17"/>
<text text-anchor="start" x="537.24" y="-800.23" font-family="Roboto, sans-serif" font-weight="bold" font-size="14.00">E_0497</text>
<text text-anchor="start" x="501.62" y="-788.13" font-family="Roboto, sans-serif" font-weight="bold" text-decoration="underline" font-size="12.00">Pr&#252;fende Rolle:</text>
<text text-anchor="start" x="605.12" y="-788.13" font-family="Roboto, sans-serif" font-weight="bold" font-size="12.00"> NB</text>
</g>
<!-- 1 -->
<g id="node2" class="node">
<title>1</title>
<path fill="#7aab8a" stroke="black" stroke-width="0" d="M869.64,-740.89C869.64,-740.89 260.34,-740.89 260.34,-740.89 254.34,-740.89 248.34,-734.89 248.34,-728.89 248.34,-728.89 248.34,-707.61 248.34,-707.61 248.34,-701.61 254.34,-695.61 260.34,-695.61 260.34,-695.61 869.64,-695.61 869.64,-695.61 875.64,-695.61 881.64,-701.61 881.64,-707.61 881.64,-707.61 881.64,-728.89 881.64,-728.89 881.64,-734.89 875.64,-740.89 869.64,-740.89"/>
<text text-anchor="start" x="262.74" y="-719.95" font-family="Roboto, sans-serif" font-weight="bold" font-size="14.00">1: </text>
<text text-anchor="start" x="282.24" y="-719.95" font-family="Roboto, sans-serif" font-size="14.00">Wurde die Sperrung durch den UC "Unterbrechung der Anschlussnutzung (Sperren)</text>
<text text-anchor="start" x="262.74" y="-705.95" font-family="Roboto, sans-serif" font-size="14.00">auf Anweisung des LF" ausgel&#246;st?</text>
</g>
<!-- Start&#45;&gt;1 -->
<g id="edge1" class="edge">
<title>Start-&gt;1</title>
<path fill="none" stroke="black" d="M564.99,-778.11C564.99,-770.14 564.99,-760.79 564.99,-751.93"/>
<polygon fill="black" stroke="black" points="568.49,-752.22 564.99,-742.22 561.49,-752.22 568.49,-752.22"/>
</g>
<!-- A05 -->
<g id="node3" class="node">
<title>A05</title>
<path fill="#cfb986" stroke="black" stroke-width="0" d="M733.98,-635.48C733.98,-635.48 12,-635.48 12,-635.48 6,-635.48 0,-629.48 0,-623.48 0,-623.48 0,-573.96 0,-573.96 0,-567.96 6,-561.96 12,-561.96 12,-561.96 733.98,-561.96 733.98,-561.96 739.98,-561.96 745.98,-567.96 745.98,-573.96 745.98,-573.96 745.98,-623.48 745.98,-623.48 745.98,-629.48 739.98,-635.48 733.98,-635.48"/>
<text text-anchor="start" x="12.24" y="-617.42" font-family="Roboto, sans-serif" font-weight="bold" font-size="14.00">A05</text>
<text text-anchor="start" x="12.24" y="-605.32" font-family="Roboto, sans-serif" text-decoration="underline" font-size="12.00">Hinweis:</text>
<text text-anchor="start" x="12.24" y="-593.32" font-family="Roboto, sans-serif" font-size="12.00">Cluster: Ablehnung</text>
<text text-anchor="start" x="12.24" y="-581.32" font-family="Roboto, sans-serif" font-size="12.00">Marktlokation wurde nicht &#252;ber den UC (Unterbrechung der Anschlussnutzung (Sperren) auf Anweisung des LF) gesperrt.</text>
<text text-anchor="start" x="12.24" y="-569.32" font-family="Roboto, sans-serif" font-size="12.00">Hinweis: Die Entsperrung muss auf konventionellem Weg erfolgen.</text>
</g>
<!-- 1&#45;&gt;A05 -->
<g id="edge2" class="edge">
<title>1-&gt;A05</title>
<path fill="none" stroke="#7aab8a" d="M529.77,-695.69C504.96,-680.5 470.95,-659.68 440.94,-641.31"/>
<polygon fill="#7aab8a" stroke="#7aab8a" points="443,-638.47 432.64,-636.24 439.35,-644.44 443,-638.47"/>
<text text-anchor="start" x="496.99" y="-665.31" font-family="Roboto, sans-serif" font-weight="bold" font-size="14.00">NEIN</text>
</g>
<!-- 2 -->
<g id="node4" class="node">
<title>2</title>
<path fill="#7aab8a" stroke="black" stroke-width="0" d="M1385.64,-642.36C1385.64,-642.36 776.34,-642.36 776.34,-642.36 770.34,-642.36 764.34,-636.36 764.34,-630.36 764.34,-630.36 764.34,-567.08 764.34,-567.08 764.34,-561.08 770.34,-555.08 776.34,-555.08 776.34,-555.08 1385.64,-555.08 1385.64,-555.08 1391.64,-555.08 1397.64,-561.08 1397.64,-567.08 1397.64,-567.08 1397.64,-630.36 1397.64,-630.36 1397.64,-636.36 1391.64,-642.36 1385.64,-642.36"/>
<text text-anchor="start" x="778.74" y="-621.42" font-family="Roboto, sans-serif" font-weight="bold" font-size="14.00">2: </text>
<text text-anchor="start" x="798.24" y="-621.42" font-family="Roboto, sans-serif" font-size="14.00">W&#228;re eine Wiederinbetriebnahme aufgrund eines technischen Verhinderungsrundes</text>
<text text-anchor="start" x="778.74" y="-607.42" font-family="Roboto, sans-serif" font-size="14.00">(z.B. entspricht nicht den geltenden Rechtsvorschriften, beh&#246;rdlichen</text>
<text text-anchor="start" x="778.74" y="-593.42" font-family="Roboto, sans-serif" font-size="14.00">Verf&#252;gungen, den anerkannten Regeln der Technik, DIN VDE Normen, Technischen</text>
<text text-anchor="start" x="778.74" y="-579.42" font-family="Roboto, sans-serif" font-size="14.00">Anschlussbedingungen (TAB) oder den sonstigen besonderen Vorschriften des NB)</text>
<text text-anchor="start" x="778.74" y="-565.42" font-family="Roboto, sans-serif" font-size="14.00">nicht m&#246;glich?</text>
</g>
<!-- 1&#45;&gt;2 -->
<g id="edge3" class="edge">
<title>1-&gt;2</title>
<path fill="none" stroke="#7aab8a" d="M659.93,-695.62C722.41,-681.39 806.51,-662.24 883.12,-644.79"/>
<polygon fill="#7aab8a" stroke="#7aab8a" points="883.43,-648.31 892.4,-642.67 881.87,-641.48 883.43,-648.31"/>
<text text-anchor="start" x="806.99" y="-665.31" font-family="Roboto, sans-serif" font-weight="bold" font-size="14.00">JA</text>
</g>
<!-- A06 -->
<g id="node5" class="node">
<title>A06</title>
<path fill="#cfb986" stroke="black" stroke-width="0" d="M769.73,-501.83C769.73,-501.83 262.25,-501.83 262.25,-501.83 256.25,-501.83 250.25,-495.83 250.25,-489.83 250.25,-489.83 250.25,-380.31 250.25,-380.31 250.25,-374.31 256.25,-368.31 262.25,-368.31 262.25,-368.31 769.73,-368.31 769.73,-368.31 775.73,-368.31 781.73,-374.31 781.73,-380.31 781.73,-380.31 781.73,-489.83 781.73,-489.83 781.73,-495.83 775.73,-501.83 769.73,-501.83"/>
<text text-anchor="start" x="262.49" y="-483.77" font-family="Roboto, sans-serif" font-weight="bold" font-size="14.00">A06</text>
<text text-anchor="start" x="262.49" y="-471.67" font-family="Roboto, sans-serif" text-decoration="underline" font-size="12.00">Hinweis:</text>
<text text-anchor="start" x="262.49" y="-459.67" font-family="Roboto, sans-serif" font-size="12.00">Cluster: Ablehnung</text>
<text text-anchor="start" x="262.49" y="-447.67" font-family="Roboto, sans-serif" font-size="12.00">Wiederinbetriebnahme w&#228;re technisch nicht m&#246;glich</text>
<text text-anchor="start" x="262.49" y="-435.67" font-family="Roboto, sans-serif" font-size="12.00">Hinweis:</text>
<text text-anchor="start" x="262.49" y="-423.67" font-family="Roboto, sans-serif" font-size="12.00">Die Marktlokation bzw. die dazugeh&#246;rigen elektrischen Anlagen kann gem&#228;&#223; NAV</text>
<text text-anchor="start" x="262.49" y="-411.67" font-family="Roboto, sans-serif" font-size="12.00">und TAB nicht wieder in Betrieb genommen werden. Sie entspricht nicht der</text>
<text text-anchor="start" x="262.49" y="-399.67" font-family="Roboto, sans-serif" font-size="12.00">geltenden Rechtsvorschriften und beh&#246;rdlichen Verf&#252;gungen sowie den anerkannten</text>
<text text-anchor="start" x="262.49" y="-387.67" font-family="Roboto, sans-serif" font-size="12.00">Regeln der Technik, insbesondere DIN VDE Normen, den Technischen</text>
<text text-anchor="start" x="262.49" y="-375.67" font-family="Roboto, sans-serif" font-size="12.00">Anschlussbedingungen (TAB) und den sonstigen besonderen Vorschriften des NB.</text>
</g>
<!-- 2&#45;&gt;A06 -->
<g id="edge4" class="edge">
<title>2-&gt;A06</title>
<path fill="none" stroke="#7aab8a" d="M932.17,-555.14C878.35,-539.74 816.12,-521.94 756.44,-504.87"/>
<polygon fill="#7aab8a" stroke="#7aab8a" points="757.76,-501.6 747.18,-502.22 755.83,-508.33 757.76,-501.6"/>
<text text-anchor="start" x="864.99" y="-524.78" font-family="Roboto, sans-serif" font-weight="bold" font-size="14.00">JA</text>
</g>
<!-- 3 -->
<g id="node6" class="node">
<title>3</title>
<path fill="#7aab8a" stroke="black" stroke-width="0" d="M1392.39,-453.07C1392.39,-453.07 811.59,-453.07 811.59,-453.07 805.59,-453.07 799.59,-447.07 799.59,-441.07 799.59,-441.07 799.59,-429.07 799.59,-429.07 799.59,-423.07 805.59,-417.07 811.59,-417.07 811.59,-417.07 1392.39,-417.07 1392.39,-417.07 1398.39,-417.07 1404.39,-423.07 1404.39,-429.07 1404.39,-429.07 1404.39,-441.07 1404.39,-441.07 1404.39,-447.07 1398.39,-453.07 1392.39,-453.07"/>
<text text-anchor="start" x="813.99" y="-431.39" font-family="Roboto, sans-serif" font-weight="bold" font-size="14.00">3: </text>
<text text-anchor="start" x="833.49" y="-431.39" font-family="Roboto, sans-serif" font-size="14.00">Ist zum Zeitpunkt des Nachrichteneingangs die Marktlokation bereits entsperrt?</text>
</g>
<!-- 2&#45;&gt;3 -->
<g id="edge5" class="edge">
<title>2-&gt;3</title>
<path fill="none" stroke="#7aab8a" d="M1086.51,-555.25C1090.25,-526.47 1095.08,-489.24 1098.35,-464.12"/>
<polygon fill="#7aab8a" stroke="#7aab8a" points="1101.8,-464.71 1099.62,-454.34 1094.86,-463.81 1101.8,-464.71"/>
<text text-anchor="start" x="1089.99" y="-524.78" font-family="Roboto, sans-serif" font-weight="bold" font-size="14.00">NEIN</text>
</g>
<!-- A01 -->
<g id="node7" class="node">
<title>A01</title>
<path fill="#cfb986" stroke="black" stroke-width="0" d="M984.11,-315.06C984.11,-315.06 793.88,-315.06 793.88,-315.06 787.88,-315.06 781.88,-309.06 781.88,-303.06 781.88,-303.06 781.88,-265.54 781.88,-265.54 781.88,-259.54 787.88,-253.54 793.88,-253.54 793.88,-253.54 984.11,-253.54 984.11,-253.54 990.11,-253.54 996.11,-259.54 996.11,-265.54 996.11,-265.54 996.11,-303.06 996.11,-303.06 996.11,-309.06 990.11,-315.06 984.11,-315.06"/>
<text text-anchor="start" x="794.12" y="-297" font-family="Roboto, sans-serif" font-weight="bold" font-size="14.00">A01</text>
<text text-anchor="start" x="794.12" y="-284.9" font-family="Roboto, sans-serif" text-decoration="underline" font-size="12.00">Hinweis:</text>
<text text-anchor="start" x="794.12" y="-272.9" font-family="Roboto, sans-serif" font-size="12.00">Cluster: Ablehnung</text>
<text text-anchor="start" x="794.12" y="-260.9" font-family="Roboto, sans-serif" font-size="12.00">Marktlokation ist nicht gesperrt.</text>
</g>
<!-- 3&#45;&gt;A01 -->
<g id="edge6" class="edge">
<title>3-&gt;A01</title>
<path fill="none" stroke="#7aab8a" d="M1077.97,-417.29C1044.83,-394.14 984.22,-351.81 940.56,-321.32"/>
<polygon fill="#7aab8a" stroke="#7aab8a" points="942.69,-318.54 932.48,-315.68 938.68,-324.27 942.69,-318.54"/>
<text text-anchor="start" x="975.99" y="-338.01" font-family="Roboto, sans-serif" font-weight="bold" font-size="14.00">JA</text>
</g>
<!-- 4 -->
<g id="node8" class="node">
<title>4</title>
<path fill="#7aab8a" stroke="black" stroke-width="0" d="M1309.89,-302.3C1309.89,-302.3 1026.09,-302.3 1026.09,-302.3 1020.09,-302.3 1014.09,-296.3 1014.09,-290.3 1014.09,-290.3 1014.09,-278.3 1014.09,-278.3 1014.09,-272.3 1020.09,-266.3 1026.09,-266.3 1026.09,-266.3 1309.89,-266.3 1309.89,-266.3 1315.89,-266.3 1321.89,-272.3 1321.89,-278.3 1321.89,-278.3 1321.89,-290.3 1321.89,-290.3 1321.89,-296.3 1315.89,-302.3 1309.89,-302.3"/>
<text text-anchor="start" x="1028.49" y="-280.62" font-family="Roboto, sans-serif" font-weight="bold" font-size="14.00">4: </text>
<text text-anchor="start" x="1047.99" y="-280.62" font-family="Roboto, sans-serif" font-size="14.00">Liegt bereits ein Entsperrauftrag vor?</text>
</g>
<!-- 3&#45;&gt;4 -->
<g id="edge7" class="edge">
<title>3-&gt;4</title>
<path fill="none" stroke="#7aab8a" d="M1109.43,-417.29C1120.72,-391.85 1142.29,-343.22 1155.87,-312.62"/>
<polygon fill="#7aab8a" stroke="#7aab8a" points="1159,-314.19 1159.86,-303.63 1152.6,-311.35 1159,-314.19"/>
<text text-anchor="start" x="1145.99" y="-338.01" font-family="Roboto, sans-serif" font-weight="bold" font-size="14.00">NEIN</text>
</g>
<!-- A04 -->
<g id="node9" class="node">
<title>A04</title>
<path fill="#cfb986" stroke="black" stroke-width="0" d="M966.73,-200.29C966.73,-200.29 645.25,-200.29 645.25,-200.29 639.25,-200.29 633.25,-194.29 633.25,-188.29 633.25,-188.29 633.25,-150.77 633.25,-150.77 633.25,-144.77 639.25,-138.77 645.25,-138.77 645.25,-138.77 966.73,-138.77 966.73,-138.77 972.73,-138.77 978.73,-144.77 978.73,-150.77 978.73,-150.77 978.73,-188.29 978.73,-188.29 978.73,-194.29 972.73,-200.29 966.73,-200.29"/>
<text text-anchor="start" x="645.49" y="-182.23" font-family="Roboto, sans-serif" font-weight="bold" font-size="14.00">A04</text>
<text text-anchor="start" x="645.49" y="-170.13" font-family="Roboto, sans-serif" text-decoration="underline" font-size="12.00">Hinweis:</text>
<text text-anchor="start" x="645.49" y="-158.13" font-family="Roboto, sans-serif" font-size="12.00">Cluster: Ablehnung</text>
<text text-anchor="start" x="645.49" y="-146.13" font-family="Roboto, sans-serif" font-size="12.00">Entsperrauftrag f&#252;r die Marktlokation liegt bereits vor.</text>
</g>
<!-- 4&#45;&gt;A04 -->
<g id="edge8" class="edge">
<title>4-&gt;A04</title>
<path fill="none" stroke="#7aab8a" d="M1113.79,-266.42C1060.73,-249.89 978.45,-224.26 912.31,-203.65"/>
<polygon fill="#7aab8a" stroke="#7aab8a" points="913.45,-200.34 902.86,-200.71 911.37,-207.02 913.45,-200.34"/>
<text text-anchor="start" x="1007.99" y="-223.24" font-family="Roboto, sans-serif" font-weight="bold" font-size="14.00">JA</text>
</g>
<!-- 5 -->
<g id="node10" class="node">
<title>5</title>
<path fill="#7aab8a" stroke="black" stroke-width="0" d="M1393.14,-187.53C1393.14,-187.53 1008.84,-187.53 1008.84,-187.53 1002.84,-187.53 996.84,-181.53 996.84,-175.53 996.84,-175.53 996.84,-163.53 996.84,-163.53 996.84,-157.53 1002.84,-151.53 1008.84,-151.53 1008.84,-151.53 1393.14,-151.53 1393.14,-151.53 1399.14,-151.53 1405.14,-157.53 1405.14,-163.53 1405.14,-163.53 1405.14,-175.53 1405.14,-175.53 1405.14,-181.53 1399.14,-187.53 1393.14,-187.53"/>
<text text-anchor="start" x="1011.24" y="-165.85" font-family="Roboto, sans-serif" font-weight="bold" font-size="14.00">5: </text>
<text text-anchor="start" x="1030.74" y="-165.85" font-family="Roboto, sans-serif" font-size="14.00">Ist ein zuvor nicht spezifizierter Fehler aufgetreten?</text>
</g>
<!-- 4&#45;&gt;5 -->
<g id="edge9" class="edge">
<title>4-&gt;5</title>
<path fill="none" stroke="#7aab8a" d="M1172.86,-266.66C1178.12,-248.67 1186.6,-219.7 1192.88,-198.26"/>
<polygon fill="#7aab8a" stroke="#7aab8a" points="1196.23,-199.27 1195.68,-188.69 1189.51,-197.3 1196.23,-199.27"/>
<text text-anchor="start" x="1185.99" y="-223.24" font-family="Roboto, sans-serif" font-weight="bold" font-size="14.00">NEIN</text>
</g>
<!-- A99 -->
<g id="node11" class="node">
<title>A99</title>
<path fill="#cfb986" stroke="black" stroke-width="0" d="M1164.23,-85.52C1164.23,-85.52 689.75,-85.52 689.75,-85.52 683.75,-85.52 677.75,-79.52 677.75,-73.52 677.75,-73.52 677.75,-12 677.75,-12 677.75,-6 683.75,0 689.75,0 689.75,0 1164.23,0 1164.23,0 1170.23,0 1176.23,-6 1176.23,-12 1176.23,-12 1176.23,-73.52 1176.23,-73.52 1176.23,-79.52 1170.23,-85.52 1164.23,-85.52"/>
<text text-anchor="start" x="689.99" y="-67.46" font-family="Roboto, sans-serif" font-weight="bold" font-size="14.00">A99</text>
<text text-anchor="start" x="689.99" y="-55.36" font-family="Roboto, sans-serif" text-decoration="underline" font-size="12.00">Hinweis:</text>
<text text-anchor="start" x="689.99" y="-43.36" font-family="Roboto, sans-serif" font-size="12.00">Cluster: Ablehnung</text>
<text text-anchor="start" x="689.99" y="-31.36" font-family="Roboto, sans-serif" font-size="12.00">Sonstiges</text>
<text text-anchor="start" x="689.99" y="-19.36" font-family="Roboto, sans-serif" font-size="12.00">Hinweis: Das identifizierte Problem ist in der Antwort zu beschreiben/benennen.</text>
<text text-anchor="start" x="689.99" y="-7.36" font-family="Roboto, sans-serif" font-size="12.00">Nutzungsm&#246;glichkeit Ende: 01.04.2026 00:00 Uhr</text>
</g>
<!-- 5&#45;&gt;A99 -->
<g id="edge10" class="edge">
<title>5-&gt;A99</title>
<path fill="none" stroke="#7aab8a" d="M1163.75,-151.57C1129.13,-135.81 1075.93,-111.58 1028.73,-90.09"/>
<polygon fill="#7aab8a" stroke="#7aab8a" points="1030.38,-86.99 1019.82,-86.03 1027.47,-93.36 1030.38,-86.99"/>
<text text-anchor="start" x="1087.99" y="-108.47" font-family="Roboto, sans-serif" font-weight="bold" font-size="14.00">JA</text>
</g>
<!-- A03 -->
<g id="node12" class="node">
<title>A03</title>
<path fill="#cfb986" stroke="black" stroke-width="0" d="M1331.48,-73.52C1331.48,-73.52 1206.5,-73.52 1206.5,-73.52 1200.5,-73.52 1194.5,-67.52 1194.5,-61.52 1194.5,-61.52 1194.5,-24 1194.5,-24 1194.5,-18 1200.5,-12 1206.5,-12 1206.5,-12 1331.48,-12 1331.48,-12 1337.48,-12 1343.48,-18 1343.48,-24 1343.48,-24 1343.48,-61.52 1343.48,-61.52 1343.48,-67.52 1337.48,-73.52 1331.48,-73.52"/>
<text text-anchor="start" x="1206.74" y="-55.46" font-family="Roboto, sans-serif" font-weight="bold" font-size="14.00">A03</text>
<text text-anchor="start" x="1206.74" y="-43.36" font-family="Roboto, sans-serif" text-decoration="underline" font-size="12.00">Hinweis:</text>
<text text-anchor="start" x="1206.74" y="-31.36" font-family="Roboto, sans-serif" font-size="12.00">Cluster: Zustimmung</text>
<text text-anchor="start" x="1206.74" y="-19.36" font-family="Roboto, sans-serif" font-size="12.00">Zustimmung</text>
</g>
<!-- 5&#45;&gt;A03 -->
<g id="edge11" class="edge">
<title>5-&gt;A03</title>
<path fill="none" stroke="#7aab8a" d="M1210.16,-151.7C1219.7,-134.2 1234.97,-106.19 1247.56,-83.09"/>
<polygon fill="#7aab8a" stroke="#7aab8a" points="1250.51,-84.99 1252.22,-74.53 1244.36,-81.64 1250.51,-84.99"/>
<text text-anchor="start" x="1234.99" y="-108.47" font-family="Roboto, sans-serif" font-weight="bold" font-size="14.00">NEIN</text>
</g>
</g>
</svg>
  </g>
</svg>
  </g>
</svg>
