<?xml version='1.0' encoding='ASCII' standalone='yes'?>
<svg xmlns="http://www.w3.org/2000/svg" xmlns:xlink="http://www.w3.org/1999/xlink" version="1.1" width="1785.3333333333333px" viewBox="0 0 1785.3333333333333 1450.6666666666667" height="1450.6666666666667px">
  <g>
    <svg version="1.1" width="1785.3333333333333px" viewBox="0 0 1785.3333333333333 1450.6666666666667" height="1450.6666666666667px">
  <rect fill="#e7e6e5" x="0" y="0" width="1785.3333333333333" height="1450.6666666666667" rx="20" ry="20"/><g>
    <g transform="translate(301.0839012484744, 145.06666666666663) scale(1 1) translate(0, 0) scale(2.042617103163429 2.042617103163429) "><!-- note that I manually added the width and height attribute to the root node
  https://chatgpt.com/share/678e3028-70cc-800b-a296-782714735772
  -->
  <defs>
    <style>.cls-1{fill:#fff;}</style>
  </defs>
  <path class="cls-1" d="M122.44,531.2h-56.1c-11,0-19.9-9.12-19.46-20.11C57.47,243.89,278.15,29.78,547.91,29.78v56.02c0,10.98-8.69,19.89-19.66,20.39-225.51,10.31-405.8,197-405.8,425Z"/>
  <path class="cls-1" d="M273.78,531.2h-55.93c-11.23,0-20.09-9.48-19.43-20.69,10.74-183.44,163.39-329.39,349.48-329.39v56.26c0,10.71-8.27,19.62-18.96,20.35-142.35,9.77-255.17,128.69-255.17,273.46Z"/>
  <path class="cls-1" d="M425.77,531.2h-55.45c-11.65,0-20.6-10.17-19.33-21.75,10.87-99.03,95.03-176.34,196.92-176.34v57.01c0,10.05-7.28,18.75-17.23,20.16-59.22,8.4-104.91,59.42-104.91,120.92Z"/>
</g>
    <svg width="1339pt" height="1088pt" viewBox="0.00 0.00 1338.68 1087.77">
<g id="graph0" class="graph" transform="scale(1 1) rotate(0) translate(4 1083.77)">
<title>D</title>
<text text-anchor="start" x="295.96" y="-1059.67" font-family="Roboto, sans-serif" font-weight="bold" font-size="18.00">GPKE</text>
<text text-anchor="start" x="295.96" y="-1031.57" font-family="Roboto, sans-serif" font-weight="bold" font-size="16.00">6.13.4: AD: Unterbrechung der Anschlussnutzung (Sperren) auf Anweisung des LF</text>
<!-- Start -->
<g id="node1" class="node">
<title>Start</title>
<path fill="#8ba2d7" stroke="black" stroke-width="0" d="M539.92,-989.77C539.92,-989.77 403.12,-989.77 403.12,-989.77 397.12,-989.77 391.12,-983.77 391.12,-977.77 391.12,-977.77 391.12,-956.49 391.12,-956.49 391.12,-950.49 397.12,-944.49 403.12,-944.49 403.12,-944.49 539.92,-944.49 539.92,-944.49 545.92,-944.49 551.92,-950.49 551.92,-956.49 551.92,-956.49 551.92,-977.77 551.92,-977.77 551.92,-983.77 545.92,-989.77 539.92,-989.77"/>
<text text-anchor="start" x="405.52" y="-968.83" font-family="Roboto, sans-serif" font-weight="bold" font-size="14.00">E_0472</text>
<text text-anchor="start" x="405.52" y="-954.83" font-family="Roboto, sans-serif" font-size="14.00">Pr&#252;fende Rolle: </text>
<text text-anchor="start" x="515.02" y="-954.83" font-family="Roboto, sans-serif" font-weight="bold" font-size="14.00">NB</text>
</g>
<!-- 1 -->
<g id="node2" class="node">
<title>1</title>
<path fill="#c2cee9" stroke="black" stroke-width="0" d="M743.55,-907.49C743.55,-907.49 199.5,-907.49 199.5,-907.49 193.5,-907.49 187.5,-901.49 187.5,-895.49 187.5,-895.49 187.5,-874.21 187.5,-874.21 187.5,-868.21 193.5,-862.21 199.5,-862.21 199.5,-862.21 743.55,-862.21 743.55,-862.21 749.55,-862.21 755.55,-868.21 755.55,-874.21 755.55,-874.21 755.55,-895.49 755.55,-895.49 755.55,-901.49 749.55,-907.49 743.55,-907.49"/>
<text text-anchor="start" x="201.9" y="-886.55" font-family="Roboto, sans-serif" font-weight="bold" font-size="14.00">1: </text>
<text text-anchor="start" x="221.4" y="-886.55" font-family="Roboto, sans-serif" font-size="14.00">War eine Sperrung aus rechtlichen Gr&#252;nden nicht m&#246;glich (z.&#160;B. wenn eine</text>
<text text-anchor="start" x="201.9" y="-872.55" font-family="Roboto, sans-serif" font-size="14.00">Einstweilige Verf&#252;gung vorlag)?</text>
</g>
<!-- Start&#45;&gt;1 -->
<g id="edge1" class="edge">
<title>Start-&gt;1</title>
<path fill="none" stroke="#88a0d6" d="M471.52,-944.62C471.52,-936.7 471.52,-927.54 471.52,-918.84"/>
<polygon fill="#88a0d6" stroke="#88a0d6" points="475.03,-918.94 471.53,-908.94 468.03,-918.94 475.03,-918.94"/>
</g>
<!-- A01 -->
<g id="node3" class="node">
<title>A01</title>
<path fill="#c4cac1" stroke="black" stroke-width="0" d="M601.05,-808.96C601.05,-808.96 12,-808.96 12,-808.96 6,-808.96 0,-802.96 0,-796.96 0,-796.96 0,-769.18 0,-769.18 0,-763.18 6,-757.18 12,-757.18 12,-757.18 601.05,-757.18 601.05,-757.18 607.05,-757.18 613.05,-763.18 613.05,-769.18 613.05,-769.18 613.05,-796.96 613.05,-796.96 613.05,-802.96 607.05,-808.96 601.05,-808.96"/>
<text text-anchor="start" x="14.4" y="-787.02" font-family="Roboto, sans-serif" font-size="14.00">Cluster: gescheitert</text>
<text text-anchor="start" x="14.4" y="-769.77" font-family="Roboto, sans-serif" font-size="14.00">Marktlokation wurde nicht gesperrt, da ein rechtlicher Grund vor Ort erkannt wurde.</text>
</g>
<!-- 1&#45;&gt;A01 -->
<g id="edge2" class="edge">
<title>1-&gt;A01</title>
<path fill="none" stroke="#88a0d6" d="M436.13,-862.44C413.04,-848.48 382.54,-830.04 356.94,-814.56"/>
<polygon fill="#88a0d6" stroke="#88a0d6" points="359.05,-811.74 348.68,-809.56 355.43,-817.73 359.05,-811.74"/>
<text text-anchor="start" x="403.52" y="-831.91" font-family="Roboto, sans-serif" font-weight="bold" font-size="14.00">JA</text>
</g>
<!-- 2 -->
<g id="node4" class="node">
<title>2</title>
<path fill="#c2cee9" stroke="black" stroke-width="0" d="M1214.42,-805.71C1214.42,-805.71 642.62,-805.71 642.62,-805.71 636.62,-805.71 630.62,-799.71 630.62,-793.71 630.62,-793.71 630.62,-772.43 630.62,-772.43 630.62,-766.43 636.62,-760.43 642.62,-760.43 642.62,-760.43 1214.42,-760.43 1214.42,-760.43 1220.42,-760.43 1226.42,-766.43 1226.42,-772.43 1226.42,-772.43 1226.42,-793.71 1226.42,-793.71 1226.42,-799.71 1220.42,-805.71 1214.42,-805.71"/>
<text text-anchor="start" x="645.02" y="-784.77" font-family="Roboto, sans-serif" font-weight="bold" font-size="14.00">2: </text>
<text text-anchor="start" x="664.52" y="-784.77" font-family="Roboto, sans-serif" font-size="14.00">Wurde der Anschlussnutzer angetroffen?</text>
<text text-anchor="start" x="645.02" y="-770.77" font-family="Roboto, sans-serif" font-size="14.00">Hinweis: Es gab keine Anzeichen daf&#252;r, dass der Anschlussnutzer anwesend war.</text>
</g>
<!-- 1&#45;&gt;2 -->
<g id="edge3" class="edge">
<title>1-&gt;2</title>
<path fill="none" stroke="#88a0d6" d="M570.41,-862.26C643.45,-846.31 742.9,-824.6 818.47,-808.1"/>
<polygon fill="#88a0d6" stroke="#88a0d6" points="818.93,-811.58 827.96,-806.03 817.44,-804.74 818.93,-811.58"/>
<text text-anchor="start" x="726.52" y="-831.91" font-family="Roboto, sans-serif" font-weight="bold" font-size="14.00">NEIN</text>
</g>
<!-- A08 -->
<g id="node5" class="node">
<title>A08</title>
<path fill="#c4cac1" stroke="black" stroke-width="0" d="M641.42,-701.8C641.42,-701.8 63.62,-701.8 63.62,-701.8 57.62,-701.8 51.62,-695.8 51.62,-689.8 51.62,-689.8 51.62,-644.77 51.62,-644.77 51.62,-638.77 57.62,-632.77 63.62,-632.77 63.62,-632.77 641.42,-632.77 641.42,-632.77 647.42,-632.77 653.42,-638.77 653.42,-644.77 653.42,-644.77 653.42,-689.8 653.42,-689.8 653.42,-695.8 647.42,-701.8 641.42,-701.8"/>
<text text-anchor="start" x="66.02" y="-679.87" font-family="Roboto, sans-serif" font-size="14.00">Cluster: gescheitert</text>
<text text-anchor="start" x="66.02" y="-662.62" font-family="Roboto, sans-serif" font-size="14.00">Der Anschlussnutzer wurde nicht angetroffen. Es gab keine Anzeichen daf&#252;r, dass</text>
<text text-anchor="start" x="66.02" y="-645.37" font-family="Roboto, sans-serif" font-size="14.00">dieser anwesend war.</text>
</g>
<!-- 2&#45;&gt;A08 -->
<g id="edge4" class="edge">
<title>2-&gt;A08</title>
<path fill="none" stroke="#88a0d6" d="M819.17,-760.47C738.51,-744.53 626.95,-722.5 533.14,-703.97"/>
<polygon fill="#88a0d6" stroke="#88a0d6" points="534.05,-700.58 523.56,-702.08 532.7,-707.45 534.05,-700.58"/>
<text text-anchor="start" x="708.52" y="-726.88" font-family="Roboto, sans-serif" font-weight="bold" font-size="14.00">NEIN</text>
</g>
<!-- 3 -->
<g id="node6" class="node">
<title>3</title>
<path fill="#c2cee9" stroke="black" stroke-width="0" d="M1269.55,-703.93C1269.55,-703.93 683.5,-703.93 683.5,-703.93 677.5,-703.93 671.5,-697.93 671.5,-691.93 671.5,-691.93 671.5,-642.65 671.5,-642.65 671.5,-636.65 677.5,-630.65 683.5,-630.65 683.5,-630.65 1269.55,-630.65 1269.55,-630.65 1275.55,-630.65 1281.55,-636.65 1281.55,-642.65 1281.55,-642.65 1281.55,-691.93 1281.55,-691.93 1281.55,-697.93 1275.55,-703.93 1269.55,-703.93"/>
<text text-anchor="start" x="685.9" y="-682.99" font-family="Roboto, sans-serif" font-weight="bold" font-size="14.00">3: </text>
<text text-anchor="start" x="705.4" y="-682.99" font-family="Roboto, sans-serif" font-size="14.00">War eine Sperrung aus dem Grund &#8222;aktive Zutrittsverweigerung&#8220; nicht m&#246;glich?</text>
<text text-anchor="start" x="685.9" y="-668.99" font-family="Roboto, sans-serif" font-size="14.00">Hinweis: Unter &#8222;aktive Zutrittsverweigerung&#8220; ist zu verstehen, dass der</text>
<text text-anchor="start" x="685.9" y="-654.99" font-family="Roboto, sans-serif" font-size="14.00">Anschlussnutzer angetroffen wurde und dieser den Zugang z.B. durch Drohungen,</text>
<text text-anchor="start" x="685.9" y="-640.99" font-family="Roboto, sans-serif" font-size="14.00">physische Angriffe, versperren des Zugangs zur Trennstelle unterbunden hat.</text>
</g>
<!-- 2&#45;&gt;3 -->
<g id="edge5" class="edge">
<title>2-&gt;3</title>
<path fill="none" stroke="#88a0d6" d="M937.55,-760.67C943.08,-747.57 950.37,-730.3 957.14,-714.24"/>
<polygon fill="#88a0d6" stroke="#88a0d6" points="960.25,-715.88 960.91,-705.3 953.8,-713.16 960.25,-715.88"/>
<text text-anchor="start" x="952.52" y="-726.88" font-family="Roboto, sans-serif" font-weight="bold" font-size="14.00">JA</text>
</g>
<!-- A02 -->
<g id="node7" class="node">
<title>A02</title>
<path fill="#c4cac1" stroke="black" stroke-width="0" d="M660.05,-559.65C660.05,-559.65 101,-559.65 101,-559.65 95,-559.65 89,-553.65 89,-547.65 89,-547.65 89,-519.87 89,-519.87 89,-513.87 95,-507.87 101,-507.87 101,-507.87 660.05,-507.87 660.05,-507.87 666.05,-507.87 672.05,-513.87 672.05,-519.87 672.05,-519.87 672.05,-547.65 672.05,-547.65 672.05,-553.65 666.05,-559.65 660.05,-559.65"/>
<text text-anchor="start" x="103.4" y="-537.71" font-family="Roboto, sans-serif" font-size="14.00">Cluster: gescheitert</text>
<text text-anchor="start" x="103.4" y="-520.46" font-family="Roboto, sans-serif" font-size="14.00">Marktlokation wurde nicht gesperrt, da eine aktive Zutrittsverweigerung vorlag.</text>
</g>
<!-- 3&#45;&gt;A02 -->
<g id="edge6" class="edge">
<title>3-&gt;A02</title>
<path fill="none" stroke="#88a0d6" d="M815.24,-630.7C717.28,-609.08 594.16,-581.91 503.98,-562"/>
<polygon fill="#88a0d6" stroke="#88a0d6" points="504.87,-558.62 494.35,-559.88 503.36,-565.45 504.87,-558.62"/>
<text text-anchor="start" x="731.52" y="-600.35" font-family="Roboto, sans-serif" font-weight="bold" font-size="14.00">JA</text>
</g>
<!-- 4 -->
<g id="node8" class="node">
<title>4</title>
<path fill="#c2cee9" stroke="black" stroke-width="0" d="M1298.8,-577.4C1298.8,-577.4 702.25,-577.4 702.25,-577.4 696.25,-577.4 690.25,-571.4 690.25,-565.4 690.25,-565.4 690.25,-502.12 690.25,-502.12 690.25,-496.12 696.25,-490.12 702.25,-490.12 702.25,-490.12 1298.8,-490.12 1298.8,-490.12 1304.8,-490.12 1310.8,-496.12 1310.8,-502.12 1310.8,-502.12 1310.8,-565.4 1310.8,-565.4 1310.8,-571.4 1304.8,-577.4 1298.8,-577.4"/>
<text text-anchor="start" x="704.65" y="-556.46" font-family="Roboto, sans-serif" font-weight="bold" font-size="14.00">4: </text>
<text text-anchor="start" x="724.15" y="-556.46" font-family="Roboto, sans-serif" font-size="14.00">War eine Sperrung aus dem Grund &#8222;passive Zutrittsverweigerung&#8220; nicht m&#246;glich?</text>
<text text-anchor="start" x="704.65" y="-542.46" font-family="Roboto, sans-serif" font-size="14.00">Hinweis: Unter &#8222;passiver Zutrittsverweigerung&#8220; ist zu verstehen, dass eine</text>
<text text-anchor="start" x="704.65" y="-528.46" font-family="Roboto, sans-serif" font-size="14.00">Anwesenheit des Anschlussnutzers festgestellt wurde, dieser jedoch seine</text>
<text text-anchor="start" x="704.65" y="-514.46" font-family="Roboto, sans-serif" font-size="14.00">Anwesenheit verleugnet. (z.B. Anschlussnutzer wurden in der Wohnung gesichtet,</text>
<text text-anchor="start" x="704.65" y="-500.46" font-family="Roboto, sans-serif" font-size="14.00">&#246;ffnet aber die T&#252;r nicht).</text>
</g>
<!-- 3&#45;&gt;4 -->
<g id="edge7" class="edge">
<title>3-&gt;4</title>
<path fill="none" stroke="#88a0d6" d="M983.02,-630.7C985.41,-617.61 988.17,-602.49 990.78,-588.17"/>
<polygon fill="#88a0d6" stroke="#88a0d6" points="994.21,-588.88 992.56,-578.41 987.32,-587.62 994.21,-588.88"/>
<text text-anchor="start" x="988.52" y="-600.35" font-family="Roboto, sans-serif" font-weight="bold" font-size="14.00">NEIN</text>
</g>
<!-- A03 -->
<g id="node9" class="node">
<title>A03</title>
<path fill="#c4cac1" stroke="black" stroke-width="0" d="M713.3,-436.87C713.3,-436.87 143.75,-436.87 143.75,-436.87 137.75,-436.87 131.75,-430.87 131.75,-424.87 131.75,-424.87 131.75,-397.09 131.75,-397.09 131.75,-391.09 137.75,-385.09 143.75,-385.09 143.75,-385.09 713.3,-385.09 713.3,-385.09 719.3,-385.09 725.3,-391.09 725.3,-397.09 725.3,-397.09 725.3,-424.87 725.3,-424.87 725.3,-430.87 719.3,-436.87 713.3,-436.87"/>
<text text-anchor="start" x="146.15" y="-414.93" font-family="Roboto, sans-serif" font-size="14.00">Cluster: gescheitert</text>
<text text-anchor="start" x="146.15" y="-397.68" font-family="Roboto, sans-serif" font-size="14.00">Marktlokation wurde nicht gesperrt, da eine passive Zutrittsverweigerung vorlag.</text>
</g>
<!-- 4&#45;&gt;A03 -->
<g id="edge8" class="edge">
<title>4-&gt;A03</title>
<path fill="none" stroke="#88a0d6" d="M798.86,-490.18C718.56,-473.22 628.53,-454.21 557.34,-439.18"/>
<polygon fill="#88a0d6" stroke="#88a0d6" points="558.07,-435.76 547.56,-437.11 556.62,-442.6 558.07,-435.76"/>
<text text-anchor="start" x="696.52" y="-459.82" font-family="Roboto, sans-serif" font-weight="bold" font-size="14.00">JA</text>
</g>
<!-- 5 -->
<g id="node10" class="node">
<title>5</title>
<path fill="#c2cee9" stroke="black" stroke-width="0" d="M1269.92,-428.98C1269.92,-428.98 755.12,-428.98 755.12,-428.98 749.12,-428.98 743.12,-422.98 743.12,-416.98 743.12,-416.98 743.12,-404.98 743.12,-404.98 743.12,-398.98 749.12,-392.98 755.12,-392.98 755.12,-392.98 1269.92,-392.98 1269.92,-392.98 1275.92,-392.98 1281.92,-398.98 1281.92,-404.98 1281.92,-404.98 1281.92,-416.98 1281.92,-416.98 1281.92,-422.98 1275.92,-428.98 1269.92,-428.98"/>
<text text-anchor="start" x="757.52" y="-407.3" font-family="Roboto, sans-serif" font-weight="bold" font-size="14.00">5: </text>
<text text-anchor="start" x="777.02" y="-407.3" font-family="Roboto, sans-serif" font-size="14.00">War eine Sperrung wegen eines Verhinderungsgrundes nicht m&#246;glich?</text>
</g>
<!-- 4&#45;&gt;5 -->
<g id="edge9" class="edge">
<title>4-&gt;5</title>
<path fill="none" stroke="#88a0d6" d="M1004.76,-490.18C1006.42,-473.46 1008.28,-454.74 1009.76,-439.81"/>
<polygon fill="#88a0d6" stroke="#88a0d6" points="1013.2,-440.56 1010.71,-430.26 1006.24,-439.87 1013.2,-440.56"/>
<text text-anchor="start" x="1007.53" y="-459.82" font-family="Roboto, sans-serif" font-weight="bold" font-size="14.00">NEIN</text>
</g>
<!-- A04 -->
<g id="node11" class="node">
<title>A04</title>
<path fill="#c4cac1" stroke="black" stroke-width="0" d="M736.42,-322.71C736.42,-322.71 236.62,-322.71 236.62,-322.71 230.62,-322.71 224.62,-316.71 224.62,-310.71 224.62,-310.71 224.62,-265.69 224.62,-265.69 224.62,-259.69 230.62,-253.69 236.62,-253.69 236.62,-253.69 736.42,-253.69 736.42,-253.69 742.42,-253.69 748.42,-259.69 748.42,-265.69 748.42,-265.69 748.42,-310.71 748.42,-310.71 748.42,-316.71 742.42,-322.71 736.42,-322.71"/>
<text text-anchor="start" x="239.02" y="-300.77" font-family="Roboto, sans-serif" font-size="14.00">Cluster: gescheitert</text>
<text text-anchor="start" x="239.02" y="-283.52" font-family="Roboto, sans-serif" font-size="14.00">Marktlokation wurde nicht gesperrt, da ein Verhinderungsgrund vorlag.</text>
<text text-anchor="start" x="239.02" y="-266.27" font-family="Roboto, sans-serif" font-size="14.00">Hinweis: Im Freitext muss der Verhinderungsgrund mitgeteilt werden.</text>
</g>
<!-- 5&#45;&gt;A04 -->
<g id="edge10" class="edge">
<title>5-&gt;A04</title>
<path fill="none" stroke="#88a0d6" d="M938.56,-393C862.33,-375.49 741.2,-347.68 643.5,-325.24"/>
<polygon fill="#88a0d6" stroke="#88a0d6" points="644.32,-321.84 633.79,-323.01 642.75,-328.66 644.32,-321.84"/>
<text text-anchor="start" x="811.52" y="-354.79" font-family="Roboto, sans-serif" font-weight="bold" font-size="14.00">JA</text>
</g>
<!-- 6 -->
<g id="node12" class="node">
<title>6</title>
<path fill="#c2cee9" stroke="black" stroke-width="0" d="M1259.05,-331.84C1259.05,-331.84 778,-331.84 778,-331.84 772,-331.84 766,-325.84 766,-319.84 766,-319.84 766,-256.56 766,-256.56 766,-250.56 772,-244.56 778,-244.56 778,-244.56 1259.05,-244.56 1259.05,-244.56 1265.05,-244.56 1271.05,-250.56 1271.05,-256.56 1271.05,-256.56 1271.05,-319.84 1271.05,-319.84 1271.05,-325.84 1265.05,-331.84 1259.05,-331.84"/>
<text text-anchor="start" x="780.4" y="-310.9" font-family="Roboto, sans-serif" font-weight="bold" font-size="14.00">6: </text>
<text text-anchor="start" x="799.9" y="-310.9" font-family="Roboto, sans-serif" font-size="14.00">War eine Sperrung aus einem tats&#228;chlichen Grund nicht m&#246;glich?</text>
<text text-anchor="start" x="780.4" y="-296.9" font-family="Roboto, sans-serif" font-size="14.00">Unter tats&#228;chliche Gr&#252;nde fallen z. B.</text>
<text text-anchor="start" x="780.4" y="-282.9" font-family="Roboto, sans-serif" font-size="14.00">Marktlokation vor Ort nicht identifizierbar</text>
<text text-anchor="start" x="780.4" y="-268.9" font-family="Roboto, sans-serif" font-size="14.00">Zugang zur Marktlokation nicht m&#246;glich</text>
<text text-anchor="start" x="780.4" y="-254.9" font-family="Roboto, sans-serif" font-size="14.00">Kundenwechsel an der Marktlokation festgestellt</text>
</g>
<!-- 5&#45;&gt;6 -->
<g id="edge11" class="edge">
<title>5-&gt;6</title>
<path fill="none" stroke="#88a0d6" d="M1013.36,-393.19C1014.01,-380.1 1014.95,-361.16 1015.85,-343.02"/>
<polygon fill="#88a0d6" stroke="#88a0d6" points="1019.34,-343.26 1016.34,-333.1 1012.35,-342.91 1019.34,-343.26"/>
<text text-anchor="start" x="1014.53" y="-354.79" font-family="Roboto, sans-serif" font-weight="bold" font-size="14.00">NEIN</text>
</g>
<!-- A05 -->
<g id="node13" class="node">
<title>A05</title>
<path fill="#c4cac1" stroke="black" stroke-width="0" d="M682.42,-191.31C682.42,-191.31 188.62,-191.31 188.62,-191.31 182.62,-191.31 176.62,-185.31 176.62,-179.31 176.62,-179.31 176.62,-134.28 176.62,-134.28 176.62,-128.28 182.62,-122.28 188.62,-122.28 188.62,-122.28 682.42,-122.28 682.42,-122.28 688.42,-122.28 694.42,-128.28 694.42,-134.28 694.42,-134.28 694.42,-179.31 694.42,-179.31 694.42,-185.31 688.42,-191.31 682.42,-191.31"/>
<text text-anchor="start" x="191.02" y="-169.37" font-family="Roboto, sans-serif" font-size="14.00">Cluster: gescheitert</text>
<text text-anchor="start" x="191.02" y="-152.12" font-family="Roboto, sans-serif" font-size="14.00">Marktlokation wurde nicht gesperrt, da ein tats&#228;chlicher Grund vorlag.</text>
<text text-anchor="start" x="191.02" y="-134.87" font-family="Roboto, sans-serif" font-size="14.00">Hinweis: Im Freitext muss der tats&#228;chliche Grund mitgeteilt werden.</text>
</g>
<!-- 6&#45;&gt;A05 -->
<g id="edge12" class="edge">
<title>6-&gt;A05</title>
<path fill="none" stroke="#88a0d6" d="M826.82,-244.65C752.48,-228.15 668.29,-209.46 597.1,-193.66"/>
<polygon fill="#88a0d6" stroke="#88a0d6" points="598.24,-190.33 587.72,-191.58 596.72,-197.16 598.24,-190.33"/>
<text text-anchor="start" x="743.52" y="-214.26" font-family="Roboto, sans-serif" font-weight="bold" font-size="14.00">JA</text>
</g>
<!-- 7 -->
<g id="node14" class="node">
<title>7</title>
<path fill="#c2cee9" stroke="black" stroke-width="0" d="M1318.67,-179.44C1318.67,-179.44 724.38,-179.44 724.38,-179.44 718.38,-179.44 712.38,-173.44 712.38,-167.44 712.38,-167.44 712.38,-146.16 712.38,-146.16 712.38,-140.16 718.38,-134.16 724.38,-134.16 724.38,-134.16 1318.67,-134.16 1318.67,-134.16 1324.67,-134.16 1330.67,-140.16 1330.67,-146.16 1330.67,-146.16 1330.67,-167.44 1330.67,-167.44 1330.67,-173.44 1324.67,-179.44 1318.67,-179.44"/>
<text text-anchor="start" x="726.77" y="-158.5" font-family="Roboto, sans-serif" font-weight="bold" font-size="14.00">7: </text>
<text text-anchor="start" x="746.27" y="-158.5" font-family="Roboto, sans-serif" font-size="14.00">War eine Sperrung aus einem technischen Grund nicht m&#246;glich (z. B. eine weitere</text>
<text text-anchor="start" x="726.77" y="-144.5" font-family="Roboto, sans-serif" font-size="14.00">Marktlokation w&#228;re von der Sperrung betroffen gewesen)?</text>
</g>
<!-- 6&#45;&gt;7 -->
<g id="edge13" class="edge">
<title>6-&gt;7</title>
<path fill="none" stroke="#88a0d6" d="M1019.51,-244.83C1019.92,-227.15 1020.39,-206.94 1020.77,-190.45"/>
<polygon fill="#88a0d6" stroke="#88a0d6" points="1024.26,-190.78 1020.99,-180.7 1017.26,-190.62 1024.26,-190.78"/>
<text text-anchor="start" x="1019.53" y="-214.26" font-family="Roboto, sans-serif" font-weight="bold" font-size="14.00">NEIN</text>
</g>
<!-- A06 -->
<g id="node15" class="node">
<title>A06</title>
<path fill="#c4cac1" stroke="black" stroke-width="0" d="M968.3,-69.03C968.3,-69.03 482.75,-69.03 482.75,-69.03 476.75,-69.03 470.75,-63.03 470.75,-57.03 470.75,-57.03 470.75,-12 470.75,-12 470.75,-6 476.75,0 482.75,0 482.75,0 968.3,0 968.3,0 974.3,0 980.3,-6 980.3,-12 980.3,-12 980.3,-57.03 980.3,-57.03 980.3,-63.03 974.3,-69.03 968.3,-69.03"/>
<text text-anchor="start" x="485.15" y="-47.09" font-family="Roboto, sans-serif" font-size="14.00">Cluster: gescheitert</text>
<text text-anchor="start" x="485.15" y="-29.84" font-family="Roboto, sans-serif" font-size="14.00">Marktlokation wurde nicht gesperrt, da ein technischer Grund vorlag.</text>
<text text-anchor="start" x="485.15" y="-12.59" font-family="Roboto, sans-serif" font-size="14.00">Hinweis: Im Freitext muss der technische Grund mitgeteilt werden.</text>
</g>
<!-- 7&#45;&gt;A06 -->
<g id="edge14" class="edge">
<title>7-&gt;A06</title>
<path fill="none" stroke="#88a0d6" d="M968.61,-134.29C926.92,-117.35 867.79,-93.32 818.28,-73.21"/>
<polygon fill="#88a0d6" stroke="#88a0d6" points="819.86,-70.07 809.28,-69.55 817.22,-76.55 819.86,-70.07"/>
<text text-anchor="start" x="890.52" y="-91.98" font-family="Roboto, sans-serif" font-weight="bold" font-size="14.00">JA</text>
</g>
<!-- A07 -->
<g id="node16" class="node">
<title>A07</title>
<path fill="#c4cac1" stroke="black" stroke-width="0" d="M1223.18,-60.41C1223.18,-60.41 1009.88,-60.41 1009.88,-60.41 1003.88,-60.41 997.88,-54.41 997.88,-48.41 997.88,-48.41 997.88,-20.62 997.88,-20.62 997.88,-14.62 1003.88,-8.62 1009.88,-8.62 1009.88,-8.62 1223.18,-8.62 1223.18,-8.62 1229.18,-8.62 1235.18,-14.62 1235.18,-20.62 1235.18,-20.62 1235.18,-48.41 1235.18,-48.41 1235.18,-54.41 1229.18,-60.41 1223.18,-60.41"/>
<text text-anchor="start" x="1012.28" y="-38.47" font-family="Roboto, sans-serif" font-size="14.00">Cluster: erfolgreich</text>
<text text-anchor="start" x="1012.28" y="-21.21" font-family="Roboto, sans-serif" font-size="14.00">Marktlokation wurde gesperrt.</text>
</g>
<!-- 7&#45;&gt;A07 -->
<g id="edge15" class="edge">
<title>7-&gt;A07</title>
<path fill="none" stroke="#88a0d6" d="M1038.51,-134.29C1052.83,-116.16 1073.56,-89.91 1090.06,-69.03"/>
<polygon fill="#88a0d6" stroke="#88a0d6" points="1092.68,-71.35 1096.13,-61.34 1087.18,-67.02 1092.68,-71.35"/>
<text text-anchor="start" x="1074.53" y="-91.98" font-family="Roboto, sans-serif" font-weight="bold" font-size="14.00">NEIN</text>
</g>
</g>
</svg>
  </g>
</svg>
  </g>
</svg>
