<?xml version='1.0' encoding='ASCII' standalone='yes'?>
<svg xmlns="http://www.w3.org/2000/svg" xmlns:xlink="http://www.w3.org/1999/xlink" version="1.1" width="1096.0px" viewBox="0 0 1096.0 452.0" height="452.0px">
  <g>
    <svg version="1.1" width="1096.0px" viewBox="0 0 1096.0 452.0" height="452.0px">
  <rect fill="#e7e6e5" x="0" y="0" width="1096.0" height="452.0" rx="20" ry="20"/><g>
    <g transform="translate(363.6741199662067, 45.19999999999999) scale(1 1) translate(0, 0) scale(0.6364404393128696 0.6364404393128696) "><!-- note that I manually added the width and height attribute to the root node
  https://chatgpt.com/share/678e3028-70cc-800b-a296-782714735772
  -->
  <defs>
    <style>.cls-1{fill:#fff;}</style>
  </defs>
  <path class="cls-1" d="M122.44,531.2h-56.1c-11,0-19.9-9.12-19.46-20.11C57.47,243.89,278.15,29.78,547.91,29.78v56.02c0,10.98-8.69,19.89-19.66,20.39-225.51,10.31-405.8,197-405.8,425Z"/>
  <path class="cls-1" d="M273.78,531.2h-55.93c-11.23,0-20.09-9.48-19.43-20.69,10.74-183.44,163.39-329.39,349.48-329.39v56.26c0,10.71-8.27,19.62-18.96,20.35-142.35,9.77-255.17,128.69-255.17,273.46Z"/>
  <path class="cls-1" d="M425.77,531.2h-55.45c-11.65,0-20.6-10.17-19.33-21.75,10.87-99.03,95.03-176.34,196.92-176.34v57.01c0,10.05-7.28,18.75-17.23,20.16-59.22,8.4-104.91,59.42-104.91,120.92Z"/>
</g>
    <svg width="822pt" height="339pt" viewBox="0.00 0.00 822.00 338.56">
<g id="graph0" class="graph" transform="scale(1 1) rotate(0) translate(4 334.56)">
<title>D</title>
<text text-anchor="start" x="8" y="-310.46" font-family="Roboto, sans-serif" font-weight="bold" font-size="18.00">GPKE</text>
<text text-anchor="start" x="8" y="-282.36" font-family="Roboto, sans-serif" font-weight="bold" font-size="16.00">6.14.2: AD: Wiederherstellung der Anschlussnutzung (Entsperren) auf Anweisung des LF</text>
<!-- Start -->
<g id="node1" class="node">
<title>Start</title>
<path fill="#8ba2d7" stroke="black" stroke-width="0" d="M424.71,-240.56C424.71,-240.56 287.91,-240.56 287.91,-240.56 281.91,-240.56 275.91,-234.56 275.91,-228.56 275.91,-228.56 275.91,-207.28 275.91,-207.28 275.91,-201.28 281.91,-195.28 287.91,-195.28 287.91,-195.28 424.71,-195.28 424.71,-195.28 430.71,-195.28 436.71,-201.28 436.71,-207.28 436.71,-207.28 436.71,-228.56 436.71,-228.56 436.71,-234.56 430.71,-240.56 424.71,-240.56"/>
<text text-anchor="start" x="290.31" y="-219.62" font-family="Roboto, sans-serif" font-weight="bold" font-size="14.00">E_0499</text>
<text text-anchor="start" x="290.31" y="-205.62" font-family="Roboto, sans-serif" font-size="14.00">Pr&#252;fende Rolle: </text>
<text text-anchor="start" x="399.81" y="-205.62" font-family="Roboto, sans-serif" font-weight="bold" font-size="14.00">NB</text>
</g>
<!-- 1 -->
<g id="node2" class="node">
<title>1</title>
<path fill="#c2cee9" stroke="black" stroke-width="0" d="M554.09,-158.28C554.09,-158.28 158.54,-158.28 158.54,-158.28 152.54,-158.28 146.54,-152.28 146.54,-146.28 146.54,-146.28 146.54,-134.28 146.54,-134.28 146.54,-128.28 152.54,-122.28 158.54,-122.28 158.54,-122.28 554.09,-122.28 554.09,-122.28 560.09,-122.28 566.09,-128.28 566.09,-134.28 566.09,-134.28 566.09,-146.28 566.09,-146.28 566.09,-152.28 560.09,-158.28 554.09,-158.28"/>
<text text-anchor="start" x="160.94" y="-136.6" font-family="Roboto, sans-serif" font-weight="bold" font-size="14.00">1: </text>
<text text-anchor="start" x="180.44" y="-136.6" font-family="Roboto, sans-serif" font-size="14.00">Ist die Entsperrung erfolgreich durchgef&#252;hrt worden?</text>
</g>
<!-- Start&#45;&gt;1 -->
<g id="edge1" class="edge">
<title>Start-&gt;1</title>
<path fill="none" stroke="#88a0d6" d="M356.31,-195.45C356.31,-187.37 356.31,-178.07 356.31,-169.47"/>
<polygon fill="#88a0d6" stroke="#88a0d6" points="359.81,-169.51 356.31,-159.51 352.81,-169.51 359.81,-169.51"/>
</g>
<!-- A01 -->
<g id="node3" class="node">
<title>A01</title>
<path fill="#c4cac1" stroke="black" stroke-width="0" d="M283.46,-60.41C283.46,-60.41 91.16,-60.41 91.16,-60.41 85.16,-60.41 79.16,-54.41 79.16,-48.41 79.16,-48.41 79.16,-20.62 79.16,-20.62 79.16,-14.62 85.16,-8.62 91.16,-8.62 91.16,-8.62 283.46,-8.62 283.46,-8.62 289.46,-8.62 295.46,-14.62 295.46,-20.62 295.46,-20.62 295.46,-48.41 295.46,-48.41 295.46,-54.41 289.46,-60.41 283.46,-60.41"/>
<text text-anchor="start" x="93.56" y="-38.47" font-family="Roboto, sans-serif" font-size="14.00">Cluster: erfolgreich</text>
<text text-anchor="start" x="93.56" y="-21.21" font-family="Roboto, sans-serif" font-size="14.00">Marktlokation ist entsperrt.</text>
</g>
<!-- 1&#45;&gt;A01 -->
<g id="edge2" class="edge">
<title>1-&gt;A01</title>
<path fill="none" stroke="#88a0d6" d="M328.78,-122.38C304.06,-107.19 267.14,-84.53 237.22,-66.16"/>
<polygon fill="#88a0d6" stroke="#88a0d6" points="239.42,-63.4 229.07,-61.15 235.76,-69.37 239.42,-63.4"/>
<text text-anchor="start" x="296.31" y="-91.98" font-family="Roboto, sans-serif" font-weight="bold" font-size="14.00">JA</text>
</g>
<!-- A02 -->
<g id="node4" class="node">
<title>A02</title>
<path fill="#c4cac1" stroke="black" stroke-width="0" d="M722.84,-69.03C722.84,-69.03 325.79,-69.03 325.79,-69.03 319.79,-69.03 313.79,-63.03 313.79,-57.03 313.79,-57.03 313.79,-12 313.79,-12 313.79,-6 319.79,0 325.79,0 325.79,0 722.84,0 722.84,0 728.84,0 734.84,-6 734.84,-12 734.84,-12 734.84,-57.03 734.84,-57.03 734.84,-63.03 728.84,-69.03 722.84,-69.03"/>
<text text-anchor="start" x="328.19" y="-47.09" font-family="Roboto, sans-serif" font-size="14.00">Cluster: gescheitert</text>
<text text-anchor="start" x="328.19" y="-29.84" font-family="Roboto, sans-serif" font-size="14.00">Marktlokation ist weiterhin gesperrt.</text>
<text text-anchor="start" x="328.19" y="-12.59" font-family="Roboto, sans-serif" font-size="14.00">Hinweis: Die Gr&#252;nde des Scheiterns sind zu &#252;bermitteln.</text>
</g>
<!-- 1&#45;&gt;A02 -->
<g id="edge3" class="edge">
<title>1-&gt;A02</title>
<path fill="none" stroke="#88a0d6" d="M383.68,-122.38C404.46,-109.54 433.91,-91.35 460.49,-74.94"/>
<polygon fill="#88a0d6" stroke="#88a0d6" points="462.17,-78.01 468.84,-69.78 458.49,-72.05 462.17,-78.01"/>
<text text-anchor="start" x="440.31" y="-91.98" font-family="Roboto, sans-serif" font-weight="bold" font-size="14.00">NEIN</text>
</g>
</g>
</svg>
  </g>
</svg>
  </g>
</svg>
