<?xml version='1.0' encoding='ASCII' standalone='yes'?>
<svg xmlns="http://www.w3.org/2000/svg" xmlns:xlink="http://www.w3.org/1999/xlink" version="1.1" width="1920.0px" viewBox="0 0 1920.0 776.0" height="776.0px">
  <g>
    <svg version="1.1" width="1920.0px" viewBox="0 0 1920.0 776.0" height="776.0px">
  <rect fill="#e7e6e5" x="0" y="0" width="1920.0" height="776.0" rx="20" ry="20"/><g>
    <g transform="translate(643.5467192340185, 77.59999999999998) scale(1 1) translate(0, 0) scale(1.0926499577583781 1.0926499577583781) "><!-- note that I manually added the width and height attribute to the root node
  https://chatgpt.com/share/678e3028-70cc-800b-a296-782714735772
  -->
  <defs>
    <style>.cls-1{fill:#fff;}</style>
  </defs>
  <path class="cls-1" d="M122.44,531.2h-56.1c-11,0-19.9-9.12-19.46-20.11C57.47,243.89,278.15,29.78,547.91,29.78v56.02c0,10.98-8.69,19.89-19.66,20.39-225.51,10.31-405.8,197-405.8,425Z"/>
  <path class="cls-1" d="M273.78,531.2h-55.93c-11.23,0-20.09-9.48-19.43-20.69,10.74-183.44,163.39-329.39,349.48-329.39v56.26c0,10.71-8.27,19.62-18.96,20.35-142.35,9.77-255.17,128.69-255.17,273.46Z"/>
  <path class="cls-1" d="M425.77,531.2h-55.45c-11.65,0-20.6-10.17-19.33-21.75,10.87-99.03,95.03-176.34,196.92-176.34v57.01c0,10.05-7.28,18.75-17.23,20.16-59.22,8.4-104.91,59.42-104.91,120.92Z"/>
</g>
    <svg width="1440pt" height="582pt" viewBox="0.00 0.00 1440.00 581.90">
<g id="graph0" class="graph" transform="scale(0.936098 0.936098) rotate(0) translate(4 617.62)">
<title>D</title>
<text text-anchor="start" x="574.28" y="-593.52" font-family="Roboto, sans-serif" font-weight="bold" font-size="18.00">GPKE</text>
<text text-anchor="start" x="574.28" y="-565.42" font-family="Roboto, sans-serif" font-weight="bold" font-size="16.00">6.26.2: AD: Gesch&#228;ftsdatenanfrage von LF</text>
<!-- Start -->
<g id="node1" class="node">
<title>Start</title>
<path fill="#8ba2d7" stroke="black" stroke-width="0" d="M595.92,-523.62C595.92,-523.62 447.12,-523.62 447.12,-523.62 441.12,-523.62 435.12,-517.62 435.12,-511.62 435.12,-511.62 435.12,-490.34 435.12,-490.34 435.12,-484.34 441.12,-478.34 447.12,-478.34 447.12,-478.34 595.92,-478.34 595.92,-478.34 601.92,-478.34 607.92,-484.34 607.92,-490.34 607.92,-490.34 607.92,-511.62 607.92,-511.62 607.92,-517.62 601.92,-523.62 595.92,-523.62"/>
<text text-anchor="start" x="449.52" y="-502.68" font-family="Roboto, sans-serif" font-weight="bold" font-size="14.00">E_0442</text>
<text text-anchor="start" x="449.52" y="-488.68" font-family="Roboto, sans-serif" font-size="14.00">Pr&#252;fende Rolle: </text>
<text text-anchor="start" x="559.02" y="-488.68" font-family="Roboto, sans-serif" font-weight="bold" font-size="14.00">MSB</text>
</g>
<!-- 1 -->
<g id="node2" class="node">
<title>1</title>
<path fill="#c2cee9" stroke="black" stroke-width="0" d="M808.17,-441.34C808.17,-441.34 234.88,-441.34 234.88,-441.34 228.88,-441.34 222.88,-435.34 222.88,-429.34 222.88,-429.34 222.88,-408.06 222.88,-408.06 222.88,-402.06 228.88,-396.06 234.88,-396.06 234.88,-396.06 808.17,-396.06 808.17,-396.06 814.17,-396.06 820.17,-402.06 820.17,-408.06 820.17,-408.06 820.17,-429.34 820.17,-429.34 820.17,-435.34 814.17,-441.34 808.17,-441.34"/>
<text text-anchor="start" x="237.27" y="-420.4" font-family="Roboto, sans-serif" font-weight="bold" font-size="14.00">1: </text>
<text text-anchor="start" x="256.77" y="-420.4" font-family="Roboto, sans-serif" font-size="14.00">Ist der LF im angefragten Zeitraum der genannten Marktlokation, Messlokation</text>
<text text-anchor="start" x="237.27" y="-406.4" font-family="Roboto, sans-serif" font-size="14.00">bzw. Tranche zugeordnet?</text>
</g>
<!-- Start&#45;&gt;1 -->
<g id="edge1" class="edge">
<title>Start-&gt;1</title>
<path fill="none" stroke="#88a0d6" d="M521.52,-478.47C521.52,-470.55 521.52,-461.39 521.52,-452.69"/>
<polygon fill="#88a0d6" stroke="#88a0d6" points="525.03,-452.79 521.53,-442.79 518.03,-452.79 525.03,-452.79"/>
</g>
<!-- A01 -->
<g id="node3" class="node">
<title>A01</title>
<path fill="#c4cac1" stroke="black" stroke-width="0" d="M625.05,-339.06C625.05,-339.06 12,-339.06 12,-339.06 6,-339.06 0,-333.06 0,-327.06 0,-327.06 0,-299.28 0,-299.28 0,-293.28 6,-287.28 12,-287.28 12,-287.28 625.05,-287.28 625.05,-287.28 631.05,-287.28 637.05,-293.28 637.05,-299.28 637.05,-299.28 637.05,-327.06 637.05,-327.06 637.05,-333.06 631.05,-339.06 625.05,-339.06"/>
<text text-anchor="start" x="14.4" y="-317.12" font-family="Roboto, sans-serif" font-size="14.00">Falscher Prozess</text>
<text text-anchor="start" x="14.4" y="-299.87" font-family="Roboto, sans-serif" font-size="14.00">Hinweis: WiM Gesch&#228;ftsprozess &#8222;Reklamation von Werten beim MSB&#8220; ist zu verwenden.</text>
</g>
<!-- 1&#45;&gt;A01 -->
<g id="edge2" class="edge">
<title>1-&gt;A01</title>
<path fill="none" stroke="#88a0d6" d="M479.46,-396.25C449.89,-381.17 409.92,-360.78 377.21,-344.1"/>
<polygon fill="#88a0d6" stroke="#88a0d6" points="379.16,-341.17 368.66,-339.74 375.98,-347.4 379.16,-341.17"/>
<text text-anchor="start" x="437.52" y="-365.76" font-family="Roboto, sans-serif" font-weight="bold" font-size="14.00">JA</text>
</g>
<!-- 2 -->
<g id="node4" class="node">
<title>2</title>
<path fill="#c2cee9" stroke="black" stroke-width="0" d="M1518.3,-342.81C1518.3,-342.81 666.75,-342.81 666.75,-342.81 660.75,-342.81 654.75,-336.81 654.75,-330.81 654.75,-330.81 654.75,-295.53 654.75,-295.53 654.75,-289.53 660.75,-283.53 666.75,-283.53 666.75,-283.53 1518.3,-283.53 1518.3,-283.53 1524.3,-283.53 1530.3,-289.53 1530.3,-295.53 1530.3,-295.53 1530.3,-330.81 1530.3,-330.81 1530.3,-336.81 1524.3,-342.81 1518.3,-342.81"/>
<text text-anchor="start" x="669.15" y="-321.87" font-family="Roboto, sans-serif" font-weight="bold" font-size="14.00">2: </text>
<text text-anchor="start" x="688.65" y="-321.87" font-family="Roboto, sans-serif" font-size="14.00">Ist der LF f&#252;r den angefragten Zeitraum berechtigt die angefragten Werte in der angefragten Granularit&#228;t zu erhalten?</text>
<text text-anchor="start" x="669.15" y="-307.87" font-family="Roboto, sans-serif" font-size="14.00">Auflistung, siehe WiM Strom Teil 2, Kapitel &#8222;Darstellung der zu &#252;bermittelnden</text>
<text text-anchor="start" x="669.15" y="-293.87" font-family="Roboto, sans-serif" font-size="14.00">Werte&#8220; in der jeweils g&#252;ltigen Fassung.</text>
</g>
<!-- 1&#45;&gt;2 -->
<g id="edge3" class="edge">
<title>1-&gt;2</title>
<path fill="none" stroke="#88a0d6" d="M640.53,-396.12C722.42,-381.27 832.4,-361.33 923.37,-344.84"/>
<polygon fill="#88a0d6" stroke="#88a0d6" points="923.95,-348.29 933.16,-343.06 922.7,-341.4 923.95,-348.29"/>
<text text-anchor="start" x="823.52" y="-365.76" font-family="Roboto, sans-serif" font-weight="bold" font-size="14.00">NEIN</text>
</g>
<!-- A02 -->
<g id="node5" class="node">
<title>A02</title>
<path fill="#c4cac1" stroke="black" stroke-width="0" d="M799.42,-230.28C799.42,-230.28 659.62,-230.28 659.62,-230.28 653.62,-230.28 647.62,-224.28 647.62,-218.28 647.62,-218.28 647.62,-206.28 647.62,-206.28 647.62,-200.28 653.62,-194.28 659.62,-194.28 659.62,-194.28 799.42,-194.28 799.42,-194.28 805.42,-194.28 811.42,-200.28 811.42,-206.28 811.42,-206.28 811.42,-218.28 811.42,-218.28 811.42,-224.28 805.42,-230.28 799.42,-230.28"/>
<text text-anchor="start" x="662.02" y="-207.6" font-family="Roboto, sans-serif" font-size="14.00">Keine Berechtigung</text>
</g>
<!-- 2&#45;&gt;A02 -->
<g id="edge4" class="edge">
<title>2-&gt;A02</title>
<path fill="none" stroke="#88a0d6" d="M987.53,-283.57C928.3,-267.43 855.76,-247.67 802.7,-233.21"/>
<polygon fill="#88a0d6" stroke="#88a0d6" points="803.71,-229.86 793.15,-230.61 801.87,-236.62 803.71,-229.86"/>
<text text-anchor="start" x="910.52" y="-253.23" font-family="Roboto, sans-serif" font-weight="bold" font-size="14.00">NEIN</text>
</g>
<!-- 3 -->
<g id="node6" class="node">
<title>3</title>
<path fill="#c2cee9" stroke="black" stroke-width="0" d="M1484.05,-230.28C1484.05,-230.28 841,-230.28 841,-230.28 835,-230.28 829,-224.28 829,-218.28 829,-218.28 829,-206.28 829,-206.28 829,-200.28 835,-194.28 841,-194.28 841,-194.28 1484.05,-194.28 1484.05,-194.28 1490.05,-194.28 1496.05,-200.28 1496.05,-206.28 1496.05,-206.28 1496.05,-218.28 1496.05,-218.28 1496.05,-224.28 1490.05,-230.28 1484.05,-230.28"/>
<text text-anchor="start" x="843.4" y="-208.6" font-family="Roboto, sans-serif" font-weight="bold" font-size="14.00">3: </text>
<text text-anchor="start" x="862.9" y="-208.6" font-family="Roboto, sans-serif" font-size="14.00">Mussten die angefragten Werte in Art und Umfang in der Vergangenheit erfasst werden?</text>
</g>
<!-- 2&#45;&gt;3 -->
<g id="edge5" class="edge">
<title>2-&gt;3</title>
<path fill="none" stroke="#88a0d6" d="M1112.77,-283.57C1122.65,-269.61 1134.45,-252.95 1144.07,-239.35"/>
<polygon fill="#88a0d6" stroke="#88a0d6" points="1146.85,-241.49 1149.77,-231.3 1141.13,-237.44 1146.85,-241.49"/>
<text text-anchor="start" x="1135.53" y="-253.23" font-family="Roboto, sans-serif" font-weight="bold" font-size="14.00">JA</text>
</g>
<!-- A03 -->
<g id="node7" class="node">
<title>A03</title>
<path fill="#c4cac1" stroke="black" stroke-width="0" d="M861.42,-141.03C861.42,-141.03 373.62,-141.03 373.62,-141.03 367.62,-141.03 361.62,-135.03 361.62,-129.03 361.62,-129.03 361.62,-101.25 361.62,-101.25 361.62,-95.25 367.62,-89.25 373.62,-89.25 373.62,-89.25 861.42,-89.25 861.42,-89.25 867.42,-89.25 873.42,-95.25 873.42,-101.25 873.42,-101.25 873.42,-129.03 873.42,-129.03 873.42,-135.03 867.42,-141.03 861.42,-141.03"/>
<text text-anchor="start" x="376.02" y="-119.09" font-family="Roboto, sans-serif" font-size="14.00">Es wurden Werte angefragt, die es auf der ge-nannten Marktlokation,</text>
<text text-anchor="start" x="376.02" y="-101.84" font-family="Roboto, sans-serif" font-size="14.00">Messlokation oder Tranche nicht geben kann.</text>
</g>
<!-- 3&#45;&gt;A03 -->
<g id="edge6" class="edge">
<title>3-&gt;A03</title>
<path fill="none" stroke="#88a0d6" d="M1065.4,-194.33C983.72,-180.07 865.47,-159.42 770.98,-142.93"/>
<polygon fill="#88a0d6" stroke="#88a0d6" points="771.82,-139.52 761.37,-141.25 770.62,-146.42 771.82,-139.52"/>
<text text-anchor="start" x="954.52" y="-163.98" font-family="Roboto, sans-serif" font-weight="bold" font-size="14.00">NEIN</text>
</g>
<!-- 4 -->
<g id="node8" class="node">
<title>4</title>
<path fill="#c2cee9" stroke="black" stroke-width="0" d="M1509.3,-137.78C1509.3,-137.78 903.75,-137.78 903.75,-137.78 897.75,-137.78 891.75,-131.78 891.75,-125.78 891.75,-125.78 891.75,-104.5 891.75,-104.5 891.75,-98.5 897.75,-92.5 903.75,-92.5 903.75,-92.5 1509.3,-92.5 1509.3,-92.5 1515.3,-92.5 1521.3,-98.5 1521.3,-104.5 1521.3,-104.5 1521.3,-125.78 1521.3,-125.78 1521.3,-131.78 1515.3,-137.78 1509.3,-137.78"/>
<text text-anchor="start" x="906.15" y="-116.84" font-family="Roboto, sans-serif" font-weight="bold" font-size="14.00">4: </text>
<text text-anchor="start" x="925.65" y="-116.84" font-family="Roboto, sans-serif" font-size="14.00">Wurden die angefragten Werte auf der genannten Marktlokation, Messlokation oder</text>
<text text-anchor="start" x="906.15" y="-102.84" font-family="Roboto, sans-serif" font-size="14.00">Tranche erfasst?</text>
</g>
<!-- 3&#45;&gt;4 -->
<g id="edge7" class="edge">
<title>3-&gt;4</title>
<path fill="none" stroke="#88a0d6" d="M1170.19,-194.71C1176.15,-181.82 1184.6,-163.55 1191.85,-147.87"/>
<polygon fill="#88a0d6" stroke="#88a0d6" points="1194.98,-149.45 1196,-138.9 1188.62,-146.51 1194.98,-149.45"/>
<text text-anchor="start" x="1185.53" y="-163.98" font-family="Roboto, sans-serif" font-weight="bold" font-size="14.00">JA</text>
</g>
<!-- A04 -->
<g id="node9" class="node">
<title>A04</title>
<path fill="#c4cac1" stroke="black" stroke-width="0" d="M1227.68,-36C1227.68,-36 909.38,-36 909.38,-36 903.38,-36 897.38,-30 897.38,-24 897.38,-24 897.38,-12 897.38,-12 897.38,-6 903.38,0 909.38,0 909.38,0 1227.68,0 1227.68,0 1233.68,0 1239.68,-6 1239.68,-12 1239.68,-12 1239.68,-24 1239.68,-24 1239.68,-30 1233.68,-36 1227.68,-36"/>
<text text-anchor="start" x="911.78" y="-13.32" font-family="Roboto, sans-serif" font-size="14.00">Die angefragten Werte sind nicht vorhanden.</text>
</g>
<!-- 4&#45;&gt;A04 -->
<g id="edge8" class="edge">
<title>4-&gt;A04</title>
<path fill="none" stroke="#88a0d6" d="M1175.21,-92.55C1153.46,-77.56 1124.5,-57.59 1102.24,-42.25"/>
<polygon fill="#88a0d6" stroke="#88a0d6" points="1104.31,-39.42 1094.09,-36.63 1100.34,-45.18 1104.31,-39.42"/>
<text text-anchor="start" x="1141.53" y="-58.95" font-family="Roboto, sans-serif" font-weight="bold" font-size="14.00">NEIN</text>
</g>
<!-- Werte versenden -->
<g id="node10" class="node">
<title>Werte versenden</title>
<path fill="#c4cac1" stroke="black" stroke-width="0" d="M1393.18,-36C1393.18,-36 1269.88,-36 1269.88,-36 1263.88,-36 1257.88,-30 1257.88,-24 1257.88,-24 1257.88,-12 1257.88,-12 1257.88,-6 1263.88,0 1269.88,0 1269.88,0 1393.18,0 1393.18,0 1399.18,0 1405.18,-6 1405.18,-12 1405.18,-12 1405.18,-24 1405.18,-24 1405.18,-30 1399.18,-36 1393.18,-36"/>
<text text-anchor="start" x="1272.28" y="-13.32" font-family="Roboto, sans-serif" font-size="14.00">Werte versenden</text>
</g>
<!-- 4&#45;&gt;Werte versenden -->
<g id="edge9" class="edge">
<title>4-&gt;Werte versenden</title>
<path fill="none" stroke="#88a0d6" d="M1234.89,-92.55C1254.42,-77.69 1280.35,-57.95 1300.44,-42.66"/>
<polygon fill="#88a0d6" stroke="#88a0d6" points="1302.45,-45.53 1308.29,-36.68 1298.21,-39.96 1302.45,-45.53"/>
<text text-anchor="start" x="1283.53" y="-58.95" font-family="Roboto, sans-serif" font-weight="bold" font-size="14.00">JA</text>
</g>
</g>
</svg>
  </g>
</svg>
  </g>
</svg>
