<?xml version='1.0' encoding='ASCII' standalone='yes'?>
<svg xmlns="http://www.w3.org/2000/svg" xmlns:xlink="http://www.w3.org/1999/xlink" version="1.1" width="1920.0px" viewBox="0 0 1920.0 738.6666666666666" height="738.6666666666666px">
  <g>
    <svg version="1.1" width="1920.0px" viewBox="0 0 1920.0 738.6666666666666" height="738.6666666666666px">
  <rect fill="#e7e6e5" x="0" y="0" width="1920.0" height="738.6666666666666" rx="20" ry="20"/><g>
    <g transform="translate(658.7712756969868, 73.86666666666665) scale(1 1) translate(0, 0) scale(1.040082605838731 1.040082605838731) "><!-- note that I manually added the width and height attribute to the root node
  https://chatgpt.com/share/678e3028-70cc-800b-a296-782714735772
  -->
  <defs>
    <style>.cls-1{fill:#fff;}</style>
  </defs>
  <path class="cls-1" d="M122.44,531.2h-56.1c-11,0-19.9-9.12-19.46-20.11C57.47,243.89,278.15,29.78,547.91,29.78v56.02c0,10.98-8.69,19.89-19.66,20.39-225.51,10.31-405.8,197-405.8,425Z"/>
  <path class="cls-1" d="M273.78,531.2h-55.93c-11.23,0-20.09-9.48-19.43-20.69,10.74-183.44,163.39-329.39,349.48-329.39v56.26c0,10.71-8.27,19.62-18.96,20.35-142.35,9.77-255.17,128.69-255.17,273.46Z"/>
  <path class="cls-1" d="M425.77,531.2h-55.45c-11.65,0-20.6-10.17-19.33-21.75,10.87-99.03,95.03-176.34,196.92-176.34v57.01c0,10.05-7.28,18.75-17.23,20.16-59.22,8.4-104.91,59.42-104.91,120.92Z"/>
</g>
    <svg width="1440pt" height="554pt" viewBox="0.00 0.00 1440.00 553.70">
<g id="graph0" class="graph" transform="scale(0.879027 0.879027) rotate(0) translate(4 625.9)">
<title>D</title>
<text text-anchor="start" x="318.59" y="-601.8" font-family="Roboto, sans-serif" font-weight="bold" font-size="18.00">GPKE</text>
<text text-anchor="start" x="318.59" y="-573.7" font-family="Roboto, sans-serif" font-weight="bold" font-size="16.00">6.15.1: AD: Stornieren der Unterbrechung und Wiederherstellung der Anschlussnutzung auf Anweisung des LF</text>
<!-- Start -->
<g id="node1" class="node">
<title>Start</title>
<path fill="#8ba2d7" stroke="black" stroke-width="0" d="M349.8,-531.9C349.8,-531.9 213,-531.9 213,-531.9 207,-531.9 201,-525.9 201,-519.9 201,-519.9 201,-498.62 201,-498.62 201,-492.62 207,-486.62 213,-486.62 213,-486.62 349.8,-486.62 349.8,-486.62 355.8,-486.62 361.8,-492.62 361.8,-498.62 361.8,-498.62 361.8,-519.9 361.8,-519.9 361.8,-525.9 355.8,-531.9 349.8,-531.9"/>
<text text-anchor="start" x="215.4" y="-510.96" font-family="Roboto, sans-serif" font-weight="bold" font-size="14.00">E_0468</text>
<text text-anchor="start" x="215.4" y="-496.96" font-family="Roboto, sans-serif" font-size="14.00">Pr&#252;fende Rolle: </text>
<text text-anchor="start" x="324.9" y="-496.96" font-family="Roboto, sans-serif" font-weight="bold" font-size="14.00">NB</text>
</g>
<!-- 1 -->
<g id="node2" class="node">
<title>1</title>
<path fill="#c2cee9" stroke="black" stroke-width="0" d="M530.92,-449.62C530.92,-449.62 31.88,-449.62 31.88,-449.62 25.88,-449.62 19.88,-443.62 19.88,-437.62 19.88,-437.62 19.88,-425.62 19.88,-425.62 19.88,-419.62 25.88,-413.62 31.88,-413.62 31.88,-413.62 530.92,-413.62 530.92,-413.62 536.92,-413.62 542.92,-419.62 542.92,-425.62 542.92,-425.62 542.92,-437.62 542.92,-437.62 542.92,-443.62 536.92,-449.62 530.92,-449.62"/>
<text text-anchor="start" x="34.27" y="-427.94" font-family="Roboto, sans-serif" font-weight="bold" font-size="14.00">1: </text>
<text text-anchor="start" x="53.77" y="-427.94" font-family="Roboto, sans-serif" font-size="14.00">Wurde der Sperr- / Entsperrauftrag bereits durch den NB abgelehnt?</text>
</g>
<!-- Start&#45;&gt;1 -->
<g id="edge1" class="edge">
<title>Start-&gt;1</title>
<path fill="none" stroke="#88a0d6" d="M281.4,-486.79C281.4,-478.71 281.4,-469.41 281.4,-460.81"/>
<polygon fill="#88a0d6" stroke="#88a0d6" points="284.9,-460.85 281.4,-450.85 277.9,-460.85 284.9,-460.85"/>
</g>
<!-- A06 -->
<g id="node3" class="node">
<title>A06</title>
<path fill="#c4cac1" stroke="black" stroke-width="0" d="M520.55,-360.37C520.55,-360.37 22.25,-360.37 22.25,-360.37 16.25,-360.37 10.25,-354.37 10.25,-348.37 10.25,-348.37 10.25,-320.59 10.25,-320.59 10.25,-314.59 16.25,-308.59 22.25,-308.59 22.25,-308.59 520.55,-308.59 520.55,-308.59 526.55,-308.59 532.55,-314.59 532.55,-320.59 532.55,-320.59 532.55,-348.37 532.55,-348.37 532.55,-354.37 526.55,-360.37 520.55,-360.37"/>
<text text-anchor="start" x="24.65" y="-338.43" font-family="Roboto, sans-serif" font-size="14.00">Cluster: Ablehnung</text>
<text text-anchor="start" x="24.65" y="-321.18" font-family="Roboto, sans-serif" font-size="14.00">Auftrag wurde bereits abgelehnt und kann nicht mehr storniert werden</text>
</g>
<!-- 1&#45;&gt;A06 -->
<g id="edge2" class="edge">
<title>1-&gt;A06</title>
<path fill="none" stroke="#88a0d6" d="M279.66,-414.05C278.42,-402.29 276.71,-386.04 275.17,-371.38"/>
<polygon fill="#88a0d6" stroke="#88a0d6" points="278.67,-371.16 274.14,-361.58 271.71,-371.89 278.67,-371.16"/>
<text text-anchor="start" x="277.4" y="-383.32" font-family="Roboto, sans-serif" font-weight="bold" font-size="14.00">JA</text>
</g>
<!-- 2 -->
<g id="node4" class="node">
<title>2</title>
<path fill="#c2cee9" stroke="black" stroke-width="0" d="M1010.42,-352.48C1010.42,-352.48 562.38,-352.48 562.38,-352.48 556.38,-352.48 550.38,-346.48 550.38,-340.48 550.38,-340.48 550.38,-328.48 550.38,-328.48 550.38,-322.48 556.38,-316.48 562.38,-316.48 562.38,-316.48 1010.42,-316.48 1010.42,-316.48 1016.42,-316.48 1022.42,-322.48 1022.42,-328.48 1022.42,-328.48 1022.42,-340.48 1022.42,-340.48 1022.42,-346.48 1016.42,-352.48 1010.42,-352.48"/>
<text text-anchor="start" x="564.77" y="-330.8" font-family="Roboto, sans-serif" font-weight="bold" font-size="14.00">2: </text>
<text text-anchor="start" x="584.27" y="-330.8" font-family="Roboto, sans-serif" font-size="14.00">Handelt es sich um eine Stornierung eines Entsperrauftrags?</text>
</g>
<!-- 1&#45;&gt;2 -->
<g id="edge3" class="edge">
<title>1-&gt;2</title>
<path fill="none" stroke="#88a0d6" d="M371.39,-413.67C459.45,-397.08 593.37,-371.85 685.11,-354.56"/>
<polygon fill="#88a0d6" stroke="#88a0d6" points="685.7,-358.01 694.88,-352.72 684.4,-351.13 685.7,-358.01"/>
<text text-anchor="start" x="548.4" y="-383.32" font-family="Roboto, sans-serif" font-weight="bold" font-size="14.00">NEIN</text>
</g>
<!-- 3 -->
<g id="node6" class="node">
<title>3</title>
<path fill="#c2cee9" stroke="black" stroke-width="0" d="M593.05,-250.7C593.05,-250.7 61.75,-250.7 61.75,-250.7 55.75,-250.7 49.75,-244.7 49.75,-238.7 49.75,-238.7 49.75,-226.7 49.75,-226.7 49.75,-220.7 55.75,-214.7 61.75,-214.7 61.75,-214.7 593.05,-214.7 593.05,-214.7 599.05,-214.7 605.05,-220.7 605.05,-226.7 605.05,-226.7 605.05,-238.7 605.05,-238.7 605.05,-244.7 599.05,-250.7 593.05,-250.7"/>
<text text-anchor="start" x="64.15" y="-229.02" font-family="Roboto, sans-serif" font-weight="bold" font-size="14.00">3: </text>
<text text-anchor="start" x="83.65" y="-229.02" font-family="Roboto, sans-serif" font-size="14.00">Ist die Stornierung vor der Durchf&#252;hrung der Entsperrung eingegangen?</text>
</g>
<!-- 2&#45;&gt;3 -->
<g id="edge4" class="edge">
<title>2-&gt;3</title>
<path fill="none" stroke="#88a0d6" d="M708.28,-316.5C627.46,-298.93 501.42,-271.53 416.71,-253.11"/>
<polygon fill="#88a0d6" stroke="#88a0d6" points="417.55,-249.71 407.03,-251.01 416.06,-256.56 417.55,-249.71"/>
<text text-anchor="start" x="583.4" y="-278.29" font-family="Roboto, sans-serif" font-weight="bold" font-size="14.00">JA</text>
</g>
<!-- 4 -->
<g id="node9" class="node">
<title>4</title>
<path fill="#c2cee9" stroke="black" stroke-width="0" d="M1233.8,-255.34C1233.8,-255.34 635,-255.34 635,-255.34 629,-255.34 623,-249.34 623,-243.34 623,-243.34 623,-222.06 623,-222.06 623,-216.06 629,-210.06 635,-210.06 635,-210.06 1233.8,-210.06 1233.8,-210.06 1239.8,-210.06 1245.8,-216.06 1245.8,-222.06 1245.8,-222.06 1245.8,-243.34 1245.8,-243.34 1245.8,-249.34 1239.8,-255.34 1233.8,-255.34"/>
<text text-anchor="start" x="637.4" y="-234.4" font-family="Roboto, sans-serif" font-weight="bold" font-size="14.00">4: </text>
<text text-anchor="start" x="656.9" y="-234.4" font-family="Roboto, sans-serif" font-size="14.00">Ist der Nachrichteneingang der Stornierung sp&#228;testens am Tag vor dem geplanten</text>
<text text-anchor="start" x="637.4" y="-220.4" font-family="Roboto, sans-serif" font-size="14.00">Ausf&#252;hrungstermin bzw. fixen Sperrtermin aus dem Sperrauftrag eingegangen?</text>
</g>
<!-- 2&#45;&gt;4 -->
<g id="edge5" class="edge">
<title>2-&gt;4</title>
<path fill="none" stroke="#88a0d6" d="M811.51,-316.55C833.84,-301.5 866.91,-279.2 893.13,-261.52"/>
<polygon fill="#88a0d6" stroke="#88a0d6" points="894.86,-264.58 901.19,-256.09 890.94,-258.78 894.86,-264.58"/>
<text text-anchor="start" x="873.4" y="-278.29" font-family="Roboto, sans-serif" font-weight="bold" font-size="14.00">NEIN</text>
</g>
<!-- Hinweis: Es handelt sich um eine Stornierung eines Sperrauftrags. -->
<g id="node5" class="node">
<title>Hinweis: Es handelt sich um eine Stornierung eines Sperrauftrags.</title>
<path fill="#c4cac1" stroke="black" stroke-width="0" d="M1247.42,-527.26C1247.42,-527.26 781.38,-527.26 781.38,-527.26 775.38,-527.26 769.38,-521.26 769.38,-515.26 769.38,-515.26 769.38,-503.26 769.38,-503.26 769.38,-497.26 775.38,-491.26 781.38,-491.26 781.38,-491.26 1247.42,-491.26 1247.42,-491.26 1253.42,-491.26 1259.42,-497.26 1259.42,-503.26 1259.42,-503.26 1259.42,-515.26 1259.42,-515.26 1259.42,-521.26 1253.42,-527.26 1247.42,-527.26"/>
<text text-anchor="start" x="783.77" y="-504.58" font-family="Roboto, sans-serif" font-size="14.00">Hinweis: Es handelt sich um eine Stornierung eines Sperrauftrags.</text>
</g>
<!-- A01 -->
<g id="node7" class="node">
<title>A01</title>
<path fill="#c4cac1" stroke="black" stroke-width="0" d="M214.8,-156.81C214.8,-156.81 12,-156.81 12,-156.81 6,-156.81 0,-150.81 0,-144.81 0,-144.81 0,-117.03 0,-117.03 0,-111.03 6,-105.03 12,-105.03 12,-105.03 214.8,-105.03 214.8,-105.03 220.8,-105.03 226.8,-111.03 226.8,-117.03 226.8,-117.03 226.8,-144.81 226.8,-144.81 226.8,-150.81 220.8,-156.81 214.8,-156.81"/>
<text text-anchor="start" x="14.4" y="-134.87" font-family="Roboto, sans-serif" font-size="14.00">Cluster: Zustimmung</text>
<text text-anchor="start" x="14.4" y="-117.62" font-family="Roboto, sans-serif" font-size="14.00">Entsperrauftrag ist storniert.</text>
</g>
<!-- 3&#45;&gt;A01 -->
<g id="edge6" class="edge">
<title>3-&gt;A01</title>
<path fill="none" stroke="#88a0d6" d="M291.1,-214.77C259.92,-200.24 214.26,-178.95 177.03,-161.59"/>
<polygon fill="#88a0d6" stroke="#88a0d6" points="178.68,-158.5 168.14,-157.44 175.72,-164.84 178.68,-158.5"/>
<text text-anchor="start" x="239.4" y="-179.76" font-family="Roboto, sans-serif" font-weight="bold" font-size="14.00">JA</text>
</g>
<!-- A02 -->
<g id="node8" class="node">
<title>A02</title>
<path fill="#c4cac1" stroke="black" stroke-width="0" d="M638.05,-156.81C638.05,-156.81 256.75,-156.81 256.75,-156.81 250.75,-156.81 244.75,-150.81 244.75,-144.81 244.75,-144.81 244.75,-117.03 244.75,-117.03 244.75,-111.03 250.75,-105.03 256.75,-105.03 256.75,-105.03 638.05,-105.03 638.05,-105.03 644.05,-105.03 650.05,-111.03 650.05,-117.03 650.05,-117.03 650.05,-144.81 650.05,-144.81 650.05,-150.81 644.05,-156.81 638.05,-156.81"/>
<text text-anchor="start" x="259.15" y="-134.87" font-family="Roboto, sans-serif" font-size="14.00">Cluster: Ablehnung</text>
<text text-anchor="start" x="259.15" y="-117.62" font-family="Roboto, sans-serif" font-size="14.00">Stornierung des Entsperrauftrags nicht mehr m&#246;glich.</text>
</g>
<!-- 3&#45;&gt;A02 -->
<g id="edge7" class="edge">
<title>3-&gt;A02</title>
<path fill="none" stroke="#88a0d6" d="M347.76,-214.77C364.42,-200.92 388.45,-180.93 408.75,-164.06"/>
<polygon fill="#88a0d6" stroke="#88a0d6" points="410.86,-166.86 416.31,-157.77 406.38,-161.47 410.86,-166.86"/>
<text text-anchor="start" x="394.4" y="-179.76" font-family="Roboto, sans-serif" font-weight="bold" font-size="14.00">NEIN</text>
</g>
<!-- A03 -->
<g id="node10" class="node">
<title>A03</title>
<path fill="#c4cac1" stroke="black" stroke-width="0" d="M1066.67,-156.81C1066.67,-156.81 680.12,-156.81 680.12,-156.81 674.12,-156.81 668.12,-150.81 668.12,-144.81 668.12,-144.81 668.12,-117.03 668.12,-117.03 668.12,-111.03 674.12,-105.03 680.12,-105.03 680.12,-105.03 1066.67,-105.03 1066.67,-105.03 1072.67,-105.03 1078.67,-111.03 1078.67,-117.03 1078.67,-117.03 1078.67,-144.81 1078.67,-144.81 1078.67,-150.81 1072.67,-156.81 1066.67,-156.81"/>
<text text-anchor="start" x="682.52" y="-134.87" font-family="Roboto, sans-serif" font-size="14.00">Cluster: Zustimmung</text>
<text text-anchor="start" x="682.52" y="-117.62" font-family="Roboto, sans-serif" font-size="14.00">Sperrauftrag ist bis zum Vortag der Sperrung storniert.</text>
</g>
<!-- 4&#45;&gt;A03 -->
<g id="edge8" class="edge">
<title>4-&gt;A03</title>
<path fill="none" stroke="#88a0d6" d="M921.46,-210.54C913.62,-197.71 903.43,-181.04 894.45,-166.35"/>
<polygon fill="#88a0d6" stroke="#88a0d6" points="897.46,-164.57 889.26,-157.86 891.49,-168.22 897.46,-164.57"/>
<text text-anchor="start" x="908.4" y="-179.76" font-family="Roboto, sans-serif" font-weight="bold" font-size="14.00">JA</text>
</g>
<!-- 5 -->
<g id="node11" class="node">
<title>5</title>
<path fill="#c2cee9" stroke="black" stroke-width="0" d="M1618.18,-148.92C1618.18,-148.92 1108.62,-148.92 1108.62,-148.92 1102.62,-148.92 1096.62,-142.92 1096.62,-136.92 1096.62,-136.92 1096.62,-124.92 1096.62,-124.92 1096.62,-118.92 1102.62,-112.92 1108.62,-112.92 1108.62,-112.92 1618.18,-112.92 1618.18,-112.92 1624.18,-112.92 1630.18,-118.92 1630.18,-124.92 1630.18,-124.92 1630.18,-136.92 1630.18,-136.92 1630.18,-142.92 1624.18,-148.92 1618.18,-148.92"/>
<text text-anchor="start" x="1111.03" y="-127.25" font-family="Roboto, sans-serif" font-weight="bold" font-size="14.00">5: </text>
<text text-anchor="start" x="1130.53" y="-127.25" font-family="Roboto, sans-serif" font-size="14.00">Ist die Stornierung vor der Durchf&#252;hrung der Sperrung eingegangen?</text>
</g>
<!-- 4&#45;&gt;5 -->
<g id="edge9" class="edge">
<title>4-&gt;5</title>
<path fill="none" stroke="#88a0d6" d="M1027.22,-210.11C1102.33,-192.64 1207.18,-168.26 1279.72,-151.38"/>
<polygon fill="#88a0d6" stroke="#88a0d6" points="1280.21,-154.86 1289.16,-149.19 1278.62,-148.04 1280.21,-154.86"/>
<text text-anchor="start" x="1174.4" y="-179.76" font-family="Roboto, sans-serif" font-weight="bold" font-size="14.00">NEIN</text>
</g>
<!-- A04 -->
<g id="node12" class="node">
<title>A04</title>
<path fill="#c4cac1" stroke="black" stroke-width="0" d="M1178.3,-51.78C1178.3,-51.78 846.5,-51.78 846.5,-51.78 840.5,-51.78 834.5,-45.78 834.5,-39.78 834.5,-39.78 834.5,-12 834.5,-12 834.5,-6 840.5,0 846.5,0 846.5,0 1178.3,0 1178.3,0 1184.3,0 1190.3,-6 1190.3,-12 1190.3,-12 1190.3,-39.78 1190.3,-39.78 1190.3,-45.78 1184.3,-51.78 1178.3,-51.78"/>
<text text-anchor="start" x="848.9" y="-29.84" font-family="Roboto, sans-serif" font-size="14.00">Cluster: Zustimmung</text>
<text text-anchor="start" x="848.9" y="-12.59" font-family="Roboto, sans-serif" font-size="14.00">Sperrauftrag ist am Tag der Sperrung storniert.</text>
</g>
<!-- 5&#45;&gt;A04 -->
<g id="edge10" class="edge">
<title>5-&gt;A04</title>
<path fill="none" stroke="#88a0d6" d="M1305.83,-113.02C1252.15,-97.26 1171.06,-73.46 1107.72,-54.87"/>
<polygon fill="#88a0d6" stroke="#88a0d6" points="1108.95,-51.58 1098.37,-52.12 1106.98,-58.3 1108.95,-51.58"/>
<text text-anchor="start" x="1208.4" y="-74.73" font-family="Roboto, sans-serif" font-weight="bold" font-size="14.00">JA</text>
</g>
<!-- A05 -->
<g id="node13" class="node">
<title>A05</title>
<path fill="#c4cac1" stroke="black" stroke-width="0" d="M1580.18,-51.78C1580.18,-51.78 1220.62,-51.78 1220.62,-51.78 1214.62,-51.78 1208.62,-45.78 1208.62,-39.78 1208.62,-39.78 1208.62,-12 1208.62,-12 1208.62,-6 1214.62,0 1220.62,0 1220.62,0 1580.18,0 1580.18,0 1586.18,0 1592.18,-6 1592.18,-12 1592.18,-12 1592.18,-39.78 1592.18,-39.78 1592.18,-45.78 1586.18,-51.78 1580.18,-51.78"/>
<text text-anchor="start" x="1223.03" y="-29.84" font-family="Roboto, sans-serif" font-size="14.00">Cluster: Ablehnung</text>
<text text-anchor="start" x="1223.03" y="-12.59" font-family="Roboto, sans-serif" font-size="14.00">Stornierung des Sperrauftrags nicht mehr m&#246;glich.</text>
</g>
<!-- 5&#45;&gt;A05 -->
<g id="edge11" class="edge">
<title>5-&gt;A05</title>
<path fill="none" stroke="#88a0d6" d="M1369.34,-113.37C1374.32,-99.52 1381.58,-79.28 1387.84,-61.87"/>
<polygon fill="#88a0d6" stroke="#88a0d6" points="1390.97,-63.5 1391.06,-52.9 1384.39,-61.13 1390.97,-63.5"/>
<text text-anchor="start" x="1383.4" y="-74.73" font-family="Roboto, sans-serif" font-weight="bold" font-size="14.00">NEIN</text>
</g>
</g>
</svg>
  </g>
</svg>
  </g>
</svg>
