<?xml version='1.0' encoding='ASCII' standalone='yes'?>
<svg xmlns="http://www.w3.org/2000/svg" xmlns:xlink="http://www.w3.org/1999/xlink" version="1.1" width="1638.6666666666667px" viewBox="0 0 1638.6666666666667 972.0" height="972.0px">
  <g>
    <svg version="1.1" width="1638.6666666666667px" viewBox="0 0 1638.6666666666667 972.0" height="972.0px">
  <polygon fill="#f3f1f6" points="0,0 1638.6666666666667,0 1638.6666666666667,972.0 0,972.0"/><g>
    <g transform="translate(430.8217317721716, 97.19999999999997) scale(1 1) translate(0, 0) scale(4.395982605567182 4.395982605567182) "><sodipodi:namedview xmlns:sodipodi="http://sodipodi.sourceforge.net/DTD/sodipodi-0.dtd" xmlns:inkscape="http://www.inkscape.org/namespaces/inkscape" id="namedview7" pagecolor="#ffffff" bordercolor="#999999" borderopacity="1" inkscape:pageshadow="0" inkscape:pageopacity="0" inkscape:pagecheckerboard="0" inkscape:document-units="mm" showgrid="false" fit-margin-top="0" fit-margin-left="0" fit-margin-right="0" fit-margin-bottom="0" inkscape:zoom="0.64052329" inkscape:cx="130.36216" inkscape:cy="412.163" inkscape:window-width="1512" inkscape:window-height="916" inkscape:window-x="3840" inkscape:window-y="136" inkscape:window-maximized="0" inkscape:current-layer="layer1"/>
  <defs id="defs2">
    <clipPath clipPathUnits="userSpaceOnUse" id="clipPath23">
      <path d="M 0,568.156 H 579.236 V 0 H 0 Z" id="path21"/>
    </clipPath>
  </defs>
  <g xmlns:inkscape="http://www.inkscape.org/namespaces/inkscape" inkscape:label="Layer 1" inkscape:groupmode="layer" id="layer1" transform="translate(-16.541937,-55.305267)">
    <g id="g19" clip-path="url(#clipPath23)" transform="matrix(0.35277777,0,0,-0.35277777,0.01017023,243.73675)" style="opacity:0.2">
      <g id="g25" transform="translate(122.444,32.7195)">
        <path d="m 0,0 h -56.104 c -11,0 -19.898,9.123 -19.463,20.115 10.594,267.191 231.277,481.302 501.029,481.302 v -56.02 c 0,-10.98 -8.688,-19.892 -19.658,-20.393 C 180.29,414.697 0,228.005 0,0" style="fill:#6ead83;fill-opacity:0.5;fill-rule:nonzero;stroke:none" id="path27"/>
      </g>
      <g id="g29" transform="translate(273.7828,32.7195)">
        <path d="m 0,0 h -55.926 c -11.228,0 -20.091,9.482 -19.435,20.69 10.744,183.439 163.389,329.388 349.485,329.388 v -56.263 c 0,-10.709 -8.273,-19.617 -18.957,-20.35 C 112.819,263.696 0,144.774 0,0" style="fill:#6ead83;fill-opacity:0.5;fill-rule:nonzero;stroke:none" id="path31"/>
      </g>
      <g id="g33" transform="translate(425.7667,32.7195)">
        <path d="m 0,0 h -55.445 c -11.653,0 -20.604,10.17 -19.334,21.753 10.866,99.032 95.031,176.341 196.919,176.341 v -57.011 c 0,-10.046 -7.283,-18.755 -17.229,-20.165 C 45.688,112.522 0,61.497 0,0" style="fill:#6ead83;fill-opacity:0.5;fill-rule:nonzero;stroke:none" id="path35"/>
      </g>
    </g>
  </g>
</g>
    <svg width="1229pt" height="729pt" viewBox="0.00 0.00 1229.27 729.36">
<g id="graph0" class="graph" transform="scale(1 1) rotate(0) translate(4 725.36)">
<title>D</title>
<text text-anchor="start" x="581.76" y="-701.26" font-family="Times,serif" font-weight="bold" font-size="18.00">GPKE</text>
<text text-anchor="start" x="237.51" y="-671.16" font-family="Times,serif" font-weight="bold" font-size="16.00">6.13.2: AD: Unterbrechung der Anschlussnutzung (Sperren) auf Anweisung des LF</text>
<!-- Start -->
<g id="node1" class="node">
<title>Start</title>
<polygon fill="#7a8da1" stroke="black" points="610.64,-623.36 439.34,-623.36 439.34,-580.08 610.64,-580.08 610.64,-623.36"/>
<text text-anchor="start" x="496.87" y="-602.42" font-family="Times,serif" font-weight="bold" font-size="14.00">E_0488</text>
<text text-anchor="start" x="453.74" y="-590.32" font-family="Times,serif" font-weight="bold" text-decoration="underline" font-size="12.00">Pr&#252;fende Rolle:</text>
<text text-anchor="start" x="558.74" y="-590.32" font-family="Times,serif" font-weight="bold" font-size="12.00"> MSB</text>
</g>
<!-- 1 -->
<g id="node2" class="node">
<title>1</title>
<path fill="#7aab8a" stroke="black" d="M910.26,-543.08C910.26,-543.08 139.72,-543.08 139.72,-543.08 133.72,-543.08 127.72,-537.08 127.72,-531.08 127.72,-531.08 127.72,-519.08 127.72,-519.08 127.72,-513.08 133.72,-507.08 139.72,-507.08 139.72,-507.08 910.26,-507.08 910.26,-507.08 916.26,-507.08 922.26,-513.08 922.26,-519.08 922.26,-519.08 922.26,-531.08 922.26,-531.08 922.26,-537.08 916.26,-543.08 910.26,-543.08"/>
<text text-anchor="start" x="142.12" y="-521.4" font-family="Times,serif" font-weight="bold" font-size="14.00">1: </text>
<text text-anchor="start" x="161.62" y="-521.4" font-family="Times,serif" font-size="14.00">Hat der MSB die generelle Zustimmung zur Durchf&#252;hrung einer Entsperrung/Sperrung dem NB erteilt?</text>
</g>
<!-- Start&#45;&gt;1 -->
<g id="edge1" class="edge">
<title>Start-&gt;1</title>
<path fill="none" stroke="black" d="M524.99,-579.93C524.99,-572.07 524.99,-562.99 524.99,-554.55"/>
<polygon fill="black" stroke="black" points="528.49,-554.75 524.99,-544.75 521.49,-554.75 528.49,-554.75"/>
</g>
<!-- A01 -->
<g id="node3" class="node">
<title>A01</title>
<polygon fill="#cfb986" stroke="black" points="457.98,-453.83 0,-453.83 0,-392.31 457.98,-392.31 457.98,-453.83"/>
<text text-anchor="start" x="213.99" y="-435.77" font-family="Times,serif" font-weight="bold" font-size="14.00">A01</text>
<text text-anchor="start" x="12.24" y="-423.67" font-family="Times,serif" text-decoration="underline" font-size="12.00">Hinweis:</text>
<text text-anchor="start" x="12.24" y="-411.67" font-family="Times,serif" font-size="12.00">Cluster: Zustimmung</text>
<text text-anchor="start" x="12.24" y="-399.67" font-family="Times,serif" font-size="12.00">Generelle Zustimmung des MSB f&#252;r die Sperrung/Entsperrung liegt vor.</text>
</g>
<!-- 1&#45;&gt;A01 -->
<g id="edge2" class="edge">
<title>1-&gt;A01</title>
<path fill="none" stroke="black" d="M473.43,-506.66C433.78,-493.26 377.77,-474.34 329.36,-457.98"/>
<polygon fill="black" stroke="black" points="330.55,-454.69 319.96,-454.8 328.31,-461.32 330.55,-454.69"/>
<text text-anchor="middle" x="426.74" y="-475.78" font-family="Times,serif" font-size="14.00">Ja</text>
</g>
<!-- 2 -->
<g id="node4" class="node">
<title>2</title>
<path fill="#7aab8a" stroke="black" d="M1031.64,-441.07C1031.64,-441.07 488.34,-441.07 488.34,-441.07 482.34,-441.07 476.34,-435.07 476.34,-429.07 476.34,-429.07 476.34,-417.07 476.34,-417.07 476.34,-411.07 482.34,-405.07 488.34,-405.07 488.34,-405.07 1031.64,-405.07 1031.64,-405.07 1037.64,-405.07 1043.64,-411.07 1043.64,-417.07 1043.64,-417.07 1043.64,-429.07 1043.64,-429.07 1043.64,-435.07 1037.64,-441.07 1031.64,-441.07"/>
<text text-anchor="start" x="490.74" y="-419.39" font-family="Times,serif" font-weight="bold" font-size="14.00">2: </text>
<text text-anchor="start" x="510.24" y="-419.39" font-family="Times,serif" font-size="14.00">Liegt ein Verhinderungsgrund einer Sperrung an der Marktlokation vor?</text>
</g>
<!-- 1&#45;&gt;2 -->
<g id="edge3" class="edge">
<title>1-&gt;2</title>
<path fill="none" stroke="black" d="M565.92,-506.66C605.57,-489.79 665.8,-464.15 708.64,-445.92"/>
<polygon fill="black" stroke="black" points="709.91,-449.19 717.74,-442.05 707.17,-442.75 709.91,-449.19"/>
<text text-anchor="middle" x="658.87" y="-475.78" font-family="Times,serif" font-size="14.00">Nein</text>
</g>
<!-- A02 -->
<g id="node5" class="node">
<title>A02</title>
<polygon fill="#cfb986" stroke="black" points="552.61,-339.06 257.38,-339.06 257.38,-253.54 552.61,-253.54 552.61,-339.06"/>
<text text-anchor="start" x="389.99" y="-321" font-family="Times,serif" font-weight="bold" font-size="14.00">A02</text>
<text text-anchor="start" x="269.62" y="-308.9" font-family="Times,serif" text-decoration="underline" font-size="12.00">Hinweis:</text>
<text text-anchor="start" x="269.62" y="-296.9" font-family="Times,serif" font-size="12.00">Cluster: Ablehnung</text>
<text text-anchor="start" x="269.62" y="-284.9" font-family="Times,serif" font-size="12.00">Verhinderungsgrund liegt vor.</text>
<text text-anchor="start" x="269.62" y="-272.9" font-family="Times,serif" font-size="12.00">Hinweis: Das identifizierte Problem ist in der</text>
<text text-anchor="start" x="269.62" y="-260.9" font-family="Times,serif" font-size="12.00"> Antwort zu beschreiben/benennen.</text>
</g>
<!-- 2&#45;&gt;A02 -->
<g id="edge4" class="edge">
<title>2-&gt;A02</title>
<path fill="none" stroke="black" d="M710.25,-404.59C665.16,-388.74 596.66,-364.67 535.97,-343.34"/>
<polygon fill="black" stroke="black" points="537.16,-340.04 526.56,-340.03 534.83,-346.65 537.16,-340.04"/>
<text text-anchor="middle" x="620.74" y="-361.01" font-family="Times,serif" font-size="14.00">Ja</text>
</g>
<!-- 3 -->
<g id="node6" class="node">
<title>3</title>
<path fill="#7aab8a" stroke="black" d="M1145.01,-314.3C1145.01,-314.3 582.97,-314.3 582.97,-314.3 576.97,-314.3 570.97,-308.3 570.97,-302.3 570.97,-302.3 570.97,-290.3 570.97,-290.3 570.97,-284.3 576.97,-278.3 582.97,-278.3 582.97,-278.3 1145.01,-278.3 1145.01,-278.3 1151.01,-278.3 1157.01,-284.3 1157.01,-290.3 1157.01,-290.3 1157.01,-302.3 1157.01,-302.3 1157.01,-308.3 1151.01,-314.3 1145.01,-314.3"/>
<text text-anchor="start" x="585.37" y="-292.62" font-family="Times,serif" font-weight="bold" font-size="14.00">3: </text>
<text text-anchor="start" x="604.87" y="-292.62" font-family="Times,serif" font-size="14.00">Liegen dem MSB technische Gr&#252;nde f&#252;r eine Ablehnung der Sperrung vor?</text>
</g>
<!-- 2&#45;&gt;3 -->
<g id="edge5" class="edge">
<title>2-&gt;3</title>
<path fill="none" stroke="black" d="M774.45,-404.72C792.07,-383.58 822,-347.68 842.36,-323.25"/>
<polygon fill="black" stroke="black" points="844.97,-325.59 848.68,-315.66 839.59,-321.1 844.97,-325.59"/>
<text text-anchor="middle" x="828.87" y="-361.01" font-family="Times,serif" font-size="14.00">Nein</text>
</g>
<!-- A03 -->
<g id="node7" class="node">
<title>A03</title>
<polygon fill="#cfb986" stroke="black" points="606.61,-200.29 305.38,-200.29 305.38,-114.77 606.61,-114.77 606.61,-200.29"/>
<text text-anchor="start" x="440.99" y="-182.23" font-family="Times,serif" font-weight="bold" font-size="14.00">A03</text>
<text text-anchor="start" x="317.62" y="-170.13" font-family="Times,serif" text-decoration="underline" font-size="12.00">Hinweis:</text>
<text text-anchor="start" x="317.62" y="-158.13" font-family="Times,serif" font-size="12.00">Cluster: Ablehnung</text>
<text text-anchor="start" x="317.62" y="-146.13" font-family="Times,serif" font-size="12.00">Es liegt ein technischer Ablehnungsgrund vor.</text>
<text text-anchor="start" x="317.62" y="-134.13" font-family="Times,serif" font-size="12.00">Hinweis: Das identifizierte Problem ist in der</text>
<text text-anchor="start" x="317.62" y="-122.13" font-family="Times,serif" font-size="12.00"> Antwort zu beschreiben/benennen.</text>
</g>
<!-- 3&#45;&gt;A03 -->
<g id="edge6" class="edge">
<title>3-&gt;A03</title>
<path fill="none" stroke="black" d="M811.9,-277.84C756.81,-259.37 667.62,-229.47 592.31,-204.23"/>
<polygon fill="black" stroke="black" points="593.81,-201.04 583.22,-201.18 591.59,-207.68 593.81,-201.04"/>
<text text-anchor="middle" x="690.74" y="-222.24" font-family="Times,serif" font-size="14.00">Ja</text>
</g>
<!-- 4 -->
<g id="node8" class="node">
<title>4</title>
<path fill="#7aab8a" stroke="black" d="M1209.26,-175.53C1209.26,-175.53 636.72,-175.53 636.72,-175.53 630.72,-175.53 624.72,-169.53 624.72,-163.53 624.72,-163.53 624.72,-151.53 624.72,-151.53 624.72,-145.53 630.72,-139.53 636.72,-139.53 636.72,-139.53 1209.26,-139.53 1209.26,-139.53 1215.26,-139.53 1221.26,-145.53 1221.26,-151.53 1221.26,-151.53 1221.26,-163.53 1221.26,-163.53 1221.26,-169.53 1215.26,-175.53 1209.26,-175.53"/>
<text text-anchor="start" x="639.12" y="-153.85" font-family="Times,serif" font-weight="bold" font-size="14.00">4: </text>
<text text-anchor="start" x="658.62" y="-153.85" font-family="Times,serif" font-size="14.00">Ist eine Mitwirkung des MSB bei Entsperrung/Sperrung vor Ort gew&#252;nscht?</text>
</g>
<!-- 3&#45;&gt;4 -->
<g id="edge7" class="edge">
<title>3-&gt;4</title>
<path fill="none" stroke="black" d="M871.46,-277.98C881.44,-254.86 899.22,-213.64 911.06,-186.19"/>
<polygon fill="black" stroke="black" points="914.23,-187.67 914.98,-177.1 907.8,-184.9 914.23,-187.67"/>
<text text-anchor="middle" x="913.87" y="-222.24" font-family="Times,serif" font-size="14.00">Nein</text>
</g>
<!-- A04 -->
<g id="node9" class="node">
<title>A04</title>
<polygon fill="#cfb986" stroke="black" points="677.23,-61.52 76.75,-61.52 76.75,0 677.23,0 677.23,-61.52"/>
<text text-anchor="start" x="361.99" y="-43.46" font-family="Times,serif" font-weight="bold" font-size="14.00">A04</text>
<text text-anchor="start" x="88.99" y="-31.36" font-family="Times,serif" text-decoration="underline" font-size="12.00">Hinweis:</text>
<text text-anchor="start" x="88.99" y="-19.36" font-family="Times,serif" font-size="12.00">Cluster: Zustimmung</text>
<text text-anchor="start" x="88.99" y="-7.36" font-family="Times,serif" font-size="12.00">MSB hat Durchf&#252;hrung der Sperrung und Entsperrung unter Mitwirkung des MSB zugestimmt.</text>
</g>
<!-- 4&#45;&gt;A04 -->
<g id="edge8" class="edge">
<title>4-&gt;A04</title>
<path fill="none" stroke="black" d="M846.5,-139.05C762.17,-119.78 624.62,-88.35 520.15,-64.47"/>
<polygon fill="black" stroke="black" points="521.19,-61.12 510.66,-62.31 519.63,-67.95 521.19,-61.12"/>
<text text-anchor="middle" x="656.74" y="-83.47" font-family="Times,serif" font-size="14.00">Ja</text>
</g>
<!-- A05 -->
<g id="node10" class="node">
<title>A05</title>
<polygon fill="#cfb986" stroke="black" points="1190.73,-61.52 695.25,-61.52 695.25,0 1190.73,0 1190.73,-61.52"/>
<text text-anchor="start" x="927.99" y="-43.46" font-family="Times,serif" font-weight="bold" font-size="14.00">A05</text>
<text text-anchor="start" x="707.49" y="-31.36" font-family="Times,serif" text-decoration="underline" font-size="12.00">Hinweis:</text>
<text text-anchor="start" x="707.49" y="-19.36" font-family="Times,serif" font-size="12.00">Cluster: Zustimmung</text>
<text text-anchor="start" x="707.49" y="-7.36" font-family="Times,serif" font-size="12.00">MSB hat Durchf&#252;hrung der Sperrung und Entsperrung durch NB zugestimmt.</text>
</g>
<!-- 4&#45;&gt;A05 -->
<g id="edge9" class="edge">
<title>4-&gt;A05</title>
<path fill="none" stroke="black" d="M925.77,-139.18C928.49,-122.19 932.75,-95.65 936.35,-73.21"/>
<polygon fill="black" stroke="black" points="939.79,-73.84 937.92,-63.41 932.88,-72.73 939.79,-73.84"/>
<text text-anchor="middle" x="950.87" y="-83.47" font-family="Times,serif" font-size="14.00">Nein</text>
</g>
</g>
</svg>
  </g>
</svg>
  </g>
</svg>
