<?xml version='1.0' encoding='ASCII' standalone='yes'?>
<svg xmlns="http://www.w3.org/2000/svg" xmlns:xlink="http://www.w3.org/1999/xlink" version="1.1" width="1106.6666666666667px" viewBox="0 0 1106.6666666666667 465.3333333333333" height="465.3333333333333px">
  <g>
    <svg version="1.1" width="1106.6666666666667px" viewBox="0 0 1106.6666666666667 465.3333333333333" height="465.3333333333333px">
  <polygon fill="#f3f1f6" points="0,0 1106.6666666666667,0 1106.6666666666667,465.3333333333333 0,465.3333333333333"/><g>
    <g transform="translate(363.5701117056228, 46.533333333333324) scale(1 1) translate(0, 0) scale(0.6552144935698865 0.6552144935698865) "><!-- note that I manually added the width and height attribute to the root node
  https://chatgpt.com/share/678e3028-70cc-800b-a296-782714735772
  -->
  <defs>
    <style>.cls-1{fill:#fff;}</style>
  </defs>
  <path class="cls-1" d="M122.44,531.2h-56.1c-11,0-19.9-9.12-19.46-20.11C57.47,243.89,278.15,29.78,547.91,29.78v56.02c0,10.98-8.69,19.89-19.66,20.39-225.51,10.31-405.8,197-405.8,425Z"/>
  <path class="cls-1" d="M273.78,531.2h-55.93c-11.23,0-20.09-9.48-19.43-20.69,10.74-183.44,163.39-329.39,349.48-329.39v56.26c0,10.71-8.27,19.62-18.96,20.35-142.35,9.77-255.17,128.69-255.17,273.46Z"/>
  <path class="cls-1" d="M425.77,531.2h-55.45c-11.65,0-20.6-10.17-19.33-21.75,10.87-99.03,95.03-176.34,196.92-176.34v57.01c0,10.05-7.28,18.75-17.23,20.16-59.22,8.4-104.91,59.42-104.91,120.92Z"/>
</g>
    <svg width="830pt" height="349pt" viewBox="0.00 0.00 829.50 349.05">
<g id="graph0" class="graph" transform="scale(1 1) rotate(0) translate(4 345.05)">
<title>D</title>
<text text-anchor="start" x="8" y="-320.95" font-family="Times,serif" font-weight="bold" font-size="18.00">GPKE</text>
<text text-anchor="start" x="8" y="-290.85" font-family="Times,serif" font-weight="bold" font-size="16.00">6.14.2: AD: Wiederherstellung der Anschlussnutzung (Entsperren) auf Anweisung des LF</text>
<!-- Start -->
<g id="node1" class="node">
<title>Start</title>
<path fill="#7a8da1" stroke="black" stroke-width="0" d="M435.84,-243.05C435.84,-243.05 299.79,-243.05 299.79,-243.05 293.79,-243.05 287.79,-237.05 287.79,-231.05 287.79,-231.05 287.79,-211.77 287.79,-211.77 287.79,-205.77 293.79,-199.77 299.79,-199.77 299.79,-199.77 435.84,-199.77 435.84,-199.77 441.84,-199.77 447.84,-205.77 447.84,-211.77 447.84,-211.77 447.84,-231.05 447.84,-231.05 447.84,-237.05 441.84,-243.05 435.84,-243.05"/>
<text text-anchor="start" x="339.69" y="-222.11" font-family="Times,serif" font-weight="bold" font-size="14.00">E_0499</text>
<text text-anchor="start" x="302.19" y="-210.01" font-family="Times,serif" font-weight="bold" text-decoration="underline" font-size="12.00">Pr&#252;fende Rolle:</text>
<text text-anchor="start" x="407.19" y="-210.01" font-family="Times,serif" font-weight="bold" font-size="12.00"> NB</text>
</g>
<!-- 1 -->
<g id="node2" class="node">
<title>1</title>
<path fill="#7aab8a" stroke="black" stroke-width="0" d="M573.46,-162.77C573.46,-162.77 162.16,-162.77 162.16,-162.77 156.16,-162.77 150.16,-156.77 150.16,-150.77 150.16,-150.77 150.16,-138.77 150.16,-138.77 150.16,-132.77 156.16,-126.77 162.16,-126.77 162.16,-126.77 573.46,-126.77 573.46,-126.77 579.46,-126.77 585.46,-132.77 585.46,-138.77 585.46,-138.77 585.46,-150.77 585.46,-150.77 585.46,-156.77 579.46,-162.77 573.46,-162.77"/>
<text text-anchor="start" x="164.56" y="-141.09" font-family="Times,serif" font-weight="bold" font-size="14.00">1: </text>
<text text-anchor="start" x="184.06" y="-141.09" font-family="Times,serif" font-size="14.00">Ist die Entsperrung erfolgreich durchgef&#252;hrt worden?</text>
</g>
<!-- Start&#45;&gt;1 -->
<g id="edge1" class="edge">
<title>Start-&gt;1</title>
<path fill="none" stroke="black" d="M367.81,-200.01C367.81,-191.94 367.81,-182.53 367.81,-173.84"/>
<polygon fill="black" stroke="black" points="371.31,-174.13 367.81,-164.13 364.31,-174.13 371.31,-174.13"/>
</g>
<!-- A01 -->
<g id="node3" class="node">
<title>A01</title>
<path fill="#cfb986" stroke="black" stroke-width="0" d="M304.05,-67.52C304.05,-67.52 135.57,-67.52 135.57,-67.52 129.57,-67.52 123.57,-61.52 123.57,-55.52 123.57,-55.52 123.57,-18 123.57,-18 123.57,-12 129.57,-6 135.57,-6 135.57,-6 304.05,-6 304.05,-6 310.05,-6 316.05,-12 316.05,-18 316.05,-18 316.05,-55.52 316.05,-55.52 316.05,-61.52 310.05,-67.52 304.05,-67.52"/>
<text text-anchor="start" x="135.81" y="-49.46" font-family="Times,serif" font-weight="bold" font-size="14.00">A01</text>
<text text-anchor="start" x="135.81" y="-37.36" font-family="Times,serif" text-decoration="underline" font-size="12.00">Hinweis:</text>
<text text-anchor="start" x="135.81" y="-25.36" font-family="Times,serif" font-size="12.00">Cluster: erfolgreich</text>
<text text-anchor="start" x="135.81" y="-13.36" font-family="Times,serif" font-size="12.00">Marktlokation ist entsperrt.</text>
</g>
<!-- 1&#45;&gt;A01 -->
<g id="edge2" class="edge">
<title>1-&gt;A01</title>
<path fill="none" stroke="#7aab8a" d="M344.36,-126.97C324.54,-112.78 295.46,-91.95 270.38,-73.98"/>
<polygon fill="#7aab8a" stroke="#7aab8a" points="272.75,-71.37 262.58,-68.39 268.67,-77.06 272.75,-71.37"/>
<text text-anchor="start" x="314.81" y="-96.47" font-family="Times,serif" font-weight="bold" font-size="14.00">JA</text>
</g>
<!-- A02 -->
<g id="node4" class="node">
<title>A02</title>
<path fill="#cfb986" stroke="black" stroke-width="0" d="M685.93,-73.52C685.93,-73.52 345.7,-73.52 345.7,-73.52 339.7,-73.52 333.7,-67.52 333.7,-61.52 333.7,-61.52 333.7,-12 333.7,-12 333.7,-6 339.7,0 345.7,0 345.7,0 685.93,0 685.93,0 691.93,0 697.93,-6 697.93,-12 697.93,-12 697.93,-61.52 697.93,-61.52 697.93,-67.52 691.93,-73.52 685.93,-73.52"/>
<text text-anchor="start" x="345.94" y="-55.46" font-family="Times,serif" font-weight="bold" font-size="14.00">A02</text>
<text text-anchor="start" x="345.94" y="-43.36" font-family="Times,serif" text-decoration="underline" font-size="12.00">Hinweis:</text>
<text text-anchor="start" x="345.94" y="-31.36" font-family="Times,serif" font-size="12.00">Cluster: gescheitert</text>
<text text-anchor="start" x="345.94" y="-19.36" font-family="Times,serif" font-size="12.00">Marktlokation ist weiterhin gesperrt.</text>
<text text-anchor="start" x="345.94" y="-7.36" font-family="Times,serif" font-size="12.00">Hinweis: Die Gr&#252;nde des Scheiterns sind zu &#252;bermitteln.</text>
</g>
<!-- 1&#45;&gt;A02 -->
<g id="edge3" class="edge">
<title>1-&gt;A02</title>
<path fill="none" stroke="#7aab8a" d="M391.26,-126.97C408.89,-114.35 433.84,-96.48 456.78,-80.04"/>
<polygon fill="#7aab8a" stroke="#7aab8a" points="458.8,-82.9 464.9,-74.23 454.73,-77.21 458.8,-82.9"/>
<text text-anchor="start" x="436.81" y="-96.47" font-family="Times,serif" font-weight="bold" font-size="14.00">NEIN</text>
</g>
</g>
</svg>
  </g>
</svg>
  </g>
</svg>
