<?xml version='1.0' encoding='ASCII' standalone='yes'?>
<svg xmlns="http://www.w3.org/2000/svg" xmlns:xlink="http://www.w3.org/1999/xlink" version="1.1" width="1256.0px" viewBox="0 0 1256.0 474.6666666666667" height="474.6666666666667px">
  <g>
    <svg version="1.1" width="1256.0px" viewBox="0 0 1256.0 474.6666666666667" height="474.6666666666667px">
  <rect fill="#e7e6e5" x="0" y="0" width="1256.0" height="474.6666666666667" rx="20" ry="20"/><g>
    <g transform="translate(434.43063925654747, 47.46666666666666) scale(1 1) translate(0, 0) scale(0.6683563315497982 0.6683563315497982) "><!-- note that I manually added the width and height attribute to the root node
  https://chatgpt.com/share/678e3028-70cc-800b-a296-782714735772
  -->
  <defs>
    <style>.cls-1{fill:#fff;}</style>
  </defs>
  <path class="cls-1" d="M122.44,531.2h-56.1c-11,0-19.9-9.12-19.46-20.11C57.47,243.89,278.15,29.78,547.91,29.78v56.02c0,10.98-8.69,19.89-19.66,20.39-225.51,10.31-405.8,197-405.8,425Z"/>
  <path class="cls-1" d="M273.78,531.2h-55.93c-11.23,0-20.09-9.48-19.43-20.69,10.74-183.44,163.39-329.39,349.48-329.39v56.26c0,10.71-8.27,19.62-18.96,20.35-142.35,9.77-255.17,128.69-255.17,273.46Z"/>
  <path class="cls-1" d="M425.77,531.2h-55.45c-11.65,0-20.6-10.17-19.33-21.75,10.87-99.03,95.03-176.34,196.92-176.34v57.01c0,10.05-7.28,18.75-17.23,20.16-59.22,8.4-104.91,59.42-104.91,120.92Z"/>
</g>
    <svg width="942pt" height="356pt" viewBox="0.00 0.00 942.18 355.81">
<g id="graph0" class="graph" transform="scale(1 1) rotate(0) translate(4 351.81)">
<title>D</title>
<text text-anchor="start" x="11.09" y="-327.71" font-family="Roboto, sans-serif" font-weight="bold" font-size="18.00">Zum Modell 2 zur ladevorgangscharfen bilanziellen Energiemengenzuordnungsm&#246;glichkeit</text>
<text text-anchor="start" x="11.09" y="-299.61" font-family="Roboto, sans-serif" font-weight="bold" font-size="16.00">16.1.1: AD: Anmeldung einer Marktlokation in das Modell 2 durch den NB (LPB)_neu</text>
<!-- Start -->
<g id="node1" class="node">
<title>Start</title>
<path fill="#8ba2d7" stroke="black" stroke-width="0" d="M598.67,-257.81C598.67,-257.81 461.88,-257.81 461.88,-257.81 455.88,-257.81 449.88,-251.81 449.88,-245.81 449.88,-245.81 449.88,-224.53 449.88,-224.53 449.88,-218.53 455.88,-212.53 461.88,-212.53 461.88,-212.53 598.67,-212.53 598.67,-212.53 604.67,-212.53 610.67,-218.53 610.67,-224.53 610.67,-224.53 610.67,-245.81 610.67,-245.81 610.67,-251.81 604.67,-257.81 598.67,-257.81"/>
<text text-anchor="start" x="464.27" y="-236.87" font-family="Roboto, sans-serif" font-weight="bold" font-size="14.00">E_0513</text>
<text text-anchor="start" x="464.27" y="-222.87" font-family="Roboto, sans-serif" font-size="14.00">Pr&#252;fende Rolle: </text>
<text text-anchor="start" x="573.77" y="-222.87" font-family="Roboto, sans-serif" font-weight="bold" font-size="14.00">NB</text>
</g>
<!-- 1 -->
<g id="node2" class="node">
<title>1</title>
<path fill="#c2cee9" stroke="black" stroke-width="0" d="M633.92,-175.53C633.92,-175.53 426.62,-175.53 426.62,-175.53 420.62,-175.53 414.62,-169.53 414.62,-163.53 414.62,-163.53 414.62,-151.53 414.62,-151.53 414.62,-145.53 420.62,-139.53 426.62,-139.53 426.62,-139.53 633.92,-139.53 633.92,-139.53 639.92,-139.53 645.92,-145.53 645.92,-151.53 645.92,-151.53 645.92,-163.53 645.92,-163.53 645.92,-169.53 639.92,-175.53 633.92,-175.53"/>
<text text-anchor="start" x="429.02" y="-153.85" font-family="Roboto, sans-serif" font-weight="bold" font-size="14.00">1: </text>
<text text-anchor="start" x="448.52" y="-153.85" font-family="Roboto, sans-serif" font-size="14.00">Ist ein Fehler aufgetreten?</text>
</g>
<!-- Start&#45;&gt;1 -->
<g id="edge1" class="edge">
<title>Start-&gt;1</title>
<path fill="none" stroke="#88a0d6" d="M530.27,-212.7C530.27,-204.62 530.27,-195.32 530.27,-186.72"/>
<polygon fill="#88a0d6" stroke="#88a0d6" points="533.78,-186.76 530.28,-176.76 526.78,-186.76 533.78,-186.76"/>
</g>
<!-- A99 -->
<g id="node3" class="node">
<title>A99</title>
<path fill="#c4cac1" stroke="black" stroke-width="0" d="M572.55,-86.28C572.55,-86.28 12,-86.28 12,-86.28 6,-86.28 0,-80.28 0,-74.28 0,-74.28 0,-12 0,-12 0,-6 6,0 12,0 12,0 572.55,0 572.55,0 578.55,0 584.55,-6 584.55,-12 584.55,-12 584.55,-74.28 584.55,-74.28 584.55,-80.28 578.55,-86.28 572.55,-86.28"/>
<text text-anchor="start" x="14.4" y="-64.34" font-family="Roboto, sans-serif" font-size="14.00">Cluster: Ablehnung</text>
<text text-anchor="start" x="14.4" y="-47.09" font-family="Roboto, sans-serif" font-size="14.00">Sonstiges</text>
<text text-anchor="start" x="14.4" y="-29.84" font-family="Roboto, sans-serif" font-size="14.00">Hinweis: Das identifizierte Problem ist in der Antwort zu beschreiben/benennen.</text>
<text text-anchor="start" x="14.4" y="-12.59" font-family="Roboto, sans-serif" font-size="14.00">Nutzungsm&#246;glichkeit Ende: 01.04.2026, 00:00 Uhr</text>
</g>
<!-- 1&#45;&gt;A99 -->
<g id="edge2" class="edge">
<title>1-&gt;A99</title>
<path fill="none" stroke="#88a0d6" d="M494.39,-139.58C467.09,-126.69 428.13,-108.29 391.69,-91.09"/>
<polygon fill="#88a0d6" stroke="#88a0d6" points="393.4,-88.02 382.86,-86.92 390.41,-94.35 393.4,-88.02"/>
<text text-anchor="start" x="453.27" y="-109.23" font-family="Roboto, sans-serif" font-weight="bold" font-size="14.00">JA</text>
</g>
<!-- E_0514_Beendigung der Zuordnung pr&#252;fen -->
<g id="node4" class="node">
<title>E_0514_Beendigung der Zuordnung pr&#252;fen</title>
<path fill="#c4cac1" stroke="black" stroke-width="0" d="M922.17,-61.14C922.17,-61.14 614.38,-61.14 614.38,-61.14 608.38,-61.14 602.38,-55.14 602.38,-49.14 602.38,-49.14 602.38,-37.14 602.38,-37.14 602.38,-31.14 608.38,-25.14 614.38,-25.14 614.38,-25.14 922.17,-25.14 922.17,-25.14 928.17,-25.14 934.17,-31.14 934.17,-37.14 934.17,-37.14 934.17,-49.14 934.17,-49.14 934.17,-55.14 928.17,-61.14 922.17,-61.14"/>
<text text-anchor="start" x="616.77" y="-38.47" font-family="Roboto, sans-serif" font-size="14.00">E_0514_Beendigung der Zuordnung pr&#252;fen</text>
</g>
<!-- 1&#45;&gt;E_0514_Beendigung der Zuordnung pr&#252;fen -->
<g id="edge3" class="edge">
<title>1-&gt;E_0514_Beendigung der Zuordnung pr&#252;fen</title>
<path fill="none" stroke="#88a0d6" d="M566.16,-139.58C607.85,-119.9 676.71,-87.38 722.28,-65.86"/>
<polygon fill="#88a0d6" stroke="#88a0d6" points="723.57,-69.12 731.12,-61.69 720.58,-62.79 723.57,-69.12"/>
<text text-anchor="start" x="634.27" y="-109.23" font-family="Roboto, sans-serif" font-weight="bold" font-size="14.00">NEIN</text>
</g>
</g>
</svg>
  </g>
</svg>
  </g>
</svg>
