<?xml version='1.0' encoding='ASCII' standalone='yes'?>
<svg xmlns="http://www.w3.org/2000/svg" xmlns:xlink="http://www.w3.org/1999/xlink" version="1.1" width="1833.3333333333333px" viewBox="0 0 1833.3333333333333 708.0" height="708.0px">
  <g>
    <svg version="1.1" width="1833.3333333333333px" viewBox="0 0 1833.3333333333333 708.0" height="708.0px">
  <polygon fill="#f3f1f6" points="0,0 1833.3333333333333,0 1833.3333333333333,708.0 0,708.0"/><g>
    <g transform="translate(633.6767346653266, 70.79999999999998) scale(1 1) translate(0, 0) scale(3.2020120213390584 3.2020120213390584) "><sodipodi:namedview xmlns:sodipodi="http://sodipodi.sourceforge.net/DTD/sodipodi-0.dtd" xmlns:inkscape="http://www.inkscape.org/namespaces/inkscape" id="namedview7" pagecolor="#ffffff" bordercolor="#999999" borderopacity="1" inkscape:pageshadow="0" inkscape:pageopacity="0" inkscape:pagecheckerboard="0" inkscape:document-units="mm" showgrid="false" fit-margin-top="0" fit-margin-left="0" fit-margin-right="0" fit-margin-bottom="0" inkscape:zoom="0.64052329" inkscape:cx="130.36216" inkscape:cy="412.163" inkscape:window-width="1512" inkscape:window-height="916" inkscape:window-x="3840" inkscape:window-y="136" inkscape:window-maximized="0" inkscape:current-layer="layer1"/>
  <defs id="defs2">
    <clipPath clipPathUnits="userSpaceOnUse" id="clipPath23">
      <path d="M 0,568.156 H 579.236 V 0 H 0 Z" id="path21"/>
    </clipPath>
  </defs>
  <g xmlns:inkscape="http://www.inkscape.org/namespaces/inkscape" inkscape:label="Layer 1" inkscape:groupmode="layer" id="layer1" transform="translate(-16.541937,-55.305267)">
    <g id="g19" clip-path="url(#clipPath23)" transform="matrix(0.35277777,0,0,-0.35277777,0.01017023,243.73675)" style="opacity:0.2">
      <g id="g25" transform="translate(122.444,32.7195)">
        <path d="m 0,0 h -56.104 c -11,0 -19.898,9.123 -19.463,20.115 10.594,267.191 231.277,481.302 501.029,481.302 v -56.02 c 0,-10.98 -8.688,-19.892 -19.658,-20.393 C 180.29,414.697 0,228.005 0,0" style="fill:#6ead83;fill-opacity:1;fill-rule:nonzero;stroke:none" id="path27"/>
      </g>
      <g id="g29" transform="translate(273.7828,32.7195)">
        <path d="m 0,0 h -55.926 c -11.228,0 -20.091,9.482 -19.435,20.69 10.744,183.439 163.389,329.388 349.485,329.388 v -56.263 c 0,-10.709 -8.273,-19.617 -18.957,-20.35 C 112.819,263.696 0,144.774 0,0" style="fill:#6ead83;fill-opacity:1;fill-rule:nonzero;stroke:none" id="path31"/>
      </g>
      <g id="g33" transform="translate(425.7667,32.7195)">
        <path d="m 0,0 h -55.445 c -11.653,0 -20.604,10.17 -19.334,21.753 10.866,99.032 95.031,176.341 196.919,176.341 v -57.011 c 0,-10.046 -7.283,-18.755 -17.229,-20.165 C 45.688,112.522 0,61.497 0,0" style="fill:#6ead83;fill-opacity:1;fill-rule:nonzero;stroke:none" id="path35"/>
      </g>
    </g>
  </g>
</g>
    <svg width="1375pt" height="531pt" viewBox="0.00 0.00 1374.64 530.59">
<g id="graph0" class="graph" transform="scale(1 1) rotate(0) translate(4 526.59)">
<title>D</title>
<text text-anchor="start" x="654.45" y="-502.49" font-family="Times,serif" font-weight="bold" font-size="18.00">GPKE</text>
<text text-anchor="start" x="499.95" y="-472.39" font-family="Times,serif" font-weight="bold" font-size="16.00">6.49.1: AD: Steuerbefehl vom LF an MSB</text>
<!-- Start -->
<g id="node1" class="node">
<title>Start</title>
<polygon fill="#7a8da1" stroke="black" points="353.55,-424.59 182.25,-424.59 182.25,-381.31 353.55,-381.31 353.55,-424.59"/>
<text text-anchor="start" x="239.78" y="-403.65" font-family="Times,serif" font-weight="bold" font-size="14.00">E_0564</text>
<text text-anchor="start" x="196.65" y="-391.55" font-family="Times,serif" font-weight="bold" text-decoration="underline" font-size="12.00">Pr&#252;fende Rolle:</text>
<text text-anchor="start" x="301.65" y="-391.55" font-family="Times,serif" font-weight="bold" font-size="12.00"> MSB</text>
</g>
<!-- 10 -->
<g id="node2" class="node">
<title>10</title>
<path fill="#7aab8a" stroke="black" d="M523.8,-344.31C523.8,-344.31 12,-344.31 12,-344.31 6,-344.31 0,-338.31 0,-332.31 0,-332.31 0,-320.31 0,-320.31 0,-314.31 6,-308.31 12,-308.31 12,-308.31 523.8,-308.31 523.8,-308.31 529.8,-308.31 535.8,-314.31 535.8,-320.31 535.8,-320.31 535.8,-332.31 535.8,-332.31 535.8,-338.31 529.8,-344.31 523.8,-344.31"/>
<text text-anchor="start" x="14.4" y="-322.63" font-family="Times,serif" font-weight="bold" font-size="14.00">10: </text>
<text text-anchor="start" x="43.65" y="-322.63" font-family="Times,serif" font-size="14.00">Ist eine Verarbeitung im Backend des MSB grunds&#228;tzlich m&#246;glich?</text>
</g>
<!-- Start&#45;&gt;10 -->
<g id="edge1" class="edge">
<title>Start-&gt;10</title>
<path fill="none" stroke="black" d="M267.9,-381.16C267.9,-373.3 267.9,-364.22 267.9,-355.78"/>
<polygon fill="black" stroke="black" points="271.4,-355.98 267.9,-345.98 264.4,-355.98 271.4,-355.98"/>
</g>
<!-- A01 -->
<g id="node3" class="node">
<title>A01</title>
<polygon fill="#cfb986" stroke="black" points="350.02,-255.06 129.79,-255.06 129.79,-205.54 350.02,-205.54 350.02,-255.06"/>
<text text-anchor="start" x="224.9" y="-237" font-family="Times,serif" font-weight="bold" font-size="14.00">A01</text>
<text text-anchor="start" x="142.03" y="-224.9" font-family="Times,serif" text-decoration="underline" font-size="12.00">Hinweis:</text>
<text text-anchor="start" x="142.03" y="-212.9" font-family="Times,serif" font-size="12.00">Backend des MSB ist &#252;berlastet.</text>
</g>
<!-- 10&#45;&gt;A01 -->
<g id="edge2" class="edge">
<title>10-&gt;A01</title>
<path fill="none" stroke="black" d="M262.76,-308.07C259.3,-296.44 254.61,-280.68 250.38,-266.47"/>
<polygon fill="black" stroke="black" points="253.75,-265.55 247.54,-256.96 247.04,-267.55 253.75,-265.55"/>
<text text-anchor="middle" x="274.78" y="-277.01" font-family="Times,serif" font-size="14.00">Nein</text>
</g>
<!-- 20 -->
<g id="node4" class="node">
<title>20</title>
<path fill="#7aab8a" stroke="black" d="M847.3,-248.3C847.3,-248.3 380.5,-248.3 380.5,-248.3 374.5,-248.3 368.5,-242.3 368.5,-236.3 368.5,-236.3 368.5,-224.3 368.5,-224.3 368.5,-218.3 374.5,-212.3 380.5,-212.3 380.5,-212.3 847.3,-212.3 847.3,-212.3 853.3,-212.3 859.3,-218.3 859.3,-224.3 859.3,-224.3 859.3,-236.3 859.3,-236.3 859.3,-242.3 853.3,-248.3 847.3,-248.3"/>
<text text-anchor="start" x="382.9" y="-226.62" font-family="Times,serif" font-weight="bold" font-size="14.00">20: </text>
<text text-anchor="start" x="412.15" y="-226.62" font-family="Times,serif" font-size="14.00">Ist eine Kommunikationsverbindung zur Steuerbox m&#246;glich?</text>
</g>
<!-- 10&#45;&gt;20 -->
<g id="edge3" class="edge">
<title>10-&gt;20</title>
<path fill="none" stroke="black" d="M332.17,-307.85C390.7,-291.94 477.17,-268.45 538.85,-251.69"/>
<polygon fill="black" stroke="black" points="539.49,-255.14 548.22,-249.15 537.65,-248.39 539.49,-255.14"/>
<text text-anchor="middle" x="458.65" y="-277.01" font-family="Times,serif" font-size="14.00">Ja</text>
</g>
<!-- A02 -->
<g id="node5" class="node">
<title>A02</title>
<polygon fill="#cfb986" stroke="black" points="668.64,-152.29 317.16,-152.29 317.16,-102.77 668.64,-102.77 668.64,-152.29"/>
<text text-anchor="start" x="477.9" y="-134.23" font-family="Times,serif" font-weight="bold" font-size="14.00">A02</text>
<text text-anchor="start" x="329.4" y="-122.13" font-family="Times,serif" text-decoration="underline" font-size="12.00">Hinweis:</text>
<text text-anchor="start" x="329.4" y="-110.13" font-family="Times,serif" font-size="12.00">Kommunikationsverbindung zur Steuerbox ist gest&#246;rt.</text>
</g>
<!-- 20&#45;&gt;A02 -->
<g id="edge4" class="edge">
<title>20-&gt;A02</title>
<path fill="none" stroke="black" d="M593.1,-211.98C576.03,-197.76 551.41,-177.26 530.85,-160.14"/>
<polygon fill="black" stroke="black" points="533.11,-157.46 523.19,-153.75 528.63,-162.84 533.11,-157.46"/>
<text text-anchor="middle" x="577.78" y="-174.24" font-family="Times,serif" font-size="14.00">Nein</text>
</g>
<!-- 30 -->
<g id="node6" class="node">
<title>30</title>
<path fill="#7aab8a" stroke="black" d="M1138.8,-145.53C1138.8,-145.53 699,-145.53 699,-145.53 693,-145.53 687,-139.53 687,-133.53 687,-133.53 687,-121.53 687,-121.53 687,-115.53 693,-109.53 699,-109.53 699,-109.53 1138.8,-109.53 1138.8,-109.53 1144.8,-109.53 1150.8,-115.53 1150.8,-121.53 1150.8,-121.53 1150.8,-133.53 1150.8,-133.53 1150.8,-139.53 1144.8,-145.53 1138.8,-145.53"/>
<text text-anchor="start" x="701.4" y="-123.86" font-family="Times,serif" font-weight="bold" font-size="14.00">30: </text>
<text text-anchor="start" x="730.65" y="-123.86" font-family="Times,serif" font-size="14.00">Ist es prozessual m&#246;glich den Steuerbefehl umzusetzen?</text>
</g>
<!-- 20&#45;&gt;30 -->
<g id="edge5" class="edge">
<title>20-&gt;30</title>
<path fill="none" stroke="black" d="M666.68,-211.86C719.03,-194.57 799.29,-168.05 855.17,-149.59"/>
<polygon fill="black" stroke="black" points="856.17,-152.94 864.56,-146.48 853.97,-146.3 856.17,-152.94"/>
<text text-anchor="middle" x="791.65" y="-174.24" font-family="Times,serif" font-size="14.00">Ja</text>
</g>
<!-- A03 -->
<g id="node7" class="node">
<title>A03</title>
<polygon fill="#cfb986" stroke="black" points="985.14,-49.52 318.66,-49.52 318.66,0 985.14,0 985.14,-49.52"/>
<text text-anchor="start" x="636.9" y="-31.46" font-family="Times,serif" font-weight="bold" font-size="14.00">A03</text>
<text text-anchor="start" x="330.9" y="-19.36" font-family="Times,serif" text-decoration="underline" font-size="12.00">Hinweis:</text>
<text text-anchor="start" x="330.9" y="-7.36" font-family="Times,serif" font-size="12.00">Prozessual ist es derzeit nicht m&#246;glich die Anforderung umzusetzen (z.B. aufgrund von Wartungsarbeiten).</text>
</g>
<!-- 30&#45;&gt;A03 -->
<g id="edge6" class="edge">
<title>30-&gt;A03</title>
<path fill="none" stroke="black" d="M872.7,-109.09C832.54,-93.94 773.62,-71.7 726.74,-54.01"/>
<polygon fill="black" stroke="black" points="728.03,-50.75 717.44,-50.49 725.56,-57.3 728.03,-50.75"/>
<text text-anchor="middle" x="818.78" y="-71.47" font-family="Times,serif" font-size="14.00">Nein</text>
</g>
<!-- A04 -->
<g id="node8" class="node">
<title>A04</title>
<polygon fill="#cfb986" stroke="black" points="1366.64,-49.52 1003.16,-49.52 1003.16,0 1366.64,0 1366.64,-49.52"/>
<text text-anchor="start" x="1169.9" y="-31.46" font-family="Times,serif" font-weight="bold" font-size="14.00">A04</text>
<text text-anchor="start" x="1015.4" y="-19.36" font-family="Times,serif" text-decoration="underline" font-size="12.00">Hinweis:</text>
<text text-anchor="start" x="1015.4" y="-7.36" font-family="Times,serif" font-size="12.00">Der Steuerbefehl kann grunds&#228;tzlich umgesetzt werden.</text>
</g>
<!-- 30&#45;&gt;A04 -->
<g id="edge7" class="edge">
<title>30-&gt;A04</title>
<path fill="none" stroke="black" d="M964.93,-109.09C1004.94,-93.94 1063.64,-71.7 1110.34,-54.01"/>
<polygon fill="black" stroke="black" points="1111.49,-57.31 1119.6,-50.5 1109.01,-50.77 1111.49,-57.31"/>
<text text-anchor="middle" x="1074.65" y="-71.47" font-family="Times,serif" font-size="14.00">Ja</text>
</g>
</g>
</svg>
  </g>
</svg>
  </g>
</svg>
