<?xml version='1.0' encoding='ASCII' standalone='yes'?>
<svg xmlns="http://www.w3.org/2000/svg" xmlns:xlink="http://www.w3.org/1999/xlink" version="1.1" width="1846.6666666666667px" viewBox="0 0 1846.6666666666667 1713.3333333333333" height="1713.3333333333333px">
  <g>
    <svg version="1.1" width="1846.6666666666667px" viewBox="0 0 1846.6666666666667 1713.3333333333333" height="1713.3333333333333px">
  <rect fill="#e7e6e5" x="0" y="0" width="1846.6666666666667" height="1713.3333333333333" rx="20" ry="20"/><g>
    <g transform="translate(224.6349385149723, 171.3333333333333) scale(1 1) translate(0, 0) scale(2.4124659720266592 2.4124659720266592) "><!-- note that I manually added the width and height attribute to the root node
  https://chatgpt.com/share/678e3028-70cc-800b-a296-782714735772
  -->
  <defs>
    <style>.cls-1{fill:#fff;}</style>
  </defs>
  <path class="cls-1" d="M122.44,531.2h-56.1c-11,0-19.9-9.12-19.46-20.11C57.47,243.89,278.15,29.78,547.91,29.78v56.02c0,10.98-8.69,19.89-19.66,20.39-225.51,10.31-405.8,197-405.8,425Z"/>
  <path class="cls-1" d="M273.78,531.2h-55.93c-11.23,0-20.09-9.48-19.43-20.69,10.74-183.44,163.39-329.39,349.48-329.39v56.26c0,10.71-8.27,19.62-18.96,20.35-142.35,9.77-255.17,128.69-255.17,273.46Z"/>
  <path class="cls-1" d="M425.77,531.2h-55.45c-11.65,0-20.6-10.17-19.33-21.75,10.87-99.03,95.03-176.34,196.92-176.34v57.01c0,10.05-7.28,18.75-17.23,20.16-59.22,8.4-104.91,59.42-104.91,120.92Z"/>
</g>
    <svg width="1385pt" height="1285pt" viewBox="0.00 0.00 1385.30 1284.55">
<g id="graph0" class="graph" transform="scale(1 1) rotate(0) translate(4 1280.55)">
<title>D</title>
<text text-anchor="start" x="425.4" y="-1256.45" font-family="Roboto, sans-serif" font-weight="bold" font-size="18.00">GPKE</text>
<text text-anchor="start" x="425.4" y="-1228.35" font-family="Roboto, sans-serif" font-weight="bold" font-size="16.00">6.30.3: AD: Bestellung einer Konfiguration vom NB an MSB</text>
<!-- Start -->
<g id="node1" class="node">
<title>Start</title>
<path fill="#8ba2d7" stroke="black" stroke-width="0" d="M509.42,-1183.3C509.42,-1183.3 360.62,-1183.3 360.62,-1183.3 354.62,-1183.3 348.62,-1177.3 348.62,-1171.3 348.62,-1171.3 348.62,-1150.02 348.62,-1150.02 348.62,-1144.02 354.62,-1138.02 360.62,-1138.02 360.62,-1138.02 509.42,-1138.02 509.42,-1138.02 515.42,-1138.02 521.42,-1144.02 521.42,-1150.02 521.42,-1150.02 521.42,-1171.3 521.42,-1171.3 521.42,-1177.3 515.42,-1183.3 509.42,-1183.3"/>
<text text-anchor="start" x="363.02" y="-1162.36" font-family="Roboto, sans-serif" font-weight="bold" font-size="14.00">E_0526</text>
<text text-anchor="start" x="363.02" y="-1148.36" font-family="Roboto, sans-serif" font-size="14.00">Pr&#252;fende Rolle: </text>
<text text-anchor="start" x="472.52" y="-1148.36" font-family="Roboto, sans-serif" font-weight="bold" font-size="14.00">MSB</text>
</g>
<!-- 10 -->
<g id="node2" class="node">
<title>10</title>
<path fill="#c2cee9" stroke="black" stroke-width="0" d="M717.92,-1097.77C717.92,-1097.77 152.12,-1097.77 152.12,-1097.77 146.12,-1097.77 140.12,-1091.77 140.12,-1085.77 140.12,-1085.77 140.12,-1064.49 140.12,-1064.49 140.12,-1058.49 146.12,-1052.49 152.12,-1052.49 152.12,-1052.49 717.92,-1052.49 717.92,-1052.49 723.92,-1052.49 729.92,-1058.49 729.92,-1064.49 729.92,-1064.49 729.92,-1085.77 729.92,-1085.77 729.92,-1091.77 723.92,-1097.77 717.92,-1097.77"/>
<text text-anchor="start" x="154.52" y="-1076.83" font-family="Roboto, sans-serif" font-weight="bold" font-size="14.00">10: </text>
<text text-anchor="start" x="183.77" y="-1076.83" font-family="Roboto, sans-serif" font-size="14.00">Liegt die bestellte Konfiguration zum bestellten Zeitpunkt an der / bzw. allen</text>
<text text-anchor="start" x="154.52" y="-1062.83" font-family="Roboto, sans-serif" font-size="14.00">Lokationen bereits vor?</text>
</g>
<!-- Start&#45;&gt;10 -->
<g id="edge1" class="edge">
<title>Start-&gt;10</title>
<path fill="none" stroke="#88a0d6" d="M435.02,-1138.15C435.02,-1129.28 435.02,-1118.81 435.02,-1109.02"/>
<polygon fill="#88a0d6" stroke="#88a0d6" points="438.53,-1109.08 435.03,-1099.08 431.53,-1109.08 438.53,-1109.08"/>
</g>
<!-- A01 -->
<g id="node3" class="node">
<title>A01</title>
<path fill="#c4cac1" stroke="black" stroke-width="0" d="M422.92,-999.24C422.92,-999.24 121.12,-999.24 121.12,-999.24 115.12,-999.24 109.12,-993.24 109.12,-987.24 109.12,-987.24 109.12,-959.46 109.12,-959.46 109.12,-953.46 115.12,-947.46 121.12,-947.46 121.12,-947.46 422.92,-947.46 422.92,-947.46 428.92,-947.46 434.92,-953.46 434.92,-959.46 434.92,-959.46 434.92,-987.24 434.92,-987.24 434.92,-993.24 428.92,-999.24 422.92,-999.24"/>
<text text-anchor="start" x="123.52" y="-977.3" font-family="Roboto, sans-serif" font-size="14.00">Cluster: Ablehnung</text>
<text text-anchor="start" x="123.52" y="-960.05" font-family="Roboto, sans-serif" font-size="14.00">Die bestellte Konfiguration liegt bereits vor</text>
</g>
<!-- 10&#45;&gt;A01 -->
<g id="edge2" class="edge">
<title>10-&gt;A01</title>
<path fill="none" stroke="#88a0d6" d="M400.06,-1052.72C377.35,-1038.82 347.39,-1020.48 322.16,-1005.04"/>
<polygon fill="#88a0d6" stroke="#88a0d6" points="324.04,-1002.09 313.68,-999.85 320.38,-1008.06 324.04,-1002.09"/>
<text text-anchor="start" x="368.02" y="-1022.19" font-family="Roboto, sans-serif" font-weight="bold" font-size="14.00">JA</text>
</g>
<!-- 20 -->
<g id="node4" class="node">
<title>20</title>
<path fill="#c2cee9" stroke="black" stroke-width="0" d="M979.05,-991.35C979.05,-991.35 465,-991.35 465,-991.35 459,-991.35 453,-985.35 453,-979.35 453,-979.35 453,-967.35 453,-967.35 453,-961.35 459,-955.35 465,-955.35 465,-955.35 979.05,-955.35 979.05,-955.35 985.05,-955.35 991.05,-961.35 991.05,-967.35 991.05,-967.35 991.05,-979.35 991.05,-979.35 991.05,-985.35 985.05,-991.35 979.05,-991.35"/>
<text text-anchor="start" x="467.4" y="-969.67" font-family="Roboto, sans-serif" font-weight="bold" font-size="14.00">20: </text>
<text text-anchor="start" x="496.65" y="-969.67" font-family="Roboto, sans-serif" font-size="14.00">Handelt es sich um eine Bestellung einer kostenfreien Konfiguration?</text>
</g>
<!-- 10&#45;&gt;20 -->
<g id="edge3" class="edge">
<title>10-&gt;20</title>
<path fill="none" stroke="#88a0d6" d="M496.95,-1052.6C546.12,-1035.5 614.44,-1011.75 662.88,-994.91"/>
<polygon fill="#88a0d6" stroke="#88a0d6" points="663.78,-998.3 672.08,-991.71 661.49,-991.69 663.78,-998.3"/>
<text text-anchor="start" x="595.02" y="-1022.19" font-family="Roboto, sans-serif" font-weight="bold" font-size="14.00">NEIN</text>
</g>
<!-- 25 -->
<g id="node6" class="node">
<title>25</title>
<path fill="#c2cee9" stroke="black" stroke-width="0" d="M524.17,-894.21C524.17,-894.21 43.87,-894.21 43.87,-894.21 37.87,-894.21 31.87,-888.21 31.87,-882.21 31.87,-882.21 31.87,-860.93 31.87,-860.93 31.87,-854.93 37.87,-848.93 43.87,-848.93 43.87,-848.93 524.17,-848.93 524.17,-848.93 530.17,-848.93 536.17,-854.93 536.17,-860.93 536.17,-860.93 536.17,-882.21 536.17,-882.21 536.17,-888.21 530.17,-894.21 524.17,-894.21"/>
<text text-anchor="start" x="46.27" y="-873.27" font-family="Roboto, sans-serif" font-weight="bold" font-size="14.00">25: </text>
<text text-anchor="start" x="75.52" y="-873.27" font-family="Roboto, sans-serif" font-size="14.00">Wurden die Vorlauffristen eingehalten?</text>
<text text-anchor="start" x="46.27" y="-859.27" font-family="Roboto, sans-serif" font-size="14.00">Hinweis: Es ist die maximale und die minimale Vorlauffrist zu pr&#252;fen</text>
</g>
<!-- 20&#45;&gt;25 -->
<g id="edge4" class="edge">
<title>20-&gt;25</title>
<path fill="none" stroke="#88a0d6" d="M647.72,-955.42C576.98,-939.31 469.76,-914.88 390.05,-896.72"/>
<polygon fill="#88a0d6" stroke="#88a0d6" points="390.99,-893.35 380.47,-894.54 389.44,-900.17 390.99,-893.35"/>
<text text-anchor="start" x="529.02" y="-917.16" font-family="Roboto, sans-serif" font-weight="bold" font-size="14.00">JA</text>
</g>
<!-- 30 -->
<g id="node8" class="node">
<title>30</title>
<path fill="#c2cee9" stroke="black" stroke-width="0" d="M1081.42,-894.21C1081.42,-894.21 566.62,-894.21 566.62,-894.21 560.62,-894.21 554.62,-888.21 554.62,-882.21 554.62,-882.21 554.62,-860.93 554.62,-860.93 554.62,-854.93 560.62,-848.93 566.62,-848.93 566.62,-848.93 1081.42,-848.93 1081.42,-848.93 1087.42,-848.93 1093.42,-854.93 1093.42,-860.93 1093.42,-860.93 1093.42,-882.21 1093.42,-882.21 1093.42,-888.21 1087.42,-894.21 1081.42,-894.21"/>
<text text-anchor="start" x="569.02" y="-873.27" font-family="Roboto, sans-serif" font-weight="bold" font-size="14.00">30: </text>
<text text-anchor="start" x="598.27" y="-873.27" font-family="Roboto, sans-serif" font-size="14.00">Liegt bereits eine kostenpflichtige Konfiguration vom Besteller an der</text>
<text text-anchor="start" x="569.02" y="-859.27" font-family="Roboto, sans-serif" font-size="14.00">betroffenen Lokation vor?</text>
</g>
<!-- 20&#45;&gt;30 -->
<g id="edge5" class="edge">
<title>20-&gt;30</title>
<path fill="none" stroke="#88a0d6" d="M739.33,-955.42C754.31,-940.77 776.32,-919.24 794.15,-901.8"/>
<polygon fill="#88a0d6" stroke="#88a0d6" points="796.22,-904.67 800.92,-895.17 791.32,-899.66 796.22,-904.67"/>
<text text-anchor="start" x="782.02" y="-917.16" font-family="Roboto, sans-serif" font-weight="bold" font-size="14.00">NEIN</text>
</g>
<!-- Hinweis: 
Es handelt sich um eine kostenpflichtige Konfiguration -->
<g id="node5" class="node">
<title>Hinweis: 
Es handelt sich um eine kostenpflichtige Konfiguration</title>
<path fill="#c4cac1" stroke="black" stroke-width="0" d="M1242.8,-1186.55C1242.8,-1186.55 859.25,-1186.55 859.25,-1186.55 853.25,-1186.55 847.25,-1180.55 847.25,-1174.55 847.25,-1174.55 847.25,-1146.77 847.25,-1146.77 847.25,-1140.77 853.25,-1134.77 859.25,-1134.77 859.25,-1134.77 1242.8,-1134.77 1242.8,-1134.77 1248.8,-1134.77 1254.8,-1140.77 1254.8,-1146.77 1254.8,-1146.77 1254.8,-1174.55 1254.8,-1174.55 1254.8,-1180.55 1248.8,-1186.55 1242.8,-1186.55"/>
<text text-anchor="start" x="861.65" y="-1164.61" font-family="Roboto, sans-serif" font-size="14.00">Hinweis: </text>
<text text-anchor="start" x="861.65" y="-1147.36" font-family="Roboto, sans-serif" font-size="14.00">Es handelt sich um eine kostenpflichtige Konfiguration</text>
</g>
<!-- A08 -->
<g id="node7" class="node">
<title>A08</title>
<path fill="#c4cac1" stroke="black" stroke-width="0" d="M309.3,-763.93C309.3,-763.93 24.75,-763.93 24.75,-763.93 18.75,-763.93 12.75,-757.93 12.75,-751.93 12.75,-751.93 12.75,-724.15 12.75,-724.15 12.75,-718.15 18.75,-712.15 24.75,-712.15 24.75,-712.15 309.3,-712.15 309.3,-712.15 315.3,-712.15 321.3,-718.15 321.3,-724.15 321.3,-724.15 321.3,-751.93 321.3,-751.93 321.3,-757.93 315.3,-763.93 309.3,-763.93"/>
<text text-anchor="start" x="27.15" y="-741.99" font-family="Roboto, sans-serif" font-size="14.00">Cluster: Ablehnung</text>
<text text-anchor="start" x="27.15" y="-724.74" font-family="Roboto, sans-serif" font-size="14.00">Die Vorlauffrist wurde nicht eingehalten.</text>
</g>
<!-- 25&#45;&gt;A08 -->
<g id="edge6" class="edge">
<title>25-&gt;A08</title>
<path fill="none" stroke="#88a0d6" d="M264.97,-849.14C246.4,-828.27 217.9,-796.24 196.43,-772.09"/>
<polygon fill="#88a0d6" stroke="#88a0d6" points="199.13,-769.87 189.87,-764.72 193.9,-774.52 199.13,-769.87"/>
<text text-anchor="start" x="246.02" y="-818.63" font-family="Roboto, sans-serif" font-weight="bold" font-size="14.00">NEIN</text>
</g>
<!-- 70 -->
<g id="node13" class="node">
<title>70</title>
<path fill="#c2cee9" stroke="black" stroke-width="0" d="M673.3,-488.35C673.3,-488.35 64.75,-488.35 64.75,-488.35 58.75,-488.35 52.75,-482.35 52.75,-476.35 52.75,-476.35 52.75,-464.35 52.75,-464.35 52.75,-458.35 58.75,-452.35 64.75,-452.35 64.75,-452.35 673.3,-452.35 673.3,-452.35 679.3,-452.35 685.3,-458.35 685.3,-464.35 685.3,-464.35 685.3,-476.35 685.3,-476.35 685.3,-482.35 679.3,-488.35 673.3,-488.35"/>
<text text-anchor="start" x="67.15" y="-466.68" font-family="Roboto, sans-serif" font-weight="bold" font-size="14.00">70: </text>
<text text-anchor="start" x="96.4" y="-466.68" font-family="Roboto, sans-serif" font-size="14.00">Erlaubt die vorhandene Ger&#228;tetechnik die Konfiguration zum bestellten Zeitpunkt?</text>
</g>
<!-- 25&#45;&gt;70 -->
<g id="edge7" class="edge">
<title>25-&gt;70</title>
<path fill="none" stroke="#88a0d6" d="M300.6,-849.23C310.83,-834.89 323.25,-815.13 330.02,-795.68 349.08,-740.99 362.55,-567.13 367.22,-499.06"/>
<polygon fill="#88a0d6" stroke="#88a0d6" points="370.69,-499.72 367.87,-489.51 363.7,-499.25 370.69,-499.72"/>
<text text-anchor="start" x="354.02" y="-650.1" font-family="Roboto, sans-serif" font-weight="bold" font-size="14.00">JA</text>
</g>
<!-- 40 -->
<g id="node9" class="node">
<title>40</title>
<path fill="#c2cee9" stroke="black" stroke-width="0" d="M1022.42,-795.68C1022.42,-795.68 429.62,-795.68 429.62,-795.68 423.62,-795.68 417.62,-789.68 417.62,-783.68 417.62,-783.68 417.62,-692.4 417.62,-692.4 417.62,-686.4 423.62,-680.4 429.62,-680.4 429.62,-680.4 1022.42,-680.4 1022.42,-680.4 1028.42,-680.4 1034.42,-686.4 1034.42,-692.4 1034.42,-692.4 1034.42,-783.68 1034.42,-783.68 1034.42,-789.68 1028.42,-795.68 1022.42,-795.68"/>
<text text-anchor="start" x="432.02" y="-774.74" font-family="Roboto, sans-serif" font-weight="bold" font-size="14.00">40: </text>
<text text-anchor="start" x="461.27" y="-774.74" font-family="Roboto, sans-serif" font-size="14.00">Ist in dieser Bestellung die Bestellnummer der Bestellung enthalten, mit der</text>
<text text-anchor="start" x="432.02" y="-760.74" font-family="Roboto, sans-serif" font-size="14.00">die bestehende kostenpflichtige Konfiguration bestellt wurde?</text>
<text text-anchor="start" x="432.02" y="-746.74" font-family="Roboto, sans-serif" font-size="14.00">Hinweis:</text>
<text text-anchor="start" x="432.02" y="-732.74" font-family="Roboto, sans-serif" font-size="14.00">Wenn bereits an der betreffenden Lokation eine Konfiguration von dem</text>
<text text-anchor="start" x="432.02" y="-718.74" font-family="Roboto, sans-serif" font-size="14.00">Anfragenden besteht, muss diese Konfiguration beendet werden. Aus diesem Grund</text>
<text text-anchor="start" x="432.02" y="-704.74" font-family="Roboto, sans-serif" font-size="14.00">gibt der Anfragende die Referenz der bislang geltenden Konfiguration an, da zu</text>
<text text-anchor="start" x="432.02" y="-690.74" font-family="Roboto, sans-serif" font-size="14.00">einem Zeitpunkt immer nur eine Konfiguration vorhanden sein kann.</text>
</g>
<!-- 30&#45;&gt;40 -->
<g id="edge9" class="edge">
<title>30-&gt;40</title>
<path fill="none" stroke="#88a0d6" d="M808.06,-849.14C798.91,-836.86 786.88,-820.71 774.86,-804.58"/>
<polygon fill="#88a0d6" stroke="#88a0d6" points="777.89,-802.79 769.11,-796.86 772.28,-806.97 777.89,-802.79"/>
<text text-anchor="start" x="792.02" y="-818.63" font-family="Roboto, sans-serif" font-weight="bold" font-size="14.00">JA</text>
</g>
<!-- 60 -->
<g id="node11" class="node">
<title>60</title>
<path fill="#c2cee9" stroke="black" stroke-width="0" d="M1186.8,-610.63C1186.8,-610.63 953.25,-610.63 953.25,-610.63 947.25,-610.63 941.25,-604.63 941.25,-598.63 941.25,-598.63 941.25,-586.63 941.25,-586.63 941.25,-580.63 947.25,-574.63 953.25,-574.63 953.25,-574.63 1186.8,-574.63 1186.8,-574.63 1192.8,-574.63 1198.8,-580.63 1198.8,-586.63 1198.8,-586.63 1198.8,-598.63 1198.8,-598.63 1198.8,-604.63 1192.8,-610.63 1186.8,-610.63"/>
<text text-anchor="start" x="955.65" y="-588.96" font-family="Roboto, sans-serif" font-weight="bold" font-size="14.00">60: </text>
<text text-anchor="start" x="984.9" y="-588.96" font-family="Roboto, sans-serif" font-size="14.00">Ist das Angebot noch g&#252;ltig?</text>
</g>
<!-- 30&#45;&gt;60 -->
<g id="edge8" class="edge">
<title>30-&gt;60</title>
<path fill="none" stroke="#88a0d6" d="M961.33,-849.01C992.33,-837.89 1022.19,-821.08 1043.03,-795.68 1083.97,-745.77 1080.27,-664.4 1074.76,-621.74"/>
<polygon fill="#88a0d6" stroke="#88a0d6" points="1078.26,-621.45 1073.37,-612.05 1071.33,-622.45 1078.26,-621.45"/>
<text text-anchor="start" x="1077.03" y="-734.37" font-family="Roboto, sans-serif" font-weight="bold" font-size="14.00">NEIN</text>
</g>
<!-- A02 -->
<g id="node10" class="node">
<title>A02</title>
<path fill="#c4cac1" stroke="black" stroke-width="0" d="M911.17,-627.15C911.17,-627.15 388.88,-627.15 388.88,-627.15 382.88,-627.15 376.88,-621.15 376.88,-615.15 376.88,-615.15 376.88,-570.12 376.88,-570.12 376.88,-564.12 382.88,-558.12 388.88,-558.12 388.88,-558.12 911.17,-558.12 911.17,-558.12 917.17,-558.12 923.17,-564.12 923.17,-570.12 923.17,-570.12 923.17,-615.15 923.17,-615.15 923.17,-621.15 917.17,-627.15 911.17,-627.15"/>
<text text-anchor="start" x="391.27" y="-605.21" font-family="Roboto, sans-serif" font-size="14.00">Cluster: Ablehnung</text>
<text text-anchor="start" x="391.27" y="-587.96" font-family="Roboto, sans-serif" font-size="14.00">Es besteht an der Lokation bereits eine Konfiguration. In der Bestellung ist</text>
<text text-anchor="start" x="391.27" y="-570.71" font-family="Roboto, sans-serif" font-size="14.00">die Bestellnummer zur bestehenden Konfiguration nicht enthalten</text>
</g>
<!-- 40&#45;&gt;A02 -->
<g id="edge10" class="edge">
<title>40-&gt;A02</title>
<path fill="none" stroke="#88a0d6" d="M696.21,-680.77C688.52,-666.27 680.36,-650.88 673.08,-637.13"/>
<polygon fill="#88a0d6" stroke="#88a0d6" points="676.18,-635.51 668.41,-628.32 670,-638.79 676.18,-635.51"/>
<text text-anchor="start" x="685.02" y="-650.1" font-family="Roboto, sans-serif" font-weight="bold" font-size="14.00">NEIN</text>
</g>
<!-- 40&#45;&gt;60 -->
<g id="edge11" class="edge">
<title>40-&gt;60</title>
<path fill="none" stroke="#88a0d6" d="M861.49,-680.57C916.84,-657.5 977.48,-632.22 1019.02,-614.9"/>
<polygon fill="#88a0d6" stroke="#88a0d6" points="1020.14,-618.22 1028.03,-611.14 1017.45,-611.76 1020.14,-618.22"/>
<text text-anchor="start" x="938.02" y="-650.1" font-family="Roboto, sans-serif" font-weight="bold" font-size="14.00">JA</text>
</g>
<!-- A04 -->
<g id="node12" class="node">
<title>A04</title>
<path fill="#c4cac1" stroke="black" stroke-width="0" d="M1323.3,-504.87C1323.3,-504.87 816.75,-504.87 816.75,-504.87 810.75,-504.87 804.75,-498.87 804.75,-492.87 804.75,-492.87 804.75,-447.84 804.75,-447.84 804.75,-441.84 810.75,-435.84 816.75,-435.84 816.75,-435.84 1323.3,-435.84 1323.3,-435.84 1329.3,-435.84 1335.3,-441.84 1335.3,-447.84 1335.3,-447.84 1335.3,-492.87 1335.3,-492.87 1335.3,-498.87 1329.3,-504.87 1323.3,-504.87"/>
<text text-anchor="start" x="819.15" y="-482.93" font-family="Roboto, sans-serif" font-size="14.00">Cluster: Ablehnung</text>
<text text-anchor="start" x="819.15" y="-465.68" font-family="Roboto, sans-serif" font-size="14.00">Angebot ist nicht mehr g&#252;ltig</text>
<text text-anchor="start" x="819.15" y="-448.43" font-family="Roboto, sans-serif" font-size="14.00">(z.B. Angebot ist zu alt, Preise haben sich in der Zwischenzeit ge&#228;ndert)</text>
</g>
<!-- 60&#45;&gt;A04 -->
<g id="edge12" class="edge">
<title>60-&gt;A04</title>
<path fill="none" stroke="#88a0d6" d="M1070.03,-574.66C1070.03,-559.43 1070.03,-536.4 1070.03,-515.94"/>
<polygon fill="#88a0d6" stroke="#88a0d6" points="1073.53,-516.11 1070.03,-506.11 1066.53,-516.11 1073.53,-516.11"/>
<text text-anchor="start" x="1070.03" y="-527.82" font-family="Roboto, sans-serif" font-weight="bold" font-size="14.00">NEIN</text>
</g>
<!-- 60&#45;&gt;70 -->
<g id="edge13" class="edge">
<title>60-&gt;70</title>
<path fill="none" stroke="#88a0d6" d="M1005.34,-574.72C982.29,-569.01 956.09,-562.89 932.02,-558.12 789.67,-529.92 625.53,-505.54 511.36,-489.87"/>
<polygon fill="#88a0d6" stroke="#88a0d6" points="512,-486.42 501.62,-488.54 511.05,-493.36 512,-486.42"/>
<text text-anchor="start" x="824.02" y="-527.82" font-family="Roboto, sans-serif" font-weight="bold" font-size="14.00">JA</text>
</g>
<!-- A05 -->
<g id="node14" class="node">
<title>A05</title>
<path fill="#c4cac1" stroke="black" stroke-width="0" d="M628.05,-382.59C628.05,-382.59 12,-382.59 12,-382.59 6,-382.59 0,-376.59 0,-370.59 0,-370.59 0,-256.56 0,-256.56 0,-250.56 6,-244.56 12,-244.56 12,-244.56 628.05,-244.56 628.05,-244.56 634.05,-244.56 640.05,-250.56 640.05,-256.56 640.05,-256.56 640.05,-370.59 640.05,-370.59 640.05,-376.59 634.05,-382.59 628.05,-382.59"/>
<text text-anchor="start" x="14.4" y="-360.65" font-family="Roboto, sans-serif" font-size="14.00">Cluster: Ablehnung</text>
<text text-anchor="start" x="14.4" y="-343.4" font-family="Roboto, sans-serif" font-size="14.00">Die vorhandene Ger&#228;tetechnik erlaubt die Konfiguration zum bestellten Zeitpunkt nicht.</text>
<text text-anchor="start" x="14.4" y="-326.15" font-family="Roboto, sans-serif" font-size="14.00">Hinweis:</text>
<text text-anchor="start" x="14.4" y="-308.9" font-family="Roboto, sans-serif" font-size="14.00">Wenn die Ger&#228;tetechnik eine detailliertere Aufl&#246;sung als die bestellten Werte</text>
<text text-anchor="start" x="14.4" y="-291.65" font-family="Roboto, sans-serif" font-size="14.00">bereitstellt, kann diese nicht abgelehnt werden.</text>
<text text-anchor="start" x="14.4" y="-274.4" font-family="Roboto, sans-serif" font-size="14.00">Beispiel: Messung bietet Lastgang 1/4h Aufl&#246;sung. Geforderte Werte sind</text>
<text text-anchor="start" x="14.4" y="-257.15" font-family="Roboto, sans-serif" font-size="14.00">kumulierte Werte.</text>
</g>
<!-- 70&#45;&gt;A05 -->
<g id="edge14" class="edge">
<title>70-&gt;A05</title>
<path fill="none" stroke="#88a0d6" d="M362.13,-452.8C358.07,-442.77 352.97,-429.67 349.02,-417.84 346.38,-409.92 343.77,-401.6 341.27,-393.27"/>
<polygon fill="#88a0d6" stroke="#88a0d6" points="344.66,-392.4 338.48,-383.8 337.95,-394.38 344.66,-392.4"/>
<text text-anchor="start" x="349.02" y="-405.54" font-family="Roboto, sans-serif" font-weight="bold" font-size="14.00">NEIN</text>
</g>
<!-- 80 -->
<g id="node15" class="node">
<title>80</title>
<path fill="#c2cee9" stroke="black" stroke-width="0" d="M1190.05,-343.21C1190.05,-343.21 670,-343.21 670,-343.21 664,-343.21 658,-337.21 658,-331.21 658,-331.21 658,-295.94 658,-295.94 658,-289.94 664,-283.94 670,-283.94 670,-283.94 1190.05,-283.94 1190.05,-283.94 1196.05,-283.94 1202.05,-289.94 1202.05,-295.94 1202.05,-295.94 1202.05,-331.21 1202.05,-331.21 1202.05,-337.21 1196.05,-343.21 1190.05,-343.21"/>
<text text-anchor="start" x="672.4" y="-322.27" font-family="Roboto, sans-serif" font-weight="bold" font-size="14.00">80: </text>
<text text-anchor="start" x="701.65" y="-322.27" font-family="Roboto, sans-serif" font-size="14.00">Handelt es sich um die Konfiguration einer Z&#228;hlzeitdefinition,</text>
<text text-anchor="start" x="672.4" y="-308.27" font-family="Roboto, sans-serif" font-size="14.00">Schaltzeitdefinition oder Leistungskurvendefinition, welche dem MSB zum</text>
<text text-anchor="start" x="672.4" y="-294.27" font-family="Roboto, sans-serif" font-size="14.00">bestellten Zeitpunkt nicht bekannt ist?</text>
</g>
<!-- 70&#45;&gt;80 -->
<g id="edge15" class="edge">
<title>70-&gt;80</title>
<path fill="none" stroke="#88a0d6" d="M430.4,-452.42C522.67,-426.97 698.7,-378.4 815.24,-346.24"/>
<polygon fill="#88a0d6" stroke="#88a0d6" points="816.16,-349.62 824.87,-343.59 814.3,-342.87 816.16,-349.62"/>
<text text-anchor="start" x="615.02" y="-405.54" font-family="Roboto, sans-serif" font-weight="bold" font-size="14.00">JA</text>
</g>
<!-- A06 -->
<g id="node16" class="node">
<title>A06</title>
<path fill="#c4cac1" stroke="black" stroke-width="0" d="M885.8,-191.31C885.8,-191.31 532.25,-191.31 532.25,-191.31 526.25,-191.31 520.25,-185.31 520.25,-179.31 520.25,-179.31 520.25,-151.53 520.25,-151.53 520.25,-145.53 526.25,-139.53 532.25,-139.53 532.25,-139.53 885.8,-139.53 885.8,-139.53 891.8,-139.53 897.8,-145.53 897.8,-151.53 897.8,-151.53 897.8,-179.31 897.8,-179.31 897.8,-185.31 891.8,-191.31 885.8,-191.31"/>
<text text-anchor="start" x="534.65" y="-169.37" font-family="Roboto, sans-serif" font-size="14.00">Cluster: Ablehnung</text>
<text text-anchor="start" x="534.65" y="-152.12" font-family="Roboto, sans-serif" font-size="14.00">Bestellte Konfiguration ist dem MSB nicht bekannt</text>
</g>
<!-- 80&#45;&gt;A06 -->
<g id="edge16" class="edge">
<title>80-&gt;A06</title>
<path fill="none" stroke="#88a0d6" d="M886.89,-284.05C849.25,-259.16 794.76,-223.12 756.02,-197.5"/>
<polygon fill="#88a0d6" stroke="#88a0d6" points="758.07,-194.66 747.8,-192.06 754.21,-200.5 758.07,-194.66"/>
<text text-anchor="start" x="799.02" y="-214.26" font-family="Roboto, sans-serif" font-weight="bold" font-size="14.00">JA</text>
</g>
<!-- 90 -->
<g id="node17" class="node">
<title>90</title>
<path fill="#c2cee9" stroke="black" stroke-width="0" d="M1322.05,-183.42C1322.05,-183.42 928,-183.42 928,-183.42 922,-183.42 916,-177.42 916,-171.42 916,-171.42 916,-159.42 916,-159.42 916,-153.42 922,-147.42 928,-147.42 928,-147.42 1322.05,-147.42 1322.05,-147.42 1328.05,-147.42 1334.05,-153.42 1334.05,-159.42 1334.05,-159.42 1334.05,-171.42 1334.05,-171.42 1334.05,-177.42 1328.05,-183.42 1322.05,-183.42"/>
<text text-anchor="start" x="930.4" y="-161.75" font-family="Roboto, sans-serif" font-weight="bold" font-size="14.00">90: </text>
<text text-anchor="start" x="959.65" y="-161.75" font-family="Roboto, sans-serif" font-size="14.00">Ist ein zuvor nicht spezifizierter Fehler aufgetreten?</text>
</g>
<!-- 80&#45;&gt;90 -->
<g id="edge17" class="edge">
<title>80-&gt;90</title>
<path fill="none" stroke="#88a0d6" d="M968.09,-284.05C1004.66,-256.64 1059.28,-215.7 1093.49,-190.06"/>
<polygon fill="#88a0d6" stroke="#88a0d6" points="1095.45,-192.96 1101.35,-184.16 1091.25,-187.36 1095.45,-192.96"/>
<text text-anchor="start" x="1067.03" y="-214.26" font-family="Roboto, sans-serif" font-weight="bold" font-size="14.00">NEIN</text>
</g>
<!-- A99 -->
<g id="node18" class="node">
<title>A99</title>
<path fill="#c4cac1" stroke="black" stroke-width="0" d="M906.3,-86.28C906.3,-86.28 345.75,-86.28 345.75,-86.28 339.75,-86.28 333.75,-80.28 333.75,-74.28 333.75,-74.28 333.75,-12 333.75,-12 333.75,-6 339.75,0 345.75,0 345.75,0 906.3,0 906.3,0 912.3,0 918.3,-6 918.3,-12 918.3,-12 918.3,-74.28 918.3,-74.28 918.3,-80.28 912.3,-86.28 906.3,-86.28"/>
<text text-anchor="start" x="348.15" y="-64.34" font-family="Roboto, sans-serif" font-size="14.00">Cluster: Ablehnung</text>
<text text-anchor="start" x="348.15" y="-47.09" font-family="Roboto, sans-serif" font-size="14.00">Sonstiges</text>
<text text-anchor="start" x="348.15" y="-29.84" font-family="Roboto, sans-serif" font-size="14.00">Hinweis: Das identifizierte Problem ist in der Antwort zu beschreiben/benennen.</text>
<text text-anchor="start" x="348.15" y="-12.59" font-family="Roboto, sans-serif" font-size="14.00">Nutzungsm&#246;glichkeit Ende: 01.04.2026 00:00 Uhr</text>
</g>
<!-- 90&#45;&gt;A99 -->
<g id="edge18" class="edge">
<title>90-&gt;A99</title>
<path fill="none" stroke="#88a0d6" d="M1054.59,-147.44C991.6,-132.26 896.42,-109.32 811.75,-88.91"/>
<polygon fill="#88a0d6" stroke="#88a0d6" points="812.69,-85.53 802.15,-86.59 811.05,-92.34 812.69,-85.53"/>
<text text-anchor="start" x="934.02" y="-109.23" font-family="Roboto, sans-serif" font-weight="bold" font-size="14.00">JA</text>
</g>
<!-- A07 -->
<g id="node19" class="node">
<title>A07</title>
<path fill="#c4cac1" stroke="black" stroke-width="0" d="M1365.3,-69.03C1365.3,-69.03 948.75,-69.03 948.75,-69.03 942.75,-69.03 936.75,-63.03 936.75,-57.03 936.75,-57.03 936.75,-29.25 936.75,-29.25 936.75,-23.25 942.75,-17.25 948.75,-17.25 948.75,-17.25 1365.3,-17.25 1365.3,-17.25 1371.3,-17.25 1377.3,-23.25 1377.3,-29.25 1377.3,-29.25 1377.3,-57.03 1377.3,-57.03 1377.3,-63.03 1371.3,-69.03 1365.3,-69.03"/>
<text text-anchor="start" x="951.15" y="-47.09" font-family="Roboto, sans-serif" font-size="14.00">Cluster: Zustimmung</text>
<text text-anchor="start" x="951.15" y="-29.84" font-family="Roboto, sans-serif" font-size="14.00">Die Einrichtung der Konfiguration ist grunds&#228;tzlich m&#246;glich</text>
</g>
<!-- 90&#45;&gt;A07 -->
<g id="edge19" class="edge">
<title>90-&gt;A07</title>
<path fill="none" stroke="#88a0d6" d="M1129.54,-147.44C1134.18,-130.02 1141.53,-102.37 1147.47,-80.07"/>
<polygon fill="#88a0d6" stroke="#88a0d6" points="1150.84,-81 1150.03,-70.43 1144.08,-79.2 1150.84,-81"/>
<text text-anchor="start" x="1141.03" y="-109.23" font-family="Roboto, sans-serif" font-weight="bold" font-size="14.00">NEIN</text>
</g>
</g>
</svg>
  </g>
</svg>
  </g>
</svg>
