<?xml version='1.0' encoding='ASCII' standalone='yes'?>
<svg xmlns="http://www.w3.org/2000/svg" xmlns:xlink="http://www.w3.org/1999/xlink" version="1.1" width="1920.0px" viewBox="0 0 1920.0 1073.3333333333333" height="1073.3333333333333px">
  <g>
    <svg version="1.1" width="1920.0px" viewBox="0 0 1920.0 1073.3333333333333" height="1073.3333333333333px">
  <polygon fill="#f3f1f6" points="0,0 1920.0,0 1920.0,1073.3333333333333 0,1073.3333333333333"/><g>
    <g transform="translate(530.9851313350683, 107.3333333333333) scale(1 1) translate(0, 0) scale(4.854274344967876 4.854274344967876) "><sodipodi:namedview xmlns:sodipodi="http://sodipodi.sourceforge.net/DTD/sodipodi-0.dtd" xmlns:inkscape="http://www.inkscape.org/namespaces/inkscape" id="namedview7" pagecolor="#ffffff" bordercolor="#999999" borderopacity="1" inkscape:pageshadow="0" inkscape:pageopacity="0" inkscape:pagecheckerboard="0" inkscape:document-units="mm" showgrid="false" fit-margin-top="0" fit-margin-left="0" fit-margin-right="0" fit-margin-bottom="0" inkscape:zoom="0.64052329" inkscape:cx="130.36216" inkscape:cy="412.163" inkscape:window-width="1512" inkscape:window-height="916" inkscape:window-x="3840" inkscape:window-y="136" inkscape:window-maximized="0" inkscape:current-layer="layer1"/>
  <defs id="defs2">
    <clipPath clipPathUnits="userSpaceOnUse" id="clipPath23">
      <path d="M 0,568.156 H 579.236 V 0 H 0 Z" id="path21"/>
    </clipPath>
  </defs>
  <g xmlns:inkscape="http://www.inkscape.org/namespaces/inkscape" inkscape:label="Layer 1" inkscape:groupmode="layer" id="layer1" transform="translate(-16.541937,-55.305267)">
    <g id="g19" clip-path="url(#clipPath23)" transform="matrix(0.35277777,0,0,-0.35277777,0.01017023,243.73675)" style="opacity:0.2">
      <g id="g25" transform="translate(122.444,32.7195)">
        <path d="m 0,0 h -56.104 c -11,0 -19.898,9.123 -19.463,20.115 10.594,267.191 231.277,481.302 501.029,481.302 v -56.02 c 0,-10.98 -8.688,-19.892 -19.658,-20.393 C 180.29,414.697 0,228.005 0,0" style="fill:#6ead83;fill-opacity:0.5;fill-rule:nonzero;stroke:none" id="path27"/>
      </g>
      <g id="g29" transform="translate(273.7828,32.7195)">
        <path d="m 0,0 h -55.926 c -11.228,0 -20.091,9.482 -19.435,20.69 10.744,183.439 163.389,329.388 349.485,329.388 v -56.263 c 0,-10.709 -8.273,-19.617 -18.957,-20.35 C 112.819,263.696 0,144.774 0,0" style="fill:#6ead83;fill-opacity:0.5;fill-rule:nonzero;stroke:none" id="path31"/>
      </g>
      <g id="g33" transform="translate(425.7667,32.7195)">
        <path d="m 0,0 h -55.445 c -11.653,0 -20.604,10.17 -19.334,21.753 10.866,99.032 95.031,176.341 196.919,176.341 v -57.011 c 0,-10.046 -7.283,-18.755 -17.229,-20.165 C 45.688,112.522 0,61.497 0,0" style="fill:#6ead83;fill-opacity:0.5;fill-rule:nonzero;stroke:none" id="path35"/>
      </g>
    </g>
  </g>
</g>
    <svg width="1440pt" height="805pt" viewBox="0.00 0.00 1440.00 804.84">
<g id="graph0" class="graph" transform="scale(0.689114 0.689114) rotate(0) translate(4 1163.93)">
<title>D</title>
<text text-anchor="start" x="1011.95" y="-1139.83" font-family="Times,serif" font-weight="bold" font-size="18.00">GPKE</text>
<text text-anchor="start" x="817.7" y="-1109.73" font-family="Times,serif" font-weight="bold" font-size="16.00">6.12.4: AD: Abrechnung einer sonstigen Leistung</text>
<!-- Start -->
<g id="node1" class="node">
<title>Start</title>
<polygon fill="#7a8da1" stroke="black" points="560.89,-1061.93 406.09,-1061.93 406.09,-1018.65 560.89,-1018.65 560.89,-1061.93"/>
<text text-anchor="start" x="455.37" y="-1040.99" font-family="Times,serif" font-weight="bold" font-size="14.00">E_0506</text>
<text text-anchor="start" x="420.49" y="-1028.89" font-family="Times,serif" font-weight="bold" text-decoration="underline" font-size="12.00">Pr&#252;fende Rolle:</text>
<text text-anchor="start" x="525.49" y="-1028.89" font-family="Times,serif" font-weight="bold" font-size="12.00"> LF</text>
</g>
<!-- 10 -->
<g id="node2" class="node">
<title>10</title>
<path fill="#7aab8a" stroke="black" d="M716.14,-981.65C716.14,-981.65 250.84,-981.65 250.84,-981.65 244.84,-981.65 238.84,-975.65 238.84,-969.65 238.84,-969.65 238.84,-957.65 238.84,-957.65 238.84,-951.65 244.84,-945.65 250.84,-945.65 250.84,-945.65 716.14,-945.65 716.14,-945.65 722.14,-945.65 728.14,-951.65 728.14,-957.65 728.14,-957.65 728.14,-969.65 728.14,-969.65 728.14,-975.65 722.14,-981.65 716.14,-981.65"/>
<text text-anchor="start" x="253.24" y="-959.97" font-family="Times,serif" font-weight="bold" font-size="14.00">10: </text>
<text text-anchor="start" x="282.49" y="-959.97" font-family="Times,serif" font-size="14.00">Ist die zu stornierende Rechnung beim Empf&#228;nger bekannt?</text>
</g>
<!-- Start&#45;&gt;10 -->
<g id="edge1" class="edge">
<title>Start-&gt;10</title>
<path fill="none" stroke="black" d="M483.49,-1018.5C483.49,-1010.64 483.49,-1001.56 483.49,-993.12"/>
<polygon fill="black" stroke="black" points="486.99,-993.32 483.49,-983.32 479.99,-993.32 486.99,-993.32"/>
</g>
<!-- A01 -->
<g id="node3" class="node">
<title>A01</title>
<polygon fill="#cfb986" stroke="black" points="360.36,-892.4 30.62,-892.4 30.62,-842.88 360.36,-842.88 360.36,-892.4"/>
<text text-anchor="start" x="180.49" y="-874.34" font-family="Times,serif" font-weight="bold" font-size="14.00">A01</text>
<text text-anchor="start" x="42.87" y="-862.24" font-family="Times,serif" text-decoration="underline" font-size="12.00">Hinweis:</text>
<text text-anchor="start" x="42.87" y="-850.24" font-family="Times,serif" font-size="12.00">Die zu stornierende Rechnung ist nicht vorhanden.</text>
</g>
<!-- 10&#45;&gt;A01 -->
<g id="edge2" class="edge">
<title>10-&gt;A01</title>
<path fill="none" stroke="black" d="M429.99,-945.19C388.03,-931.49 328.81,-912.16 280.39,-896.35"/>
<polygon fill="black" stroke="black" points="281.63,-893.08 271.04,-893.3 279.46,-899.73 281.63,-893.08"/>
<text text-anchor="middle" x="390.37" y="-914.35" font-family="Times,serif" font-size="14.00">Nein</text>
</g>
<!-- 15 -->
<g id="node4" class="node">
<title>15</title>
<path fill="#7aab8a" stroke="black" d="M1114.89,-885.64C1114.89,-885.64 390.09,-885.64 390.09,-885.64 384.09,-885.64 378.09,-879.64 378.09,-873.64 378.09,-873.64 378.09,-861.64 378.09,-861.64 378.09,-855.64 384.09,-849.64 390.09,-849.64 390.09,-849.64 1114.89,-849.64 1114.89,-849.64 1120.89,-849.64 1126.89,-855.64 1126.89,-861.64 1126.89,-861.64 1126.89,-873.64 1126.89,-873.64 1126.89,-879.64 1120.89,-885.64 1114.89,-885.64"/>
<text text-anchor="start" x="392.49" y="-863.96" font-family="Times,serif" font-weight="bold" font-size="14.00">15: </text>
<text text-anchor="start" x="421.74" y="-863.96" font-family="Times,serif" font-size="14.00">Liegt vom Rechnungssteller die in dieser Rechnung verwendete Rechnungsnummer bereits vor?</text>
</g>
<!-- 10&#45;&gt;15 -->
<g id="edge3" class="edge">
<title>10-&gt;15</title>
<path fill="none" stroke="black" d="M533.46,-945.19C578.28,-929.52 644.17,-906.49 691.97,-889.79"/>
<polygon fill="black" stroke="black" points="693.08,-893.11 701.36,-886.51 690.77,-886.5 693.08,-893.11"/>
<text text-anchor="middle" x="632.24" y="-914.35" font-family="Times,serif" font-size="14.00">Ja</text>
</g>
<!-- A06 -->
<g id="node5" class="node">
<title>A06</title>
<polygon fill="#cfb986" stroke="black" points="668.61,-789.63 370.38,-789.63 370.38,-740.11 668.61,-740.11 668.61,-789.63"/>
<text text-anchor="start" x="504.49" y="-771.57" font-family="Times,serif" font-weight="bold" font-size="14.00">A06</text>
<text text-anchor="start" x="382.62" y="-759.47" font-family="Times,serif" text-decoration="underline" font-size="12.00">Hinweis:</text>
<text text-anchor="start" x="382.62" y="-747.47" font-family="Times,serif" font-size="12.00">Rechnungsnummer wurde bereits verwendet.</text>
</g>
<!-- 15&#45;&gt;A06 -->
<g id="edge4" class="edge">
<title>15-&gt;A06</title>
<path fill="none" stroke="black" d="M712.17,-849.2C677.42,-834.17 626.57,-812.18 585.84,-794.56"/>
<polygon fill="black" stroke="black" points="587.4,-791.43 576.84,-790.67 584.62,-797.85 587.4,-791.43"/>
<text text-anchor="middle" x="656.24" y="-811.58" font-family="Times,serif" font-size="14.00">Ja</text>
</g>
<!-- 20 -->
<g id="node6" class="node">
<title>20</title>
<path fill="#7aab8a" stroke="black" d="M1128.14,-782.87C1128.14,-782.87 698.84,-782.87 698.84,-782.87 692.84,-782.87 686.84,-776.87 686.84,-770.87 686.84,-770.87 686.84,-758.87 686.84,-758.87 686.84,-752.87 692.84,-746.87 698.84,-746.87 698.84,-746.87 1128.14,-746.87 1128.14,-746.87 1134.14,-746.87 1140.14,-752.87 1140.14,-758.87 1140.14,-758.87 1140.14,-770.87 1140.14,-770.87 1140.14,-776.87 1134.14,-782.87 1128.14,-782.87"/>
<text text-anchor="start" x="701.24" y="-761.19" font-family="Times,serif" font-weight="bold" font-size="14.00">20: </text>
<text text-anchor="start" x="730.49" y="-761.19" font-family="Times,serif" font-size="14.00">Wurde die zu stornierende Rechnung bereits storniert?</text>
</g>
<!-- 15&#45;&gt;20 -->
<g id="edge5" class="edge">
<title>15-&gt;20</title>
<path fill="none" stroke="black" d="M780.17,-849.32C806.66,-832.73 846.82,-807.6 876.14,-789.25"/>
<polygon fill="black" stroke="black" points="877.73,-792.38 884.35,-784.11 874.02,-786.45 877.73,-792.38"/>
<text text-anchor="middle" x="859.37" y="-811.58" font-family="Times,serif" font-size="14.00">Nein</text>
</g>
<!-- A02 -->
<g id="node7" class="node">
<title>A02</title>
<polygon fill="#cfb986" stroke="black" points="629.98,-686.86 277,-686.86 277,-637.34 629.98,-637.34 629.98,-686.86"/>
<text text-anchor="start" x="438.49" y="-668.8" font-family="Times,serif" font-weight="bold" font-size="14.00">A02</text>
<text text-anchor="start" x="289.24" y="-656.7" font-family="Times,serif" text-decoration="underline" font-size="12.00">Hinweis:</text>
<text text-anchor="start" x="289.24" y="-644.7" font-family="Times,serif" font-size="12.00">Die zu stornierende Rechnung wurde bereits storniert.</text>
</g>
<!-- 20&#45;&gt;A02 -->
<g id="edge6" class="edge">
<title>20-&gt;A02</title>
<path fill="none" stroke="black" d="M833.63,-746.37C762.3,-730.75 656.75,-707.63 574.96,-689.71"/>
<polygon fill="black" stroke="black" points="575.83,-686.32 565.31,-687.6 574.33,-693.16 575.83,-686.32"/>
<text text-anchor="middle" x="717.24" y="-708.81" font-family="Times,serif" font-size="14.00">Ja</text>
</g>
<!-- 30 -->
<g id="node8" class="node">
<title>30</title>
<path fill="#7aab8a" stroke="black" d="M1461.14,-680.1C1461.14,-680.1 659.84,-680.1 659.84,-680.1 653.84,-680.1 647.84,-674.1 647.84,-668.1 647.84,-668.1 647.84,-656.1 647.84,-656.1 647.84,-650.1 653.84,-644.1 659.84,-644.1 659.84,-644.1 1461.14,-644.1 1461.14,-644.1 1467.14,-644.1 1473.14,-650.1 1473.14,-656.1 1473.14,-656.1 1473.14,-668.1 1473.14,-668.1 1473.14,-674.1 1467.14,-680.1 1461.14,-680.1"/>
<text text-anchor="start" x="662.24" y="-658.42" font-family="Times,serif" font-weight="bold" font-size="14.00">30: </text>
<text text-anchor="start" x="691.49" y="-658.42" font-family="Times,serif" font-size="14.00">Ist der Rechnungstyp der Stornorechnung identisch mit dem Rechnungstyp der urspr&#252;nglichen Rechnung?</text>
</g>
<!-- 20&#45;&gt;30 -->
<g id="edge7" class="edge">
<title>20-&gt;30</title>
<path fill="none" stroke="black" d="M938.76,-746.55C962.74,-730.11 998.98,-705.26 1025.69,-686.96"/>
<polygon fill="black" stroke="black" points="1027.54,-689.93 1033.81,-681.39 1023.58,-684.16 1027.54,-689.93"/>
<text text-anchor="middle" x="1012.37" y="-708.81" font-family="Times,serif" font-size="14.00">Nein</text>
</g>
<!-- A03 -->
<g id="node9" class="node">
<title>A03</title>
<polygon fill="#cfb986" stroke="black" points="703.86,-584.09 5.12,-584.09 5.12,-534.57 703.86,-534.57 703.86,-584.09"/>
<text text-anchor="start" x="339.49" y="-566.03" font-family="Times,serif" font-weight="bold" font-size="14.00">A03</text>
<text text-anchor="start" x="17.37" y="-553.93" font-family="Times,serif" text-decoration="underline" font-size="12.00">Hinweis:</text>
<text text-anchor="start" x="17.37" y="-541.93" font-family="Times,serif" font-size="12.00">Der Rechnungstyp der Stornorechnung ist nicht identisch mit dem Rechnungstyp der urspr&#252;nglichen Rechnung.</text>
</g>
<!-- 30&#45;&gt;A03 -->
<g id="edge8" class="edge">
<title>30-&gt;A03</title>
<path fill="none" stroke="black" d="M937.92,-643.6C826.86,-627.75 661.75,-604.19 535.5,-586.17"/>
<polygon fill="black" stroke="black" points="536.07,-582.71 525.67,-584.76 535.08,-589.64 536.07,-582.71"/>
<text text-anchor="middle" x="766.37" y="-606.04" font-family="Times,serif" font-size="14.00">Nein</text>
</g>
<!-- 40 -->
<g id="node10" class="node">
<title>40</title>
<path fill="#7aab8a" stroke="black" d="M2064.89,-577.33C2064.89,-577.33 734.09,-577.33 734.09,-577.33 728.09,-577.33 722.09,-571.33 722.09,-565.33 722.09,-565.33 722.09,-553.33 722.09,-553.33 722.09,-547.33 728.09,-541.33 734.09,-541.33 734.09,-541.33 2064.89,-541.33 2064.89,-541.33 2070.89,-541.33 2076.89,-547.33 2076.89,-553.33 2076.89,-553.33 2076.89,-565.33 2076.89,-565.33 2076.89,-571.33 2070.89,-577.33 2064.89,-577.33"/>
<text text-anchor="start" x="736.49" y="-555.65" font-family="Times,serif" font-weight="bold" font-size="14.00">40: </text>
<text text-anchor="start" x="765.74" y="-555.65" font-family="Times,serif" font-size="14.00">Ist der Abrechnungszeitraum bzw. das Ausf&#252;hrungsdatum der Stornorechnung identisch mit dem Abrechnungszeitraum bzw. dem Ausf&#252;hrungsdatum der urspr&#252;nglichen Rechnung?</text>
</g>
<!-- 30&#45;&gt;40 -->
<g id="edge9" class="edge">
<title>30-&gt;40</title>
<path fill="none" stroke="black" d="M1119.15,-643.66C1177.7,-626.26 1267.66,-599.52 1329.81,-581.04"/>
<polygon fill="black" stroke="black" points="1330.66,-584.44 1339.24,-578.24 1328.66,-577.73 1330.66,-584.44"/>
<text text-anchor="middle" x="1256.24" y="-606.04" font-family="Times,serif" font-size="14.00">Ja</text>
</g>
<!-- A04 -->
<g id="node11" class="node">
<title>A04</title>
<polygon fill="#cfb986" stroke="black" points="1144.98,-469.44 0,-469.44 0,-419.92 1144.98,-419.92 1144.98,-469.44"/>
<text text-anchor="start" x="557.49" y="-451.38" font-family="Times,serif" font-weight="bold" font-size="14.00">A04</text>
<text text-anchor="start" x="12.24" y="-439.28" font-family="Times,serif" text-decoration="underline" font-size="12.00">Hinweis:</text>
<text text-anchor="start" x="12.24" y="-427.28" font-family="Times,serif" font-size="12.00">Der Abrechnungszeitraum bzw. des Ausf&#252;hrungsdatum der Stornorechnung ist nicht identisch mit dem Abrechnungszeitraum bzw. dem Ausf&#252;hrungsdatum der urspr&#252;nglichen Rechnung.</text>
</g>
<!-- 40&#45;&gt;A04 -->
<g id="edge10" class="edge">
<title>40-&gt;A04</title>
<path fill="none" stroke="black" d="M1271.18,-540.85C1134.72,-522.26 917.46,-492.67 761.43,-471.42"/>
<polygon fill="black" stroke="black" points="762.19,-467.99 751.81,-470.11 761.24,-474.92 762.19,-467.99"/>
<text text-anchor="middle" x="1100.37" y="-503.27" font-family="Times,serif" font-size="14.00">Nein</text>
</g>
<!-- 50 -->
<g id="node12" class="node">
<title>50</title>
<path fill="#7aab8a" stroke="black" d="M2069.64,-481.32C2069.64,-481.32 1175.34,-481.32 1175.34,-481.32 1169.34,-481.32 1163.34,-475.32 1163.34,-469.32 1163.34,-469.32 1163.34,-420.04 1163.34,-420.04 1163.34,-414.04 1169.34,-408.04 1175.34,-408.04 1175.34,-408.04 2069.64,-408.04 2069.64,-408.04 2075.64,-408.04 2081.64,-414.04 2081.64,-420.04 2081.64,-420.04 2081.64,-469.32 2081.64,-469.32 2081.64,-475.32 2075.64,-481.32 2069.64,-481.32"/>
<text text-anchor="start" x="1177.74" y="-460.38" font-family="Times,serif" font-weight="bold" font-size="14.00">50: </text>
<text text-anchor="start" x="1206.99" y="-460.38" font-family="Times,serif" font-size="14.00">Sind die mit (-1) multiplizierten Betr&#228;ge der Stornorechnung mit den Betr&#228;gen der urspr&#252;nglichen Rechnung identisch?</text>
<text text-anchor="start" x="1177.74" y="-432.38" font-family="Times,serif" font-size="14.00">Hinweis:</text>
<text text-anchor="start" x="1177.74" y="-418.38" font-family="Times,serif" font-size="14.00">Als Betrag ist der jeweilige Wert des jeweiligen MOA-Segments zu verstehen.</text>
</g>
<!-- 40&#45;&gt;50 -->
<g id="edge11" class="edge">
<title>40-&gt;50</title>
<path fill="none" stroke="black" d="M1433.85,-540.98C1462.32,-526.59 1503.97,-505.55 1540.89,-486.9"/>
<polygon fill="black" stroke="black" points="1542.46,-490.03 1549.81,-482.39 1539.31,-483.78 1542.46,-490.03"/>
<text text-anchor="middle" x="1517.24" y="-503.27" font-family="Times,serif" font-size="14.00">Ja</text>
</g>
<!-- A05 -->
<g id="node13" class="node">
<title>A05</title>
<polygon fill="#cfb986" stroke="black" points="1527.86,-354.79 895.12,-354.79 895.12,-305.27 1527.86,-305.27 1527.86,-354.79"/>
<text text-anchor="start" x="1196.49" y="-336.73" font-family="Times,serif" font-weight="bold" font-size="14.00">A05</text>
<text text-anchor="start" x="907.37" y="-324.63" font-family="Times,serif" text-decoration="underline" font-size="12.00">Hinweis:</text>
<text text-anchor="start" x="907.37" y="-312.63" font-family="Times,serif" font-size="12.00">Mindestens ein Betrag der Stornorechnung passt nicht zu dem Betrag der urspr&#252;nglichen Rechnung.</text>
</g>
<!-- 50&#45;&gt;A05 -->
<g id="edge12" class="edge">
<title>50-&gt;A05</title>
<path fill="none" stroke="black" d="M1490.75,-407.57C1432.32,-391.56 1364.72,-373.03 1310.66,-358.21"/>
<polygon fill="black" stroke="black" points="1311.72,-354.87 1301.15,-355.6 1309.87,-361.62 1311.72,-354.87"/>
<text text-anchor="middle" x="1433.37" y="-376.74" font-family="Times,serif" font-size="14.00">Nein</text>
</g>
<!-- 60 -->
<g id="node14" class="node">
<title>60</title>
<path fill="#7aab8a" stroke="black" d="M1966.64,-348.03C1966.64,-348.03 1558.34,-348.03 1558.34,-348.03 1552.34,-348.03 1546.34,-342.03 1546.34,-336.03 1546.34,-336.03 1546.34,-324.03 1546.34,-324.03 1546.34,-318.03 1552.34,-312.03 1558.34,-312.03 1558.34,-312.03 1966.64,-312.03 1966.64,-312.03 1972.64,-312.03 1978.64,-318.03 1978.64,-324.03 1978.64,-324.03 1978.64,-336.03 1978.64,-336.03 1978.64,-342.03 1972.64,-348.03 1966.64,-348.03"/>
<text text-anchor="start" x="1560.74" y="-326.35" font-family="Times,serif" font-weight="bold" font-size="14.00">60: </text>
<text text-anchor="start" x="1589.99" y="-326.35" font-family="Times,serif" font-size="14.00">Ist ein zuvor nicht spezifizierter Fehler aufgetreten?</text>
</g>
<!-- 50&#45;&gt;60 -->
<g id="edge13" class="edge">
<title>50-&gt;60</title>
<path fill="none" stroke="black" d="M1667.17,-407.73C1688.35,-390.68 1713.11,-370.76 1732.08,-355.5"/>
<polygon fill="black" stroke="black" points="1734.11,-358.35 1739.71,-349.36 1729.73,-352.9 1734.11,-358.35"/>
<text text-anchor="middle" x="1715.24" y="-376.74" font-family="Times,serif" font-size="14.00">Ja</text>
</g>
<!-- A99 -->
<g id="node15" class="node">
<title>A99</title>
<polygon fill="#cfb986" stroke="black" points="1609.11,-252.02 1097.88,-252.02 1097.88,-178.5 1609.11,-178.5 1609.11,-252.02"/>
<text text-anchor="start" x="1338.49" y="-233.96" font-family="Times,serif" font-weight="bold" font-size="14.00">A99</text>
<text text-anchor="start" x="1110.12" y="-221.86" font-family="Times,serif" text-decoration="underline" font-size="12.00">Hinweis:</text>
<text text-anchor="start" x="1110.12" y="-209.86" font-family="Times,serif" font-size="12.00">Ablehnung Sonstiges</text>
<text text-anchor="start" x="1110.12" y="-197.86" font-family="Times,serif" font-size="12.00">Hinweis: Das identifizierte Problem ist in der Antwort zu beschreiben/benennen. </text>
<text text-anchor="start" x="1110.12" y="-185.86" font-family="Times,serif" font-size="12.00">Nutzungsm&#246;glichkeit Ende: 01.04.2026 00:00 Uhr</text>
</g>
<!-- 60&#45;&gt;A99 -->
<g id="edge14" class="edge">
<title>60-&gt;A99</title>
<path fill="none" stroke="black" d="M1699.03,-311.53C1644.94,-296.62 1565.16,-274.62 1495.89,-255.52"/>
<polygon fill="black" stroke="black" points="1496.9,-252.17 1486.33,-252.89 1495.04,-258.92 1496.9,-252.17"/>
<text text-anchor="middle" x="1613.24" y="-273.97" font-family="Times,serif" font-size="14.00">Ja</text>
</g>
<!-- 70 -->
<g id="node16" class="node">
<title>70</title>
<path fill="#7aab8a" stroke="black" d="M2033.89,-233.26C2033.89,-233.26 1639.09,-233.26 1639.09,-233.26 1633.09,-233.26 1627.09,-227.26 1627.09,-221.26 1627.09,-221.26 1627.09,-209.26 1627.09,-209.26 1627.09,-203.26 1633.09,-197.26 1639.09,-197.26 1639.09,-197.26 2033.89,-197.26 2033.89,-197.26 2039.89,-197.26 2045.89,-203.26 2045.89,-209.26 2045.89,-209.26 2045.89,-221.26 2045.89,-221.26 2045.89,-227.26 2039.89,-233.26 2033.89,-233.26"/>
<text text-anchor="start" x="1641.49" y="-211.58" font-family="Times,serif" font-weight="bold" font-size="14.00">70: </text>
<text text-anchor="start" x="1670.74" y="-211.58" font-family="Times,serif" font-size="14.00">Wurde der urspr&#252;nglichen Rechnung zugestimmt?</text>
</g>
<!-- 60&#45;&gt;70 -->
<g id="edge15" class="edge">
<title>60-&gt;70</title>
<path fill="none" stroke="black" d="M1773.73,-311.9C1785.74,-293.6 1804.93,-264.36 1818.93,-243.02"/>
<polygon fill="black" stroke="black" points="1821.75,-245.09 1824.31,-234.81 1815.9,-241.25 1821.75,-245.09"/>
<text text-anchor="middle" x="1816.37" y="-273.97" font-family="Times,serif" font-size="14.00">Nein</text>
</g>
<!-- Ende -->
<g id="node17" class="node">
<title>Ende</title>
<polygon fill="#7a8da1" stroke="black" points="1699.27,-36 1633.71,-36 1633.71,0 1699.27,0 1699.27,-36"/>
<text text-anchor="middle" x="1666.49" y="-13.32" font-family="Times,serif" font-size="14.00">Ende</text>
</g>
<!-- 70&#45;&gt;Ende -->
<g id="edge16" class="edge">
<title>70-&gt;Ende</title>
<path fill="none" stroke="black" d="M1762.81,-196.89C1725.09,-183.86 1682.48,-161.78 1659.99,-125.25 1645.63,-101.93 1650.07,-70.01 1656.36,-47.26"/>
<polygon fill="black" stroke="black" points="1659.7,-48.33 1659.28,-37.74 1653,-46.27 1659.7,-48.33"/>
<text text-anchor="middle" x="1666.24" y="-102.58" font-family="Times,serif" font-size="14.00">Ja</text>
</g>
<!-- 80 -->
<g id="node18" class="node">
<title>80</title>
<path fill="#7aab8a" stroke="black" d="M2064.51,-125.25C2064.51,-125.25 1694.46,-125.25 1694.46,-125.25 1688.46,-125.25 1682.46,-119.25 1682.46,-113.25 1682.46,-113.25 1682.46,-101.25 1682.46,-101.25 1682.46,-95.25 1688.46,-89.25 1694.46,-89.25 1694.46,-89.25 2064.51,-89.25 2064.51,-89.25 2070.51,-89.25 2076.51,-95.25 2076.51,-101.25 2076.51,-101.25 2076.51,-113.25 2076.51,-113.25 2076.51,-119.25 2070.51,-125.25 2064.51,-125.25"/>
<text text-anchor="start" x="1696.87" y="-103.58" font-family="Times,serif" font-weight="bold" font-size="14.00">80: </text>
<text text-anchor="start" x="1726.12" y="-103.58" font-family="Times,serif" font-size="14.00">Wurde die urspr&#252;ngliche Rechnung abgelehnt?</text>
</g>
<!-- 70&#45;&gt;80 -->
<g id="edge17" class="edge">
<title>70-&gt;80</title>
<path fill="none" stroke="black" d="M1843.4,-197.23C1850.07,-180.79 1860.28,-155.61 1868.14,-136.23"/>
<polygon fill="black" stroke="black" points="1871.37,-137.58 1871.89,-126.99 1864.88,-134.95 1871.37,-137.58"/>
<text text-anchor="middle" x="1880.37" y="-147.2" font-family="Times,serif" font-size="14.00">Nein</text>
</g>
<!-- 80&#45;&gt;Ende -->
<g id="edge18" class="edge">
<title>80-&gt;Ende</title>
<path fill="none" stroke="black" d="M1836.9,-88.8C1800.1,-73.73 1747.16,-52.04 1710.07,-36.85"/>
<polygon fill="black" stroke="black" points="1711.57,-33.68 1700.99,-33.13 1708.92,-40.16 1711.57,-33.68"/>
<text text-anchor="middle" x="1808.37" y="-57.95" font-family="Times,serif" font-size="14.00">Nein</text>
</g>
</g>
</svg>
  </g>
</svg>
  </g>
</svg>
