<?xml version='1.0' encoding='ASCII' standalone='yes'?>
<svg xmlns="http://www.w3.org/2000/svg" xmlns:xlink="http://www.w3.org/1999/xlink" version="1.1" width="1920.0px" viewBox="0 0 1920.0 408.0" height="408.0px">
  <g>
    <svg version="1.1" width="1920.0px" viewBox="0 0 1920.0 408.0" height="408.0px">
  <polygon fill="#f3f1f6" points="0,0 1920.0,0 1920.0,408.0 0,408.0"/><g>
    <g transform="translate(796.921056134821, 40.79999999999999) scale(1 1) translate(0, 0) scale(1.8452272665343727 1.8452272665343727) "><sodipodi:namedview xmlns:sodipodi="http://sodipodi.sourceforge.net/DTD/sodipodi-0.dtd" xmlns:inkscape="http://www.inkscape.org/namespaces/inkscape" id="namedview7" pagecolor="#ffffff" bordercolor="#999999" borderopacity="1" inkscape:pageshadow="0" inkscape:pageopacity="0" inkscape:pagecheckerboard="0" inkscape:document-units="mm" showgrid="false" fit-margin-top="0" fit-margin-left="0" fit-margin-right="0" fit-margin-bottom="0" inkscape:zoom="0.64052329" inkscape:cx="130.36216" inkscape:cy="412.163" inkscape:window-width="1512" inkscape:window-height="916" inkscape:window-x="3840" inkscape:window-y="136" inkscape:window-maximized="0" inkscape:current-layer="layer1"/>
  <defs id="defs2">
    <clipPath clipPathUnits="userSpaceOnUse" id="clipPath23">
      <path d="M 0,568.156 H 579.236 V 0 H 0 Z" id="path21"/>
    </clipPath>
  </defs>
  <g xmlns:inkscape="http://www.inkscape.org/namespaces/inkscape" inkscape:label="Layer 1" inkscape:groupmode="layer" id="layer1" transform="translate(-16.541937,-55.305267)">
    <g id="g19" clip-path="url(#clipPath23)" transform="matrix(0.35277777,0,0,-0.35277777,0.01017023,243.73675)" style="opacity:0.2">
      <g id="g25" transform="translate(122.444,32.7195)">
        <path d="m 0,0 h -56.104 c -11,0 -19.898,9.123 -19.463,20.115 10.594,267.191 231.277,481.302 501.029,481.302 v -56.02 c 0,-10.98 -8.688,-19.892 -19.658,-20.393 C 180.29,414.697 0,228.005 0,0" style="fill:#6ead83;fill-opacity:0.5;fill-rule:nonzero;stroke:none" id="path27"/>
      </g>
      <g id="g29" transform="translate(273.7828,32.7195)">
        <path d="m 0,0 h -55.926 c -11.228,0 -20.091,9.482 -19.435,20.69 10.744,183.439 163.389,329.388 349.485,329.388 v -56.263 c 0,-10.709 -8.273,-19.617 -18.957,-20.35 C 112.819,263.696 0,144.774 0,0" style="fill:#6ead83;fill-opacity:0.5;fill-rule:nonzero;stroke:none" id="path31"/>
      </g>
      <g id="g33" transform="translate(425.7667,32.7195)">
        <path d="m 0,0 h -55.445 c -11.653,0 -20.604,10.17 -19.334,21.753 10.866,99.032 95.031,176.341 196.919,176.341 v -57.011 c 0,-10.046 -7.283,-18.755 -17.229,-20.165 C 45.688,112.522 0,61.497 0,0" style="fill:#6ead83;fill-opacity:0.5;fill-rule:nonzero;stroke:none" id="path35"/>
      </g>
    </g>
  </g>
</g>
    <svg width="1440pt" height="306pt" viewBox="0.00 0.00 1440.00 305.51">
<g id="graph0" class="graph" transform="scale(0.353449 0.353449) rotate(0) translate(4 860.37)">
<title>D</title>
<text text-anchor="start" x="2004.2" y="-836.27" font-family="Times,serif" font-weight="bold" font-size="18.00">GPKE</text>
<text text-anchor="start" x="1688.07" y="-806.17" font-family="Times,serif" font-weight="bold" font-size="16.00">6.18.1: AD: Bestellung einer &#196;nderung von Abrechnungsdaten von LF an NB</text>
<!-- Start -->
<g id="node1" class="node">
<title>Start</title>
<polygon fill="#7a8da1" stroke="black" points="1607.27,-758.37 1447.21,-758.37 1447.21,-715.09 1607.27,-715.09 1607.27,-758.37"/>
<text text-anchor="start" x="1499.12" y="-737.43" font-family="Times,serif" font-weight="bold" font-size="14.00">E_0595</text>
<text text-anchor="start" x="1461.62" y="-725.33" font-family="Times,serif" font-weight="bold" text-decoration="underline" font-size="12.00">Pr&#252;fende Rolle:</text>
<text text-anchor="start" x="1566.62" y="-725.33" font-family="Times,serif" font-weight="bold" font-size="12.00"> NB</text>
</g>
<!-- 10 -->
<g id="node2" class="node">
<title>10</title>
<path fill="#7aab8a" stroke="black" d="M1825.89,-678.09C1825.89,-678.09 1228.59,-678.09 1228.59,-678.09 1222.59,-678.09 1216.59,-672.09 1216.59,-666.09 1216.59,-666.09 1216.59,-654.09 1216.59,-654.09 1216.59,-648.09 1222.59,-642.09 1228.59,-642.09 1228.59,-642.09 1825.89,-642.09 1825.89,-642.09 1831.89,-642.09 1837.89,-648.09 1837.89,-654.09 1837.89,-654.09 1837.89,-666.09 1837.89,-666.09 1837.89,-672.09 1831.89,-678.09 1825.89,-678.09"/>
<text text-anchor="start" x="1230.99" y="-656.41" font-family="Times,serif" font-weight="bold" font-size="14.00">10: </text>
<text text-anchor="start" x="1260.24" y="-656.41" font-family="Times,serif" font-size="14.00">Handelt es sich bei dem Anwendungsfall um eine Bestellung mittels ORDERS?</text>
</g>
<!-- Start&#45;&gt;10 -->
<g id="edge1" class="edge">
<title>Start-&gt;10</title>
<path fill="none" stroke="black" d="M1527.24,-714.94C1527.24,-707.08 1527.24,-698 1527.24,-689.56"/>
<polygon fill="black" stroke="black" points="1530.74,-689.76 1527.24,-679.76 1523.74,-689.76 1530.74,-689.76"/>
</g>
<!-- 15 -->
<g id="node3" class="node">
<title>15</title>
<path fill="#7aab8a" stroke="black" d="M1182.52,-577.2C1182.52,-577.2 357.96,-577.2 357.96,-577.2 351.96,-577.2 345.96,-571.2 345.96,-565.2 345.96,-565.2 345.96,-553.2 345.96,-553.2 345.96,-547.2 351.96,-541.2 357.96,-541.2 357.96,-541.2 1182.52,-541.2 1182.52,-541.2 1188.52,-541.2 1194.52,-547.2 1194.52,-553.2 1194.52,-553.2 1194.52,-565.2 1194.52,-565.2 1194.52,-571.2 1188.52,-577.2 1182.52,-577.2"/>
<text text-anchor="start" x="360.37" y="-555.52" font-family="Times,serif" font-weight="bold" font-size="14.00">15: </text>
<text text-anchor="start" x="389.62" y="-555.52" font-family="Times,serif" font-size="14.00">Handelt es sich um eine Bestellung &#196;nderung Netzentgelte aufgrund netzorientierter Steuerungsmo&#776;glichkeit?</text>
</g>
<!-- 10&#45;&gt;15 -->
<g id="edge2" class="edge">
<title>10-&gt;15</title>
<path fill="none" stroke="black" d="M1393.65,-641.64C1259.44,-624.11 1053.24,-597.17 915.15,-579.13"/>
<polygon fill="black" stroke="black" points="915.96,-575.71 905.59,-577.88 915.05,-582.65 915.96,-575.71"/>
<text text-anchor="middle" x="1244.99" y="-610.79" font-family="Times,serif" font-size="14.00">Ja</text>
</g>
<!-- 210 -->
<g id="node12" class="node">
<title>210</title>
<path fill="#7aab8a" stroke="black" d="M3345.51,-588.84C3345.51,-588.84 1224.96,-588.84 1224.96,-588.84 1218.96,-588.84 1212.96,-582.84 1212.96,-576.84 1212.96,-576.84 1212.96,-541.56 1212.96,-541.56 1212.96,-535.56 1218.96,-529.56 1224.96,-529.56 1224.96,-529.56 3345.51,-529.56 3345.51,-529.56 3351.51,-529.56 3357.51,-535.56 3357.51,-541.56 3357.51,-541.56 3357.51,-576.84 3357.51,-576.84 3357.51,-582.84 3351.51,-588.84 3345.51,-588.84"/>
<text text-anchor="start" x="1227.36" y="-567.9" font-family="Times,serif" font-weight="bold" font-size="14.00">210: </text>
<text text-anchor="start" x="1266.36" y="-567.9" font-family="Times,serif" font-size="14.00">Stimmen alle Stammdaten f&#252;r Verwendungszeitr&#228;ume, welche mit &#8222;Im System vorhandene Daten&#8220; gekennzeichnet sind, sowie Verwendungszeitr&#228;ume welche mit &#8222;Im System keine Daten vorhanden&#8220; gekennzeichnet sind, mit dem beim Verantwortlichen vorliegenden Stammdaten &#252;berein?</text>
<text text-anchor="start" x="1227.36" y="-553.9" font-family="Times,serif" font-size="14.00">Hinweis:</text>
<text text-anchor="start" x="1227.36" y="-539.9" font-family="Times,serif" font-size="14.00">Dies ist f&#252;r jeden in der Anfrage vorhandenen Verwendungszeitraum jeweils f&#252;r den gesamten Zeitraum zu pr&#252;fen.</text>
</g>
<!-- 10&#45;&gt;210 -->
<g id="edge3" class="edge">
<title>10-&gt;210</title>
<path fill="none" stroke="black" d="M1661.01,-641.64C1768.8,-627.58 1922.96,-607.46 2051.11,-590.75"/>
<polygon fill="black" stroke="black" points="2051.28,-594.25 2060.75,-589.49 2050.38,-587.31 2051.28,-594.25"/>
<text text-anchor="middle" x="1923.12" y="-610.79" font-family="Times,serif" font-size="14.00">Nein</text>
</g>
<!-- 17 -->
<g id="node4" class="node">
<title>17</title>
<path fill="#7aab8a" stroke="black" d="M670.26,-476.31C670.26,-476.31 12.22,-476.31 12.22,-476.31 6.22,-476.31 0.22,-470.31 0.22,-464.31 0.22,-464.31 0.22,-452.31 0.22,-452.31 0.22,-446.31 6.22,-440.31 12.22,-440.31 12.22,-440.31 670.26,-440.31 670.26,-440.31 676.26,-440.31 682.26,-446.31 682.26,-452.31 682.26,-452.31 682.26,-464.31 682.26,-464.31 682.26,-470.31 676.26,-476.31 670.26,-476.31"/>
<text text-anchor="start" x="14.62" y="-454.63" font-family="Times,serif" font-weight="bold" font-size="14.00">17: </text>
<text text-anchor="start" x="43.87" y="-454.63" font-family="Times,serif" font-size="14.00">Wurde die Vorlauffrist von&#160;mindestens 2 WT vor dem A&#776;nderungszeitpunkt eingehalten?</text>
</g>
<!-- 15&#45;&gt;17 -->
<g id="edge4" class="edge">
<title>15-&gt;17</title>
<path fill="none" stroke="black" d="M694.53,-540.75C619.87,-523.54 505.88,-497.26 427.7,-479.24"/>
<polygon fill="black" stroke="black" points="428.92,-475.93 418.39,-477.09 427.35,-482.75 428.92,-475.93"/>
<text text-anchor="middle" x="561.99" y="-498.26" font-family="Times,serif" font-size="14.00">Ja</text>
</g>
<!-- 18 -->
<g id="node6" class="node">
<title>18</title>
<path fill="#7aab8a" stroke="black" d="M1396.39,-476.31C1396.39,-476.31 712.09,-476.31 712.09,-476.31 706.09,-476.31 700.09,-470.31 700.09,-464.31 700.09,-464.31 700.09,-452.31 700.09,-452.31 700.09,-446.31 706.09,-440.31 712.09,-440.31 712.09,-440.31 1396.39,-440.31 1396.39,-440.31 1402.39,-440.31 1408.39,-446.31 1408.39,-452.31 1408.39,-452.31 1408.39,-464.31 1408.39,-464.31 1408.39,-470.31 1402.39,-476.31 1396.39,-476.31"/>
<text text-anchor="start" x="714.49" y="-454.63" font-family="Times,serif" font-weight="bold" font-size="14.00">18: </text>
<text text-anchor="start" x="743.74" y="-454.63" font-family="Times,serif" font-size="14.00">Handelt es sich um eine Bestellung &#196;nderung Bilanzkreis bzw. Jahresverbrauchsprognose?</text>
</g>
<!-- 15&#45;&gt;18 -->
<g id="edge5" class="edge">
<title>15-&gt;18</title>
<path fill="none" stroke="black" d="M820.36,-540.75C868.68,-523.92 941.86,-498.44 993.48,-480.47"/>
<polygon fill="black" stroke="black" points="994.42,-483.85 1002.72,-477.25 992.12,-477.23 994.42,-483.85"/>
<text text-anchor="middle" x="962.12" y="-498.26" font-family="Times,serif" font-size="14.00">Nein</text>
</g>
<!-- A21 -->
<g id="node5" class="node">
<title>A21</title>
<polygon fill="#cfb986" stroke="black" points="312.48,-369.06 0,-369.06 0,-307.54 312.48,-307.54 312.48,-369.06"/>
<text text-anchor="start" x="141.24" y="-351" font-family="Times,serif" font-weight="bold" font-size="14.00">A21</text>
<text text-anchor="start" x="12.24" y="-338.9" font-family="Times,serif" text-decoration="underline" font-size="12.00">Hinweis:</text>
<text text-anchor="start" x="12.24" y="-326.9" font-family="Times,serif" font-size="12.00">Cluster: keine &#196;nderung der Daten</text>
<text text-anchor="start" x="12.24" y="-314.9" font-family="Times,serif" font-size="12.00">Die Frist zur &#196;nderung wurde nicht eingehalten</text>
</g>
<!-- 17&#45;&gt;A21 -->
<g id="edge6" class="edge">
<title>17-&gt;A21</title>
<path fill="none" stroke="black" d="M313.94,-439.9C287.51,-423.03 246.61,-396.95 213.09,-375.56"/>
<polygon fill="black" stroke="black" points="214.99,-372.62 204.67,-370.2 211.22,-378.52 214.99,-372.62"/>
<text text-anchor="middle" x="298.12" y="-409.01" font-family="Times,serif" font-size="14.00">Nein</text>
</g>
<!-- 20 -->
<g id="node9" class="node">
<title>20</title>
<path fill="#7aab8a" stroke="black" d="M566.39,-205.53C566.39,-205.53 230.09,-205.53 230.09,-205.53 224.09,-205.53 218.09,-199.53 218.09,-193.53 218.09,-193.53 218.09,-181.53 218.09,-181.53 218.09,-175.53 224.09,-169.53 230.09,-169.53 230.09,-169.53 566.39,-169.53 566.39,-169.53 572.39,-169.53 578.39,-175.53 578.39,-181.53 578.39,-181.53 578.39,-193.53 578.39,-193.53 578.39,-199.53 572.39,-205.53 566.39,-205.53"/>
<text text-anchor="start" x="232.49" y="-183.85" font-family="Times,serif" font-weight="bold" font-size="14.00">20: </text>
<text text-anchor="start" x="261.74" y="-183.85" font-family="Times,serif" font-size="14.00">Konnte die Bestellung umgesetzt werden?</text>
</g>
<!-- 17&#45;&gt;20 -->
<g id="edge7" class="edge">
<title>17-&gt;20</title>
<path fill="none" stroke="black" d="M339.17,-439.93C336.23,-407.77 334,-337.87 362.74,-289.54 372.69,-272.82 395.14,-283.12 398.24,-263.91"/>
<path fill="none" stroke="black" d="M398.24,-261.91C399.98,-247.14 400.13,-230.57 399.78,-216.92"/>
<polygon fill="black" stroke="black" points="403.3,-217.17 399.43,-207.31 396.3,-217.43 403.3,-217.17"/>
<text text-anchor="middle" x="368.99" y="-333.62" font-family="Times,serif" font-size="14.00">Ja</text>
</g>
<!-- 19 -->
<g id="node7" class="node">
<title>19</title>
<path fill="#7aab8a" stroke="black" d="M1120.26,-356.3C1120.26,-356.3 462.22,-356.3 462.22,-356.3 456.22,-356.3 450.22,-350.3 450.22,-344.3 450.22,-344.3 450.22,-332.3 450.22,-332.3 450.22,-326.3 456.22,-320.3 462.22,-320.3 462.22,-320.3 1120.26,-320.3 1120.26,-320.3 1126.26,-320.3 1132.26,-326.3 1132.26,-332.3 1132.26,-332.3 1132.26,-344.3 1132.26,-344.3 1132.26,-350.3 1126.26,-356.3 1120.26,-356.3"/>
<text text-anchor="start" x="464.62" y="-334.62" font-family="Times,serif" font-weight="bold" font-size="14.00">19: </text>
<text text-anchor="start" x="493.87" y="-334.62" font-family="Times,serif" font-size="14.00">Wurde die Vorlauffrist von mindestens 7 WT vor dem &#196;nderungszeitpunkt eingehalten?</text>
</g>
<!-- 18&#45;&gt;19 -->
<g id="edge8" class="edge">
<title>18-&gt;19</title>
<path fill="none" stroke="black" d="M1015.43,-439.9C969.01,-419.07 891.23,-384.17 840.58,-361.44"/>
<polygon fill="black" stroke="black" points="842.14,-358.3 831.59,-357.4 839.28,-364.69 842.14,-358.3"/>
<text text-anchor="middle" x="974.99" y="-409.01" font-family="Times,serif" font-size="14.00">Ja</text>
</g>
<!-- 18&#45;&gt;20 -->
<g id="edge9" class="edge">
<title>18-&gt;20</title>
<path fill="none" stroke="black" d="M724.64,-439.83C577.33,-428.69 431.27,-411.64 407.49,-387.06 369.33,-347.61 391.82,-318.42 398.24,-263.91"/>
<text text-anchor="middle" x="424.12" y="-333.62" font-family="Times,serif" font-size="14.00">Nein</text>
</g>
<!-- A22 -->
<g id="node8" class="node">
<title>A22</title>
<polygon fill="#cfb986" stroke="black" points="1207.73,-218.29 596.75,-218.29 596.75,-156.77 1207.73,-156.77 1207.73,-218.29"/>
<text text-anchor="start" x="887.24" y="-200.23" font-family="Times,serif" font-weight="bold" font-size="14.00">A22</text>
<text text-anchor="start" x="608.99" y="-188.13" font-family="Times,serif" text-decoration="underline" font-size="12.00">Hinweis:</text>
<text text-anchor="start" x="608.99" y="-176.13" font-family="Times,serif" font-size="12.00">Cluster: keine &#196;nderung der Daten</text>
<text text-anchor="start" x="608.99" y="-164.13" font-family="Times,serif" font-size="12.00">Die Frist zur &#196;nderung von Bilanzkreis oder Jahresverbrauchsprognose wurde nicht eingehalten.</text>
</g>
<!-- 19&#45;&gt;A22 -->
<g id="edge10" class="edge">
<title>19-&gt;A22</title>
<path fill="none" stroke="black" d="M804.19,-319.94C820.98,-297.44 850.76,-257.52 873.11,-227.57"/>
<polygon fill="black" stroke="black" points="875.7,-229.95 878.88,-219.84 870.09,-225.76 875.7,-229.95"/>
<text text-anchor="middle" x="866.12" y="-258.24" font-family="Times,serif" font-size="14.00">Nein</text>
</g>
<!-- 19&#45;&gt;20 -->
<g id="edge11" class="edge">
<title>19-&gt;20</title>
<path fill="none" stroke="black" d="M745.39,-319.94C673.26,-292.64 533.44,-239.71 455.05,-210.03"/>
<polygon fill="black" stroke="black" points="456.41,-206.81 445.82,-206.54 453.94,-213.36 456.41,-206.81"/>
<text text-anchor="middle" x="612.99" y="-258.24" font-family="Times,serif" font-size="14.00">Ja</text>
</g>
<!-- A20 -->
<g id="node10" class="node">
<title>A20</title>
<polygon fill="#cfb986" stroke="black" points="490.36,-79.52 102.12,-79.52 102.12,-6 490.36,-6 490.36,-79.52"/>
<text text-anchor="start" x="281.24" y="-61.46" font-family="Times,serif" font-weight="bold" font-size="14.00">A20</text>
<text text-anchor="start" x="114.37" y="-49.36" font-family="Times,serif" text-decoration="underline" font-size="12.00">Hinweis:</text>
<text text-anchor="start" x="114.37" y="-37.36" font-family="Times,serif" font-size="12.00">Cluster: &#196;nderung der Daten</text>
<text text-anchor="start" x="114.37" y="-25.36" font-family="Times,serif" font-size="12.00">Der Bestellung der Stammdaten konnte zugestimmt werden.</text>
<text text-anchor="start" x="114.37" y="-13.36" font-family="Times,serif" font-size="12.00">Hinweis: NB versendet neue Stammdaten</text>
</g>
<!-- 20&#45;&gt;A20 -->
<g id="edge12" class="edge">
<title>20-&gt;A20</title>
<path fill="none" stroke="black" d="M385.94,-169.31C371.86,-149.6 348.24,-116.54 328.77,-89.3"/>
<polygon fill="black" stroke="black" points="331.62,-87.26 322.96,-81.16 325.93,-91.33 331.62,-87.26"/>
<text text-anchor="middle" x="356.99" y="-107.47" font-family="Times,serif" font-size="14.00">Ja</text>
</g>
<!-- A99 -->
<g id="node11" class="node">
<title>A99</title>
<polygon fill="#cfb986" stroke="black" points="1015.98,-85.52 508.5,-85.52 508.5,0 1015.98,0 1015.98,-85.52"/>
<text text-anchor="start" x="747.24" y="-67.46" font-family="Times,serif" font-weight="bold" font-size="14.00">A99</text>
<text text-anchor="start" x="520.74" y="-55.36" font-family="Times,serif" text-decoration="underline" font-size="12.00">Hinweis:</text>
<text text-anchor="start" x="520.74" y="-43.36" font-family="Times,serif" font-size="12.00">Cluster: keine &#196;nderung der Daten</text>
<text text-anchor="start" x="520.74" y="-31.36" font-family="Times,serif" font-size="12.00">Der Bestellung der Stammdaten konnte nicht zugestimmt werden.</text>
<text text-anchor="start" x="520.74" y="-19.36" font-family="Times,serif" font-size="12.00">Hinweis: Das identifizierte Problem ist in der Antwort zu beschreiben/benennen.</text>
<text text-anchor="start" x="520.74" y="-7.36" font-family="Times,serif" font-size="12.00">Nutzungsm&#246;glichkeit Ende: offen</text>
</g>
<!-- 20&#45;&gt;A99 -->
<g id="edge13" class="edge">
<title>20-&gt;A99</title>
<path fill="none" stroke="black" d="M442.51,-169.17C492.34,-149.62 575.34,-117.07 644.29,-90.02"/>
<polygon fill="black" stroke="black" points="645.35,-93.37 653.38,-86.46 642.79,-86.85 645.35,-93.37"/>
<text text-anchor="middle" x="618.12" y="-107.47" font-family="Times,serif" font-size="14.00">Nein</text>
</g>
<!-- 220 -->
<g id="node13" class="node">
<title>220</title>
<path fill="#7aab8a" stroke="black" d="M2725.14,-476.31C2725.14,-476.31 1505.34,-476.31 1505.34,-476.31 1499.34,-476.31 1493.34,-470.31 1493.34,-464.31 1493.34,-464.31 1493.34,-452.31 1493.34,-452.31 1493.34,-446.31 1499.34,-440.31 1505.34,-440.31 1505.34,-440.31 2725.14,-440.31 2725.14,-440.31 2731.14,-440.31 2737.14,-446.31 2737.14,-452.31 2737.14,-452.31 2737.14,-464.31 2737.14,-464.31 2737.14,-470.31 2731.14,-476.31 2725.14,-476.31"/>
<text text-anchor="start" x="1507.74" y="-454.63" font-family="Times,serif" font-weight="bold" font-size="14.00">220: </text>
<text text-anchor="start" x="1546.74" y="-454.63" font-family="Times,serif" font-size="14.00">Sind in der Bestellung der Stammdaten&#228;nderung Verwendungszeitr&#228;ume der Daten mit dem Code &#8222;Erwartete Daten&#8220; und / oder &#8222;Keine Daten erwartet&#8220; enthalten?</text>
</g>
<!-- 210&#45;&gt;220 -->
<g id="edge14" class="edge">
<title>210-&gt;220</title>
<path fill="none" stroke="black" d="M2235.15,-529.06C2209.62,-514.21 2178.99,-496.39 2155.08,-482.48"/>
<polygon fill="black" stroke="black" points="2156.99,-479.55 2146.59,-477.54 2153.47,-485.6 2156.99,-479.55"/>
<text text-anchor="middle" x="2206.99" y="-498.26" font-family="Times,serif" font-size="14.00">Ja</text>
</g>
<!-- 240 -->
<g id="node18" class="node">
<title>240</title>
<path fill="#7aab8a" stroke="black" d="M3987.14,-476.31C3987.14,-476.31 2767.34,-476.31 2767.34,-476.31 2761.34,-476.31 2755.34,-470.31 2755.34,-464.31 2755.34,-464.31 2755.34,-452.31 2755.34,-452.31 2755.34,-446.31 2761.34,-440.31 2767.34,-440.31 2767.34,-440.31 3987.14,-440.31 3987.14,-440.31 3993.14,-440.31 3999.14,-446.31 3999.14,-452.31 3999.14,-452.31 3999.14,-464.31 3999.14,-464.31 3999.14,-470.31 3993.14,-476.31 3987.14,-476.31"/>
<text text-anchor="start" x="2769.74" y="-454.63" font-family="Times,serif" font-weight="bold" font-size="14.00">240: </text>
<text text-anchor="start" x="2808.74" y="-454.63" font-family="Times,serif" font-size="14.00">Sind in der Bestellung der Stammdaten&#228;nderung Verwendungszeitr&#228;ume der Daten mit dem Code &#8222;Erwartete Daten&#8220; und / oder &#8222;Keine Daten erwartet&#8220; enthalten?</text>
</g>
<!-- 210&#45;&gt;240 -->
<g id="edge15" class="edge">
<title>210-&gt;240</title>
<path fill="none" stroke="black" d="M2606.97,-529.06C2790.06,-512.48 3013.86,-492.22 3172.95,-477.81"/>
<polygon fill="black" stroke="black" points="3173.14,-481.31 3182.78,-476.92 3172.51,-474.34 3173.14,-481.31"/>
<text text-anchor="middle" x="2977.11" y="-498.26" font-family="Times,serif" font-size="14.00">Nein</text>
</g>
<!-- A01 -->
<g id="node14" class="node">
<title>A01</title>
<polygon fill="#cfb986" stroke="black" points="1770.23,-387.06 1150.25,-387.06 1150.25,-289.54 1770.23,-289.54 1770.23,-387.06"/>
<text text-anchor="start" x="1445.24" y="-369" font-family="Times,serif" font-weight="bold" font-size="14.00">A01</text>
<text text-anchor="start" x="1162.49" y="-356.9" font-family="Times,serif" text-decoration="underline" font-size="12.00">Hinweis:</text>
<text text-anchor="start" x="1162.49" y="-344.9" font-family="Times,serif" font-size="12.00">Cluster: keine &#196;nderung der Daten</text>
<text text-anchor="start" x="1162.49" y="-332.9" font-family="Times,serif" font-size="12.00">Der Verantwortliche teilt in dem Bearbeitungsstand der Stammdaten mit: </text>
<text text-anchor="start" x="1162.49" y="-320.9" font-family="Times,serif" font-size="12.00">- Die beim Berechtigten vorliegenden Daten stimmen mit den Daten des Verantwortlichen &#252;berein. </text>
<text text-anchor="start" x="1162.49" y="-308.9" font-family="Times,serif" font-size="12.00">- Es wurden keine Stammdaten zur &#196;nderung angegeben. </text>
<text text-anchor="start" x="1162.49" y="-296.9" font-family="Times,serif" font-size="12.00">Eine Stammdaten&#228;nderung wird nicht versendet.</text>
</g>
<!-- 220&#45;&gt;A01 -->
<g id="edge16" class="edge">
<title>220-&gt;A01</title>
<path fill="none" stroke="black" d="M2018.24,-439.83C1944.36,-426.52 1838.73,-407.49 1739.21,-389.56"/>
<polygon fill="black" stroke="black" points="1740,-386.15 1729.53,-387.82 1738.75,-393.04 1740,-386.15"/>
<text text-anchor="middle" x="1920.12" y="-409.01" font-family="Times,serif" font-size="14.00">Nein</text>
</g>
<!-- 230 -->
<g id="node15" class="node">
<title>230</title>
<path fill="#7aab8a" stroke="black" d="M2570.14,-356.3C2570.14,-356.3 1800.34,-356.3 1800.34,-356.3 1794.34,-356.3 1788.34,-350.3 1788.34,-344.3 1788.34,-344.3 1788.34,-332.3 1788.34,-332.3 1788.34,-326.3 1794.34,-320.3 1800.34,-320.3 1800.34,-320.3 2570.14,-320.3 2570.14,-320.3 2576.14,-320.3 2582.14,-326.3 2582.14,-332.3 2582.14,-332.3 2582.14,-344.3 2582.14,-344.3 2582.14,-350.3 2576.14,-356.3 2570.14,-356.3"/>
<text text-anchor="start" x="1802.74" y="-334.62" font-family="Times,serif" font-weight="bold" font-size="14.00">230: </text>
<text text-anchor="start" x="1841.74" y="-334.62" font-family="Times,serif" font-size="14.00">Kommt der Verantwortliche zu dem Ergebnis, dass er &#196;nderungen an seinen Stammdaten vornimmt?</text>
</g>
<!-- 220&#45;&gt;230 -->
<g id="edge17" class="edge">
<title>220-&gt;230</title>
<path fill="none" stroke="black" d="M2125.57,-439.9C2137.05,-420.55 2155.72,-389.06 2169.13,-366.46"/>
<polygon fill="black" stroke="black" points="2172.01,-368.47 2174.1,-358.09 2165.98,-364.9 2172.01,-368.47"/>
<text text-anchor="middle" x="2151.99" y="-409.01" font-family="Times,serif" font-size="14.00">Ja</text>
</g>
<!-- A02 -->
<g id="node16" class="node">
<title>A02</title>
<polygon fill="#cfb986" stroke="black" points="1941.36,-236.29 1325.12,-236.29 1325.12,-138.77 1941.36,-138.77 1941.36,-236.29"/>
<text text-anchor="start" x="1618.24" y="-218.23" font-family="Times,serif" font-weight="bold" font-size="14.00">A02</text>
<text text-anchor="start" x="1337.37" y="-206.13" font-family="Times,serif" text-decoration="underline" font-size="12.00">Hinweis:</text>
<text text-anchor="start" x="1337.37" y="-194.13" font-family="Times,serif" font-size="12.00">Cluster: &#196;nderung der Daten</text>
<text text-anchor="start" x="1337.37" y="-182.13" font-family="Times,serif" font-size="12.00">Der Verantwortliche teilt in dem Bearbeitungstand der Stammdaten mit:</text>
<text text-anchor="start" x="1337.37" y="-170.13" font-family="Times,serif" font-size="12.00">- Die beim Berechtigten vorliegenden Daten stimmen mit den Daten des Verantwortlichen &#252;berein.</text>
<text text-anchor="start" x="1337.37" y="-158.13" font-family="Times,serif" font-size="12.00">- &#196;nderungen an den Stammdaten werden vorgenommen. </text>
<text text-anchor="start" x="1337.37" y="-146.13" font-family="Times,serif" font-size="12.00">Eine Stammdaten&#228;nderung wird versendet.</text>
</g>
<!-- 230&#45;&gt;A02 -->
<g id="edge18" class="edge">
<title>230-&gt;A02</title>
<path fill="none" stroke="black" d="M2120.57,-319.87C2047.91,-300.29 1926.6,-267.59 1823.19,-239.72"/>
<polygon fill="black" stroke="black" points="1824.31,-236.4 1813.75,-237.18 1822.49,-243.16 1824.31,-236.4"/>
<text text-anchor="middle" x="1931.99" y="-258.24" font-family="Times,serif" font-size="14.00">Ja</text>
</g>
<!-- A03 -->
<g id="node17" class="node">
<title>A03</title>
<polygon fill="#cfb986" stroke="black" points="2575.35,-236.29 1959.12,-236.29 1959.12,-138.77 2575.35,-138.77 2575.35,-236.29"/>
<text text-anchor="start" x="2252.24" y="-218.23" font-family="Times,serif" font-weight="bold" font-size="14.00">A03</text>
<text text-anchor="start" x="1971.36" y="-206.13" font-family="Times,serif" text-decoration="underline" font-size="12.00">Hinweis:</text>
<text text-anchor="start" x="1971.36" y="-194.13" font-family="Times,serif" font-size="12.00">Cluster: keine &#196;nderung der Daten</text>
<text text-anchor="start" x="1971.36" y="-182.13" font-family="Times,serif" font-size="12.00">Der Verantwortliche teilt in dem Bearbeitungsstand der Stammdaten mit:</text>
<text text-anchor="start" x="1971.36" y="-170.13" font-family="Times,serif" font-size="12.00">- Die beim Berechtigten vorliegenden Daten stimmen mit den Daten des Verantwortlichen &#252;berein.</text>
<text text-anchor="start" x="1971.36" y="-158.13" font-family="Times,serif" font-size="12.00">- &#196;nderungen an den Stammdaten werden nicht vorgenommen.</text>
<text text-anchor="start" x="1971.36" y="-146.13" font-family="Times,serif" font-size="12.00">Eine Stammdaten&#228;nderung wird nicht versendet.</text>
</g>
<!-- 230&#45;&gt;A03 -->
<g id="edge19" class="edge">
<title>230-&gt;A03</title>
<path fill="none" stroke="black" d="M2194.81,-319.94C2204.73,-301.93 2220.81,-272.77 2235.29,-246.49"/>
<polygon fill="black" stroke="black" points="2238.26,-248.36 2240.02,-237.92 2232.13,-244.99 2238.26,-248.36"/>
<text text-anchor="middle" x="2245.11" y="-258.24" font-family="Times,serif" font-size="14.00">Nein</text>
</g>
<!-- A04 -->
<g id="node19" class="node">
<title>A04</title>
<polygon fill="#cfb986" stroke="black" points="3254.1,-387.06 2600.38,-387.06 2600.38,-289.54 3254.1,-289.54 3254.1,-387.06"/>
<text text-anchor="start" x="2912.24" y="-369" font-family="Times,serif" font-weight="bold" font-size="14.00">A04</text>
<text text-anchor="start" x="2612.61" y="-356.9" font-family="Times,serif" text-decoration="underline" font-size="12.00">Hinweis:</text>
<text text-anchor="start" x="2612.61" y="-344.9" font-family="Times,serif" font-size="12.00">Cluster: &#196;nderung der Daten</text>
<text text-anchor="start" x="2612.61" y="-332.9" font-family="Times,serif" font-size="12.00">Der Verantwortliche teilt in dem Bearbeitungsstand der Stammdaten mit: </text>
<text text-anchor="start" x="2612.61" y="-320.9" font-family="Times,serif" font-size="12.00">- Die beim Berechtigten vorliegenden Daten stimmen mit den Daten des Verantwortlichen nicht &#252;berein. </text>
<text text-anchor="start" x="2612.61" y="-308.9" font-family="Times,serif" font-size="12.00">- Es wurden keine Stammdaten zur &#196;nderung angegeben. </text>
<text text-anchor="start" x="2612.61" y="-296.9" font-family="Times,serif" font-size="12.00">Eine Stammdaten&#228;nderung wird versendet.</text>
</g>
<!-- 240&#45;&gt;A04 -->
<g id="edge20" class="edge">
<title>240-&gt;A04</title>
<path fill="none" stroke="black" d="M3310.84,-439.9C3260.83,-426.78 3189.55,-408.09 3121.98,-390.37"/>
<polygon fill="black" stroke="black" points="3123.19,-387.07 3112.63,-387.92 3121.42,-393.84 3123.19,-387.07"/>
<text text-anchor="middle" x="3248.11" y="-409.01" font-family="Times,serif" font-size="14.00">Nein</text>
</g>
<!-- 250 -->
<g id="node20" class="node">
<title>250</title>
<path fill="#7aab8a" stroke="black" d="M4054.14,-356.3C4054.14,-356.3 3284.34,-356.3 3284.34,-356.3 3278.34,-356.3 3272.34,-350.3 3272.34,-344.3 3272.34,-344.3 3272.34,-332.3 3272.34,-332.3 3272.34,-326.3 3278.34,-320.3 3284.34,-320.3 3284.34,-320.3 4054.14,-320.3 4054.14,-320.3 4060.14,-320.3 4066.14,-326.3 4066.14,-332.3 4066.14,-332.3 4066.14,-344.3 4066.14,-344.3 4066.14,-350.3 4060.14,-356.3 4054.14,-356.3"/>
<text text-anchor="start" x="3286.74" y="-334.62" font-family="Times,serif" font-weight="bold" font-size="14.00">250: </text>
<text text-anchor="start" x="3325.74" y="-334.62" font-family="Times,serif" font-size="14.00">Kommt der Verantwortliche zu dem Ergebnis, dass er &#196;nderungen an seinen Stammdaten vornimmt?</text>
</g>
<!-- 240&#45;&gt;250 -->
<g id="edge21" class="edge">
<title>240-&gt;250</title>
<path fill="none" stroke="black" d="M3420.33,-439.9C3472.19,-418.94 3559.31,-383.73 3615.51,-361.01"/>
<polygon fill="black" stroke="black" points="3616.61,-364.34 3624.57,-357.35 3613.99,-357.85 3616.61,-364.34"/>
<text text-anchor="middle" x="3511.99" y="-409.01" font-family="Times,serif" font-size="14.00">Ja</text>
</g>
<!-- A05 -->
<g id="node21" class="node">
<title>A05</title>
<polygon fill="#cfb986" stroke="black" points="3362.23,-236.29 2712.25,-236.29 2712.25,-138.77 3362.23,-138.77 3362.23,-236.29"/>
<text text-anchor="start" x="3022.24" y="-218.23" font-family="Times,serif" font-weight="bold" font-size="14.00">A05</text>
<text text-anchor="start" x="2724.49" y="-206.13" font-family="Times,serif" text-decoration="underline" font-size="12.00">Hinweis:</text>
<text text-anchor="start" x="2724.49" y="-194.13" font-family="Times,serif" font-size="12.00">Cluster: &#196;nderung der Daten</text>
<text text-anchor="start" x="2724.49" y="-182.13" font-family="Times,serif" font-size="12.00">Der Verantwortliche teilt in dem Bearbeitungsstand der Stammdaten mit:</text>
<text text-anchor="start" x="2724.49" y="-170.13" font-family="Times,serif" font-size="12.00">- Die beim Berechtigten vorliegenden Daten stimmen mit den Daten des Verantwortlichen nicht &#252;berein.</text>
<text text-anchor="start" x="2724.49" y="-158.13" font-family="Times,serif" font-size="12.00">- &#196;nderungen an den Stammdaten werden vorgenommen. </text>
<text text-anchor="start" x="2724.49" y="-146.13" font-family="Times,serif" font-size="12.00">Eine Stammdaten&#228;nderung wird versendet.</text>
</g>
<!-- 250&#45;&gt;A05 -->
<g id="edge22" class="edge">
<title>250-&gt;A05</title>
<path fill="none" stroke="black" d="M3595.19,-319.87C3511.67,-300.21 3371.99,-267.33 3253.29,-239.39"/>
<polygon fill="black" stroke="black" points="3254.24,-236.02 3243.71,-237.13 3252.64,-242.83 3254.24,-236.02"/>
<text text-anchor="middle" x="3377.99" y="-258.24" font-family="Times,serif" font-size="14.00">Ja</text>
</g>
<!-- A06 -->
<g id="node22" class="node">
<title>A06</title>
<polygon fill="#cfb986" stroke="black" points="4030.23,-236.29 3380.25,-236.29 3380.25,-138.77 4030.23,-138.77 4030.23,-236.29"/>
<text text-anchor="start" x="3690.24" y="-218.23" font-family="Times,serif" font-weight="bold" font-size="14.00">A06</text>
<text text-anchor="start" x="3392.49" y="-206.13" font-family="Times,serif" text-decoration="underline" font-size="12.00">Hinweis:</text>
<text text-anchor="start" x="3392.49" y="-194.13" font-family="Times,serif" font-size="12.00">Cluster: &#196;nderung der Daten</text>
<text text-anchor="start" x="3392.49" y="-182.13" font-family="Times,serif" font-size="12.00">Der Verantwortliche teilt in dem Bearbeitungsstand der Stammdaten mit: </text>
<text text-anchor="start" x="3392.49" y="-170.13" font-family="Times,serif" font-size="12.00">- Die beim Berechtigten vorliegenden Daten stimmen mit den Daten des Verantwortlichen nicht &#252;berein.</text>
<text text-anchor="start" x="3392.49" y="-158.13" font-family="Times,serif" font-size="12.00">- &#196;nderungen an den Stammdaten werden nicht vornehmen</text>
<text text-anchor="start" x="3392.49" y="-146.13" font-family="Times,serif" font-size="12.00">Eine Stammdaten&#228;nderung wird versendet.</text>
</g>
<!-- 250&#45;&gt;A06 -->
<g id="edge23" class="edge">
<title>250-&gt;A06</title>
<path fill="none" stroke="black" d="M3673.44,-319.94C3677.74,-302.17 3684.67,-273.54 3690.96,-247.54"/>
<polygon fill="black" stroke="black" points="3694.3,-248.61 3693.25,-238.06 3687.5,-246.96 3694.3,-248.61"/>
<text text-anchor="middle" x="3705.11" y="-258.24" font-family="Times,serif" font-size="14.00">Nein</text>
</g>
</g>
</svg>
  </g>
</svg>
  </g>
</svg>
