<?xml version='1.0' encoding='ASCII' standalone='yes'?>
<svg xmlns="http://www.w3.org/2000/svg" xmlns:xlink="http://www.w3.org/1999/xlink" version="1.1" width="1272.0px" viewBox="0 0 1272.0 918.6666666666666" height="918.6666666666666px">
  <g>
    <svg version="1.1" width="1272.0px" viewBox="0 0 1272.0 918.6666666666666" height="918.6666666666666px">
  <polygon fill="#f3f1f6" points="0,0 1272.0,0 1272.0,918.6666666666666 0,918.6666666666666"/><g>
    <g transform="translate(261.36716417910446, 91.86666666666665) scale(1 1) translate(0, 0) scale(1.2935323383084578 1.2935323383084578) "><!-- note that I manually added the width and height attribute to the root node
  https://chatgpt.com/share/678e3028-70cc-800b-a296-782714735772
  -->
  <defs>
    <style>.cls-1{fill:#fff;}</style>
  </defs>
  <path class="cls-1" d="M122.44,531.2h-56.1c-11,0-19.9-9.12-19.46-20.11C57.47,243.89,278.15,29.78,547.91,29.78v56.02c0,10.98-8.69,19.89-19.66,20.39-225.51,10.31-405.8,197-405.8,425Z"/>
  <path class="cls-1" d="M273.78,531.2h-55.93c-11.23,0-20.09-9.48-19.43-20.69,10.74-183.44,163.39-329.39,349.48-329.39v56.26c0,10.71-8.27,19.62-18.96,20.35-142.35,9.77-255.17,128.69-255.17,273.46Z"/>
  <path class="cls-1" d="M425.77,531.2h-55.45c-11.65,0-20.6-10.17-19.33-21.75,10.87-99.03,95.03-176.34,196.92-176.34v57.01c0,10.05-7.28,18.75-17.23,20.16-59.22,8.4-104.91,59.42-104.91,120.92Z"/>
</g>
    <svg width="954pt" height="689pt" viewBox="0.00 0.00 953.86 689.12">
<g id="graph0" class="graph" transform="scale(1 1) rotate(0) translate(4 685.12)">
<title>D</title>
<text text-anchor="start" x="149.3" y="-661.02" font-family="Times,serif" font-weight="bold" font-size="18.00">GPKE</text>
<text text-anchor="start" x="149.3" y="-630.92" font-family="Times,serif" font-weight="bold" font-size="16.00">6.33.1: AD: Bestellung Beendigung einer Konfiguration vom LF an MSB</text>
<!-- Start -->
<g id="node1" class="node">
<title>Start</title>
<path fill="#7a8da1" stroke="black" stroke-width="0" d="M388.76,-583.12C388.76,-583.12 241.47,-583.12 241.47,-583.12 235.47,-583.12 229.47,-577.12 229.47,-571.12 229.47,-571.12 229.47,-551.84 229.47,-551.84 229.47,-545.84 235.47,-539.84 241.47,-539.84 241.47,-539.84 388.76,-539.84 388.76,-539.84 394.76,-539.84 400.76,-545.84 400.76,-551.84 400.76,-551.84 400.76,-571.12 400.76,-571.12 400.76,-577.12 394.76,-583.12 388.76,-583.12"/>
<text text-anchor="start" x="286.99" y="-562.18" font-family="Times,serif" font-weight="bold" font-size="14.00">E_0540</text>
<text text-anchor="start" x="243.87" y="-550.08" font-family="Times,serif" font-weight="bold" text-decoration="underline" font-size="12.00">Pr&#252;fende Rolle:</text>
<text text-anchor="start" x="348.87" y="-550.08" font-family="Times,serif" font-weight="bold" font-size="12.00"> MSB</text>
</g>
<!-- 15 -->
<g id="node2" class="node">
<title>15</title>
<path fill="#7aab8a" stroke="black" stroke-width="0" d="M566.14,-502.84C566.14,-502.84 64.09,-502.84 64.09,-502.84 58.09,-502.84 52.09,-496.84 52.09,-490.84 52.09,-490.84 52.09,-469.56 52.09,-469.56 52.09,-463.56 58.09,-457.56 64.09,-457.56 64.09,-457.56 566.14,-457.56 566.14,-457.56 572.14,-457.56 578.14,-463.56 578.14,-469.56 578.14,-469.56 578.14,-490.84 578.14,-490.84 578.14,-496.84 572.14,-502.84 566.14,-502.84"/>
<text text-anchor="start" x="66.49" y="-481.9" font-family="Times,serif" font-weight="bold" font-size="14.00">15: </text>
<text text-anchor="start" x="95.74" y="-481.9" font-family="Times,serif" font-size="14.00">Wurden die Vorlauffristen eingehalten?</text>
<text text-anchor="start" x="66.49" y="-467.9" font-family="Times,serif" font-size="14.00">Hinweis: Es ist die maximale und die minimale Vorlauffrist zu pr&#252;fen.</text>
</g>
<!-- Start&#45;&gt;15 -->
<g id="edge1" class="edge">
<title>Start-&gt;15</title>
<path fill="none" stroke="black" d="M315.12,-540.06C315.12,-532.09 315.12,-522.74 315.12,-513.88"/>
<polygon fill="black" stroke="black" points="318.62,-514.17 315.12,-504.17 311.62,-514.17 318.62,-514.17"/>
</g>
<!-- A04 -->
<g id="node3" class="node">
<title>A04</title>
<path fill="#cfb986" stroke="black" stroke-width="0" d="M328.98,-404.31C328.98,-404.31 83.25,-404.31 83.25,-404.31 77.25,-404.31 71.25,-398.31 71.25,-392.31 71.25,-392.31 71.25,-354.79 71.25,-354.79 71.25,-348.79 77.25,-342.79 83.25,-342.79 83.25,-342.79 328.98,-342.79 328.98,-342.79 334.98,-342.79 340.98,-348.79 340.98,-354.79 340.98,-354.79 340.98,-392.31 340.98,-392.31 340.98,-398.31 334.98,-404.31 328.98,-404.31"/>
<text text-anchor="start" x="83.49" y="-386.25" font-family="Times,serif" font-weight="bold" font-size="14.00">A04</text>
<text text-anchor="start" x="83.49" y="-374.15" font-family="Times,serif" text-decoration="underline" font-size="12.00">Hinweis:</text>
<text text-anchor="start" x="83.49" y="-362.15" font-family="Times,serif" font-size="12.00">Cluster: Ablehnung</text>
<text text-anchor="start" x="83.49" y="-350.15" font-family="Times,serif" font-size="12.00">Die Vorlauffrist wurde nicht eingehalten.</text>
</g>
<!-- 15&#45;&gt;A04 -->
<g id="edge2" class="edge">
<title>15-&gt;A04</title>
<path fill="none" stroke="#7aab8a" d="M292.79,-457.77C279.11,-444.63 261.21,-427.45 245.23,-412.1"/>
<polygon fill="#7aab8a" stroke="#7aab8a" points="247.81,-409.73 238.17,-405.33 242.96,-414.78 247.81,-409.73"/>
<text text-anchor="start" x="273.12" y="-427.26" font-family="Times,serif" font-weight="bold" font-size="14.00">NEIN</text>
</g>
<!-- 20 -->
<g id="node4" class="node">
<title>20</title>
<path fill="#7aab8a" stroke="black" stroke-width="0" d="M783.51,-391.55C783.51,-391.55 370.72,-391.55 370.72,-391.55 364.72,-391.55 358.72,-385.55 358.72,-379.55 358.72,-379.55 358.72,-367.55 358.72,-367.55 358.72,-361.55 364.72,-355.55 370.72,-355.55 370.72,-355.55 783.51,-355.55 783.51,-355.55 789.51,-355.55 795.51,-361.55 795.51,-367.55 795.51,-367.55 795.51,-379.55 795.51,-379.55 795.51,-385.55 789.51,-391.55 783.51,-391.55"/>
<text text-anchor="start" x="373.12" y="-369.87" font-family="Times,serif" font-weight="bold" font-size="14.00">20: </text>
<text text-anchor="start" x="402.37" y="-369.87" font-family="Times,serif" font-size="14.00">Handelt es sich um eine kostenpflichtige Bestellung?</text>
</g>
<!-- 15&#45;&gt;20 -->
<g id="edge3" class="edge">
<title>15-&gt;20</title>
<path fill="none" stroke="#7aab8a" d="M369.08,-457.64C414.57,-439.47 479.28,-413.63 524.4,-395.6"/>
<polygon fill="#7aab8a" stroke="#7aab8a" points="525.47,-398.95 533.46,-391.99 522.87,-392.45 525.47,-398.95"/>
<text text-anchor="start" x="453.12" y="-427.26" font-family="Times,serif" font-weight="bold" font-size="14.00">JA</text>
</g>
<!-- 30 -->
<g id="node5" class="node">
<title>30</title>
<path fill="#7aab8a" stroke="black" stroke-width="0" d="M616.14,-289.54C616.14,-289.54 132.09,-289.54 132.09,-289.54 126.09,-289.54 120.09,-283.54 120.09,-277.54 120.09,-277.54 120.09,-265.54 120.09,-265.54 120.09,-259.54 126.09,-253.54 132.09,-253.54 132.09,-253.54 616.14,-253.54 616.14,-253.54 622.14,-253.54 628.14,-259.54 628.14,-265.54 628.14,-265.54 628.14,-277.54 628.14,-277.54 628.14,-283.54 622.14,-289.54 616.14,-289.54"/>
<text text-anchor="start" x="134.49" y="-267.86" font-family="Times,serif" font-weight="bold" font-size="14.00">30: </text>
<text text-anchor="start" x="163.74" y="-267.86" font-family="Times,serif" font-size="14.00">Handelt es sich um eine Bestellung, die beendet werden kann?</text>
</g>
<!-- 20&#45;&gt;30 -->
<g id="edge4" class="edge">
<title>20-&gt;30</title>
<path fill="none" stroke="#7aab8a" d="M542.68,-355.58C508.45,-338.72 455.82,-312.79 418.48,-294.4"/>
<polygon fill="#7aab8a" stroke="#7aab8a" points="420.26,-291.37 409.74,-290.09 417.16,-297.65 420.26,-291.37"/>
<text text-anchor="start" x="475.12" y="-312.49" font-family="Times,serif" font-weight="bold" font-size="14.00">NEIN</text>
</g>
<!-- 40 -->
<g id="node7" class="node">
<title>40</title>
<path fill="#7aab8a" stroke="black" stroke-width="0" d="M868.26,-187.53C868.26,-187.53 459.97,-187.53 459.97,-187.53 453.97,-187.53 447.97,-181.53 447.97,-175.53 447.97,-175.53 447.97,-163.53 447.97,-163.53 447.97,-157.53 453.97,-151.53 459.97,-151.53 459.97,-151.53 868.26,-151.53 868.26,-151.53 874.26,-151.53 880.26,-157.53 880.26,-163.53 880.26,-163.53 880.26,-175.53 880.26,-175.53 880.26,-181.53 874.26,-187.53 868.26,-187.53"/>
<text text-anchor="start" x="462.37" y="-165.85" font-family="Times,serif" font-weight="bold" font-size="14.00">40: </text>
<text text-anchor="start" x="491.62" y="-165.85" font-family="Times,serif" font-size="14.00">Ist ein zuvor nicht spezifizierter Fehler aufgetreten?</text>
</g>
<!-- 20&#45;&gt;40 -->
<g id="edge5" class="edge">
<title>20-&gt;40</title>
<path fill="none" stroke="#7aab8a" d="M592.46,-355.71C606.16,-339.79 625.76,-314.66 637.12,-289.54 650.46,-260.01 657.5,-223.28 661,-198.49"/>
<polygon fill="#7aab8a" stroke="#7aab8a" points="664.43,-199.24 662.25,-188.87 657.49,-198.34 664.43,-199.24"/>
<text text-anchor="start" x="649.12" y="-267.86" font-family="Times,serif" font-weight="bold" font-size="14.00">JA</text>
</g>
<!-- A02 -->
<g id="node6" class="node">
<title>A02</title>
<path fill="#cfb986" stroke="black" stroke-width="0" d="M418.23,-200.29C418.23,-200.29 12,-200.29 12,-200.29 6,-200.29 0,-194.29 0,-188.29 0,-188.29 0,-150.77 0,-150.77 0,-144.77 6,-138.77 12,-138.77 12,-138.77 418.23,-138.77 418.23,-138.77 424.23,-138.77 430.23,-144.77 430.23,-150.77 430.23,-150.77 430.23,-188.29 430.23,-188.29 430.23,-194.29 424.23,-200.29 418.23,-200.29"/>
<text text-anchor="start" x="12.24" y="-182.23" font-family="Times,serif" font-weight="bold" font-size="14.00">A02</text>
<text text-anchor="start" x="12.24" y="-170.13" font-family="Times,serif" text-decoration="underline" font-size="12.00">Hinweis:</text>
<text text-anchor="start" x="12.24" y="-158.13" font-family="Times,serif" font-size="12.00">Cluster: Ablehnung</text>
<text text-anchor="start" x="12.24" y="-146.13" font-family="Times,serif" font-size="12.00">Es handelt sich um eine Bestellung, die nicht beendet werden kann.</text>
</g>
<!-- 30&#45;&gt;A02 -->
<g id="edge6" class="edge">
<title>30-&gt;A02</title>
<path fill="none" stroke="#7aab8a" d="M347.14,-253.57C326.56,-240.63 297.47,-222.33 271.84,-206.21"/>
<polygon fill="#7aab8a" stroke="#7aab8a" points="273.81,-203.32 263.49,-200.96 270.09,-209.24 273.81,-203.32"/>
<text text-anchor="start" x="318.12" y="-223.24" font-family="Times,serif" font-weight="bold" font-size="14.00">NEIN</text>
</g>
<!-- 30&#45;&gt;40 -->
<g id="edge7" class="edge">
<title>30-&gt;40</title>
<path fill="none" stroke="#7aab8a" d="M423.31,-253.57C473.35,-236.32 550.95,-209.56 604.46,-191.1"/>
<polygon fill="#7aab8a" stroke="#7aab8a" points="605.42,-194.47 613.73,-187.9 603.14,-187.86 605.42,-194.47"/>
<text text-anchor="start" x="519.12" y="-223.24" font-family="Times,serif" font-weight="bold" font-size="14.00">JA</text>
</g>
<!-- A99 -->
<g id="node8" class="node">
<title>A99</title>
<path fill="#cfb986" stroke="black" stroke-width="0" d="M720.86,-85.52C720.86,-85.52 237.38,-85.52 237.38,-85.52 231.38,-85.52 225.38,-79.52 225.38,-73.52 225.38,-73.52 225.38,-12 225.38,-12 225.38,-6 231.38,0 237.38,0 237.38,0 720.86,0 720.86,0 726.86,0 732.86,-6 732.86,-12 732.86,-12 732.86,-73.52 732.86,-73.52 732.86,-79.52 726.86,-85.52 720.86,-85.52"/>
<text text-anchor="start" x="237.62" y="-67.46" font-family="Times,serif" font-weight="bold" font-size="14.00">A99</text>
<text text-anchor="start" x="237.62" y="-55.36" font-family="Times,serif" text-decoration="underline" font-size="12.00">Hinweis:</text>
<text text-anchor="start" x="237.62" y="-43.36" font-family="Times,serif" font-size="12.00">Cluster: Ablehnung</text>
<text text-anchor="start" x="237.62" y="-31.36" font-family="Times,serif" font-size="12.00">Sonstiges</text>
<text text-anchor="start" x="237.62" y="-19.36" font-family="Times,serif" font-size="12.00">Hinweis: Das identifizierte Problem ist in der Antwort zu beschreiben/benennen.</text>
<text text-anchor="start" x="237.62" y="-7.36" font-family="Times,serif" font-size="12.00">Nutzungsm&#246;glichkeit Ende: 01.04.2026 00:00 Uhr</text>
</g>
<!-- 40&#45;&gt;A99 -->
<g id="edge8" class="edge">
<title>40-&gt;A99</title>
<path fill="none" stroke="#7aab8a" d="M639.17,-151.7C616.36,-136.33 581.52,-112.83 550.16,-91.68"/>
<polygon fill="#7aab8a" stroke="#7aab8a" points="552.5,-89.03 542.25,-86.34 548.58,-94.83 552.5,-89.03"/>
<text text-anchor="start" x="588.12" y="-108.47" font-family="Times,serif" font-weight="bold" font-size="14.00">JA</text>
</g>
<!-- A03 -->
<g id="node9" class="node">
<title>A03</title>
<path fill="#cfb986" stroke="black" stroke-width="0" d="M933.86,-73.52C933.86,-73.52 762.38,-73.52 762.38,-73.52 756.38,-73.52 750.38,-67.52 750.38,-61.52 750.38,-61.52 750.38,-24 750.38,-24 750.38,-18 756.38,-12 762.38,-12 762.38,-12 933.86,-12 933.86,-12 939.86,-12 945.86,-18 945.86,-24 945.86,-24 945.86,-61.52 945.86,-61.52 945.86,-67.52 939.86,-73.52 933.86,-73.52"/>
<text text-anchor="start" x="762.62" y="-55.46" font-family="Times,serif" font-weight="bold" font-size="14.00">A03</text>
<text text-anchor="start" x="762.62" y="-43.36" font-family="Times,serif" text-decoration="underline" font-size="12.00">Hinweis:</text>
<text text-anchor="start" x="762.62" y="-31.36" font-family="Times,serif" font-size="12.00">Cluster: Zustimmung</text>
<text text-anchor="start" x="762.62" y="-19.36" font-family="Times,serif" font-size="12.00">Best&#228;tigung der Beendigung</text>
</g>
<!-- 40&#45;&gt;A03 -->
<g id="edge9" class="edge">
<title>40-&gt;A03</title>
<path fill="none" stroke="#7aab8a" d="M688.93,-151.7C716.03,-133.32 760.24,-103.34 795.2,-79.64"/>
<polygon fill="#7aab8a" stroke="#7aab8a" points="796.77,-82.8 803.08,-74.3 792.84,-77.01 796.77,-82.8"/>
<text text-anchor="start" x="756.12" y="-108.47" font-family="Times,serif" font-weight="bold" font-size="14.00">NEIN</text>
</g>
</g>
</svg>
  </g>
</svg>
  </g>
</svg>
