<?xml version='1.0' encoding='ASCII' standalone='yes'?>
<svg xmlns="http://www.w3.org/2000/svg" xmlns:xlink="http://www.w3.org/1999/xlink" version="1.1" width="1262.6666666666667px" viewBox="0 0 1262.6666666666667 198.66666666666666" height="198.66666666666666px">
  <g>
    <svg version="1.1" width="1262.6666666666667px" viewBox="0 0 1262.6666666666667 198.66666666666666" height="198.66666666666666px">
  <polygon fill="#f3f1f6" points="0,0 1262.6666666666667,0 1262.6666666666667,198.66666666666666 0,198.66666666666666"/><g>
    <g transform="translate(550.316943583967, 19.86666666666666) scale(1 1) translate(0, 0) scale(0.27973340842955036 0.27973340842955036) "><!-- note that I manually added the width and height attribute to the root node
  https://chatgpt.com/share/678e3028-70cc-800b-a296-782714735772
  -->
  <defs>
    <style>.cls-1{fill:#fff;}</style>
  </defs>
  <path class="cls-1" d="M122.44,531.2h-56.1c-11,0-19.9-9.12-19.46-20.11C57.47,243.89,278.15,29.78,547.91,29.78v56.02c0,10.98-8.69,19.89-19.66,20.39-225.51,10.31-405.8,197-405.8,425Z"/>
  <path class="cls-1" d="M273.78,531.2h-55.93c-11.23,0-20.09-9.48-19.43-20.69,10.74-183.44,163.39-329.39,349.48-329.39v56.26c0,10.71-8.27,19.62-18.96,20.35-142.35,9.77-255.17,128.69-255.17,273.46Z"/>
  <path class="cls-1" d="M425.77,531.2h-55.45c-11.65,0-20.6-10.17-19.33-21.75,10.87-99.03,95.03-176.34,196.92-176.34v57.01c0,10.05-7.28,18.75-17.23,20.16-59.22,8.4-104.91,59.42-104.91,120.92Z"/>
</g>
    <svg width="947pt" height="149pt" viewBox="0.00 0.00 947.25 149.28">
<g id="graph0" class="graph" transform="scale(1 1) rotate(0) translate(4 145.28)">
<title>D</title>
<text text-anchor="start" x="8" y="-121.18" font-family="Times,serif" font-weight="bold" font-size="18.00">Zum Modell 2 zur ladevorgangscharfen bilanziellen Energiemengenzuordnungsm&#246;glichkeit</text>
<text text-anchor="start" x="8" y="-91.08" font-family="Times,serif" font-weight="bold" font-size="16.00">16.1.2: AD: Anmeldung einer Marktlokation in das Modell 2 durch den NB (LPB)_neu</text>
<!-- Empty -->
<g id="node1" class="node">
<title>Empty</title>
<path fill="#7a8da1" stroke="black" stroke-width="0" d="M784.77,-43.28C784.77,-43.28 154.47,-43.28 154.47,-43.28 148.47,-43.28 142.47,-37.28 142.47,-31.28 142.47,-31.28 142.47,-12 142.47,-12 142.47,-6 148.47,0 154.47,0 154.47,0 784.77,0 784.77,0 790.77,0 796.77,-6 796.77,-12 796.77,-12 796.77,-31.28 796.77,-31.28 796.77,-37.28 790.77,-43.28 784.77,-43.28"/>
<text text-anchor="start" x="441.5" y="-22.34" font-family="Times,serif" font-weight="bold" font-size="14.00">E_0514</text>
<text text-anchor="start" x="156.87" y="-10.24" font-family="Times,serif" font-size="12.00">Derzeit ist f&#252;r diese Entscheidung kein Entscheidungsbaum notwendig, da keine Antwort gegeben wird.</text>
</g>
</g>
</svg>
  </g>
</svg>
  </g>
</svg>
