<?xml version='1.0' encoding='ASCII' standalone='yes'?>
<svg xmlns="http://www.w3.org/2000/svg" xmlns:xlink="http://www.w3.org/1999/xlink" version="1.1" width="1248.0px" viewBox="0 0 1248.0 614.6666666666666" height="614.6666666666666px">
  <g>
    <svg version="1.1" width="1248.0px" viewBox="0 0 1248.0 614.6666666666666" height="614.6666666666666px">
  <rect fill="#e7e6e5" x="0" y="0" width="1248.0" height="614.6666666666666" rx="20" ry="20"/><g>
    <g transform="translate(373.3385525204168, 61.46666666666665) scale(1 1) translate(0, 0) scale(0.8654839012484746 0.8654839012484746) "><!-- note that I manually added the width and height attribute to the root node
  https://chatgpt.com/share/678e3028-70cc-800b-a296-782714735772
  -->
  <defs>
    <style>.cls-1{fill:#fff;}</style>
  </defs>
  <path class="cls-1" d="M122.44,531.2h-56.1c-11,0-19.9-9.12-19.46-20.11C57.47,243.89,278.15,29.78,547.91,29.78v56.02c0,10.98-8.69,19.89-19.66,20.39-225.51,10.31-405.8,197-405.8,425Z"/>
  <path class="cls-1" d="M273.78,531.2h-55.93c-11.23,0-20.09-9.48-19.43-20.69,10.74-183.44,163.39-329.39,349.48-329.39v56.26c0,10.71-8.27,19.62-18.96,20.35-142.35,9.77-255.17,128.69-255.17,273.46Z"/>
  <path class="cls-1" d="M425.77,531.2h-55.45c-11.65,0-20.6-10.17-19.33-21.75,10.87-99.03,95.03-176.34,196.92-176.34v57.01c0,10.05-7.28,18.75-17.23,20.16-59.22,8.4-104.91,59.42-104.91,120.92Z"/>
</g>
    <svg width="936pt" height="461pt" viewBox="0.00 0.00 936.00 460.84">
<g id="graph0" class="graph" transform="scale(1 1) rotate(0) translate(4 456.84)">
<title>D</title>
<text text-anchor="start" x="8" y="-432.74" font-family="Roboto, sans-serif" font-weight="bold" font-size="18.00">Zum Modell 2 zur ladevorgangscharfen bilanziellen Energiemengenzuordnungsm&#246;glichkeit</text>
<text text-anchor="start" x="8" y="-404.64" font-family="Roboto, sans-serif" font-weight="bold" font-size="16.00">16.1.3: AD: Anmeldung einer Marktlokation in das Modell 2 durch den NB (LPB)_neu</text>
<!-- Start -->
<g id="node1" class="node">
<title>Start</title>
<path fill="#8ba2d7" stroke="black" stroke-width="0" d="M394.52,-362.84C394.52,-362.84 257.73,-362.84 257.73,-362.84 251.72,-362.84 245.72,-356.84 245.72,-350.84 245.72,-350.84 245.72,-329.56 245.72,-329.56 245.72,-323.56 251.72,-317.56 257.73,-317.56 257.73,-317.56 394.52,-317.56 394.52,-317.56 400.52,-317.56 406.52,-323.56 406.52,-329.56 406.52,-329.56 406.52,-350.84 406.52,-350.84 406.52,-356.84 400.52,-362.84 394.52,-362.84"/>
<text text-anchor="start" x="260.12" y="-341.9" font-family="Roboto, sans-serif" font-weight="bold" font-size="14.00">E_0510</text>
<text text-anchor="start" x="260.12" y="-327.9" font-family="Roboto, sans-serif" font-size="14.00">Pr&#252;fende Rolle: </text>
<text text-anchor="start" x="369.62" y="-327.9" font-family="Roboto, sans-serif" font-weight="bold" font-size="14.00">NB</text>
</g>
<!-- 1 -->
<g id="node2" class="node">
<title>1</title>
<path fill="#c2cee9" stroke="black" stroke-width="0" d="M576.4,-280.56C576.4,-280.56 75.85,-280.56 75.85,-280.56 69.85,-280.56 63.85,-274.56 63.85,-268.56 63.85,-268.56 63.85,-256.56 63.85,-256.56 63.85,-250.56 69.85,-244.56 75.85,-244.56 75.85,-244.56 576.4,-244.56 576.4,-244.56 582.4,-244.56 588.4,-250.56 588.4,-256.56 588.4,-256.56 588.4,-268.56 588.4,-268.56 588.4,-274.56 582.4,-280.56 576.4,-280.56"/>
<text text-anchor="start" x="78.25" y="-258.88" font-family="Roboto, sans-serif" font-weight="bold" font-size="14.00">1: </text>
<text text-anchor="start" x="97.75" y="-258.88" font-family="Roboto, sans-serif" font-size="14.00">Ging innerhalb der Antwortfrist eine Ablehnung des Lieferanten ein?</text>
</g>
<!-- Start&#45;&gt;1 -->
<g id="edge1" class="edge">
<title>Start-&gt;1</title>
<path fill="none" stroke="#88a0d6" d="M326.12,-317.73C326.12,-309.65 326.12,-300.35 326.12,-291.75"/>
<polygon fill="#88a0d6" stroke="#88a0d6" points="329.63,-291.79 326.13,-281.79 322.63,-291.79 329.63,-291.79"/>
</g>
<!-- A01 -->
<g id="node3" class="node">
<title>A01</title>
<path fill="#c4cac1" stroke="black" stroke-width="0" d="M413.02,-191.31C413.02,-191.31 57.22,-191.31 57.22,-191.31 51.22,-191.31 45.22,-185.31 45.22,-179.31 45.22,-179.31 45.22,-151.53 45.22,-151.53 45.22,-145.53 51.22,-139.53 57.22,-139.53 57.22,-139.53 413.02,-139.53 413.02,-139.53 419.02,-139.53 425.02,-145.53 425.02,-151.53 425.02,-151.53 425.02,-179.31 425.02,-179.31 425.02,-185.31 419.02,-191.31 413.02,-191.31"/>
<text text-anchor="start" x="59.62" y="-169.37" font-family="Roboto, sans-serif" font-size="14.00">Cluster: Ablehnung</text>
<text text-anchor="start" x="59.62" y="-152.12" font-family="Roboto, sans-serif" font-size="14.00">Ablehnung der Abmeldung durch den Lieferanten.</text>
</g>
<!-- 1&#45;&gt;A01 -->
<g id="edge2" class="edge">
<title>1-&gt;A01</title>
<path fill="none" stroke="#88a0d6" d="M310.27,-244.99C298.24,-232.41 281.32,-214.71 266.57,-199.3"/>
<polygon fill="#88a0d6" stroke="#88a0d6" points="269.14,-196.91 259.69,-192.11 264.08,-201.75 269.14,-196.91"/>
<text text-anchor="start" x="291.12" y="-214.26" font-family="Roboto, sans-serif" font-weight="bold" font-size="14.00">JA</text>
</g>
<!-- 2 -->
<g id="node4" class="node">
<title>2</title>
<path fill="#c2cee9" stroke="black" stroke-width="0" d="M662.77,-183.42C662.77,-183.42 455.47,-183.42 455.47,-183.42 449.47,-183.42 443.47,-177.42 443.47,-171.42 443.47,-171.42 443.47,-159.42 443.47,-159.42 443.47,-153.42 449.47,-147.42 455.47,-147.42 455.47,-147.42 662.77,-147.42 662.77,-147.42 668.77,-147.42 674.77,-153.42 674.77,-159.42 674.77,-159.42 674.77,-171.42 674.77,-171.42 674.77,-177.42 668.77,-183.42 662.77,-183.42"/>
<text text-anchor="start" x="457.88" y="-161.75" font-family="Roboto, sans-serif" font-weight="bold" font-size="14.00">2: </text>
<text text-anchor="start" x="477.38" y="-161.75" font-family="Roboto, sans-serif" font-size="14.00">Ist ein Fehler aufgetreten?</text>
</g>
<!-- 1&#45;&gt;2 -->
<g id="edge3" class="edge">
<title>1-&gt;2</title>
<path fill="none" stroke="#88a0d6" d="M367.51,-244.66C406.49,-228.75 465.02,-204.85 507.13,-187.65"/>
<polygon fill="#88a0d6" stroke="#88a0d6" points="508.4,-190.91 516.33,-183.89 505.75,-184.43 508.4,-190.91"/>
<text text-anchor="start" x="449.12" y="-214.26" font-family="Roboto, sans-serif" font-weight="bold" font-size="14.00">NEIN</text>
</g>
<!-- A99 -->
<g id="node5" class="node">
<title>A99</title>
<path fill="#c4cac1" stroke="black" stroke-width="0" d="M627.4,-86.28C627.4,-86.28 66.85,-86.28 66.85,-86.28 60.85,-86.28 54.85,-80.28 54.85,-74.28 54.85,-74.28 54.85,-12 54.85,-12 54.85,-6 60.85,0 66.85,0 66.85,0 627.4,0 627.4,0 633.4,0 639.4,-6 639.4,-12 639.4,-12 639.4,-74.28 639.4,-74.28 639.4,-80.28 633.4,-86.28 627.4,-86.28"/>
<text text-anchor="start" x="69.25" y="-64.34" font-family="Roboto, sans-serif" font-size="14.00">Cluster: Ablehnung</text>
<text text-anchor="start" x="69.25" y="-47.09" font-family="Roboto, sans-serif" font-size="14.00">Sonstiges</text>
<text text-anchor="start" x="69.25" y="-29.84" font-family="Roboto, sans-serif" font-size="14.00">Hinweis: Das identifizierte Problem ist in der Antwort zu beschreiben/benennen.</text>
<text text-anchor="start" x="69.25" y="-12.59" font-family="Roboto, sans-serif" font-size="14.00">Nutzungsm&#246;glichkeit Ende: 01.04.2026, 00:00 Uhr</text>
</g>
<!-- 2&#45;&gt;A99 -->
<g id="edge4" class="edge">
<title>2-&gt;A99</title>
<path fill="none" stroke="#88a0d6" d="M529.2,-147.44C503.64,-132.94 465.61,-111.36 430.9,-91.67"/>
<polygon fill="#88a0d6" stroke="#88a0d6" points="432.95,-88.81 422.53,-86.92 429.5,-94.9 432.95,-88.81"/>
<text text-anchor="start" x="478.12" y="-109.23" font-family="Roboto, sans-serif" font-weight="bold" font-size="14.00">JA</text>
</g>
<!-- A02 -->
<g id="node6" class="node">
<title>A02</title>
<path fill="#c4cac1" stroke="black" stroke-width="0" d="M870.77,-69.03C870.77,-69.03 669.48,-69.03 669.48,-69.03 663.48,-69.03 657.48,-63.03 657.48,-57.03 657.48,-57.03 657.48,-29.25 657.48,-29.25 657.48,-23.25 663.48,-17.25 669.48,-17.25 669.48,-17.25 870.77,-17.25 870.77,-17.25 876.77,-17.25 882.77,-23.25 882.77,-29.25 882.77,-29.25 882.77,-57.03 882.77,-57.03 882.77,-63.03 876.77,-69.03 870.77,-69.03"/>
<text text-anchor="start" x="671.88" y="-47.09" font-family="Roboto, sans-serif" font-size="14.00">Cluster: Zustimmung</text>
<text text-anchor="start" x="671.88" y="-29.84" font-family="Roboto, sans-serif" font-size="14.00">Best&#228;tigung der Anmeldung</text>
</g>
<!-- 2&#45;&gt;A02 -->
<g id="edge5" class="edge">
<title>2-&gt;A02</title>
<path fill="none" stroke="#88a0d6" d="M588.91,-147.44C622,-128.58 676.1,-97.74 716.59,-74.66"/>
<polygon fill="#88a0d6" stroke="#88a0d6" points="718.3,-77.71 725.25,-69.72 714.83,-71.63 718.3,-77.71"/>
<text text-anchor="start" x="664.12" y="-109.23" font-family="Roboto, sans-serif" font-weight="bold" font-size="14.00">NEIN</text>
</g>
</g>
</svg>
  </g>
</svg>
  </g>
</svg>
