<?xml version='1.0' encoding='ASCII' standalone='yes'?>
<svg xmlns="http://www.w3.org/2000/svg" xmlns:xlink="http://www.w3.org/1999/xlink" version="1.1" width="1920.0px" viewBox="0 0 1920.0 1585.3333333333333" height="1585.3333333333333px">
  <g>
    <svg version="1.1" width="1920.0px" viewBox="0 0 1920.0 1585.3333333333333" height="1585.3333333333333px">
  <rect fill="#e7e6e5" x="0" y="0" width="1920.0" height="1585.3333333333333" rx="20" ry="20"/><g>
    <g transform="translate(313.5000844832441, 158.5333333333333) scale(1 1) translate(0, 0) scale(2.232235051159298 2.232235051159298) "><!-- note that I manually added the width and height attribute to the root node
  https://chatgpt.com/share/678e3028-70cc-800b-a296-782714735772
  -->
  <defs>
    <style>.cls-1{fill:#fff;}</style>
  </defs>
  <path class="cls-1" d="M122.44,531.2h-56.1c-11,0-19.9-9.12-19.46-20.11C57.47,243.89,278.15,29.78,547.91,29.78v56.02c0,10.98-8.69,19.89-19.66,20.39-225.51,10.31-405.8,197-405.8,425Z"/>
  <path class="cls-1" d="M273.78,531.2h-55.93c-11.23,0-20.09-9.48-19.43-20.69,10.74-183.44,163.39-329.39,349.48-329.39v56.26c0,10.71-8.27,19.62-18.96,20.35-142.35,9.77-255.17,128.69-255.17,273.46Z"/>
  <path class="cls-1" d="M425.77,531.2h-55.45c-11.65,0-20.6-10.17-19.33-21.75,10.87-99.03,95.03-176.34,196.92-176.34v57.01c0,10.05-7.28,18.75-17.23,20.16-59.22,8.4-104.91,59.42-104.91,120.92Z"/>
</g>
    <svg width="1440pt" height="1189pt" viewBox="0.00 0.00 1440.00 1189.06">
<g id="graph0" class="graph" transform="scale(0.997392 0.997392) rotate(0) translate(4 1188.17)">
<title>D</title>
<text text-anchor="start" x="434.38" y="-1164.07" font-family="Roboto, sans-serif" font-weight="bold" font-size="18.00">WiM Strom</text>
<text text-anchor="start" x="434.38" y="-1133.97" font-family="Roboto, sans-serif" font-weight="bold" font-size="16.00">8.14.4: AD: Abrechnung Messstellenbetrieb gegen&#252;ber dem NB</text>
<!-- Start -->
<g id="node1" class="node">
<title>Start</title>
<path fill="#8ba2d7" stroke="black" stroke-width="0" d="M516.26,-1086.17C516.26,-1086.17 384.72,-1086.17 384.72,-1086.17 378.72,-1086.17 372.72,-1080.17 372.72,-1074.17 372.72,-1074.17 372.72,-1054.89 372.72,-1054.89 372.72,-1048.89 378.72,-1042.89 384.72,-1042.89 384.72,-1042.89 516.26,-1042.89 516.26,-1042.89 522.26,-1042.89 528.26,-1048.89 528.26,-1054.89 528.26,-1054.89 528.26,-1074.17 528.26,-1074.17 528.26,-1080.17 522.26,-1086.17 516.26,-1086.17"/>
<text text-anchor="start" x="387.12" y="-1065.23" font-family="Roboto, sans-serif" font-weight="bold" font-size="14.00">E_0569</text>
<text text-anchor="start" x="387.12" y="-1053.13" font-family="Roboto, sans-serif" font-weight="bold" text-decoration="underline" font-size="12.00">Pr&#252;fende Rolle:</text>
<text text-anchor="start" x="490.62" y="-1053.13" font-family="Roboto, sans-serif" font-weight="bold" font-size="12.00"> NB</text>
</g>
<!-- 10 -->
<g id="node2" class="node">
<title>10</title>
<path fill="#c2cee9" stroke="black" stroke-width="0" d="M676.76,-1005.89C676.76,-1005.89 224.22,-1005.89 224.22,-1005.89 218.22,-1005.89 212.22,-999.89 212.22,-993.89 212.22,-993.89 212.22,-981.89 212.22,-981.89 212.22,-975.89 218.22,-969.89 224.22,-969.89 224.22,-969.89 676.76,-969.89 676.76,-969.89 682.76,-969.89 688.76,-975.89 688.76,-981.89 688.76,-981.89 688.76,-993.89 688.76,-993.89 688.76,-999.89 682.76,-1005.89 676.76,-1005.89"/>
<text text-anchor="start" x="226.62" y="-984.21" font-family="Roboto, sans-serif" font-weight="bold" font-size="14.00">10: </text>
<text text-anchor="start" x="255.87" y="-984.21" font-family="Roboto, sans-serif" font-size="14.00">Ist die zu stornierende Rechnung beim Empf&#228;nger bekannt?</text>
</g>
<!-- Start&#45;&gt;10 -->
<g id="edge1" class="edge">
<title>Start-&gt;10</title>
<path fill="none" stroke="#88a0d6" d="M450.49,-1043.13C450.49,-1035.06 450.49,-1025.65 450.49,-1016.96"/>
<polygon fill="#88a0d6" stroke="#88a0d6" points="453.99,-1017.25 450.49,-1007.25 446.99,-1017.25 453.99,-1017.25"/>
</g>
<!-- A01 -->
<g id="node3" class="node">
<title>A01</title>
<path fill="#c4cac1" stroke="black" stroke-width="0" d="M315.73,-916.64C315.73,-916.64 15.25,-916.64 15.25,-916.64 9.25,-916.64 3.25,-910.64 3.25,-904.64 3.25,-904.64 3.25,-879.12 3.25,-879.12 3.25,-873.12 9.25,-867.12 15.25,-867.12 15.25,-867.12 315.73,-867.12 315.73,-867.12 321.73,-867.12 327.73,-873.12 327.73,-879.12 327.73,-879.12 327.73,-904.64 327.73,-904.64 327.73,-910.64 321.73,-916.64 315.73,-916.64"/>
<text text-anchor="start" x="15.49" y="-898.58" font-family="Roboto, sans-serif" font-weight="bold" font-size="14.00">A01</text>
<text text-anchor="start" x="15.49" y="-886.48" font-family="Roboto, sans-serif" text-decoration="underline" font-size="12.00">Hinweis:</text>
<text text-anchor="start" x="15.49" y="-874.48" font-family="Roboto, sans-serif" font-size="12.00">Die zu stornierende Rechnung ist nicht vorhanden.</text>
</g>
<!-- 10&#45;&gt;A01 -->
<g id="edge2" class="edge">
<title>10-&gt;A01</title>
<path fill="none" stroke="#88a0d6" d="M399.21,-969.97C357.27,-956.14 297.14,-936.31 248.37,-920.22"/>
<polygon fill="#88a0d6" stroke="#88a0d6" points="249.55,-916.92 238.95,-917.11 247.35,-923.57 249.55,-916.92"/>
<text text-anchor="start" x="341.49" y="-939.59" font-family="Roboto, sans-serif" font-weight="bold" font-size="14.00">NEIN</text>
</g>
<!-- 15 -->
<g id="node4" class="node">
<title>15</title>
<path fill="#c2cee9" stroke="black" stroke-width="0" d="M975.64,-914.52C975.64,-914.52 357.34,-914.52 357.34,-914.52 351.34,-914.52 345.34,-908.52 345.34,-902.52 345.34,-902.52 345.34,-881.24 345.34,-881.24 345.34,-875.24 351.34,-869.24 357.34,-869.24 357.34,-869.24 975.64,-869.24 975.64,-869.24 981.64,-869.24 987.64,-875.24 987.64,-881.24 987.64,-881.24 987.64,-902.52 987.64,-902.52 987.64,-908.52 981.64,-914.52 975.64,-914.52"/>
<text text-anchor="start" x="359.74" y="-893.58" font-family="Roboto, sans-serif" font-weight="bold" font-size="14.00">15: </text>
<text text-anchor="start" x="388.99" y="-893.58" font-family="Roboto, sans-serif" font-size="14.00">Liegt vom Rechnungssteller die in dieser Rechnung verwendete Rechnungsnummer</text>
<text text-anchor="start" x="359.74" y="-879.58" font-family="Roboto, sans-serif" font-size="14.00">bereits vor?</text>
</g>
<!-- 10&#45;&gt;15 -->
<g id="edge3" class="edge">
<title>10-&gt;15</title>
<path fill="none" stroke="#88a0d6" d="M489.11,-970.08C521.72,-955.89 568.96,-935.33 606.5,-918.99"/>
<polygon fill="#88a0d6" stroke="#88a0d6" points="607.64,-922.31 615.42,-915.11 604.85,-915.89 607.64,-922.31"/>
<text text-anchor="start" x="564.49" y="-939.59" font-family="Roboto, sans-serif" font-weight="bold" font-size="14.00">JA</text>
</g>
<!-- A06 -->
<g id="node5" class="node">
<title>A06</title>
<path fill="#c4cac1" stroke="black" stroke-width="0" d="M459.23,-813.87C459.23,-813.87 185.75,-813.87 185.75,-813.87 179.75,-813.87 173.75,-807.87 173.75,-801.87 173.75,-801.87 173.75,-776.35 173.75,-776.35 173.75,-770.35 179.75,-764.35 185.75,-764.35 185.75,-764.35 459.23,-764.35 459.23,-764.35 465.23,-764.35 471.23,-770.35 471.23,-776.35 471.23,-776.35 471.23,-801.87 471.23,-801.87 471.23,-807.87 465.23,-813.87 459.23,-813.87"/>
<text text-anchor="start" x="185.99" y="-795.81" font-family="Roboto, sans-serif" font-weight="bold" font-size="14.00">A06</text>
<text text-anchor="start" x="185.99" y="-783.71" font-family="Roboto, sans-serif" text-decoration="underline" font-size="12.00">Hinweis:</text>
<text text-anchor="start" x="185.99" y="-771.71" font-family="Roboto, sans-serif" font-size="12.00">Rechnungsnummer wurde bereits verwendet.</text>
</g>
<!-- 15&#45;&gt;A06 -->
<g id="edge4" class="edge">
<title>15-&gt;A06</title>
<path fill="none" stroke="#88a0d6" d="M592.69,-869.26C540.5,-853.97 470.17,-833.37 414.34,-817.02"/>
<polygon fill="#88a0d6" stroke="#88a0d6" points="415.41,-813.68 404.83,-814.23 413.44,-820.4 415.41,-813.68"/>
<text text-anchor="start" x="514.49" y="-836.82" font-family="Roboto, sans-serif" font-weight="bold" font-size="14.00">JA</text>
</g>
<!-- 20 -->
<g id="node6" class="node">
<title>20</title>
<path fill="#c2cee9" stroke="black" stroke-width="0" d="M915.26,-807.11C915.26,-807.11 501.72,-807.11 501.72,-807.11 495.72,-807.11 489.72,-801.11 489.72,-795.11 489.72,-795.11 489.72,-783.11 489.72,-783.11 489.72,-777.11 495.72,-771.11 501.72,-771.11 501.72,-771.11 915.26,-771.11 915.26,-771.11 921.26,-771.11 927.26,-777.11 927.26,-783.11 927.26,-783.11 927.26,-795.11 927.26,-795.11 927.26,-801.11 921.26,-807.11 915.26,-807.11"/>
<text text-anchor="start" x="504.12" y="-785.43" font-family="Roboto, sans-serif" font-weight="bold" font-size="14.00">20: </text>
<text text-anchor="start" x="533.37" y="-785.43" font-family="Roboto, sans-serif" font-size="14.00">Wurde die zu stornierende Rechnung bereits storniert?</text>
</g>
<!-- 15&#45;&gt;20 -->
<g id="edge5" class="edge">
<title>15-&gt;20</title>
<path fill="none" stroke="#88a0d6" d="M675.4,-869.51C681.74,-854.3 690.3,-833.74 697.14,-817.35"/>
<polygon fill="#88a0d6" stroke="#88a0d6" points="700.34,-818.77 700.95,-808.19 693.88,-816.07 700.34,-818.77"/>
<text text-anchor="start" x="689.49" y="-836.82" font-family="Roboto, sans-serif" font-weight="bold" font-size="14.00">NEIN</text>
</g>
<!-- A02 -->
<g id="node7" class="node">
<title>A02</title>
<path fill="#c4cac1" stroke="black" stroke-width="0" d="M413.23,-711.1C413.23,-711.1 91.75,-711.1 91.75,-711.1 85.75,-711.1 79.75,-705.1 79.75,-699.1 79.75,-699.1 79.75,-673.58 79.75,-673.58 79.75,-667.58 85.75,-661.58 91.75,-661.58 91.75,-661.58 413.23,-661.58 413.23,-661.58 419.23,-661.58 425.23,-667.58 425.23,-673.58 425.23,-673.58 425.23,-699.1 425.23,-699.1 425.23,-705.1 419.23,-711.1 413.23,-711.1"/>
<text text-anchor="start" x="91.99" y="-693.04" font-family="Roboto, sans-serif" font-weight="bold" font-size="14.00">A02</text>
<text text-anchor="start" x="91.99" y="-680.94" font-family="Roboto, sans-serif" text-decoration="underline" font-size="12.00">Hinweis:</text>
<text text-anchor="start" x="91.99" y="-668.94" font-family="Roboto, sans-serif" font-size="12.00">Die zu stornierende Rechnung wurde bereits storniert.</text>
</g>
<!-- 20&#45;&gt;A02 -->
<g id="edge6" class="edge">
<title>20-&gt;A02</title>
<path fill="none" stroke="#88a0d6" d="M631.65,-771.13C560.31,-755.36 453.02,-731.66 370.76,-713.48"/>
<polygon fill="#88a0d6" stroke="#88a0d6" points="371.58,-710.07 361.06,-711.33 370.07,-716.91 371.58,-710.07"/>
<text text-anchor="start" x="507.49" y="-734.05" font-family="Roboto, sans-serif" font-weight="bold" font-size="14.00">JA</text>
</g>
<!-- 30 -->
<g id="node8" class="node">
<title>30</title>
<path fill="#c2cee9" stroke="black" stroke-width="0" d="M1043.64,-708.98C1043.64,-708.98 455.34,-708.98 455.34,-708.98 449.34,-708.98 443.34,-702.98 443.34,-696.98 443.34,-696.98 443.34,-675.7 443.34,-675.7 443.34,-669.7 449.34,-663.7 455.34,-663.7 455.34,-663.7 1043.64,-663.7 1043.64,-663.7 1049.64,-663.7 1055.64,-669.7 1055.64,-675.7 1055.64,-675.7 1055.64,-696.98 1055.64,-696.98 1055.64,-702.98 1049.64,-708.98 1043.64,-708.98"/>
<text text-anchor="start" x="457.74" y="-688.04" font-family="Roboto, sans-serif" font-weight="bold" font-size="14.00">30: </text>
<text text-anchor="start" x="486.99" y="-688.04" font-family="Roboto, sans-serif" font-size="14.00">Ist der Rechnungstyp der Stornorechnung identisch mit dem Rechnungstyp der</text>
<text text-anchor="start" x="457.74" y="-674.04" font-family="Roboto, sans-serif" font-size="14.00">urspr&#252;nglichen Rechnung?</text>
</g>
<!-- 20&#45;&gt;30 -->
<g id="edge7" class="edge">
<title>20-&gt;30</title>
<path fill="none" stroke="#88a0d6" d="M715.26,-771.47C721.02,-757.3 729.47,-736.55 736.53,-719.2"/>
<polygon fill="#88a0d6" stroke="#88a0d6" points="739.61,-720.91 740.14,-710.33 733.12,-718.28 739.61,-720.91"/>
<text text-anchor="start" x="730.49" y="-734.05" font-family="Roboto, sans-serif" font-weight="bold" font-size="14.00">NEIN</text>
</g>
<!-- A03 -->
<g id="node9" class="node">
<title>A03</title>
<path fill="#c4cac1" stroke="black" stroke-width="0" d="M574.48,-608.33C574.48,-608.33 92.5,-608.33 92.5,-608.33 86.5,-608.33 80.5,-602.33 80.5,-596.33 80.5,-596.33 80.5,-558.81 80.5,-558.81 80.5,-552.81 86.5,-546.81 92.5,-546.81 92.5,-546.81 574.48,-546.81 574.48,-546.81 580.48,-546.81 586.48,-552.81 586.48,-558.81 586.48,-558.81 586.48,-596.33 586.48,-596.33 586.48,-602.33 580.48,-608.33 574.48,-608.33"/>
<text text-anchor="start" x="92.74" y="-590.27" font-family="Roboto, sans-serif" font-weight="bold" font-size="14.00">A03</text>
<text text-anchor="start" x="92.74" y="-578.17" font-family="Roboto, sans-serif" text-decoration="underline" font-size="12.00">Hinweis:</text>
<text text-anchor="start" x="92.74" y="-566.17" font-family="Roboto, sans-serif" font-size="12.00">Der Rechnungstyp der Stornorechnung ist nicht identisch mit dem Rechnungstyp</text>
<text text-anchor="start" x="92.74" y="-554.17" font-family="Roboto, sans-serif" font-size="12.00">der urspr&#252;nglichen Rechnung.</text>
</g>
<!-- 30&#45;&gt;A03 -->
<g id="edge8" class="edge">
<title>30-&gt;A03</title>
<path fill="none" stroke="#88a0d6" d="M665.31,-663.73C606.38,-648.61 526.62,-628.14 460.06,-611.06"/>
<polygon fill="#88a0d6" stroke="#88a0d6" points="461.1,-607.71 450.54,-608.61 459.36,-614.49 461.1,-607.71"/>
<text text-anchor="start" x="578.49" y="-631.28" font-family="Roboto, sans-serif" font-weight="bold" font-size="14.00">NEIN</text>
</g>
<!-- 40 -->
<g id="node10" class="node">
<title>40</title>
<path fill="#c2cee9" stroke="black" stroke-width="0" d="M1202.14,-607.21C1202.14,-607.21 616.84,-607.21 616.84,-607.21 610.84,-607.21 604.84,-601.21 604.84,-595.21 604.84,-595.21 604.84,-559.93 604.84,-559.93 604.84,-553.93 610.84,-547.93 616.84,-547.93 616.84,-547.93 1202.14,-547.93 1202.14,-547.93 1208.14,-547.93 1214.14,-553.93 1214.14,-559.93 1214.14,-559.93 1214.14,-595.21 1214.14,-595.21 1214.14,-601.21 1208.14,-607.21 1202.14,-607.21"/>
<text text-anchor="start" x="619.24" y="-586.27" font-family="Roboto, sans-serif" font-weight="bold" font-size="14.00">40: </text>
<text text-anchor="start" x="648.49" y="-586.27" font-family="Roboto, sans-serif" font-size="14.00">Ist der Abrechnungszeitraum bzw. das Ausf&#252;hrungsdatum der Stornorechnung</text>
<text text-anchor="start" x="619.24" y="-572.27" font-family="Roboto, sans-serif" font-size="14.00">identisch mit dem Abrechnungszeitraum bzw. dem Ausf&#252;hrungsdatum der</text>
<text text-anchor="start" x="619.24" y="-558.27" font-family="Roboto, sans-serif" font-size="14.00">urspr&#252;nglichen Rechnung?</text>
</g>
<!-- 30&#45;&gt;40 -->
<g id="edge9" class="edge">
<title>30-&gt;40</title>
<path fill="none" stroke="#88a0d6" d="M781.87,-663.73C803.57,-649.25 832.62,-629.87 857.52,-613.25"/>
<polygon fill="#88a0d6" stroke="#88a0d6" points="859.2,-616.34 865.58,-607.87 855.32,-610.51 859.2,-616.34"/>
<text text-anchor="start" x="833.49" y="-631.28" font-family="Roboto, sans-serif" font-weight="bold" font-size="14.00">JA</text>
</g>
<!-- A04 -->
<g id="node11" class="node">
<title>A04</title>
<path fill="#c4cac1" stroke="black" stroke-width="0" d="M514.98,-493.56C514.98,-493.56 12,-493.56 12,-493.56 6,-493.56 0,-487.56 0,-481.56 0,-481.56 0,-432.04 0,-432.04 0,-426.04 6,-420.04 12,-420.04 12,-420.04 514.98,-420.04 514.98,-420.04 520.98,-420.04 526.98,-426.04 526.98,-432.04 526.98,-432.04 526.98,-481.56 526.98,-481.56 526.98,-487.56 520.98,-493.56 514.98,-493.56"/>
<text text-anchor="start" x="12.24" y="-475.5" font-family="Roboto, sans-serif" font-weight="bold" font-size="14.00">A04</text>
<text text-anchor="start" x="12.24" y="-463.4" font-family="Roboto, sans-serif" text-decoration="underline" font-size="12.00">Hinweis:</text>
<text text-anchor="start" x="12.24" y="-451.4" font-family="Roboto, sans-serif" font-size="12.00">Der Abrechnungszeitraum bzw. des Ausf&#252;hrungsdatum der Stornorechnung ist nicht</text>
<text text-anchor="start" x="12.24" y="-439.4" font-family="Roboto, sans-serif" font-size="12.00">identisch mit dem Abrechnungszeitraum bzw. dem Ausf&#252;hrungsdatum der</text>
<text text-anchor="start" x="12.24" y="-427.4" font-family="Roboto, sans-serif" font-size="12.00">urspr&#252;nglichen Rechnung.</text>
</g>
<!-- 40&#45;&gt;A04 -->
<g id="edge10" class="edge">
<title>40-&gt;A04</title>
<path fill="none" stroke="#88a0d6" d="M753.93,-547.97C668.46,-532.26 561.36,-512.57 469.07,-495.6"/>
<polygon fill="#88a0d6" stroke="#88a0d6" points="469.85,-492.18 459.38,-493.82 468.58,-499.07 469.85,-492.18"/>
<text text-anchor="start" x="643.49" y="-516.51" font-family="Roboto, sans-serif" font-weight="bold" font-size="14.00">NEIN</text>
</g>
<!-- 50 -->
<g id="node12" class="node">
<title>50</title>
<path fill="#c2cee9" stroke="black" stroke-width="0" d="M1423.76,-486.44C1423.76,-486.44 557.22,-486.44 557.22,-486.44 551.22,-486.44 545.22,-480.44 545.22,-474.44 545.22,-474.44 545.22,-439.16 545.22,-439.16 545.22,-433.16 551.22,-427.16 557.22,-427.16 557.22,-427.16 1423.76,-427.16 1423.76,-427.16 1429.76,-427.16 1435.76,-433.16 1435.76,-439.16 1435.76,-439.16 1435.76,-474.44 1435.76,-474.44 1435.76,-480.44 1429.76,-486.44 1423.76,-486.44"/>
<text text-anchor="start" x="559.62" y="-465.5" font-family="Roboto, sans-serif" font-weight="bold" font-size="14.00">50: </text>
<text text-anchor="start" x="588.87" y="-465.5" font-family="Roboto, sans-serif" font-size="14.00">Sind die mit (-1) multiplizierten Betr&#228;ge der Stornorechnung mit den Betr&#228;gen der urspr&#252;nglichen Rechnung identisch?</text>
<text text-anchor="start" x="559.62" y="-451.5" font-family="Roboto, sans-serif" font-size="14.00">Hinweis:</text>
<text text-anchor="start" x="559.62" y="-437.5" font-family="Roboto, sans-serif" font-size="14.00">Als Betrag ist der jeweilige Wert des jeweiligen MOA-Segments zu verstehen.</text>
</g>
<!-- 40&#45;&gt;50 -->
<g id="edge11" class="edge">
<title>40-&gt;50</title>
<path fill="none" stroke="#88a0d6" d="M928.89,-548.12C939.63,-532.37 953.12,-512.59 964.74,-495.56"/>
<polygon fill="#88a0d6" stroke="#88a0d6" points="967.37,-497.91 970.11,-487.68 961.59,-493.97 967.37,-497.91"/>
<text text-anchor="start" x="951.49" y="-516.51" font-family="Roboto, sans-serif" font-weight="bold" font-size="14.00">JA</text>
</g>
<!-- A05 -->
<g id="node13" class="node">
<title>A05</title>
<path fill="#c4cac1" stroke="black" stroke-width="0" d="M887.23,-366.79C887.23,-366.79 445.75,-366.79 445.75,-366.79 439.75,-366.79 433.75,-360.79 433.75,-354.79 433.75,-354.79 433.75,-317.27 433.75,-317.27 433.75,-311.27 439.75,-305.27 445.75,-305.27 445.75,-305.27 887.23,-305.27 887.23,-305.27 893.23,-305.27 899.23,-311.27 899.23,-317.27 899.23,-317.27 899.23,-354.79 899.23,-354.79 899.23,-360.79 893.23,-366.79 887.23,-366.79"/>
<text text-anchor="start" x="445.99" y="-348.73" font-family="Roboto, sans-serif" font-weight="bold" font-size="14.00">A05</text>
<text text-anchor="start" x="445.99" y="-336.63" font-family="Roboto, sans-serif" text-decoration="underline" font-size="12.00">Hinweis:</text>
<text text-anchor="start" x="445.99" y="-324.63" font-family="Roboto, sans-serif" font-size="12.00">Mindestens ein Betrag der Stornorechnung passt nicht zu dem Betrag der</text>
<text text-anchor="start" x="445.99" y="-312.63" font-family="Roboto, sans-serif" font-size="12.00">urspr&#252;nglichen Rechnung.</text>
</g>
<!-- 50&#45;&gt;A05 -->
<g id="edge12" class="edge">
<title>50-&gt;A05</title>
<path fill="none" stroke="#88a0d6" d="M912.47,-427.2C865.98,-410.16 806.74,-388.44 758.04,-370.59"/>
<polygon fill="#88a0d6" stroke="#88a0d6" points="759.51,-367.4 748.92,-367.25 757.1,-373.97 759.51,-367.4"/>
<text text-anchor="start" x="837.49" y="-389.74" font-family="Roboto, sans-serif" font-weight="bold" font-size="14.00">NEIN</text>
</g>
<!-- 60 -->
<g id="node14" class="node">
<title>60</title>
<path fill="#c2cee9" stroke="black" stroke-width="0" d="M1323.52,-354.03C1323.52,-354.03 929.47,-354.03 929.47,-354.03 923.47,-354.03 917.47,-348.03 917.47,-342.03 917.47,-342.03 917.47,-330.03 917.47,-330.03 917.47,-324.03 923.47,-318.03 929.47,-318.03 929.47,-318.03 1323.52,-318.03 1323.52,-318.03 1329.52,-318.03 1335.52,-324.03 1335.52,-330.03 1335.52,-330.03 1335.52,-342.03 1335.52,-342.03 1335.52,-348.03 1329.52,-354.03 1323.52,-354.03"/>
<text text-anchor="start" x="931.87" y="-332.35" font-family="Roboto, sans-serif" font-weight="bold" font-size="14.00">60: </text>
<text text-anchor="start" x="961.12" y="-332.35" font-family="Roboto, sans-serif" font-size="14.00">Ist ein zuvor nicht spezifizierter Fehler aufgetreten?</text>
</g>
<!-- 50&#45;&gt;60 -->
<g id="edge13" class="edge">
<title>50-&gt;60</title>
<path fill="none" stroke="#88a0d6" d="M1023.07,-427.35C1046.13,-407.21 1076.75,-380.47 1098.67,-361.32"/>
<polygon fill="#88a0d6" stroke="#88a0d6" points="1100.83,-364.09 1106.06,-354.87 1096.22,-358.82 1100.83,-364.09"/>
<text text-anchor="start" x="1070.49" y="-389.74" font-family="Roboto, sans-serif" font-weight="bold" font-size="14.00">JA</text>
</g>
<!-- A99 -->
<g id="node15" class="node">
<title>A99</title>
<path fill="#c4cac1" stroke="black" stroke-width="0" d="M961.73,-252.02C961.73,-252.02 487.25,-252.02 487.25,-252.02 481.25,-252.02 475.25,-246.02 475.25,-240.02 475.25,-240.02 475.25,-190.5 475.25,-190.5 475.25,-184.5 481.25,-178.5 487.25,-178.5 487.25,-178.5 961.73,-178.5 961.73,-178.5 967.73,-178.5 973.73,-184.5 973.73,-190.5 973.73,-190.5 973.73,-240.02 973.73,-240.02 973.73,-246.02 967.73,-252.02 961.73,-252.02"/>
<text text-anchor="start" x="487.49" y="-233.96" font-family="Roboto, sans-serif" font-weight="bold" font-size="14.00">A99</text>
<text text-anchor="start" x="487.49" y="-221.86" font-family="Roboto, sans-serif" text-decoration="underline" font-size="12.00">Hinweis:</text>
<text text-anchor="start" x="487.49" y="-209.86" font-family="Roboto, sans-serif" font-size="12.00">Ablehnung Sonstiges</text>
<text text-anchor="start" x="487.49" y="-197.86" font-family="Roboto, sans-serif" font-size="12.00">Hinweis: Das identifizierte Problem ist in der Antwort zu beschreiben/benennen.</text>
<text text-anchor="start" x="487.49" y="-185.86" font-family="Roboto, sans-serif" font-size="12.00">Nutzungsm&#246;glichkeit Ende: 01.04.2026 00:00 Uhr</text>
</g>
<!-- 60&#45;&gt;A99 -->
<g id="edge14" class="edge">
<title>60-&gt;A99</title>
<path fill="none" stroke="#88a0d6" d="M1069.32,-318.14C1014.06,-301.81 928.35,-276.49 856.21,-255.18"/>
<polygon fill="#88a0d6" stroke="#88a0d6" points="857.24,-251.83 846.66,-252.36 855.26,-258.55 857.24,-251.83"/>
<text text-anchor="start" x="961.49" y="-274.97" font-family="Roboto, sans-serif" font-weight="bold" font-size="14.00">JA</text>
</g>
<!-- 70 -->
<g id="node16" class="node">
<title>70</title>
<path fill="#c2cee9" stroke="black" stroke-width="0" d="M1389.39,-233.26C1389.39,-233.26 1003.59,-233.26 1003.59,-233.26 997.59,-233.26 991.59,-227.26 991.59,-221.26 991.59,-221.26 991.59,-209.26 991.59,-209.26 991.59,-203.26 997.59,-197.26 1003.59,-197.26 1003.59,-197.26 1389.39,-197.26 1389.39,-197.26 1395.39,-197.26 1401.39,-203.26 1401.39,-209.26 1401.39,-209.26 1401.39,-221.26 1401.39,-221.26 1401.39,-227.26 1395.39,-233.26 1389.39,-233.26"/>
<text text-anchor="start" x="1005.99" y="-211.58" font-family="Roboto, sans-serif" font-weight="bold" font-size="14.00">70: </text>
<text text-anchor="start" x="1035.24" y="-211.58" font-family="Roboto, sans-serif" font-size="14.00">Wurde der urspr&#252;nglichen Rechnung zugestimmt?</text>
</g>
<!-- 60&#45;&gt;70 -->
<g id="edge15" class="edge">
<title>60-&gt;70</title>
<path fill="none" stroke="#88a0d6" d="M1136.37,-318.27C1147.94,-298.64 1167.25,-265.87 1180.86,-242.79"/>
<polygon fill="#88a0d6" stroke="#88a0d6" points="1183.83,-244.64 1185.89,-234.24 1177.8,-241.08 1183.83,-244.64"/>
<text text-anchor="start" x="1163.49" y="-274.97" font-family="Roboto, sans-serif" font-weight="bold" font-size="14.00">NEIN</text>
</g>
<!-- Ende -->
<g id="node17" class="node">
<title>Ende</title>
<path fill="#8ba2d7" stroke="black" stroke-width="0" d="M1046.52,-36C1046.52,-36 1006.47,-36 1006.47,-36 1000.47,-36 994.47,-30 994.47,-24 994.47,-24 994.47,-12 994.47,-12 994.47,-6 1000.47,0 1006.47,0 1006.47,0 1046.52,0 1046.52,0 1052.52,0 1058.52,-6 1058.52,-12 1058.52,-12 1058.52,-24 1058.52,-24 1058.52,-30 1052.52,-36 1046.52,-36"/>
<text text-anchor="middle" x="1026.49" y="-13.32" font-family="Roboto, sans-serif" font-size="14.00">Ende</text>
</g>
<!-- 70&#45;&gt;Ende -->
<g id="edge16" class="edge">
<title>70-&gt;Ende</title>
<path fill="none" stroke="#88a0d6" d="M1124.06,-197.38C1085.96,-184.42 1042.54,-162.25 1019.74,-125.25 1005.29,-101.8 1009.95,-69.65 1016.37,-46.87"/>
<polygon fill="#88a0d6" stroke="#88a0d6" points="1019.7,-47.94 1019.34,-37.35 1013.02,-45.85 1019.7,-47.94"/>
<text text-anchor="start" x="1019.49" y="-103.58" font-family="Roboto, sans-serif" font-weight="bold" font-size="14.00">JA</text>
</g>
<!-- 80 -->
<g id="node18" class="node">
<title>80</title>
<path fill="#c2cee9" stroke="black" stroke-width="0" d="M1418.39,-125.25C1418.39,-125.25 1056.59,-125.25 1056.59,-125.25 1050.59,-125.25 1044.59,-119.25 1044.59,-113.25 1044.59,-113.25 1044.59,-101.25 1044.59,-101.25 1044.59,-95.25 1050.59,-89.25 1056.59,-89.25 1056.59,-89.25 1418.39,-89.25 1418.39,-89.25 1424.39,-89.25 1430.39,-95.25 1430.39,-101.25 1430.39,-101.25 1430.39,-113.25 1430.39,-113.25 1430.39,-119.25 1424.39,-125.25 1418.39,-125.25"/>
<text text-anchor="start" x="1058.99" y="-103.58" font-family="Roboto, sans-serif" font-weight="bold" font-size="14.00">80: </text>
<text text-anchor="start" x="1088.24" y="-103.58" font-family="Roboto, sans-serif" font-size="14.00">Wurde die urspr&#252;ngliche Rechnung abgelehnt?</text>
</g>
<!-- 70&#45;&gt;80 -->
<g id="edge17" class="edge">
<title>70-&gt;80</title>
<path fill="none" stroke="#88a0d6" d="M1202.9,-197.7C1209.3,-181.15 1219.25,-155.41 1226.84,-135.78"/>
<polygon fill="#88a0d6" stroke="#88a0d6" points="1230.1,-137.05 1230.45,-126.46 1223.58,-134.52 1230.1,-137.05"/>
<text text-anchor="start" x="1222.49" y="-148.2" font-family="Roboto, sans-serif" font-weight="bold" font-size="14.00">NEIN</text>
</g>
<!-- 80&#45;&gt;Ende -->
<g id="edge18" class="edge">
<title>80-&gt;Ende</title>
<path fill="none" stroke="#88a0d6" d="M1196.56,-89.32C1159.8,-74.12 1106.05,-51.9 1068.86,-36.52"/>
<polygon fill="#88a0d6" stroke="#88a0d6" points="1070.34,-33.34 1059.76,-32.76 1067.66,-39.81 1070.34,-33.34"/>
<text text-anchor="start" x="1150.49" y="-58.95" font-family="Roboto, sans-serif" font-weight="bold" font-size="14.00">NEIN</text>
</g>
</g>
</svg>
  </g>
</svg>
  </g>
</svg>
