<?xml version='1.0' encoding='ASCII' standalone='yes'?>
<svg xmlns="http://www.w3.org/2000/svg" xmlns:xlink="http://www.w3.org/1999/xlink" version="1.1" width="5560.0px" viewBox="0 0 5560.0 1557.3333333333333" height="1557.3333333333333px">
  <g>
    <svg version="1.1" width="5560.0px" viewBox="0 0 5560.0 1557.3333333333333" height="1557.3333333333333px">
  <polygon fill="#f3f1f6" points="0,0 5560.0,0 5560.0,1557.3333333333333 0,1557.3333333333333"/><g>
    <g transform="translate(2157.528737142062, 155.7333333333333) scale(1 1) translate(0, 0) scale(7.04322041605277 7.04322041605277) "><sodipodi:namedview xmlns:sodipodi="http://sodipodi.sourceforge.net/DTD/sodipodi-0.dtd" xmlns:inkscape="http://www.inkscape.org/namespaces/inkscape" id="namedview7" pagecolor="#ffffff" bordercolor="#999999" borderopacity="1" inkscape:pageshadow="0" inkscape:pageopacity="0" inkscape:pagecheckerboard="0" inkscape:document-units="mm" showgrid="false" fit-margin-top="0" fit-margin-left="0" fit-margin-right="0" fit-margin-bottom="0" inkscape:zoom="0.64052329" inkscape:cx="130.36216" inkscape:cy="412.163" inkscape:window-width="1512" inkscape:window-height="916" inkscape:window-x="3840" inkscape:window-y="136" inkscape:window-maximized="0" inkscape:current-layer="layer1"/>
  <defs id="defs2">
    <clipPath clipPathUnits="userSpaceOnUse" id="clipPath23">
      <path d="M 0,568.156 H 579.236 V 0 H 0 Z" id="path21"/>
    </clipPath>
  </defs>
  <g xmlns:inkscape="http://www.inkscape.org/namespaces/inkscape" inkscape:label="Layer 1" inkscape:groupmode="layer" id="layer1" transform="translate(-16.541937,-55.305267)">
    <g id="g19" clip-path="url(#clipPath23)" transform="matrix(0.35277777,0,0,-0.35277777,0.01017023,243.73675)" style="opacity:0.2">
      <g id="g25" transform="translate(122.444,32.7195)">
        <path d="m 0,0 h -56.104 c -11,0 -19.898,9.123 -19.463,20.115 10.594,267.191 231.277,481.302 501.029,481.302 v -56.02 c 0,-10.98 -8.688,-19.892 -19.658,-20.393 C 180.29,414.697 0,228.005 0,0" style="fill:#6ead83;fill-opacity:0.5;fill-rule:nonzero;stroke:none" id="path27"/>
      </g>
      <g id="g29" transform="translate(273.7828,32.7195)">
        <path d="m 0,0 h -55.926 c -11.228,0 -20.091,9.482 -19.435,20.69 10.744,183.439 163.389,329.388 349.485,329.388 v -56.263 c 0,-10.709 -8.273,-19.617 -18.957,-20.35 C 112.819,263.696 0,144.774 0,0" style="fill:#6ead83;fill-opacity:0.5;fill-rule:nonzero;stroke:none" id="path31"/>
      </g>
      <g id="g33" transform="translate(425.7667,32.7195)">
        <path d="m 0,0 h -55.445 c -11.653,0 -20.604,10.17 -19.334,21.753 10.866,99.032 95.031,176.341 196.919,176.341 v -57.011 c 0,-10.046 -7.283,-18.755 -17.229,-20.165 C 45.688,112.522 0,61.497 0,0" style="fill:#6ead83;fill-opacity:0.5;fill-rule:nonzero;stroke:none" id="path35"/>
      </g>
    </g>
  </g>
</g>
    <svg width="4170pt" height="1168pt" viewBox="0.00 0.00 4169.68 1167.93">
<g id="graph0" class="graph" transform="scale(1 1) rotate(0) translate(4 1163.93)">
<title>D</title>
<text text-anchor="start" x="2023.46" y="-1139.83" font-family="Times,serif" font-weight="bold" font-size="18.00">WiM Strom</text>
<text text-anchor="start" x="1793.59" y="-1109.73" font-family="Times,serif" font-weight="bold" font-size="16.00">8.14.4: AD: Abrechnung Messstellenbetrieb gegen&#252;ber dem NB</text>
<!-- Start -->
<g id="node1" class="node">
<title>Start</title>
<polygon fill="#7a8da1" stroke="black" points="324.68,-1061.93 164.63,-1061.93 164.63,-1018.65 324.68,-1018.65 324.68,-1061.93"/>
<text text-anchor="start" x="216.53" y="-1040.99" font-family="Times,serif" font-weight="bold" font-size="14.00">E_0569</text>
<text text-anchor="start" x="179.03" y="-1028.89" font-family="Times,serif" font-weight="bold" text-decoration="underline" font-size="12.00">Pr&#252;fende Rolle:</text>
<text text-anchor="start" x="284.03" y="-1028.89" font-family="Times,serif" font-weight="bold" font-size="12.00"> NB</text>
</g>
<!-- 10 -->
<g id="node2" class="node">
<title>10</title>
<path fill="#7aab8a" stroke="black" d="M477.3,-981.65C477.3,-981.65 12,-981.65 12,-981.65 6,-981.65 0,-975.65 0,-969.65 0,-969.65 0,-957.65 0,-957.65 0,-951.65 6,-945.65 12,-945.65 12,-945.65 477.3,-945.65 477.3,-945.65 483.3,-945.65 489.3,-951.65 489.3,-957.65 489.3,-957.65 489.3,-969.65 489.3,-969.65 489.3,-975.65 483.3,-981.65 477.3,-981.65"/>
<text text-anchor="start" x="14.4" y="-959.97" font-family="Times,serif" font-weight="bold" font-size="14.00">10: </text>
<text text-anchor="start" x="43.65" y="-959.97" font-family="Times,serif" font-size="14.00">Ist die zu stornierende Rechnung beim Empf&#228;nger bekannt?</text>
</g>
<!-- Start&#45;&gt;10 -->
<g id="edge1" class="edge">
<title>Start-&gt;10</title>
<path fill="none" stroke="black" d="M244.65,-1018.5C244.65,-1010.64 244.65,-1001.56 244.65,-993.12"/>
<polygon fill="black" stroke="black" points="248.15,-993.32 244.65,-983.32 241.15,-993.32 248.15,-993.32"/>
</g>
<!-- A01 -->
<g id="node3" class="node">
<title>A01</title>
<polygon fill="#cfb986" stroke="black" points="381.52,-892.4 51.79,-892.4 51.79,-842.88 381.52,-842.88 381.52,-892.4"/>
<text text-anchor="start" x="201.65" y="-874.34" font-family="Times,serif" font-weight="bold" font-size="14.00">A01</text>
<text text-anchor="start" x="64.03" y="-862.24" font-family="Times,serif" text-decoration="underline" font-size="12.00">Hinweis:</text>
<text text-anchor="start" x="64.03" y="-850.24" font-family="Times,serif" font-size="12.00">Die zu stornierende Rechnung ist nicht vorhanden.</text>
</g>
<!-- 10&#45;&gt;A01 -->
<g id="edge2" class="edge">
<title>10-&gt;A01</title>
<path fill="none" stroke="black" d="M239.51,-945.41C236.05,-933.78 231.36,-918.02 227.13,-903.81"/>
<polygon fill="black" stroke="black" points="230.5,-902.89 224.29,-894.3 223.79,-904.89 230.5,-902.89"/>
<text text-anchor="middle" x="251.53" y="-914.35" font-family="Times,serif" font-size="14.00">Nein</text>
</g>
<!-- 15 -->
<g id="node4" class="node">
<title>15</title>
<path fill="#7aab8a" stroke="black" d="M1136.05,-885.64C1136.05,-885.64 411.25,-885.64 411.25,-885.64 405.25,-885.64 399.25,-879.64 399.25,-873.64 399.25,-873.64 399.25,-861.64 399.25,-861.64 399.25,-855.64 405.25,-849.64 411.25,-849.64 411.25,-849.64 1136.05,-849.64 1136.05,-849.64 1142.05,-849.64 1148.05,-855.64 1148.05,-861.64 1148.05,-861.64 1148.05,-873.64 1148.05,-873.64 1148.05,-879.64 1142.05,-885.64 1136.05,-885.64"/>
<text text-anchor="start" x="413.65" y="-863.96" font-family="Times,serif" font-weight="bold" font-size="14.00">15: </text>
<text text-anchor="start" x="442.9" y="-863.96" font-family="Times,serif" font-size="14.00">Liegt vom Rechnungssteller die in dieser Rechnung verwendete Rechnungsnummer bereits vor?</text>
</g>
<!-- 10&#45;&gt;15 -->
<g id="edge3" class="edge">
<title>10-&gt;15</title>
<path fill="none" stroke="black" d="M342.91,-945.19C434.07,-928.99 569.54,-904.91 664.14,-888.1"/>
<polygon fill="black" stroke="black" points="664.74,-891.55 673.98,-886.35 663.52,-884.66 664.74,-891.55"/>
<text text-anchor="middle" x="532.4" y="-914.35" font-family="Times,serif" font-size="14.00">Ja</text>
</g>
<!-- A06 -->
<g id="node5" class="node">
<title>A06</title>
<polygon fill="#cfb986" stroke="black" points="815.77,-789.63 517.54,-789.63 517.54,-740.11 815.77,-740.11 815.77,-789.63"/>
<text text-anchor="start" x="651.65" y="-771.57" font-family="Times,serif" font-weight="bold" font-size="14.00">A06</text>
<text text-anchor="start" x="529.78" y="-759.47" font-family="Times,serif" text-decoration="underline" font-size="12.00">Hinweis:</text>
<text text-anchor="start" x="529.78" y="-747.47" font-family="Times,serif" font-size="12.00">Rechnungsnummer wurde bereits verwendet.</text>
</g>
<!-- 15&#45;&gt;A06 -->
<g id="edge4" class="edge">
<title>15-&gt;A06</title>
<path fill="none" stroke="black" d="M755.5,-849.55C740.4,-835.33 718.5,-814.71 700.23,-797.49"/>
<polygon fill="black" stroke="black" points="702.9,-795.2 693.22,-790.9 698.1,-800.3 702.9,-795.2"/>
<text text-anchor="middle" x="733.4" y="-811.58" font-family="Times,serif" font-size="14.00">Ja</text>
</g>
<!-- 20 -->
<g id="node6" class="node">
<title>20</title>
<path fill="#7aab8a" stroke="black" d="M1275.3,-782.87C1275.3,-782.87 846,-782.87 846,-782.87 840,-782.87 834,-776.87 834,-770.87 834,-770.87 834,-758.87 834,-758.87 834,-752.87 840,-746.87 846,-746.87 846,-746.87 1275.3,-746.87 1275.3,-746.87 1281.3,-746.87 1287.3,-752.87 1287.3,-758.87 1287.3,-758.87 1287.3,-770.87 1287.3,-770.87 1287.3,-776.87 1281.3,-782.87 1275.3,-782.87"/>
<text text-anchor="start" x="848.4" y="-761.19" font-family="Times,serif" font-weight="bold" font-size="14.00">20: </text>
<text text-anchor="start" x="877.65" y="-761.19" font-family="Times,serif" font-size="14.00">Wurde die zu stornierende Rechnung bereits storniert?</text>
</g>
<!-- 15&#45;&gt;20 -->
<g id="edge5" class="edge">
<title>15-&gt;20</title>
<path fill="none" stroke="black" d="M823.31,-849.2C872.44,-831.95 947.7,-805.53 1000.26,-787.07"/>
<polygon fill="black" stroke="black" points="1001.41,-790.38 1009.69,-783.76 999.09,-783.77 1001.41,-790.38"/>
<text text-anchor="middle" x="951.53" y="-811.58" font-family="Times,serif" font-size="14.00">Nein</text>
</g>
<!-- A02 -->
<g id="node7" class="node">
<title>A02</title>
<polygon fill="#cfb986" stroke="black" points="1076.14,-686.86 723.16,-686.86 723.16,-637.34 1076.14,-637.34 1076.14,-686.86"/>
<text text-anchor="start" x="884.65" y="-668.8" font-family="Times,serif" font-weight="bold" font-size="14.00">A02</text>
<text text-anchor="start" x="735.4" y="-656.7" font-family="Times,serif" text-decoration="underline" font-size="12.00">Hinweis:</text>
<text text-anchor="start" x="735.4" y="-644.7" font-family="Times,serif" font-size="12.00">Die zu stornierende Rechnung wurde bereits storniert.</text>
</g>
<!-- 20&#45;&gt;A02 -->
<g id="edge6" class="edge">
<title>20-&gt;A02</title>
<path fill="none" stroke="black" d="M1032.97,-746.55C1009.65,-731.95 975.74,-710.72 947.95,-693.33"/>
<polygon fill="black" stroke="black" points="950.02,-690.5 939.69,-688.16 946.31,-696.43 950.02,-690.5"/>
<text text-anchor="middle" x="997.4" y="-708.81" font-family="Times,serif" font-size="14.00">Ja</text>
</g>
<!-- 30 -->
<g id="node8" class="node">
<title>30</title>
<path fill="#7aab8a" stroke="black" d="M1907.3,-680.1C1907.3,-680.1 1106,-680.1 1106,-680.1 1100,-680.1 1094,-674.1 1094,-668.1 1094,-668.1 1094,-656.1 1094,-656.1 1094,-650.1 1100,-644.1 1106,-644.1 1106,-644.1 1907.3,-644.1 1907.3,-644.1 1913.3,-644.1 1919.3,-650.1 1919.3,-656.1 1919.3,-656.1 1919.3,-668.1 1919.3,-668.1 1919.3,-674.1 1913.3,-680.1 1907.3,-680.1"/>
<text text-anchor="start" x="1108.4" y="-658.42" font-family="Times,serif" font-weight="bold" font-size="14.00">30: </text>
<text text-anchor="start" x="1137.65" y="-658.42" font-family="Times,serif" font-size="14.00">Ist der Rechnungstyp der Stornorechnung identisch mit dem Rechnungstyp der urspr&#252;nglichen Rechnung?</text>
</g>
<!-- 20&#45;&gt;30 -->
<g id="edge7" class="edge">
<title>20-&gt;30</title>
<path fill="none" stroke="black" d="M1138.08,-746.37C1216.19,-728.73 1336.6,-701.52 1418.37,-683.05"/>
<polygon fill="black" stroke="black" points="1418.93,-686.51 1427.91,-680.89 1417.39,-679.68 1418.93,-686.51"/>
<text text-anchor="middle" x="1327.53" y="-708.81" font-family="Times,serif" font-size="14.00">Nein</text>
</g>
<!-- A03 -->
<g id="node9" class="node">
<title>A03</title>
<polygon fill="#cfb986" stroke="black" points="1580.02,-584.09 881.29,-584.09 881.29,-534.57 1580.02,-534.57 1580.02,-584.09"/>
<text text-anchor="start" x="1215.65" y="-566.03" font-family="Times,serif" font-weight="bold" font-size="14.00">A03</text>
<text text-anchor="start" x="893.53" y="-553.93" font-family="Times,serif" text-decoration="underline" font-size="12.00">Hinweis:</text>
<text text-anchor="start" x="893.53" y="-541.93" font-family="Times,serif" font-size="12.00">Der Rechnungstyp der Stornorechnung ist nicht identisch mit dem Rechnungstyp der urspr&#252;nglichen Rechnung.</text>
</g>
<!-- 30&#45;&gt;A03 -->
<g id="edge8" class="edge">
<title>30-&gt;A03</title>
<path fill="none" stroke="black" d="M1458.89,-643.66C1417.29,-628.47 1356.22,-606.18 1307.71,-588.46"/>
<polygon fill="black" stroke="black" points="1308.95,-585.19 1298.35,-585.05 1306.55,-591.77 1308.95,-585.19"/>
<text text-anchor="middle" x="1402.53" y="-606.04" font-family="Times,serif" font-size="14.00">Nein</text>
</g>
<!-- 40 -->
<g id="node10" class="node">
<title>40</title>
<path fill="#7aab8a" stroke="black" d="M2941.05,-577.33C2941.05,-577.33 1610.25,-577.33 1610.25,-577.33 1604.25,-577.33 1598.25,-571.33 1598.25,-565.33 1598.25,-565.33 1598.25,-553.33 1598.25,-553.33 1598.25,-547.33 1604.25,-541.33 1610.25,-541.33 1610.25,-541.33 2941.05,-541.33 2941.05,-541.33 2947.05,-541.33 2953.05,-547.33 2953.05,-553.33 2953.05,-553.33 2953.05,-565.33 2953.05,-565.33 2953.05,-571.33 2947.05,-577.33 2941.05,-577.33"/>
<text text-anchor="start" x="1612.65" y="-555.65" font-family="Times,serif" font-weight="bold" font-size="14.00">40: </text>
<text text-anchor="start" x="1641.9" y="-555.65" font-family="Times,serif" font-size="14.00">Ist der Abrechnungszeitraum bzw. das Ausf&#252;hrungsdatum der Stornorechnung identisch mit dem Abrechnungszeitraum bzw. dem Ausf&#252;hrungsdatum der urspr&#252;nglichen Rechnung?</text>
</g>
<!-- 30&#45;&gt;40 -->
<g id="edge9" class="edge">
<title>30-&gt;40</title>
<path fill="none" stroke="black" d="M1640.16,-643.6C1777.2,-625.65 1989.78,-597.79 2130.81,-579.31"/>
<polygon fill="black" stroke="black" points="2131.15,-582.8 2140.61,-578.03 2130.24,-575.85 2131.15,-582.8"/>
<text text-anchor="middle" x="1944.4" y="-606.04" font-family="Times,serif" font-size="14.00">Ja</text>
</g>
<!-- A04 -->
<g id="node11" class="node">
<title>A04</title>
<polygon fill="#cfb986" stroke="black" points="2571.14,-469.44 1426.16,-469.44 1426.16,-419.92 2571.14,-419.92 2571.14,-469.44"/>
<text text-anchor="start" x="1983.65" y="-451.38" font-family="Times,serif" font-weight="bold" font-size="14.00">A04</text>
<text text-anchor="start" x="1438.4" y="-439.28" font-family="Times,serif" text-decoration="underline" font-size="12.00">Hinweis:</text>
<text text-anchor="start" x="1438.4" y="-427.28" font-family="Times,serif" font-size="12.00">Der Abrechnungszeitraum bzw. des Ausf&#252;hrungsdatum der Stornorechnung ist nicht identisch mit dem Abrechnungszeitraum bzw. dem Ausf&#252;hrungsdatum der urspr&#252;nglichen Rechnung.</text>
</g>
<!-- 40&#45;&gt;A04 -->
<g id="edge10" class="edge">
<title>40-&gt;A04</title>
<path fill="none" stroke="black" d="M2232.67,-540.85C2188.89,-523.04 2120.26,-495.14 2068.63,-474.14"/>
<polygon fill="black" stroke="black" points="2070.19,-471 2059.61,-470.47 2067.56,-477.48 2070.19,-471"/>
<text text-anchor="middle" x="2187.53" y="-503.27" font-family="Times,serif" font-size="14.00">Nein</text>
</g>
<!-- 50 -->
<g id="node12" class="node">
<title>50</title>
<path fill="#7aab8a" stroke="black" d="M3495.8,-481.32C3495.8,-481.32 2601.5,-481.32 2601.5,-481.32 2595.5,-481.32 2589.5,-475.32 2589.5,-469.32 2589.5,-469.32 2589.5,-420.04 2589.5,-420.04 2589.5,-414.04 2595.5,-408.04 2601.5,-408.04 2601.5,-408.04 3495.8,-408.04 3495.8,-408.04 3501.8,-408.04 3507.8,-414.04 3507.8,-420.04 3507.8,-420.04 3507.8,-469.32 3507.8,-469.32 3507.8,-475.32 3501.8,-481.32 3495.8,-481.32"/>
<text text-anchor="start" x="2603.9" y="-460.38" font-family="Times,serif" font-weight="bold" font-size="14.00">50: </text>
<text text-anchor="start" x="2633.15" y="-460.38" font-family="Times,serif" font-size="14.00">Sind die mit (-1) multiplizierten Betr&#228;ge der Stornorechnung mit den Betr&#228;gen der urspr&#252;nglichen Rechnung identisch?</text>
<text text-anchor="start" x="2603.9" y="-432.38" font-family="Times,serif" font-size="14.00">Hinweis:</text>
<text text-anchor="start" x="2603.9" y="-418.38" font-family="Times,serif" font-size="14.00">Als Betrag ist der jeweilige Wert des jeweiligen MOA-Segments zu verstehen.</text>
</g>
<!-- 40&#45;&gt;50 -->
<g id="edge11" class="edge">
<title>40-&gt;50</title>
<path fill="none" stroke="black" d="M2395.58,-540.85C2500.45,-525.57 2656.37,-502.85 2789.56,-483.44"/>
<polygon fill="black" stroke="black" points="2789.85,-486.93 2799.24,-482.03 2788.84,-480 2789.85,-486.93"/>
<text text-anchor="middle" x="2669.4" y="-503.27" font-family="Times,serif" font-size="14.00">Ja</text>
</g>
<!-- A05 -->
<g id="node13" class="node">
<title>A05</title>
<polygon fill="#cfb986" stroke="black" points="3213.02,-354.79 2580.28,-354.79 2580.28,-305.27 3213.02,-305.27 3213.02,-354.79"/>
<text text-anchor="start" x="2881.65" y="-336.73" font-family="Times,serif" font-weight="bold" font-size="14.00">A05</text>
<text text-anchor="start" x="2592.53" y="-324.63" font-family="Times,serif" text-decoration="underline" font-size="12.00">Hinweis:</text>
<text text-anchor="start" x="2592.53" y="-312.63" font-family="Times,serif" font-size="12.00">Mindestens ein Betrag der Stornorechnung passt nicht zu dem Betrag der urspr&#252;nglichen Rechnung.</text>
</g>
<!-- 50&#45;&gt;A05 -->
<g id="edge12" class="edge">
<title>50-&gt;A05</title>
<path fill="none" stroke="black" d="M3000.14,-407.73C2980.28,-393.01 2957.52,-376.14 2938.42,-361.98"/>
<polygon fill="black" stroke="black" points="2940.69,-359.31 2930.57,-356.17 2936.52,-364.94 2940.69,-359.31"/>
<text text-anchor="middle" x="2989.53" y="-376.74" font-family="Times,serif" font-size="14.00">Nein</text>
</g>
<!-- 60 -->
<g id="node14" class="node">
<title>60</title>
<path fill="#7aab8a" stroke="black" d="M3651.8,-348.03C3651.8,-348.03 3243.5,-348.03 3243.5,-348.03 3237.5,-348.03 3231.5,-342.03 3231.5,-336.03 3231.5,-336.03 3231.5,-324.03 3231.5,-324.03 3231.5,-318.03 3237.5,-312.03 3243.5,-312.03 3243.5,-312.03 3651.8,-312.03 3651.8,-312.03 3657.8,-312.03 3663.8,-318.03 3663.8,-324.03 3663.8,-324.03 3663.8,-336.03 3663.8,-336.03 3663.8,-342.03 3657.8,-348.03 3651.8,-348.03"/>
<text text-anchor="start" x="3245.9" y="-326.35" font-family="Times,serif" font-weight="bold" font-size="14.00">60: </text>
<text text-anchor="start" x="3275.15" y="-326.35" font-family="Times,serif" font-size="14.00">Ist ein zuvor nicht spezifizierter Fehler aufgetreten?</text>
</g>
<!-- 50&#45;&gt;60 -->
<g id="edge13" class="edge">
<title>50-&gt;60</title>
<path fill="none" stroke="black" d="M3176.54,-407.57C3242.15,-389.05 3319.66,-367.16 3374.97,-351.55"/>
<polygon fill="black" stroke="black" points="3375.59,-355.01 3384.27,-348.93 3373.69,-348.27 3375.59,-355.01"/>
<text text-anchor="middle" x="3302.4" y="-376.74" font-family="Times,serif" font-size="14.00">Ja</text>
</g>
<!-- A99 -->
<g id="node15" class="node">
<title>A99</title>
<polygon fill="#cfb986" stroke="black" points="3573.27,-252.02 3062.03,-252.02 3062.03,-178.5 3573.27,-178.5 3573.27,-252.02"/>
<text text-anchor="start" x="3302.65" y="-233.96" font-family="Times,serif" font-weight="bold" font-size="14.00">A99</text>
<text text-anchor="start" x="3074.28" y="-221.86" font-family="Times,serif" text-decoration="underline" font-size="12.00">Hinweis:</text>
<text text-anchor="start" x="3074.28" y="-209.86" font-family="Times,serif" font-size="12.00">Ablehnung Sonstiges</text>
<text text-anchor="start" x="3074.28" y="-197.86" font-family="Times,serif" font-size="12.00">Hinweis: Das identifizierte Problem ist in der Antwort zu beschreiben/benennen. </text>
<text text-anchor="start" x="3074.28" y="-185.86" font-family="Times,serif" font-size="12.00">Nutzungsm&#246;glichkeit Ende: 01.04.2026 00:00 Uhr</text>
</g>
<!-- 60&#45;&gt;A99 -->
<g id="edge14" class="edge">
<title>60-&gt;A99</title>
<path fill="none" stroke="black" d="M3427.62,-311.66C3411.66,-297.81 3388.6,-277.81 3367.71,-259.69"/>
<polygon fill="black" stroke="black" points="3370.22,-257.23 3360.37,-253.32 3365.63,-262.52 3370.22,-257.23"/>
<text text-anchor="middle" x="3405.4" y="-273.97" font-family="Times,serif" font-size="14.00">Ja</text>
</g>
<!-- 70 -->
<g id="node16" class="node">
<title>70</title>
<path fill="#7aab8a" stroke="black" d="M3998.05,-233.26C3998.05,-233.26 3603.25,-233.26 3603.25,-233.26 3597.25,-233.26 3591.25,-227.26 3591.25,-221.26 3591.25,-221.26 3591.25,-209.26 3591.25,-209.26 3591.25,-203.26 3597.25,-197.26 3603.25,-197.26 3603.25,-197.26 3998.05,-197.26 3998.05,-197.26 4004.05,-197.26 4010.05,-203.26 4010.05,-209.26 4010.05,-209.26 4010.05,-221.26 4010.05,-221.26 4010.05,-227.26 4004.05,-233.26 3998.05,-233.26"/>
<text text-anchor="start" x="3605.65" y="-211.58" font-family="Times,serif" font-weight="bold" font-size="14.00">70: </text>
<text text-anchor="start" x="3634.9" y="-211.58" font-family="Times,serif" font-size="14.00">Wurde der urspr&#252;nglichen Rechnung zugestimmt?</text>
</g>
<!-- 60&#45;&gt;70 -->
<g id="edge15" class="edge">
<title>60-&gt;70</title>
<path fill="none" stroke="black" d="M3502.42,-311.53C3565.25,-291.46 3668.2,-258.57 3735.2,-237.17"/>
<polygon fill="black" stroke="black" points="3736.14,-240.54 3744.6,-234.17 3734.01,-233.87 3736.14,-240.54"/>
<text text-anchor="middle" x="3641.53" y="-273.97" font-family="Times,serif" font-size="14.00">Nein</text>
</g>
<!-- Ende -->
<g id="node17" class="node">
<title>Ende</title>
<polygon fill="#7a8da1" stroke="black" points="3784.43,-36 3718.88,-36 3718.88,0 3784.43,0 3784.43,-36"/>
<text text-anchor="middle" x="3751.65" y="-13.32" font-family="Times,serif" font-size="14.00">Ende</text>
</g>
<!-- 70&#45;&gt;Ende -->
<g id="edge16" class="edge">
<title>70-&gt;Ende</title>
<path fill="none" stroke="black" d="M3785.7,-196.95C3772.11,-179.99 3753.02,-152.74 3745.15,-125.25 3737.81,-99.62 3740.81,-69.13 3744.82,-47.4"/>
<polygon fill="black" stroke="black" points="3748.21,-48.3 3746.8,-37.8 3741.36,-46.89 3748.21,-48.3"/>
<text text-anchor="middle" x="3752.4" y="-102.58" font-family="Times,serif" font-size="14.00">Ja</text>
</g>
<!-- 80 -->
<g id="node18" class="node">
<title>80</title>
<path fill="#7aab8a" stroke="black" d="M4149.68,-125.25C4149.68,-125.25 3779.62,-125.25 3779.62,-125.25 3773.62,-125.25 3767.62,-119.25 3767.62,-113.25 3767.62,-113.25 3767.62,-101.25 3767.62,-101.25 3767.62,-95.25 3773.62,-89.25 3779.62,-89.25 3779.62,-89.25 4149.68,-89.25 4149.68,-89.25 4155.68,-89.25 4161.68,-95.25 4161.68,-101.25 4161.68,-101.25 4161.68,-113.25 4161.68,-113.25 4161.68,-119.25 4155.68,-125.25 4149.68,-125.25"/>
<text text-anchor="start" x="3782.03" y="-103.58" font-family="Times,serif" font-weight="bold" font-size="14.00">80: </text>
<text text-anchor="start" x="3811.28" y="-103.58" font-family="Times,serif" font-size="14.00">Wurde die urspr&#252;ngliche Rechnung abgelehnt?</text>
</g>
<!-- 70&#45;&gt;80 -->
<g id="edge17" class="edge">
<title>70-&gt;80</title>
<path fill="none" stroke="black" d="M3827.36,-196.99C3854.8,-179.26 3897.69,-151.53 3928.23,-131.79"/>
<polygon fill="black" stroke="black" points="3929.9,-134.88 3936.4,-126.51 3926.1,-129 3929.9,-134.88"/>
<text text-anchor="middle" x="3923.53" y="-147.2" font-family="Times,serif" font-size="14.00">Nein</text>
</g>
<!-- 80&#45;&gt;Ende -->
<g id="edge18" class="edge">
<title>80-&gt;Ende</title>
<path fill="none" stroke="black" d="M3922.06,-88.8C3885.26,-73.73 3832.32,-52.04 3795.23,-36.85"/>
<polygon fill="black" stroke="black" points="3796.73,-33.68 3786.15,-33.13 3794.08,-40.16 3796.73,-33.68"/>
<text text-anchor="middle" x="3893.53" y="-57.95" font-family="Times,serif" font-size="14.00">Nein</text>
</g>
</g>
</svg>
  </g>
</svg>
  </g>
</svg>
