<?xml version='1.0' encoding='ASCII' standalone='yes'?>
<svg xmlns="http://www.w3.org/2000/svg" xmlns:xlink="http://www.w3.org/1999/xlink" version="1.1" width="1920.0px" viewBox="0 0 1920.0 1149.3333333333333" height="1149.3333333333333px">
  <g>
    <svg version="1.1" width="1920.0px" viewBox="0 0 1920.0 1149.3333333333333" height="1149.3333333333333px">
  <polygon fill="#c2cee9" points="0,0 1920.0,0 1920.0,1149.3333333333333 0,1149.3333333333333"/><g>
    <g transform="translate(491.3011546043368, 114.9333333333333) scale(1 1) translate(0, 0) scale(1.6183234769548485 1.6183234769548485) "><!-- note that I manually added the width and height attribute to the root node
  https://chatgpt.com/share/678e3028-70cc-800b-a296-782714735772
  -->
  <defs>
    <style>.cls-1{fill:#fff;}</style>
  </defs>
  <path class="cls-1" d="M122.44,531.2h-56.1c-11,0-19.9-9.12-19.46-20.11C57.47,243.89,278.15,29.78,547.91,29.78v56.02c0,10.98-8.69,19.89-19.66,20.39-225.51,10.31-405.8,197-405.8,425Z"/>
  <path class="cls-1" d="M273.78,531.2h-55.93c-11.23,0-20.09-9.48-19.43-20.69,10.74-183.44,163.39-329.39,349.48-329.39v56.26c0,10.71-8.27,19.62-18.96,20.35-142.35,9.77-255.17,128.69-255.17,273.46Z"/>
  <path class="cls-1" d="M425.77,531.2h-55.45c-11.65,0-20.6-10.17-19.33-21.75,10.87-99.03,95.03-176.34,196.92-176.34v57.01c0,10.05-7.28,18.75-17.23,20.16-59.22,8.4-104.91,59.42-104.91,120.92Z"/>
</g>
    <svg width="1440pt" height="862pt" viewBox="0.00 0.00 1440.00 862.50">
<g id="graph0" class="graph" transform="scale(0.465377 0.465377) rotate(0) translate(4 1849.33)">
<title>D</title>
<text text-anchor="start" x="1386.01" y="-1825.23" font-family="Roboto, sans-serif" font-weight="bold" font-size="18.00">GPKE</text>
<text text-anchor="start" x="1386.01" y="-1795.13" font-family="Roboto, sans-serif" font-weight="bold" font-size="16.00">6.5.1: AD: Lieferende von NB an LF</text>
<!-- Start -->
<g id="node1" class="node">
<title>Start</title>
<path fill="#7a8da1" stroke="black" stroke-width="0" d="M1387.77,-1747.33C1387.77,-1747.33 1259.21,-1747.33 1259.21,-1747.33 1253.21,-1747.33 1247.21,-1741.33 1247.21,-1735.33 1247.21,-1735.33 1247.21,-1716.05 1247.21,-1716.05 1247.21,-1710.05 1253.21,-1704.05 1259.21,-1704.05 1259.21,-1704.05 1387.77,-1704.05 1387.77,-1704.05 1393.77,-1704.05 1399.77,-1710.05 1399.77,-1716.05 1399.77,-1716.05 1399.77,-1735.33 1399.77,-1735.33 1399.77,-1741.33 1393.77,-1747.33 1387.77,-1747.33"/>
<text text-anchor="start" x="1295.74" y="-1726.39" font-family="Roboto, sans-serif" font-weight="bold" font-size="14.00">E_0609</text>
<text text-anchor="start" x="1261.62" y="-1714.29" font-family="Roboto, sans-serif" font-weight="bold" text-decoration="underline" font-size="12.00">Pr&#252;fende Rolle:</text>
<text text-anchor="start" x="1365.12" y="-1714.29" font-family="Roboto, sans-serif" font-weight="bold" font-size="12.00"> LF</text>
</g>
<!-- 10 -->
<g id="node2" class="node">
<title>10</title>
<path fill="#7aab8a" stroke="black" stroke-width="0" d="M1605.64,-1667.05C1605.64,-1667.05 1041.34,-1667.05 1041.34,-1667.05 1035.34,-1667.05 1029.34,-1661.05 1029.34,-1655.05 1029.34,-1655.05 1029.34,-1633.77 1029.34,-1633.77 1029.34,-1627.77 1035.34,-1621.77 1041.34,-1621.77 1041.34,-1621.77 1605.64,-1621.77 1605.64,-1621.77 1611.64,-1621.77 1617.64,-1627.77 1617.64,-1633.77 1617.64,-1633.77 1617.64,-1655.05 1617.64,-1655.05 1617.64,-1661.05 1611.64,-1667.05 1605.64,-1667.05"/>
<text text-anchor="start" x="1043.74" y="-1646.11" font-family="Roboto, sans-serif" font-weight="bold" font-size="14.00">10: </text>
<text text-anchor="start" x="1072.99" y="-1646.11" font-family="Roboto, sans-serif" font-size="14.00">Wurde im Gesch&#228;ftsvorfall angegeben, dass es sich um eine verbrauchende</text>
<text text-anchor="start" x="1043.74" y="-1632.11" font-family="Roboto, sans-serif" font-size="14.00">Marktlokation oder ruhende Marktlokation handelt?</text>
</g>
<!-- Start&#45;&gt;10 -->
<g id="edge1" class="edge">
<title>Start-&gt;10</title>
<path fill="none" stroke="black" d="M1323.49,-1704.27C1323.49,-1696.3 1323.49,-1686.95 1323.49,-1678.09"/>
<polygon fill="black" stroke="black" points="1326.99,-1678.38 1323.49,-1668.38 1319.99,-1678.38 1326.99,-1678.38"/>
</g>
<!-- 20 -->
<g id="node3" class="node">
<title>20</title>
<path fill="#7aab8a" stroke="black" stroke-width="0" d="M1359.89,-1568.52C1359.89,-1568.52 521.09,-1568.52 521.09,-1568.52 515.09,-1568.52 509.09,-1562.52 509.09,-1556.52 509.09,-1556.52 509.09,-1521.24 509.09,-1521.24 509.09,-1515.24 515.09,-1509.24 521.09,-1509.24 521.09,-1509.24 1359.89,-1509.24 1359.89,-1509.24 1365.89,-1509.24 1371.89,-1515.24 1371.89,-1521.24 1371.89,-1521.24 1371.89,-1556.52 1371.89,-1556.52 1371.89,-1562.52 1365.89,-1568.52 1359.89,-1568.52"/>
<text text-anchor="start" x="523.49" y="-1547.58" font-family="Roboto, sans-serif" font-weight="bold" font-size="14.00">20: </text>
<text text-anchor="start" x="552.74" y="-1547.58" font-family="Roboto, sans-serif" font-size="14.00">Handelt es sich um eine Abmeldung einer Marktlokation, welche aus einer Kundenanlage herausgel&#246;st werden soll?</text>
<text text-anchor="start" x="523.49" y="-1533.58" font-family="Roboto, sans-serif" font-size="14.00">Hinweis:</text>
<text text-anchor="start" x="523.49" y="-1519.58" font-family="Roboto, sans-serif" font-size="14.00">In der Transaktionsgrunderg&#228;nzung ist &#8222;ruhende Marktlokation&#8220; angegeben.</text>
</g>
<!-- 10&#45;&gt;20 -->
<g id="edge2" class="edge">
<title>10-&gt;20</title>
<path fill="none" stroke="#7aab8a" d="M1243.67,-1621.83C1189.69,-1607.24 1117.51,-1587.73 1057.13,-1571.41"/>
<polygon fill="#7aab8a" stroke="#7aab8a" points="1058.41,-1568.13 1047.84,-1568.9 1056.58,-1574.89 1058.41,-1568.13"/>
<text text-anchor="start" x="1165.49" y="-1591.47" font-family="Roboto, sans-serif" font-weight="bold" font-size="14.00">JA</text>
</g>
<!-- 510 -->
<g id="node29" class="node">
<title>510</title>
<path fill="#7aab8a" stroke="black" stroke-width="0" d="M2011.14,-1561.52C2011.14,-1561.52 1401.84,-1561.52 1401.84,-1561.52 1395.84,-1561.52 1389.84,-1555.52 1389.84,-1549.52 1389.84,-1549.52 1389.84,-1528.24 1389.84,-1528.24 1389.84,-1522.24 1395.84,-1516.24 1401.84,-1516.24 1401.84,-1516.24 2011.14,-1516.24 2011.14,-1516.24 2017.14,-1516.24 2023.14,-1522.24 2023.14,-1528.24 2023.14,-1528.24 2023.14,-1549.52 2023.14,-1549.52 2023.14,-1555.52 2017.14,-1561.52 2011.14,-1561.52"/>
<text text-anchor="start" x="1404.24" y="-1540.58" font-family="Roboto, sans-serif" font-weight="bold" font-size="14.00">510: </text>
<text text-anchor="start" x="1443.24" y="-1540.58" font-family="Roboto, sans-serif" font-size="14.00">Wurde bereits zum identischen Abmeldedatum f&#252;r die in diesem Gesch&#228;ftsvorfall</text>
<text text-anchor="start" x="1404.24" y="-1526.58" font-family="Roboto, sans-serif" font-size="14.00">genannte Marktlokation bzw. Tranche die Lieferende-Meldung positiv best&#228;tigt?</text>
</g>
<!-- 10&#45;&gt;510 -->
<g id="edge3" class="edge">
<title>10-&gt;510</title>
<path fill="none" stroke="#7aab8a" d="M1403.31,-1621.83C1465.17,-1605.11 1550.94,-1581.93 1615.46,-1564.49"/>
<polygon fill="#7aab8a" stroke="#7aab8a" points="1616.24,-1567.9 1624.98,-1561.91 1614.41,-1561.14 1616.24,-1567.9"/>
<text text-anchor="start" x="1525.49" y="-1591.47" font-family="Roboto, sans-serif" font-weight="bold" font-size="14.00">NEIN</text>
</g>
<!-- 25 -->
<g id="node4" class="node">
<title>25</title>
<path fill="#7aab8a" stroke="black" stroke-width="0" d="M1099.89,-1447.87C1099.89,-1447.87 519.09,-1447.87 519.09,-1447.87 513.09,-1447.87 507.09,-1441.87 507.09,-1435.87 507.09,-1435.87 507.09,-1414.59 507.09,-1414.59 507.09,-1408.59 513.09,-1402.59 519.09,-1402.59 519.09,-1402.59 1099.89,-1402.59 1099.89,-1402.59 1105.89,-1402.59 1111.89,-1408.59 1111.89,-1414.59 1111.89,-1414.59 1111.89,-1435.87 1111.89,-1435.87 1111.89,-1441.87 1105.89,-1447.87 1099.89,-1447.87"/>
<text text-anchor="start" x="521.49" y="-1426.93" font-family="Roboto, sans-serif" font-weight="bold" font-size="14.00">25: </text>
<text text-anchor="start" x="550.74" y="-1426.93" font-family="Roboto, sans-serif" font-size="14.00">Handelt es sich bei der im Anwendungsfall genannten Marktlokation um eine</text>
<text text-anchor="start" x="521.49" y="-1412.93" font-family="Roboto, sans-serif" font-size="14.00">&#8222;ruhende Marktlokation&#8220; einer Kundenanlage (&#167; 20 Abs. 1d EnWG oder &#167; 10 c EEG)</text>
</g>
<!-- 20&#45;&gt;25 -->
<g id="edge4" class="edge">
<title>20-&gt;25</title>
<path fill="none" stroke="#7aab8a" d="M907.09,-1509.42C887.5,-1492.72 862.83,-1471.69 843.18,-1454.95"/>
<polygon fill="#7aab8a" stroke="#7aab8a" points="845.58,-1452.39 835.7,-1448.57 841.04,-1457.72 845.58,-1452.39"/>
<text text-anchor="start" x="882.49" y="-1478.94" font-family="Roboto, sans-serif" font-weight="bold" font-size="14.00">JA</text>
</g>
<!-- 30 -->
<g id="node8" class="node">
<title>30</title>
<path fill="#7aab8a" stroke="black" stroke-width="0" d="M1166.26,-1194.33C1166.26,-1194.33 566.72,-1194.33 566.72,-1194.33 560.72,-1194.33 554.72,-1188.33 554.72,-1182.33 554.72,-1182.33 554.72,-1161.05 554.72,-1161.05 554.72,-1155.05 560.72,-1149.05 566.72,-1149.05 566.72,-1149.05 1166.26,-1149.05 1166.26,-1149.05 1172.26,-1149.05 1178.26,-1155.05 1178.26,-1161.05 1178.26,-1161.05 1178.26,-1182.33 1178.26,-1182.33 1178.26,-1188.33 1172.26,-1194.33 1166.26,-1194.33"/>
<text text-anchor="start" x="569.12" y="-1173.39" font-family="Roboto, sans-serif" font-weight="bold" font-size="14.00">30: </text>
<text text-anchor="start" x="598.37" y="-1173.39" font-family="Roboto, sans-serif" font-size="14.00">Wurde bereits zum identischen Abmeldedatum f&#252;r die in diesem Gesch&#228;ftsvorfall</text>
<text text-anchor="start" x="569.12" y="-1159.39" font-family="Roboto, sans-serif" font-size="14.00">genannte Marktlokation die Lieferende-Meldung positiv best&#228;tigt?</text>
</g>
<!-- 20&#45;&gt;30 -->
<g id="edge5" class="edge">
<title>20-&gt;30</title>
<path fill="none" stroke="#7aab8a" d="M1054.4,-1509.28C1080.43,-1497.19 1104.97,-1480.1 1120.49,-1455.99 1165.78,-1385.62 1168.18,-1336.46 1120.49,-1267.7 1096.9,-1233.7 1059.57,-1211.84 1020.71,-1197.8"/>
<polygon fill="#7aab8a" stroke="#7aab8a" points="1022.29,-1194.65 1011.7,-1194.71 1020.03,-1201.27 1022.29,-1194.65"/>
<text text-anchor="start" x="1154.49" y="-1364.17" font-family="Roboto, sans-serif" font-weight="bold" font-size="14.00">NEIN</text>
</g>
<!-- A01 -->
<g id="node5" class="node">
<title>A01</title>
<path fill="#cfb986" stroke="black" stroke-width="0" d="M1099.36,-1341.22C1099.36,-1341.22 613.62,-1341.22 613.62,-1341.22 607.62,-1341.22 601.62,-1335.22 601.62,-1329.22 601.62,-1329.22 601.62,-1279.7 601.62,-1279.7 601.62,-1273.7 607.62,-1267.7 613.62,-1267.7 613.62,-1267.7 1099.36,-1267.7 1099.36,-1267.7 1105.36,-1267.7 1111.36,-1273.7 1111.36,-1279.7 1111.36,-1279.7 1111.36,-1329.22 1111.36,-1329.22 1111.36,-1335.22 1105.36,-1341.22 1099.36,-1341.22"/>
<text text-anchor="start" x="613.87" y="-1323.16" font-family="Roboto, sans-serif" font-weight="bold" font-size="14.00">A01</text>
<text text-anchor="start" x="613.87" y="-1311.06" font-family="Roboto, sans-serif" text-decoration="underline" font-size="12.00">Hinweis:</text>
<text text-anchor="start" x="613.87" y="-1299.06" font-family="Roboto, sans-serif" font-size="12.00">Cluster: Ablehnung</text>
<text text-anchor="start" x="613.87" y="-1287.06" font-family="Roboto, sans-serif" font-size="12.00">Bei der in der Abmeldung genannten Marktlokation handelt es sich nicht um eine</text>
<text text-anchor="start" x="613.87" y="-1275.06" font-family="Roboto, sans-serif" font-size="12.00">&#8222;ruhende Marktlokation&#8220; einer Kundenanlage.</text>
</g>
<!-- 25&#45;&gt;A01 -->
<g id="edge6" class="edge">
<title>25-&gt;A01</title>
<path fill="none" stroke="#7aab8a" d="M818,-1402.72C823.71,-1388.3 831.43,-1368.78 838.47,-1351"/>
<polygon fill="#7aab8a" stroke="#7aab8a" points="841.53,-1352.78 841.95,-1342.19 835.02,-1350.21 841.53,-1352.78"/>
<text text-anchor="start" x="833.49" y="-1364.17" font-family="Roboto, sans-serif" font-weight="bold" font-size="14.00">NEIN</text>
</g>
<!-- 27 -->
<g id="node6" class="node">
<title>27</title>
<path fill="#7aab8a" stroke="black" stroke-width="0" d="M571.64,-1327.1C571.64,-1327.1 25.34,-1327.1 25.34,-1327.1 19.34,-1327.1 13.34,-1321.1 13.34,-1315.1 13.34,-1315.1 13.34,-1293.82 13.34,-1293.82 13.34,-1287.82 19.34,-1281.82 25.34,-1281.82 25.34,-1281.82 571.64,-1281.82 571.64,-1281.82 577.64,-1281.82 583.64,-1287.82 583.64,-1293.82 583.64,-1293.82 583.64,-1315.1 583.64,-1315.1 583.64,-1321.1 577.64,-1327.1 571.64,-1327.1"/>
<text text-anchor="start" x="27.74" y="-1306.16" font-family="Roboto, sans-serif" font-weight="bold" font-size="14.00">27: </text>
<text text-anchor="start" x="56.99" y="-1306.16" font-family="Roboto, sans-serif" font-size="14.00">Ist die in der Abmeldung als genannte &#8222;ruhende Marktlokation&#8220; definierte</text>
<text text-anchor="start" x="27.74" y="-1292.16" font-family="Roboto, sans-serif" font-size="14.00">Marktlokation der in der Abmeldung genannten Marktlokation zugeordnet?</text>
</g>
<!-- 25&#45;&gt;27 -->
<g id="edge7" class="edge">
<title>25-&gt;27</title>
<path fill="none" stroke="#7aab8a" d="M716.66,-1402.65C628.04,-1382.06 494.73,-1351.07 402.55,-1329.65"/>
<polygon fill="#7aab8a" stroke="#7aab8a" points="403.53,-1326.28 393,-1327.43 401.95,-1333.1 403.53,-1326.28"/>
<text text-anchor="start" x="599.49" y="-1364.17" font-family="Roboto, sans-serif" font-weight="bold" font-size="14.00">JA</text>
</g>
<!-- A30 -->
<g id="node7" class="node">
<title>A30</title>
<path fill="#cfb986" stroke="black" stroke-width="0" d="M514.36,-1214.45C514.36,-1214.45 82.62,-1214.45 82.62,-1214.45 76.62,-1214.45 70.63,-1208.45 70.63,-1202.45 70.63,-1202.45 70.63,-1140.93 70.63,-1140.93 70.63,-1134.93 76.63,-1128.93 82.63,-1128.93 82.63,-1128.93 514.36,-1128.93 514.36,-1128.93 520.36,-1128.93 526.36,-1134.93 526.36,-1140.93 526.36,-1140.93 526.36,-1202.45 526.36,-1202.45 526.36,-1208.45 520.36,-1214.45 514.36,-1214.45"/>
<text text-anchor="start" x="82.87" y="-1196.39" font-family="Roboto, sans-serif" font-weight="bold" font-size="14.00">A30</text>
<text text-anchor="start" x="82.87" y="-1184.29" font-family="Roboto, sans-serif" text-decoration="underline" font-size="12.00">Hinweis:</text>
<text text-anchor="start" x="82.87" y="-1172.29" font-family="Roboto, sans-serif" font-size="12.00">Cluster: Ablehnung</text>
<text text-anchor="start" x="82.87" y="-1160.29" font-family="Roboto, sans-serif" font-size="12.00">Die in der Abmeldung genannte &#8222;ruhende Marktlokation&#8220; ist nicht der</text>
<text text-anchor="start" x="82.87" y="-1148.29" font-family="Roboto, sans-serif" font-size="12.00">Marktlokation aus der Abmeldung zugeordnet und kann somit dort nicht</text>
<text text-anchor="start" x="82.87" y="-1136.29" font-family="Roboto, sans-serif" font-size="12.00">herausgel&#246;st werden</text>
</g>
<!-- 27&#45;&gt;A30 -->
<g id="edge8" class="edge">
<title>27-&gt;A30</title>
<path fill="none" stroke="#7aab8a" d="M298.49,-1281.87C298.49,-1266.58 298.49,-1245.4 298.49,-1225.75"/>
<polygon fill="#7aab8a" stroke="#7aab8a" points="301.99,-1225.93 298.49,-1215.93 294.99,-1225.93 301.99,-1225.93"/>
<text text-anchor="start" x="298.49" y="-1237.4" font-family="Roboto, sans-serif" font-weight="bold" font-size="14.00">NEIN</text>
</g>
<!-- 27&#45;&gt;30 -->
<g id="edge9" class="edge">
<title>27-&gt;30</title>
<path fill="none" stroke="#7aab8a" d="M392.28,-1281.87C493.93,-1258.46 655.73,-1221.21 761.54,-1196.85"/>
<polygon fill="#7aab8a" stroke="#7aab8a" points="762.12,-1200.31 771.08,-1194.66 760.55,-1193.49 762.12,-1200.31"/>
<text text-anchor="start" x="599.49" y="-1237.4" font-family="Roboto, sans-serif" font-weight="bold" font-size="14.00">JA</text>
</g>
<!-- A02 -->
<g id="node9" class="node">
<title>A02</title>
<path fill="#cfb986" stroke="black" stroke-width="0" d="M727.73,-1069.68C727.73,-1069.68 397.25,-1069.68 397.25,-1069.68 391.25,-1069.68 385.25,-1063.68 385.25,-1057.68 385.25,-1057.68 385.25,-1020.16 385.25,-1020.16 385.25,-1014.16 391.25,-1008.16 397.25,-1008.16 397.25,-1008.16 727.73,-1008.16 727.73,-1008.16 733.73,-1008.16 739.73,-1014.16 739.73,-1020.16 739.73,-1020.16 739.73,-1057.68 739.73,-1057.68 739.73,-1063.68 733.73,-1069.68 727.73,-1069.68"/>
<text text-anchor="start" x="397.49" y="-1051.62" font-family="Roboto, sans-serif" font-weight="bold" font-size="14.00">A02</text>
<text text-anchor="start" x="397.49" y="-1039.52" font-family="Roboto, sans-serif" text-decoration="underline" font-size="12.00">Hinweis:</text>
<text text-anchor="start" x="397.49" y="-1027.52" font-family="Roboto, sans-serif" font-size="12.00">Cluster: Ablehnung</text>
<text text-anchor="start" x="397.49" y="-1015.52" font-family="Roboto, sans-serif" font-size="12.00">Lieferende zum Abmeldedatum wurde bereits best&#228;tigt</text>
</g>
<!-- 30&#45;&gt;A02 -->
<g id="edge10" class="edge">
<title>30-&gt;A02</title>
<path fill="none" stroke="#7aab8a" d="M816.29,-1149.1C768.92,-1128.72 697.14,-1097.84 641.98,-1074.12"/>
<polygon fill="#7aab8a" stroke="#7aab8a" points="643.5,-1070.96 632.93,-1070.22 640.73,-1077.39 643.5,-1070.96"/>
<text text-anchor="start" x="723.49" y="-1098.63" font-family="Roboto, sans-serif" font-weight="bold" font-size="14.00">JA</text>
</g>
<!-- 40 -->
<g id="node10" class="node">
<title>40</title>
<path fill="#7aab8a" stroke="black" stroke-width="0" d="M1048.77,-1056.92C1048.77,-1056.92 770.22,-1056.92 770.22,-1056.92 764.22,-1056.92 758.22,-1050.92 758.22,-1044.92 758.22,-1044.92 758.22,-1032.92 758.22,-1032.92 758.22,-1026.92 764.22,-1020.92 770.22,-1020.92 770.22,-1020.92 1048.77,-1020.92 1048.77,-1020.92 1054.77,-1020.92 1060.77,-1026.92 1060.77,-1032.92 1060.77,-1032.92 1060.77,-1044.92 1060.77,-1044.92 1060.77,-1050.92 1054.77,-1056.92 1048.77,-1056.92"/>
<text text-anchor="start" x="772.62" y="-1035.25" font-family="Roboto, sans-serif" font-weight="bold" font-size="14.00">40: </text>
<text text-anchor="start" x="801.87" y="-1035.25" font-family="Roboto, sans-serif" font-size="14.00">Wurde die Vorlauffrist eingehalten?</text>
</g>
<!-- 30&#45;&gt;40 -->
<g id="edge11" class="edge">
<title>30-&gt;40</title>
<path fill="none" stroke="#7aab8a" d="M873.59,-1149.1C880.96,-1126.68 892.52,-1091.54 900.52,-1067.21"/>
<polygon fill="#7aab8a" stroke="#7aab8a" points="903.75,-1068.59 903.55,-1058 897.1,-1066.41 903.75,-1068.59"/>
<text text-anchor="start" x="890.49" y="-1098.63" font-family="Roboto, sans-serif" font-weight="bold" font-size="14.00">NEIN</text>
</g>
<!-- A03 -->
<g id="node11" class="node">
<title>A03</title>
<path fill="#cfb986" stroke="black" stroke-width="0" d="M760.23,-948.91C760.23,-948.91 546.75,-948.91 546.75,-948.91 540.75,-948.91 534.75,-942.91 534.75,-936.91 534.75,-936.91 534.75,-899.39 534.75,-899.39 534.75,-893.39 540.75,-887.39 546.75,-887.39 546.75,-887.39 760.23,-887.39 760.23,-887.39 766.23,-887.39 772.23,-893.39 772.23,-899.39 772.23,-899.39 772.23,-936.91 772.23,-936.91 772.23,-942.91 766.23,-948.91 760.23,-948.91"/>
<text text-anchor="start" x="546.99" y="-930.85" font-family="Roboto, sans-serif" font-weight="bold" font-size="14.00">A03</text>
<text text-anchor="start" x="546.99" y="-918.75" font-family="Roboto, sans-serif" text-decoration="underline" font-size="12.00">Hinweis:</text>
<text text-anchor="start" x="546.99" y="-906.75" font-family="Roboto, sans-serif" font-size="12.00">Cluster: Ablehnung:</text>
<text text-anchor="start" x="546.99" y="-894.75" font-family="Roboto, sans-serif" font-size="12.00">Vorlauffrist wurde nicht eingehalten</text>
</g>
<!-- 40&#45;&gt;A03 -->
<g id="edge12" class="edge">
<title>40-&gt;A03</title>
<path fill="none" stroke="#7aab8a" d="M873.08,-1021.03C835.4,-1003.55 775.48,-975.75 727.75,-953.6"/>
<polygon fill="#7aab8a" stroke="#7aab8a" points="729.37,-950.49 718.82,-949.46 726.42,-956.84 729.37,-950.49"/>
<text text-anchor="start" x="788.49" y="-971.86" font-family="Roboto, sans-serif" font-weight="bold" font-size="14.00">NEIN</text>
</g>
<!-- 50 -->
<g id="node12" class="node">
<title>50</title>
<path fill="#7aab8a" stroke="black" stroke-width="0" d="M1032.39,-947.79C1032.39,-947.79 802.59,-947.79 802.59,-947.79 796.59,-947.79 790.59,-941.79 790.59,-935.79 790.59,-935.79 790.59,-900.51 790.59,-900.51 790.59,-894.51 796.59,-888.51 802.59,-888.51 802.59,-888.51 1032.39,-888.51 1032.39,-888.51 1038.39,-888.51 1044.39,-894.51 1044.39,-900.51 1044.39,-900.51 1044.39,-935.79 1044.39,-935.79 1044.39,-941.79 1038.39,-947.79 1032.39,-947.79"/>
<text text-anchor="start" x="804.99" y="-926.85" font-family="Roboto, sans-serif" font-weight="bold" font-size="14.00">50: </text>
<text text-anchor="start" x="834.24" y="-926.85" font-family="Roboto, sans-serif" font-size="14.00">Liegt der Transaktionsgrund</text>
<text text-anchor="start" x="804.99" y="-912.85" font-family="Roboto, sans-serif" font-size="14.00">Auszug wegen Stilllegung</text>
<text text-anchor="start" x="804.99" y="-898.85" font-family="Roboto, sans-serif" font-size="14.00">vor?</text>
</g>
<!-- 40&#45;&gt;50 -->
<g id="edge13" class="edge">
<title>40-&gt;50</title>
<path fill="none" stroke="#7aab8a" d="M910.62,-1021.16C911.7,-1005.08 913.38,-980.19 914.8,-959.02"/>
<polygon fill="#7aab8a" stroke="#7aab8a" points="918.28,-959.45 915.46,-949.24 911.3,-958.98 918.28,-959.45"/>
<text text-anchor="start" x="913.49" y="-971.86" font-family="Roboto, sans-serif" font-weight="bold" font-size="14.00">JA</text>
</g>
<!-- 60 -->
<g id="node13" class="node">
<title>60</title>
<path fill="#7aab8a" stroke="black" stroke-width="0" d="M1242.64,-814.02C1242.64,-814.02 714.34,-814.02 714.34,-814.02 708.34,-814.02 702.34,-808.02 702.34,-802.02 702.34,-802.02 702.34,-780.74 702.34,-780.74 702.34,-774.74 708.34,-768.74 714.34,-768.74 714.34,-768.74 1242.64,-768.74 1242.64,-768.74 1248.64,-768.74 1254.64,-774.74 1254.64,-780.74 1254.64,-780.74 1254.64,-802.02 1254.64,-802.02 1254.64,-808.02 1248.64,-814.02 1242.64,-814.02"/>
<text text-anchor="start" x="716.74" y="-793.08" font-family="Roboto, sans-serif" font-weight="bold" font-size="14.00">60: </text>
<text text-anchor="start" x="745.99" y="-793.08" font-family="Roboto, sans-serif" font-size="14.00">Liegen dem LF Informationen dar&#252;ber vor, dass die Marktlokation nicht</text>
<text text-anchor="start" x="716.74" y="-779.08" font-family="Roboto, sans-serif" font-size="14.00">stillgelegt wird/wurde?</text>
</g>
<!-- 50&#45;&gt;60 -->
<g id="edge14" class="edge">
<title>50-&gt;60</title>
<path fill="none" stroke="#7aab8a" d="M931.48,-888.53C940.91,-869.25 953.34,-843.83 963.05,-823.97"/>
<polygon fill="#7aab8a" stroke="#7aab8a" points="966.07,-825.75 967.32,-815.23 959.78,-822.67 966.07,-825.75"/>
<text text-anchor="start" x="947.49" y="-857.09" font-family="Roboto, sans-serif" font-weight="bold" font-size="14.00">JA</text>
</g>
<!-- 70 -->
<g id="node15" class="node">
<title>70</title>
<path fill="#7aab8a" stroke="black" stroke-width="0" d="M672.26,-809.38C672.26,-809.38 12.72,-809.38 12.72,-809.38 6.72,-809.38 0.72,-803.38 0.72,-797.38 0.72,-797.38 0.72,-785.38 0.72,-785.38 0.72,-779.38 6.72,-773.38 12.72,-773.38 12.72,-773.38 672.26,-773.38 672.26,-773.38 678.26,-773.38 684.26,-779.38 684.26,-785.38 684.26,-785.38 684.26,-797.38 684.26,-797.38 684.26,-803.38 678.26,-809.38 672.26,-809.38"/>
<text text-anchor="start" x="15.12" y="-787.71" font-family="Roboto, sans-serif" font-weight="bold" font-size="14.00">70: </text>
<text text-anchor="start" x="44.37" y="-787.71" font-family="Roboto, sans-serif" font-size="14.00">Ist das angegebene Datum &#8222;Lieferende&#8220; der n&#228;chste 1. eines Kalendermonats 00:00 Uhr?</text>
</g>
<!-- 50&#45;&gt;70 -->
<g id="edge15" class="edge">
<title>50-&gt;70</title>
<path fill="none" stroke="#7aab8a" d="M790.81,-889.42C787.67,-888.74 784.56,-888.06 781.49,-887.39 660.56,-861.07 520.84,-830.87 432.11,-811.71"/>
<polygon fill="#7aab8a" stroke="#7aab8a" points="433,-808.33 422.49,-809.64 431.53,-815.17 433,-808.33"/>
<text text-anchor="start" x="697.49" y="-857.09" font-family="Roboto, sans-serif" font-weight="bold" font-size="14.00">NEIN</text>
</g>
<!-- A04 -->
<g id="node14" class="node">
<title>A04</title>
<path fill="#cfb986" stroke="black" stroke-width="0" d="M1626.48,-695.37C1626.48,-695.37 1120.5,-695.37 1120.5,-695.37 1114.5,-695.37 1108.5,-689.37 1108.5,-683.37 1108.5,-683.37 1108.5,-633.85 1108.5,-633.85 1108.5,-627.85 1114.5,-621.85 1120.5,-621.85 1120.5,-621.85 1626.48,-621.85 1626.48,-621.85 1632.48,-621.85 1638.48,-627.85 1638.48,-633.85 1638.48,-633.85 1638.48,-683.37 1638.48,-683.37 1638.48,-689.37 1632.48,-695.37 1626.48,-695.37"/>
<text text-anchor="start" x="1120.74" y="-677.31" font-family="Roboto, sans-serif" font-weight="bold" font-size="14.00">A04</text>
<text text-anchor="start" x="1120.74" y="-665.21" font-family="Roboto, sans-serif" text-decoration="underline" font-size="12.00">Hinweis:</text>
<text text-anchor="start" x="1120.74" y="-653.21" font-family="Roboto, sans-serif" font-size="12.00">Cluster: Ablehnung</text>
<text text-anchor="start" x="1120.74" y="-641.21" font-family="Roboto, sans-serif" font-size="12.00">Dem LF liegen Informationen vor, dass die Marktlokation nicht stillgelegt wird/wurde.</text>
<text text-anchor="start" x="1120.74" y="-629.21" font-family="Roboto, sans-serif" font-size="12.00">Hinweis: Die Informationen sind in der Antwort zu beschreiben/benennen.</text>
</g>
<!-- 60&#45;&gt;A04 -->
<g id="edge16" class="edge">
<title>60-&gt;A04</title>
<path fill="none" stroke="#7aab8a" d="M1043.72,-768.79C1101.03,-749.81 1185.86,-721.73 1255.12,-698.8"/>
<polygon fill="#7aab8a" stroke="#7aab8a" points="1255.83,-702.25 1264.22,-695.78 1253.63,-695.6 1255.83,-702.25"/>
<text text-anchor="start" x="1199.49" y="-718.32" font-family="Roboto, sans-serif" font-weight="bold" font-size="14.00">JA</text>
</g>
<!-- 130 -->
<g id="node26" class="node">
<title>130</title>
<path fill="#7aab8a" stroke="black" stroke-width="0" d="M1937.39,-187.53C1937.39,-187.53 1533.59,-187.53 1533.59,-187.53 1527.59,-187.53 1521.59,-181.53 1521.59,-175.53 1521.59,-175.53 1521.59,-163.53 1521.59,-163.53 1521.59,-157.53 1527.59,-151.53 1533.59,-151.53 1533.59,-151.53 1937.39,-151.53 1937.39,-151.53 1943.39,-151.53 1949.39,-157.53 1949.39,-163.53 1949.39,-163.53 1949.39,-175.53 1949.39,-175.53 1949.39,-181.53 1943.39,-187.53 1937.39,-187.53"/>
<text text-anchor="start" x="1535.99" y="-165.85" font-family="Roboto, sans-serif" font-weight="bold" font-size="14.00">130: </text>
<text text-anchor="start" x="1574.99" y="-165.85" font-family="Roboto, sans-serif" font-size="14.00">Ist ein zuvor nicht spezifizierter Fehler aufgetreten?</text>
</g>
<!-- 60&#45;&gt;130 -->
<g id="edge17" class="edge">
<title>60-&gt;130</title>
<path fill="none" stroke="#7aab8a" d="M1131.36,-768.77C1328.62,-740.88 1646.82,-695.82 1647.49,-695.37 1678.92,-674.27 1667.69,-652.06 1690.49,-621.85 1710.23,-595.69 1725.75,-597.34 1741.49,-568.6 1803.63,-455.12 1798.1,-414.27 1808.49,-285.3"/>
<text text-anchor="start" x="1783.49" y="-476.78" font-family="Roboto, sans-serif" font-weight="bold" font-size="14.00">NEIN</text>
</g>
<!-- A05 -->
<g id="node16" class="node">
<title>A05</title>
<path fill="#cfb986" stroke="black" stroke-width="0" d="M450.36,-689.37C450.36,-689.37 12.62,-689.37 12.62,-689.37 6.62,-689.37 0.62,-683.37 0.62,-677.37 0.62,-677.37 0.62,-639.85 0.62,-639.85 0.62,-633.85 6.62,-627.85 12.62,-627.85 12.62,-627.85 450.36,-627.85 450.36,-627.85 456.36,-627.85 462.36,-633.85 462.36,-639.85 462.36,-639.85 462.36,-677.37 462.36,-677.37 462.36,-683.37 456.36,-689.37 450.36,-689.37"/>
<text text-anchor="start" x="12.87" y="-671.31" font-family="Roboto, sans-serif" font-weight="bold" font-size="14.00">A05</text>
<text text-anchor="start" x="12.87" y="-659.21" font-family="Roboto, sans-serif" text-decoration="underline" font-size="12.00">Hinweis:</text>
<text text-anchor="start" x="12.87" y="-647.21" font-family="Roboto, sans-serif" font-size="12.00">Cluster: Ablehnung</text>
<text text-anchor="start" x="12.87" y="-635.21" font-family="Roboto, sans-serif" font-size="12.00">Das Lieferende muss auf dem 1. eines Kalendermonats 00:00 Uhr liegen.</text>
</g>
<!-- 70&#45;&gt;A05 -->
<g id="edge18" class="edge">
<title>70-&gt;A05</title>
<path fill="none" stroke="#7aab8a" d="M328.21,-773.55C312.07,-754.55 285.3,-723 264,-697.92"/>
<polygon fill="#7aab8a" stroke="#7aab8a" points="266.85,-695.86 257.71,-690.5 261.51,-700.39 266.85,-695.86"/>
<text text-anchor="start" x="289.49" y="-718.32" font-family="Roboto, sans-serif" font-weight="bold" font-size="14.00">NEIN</text>
</g>
<!-- 80 -->
<g id="node17" class="node">
<title>80</title>
<path fill="#7aab8a" stroke="black" stroke-width="0" d="M1078.51,-681.25C1078.51,-681.25 492.47,-681.25 492.47,-681.25 486.47,-681.25 480.47,-675.25 480.47,-669.25 480.47,-669.25 480.47,-647.97 480.47,-647.97 480.47,-641.97 486.47,-635.97 492.47,-635.97 492.47,-635.97 1078.51,-635.97 1078.51,-635.97 1084.51,-635.97 1090.51,-641.97 1090.51,-647.97 1090.51,-647.97 1090.51,-669.25 1090.51,-669.25 1090.51,-675.25 1084.51,-681.25 1078.51,-681.25"/>
<text text-anchor="start" x="494.87" y="-660.31" font-family="Roboto, sans-serif" font-weight="bold" font-size="14.00">80: </text>
<text text-anchor="start" x="524.12" y="-660.31" font-family="Roboto, sans-serif" font-size="14.00">Liegt der Transaktionsgrund Abmeldung wegen fehl. Zuordnungserm&#228;chtigung</text>
<text text-anchor="start" x="494.87" y="-646.31" font-family="Roboto, sans-serif" font-size="14.00">aufgrund &#196;nderung ZRT vor?</text>
</g>
<!-- 70&#45;&gt;80 -->
<g id="edge19" class="edge">
<title>70-&gt;80</title>
<path fill="none" stroke="#7aab8a" d="M399.95,-773.42C476.7,-750.76 613.22,-710.46 701.51,-684.4"/>
<polygon fill="#7aab8a" stroke="#7aab8a" points="702.25,-687.83 710.85,-681.64 700.27,-681.12 702.25,-687.83"/>
<text text-anchor="start" x="590.49" y="-718.32" font-family="Roboto, sans-serif" font-weight="bold" font-size="14.00">JA</text>
</g>
<!-- 90 -->
<g id="node18" class="node">
<title>90</title>
<path fill="#7aab8a" stroke="black" stroke-width="0" d="M1720.01,-560.48C1720.01,-560.48 1172.97,-560.48 1172.97,-560.48 1166.97,-560.48 1160.97,-554.48 1160.97,-548.48 1160.97,-548.48 1160.97,-527.2 1160.97,-527.2 1160.97,-521.2 1166.97,-515.2 1172.97,-515.2 1172.97,-515.2 1720.01,-515.2 1720.01,-515.2 1726.01,-515.2 1732.01,-521.2 1732.01,-527.2 1732.01,-527.2 1732.01,-548.48 1732.01,-548.48 1732.01,-554.48 1726.01,-560.48 1720.01,-560.48"/>
<text text-anchor="start" x="1175.37" y="-539.54" font-family="Roboto, sans-serif" font-weight="bold" font-size="14.00">90: </text>
<text text-anchor="start" x="1204.62" y="-539.54" font-family="Roboto, sans-serif" font-size="14.00">Wurde der Zeitreihentyp an der betreffenden Marktlokation auf einen ZRT</text>
<text text-anchor="start" x="1175.37" y="-525.54" font-family="Roboto, sans-serif" font-size="14.00">ge&#228;ndert, f&#252;r welchen eine Zuordnungserm&#228;chtigung besteht?</text>
</g>
<!-- 80&#45;&gt;90 -->
<g id="edge20" class="edge">
<title>80-&gt;90</title>
<path fill="none" stroke="#7aab8a" d="M905.58,-636.03C1021.26,-615.25 1195.81,-583.88 1315.14,-562.44"/>
<polygon fill="#7aab8a" stroke="#7aab8a" points="1315.44,-565.94 1324.66,-560.73 1314.2,-559.05 1315.44,-565.94"/>
<text text-anchor="start" x="1174.49" y="-591.55" font-family="Roboto, sans-serif" font-weight="bold" font-size="14.00">JA</text>
</g>
<!-- 100 -->
<g id="node20" class="node">
<title>100</title>
<path fill="#7aab8a" stroke="black" stroke-width="0" d="M1095.39,-567.48C1095.39,-567.48 475.59,-567.48 475.59,-567.48 469.59,-567.48 463.59,-561.48 463.59,-555.48 463.59,-555.48 463.59,-520.2 463.59,-520.2 463.59,-514.2 469.59,-508.2 475.59,-508.2 475.59,-508.2 1095.39,-508.2 1095.39,-508.2 1101.39,-508.2 1107.39,-514.2 1107.39,-520.2 1107.39,-520.2 1107.39,-555.48 1107.39,-555.48 1107.39,-561.48 1101.39,-567.48 1095.39,-567.48"/>
<text text-anchor="start" x="477.99" y="-546.54" font-family="Roboto, sans-serif" font-weight="bold" font-size="14.00">100: </text>
<text text-anchor="start" x="516.99" y="-546.54" font-family="Roboto, sans-serif" font-size="14.00">Hat der BKV die Deaktivierung der Zuordnungserm&#228;chtigung f&#252;r den ZRT, welcher</text>
<text text-anchor="start" x="477.99" y="-532.54" font-family="Roboto, sans-serif" font-size="14.00">der genannten Marktlokation zugeordnet ist, zum &#252;bermittelten Lieferende</text>
<text text-anchor="start" x="477.99" y="-518.54" font-family="Roboto, sans-serif" font-size="14.00">vorgenommen?</text>
</g>
<!-- 80&#45;&gt;100 -->
<g id="edge21" class="edge">
<title>80-&gt;100</title>
<path fill="none" stroke="#7aab8a" d="M785.49,-636.1C785.49,-620.16 785.49,-597.96 785.49,-578.8"/>
<polygon fill="#7aab8a" stroke="#7aab8a" points="788.99,-578.86 785.49,-568.86 781.99,-578.86 788.99,-578.86"/>
<text text-anchor="start" x="785.49" y="-591.55" font-family="Roboto, sans-serif" font-weight="bold" font-size="14.00">NEIN</text>
</g>
<!-- A06 -->
<g id="node19" class="node">
<title>A06</title>
<path fill="#cfb986" stroke="black" stroke-width="0" d="M1730.98,-453.83C1730.98,-453.83 1162,-453.83 1162,-453.83 1156,-453.83 1150,-447.83 1150,-441.83 1150,-441.83 1150,-380.31 1150,-380.31 1150,-374.31 1156,-368.31 1162,-368.31 1162,-368.31 1730.98,-368.31 1730.98,-368.31 1736.98,-368.31 1742.98,-374.31 1742.98,-380.31 1742.98,-380.31 1742.98,-441.83 1742.98,-441.83 1742.98,-447.83 1736.98,-453.83 1730.98,-453.83"/>
<text text-anchor="start" x="1162.24" y="-435.77" font-family="Roboto, sans-serif" font-weight="bold" font-size="14.00">A06</text>
<text text-anchor="start" x="1162.24" y="-423.67" font-family="Roboto, sans-serif" text-decoration="underline" font-size="12.00">Hinweis:</text>
<text text-anchor="start" x="1162.24" y="-411.67" font-family="Roboto, sans-serif" font-size="12.00">Cluster: Zustimmung</text>
<text text-anchor="start" x="1162.24" y="-399.67" font-family="Roboto, sans-serif" font-size="12.00">Es liegt eine &#196;nderung auf einen Zeitreihentyp vor, f&#252;r welchen eine</text>
<text text-anchor="start" x="1162.24" y="-387.67" font-family="Roboto, sans-serif" font-size="12.00">Zuordnungserm&#228;chtigung besteht. (Zuordnungserm&#228;chtigung liegt vor)</text>
<text text-anchor="start" x="1162.24" y="-375.67" font-family="Roboto, sans-serif" font-size="12.00">Hinweis: Aus Sicht des LF m&#252;sste die notwendige Zuordnungserm&#228;chtigung beim NB vorliegen.</text>
</g>
<!-- 90&#45;&gt;A06 -->
<g id="edge22" class="edge">
<title>90-&gt;A06</title>
<path fill="none" stroke="#7aab8a" d="M1446.49,-515.39C1446.49,-501.5 1446.49,-482.77 1446.49,-465.06"/>
<polygon fill="#7aab8a" stroke="#7aab8a" points="1449.99,-465.16 1446.49,-455.16 1442.99,-465.16 1449.99,-465.16"/>
<text text-anchor="start" x="1446.49" y="-476.78" font-family="Roboto, sans-serif" font-weight="bold" font-size="14.00">JA</text>
</g>
<!-- 90&#45;&gt;130 -->
<g id="edge23" class="edge">
<title>90-&gt;130</title>
<path fill="none" stroke="#7aab8a" d="M1586.39,-515.26C1656.12,-501.4 1730.09,-480.89 1751.49,-453.83 1768.15,-432.77 1744.17,-357.41 1755.49,-333.06 1768.86,-304.31 1801.57,-316.25 1808.49,-285.3"/>
<path fill="none" stroke="#7aab8a" d="M1808.49,-283.3C1815.99,-249.16 1789.7,-216.35 1766.6,-195.01"/>
<polygon fill="#7aab8a" stroke="#7aab8a" points="1768.93,-192.4 1759.12,-188.41 1764.31,-197.65 1768.93,-192.4"/>
<text text-anchor="start" x="1755.49" y="-338.01" font-family="Roboto, sans-serif" font-weight="bold" font-size="14.00">NEIN</text>
</g>
<!-- A07 -->
<g id="node21" class="node">
<title>A07</title>
<path fill="#cfb986" stroke="black" stroke-width="0" d="M520.98,-447.83C520.98,-447.83 12,-447.83 12,-447.83 6,-447.83 0,-441.83 0,-435.83 0,-435.83 0,-386.31 0,-386.31 0,-380.31 6,-374.31 12,-374.31 12,-374.31 520.98,-374.31 520.98,-374.31 526.98,-374.31 532.98,-380.31 532.98,-386.31 532.98,-386.31 532.98,-435.83 532.98,-435.83 532.98,-441.83 526.98,-447.83 520.98,-447.83"/>
<text text-anchor="start" x="12.24" y="-429.77" font-family="Roboto, sans-serif" font-weight="bold" font-size="14.00">A07</text>
<text text-anchor="start" x="12.24" y="-417.67" font-family="Roboto, sans-serif" text-decoration="underline" font-size="12.00">Hinweis:</text>
<text text-anchor="start" x="12.24" y="-405.67" font-family="Roboto, sans-serif" font-size="12.00">Cluster: Zustimmung</text>
<text text-anchor="start" x="12.24" y="-393.67" font-family="Roboto, sans-serif" font-size="12.00">Deaktivierung der Zuordnungserm&#228;chtigung f&#252;r den der Marktlokation zugeordneten</text>
<text text-anchor="start" x="12.24" y="-381.67" font-family="Roboto, sans-serif" font-size="12.00">ZRT hat stattgefunden.</text>
</g>
<!-- 100&#45;&gt;A07 -->
<g id="edge24" class="edge">
<title>100-&gt;A07</title>
<path fill="none" stroke="#7aab8a" d="M666.42,-508.22C595.11,-491.07 503.55,-469.06 426.03,-450.42"/>
<polygon fill="#7aab8a" stroke="#7aab8a" points="427.2,-447.11 416.66,-448.17 425.57,-453.91 427.2,-447.11"/>
<text text-anchor="start" x="571.49" y="-476.78" font-family="Roboto, sans-serif" font-weight="bold" font-size="14.00">JA</text>
</g>
<!-- 110 -->
<g id="node22" class="node">
<title>110</title>
<path fill="#7aab8a" stroke="black" stroke-width="0" d="M1120.26,-433.71C1120.26,-433.71 562.72,-433.71 562.72,-433.71 556.72,-433.71 550.72,-427.71 550.72,-421.71 550.72,-421.71 550.72,-400.43 550.72,-400.43 550.72,-394.43 556.72,-388.43 562.72,-388.43 562.72,-388.43 1120.26,-388.43 1120.26,-388.43 1126.26,-388.43 1132.26,-394.43 1132.26,-400.43 1132.26,-400.43 1132.26,-421.71 1132.26,-421.71 1132.26,-427.71 1126.26,-433.71 1120.26,-433.71"/>
<text text-anchor="start" x="565.12" y="-412.77" font-family="Roboto, sans-serif" font-weight="bold" font-size="14.00">110: </text>
<text text-anchor="start" x="604.12" y="-412.77" font-family="Roboto, sans-serif" font-size="14.00">Hat die dem Lieferende zugrundeliegende Deaktivierung der</text>
<text text-anchor="start" x="565.12" y="-398.77" font-family="Roboto, sans-serif" font-size="14.00">Zuordnungserm&#228;chtigung ihre G&#252;ltigkeit weiter als einen Monat in die Zukunft?</text>
</g>
<!-- 100&#45;&gt;110 -->
<g id="edge25" class="edge">
<title>100-&gt;110</title>
<path fill="none" stroke="#7aab8a" d="M798.34,-508.22C806.95,-489.03 818.29,-463.76 827.19,-443.93"/>
<polygon fill="#7aab8a" stroke="#7aab8a" points="830.32,-445.49 831.23,-434.94 823.94,-442.63 830.32,-445.49"/>
<text text-anchor="start" x="813.49" y="-476.78" font-family="Roboto, sans-serif" font-weight="bold" font-size="14.00">NEIN</text>
</g>
<!-- A08 -->
<g id="node23" class="node">
<title>A08</title>
<path fill="#cfb986" stroke="black" stroke-width="0" d="M907.73,-315.06C907.73,-315.06 775.25,-315.06 775.25,-315.06 769.25,-315.06 763.25,-309.06 763.25,-303.06 763.25,-303.06 763.25,-265.54 763.25,-265.54 763.25,-259.54 769.25,-253.54 775.25,-253.54 775.25,-253.54 907.73,-253.54 907.73,-253.54 913.73,-253.54 919.73,-259.54 919.73,-265.54 919.73,-265.54 919.73,-303.06 919.73,-303.06 919.73,-309.06 913.73,-315.06 907.73,-315.06"/>
<text text-anchor="start" x="775.49" y="-297" font-family="Roboto, sans-serif" font-weight="bold" font-size="14.00">A08</text>
<text text-anchor="start" x="775.49" y="-284.9" font-family="Roboto, sans-serif" text-decoration="underline" font-size="12.00">Hinweis:</text>
<text text-anchor="start" x="775.49" y="-272.9" font-family="Roboto, sans-serif" font-size="12.00">Cluster: Ablehnung </text>
<text text-anchor="start" x="775.49" y="-260.9" font-family="Roboto, sans-serif" font-size="12.00">Frist nicht eingehalten</text>
</g>
<!-- 110&#45;&gt;A08 -->
<g id="edge26" class="edge">
<title>110-&gt;A08</title>
<path fill="none" stroke="#7aab8a" d="M841.49,-388.62C841.49,-371.53 841.49,-347.11 841.49,-326.3"/>
<polygon fill="#7aab8a" stroke="#7aab8a" points="844.99,-326.38 841.49,-316.38 837.99,-326.38 844.99,-326.38"/>
<text text-anchor="start" x="841.49" y="-338.01" font-family="Roboto, sans-serif" font-weight="bold" font-size="14.00">JA</text>
</g>
<!-- 120 -->
<g id="node24" class="node">
<title>120</title>
<path fill="#7aab8a" stroke="black" stroke-width="0" d="M1668.26,-306.94C1668.26,-306.94 1050.72,-306.94 1050.72,-306.94 1044.72,-306.94 1038.72,-300.94 1038.72,-294.94 1038.72,-294.94 1038.72,-273.66 1038.72,-273.66 1038.72,-267.66 1044.72,-261.66 1050.72,-261.66 1050.72,-261.66 1668.26,-261.66 1668.26,-261.66 1674.26,-261.66 1680.26,-267.66 1680.26,-273.66 1680.26,-273.66 1680.26,-294.94 1680.26,-294.94 1680.26,-300.94 1674.26,-306.94 1668.26,-306.94"/>
<text text-anchor="start" x="1053.12" y="-286" font-family="Roboto, sans-serif" font-weight="bold" font-size="14.00">120: </text>
<text text-anchor="start" x="1092.12" y="-286" font-family="Roboto, sans-serif" font-size="14.00">Liegt das Eingangsdatum der Abmeldung nach dem 5. WT des Monats, in dem die</text>
<text text-anchor="start" x="1053.12" y="-272" font-family="Roboto, sans-serif" font-size="14.00">Zuordnungserm&#228;chtigung endet?</text>
</g>
<!-- 110&#45;&gt;120 -->
<g id="edge27" class="edge">
<title>110-&gt;120</title>
<path fill="none" stroke="#7aab8a" d="M931.13,-388.48C1022.35,-366.51 1163.48,-332.51 1258.58,-309.61"/>
<polygon fill="#7aab8a" stroke="#7aab8a" points="1259.28,-313.04 1268.18,-307.29 1257.64,-306.23 1259.28,-313.04"/>
<text text-anchor="start" x="1146.49" y="-338.01" font-family="Roboto, sans-serif" font-weight="bold" font-size="14.00">NEIN</text>
</g>
<!-- A09 -->
<g id="node25" class="node">
<title>A09</title>
<path fill="#cfb986" stroke="black" stroke-width="0" d="M1417.86,-200.29C1417.86,-200.29 1301.12,-200.29 1301.12,-200.29 1295.12,-200.29 1289.12,-194.29 1289.12,-188.29 1289.12,-188.29 1289.12,-150.77 1289.12,-150.77 1289.12,-144.77 1295.12,-138.77 1301.12,-138.77 1301.12,-138.77 1417.86,-138.77 1417.86,-138.77 1423.86,-138.77 1429.86,-144.77 1429.86,-150.77 1429.86,-150.77 1429.86,-188.29 1429.86,-188.29 1429.86,-194.29 1423.86,-200.29 1417.86,-200.29"/>
<text text-anchor="start" x="1301.37" y="-182.23" font-family="Roboto, sans-serif" font-weight="bold" font-size="14.00">A09</text>
<text text-anchor="start" x="1301.37" y="-170.13" font-family="Roboto, sans-serif" text-decoration="underline" font-size="12.00">Hinweis:</text>
<text text-anchor="start" x="1301.37" y="-158.13" font-family="Roboto, sans-serif" font-size="12.00">Cluster: Ablehnung </text>
<text text-anchor="start" x="1301.37" y="-146.13" font-family="Roboto, sans-serif" font-size="12.00">Frist&#252;berschreitung</text>
</g>
<!-- 120&#45;&gt;A09 -->
<g id="edge28" class="edge">
<title>120-&gt;A09</title>
<path fill="none" stroke="#7aab8a" d="M1359.49,-261.82C1359.49,-247.6 1359.49,-228.48 1359.49,-211.42"/>
<polygon fill="#7aab8a" stroke="#7aab8a" points="1362.99,-211.53 1359.49,-201.53 1355.99,-211.53 1362.99,-211.53"/>
<text text-anchor="start" x="1359.49" y="-223.24" font-family="Roboto, sans-serif" font-weight="bold" font-size="14.00">JA</text>
</g>
<!-- 120&#45;&gt;130 -->
<g id="edge29" class="edge">
<title>120-&gt;130</title>
<path fill="none" stroke="#7aab8a" d="M1431.54,-261.69C1499.82,-241.21 1601.56,-210.7 1668.22,-190.71"/>
<polygon fill="#7aab8a" stroke="#7aab8a" points="1668.99,-194.13 1677.56,-187.9 1666.98,-187.42 1668.99,-194.13"/>
<text text-anchor="start" x="1569.49" y="-223.24" font-family="Roboto, sans-serif" font-weight="bold" font-size="14.00">NEIN</text>
</g>
<!-- A99 -->
<g id="node27" class="node">
<title>A99</title>
<path fill="#cfb986" stroke="black" stroke-width="0" d="M2275.73,-85.52C2275.73,-85.52 1801.25,-85.52 1801.25,-85.52 1795.25,-85.52 1789.25,-79.52 1789.25,-73.52 1789.25,-73.52 1789.25,-12 1789.25,-12 1789.25,-6 1795.25,0 1801.25,0 1801.25,0 2275.73,0 2275.73,0 2281.73,0 2287.73,-6 2287.73,-12 2287.73,-12 2287.73,-73.52 2287.73,-73.52 2287.73,-79.52 2281.73,-85.52 2275.73,-85.52"/>
<text text-anchor="start" x="1801.49" y="-67.46" font-family="Roboto, sans-serif" font-weight="bold" font-size="14.00">A99</text>
<text text-anchor="start" x="1801.49" y="-55.36" font-family="Roboto, sans-serif" text-decoration="underline" font-size="12.00">Hinweis:</text>
<text text-anchor="start" x="1801.49" y="-43.36" font-family="Roboto, sans-serif" font-size="12.00">Cluster: Ablehnung</text>
<text text-anchor="start" x="1801.49" y="-31.36" font-family="Roboto, sans-serif" font-size="12.00">Sonstiges</text>
<text text-anchor="start" x="1801.49" y="-19.36" font-family="Roboto, sans-serif" font-size="12.00">Hinweis: Das identifizierte Problem ist in der Antwort zu beschreiben/benennen.</text>
<text text-anchor="start" x="1801.49" y="-7.36" font-family="Roboto, sans-serif" font-size="12.00">Nutzungsm&#246;glichkeit Ende: 01.04.2026 00:00 Uhr</text>
</g>
<!-- 130&#45;&gt;A99 -->
<g id="edge30" class="edge">
<title>130-&gt;A99</title>
<path fill="none" stroke="#7aab8a" d="M1776.67,-151.57C1815.2,-135.71 1874.52,-111.28 1926.97,-89.68"/>
<polygon fill="#7aab8a" stroke="#7aab8a" points="1928.04,-93.03 1935.95,-85.98 1925.37,-86.55 1928.04,-93.03"/>
<text text-anchor="start" x="1886.49" y="-108.47" font-family="Roboto, sans-serif" font-weight="bold" font-size="14.00">JA</text>
</g>
<!-- A10 -->
<g id="node28" class="node">
<title>A10</title>
<path fill="#cfb986" stroke="black" stroke-width="0" d="M1758.98,-73.52C1758.98,-73.52 1592,-73.52 1592,-73.52 1586,-73.52 1580,-67.52 1580,-61.52 1580,-61.52 1580,-24 1580,-24 1580,-18 1586,-12 1592,-12 1592,-12 1758.98,-12 1758.98,-12 1764.98,-12 1770.98,-18 1770.98,-24 1770.98,-24 1770.98,-61.52 1770.98,-61.52 1770.98,-67.52 1764.98,-73.52 1758.98,-73.52"/>
<text text-anchor="start" x="1592.24" y="-55.46" font-family="Roboto, sans-serif" font-weight="bold" font-size="14.00">A10</text>
<text text-anchor="start" x="1592.24" y="-43.36" font-family="Roboto, sans-serif" text-decoration="underline" font-size="12.00">Hinweis:</text>
<text text-anchor="start" x="1592.24" y="-31.36" font-family="Roboto, sans-serif" font-size="12.00">Cluster: Zustimmung</text>
<text text-anchor="start" x="1592.24" y="-19.36" font-family="Roboto, sans-serif" font-size="12.00">Lieferende wird zugestimmt</text>
</g>
<!-- 130&#45;&gt;A10 -->
<g id="edge31" class="edge">
<title>130-&gt;A10</title>
<path fill="none" stroke="#7aab8a" d="M1727.4,-151.7C1719.02,-134.28 1705.63,-106.44 1694.55,-83.4"/>
<polygon fill="#7aab8a" stroke="#7aab8a" points="1697.79,-82.06 1690.3,-74.57 1691.48,-85.1 1697.79,-82.06"/>
<text text-anchor="start" x="1710.49" y="-108.47" font-family="Roboto, sans-serif" font-weight="bold" font-size="14.00">NEIN</text>
</g>
<!-- A21 -->
<g id="node30" class="node">
<title>A21</title>
<path fill="#cfb986" stroke="black" stroke-width="0" d="M1852.73,-1455.99C1852.73,-1455.99 1522.25,-1455.99 1522.25,-1455.99 1516.25,-1455.99 1510.25,-1449.99 1510.25,-1443.99 1510.25,-1443.99 1510.25,-1406.47 1510.25,-1406.47 1510.25,-1400.47 1516.25,-1394.47 1522.25,-1394.47 1522.25,-1394.47 1852.73,-1394.47 1852.73,-1394.47 1858.73,-1394.47 1864.73,-1400.47 1864.73,-1406.47 1864.73,-1406.47 1864.73,-1443.99 1864.73,-1443.99 1864.73,-1449.99 1858.73,-1455.99 1852.73,-1455.99"/>
<text text-anchor="start" x="1522.49" y="-1437.93" font-family="Roboto, sans-serif" font-weight="bold" font-size="14.00">A21</text>
<text text-anchor="start" x="1522.49" y="-1425.83" font-family="Roboto, sans-serif" text-decoration="underline" font-size="12.00">Hinweis:</text>
<text text-anchor="start" x="1522.49" y="-1413.83" font-family="Roboto, sans-serif" font-size="12.00">Cluster: Ablehnung</text>
<text text-anchor="start" x="1522.49" y="-1401.83" font-family="Roboto, sans-serif" font-size="12.00">Lieferende zum Abmeldedatum wurde bereits best&#228;tigt</text>
</g>
<!-- 510&#45;&gt;A21 -->
<g id="edge32" class="edge">
<title>510-&gt;A21</title>
<path fill="none" stroke="#7aab8a" d="M1702.83,-1516.35C1700.44,-1502.35 1697.26,-1483.64 1694.41,-1466.9"/>
<polygon fill="#7aab8a" stroke="#7aab8a" points="1697.89,-1466.47 1692.76,-1457.2 1690.99,-1467.65 1697.89,-1466.47"/>
<text text-anchor="start" x="1697.49" y="-1478.94" font-family="Roboto, sans-serif" font-weight="bold" font-size="14.00">JA</text>
</g>
<!-- 520 -->
<g id="node31" class="node">
<title>520</title>
<path fill="#7aab8a" stroke="black" stroke-width="0" d="M2182.64,-1443.23C2182.64,-1443.23 1894.34,-1443.23 1894.34,-1443.23 1888.34,-1443.23 1882.34,-1437.23 1882.34,-1431.23 1882.34,-1431.23 1882.34,-1419.23 1882.34,-1419.23 1882.34,-1413.23 1888.34,-1407.23 1894.34,-1407.23 1894.34,-1407.23 2182.64,-1407.23 2182.64,-1407.23 2188.64,-1407.23 2194.64,-1413.23 2194.64,-1419.23 2194.64,-1419.23 2194.64,-1431.23 2194.64,-1431.23 2194.64,-1437.23 2188.64,-1443.23 2182.64,-1443.23"/>
<text text-anchor="start" x="1896.74" y="-1421.56" font-family="Roboto, sans-serif" font-weight="bold" font-size="14.00">520: </text>
<text text-anchor="start" x="1935.74" y="-1421.56" font-family="Roboto, sans-serif" font-size="14.00">Wurde die Vorlauffrist eingehalten?</text>
</g>
<!-- 510&#45;&gt;520 -->
<g id="edge33" class="edge">
<title>510-&gt;520</title>
<path fill="none" stroke="#7aab8a" d="M1770.5,-1516.35C1830.19,-1496.28 1918.61,-1466.55 1977.35,-1446.79"/>
<polygon fill="#7aab8a" stroke="#7aab8a" points="1978.17,-1450.21 1986.53,-1443.7 1975.94,-1443.57 1978.17,-1450.21"/>
<text text-anchor="start" x="1891.49" y="-1478.94" font-family="Roboto, sans-serif" font-weight="bold" font-size="14.00">NEIN</text>
</g>
<!-- A22 -->
<g id="node32" class="node">
<title>A22</title>
<path fill="#cfb986" stroke="black" stroke-width="0" d="M2236.23,-1335.22C2236.23,-1335.22 2022.75,-1335.22 2022.75,-1335.22 2016.75,-1335.22 2010.75,-1329.22 2010.75,-1323.22 2010.75,-1323.22 2010.75,-1285.7 2010.75,-1285.7 2010.75,-1279.7 2016.75,-1273.7 2022.75,-1273.7 2022.75,-1273.7 2236.23,-1273.7 2236.23,-1273.7 2242.23,-1273.7 2248.23,-1279.7 2248.23,-1285.7 2248.23,-1285.7 2248.23,-1323.22 2248.23,-1323.22 2248.23,-1329.22 2242.23,-1335.22 2236.23,-1335.22"/>
<text text-anchor="start" x="2022.99" y="-1317.16" font-family="Roboto, sans-serif" font-weight="bold" font-size="14.00">A22</text>
<text text-anchor="start" x="2022.99" y="-1305.06" font-family="Roboto, sans-serif" text-decoration="underline" font-size="12.00">Hinweis:</text>
<text text-anchor="start" x="2022.99" y="-1293.06" font-family="Roboto, sans-serif" font-size="12.00">Cluster: Ablehnung</text>
<text text-anchor="start" x="2022.99" y="-1281.06" font-family="Roboto, sans-serif" font-size="12.00">Vorlauffrist wurde nicht eingehalten</text>
</g>
<!-- 520&#45;&gt;A22 -->
<g id="edge34" class="edge">
<title>520-&gt;A22</title>
<path fill="none" stroke="#7aab8a" d="M2051.34,-1407.47C2063.94,-1391.02 2083.61,-1365.35 2100.06,-1343.87"/>
<polygon fill="#7aab8a" stroke="#7aab8a" points="2102.66,-1346.23 2105.96,-1336.17 2097.1,-1341.98 2102.66,-1346.23"/>
<text text-anchor="start" x="2086.49" y="-1364.17" font-family="Roboto, sans-serif" font-weight="bold" font-size="14.00">NEIN</text>
</g>
<!-- 530 -->
<g id="node33" class="node">
<title>530</title>
<path fill="#7aab8a" stroke="black" stroke-width="0" d="M1980.52,-1322.46C1980.52,-1322.46 1628.46,-1322.46 1628.46,-1322.46 1622.46,-1322.46 1616.46,-1316.46 1616.46,-1310.46 1616.46,-1310.46 1616.46,-1298.46 1616.46,-1298.46 1616.46,-1292.46 1622.46,-1286.46 1628.46,-1286.46 1628.46,-1286.46 1980.52,-1286.46 1980.52,-1286.46 1986.52,-1286.46 1992.52,-1292.46 1992.52,-1298.46 1992.52,-1298.46 1992.52,-1310.46 1992.52,-1310.46 1992.52,-1316.46 1986.52,-1322.46 1980.52,-1322.46"/>
<text text-anchor="start" x="1630.87" y="-1300.79" font-family="Roboto, sans-serif" font-weight="bold" font-size="14.00">530: </text>
<text text-anchor="start" x="1669.87" y="-1300.79" font-family="Roboto, sans-serif" font-size="14.00">Liegt der Transaktionsgrund Stilllegung vor?</text>
</g>
<!-- 520&#45;&gt;530 -->
<g id="edge35" class="edge">
<title>520-&gt;530</title>
<path fill="none" stroke="#7aab8a" d="M2005.46,-1407.47C1964.2,-1386.52 1893.5,-1350.64 1847.9,-1327.49"/>
<polygon fill="#7aab8a" stroke="#7aab8a" points="1849.58,-1324.42 1839.08,-1323.02 1846.41,-1330.66 1849.58,-1324.42"/>
<text text-anchor="start" x="1941.49" y="-1364.17" font-family="Roboto, sans-serif" font-weight="bold" font-size="14.00">JA</text>
</g>
<!-- 540 -->
<g id="node34" class="node">
<title>540</title>
<path fill="#7aab8a" stroke="black" stroke-width="0" d="M1809.64,-1194.33C1809.64,-1194.33 1215.34,-1194.33 1215.34,-1194.33 1209.34,-1194.33 1203.34,-1188.33 1203.34,-1182.33 1203.34,-1182.33 1203.34,-1161.05 1203.34,-1161.05 1203.34,-1155.05 1209.34,-1149.05 1215.34,-1149.05 1215.34,-1149.05 1809.64,-1149.05 1809.64,-1149.05 1815.64,-1149.05 1821.64,-1155.05 1821.64,-1161.05 1821.64,-1161.05 1821.64,-1182.33 1821.64,-1182.33 1821.64,-1188.33 1815.64,-1194.33 1809.64,-1194.33"/>
<text text-anchor="start" x="1217.74" y="-1173.39" font-family="Roboto, sans-serif" font-weight="bold" font-size="14.00">540: </text>
<text text-anchor="start" x="1256.74" y="-1173.39" font-family="Roboto, sans-serif" font-size="14.00">Liegen dem LF Informationen dar&#252;ber vor, dass die Marktlokation bzw. Tranche</text>
<text text-anchor="start" x="1217.74" y="-1159.39" font-family="Roboto, sans-serif" font-size="14.00">nicht stillgelegt wird/wurde?</text>
</g>
<!-- 530&#45;&gt;540 -->
<g id="edge36" class="edge">
<title>530-&gt;540</title>
<path fill="none" stroke="#7aab8a" d="M1766.62,-1286.5C1716.9,-1264.23 1629.14,-1224.93 1570.89,-1198.84"/>
<polygon fill="#7aab8a" stroke="#7aab8a" points="1572.67,-1195.81 1562.11,-1194.91 1569.81,-1202.2 1572.67,-1195.81"/>
<text text-anchor="start" x="1675.49" y="-1237.4" font-family="Roboto, sans-serif" font-weight="bold" font-size="14.00">JA</text>
</g>
<!-- 550 -->
<g id="node36" class="node">
<title>550</title>
<path fill="#7aab8a" stroke="black" stroke-width="0" d="M2461.51,-1189.69C2461.51,-1189.69 1851.46,-1189.69 1851.46,-1189.69 1845.46,-1189.69 1839.46,-1183.69 1839.46,-1177.69 1839.46,-1177.69 1839.46,-1165.69 1839.46,-1165.69 1839.46,-1159.69 1845.46,-1153.69 1851.46,-1153.69 1851.46,-1153.69 2461.51,-1153.69 2461.51,-1153.69 2467.51,-1153.69 2473.51,-1159.69 2473.51,-1165.69 2473.51,-1165.69 2473.51,-1177.69 2473.51,-1177.69 2473.51,-1183.69 2467.51,-1189.69 2461.51,-1189.69"/>
<text text-anchor="start" x="1853.86" y="-1168.02" font-family="Roboto, sans-serif" font-weight="bold" font-size="14.00">550: </text>
<text text-anchor="start" x="1892.86" y="-1168.02" font-family="Roboto, sans-serif" font-size="14.00">Ist das angegebene Datum &#8222;Lieferende&#8220; der 1. eines Kalendermonats 00:00 Uhr?</text>
</g>
<!-- 530&#45;&gt;550 -->
<g id="edge37" class="edge">
<title>530-&gt;550</title>
<path fill="none" stroke="#7aab8a" d="M1850.15,-1286.5C1914.24,-1262.69 2030.81,-1219.38 2100.2,-1193.6"/>
<polygon fill="#7aab8a" stroke="#7aab8a" points="2101.34,-1196.91 2109.5,-1190.15 2098.9,-1190.35 2101.34,-1196.91"/>
<text text-anchor="start" x="1990.49" y="-1237.4" font-family="Roboto, sans-serif" font-weight="bold" font-size="14.00">NEIN</text>
</g>
<!-- A23 -->
<g id="node35" class="node">
<title>A23</title>
<path fill="#cfb986" stroke="black" stroke-width="0" d="M1893.98,-1075.68C1893.98,-1075.68 1307,-1075.68 1307,-1075.68 1301,-1075.68 1295,-1069.68 1295,-1063.68 1295,-1063.68 1295,-1014.16 1295,-1014.16 1295,-1008.16 1301,-1002.16 1307,-1002.16 1307,-1002.16 1893.98,-1002.16 1893.98,-1002.16 1899.98,-1002.16 1905.98,-1008.16 1905.98,-1014.16 1905.98,-1014.16 1905.98,-1063.68 1905.98,-1063.68 1905.98,-1069.68 1899.98,-1075.68 1893.98,-1075.68"/>
<text text-anchor="start" x="1307.24" y="-1057.62" font-family="Roboto, sans-serif" font-weight="bold" font-size="14.00">A23</text>
<text text-anchor="start" x="1307.24" y="-1045.52" font-family="Roboto, sans-serif" text-decoration="underline" font-size="12.00">Hinweis:</text>
<text text-anchor="start" x="1307.24" y="-1033.52" font-family="Roboto, sans-serif" font-size="12.00">Cluster: Ablehnung</text>
<text text-anchor="start" x="1307.24" y="-1021.52" font-family="Roboto, sans-serif" font-size="12.00">Dem LF liegen Informationen vor, dass die Marktlokation bzw. Tranche nicht stillgelegt wird/wurde.</text>
<text text-anchor="start" x="1307.24" y="-1009.52" font-family="Roboto, sans-serif" font-size="12.00">Hinweis: Die Informationen sind in der Antwort zu beschreiben/benennen.</text>
</g>
<!-- 540&#45;&gt;A23 -->
<g id="edge38" class="edge">
<title>540-&gt;A23</title>
<path fill="none" stroke="#7aab8a" d="M1527.02,-1149.1C1538.72,-1131.72 1555.55,-1106.7 1570.15,-1085"/>
<polygon fill="#7aab8a" stroke="#7aab8a" points="1572.94,-1087.12 1575.62,-1076.87 1567.14,-1083.22 1572.94,-1087.12"/>
<text text-anchor="start" x="1561.49" y="-1098.63" font-family="Roboto, sans-serif" font-weight="bold" font-size="14.00">JA</text>
</g>
<!-- 610 -->
<g id="node47" class="node">
<title>610</title>
<path fill="#7aab8a" stroke="black" stroke-width="0" d="M2302.39,-555.84C2302.39,-555.84 1898.59,-555.84 1898.59,-555.84 1892.59,-555.84 1886.59,-549.84 1886.59,-543.84 1886.59,-543.84 1886.59,-531.84 1886.59,-531.84 1886.59,-525.84 1892.59,-519.84 1898.59,-519.84 1898.59,-519.84 2302.39,-519.84 2302.39,-519.84 2308.39,-519.84 2314.39,-525.84 2314.39,-531.84 2314.39,-531.84 2314.39,-543.84 2314.39,-543.84 2314.39,-549.84 2308.39,-555.84 2302.39,-555.84"/>
<text text-anchor="start" x="1900.99" y="-534.17" font-family="Roboto, sans-serif" font-weight="bold" font-size="14.00">610: </text>
<text text-anchor="start" x="1939.99" y="-534.17" font-family="Roboto, sans-serif" font-size="14.00">Ist ein zuvor nicht spezifizierter Fehler aufgetreten?</text>
</g>
<!-- 540&#45;&gt;610 -->
<g id="edge39" class="edge">
<title>540-&gt;610</title>
<path fill="none" stroke="#7aab8a" d="M1394.28,-1149.07C1353.08,-1135.25 1311.04,-1112.64 1286.49,-1075.68 1262.61,-1039.74 1255.49,-805.78 1316.49,-748.62 1344.18,-722.68 1624.55,-749.45 1657.49,-730.62 1690.34,-711.83 1698.59,-696.99 1704.49,-659.61"/>
<path fill="none" stroke="#7aab8a" d="M1704.49,-657.61C1712.94,-606.4 1838.24,-575.14 1945.66,-557.64"/>
<polygon fill="#7aab8a" stroke="#7aab8a" points="1946.17,-561.1 1955.5,-556.07 1945.07,-554.19 1946.17,-561.1"/>
<text text-anchor="start" x="1275.49" y="-857.09" font-family="Roboto, sans-serif" font-weight="bold" font-size="14.00">NEIN</text>
</g>
<!-- A24 -->
<g id="node37" class="node">
<title>A24</title>
<path fill="#cfb986" stroke="black" stroke-width="0" d="M2373.35,-1069.68C2373.35,-1069.68 1935.62,-1069.68 1935.62,-1069.68 1929.62,-1069.68 1923.62,-1063.68 1923.62,-1057.68 1923.62,-1057.68 1923.62,-1020.16 1923.62,-1020.16 1923.62,-1014.16 1929.62,-1008.16 1935.62,-1008.16 1935.62,-1008.16 2373.35,-1008.16 2373.35,-1008.16 2379.35,-1008.16 2385.35,-1014.16 2385.35,-1020.16 2385.35,-1020.16 2385.35,-1057.68 2385.35,-1057.68 2385.35,-1063.68 2379.35,-1069.68 2373.35,-1069.68"/>
<text text-anchor="start" x="1935.86" y="-1051.62" font-family="Roboto, sans-serif" font-weight="bold" font-size="14.00">A24</text>
<text text-anchor="start" x="1935.86" y="-1039.52" font-family="Roboto, sans-serif" text-decoration="underline" font-size="12.00">Hinweis:</text>
<text text-anchor="start" x="1935.86" y="-1027.52" font-family="Roboto, sans-serif" font-size="12.00">Cluster: Ablehnung</text>
<text text-anchor="start" x="1935.86" y="-1015.52" font-family="Roboto, sans-serif" font-size="12.00">Das Lieferende muss auf dem 1. eines Kalendermonats 00:00 Uhr liegen.</text>
</g>
<!-- 550&#45;&gt;A24 -->
<g id="edge40" class="edge">
<title>550-&gt;A24</title>
<path fill="none" stroke="#7aab8a" d="M2156.23,-1153.86C2155.95,-1135.52 2155.49,-1105.5 2155.12,-1080.88"/>
<polygon fill="#7aab8a" stroke="#7aab8a" points="2158.62,-1081.11 2154.97,-1071.17 2151.62,-1081.22 2158.62,-1081.11"/>
<text text-anchor="start" x="2155.49" y="-1098.63" font-family="Roboto, sans-serif" font-weight="bold" font-size="14.00">NEIN</text>
</g>
<!-- 560 -->
<g id="node38" class="node">
<title>560</title>
<path fill="#7aab8a" stroke="black" stroke-width="0" d="M3011.39,-1061.56C3011.39,-1061.56 2415.59,-1061.56 2415.59,-1061.56 2409.59,-1061.56 2403.59,-1055.56 2403.59,-1049.56 2403.59,-1049.56 2403.59,-1028.28 2403.59,-1028.28 2403.59,-1022.28 2409.59,-1016.28 2415.59,-1016.28 2415.59,-1016.28 3011.39,-1016.28 3011.39,-1016.28 3017.39,-1016.28 3023.39,-1022.28 3023.39,-1028.28 3023.39,-1028.28 3023.39,-1049.56 3023.39,-1049.56 3023.39,-1055.56 3017.39,-1061.56 3011.39,-1061.56"/>
<text text-anchor="start" x="2417.99" y="-1040.62" font-family="Roboto, sans-serif" font-weight="bold" font-size="14.00">560: </text>
<text text-anchor="start" x="2456.99" y="-1040.62" font-family="Roboto, sans-serif" font-size="14.00">Liegt der Transaktionsgrund Abmeldung wegen fehl. Zuordnungserm&#228;chtigung</text>
<text text-anchor="start" x="2417.99" y="-1026.62" font-family="Roboto, sans-serif" font-size="14.00">aufgrund &#196;nderung ZRT vor?</text>
</g>
<!-- 550&#45;&gt;560 -->
<g id="edge41" class="edge">
<title>550-&gt;560</title>
<path fill="none" stroke="#7aab8a" d="M2228.74,-1153.73C2325.92,-1130.91 2499.34,-1090.2 2610.26,-1064.15"/>
<polygon fill="#7aab8a" stroke="#7aab8a" points="2611.06,-1067.56 2619.99,-1061.87 2609.46,-1060.75 2611.06,-1067.56"/>
<text text-anchor="start" x="2467.49" y="-1098.63" font-family="Roboto, sans-serif" font-weight="bold" font-size="14.00">JA</text>
</g>
<!-- 570 -->
<g id="node39" class="node">
<title>570</title>
<path fill="#7aab8a" stroke="black" stroke-width="0" d="M1933.39,-940.79C1933.39,-940.79 1355.59,-940.79 1355.59,-940.79 1349.59,-940.79 1343.59,-934.79 1343.59,-928.79 1343.59,-928.79 1343.59,-907.51 1343.59,-907.51 1343.59,-901.51 1349.59,-895.51 1355.59,-895.51 1355.59,-895.51 1933.39,-895.51 1933.39,-895.51 1939.39,-895.51 1945.39,-901.51 1945.39,-907.51 1945.39,-907.51 1945.39,-928.79 1945.39,-928.79 1945.39,-934.79 1939.39,-940.79 1933.39,-940.79"/>
<text text-anchor="start" x="1357.99" y="-919.85" font-family="Roboto, sans-serif" font-weight="bold" font-size="14.00">570: </text>
<text text-anchor="start" x="1396.99" y="-919.85" font-family="Roboto, sans-serif" font-size="14.00">Wurde der Zeitreihentyp an der betreffenden Marktlokation bzw. Tranche auf</text>
<text text-anchor="start" x="1357.99" y="-905.85" font-family="Roboto, sans-serif" font-size="14.00">einen ZRT ge&#228;ndert, f&#252;r welchen eine Zuordnungserm&#228;chtigung besteht?</text>
</g>
<!-- 560&#45;&gt;570 -->
<g id="edge42" class="edge">
<title>560-&gt;570</title>
<path fill="none" stroke="#7aab8a" d="M2521.19,-1016.32C2479.42,-1011.64 2435.48,-1006.73 2394.49,-1002.16 2210.95,-981.72 2002.12,-958.62 1851.51,-941.98"/>
<polygon fill="#7aab8a" stroke="#7aab8a" points="1852.14,-938.53 1841.82,-940.91 1851.37,-945.49 1852.14,-938.53"/>
<text text-anchor="start" x="2229.49" y="-971.86" font-family="Roboto, sans-serif" font-weight="bold" font-size="14.00">JA</text>
</g>
<!-- 580 -->
<g id="node41" class="node">
<title>580</title>
<path fill="#7aab8a" stroke="black" stroke-width="0" d="M3023.39,-947.79C3023.39,-947.79 2403.59,-947.79 2403.59,-947.79 2397.59,-947.79 2391.59,-941.79 2391.59,-935.79 2391.59,-935.79 2391.59,-900.51 2391.59,-900.51 2391.59,-894.51 2397.59,-888.51 2403.59,-888.51 2403.59,-888.51 3023.39,-888.51 3023.39,-888.51 3029.39,-888.51 3035.39,-894.51 3035.39,-900.51 3035.39,-900.51 3035.39,-935.79 3035.39,-935.79 3035.39,-941.79 3029.39,-947.79 3023.39,-947.79"/>
<text text-anchor="start" x="2405.99" y="-926.85" font-family="Roboto, sans-serif" font-weight="bold" font-size="14.00">580: </text>
<text text-anchor="start" x="2444.99" y="-926.85" font-family="Roboto, sans-serif" font-size="14.00">Hat der BKV die Deaktivierung der Zuordnungserm&#228;chtigung f&#252;r den ZRT, welcher</text>
<text text-anchor="start" x="2405.99" y="-912.85" font-family="Roboto, sans-serif" font-size="14.00">der genannten Marktlokation bzw. Tranche zugeordnet ist, zum &#252;bermittelten</text>
<text text-anchor="start" x="2405.99" y="-898.85" font-family="Roboto, sans-serif" font-size="14.00">Lieferende vorgenommen?</text>
</g>
<!-- 560&#45;&gt;580 -->
<g id="edge43" class="edge">
<title>560-&gt;580</title>
<path fill="none" stroke="#7aab8a" d="M2713.49,-1016.41C2713.49,-1000.47 2713.49,-978.27 2713.49,-959.11"/>
<polygon fill="#7aab8a" stroke="#7aab8a" points="2716.99,-959.17 2713.49,-949.17 2709.99,-959.17 2716.99,-959.17"/>
<text text-anchor="start" x="2713.49" y="-971.86" font-family="Roboto, sans-serif" font-weight="bold" font-size="14.00">NEIN</text>
</g>
<!-- A25 -->
<g id="node40" class="node">
<title>A25</title>
<path fill="#cfb986" stroke="black" stroke-width="0" d="M1928.98,-834.14C1928.98,-834.14 1360,-834.14 1360,-834.14 1354,-834.14 1348,-828.14 1348,-822.14 1348,-822.14 1348,-760.62 1348,-760.62 1348,-754.62 1354,-748.62 1360,-748.62 1360,-748.62 1928.98,-748.62 1928.98,-748.62 1934.98,-748.62 1940.98,-754.62 1940.98,-760.62 1940.98,-760.62 1940.98,-822.14 1940.98,-822.14 1940.98,-828.14 1934.98,-834.14 1928.98,-834.14"/>
<text text-anchor="start" x="1360.24" y="-816.08" font-family="Roboto, sans-serif" font-weight="bold" font-size="14.00">A25</text>
<text text-anchor="start" x="1360.24" y="-803.98" font-family="Roboto, sans-serif" text-decoration="underline" font-size="12.00">Hinweis:</text>
<text text-anchor="start" x="1360.24" y="-791.98" font-family="Roboto, sans-serif" font-size="12.00">Cluster: Zustimmung</text>
<text text-anchor="start" x="1360.24" y="-779.98" font-family="Roboto, sans-serif" font-size="12.00">Es liegt eine &#196;nderung auf einen Zeitreihentyp vor, f&#252;r welchen eine</text>
<text text-anchor="start" x="1360.24" y="-767.98" font-family="Roboto, sans-serif" font-size="12.00">Zuordnungserm&#228;chtigung besteht. (Zuordnungserm&#228;chtigung liegt vor)</text>
<text text-anchor="start" x="1360.24" y="-755.98" font-family="Roboto, sans-serif" font-size="12.00">Hinweis: Aus Sicht des LF m&#252;sste die notwendige Zuordnungserm&#228;chtigung beim NB vorliegen.</text>
</g>
<!-- 570&#45;&gt;A25 -->
<g id="edge44" class="edge">
<title>570-&gt;A25</title>
<path fill="none" stroke="#7aab8a" d="M1644.49,-895.7C1644.49,-881.81 1644.49,-863.08 1644.49,-845.37"/>
<polygon fill="#7aab8a" stroke="#7aab8a" points="1647.99,-845.47 1644.49,-835.47 1640.99,-845.47 1647.99,-845.47"/>
<text text-anchor="start" x="1644.49" y="-857.09" font-family="Roboto, sans-serif" font-weight="bold" font-size="14.00">JA</text>
</g>
<!-- 570&#45;&gt;610 -->
<g id="edge45" class="edge">
<title>570-&gt;610</title>
<path fill="none" stroke="#7aab8a" d="M1502.57,-895.51C1433.23,-881.74 1360.27,-861.34 1339.49,-834.14 1316.41,-803.94 1313.33,-776.19 1339.49,-748.62 1365.76,-720.94 1652.37,-754.06 1682.49,-730.62 1708.56,-710.33 1700.29,-692.38 1704.49,-659.61"/>
<text text-anchor="start" x="1696.49" y="-718.32" font-family="Roboto, sans-serif" font-weight="bold" font-size="14.00">NEIN</text>
</g>
<!-- A26 -->
<g id="node42" class="node">
<title>A26</title>
<path fill="#cfb986" stroke="black" stroke-width="0" d="M2474.35,-828.14C2474.35,-828.14 1970.62,-828.14 1970.62,-828.14 1964.62,-828.14 1958.62,-822.14 1958.62,-816.14 1958.62,-816.14 1958.62,-766.62 1958.62,-766.62 1958.62,-760.62 1964.62,-754.62 1970.62,-754.62 1970.62,-754.62 2474.35,-754.62 2474.35,-754.62 2480.35,-754.62 2486.35,-760.62 2486.35,-766.62 2486.35,-766.62 2486.35,-816.14 2486.35,-816.14 2486.35,-822.14 2480.35,-828.14 2474.35,-828.14"/>
<text text-anchor="start" x="1970.86" y="-810.08" font-family="Roboto, sans-serif" font-weight="bold" font-size="14.00">A26</text>
<text text-anchor="start" x="1970.86" y="-797.98" font-family="Roboto, sans-serif" text-decoration="underline" font-size="12.00">Hinweis:</text>
<text text-anchor="start" x="1970.86" y="-785.98" font-family="Roboto, sans-serif" font-size="12.00">Cluster: Zustimmung</text>
<text text-anchor="start" x="1970.86" y="-773.98" font-family="Roboto, sans-serif" font-size="12.00">Deaktivierung der Zuordnungserm&#228;chtigung f&#252;r den der Marktlokation bzw. Tranche</text>
<text text-anchor="start" x="1970.86" y="-761.98" font-family="Roboto, sans-serif" font-size="12.00">zugeordneten ZRT hat stattgefunden.</text>
</g>
<!-- 580&#45;&gt;A26 -->
<g id="edge46" class="edge">
<title>580-&gt;A26</title>
<path fill="none" stroke="#7aab8a" d="M2600.84,-888.53C2533.65,-871.45 2447.46,-849.55 2374.32,-830.96"/>
<polygon fill="#7aab8a" stroke="#7aab8a" points="2375.19,-827.57 2364.63,-828.5 2373.46,-834.36 2375.19,-827.57"/>
<text text-anchor="start" x="2511.49" y="-857.09" font-family="Roboto, sans-serif" font-weight="bold" font-size="14.00">JA</text>
</g>
<!-- 590 -->
<g id="node43" class="node">
<title>590</title>
<path fill="#7aab8a" stroke="black" stroke-width="0" d="M3074.26,-814.02C3074.26,-814.02 2516.71,-814.02 2516.71,-814.02 2510.71,-814.02 2504.71,-808.02 2504.71,-802.02 2504.71,-802.02 2504.71,-780.74 2504.71,-780.74 2504.71,-774.74 2510.71,-768.74 2516.71,-768.74 2516.71,-768.74 3074.26,-768.74 3074.26,-768.74 3080.26,-768.74 3086.26,-774.74 3086.26,-780.74 3086.26,-780.74 3086.26,-802.02 3086.26,-802.02 3086.26,-808.02 3080.26,-814.02 3074.26,-814.02"/>
<text text-anchor="start" x="2519.11" y="-793.08" font-family="Roboto, sans-serif" font-weight="bold" font-size="14.00">590: </text>
<text text-anchor="start" x="2558.11" y="-793.08" font-family="Roboto, sans-serif" font-size="14.00">Hat die dem Lieferende zugrundeliegende Deaktivierung der</text>
<text text-anchor="start" x="2519.11" y="-779.08" font-family="Roboto, sans-serif" font-size="14.00">Zuordnungserm&#228;chtigung ihre G&#252;ltigkeit weiter als einen Monat in die Zukunft?</text>
</g>
<!-- 580&#45;&gt;590 -->
<g id="edge47" class="edge">
<title>580-&gt;590</title>
<path fill="none" stroke="#7aab8a" d="M2732.3,-888.53C2745.08,-869.08 2761.98,-843.36 2775.09,-823.42"/>
<polygon fill="#7aab8a" stroke="#7aab8a" points="2777.97,-825.41 2780.54,-815.13 2772.12,-821.57 2777.97,-825.41"/>
<text text-anchor="start" x="2754.49" y="-857.09" font-family="Roboto, sans-serif" font-weight="bold" font-size="14.00">NEIN</text>
</g>
<!-- A27 -->
<g id="node44" class="node">
<title>A27</title>
<path fill="#cfb986" stroke="black" stroke-width="0" d="M2414.73,-689.37C2414.73,-689.37 2282.25,-689.37 2282.25,-689.37 2276.25,-689.37 2270.25,-683.37 2270.25,-677.37 2270.25,-677.37 2270.25,-639.85 2270.25,-639.85 2270.25,-633.85 2276.25,-627.85 2282.25,-627.85 2282.25,-627.85 2414.73,-627.85 2414.73,-627.85 2420.73,-627.85 2426.73,-633.85 2426.73,-639.85 2426.73,-639.85 2426.73,-677.37 2426.73,-677.37 2426.73,-683.37 2420.73,-689.37 2414.73,-689.37"/>
<text text-anchor="start" x="2282.49" y="-671.31" font-family="Roboto, sans-serif" font-weight="bold" font-size="14.00">A27</text>
<text text-anchor="start" x="2282.49" y="-659.21" font-family="Roboto, sans-serif" text-decoration="underline" font-size="12.00">Hinweis:</text>
<text text-anchor="start" x="2282.49" y="-647.21" font-family="Roboto, sans-serif" font-size="12.00">Cluster: Ablehnung </text>
<text text-anchor="start" x="2282.49" y="-635.21" font-family="Roboto, sans-serif" font-size="12.00">Frist nicht eingehalten</text>
</g>
<!-- 590&#45;&gt;A27 -->
<g id="edge48" class="edge">
<title>590-&gt;A27</title>
<path fill="none" stroke="#7aab8a" d="M2699.73,-768.75C2626.6,-751.36 2523.73,-725 2435.49,-695.37 2433.4,-694.67 2431.29,-693.94 2429.16,-693.19"/>
<polygon fill="#7aab8a" stroke="#7aab8a" points="2430.48,-689.95 2419.89,-689.82 2428.09,-696.53 2430.48,-689.95"/>
<text text-anchor="start" x="2542.49" y="-718.32" font-family="Roboto, sans-serif" font-weight="bold" font-size="14.00">JA</text>
</g>
<!-- 600 -->
<g id="node45" class="node">
<title>600</title>
<path fill="#7aab8a" stroke="black" stroke-width="0" d="M3074.26,-681.25C3074.26,-681.25 2456.71,-681.25 2456.71,-681.25 2450.71,-681.25 2444.71,-675.25 2444.71,-669.25 2444.71,-669.25 2444.71,-647.97 2444.71,-647.97 2444.71,-641.97 2450.71,-635.97 2456.71,-635.97 2456.71,-635.97 3074.26,-635.97 3074.26,-635.97 3080.26,-635.97 3086.26,-641.97 3086.26,-647.97 3086.26,-647.97 3086.26,-669.25 3086.26,-669.25 3086.26,-675.25 3080.26,-681.25 3074.26,-681.25"/>
<text text-anchor="start" x="2459.11" y="-660.31" font-family="Roboto, sans-serif" font-weight="bold" font-size="14.00">600: </text>
<text text-anchor="start" x="2498.11" y="-660.31" font-family="Roboto, sans-serif" font-size="14.00">Liegt das Eingangsdatum der Abmeldung nach dem 5. WT des Monats, in dem die</text>
<text text-anchor="start" x="2459.11" y="-646.31" font-family="Roboto, sans-serif" font-size="14.00">Zuordnungserm&#228;chtigung endet?</text>
</g>
<!-- 590&#45;&gt;600 -->
<g id="edge49" class="edge">
<title>590-&gt;600</title>
<path fill="none" stroke="#7aab8a" d="M2790.54,-768.79C2785.76,-747.96 2778.47,-716.18 2772.98,-692.26"/>
<polygon fill="#7aab8a" stroke="#7aab8a" points="2776.44,-691.68 2770.79,-682.71 2769.61,-693.24 2776.44,-691.68"/>
<text text-anchor="start" x="2780.49" y="-718.32" font-family="Roboto, sans-serif" font-weight="bold" font-size="14.00">NEIN</text>
</g>
<!-- A28 -->
<g id="node46" class="node">
<title>A28</title>
<path fill="#cfb986" stroke="black" stroke-width="0" d="M2823.85,-568.6C2823.85,-568.6 2707.12,-568.6 2707.12,-568.6 2701.12,-568.6 2695.12,-562.6 2695.12,-556.6 2695.12,-556.6 2695.12,-519.08 2695.12,-519.08 2695.12,-513.08 2701.12,-507.08 2707.12,-507.08 2707.12,-507.08 2823.85,-507.08 2823.85,-507.08 2829.85,-507.08 2835.85,-513.08 2835.85,-519.08 2835.85,-519.08 2835.85,-556.6 2835.85,-556.6 2835.85,-562.6 2829.85,-568.6 2823.85,-568.6"/>
<text text-anchor="start" x="2707.36" y="-550.54" font-family="Roboto, sans-serif" font-weight="bold" font-size="14.00">A28</text>
<text text-anchor="start" x="2707.36" y="-538.44" font-family="Roboto, sans-serif" text-decoration="underline" font-size="12.00">Hinweis:</text>
<text text-anchor="start" x="2707.36" y="-526.44" font-family="Roboto, sans-serif" font-size="12.00">Cluster: Ablehnung </text>
<text text-anchor="start" x="2707.36" y="-514.44" font-family="Roboto, sans-serif" font-size="12.00">Frist&#252;berschreitung</text>
</g>
<!-- 600&#45;&gt;A28 -->
<g id="edge50" class="edge">
<title>600-&gt;A28</title>
<path fill="none" stroke="#7aab8a" d="M2765.49,-636.1C2765.49,-620.38 2765.49,-598.58 2765.49,-579.6"/>
<polygon fill="#7aab8a" stroke="#7aab8a" points="2768.99,-579.74 2765.49,-569.74 2761.99,-579.74 2768.99,-579.74"/>
<text text-anchor="start" x="2765.49" y="-591.55" font-family="Roboto, sans-serif" font-weight="bold" font-size="14.00">JA</text>
</g>
<!-- 600&#45;&gt;610 -->
<g id="edge51" class="edge">
<title>600-&gt;610</title>
<path fill="none" stroke="#7aab8a" d="M2644.68,-636.03C2519.62,-613.7 2326.16,-579.15 2206.75,-557.82"/>
<polygon fill="#7aab8a" stroke="#7aab8a" points="2207.38,-554.38 2196.92,-556.06 2206.15,-561.27 2207.38,-554.38"/>
<text text-anchor="start" x="2452.49" y="-591.55" font-family="Roboto, sans-serif" font-weight="bold" font-size="14.00">NEIN</text>
</g>
<!-- 610&#45;&gt;A99 -->
<g id="edge52" class="edge">
<title>610-&gt;A99</title>
<path fill="none" stroke="#7aab8a" d="M2085.8,-519.98C2067.46,-497.16 2038.49,-454.4 2038.49,-412.07 2038.49,-412.07 2038.49,-412.07 2038.49,-168.53 2038.49,-144.92 2038.49,-118.79 2038.49,-96.58"/>
<polygon fill="#7aab8a" stroke="#7aab8a" points="2041.99,-96.86 2038.49,-86.86 2034.99,-96.86 2041.99,-96.86"/>
<text text-anchor="start" x="2038.49" y="-280.62" font-family="Roboto, sans-serif" font-weight="bold" font-size="14.00">JA</text>
</g>
<!-- A29 -->
<g id="node48" class="node">
<title>A29</title>
<path fill="#cfb986" stroke="black" stroke-width="0" d="M2244.98,-441.83C2244.98,-441.83 2078,-441.83 2078,-441.83 2072,-441.83 2066,-435.83 2066,-429.83 2066,-429.83 2066,-392.31 2066,-392.31 2066,-386.31 2072,-380.31 2078,-380.31 2078,-380.31 2244.98,-380.31 2244.98,-380.31 2250.98,-380.31 2256.98,-386.31 2256.98,-392.31 2256.98,-392.31 2256.98,-429.83 2256.98,-429.83 2256.98,-435.83 2250.98,-441.83 2244.98,-441.83"/>
<text text-anchor="start" x="2078.24" y="-423.77" font-family="Roboto, sans-serif" font-weight="bold" font-size="14.00">A29</text>
<text text-anchor="start" x="2078.24" y="-411.67" font-family="Roboto, sans-serif" text-decoration="underline" font-size="12.00">Hinweis:</text>
<text text-anchor="start" x="2078.24" y="-399.67" font-family="Roboto, sans-serif" font-size="12.00">Cluster: Zustimmung</text>
<text text-anchor="start" x="2078.24" y="-387.67" font-family="Roboto, sans-serif" font-size="12.00">Lieferende wird zugestimmt</text>
</g>
<!-- 610&#45;&gt;A29 -->
<g id="edge53" class="edge">
<title>610-&gt;A29</title>
<path fill="none" stroke="#7aab8a" d="M2108.72,-520.01C2117.23,-502.59 2130.84,-474.75 2142.11,-451.71"/>
<polygon fill="#7aab8a" stroke="#7aab8a" points="2145.18,-453.39 2146.43,-442.87 2138.89,-450.32 2145.18,-453.39"/>
<text text-anchor="start" x="2130.49" y="-476.78" font-family="Roboto, sans-serif" font-weight="bold" font-size="14.00">NEIN</text>
</g>
</g>
</svg>
  </g>
</svg>
  </g>
</svg>
