<?xml version='1.0' encoding='ASCII' standalone='yes'?>
<svg xmlns="http://www.w3.org/2000/svg" xmlns:xlink="http://www.w3.org/1999/xlink" version="1.1" width="912.0px" viewBox="0 0 912.0 481.3333333333333" height="481.3333333333333px">
  <g>
    <svg version="1.1" width="912.0px" viewBox="0 0 912.0 481.3333333333333" height="481.3333333333333px">
  <polygon fill="#f3f1f6" points="0,0 912.0,0 912.0,481.3333333333333 0,481.3333333333333"/><g>
    <g transform="translate(259.71196845958883, 48.13333333333332) scale(1 1) translate(0, 0) scale(0.6777433586783066 0.6777433586783066) "><!-- note that I manually added the width and height attribute to the root node
  https://chatgpt.com/share/678e3028-70cc-800b-a296-782714735772
  -->
  <defs>
    <style>.cls-1{fill:#fff;}</style>
  </defs>
  <path class="cls-1" d="M122.44,531.2h-56.1c-11,0-19.9-9.12-19.46-20.11C57.47,243.89,278.15,29.78,547.91,29.78v56.02c0,10.98-8.69,19.89-19.66,20.39-225.51,10.31-405.8,197-405.8,425Z"/>
  <path class="cls-1" d="M273.78,531.2h-55.93c-11.23,0-20.09-9.48-19.43-20.69,10.74-183.44,163.39-329.39,349.48-329.39v56.26c0,10.71-8.27,19.62-18.96,20.35-142.35,9.77-255.17,128.69-255.17,273.46Z"/>
  <path class="cls-1" d="M425.77,531.2h-55.45c-11.65,0-20.6-10.17-19.33-21.75,10.87-99.03,95.03-176.34,196.92-176.34v57.01c0,10.05-7.28,18.75-17.23,20.16-59.22,8.4-104.91,59.42-104.91,120.92Z"/>
</g>
    <svg width="684pt" height="361pt" viewBox="0.00 0.00 683.98 361.05">
<g id="graph0" class="graph" transform="scale(1 1) rotate(0) translate(4 357.05)">
<title>D</title>
<text text-anchor="start" x="18.12" y="-332.95" font-family="Times,serif" font-weight="bold" font-size="18.00">GPKE</text>
<text text-anchor="start" x="18.12" y="-302.85" font-family="Times,serif" font-weight="bold" font-size="16.00">6.52.1: AD: Fall 2: LF-Zuordnung bei EEG-Marktlokation mit DV-Pflicht</text>
<!-- Start -->
<g id="node1" class="node">
<title>Start</title>
<path fill="#7a8da1" stroke="black" stroke-width="0" d="M492.14,-255.05C492.14,-255.05 361.34,-255.05 361.34,-255.05 355.34,-255.05 349.34,-249.05 349.34,-243.05 349.34,-243.05 349.34,-223.77 349.34,-223.77 349.34,-217.77 355.34,-211.77 361.34,-211.77 361.34,-211.77 492.14,-211.77 492.14,-211.77 498.14,-211.77 504.14,-217.77 504.14,-223.77 504.14,-223.77 504.14,-243.05 504.14,-243.05 504.14,-249.05 498.14,-255.05 492.14,-255.05"/>
<text text-anchor="start" x="398.62" y="-234.11" font-family="Times,serif" font-weight="bold" font-size="14.00">E_0604</text>
<text text-anchor="start" x="363.74" y="-222.01" font-family="Times,serif" font-weight="bold" text-decoration="underline" font-size="12.00">Pr&#252;fende Rolle:</text>
<text text-anchor="start" x="468.74" y="-222.01" font-family="Times,serif" font-weight="bold" font-size="12.00"> LF</text>
</g>
<!-- 10 -->
<g id="node2" class="node">
<title>10</title>
<path fill="#7aab8a" stroke="black" stroke-width="0" d="M630.89,-174.77C630.89,-174.77 222.59,-174.77 222.59,-174.77 216.59,-174.77 210.59,-168.77 210.59,-162.77 210.59,-162.77 210.59,-150.77 210.59,-150.77 210.59,-144.77 216.59,-138.77 222.59,-138.77 222.59,-138.77 630.89,-138.77 630.89,-138.77 636.89,-138.77 642.89,-144.77 642.89,-150.77 642.89,-150.77 642.89,-162.77 642.89,-162.77 642.89,-168.77 636.89,-174.77 630.89,-174.77"/>
<text text-anchor="start" x="224.99" y="-153.09" font-family="Times,serif" font-weight="bold" font-size="14.00">10: </text>
<text text-anchor="start" x="254.24" y="-153.09" font-family="Times,serif" font-size="14.00">Ist ein zuvor nicht spezifizierter Fehler aufgetreten?</text>
</g>
<!-- Start&#45;&gt;10 -->
<g id="edge1" class="edge">
<title>Start-&gt;10</title>
<path fill="none" stroke="black" d="M426.74,-212.01C426.74,-203.94 426.74,-194.53 426.74,-185.84"/>
<polygon fill="black" stroke="black" points="430.24,-186.13 426.74,-176.13 423.24,-186.13 430.24,-186.13"/>
</g>
<!-- A99 -->
<g id="node3" class="node">
<title>A99</title>
<path fill="#cfb986" stroke="black" stroke-width="0" d="M495.48,-85.52C495.48,-85.52 12,-85.52 12,-85.52 6,-85.52 0,-79.52 0,-73.52 0,-73.52 0,-12 0,-12 0,-6 6,0 12,0 12,0 495.48,0 495.48,0 501.48,0 507.48,-6 507.48,-12 507.48,-12 507.48,-73.52 507.48,-73.52 507.48,-79.52 501.48,-85.52 495.48,-85.52"/>
<text text-anchor="start" x="12.24" y="-67.46" font-family="Times,serif" font-weight="bold" font-size="14.00">A99</text>
<text text-anchor="start" x="12.24" y="-55.36" font-family="Times,serif" text-decoration="underline" font-size="12.00">Hinweis:</text>
<text text-anchor="start" x="12.24" y="-43.36" font-family="Times,serif" font-size="12.00">Cluster: Ablehnung</text>
<text text-anchor="start" x="12.24" y="-31.36" font-family="Times,serif" font-size="12.00">Sonstiges</text>
<text text-anchor="start" x="12.24" y="-19.36" font-family="Times,serif" font-size="12.00">Hinweis: Das identifizierte Problem ist in der Antwort zu beschreiben/benennen.</text>
<text text-anchor="start" x="12.24" y="-7.36" font-family="Times,serif" font-size="12.00">Nutzungsm&#246;glichkeit Ende: offen</text>
</g>
<!-- 10&#45;&gt;A99 -->
<g id="edge2" class="edge">
<title>10-&gt;A99</title>
<path fill="none" stroke="#7aab8a" d="M400.84,-139C381.36,-126.39 353.65,-108.45 327.52,-91.53"/>
<polygon fill="#7aab8a" stroke="#7aab8a" points="329.55,-88.67 319.25,-86.18 325.74,-94.55 329.55,-88.67"/>
<text text-anchor="start" x="370.74" y="-108.47" font-family="Times,serif" font-weight="bold" font-size="14.00">JA</text>
</g>
<!-- A01 -->
<g id="node4" class="node">
<title>A01</title>
<path fill="#cfb986" stroke="black" stroke-width="0" d="M663.98,-73.52C663.98,-73.52 537.5,-73.52 537.5,-73.52 531.5,-73.52 525.5,-67.52 525.5,-61.52 525.5,-61.52 525.5,-24 525.5,-24 525.5,-18 531.5,-12 537.5,-12 537.5,-12 663.98,-12 663.98,-12 669.98,-12 675.98,-18 675.98,-24 675.98,-24 675.98,-61.52 675.98,-61.52 675.98,-67.52 669.98,-73.52 663.98,-73.52"/>
<text text-anchor="start" x="537.74" y="-55.46" font-family="Times,serif" font-weight="bold" font-size="14.00">A01</text>
<text text-anchor="start" x="537.74" y="-43.36" font-family="Times,serif" text-decoration="underline" font-size="12.00">Hinweis:</text>
<text text-anchor="start" x="537.74" y="-31.36" font-family="Times,serif" font-size="12.00">Cluster: Zustimmung</text>
<text text-anchor="start" x="537.74" y="-19.36" font-family="Times,serif" font-size="12.00">Zustimmung</text>
</g>
<!-- 10&#45;&gt;A01 -->
<g id="edge3" class="edge">
<title>10-&gt;A01</title>
<path fill="none" stroke="#7aab8a" d="M452.79,-139C477.1,-123.35 514.18,-99.48 545.14,-79.55"/>
<polygon fill="#7aab8a" stroke="#7aab8a" points="546.74,-82.68 553.25,-74.33 542.95,-76.8 546.74,-82.68"/>
<text text-anchor="start" x="502.74" y="-108.47" font-family="Times,serif" font-weight="bold" font-size="14.00">NEIN</text>
</g>
</g>
</svg>
  </g>
</svg>
  </g>
</svg>
