<?xml version='1.0' encoding='ASCII' standalone='yes'?>
<svg xmlns="http://www.w3.org/2000/svg" xmlns:xlink="http://www.w3.org/1999/xlink" version="1.1" width="1398.6666666666667px" viewBox="0 0 1398.6666666666667 474.6666666666667" height="474.6666666666667px">
  <g>
    <svg version="1.1" width="1398.6666666666667px" viewBox="0 0 1398.6666666666667 474.6666666666667" height="474.6666666666667px">
  <rect fill="#e7e6e5" x="0" y="0" width="1398.6666666666667" height="474.6666666666667" rx="20" ry="20"/><g>
    <g transform="translate(505.76397258988084, 47.46666666666666) scale(1 1) translate(0, 0) scale(0.6683563315497982 0.6683563315497982) "><!-- note that I manually added the width and height attribute to the root node
  https://chatgpt.com/share/678e3028-70cc-800b-a296-782714735772
  -->
  <defs>
    <style>.cls-1{fill:#fff;}</style>
  </defs>
  <path class="cls-1" d="M122.44,531.2h-56.1c-11,0-19.9-9.12-19.46-20.11C57.47,243.89,278.15,29.78,547.91,29.78v56.02c0,10.98-8.69,19.89-19.66,20.39-225.51,10.31-405.8,197-405.8,425Z"/>
  <path class="cls-1" d="M273.78,531.2h-55.93c-11.23,0-20.09-9.48-19.43-20.69,10.74-183.44,163.39-329.39,349.48-329.39v56.26c0,10.71-8.27,19.62-18.96,20.35-142.35,9.77-255.17,128.69-255.17,273.46Z"/>
  <path class="cls-1" d="M425.77,531.2h-55.45c-11.65,0-20.6-10.17-19.33-21.75,10.87-99.03,95.03-176.34,196.92-176.34v57.01c0,10.05-7.28,18.75-17.23,20.16-59.22,8.4-104.91,59.42-104.91,120.92Z"/>
</g>
    <svg width="1049pt" height="356pt" viewBox="0.00 0.00 1049.25 355.81">
<g id="graph0" class="graph" transform="scale(1 1) rotate(0) translate(4 351.81)">
<title>D</title>
<text text-anchor="start" x="8" y="-327.71" font-family="Roboto, sans-serif" font-weight="bold" font-size="18.00">GPKE</text>
<text text-anchor="start" x="8" y="-299.61" font-family="Roboto, sans-serif" font-weight="bold" font-size="16.00">6.51.1: AD: Fall 1: LF-Zuordnung bei EEG-Marktlokation ohne DV-Pflicht bzw. KWKG-Marktlokation ohne DV-Pflicht</text>
<!-- Start -->
<g id="node1" class="node">
<title>Start</title>
<path fill="#8ba2d7" stroke="black" stroke-width="0" d="M689.34,-257.81C689.34,-257.81 556.29,-257.81 556.29,-257.81 550.29,-257.81 544.29,-251.81 544.29,-245.81 544.29,-245.81 544.29,-224.53 544.29,-224.53 544.29,-218.53 550.29,-212.53 556.29,-212.53 556.29,-212.53 689.34,-212.53 689.34,-212.53 695.34,-212.53 701.34,-218.53 701.34,-224.53 701.34,-224.53 701.34,-245.81 701.34,-245.81 701.34,-251.81 695.34,-257.81 689.34,-257.81"/>
<text text-anchor="start" x="558.69" y="-236.87" font-family="Roboto, sans-serif" font-weight="bold" font-size="14.00">E_0603</text>
<text text-anchor="start" x="558.69" y="-222.87" font-family="Roboto, sans-serif" font-size="14.00">Pr&#252;fende Rolle: </text>
<text text-anchor="start" x="668.19" y="-222.87" font-family="Roboto, sans-serif" font-weight="bold" font-size="14.00">LF</text>
</g>
<!-- 10 -->
<g id="node2" class="node">
<title>10</title>
<path fill="#c2cee9" stroke="black" stroke-width="0" d="M819.84,-175.53C819.84,-175.53 425.79,-175.53 425.79,-175.53 419.79,-175.53 413.79,-169.53 413.79,-163.53 413.79,-163.53 413.79,-151.53 413.79,-151.53 413.79,-145.53 419.79,-139.53 425.79,-139.53 425.79,-139.53 819.84,-139.53 819.84,-139.53 825.84,-139.53 831.84,-145.53 831.84,-151.53 831.84,-151.53 831.84,-163.53 831.84,-163.53 831.84,-169.53 825.84,-175.53 819.84,-175.53"/>
<text text-anchor="start" x="428.19" y="-153.85" font-family="Roboto, sans-serif" font-weight="bold" font-size="14.00">10: </text>
<text text-anchor="start" x="457.44" y="-153.85" font-family="Roboto, sans-serif" font-size="14.00">Ist ein zuvor nicht spezifizierter Fehler aufgetreten?</text>
</g>
<!-- Start&#45;&gt;10 -->
<g id="edge1" class="edge">
<title>Start-&gt;10</title>
<path fill="none" stroke="#88a0d6" d="M622.81,-212.7C622.81,-204.62 622.81,-195.32 622.81,-186.72"/>
<polygon fill="#88a0d6" stroke="#88a0d6" points="626.31,-186.76 622.81,-176.76 619.31,-186.76 626.31,-186.76"/>
</g>
<!-- A99 -->
<g id="node3" class="node">
<title>A99</title>
<path fill="#c4cac1" stroke="black" stroke-width="0" d="M704.09,-86.28C704.09,-86.28 143.54,-86.28 143.54,-86.28 137.54,-86.28 131.54,-80.28 131.54,-74.28 131.54,-74.28 131.54,-12 131.54,-12 131.54,-6 137.54,0 143.54,0 143.54,0 704.09,0 704.09,0 710.09,0 716.09,-6 716.09,-12 716.09,-12 716.09,-74.28 716.09,-74.28 716.09,-80.28 710.09,-86.28 704.09,-86.28"/>
<text text-anchor="start" x="145.94" y="-64.34" font-family="Roboto, sans-serif" font-size="14.00">Cluster: Ablehnung</text>
<text text-anchor="start" x="145.94" y="-47.09" font-family="Roboto, sans-serif" font-size="14.00">Sonstiges</text>
<text text-anchor="start" x="145.94" y="-29.84" font-family="Roboto, sans-serif" font-size="14.00">Hinweis: Das identifizierte Problem ist in der Antwort zu beschreiben/benennen.</text>
<text text-anchor="start" x="145.94" y="-12.59" font-family="Roboto, sans-serif" font-size="14.00">Nutzungsm&#246;glichkeit Ende: offen</text>
</g>
<!-- 10&#45;&gt;A99 -->
<g id="edge2" class="edge">
<title>10-&gt;A99</title>
<path fill="none" stroke="#88a0d6" d="M593.02,-139.7C570.42,-126.94 538.18,-108.73 507.89,-91.62"/>
<polygon fill="#88a0d6" stroke="#88a0d6" points="509.88,-88.73 499.46,-86.86 506.44,-94.83 509.88,-88.73"/>
<text text-anchor="start" x="557.81" y="-109.23" font-family="Roboto, sans-serif" font-weight="bold" font-size="14.00">JA</text>
</g>
<!-- A01 -->
<g id="node4" class="node">
<title>A01</title>
<path fill="#c4cac1" stroke="black" stroke-width="0" d="M897.71,-69.03C897.71,-69.03 745.91,-69.03 745.91,-69.03 739.91,-69.03 733.91,-63.03 733.91,-57.03 733.91,-57.03 733.91,-29.25 733.91,-29.25 733.91,-23.25 739.91,-17.25 745.91,-17.25 745.91,-17.25 897.71,-17.25 897.71,-17.25 903.71,-17.25 909.71,-23.25 909.71,-29.25 909.71,-29.25 909.71,-57.03 909.71,-57.03 909.71,-63.03 903.71,-69.03 897.71,-69.03"/>
<text text-anchor="start" x="748.31" y="-47.09" font-family="Roboto, sans-serif" font-size="14.00">Cluster: Zustimmung</text>
<text text-anchor="start" x="748.31" y="-29.84" font-family="Roboto, sans-serif" font-size="14.00">Zustimmung</text>
</g>
<!-- 10&#45;&gt;A01 -->
<g id="edge3" class="edge">
<title>10-&gt;A01</title>
<path fill="none" stroke="#88a0d6" d="M652.6,-139.7C683.06,-122.5 731.03,-95.41 768.13,-74.46"/>
<polygon fill="#88a0d6" stroke="#88a0d6" points="769.49,-77.71 776.47,-69.75 766.05,-71.62 769.49,-77.71"/>
<text text-anchor="start" x="709.81" y="-109.23" font-family="Roboto, sans-serif" font-weight="bold" font-size="14.00">NEIN</text>
</g>
</g>
</svg>
  </g>
</svg>
  </g>
</svg>
