<?xml version='1.0' encoding='ASCII' standalone='yes'?>
<svg xmlns="http://www.w3.org/2000/svg" xmlns:xlink="http://www.w3.org/1999/xlink" version="1.1" width="1561.3333333333333px" viewBox="0 0 1561.3333333333333 994.6666666666666" height="994.6666666666666px">
  <g>
    <svg version="1.1" width="1561.3333333333333px" viewBox="0 0 1561.3333333333333 994.6666666666666" height="994.6666666666666px">
  <rect fill="#e7e6e5" x="0" y="0" width="1561.3333333333333" height="994.6666666666666" rx="20" ry="20"/><g>
    <g transform="translate(375.040983760443, 99.46666666666664) scale(1 1) translate(0, 0) scale(1.4005444475734536 1.4005444475734536) "><!-- note that I manually added the width and height attribute to the root node
  https://chatgpt.com/share/678e3028-70cc-800b-a296-782714735772
  -->
  <defs>
    <style>.cls-1{fill:#fff;}</style>
  </defs>
  <path class="cls-1" d="M122.44,531.2h-56.1c-11,0-19.9-9.12-19.46-20.11C57.47,243.89,278.15,29.78,547.91,29.78v56.02c0,10.98-8.69,19.89-19.66,20.39-225.51,10.31-405.8,197-405.8,425Z"/>
  <path class="cls-1" d="M273.78,531.2h-55.93c-11.23,0-20.09-9.48-19.43-20.69,10.74-183.44,163.39-329.39,349.48-329.39v56.26c0,10.71-8.27,19.62-18.96,20.35-142.35,9.77-255.17,128.69-255.17,273.46Z"/>
  <path class="cls-1" d="M425.77,531.2h-55.45c-11.65,0-20.6-10.17-19.33-21.75,10.87-99.03,95.03-176.34,196.92-176.34v57.01c0,10.05-7.28,18.75-17.23,20.16-59.22,8.4-104.91,59.42-104.91,120.92Z"/>
</g>
    <svg width="1171pt" height="746pt" viewBox="0.00 0.00 1170.55 745.93">
<g id="graph0" class="graph" transform="scale(1 1) rotate(0) translate(4 741.93)">
<title>D</title>
<text text-anchor="start" x="368.28" y="-717.83" font-family="Roboto, sans-serif" font-weight="bold" font-size="18.00">GPKE</text>
<text text-anchor="start" x="368.28" y="-689.73" font-family="Roboto, sans-serif" font-weight="bold" font-size="16.00">6.8.1: AD: Beginn der Ersatz-/Grundversorgung</text>
<!-- Start -->
<g id="node1" class="node">
<title>Start</title>
<path fill="#8ba2d7" stroke="black" stroke-width="0" d="M380.17,-647.93C380.17,-647.93 247.12,-647.93 247.12,-647.93 241.12,-647.93 235.12,-641.93 235.12,-635.93 235.12,-635.93 235.12,-614.65 235.12,-614.65 235.12,-608.65 241.12,-602.65 247.12,-602.65 247.12,-602.65 380.17,-602.65 380.17,-602.65 386.17,-602.65 392.17,-608.65 392.17,-614.65 392.17,-614.65 392.17,-635.93 392.17,-635.93 392.17,-641.93 386.17,-647.93 380.17,-647.93"/>
<text text-anchor="start" x="249.52" y="-626.99" font-family="Roboto, sans-serif" font-weight="bold" font-size="14.00">E_0615</text>
<text text-anchor="start" x="249.52" y="-612.99" font-family="Roboto, sans-serif" font-size="14.00">Pr&#252;fende Rolle: </text>
<text text-anchor="start" x="359.02" y="-612.99" font-family="Roboto, sans-serif" font-weight="bold" font-size="14.00">LF</text>
</g>
<!-- 20 -->
<g id="node2" class="node">
<title>20</title>
<path fill="#c2cee9" stroke="black" stroke-width="0" d="M615.3,-565.65C615.3,-565.65 12,-565.65 12,-565.65 6,-565.65 0,-559.65 0,-553.65 0,-553.65 0,-518.37 0,-518.37 0,-512.37 6,-506.37 12,-506.37 12,-506.37 615.3,-506.37 615.3,-506.37 621.3,-506.37 627.3,-512.37 627.3,-518.37 627.3,-518.37 627.3,-553.65 627.3,-553.65 627.3,-559.65 621.3,-565.65 615.3,-565.65"/>
<text text-anchor="start" x="14.4" y="-544.71" font-family="Roboto, sans-serif" font-weight="bold" font-size="14.00">20: </text>
<text text-anchor="start" x="43.65" y="-544.71" font-family="Roboto, sans-serif" font-size="14.00">Befindet sich die Marktlokation im Grundversorgungsgebiet des Empf&#228;ngers oder</text>
<text text-anchor="start" x="14.4" y="-530.71" font-family="Roboto, sans-serif" font-size="14.00">besteht f&#252;r die Marktlokation eine vertragliche Vereinbarung zur</text>
<text text-anchor="start" x="14.4" y="-516.71" font-family="Roboto, sans-serif" font-size="14.00">Ersatzbelieferung?</text>
</g>
<!-- Start&#45;&gt;20 -->
<g id="edge1" class="edge">
<title>Start-&gt;20</title>
<path fill="none" stroke="#88a0d6" d="M313.65,-602.72C313.65,-594.92 313.65,-585.86 313.65,-576.99"/>
<polygon fill="#88a0d6" stroke="#88a0d6" points="317.15,-577.1 313.65,-567.1 310.15,-577.1 317.15,-577.1"/>
</g>
<!-- A02 -->
<g id="node3" class="node">
<title>A02</title>
<path fill="#c4cac1" stroke="black" stroke-width="0" d="M194.67,-453.12C194.67,-453.12 52.62,-453.12 52.62,-453.12 46.62,-453.12 40.62,-447.12 40.62,-441.12 40.62,-441.12 40.62,-413.34 40.62,-413.34 40.62,-407.34 46.62,-401.34 52.62,-401.34 52.62,-401.34 194.67,-401.34 194.67,-401.34 200.67,-401.34 206.67,-407.34 206.67,-413.34 206.67,-413.34 206.67,-441.12 206.67,-441.12 206.67,-447.12 200.67,-453.12 194.67,-453.12"/>
<text text-anchor="start" x="55.02" y="-431.18" font-family="Roboto, sans-serif" font-size="14.00">Cluster: Ablehnung</text>
<text text-anchor="start" x="55.02" y="-413.93" font-family="Roboto, sans-serif" font-size="14.00">Keine Zust&#228;ndigkeit</text>
</g>
<!-- 20&#45;&gt;A02 -->
<g id="edge2" class="edge">
<title>20-&gt;A02</title>
<path fill="none" stroke="#88a0d6" d="M262.73,-506.39C236.51,-491.66 204.54,-473.69 177.86,-458.7"/>
<polygon fill="#88a0d6" stroke="#88a0d6" points="179.67,-455.7 169.24,-453.85 176.24,-461.8 179.67,-455.7"/>
<text text-anchor="start" x="229.65" y="-476.07" font-family="Roboto, sans-serif" font-weight="bold" font-size="14.00">NEIN</text>
</g>
<!-- 40 -->
<g id="node4" class="node">
<title>40</title>
<path fill="#c2cee9" stroke="black" stroke-width="0" d="M820.55,-449.87C820.55,-449.87 236.75,-449.87 236.75,-449.87 230.75,-449.87 224.75,-443.87 224.75,-437.87 224.75,-437.87 224.75,-416.59 224.75,-416.59 224.75,-410.59 230.75,-404.59 236.75,-404.59 236.75,-404.59 820.55,-404.59 820.55,-404.59 826.55,-404.59 832.55,-410.59 832.55,-416.59 832.55,-416.59 832.55,-437.87 832.55,-437.87 832.55,-443.87 826.55,-449.87 820.55,-449.87"/>
<text text-anchor="start" x="239.15" y="-428.93" font-family="Roboto, sans-serif" font-weight="bold" font-size="14.00">40: </text>
<text text-anchor="start" x="268.4" y="-428.93" font-family="Roboto, sans-serif" font-size="14.00">Wurde der angefragte Gesch&#228;ftsvorfall dem Anfragenden bereits zum gleichen</text>
<text text-anchor="start" x="239.15" y="-414.93" font-family="Roboto, sans-serif" font-size="14.00">Zeitpunkt mit einer fr&#252;heren Meldung best&#228;tigt?</text>
</g>
<!-- 20&#45;&gt;40 -->
<g id="edge3" class="edge">
<title>20-&gt;40</title>
<path fill="none" stroke="#88a0d6" d="M371.27,-506.39C403.59,-490.34 443.65,-470.45 475.26,-454.75"/>
<polygon fill="#88a0d6" stroke="#88a0d6" points="476.45,-458.06 483.85,-450.48 473.34,-451.79 476.45,-458.06"/>
<text text-anchor="start" x="439.65" y="-476.07" font-family="Roboto, sans-serif" font-weight="bold" font-size="14.00">JA</text>
</g>
<!-- A04 -->
<g id="node5" class="node">
<title>A04</title>
<path fill="#c4cac1" stroke="black" stroke-width="0" d="M466.8,-348.09C466.8,-348.09 328.5,-348.09 328.5,-348.09 322.5,-348.09 316.5,-342.09 316.5,-336.09 316.5,-336.09 316.5,-308.31 316.5,-308.31 316.5,-302.31 322.5,-296.31 328.5,-296.31 328.5,-296.31 466.8,-296.31 466.8,-296.31 472.8,-296.31 478.8,-302.31 478.8,-308.31 478.8,-308.31 478.8,-336.09 478.8,-336.09 478.8,-342.09 472.8,-348.09 466.8,-348.09"/>
<text text-anchor="start" x="330.9" y="-326.15" font-family="Roboto, sans-serif" font-size="14.00">Cluster: Ablehnung</text>
<text text-anchor="start" x="330.9" y="-308.9" font-family="Roboto, sans-serif" font-size="14.00">Doppelmeldung</text>
</g>
<!-- 40&#45;&gt;A04 -->
<g id="edge4" class="edge">
<title>40-&gt;A04</title>
<path fill="none" stroke="#88a0d6" d="M501.19,-404.63C482.89,-390.24 458.53,-371.08 438.03,-354.96"/>
<polygon fill="#88a0d6" stroke="#88a0d6" points="440.43,-352.4 430.41,-348.97 436.11,-357.9 440.43,-352.4"/>
<text text-anchor="start" x="470.65" y="-371.04" font-family="Roboto, sans-serif" font-weight="bold" font-size="14.00">JA</text>
</g>
<!-- 50 -->
<g id="node6" class="node">
<title>50</title>
<path fill="#c2cee9" stroke="black" stroke-width="0" d="M1000.05,-344.84C1000.05,-344.84 509.25,-344.84 509.25,-344.84 503.25,-344.84 497.25,-338.84 497.25,-332.84 497.25,-332.84 497.25,-311.56 497.25,-311.56 497.25,-305.56 503.25,-299.56 509.25,-299.56 509.25,-299.56 1000.05,-299.56 1000.05,-299.56 1006.05,-299.56 1012.05,-305.56 1012.05,-311.56 1012.05,-311.56 1012.05,-332.84 1012.05,-332.84 1012.05,-338.84 1006.05,-344.84 1000.05,-344.84"/>
<text text-anchor="start" x="511.65" y="-323.9" font-family="Roboto, sans-serif" font-weight="bold" font-size="14.00">50: </text>
<text text-anchor="start" x="540.9" y="-323.9" font-family="Roboto, sans-serif" font-size="14.00">Besteht eine gesetzliche oder vertragliche Pflicht zur Grund- oder</text>
<text text-anchor="start" x="511.65" y="-309.9" font-family="Roboto, sans-serif" font-size="14.00">Ersatzversorgung bzw. zur Ersatzbelieferung?</text>
</g>
<!-- 40&#45;&gt;50 -->
<g id="edge5" class="edge">
<title>40-&gt;50</title>
<path fill="none" stroke="#88a0d6" d="M576.03,-404.63C611.28,-388.56 659.58,-366.54 697.07,-349.45"/>
<polygon fill="#88a0d6" stroke="#88a0d6" points="698.31,-352.73 705.96,-345.4 695.41,-346.36 698.31,-352.73"/>
<text text-anchor="start" x="654.65" y="-371.04" font-family="Roboto, sans-serif" font-weight="bold" font-size="14.00">NEIN</text>
</g>
<!-- A05 -->
<g id="node7" class="node">
<title>A05</title>
<path fill="#c4cac1" stroke="black" stroke-width="0" d="M661.42,-243.06C661.42,-243.06 103.88,-243.06 103.88,-243.06 97.88,-243.06 91.88,-237.06 91.88,-231.06 91.88,-231.06 91.88,-151.53 91.88,-151.53 91.88,-145.53 97.88,-139.53 103.88,-139.53 103.88,-139.53 661.42,-139.53 661.42,-139.53 667.42,-139.53 673.42,-145.53 673.42,-151.53 673.42,-151.53 673.42,-231.06 673.42,-231.06 673.42,-237.06 667.42,-243.06 661.42,-243.06"/>
<text text-anchor="start" x="106.27" y="-221.12" font-family="Roboto, sans-serif" font-size="14.00">Cluster: Ablehnung</text>
<text text-anchor="start" x="106.27" y="-203.87" font-family="Roboto, sans-serif" font-size="14.00">kein Grund-/Ersatzversorgungsfall bzw. Ersatzbelieferung</text>
<text text-anchor="start" x="106.27" y="-186.62" font-family="Roboto, sans-serif" font-size="14.00">Der Absender lehnt die weitere Bearbeitung der Transaktion ab, da es sich um</text>
<text text-anchor="start" x="106.27" y="-169.37" font-family="Roboto, sans-serif" font-size="14.00">keinen Ersatzversorgungsfall handelt und daher die Fristen und Prozessschritte</text>
<text text-anchor="start" x="106.27" y="-152.12" font-family="Roboto, sans-serif" font-size="14.00">der normalen Regelprozesse eingehalten werden m&#252;ssen</text>
</g>
<!-- 50&#45;&gt;A05 -->
<g id="edge6" class="edge">
<title>50-&gt;A05</title>
<path fill="none" stroke="#88a0d6" d="M692.39,-299.62C650.6,-285.14 593.56,-265.38 539.82,-246.76"/>
<polygon fill="#88a0d6" stroke="#88a0d6" points="541.14,-243.51 530.55,-243.54 538.85,-250.13 541.14,-243.51"/>
<text text-anchor="start" x="623.65" y="-266.01" font-family="Roboto, sans-serif" font-weight="bold" font-size="14.00">NEIN</text>
</g>
<!-- 90 -->
<g id="node8" class="node">
<title>90</title>
<path fill="#c2cee9" stroke="black" stroke-width="0" d="M1097.67,-209.3C1097.67,-209.3 703.62,-209.3 703.62,-209.3 697.62,-209.3 691.62,-203.3 691.62,-197.3 691.62,-197.3 691.62,-185.3 691.62,-185.3 691.62,-179.3 697.62,-173.3 703.62,-173.3 703.62,-173.3 1097.67,-173.3 1097.67,-173.3 1103.67,-173.3 1109.67,-179.3 1109.67,-185.3 1109.67,-185.3 1109.67,-197.3 1109.67,-197.3 1109.67,-203.3 1103.67,-209.3 1097.67,-209.3"/>
<text text-anchor="start" x="706.02" y="-187.62" font-family="Roboto, sans-serif" font-weight="bold" font-size="14.00">90: </text>
<text text-anchor="start" x="735.27" y="-187.62" font-family="Roboto, sans-serif" font-size="14.00">Ist ein zuvor nicht spezifizierter Fehler aufgetreten?</text>
</g>
<!-- 50&#45;&gt;90 -->
<g id="edge7" class="edge">
<title>50-&gt;90</title>
<path fill="none" stroke="#88a0d6" d="M779.09,-299.62C805.05,-276.7 846.02,-240.53 873.11,-216.61"/>
<polygon fill="#88a0d6" stroke="#88a0d6" points="875.41,-219.25 880.59,-210.01 870.77,-214.01 875.41,-219.25"/>
<text text-anchor="start" x="818.65" y="-266.01" font-family="Roboto, sans-serif" font-weight="bold" font-size="14.00">JA</text>
</g>
<!-- A99 -->
<g id="node9" class="node">
<title>A99</title>
<path fill="#c4cac1" stroke="black" stroke-width="0" d="M956.92,-86.28C956.92,-86.28 396.38,-86.28 396.38,-86.28 390.38,-86.28 384.38,-80.28 384.38,-74.28 384.38,-74.28 384.38,-12 384.38,-12 384.38,-6 390.38,0 396.38,0 396.38,0 956.92,0 956.92,0 962.92,0 968.92,-6 968.92,-12 968.92,-12 968.92,-74.28 968.92,-74.28 968.92,-80.28 962.92,-86.28 956.92,-86.28"/>
<text text-anchor="start" x="398.77" y="-64.34" font-family="Roboto, sans-serif" font-size="14.00">Cluster: Ablehnung</text>
<text text-anchor="start" x="398.77" y="-47.09" font-family="Roboto, sans-serif" font-size="14.00">Sonstiges</text>
<text text-anchor="start" x="398.77" y="-29.84" font-family="Roboto, sans-serif" font-size="14.00">Hinweis: Das identifizierte Problem ist in der Antwort zu beschreiben/benennen.</text>
<text text-anchor="start" x="398.77" y="-12.59" font-family="Roboto, sans-serif" font-size="14.00">Nutzungsm&#246;glichkeit Ende: 01.04.2026 00:00 Uhr</text>
</g>
<!-- 90&#45;&gt;A99 -->
<g id="edge8" class="edge">
<title>90-&gt;A99</title>
<path fill="none" stroke="#88a0d6" d="M874.95,-173.53C844.83,-153.87 793.56,-120.42 750.7,-92.45"/>
<polygon fill="#88a0d6" stroke="#88a0d6" points="752.69,-89.57 742.4,-87.04 748.86,-95.43 752.69,-89.57"/>
<text text-anchor="start" x="788.65" y="-109.23" font-family="Roboto, sans-serif" font-weight="bold" font-size="14.00">JA</text>
</g>
<!-- A09 -->
<g id="node10" class="node">
<title>A09</title>
<path fill="#c4cac1" stroke="black" stroke-width="0" d="M1150.55,-61.14C1150.55,-61.14 998.75,-61.14 998.75,-61.14 992.75,-61.14 986.75,-55.14 986.75,-49.14 986.75,-49.14 986.75,-37.14 986.75,-37.14 986.75,-31.14 992.75,-25.14 998.75,-25.14 998.75,-25.14 1150.55,-25.14 1150.55,-25.14 1156.55,-25.14 1162.55,-31.14 1162.55,-37.14 1162.55,-37.14 1162.55,-49.14 1162.55,-49.14 1162.55,-55.14 1156.55,-61.14 1150.55,-61.14"/>
<text text-anchor="start" x="1001.15" y="-38.47" font-family="Roboto, sans-serif" font-size="14.00">Cluster: Zustimmung</text>
</g>
<!-- 90&#45;&gt;A09 -->
<g id="edge9" class="edge">
<title>90-&gt;A09</title>
<path fill="none" stroke="#88a0d6" d="M920.61,-173.53C951.47,-147.61 1010.88,-97.7 1046.22,-68.02"/>
<polygon fill="#88a0d6" stroke="#88a0d6" points="1048.09,-71.02 1053.5,-61.91 1043.59,-65.66 1048.09,-71.02"/>
<text text-anchor="start" x="997.65" y="-109.23" font-family="Roboto, sans-serif" font-weight="bold" font-size="14.00">NEIN</text>
</g>
</g>
</svg>
  </g>
</svg>
  </g>
</svg>
