<?xml version='1.0' encoding='ASCII' standalone='yes'?>
<svg xmlns="http://www.w3.org/2000/svg" xmlns:xlink="http://www.w3.org/1999/xlink" version="1.1" width="1920.0px" viewBox="0 0 1920.0 442.6666666666667" height="442.6666666666667px">
  <g>
    <svg version="1.1" width="1920.0px" viewBox="0 0 1920.0 442.6666666666667" height="442.6666666666667px">
  <polygon fill="#f3f1f6" points="0,0 1920.0,0 1920.0,442.6666666666667 0,442.6666666666667"/><g>
    <g transform="translate(783.0646752835312, 44.26666666666666) scale(1 1) translate(0, 0) scale(2.0020112826451366 2.0020112826451366) "><sodipodi:namedview xmlns:sodipodi="http://sodipodi.sourceforge.net/DTD/sodipodi-0.dtd" xmlns:inkscape="http://www.inkscape.org/namespaces/inkscape" id="namedview7" pagecolor="#ffffff" bordercolor="#999999" borderopacity="1" inkscape:pageshadow="0" inkscape:pageopacity="0" inkscape:pagecheckerboard="0" inkscape:document-units="mm" showgrid="false" fit-margin-top="0" fit-margin-left="0" fit-margin-right="0" fit-margin-bottom="0" inkscape:zoom="0.64052329" inkscape:cx="130.36216" inkscape:cy="412.163" inkscape:window-width="1512" inkscape:window-height="916" inkscape:window-x="3840" inkscape:window-y="136" inkscape:window-maximized="0" inkscape:current-layer="layer1"/>
  <defs id="defs2">
    <clipPath clipPathUnits="userSpaceOnUse" id="clipPath23">
      <path d="M 0,568.156 H 579.236 V 0 H 0 Z" id="path21"/>
    </clipPath>
  </defs>
  <g xmlns:inkscape="http://www.inkscape.org/namespaces/inkscape" inkscape:label="Layer 1" inkscape:groupmode="layer" id="layer1" transform="translate(-16.541937,-55.305267)">
    <g id="g19" clip-path="url(#clipPath23)" transform="matrix(0.35277777,0,0,-0.35277777,0.01017023,243.73675)" style="opacity:0.2">
      <g id="g25" transform="translate(122.444,32.7195)">
        <path d="m 0,0 h -56.104 c -11,0 -19.898,9.123 -19.463,20.115 10.594,267.191 231.277,481.302 501.029,481.302 v -56.02 c 0,-10.98 -8.688,-19.892 -19.658,-20.393 C 180.29,414.697 0,228.005 0,0" style="fill:#6ead83;fill-opacity:0.5;fill-rule:nonzero;stroke:none" id="path27"/>
      </g>
      <g id="g29" transform="translate(273.7828,32.7195)">
        <path d="m 0,0 h -55.926 c -11.228,0 -20.091,9.482 -19.435,20.69 10.744,183.439 163.389,329.388 349.485,329.388 v -56.263 c 0,-10.709 -8.273,-19.617 -18.957,-20.35 C 112.819,263.696 0,144.774 0,0" style="fill:#6ead83;fill-opacity:0.5;fill-rule:nonzero;stroke:none" id="path31"/>
      </g>
      <g id="g33" transform="translate(425.7667,32.7195)">
        <path d="m 0,0 h -55.445 c -11.653,0 -20.604,10.17 -19.334,21.753 10.866,99.032 95.031,176.341 196.919,176.341 v -57.011 c 0,-10.046 -7.283,-18.755 -17.229,-20.165 C 45.688,112.522 0,61.497 0,0" style="fill:#6ead83;fill-opacity:0.5;fill-rule:nonzero;stroke:none" id="path35"/>
      </g>
    </g>
  </g>
</g>
    <svg width="1440pt" height="332pt" viewBox="0.00 0.00 1440.00 332.00">
<g id="graph0" class="graph" transform="scale(0.91954 0.91954) rotate(0) translate(4 357.05)">
<title>D</title>
<text text-anchor="start" x="8" y="-332.95" font-family="Times,serif" font-weight="bold" font-size="18.00">GPKE</text>
<text text-anchor="start" x="8" y="-302.85" font-family="Times,serif" font-weight="bold" font-size="16.00">6.53.1: AD: Fall 3: LF-Zuordnung bei KWKG-Marktlokation mit DV-Pflicht bzw. Nicht-EEG-/Nicht-KWKG-Marktlokation und Marktlokation wird nicht-tranchiert abgebildet</text>
<!-- Start -->
<g id="node1" class="node">
<title>Start</title>
<path fill="#7a8da1" stroke="black" stroke-width="0" d="M933.15,-255.05C933.15,-255.05 802.35,-255.05 802.35,-255.05 796.35,-255.05 790.35,-249.05 790.35,-243.05 790.35,-243.05 790.35,-223.77 790.35,-223.77 790.35,-217.77 796.35,-211.77 802.35,-211.77 802.35,-211.77 933.15,-211.77 933.15,-211.77 939.15,-211.77 945.15,-217.77 945.15,-223.77 945.15,-223.77 945.15,-243.05 945.15,-243.05 945.15,-249.05 939.15,-255.05 933.15,-255.05"/>
<text text-anchor="start" x="839.62" y="-234.11" font-family="Times,serif" font-weight="bold" font-size="14.00">E_0605</text>
<text text-anchor="start" x="804.75" y="-222.01" font-family="Times,serif" font-weight="bold" text-decoration="underline" font-size="12.00">Pr&#252;fende Rolle:</text>
<text text-anchor="start" x="909.75" y="-222.01" font-family="Times,serif" font-weight="bold" font-size="12.00"> LF</text>
</g>
<!-- 10 -->
<g id="node2" class="node">
<title>10</title>
<path fill="#7aab8a" stroke="black" stroke-width="0" d="M1071.9,-174.77C1071.9,-174.77 663.6,-174.77 663.6,-174.77 657.6,-174.77 651.6,-168.77 651.6,-162.77 651.6,-162.77 651.6,-150.77 651.6,-150.77 651.6,-144.77 657.6,-138.77 663.6,-138.77 663.6,-138.77 1071.9,-138.77 1071.9,-138.77 1077.9,-138.77 1083.9,-144.77 1083.9,-150.77 1083.9,-150.77 1083.9,-162.77 1083.9,-162.77 1083.9,-168.77 1077.9,-174.77 1071.9,-174.77"/>
<text text-anchor="start" x="666" y="-153.09" font-family="Times,serif" font-weight="bold" font-size="14.00">10: </text>
<text text-anchor="start" x="695.25" y="-153.09" font-family="Times,serif" font-size="14.00">Ist ein zuvor nicht spezifizierter Fehler aufgetreten?</text>
</g>
<!-- Start&#45;&gt;10 -->
<g id="edge1" class="edge">
<title>Start-&gt;10</title>
<path fill="none" stroke="black" d="M867.75,-212.01C867.75,-203.94 867.75,-194.53 867.75,-185.84"/>
<polygon fill="black" stroke="black" points="871.25,-186.13 867.75,-176.13 864.25,-186.13 871.25,-186.13"/>
</g>
<!-- A99 -->
<g id="node3" class="node">
<title>A99</title>
<path fill="#cfb986" stroke="black" stroke-width="0" d="M936.49,-85.52C936.49,-85.52 453.01,-85.52 453.01,-85.52 447.01,-85.52 441.01,-79.52 441.01,-73.52 441.01,-73.52 441.01,-12 441.01,-12 441.01,-6 447.01,0 453.01,0 453.01,0 936.49,0 936.49,0 942.49,0 948.49,-6 948.49,-12 948.49,-12 948.49,-73.52 948.49,-73.52 948.49,-79.52 942.49,-85.52 936.49,-85.52"/>
<text text-anchor="start" x="453.25" y="-67.46" font-family="Times,serif" font-weight="bold" font-size="14.00">A99</text>
<text text-anchor="start" x="453.25" y="-55.36" font-family="Times,serif" text-decoration="underline" font-size="12.00">Hinweis:</text>
<text text-anchor="start" x="453.25" y="-43.36" font-family="Times,serif" font-size="12.00">Cluster: Ablehnung</text>
<text text-anchor="start" x="453.25" y="-31.36" font-family="Times,serif" font-size="12.00">Sonstiges</text>
<text text-anchor="start" x="453.25" y="-19.36" font-family="Times,serif" font-size="12.00">Hinweis: Das identifizierte Problem ist in der Antwort zu beschreiben/benennen.</text>
<text text-anchor="start" x="453.25" y="-7.36" font-family="Times,serif" font-size="12.00">Nutzungsm&#246;glichkeit Ende: offen</text>
</g>
<!-- 10&#45;&gt;A99 -->
<g id="edge2" class="edge">
<title>10-&gt;A99</title>
<path fill="none" stroke="#7aab8a" d="M841.85,-139C822.37,-126.39 794.66,-108.45 768.53,-91.53"/>
<polygon fill="#7aab8a" stroke="#7aab8a" points="770.56,-88.67 760.26,-86.18 766.75,-94.55 770.56,-88.67"/>
<text text-anchor="start" x="811.75" y="-108.47" font-family="Times,serif" font-weight="bold" font-size="14.00">JA</text>
</g>
<!-- A01 -->
<g id="node4" class="node">
<title>A01</title>
<path fill="#cfb986" stroke="black" stroke-width="0" d="M1104.99,-73.52C1104.99,-73.52 978.51,-73.52 978.51,-73.52 972.51,-73.52 966.51,-67.52 966.51,-61.52 966.51,-61.52 966.51,-24 966.51,-24 966.51,-18 972.51,-12 978.51,-12 978.51,-12 1104.99,-12 1104.99,-12 1110.99,-12 1116.99,-18 1116.99,-24 1116.99,-24 1116.99,-61.52 1116.99,-61.52 1116.99,-67.52 1110.99,-73.52 1104.99,-73.52"/>
<text text-anchor="start" x="978.75" y="-55.46" font-family="Times,serif" font-weight="bold" font-size="14.00">A01</text>
<text text-anchor="start" x="978.75" y="-43.36" font-family="Times,serif" text-decoration="underline" font-size="12.00">Hinweis:</text>
<text text-anchor="start" x="978.75" y="-31.36" font-family="Times,serif" font-size="12.00">Cluster: Zustimmung</text>
<text text-anchor="start" x="978.75" y="-19.36" font-family="Times,serif" font-size="12.00">Zustimmung</text>
</g>
<!-- 10&#45;&gt;A01 -->
<g id="edge3" class="edge">
<title>10-&gt;A01</title>
<path fill="none" stroke="#7aab8a" d="M893.8,-139C918.11,-123.35 955.19,-99.48 986.15,-79.55"/>
<polygon fill="#7aab8a" stroke="#7aab8a" points="987.75,-82.68 994.26,-74.33 983.96,-76.8 987.75,-82.68"/>
<text text-anchor="start" x="943.75" y="-108.47" font-family="Times,serif" font-weight="bold" font-size="14.00">NEIN</text>
</g>
</g>
</svg>
  </g>
</svg>
  </g>
</svg>
