<?xml version='1.0' encoding='ASCII' standalone='yes'?>
<svg xmlns="http://www.w3.org/2000/svg" xmlns:xlink="http://www.w3.org/1999/xlink" version="1.1" width="1920.0px" viewBox="0 0 1920.0 1106.6666666666667" height="1106.6666666666667px">
  <g>
    <svg version="1.1" width="1920.0px" viewBox="0 0 1920.0 1106.6666666666667" height="1106.6666666666667px">
  <polygon fill="#f3f1f6" points="0,0 1920.0,0 1920.0,1106.6666666666667 0,1106.6666666666667"/><g>
    <g transform="translate(517.6616882088281, 110.66666666666664) scale(1 1) translate(0, 0) scale(5.005028206612842 5.005028206612842) "><sodipodi:namedview xmlns:sodipodi="http://sodipodi.sourceforge.net/DTD/sodipodi-0.dtd" xmlns:inkscape="http://www.inkscape.org/namespaces/inkscape" id="namedview7" pagecolor="#ffffff" bordercolor="#999999" borderopacity="1" inkscape:pageshadow="0" inkscape:pageopacity="0" inkscape:pagecheckerboard="0" inkscape:document-units="mm" showgrid="false" fit-margin-top="0" fit-margin-left="0" fit-margin-right="0" fit-margin-bottom="0" inkscape:zoom="0.64052329" inkscape:cx="130.36216" inkscape:cy="412.163" inkscape:window-width="1512" inkscape:window-height="916" inkscape:window-x="3840" inkscape:window-y="136" inkscape:window-maximized="0" inkscape:current-layer="layer1"/>
  <defs id="defs2">
    <clipPath clipPathUnits="userSpaceOnUse" id="clipPath23">
      <path d="M 0,568.156 H 579.236 V 0 H 0 Z" id="path21"/>
    </clipPath>
  </defs>
  <g xmlns:inkscape="http://www.inkscape.org/namespaces/inkscape" inkscape:label="Layer 1" inkscape:groupmode="layer" id="layer1" transform="translate(-16.541937,-55.305267)">
    <g id="g19" clip-path="url(#clipPath23)" transform="matrix(0.35277777,0,0,-0.35277777,0.01017023,243.73675)" style="opacity:0.2">
      <g id="g25" transform="translate(122.444,32.7195)">
        <path d="m 0,0 h -56.104 c -11,0 -19.898,9.123 -19.463,20.115 10.594,267.191 231.277,481.302 501.029,481.302 v -56.02 c 0,-10.98 -8.688,-19.892 -19.658,-20.393 C 180.29,414.697 0,228.005 0,0" style="fill:#6ead83;fill-opacity:0.5;fill-rule:nonzero;stroke:none" id="path27"/>
      </g>
      <g id="g29" transform="translate(273.7828,32.7195)">
        <path d="m 0,0 h -55.926 c -11.228,0 -20.091,9.482 -19.435,20.69 10.744,183.439 163.389,329.388 349.485,329.388 v -56.263 c 0,-10.709 -8.273,-19.617 -18.957,-20.35 C 112.819,263.696 0,144.774 0,0" style="fill:#6ead83;fill-opacity:0.5;fill-rule:nonzero;stroke:none" id="path31"/>
      </g>
      <g id="g33" transform="translate(425.7667,32.7195)">
        <path d="m 0,0 h -55.445 c -11.653,0 -20.604,10.17 -19.334,21.753 10.866,99.032 95.031,176.341 196.919,176.341 v -57.011 c 0,-10.046 -7.283,-18.755 -17.229,-20.165 C 45.688,112.522 0,61.497 0,0" style="fill:#6ead83;fill-opacity:0.5;fill-rule:nonzero;stroke:none" id="path35"/>
      </g>
    </g>
  </g>
</g>
    <svg width="1440pt" height="830pt" viewBox="0.00 0.00 1440.00 829.64">
<g id="graph0" class="graph" transform="scale(0.689114 0.689114) rotate(0) translate(4 1199.93)">
<title>D</title>
<text text-anchor="start" x="620.07" y="-1175.83" font-family="Times,serif" font-weight="bold" font-size="18.00">Prozesse zur Ermittlung und Abrechnung von Mehr-/Mindermengen Strom und Gas</text>
<text text-anchor="start" x="728.45" y="-1145.73" font-family="Times,serif" font-weight="bold" font-size="16.00">10.4.2: AD: Mehr-/Mindermengenabrechnung zwischen NB und MGV</text>
<!-- Start -->
<g id="node1" class="node">
<title>Start</title>
<polygon fill="#7a8da1" stroke="black" points="569.14,-1097.93 397.84,-1097.93 397.84,-1054.65 569.14,-1054.65 569.14,-1097.93"/>
<text text-anchor="start" x="455.37" y="-1076.99" font-family="Times,serif" font-weight="bold" font-size="14.00">E_0806</text>
<text text-anchor="start" x="412.24" y="-1064.89" font-family="Times,serif" font-weight="bold" text-decoration="underline" font-size="12.00">Pr&#252;fende Rolle:</text>
<text text-anchor="start" x="517.24" y="-1064.89" font-family="Times,serif" font-weight="bold" font-size="12.00"> MGV</text>
</g>
<!-- 10 -->
<g id="node2" class="node">
<title>10</title>
<path fill="#7aab8a" stroke="black" d="M716.14,-1017.65C716.14,-1017.65 250.84,-1017.65 250.84,-1017.65 244.84,-1017.65 238.84,-1011.65 238.84,-1005.65 238.84,-1005.65 238.84,-993.65 238.84,-993.65 238.84,-987.65 244.84,-981.65 250.84,-981.65 250.84,-981.65 716.14,-981.65 716.14,-981.65 722.14,-981.65 728.14,-987.65 728.14,-993.65 728.14,-993.65 728.14,-1005.65 728.14,-1005.65 728.14,-1011.65 722.14,-1017.65 716.14,-1017.65"/>
<text text-anchor="start" x="253.24" y="-995.97" font-family="Times,serif" font-weight="bold" font-size="14.00">10: </text>
<text text-anchor="start" x="282.49" y="-995.97" font-family="Times,serif" font-size="14.00">Ist die zu stornierende Rechnung beim Empf&#228;nger bekannt?</text>
</g>
<!-- Start&#45;&gt;10 -->
<g id="edge1" class="edge">
<title>Start-&gt;10</title>
<path fill="none" stroke="black" d="M483.49,-1054.5C483.49,-1046.64 483.49,-1037.56 483.49,-1029.12"/>
<polygon fill="black" stroke="black" points="486.99,-1029.32 483.49,-1019.32 479.99,-1029.32 486.99,-1029.32"/>
</g>
<!-- A01 -->
<g id="node3" class="node">
<title>A01</title>
<polygon fill="#cfb986" stroke="black" points="360.36,-928.4 30.62,-928.4 30.62,-878.88 360.36,-878.88 360.36,-928.4"/>
<text text-anchor="start" x="180.49" y="-910.34" font-family="Times,serif" font-weight="bold" font-size="14.00">A01</text>
<text text-anchor="start" x="42.87" y="-898.24" font-family="Times,serif" text-decoration="underline" font-size="12.00">Hinweis:</text>
<text text-anchor="start" x="42.87" y="-886.24" font-family="Times,serif" font-size="12.00">Die zu stornierende Rechnung ist nicht vorhanden.</text>
</g>
<!-- 10&#45;&gt;A01 -->
<g id="edge2" class="edge">
<title>10-&gt;A01</title>
<path fill="none" stroke="black" d="M429.99,-981.19C388.03,-967.49 328.81,-948.16 280.39,-932.35"/>
<polygon fill="black" stroke="black" points="281.63,-929.08 271.04,-929.3 279.46,-935.73 281.63,-929.08"/>
<text text-anchor="middle" x="390.37" y="-950.35" font-family="Times,serif" font-size="14.00">Nein</text>
</g>
<!-- 15 -->
<g id="node4" class="node">
<title>15</title>
<path fill="#7aab8a" stroke="black" d="M1114.89,-921.64C1114.89,-921.64 390.09,-921.64 390.09,-921.64 384.09,-921.64 378.09,-915.64 378.09,-909.64 378.09,-909.64 378.09,-897.64 378.09,-897.64 378.09,-891.64 384.09,-885.64 390.09,-885.64 390.09,-885.64 1114.89,-885.64 1114.89,-885.64 1120.89,-885.64 1126.89,-891.64 1126.89,-897.64 1126.89,-897.64 1126.89,-909.64 1126.89,-909.64 1126.89,-915.64 1120.89,-921.64 1114.89,-921.64"/>
<text text-anchor="start" x="392.49" y="-899.96" font-family="Times,serif" font-weight="bold" font-size="14.00">15: </text>
<text text-anchor="start" x="421.74" y="-899.96" font-family="Times,serif" font-size="14.00">Liegt vom Rechnungssteller die in dieser Rechnung verwendete Rechnungsnummer bereits vor?</text>
</g>
<!-- 10&#45;&gt;15 -->
<g id="edge3" class="edge">
<title>10-&gt;15</title>
<path fill="none" stroke="black" d="M533.46,-981.19C578.28,-965.52 644.17,-942.49 691.97,-925.79"/>
<polygon fill="black" stroke="black" points="693.08,-929.11 701.36,-922.51 690.77,-922.5 693.08,-929.11"/>
<text text-anchor="middle" x="632.24" y="-950.35" font-family="Times,serif" font-size="14.00">Ja</text>
</g>
<!-- A06 -->
<g id="node5" class="node">
<title>A06</title>
<polygon fill="#cfb986" stroke="black" points="668.73,-825.63 374.25,-825.63 374.25,-776.11 668.73,-776.11 668.73,-825.63"/>
<text text-anchor="start" x="506.49" y="-807.57" font-family="Times,serif" font-weight="bold" font-size="14.00">A06</text>
<text text-anchor="start" x="386.49" y="-795.47" font-family="Times,serif" text-decoration="underline" font-size="12.00">Hinweis:</text>
<text text-anchor="start" x="386.49" y="-783.47" font-family="Times,serif" font-size="12.00">Rechnungsnummer wurde bereits verwendet</text>
</g>
<!-- 15&#45;&gt;A06 -->
<g id="edge4" class="edge">
<title>15-&gt;A06</title>
<path fill="none" stroke="black" d="M712.52,-885.2C678.07,-870.17 627.66,-848.18 587.27,-830.56"/>
<polygon fill="black" stroke="black" points="588.92,-827.47 578.35,-826.68 586.12,-833.88 588.92,-827.47"/>
<text text-anchor="middle" x="657.24" y="-847.58" font-family="Times,serif" font-size="14.00">Ja</text>
</g>
<!-- 20 -->
<g id="node6" class="node">
<title>20</title>
<path fill="#7aab8a" stroke="black" d="M1128.14,-818.87C1128.14,-818.87 698.84,-818.87 698.84,-818.87 692.84,-818.87 686.84,-812.87 686.84,-806.87 686.84,-806.87 686.84,-794.87 686.84,-794.87 686.84,-788.87 692.84,-782.87 698.84,-782.87 698.84,-782.87 1128.14,-782.87 1128.14,-782.87 1134.14,-782.87 1140.14,-788.87 1140.14,-794.87 1140.14,-794.87 1140.14,-806.87 1140.14,-806.87 1140.14,-812.87 1134.14,-818.87 1128.14,-818.87"/>
<text text-anchor="start" x="701.24" y="-797.19" font-family="Times,serif" font-weight="bold" font-size="14.00">20: </text>
<text text-anchor="start" x="730.49" y="-797.19" font-family="Times,serif" font-size="14.00">Wurde die zu stornierende Rechnung bereits storniert?</text>
</g>
<!-- 15&#45;&gt;20 -->
<g id="edge5" class="edge">
<title>15-&gt;20</title>
<path fill="none" stroke="black" d="M780.17,-885.32C806.66,-868.73 846.82,-843.6 876.14,-825.25"/>
<polygon fill="black" stroke="black" points="877.73,-828.38 884.35,-820.11 874.02,-822.45 877.73,-828.38"/>
<text text-anchor="middle" x="859.37" y="-847.58" font-family="Times,serif" font-size="14.00">Nein</text>
</g>
<!-- A02 -->
<g id="node7" class="node">
<title>A02</title>
<polygon fill="#cfb986" stroke="black" points="629.98,-722.86 277,-722.86 277,-673.34 629.98,-673.34 629.98,-722.86"/>
<text text-anchor="start" x="438.49" y="-704.8" font-family="Times,serif" font-weight="bold" font-size="14.00">A02</text>
<text text-anchor="start" x="289.24" y="-692.7" font-family="Times,serif" text-decoration="underline" font-size="12.00">Hinweis:</text>
<text text-anchor="start" x="289.24" y="-680.7" font-family="Times,serif" font-size="12.00">Die zu stornierende Rechnung wurde bereits storniert.</text>
</g>
<!-- 20&#45;&gt;A02 -->
<g id="edge6" class="edge">
<title>20-&gt;A02</title>
<path fill="none" stroke="black" d="M833.63,-782.37C762.3,-766.75 656.75,-743.63 574.96,-725.71"/>
<polygon fill="black" stroke="black" points="575.83,-722.32 565.31,-723.6 574.33,-729.16 575.83,-722.32"/>
<text text-anchor="middle" x="717.24" y="-744.81" font-family="Times,serif" font-size="14.00">Ja</text>
</g>
<!-- 30 -->
<g id="node8" class="node">
<title>30</title>
<path fill="#7aab8a" stroke="black" d="M1461.14,-716.1C1461.14,-716.1 659.84,-716.1 659.84,-716.1 653.84,-716.1 647.84,-710.1 647.84,-704.1 647.84,-704.1 647.84,-692.1 647.84,-692.1 647.84,-686.1 653.84,-680.1 659.84,-680.1 659.84,-680.1 1461.14,-680.1 1461.14,-680.1 1467.14,-680.1 1473.14,-686.1 1473.14,-692.1 1473.14,-692.1 1473.14,-704.1 1473.14,-704.1 1473.14,-710.1 1467.14,-716.1 1461.14,-716.1"/>
<text text-anchor="start" x="662.24" y="-694.42" font-family="Times,serif" font-weight="bold" font-size="14.00">30: </text>
<text text-anchor="start" x="691.49" y="-694.42" font-family="Times,serif" font-size="14.00">Ist der Rechnungstyp der Stornorechnung identisch mit dem Rechnungstyp der urspr&#252;nglichen Rechnung?</text>
</g>
<!-- 20&#45;&gt;30 -->
<g id="edge7" class="edge">
<title>20-&gt;30</title>
<path fill="none" stroke="black" d="M938.76,-782.55C962.74,-766.11 998.98,-741.26 1025.69,-722.96"/>
<polygon fill="black" stroke="black" points="1027.54,-725.93 1033.81,-717.39 1023.58,-720.16 1027.54,-725.93"/>
<text text-anchor="middle" x="1012.37" y="-744.81" font-family="Times,serif" font-size="14.00">Nein</text>
</g>
<!-- A03 -->
<g id="node9" class="node">
<title>A03</title>
<polygon fill="#cfb986" stroke="black" points="703.86,-620.09 5.12,-620.09 5.12,-570.57 703.86,-570.57 703.86,-620.09"/>
<text text-anchor="start" x="339.49" y="-602.03" font-family="Times,serif" font-weight="bold" font-size="14.00">A03</text>
<text text-anchor="start" x="17.37" y="-589.93" font-family="Times,serif" text-decoration="underline" font-size="12.00">Hinweis:</text>
<text text-anchor="start" x="17.37" y="-577.93" font-family="Times,serif" font-size="12.00">Der Rechnungstyp der Stornorechnung ist nicht identisch mit dem Rechnungstyp der urspr&#252;nglichen Rechnung.</text>
</g>
<!-- 30&#45;&gt;A03 -->
<g id="edge8" class="edge">
<title>30-&gt;A03</title>
<path fill="none" stroke="black" d="M937.92,-679.6C826.86,-663.75 661.75,-640.19 535.5,-622.17"/>
<polygon fill="black" stroke="black" points="536.07,-618.71 525.67,-620.76 535.08,-625.64 536.07,-618.71"/>
<text text-anchor="middle" x="766.37" y="-642.04" font-family="Times,serif" font-size="14.00">Nein</text>
</g>
<!-- 40 -->
<g id="node10" class="node">
<title>40</title>
<path fill="#7aab8a" stroke="black" d="M2064.89,-613.33C2064.89,-613.33 734.09,-613.33 734.09,-613.33 728.09,-613.33 722.09,-607.33 722.09,-601.33 722.09,-601.33 722.09,-589.33 722.09,-589.33 722.09,-583.33 728.09,-577.33 734.09,-577.33 734.09,-577.33 2064.89,-577.33 2064.89,-577.33 2070.89,-577.33 2076.89,-583.33 2076.89,-589.33 2076.89,-589.33 2076.89,-601.33 2076.89,-601.33 2076.89,-607.33 2070.89,-613.33 2064.89,-613.33"/>
<text text-anchor="start" x="736.49" y="-591.65" font-family="Times,serif" font-weight="bold" font-size="14.00">40: </text>
<text text-anchor="start" x="765.74" y="-591.65" font-family="Times,serif" font-size="14.00">Ist der Abrechnungszeitraum bzw. das Ausf&#252;hrungsdatum der Stornorechnung identisch mit dem Abrechnungszeitraum bzw. dem Ausf&#252;hrungsdatum der urspr&#252;nglichen Rechnung?</text>
</g>
<!-- 30&#45;&gt;40 -->
<g id="edge9" class="edge">
<title>30-&gt;40</title>
<path fill="none" stroke="black" d="M1119.15,-679.66C1177.7,-662.26 1267.66,-635.52 1329.81,-617.04"/>
<polygon fill="black" stroke="black" points="1330.66,-620.44 1339.24,-614.24 1328.66,-613.73 1330.66,-620.44"/>
<text text-anchor="middle" x="1256.24" y="-642.04" font-family="Times,serif" font-size="14.00">Ja</text>
</g>
<!-- A04 -->
<g id="node11" class="node">
<title>A04</title>
<polygon fill="#cfb986" stroke="black" points="1144.98,-505.44 0,-505.44 0,-455.92 1144.98,-455.92 1144.98,-505.44"/>
<text text-anchor="start" x="557.49" y="-487.38" font-family="Times,serif" font-weight="bold" font-size="14.00">A04</text>
<text text-anchor="start" x="12.24" y="-475.28" font-family="Times,serif" text-decoration="underline" font-size="12.00">Hinweis:</text>
<text text-anchor="start" x="12.24" y="-463.28" font-family="Times,serif" font-size="12.00">Der Abrechnungszeitraum bzw. des Ausf&#252;hrungsdatum der Stornorechnung ist nicht identisch mit dem Abrechnungszeitraum bzw. dem Ausf&#252;hrungsdatum der urspr&#252;nglichen Rechnung.</text>
</g>
<!-- 40&#45;&gt;A04 -->
<g id="edge10" class="edge">
<title>40-&gt;A04</title>
<path fill="none" stroke="black" d="M1271.18,-576.85C1134.72,-558.26 917.46,-528.67 761.43,-507.42"/>
<polygon fill="black" stroke="black" points="762.19,-503.99 751.81,-506.11 761.24,-510.92 762.19,-503.99"/>
<text text-anchor="middle" x="1100.37" y="-539.27" font-family="Times,serif" font-size="14.00">Nein</text>
</g>
<!-- 50 -->
<g id="node12" class="node">
<title>50</title>
<path fill="#7aab8a" stroke="black" d="M2069.64,-517.32C2069.64,-517.32 1175.34,-517.32 1175.34,-517.32 1169.34,-517.32 1163.34,-511.32 1163.34,-505.32 1163.34,-505.32 1163.34,-456.04 1163.34,-456.04 1163.34,-450.04 1169.34,-444.04 1175.34,-444.04 1175.34,-444.04 2069.64,-444.04 2069.64,-444.04 2075.64,-444.04 2081.64,-450.04 2081.64,-456.04 2081.64,-456.04 2081.64,-505.32 2081.64,-505.32 2081.64,-511.32 2075.64,-517.32 2069.64,-517.32"/>
<text text-anchor="start" x="1177.74" y="-496.38" font-family="Times,serif" font-weight="bold" font-size="14.00">50: </text>
<text text-anchor="start" x="1206.99" y="-496.38" font-family="Times,serif" font-size="14.00">Sind die mit (-1) multiplizierten Betr&#228;ge der Stornorechnung mit den Betr&#228;gen der urspr&#252;nglichen Rechnung identisch?</text>
<text text-anchor="start" x="1177.74" y="-468.38" font-family="Times,serif" font-size="14.00">Hinweis:</text>
<text text-anchor="start" x="1177.74" y="-454.38" font-family="Times,serif" font-size="14.00">Als Betrag ist der jeweilige Wert des jeweiligen MOA-Segments zu verstehen.</text>
</g>
<!-- 40&#45;&gt;50 -->
<g id="edge11" class="edge">
<title>40-&gt;50</title>
<path fill="none" stroke="black" d="M1433.85,-576.98C1462.32,-562.59 1503.97,-541.55 1540.89,-522.9"/>
<polygon fill="black" stroke="black" points="1542.46,-526.03 1549.81,-518.39 1539.31,-519.78 1542.46,-526.03"/>
<text text-anchor="middle" x="1517.24" y="-539.27" font-family="Times,serif" font-size="14.00">Ja</text>
</g>
<!-- A05 -->
<g id="node13" class="node">
<title>A05</title>
<polygon fill="#cfb986" stroke="black" points="1527.86,-390.79 895.12,-390.79 895.12,-341.27 1527.86,-341.27 1527.86,-390.79"/>
<text text-anchor="start" x="1196.49" y="-372.73" font-family="Times,serif" font-weight="bold" font-size="14.00">A05</text>
<text text-anchor="start" x="907.37" y="-360.63" font-family="Times,serif" text-decoration="underline" font-size="12.00">Hinweis:</text>
<text text-anchor="start" x="907.37" y="-348.63" font-family="Times,serif" font-size="12.00">Mindestens ein Betrag der Stornorechnung passt nicht zu dem Betrag der urspr&#252;nglichen Rechnung.</text>
</g>
<!-- 50&#45;&gt;A05 -->
<g id="edge12" class="edge">
<title>50-&gt;A05</title>
<path fill="none" stroke="black" d="M1490.75,-443.57C1432.32,-427.56 1364.72,-409.03 1310.66,-394.21"/>
<polygon fill="black" stroke="black" points="1311.72,-390.87 1301.15,-391.6 1309.87,-397.62 1311.72,-390.87"/>
<text text-anchor="middle" x="1433.37" y="-412.74" font-family="Times,serif" font-size="14.00">Nein</text>
</g>
<!-- 60 -->
<g id="node14" class="node">
<title>60</title>
<path fill="#7aab8a" stroke="black" d="M1966.64,-384.03C1966.64,-384.03 1558.34,-384.03 1558.34,-384.03 1552.34,-384.03 1546.34,-378.03 1546.34,-372.03 1546.34,-372.03 1546.34,-360.03 1546.34,-360.03 1546.34,-354.03 1552.34,-348.03 1558.34,-348.03 1558.34,-348.03 1966.64,-348.03 1966.64,-348.03 1972.64,-348.03 1978.64,-354.03 1978.64,-360.03 1978.64,-360.03 1978.64,-372.03 1978.64,-372.03 1978.64,-378.03 1972.64,-384.03 1966.64,-384.03"/>
<text text-anchor="start" x="1560.74" y="-362.35" font-family="Times,serif" font-weight="bold" font-size="14.00">60: </text>
<text text-anchor="start" x="1589.99" y="-362.35" font-family="Times,serif" font-size="14.00">Ist ein zuvor nicht spezifizierter Fehler aufgetreten?</text>
</g>
<!-- 50&#45;&gt;60 -->
<g id="edge13" class="edge">
<title>50-&gt;60</title>
<path fill="none" stroke="black" d="M1667.17,-443.73C1688.35,-426.68 1713.11,-406.76 1732.08,-391.5"/>
<polygon fill="black" stroke="black" points="1734.11,-394.35 1739.71,-385.36 1729.73,-388.9 1734.11,-394.35"/>
<text text-anchor="middle" x="1715.24" y="-412.74" font-family="Times,serif" font-size="14.00">Ja</text>
</g>
<!-- A99 -->
<g id="node15" class="node">
<title>A99</title>
<polygon fill="#cfb986" stroke="black" points="1608.98,-288.02 1154,-288.02 1154,-178.5 1608.98,-178.5 1608.98,-288.02"/>
<text text-anchor="start" x="1366.49" y="-269.96" font-family="Times,serif" font-weight="bold" font-size="14.00">A99</text>
<text text-anchor="start" x="1166.24" y="-257.86" font-family="Times,serif" text-decoration="underline" font-size="12.00">Hinweis:</text>
<text text-anchor="start" x="1166.24" y="-245.86" font-family="Times,serif" font-size="12.00">Ablehnung Sonstiges</text>
<text text-anchor="start" x="1166.24" y="-221.86" font-family="Times,serif" font-size="12.00">Hinweis: </text>
<text text-anchor="start" x="1166.24" y="-197.86" font-family="Times,serif" font-size="12.00">Das identifizierte Problem ist in der Antwort zu beschreiben/benennen. </text>
<text text-anchor="start" x="1166.24" y="-185.86" font-family="Times,serif" font-size="12.00">Nutzungsm&#246;glichkeit Ende: 01.04.2026 00:00 Uhr</text>
</g>
<!-- 60&#45;&gt;A99 -->
<g id="edge14" class="edge">
<title>60-&gt;A99</title>
<path fill="none" stroke="black" d="M1711.9,-347.66C1670.27,-333.38 1608.77,-312.27 1550.09,-292.13"/>
<polygon fill="black" stroke="black" points="1551.58,-288.94 1540.99,-289 1549.31,-295.56 1551.58,-288.94"/>
<text text-anchor="middle" x="1645.24" y="-309.97" font-family="Times,serif" font-size="14.00">Ja</text>
</g>
<!-- 70 -->
<g id="node16" class="node">
<title>70</title>
<path fill="#7aab8a" stroke="black" d="M2033.89,-251.26C2033.89,-251.26 1639.09,-251.26 1639.09,-251.26 1633.09,-251.26 1627.09,-245.26 1627.09,-239.26 1627.09,-239.26 1627.09,-227.26 1627.09,-227.26 1627.09,-221.26 1633.09,-215.26 1639.09,-215.26 1639.09,-215.26 2033.89,-215.26 2033.89,-215.26 2039.89,-215.26 2045.89,-221.26 2045.89,-227.26 2045.89,-227.26 2045.89,-239.26 2045.89,-239.26 2045.89,-245.26 2039.89,-251.26 2033.89,-251.26"/>
<text text-anchor="start" x="1641.49" y="-229.58" font-family="Times,serif" font-weight="bold" font-size="14.00">70: </text>
<text text-anchor="start" x="1670.74" y="-229.58" font-family="Times,serif" font-size="14.00">Wurde der urspr&#252;nglichen Rechnung zugestimmt?</text>
</g>
<!-- 60&#45;&gt;70 -->
<g id="edge15" class="edge">
<title>60-&gt;70</title>
<path fill="none" stroke="black" d="M1772.32,-347.66C1784.76,-325.68 1806.33,-287.56 1821,-261.64"/>
<polygon fill="black" stroke="black" points="1824,-263.44 1825.88,-253.01 1817.91,-259.99 1824,-263.44"/>
<text text-anchor="middle" x="1811.37" y="-309.97" font-family="Times,serif" font-size="14.00">Nein</text>
</g>
<!-- Ende -->
<g id="node17" class="node">
<title>Ende</title>
<polygon fill="#7a8da1" stroke="black" points="1699.27,-36 1633.71,-36 1633.71,0 1699.27,0 1699.27,-36"/>
<text text-anchor="middle" x="1666.49" y="-13.32" font-family="Times,serif" font-size="14.00">Ende</text>
</g>
<!-- 70&#45;&gt;Ende -->
<g id="edge16" class="edge">
<title>70-&gt;Ende</title>
<path fill="none" stroke="black" d="M1780.1,-214.89C1738.72,-198.84 1685.49,-170.52 1659.99,-125.25 1646.63,-101.53 1650.8,-69.92 1656.75,-47.36"/>
<polygon fill="black" stroke="black" points="1660.06,-48.51 1659.51,-37.93 1653.34,-46.54 1660.06,-48.51"/>
<text text-anchor="middle" x="1666.24" y="-102.58" font-family="Times,serif" font-size="14.00">Ja</text>
</g>
<!-- 80 -->
<g id="node18" class="node">
<title>80</title>
<path fill="#7aab8a" stroke="black" d="M2064.51,-125.25C2064.51,-125.25 1694.46,-125.25 1694.46,-125.25 1688.46,-125.25 1682.46,-119.25 1682.46,-113.25 1682.46,-113.25 1682.46,-101.25 1682.46,-101.25 1682.46,-95.25 1688.46,-89.25 1694.46,-89.25 1694.46,-89.25 2064.51,-89.25 2064.51,-89.25 2070.51,-89.25 2076.51,-95.25 2076.51,-101.25 2076.51,-101.25 2076.51,-113.25 2076.51,-113.25 2076.51,-119.25 2070.51,-125.25 2064.51,-125.25"/>
<text text-anchor="start" x="1696.87" y="-103.58" font-family="Times,serif" font-weight="bold" font-size="14.00">80: </text>
<text text-anchor="start" x="1726.12" y="-103.58" font-family="Times,serif" font-size="14.00">Wurde die urspr&#252;ngliche Rechnung abgelehnt?</text>
</g>
<!-- 70&#45;&gt;80 -->
<g id="edge17" class="edge">
<title>70-&gt;80</title>
<path fill="none" stroke="black" d="M1842.47,-215.02C1849.52,-194.68 1861.34,-160.58 1869.73,-136.4"/>
<polygon fill="black" stroke="black" points="1872.96,-137.77 1872.93,-127.18 1866.34,-135.48 1872.96,-137.77"/>
<text text-anchor="middle" x="1883.37" y="-147.2" font-family="Times,serif" font-size="14.00">Nein</text>
</g>
<!-- 80&#45;&gt;Ende -->
<g id="edge18" class="edge">
<title>80-&gt;Ende</title>
<path fill="none" stroke="black" d="M1836.9,-88.8C1800.1,-73.73 1747.16,-52.04 1710.07,-36.85"/>
<polygon fill="black" stroke="black" points="1711.57,-33.68 1700.99,-33.13 1708.92,-40.16 1711.57,-33.68"/>
<text text-anchor="middle" x="1808.37" y="-57.95" font-family="Times,serif" font-size="14.00">Nein</text>
</g>
</g>
</svg>
  </g>
</svg>
  </g>
</svg>
