<?xml version='1.0' encoding='ASCII' standalone='yes'?>
<svg xmlns="http://www.w3.org/2000/svg" xmlns:xlink="http://www.w3.org/1999/xlink" version="1.1" width="5532.0px" viewBox="0 0 5532.0 1605.3333333333333" height="1605.3333333333333px">
  <g>
    <svg version="1.1" width="5532.0px" viewBox="0 0 5532.0 1605.3333333333333" height="1605.3333333333333px">
  <polygon fill="#f3f1f6" points="0,0 5532.0,0 5532.0,1605.3333333333333 0,1605.3333333333333"/><g>
    <g transform="translate(2124.342979040276, 160.5333333333333) scale(1 1) translate(0, 0) scale(7.260305976821519 7.260305976821519) "><sodipodi:namedview xmlns:sodipodi="http://sodipodi.sourceforge.net/DTD/sodipodi-0.dtd" xmlns:inkscape="http://www.inkscape.org/namespaces/inkscape" id="namedview7" pagecolor="#ffffff" bordercolor="#999999" borderopacity="1" inkscape:pageshadow="0" inkscape:pageopacity="0" inkscape:pagecheckerboard="0" inkscape:document-units="mm" showgrid="false" fit-margin-top="0" fit-margin-left="0" fit-margin-right="0" fit-margin-bottom="0" inkscape:zoom="0.64052329" inkscape:cx="130.36216" inkscape:cy="412.163" inkscape:window-width="1512" inkscape:window-height="916" inkscape:window-x="3840" inkscape:window-y="136" inkscape:window-maximized="0" inkscape:current-layer="layer1"/>
  <defs id="defs2">
    <clipPath clipPathUnits="userSpaceOnUse" id="clipPath23">
      <path d="M 0,568.156 H 579.236 V 0 H 0 Z" id="path21"/>
    </clipPath>
  </defs>
  <g xmlns:inkscape="http://www.inkscape.org/namespaces/inkscape" inkscape:label="Layer 1" inkscape:groupmode="layer" id="layer1" transform="translate(-16.541937,-55.305267)">
    <g id="g19" clip-path="url(#clipPath23)" transform="matrix(0.35277777,0,0,-0.35277777,0.01017023,243.73675)" style="opacity:0.2">
      <g id="g25" transform="translate(122.444,32.7195)">
        <path d="m 0,0 h -56.104 c -11,0 -19.898,9.123 -19.463,20.115 10.594,267.191 231.277,481.302 501.029,481.302 v -56.02 c 0,-10.98 -8.688,-19.892 -19.658,-20.393 C 180.29,414.697 0,228.005 0,0" style="fill:#6ead83;fill-opacity:0.5;fill-rule:nonzero;stroke:none" id="path27"/>
      </g>
      <g id="g29" transform="translate(273.7828,32.7195)">
        <path d="m 0,0 h -55.926 c -11.228,0 -20.091,9.482 -19.435,20.69 10.744,183.439 163.389,329.388 349.485,329.388 v -56.263 c 0,-10.709 -8.273,-19.617 -18.957,-20.35 C 112.819,263.696 0,144.774 0,0" style="fill:#6ead83;fill-opacity:0.5;fill-rule:nonzero;stroke:none" id="path31"/>
      </g>
      <g id="g33" transform="translate(425.7667,32.7195)">
        <path d="m 0,0 h -55.445 c -11.653,0 -20.604,10.17 -19.334,21.753 10.866,99.032 95.031,176.341 196.919,176.341 v -57.011 c 0,-10.046 -7.283,-18.755 -17.229,-20.165 C 45.688,112.522 0,61.497 0,0" style="fill:#6ead83;fill-opacity:0.5;fill-rule:nonzero;stroke:none" id="path35"/>
      </g>
    </g>
  </g>
</g>
    <svg width="4149pt" height="1204pt" viewBox="0.00 0.00 4148.68 1203.93">
<g id="graph0" class="graph" transform="scale(1 1) rotate(0) translate(4 1199.93)">
<title>D</title>
<text text-anchor="start" x="1649.59" y="-1175.83" font-family="Times,serif" font-weight="bold" font-size="18.00">Prozesse zur Ermittlung und Abrechnung von Mehr-/Mindermengen Strom und Gas</text>
<text text-anchor="start" x="1768.84" y="-1145.73" font-family="Times,serif" font-weight="bold" font-size="16.00">10.3.2: AD: Mehr-/Mindermengenabrechnung zwischen NB und LF</text>
<!-- Start -->
<g id="node1" class="node">
<title>Start</title>
<polygon fill="#7a8da1" stroke="black" points="322.05,-1097.93 167.25,-1097.93 167.25,-1054.65 322.05,-1054.65 322.05,-1097.93"/>
<text text-anchor="start" x="216.53" y="-1076.99" font-family="Times,serif" font-weight="bold" font-size="14.00">E_0804</text>
<text text-anchor="start" x="181.65" y="-1064.89" font-family="Times,serif" font-weight="bold" text-decoration="underline" font-size="12.00">Pr&#252;fende Rolle:</text>
<text text-anchor="start" x="286.65" y="-1064.89" font-family="Times,serif" font-weight="bold" font-size="12.00"> LF</text>
</g>
<!-- 10 -->
<g id="node2" class="node">
<title>10</title>
<path fill="#7aab8a" stroke="black" d="M477.3,-1017.65C477.3,-1017.65 12,-1017.65 12,-1017.65 6,-1017.65 0,-1011.65 0,-1005.65 0,-1005.65 0,-993.65 0,-993.65 0,-987.65 6,-981.65 12,-981.65 12,-981.65 477.3,-981.65 477.3,-981.65 483.3,-981.65 489.3,-987.65 489.3,-993.65 489.3,-993.65 489.3,-1005.65 489.3,-1005.65 489.3,-1011.65 483.3,-1017.65 477.3,-1017.65"/>
<text text-anchor="start" x="14.4" y="-995.97" font-family="Times,serif" font-weight="bold" font-size="14.00">10: </text>
<text text-anchor="start" x="43.65" y="-995.97" font-family="Times,serif" font-size="14.00">Ist die zu stornierende Rechnung beim Empf&#228;nger bekannt?</text>
</g>
<!-- Start&#45;&gt;10 -->
<g id="edge1" class="edge">
<title>Start-&gt;10</title>
<path fill="none" stroke="black" d="M244.65,-1054.5C244.65,-1046.64 244.65,-1037.56 244.65,-1029.12"/>
<polygon fill="black" stroke="black" points="248.15,-1029.32 244.65,-1019.32 241.15,-1029.32 248.15,-1029.32"/>
</g>
<!-- A01 -->
<g id="node3" class="node">
<title>A01</title>
<polygon fill="#cfb986" stroke="black" points="381.52,-928.4 51.79,-928.4 51.79,-878.88 381.52,-878.88 381.52,-928.4"/>
<text text-anchor="start" x="201.65" y="-910.34" font-family="Times,serif" font-weight="bold" font-size="14.00">A01</text>
<text text-anchor="start" x="64.03" y="-898.24" font-family="Times,serif" text-decoration="underline" font-size="12.00">Hinweis:</text>
<text text-anchor="start" x="64.03" y="-886.24" font-family="Times,serif" font-size="12.00">Die zu stornierende Rechnung ist nicht vorhanden.</text>
</g>
<!-- 10&#45;&gt;A01 -->
<g id="edge2" class="edge">
<title>10-&gt;A01</title>
<path fill="none" stroke="black" d="M239.51,-981.41C236.05,-969.78 231.36,-954.02 227.13,-939.81"/>
<polygon fill="black" stroke="black" points="230.5,-938.89 224.29,-930.3 223.79,-940.89 230.5,-938.89"/>
<text text-anchor="middle" x="251.53" y="-950.35" font-family="Times,serif" font-size="14.00">Nein</text>
</g>
<!-- 15 -->
<g id="node4" class="node">
<title>15</title>
<path fill="#7aab8a" stroke="black" d="M1136.05,-921.64C1136.05,-921.64 411.25,-921.64 411.25,-921.64 405.25,-921.64 399.25,-915.64 399.25,-909.64 399.25,-909.64 399.25,-897.64 399.25,-897.64 399.25,-891.64 405.25,-885.64 411.25,-885.64 411.25,-885.64 1136.05,-885.64 1136.05,-885.64 1142.05,-885.64 1148.05,-891.64 1148.05,-897.64 1148.05,-897.64 1148.05,-909.64 1148.05,-909.64 1148.05,-915.64 1142.05,-921.64 1136.05,-921.64"/>
<text text-anchor="start" x="413.65" y="-899.96" font-family="Times,serif" font-weight="bold" font-size="14.00">15: </text>
<text text-anchor="start" x="442.9" y="-899.96" font-family="Times,serif" font-size="14.00">Liegt vom Rechnungssteller die in dieser Rechnung verwendete Rechnungsnummer bereits vor?</text>
</g>
<!-- 10&#45;&gt;15 -->
<g id="edge3" class="edge">
<title>10-&gt;15</title>
<path fill="none" stroke="black" d="M342.91,-981.19C434.07,-964.99 569.54,-940.91 664.14,-924.1"/>
<polygon fill="black" stroke="black" points="664.74,-927.55 673.98,-922.35 663.52,-920.66 664.74,-927.55"/>
<text text-anchor="middle" x="532.4" y="-950.35" font-family="Times,serif" font-size="14.00">Ja</text>
</g>
<!-- A06 -->
<g id="node5" class="node">
<title>A06</title>
<polygon fill="#cfb986" stroke="black" points="815.77,-825.63 517.54,-825.63 517.54,-776.11 815.77,-776.11 815.77,-825.63"/>
<text text-anchor="start" x="651.65" y="-807.57" font-family="Times,serif" font-weight="bold" font-size="14.00">A06</text>
<text text-anchor="start" x="529.78" y="-795.47" font-family="Times,serif" text-decoration="underline" font-size="12.00">Hinweis:</text>
<text text-anchor="start" x="529.78" y="-783.47" font-family="Times,serif" font-size="12.00">Rechnungsnummer wurde bereits verwendet.</text>
</g>
<!-- 15&#45;&gt;A06 -->
<g id="edge4" class="edge">
<title>15-&gt;A06</title>
<path fill="none" stroke="black" d="M755.5,-885.55C740.4,-871.33 718.5,-850.71 700.23,-833.49"/>
<polygon fill="black" stroke="black" points="702.9,-831.2 693.22,-826.9 698.1,-836.3 702.9,-831.2"/>
<text text-anchor="middle" x="733.4" y="-847.58" font-family="Times,serif" font-size="14.00">Ja</text>
</g>
<!-- 20 -->
<g id="node6" class="node">
<title>20</title>
<path fill="#7aab8a" stroke="black" d="M1275.3,-818.87C1275.3,-818.87 846,-818.87 846,-818.87 840,-818.87 834,-812.87 834,-806.87 834,-806.87 834,-794.87 834,-794.87 834,-788.87 840,-782.87 846,-782.87 846,-782.87 1275.3,-782.87 1275.3,-782.87 1281.3,-782.87 1287.3,-788.87 1287.3,-794.87 1287.3,-794.87 1287.3,-806.87 1287.3,-806.87 1287.3,-812.87 1281.3,-818.87 1275.3,-818.87"/>
<text text-anchor="start" x="848.4" y="-797.19" font-family="Times,serif" font-weight="bold" font-size="14.00">20: </text>
<text text-anchor="start" x="877.65" y="-797.19" font-family="Times,serif" font-size="14.00">Wurde die zu stornierende Rechnung bereits storniert?</text>
</g>
<!-- 15&#45;&gt;20 -->
<g id="edge5" class="edge">
<title>15-&gt;20</title>
<path fill="none" stroke="black" d="M823.31,-885.2C872.44,-867.95 947.7,-841.53 1000.26,-823.07"/>
<polygon fill="black" stroke="black" points="1001.41,-826.38 1009.69,-819.76 999.09,-819.77 1001.41,-826.38"/>
<text text-anchor="middle" x="951.53" y="-847.58" font-family="Times,serif" font-size="14.00">Nein</text>
</g>
<!-- A02 -->
<g id="node7" class="node">
<title>A02</title>
<polygon fill="#cfb986" stroke="black" points="1076.14,-722.86 723.16,-722.86 723.16,-673.34 1076.14,-673.34 1076.14,-722.86"/>
<text text-anchor="start" x="884.65" y="-704.8" font-family="Times,serif" font-weight="bold" font-size="14.00">A02</text>
<text text-anchor="start" x="735.4" y="-692.7" font-family="Times,serif" text-decoration="underline" font-size="12.00">Hinweis:</text>
<text text-anchor="start" x="735.4" y="-680.7" font-family="Times,serif" font-size="12.00">Die zu stornierende Rechnung wurde bereits storniert.</text>
</g>
<!-- 20&#45;&gt;A02 -->
<g id="edge6" class="edge">
<title>20-&gt;A02</title>
<path fill="none" stroke="black" d="M1032.97,-782.55C1009.65,-767.95 975.74,-746.72 947.95,-729.33"/>
<polygon fill="black" stroke="black" points="950.02,-726.5 939.69,-724.16 946.31,-732.43 950.02,-726.5"/>
<text text-anchor="middle" x="997.4" y="-744.81" font-family="Times,serif" font-size="14.00">Ja</text>
</g>
<!-- 30 -->
<g id="node8" class="node">
<title>30</title>
<path fill="#7aab8a" stroke="black" d="M1907.3,-716.1C1907.3,-716.1 1106,-716.1 1106,-716.1 1100,-716.1 1094,-710.1 1094,-704.1 1094,-704.1 1094,-692.1 1094,-692.1 1094,-686.1 1100,-680.1 1106,-680.1 1106,-680.1 1907.3,-680.1 1907.3,-680.1 1913.3,-680.1 1919.3,-686.1 1919.3,-692.1 1919.3,-692.1 1919.3,-704.1 1919.3,-704.1 1919.3,-710.1 1913.3,-716.1 1907.3,-716.1"/>
<text text-anchor="start" x="1108.4" y="-694.42" font-family="Times,serif" font-weight="bold" font-size="14.00">30: </text>
<text text-anchor="start" x="1137.65" y="-694.42" font-family="Times,serif" font-size="14.00">Ist der Rechnungstyp der Stornorechnung identisch mit dem Rechnungstyp der urspr&#252;nglichen Rechnung?</text>
</g>
<!-- 20&#45;&gt;30 -->
<g id="edge7" class="edge">
<title>20-&gt;30</title>
<path fill="none" stroke="black" d="M1138.08,-782.37C1216.19,-764.73 1336.6,-737.52 1418.37,-719.05"/>
<polygon fill="black" stroke="black" points="1418.93,-722.51 1427.91,-716.89 1417.39,-715.68 1418.93,-722.51"/>
<text text-anchor="middle" x="1327.53" y="-744.81" font-family="Times,serif" font-size="14.00">Nein</text>
</g>
<!-- A03 -->
<g id="node9" class="node">
<title>A03</title>
<polygon fill="#cfb986" stroke="black" points="1580.02,-620.09 881.29,-620.09 881.29,-570.57 1580.02,-570.57 1580.02,-620.09"/>
<text text-anchor="start" x="1215.65" y="-602.03" font-family="Times,serif" font-weight="bold" font-size="14.00">A03</text>
<text text-anchor="start" x="893.53" y="-589.93" font-family="Times,serif" text-decoration="underline" font-size="12.00">Hinweis:</text>
<text text-anchor="start" x="893.53" y="-577.93" font-family="Times,serif" font-size="12.00">Der Rechnungstyp der Stornorechnung ist nicht identisch mit dem Rechnungstyp der urspr&#252;nglichen Rechnung.</text>
</g>
<!-- 30&#45;&gt;A03 -->
<g id="edge8" class="edge">
<title>30-&gt;A03</title>
<path fill="none" stroke="black" d="M1458.89,-679.66C1417.29,-664.47 1356.22,-642.18 1307.71,-624.46"/>
<polygon fill="black" stroke="black" points="1308.95,-621.19 1298.35,-621.05 1306.55,-627.77 1308.95,-621.19"/>
<text text-anchor="middle" x="1402.53" y="-642.04" font-family="Times,serif" font-size="14.00">Nein</text>
</g>
<!-- 40 -->
<g id="node10" class="node">
<title>40</title>
<path fill="#7aab8a" stroke="black" d="M2941.05,-613.33C2941.05,-613.33 1610.25,-613.33 1610.25,-613.33 1604.25,-613.33 1598.25,-607.33 1598.25,-601.33 1598.25,-601.33 1598.25,-589.33 1598.25,-589.33 1598.25,-583.33 1604.25,-577.33 1610.25,-577.33 1610.25,-577.33 2941.05,-577.33 2941.05,-577.33 2947.05,-577.33 2953.05,-583.33 2953.05,-589.33 2953.05,-589.33 2953.05,-601.33 2953.05,-601.33 2953.05,-607.33 2947.05,-613.33 2941.05,-613.33"/>
<text text-anchor="start" x="1612.65" y="-591.65" font-family="Times,serif" font-weight="bold" font-size="14.00">40: </text>
<text text-anchor="start" x="1641.9" y="-591.65" font-family="Times,serif" font-size="14.00">Ist der Abrechnungszeitraum bzw. das Ausf&#252;hrungsdatum der Stornorechnung identisch mit dem Abrechnungszeitraum bzw. dem Ausf&#252;hrungsdatum der urspr&#252;nglichen Rechnung?</text>
</g>
<!-- 30&#45;&gt;40 -->
<g id="edge9" class="edge">
<title>30-&gt;40</title>
<path fill="none" stroke="black" d="M1640.16,-679.6C1777.2,-661.65 1989.78,-633.79 2130.81,-615.31"/>
<polygon fill="black" stroke="black" points="2131.15,-618.8 2140.61,-614.03 2130.24,-611.85 2131.15,-618.8"/>
<text text-anchor="middle" x="1944.4" y="-642.04" font-family="Times,serif" font-size="14.00">Ja</text>
</g>
<!-- A04 -->
<g id="node11" class="node">
<title>A04</title>
<polygon fill="#cfb986" stroke="black" points="2571.14,-505.44 1426.16,-505.44 1426.16,-455.92 2571.14,-455.92 2571.14,-505.44"/>
<text text-anchor="start" x="1983.65" y="-487.38" font-family="Times,serif" font-weight="bold" font-size="14.00">A04</text>
<text text-anchor="start" x="1438.4" y="-475.28" font-family="Times,serif" text-decoration="underline" font-size="12.00">Hinweis:</text>
<text text-anchor="start" x="1438.4" y="-463.28" font-family="Times,serif" font-size="12.00">Der Abrechnungszeitraum bzw. des Ausf&#252;hrungsdatum der Stornorechnung ist nicht identisch mit dem Abrechnungszeitraum bzw. dem Ausf&#252;hrungsdatum der urspr&#252;nglichen Rechnung.</text>
</g>
<!-- 40&#45;&gt;A04 -->
<g id="edge10" class="edge">
<title>40-&gt;A04</title>
<path fill="none" stroke="black" d="M2232.67,-576.85C2188.89,-559.04 2120.26,-531.14 2068.63,-510.14"/>
<polygon fill="black" stroke="black" points="2070.19,-507 2059.61,-506.47 2067.56,-513.48 2070.19,-507"/>
<text text-anchor="middle" x="2187.53" y="-539.27" font-family="Times,serif" font-size="14.00">Nein</text>
</g>
<!-- 50 -->
<g id="node12" class="node">
<title>50</title>
<path fill="#7aab8a" stroke="black" d="M3495.8,-517.32C3495.8,-517.32 2601.5,-517.32 2601.5,-517.32 2595.5,-517.32 2589.5,-511.32 2589.5,-505.32 2589.5,-505.32 2589.5,-456.04 2589.5,-456.04 2589.5,-450.04 2595.5,-444.04 2601.5,-444.04 2601.5,-444.04 3495.8,-444.04 3495.8,-444.04 3501.8,-444.04 3507.8,-450.04 3507.8,-456.04 3507.8,-456.04 3507.8,-505.32 3507.8,-505.32 3507.8,-511.32 3501.8,-517.32 3495.8,-517.32"/>
<text text-anchor="start" x="2603.9" y="-496.38" font-family="Times,serif" font-weight="bold" font-size="14.00">50: </text>
<text text-anchor="start" x="2633.15" y="-496.38" font-family="Times,serif" font-size="14.00">Sind die mit (-1) multiplizierten Betr&#228;ge der Stornorechnung mit den Betr&#228;gen der urspr&#252;nglichen Rechnung identisch?</text>
<text text-anchor="start" x="2603.9" y="-468.38" font-family="Times,serif" font-size="14.00">Hinweis:</text>
<text text-anchor="start" x="2603.9" y="-454.38" font-family="Times,serif" font-size="14.00">Als Betrag ist der jeweilige Wert des jeweiligen MOA-Segments zu verstehen.</text>
</g>
<!-- 40&#45;&gt;50 -->
<g id="edge11" class="edge">
<title>40-&gt;50</title>
<path fill="none" stroke="black" d="M2395.58,-576.85C2500.45,-561.57 2656.37,-538.85 2789.56,-519.44"/>
<polygon fill="black" stroke="black" points="2789.85,-522.93 2799.24,-518.03 2788.84,-516 2789.85,-522.93"/>
<text text-anchor="middle" x="2669.4" y="-539.27" font-family="Times,serif" font-size="14.00">Ja</text>
</g>
<!-- A05 -->
<g id="node13" class="node">
<title>A05</title>
<polygon fill="#cfb986" stroke="black" points="3213.02,-390.79 2580.28,-390.79 2580.28,-341.27 3213.02,-341.27 3213.02,-390.79"/>
<text text-anchor="start" x="2881.65" y="-372.73" font-family="Times,serif" font-weight="bold" font-size="14.00">A05</text>
<text text-anchor="start" x="2592.53" y="-360.63" font-family="Times,serif" text-decoration="underline" font-size="12.00">Hinweis:</text>
<text text-anchor="start" x="2592.53" y="-348.63" font-family="Times,serif" font-size="12.00">Mindestens ein Betrag der Stornorechnung passt nicht zu dem Betrag der urspr&#252;nglichen Rechnung.</text>
</g>
<!-- 50&#45;&gt;A05 -->
<g id="edge12" class="edge">
<title>50-&gt;A05</title>
<path fill="none" stroke="black" d="M3000.14,-443.73C2980.28,-429.01 2957.52,-412.14 2938.42,-397.98"/>
<polygon fill="black" stroke="black" points="2940.69,-395.31 2930.57,-392.17 2936.52,-400.94 2940.69,-395.31"/>
<text text-anchor="middle" x="2989.53" y="-412.74" font-family="Times,serif" font-size="14.00">Nein</text>
</g>
<!-- 60 -->
<g id="node14" class="node">
<title>60</title>
<path fill="#7aab8a" stroke="black" d="M3651.8,-384.03C3651.8,-384.03 3243.5,-384.03 3243.5,-384.03 3237.5,-384.03 3231.5,-378.03 3231.5,-372.03 3231.5,-372.03 3231.5,-360.03 3231.5,-360.03 3231.5,-354.03 3237.5,-348.03 3243.5,-348.03 3243.5,-348.03 3651.8,-348.03 3651.8,-348.03 3657.8,-348.03 3663.8,-354.03 3663.8,-360.03 3663.8,-360.03 3663.8,-372.03 3663.8,-372.03 3663.8,-378.03 3657.8,-384.03 3651.8,-384.03"/>
<text text-anchor="start" x="3245.9" y="-362.35" font-family="Times,serif" font-weight="bold" font-size="14.00">60: </text>
<text text-anchor="start" x="3275.15" y="-362.35" font-family="Times,serif" font-size="14.00">Ist ein zuvor nicht spezifizierter Fehler aufgetreten?</text>
</g>
<!-- 50&#45;&gt;60 -->
<g id="edge13" class="edge">
<title>50-&gt;60</title>
<path fill="none" stroke="black" d="M3176.54,-443.57C3242.15,-425.05 3319.66,-403.16 3374.97,-387.55"/>
<polygon fill="black" stroke="black" points="3375.59,-391.01 3384.27,-384.93 3373.69,-384.27 3375.59,-391.01"/>
<text text-anchor="middle" x="3302.4" y="-412.74" font-family="Times,serif" font-size="14.00">Ja</text>
</g>
<!-- A99 -->
<g id="node15" class="node">
<title>A99</title>
<polygon fill="#cfb986" stroke="black" points="3552.14,-288.02 3097.16,-288.02 3097.16,-178.5 3552.14,-178.5 3552.14,-288.02"/>
<text text-anchor="start" x="3309.65" y="-269.96" font-family="Times,serif" font-weight="bold" font-size="14.00">A99</text>
<text text-anchor="start" x="3109.4" y="-257.86" font-family="Times,serif" text-decoration="underline" font-size="12.00">Hinweis:</text>
<text text-anchor="start" x="3109.4" y="-245.86" font-family="Times,serif" font-size="12.00">Ablehnung Sonstiges</text>
<text text-anchor="start" x="3109.4" y="-221.86" font-family="Times,serif" font-size="12.00">Hinweis: </text>
<text text-anchor="start" x="3109.4" y="-197.86" font-family="Times,serif" font-size="12.00">Das identifizierte Problem ist in der Antwort zu beschreiben/benennen. </text>
<text text-anchor="start" x="3109.4" y="-185.86" font-family="Times,serif" font-size="12.00">Nutzungsm&#246;glichkeit Ende: 01.04.2026 00:00 Uhr</text>
</g>
<!-- 60&#45;&gt;A99 -->
<g id="edge14" class="edge">
<title>60-&gt;A99</title>
<path fill="none" stroke="black" d="M3431.32,-347.66C3418.91,-334.47 3401.03,-315.46 3383.45,-296.77"/>
<polygon fill="black" stroke="black" points="3386.12,-294.5 3376.72,-289.62 3381.02,-299.3 3386.12,-294.5"/>
<text text-anchor="middle" x="3415.4" y="-309.97" font-family="Times,serif" font-size="14.00">Ja</text>
</g>
<!-- 70 -->
<g id="node16" class="node">
<title>70</title>
<path fill="#7aab8a" stroke="black" d="M3977.05,-251.26C3977.05,-251.26 3582.25,-251.26 3582.25,-251.26 3576.25,-251.26 3570.25,-245.26 3570.25,-239.26 3570.25,-239.26 3570.25,-227.26 3570.25,-227.26 3570.25,-221.26 3576.25,-215.26 3582.25,-215.26 3582.25,-215.26 3977.05,-215.26 3977.05,-215.26 3983.05,-215.26 3989.05,-221.26 3989.05,-227.26 3989.05,-227.26 3989.05,-239.26 3989.05,-239.26 3989.05,-245.26 3983.05,-251.26 3977.05,-251.26"/>
<text text-anchor="start" x="3584.65" y="-229.58" font-family="Times,serif" font-weight="bold" font-size="14.00">70: </text>
<text text-anchor="start" x="3613.9" y="-229.58" font-family="Times,serif" font-size="14.00">Wurde der urspr&#252;nglichen Rechnung zugestimmt?</text>
</g>
<!-- 60&#45;&gt;70 -->
<g id="edge15" class="edge">
<title>60-&gt;70</title>
<path fill="none" stroke="black" d="M3491.74,-347.66C3551.89,-323.97 3659.64,-281.53 3724.89,-255.83"/>
<polygon fill="black" stroke="black" points="3725.95,-259.17 3733.97,-252.25 3723.39,-252.66 3725.95,-259.17"/>
<text text-anchor="middle" x="3611.53" y="-309.97" font-family="Times,serif" font-size="14.00">Nein</text>
</g>
<!-- Ende -->
<g id="node17" class="node">
<title>Ende</title>
<polygon fill="#7a8da1" stroke="black" points="3763.43,-36 3697.88,-36 3697.88,0 3763.43,0 3763.43,-36"/>
<text text-anchor="middle" x="3730.65" y="-13.32" font-family="Times,serif" font-size="14.00">Ende</text>
</g>
<!-- 70&#45;&gt;Ende -->
<g id="edge16" class="edge">
<title>70-&gt;Ende</title>
<path fill="none" stroke="black" d="M3767.19,-214.76C3753.53,-194.4 3732.43,-159.2 3724.15,-125.25 3717.83,-99.35 3720.7,-68.89 3724.41,-47.24"/>
<polygon fill="black" stroke="black" points="3727.79,-48.17 3726.22,-37.69 3720.92,-46.87 3727.79,-48.17"/>
<text text-anchor="middle" x="3731.4" y="-102.58" font-family="Times,serif" font-size="14.00">Ja</text>
</g>
<!-- 80 -->
<g id="node18" class="node">
<title>80</title>
<path fill="#7aab8a" stroke="black" d="M4128.68,-125.25C4128.68,-125.25 3758.62,-125.25 3758.62,-125.25 3752.62,-125.25 3746.62,-119.25 3746.62,-113.25 3746.62,-113.25 3746.62,-101.25 3746.62,-101.25 3746.62,-95.25 3752.62,-89.25 3758.62,-89.25 3758.62,-89.25 4128.68,-89.25 4128.68,-89.25 4134.68,-89.25 4140.68,-95.25 4140.68,-101.25 4140.68,-101.25 4140.68,-113.25 4140.68,-113.25 4140.68,-119.25 4134.68,-125.25 4128.68,-125.25"/>
<text text-anchor="start" x="3761.03" y="-103.58" font-family="Times,serif" font-weight="bold" font-size="14.00">80: </text>
<text text-anchor="start" x="3790.28" y="-103.58" font-family="Times,serif" font-size="14.00">Wurde die urspr&#252;ngliche Rechnung abgelehnt?</text>
</g>
<!-- 70&#45;&gt;80 -->
<g id="edge17" class="edge">
<title>70-&gt;80</title>
<path fill="none" stroke="black" d="M3802.45,-215.02C3830.81,-193.57 3879.39,-156.84 3911.52,-132.55"/>
<polygon fill="black" stroke="black" points="3913.44,-135.48 3919.3,-126.66 3909.22,-129.9 3913.44,-135.48"/>
<text text-anchor="middle" x="3911.53" y="-147.2" font-family="Times,serif" font-size="14.00">Nein</text>
</g>
<!-- 80&#45;&gt;Ende -->
<g id="edge18" class="edge">
<title>80-&gt;Ende</title>
<path fill="none" stroke="black" d="M3901.06,-88.8C3864.26,-73.73 3811.32,-52.04 3774.23,-36.85"/>
<polygon fill="black" stroke="black" points="3775.73,-33.68 3765.15,-33.13 3773.08,-40.16 3775.73,-33.68"/>
<text text-anchor="middle" x="3872.53" y="-57.95" font-family="Times,serif" font-size="14.00">Nein</text>
</g>
</g>
</svg>
  </g>
</svg>
  </g>
</svg>
