<?xml version='1.0' encoding='ASCII' standalone='yes'?>
<svg xmlns="http://www.w3.org/2000/svg" xmlns:xlink="http://www.w3.org/1999/xlink" version="1.1" width="1584.0px" viewBox="0 0 1584.0 924.0" height="924.0px">
  <g>
    <svg version="1.1" width="1584.0px" viewBox="0 0 1584.0 924.0" height="924.0px">
  <polygon fill="#f3f1f6" points="0,0 1584.0,0 1584.0,924.0 0,924.0"/><g>
    <g transform="translate(415.19222754153753, 92.39999999999998) scale(1 1) translate(0, 0) scale(1.3010419600112646 1.3010419600112646) "><!-- note that I manually added the width and height attribute to the root node
  https://chatgpt.com/share/678e3028-70cc-800b-a296-782714735772
  -->
  <defs>
    <style>.cls-1{fill:#fff;}</style>
  </defs>
  <path class="cls-1" d="M122.44,531.2h-56.1c-11,0-19.9-9.12-19.46-20.11C57.47,243.89,278.15,29.78,547.91,29.78v56.02c0,10.98-8.69,19.89-19.66,20.39-225.51,10.31-405.8,197-405.8,425Z"/>
  <path class="cls-1" d="M273.78,531.2h-55.93c-11.23,0-20.09-9.48-19.43-20.69,10.74-183.44,163.39-329.39,349.48-329.39v56.26c0,10.71-8.27,19.62-18.96,20.35-142.35,9.77-255.17,128.69-255.17,273.46Z"/>
  <path class="cls-1" d="M425.77,531.2h-55.45c-11.65,0-20.6-10.17-19.33-21.75,10.87-99.03,95.03-176.34,196.92-176.34v57.01c0,10.05-7.28,18.75-17.23,20.16-59.22,8.4-104.91,59.42-104.91,120.92Z"/>
</g>
    <svg width="1188pt" height="693pt" viewBox="0.00 0.00 1187.64 693.36">
<g id="graph0" class="graph" transform="scale(1 1) rotate(0) translate(4 689.36)">
<title>D</title>
<text text-anchor="start" x="137.57" y="-665.26" font-family="Times,serif" font-weight="bold" font-size="18.00">Redispatch 2.0</text>
<text text-anchor="start" x="137.57" y="-635.16" font-family="Times,serif" font-weight="bold" font-size="16.00">15.2.2: AD: Ermittlung und Abstimmung der abrechnungsrelevanten Ausfallarbeit &#8211; Planwertmodell</text>
<!-- Start -->
<g id="node1" class="node">
<title>Start</title>
<path fill="#7a8da1" stroke="black" stroke-width="0" d="M452.39,-587.36C452.39,-587.36 308.84,-587.36 308.84,-587.36 302.84,-587.36 296.84,-581.36 296.84,-575.36 296.84,-575.36 296.84,-556.08 296.84,-556.08 296.84,-550.08 302.84,-544.08 308.84,-544.08 308.84,-544.08 452.39,-544.08 452.39,-544.08 458.39,-544.08 464.39,-550.08 464.39,-556.08 464.39,-556.08 464.39,-575.36 464.39,-575.36 464.39,-581.36 458.39,-587.36 452.39,-587.36"/>
<text text-anchor="start" x="352.49" y="-566.42" font-family="Times,serif" font-weight="bold" font-size="14.00">E_0903</text>
<text text-anchor="start" x="311.24" y="-554.32" font-family="Times,serif" font-weight="bold" text-decoration="underline" font-size="12.00">Pr&#252;fende Rolle:</text>
<text text-anchor="start" x="416.24" y="-554.32" font-family="Times,serif" font-weight="bold" font-size="12.00"> BTR</text>
</g>
<!-- 1 -->
<g id="node2" class="node">
<title>1</title>
<path fill="#7aab8a" stroke="black" stroke-width="0" d="M630.14,-507.08C630.14,-507.08 131.09,-507.08 131.09,-507.08 125.09,-507.08 119.09,-501.08 119.09,-495.08 119.09,-495.08 119.09,-483.08 119.09,-483.08 119.09,-477.08 125.09,-471.08 131.09,-471.08 131.09,-471.08 630.14,-471.08 630.14,-471.08 636.14,-471.08 642.14,-477.08 642.14,-483.08 642.14,-483.08 642.14,-495.08 642.14,-495.08 642.14,-501.08 636.14,-507.08 630.14,-507.08"/>
<text text-anchor="start" x="133.49" y="-485.4" font-family="Times,serif" font-weight="bold" font-size="14.00">1: </text>
<text text-anchor="start" x="152.99" y="-485.4" font-family="Times,serif" font-size="14.00">Liegt f&#252;r die Ausfallarbeitszeitreihe bereits eine Zustimmung vor?</text>
</g>
<!-- Start&#45;&gt;1 -->
<g id="edge1" class="edge">
<title>Start-&gt;1</title>
<path fill="none" stroke="black" d="M380.62,-544.32C380.62,-536.25 380.62,-526.84 380.62,-518.15"/>
<polygon fill="black" stroke="black" points="384.12,-518.44 380.62,-508.44 377.12,-518.44 384.12,-518.44"/>
</g>
<!-- A01 -->
<g id="node3" class="node">
<title>A01</title>
<path fill="#cfb986" stroke="black" stroke-width="0" d="M295.23,-417.83C295.23,-417.83 12,-417.83 12,-417.83 6,-417.83 0,-411.83 0,-405.83 0,-405.83 0,-368.31 0,-368.31 0,-362.31 6,-356.31 12,-356.31 12,-356.31 295.23,-356.31 295.23,-356.31 301.23,-356.31 307.23,-362.31 307.23,-368.31 307.23,-368.31 307.23,-405.83 307.23,-405.83 307.23,-411.83 301.23,-417.83 295.23,-417.83"/>
<text text-anchor="start" x="12.24" y="-399.77" font-family="Times,serif" font-weight="bold" font-size="14.00">A01</text>
<text text-anchor="start" x="12.24" y="-387.67" font-family="Times,serif" text-decoration="underline" font-size="12.00">Hinweis:</text>
<text text-anchor="start" x="12.24" y="-375.67" font-family="Times,serif" font-size="12.00">Cluster: Ablehnung</text>
<text text-anchor="start" x="12.24" y="-363.67" font-family="Times,serif" font-size="12.00">Ausfallarbeitszeitreihe wurde bereits best&#228;tigt.</text>
</g>
<!-- 1&#45;&gt;A01 -->
<g id="edge2" class="edge">
<title>1-&gt;A01</title>
<path fill="none" stroke="#7aab8a" d="M342.11,-471.11C311.81,-457.77 268.62,-438.74 231.22,-422.26"/>
<polygon fill="#7aab8a" stroke="#7aab8a" points="232.79,-419.13 222.23,-418.3 229.97,-425.53 232.79,-419.13"/>
<text text-anchor="start" x="300.62" y="-440.78" font-family="Times,serif" font-weight="bold" font-size="14.00">JA</text>
</g>
<!-- 2 -->
<g id="node4" class="node">
<title>2</title>
<path fill="#7aab8a" stroke="black" stroke-width="0" d="M929.64,-409.71C929.64,-409.71 337.59,-409.71 337.59,-409.71 331.59,-409.71 325.59,-403.71 325.59,-397.71 325.59,-397.71 325.59,-376.43 325.59,-376.43 325.59,-370.43 331.59,-364.43 337.59,-364.43 337.59,-364.43 929.64,-364.43 929.64,-364.43 935.64,-364.43 941.64,-370.43 941.64,-376.43 941.64,-376.43 941.64,-397.71 941.64,-397.71 941.64,-403.71 935.64,-409.71 929.64,-409.71"/>
<text text-anchor="start" x="339.99" y="-388.77" font-family="Times,serif" font-weight="bold" font-size="14.00">2: </text>
<text text-anchor="start" x="359.49" y="-388.77" font-family="Times,serif" font-size="14.00">Ist der Gegenvorschlag zur Ausfallarbeitszeitreihe innerhalb der vorgegebenen</text>
<text text-anchor="start" x="339.99" y="-374.77" font-family="Times,serif" font-size="14.00">Frist eingegangen?</text>
</g>
<!-- 1&#45;&gt;2 -->
<g id="edge3" class="edge">
<title>1-&gt;2</title>
<path fill="none" stroke="#7aab8a" d="M423.53,-471.11C463.21,-455.43 522.74,-431.9 568.32,-413.88"/>
<polygon fill="#7aab8a" stroke="#7aab8a" points="569.57,-417.15 577.58,-410.22 567,-410.64 569.57,-417.15"/>
<text text-anchor="start" x="506.62" y="-440.78" font-family="Times,serif" font-weight="bold" font-size="14.00">NEIN</text>
</g>
<!-- A02 -->
<g id="node5" class="node">
<title>A02</title>
<path fill="#cfb986" stroke="black" stroke-width="0" d="M483.86,-303.06C483.86,-303.06 363.38,-303.06 363.38,-303.06 357.38,-303.06 351.38,-297.06 351.38,-291.06 351.38,-291.06 351.38,-253.54 351.38,-253.54 351.38,-247.54 357.38,-241.54 363.38,-241.54 363.38,-241.54 483.86,-241.54 483.86,-241.54 489.86,-241.54 495.86,-247.54 495.86,-253.54 495.86,-253.54 495.86,-291.06 495.86,-291.06 495.86,-297.06 489.86,-303.06 483.86,-303.06"/>
<text text-anchor="start" x="363.62" y="-285" font-family="Times,serif" font-weight="bold" font-size="14.00">A02</text>
<text text-anchor="start" x="363.62" y="-272.9" font-family="Times,serif" text-decoration="underline" font-size="12.00">Hinweis:</text>
<text text-anchor="start" x="363.62" y="-260.9" font-family="Times,serif" font-size="12.00">Cluster: Ablehnung</text>
<text text-anchor="start" x="363.62" y="-248.9" font-family="Times,serif" font-size="12.00">Frist&#252;berschreitung</text>
</g>
<!-- 2&#45;&gt;A02 -->
<g id="edge4" class="edge">
<title>2-&gt;A02</title>
<path fill="none" stroke="#7aab8a" d="M593.62,-364.59C564.05,-348.71 523.14,-326.75 488.87,-308.34"/>
<polygon fill="#7aab8a" stroke="#7aab8a" points="490.73,-305.37 480.26,-303.72 487.41,-311.53 490.73,-305.37"/>
<text text-anchor="start" x="540.62" y="-326.01" font-family="Times,serif" font-weight="bold" font-size="14.00">NEIN</text>
</g>
<!-- 3 -->
<g id="node6" class="node">
<title>3</title>
<path fill="#7aab8a" stroke="black" stroke-width="0" d="M1017.01,-290.3C1017.01,-290.3 526.22,-290.3 526.22,-290.3 520.22,-290.3 514.22,-284.3 514.22,-278.3 514.22,-278.3 514.22,-266.3 514.22,-266.3 514.22,-260.3 520.22,-254.3 526.22,-254.3 526.22,-254.3 1017.01,-254.3 1017.01,-254.3 1023.01,-254.3 1029.01,-260.3 1029.01,-266.3 1029.01,-266.3 1029.01,-278.3 1029.01,-278.3 1029.01,-284.3 1023.01,-290.3 1017.01,-290.3"/>
<text text-anchor="start" x="528.62" y="-268.62" font-family="Times,serif" font-weight="bold" font-size="14.00">3: </text>
<text text-anchor="start" x="548.12" y="-268.62" font-family="Times,serif" font-size="14.00">Liegt bereits ein Gegenvorschlag zur Ausfallarbeitszeitreihe vor?</text>
</g>
<!-- 2&#45;&gt;3 -->
<g id="edge5" class="edge">
<title>2-&gt;3</title>
<path fill="none" stroke="#7aab8a" d="M659.9,-364.59C683.33,-345.44 717.61,-317.43 742.01,-297.49"/>
<polygon fill="#7aab8a" stroke="#7aab8a" points="744.13,-300.28 749.66,-291.24 739.7,-294.86 744.13,-300.28"/>
<text text-anchor="start" x="710.62" y="-326.01" font-family="Times,serif" font-weight="bold" font-size="14.00">JA</text>
</g>
<!-- A03 -->
<g id="node7" class="node">
<title>A03</title>
<path fill="#cfb986" stroke="black" stroke-width="0" d="M545.73,-188.29C545.73,-188.29 121.5,-188.29 121.5,-188.29 115.5,-188.29 109.5,-182.29 109.5,-176.29 109.5,-176.29 109.5,-126.77 109.5,-126.77 109.5,-120.77 115.5,-114.77 121.5,-114.77 121.5,-114.77 545.73,-114.77 545.73,-114.77 551.73,-114.77 557.73,-120.77 557.73,-126.77 557.73,-126.77 557.73,-176.29 557.73,-176.29 557.73,-182.29 551.73,-188.29 545.73,-188.29"/>
<text text-anchor="start" x="121.74" y="-170.23" font-family="Times,serif" font-weight="bold" font-size="14.00">A03</text>
<text text-anchor="start" x="121.74" y="-158.13" font-family="Times,serif" text-decoration="underline" font-size="12.00">Hinweis:</text>
<text text-anchor="start" x="121.74" y="-146.13" font-family="Times,serif" font-size="12.00">Cluster: Ablehnung</text>
<text text-anchor="start" x="121.74" y="-134.13" font-family="Times,serif" font-size="12.00">Gegenvorschlag liegt bereits vor</text>
<text text-anchor="start" x="121.74" y="-122.13" font-family="Times,serif" font-size="12.00">Hinweis: Ein weiterer Gegenvorschlag kann nicht eingereicht werden.</text>
</g>
<!-- 3&#45;&gt;A03 -->
<g id="edge6" class="edge">
<title>3-&gt;A03</title>
<path fill="none" stroke="#7aab8a" d="M709.33,-254.41C648.87,-238.02 554.96,-212.55 476.16,-191.18"/>
<polygon fill="#7aab8a" stroke="#7aab8a" points="477.17,-187.83 466.61,-188.59 475.34,-194.59 477.17,-187.83"/>
<text text-anchor="start" x="591.62" y="-211.24" font-family="Times,serif" font-weight="bold" font-size="14.00">JA</text>
</g>
<!-- 4 -->
<g id="node8" class="node">
<title>4</title>
<path fill="#7aab8a" stroke="black" stroke-width="0" d="M1167.64,-174.17C1167.64,-174.17 587.59,-174.17 587.59,-174.17 581.59,-174.17 575.59,-168.17 575.59,-162.17 575.59,-162.17 575.59,-140.89 575.59,-140.89 575.59,-134.89 581.59,-128.89 587.59,-128.89 587.59,-128.89 1167.64,-128.89 1167.64,-128.89 1173.64,-128.89 1179.64,-134.89 1179.64,-140.89 1179.64,-140.89 1179.64,-162.17 1179.64,-162.17 1179.64,-168.17 1173.64,-174.17 1167.64,-174.17"/>
<text text-anchor="start" x="589.99" y="-153.23" font-family="Times,serif" font-weight="bold" font-size="14.00">4: </text>
<text text-anchor="start" x="609.49" y="-153.23" font-family="Times,serif" font-size="14.00">K&#246;nnen die Energiemengen des Gegenvorschlages zur Ausfallarbeitszeitreihe</text>
<text text-anchor="start" x="589.99" y="-139.23" font-family="Times,serif" font-size="14.00">akzeptiert werden?</text>
</g>
<!-- 3&#45;&gt;4 -->
<g id="edge7" class="edge">
<title>3-&gt;4</title>
<path fill="none" stroke="#7aab8a" d="M786.58,-254.54C803.28,-235.82 830.62,-205.18 850.99,-182.36"/>
<polygon fill="#7aab8a" stroke="#7aab8a" points="853.37,-184.96 857.41,-175.16 848.14,-180.29 853.37,-184.96"/>
<text text-anchor="start" x="827.62" y="-211.24" font-family="Times,serif" font-weight="bold" font-size="14.00">NEIN</text>
</g>
<!-- A04 -->
<g id="node9" class="node">
<title>A04</title>
<path fill="#cfb986" stroke="black" stroke-width="0" d="M883.48,-61.52C883.48,-61.52 649.75,-61.52 649.75,-61.52 643.75,-61.52 637.75,-55.52 637.75,-49.52 637.75,-49.52 637.75,-12 637.75,-12 637.75,-6 643.75,0 649.75,0 649.75,0 883.48,0 883.48,0 889.48,0 895.48,-6 895.48,-12 895.48,-12 895.48,-49.52 895.48,-49.52 895.48,-55.52 889.48,-61.52 883.48,-61.52"/>
<text text-anchor="start" x="649.99" y="-43.46" font-family="Times,serif" font-weight="bold" font-size="14.00">A04</text>
<text text-anchor="start" x="649.99" y="-31.36" font-family="Times,serif" text-decoration="underline" font-size="12.00">Hinweis:</text>
<text text-anchor="start" x="649.99" y="-19.36" font-family="Times,serif" font-size="12.00">Cluster: Ablehnung</text>
<text text-anchor="start" x="649.99" y="-7.36" font-family="Times,serif" font-size="12.00">Energiemengen falsch / nicht plausibel</text>
</g>
<!-- 4&#45;&gt;A04 -->
<g id="edge8" class="edge">
<title>4-&gt;A04</title>
<path fill="none" stroke="#7aab8a" d="M857.51,-129.02C841.99,-112.41 820.12,-89.01 801.73,-69.33"/>
<polygon fill="#7aab8a" stroke="#7aab8a" points="804.5,-67.17 795.12,-62.26 799.39,-71.95 804.5,-67.17"/>
<text text-anchor="start" x="824.62" y="-84.47" font-family="Times,serif" font-weight="bold" font-size="14.00">NEIN</text>
</g>
<!-- A05 -->
<g id="node10" class="node">
<title>A05</title>
<path fill="#cfb986" stroke="black" stroke-width="0" d="M1051.86,-61.52C1051.86,-61.52 925.38,-61.52 925.38,-61.52 919.38,-61.52 913.38,-55.52 913.38,-49.52 913.38,-49.52 913.38,-12 913.38,-12 913.38,-6 919.38,0 925.38,0 925.38,0 1051.86,0 1051.86,0 1057.86,0 1063.86,-6 1063.86,-12 1063.86,-12 1063.86,-49.52 1063.86,-49.52 1063.86,-55.52 1057.86,-61.52 1051.86,-61.52"/>
<text text-anchor="start" x="925.62" y="-43.46" font-family="Times,serif" font-weight="bold" font-size="14.00">A05</text>
<text text-anchor="start" x="925.62" y="-31.36" font-family="Times,serif" text-decoration="underline" font-size="12.00">Hinweis:</text>
<text text-anchor="start" x="925.62" y="-19.36" font-family="Times,serif" font-size="12.00">Cluster: Zustimmung</text>
<text text-anchor="start" x="925.62" y="-7.36" font-family="Times,serif" font-size="12.00">Zustimmung</text>
</g>
<!-- 4&#45;&gt;A05 -->
<g id="edge9" class="edge">
<title>4-&gt;A05</title>
<path fill="none" stroke="#7aab8a" d="M897.72,-129.02C913.24,-112.41 935.11,-89.01 953.5,-69.33"/>
<polygon fill="#7aab8a" stroke="#7aab8a" points="955.84,-71.95 960.11,-62.26 950.73,-67.17 955.84,-71.95"/>
<text text-anchor="start" x="942.62" y="-84.47" font-family="Times,serif" font-weight="bold" font-size="14.00">JA</text>
</g>
</g>
</svg>
  </g>
</svg>
  </g>
</svg>
