<?xml version='1.0' encoding='ASCII' standalone='yes'?>
<svg xmlns="http://www.w3.org/2000/svg" xmlns:xlink="http://www.w3.org/1999/xlink" version="1.1" width="1602.6666666666667px" viewBox="0 0 1602.6666666666667 872.0" height="872.0px">
  <g>
    <svg version="1.1" width="1602.6666666666667px" viewBox="0 0 1602.6666666666667 872.0" height="872.0px">
  <rect fill="#e7e6e5" x="0" y="0" width="1602.6666666666667" height="872.0" rx="20" ry="20"/><g>
    <g transform="translate(445.73119309114804, 87.19999999999997) scale(1 1) translate(0, 0) scale(1.227823148408899 1.227823148408899) "><!-- note that I manually added the width and height attribute to the root node
  https://chatgpt.com/share/678e3028-70cc-800b-a296-782714735772
  -->
  <defs>
    <style>.cls-1{fill:#fff;}</style>
  </defs>
  <path class="cls-1" d="M122.44,531.2h-56.1c-11,0-19.9-9.12-19.46-20.11C57.47,243.89,278.15,29.78,547.91,29.78v56.02c0,10.98-8.69,19.89-19.66,20.39-225.51,10.31-405.8,197-405.8,425Z"/>
  <path class="cls-1" d="M273.78,531.2h-55.93c-11.23,0-20.09-9.48-19.43-20.69,10.74-183.44,163.39-329.39,349.48-329.39v56.26c0,10.71-8.27,19.62-18.96,20.35-142.35,9.77-255.17,128.69-255.17,273.46Z"/>
  <path class="cls-1" d="M425.77,531.2h-55.45c-11.65,0-20.6-10.17-19.33-21.75,10.87-99.03,95.03-176.34,196.92-176.34v57.01c0,10.05-7.28,18.75-17.23,20.16-59.22,8.4-104.91,59.42-104.91,120.92Z"/>
</g>
    <svg width="1202pt" height="654pt" viewBox="0.00 0.00 1202.18 653.65">
<g id="graph0" class="graph" transform="scale(1 1) rotate(0) translate(4 649.65)">
<title>D</title>
<text text-anchor="start" x="148.59" y="-625.55" font-family="Roboto, sans-serif" font-weight="bold" font-size="18.00">Redispatch 2.0</text>
<text text-anchor="start" x="148.59" y="-597.45" font-family="Roboto, sans-serif" font-weight="bold" font-size="16.00">15.1.2: AD: Ermittlung und Abstimmung der abrechnungsrelevanten Ausfallarbeit &#8211; Prognosemodell</text>
<!-- Start -->
<g id="node1" class="node">
<title>Start</title>
<path fill="#8ba2d7" stroke="black" stroke-width="0" d="M453.8,-555.65C453.8,-555.65 317,-555.65 317,-555.65 311,-555.65 305,-549.65 305,-543.65 305,-543.65 305,-522.37 305,-522.37 305,-516.37 311,-510.37 317,-510.37 317,-510.37 453.8,-510.37 453.8,-510.37 459.8,-510.37 465.8,-516.37 465.8,-522.37 465.8,-522.37 465.8,-543.65 465.8,-543.65 465.8,-549.65 459.8,-555.65 453.8,-555.65"/>
<text text-anchor="start" x="319.4" y="-534.71" font-family="Roboto, sans-serif" font-weight="bold" font-size="14.00">E_0901</text>
<text text-anchor="start" x="319.4" y="-520.71" font-family="Roboto, sans-serif" font-size="14.00">Pr&#252;fende Rolle: </text>
<text text-anchor="start" x="428.9" y="-520.71" font-family="Roboto, sans-serif" font-weight="bold" font-size="14.00">NB</text>
</g>
<!-- 1 -->
<g id="node2" class="node">
<title>1</title>
<path fill="#c2cee9" stroke="black" stroke-width="0" d="M625.92,-473.37C625.92,-473.37 144.88,-473.37 144.88,-473.37 138.88,-473.37 132.87,-467.37 132.87,-461.37 132.87,-461.37 132.87,-449.37 132.87,-449.37 132.87,-443.37 138.87,-437.37 144.87,-437.37 144.87,-437.37 625.92,-437.37 625.92,-437.37 631.92,-437.37 637.92,-443.37 637.92,-449.37 637.92,-449.37 637.92,-461.37 637.92,-461.37 637.92,-467.37 631.92,-473.37 625.92,-473.37"/>
<text text-anchor="start" x="147.27" y="-451.69" font-family="Roboto, sans-serif" font-weight="bold" font-size="14.00">1: </text>
<text text-anchor="start" x="166.77" y="-451.69" font-family="Roboto, sans-serif" font-size="14.00">Liegt f&#252;r die Ausfallarbeitszeitreihe bereits eine Zustimmung vor?</text>
</g>
<!-- Start&#45;&gt;1 -->
<g id="edge1" class="edge">
<title>Start-&gt;1</title>
<path fill="none" stroke="#88a0d6" d="M385.4,-510.54C385.4,-502.46 385.4,-493.16 385.4,-484.56"/>
<polygon fill="#88a0d6" stroke="#88a0d6" points="388.9,-484.6 385.4,-474.6 381.9,-484.6 388.9,-484.6"/>
</g>
<!-- A01 -->
<g id="node3" class="node">
<title>A01</title>
<path fill="#c4cac1" stroke="black" stroke-width="0" d="M340.8,-384.12C340.8,-384.12 12,-384.12 12,-384.12 6,-384.12 0,-378.12 0,-372.12 0,-372.12 0,-344.34 0,-344.34 0,-338.34 6,-332.34 12,-332.34 12,-332.34 340.8,-332.34 340.8,-332.34 346.8,-332.34 352.8,-338.34 352.8,-344.34 352.8,-344.34 352.8,-372.12 352.8,-372.12 352.8,-378.12 346.8,-384.12 340.8,-384.12"/>
<text text-anchor="start" x="14.4" y="-362.18" font-family="Roboto, sans-serif" font-size="14.00">Cluster: Ablehnung</text>
<text text-anchor="start" x="14.4" y="-344.93" font-family="Roboto, sans-serif" font-size="14.00">Ausfallarbeitszeitreihe wurde bereits best&#228;tigt.</text>
</g>
<!-- 1&#45;&gt;A01 -->
<g id="edge2" class="edge">
<title>1-&gt;A01</title>
<path fill="none" stroke="#88a0d6" d="M348.52,-437.58C318.87,-424.08 276.49,-404.79 241.2,-388.73"/>
<polygon fill="#88a0d6" stroke="#88a0d6" points="242.91,-385.66 232.36,-384.7 240.01,-392.03 242.91,-385.66"/>
<text text-anchor="start" x="305.4" y="-407.07" font-family="Roboto, sans-serif" font-weight="bold" font-size="14.00">JA</text>
</g>
<!-- 2 -->
<g id="node4" class="node">
<title>2</title>
<path fill="#c2cee9" stroke="black" stroke-width="0" d="M956.42,-380.87C956.42,-380.87 382.38,-380.87 382.38,-380.87 376.38,-380.87 370.38,-374.87 370.38,-368.87 370.38,-368.87 370.38,-347.59 370.38,-347.59 370.38,-341.59 376.38,-335.59 382.38,-335.59 382.38,-335.59 956.42,-335.59 956.42,-335.59 962.42,-335.59 968.42,-341.59 968.42,-347.59 968.42,-347.59 968.42,-368.87 968.42,-368.87 968.42,-374.87 962.42,-380.87 956.42,-380.87"/>
<text text-anchor="start" x="384.77" y="-359.93" font-family="Roboto, sans-serif" font-weight="bold" font-size="14.00">2: </text>
<text text-anchor="start" x="404.27" y="-359.93" font-family="Roboto, sans-serif" font-size="14.00">Ist der Gegenvorschlag zur Ausfallarbeitszeitreihe innerhalb der vorgegebenen</text>
<text text-anchor="start" x="384.77" y="-345.93" font-family="Roboto, sans-serif" font-size="14.00">Frist eingegangen?</text>
</g>
<!-- 1&#45;&gt;2 -->
<g id="edge3" class="edge">
<title>1-&gt;2</title>
<path fill="none" stroke="#88a0d6" d="M435.85,-437.47C479.8,-422.75 544.16,-401.19 594.19,-384.42"/>
<polygon fill="#88a0d6" stroke="#88a0d6" points="595.16,-387.79 603.53,-381.3 592.93,-381.16 595.16,-387.79"/>
<text text-anchor="start" x="535.4" y="-407.07" font-family="Roboto, sans-serif" font-weight="bold" font-size="14.00">NEIN</text>
</g>
<!-- A02 -->
<g id="node5" class="node">
<title>A02</title>
<path fill="#c4cac1" stroke="black" stroke-width="0" d="M525.3,-279.09C525.3,-279.09 385.5,-279.09 385.5,-279.09 379.5,-279.09 373.5,-273.09 373.5,-267.09 373.5,-267.09 373.5,-239.31 373.5,-239.31 373.5,-233.31 379.5,-227.31 385.5,-227.31 385.5,-227.31 525.3,-227.31 525.3,-227.31 531.3,-227.31 537.3,-233.31 537.3,-239.31 537.3,-239.31 537.3,-267.09 537.3,-267.09 537.3,-273.09 531.3,-279.09 525.3,-279.09"/>
<text text-anchor="start" x="387.9" y="-257.15" font-family="Roboto, sans-serif" font-size="14.00">Cluster: Ablehnung</text>
<text text-anchor="start" x="387.9" y="-239.9" font-family="Roboto, sans-serif" font-size="14.00">Frist&#252;berschreitung</text>
</g>
<!-- 2&#45;&gt;A02 -->
<g id="edge4" class="edge">
<title>2-&gt;A02</title>
<path fill="none" stroke="#88a0d6" d="M624.54,-335.63C593.3,-320.59 551.26,-300.35 516.9,-283.81"/>
<polygon fill="#88a0d6" stroke="#88a0d6" points="518.87,-280.87 508.34,-279.69 515.83,-287.18 518.87,-280.87"/>
<text text-anchor="start" x="574.4" y="-302.04" font-family="Roboto, sans-serif" font-weight="bold" font-size="14.00">NEIN</text>
</g>
<!-- 3 -->
<g id="node6" class="node">
<title>3</title>
<path fill="#c2cee9" stroke="black" stroke-width="0" d="M1039.8,-271.2C1039.8,-271.2 567,-271.2 567,-271.2 561,-271.2 555,-265.2 555,-259.2 555,-259.2 555,-247.2 555,-247.2 555,-241.2 561,-235.2 567,-235.2 567,-235.2 1039.8,-235.2 1039.8,-235.2 1045.8,-235.2 1051.8,-241.2 1051.8,-247.2 1051.8,-247.2 1051.8,-259.2 1051.8,-259.2 1051.8,-265.2 1045.8,-271.2 1039.8,-271.2"/>
<text text-anchor="start" x="569.4" y="-249.52" font-family="Roboto, sans-serif" font-weight="bold" font-size="14.00">3: </text>
<text text-anchor="start" x="588.9" y="-249.52" font-family="Roboto, sans-serif" font-size="14.00">Liegt bereits ein Gegenvorschlag zur Ausfallarbeitszeitreihe vor?</text>
</g>
<!-- 2&#45;&gt;3 -->
<g id="edge5" class="edge">
<title>2-&gt;3</title>
<path fill="none" stroke="#88a0d6" d="M697.49,-335.63C719.48,-318.72 750.03,-295.24 772.66,-277.83"/>
<polygon fill="#88a0d6" stroke="#88a0d6" points="774.54,-280.81 780.33,-271.94 770.27,-275.26 774.54,-280.81"/>
<text text-anchor="start" x="744.4" y="-302.04" font-family="Roboto, sans-serif" font-weight="bold" font-size="14.00">JA</text>
</g>
<!-- A03 -->
<g id="node7" class="node">
<title>A03</title>
<path fill="#c4cac1" stroke="black" stroke-width="0" d="M576.55,-174.06C576.55,-174.06 90.25,-174.06 90.25,-174.06 84.25,-174.06 78.25,-168.06 78.25,-162.06 78.25,-162.06 78.25,-117.03 78.25,-117.03 78.25,-111.03 84.25,-105.03 90.25,-105.03 90.25,-105.03 576.55,-105.03 576.55,-105.03 582.55,-105.03 588.55,-111.03 588.55,-117.03 588.55,-117.03 588.55,-162.06 588.55,-162.06 588.55,-168.06 582.55,-174.06 576.55,-174.06"/>
<text text-anchor="start" x="92.65" y="-152.12" font-family="Roboto, sans-serif" font-size="14.00">Cluster: Ablehnung</text>
<text text-anchor="start" x="92.65" y="-134.87" font-family="Roboto, sans-serif" font-size="14.00">Gegenvorschlag liegt bereits vor</text>
<text text-anchor="start" x="92.65" y="-117.62" font-family="Roboto, sans-serif" font-size="14.00">Hinweis: Ein weiterer Gegenvorschlag kann nicht eingereicht werden.</text>
</g>
<!-- 3&#45;&gt;A03 -->
<g id="edge6" class="edge">
<title>3-&gt;A03</title>
<path fill="none" stroke="#88a0d6" d="M732.02,-235.24C666.77,-219.74 568.11,-196.3 485.27,-176.62"/>
<polygon fill="#88a0d6" stroke="#88a0d6" points="486.22,-173.25 475.68,-174.35 484.6,-180.06 486.22,-173.25"/>
<text text-anchor="start" x="610.4" y="-197.01" font-family="Roboto, sans-serif" font-weight="bold" font-size="14.00">JA</text>
</g>
<!-- 4 -->
<g id="node8" class="node">
<title>4</title>
<path fill="#c2cee9" stroke="black" stroke-width="0" d="M1182.17,-162.19C1182.17,-162.19 618.62,-162.19 618.62,-162.19 612.62,-162.19 606.62,-156.19 606.62,-150.19 606.62,-150.19 606.62,-128.91 606.62,-128.91 606.62,-122.91 612.62,-116.91 618.62,-116.91 618.62,-116.91 1182.17,-116.91 1182.17,-116.91 1188.17,-116.91 1194.17,-122.91 1194.17,-128.91 1194.17,-128.91 1194.17,-150.19 1194.17,-150.19 1194.17,-156.19 1188.17,-162.19 1182.17,-162.19"/>
<text text-anchor="start" x="621.02" y="-141.25" font-family="Roboto, sans-serif" font-weight="bold" font-size="14.00">4: </text>
<text text-anchor="start" x="640.52" y="-141.25" font-family="Roboto, sans-serif" font-size="14.00">K&#246;nnen die Energiemengen des Gegenvorschlages zur Ausfallarbeitszeitreihe</text>
<text text-anchor="start" x="621.02" y="-127.25" font-family="Roboto, sans-serif" font-size="14.00">akzeptiert werden?</text>
</g>
<!-- 3&#45;&gt;4 -->
<g id="edge7" class="edge">
<title>3-&gt;4</title>
<path fill="none" stroke="#88a0d6" d="M818.13,-235.24C833.06,-218.05 856.48,-191.11 874.51,-170.35"/>
<polygon fill="#88a0d6" stroke="#88a0d6" points="876.96,-172.86 880.88,-163.02 871.68,-168.27 876.96,-172.86"/>
<text text-anchor="start" x="854.4" y="-197.01" font-family="Roboto, sans-serif" font-weight="bold" font-size="14.00">NEIN</text>
</g>
<!-- A04 -->
<g id="node9" class="node">
<title>A04</title>
<path fill="#c4cac1" stroke="black" stroke-width="0" d="M909.8,-51.78C909.8,-51.78 635,-51.78 635,-51.78 629,-51.78 623,-45.78 623,-39.78 623,-39.78 623,-12 623,-12 623,-6 629,0 635,0 635,0 909.8,0 909.8,0 915.8,0 921.8,-6 921.8,-12 921.8,-12 921.8,-39.78 921.8,-39.78 921.8,-45.78 915.8,-51.78 909.8,-51.78"/>
<text text-anchor="start" x="637.4" y="-29.84" font-family="Roboto, sans-serif" font-size="14.00">Cluster: Ablehnung</text>
<text text-anchor="start" x="637.4" y="-12.59" font-family="Roboto, sans-serif" font-size="14.00">Energiemengen falsch / nicht plausibel</text>
</g>
<!-- 4&#45;&gt;A04 -->
<g id="edge8" class="edge">
<title>4-&gt;A04</title>
<path fill="none" stroke="#88a0d6" d="M875.72,-117.02C856.82,-100.53 830.45,-77.53 809.08,-58.89"/>
<polygon fill="#88a0d6" stroke="#88a0d6" points="811.55,-56.39 801.71,-52.46 806.95,-61.67 811.55,-56.39"/>
<text text-anchor="start" x="839.4" y="-74.73" font-family="Roboto, sans-serif" font-weight="bold" font-size="14.00">NEIN</text>
</g>
<!-- A05 -->
<g id="node10" class="node">
<title>A05</title>
<path fill="#c4cac1" stroke="black" stroke-width="0" d="M1103.3,-51.78C1103.3,-51.78 951.5,-51.78 951.5,-51.78 945.5,-51.78 939.5,-45.78 939.5,-39.78 939.5,-39.78 939.5,-12 939.5,-12 939.5,-6 945.5,0 951.5,0 951.5,0 1103.3,0 1103.3,0 1109.3,0 1115.3,-6 1115.3,-12 1115.3,-12 1115.3,-39.78 1115.3,-39.78 1115.3,-45.78 1109.3,-51.78 1103.3,-51.78"/>
<text text-anchor="start" x="953.9" y="-29.84" font-family="Roboto, sans-serif" font-size="14.00">Cluster: Zustimmung</text>
<text text-anchor="start" x="953.9" y="-12.59" font-family="Roboto, sans-serif" font-size="14.00">Zustimmung</text>
</g>
<!-- 4&#45;&gt;A05 -->
<g id="edge9" class="edge">
<title>4-&gt;A05</title>
<path fill="none" stroke="#88a0d6" d="M924.89,-117.02C943.64,-100.53 969.8,-77.53 991,-58.89"/>
<polygon fill="#88a0d6" stroke="#88a0d6" points="993.11,-61.69 998.31,-52.46 988.49,-56.44 993.11,-61.69"/>
<text text-anchor="start" x="974.4" y="-74.73" font-family="Roboto, sans-serif" font-weight="bold" font-size="14.00">JA</text>
</g>
</g>
</svg>
  </g>
</svg>
  </g>
</svg>
