<?xml version='1.0' encoding='ASCII' standalone='yes'?>
<svg xmlns="http://www.w3.org/2000/svg" xmlns:xlink="http://www.w3.org/1999/xlink" version="1.1" width="1920.0px" viewBox="0 0 1920.0 750.6666666666666" height="750.6666666666666px">
  <g>
    <svg version="1.1" width="1920.0px" viewBox="0 0 1920.0 750.6666666666666" height="750.6666666666666px">
  <rect fill="#e7e6e5" x="0" y="0" width="1920.0" height="750.6666666666666" rx="20" ry="20"/><g>
    <g transform="translate(653.8776682624613, 75.06666666666665) scale(1 1) translate(0, 0) scale(1.056979254670046 1.056979254670046) "><!-- note that I manually added the width and height attribute to the root node
  https://chatgpt.com/share/678e3028-70cc-800b-a296-782714735772
  -->
  <defs>
    <style>.cls-1{fill:#fff;}</style>
  </defs>
  <path class="cls-1" d="M122.44,531.2h-56.1c-11,0-19.9-9.12-19.46-20.11C57.47,243.89,278.15,29.78,547.91,29.78v56.02c0,10.98-8.69,19.89-19.66,20.39-225.51,10.31-405.8,197-405.8,425Z"/>
  <path class="cls-1" d="M273.78,531.2h-55.93c-11.23,0-20.09-9.48-19.43-20.69,10.74-183.44,163.39-329.39,349.48-329.39v56.26c0,10.71-8.27,19.62-18.96,20.35-142.35,9.77-255.17,128.69-255.17,273.46Z"/>
  <path class="cls-1" d="M425.77,531.2h-55.45c-11.65,0-20.6-10.17-19.33-21.75,10.87-99.03,95.03-176.34,196.92-176.34v57.01c0,10.05-7.28,18.75-17.23,20.16-59.22,8.4-104.91,59.42-104.91,120.92Z"/>
</g>
    <svg width="1440pt" height="563pt" viewBox="0.00 0.00 1440.00 562.61">
<g id="graph0" class="graph" transform="scale(0.87376 0.87376) rotate(0) translate(4 639.9)">
<title>D</title>
<text text-anchor="start" x="323.53" y="-615.8" font-family="Roboto, sans-serif" font-weight="bold" font-size="18.00">Sperrprozesse Gas</text>
<text text-anchor="start" x="323.53" y="-587.7" font-family="Roboto, sans-serif" font-weight="bold" font-size="16.00">17.4.1: AD: Stornieren der Unterbrechung und Wiederherstellung der Anschlussnutzung auf Anweisung des LF</text>
<!-- Start -->
<g id="node1" class="node">
<title>Start</title>
<path fill="#8ba2d7" stroke="black" stroke-width="0" d="M351.8,-545.9C351.8,-545.9 215,-545.9 215,-545.9 209,-545.9 203,-539.9 203,-533.9 203,-533.9 203,-512.62 203,-512.62 203,-506.62 209,-500.62 215,-500.62 215,-500.62 351.8,-500.62 351.8,-500.62 357.8,-500.62 363.8,-506.62 363.8,-512.62 363.8,-512.62 363.8,-533.9 363.8,-533.9 363.8,-539.9 357.8,-545.9 351.8,-545.9"/>
<text text-anchor="start" x="217.4" y="-524.96" font-family="Roboto, sans-serif" font-weight="bold" font-size="14.00">E_1006</text>
<text text-anchor="start" x="217.4" y="-510.96" font-family="Roboto, sans-serif" font-size="14.00">Pr&#252;fende Rolle: </text>
<text text-anchor="start" x="326.9" y="-510.96" font-family="Roboto, sans-serif" font-weight="bold" font-size="14.00">NB</text>
</g>
<!-- 10 -->
<g id="node2" class="node">
<title>10</title>
<path fill="#c2cee9" stroke="black" stroke-width="0" d="M537.8,-463.62C537.8,-463.62 29,-463.62 29,-463.62 23,-463.62 17,-457.62 17,-451.62 17,-451.62 17,-439.62 17,-439.62 17,-433.62 23,-427.62 29,-427.62 29,-427.62 537.8,-427.62 537.8,-427.62 543.8,-427.62 549.8,-433.62 549.8,-439.62 549.8,-439.62 549.8,-451.62 549.8,-451.62 549.8,-457.62 543.8,-463.62 537.8,-463.62"/>
<text text-anchor="start" x="31.4" y="-441.94" font-family="Roboto, sans-serif" font-weight="bold" font-size="14.00">10: </text>
<text text-anchor="start" x="60.65" y="-441.94" font-family="Roboto, sans-serif" font-size="14.00">Wurde der Sperr- / Entsperrauftrag bereits durch den NB abgelehnt?</text>
</g>
<!-- Start&#45;&gt;10 -->
<g id="edge1" class="edge">
<title>Start-&gt;10</title>
<path fill="none" stroke="#88a0d6" d="M283.4,-500.79C283.4,-492.71 283.4,-483.41 283.4,-474.81"/>
<polygon fill="#88a0d6" stroke="#88a0d6" points="286.9,-474.85 283.4,-464.85 279.9,-474.85 286.9,-474.85"/>
</g>
<!-- A06 -->
<g id="node3" class="node">
<title>A06</title>
<path fill="#c4cac1" stroke="black" stroke-width="0" d="M521.55,-374.37C521.55,-374.37 23.25,-374.37 23.25,-374.37 17.25,-374.37 11.25,-368.37 11.25,-362.37 11.25,-362.37 11.25,-334.59 11.25,-334.59 11.25,-328.59 17.25,-322.59 23.25,-322.59 23.25,-322.59 521.55,-322.59 521.55,-322.59 527.55,-322.59 533.55,-328.59 533.55,-334.59 533.55,-334.59 533.55,-362.37 533.55,-362.37 533.55,-368.37 527.55,-374.37 521.55,-374.37"/>
<text text-anchor="start" x="25.65" y="-352.43" font-family="Roboto, sans-serif" font-size="14.00">Cluster: Ablehnung</text>
<text text-anchor="start" x="25.65" y="-335.18" font-family="Roboto, sans-serif" font-size="14.00">Auftrag wurde bereits abgelehnt und kann nicht mehr storniert werden</text>
</g>
<!-- 10&#45;&gt;A06 -->
<g id="edge2" class="edge">
<title>10-&gt;A06</title>
<path fill="none" stroke="#88a0d6" d="M281.48,-428.05C280.12,-416.29 278.25,-400.04 276.55,-385.38"/>
<polygon fill="#88a0d6" stroke="#88a0d6" points="280.04,-385.11 275.42,-375.58 273.09,-385.91 280.04,-385.11"/>
<text text-anchor="start" x="278.4" y="-397.32" font-family="Roboto, sans-serif" font-weight="bold" font-size="14.00">JA</text>
</g>
<!-- 20 -->
<g id="node4" class="node">
<title>20</title>
<path fill="#c2cee9" stroke="black" stroke-width="0" d="M1021.3,-366.48C1021.3,-366.48 563.5,-366.48 563.5,-366.48 557.5,-366.48 551.5,-360.48 551.5,-354.48 551.5,-354.48 551.5,-342.48 551.5,-342.48 551.5,-336.48 557.5,-330.48 563.5,-330.48 563.5,-330.48 1021.3,-330.48 1021.3,-330.48 1027.3,-330.48 1033.3,-336.48 1033.3,-342.48 1033.3,-342.48 1033.3,-354.48 1033.3,-354.48 1033.3,-360.48 1027.3,-366.48 1021.3,-366.48"/>
<text text-anchor="start" x="565.9" y="-344.8" font-family="Roboto, sans-serif" font-weight="bold" font-size="14.00">20: </text>
<text text-anchor="start" x="595.15" y="-344.8" font-family="Roboto, sans-serif" font-size="14.00">Handelt es sich um eine Stornierung eines Entsperrauftrags?</text>
</g>
<!-- 10&#45;&gt;20 -->
<g id="edge3" class="edge">
<title>10-&gt;20</title>
<path fill="none" stroke="#88a0d6" d="M374.11,-427.67C462.95,-411.06 598.11,-385.8 690.59,-368.51"/>
<polygon fill="#88a0d6" stroke="#88a0d6" points="690.98,-372 700.17,-366.72 689.69,-365.12 690.98,-372"/>
<text text-anchor="start" x="552.4" y="-397.32" font-family="Roboto, sans-serif" font-weight="bold" font-size="14.00">NEIN</text>
</g>
<!-- 30 -->
<g id="node6" class="node">
<title>30</title>
<path fill="#c2cee9" stroke="black" stroke-width="0" d="M599.92,-257.7C599.92,-257.7 58.88,-257.7 58.88,-257.7 52.88,-257.7 46.88,-251.7 46.88,-245.7 46.88,-245.7 46.88,-233.7 46.88,-233.7 46.88,-227.7 52.88,-221.7 58.88,-221.7 58.88,-221.7 599.92,-221.7 599.92,-221.7 605.92,-221.7 611.92,-227.7 611.92,-233.7 611.92,-233.7 611.92,-245.7 611.92,-245.7 611.92,-251.7 605.92,-257.7 599.92,-257.7"/>
<text text-anchor="start" x="61.27" y="-236.02" font-family="Roboto, sans-serif" font-weight="bold" font-size="14.00">30: </text>
<text text-anchor="start" x="90.52" y="-236.02" font-family="Roboto, sans-serif" font-size="14.00">Ist die Stornierung vor der Durchf&#252;hrung der Entsperrung eingegangen?</text>
</g>
<!-- 20&#45;&gt;30 -->
<g id="edge4" class="edge">
<title>20-&gt;30</title>
<path fill="none" stroke="#88a0d6" d="M718.78,-330.5C635.92,-311.39 501.51,-280.39 414.29,-260.28"/>
<polygon fill="#88a0d6" stroke="#88a0d6" points="415.1,-256.87 404.57,-258.04 413.53,-263.69 415.1,-256.87"/>
<text text-anchor="start" x="601.4" y="-292.29" font-family="Roboto, sans-serif" font-weight="bold" font-size="14.00">JA</text>
</g>
<!-- 40 -->
<g id="node9" class="node">
<title>40</title>
<path fill="#c2cee9" stroke="black" stroke-width="0" d="M1235.17,-269.34C1235.17,-269.34 641.62,-269.34 641.62,-269.34 635.62,-269.34 629.62,-263.34 629.62,-257.34 629.62,-257.34 629.62,-222.06 629.62,-222.06 629.62,-216.06 635.62,-210.06 641.62,-210.06 641.62,-210.06 1235.17,-210.06 1235.17,-210.06 1241.17,-210.06 1247.17,-216.06 1247.17,-222.06 1247.17,-222.06 1247.17,-257.34 1247.17,-257.34 1247.17,-263.34 1241.17,-269.34 1235.17,-269.34"/>
<text text-anchor="start" x="644.02" y="-248.4" font-family="Roboto, sans-serif" font-weight="bold" font-size="14.00">40: </text>
<text text-anchor="start" x="673.27" y="-248.4" font-family="Roboto, sans-serif" font-size="14.00">Ist der Nachrichteneingang der Stornierung sp&#228;testens am Tag vor dem vom NB</text>
<text text-anchor="start" x="644.02" y="-234.4" font-family="Roboto, sans-serif" font-size="14.00">geplanten Ausf&#252;hrungstermin bzw. fixen Sperrtermin aus dem Sperrauftrag</text>
<text text-anchor="start" x="644.02" y="-220.4" font-family="Roboto, sans-serif" font-size="14.00">eingegangen?</text>
</g>
<!-- 20&#45;&gt;40 -->
<g id="edge5" class="edge">
<title>20-&gt;40</title>
<path fill="none" stroke="#88a0d6" d="M815.53,-330.56C835.59,-315.9 865.25,-294.2 890.41,-275.8"/>
<polygon fill="#88a0d6" stroke="#88a0d6" points="892.22,-278.81 898.23,-270.08 888.09,-273.16 892.22,-278.81"/>
<text text-anchor="start" x="873.4" y="-292.29" font-family="Roboto, sans-serif" font-weight="bold" font-size="14.00">NEIN</text>
</g>
<!-- Hinweis: Es handelt sich um eine Stornierung eines Sperrauftrags. -->
<g id="node5" class="node">
<title>Hinweis: Es handelt sich um eine Stornierung eines Sperrauftrags.</title>
<path fill="#c4cac1" stroke="black" stroke-width="0" d="M1252.42,-541.26C1252.42,-541.26 786.38,-541.26 786.38,-541.26 780.38,-541.26 774.38,-535.26 774.38,-529.26 774.38,-529.26 774.38,-517.26 774.38,-517.26 774.38,-511.26 780.38,-505.26 786.38,-505.26 786.38,-505.26 1252.42,-505.26 1252.42,-505.26 1258.42,-505.26 1264.42,-511.26 1264.42,-517.26 1264.42,-517.26 1264.42,-529.26 1264.42,-529.26 1264.42,-535.26 1258.42,-541.26 1252.42,-541.26"/>
<text text-anchor="start" x="788.77" y="-518.59" font-family="Roboto, sans-serif" font-size="14.00">Hinweis: Es handelt sich um eine Stornierung eines Sperrauftrags.</text>
</g>
<!-- A01 -->
<g id="node7" class="node">
<title>A01</title>
<path fill="#c4cac1" stroke="black" stroke-width="0" d="M214.8,-156.81C214.8,-156.81 12,-156.81 12,-156.81 6,-156.81 0,-150.81 0,-144.81 0,-144.81 0,-117.03 0,-117.03 0,-111.03 6,-105.03 12,-105.03 12,-105.03 214.8,-105.03 214.8,-105.03 220.8,-105.03 226.8,-111.03 226.8,-117.03 226.8,-117.03 226.8,-144.81 226.8,-144.81 226.8,-150.81 220.8,-156.81 214.8,-156.81"/>
<text text-anchor="start" x="14.4" y="-134.87" font-family="Roboto, sans-serif" font-size="14.00">Cluster: Zustimmung</text>
<text text-anchor="start" x="14.4" y="-117.62" font-family="Roboto, sans-serif" font-size="14.00">Entsperrauftrag ist storniert.</text>
</g>
<!-- 30&#45;&gt;A01 -->
<g id="edge6" class="edge">
<title>30-&gt;A01</title>
<path fill="none" stroke="#88a0d6" d="M295.17,-221.78C262.63,-205.69 212.97,-181.14 173.78,-161.77"/>
<polygon fill="#88a0d6" stroke="#88a0d6" points="175.41,-158.67 164.9,-157.38 172.31,-164.95 175.41,-158.67"/>
<text text-anchor="start" x="233.4" y="-179.76" font-family="Roboto, sans-serif" font-weight="bold" font-size="14.00">JA</text>
</g>
<!-- A02 -->
<g id="node8" class="node">
<title>A02</title>
<path fill="#c4cac1" stroke="black" stroke-width="0" d="M638.05,-156.81C638.05,-156.81 256.75,-156.81 256.75,-156.81 250.75,-156.81 244.75,-150.81 244.75,-144.81 244.75,-144.81 244.75,-117.03 244.75,-117.03 244.75,-111.03 250.75,-105.03 256.75,-105.03 256.75,-105.03 638.05,-105.03 638.05,-105.03 644.05,-105.03 650.05,-111.03 650.05,-117.03 650.05,-117.03 650.05,-144.81 650.05,-144.81 650.05,-150.81 644.05,-156.81 638.05,-156.81"/>
<text text-anchor="start" x="259.15" y="-134.87" font-family="Roboto, sans-serif" font-size="14.00">Cluster: Ablehnung</text>
<text text-anchor="start" x="259.15" y="-117.62" font-family="Roboto, sans-serif" font-size="14.00">Stornierung des Entsperrauftrags nicht mehr m&#246;glich.</text>
</g>
<!-- 30&#45;&gt;A02 -->
<g id="edge7" class="edge">
<title>30-&gt;A02</title>
<path fill="none" stroke="#88a0d6" d="M348.1,-221.78C365.12,-206.38 390.71,-183.22 411.65,-164.27"/>
<polygon fill="#88a0d6" stroke="#88a0d6" points="413.82,-167.03 418.89,-157.72 409.12,-161.84 413.82,-167.03"/>
<text text-anchor="start" x="398.4" y="-179.76" font-family="Roboto, sans-serif" font-weight="bold" font-size="14.00">NEIN</text>
</g>
<!-- A03 -->
<g id="node10" class="node">
<title>A03</title>
<path fill="#c4cac1" stroke="black" stroke-width="0" d="M1066.67,-156.81C1066.67,-156.81 680.12,-156.81 680.12,-156.81 674.12,-156.81 668.12,-150.81 668.12,-144.81 668.12,-144.81 668.12,-117.03 668.12,-117.03 668.12,-111.03 674.12,-105.03 680.12,-105.03 680.12,-105.03 1066.67,-105.03 1066.67,-105.03 1072.67,-105.03 1078.67,-111.03 1078.67,-117.03 1078.67,-117.03 1078.67,-144.81 1078.67,-144.81 1078.67,-150.81 1072.67,-156.81 1066.67,-156.81"/>
<text text-anchor="start" x="682.52" y="-134.87" font-family="Roboto, sans-serif" font-size="14.00">Cluster: Zustimmung</text>
<text text-anchor="start" x="682.52" y="-117.62" font-family="Roboto, sans-serif" font-size="14.00">Sperrauftrag ist bis zum Vortag der Sperrung storniert.</text>
</g>
<!-- 40&#45;&gt;A03 -->
<g id="edge8" class="edge">
<title>40-&gt;A03</title>
<path fill="none" stroke="#88a0d6" d="M920.98,-210.08C912.73,-196.53 902.82,-180.24 894.18,-166.05"/>
<polygon fill="#88a0d6" stroke="#88a0d6" points="897.41,-164.64 889.22,-157.91 891.43,-168.28 897.41,-164.64"/>
<text text-anchor="start" x="909.4" y="-179.76" font-family="Roboto, sans-serif" font-weight="bold" font-size="14.00">JA</text>
</g>
<!-- 50 -->
<g id="node11" class="node">
<title>50</title>
<path fill="#c2cee9" stroke="black" stroke-width="0" d="M1628.05,-148.92C1628.05,-148.92 1108.75,-148.92 1108.75,-148.92 1102.75,-148.92 1096.75,-142.92 1096.75,-136.92 1096.75,-136.92 1096.75,-124.92 1096.75,-124.92 1096.75,-118.92 1102.75,-112.92 1108.75,-112.92 1108.75,-112.92 1628.05,-112.92 1628.05,-112.92 1634.05,-112.92 1640.05,-118.92 1640.05,-124.92 1640.05,-124.92 1640.05,-136.92 1640.05,-136.92 1640.05,-142.92 1634.05,-148.92 1628.05,-148.92"/>
<text text-anchor="start" x="1111.15" y="-127.25" font-family="Roboto, sans-serif" font-weight="bold" font-size="14.00">50: </text>
<text text-anchor="start" x="1140.4" y="-127.25" font-family="Roboto, sans-serif" font-size="14.00">Ist die Stornierung vor der Durchf&#252;hrung der Sperrung eingegangen?</text>
</g>
<!-- 40&#45;&gt;50 -->
<g id="edge9" class="edge">
<title>40-&gt;50</title>
<path fill="none" stroke="#88a0d6" d="M1053.63,-210.08C1128.06,-191.6 1222.99,-168.03 1289.04,-151.63"/>
<polygon fill="#88a0d6" stroke="#88a0d6" points="1289.88,-155.03 1298.74,-149.22 1288.19,-148.23 1289.88,-155.03"/>
<text text-anchor="start" x="1191.4" y="-179.76" font-family="Roboto, sans-serif" font-weight="bold" font-size="14.00">NEIN</text>
</g>
<!-- A04 -->
<g id="node12" class="node">
<title>A04</title>
<path fill="#c4cac1" stroke="black" stroke-width="0" d="M1186.3,-51.78C1186.3,-51.78 854.5,-51.78 854.5,-51.78 848.5,-51.78 842.5,-45.78 842.5,-39.78 842.5,-39.78 842.5,-12 842.5,-12 842.5,-6 848.5,0 854.5,0 854.5,0 1186.3,0 1186.3,0 1192.3,0 1198.3,-6 1198.3,-12 1198.3,-12 1198.3,-39.78 1198.3,-39.78 1198.3,-45.78 1192.3,-51.78 1186.3,-51.78"/>
<text text-anchor="start" x="856.9" y="-29.84" font-family="Roboto, sans-serif" font-size="14.00">Cluster: Zustimmung</text>
<text text-anchor="start" x="856.9" y="-12.59" font-family="Roboto, sans-serif" font-size="14.00">Sperrauftrag ist am Tag der Sperrung storniert.</text>
</g>
<!-- 50&#45;&gt;A04 -->
<g id="edge10" class="edge">
<title>50-&gt;A04</title>
<path fill="none" stroke="#88a0d6" d="M1311.32,-113.02C1258.1,-97.26 1177.71,-73.46 1114.91,-54.87"/>
<polygon fill="#88a0d6" stroke="#88a0d6" points="1116.23,-51.61 1105.65,-52.13 1114.24,-58.32 1116.23,-51.61"/>
<text text-anchor="start" x="1214.4" y="-74.73" font-family="Roboto, sans-serif" font-weight="bold" font-size="14.00">JA</text>
</g>
<!-- A05 -->
<g id="node13" class="node">
<title>A05</title>
<path fill="#c4cac1" stroke="black" stroke-width="0" d="M1588.18,-51.78C1588.18,-51.78 1228.62,-51.78 1228.62,-51.78 1222.62,-51.78 1216.62,-45.78 1216.62,-39.78 1216.62,-39.78 1216.62,-12 1216.62,-12 1216.62,-6 1222.62,0 1228.62,0 1228.62,0 1588.18,0 1588.18,0 1594.18,0 1600.18,-6 1600.18,-12 1600.18,-12 1600.18,-39.78 1600.18,-39.78 1600.18,-45.78 1594.18,-51.78 1588.18,-51.78"/>
<text text-anchor="start" x="1231.03" y="-29.84" font-family="Roboto, sans-serif" font-size="14.00">Cluster: Ablehnung</text>
<text text-anchor="start" x="1231.03" y="-12.59" font-family="Roboto, sans-serif" font-size="14.00">Stornierung des Sperrauftrags nicht mehr m&#246;glich.</text>
</g>
<!-- 50&#45;&gt;A05 -->
<g id="edge11" class="edge">
<title>50-&gt;A05</title>
<path fill="none" stroke="#88a0d6" d="M1374.83,-113.37C1380.2,-99.52 1388.06,-79.28 1394.82,-61.87"/>
<polygon fill="#88a0d6" stroke="#88a0d6" points="1397.95,-63.48 1398.31,-52.89 1391.42,-60.94 1397.95,-63.48"/>
<text text-anchor="start" x="1390.4" y="-74.73" font-family="Roboto, sans-serif" font-weight="bold" font-size="14.00">NEIN</text>
</g>
</g>
</svg>
  </g>
</svg>
  </g>
</svg>
