<?xml version='1.0' encoding='ASCII' standalone='yes'?>
<svg xmlns="http://www.w3.org/2000/svg" xmlns:xlink="http://www.w3.org/1999/xlink" version="1.1" width="1770.6666666666667px" viewBox="0 0 1770.6666666666667 568.0" height="568.0px">
  <g>
    <svg version="1.1" width="1770.6666666666667px" viewBox="0 0 1770.6666666666667 568.0" height="568.0px">
  <rect fill="#e7e6e5" x="0" y="0" width="1770.6666666666667" height="568.0" rx="20" ry="20"/><g>
    <g transform="translate(653.7025814324604, 56.79999999999999) scale(1 1) translate(0, 0) scale(0.7997747113489159 0.7997747113489159) "><!-- note that I manually added the width and height attribute to the root node
  https://chatgpt.com/share/678e3028-70cc-800b-a296-782714735772
  -->
  <defs>
    <style>.cls-1{fill:#fff;}</style>
  </defs>
  <path class="cls-1" d="M122.44,531.2h-56.1c-11,0-19.9-9.12-19.46-20.11C57.47,243.89,278.15,29.78,547.91,29.78v56.02c0,10.98-8.69,19.89-19.66,20.39-225.51,10.31-405.8,197-405.8,425Z"/>
  <path class="cls-1" d="M273.78,531.2h-55.93c-11.23,0-20.09-9.48-19.43-20.69,10.74-183.44,163.39-329.39,349.48-329.39v56.26c0,10.71-8.27,19.62-18.96,20.35-142.35,9.77-255.17,128.69-255.17,273.46Z"/>
  <path class="cls-1" d="M425.77,531.2h-55.45c-11.65,0-20.6-10.17-19.33-21.75,10.87-99.03,95.03-176.34,196.92-176.34v57.01c0,10.05-7.28,18.75-17.23,20.16-59.22,8.4-104.91,59.42-104.91,120.92Z"/>
</g>
    <svg width="1328pt" height="426pt" viewBox="0.00 0.00 1328.43 426.34">
<g id="graph0" class="graph" transform="scale(1 1) rotate(0) translate(4 422.34)">
<title>D</title>
<text text-anchor="start" x="438.96" y="-398.24" font-family="Roboto, sans-serif" font-weight="bold" font-size="18.00">Sperrprozesse Gas</text>
<text text-anchor="start" x="438.96" y="-370.14" font-family="Roboto, sans-serif" font-weight="bold" font-size="16.00">17.1.3: AD: Abrechnung einer sonstigen Leistung</text>
<!-- Start -->
<g id="node1" class="node">
<title>Start</title>
<path fill="#8ba2d7" stroke="black" stroke-width="0" d="M671.67,-328.34C671.67,-328.34 538.62,-328.34 538.62,-328.34 532.62,-328.34 526.62,-322.34 526.62,-316.34 526.62,-316.34 526.62,-295.06 526.62,-295.06 526.62,-289.06 532.62,-283.06 538.62,-283.06 538.62,-283.06 671.67,-283.06 671.67,-283.06 677.67,-283.06 683.67,-289.06 683.67,-295.06 683.67,-295.06 683.67,-316.34 683.67,-316.34 683.67,-322.34 677.67,-328.34 671.67,-328.34"/>
<text text-anchor="start" x="541.02" y="-307.4" font-family="Roboto, sans-serif" font-weight="bold" font-size="14.00">E_1009</text>
<text text-anchor="start" x="541.02" y="-293.4" font-family="Roboto, sans-serif" font-size="14.00">Pr&#252;fende Rolle: </text>
<text text-anchor="start" x="650.52" y="-293.4" font-family="Roboto, sans-serif" font-weight="bold" font-size="14.00">LF</text>
</g>
<!-- 10 -->
<g id="node2" class="node">
<title>10</title>
<path fill="#c2cee9" stroke="black" stroke-width="0" d="M909.05,-246.06C909.05,-246.06 301.25,-246.06 301.25,-246.06 295.25,-246.06 289.25,-240.06 289.25,-234.06 289.25,-234.06 289.25,-222.06 289.25,-222.06 289.25,-216.06 295.25,-210.06 301.25,-210.06 301.25,-210.06 909.05,-210.06 909.05,-210.06 915.05,-210.06 921.05,-216.06 921.05,-222.06 921.05,-222.06 921.05,-234.06 921.05,-234.06 921.05,-240.06 915.05,-246.06 909.05,-246.06"/>
<text text-anchor="start" x="303.65" y="-224.38" font-family="Roboto, sans-serif" font-weight="bold" font-size="14.00">10: </text>
<text text-anchor="start" x="332.9" y="-224.38" font-family="Roboto, sans-serif" font-size="14.00">Konnte der Rechnungssteller den Einwand des Rechnungsempf&#228;ngers entkr&#228;ften?</text>
</g>
<!-- Start&#45;&gt;10 -->
<g id="edge1" class="edge">
<title>Start-&gt;10</title>
<path fill="none" stroke="#88a0d6" d="M605.15,-283.23C605.15,-275.15 605.15,-265.85 605.15,-257.25"/>
<polygon fill="#88a0d6" stroke="#88a0d6" points="608.65,-257.29 605.15,-247.29 601.65,-257.29 608.65,-257.29"/>
</g>
<!-- A01 -->
<g id="node3" class="node">
<title>A01</title>
<path fill="#c4cac1" stroke="black" stroke-width="0" d="M852.3,-156.81C852.3,-156.81 12,-156.81 12,-156.81 6,-156.81 0,-150.81 0,-144.81 0,-144.81 0,-117.03 0,-117.03 0,-111.03 6,-105.03 12,-105.03 12,-105.03 852.3,-105.03 852.3,-105.03 858.3,-105.03 864.3,-111.03 864.3,-117.03 864.3,-117.03 864.3,-144.81 864.3,-144.81 864.3,-150.81 858.3,-156.81 852.3,-156.81"/>
<text text-anchor="start" x="14.4" y="-134.87" font-family="Roboto, sans-serif" font-size="14.00">Rechnungsempf&#228;nger ist nach erneuter Pr&#252;fung immer noch der Ansicht, dass das Nichtzahlungsavis gerechtfertigt ist.</text>
<text text-anchor="start" x="14.4" y="-117.62" font-family="Roboto, sans-serif" font-size="14.00">Hinweis: Der Einwand ist in der Antwort zu beschreiben.</text>
</g>
<!-- 10&#45;&gt;A01 -->
<g id="edge2" class="edge">
<title>10-&gt;A01</title>
<path fill="none" stroke="#88a0d6" d="M574.62,-210.27C550.5,-197 516.2,-178.14 487.3,-162.25"/>
<polygon fill="#88a0d6" stroke="#88a0d6" points="489.1,-159.25 478.65,-157.49 485.73,-165.38 489.1,-159.25"/>
<text text-anchor="start" x="539.15" y="-179.76" font-family="Roboto, sans-serif" font-weight="bold" font-size="14.00">NEIN</text>
</g>
<!-- 20 -->
<g id="node4" class="node">
<title>20</title>
<path fill="#c2cee9" stroke="black" stroke-width="0" d="M1229.93,-148.92C1229.93,-148.92 894.38,-148.92 894.38,-148.92 888.38,-148.92 882.38,-142.92 882.38,-136.92 882.38,-136.92 882.38,-124.92 882.38,-124.92 882.38,-118.92 888.38,-112.92 894.38,-112.92 894.38,-112.92 1229.93,-112.92 1229.93,-112.92 1235.93,-112.92 1241.93,-118.92 1241.93,-124.92 1241.93,-124.92 1241.93,-136.92 1241.93,-136.92 1241.93,-142.92 1235.93,-148.92 1229.93,-148.92"/>
<text text-anchor="start" x="896.78" y="-127.25" font-family="Roboto, sans-serif" font-weight="bold" font-size="14.00">20: </text>
<text text-anchor="start" x="926.03" y="-127.25" font-family="Roboto, sans-serif" font-size="14.00">Liegen weitere Fehler in der Rechnung vor?</text>
</g>
<!-- 10&#45;&gt;20 -->
<g id="edge3" class="edge">
<title>10-&gt;20</title>
<path fill="none" stroke="#88a0d6" d="M686.59,-210.11C765.96,-193.58 886.48,-168.49 969.47,-151.21"/>
<polygon fill="#88a0d6" stroke="#88a0d6" points="970.12,-154.66 979.19,-149.19 968.69,-147.8 970.12,-154.66"/>
<text text-anchor="start" x="847.15" y="-179.76" font-family="Roboto, sans-serif" font-weight="bold" font-size="14.00">JA</text>
</g>
<!-- A02 -->
<g id="node5" class="node">
<title>A02</title>
<path fill="#c4cac1" stroke="black" stroke-width="0" d="M843.55,-51.78C843.55,-51.78 310.75,-51.78 310.75,-51.78 304.75,-51.78 298.75,-45.78 298.75,-39.78 298.75,-39.78 298.75,-12 298.75,-12 298.75,-6 304.75,0 310.75,0 310.75,0 843.55,0 843.55,0 849.55,0 855.55,-6 855.55,-12 855.55,-12 855.55,-39.78 855.55,-39.78 855.55,-45.78 849.55,-51.78 843.55,-51.78"/>
<text text-anchor="start" x="313.15" y="-29.84" font-family="Roboto, sans-serif" font-size="14.00">Rechnung wird aufgrund noch nicht gemeldeter Fehler weiterhin abgelehnt.</text>
<text text-anchor="start" x="313.15" y="-12.59" font-family="Roboto, sans-serif" font-size="14.00">Hinweis: Die Fehler sind in der Antwort zu beschreiben.</text>
</g>
<!-- 20&#45;&gt;A02 -->
<g id="edge4" class="edge">
<title>20-&gt;A02</title>
<path fill="none" stroke="#88a0d6" d="M982.33,-112.96C907.17,-97 793.29,-72.81 705.39,-54.13"/>
<polygon fill="#88a0d6" stroke="#88a0d6" points="706.25,-50.74 695.74,-52.08 704.79,-57.58 706.25,-50.74"/>
<text text-anchor="start" x="848.15" y="-74.73" font-family="Roboto, sans-serif" font-weight="bold" font-size="14.00">JA</text>
</g>
<!-- Rechnung zustimmen und im Zahlungsavis ber&#252;cksichtigen -->
<g id="node6" class="node">
<title>Rechnung zustimmen und im Zahlungsavis ber&#252;cksichtigen</title>
<path fill="#c4cac1" stroke="black" stroke-width="0" d="M1308.43,-43.89C1308.43,-43.89 885.88,-43.89 885.88,-43.89 879.88,-43.89 873.88,-37.89 873.88,-31.89 873.88,-31.89 873.88,-19.89 873.88,-19.89 873.88,-13.89 879.88,-7.89 885.88,-7.89 885.88,-7.89 1308.43,-7.89 1308.43,-7.89 1314.43,-7.89 1320.43,-13.89 1320.43,-19.89 1320.43,-19.89 1320.43,-31.89 1320.43,-31.89 1320.43,-37.89 1314.43,-43.89 1308.43,-43.89"/>
<text text-anchor="start" x="888.28" y="-21.21" font-family="Roboto, sans-serif" font-size="14.00">Rechnung zustimmen und im Zahlungsavis ber&#252;cksichtigen</text>
</g>
<!-- 20&#45;&gt;Rechnung zustimmen und im Zahlungsavis ber&#252;cksichtigen -->
<g id="edge5" class="edge">
<title>20-&gt;Rechnung zustimmen und im Zahlungsavis ber&#252;cksichtigen</title>
<path fill="none" stroke="#88a0d6" d="M1067.77,-113.37C1073.15,-97.54 1081.36,-73.37 1087.73,-54.61"/>
<polygon fill="#88a0d6" stroke="#88a0d6" points="1091.03,-55.77 1090.94,-45.18 1084.41,-53.52 1091.03,-55.77"/>
<text text-anchor="start" x="1081.15" y="-74.73" font-family="Roboto, sans-serif" font-weight="bold" font-size="14.00">NEIN</text>
</g>
</g>
</svg>
  </g>
</svg>
  </g>
</svg>
