<?xml version='1.0' encoding='ASCII' standalone='yes'?>
<svg xmlns="http://www.w3.org/2000/svg" xmlns:xlink="http://www.w3.org/1999/xlink" version="1.1" width="5632.0px" viewBox="0 0 5632.0 1433.3333333333333" height="1433.3333333333333px">
  <g>
    <svg version="1.1" width="5632.0px" viewBox="0 0 5632.0 1433.3333333333333" height="1433.3333333333333px">
  <polygon fill="#f3f1f6" points="0,0 5632.0,0 5632.0,1433.3333333333333 0,1433.3333333333333"/><g>
    <g transform="translate(2243.091945571675, 143.3333333333333) scale(1 1) translate(0, 0) scale(6.482416050733499 6.482416050733499) "><sodipodi:namedview xmlns:sodipodi="http://sodipodi.sourceforge.net/DTD/sodipodi-0.dtd" xmlns:inkscape="http://www.inkscape.org/namespaces/inkscape" id="namedview7" pagecolor="#ffffff" bordercolor="#999999" borderopacity="1" inkscape:pageshadow="0" inkscape:pageopacity="0" inkscape:pagecheckerboard="0" inkscape:document-units="mm" showgrid="false" fit-margin-top="0" fit-margin-left="0" fit-margin-right="0" fit-margin-bottom="0" inkscape:zoom="0.64052329" inkscape:cx="130.36216" inkscape:cy="412.163" inkscape:window-width="1512" inkscape:window-height="916" inkscape:window-x="3840" inkscape:window-y="136" inkscape:window-maximized="0" inkscape:current-layer="layer1"/>
  <defs id="defs2">
    <clipPath clipPathUnits="userSpaceOnUse" id="clipPath23">
      <path d="M 0,568.156 H 579.236 V 0 H 0 Z" id="path21"/>
    </clipPath>
  </defs>
  <g xmlns:inkscape="http://www.inkscape.org/namespaces/inkscape" inkscape:label="Layer 1" inkscape:groupmode="layer" id="layer1" transform="translate(-16.541937,-55.305267)">
    <g id="g19" clip-path="url(#clipPath23)" transform="matrix(0.35277777,0,0,-0.35277777,0.01017023,243.73675)" style="opacity:0.2">
      <g id="g25" transform="translate(122.444,32.7195)">
        <path d="m 0,0 h -56.104 c -11,0 -19.898,9.123 -19.463,20.115 10.594,267.191 231.277,481.302 501.029,481.302 v -56.02 c 0,-10.98 -8.688,-19.892 -19.658,-20.393 C 180.29,414.697 0,228.005 0,0" style="fill:#6ead83;fill-opacity:1;fill-rule:nonzero;stroke:none" id="path27"/>
      </g>
      <g id="g29" transform="translate(273.7828,32.7195)">
        <path d="m 0,0 h -55.926 c -11.228,0 -20.091,9.482 -19.435,20.69 10.744,183.439 163.389,329.388 349.485,329.388 v -56.263 c 0,-10.709 -8.273,-19.617 -18.957,-20.35 C 112.819,263.696 0,144.774 0,0" style="fill:#6ead83;fill-opacity:1;fill-rule:nonzero;stroke:none" id="path31"/>
      </g>
      <g id="g33" transform="translate(425.7667,32.7195)">
        <path d="m 0,0 h -55.445 c -11.653,0 -20.604,10.17 -19.334,21.753 10.866,99.032 95.031,176.341 196.919,176.341 v -57.011 c 0,-10.046 -7.283,-18.755 -17.229,-20.165 C 45.688,112.522 0,61.497 0,0" style="fill:#6ead83;fill-opacity:1;fill-rule:nonzero;stroke:none" id="path35"/>
      </g>
    </g>
  </g>
</g>
    <svg width="4224pt" height="1075pt" viewBox="0.00 0.00 4224.02 1075.43">
<g id="graph0" class="graph" transform="scale(1 1) rotate(0) translate(4 1071.43)">
<title>D</title>
<text text-anchor="start" x="2013.88" y="-1047.33" font-family="Times,serif" font-weight="bold" font-size="18.00">Sperrprozesse Gas</text>
<text text-anchor="start" x="1734.88" y="-1017.23" font-family="Times,serif" font-weight="bold" font-size="16.00">17.2.4: AD: Unterbrechung der Anschlussnutzung (Sperren) auf Anweisung des LF</text>
<!-- Start -->
<g id="node1" class="node">
<title>Start</title>
<polygon fill="#7a8da1" stroke="black" points="496.05,-969.43 336,-969.43 336,-926.15 496.05,-926.15 496.05,-969.43"/>
<text text-anchor="start" x="387.9" y="-948.49" font-family="Times,serif" font-weight="bold" font-size="14.00">E_1003</text>
<text text-anchor="start" x="350.4" y="-936.39" font-family="Times,serif" font-weight="bold" text-decoration="underline" font-size="12.00">Pr&#252;fende Rolle:</text>
<text text-anchor="start" x="455.4" y="-936.39" font-family="Times,serif" font-weight="bold" font-size="12.00"> NB</text>
</g>
<!-- 10 -->
<g id="node2" class="node">
<title>10</title>
<path fill="#7aab8a" stroke="black" d="M820.05,-889.15C820.05,-889.15 12,-889.15 12,-889.15 6,-889.15 0,-883.15 0,-877.15 0,-877.15 0,-865.15 0,-865.15 0,-859.15 6,-853.15 12,-853.15 12,-853.15 820.05,-853.15 820.05,-853.15 826.05,-853.15 832.05,-859.15 832.05,-865.15 832.05,-865.15 832.05,-877.15 832.05,-877.15 832.05,-883.15 826.05,-889.15 820.05,-889.15"/>
<text text-anchor="start" x="14.4" y="-867.48" font-family="Times,serif" font-weight="bold" font-size="14.00">10: </text>
<text text-anchor="start" x="43.65" y="-867.48" font-family="Times,serif" font-size="14.00">War eine Sperrung aus rechtlichen Gr&#252;nden nicht m&#246;glich (z.&#160;B., wenn eine Einstweilige Verf&#252;gung vorlag)?</text>
</g>
<!-- Start&#45;&gt;10 -->
<g id="edge1" class="edge">
<title>Start-&gt;10</title>
<path fill="none" stroke="black" d="M416.03,-926C416.03,-918.14 416.03,-909.06 416.03,-900.62"/>
<polygon fill="black" stroke="black" points="419.53,-900.82 416.03,-890.82 412.53,-900.82 419.53,-900.82"/>
</g>
<!-- A01 -->
<g id="node3" class="node">
<title>A01</title>
<polygon fill="#cfb986" stroke="black" points="669.39,-799.9 126.66,-799.9 126.66,-738.38 669.39,-738.38 669.39,-799.9"/>
<text text-anchor="start" x="383.03" y="-781.84" font-family="Times,serif" font-weight="bold" font-size="14.00">A01</text>
<text text-anchor="start" x="138.9" y="-769.74" font-family="Times,serif" text-decoration="underline" font-size="12.00">Hinweis:</text>
<text text-anchor="start" x="138.9" y="-757.74" font-family="Times,serif" font-size="12.00">Cluster: gescheitert</text>
<text text-anchor="start" x="138.9" y="-745.74" font-family="Times,serif" font-size="12.00">Marktlokation wurde nicht gesperrt, da ein rechtlicher Grund vor Ort erkannt wurde.</text>
</g>
<!-- 10&#45;&gt;A01 -->
<g id="edge2" class="edge">
<title>10-&gt;A01</title>
<path fill="none" stroke="black" d="M412.89,-852.73C410.84,-841.34 408.07,-825.95 405.48,-811.54"/>
<polygon fill="black" stroke="black" points="408.94,-811 403.72,-801.78 402.05,-812.24 408.94,-811"/>
<text text-anchor="middle" x="416.78" y="-821.85" font-family="Times,serif" font-size="14.00">Ja</text>
</g>
<!-- 20 -->
<g id="node4" class="node">
<title>20</title>
<path fill="#7aab8a" stroke="black" d="M1282.93,-791.78C1282.93,-791.78 699.13,-791.78 699.13,-791.78 693.13,-791.78 687.13,-785.78 687.13,-779.78 687.13,-779.78 687.13,-758.5 687.13,-758.5 687.13,-752.5 693.13,-746.5 699.13,-746.5 699.13,-746.5 1282.93,-746.5 1282.93,-746.5 1288.93,-746.5 1294.93,-752.5 1294.93,-758.5 1294.93,-758.5 1294.93,-779.78 1294.93,-779.78 1294.93,-785.78 1288.93,-791.78 1282.93,-791.78"/>
<text text-anchor="start" x="701.53" y="-770.84" font-family="Times,serif" font-weight="bold" font-size="14.00">20: </text>
<text text-anchor="start" x="730.78" y="-770.84" font-family="Times,serif" font-size="14.00">Wurde der Anschlussnutzer angetroffen?</text>
<text text-anchor="start" x="701.53" y="-756.84" font-family="Times,serif" font-size="14.00">Hinweis: Es gab keine Anzeichen daf&#252;r, dass der Anschlussnutzer anwesend war.</text>
</g>
<!-- 10&#45;&gt;20 -->
<g id="edge3" class="edge">
<title>10-&gt;20</title>
<path fill="none" stroke="black" d="M516.51,-852.67C609.62,-836.48 748.94,-812.25 852.56,-794.22"/>
<polygon fill="black" stroke="black" points="853,-797.7 862.25,-792.54 851.8,-790.8 853,-797.7"/>
<text text-anchor="middle" x="720.9" y="-821.85" font-family="Times,serif" font-size="14.00">Nein</text>
</g>
<!-- A08 -->
<g id="node5" class="node">
<title>A08</title>
<polygon fill="#cfb986" stroke="black" points="1003.14,-685.13 350.91,-685.13 350.91,-623.61 1003.14,-623.61 1003.14,-685.13"/>
<text text-anchor="start" x="662.03" y="-667.07" font-family="Times,serif" font-weight="bold" font-size="14.00">A08</text>
<text text-anchor="start" x="363.15" y="-654.97" font-family="Times,serif" text-decoration="underline" font-size="12.00">Hinweis:</text>
<text text-anchor="start" x="363.15" y="-642.97" font-family="Times,serif" font-size="12.00">Cluster: gescheitert</text>
<text text-anchor="start" x="363.15" y="-630.97" font-family="Times,serif" font-size="12.00">Der Anschlussnutzer wurde nicht angetroffen. Es gab keine Anzeichen daf&#252;r, dass dieser anwesend war.</text>
</g>
<!-- 20&#45;&gt;A08 -->
<g id="edge4" class="edge">
<title>20-&gt;A08</title>
<path fill="none" stroke="black" d="M929.74,-746.13C884.83,-730 823.03,-707.81 771.79,-689.4"/>
<polygon fill="black" stroke="black" points="773.04,-686.14 762.45,-686.05 770.68,-692.72 773.04,-686.14"/>
<text text-anchor="middle" x="869.9" y="-707.08" font-family="Times,serif" font-size="14.00">Nein</text>
</g>
<!-- 30 -->
<g id="node6" class="node">
<title>30</title>
<path fill="#7aab8a" stroke="black" d="M2718.43,-677.01C2718.43,-677.01 1033.62,-677.01 1033.62,-677.01 1027.62,-677.01 1021.63,-671.01 1021.63,-665.01 1021.63,-665.01 1021.63,-643.73 1021.63,-643.73 1021.63,-637.73 1027.62,-631.73 1033.62,-631.73 1033.62,-631.73 2718.43,-631.73 2718.43,-631.73 2724.43,-631.73 2730.43,-637.73 2730.43,-643.73 2730.43,-643.73 2730.43,-665.01 2730.43,-665.01 2730.43,-671.01 2724.43,-677.01 2718.43,-677.01"/>
<text text-anchor="start" x="1036.03" y="-656.07" font-family="Times,serif" font-weight="bold" font-size="14.00">30: </text>
<text text-anchor="start" x="1065.28" y="-656.07" font-family="Times,serif" font-size="14.00">War eine Sperrung aus dem Grund &#8222;aktive Zutrittsverweigerung&#8220; nicht m&#246;glich?</text>
<text text-anchor="start" x="1036.03" y="-642.07" font-family="Times,serif" font-size="14.00">Hinweis: Unter &#8222;aktive Zutrittsverweigerung&#8220; ist zu verstehen, dass der Anschlussnutzer angetroffen wurde und dieser den Zugang z.&#160;B. durch Drohungen, physische Angriffe, versperren des Zugangs zur Trennstelle unterbunden hat.</text>
</g>
<!-- 20&#45;&gt;30 -->
<g id="edge5" class="edge">
<title>20-&gt;30</title>
<path fill="none" stroke="black" d="M1164.55,-746.03C1316.43,-726.68 1536.42,-698.64 1691.48,-678.89"/>
<polygon fill="black" stroke="black" points="1691.55,-682.41 1701.03,-677.67 1690.66,-675.46 1691.55,-682.41"/>
<text text-anchor="middle" x="1493.78" y="-707.08" font-family="Times,serif" font-size="14.00">Ja</text>
</g>
<!-- A02 -->
<g id="node7" class="node">
<title>A02</title>
<polygon fill="#cfb986" stroke="black" points="1818.02,-570.36 1306.04,-570.36 1306.04,-508.84 1818.02,-508.84 1818.02,-570.36"/>
<text text-anchor="start" x="1547.03" y="-552.3" font-family="Times,serif" font-weight="bold" font-size="14.00">A02</text>
<text text-anchor="start" x="1318.28" y="-540.2" font-family="Times,serif" text-decoration="underline" font-size="12.00">Hinweis:</text>
<text text-anchor="start" x="1318.28" y="-528.2" font-family="Times,serif" font-size="12.00">Cluster: gescheitert</text>
<text text-anchor="start" x="1318.28" y="-516.2" font-family="Times,serif" font-size="12.00">Marktlokation wurde nicht gesperrt, da eine aktive Zutrittsverweigerung vorlag.</text>
</g>
<!-- 30&#45;&gt;A02 -->
<g id="edge6" class="edge">
<title>30-&gt;A02</title>
<path fill="none" stroke="black" d="M1814.74,-631.36C1769.83,-615.23 1708.03,-593.04 1656.79,-574.63"/>
<polygon fill="black" stroke="black" points="1658.04,-571.37 1647.45,-571.28 1655.68,-577.95 1658.04,-571.37"/>
<text text-anchor="middle" x="1744.78" y="-592.31" font-family="Times,serif" font-size="14.00">Ja</text>
</g>
<!-- 40 -->
<g id="node8" class="node">
<title>40</title>
<path fill="#7aab8a" stroke="black" d="M3712.05,-562.24C3712.05,-562.24 1848,-562.24 1848,-562.24 1842,-562.24 1836,-556.24 1836,-550.24 1836,-550.24 1836,-528.96 1836,-528.96 1836,-522.96 1842,-516.96 1848,-516.96 1848,-516.96 3712.05,-516.96 3712.05,-516.96 3718.05,-516.96 3724.05,-522.96 3724.05,-528.96 3724.05,-528.96 3724.05,-550.24 3724.05,-550.24 3724.05,-556.24 3718.05,-562.24 3712.05,-562.24"/>
<text text-anchor="start" x="1850.4" y="-541.3" font-family="Times,serif" font-weight="bold" font-size="14.00">40: </text>
<text text-anchor="start" x="1879.65" y="-541.3" font-family="Times,serif" font-size="14.00">War eine Sperrung aus dem Grund &#8222;passive Zutrittsverweigerung&#8220; nicht m&#246;glich?</text>
<text text-anchor="start" x="1850.4" y="-527.3" font-family="Times,serif" font-size="14.00">Hinweis: Unter &#8222;passiver Zutrittsverweigerung&#8220; ist zu verstehen, dass eine Anwesenheit des Anschlussnutzers festgestellt wurde, dieser jedoch seine Anwesenheit verleugnet. (z.B. Anschlussnutzer wurden in der Wohnung gesichtet, &#246;ffnet aber die T&#252;r nicht).</text>
</g>
<!-- 30&#45;&gt;40 -->
<g id="edge7" class="edge">
<title>30-&gt;40</title>
<path fill="none" stroke="black" d="M2053.28,-631.26C2208.41,-611.91 2433.13,-583.87 2591.51,-564.12"/>
<polygon fill="black" stroke="black" points="2591.81,-567.61 2601.3,-562.9 2590.94,-560.66 2591.81,-567.61"/>
<text text-anchor="middle" x="2399.9" y="-592.31" font-family="Times,serif" font-size="14.00">Nein</text>
</g>
<!-- A03 -->
<g id="node9" class="node">
<title>A03</title>
<polygon fill="#cfb986" stroke="black" points="2890.77,-455.59 2371.28,-455.59 2371.28,-394.07 2890.77,-394.07 2890.77,-455.59"/>
<text text-anchor="start" x="2616.03" y="-437.53" font-family="Times,serif" font-weight="bold" font-size="14.00">A03</text>
<text text-anchor="start" x="2383.53" y="-425.43" font-family="Times,serif" text-decoration="underline" font-size="12.00">Hinweis:</text>
<text text-anchor="start" x="2383.53" y="-413.43" font-family="Times,serif" font-size="12.00">Cluster: gescheitert</text>
<text text-anchor="start" x="2383.53" y="-401.43" font-family="Times,serif" font-size="12.00">Marktlokation wurde nicht gesperrt, da eine passive Zutrittsverweigerung vorlag.</text>
</g>
<!-- 40&#45;&gt;A03 -->
<g id="edge8" class="edge">
<title>40-&gt;A03</title>
<path fill="none" stroke="black" d="M2750.94,-516.59C2730.76,-501.31 2703.37,-480.59 2679.87,-462.8"/>
<polygon fill="black" stroke="black" points="2682.04,-460.05 2671.95,-456.81 2677.81,-465.63 2682.04,-460.05"/>
<text text-anchor="middle" x="2721.78" y="-477.54" font-family="Times,serif" font-size="14.00">Ja</text>
</g>
<!-- 50 -->
<g id="node10" class="node">
<title>50</title>
<path fill="#7aab8a" stroke="black" d="M3459.43,-442.83C3459.43,-442.83 2920.62,-442.83 2920.62,-442.83 2914.62,-442.83 2908.62,-436.83 2908.62,-430.83 2908.62,-430.83 2908.62,-418.83 2908.62,-418.83 2908.62,-412.83 2914.62,-406.83 2920.62,-406.83 2920.62,-406.83 3459.43,-406.83 3459.43,-406.83 3465.43,-406.83 3471.43,-412.83 3471.43,-418.83 3471.43,-418.83 3471.43,-430.83 3471.43,-430.83 3471.43,-436.83 3465.43,-442.83 3459.43,-442.83"/>
<text text-anchor="start" x="2923.03" y="-421.15" font-family="Times,serif" font-weight="bold" font-size="14.00">50: </text>
<text text-anchor="start" x="2952.28" y="-421.15" font-family="Times,serif" font-size="14.00">War eine Sperrung wegen eines Verhinderungsgrundes nicht m&#246;glich?</text>
</g>
<!-- 40&#45;&gt;50 -->
<g id="edge9" class="edge">
<title>40-&gt;50</title>
<path fill="none" stroke="black" d="M2860.05,-516.59C2934.2,-496.2 3043.61,-466.1 3115.84,-446.24"/>
<polygon fill="black" stroke="black" points="3116.48,-449.69 3125.19,-443.66 3114.62,-442.94 3116.48,-449.69"/>
<text text-anchor="middle" x="3026.9" y="-477.54" font-family="Times,serif" font-size="14.00">Nein</text>
</g>
<!-- A04 -->
<g id="node11" class="node">
<title>A04</title>
<polygon fill="#cfb986" stroke="black" points="3283.14,-333.94 2822.91,-333.94 2822.91,-260.42 3283.14,-260.42 3283.14,-333.94"/>
<text text-anchor="start" x="3038.03" y="-315.88" font-family="Times,serif" font-weight="bold" font-size="14.00">A04</text>
<text text-anchor="start" x="2835.15" y="-303.78" font-family="Times,serif" text-decoration="underline" font-size="12.00">Hinweis:</text>
<text text-anchor="start" x="2835.15" y="-291.78" font-family="Times,serif" font-size="12.00">Cluster: gescheitert</text>
<text text-anchor="start" x="2835.15" y="-279.78" font-family="Times,serif" font-size="12.00">Marktlokation wurde nicht gesperrt, da ein Verhinderungsgrund vorlag.</text>
<text text-anchor="start" x="2835.15" y="-267.78" font-family="Times,serif" font-size="12.00">Hinweis: Im Freitext muss der Verhinderungsgrund mitgeteilt werden.</text>
</g>
<!-- 50&#45;&gt;A04 -->
<g id="edge10" class="edge">
<title>50-&gt;A04</title>
<path fill="none" stroke="black" d="M3170.98,-406.36C3152.89,-389.77 3124.95,-364.15 3100.81,-342.01"/>
<polygon fill="black" stroke="black" points="3103.3,-339.54 3093.57,-335.36 3098.57,-344.7 3103.3,-339.54"/>
<text text-anchor="middle" x="3144.78" y="-362.77" font-family="Times,serif" font-size="14.00">Ja</text>
</g>
<!-- 60 -->
<g id="node12" class="node">
<title>60</title>
<path fill="#7aab8a" stroke="black" d="M3817.18,-340.82C3817.18,-340.82 3312.88,-340.82 3312.88,-340.82 3306.88,-340.82 3300.88,-334.82 3300.88,-328.82 3300.88,-328.82 3300.88,-265.54 3300.88,-265.54 3300.88,-259.54 3306.88,-253.54 3312.88,-253.54 3312.88,-253.54 3817.18,-253.54 3817.18,-253.54 3823.18,-253.54 3829.18,-259.54 3829.18,-265.54 3829.18,-265.54 3829.18,-328.82 3829.18,-328.82 3829.18,-334.82 3823.18,-340.82 3817.18,-340.82"/>
<text text-anchor="start" x="3315.28" y="-319.88" font-family="Times,serif" font-weight="bold" font-size="14.00">60: </text>
<text text-anchor="start" x="3344.53" y="-319.88" font-family="Times,serif" font-size="14.00">War eine Sperrung aus einem tats&#228;chlichen Grund nicht m&#246;glich?</text>
<text text-anchor="start" x="3315.28" y="-305.88" font-family="Times,serif" font-size="14.00">Unter tats&#228;chliche Gr&#252;nde fallen z. B.</text>
<text text-anchor="start" x="3315.28" y="-291.88" font-family="Times,serif" font-size="14.00">Marktlokation vor Ort nicht identifizierbar</text>
<text text-anchor="start" x="3315.28" y="-277.88" font-family="Times,serif" font-size="14.00">Zugang zur Marktlokation nicht m&#246;glich</text>
<text text-anchor="start" x="3315.28" y="-263.88" font-family="Times,serif" font-size="14.00">Kundenwechsel an der Marktlokation festgestellt</text>
</g>
<!-- 50&#45;&gt;60 -->
<g id="edge11" class="edge">
<title>50-&gt;60</title>
<path fill="none" stroke="black" d="M3242.17,-406.36C3289.64,-390.45 3361.89,-366.24 3426.01,-344.76"/>
<polygon fill="black" stroke="black" points="3426.84,-348.17 3435.21,-341.68 3424.61,-341.54 3426.84,-348.17"/>
<text text-anchor="middle" x="3394.9" y="-362.77" font-family="Times,serif" font-size="14.00">Nein</text>
</g>
<!-- A05 -->
<g id="node13" class="node">
<title>A05</title>
<polygon fill="#cfb986" stroke="black" points="3658.64,-200.29 3201.41,-200.29 3201.41,-126.77 3658.64,-126.77 3658.64,-200.29"/>
<text text-anchor="start" x="3415.03" y="-182.23" font-family="Times,serif" font-weight="bold" font-size="14.00">A05</text>
<text text-anchor="start" x="3213.65" y="-170.13" font-family="Times,serif" text-decoration="underline" font-size="12.00">Hinweis:</text>
<text text-anchor="start" x="3213.65" y="-158.13" font-family="Times,serif" font-size="12.00">Cluster: gescheitert</text>
<text text-anchor="start" x="3213.65" y="-146.13" font-family="Times,serif" font-size="12.00">Marktlokation wurde nicht gesperrt, da ein tats&#228;chlicher Grund vorlag.</text>
<text text-anchor="start" x="3213.65" y="-134.13" font-family="Times,serif" font-size="12.00">Hinweis: Im Freitext muss der tats&#228;chliche Grund mitgeteilt werden.</text>
</g>
<!-- 60&#45;&gt;A05 -->
<g id="edge12" class="edge">
<title>60-&gt;A05</title>
<path fill="none" stroke="black" d="M3520.82,-253.07C3506.16,-238.77 3489.82,-222.84 3475.09,-208.48"/>
<polygon fill="black" stroke="black" points="3477.79,-206.22 3468.18,-201.74 3472.9,-211.23 3477.79,-206.22"/>
<text text-anchor="middle" x="3508.78" y="-222.24" font-family="Times,serif" font-size="14.00">Ja</text>
</g>
<!-- 70 -->
<g id="node14" class="node">
<title>70</title>
<path fill="#7aab8a" stroke="black" d="M4183.3,-181.53C4183.3,-181.53 3688.75,-181.53 3688.75,-181.53 3682.75,-181.53 3676.75,-175.53 3676.75,-169.53 3676.75,-169.53 3676.75,-157.53 3676.75,-157.53 3676.75,-151.53 3682.75,-145.53 3688.75,-145.53 3688.75,-145.53 4183.3,-145.53 4183.3,-145.53 4189.3,-145.53 4195.3,-151.53 4195.3,-157.53 4195.3,-157.53 4195.3,-169.53 4195.3,-169.53 4195.3,-175.53 4189.3,-181.53 4183.3,-181.53"/>
<text text-anchor="start" x="3691.15" y="-159.85" font-family="Times,serif" font-weight="bold" font-size="14.00">70: </text>
<text text-anchor="start" x="3720.4" y="-159.85" font-family="Times,serif" font-size="14.00">War eine Sperrung aus einem technischen Grund nicht m&#246;glich?</text>
</g>
<!-- 60&#45;&gt;70 -->
<g id="edge13" class="edge">
<title>60-&gt;70</title>
<path fill="none" stroke="black" d="M3686.5,-253.07C3750.1,-230.51 3825.13,-203.88 3876.19,-185.76"/>
<polygon fill="black" stroke="black" points="3877.35,-189.07 3885.6,-182.42 3875.01,-182.47 3877.35,-189.07"/>
<text text-anchor="middle" x="3800.9" y="-222.24" font-family="Times,serif" font-size="14.00">Nein</text>
</g>
<!-- A06 -->
<g id="node15" class="node">
<title>A06</title>
<polygon fill="#cfb986" stroke="black" points="3986.14,-73.52 3537.91,-73.52 3537.91,0 3986.14,0 3986.14,-73.52"/>
<text text-anchor="start" x="3747.03" y="-55.46" font-family="Times,serif" font-weight="bold" font-size="14.00">A06</text>
<text text-anchor="start" x="3550.15" y="-43.36" font-family="Times,serif" text-decoration="underline" font-size="12.00">Hinweis:</text>
<text text-anchor="start" x="3550.15" y="-31.36" font-family="Times,serif" font-size="12.00">Cluster: gescheitert</text>
<text text-anchor="start" x="3550.15" y="-19.36" font-family="Times,serif" font-size="12.00">Marktlokation wurde nicht gesperrt, da ein technischer Grund vorlag.</text>
<text text-anchor="start" x="3550.15" y="-7.36" font-family="Times,serif" font-size="12.00">Hinweis: Im Freitext muss der technische Grund mitgeteilt werden.</text>
</g>
<!-- 70&#45;&gt;A06 -->
<g id="edge14" class="edge">
<title>70-&gt;A06</title>
<path fill="none" stroke="black" d="M3911.83,-145.18C3888.54,-128.48 3852.4,-102.57 3821.45,-80.37"/>
<polygon fill="black" stroke="black" points="3823.85,-77.79 3813.69,-74.8 3819.77,-83.48 3823.85,-77.79"/>
<text text-anchor="middle" x="3866.78" y="-95.47" font-family="Times,serif" font-size="14.00">Ja</text>
</g>
<!-- A07 -->
<g id="node16" class="node">
<title>A07</title>
<polygon fill="#cfb986" stroke="black" points="4216.01,-67.52 4004.03,-67.52 4004.03,-6 4216.01,-6 4216.01,-67.52"/>
<text text-anchor="start" x="4095.02" y="-49.46" font-family="Times,serif" font-weight="bold" font-size="14.00">A07</text>
<text text-anchor="start" x="4016.27" y="-37.36" font-family="Times,serif" text-decoration="underline" font-size="12.00">Hinweis:</text>
<text text-anchor="start" x="4016.27" y="-25.36" font-family="Times,serif" font-size="12.00">Cluster: erfolgreich</text>
<text text-anchor="start" x="4016.27" y="-13.36" font-family="Times,serif" font-size="12.00">Marktlokation wurde gesperrt.</text>
</g>
<!-- 70&#45;&gt;A07 -->
<g id="edge15" class="edge">
<title>70-&gt;A07</title>
<path fill="none" stroke="black" d="M3960.22,-145.18C3985.65,-126.94 4026.43,-97.71 4059.02,-74.34"/>
<polygon fill="black" stroke="black" points="4060.66,-77.47 4066.74,-68.8 4056.58,-71.78 4060.66,-77.47"/>
<text text-anchor="middle" x="4050.9" y="-95.47" font-family="Times,serif" font-size="14.00">Nein</text>
</g>
</g>
</svg>
  </g>
</svg>
  </g>
</svg>
