<?xml version='1.0' encoding='ASCII' standalone='yes'?>
<svg xmlns="http://www.w3.org/2000/svg" xmlns:xlink="http://www.w3.org/1999/xlink" version="1.1" width="1106.6666666666667px" viewBox="0 0 1106.6666666666667 465.3333333333333" height="465.3333333333333px">
  <g>
    <svg version="1.1" width="1106.6666666666667px" viewBox="0 0 1106.6666666666667 465.3333333333333" height="465.3333333333333px">
  <polygon fill="#f3f1f6" points="0,0 1106.6666666666667,0 1106.6666666666667,465.3333333333333 0,465.3333333333333"/><g>
    <g transform="translate(367.3380672910214, 46.533333333333324) scale(1 1) translate(0, 0) scale(2.1045239085637126 2.1045239085637126) "><sodipodi:namedview xmlns:sodipodi="http://sodipodi.sourceforge.net/DTD/sodipodi-0.dtd" xmlns:inkscape="http://www.inkscape.org/namespaces/inkscape" id="namedview7" pagecolor="#ffffff" bordercolor="#999999" borderopacity="1" inkscape:pageshadow="0" inkscape:pageopacity="0" inkscape:pagecheckerboard="0" inkscape:document-units="mm" showgrid="false" fit-margin-top="0" fit-margin-left="0" fit-margin-right="0" fit-margin-bottom="0" inkscape:zoom="0.64052329" inkscape:cx="130.36216" inkscape:cy="412.163" inkscape:window-width="1512" inkscape:window-height="916" inkscape:window-x="3840" inkscape:window-y="136" inkscape:window-maximized="0" inkscape:current-layer="layer1"/>
  <defs id="defs2">
    <clipPath clipPathUnits="userSpaceOnUse" id="clipPath23">
      <path d="M 0,568.156 H 579.236 V 0 H 0 Z" id="path21"/>
    </clipPath>
  </defs>
  <g xmlns:inkscape="http://www.inkscape.org/namespaces/inkscape" inkscape:label="Layer 1" inkscape:groupmode="layer" id="layer1" transform="translate(-16.541937,-55.305267)">
    <g id="g19" clip-path="url(#clipPath23)" transform="matrix(0.35277777,0,0,-0.35277777,0.01017023,243.73675)" style="opacity:0.2">
      <g id="g25" transform="translate(122.444,32.7195)">
        <path d="m 0,0 h -56.104 c -11,0 -19.898,9.123 -19.463,20.115 10.594,267.191 231.277,481.302 501.029,481.302 v -56.02 c 0,-10.98 -8.688,-19.892 -19.658,-20.393 C 180.29,414.697 0,228.005 0,0" style="fill:#6ead83;fill-opacity:0.5;fill-rule:nonzero;stroke:none" id="path27"/>
      </g>
      <g id="g29" transform="translate(273.7828,32.7195)">
        <path d="m 0,0 h -55.926 c -11.228,0 -20.091,9.482 -19.435,20.69 10.744,183.439 163.389,329.388 349.485,329.388 v -56.263 c 0,-10.709 -8.273,-19.617 -18.957,-20.35 C 112.819,263.696 0,144.774 0,0" style="fill:#6ead83;fill-opacity:0.5;fill-rule:nonzero;stroke:none" id="path31"/>
      </g>
      <g id="g33" transform="translate(425.7667,32.7195)">
        <path d="m 0,0 h -55.445 c -11.653,0 -20.604,10.17 -19.334,21.753 10.866,99.032 95.031,176.341 196.919,176.341 v -57.011 c 0,-10.046 -7.283,-18.755 -17.229,-20.165 C 45.688,112.522 0,61.497 0,0" style="fill:#6ead83;fill-opacity:0.5;fill-rule:nonzero;stroke:none" id="path35"/>
      </g>
    </g>
  </g>
</g>
    <svg width="830pt" height="349pt" viewBox="0.00 0.00 829.50 349.05">
<g id="graph0" class="graph" transform="scale(1 1) rotate(0) translate(4 345.05)">
<title>D</title>
<text text-anchor="start" x="8" y="-320.95" font-family="Times,serif" font-weight="bold" font-size="18.00">Sperrprozesse Gas</text>
<text text-anchor="start" x="8" y="-290.85" font-family="Times,serif" font-weight="bold" font-size="16.00">17.3.2: AD: Wiederherstellung der Anschlussnutzung (Entsperren) auf Anweisung des LF</text>
<!-- Start -->
<g id="node1" class="node">
<title>Start</title>
<path fill="#7a8da1" stroke="black" stroke-width="0" d="M435.84,-243.05C435.84,-243.05 299.79,-243.05 299.79,-243.05 293.79,-243.05 287.79,-237.05 287.79,-231.05 287.79,-231.05 287.79,-211.77 287.79,-211.77 287.79,-205.77 293.79,-199.77 299.79,-199.77 299.79,-199.77 435.84,-199.77 435.84,-199.77 441.84,-199.77 447.84,-205.77 447.84,-211.77 447.84,-211.77 447.84,-231.05 447.84,-231.05 447.84,-237.05 441.84,-243.05 435.84,-243.05"/>
<text text-anchor="start" x="339.69" y="-222.11" font-family="Times,serif" font-weight="bold" font-size="14.00">E_1005</text>
<text text-anchor="start" x="302.19" y="-210.01" font-family="Times,serif" font-weight="bold" text-decoration="underline" font-size="12.00">Pr&#252;fende Rolle:</text>
<text text-anchor="start" x="407.19" y="-210.01" font-family="Times,serif" font-weight="bold" font-size="12.00"> NB</text>
</g>
<!-- 10 -->
<g id="node2" class="node">
<title>10</title>
<path fill="#7aab8a" stroke="black" stroke-width="0" d="M578.34,-162.77C578.34,-162.77 157.29,-162.77 157.29,-162.77 151.29,-162.77 145.29,-156.77 145.29,-150.77 145.29,-150.77 145.29,-138.77 145.29,-138.77 145.29,-132.77 151.29,-126.77 157.29,-126.77 157.29,-126.77 578.34,-126.77 578.34,-126.77 584.34,-126.77 590.34,-132.77 590.34,-138.77 590.34,-138.77 590.34,-150.77 590.34,-150.77 590.34,-156.77 584.34,-162.77 578.34,-162.77"/>
<text text-anchor="start" x="159.69" y="-141.09" font-family="Times,serif" font-weight="bold" font-size="14.00">10: </text>
<text text-anchor="start" x="188.94" y="-141.09" font-family="Times,serif" font-size="14.00">Ist die Entsperrung erfolgreich durchgef&#252;hrt worden?</text>
</g>
<!-- Start&#45;&gt;10 -->
<g id="edge1" class="edge">
<title>Start-&gt;10</title>
<path fill="none" stroke="black" d="M367.81,-200.01C367.81,-191.94 367.81,-182.53 367.81,-173.84"/>
<polygon fill="black" stroke="black" points="371.31,-174.13 367.81,-164.13 364.31,-174.13 371.31,-174.13"/>
</g>
<!-- A01 -->
<g id="node3" class="node">
<title>A01</title>
<path fill="#cfb986" stroke="black" stroke-width="0" d="M304.05,-67.52C304.05,-67.52 135.57,-67.52 135.57,-67.52 129.57,-67.52 123.57,-61.52 123.57,-55.52 123.57,-55.52 123.57,-18 123.57,-18 123.57,-12 129.57,-6 135.57,-6 135.57,-6 304.05,-6 304.05,-6 310.05,-6 316.05,-12 316.05,-18 316.05,-18 316.05,-55.52 316.05,-55.52 316.05,-61.52 310.05,-67.52 304.05,-67.52"/>
<text text-anchor="start" x="135.81" y="-49.46" font-family="Times,serif" font-weight="bold" font-size="14.00">A01</text>
<text text-anchor="start" x="135.81" y="-37.36" font-family="Times,serif" text-decoration="underline" font-size="12.00">Hinweis:</text>
<text text-anchor="start" x="135.81" y="-25.36" font-family="Times,serif" font-size="12.00">Cluster: erfolgreich</text>
<text text-anchor="start" x="135.81" y="-13.36" font-family="Times,serif" font-size="12.00">Marktlokation ist entsperrt.</text>
</g>
<!-- 10&#45;&gt;A01 -->
<g id="edge2" class="edge">
<title>10-&gt;A01</title>
<path fill="none" stroke="#7aab8a" d="M344.36,-126.97C324.54,-112.78 295.46,-91.95 270.38,-73.98"/>
<polygon fill="#7aab8a" stroke="#7aab8a" points="272.75,-71.37 262.58,-68.39 268.67,-77.06 272.75,-71.37"/>
<text text-anchor="start" x="314.81" y="-96.47" font-family="Times,serif" font-weight="bold" font-size="14.00">JA</text>
</g>
<!-- A02 -->
<g id="node4" class="node">
<title>A02</title>
<path fill="#cfb986" stroke="black" stroke-width="0" d="M685.93,-73.52C685.93,-73.52 345.7,-73.52 345.7,-73.52 339.7,-73.52 333.7,-67.52 333.7,-61.52 333.7,-61.52 333.7,-12 333.7,-12 333.7,-6 339.7,0 345.7,0 345.7,0 685.93,0 685.93,0 691.93,0 697.93,-6 697.93,-12 697.93,-12 697.93,-61.52 697.93,-61.52 697.93,-67.52 691.93,-73.52 685.93,-73.52"/>
<text text-anchor="start" x="345.94" y="-55.46" font-family="Times,serif" font-weight="bold" font-size="14.00">A02</text>
<text text-anchor="start" x="345.94" y="-43.36" font-family="Times,serif" text-decoration="underline" font-size="12.00">Hinweis:</text>
<text text-anchor="start" x="345.94" y="-31.36" font-family="Times,serif" font-size="12.00">Cluster: gescheitert</text>
<text text-anchor="start" x="345.94" y="-19.36" font-family="Times,serif" font-size="12.00">Marktlokation ist weiterhin gesperrt.</text>
<text text-anchor="start" x="345.94" y="-7.36" font-family="Times,serif" font-size="12.00">Hinweis: Die Gr&#252;nde des Scheiterns sind zu &#252;bermitteln.</text>
</g>
<!-- 10&#45;&gt;A02 -->
<g id="edge3" class="edge">
<title>10-&gt;A02</title>
<path fill="none" stroke="#7aab8a" d="M391.26,-126.97C408.89,-114.35 433.84,-96.48 456.78,-80.04"/>
<polygon fill="#7aab8a" stroke="#7aab8a" points="458.8,-82.9 464.9,-74.23 454.73,-77.21 458.8,-82.9"/>
<text text-anchor="start" x="436.81" y="-96.47" font-family="Times,serif" font-weight="bold" font-size="14.00">NEIN</text>
</g>
</g>
</svg>
  </g>
</svg>
  </g>
</svg>
