<?xml version='1.0' encoding='ASCII' standalone='yes'?>
<svg xmlns="http://www.w3.org/2000/svg" xmlns:xlink="http://www.w3.org/1999/xlink" version="1.1" width="1898.6666666666667px" viewBox="0 0 1898.6666666666667 1534.6666666666667" height="1534.6666666666667px">
  <g>
    <svg version="1.1" width="1898.6666666666667px" viewBox="0 0 1898.6666666666667 1534.6666666666667" height="1534.6666666666667px">
  <rect fill="#e7e6e5" x="0" y="0" width="1898.6666666666667" height="1534.6666666666667" rx="20" ry="20"/><g>
    <g transform="translate(323.4953158734629, 153.46666666666664) scale(1 1) translate(0, 0) scale(2.160893644982634 2.160893644982634) "><!-- note that I manually added the width and height attribute to the root node
  https://chatgpt.com/share/678e3028-70cc-800b-a296-782714735772
  -->
  <defs>
    <style>.cls-1{fill:#fff;}</style>
  </defs>
  <path class="cls-1" d="M122.44,531.2h-56.1c-11,0-19.9-9.12-19.46-20.11C57.47,243.89,278.15,29.78,547.91,29.78v56.02c0,10.98-8.69,19.89-19.66,20.39-225.51,10.31-405.8,197-405.8,425Z"/>
  <path class="cls-1" d="M273.78,531.2h-55.93c-11.23,0-20.09-9.48-19.43-20.69,10.74-183.44,163.39-329.39,349.48-329.39v56.26c0,10.71-8.27,19.62-18.96,20.35-142.35,9.77-255.17,128.69-255.17,273.46Z"/>
  <path class="cls-1" d="M425.77,531.2h-55.45c-11.65,0-20.6-10.17-19.33-21.75,10.87-99.03,95.03-176.34,196.92-176.34v57.01c0,10.05-7.28,18.75-17.23,20.16-59.22,8.4-104.91,59.42-104.91,120.92Z"/>
</g>
    <svg width="1424pt" height="1151pt" viewBox="0.00 0.00 1424.43 1151.27">
<g id="graph0" class="graph" transform="scale(1 1) rotate(0) translate(4 1147.27)">
<title>D</title>
<text text-anchor="start" x="338.84" y="-1123.17" font-family="Roboto, sans-serif" font-weight="bold" font-size="18.00">Sperrprozesse Gas</text>
<text text-anchor="start" x="338.84" y="-1093.07" font-family="Roboto, sans-serif" font-weight="bold" font-size="16.00">17.2.4: AD: Unterbrechung der Anschlussnutzung (Sperren) auf Anweisung des LF</text>
<!-- Start -->
<g id="node1" class="node">
<title>Start</title>
<path fill="#8ba2d7" stroke="black" stroke-width="0" d="M356.92,-1045.27C356.92,-1045.27 225.37,-1045.27 225.37,-1045.27 219.37,-1045.27 213.37,-1039.27 213.37,-1033.27 213.37,-1033.27 213.37,-1013.99 213.37,-1013.99 213.37,-1007.99 219.37,-1001.99 225.37,-1001.99 225.37,-1001.99 356.92,-1001.99 356.92,-1001.99 362.92,-1001.99 368.92,-1007.99 368.92,-1013.99 368.92,-1013.99 368.92,-1033.27 368.92,-1033.27 368.92,-1039.27 362.92,-1045.27 356.92,-1045.27"/>
<text text-anchor="start" x="227.77" y="-1024.33" font-family="Roboto, sans-serif" font-weight="bold" font-size="14.00">E_1003</text>
<text text-anchor="start" x="227.77" y="-1012.23" font-family="Roboto, sans-serif" font-weight="bold" text-decoration="underline" font-size="12.00">Pr&#252;fende Rolle:</text>
<text text-anchor="start" x="331.27" y="-1012.23" font-family="Roboto, sans-serif" font-weight="bold" font-size="12.00"> NB</text>
</g>
<!-- 10 -->
<g id="node2" class="node">
<title>10</title>
<path fill="#c2cee9" stroke="black" stroke-width="0" d="M570.3,-964.99C570.3,-964.99 12,-964.99 12,-964.99 6,-964.99 0,-958.99 0,-952.99 0,-952.99 0,-931.71 0,-931.71 0,-925.71 6,-919.71 12,-919.71 12,-919.71 570.3,-919.71 570.3,-919.71 576.3,-919.71 582.3,-925.71 582.3,-931.71 582.3,-931.71 582.3,-952.99 582.3,-952.99 582.3,-958.99 576.3,-964.99 570.3,-964.99"/>
<text text-anchor="start" x="14.4" y="-944.05" font-family="Roboto, sans-serif" font-weight="bold" font-size="14.00">10: </text>
<text text-anchor="start" x="43.65" y="-944.05" font-family="Roboto, sans-serif" font-size="14.00">War eine Sperrung aus rechtlichen Gr&#252;nden nicht m&#246;glich (z.&#160;B., wenn eine</text>
<text text-anchor="start" x="14.4" y="-930.05" font-family="Roboto, sans-serif" font-size="14.00">Einstweilige Verf&#252;gung vorlag)?</text>
</g>
<!-- Start&#45;&gt;10 -->
<g id="edge1" class="edge">
<title>Start-&gt;10</title>
<path fill="none" stroke="#88a0d6" d="M291.15,-1002.21C291.15,-994.24 291.15,-984.89 291.15,-976.03"/>
<polygon fill="#88a0d6" stroke="#88a0d6" points="294.65,-976.32 291.15,-966.32 287.65,-976.32 294.65,-976.32"/>
</g>
<!-- A01 -->
<g id="node3" class="node">
<title>A01</title>
<path fill="#c4cac1" stroke="black" stroke-width="0" d="M528.8,-866.46C528.8,-866.46 21.5,-866.46 21.5,-866.46 15.5,-866.46 9.5,-860.46 9.5,-854.46 9.5,-854.46 9.5,-811.18 9.5,-811.18 9.5,-805.18 15.5,-799.18 21.5,-799.18 21.5,-799.18 528.8,-799.18 528.8,-799.18 534.8,-799.18 540.8,-805.18 540.8,-811.18 540.8,-811.18 540.8,-854.46 540.8,-854.46 540.8,-860.46 534.8,-866.46 528.8,-866.46"/>
<text text-anchor="start" x="23.9" y="-845.52" font-family="Roboto, sans-serif" font-weight="bold" font-size="14.00">A01</text>
<text text-anchor="start" x="23.9" y="-833.42" font-family="Roboto, sans-serif" text-decoration="underline" font-size="12.00">Hinweis:</text>
<text text-anchor="start" x="23.9" y="-821.42" font-family="Roboto, sans-serif" font-size="12.00">Cluster: gescheitert</text>
<text text-anchor="start" x="23.9" y="-809.42" font-family="Roboto, sans-serif" font-size="12.00">Marktlokation wurde nicht gesperrt, da ein rechtlicher Grund vor Ort erkannt wurde.</text>
</g>
<!-- 10&#45;&gt;A01 -->
<g id="edge2" class="edge">
<title>10-&gt;A01</title>
<path fill="none" stroke="#88a0d6" d="M287.95,-919.85C286.15,-907.76 283.84,-892.21 281.67,-877.67"/>
<polygon fill="#88a0d6" stroke="#88a0d6" points="285.14,-877.18 280.21,-867.81 278.22,-878.21 285.14,-877.18"/>
<text text-anchor="start" x="284.15" y="-889.41" font-family="Roboto, sans-serif" font-weight="bold" font-size="14.00">JA</text>
</g>
<!-- 20 -->
<g id="node4" class="node">
<title>20</title>
<path fill="#c2cee9" stroke="black" stroke-width="0" d="M1143.05,-855.46C1143.05,-855.46 571.25,-855.46 571.25,-855.46 565.25,-855.46 559.25,-849.46 559.25,-843.46 559.25,-843.46 559.25,-822.18 559.25,-822.18 559.25,-816.18 565.25,-810.18 571.25,-810.18 571.25,-810.18 1143.05,-810.18 1143.05,-810.18 1149.05,-810.18 1155.05,-816.18 1155.05,-822.18 1155.05,-822.18 1155.05,-843.46 1155.05,-843.46 1155.05,-849.46 1149.05,-855.46 1143.05,-855.46"/>
<text text-anchor="start" x="573.65" y="-834.52" font-family="Roboto, sans-serif" font-weight="bold" font-size="14.00">20: </text>
<text text-anchor="start" x="602.9" y="-834.52" font-family="Roboto, sans-serif" font-size="14.00">Wurde der Anschlussnutzer angetroffen?</text>
<text text-anchor="start" x="573.65" y="-820.52" font-family="Roboto, sans-serif" font-size="14.00">Hinweis: Es gab keine Anzeichen daf&#252;r, dass der Anschlussnutzer anwesend war.</text>
</g>
<!-- 10&#45;&gt;20 -->
<g id="edge3" class="edge">
<title>10-&gt;20</title>
<path fill="none" stroke="#88a0d6" d="M405.01,-919.72C499.81,-901.71 634.62,-876.1 732.34,-857.53"/>
<polygon fill="#88a0d6" stroke="#88a0d6" points="732.82,-861 741.99,-855.7 731.51,-854.13 732.82,-861"/>
<text text-anchor="start" x="574.15" y="-889.41" font-family="Roboto, sans-serif" font-weight="bold" font-size="14.00">NEIN</text>
</g>
<!-- A08 -->
<g id="node5" class="node">
<title>A08</title>
<path fill="#c4cac1" stroke="black" stroke-width="0" d="M649.67,-745.93C649.67,-745.93 156.62,-745.93 156.62,-745.93 150.62,-745.93 144.62,-739.93 144.62,-733.93 144.62,-733.93 144.62,-678.65 144.62,-678.65 144.62,-672.65 150.62,-666.65 156.62,-666.65 156.62,-666.65 649.67,-666.65 649.67,-666.65 655.67,-666.65 661.67,-672.65 661.67,-678.65 661.67,-678.65 661.67,-733.93 661.67,-733.93 661.67,-739.93 655.67,-745.93 649.67,-745.93"/>
<text text-anchor="start" x="159.02" y="-724.99" font-family="Roboto, sans-serif" font-weight="bold" font-size="14.00">A08</text>
<text text-anchor="start" x="159.02" y="-712.89" font-family="Roboto, sans-serif" text-decoration="underline" font-size="12.00">Hinweis:</text>
<text text-anchor="start" x="159.02" y="-700.89" font-family="Roboto, sans-serif" font-size="12.00">Cluster: gescheitert</text>
<text text-anchor="start" x="159.02" y="-688.89" font-family="Roboto, sans-serif" font-size="12.00">Der Anschlussnutzer wurde nicht angetroffen. Es gab keine Anzeichen daf&#252;r, dass</text>
<text text-anchor="start" x="159.02" y="-676.89" font-family="Roboto, sans-serif" font-size="12.00">dieser anwesend war.</text>
</g>
<!-- 20&#45;&gt;A08 -->
<g id="edge4" class="edge">
<title>20-&gt;A08</title>
<path fill="none" stroke="#88a0d6" d="M778.33,-810.2C716.86,-793.34 629.64,-769.41 554.76,-748.88"/>
<polygon fill="#88a0d6" stroke="#88a0d6" points="555.84,-745.54 545.27,-746.27 553.98,-752.29 555.84,-745.54"/>
<text text-anchor="start" x="670.15" y="-768.88" font-family="Roboto, sans-serif" font-weight="bold" font-size="14.00">NEIN</text>
</g>
<!-- 30 -->
<g id="node6" class="node">
<title>30</title>
<path fill="#c2cee9" stroke="black" stroke-width="0" d="M1287.05,-742.93C1287.05,-742.93 691.25,-742.93 691.25,-742.93 685.25,-742.93 679.25,-736.93 679.25,-730.93 679.25,-730.93 679.25,-681.65 679.25,-681.65 679.25,-675.65 685.25,-669.65 691.25,-669.65 691.25,-669.65 1287.05,-669.65 1287.05,-669.65 1293.05,-669.65 1299.05,-675.65 1299.05,-681.65 1299.05,-681.65 1299.05,-730.93 1299.05,-730.93 1299.05,-736.93 1293.05,-742.93 1287.05,-742.93"/>
<text text-anchor="start" x="693.65" y="-721.99" font-family="Roboto, sans-serif" font-weight="bold" font-size="14.00">30: </text>
<text text-anchor="start" x="722.9" y="-721.99" font-family="Roboto, sans-serif" font-size="14.00">War eine Sperrung aus dem Grund &#8222;aktive Zutrittsverweigerung&#8220; nicht m&#246;glich?</text>
<text text-anchor="start" x="693.65" y="-707.99" font-family="Roboto, sans-serif" font-size="14.00">Hinweis: Unter &#8222;aktive Zutrittsverweigerung&#8220; ist zu verstehen, dass der</text>
<text text-anchor="start" x="693.65" y="-693.99" font-family="Roboto, sans-serif" font-size="14.00">Anschlussnutzer angetroffen wurde und dieser den Zugang z.&#160;B. durch Drohungen,</text>
<text text-anchor="start" x="693.65" y="-679.99" font-family="Roboto, sans-serif" font-size="14.00">physische Angriffe, versperren des Zugangs zur Trennstelle unterbunden hat.</text>
</g>
<!-- 20&#45;&gt;30 -->
<g id="edge5" class="edge">
<title>20-&gt;30</title>
<path fill="none" stroke="#88a0d6" d="M879.84,-810.41C897.22,-794.02 921.76,-770.87 943.19,-750.65"/>
<polygon fill="#88a0d6" stroke="#88a0d6" points="945.56,-753.22 950.43,-743.81 940.76,-748.13 945.56,-753.22"/>
<text text-anchor="start" x="926.15" y="-768.88" font-family="Roboto, sans-serif" font-weight="bold" font-size="14.00">JA</text>
</g>
<!-- A02 -->
<g id="node7" class="node">
<title>A02</title>
<path fill="#c4cac1" stroke="black" stroke-width="0" d="M710.3,-603.4C710.3,-603.4 230,-603.4 230,-603.4 224,-603.4 218,-597.4 218,-591.4 218,-591.4 218,-548.12 218,-548.12 218,-542.12 224,-536.12 230,-536.12 230,-536.12 710.3,-536.12 710.3,-536.12 716.3,-536.12 722.3,-542.12 722.3,-548.12 722.3,-548.12 722.3,-591.4 722.3,-591.4 722.3,-597.4 716.3,-603.4 710.3,-603.4"/>
<text text-anchor="start" x="232.4" y="-582.46" font-family="Roboto, sans-serif" font-weight="bold" font-size="14.00">A02</text>
<text text-anchor="start" x="232.4" y="-570.36" font-family="Roboto, sans-serif" text-decoration="underline" font-size="12.00">Hinweis:</text>
<text text-anchor="start" x="232.4" y="-558.36" font-family="Roboto, sans-serif" font-size="12.00">Cluster: gescheitert</text>
<text text-anchor="start" x="232.4" y="-546.36" font-family="Roboto, sans-serif" font-size="12.00">Marktlokation wurde nicht gesperrt, da eine aktive Zutrittsverweigerung vorlag.</text>
</g>
<!-- 30&#45;&gt;A02 -->
<g id="edge6" class="edge">
<title>30-&gt;A02</title>
<path fill="none" stroke="#88a0d6" d="M851.77,-669.68C776.06,-650.06 682.39,-625.77 606.79,-606.18"/>
<polygon fill="#88a0d6" stroke="#88a0d6" points="607.8,-602.82 597.24,-603.7 606.04,-609.6 607.8,-602.82"/>
<text text-anchor="start" x="760.15" y="-636.35" font-family="Roboto, sans-serif" font-weight="bold" font-size="14.00">JA</text>
</g>
<!-- 40 -->
<g id="node8" class="node">
<title>40</title>
<path fill="#c2cee9" stroke="black" stroke-width="0" d="M1358.3,-613.4C1358.3,-613.4 752,-613.4 752,-613.4 746,-613.4 740,-607.4 740,-601.4 740,-601.4 740,-538.12 740,-538.12 740,-532.12 746,-526.12 752,-526.12 752,-526.12 1358.3,-526.12 1358.3,-526.12 1364.3,-526.12 1370.3,-532.12 1370.3,-538.12 1370.3,-538.12 1370.3,-601.4 1370.3,-601.4 1370.3,-607.4 1364.3,-613.4 1358.3,-613.4"/>
<text text-anchor="start" x="754.4" y="-592.46" font-family="Roboto, sans-serif" font-weight="bold" font-size="14.00">40: </text>
<text text-anchor="start" x="783.65" y="-592.46" font-family="Roboto, sans-serif" font-size="14.00">War eine Sperrung aus dem Grund &#8222;passive Zutrittsverweigerung&#8220; nicht m&#246;glich?</text>
<text text-anchor="start" x="754.4" y="-578.46" font-family="Roboto, sans-serif" font-size="14.00">Hinweis: Unter &#8222;passiver Zutrittsverweigerung&#8220; ist zu verstehen, dass eine</text>
<text text-anchor="start" x="754.4" y="-564.46" font-family="Roboto, sans-serif" font-size="14.00">Anwesenheit des Anschlussnutzers festgestellt wurde, dieser jedoch seine</text>
<text text-anchor="start" x="754.4" y="-550.46" font-family="Roboto, sans-serif" font-size="14.00">Anwesenheit verleugnet. (z.B. Anschlussnutzer wurden in der Wohnung gesichtet,</text>
<text text-anchor="start" x="754.4" y="-536.46" font-family="Roboto, sans-serif" font-size="14.00">&#246;ffnet aber die T&#252;r nicht).</text>
</g>
<!-- 30&#45;&gt;40 -->
<g id="edge7" class="edge">
<title>30-&gt;40</title>
<path fill="none" stroke="#88a0d6" d="M1006.49,-669.94C1013.51,-655.64 1021.76,-638.83 1029.45,-623.15"/>
<polygon fill="#88a0d6" stroke="#88a0d6" points="1032.47,-624.93 1033.74,-614.41 1026.19,-621.84 1032.47,-624.93"/>
<text text-anchor="start" x="1023.15" y="-636.35" font-family="Roboto, sans-serif" font-weight="bold" font-size="14.00">NEIN</text>
</g>
<!-- A03 -->
<g id="node9" class="node">
<title>A03</title>
<path fill="#c4cac1" stroke="black" stroke-width="0" d="M803.42,-472.87C803.42,-472.87 314.88,-472.87 314.88,-472.87 308.88,-472.87 302.88,-466.87 302.88,-460.87 302.88,-460.87 302.88,-417.59 302.88,-417.59 302.88,-411.59 308.88,-405.59 314.88,-405.59 314.88,-405.59 803.42,-405.59 803.42,-405.59 809.42,-405.59 815.42,-411.59 815.42,-417.59 815.42,-417.59 815.42,-460.87 815.42,-460.87 815.42,-466.87 809.42,-472.87 803.42,-472.87"/>
<text text-anchor="start" x="317.27" y="-451.93" font-family="Roboto, sans-serif" font-weight="bold" font-size="14.00">A03</text>
<text text-anchor="start" x="317.27" y="-439.83" font-family="Roboto, sans-serif" text-decoration="underline" font-size="12.00">Hinweis:</text>
<text text-anchor="start" x="317.27" y="-427.83" font-family="Roboto, sans-serif" font-size="12.00">Cluster: gescheitert</text>
<text text-anchor="start" x="317.27" y="-415.83" font-family="Roboto, sans-serif" font-size="12.00">Marktlokation wurde nicht gesperrt, da eine passive Zutrittsverweigerung vorlag.</text>
</g>
<!-- 40&#45;&gt;A03 -->
<g id="edge8" class="edge">
<title>40-&gt;A03</title>
<path fill="none" stroke="#88a0d6" d="M890.68,-526.14C827.63,-509.8 756.42,-491.35 696.21,-475.75"/>
<polygon fill="#88a0d6" stroke="#88a0d6" points="697.12,-472.37 686.56,-473.25 695.37,-479.14 697.12,-472.37"/>
<text text-anchor="start" x="807.15" y="-495.82" font-family="Roboto, sans-serif" font-weight="bold" font-size="14.00">JA</text>
</g>
<!-- 50 -->
<g id="node10" class="node">
<title>50</title>
<path fill="#c2cee9" stroke="black" stroke-width="0" d="M1370.43,-457.23C1370.43,-457.23 845.88,-457.23 845.88,-457.23 839.88,-457.23 833.88,-451.23 833.88,-445.23 833.88,-445.23 833.88,-433.23 833.88,-433.23 833.88,-427.23 839.88,-421.23 845.88,-421.23 845.88,-421.23 1370.43,-421.23 1370.43,-421.23 1376.43,-421.23 1382.43,-427.23 1382.43,-433.23 1382.43,-433.23 1382.43,-445.23 1382.43,-445.23 1382.43,-451.23 1376.43,-457.23 1370.43,-457.23"/>
<text text-anchor="start" x="848.28" y="-435.55" font-family="Roboto, sans-serif" font-weight="bold" font-size="14.00">50: </text>
<text text-anchor="start" x="877.53" y="-435.55" font-family="Roboto, sans-serif" font-size="14.00">War eine Sperrung wegen eines Verhinderungsgrundes nicht m&#246;glich?</text>
</g>
<!-- 40&#45;&gt;50 -->
<g id="edge9" class="edge">
<title>40-&gt;50</title>
<path fill="none" stroke="#88a0d6" d="M1072.65,-526.32C1080.66,-506.88 1089.92,-484.43 1096.98,-467.33"/>
<polygon fill="#88a0d6" stroke="#88a0d6" points="1100.1,-468.92 1100.68,-458.34 1093.63,-466.25 1100.1,-468.92"/>
<text text-anchor="start" x="1086.15" y="-495.82" font-family="Roboto, sans-serif" font-weight="bold" font-size="14.00">NEIN</text>
</g>
<!-- A04 -->
<g id="node11" class="node">
<title>A04</title>
<path fill="#c4cac1" stroke="black" stroke-width="0" d="M855.42,-348.34C855.42,-348.34 426.88,-348.34 426.88,-348.34 420.88,-348.34 414.88,-342.34 414.88,-336.34 414.88,-336.34 414.88,-281.06 414.88,-281.06 414.88,-275.06 420.88,-269.06 426.88,-269.06 426.88,-269.06 855.42,-269.06 855.42,-269.06 861.42,-269.06 867.42,-275.06 867.42,-281.06 867.42,-281.06 867.42,-336.34 867.42,-336.34 867.42,-342.34 861.42,-348.34 855.42,-348.34"/>
<text text-anchor="start" x="429.27" y="-327.4" font-family="Roboto, sans-serif" font-weight="bold" font-size="14.00">A04</text>
<text text-anchor="start" x="429.27" y="-315.3" font-family="Roboto, sans-serif" text-decoration="underline" font-size="12.00">Hinweis:</text>
<text text-anchor="start" x="429.27" y="-303.3" font-family="Roboto, sans-serif" font-size="12.00">Cluster: gescheitert</text>
<text text-anchor="start" x="429.27" y="-291.3" font-family="Roboto, sans-serif" font-size="12.00">Marktlokation wurde nicht gesperrt, da ein Verhinderungsgrund vorlag.</text>
<text text-anchor="start" x="429.27" y="-279.3" font-family="Roboto, sans-serif" font-size="12.00">Hinweis: Im Freitext muss der Verhinderungsgrund mitgeteilt werden.</text>
</g>
<!-- 50&#45;&gt;A04 -->
<g id="edge10" class="edge">
<title>50-&gt;A04</title>
<path fill="none" stroke="#88a0d6" d="M1046.62,-421.29C982.25,-403.58 878.76,-375.1 792.45,-351.34"/>
<polygon fill="#88a0d6" stroke="#88a0d6" points="793.5,-348 782.93,-348.72 791.64,-354.75 793.5,-348"/>
<text text-anchor="start" x="916.15" y="-375.29" font-family="Roboto, sans-serif" font-weight="bold" font-size="14.00">JA</text>
</g>
<!-- 60 -->
<g id="node12" class="node">
<title>60</title>
<path fill="#c2cee9" stroke="black" stroke-width="0" d="M1388.55,-352.34C1388.55,-352.34 897.75,-352.34 897.75,-352.34 891.75,-352.34 885.75,-346.34 885.75,-340.34 885.75,-340.34 885.75,-277.06 885.75,-277.06 885.75,-271.06 891.75,-265.06 897.75,-265.06 897.75,-265.06 1388.55,-265.06 1388.55,-265.06 1394.55,-265.06 1400.55,-271.06 1400.55,-277.06 1400.55,-277.06 1400.55,-340.34 1400.55,-340.34 1400.55,-346.34 1394.55,-352.34 1388.55,-352.34"/>
<text text-anchor="start" x="900.15" y="-331.4" font-family="Roboto, sans-serif" font-weight="bold" font-size="14.00">60: </text>
<text text-anchor="start" x="929.4" y="-331.4" font-family="Roboto, sans-serif" font-size="14.00">War eine Sperrung aus einem tats&#228;chlichen Grund nicht m&#246;glich?</text>
<text text-anchor="start" x="900.15" y="-317.4" font-family="Roboto, sans-serif" font-size="14.00">Unter tats&#228;chliche Gr&#252;nde fallen z. B.</text>
<text text-anchor="start" x="900.15" y="-303.4" font-family="Roboto, sans-serif" font-size="14.00">Marktlokation vor Ort nicht identifizierbar</text>
<text text-anchor="start" x="900.15" y="-289.4" font-family="Roboto, sans-serif" font-size="14.00">Zugang zur Marktlokation nicht m&#246;glich</text>
<text text-anchor="start" x="900.15" y="-275.4" font-family="Roboto, sans-serif" font-size="14.00">Kundenwechsel an der Marktlokation festgestellt</text>
</g>
<!-- 50&#45;&gt;60 -->
<g id="edge11" class="edge">
<title>50-&gt;60</title>
<path fill="none" stroke="#88a0d6" d="M1112.73,-421.43C1116.76,-406.6 1122.87,-384.17 1128.56,-363.28"/>
<polygon fill="#88a0d6" stroke="#88a0d6" points="1131.92,-364.25 1131.17,-353.68 1125.17,-362.41 1131.92,-364.25"/>
<text text-anchor="start" x="1125.15" y="-375.29" font-family="Roboto, sans-serif" font-weight="bold" font-size="14.00">NEIN</text>
</g>
<!-- A05 -->
<g id="node13" class="node">
<title>A05</title>
<path fill="#c4cac1" stroke="black" stroke-width="0" d="M879.55,-211.81C879.55,-211.81 454.75,-211.81 454.75,-211.81 448.75,-211.81 442.75,-205.81 442.75,-199.81 442.75,-199.81 442.75,-144.53 442.75,-144.53 442.75,-138.53 448.75,-132.53 454.75,-132.53 454.75,-132.53 879.55,-132.53 879.55,-132.53 885.55,-132.53 891.55,-138.53 891.55,-144.53 891.55,-144.53 891.55,-199.81 891.55,-199.81 891.55,-205.81 885.55,-211.81 879.55,-211.81"/>
<text text-anchor="start" x="457.15" y="-190.87" font-family="Roboto, sans-serif" font-weight="bold" font-size="14.00">A05</text>
<text text-anchor="start" x="457.15" y="-178.77" font-family="Roboto, sans-serif" text-decoration="underline" font-size="12.00">Hinweis:</text>
<text text-anchor="start" x="457.15" y="-166.77" font-family="Roboto, sans-serif" font-size="12.00">Cluster: gescheitert</text>
<text text-anchor="start" x="457.15" y="-154.77" font-family="Roboto, sans-serif" font-size="12.00">Marktlokation wurde nicht gesperrt, da ein tats&#228;chlicher Grund vorlag.</text>
<text text-anchor="start" x="457.15" y="-142.77" font-family="Roboto, sans-serif" font-size="12.00">Hinweis: Im Freitext muss der tats&#228;chliche Grund mitgeteilt werden.</text>
</g>
<!-- 60&#45;&gt;A05 -->
<g id="edge12" class="edge">
<title>60-&gt;A05</title>
<path fill="none" stroke="#88a0d6" d="M992.54,-265.13C935.61,-249.04 870.93,-230.76 814.31,-214.76"/>
<polygon fill="#88a0d6" stroke="#88a0d6" points="815.5,-211.46 804.93,-212.11 813.6,-218.2 815.5,-211.46"/>
<text text-anchor="start" x="919.15" y="-234.76" font-family="Roboto, sans-serif" font-weight="bold" font-size="14.00">JA</text>
</g>
<!-- 70 -->
<g id="node14" class="node">
<title>70</title>
<path fill="#c2cee9" stroke="black" stroke-width="0" d="M1404.43,-190.17C1404.43,-190.17 921.88,-190.17 921.88,-190.17 915.88,-190.17 909.88,-184.17 909.88,-178.17 909.88,-178.17 909.88,-166.17 909.88,-166.17 909.88,-160.17 915.88,-154.17 921.88,-154.17 921.88,-154.17 1404.43,-154.17 1404.43,-154.17 1410.43,-154.17 1416.43,-160.17 1416.43,-166.17 1416.43,-166.17 1416.43,-178.17 1416.43,-178.17 1416.43,-184.17 1410.43,-190.17 1404.43,-190.17"/>
<text text-anchor="start" x="924.28" y="-168.5" font-family="Roboto, sans-serif" font-weight="bold" font-size="14.00">70: </text>
<text text-anchor="start" x="953.53" y="-168.5" font-family="Roboto, sans-serif" font-size="14.00">War eine Sperrung aus einem technischen Grund nicht m&#246;glich?</text>
</g>
<!-- 60&#45;&gt;70 -->
<g id="edge13" class="edge">
<title>60-&gt;70</title>
<path fill="none" stroke="#88a0d6" d="M1149.48,-265.13C1152.58,-244.3 1156.22,-219.78 1158.97,-201.31"/>
<polygon fill="#88a0d6" stroke="#88a0d6" points="1162.4,-202.04 1160.4,-191.64 1155.47,-201.01 1162.4,-202.04"/>
<text text-anchor="start" x="1154.15" y="-234.76" font-family="Roboto, sans-serif" font-weight="bold" font-size="14.00">NEIN</text>
</g>
<!-- A06 -->
<g id="node15" class="node">
<title>A06</title>
<path fill="#c4cac1" stroke="black" stroke-width="0" d="M1103.8,-79.28C1103.8,-79.28 686.5,-79.28 686.5,-79.28 680.5,-79.28 674.5,-73.28 674.5,-67.28 674.5,-67.28 674.5,-12 674.5,-12 674.5,-6 680.5,0 686.5,0 686.5,0 1103.8,0 1103.8,0 1109.8,0 1115.8,-6 1115.8,-12 1115.8,-12 1115.8,-67.28 1115.8,-67.28 1115.8,-73.28 1109.8,-79.28 1103.8,-79.28"/>
<text text-anchor="start" x="688.9" y="-58.34" font-family="Roboto, sans-serif" font-weight="bold" font-size="14.00">A06</text>
<text text-anchor="start" x="688.9" y="-46.24" font-family="Roboto, sans-serif" text-decoration="underline" font-size="12.00">Hinweis:</text>
<text text-anchor="start" x="688.9" y="-34.24" font-family="Roboto, sans-serif" font-size="12.00">Cluster: gescheitert</text>
<text text-anchor="start" x="688.9" y="-22.24" font-family="Roboto, sans-serif" font-size="12.00">Marktlokation wurde nicht gesperrt, da ein technischer Grund vorlag.</text>
<text text-anchor="start" x="688.9" y="-10.24" font-family="Roboto, sans-serif" font-size="12.00">Hinweis: Im Freitext muss der technische Grund mitgeteilt werden.</text>
</g>
<!-- 70&#45;&gt;A06 -->
<g id="edge14" class="edge">
<title>70-&gt;A06</title>
<path fill="none" stroke="#88a0d6" d="M1128.39,-154.24C1092.08,-136.56 1033.67,-108.1 984.38,-84.1"/>
<polygon fill="#88a0d6" stroke="#88a0d6" points="986.22,-81.1 975.69,-79.87 983.15,-87.39 986.22,-81.1"/>
<text text-anchor="start" x="1045.15" y="-102.23" font-family="Roboto, sans-serif" font-weight="bold" font-size="14.00">JA</text>
</g>
<!-- A07 -->
<g id="node16" class="node">
<title>A07</title>
<path fill="#c4cac1" stroke="black" stroke-width="0" d="M1330.55,-73.28C1330.55,-73.28 1145.75,-73.28 1145.75,-73.28 1139.75,-73.28 1133.75,-67.28 1133.75,-61.28 1133.75,-61.28 1133.75,-18 1133.75,-18 1133.75,-12 1139.75,-6 1145.75,-6 1145.75,-6 1330.55,-6 1330.55,-6 1336.55,-6 1342.55,-12 1342.55,-18 1342.55,-18 1342.55,-61.28 1342.55,-61.28 1342.55,-67.28 1336.55,-73.28 1330.55,-73.28"/>
<text text-anchor="start" x="1148.15" y="-52.34" font-family="Roboto, sans-serif" font-weight="bold" font-size="14.00">A07</text>
<text text-anchor="start" x="1148.15" y="-40.24" font-family="Roboto, sans-serif" text-decoration="underline" font-size="12.00">Hinweis:</text>
<text text-anchor="start" x="1148.15" y="-28.24" font-family="Roboto, sans-serif" font-size="12.00">Cluster: erfolgreich</text>
<text text-anchor="start" x="1148.15" y="-16.24" font-family="Roboto, sans-serif" font-size="12.00">Marktlokation wurde gesperrt.</text>
</g>
<!-- 70&#45;&gt;A07 -->
<g id="edge15" class="edge">
<title>70-&gt;A07</title>
<path fill="none" stroke="#88a0d6" d="M1172.8,-154.37C1183.13,-136.4 1199.91,-107.19 1213.88,-82.87"/>
<polygon fill="#88a0d6" stroke="#88a0d6" points="1216.77,-84.87 1218.72,-74.46 1210.7,-81.38 1216.77,-84.87"/>
<text text-anchor="start" x="1204.15" y="-102.23" font-family="Roboto, sans-serif" font-weight="bold" font-size="14.00">NEIN</text>
</g>
</g>
</svg>
  </g>
</svg>
  </g>
</svg>
