<?xml version='1.0' encoding='ASCII' standalone='yes'?>
<svg xmlns="http://www.w3.org/2000/svg" xmlns:xlink="http://www.w3.org/1999/xlink" version="1.1" width="2540.0px" viewBox="0 0 2540.0 1061.3333333333333" height="1061.3333333333333px">
  <g>
    <svg version="1.1" width="2540.0px" viewBox="0 0 2540.0 1061.3333333333333" height="1061.3333333333333px">
  <polygon fill="#f3f1f6" points="0,0 2540.0,0 2540.0,1061.3333333333333 0,1061.3333333333333"/><g>
    <g transform="translate(845.7815708605148, 106.1333333333333) scale(1 1) translate(0, 0) scale(4.800002954775688 4.800002954775688) "><sodipodi:namedview xmlns:sodipodi="http://sodipodi.sourceforge.net/DTD/sodipodi-0.dtd" xmlns:inkscape="http://www.inkscape.org/namespaces/inkscape" id="namedview7" pagecolor="#ffffff" bordercolor="#999999" borderopacity="1" inkscape:pageshadow="0" inkscape:pageopacity="0" inkscape:pagecheckerboard="0" inkscape:document-units="mm" showgrid="false" fit-margin-top="0" fit-margin-left="0" fit-margin-right="0" fit-margin-bottom="0" inkscape:zoom="0.64052329" inkscape:cx="130.36216" inkscape:cy="412.163" inkscape:window-width="1512" inkscape:window-height="916" inkscape:window-x="3840" inkscape:window-y="136" inkscape:window-maximized="0" inkscape:current-layer="layer1"/>
  <defs id="defs2">
    <clipPath clipPathUnits="userSpaceOnUse" id="clipPath23">
      <path d="M 0,568.156 H 579.236 V 0 H 0 Z" id="path21"/>
    </clipPath>
  </defs>
  <g xmlns:inkscape="http://www.inkscape.org/namespaces/inkscape" inkscape:label="Layer 1" inkscape:groupmode="layer" id="layer1" transform="translate(-16.541937,-55.305267)">
    <g id="g19" clip-path="url(#clipPath23)" transform="matrix(0.35277777,0,0,-0.35277777,0.01017023,243.73675)" style="opacity:0.2">
      <g id="g25" transform="translate(122.444,32.7195)">
        <path d="m 0,0 h -56.104 c -11,0 -19.898,9.123 -19.463,20.115 10.594,267.191 231.277,481.302 501.029,481.302 v -56.02 c 0,-10.98 -8.688,-19.892 -19.658,-20.393 C 180.29,414.697 0,228.005 0,0" style="fill:#6ead83;fill-opacity:1;fill-rule:nonzero;stroke:none" id="path27"/>
      </g>
      <g id="g29" transform="translate(273.7828,32.7195)">
        <path d="m 0,0 h -55.926 c -11.228,0 -20.091,9.482 -19.435,20.69 10.744,183.439 163.389,329.388 349.485,329.388 v -56.263 c 0,-10.709 -8.273,-19.617 -18.957,-20.35 C 112.819,263.696 0,144.774 0,0" style="fill:#6ead83;fill-opacity:1;fill-rule:nonzero;stroke:none" id="path31"/>
      </g>
      <g id="g33" transform="translate(425.7667,32.7195)">
        <path d="m 0,0 h -55.445 c -11.653,0 -20.604,10.17 -19.334,21.753 10.866,99.032 95.031,176.341 196.919,176.341 v -57.011 c 0,-10.046 -7.283,-18.755 -17.229,-20.165 C 45.688,112.522 0,61.497 0,0" style="fill:#6ead83;fill-opacity:1;fill-rule:nonzero;stroke:none" id="path35"/>
      </g>
    </g>
  </g>
</g>
    <svg width="1905pt" height="796pt" viewBox="0.00 0.00 1905.43 796.13">
<g id="graph0" class="graph" transform="scale(1 1) rotate(0) translate(4 792.13)">
<title>D</title>
<text text-anchor="start" x="915.34" y="-768.03" font-family="Times,serif" font-weight="bold" font-size="18.00">MaBiS</text>
<text text-anchor="start" x="653.59" y="-737.93" font-family="Times,serif" font-weight="bold" font-size="16.00">7.3.1: AD: Deaktivierung eines MaBiS-ZP f&#252;r Netzzeitreihe an NB</text>
<!-- Start -->
<g id="node1" class="node">
<title>Start</title>
<polygon fill="#7a8da1" stroke="black" points="353.55,-690.13 193.5,-690.13 193.5,-646.85 353.55,-646.85 353.55,-690.13"/>
<text text-anchor="start" x="245.4" y="-669.19" font-family="Times,serif" font-weight="bold" font-size="14.00">E_0010</text>
<text text-anchor="start" x="207.9" y="-657.09" font-family="Times,serif" font-weight="bold" text-decoration="underline" font-size="12.00">Pr&#252;fende Rolle:</text>
<text text-anchor="start" x="312.9" y="-657.09" font-family="Times,serif" font-weight="bold" font-size="12.00"> NB</text>
</g>
<!-- 1 -->
<g id="node2" class="node">
<title>1</title>
<path fill="#7aab8a" stroke="black" d="M535.05,-609.85C535.05,-609.85 12,-609.85 12,-609.85 6,-609.85 0,-603.85 0,-597.85 0,-597.85 0,-585.85 0,-585.85 0,-579.85 6,-573.85 12,-573.85 12,-573.85 535.05,-573.85 535.05,-573.85 541.05,-573.85 547.05,-579.85 547.05,-585.85 547.05,-585.85 547.05,-597.85 547.05,-597.85 547.05,-603.85 541.05,-609.85 535.05,-609.85"/>
<text text-anchor="start" x="14.4" y="-588.18" font-family="Times,serif" font-weight="bold" font-size="14.00">1: </text>
<text text-anchor="start" x="33.9" y="-588.18" font-family="Times,serif" font-size="14.00">Erfolgt die Deaktivierung nach Ablauf der Clearingfrist f&#252;r die KBKA?</text>
</g>
<!-- Start&#45;&gt;1 -->
<g id="edge1" class="edge">
<title>Start-&gt;1</title>
<path fill="none" stroke="black" d="M273.53,-646.7C273.53,-638.66 273.53,-629.34 273.53,-620.74"/>
<polygon fill="black" stroke="black" points="277.03,-621.01 273.53,-611.01 270.03,-621.01 277.03,-621.01"/>
</g>
<!-- A01 -->
<g id="node3" class="node">
<title>A01</title>
<polygon fill="#cfb986" stroke="black" points="327.77,-520.6 183.29,-520.6 183.29,-459.08 327.77,-459.08 327.77,-520.6"/>
<text text-anchor="start" x="240.53" y="-502.54" font-family="Times,serif" font-weight="bold" font-size="14.00">A01</text>
<text text-anchor="start" x="195.53" y="-490.44" font-family="Times,serif" text-decoration="underline" font-size="12.00">Hinweis:</text>
<text text-anchor="start" x="195.53" y="-478.44" font-family="Times,serif" font-size="12.00">Cluster: Ablehnung</text>
<text text-anchor="start" x="195.53" y="-466.44" font-family="Times,serif" font-size="12.00">Frist&#252;berschreitung</text>
</g>
<!-- 1&#45;&gt;A01 -->
<g id="edge2" class="edge">
<title>1-&gt;A01</title>
<path fill="none" stroke="black" d="M270.39,-573.43C268.32,-561.92 265.51,-546.34 262.9,-531.81"/>
<polygon fill="black" stroke="black" points="266.17,-531.21 260.95,-521.99 259.28,-532.45 266.17,-531.21"/>
<text text-anchor="middle" x="274.28" y="-542.55" font-family="Times,serif" font-size="14.00">Ja</text>
</g>
<!-- 2 -->
<g id="node4" class="node">
<title>2</title>
<path fill="#7aab8a" stroke="black" d="M787.18,-507.84C787.18,-507.84 357.88,-507.84 357.88,-507.84 351.88,-507.84 345.88,-501.84 345.88,-495.84 345.88,-495.84 345.88,-483.84 345.88,-483.84 345.88,-477.84 351.88,-471.84 357.88,-471.84 357.88,-471.84 787.18,-471.84 787.18,-471.84 793.18,-471.84 799.18,-477.84 799.18,-483.84 799.18,-483.84 799.18,-495.84 799.18,-495.84 799.18,-501.84 793.18,-507.84 787.18,-507.84"/>
<text text-anchor="start" x="360.28" y="-486.16" font-family="Times,serif" font-weight="bold" font-size="14.00">2: </text>
<text text-anchor="start" x="379.78" y="-486.16" font-family="Times,serif" font-size="14.00">Erfolgt die Deaktivierung zum Monatsersten 00:00 Uhr?</text>
</g>
<!-- 1&#45;&gt;2 -->
<g id="edge3" class="edge">
<title>1-&gt;2</title>
<path fill="none" stroke="black" d="M325.61,-573.43C376.93,-556.26 455.38,-530.02 510.03,-511.74"/>
<polygon fill="black" stroke="black" points="510.91,-514.8 519.29,-508.31 508.69,-508.17 510.91,-514.8"/>
<text text-anchor="middle" x="440.4" y="-542.55" font-family="Times,serif" font-size="14.00">Nein</text>
</g>
<!-- A02 -->
<g id="node5" class="node">
<title>A02</title>
<polygon fill="#cfb986" stroke="black" points="568.77,-405.83 334.29,-405.83 334.29,-344.31 568.77,-344.31 568.77,-405.83"/>
<text text-anchor="start" x="436.53" y="-387.77" font-family="Times,serif" font-weight="bold" font-size="14.00">A02</text>
<text text-anchor="start" x="346.53" y="-375.67" font-family="Times,serif" text-decoration="underline" font-size="12.00">Hinweis:</text>
<text text-anchor="start" x="346.53" y="-363.67" font-family="Times,serif" font-size="12.00">Cluster: Ablehnung</text>
<text text-anchor="start" x="346.53" y="-351.67" font-family="Times,serif" font-size="12.00">Gew&#228;hlter Zeitpunkt nicht zul&#228;ssig</text>
</g>
<!-- 2&#45;&gt;A02 -->
<g id="edge4" class="edge">
<title>2-&gt;A02</title>
<path fill="none" stroke="black" d="M553.88,-471.47C537.31,-456.02 512.51,-432.9 491.47,-413.3"/>
<polygon fill="black" stroke="black" points="494.32,-411.24 484.62,-406.98 489.55,-416.36 494.32,-411.24"/>
<text text-anchor="middle" x="536.4" y="-427.78" font-family="Times,serif" font-size="14.00">Nein</text>
</g>
<!-- 3 -->
<g id="node6" class="node">
<title>3</title>
<path fill="#7aab8a" stroke="black" d="M1160.18,-393.07C1160.18,-393.07 598.88,-393.07 598.88,-393.07 592.88,-393.07 586.88,-387.07 586.88,-381.07 586.88,-381.07 586.88,-369.07 586.88,-369.07 586.88,-363.07 592.88,-357.07 598.88,-357.07 598.88,-357.07 1160.18,-357.07 1160.18,-357.07 1166.18,-357.07 1172.18,-363.07 1172.18,-369.07 1172.18,-369.07 1172.18,-381.07 1172.18,-381.07 1172.18,-387.07 1166.18,-393.07 1160.18,-393.07"/>
<text text-anchor="start" x="601.28" y="-371.39" font-family="Times,serif" font-weight="bold" font-size="14.00">3: </text>
<text text-anchor="start" x="620.78" y="-371.39" font-family="Times,serif" font-size="14.00">Wird die ID bereits f&#252;r die Identifikation eines Nicht-MaBiS-ZP verwendet?</text>
</g>
<!-- 2&#45;&gt;3 -->
<g id="edge5" class="edge">
<title>2-&gt;3</title>
<path fill="none" stroke="black" d="M620.16,-471.34C674.57,-451.35 763.6,-418.65 821.88,-397.24"/>
<polygon fill="black" stroke="black" points="822.85,-400.25 831.03,-393.51 820.44,-393.68 822.85,-400.25"/>
<text text-anchor="middle" x="751.28" y="-427.78" font-family="Times,serif" font-size="14.00">Ja</text>
</g>
<!-- A03 -->
<g id="node7" class="node">
<title>A03</title>
<polygon fill="#cfb986" stroke="black" points="893.89,-291.06 633.16,-291.06 633.16,-229.54 893.89,-229.54 893.89,-291.06"/>
<text text-anchor="start" x="748.53" y="-273" font-family="Times,serif" font-weight="bold" font-size="14.00">A03</text>
<text text-anchor="start" x="645.4" y="-260.9" font-family="Times,serif" text-decoration="underline" font-size="12.00">Hinweis:</text>
<text text-anchor="start" x="645.4" y="-248.9" font-family="Times,serif" font-size="12.00">Cluster: Ablehnung</text>
<text text-anchor="start" x="645.4" y="-236.9" font-family="Times,serif" font-size="12.00">ID bereits au&#223;erhalb MaBiS verwendet</text>
</g>
<!-- 3&#45;&gt;A03 -->
<g id="edge6" class="edge">
<title>3-&gt;A03</title>
<path fill="none" stroke="black" d="M861.65,-356.7C845.83,-341.32 822.2,-318.34 802.09,-298.79"/>
<polygon fill="black" stroke="black" points="804.9,-296.67 795.29,-292.21 800.02,-301.69 804.9,-296.67"/>
<text text-anchor="middle" x="835.28" y="-313.01" font-family="Times,serif" font-size="14.00">Ja</text>
</g>
<!-- 4 -->
<g id="node8" class="node">
<title>4</title>
<path fill="#7aab8a" stroke="black" d="M1459.05,-278.3C1459.05,-278.3 924,-278.3 924,-278.3 918,-278.3 912,-272.3 912,-266.3 912,-266.3 912,-254.3 912,-254.3 912,-248.3 918,-242.3 924,-242.3 924,-242.3 1459.05,-242.3 1459.05,-242.3 1465.05,-242.3 1471.05,-248.3 1471.05,-254.3 1471.05,-254.3 1471.05,-266.3 1471.05,-266.3 1471.05,-272.3 1465.05,-278.3 1459.05,-278.3"/>
<text text-anchor="start" x="926.4" y="-256.62" font-family="Times,serif" font-weight="bold" font-size="14.00">4: </text>
<text text-anchor="start" x="945.9" y="-256.62" font-family="Times,serif" font-size="14.00">Ist der MaBiS-ZP zum Zeitpunkt der Deaktivierung bereits deaktiviert?</text>
</g>
<!-- 3&#45;&gt;4 -->
<g id="edge7" class="edge">
<title>3-&gt;4</title>
<path fill="none" stroke="black" d="M927.93,-356.57C983.24,-336.58 1073.71,-303.88 1132.94,-282.47"/>
<polygon fill="black" stroke="black" points="1134.05,-285.44 1142.26,-278.74 1131.67,-278.85 1134.05,-285.44"/>
<text text-anchor="middle" x="1071.4" y="-313.01" font-family="Times,serif" font-size="14.00">Nein</text>
</g>
<!-- A04 -->
<g id="node9" class="node">
<title>A04</title>
<polygon fill="#cfb986" stroke="black" points="1163.52,-176.29 963.54,-176.29 963.54,-114.77 1163.52,-114.77 1163.52,-176.29"/>
<text text-anchor="start" x="1048.53" y="-158.23" font-family="Times,serif" font-weight="bold" font-size="14.00">A04</text>
<text text-anchor="start" x="975.78" y="-146.13" font-family="Times,serif" text-decoration="underline" font-size="12.00">Hinweis:</text>
<text text-anchor="start" x="975.78" y="-134.13" font-family="Times,serif" font-size="12.00">Cluster: Ablehnung</text>
<text text-anchor="start" x="975.78" y="-122.13" font-family="Times,serif" font-size="12.00">MaBiS-ZP bereits deaktiviert</text>
</g>
<!-- 4&#45;&gt;A04 -->
<g id="edge8" class="edge">
<title>4-&gt;A04</title>
<path fill="none" stroke="black" d="M1171.81,-241.93C1154.26,-226.46 1127.99,-203.33 1105.72,-183.71"/>
<polygon fill="black" stroke="black" points="1108.54,-181.65 1098.73,-177.66 1103.92,-186.9 1108.54,-181.65"/>
<text text-anchor="middle" x="1142.28" y="-198.24" font-family="Times,serif" font-size="14.00">Ja</text>
</g>
<!-- 5 -->
<g id="node10" class="node">
<title>5</title>
<path fill="#7aab8a" stroke="black" d="M1885.43,-163.53C1885.43,-163.53 1193.62,-163.53 1193.62,-163.53 1187.62,-163.53 1181.62,-157.53 1181.62,-151.53 1181.62,-151.53 1181.62,-139.53 1181.62,-139.53 1181.62,-133.53 1187.62,-127.53 1193.62,-127.53 1193.62,-127.53 1885.43,-127.53 1885.43,-127.53 1891.43,-127.53 1897.43,-133.53 1897.43,-139.53 1897.43,-139.53 1897.43,-151.53 1897.43,-151.53 1897.43,-157.53 1891.43,-163.53 1885.43,-163.53"/>
<text text-anchor="start" x="1196.03" y="-141.85" font-family="Times,serif" font-weight="bold" font-size="14.00">5: </text>
<text text-anchor="start" x="1215.53" y="-141.85" font-family="Times,serif" font-size="14.00">Sind f&#252;r den MaBiS-ZP Zeitreihen nach dem Zeitpunkt der Deaktivierung bereits vorhanden?</text>
</g>
<!-- 4&#45;&gt;5 -->
<g id="edge9" class="edge">
<title>4-&gt;5</title>
<path fill="none" stroke="black" d="M1245.52,-241.8C1307.58,-221.69 1409.37,-188.71 1475.41,-167.31"/>
<polygon fill="black" stroke="black" points="1476.26,-170.39 1484.69,-163.97 1474.1,-163.73 1476.26,-170.39"/>
<text text-anchor="middle" x="1403.4" y="-198.24" font-family="Times,serif" font-size="14.00">Nein</text>
</g>
<!-- A05 -->
<g id="node11" class="node">
<title>A05</title>
<polygon fill="#cfb986" stroke="black" points="1544.14,-61.52 1296.91,-61.52 1296.91,0 1544.14,0 1544.14,-61.52"/>
<text text-anchor="start" x="1405.53" y="-43.46" font-family="Times,serif" font-weight="bold" font-size="14.00">A05</text>
<text text-anchor="start" x="1309.15" y="-31.36" font-family="Times,serif" text-decoration="underline" font-size="12.00">Hinweis:</text>
<text text-anchor="start" x="1309.15" y="-19.36" font-family="Times,serif" font-size="12.00">Cluster: Ablehnung</text>
<text text-anchor="start" x="1309.15" y="-7.36" font-family="Times,serif" font-size="12.00">Deaktivierung, Zeitreihen vorhanden</text>
</g>
<!-- 5&#45;&gt;A05 -->
<g id="edge10" class="edge">
<title>5-&gt;A05</title>
<path fill="none" stroke="black" d="M1521.19,-127.16C1504.89,-111.71 1480.5,-88.59 1459.81,-68.99"/>
<polygon fill="black" stroke="black" points="1462.75,-67.01 1453.09,-62.67 1457.94,-72.09 1462.75,-67.01"/>
<text text-anchor="middle" x="1494.28" y="-83.47" font-family="Times,serif" font-size="14.00">Ja</text>
</g>
<!-- A06 -->
<g id="node12" class="node">
<title>A06</title>
<polygon fill="#cfb986" stroke="black" points="1755.14,-61.52 1561.91,-61.52 1561.91,0 1755.14,0 1755.14,-61.52"/>
<text text-anchor="start" x="1643.53" y="-43.46" font-family="Times,serif" font-weight="bold" font-size="14.00">A06</text>
<text text-anchor="start" x="1574.15" y="-31.36" font-family="Times,serif" text-decoration="underline" font-size="12.00">Hinweis:</text>
<text text-anchor="start" x="1574.15" y="-19.36" font-family="Times,serif" font-size="12.00">Cluster: Zustimmung</text>
<text text-anchor="start" x="1574.15" y="-7.36" font-family="Times,serif" font-size="12.00">Deaktivierung durchgef&#252;hrt</text>
</g>
<!-- 5&#45;&gt;A06 -->
<g id="edge11" class="edge">
<title>5-&gt;A06</title>
<path fill="none" stroke="black" d="M1557.86,-127.16C1574.16,-111.71 1598.55,-88.59 1619.24,-68.99"/>
<polygon fill="black" stroke="black" points="1621.11,-72.09 1625.96,-62.67 1616.3,-67.01 1621.11,-72.09"/>
<text text-anchor="middle" x="1623.4" y="-83.47" font-family="Times,serif" font-size="14.00">Nein</text>
</g>
</g>
</svg>
  </g>
</svg>
  </g>
</svg>
