<?xml version="1.0" encoding="UTF-8" standalone="no"?>
<!DOCTYPE svg PUBLIC "-//W3C//DTD SVG 1.1//EN"
 "http://www.w3.org/Graphics/SVG/1.1/DTD/svg11.dtd">
<!-- Generated by graphviz version 7.0.5 (20221223.1930)
 -->
<!-- Title: D Pages: 1 -->
<svg width="1078pt" height="324pt"
 viewBox="0.00 0.00 1078.00 324.00" xmlns="http://www.w3.org/2000/svg" xmlns:xlink="http://www.w3.org/1999/xlink">
<g id="graph0" class="graph" transform="scale(1 1) rotate(0) translate(4 320)">
<title>D</title>
<polygon fill="white" stroke="none" points="-4,4 -4,-320 1074,-320 1074,4 -4,4"/>
<text text-anchor="start" x="501.5" y="-298.6" font-family="Times,serif" font-weight="bold" font-size="18.00">MaBiS</text>
<text text-anchor="start" x="8" y="-268.2" font-family="Times,serif" font-weight="bold" font-size="16.00">7.36.1: AD: Anforderung und Übermittlung Bilanzkreiszuordnungsliste zwischen ÜNB und BKV (Einzelanforderung)</text>
<!-- Start -->
<g id="node1" class="node">
<title>Start</title>
<polygon fill="#7a8da1" stroke="black" points="620.5,-218 449.5,-218 449.5,-174 620.5,-174 620.5,-218"/>
<text text-anchor="start" x="506.5" y="-198.8" font-family="Times,serif" font-weight="bold" font-size="14.00">E_0039</text>
<text text-anchor="start" x="463.5" y="-186.4" font-family="Times,serif" font-weight="bold" text-decoration="underline" font-size="12.00">Prüfende Rolle:</text>
<text text-anchor="start" x="569.5" y="-186.4" font-family="Times,serif" font-weight="bold" font-size="12.00"> ÜNB</text>
</g>
<!-- 1 -->
<g id="node2" class="node">
<title>1</title>
<path fill="#7aab8a" stroke="black" d="M1038,-137C1038,-137 32,-137 32,-137 26,-137 20,-131 20,-125 20,-125 20,-113 20,-113 20,-107 26,-101 32,-101 32,-101 1038,-101 1038,-101 1044,-101 1050,-107 1050,-113 1050,-113 1050,-125 1050,-125 1050,-131 1044,-137 1038,-137"/>
<text text-anchor="start" x="34" y="-116.3" font-family="Times,serif" font-weight="bold" font-size="14.00">1: </text>
<text text-anchor="start" x="54" y="-116.3" font-family="Times,serif" font-size="14.00">Sind in dem angefragten Gebiet (Bilanzierungsgebiet oder Regelzone) für diesen Bilanzkreis LF&#45;SZR zum angegebenen Zeitpunkt gültig?</text>
</g>
<!-- Start&#45;&gt;1 -->
<g id="edge1" class="edge">
<title>Start&#45;&gt;1</title>
<path fill="none" stroke="black" d="M535,-173.71C535,-165.82 535,-156.75 535,-148.33"/>
<polygon fill="black" stroke="black" points="538.5,-148.57 535,-138.57 531.5,-148.57 538.5,-148.57"/>
</g>
<!-- A01 -->
<g id="node3" class="node">
<title>A01</title>
<polygon fill="#cca9ab" stroke="black" points="555,-50 373,-50 373,0 555,0 555,-50"/>
<text text-anchor="start" x="448.5" y="-33.8" font-family="Times,serif" font-weight="bold" font-size="14.00">A01</text>
<text text-anchor="start" x="385" y="-21.4" font-family="Times,serif" text-decoration="underline" font-size="12.00">Hinweis:</text>
<text text-anchor="start" x="385" y="-9.4" font-family="Times,serif" font-size="12.00">Kein Lieferant zugeordnet</text>
</g>
<!-- 1&#45;&gt;A01 -->
<g id="edge2" class="edge">
<title>1&#45;&gt;A01</title>
<path fill="none" stroke="black" d="M521.65,-100.7C512.62,-89 500.41,-73.17 489.55,-59.1"/>
<polygon fill="black" stroke="black" points="492.46,-57.15 483.58,-51.37 486.92,-61.42 492.46,-57.15"/>
<text text-anchor="middle" x="525" y="-71.8" font-family="Times,serif" font-size="14.00">Nein</text>
</g>
<!-- Ende -->
<g id="node4" class="node">
<title>Ende</title>
<polygon fill="#7a8da1" stroke="black" points="638.5,-43 573.5,-43 573.5,-7 638.5,-7 638.5,-43"/>
<text text-anchor="middle" x="606" y="-21.3" font-family="Times,serif" font-size="14.00">Ende</text>
</g>
<!-- 1&#45;&gt;Ende -->
<g id="edge3" class="edge">
<title>1&#45;&gt;Ende</title>
<path fill="none" stroke="black" d="M548.35,-100.7C558.87,-87.07 573.69,-67.86 585.68,-52.34"/>
<polygon fill="black" stroke="black" points="588.44,-54.48 591.78,-44.43 582.9,-50.2 588.44,-54.48"/>
<text text-anchor="middle" x="579" y="-71.8" font-family="Times,serif" font-size="14.00">Ja</text>
</g>
</g>
</svg>
