<?xml version='1.0' encoding='ASCII' standalone='yes'?>
<svg xmlns="http://www.w3.org/2000/svg" xmlns:xlink="http://www.w3.org/1999/xlink" version="1.1" width="1776.0px" viewBox="0 0 1776.0 1920.0" height="1920.0px">
  <g>
    <svg version="1.1" width="1776.0px" viewBox="0 0 1776.0 1920.0" height="1920.0px">
  <polygon fill="#f3f1f6" points="0,0 1776.0,0 1776.0,1920.0 0,1920.0"/><g>
    <g transform="translate(177.59999999999997, 263.1888957944893) scale(1 1) translate(0, 0) scale(2.452869276983634 2.452869276983634) "><!-- note that I manually added the width and height attribute to the root node
  https://chatgpt.com/share/678e3028-70cc-800b-a296-782714735772
  -->
  <defs>
    <style>.cls-1{fill:#fff;}</style>
  </defs>
  <path class="cls-1" d="M122.44,531.2h-56.1c-11,0-19.9-9.12-19.46-20.11C57.47,243.89,278.15,29.78,547.91,29.78v56.02c0,10.98-8.69,19.89-19.66,20.39-225.51,10.31-405.8,197-405.8,425Z"/>
  <path class="cls-1" d="M273.78,531.2h-55.93c-11.23,0-20.09-9.48-19.43-20.69,10.74-183.44,163.39-329.39,349.48-329.39v56.26c0,10.71-8.27,19.62-18.96,20.35-142.35,9.77-255.17,128.69-255.17,273.46Z"/>
  <path class="cls-1" d="M425.77,531.2h-55.45c-11.65,0-20.6-10.17-19.33-21.75,10.87-99.03,95.03-176.34,196.92-176.34v57.01c0,10.05-7.28,18.75-17.23,20.16-59.22,8.4-104.91,59.42-104.91,120.92Z"/>
</g>
    <svg width="1332pt" height="1440pt" viewBox="0.00 0.00 1331.91 1440.00">
<g id="graph0" class="graph" transform="scale(0.96986 0.96986) rotate(0) translate(4 1480.75)">
<title>D</title>
<text text-anchor="start" x="331.65" y="-1456.65" font-family="Times,serif" font-weight="bold" font-size="18.00">MaBiS</text>
<text text-anchor="start" x="331.65" y="-1426.55" font-family="Times,serif" font-weight="bold" font-size="16.00">7.2.1: AD: Aktivierung eines MaBiS-Z&#228;hlpunkts f&#252;r die Netzzeitreihe an BIKO</text>
<!-- Start -->
<g id="node1" class="node">
<title>Start</title>
<path fill="#7a8da1" stroke="black" stroke-width="0" d="M339.67,-1378.75C339.67,-1378.75 189.37,-1378.75 189.37,-1378.75 183.37,-1378.75 177.37,-1372.75 177.37,-1366.75 177.37,-1366.75 177.37,-1347.47 177.37,-1347.47 177.37,-1341.47 183.37,-1335.47 189.37,-1335.47 189.37,-1335.47 339.67,-1335.47 339.67,-1335.47 345.67,-1335.47 351.67,-1341.47 351.67,-1347.47 351.67,-1347.47 351.67,-1366.75 351.67,-1366.75 351.67,-1372.75 345.67,-1378.75 339.67,-1378.75"/>
<text text-anchor="start" x="236.4" y="-1357.81" font-family="Times,serif" font-weight="bold" font-size="14.00">E_0024</text>
<text text-anchor="start" x="191.77" y="-1345.71" font-family="Times,serif" font-weight="bold" text-decoration="underline" font-size="12.00">Pr&#252;fende Rolle:</text>
<text text-anchor="start" x="296.77" y="-1345.71" font-family="Times,serif" font-weight="bold" font-size="12.00"> BIKO</text>
</g>
<!-- 1 -->
<g id="node2" class="node">
<title>1</title>
<path fill="#7aab8a" stroke="black" stroke-width="0" d="M517.05,-1298.47C517.05,-1298.47 12,-1298.47 12,-1298.47 6,-1298.47 0,-1292.47 0,-1286.47 0,-1286.47 0,-1274.47 0,-1274.47 0,-1268.47 6,-1262.47 12,-1262.47 12,-1262.47 517.05,-1262.47 517.05,-1262.47 523.05,-1262.47 529.05,-1268.47 529.05,-1274.47 529.05,-1274.47 529.05,-1286.47 529.05,-1286.47 529.05,-1292.47 523.05,-1298.47 517.05,-1298.47"/>
<text text-anchor="start" x="14.4" y="-1276.8" font-family="Times,serif" font-weight="bold" font-size="14.00">1: </text>
<text text-anchor="start" x="33.9" y="-1276.8" font-family="Times,serif" font-size="14.00">Erfolgt die Aktivierung nach Ablauf der Clearingfrist f&#252;r die KBKA?</text>
</g>
<!-- Start&#45;&gt;1 -->
<g id="edge1" class="edge">
<title>Start-&gt;1</title>
<path fill="none" stroke="black" d="M264.52,-1335.71C264.52,-1327.64 264.52,-1318.23 264.52,-1309.54"/>
<polygon fill="black" stroke="black" points="268.03,-1309.83 264.53,-1299.83 261.03,-1309.83 268.03,-1309.83"/>
</g>
<!-- A01 -->
<g id="node3" class="node">
<title>A01</title>
<path fill="#cfb986" stroke="black" stroke-width="0" d="M166.76,-1209.22C166.76,-1209.22 46.28,-1209.22 46.28,-1209.22 40.28,-1209.22 34.28,-1203.22 34.28,-1197.22 34.28,-1197.22 34.28,-1159.7 34.28,-1159.7 34.28,-1153.7 40.28,-1147.7 46.28,-1147.7 46.28,-1147.7 166.76,-1147.7 166.76,-1147.7 172.76,-1147.7 178.76,-1153.7 178.76,-1159.7 178.76,-1159.7 178.76,-1197.22 178.76,-1197.22 178.76,-1203.22 172.76,-1209.22 166.76,-1209.22"/>
<text text-anchor="start" x="46.52" y="-1191.16" font-family="Times,serif" font-weight="bold" font-size="14.00">A01</text>
<text text-anchor="start" x="46.52" y="-1179.06" font-family="Times,serif" text-decoration="underline" font-size="12.00">Hinweis:</text>
<text text-anchor="start" x="46.52" y="-1167.06" font-family="Times,serif" font-size="12.00">Cluster: Ablehnung</text>
<text text-anchor="start" x="46.52" y="-1155.06" font-family="Times,serif" font-size="12.00">Frist&#252;berschreitung</text>
</g>
<!-- 1&#45;&gt;A01 -->
<g id="edge2" class="edge">
<title>1-&gt;A01</title>
<path fill="none" stroke="#7aab8a" d="M237.72,-1262.5C217.27,-1249.56 188.36,-1231.26 162.89,-1215.14"/>
<polygon fill="#7aab8a" stroke="#7aab8a" points="164.92,-1212.28 154.6,-1209.89 161.18,-1218.19 164.92,-1212.28"/>
<text text-anchor="start" x="208.52" y="-1232.17" font-family="Times,serif" font-weight="bold" font-size="14.00">JA</text>
</g>
<!-- 2 -->
<g id="node4" class="node">
<title>2</title>
<path fill="#7aab8a" stroke="black" stroke-width="0" d="M620.17,-1196.46C620.17,-1196.46 208.87,-1196.46 208.87,-1196.46 202.87,-1196.46 196.87,-1190.46 196.87,-1184.46 196.87,-1184.46 196.87,-1172.46 196.87,-1172.46 196.87,-1166.46 202.87,-1160.46 208.87,-1160.46 208.87,-1160.46 620.17,-1160.46 620.17,-1160.46 626.17,-1160.46 632.17,-1166.46 632.17,-1172.46 632.17,-1172.46 632.17,-1184.46 632.17,-1184.46 632.17,-1190.46 626.17,-1196.46 620.17,-1196.46"/>
<text text-anchor="start" x="211.27" y="-1174.79" font-family="Times,serif" font-weight="bold" font-size="14.00">2: </text>
<text text-anchor="start" x="230.77" y="-1174.79" font-family="Times,serif" font-size="14.00">Erfolgt die Aktivierung zum Monatsersten 00:00 Uhr?</text>
</g>
<!-- 1&#45;&gt;2 -->
<g id="edge3" class="edge">
<title>1-&gt;2</title>
<path fill="none" stroke="#7aab8a" d="M289.97,-1262.5C314.72,-1246 352.5,-1220.82 379.96,-1202.51"/>
<polygon fill="#7aab8a" stroke="#7aab8a" points="381.57,-1205.64 387.95,-1197.18 377.68,-1199.82 381.57,-1205.64"/>
<text text-anchor="start" x="339.52" y="-1232.17" font-family="Times,serif" font-weight="bold" font-size="14.00">NEIN</text>
</g>
<!-- A02 -->
<g id="node5" class="node">
<title>A02</title>
<path fill="#cfb986" stroke="black" stroke-width="0" d="M233.76,-1094.45C233.76,-1094.45 23.28,-1094.45 23.28,-1094.45 17.28,-1094.45 11.28,-1088.45 11.28,-1082.45 11.28,-1082.45 11.28,-1044.93 11.28,-1044.93 11.28,-1038.93 17.28,-1032.93 23.28,-1032.93 23.28,-1032.93 233.76,-1032.93 233.76,-1032.93 239.76,-1032.93 245.76,-1038.93 245.76,-1044.93 245.76,-1044.93 245.76,-1082.45 245.76,-1082.45 245.76,-1088.45 239.76,-1094.45 233.76,-1094.45"/>
<text text-anchor="start" x="23.52" y="-1076.39" font-family="Times,serif" font-weight="bold" font-size="14.00">A02</text>
<text text-anchor="start" x="23.52" y="-1064.29" font-family="Times,serif" text-decoration="underline" font-size="12.00">Hinweis:</text>
<text text-anchor="start" x="23.52" y="-1052.29" font-family="Times,serif" font-size="12.00">Cluster: Ablehnung</text>
<text text-anchor="start" x="23.52" y="-1040.29" font-family="Times,serif" font-size="12.00">Gew&#228;hlter Zeitpunkt nicht zul&#228;ssig</text>
</g>
<!-- 2&#45;&gt;A02 -->
<g id="edge4" class="edge">
<title>2-&gt;A02</title>
<path fill="none" stroke="#7aab8a" d="M371.71,-1160.58C330.3,-1144.25 266.39,-1119.05 214.47,-1098.58"/>
<polygon fill="#7aab8a" stroke="#7aab8a" points="215.91,-1095.39 205.33,-1094.97 213.35,-1101.9 215.91,-1095.39"/>
<text text-anchor="start" x="288.52" y="-1117.4" font-family="Times,serif" font-weight="bold" font-size="14.00">NEIN</text>
</g>
<!-- 3 -->
<g id="node6" class="node">
<title>3</title>
<path fill="#7aab8a" stroke="black" stroke-width="0" d="M875.3,-1086.33C875.3,-1086.33 275.75,-1086.33 275.75,-1086.33 269.75,-1086.33 263.75,-1080.33 263.75,-1074.33 263.75,-1074.33 263.75,-1053.05 263.75,-1053.05 263.75,-1047.05 269.75,-1041.05 275.75,-1041.05 275.75,-1041.05 875.3,-1041.05 875.3,-1041.05 881.3,-1041.05 887.3,-1047.05 887.3,-1053.05 887.3,-1053.05 887.3,-1074.33 887.3,-1074.33 887.3,-1080.33 881.3,-1086.33 875.3,-1086.33"/>
<text text-anchor="start" x="278.15" y="-1065.39" font-family="Times,serif" font-weight="bold" font-size="14.00">3: </text>
<text text-anchor="start" x="297.65" y="-1065.39" font-family="Times,serif" font-size="14.00">Ist das Bilanzierungsgebiet des verantwortlichen NB zum Aktivierungsbeginn in</text>
<text text-anchor="start" x="278.15" y="-1051.39" font-family="Times,serif" font-size="14.00">der Regelzone des BIKO g&#252;ltig?</text>
</g>
<!-- 2&#45;&gt;3 -->
<g id="edge5" class="edge">
<title>2-&gt;3</title>
<path fill="none" stroke="#7aab8a" d="M438.63,-1160.58C464.23,-1142.65 505.11,-1114.01 535.55,-1092.69"/>
<polygon fill="#7aab8a" stroke="#7aab8a" points="537.21,-1095.8 543.39,-1087.2 533.19,-1090.07 537.21,-1095.8"/>
<text text-anchor="start" x="504.52" y="-1117.4" font-family="Times,serif" font-weight="bold" font-size="14.00">JA</text>
</g>
<!-- A03 -->
<g id="node7" class="node">
<title>A03</title>
<path fill="#cfb986" stroke="black" stroke-width="0" d="M491.64,-979.68C491.64,-979.68 145.41,-979.68 145.41,-979.68 139.41,-979.68 133.41,-973.68 133.41,-967.68 133.41,-967.68 133.41,-930.16 133.41,-930.16 133.41,-924.16 139.41,-918.16 145.41,-918.16 145.41,-918.16 491.64,-918.16 491.64,-918.16 497.64,-918.16 503.64,-924.16 503.64,-930.16 503.64,-930.16 503.64,-967.68 503.64,-967.68 503.64,-973.68 497.64,-979.68 491.64,-979.68"/>
<text text-anchor="start" x="145.65" y="-961.62" font-family="Times,serif" font-weight="bold" font-size="14.00">A03</text>
<text text-anchor="start" x="145.65" y="-949.52" font-family="Times,serif" text-decoration="underline" font-size="12.00">Hinweis:</text>
<text text-anchor="start" x="145.65" y="-937.52" font-family="Times,serif" font-size="12.00">Cluster: Ablehnung</text>
<text text-anchor="start" x="145.65" y="-925.52" font-family="Times,serif" font-size="12.00">Bilanzierungsgebiet des verantwortlichen NB nicht g&#252;ltig</text>
</g>
<!-- 3&#45;&gt;A03 -->
<g id="edge6" class="edge">
<title>3-&gt;A03</title>
<path fill="none" stroke="#7aab8a" d="M526.28,-1041.08C489.6,-1024.98 438.78,-1002.69 396.59,-984.17"/>
<polygon fill="#7aab8a" stroke="#7aab8a" points="398.01,-980.97 387.44,-980.16 395.2,-987.38 398.01,-980.97"/>
<text text-anchor="start" x="461.52" y="-1002.63" font-family="Times,serif" font-weight="bold" font-size="14.00">NEIN</text>
</g>
<!-- 4 -->
<g id="node8" class="node">
<title>4</title>
<path fill="#7aab8a" stroke="black" stroke-width="0" d="M1137.55,-971.56C1137.55,-971.56 533.5,-971.56 533.5,-971.56 527.5,-971.56 521.5,-965.56 521.5,-959.56 521.5,-959.56 521.5,-938.28 521.5,-938.28 521.5,-932.28 527.5,-926.28 533.5,-926.28 533.5,-926.28 1137.55,-926.28 1137.55,-926.28 1143.55,-926.28 1149.55,-932.28 1149.55,-938.28 1149.55,-938.28 1149.55,-959.56 1149.55,-959.56 1149.55,-965.56 1143.55,-971.56 1137.55,-971.56"/>
<text text-anchor="start" x="535.9" y="-950.62" font-family="Times,serif" font-weight="bold" font-size="14.00">4: </text>
<text text-anchor="start" x="555.4" y="-950.62" font-family="Times,serif" font-size="14.00">Ist das Bilanzierungsgebiet des benachbarten NB zum Aktivierungsbeginn in der</text>
<text text-anchor="start" x="535.9" y="-936.62" font-family="Times,serif" font-size="14.00">Regelzone des BIKO g&#252;ltig?</text>
</g>
<!-- 3&#45;&gt;4 -->
<g id="edge7" class="edge">
<title>3-&gt;4</title>
<path fill="none" stroke="#7aab8a" d="M625.35,-1041.08C668.17,-1022.51 730.02,-995.68 775.55,-975.93"/>
<polygon fill="#7aab8a" stroke="#7aab8a" points="776.7,-979.25 784.48,-972.06 773.92,-972.83 776.7,-979.25"/>
<text text-anchor="start" x="720.52" y="-1002.63" font-family="Times,serif" font-weight="bold" font-size="14.00">JA</text>
</g>
<!-- A04 -->
<g id="node9" class="node">
<title>A04</title>
<path fill="#cfb986" stroke="black" stroke-width="0" d="M753.51,-864.91C753.51,-864.91 427.53,-864.91 427.53,-864.91 421.53,-864.91 415.53,-858.91 415.53,-852.91 415.53,-852.91 415.53,-815.39 415.53,-815.39 415.53,-809.39 421.53,-803.39 427.53,-803.39 427.53,-803.39 753.51,-803.39 753.51,-803.39 759.51,-803.39 765.51,-809.39 765.51,-815.39 765.51,-815.39 765.51,-852.91 765.51,-852.91 765.51,-858.91 759.51,-864.91 753.51,-864.91"/>
<text text-anchor="start" x="427.77" y="-846.85" font-family="Times,serif" font-weight="bold" font-size="14.00">A04</text>
<text text-anchor="start" x="427.77" y="-834.75" font-family="Times,serif" text-decoration="underline" font-size="12.00">Hinweis:</text>
<text text-anchor="start" x="427.77" y="-822.75" font-family="Times,serif" font-size="12.00">Cluster: Ablehnung</text>
<text text-anchor="start" x="427.77" y="-810.75" font-family="Times,serif" font-size="12.00">Bilanzierungsgebiet des benachbarten NB nicht g&#252;ltig</text>
</g>
<!-- 4&#45;&gt;A04 -->
<g id="edge8" class="edge">
<title>4-&gt;A04</title>
<path fill="none" stroke="#7aab8a" d="M788.58,-926.31C753.68,-910.25 705.37,-888.01 665.2,-869.52"/>
<polygon fill="#7aab8a" stroke="#7aab8a" points="666.83,-866.42 656.28,-865.42 663.9,-872.78 666.83,-866.42"/>
<text text-anchor="start" x="727.52" y="-887.86" font-family="Times,serif" font-weight="bold" font-size="14.00">NEIN</text>
</g>
<!-- 5 -->
<g id="node10" class="node">
<title>5</title>
<path fill="#7aab8a" stroke="black" stroke-width="0" d="M1093.17,-852.15C1093.17,-852.15 795.88,-852.15 795.88,-852.15 789.88,-852.15 783.88,-846.15 783.88,-840.15 783.88,-840.15 783.88,-828.15 783.88,-828.15 783.88,-822.15 789.88,-816.15 795.88,-816.15 795.88,-816.15 1093.17,-816.15 1093.17,-816.15 1099.17,-816.15 1105.17,-822.15 1105.17,-828.15 1105.17,-828.15 1105.17,-840.15 1105.17,-840.15 1105.17,-846.15 1099.17,-852.15 1093.17,-852.15"/>
<text text-anchor="start" x="798.27" y="-830.48" font-family="Times,serif" font-weight="bold" font-size="14.00">5: </text>
<text text-anchor="start" x="817.77" y="-830.48" font-family="Times,serif" font-size="14.00">Ist die richtige Regelzone angegeben?</text>
</g>
<!-- 4&#45;&gt;5 -->
<g id="edge9" class="edge">
<title>4-&gt;5</title>
<path fill="none" stroke="#7aab8a" d="M856.28,-926.44C874.47,-907.63 900.92,-880.26 920.12,-860.4"/>
<polygon fill="#7aab8a" stroke="#7aab8a" points="922.63,-862.84 927.06,-853.22 917.59,-857.98 922.63,-862.84"/>
<text text-anchor="start" x="896.52" y="-887.86" font-family="Times,serif" font-weight="bold" font-size="14.00">JA</text>
</g>
<!-- A05 -->
<g id="node11" class="node">
<title>A05</title>
<path fill="#cfb986" stroke="black" stroke-width="0" d="M629.51,-750.14C629.51,-750.14 513.53,-750.14 513.53,-750.14 507.53,-750.14 501.53,-744.14 501.53,-738.14 501.53,-738.14 501.53,-700.62 501.53,-700.62 501.53,-694.62 507.53,-688.62 513.53,-688.62 513.53,-688.62 629.51,-688.62 629.51,-688.62 635.51,-688.62 641.51,-694.62 641.51,-700.62 641.51,-700.62 641.51,-738.14 641.51,-738.14 641.51,-744.14 635.51,-750.14 629.51,-750.14"/>
<text text-anchor="start" x="513.77" y="-732.08" font-family="Times,serif" font-weight="bold" font-size="14.00">A05</text>
<text text-anchor="start" x="513.77" y="-719.98" font-family="Times,serif" text-decoration="underline" font-size="12.00">Hinweis:</text>
<text text-anchor="start" x="513.77" y="-707.98" font-family="Times,serif" font-size="12.00">Cluster: Ablehnung</text>
<text text-anchor="start" x="513.77" y="-695.98" font-family="Times,serif" font-size="12.00">Regelzone falsch</text>
</g>
<!-- 5&#45;&gt;A05 -->
<g id="edge10" class="edge">
<title>5-&gt;A05</title>
<path fill="none" stroke="#7aab8a" d="M878.36,-816.19C820.91,-801.08 735.36,-777.64 651.89,-750.5"/>
<polygon fill="#7aab8a" stroke="#7aab8a" points="653.23,-747.25 642.64,-747.46 651.05,-753.9 653.23,-747.25"/>
<text text-anchor="start" x="762.52" y="-773.09" font-family="Times,serif" font-weight="bold" font-size="14.00">NEIN</text>
</g>
<!-- 6 -->
<g id="node12" class="node">
<title>6</title>
<path fill="#7aab8a" stroke="black" stroke-width="0" d="M1283.3,-742.02C1283.3,-742.02 671.75,-742.02 671.75,-742.02 665.75,-742.02 659.75,-736.02 659.75,-730.02 659.75,-730.02 659.75,-708.74 659.75,-708.74 659.75,-702.74 665.75,-696.74 671.75,-696.74 671.75,-696.74 1283.3,-696.74 1283.3,-696.74 1289.3,-696.74 1295.3,-702.74 1295.3,-708.74 1295.3,-708.74 1295.3,-730.02 1295.3,-730.02 1295.3,-736.02 1289.3,-742.02 1283.3,-742.02"/>
<text text-anchor="start" x="674.15" y="-721.08" font-family="Times,serif" font-weight="bold" font-size="14.00">6: </text>
<text text-anchor="start" x="693.65" y="-721.08" font-family="Times,serif" font-size="14.00">Ist der Sender zum Aktivierungsbeginn der verantwortliche NB f&#252;r eines der zwei</text>
<text text-anchor="start" x="674.15" y="-707.08" font-family="Times,serif" font-size="14.00">angegebenen Bilanzierungsgebiete?</text>
</g>
<!-- 5&#45;&gt;6 -->
<g id="edge11" class="edge">
<title>5-&gt;6</title>
<path fill="none" stroke="#7aab8a" d="M949.39,-816.51C954.3,-799.76 961.98,-773.49 968.08,-752.64"/>
<polygon fill="#7aab8a" stroke="#7aab8a" points="971.41,-753.75 970.86,-743.17 964.69,-751.78 971.41,-753.75"/>
<text text-anchor="start" x="962.52" y="-773.09" font-family="Times,serif" font-weight="bold" font-size="14.00">JA</text>
</g>
<!-- A06 -->
<g id="node13" class="node">
<title>A06</title>
<path fill="#cfb986" stroke="black" stroke-width="0" d="M691.01,-635.37C691.01,-635.37 572.03,-635.37 572.03,-635.37 566.03,-635.37 560.03,-629.37 560.03,-623.37 560.03,-623.37 560.03,-585.85 560.03,-585.85 560.03,-579.85 566.03,-573.85 572.03,-573.85 572.03,-573.85 691.01,-573.85 691.01,-573.85 697.01,-573.85 703.01,-579.85 703.01,-585.85 703.01,-585.85 703.01,-623.37 703.01,-623.37 703.01,-629.37 697.01,-635.37 691.01,-635.37"/>
<text text-anchor="start" x="572.27" y="-617.31" font-family="Times,serif" font-weight="bold" font-size="14.00">A06</text>
<text text-anchor="start" x="572.27" y="-605.21" font-family="Times,serif" text-decoration="underline" font-size="12.00">Hinweis:</text>
<text text-anchor="start" x="572.27" y="-593.21" font-family="Times,serif" font-size="12.00">Cluster: Ablehnung</text>
<text text-anchor="start" x="572.27" y="-581.21" font-family="Times,serif" font-size="12.00">Keine Berechtigung</text>
</g>
<!-- 6&#45;&gt;A06 -->
<g id="edge12" class="edge">
<title>6-&gt;A06</title>
<path fill="none" stroke="#7aab8a" d="M905.24,-696.77C854.39,-681.34 784.56,-659.66 713.9,-635.78"/>
<polygon fill="#7aab8a" stroke="#7aab8a" points="715.04,-632.47 704.45,-632.57 712.79,-639.1 715.04,-632.47"/>
<text text-anchor="start" x="813.52" y="-658.32" font-family="Times,serif" font-weight="bold" font-size="14.00">NEIN</text>
</g>
<!-- 7 -->
<g id="node14" class="node">
<title>7</title>
<path fill="#7aab8a" stroke="black" stroke-width="0" d="M1255.67,-622.61C1255.67,-622.61 733.38,-622.61 733.38,-622.61 727.38,-622.61 721.38,-616.61 721.38,-610.61 721.38,-610.61 721.38,-598.61 721.38,-598.61 721.38,-592.61 727.38,-586.61 733.38,-586.61 733.38,-586.61 1255.67,-586.61 1255.67,-586.61 1261.67,-586.61 1267.67,-592.61 1267.67,-598.61 1267.67,-598.61 1267.67,-610.61 1267.67,-610.61 1267.67,-616.61 1261.67,-622.61 1255.67,-622.61"/>
<text text-anchor="start" x="735.77" y="-600.94" font-family="Times,serif" font-weight="bold" font-size="14.00">7: </text>
<text text-anchor="start" x="755.27" y="-600.94" font-family="Times,serif" font-size="14.00">Existiert bereits ein abweichendes Tupel unter der ID des MaBiS-ZP?</text>
</g>
<!-- 6&#45;&gt;7 -->
<g id="edge13" class="edge">
<title>6-&gt;7</title>
<path fill="none" stroke="#7aab8a" d="M980.76,-696.9C983.46,-679.02 987.32,-653.4 990.27,-633.85"/>
<polygon fill="#7aab8a" stroke="#7aab8a" points="993.71,-634.5 991.74,-624.09 986.79,-633.45 993.71,-634.5"/>
<text text-anchor="start" x="986.52" y="-658.32" font-family="Times,serif" font-weight="bold" font-size="14.00">JA</text>
</g>
<!-- A07 -->
<g id="node15" class="node">
<title>A07</title>
<path fill="#cfb986" stroke="black" stroke-width="0" d="M735.14,-520.6C735.14,-520.6 469.91,-520.6 469.91,-520.6 463.91,-520.6 457.91,-514.6 457.91,-508.6 457.91,-508.6 457.91,-471.08 457.91,-471.08 457.91,-465.08 463.91,-459.08 469.91,-459.08 469.91,-459.08 735.14,-459.08 735.14,-459.08 741.14,-459.08 747.14,-465.08 747.14,-471.08 747.14,-471.08 747.14,-508.6 747.14,-508.6 747.14,-514.6 741.14,-520.6 735.14,-520.6"/>
<text text-anchor="start" x="470.15" y="-502.54" font-family="Times,serif" font-weight="bold" font-size="14.00">A07</text>
<text text-anchor="start" x="470.15" y="-490.44" font-family="Times,serif" text-decoration="underline" font-size="12.00">Hinweis:</text>
<text text-anchor="start" x="470.15" y="-478.44" font-family="Times,serif" font-size="12.00">Cluster: Ablehnung</text>
<text text-anchor="start" x="470.15" y="-466.44" font-family="Times,serif" font-size="12.00">Abweichender MaBiS-ZP bereits vorhanden</text>
</g>
<!-- 7&#45;&gt;A07 -->
<g id="edge14" class="edge">
<title>7-&gt;A07</title>
<path fill="none" stroke="#7aab8a" d="M935.84,-586.73C878.14,-570.13 788.54,-544.35 716.77,-523.71"/>
<polygon fill="#7aab8a" stroke="#7aab8a" points="717.9,-520.39 707.32,-520.99 715.96,-527.11 717.9,-520.39"/>
<text text-anchor="start" x="821.52" y="-543.55" font-family="Times,serif" font-weight="bold" font-size="14.00">JA</text>
</g>
<!-- 8 -->
<g id="node16" class="node">
<title>8</title>
<path fill="#7aab8a" stroke="black" stroke-width="0" d="M1342.05,-519.48C1342.05,-519.48 777,-519.48 777,-519.48 771,-519.48 765,-513.48 765,-507.48 765,-507.48 765,-472.2 765,-472.2 765,-466.2 771,-460.2 777,-460.2 777,-460.2 1342.05,-460.2 1342.05,-460.2 1348.05,-460.2 1354.05,-466.2 1354.05,-472.2 1354.05,-472.2 1354.05,-507.48 1354.05,-507.48 1354.05,-513.48 1348.05,-519.48 1342.05,-519.48"/>
<text text-anchor="start" x="779.4" y="-498.54" font-family="Times,serif" font-weight="bold" font-size="14.00">8: </text>
<text text-anchor="start" x="798.9" y="-498.54" font-family="Times,serif" font-size="14.00">Existiert bereits f&#252;r das genannte Tupel aus Bilanzierungsgebiet des</text>
<text text-anchor="start" x="779.4" y="-484.54" font-family="Times,serif" font-size="14.00">verantwortlichen NB, Bilanzierungsgebiet des benachbarten NB und ZRT eine</text>
<text text-anchor="start" x="779.4" y="-470.54" font-family="Times,serif" font-size="14.00">abweichende ID des MaBiS-ZP?</text>
</g>
<!-- 7&#45;&gt;8 -->
<g id="edge15" class="edge">
<title>7-&gt;8</title>
<path fill="none" stroke="#7aab8a" d="M1004.12,-586.97C1012.84,-571.84 1026.04,-548.94 1037.36,-529.29"/>
<polygon fill="#7aab8a" stroke="#7aab8a" points="1040.37,-531.09 1042.33,-520.68 1034.3,-527.59 1040.37,-531.09"/>
<text text-anchor="start" x="1030.53" y="-543.55" font-family="Times,serif" font-weight="bold" font-size="14.00">NEIN</text>
</g>
<!-- A08 -->
<g id="node17" class="node">
<title>A08</title>
<path fill="#cfb986" stroke="black" stroke-width="0" d="M857.39,-405.83C857.39,-405.83 551.66,-405.83 551.66,-405.83 545.66,-405.83 539.66,-399.83 539.66,-393.83 539.66,-393.83 539.66,-356.31 539.66,-356.31 539.66,-350.31 545.66,-344.31 551.66,-344.31 551.66,-344.31 857.39,-344.31 857.39,-344.31 863.39,-344.31 869.39,-350.31 869.39,-356.31 869.39,-356.31 869.39,-393.83 869.39,-393.83 869.39,-399.83 863.39,-405.83 857.39,-405.83"/>
<text text-anchor="start" x="551.9" y="-387.77" font-family="Times,serif" font-weight="bold" font-size="14.00">A08</text>
<text text-anchor="start" x="551.9" y="-375.67" font-family="Times,serif" text-decoration="underline" font-size="12.00">Hinweis:</text>
<text text-anchor="start" x="551.9" y="-363.67" font-family="Times,serif" font-size="12.00">Cluster: Ablehnung</text>
<text text-anchor="start" x="551.9" y="-351.67" font-family="Times,serif" font-size="12.00">Abweichende ID zum MaBiS-ZP bereits vorhanden</text>
</g>
<!-- 8&#45;&gt;A08 -->
<g id="edge16" class="edge">
<title>8-&gt;A08</title>
<path fill="none" stroke="#7aab8a" d="M969.48,-460.24C920.58,-444.7 859.87,-425.42 808.91,-409.23"/>
<polygon fill="#7aab8a" stroke="#7aab8a" points="810.22,-405.97 799.63,-406.28 808.1,-412.64 810.22,-405.97"/>
<text text-anchor="start" x="902.52" y="-428.78" font-family="Times,serif" font-weight="bold" font-size="14.00">JA</text>
</g>
<!-- 9 -->
<g id="node18" class="node">
<title>9</title>
<path fill="#7aab8a" stroke="black" stroke-width="0" d="M1263.18,-393.07C1263.18,-393.07 899.88,-393.07 899.88,-393.07 893.88,-393.07 887.88,-387.07 887.88,-381.07 887.88,-381.07 887.88,-369.07 887.88,-369.07 887.88,-363.07 893.88,-357.07 899.88,-357.07 899.88,-357.07 1263.18,-357.07 1263.18,-357.07 1269.18,-357.07 1275.18,-363.07 1275.18,-369.07 1275.18,-369.07 1275.18,-381.07 1275.18,-381.07 1275.18,-387.07 1269.18,-393.07 1263.18,-393.07"/>
<text text-anchor="start" x="902.28" y="-371.39" font-family="Times,serif" font-weight="bold" font-size="14.00">9: </text>
<text text-anchor="start" x="921.78" y="-371.39" font-family="Times,serif" font-size="14.00">Ist der NB zur Aktivierung des ZRT berechtigt?</text>
</g>
<!-- 8&#45;&gt;9 -->
<g id="edge17" class="edge">
<title>8-&gt;9</title>
<path fill="none" stroke="#7aab8a" d="M1065.08,-460.38C1068.45,-443.1 1072.73,-421.13 1076.08,-403.96"/>
<polygon fill="#7aab8a" stroke="#7aab8a" points="1079.46,-404.92 1077.94,-394.43 1072.59,-403.58 1079.46,-404.92"/>
<text text-anchor="start" x="1071.53" y="-428.78" font-family="Times,serif" font-weight="bold" font-size="14.00">NEIN</text>
</g>
<!-- A09 -->
<g id="node19" class="node">
<title>A09</title>
<path fill="#cfb986" stroke="black" stroke-width="0" d="M908.14,-291.06C908.14,-291.06 708.91,-291.06 708.91,-291.06 702.91,-291.06 696.91,-285.06 696.91,-279.06 696.91,-279.06 696.91,-241.54 696.91,-241.54 696.91,-235.54 702.91,-229.54 708.91,-229.54 708.91,-229.54 908.14,-229.54 908.14,-229.54 914.14,-229.54 920.14,-235.54 920.14,-241.54 920.14,-241.54 920.14,-279.06 920.14,-279.06 920.14,-285.06 914.14,-291.06 908.14,-291.06"/>
<text text-anchor="start" x="709.15" y="-273" font-family="Times,serif" font-weight="bold" font-size="14.00">A09</text>
<text text-anchor="start" x="709.15" y="-260.9" font-family="Times,serif" text-decoration="underline" font-size="12.00">Hinweis:</text>
<text text-anchor="start" x="709.15" y="-248.9" font-family="Times,serif" font-size="12.00">Cluster: Ablehnung</text>
<text text-anchor="start" x="709.15" y="-236.9" font-family="Times,serif" font-size="12.00">ZRT Aktivierung nicht berechtigt</text>
</g>
<!-- 9&#45;&gt;A09 -->
<g id="edge18" class="edge">
<title>9-&gt;A09</title>
<path fill="none" stroke="#7aab8a" d="M1040.65,-357.19C1001.22,-340.9 940.37,-315.76 890.87,-295.32"/>
<polygon fill="#7aab8a" stroke="#7aab8a" points="892.47,-292.19 881.89,-291.61 889.8,-298.66 892.47,-292.19"/>
<text text-anchor="start" x="960.52" y="-314.01" font-family="Times,serif" font-weight="bold" font-size="14.00">NEIN</text>
</g>
<!-- 10 -->
<g id="node20" class="node">
<title>10</title>
<path fill="#7aab8a" stroke="black" stroke-width="0" d="M1235.18,-278.3C1235.18,-278.3 949.88,-278.3 949.88,-278.3 943.88,-278.3 937.88,-272.3 937.88,-266.3 937.88,-266.3 937.88,-254.3 937.88,-254.3 937.88,-248.3 943.88,-242.3 949.88,-242.3 949.88,-242.3 1235.18,-242.3 1235.18,-242.3 1241.18,-242.3 1247.18,-248.3 1247.18,-254.3 1247.18,-254.3 1247.18,-266.3 1247.18,-266.3 1247.18,-272.3 1241.18,-278.3 1235.18,-278.3"/>
<text text-anchor="start" x="952.28" y="-256.62" font-family="Times,serif" font-weight="bold" font-size="14.00">10: </text>
<text text-anchor="start" x="981.53" y="-256.62" font-family="Times,serif" font-size="14.00">Passt die OBIS-Kennzahl zum ZRT?</text>
</g>
<!-- 9&#45;&gt;10 -->
<g id="edge19" class="edge">
<title>9-&gt;10</title>
<path fill="none" stroke="#7aab8a" d="M1083.15,-357.43C1084.89,-339.52 1087.7,-310.74 1089.79,-289.33"/>
<polygon fill="#7aab8a" stroke="#7aab8a" points="1093.26,-289.81 1090.75,-279.51 1086.29,-289.13 1093.26,-289.81"/>
<text text-anchor="start" x="1087.53" y="-314.01" font-family="Times,serif" font-weight="bold" font-size="14.00">JA</text>
</g>
<!-- A10 -->
<g id="node21" class="node">
<title>A10</title>
<path fill="#cfb986" stroke="black" stroke-width="0" d="M801.64,-176.29C801.64,-176.29 683.41,-176.29 683.41,-176.29 677.41,-176.29 671.41,-170.29 671.41,-164.29 671.41,-164.29 671.41,-126.77 671.41,-126.77 671.41,-120.77 677.41,-114.77 683.41,-114.77 683.41,-114.77 801.64,-114.77 801.64,-114.77 807.64,-114.77 813.64,-120.77 813.64,-126.77 813.64,-126.77 813.64,-164.29 813.64,-164.29 813.64,-170.29 807.64,-176.29 801.64,-176.29"/>
<text text-anchor="start" x="683.65" y="-158.23" font-family="Times,serif" font-weight="bold" font-size="14.00">A10</text>
<text text-anchor="start" x="683.65" y="-146.13" font-family="Times,serif" text-decoration="underline" font-size="12.00">Hinweis:</text>
<text text-anchor="start" x="683.65" y="-134.13" font-family="Times,serif" font-size="12.00">Cluster: Ablehnung</text>
<text text-anchor="start" x="683.65" y="-122.13" font-family="Times,serif" font-size="12.00">OBIS nicht passend</text>
</g>
<!-- 10&#45;&gt;A10 -->
<g id="edge20" class="edge">
<title>10-&gt;A10</title>
<path fill="none" stroke="#7aab8a" d="M1034.01,-242.37C981.47,-226.94 902.04,-203 824.04,-176.74"/>
<polygon fill="#7aab8a" stroke="#7aab8a" points="825.58,-173.57 814.98,-173.68 823.33,-180.2 825.58,-173.57"/>
<text text-anchor="start" x="925.52" y="-199.24" font-family="Times,serif" font-weight="bold" font-size="14.00">NEIN</text>
</g>
<!-- 11 -->
<g id="node22" class="node">
<title>11</title>
<path fill="#7aab8a" stroke="black" stroke-width="0" d="M1353.3,-163.53C1353.3,-163.53 843.75,-163.53 843.75,-163.53 837.75,-163.53 831.75,-157.53 831.75,-151.53 831.75,-151.53 831.75,-139.53 831.75,-139.53 831.75,-133.53 837.75,-127.53 843.75,-127.53 843.75,-127.53 1353.3,-127.53 1353.3,-127.53 1359.3,-127.53 1365.3,-133.53 1365.3,-139.53 1365.3,-139.53 1365.3,-151.53 1365.3,-151.53 1365.3,-157.53 1359.3,-163.53 1353.3,-163.53"/>
<text text-anchor="start" x="846.15" y="-141.85" font-family="Times,serif" font-weight="bold" font-size="14.00">11: </text>
<text text-anchor="start" x="875.4" y="-141.85" font-family="Times,serif" font-size="14.00">Ist der MaBiS-ZP zum Zeitpunkt der Aktivierung bereits aktiviert?</text>
</g>
<!-- 10&#45;&gt;11 -->
<g id="edge21" class="edge">
<title>10-&gt;11</title>
<path fill="none" stroke="#7aab8a" d="M1093.41,-242.66C1094.36,-224.75 1095.89,-195.97 1097.03,-174.56"/>
<polygon fill="#7aab8a" stroke="#7aab8a" points="1100.52,-174.92 1097.56,-164.75 1093.53,-174.55 1100.52,-174.92"/>
<text text-anchor="start" x="1095.53" y="-199.24" font-family="Times,serif" font-weight="bold" font-size="14.00">JA</text>
</g>
<!-- A11 -->
<g id="node23" class="node">
<title>A11</title>
<path fill="#cfb986" stroke="black" stroke-width="0" d="M1068.39,-61.52C1068.39,-61.52 906.66,-61.52 906.66,-61.52 900.66,-61.52 894.66,-55.52 894.66,-49.52 894.66,-49.52 894.66,-12 894.66,-12 894.66,-6 900.66,0 906.66,0 906.66,0 1068.39,0 1068.39,0 1074.39,0 1080.39,-6 1080.39,-12 1080.39,-12 1080.39,-49.52 1080.39,-49.52 1080.39,-55.52 1074.39,-61.52 1068.39,-61.52"/>
<text text-anchor="start" x="906.9" y="-43.46" font-family="Times,serif" font-weight="bold" font-size="14.00">A11</text>
<text text-anchor="start" x="906.9" y="-31.36" font-family="Times,serif" text-decoration="underline" font-size="12.00">Hinweis:</text>
<text text-anchor="start" x="906.9" y="-19.36" font-family="Times,serif" font-size="12.00">Cluster: Ablehnung</text>
<text text-anchor="start" x="906.9" y="-7.36" font-family="Times,serif" font-size="12.00">MaBiS-ZP bereits aktiviert</text>
</g>
<!-- 11&#45;&gt;A11 -->
<g id="edge22" class="edge">
<title>11-&gt;A11</title>
<path fill="none" stroke="#7aab8a" d="M1082.15,-127.89C1066.99,-112.49 1043.91,-89.04 1024.34,-69.16"/>
<polygon fill="#7aab8a" stroke="#7aab8a" points="1027.05,-66.92 1017.54,-62.25 1022.06,-71.83 1027.05,-66.92"/>
<text text-anchor="start" x="1049.53" y="-84.47" font-family="Times,serif" font-weight="bold" font-size="14.00">JA</text>
</g>
<!-- A12 -->
<g id="node24" class="node">
<title>A12</title>
<path fill="#cfb986" stroke="black" stroke-width="0" d="M1264.64,-61.52C1264.64,-61.52 1110.41,-61.52 1110.41,-61.52 1104.41,-61.52 1098.41,-55.52 1098.41,-49.52 1098.41,-49.52 1098.41,-12 1098.41,-12 1098.41,-6 1104.41,0 1110.41,0 1110.41,0 1264.64,0 1264.64,0 1270.64,0 1276.64,-6 1276.64,-12 1276.64,-12 1276.64,-49.52 1276.64,-49.52 1276.64,-55.52 1270.64,-61.52 1264.64,-61.52"/>
<text text-anchor="start" x="1110.65" y="-43.46" font-family="Times,serif" font-weight="bold" font-size="14.00">A12</text>
<text text-anchor="start" x="1110.65" y="-31.36" font-family="Times,serif" text-decoration="underline" font-size="12.00">Hinweis:</text>
<text text-anchor="start" x="1110.65" y="-19.36" font-family="Times,serif" font-size="12.00">Cluster: Zustimmung</text>
<text text-anchor="start" x="1110.65" y="-7.36" font-family="Times,serif" font-size="12.00">Aktivierung durchgef&#252;hrt</text>
</g>
<!-- 11&#45;&gt;A12 -->
<g id="edge23" class="edge">
<title>11-&gt;A12</title>
<path fill="none" stroke="#7aab8a" d="M1111.66,-127.89C1123.65,-112.7 1141.83,-89.66 1157.38,-69.95"/>
<polygon fill="#7aab8a" stroke="#7aab8a" points="1159.93,-72.38 1163.37,-62.36 1154.43,-68.04 1159.93,-72.38"/>
<text text-anchor="start" x="1147.53" y="-84.47" font-family="Times,serif" font-weight="bold" font-size="14.00">NEIN</text>
</g>
</g>
</svg>
  </g>
</svg>
  </g>
</svg>
