<?xml version="1.0" encoding="UTF-8" standalone="no"?>
<!DOCTYPE svg PUBLIC "-//W3C//DTD SVG 1.1//EN"
 "http://www.w3.org/Graphics/SVG/1.1/DTD/svg11.dtd">
<!-- Generated by graphviz version 7.0.5 (20221223.1930)
 -->
<!-- Title: D Pages: 1 -->
<svg width="1135pt" height="324pt"
 viewBox="0.00 0.00 1135.00 324.00" xmlns="http://www.w3.org/2000/svg" xmlns:xlink="http://www.w3.org/1999/xlink">
<g id="graph0" class="graph" transform="scale(1 1) rotate(0) translate(4 320)">
<title>D</title>
<polygon fill="white" stroke="none" points="-4,4 -4,-320 1131,-320 1131,4 -4,4"/>
<text text-anchor="start" x="530" y="-298.6" font-family="Times,serif" font-weight="bold" font-size="18.00">MaBiS</text>
<text text-anchor="start" x="8" y="-268.2" font-family="Times,serif" font-weight="bold" font-size="16.00">7.61.2: AD: Ăbermittlung Datenstatus fĂŒr die monatliche AusfallarbeitsĂŒberfĂŒhrungszeitreihe (AAĂZ) an NB und BKV(LF)</text>
<!-- Start -->
<g id="node1" class="node">
<title>Start</title>
<polygon fill="#7a8da1" stroke="black" points="651,-218 476,-218 476,-174 651,-174 651,-218"/>
<text text-anchor="start" x="535" y="-198.8" font-family="Times,serif" font-weight="bold" font-size="14.00">E_0076</text>
<text text-anchor="start" x="490" y="-186.4" font-family="Times,serif" font-weight="bold" text-decoration="underline" font-size="12.00">PrĂŒfende Rolle:</text>
<text text-anchor="start" x="596" y="-186.4" font-family="Times,serif" font-weight="bold" font-size="12.00"> BIKO</text>
</g>
<!-- 1 -->
<g id="node2" class="node">
<title>1</title>
<path fill="#7aab8a" stroke="black" d="M852.5,-137C852.5,-137 274.5,-137 274.5,-137 268.5,-137 262.5,-131 262.5,-125 262.5,-125 262.5,-113 262.5,-113 262.5,-107 268.5,-101 274.5,-101 274.5,-101 852.5,-101 852.5,-101 858.5,-101 864.5,-107 864.5,-113 864.5,-113 864.5,-125 864.5,-125 864.5,-131 858.5,-137 852.5,-137"/>
<text text-anchor="start" x="276.5" y="-116.3" font-family="Times,serif" font-weight="bold" font-size="14.00">1: </text>
<text text-anchor="start" x="296.5" y="-116.3" font-family="Times,serif" font-size="14.00">Erfolgt der Eingang der Zeitreihe vor Ablauf der Frist fĂŒr den Erstaufschlag?</text>
</g>
<!-- Start&#45;&gt;1 -->
<g id="edge1" class="edge">
<title>Start&#45;&gt;1</title>
<path fill="none" stroke="black" d="M563.5,-173.71C563.5,-165.82 563.5,-156.75 563.5,-148.33"/>
<polygon fill="black" stroke="black" points="567,-148.57 563.5,-138.57 560,-148.57 567,-148.57"/>
</g>
<!-- A01 -->
<g id="node3" class="node">
<title>A01</title>
<polygon fill="#cca9ab" stroke="black" points="568.5,-50 342.5,-50 342.5,0 568.5,0 568.5,-50"/>
<text text-anchor="start" x="440" y="-33.8" font-family="Times,serif" font-weight="bold" font-size="14.00">A01</text>
<text text-anchor="start" x="354.5" y="-21.4" font-family="Times,serif" text-decoration="underline" font-size="12.00">Hinweis:</text>
<text text-anchor="start" x="354.5" y="-9.4" font-family="Times,serif" font-size="12.00">Datenstatus âAbrechnungsdatenâ</text>
</g>
<!-- 1&#45;&gt;A01 -->
<g id="edge2" class="edge">
<title>1&#45;&gt;A01</title>
<path fill="none" stroke="black" d="M543.19,-100.7C528.93,-88.55 509.46,-71.96 492.48,-57.5"/>
<polygon fill="black" stroke="black" points="494.91,-54.97 485.03,-51.15 490.37,-60.3 494.91,-54.97"/>
<text text-anchor="middle" x="529.5" y="-71.8" font-family="Times,serif" font-size="14.00">Ja</text>
</g>
<!-- A02 -->
<g id="node4" class="node">
<title>A02</title>
<polygon fill="#cca9ab" stroke="black" points="758.5,-50 586.5,-50 586.5,0 758.5,0 758.5,-50"/>
<text text-anchor="start" x="657" y="-33.8" font-family="Times,serif" font-weight="bold" font-size="14.00">A02</text>
<text text-anchor="start" x="598.5" y="-21.4" font-family="Times,serif" text-decoration="underline" font-size="12.00">Hinweis:</text>
<text text-anchor="start" x="598.5" y="-9.4" font-family="Times,serif" font-size="12.00">Datenstatus âPrĂŒfdatenâ</text>
</g>
<!-- 1&#45;&gt;A02 -->
<g id="edge3" class="edge">
<title>1&#45;&gt;A02</title>
<path fill="none" stroke="black" d="M584,-100.7C598.39,-88.55 618.04,-71.96 635.18,-57.5"/>
<polygon fill="black" stroke="black" points="637.32,-60.27 642.71,-51.15 632.81,-54.92 637.32,-60.27"/>
<text text-anchor="middle" x="638.5" y="-71.8" font-family="Times,serif" font-size="14.00">Nein</text>
</g>
</g>
</svg>
