<?xml version="1.0" encoding="UTF-8" standalone="no"?>
<!DOCTYPE svg PUBLIC "-//W3C//DTD SVG 1.1//EN"
 "http://www.w3.org/Graphics/SVG/1.1/DTD/svg11.dtd">
<!-- Generated by graphviz version 7.0.5 (20221223.1930)
 -->
<!-- Title: D Pages: 1 -->
<svg width="3016pt" height="1440pt"
 viewBox="0.00 0.00 3016.00 1440.00" xmlns="http://www.w3.org/2000/svg" xmlns:xlink="http://www.w3.org/1999/xlink">
<g id="graph0" class="graph" transform="scale(1 1) rotate(0) translate(4 1436)">
<title>D</title>
<polygon fill="white" stroke="none" points="-4,4 -4,-1436 3012,-1436 3012,4 -4,4"/>
<text text-anchor="start" x="1470.5" y="-1414.6" font-family="Times,serif" font-weight="bold" font-size="18.00">MaBiS</text>
<text text-anchor="start" x="989" y="-1384.2" font-family="Times,serif" font-weight="bold" font-size="16.00">7.33.1: AD: Aktivierung eines MaBiS&#45;Zählpunkts für die Bilanzkreissummenzeitreihe vom ÜNB an BIKO und BKV</text>
<!-- Start -->
<g id="node1" class="node">
<title>Start</title>
<polygon fill="#7a8da1" stroke="black" points="532.5,-1334 357.5,-1334 357.5,-1290 532.5,-1290 532.5,-1334"/>
<text text-anchor="start" x="416.5" y="-1314.8" font-family="Times,serif" font-weight="bold" font-size="14.00">E_0011</text>
<text text-anchor="start" x="371.5" y="-1302.4" font-family="Times,serif" font-weight="bold" text-decoration="underline" font-size="12.00">Prüfende Rolle:</text>
<text text-anchor="start" x="477.5" y="-1302.4" font-family="Times,serif" font-weight="bold" font-size="12.00"> BIKO</text>
</g>
<!-- 1 -->
<g id="node2" class="node">
<title>1</title>
<path fill="#7aab8a" stroke="black" d="M697.5,-1253C697.5,-1253 192.5,-1253 192.5,-1253 186.5,-1253 180.5,-1247 180.5,-1241 180.5,-1241 180.5,-1229 180.5,-1229 180.5,-1223 186.5,-1217 192.5,-1217 192.5,-1217 697.5,-1217 697.5,-1217 703.5,-1217 709.5,-1223 709.5,-1229 709.5,-1229 709.5,-1241 709.5,-1241 709.5,-1247 703.5,-1253 697.5,-1253"/>
<text text-anchor="start" x="194.5" y="-1232.3" font-family="Times,serif" font-weight="bold" font-size="14.00">1: </text>
<text text-anchor="start" x="214.5" y="-1232.3" font-family="Times,serif" font-size="14.00">Erfolgt die Aktivierung nach Ablauf der Clearingfrist für die KBKA?</text>
</g>
<!-- Start&#45;&gt;1 -->
<g id="edge1" class="edge">
<title>Start&#45;&gt;1</title>
<path fill="none" stroke="black" d="M445,-1289.71C445,-1281.82 445,-1272.75 445,-1264.33"/>
<polygon fill="black" stroke="black" points="448.5,-1264.57 445,-1254.57 441.5,-1264.57 448.5,-1264.57"/>
</g>
<!-- A01 -->
<g id="node3" class="node">
<title>A01</title>
<polygon fill="#cca9ab" stroke="black" points="499.5,-1166 354.5,-1166 354.5,-1104 499.5,-1104 499.5,-1166"/>
<text text-anchor="start" x="411.5" y="-1149.8" font-family="Times,serif" font-weight="bold" font-size="14.00">A01</text>
<text text-anchor="start" x="366.5" y="-1137.4" font-family="Times,serif" text-decoration="underline" font-size="12.00">Hinweis:</text>
<text text-anchor="start" x="366.5" y="-1125.4" font-family="Times,serif" font-size="12.00">Cluster: Ablehnung</text>
<text text-anchor="start" x="366.5" y="-1113.4" font-family="Times,serif" font-size="12.00">Fristüberschreitung</text>
</g>
<!-- 1&#45;&gt;A01 -->
<g id="edge2" class="edge">
<title>1&#45;&gt;A01</title>
<path fill="none" stroke="black" d="M441.86,-1216.93C439.87,-1206.05 437.18,-1191.44 434.65,-1177.64"/>
<polygon fill="black" stroke="black" points="438.09,-1177.02 432.84,-1167.82 431.21,-1178.28 438.09,-1177.02"/>
<text text-anchor="middle" x="446" y="-1187.8" font-family="Times,serif" font-size="14.00">Ja</text>
</g>
<!-- 2 -->
<g id="node4" class="node">
<title>2</title>
<path fill="#7aab8a" stroke="black" d="M942,-1153C942,-1153 530,-1153 530,-1153 524,-1153 518,-1147 518,-1141 518,-1141 518,-1129 518,-1129 518,-1123 524,-1117 530,-1117 530,-1117 942,-1117 942,-1117 948,-1117 954,-1123 954,-1129 954,-1129 954,-1141 954,-1141 954,-1147 948,-1153 942,-1153"/>
<text text-anchor="start" x="532" y="-1132.3" font-family="Times,serif" font-weight="bold" font-size="14.00">2: </text>
<text text-anchor="start" x="552" y="-1132.3" font-family="Times,serif" font-size="14.00">Erfolgt die Aktivierung zum Monatsersten 00:00 Uhr?</text>
</g>
<!-- 1&#45;&gt;2 -->
<g id="edge3" class="edge">
<title>1&#45;&gt;2</title>
<path fill="none" stroke="black" d="M496.69,-1216.59C546.09,-1199.96 620.65,-1174.85 673.4,-1157.08"/>
<polygon fill="black" stroke="black" points="674.51,-1160.4 682.87,-1153.89 672.27,-1153.77 674.51,-1160.4"/>
<text text-anchor="middle" x="608" y="-1187.8" font-family="Times,serif" font-size="14.00">Nein</text>
</g>
<!-- A02 -->
<g id="node5" class="node">
<title>A02</title>
<polygon fill="#cca9ab" stroke="black" points="765.5,-1053 530.5,-1053 530.5,-991 765.5,-991 765.5,-1053"/>
<text text-anchor="start" x="632.5" y="-1036.8" font-family="Times,serif" font-weight="bold" font-size="14.00">A02</text>
<text text-anchor="start" x="542.5" y="-1024.4" font-family="Times,serif" text-decoration="underline" font-size="12.00">Hinweis:</text>
<text text-anchor="start" x="542.5" y="-1012.4" font-family="Times,serif" font-size="12.00">Cluster: Ablehnung</text>
<text text-anchor="start" x="542.5" y="-1000.4" font-family="Times,serif" font-size="12.00">Gewählter Zeitpunkt nicht zulässig</text>
</g>
<!-- 2&#45;&gt;A02 -->
<g id="edge4" class="edge">
<title>2&#45;&gt;A02</title>
<path fill="none" stroke="black" d="M722.25,-1116.66C710.7,-1102.09 693.76,-1080.72 678.98,-1062.08"/>
<polygon fill="black" stroke="black" points="681.83,-1060.03 672.87,-1054.37 676.34,-1064.38 681.83,-1060.03"/>
<text text-anchor="middle" x="715" y="-1074.8" font-family="Times,serif" font-size="14.00">Nein</text>
</g>
<!-- 3 -->
<g id="node6" class="node">
<title>3</title>
<path fill="#7aab8a" stroke="black" d="M1094,-1040C1094,-1040 796,-1040 796,-1040 790,-1040 784,-1034 784,-1028 784,-1028 784,-1016 784,-1016 784,-1010 790,-1004 796,-1004 796,-1004 1094,-1004 1094,-1004 1100,-1004 1106,-1010 1106,-1016 1106,-1016 1106,-1028 1106,-1028 1106,-1034 1100,-1040 1094,-1040"/>
<text text-anchor="start" x="798" y="-1019.3" font-family="Times,serif" font-weight="bold" font-size="14.00">3: </text>
<text text-anchor="start" x="818" y="-1019.3" font-family="Times,serif" font-size="14.00">Ist die richtige Regelzone angegeben?</text>
</g>
<!-- 2&#45;&gt;3 -->
<g id="edge5" class="edge">
<title>2&#45;&gt;3</title>
<path fill="none" stroke="black" d="M768.66,-1116.66C804.59,-1097.57 862.5,-1066.81 902.09,-1045.79"/>
<polygon fill="black" stroke="black" points="903.7,-1048.9 910.89,-1041.11 900.42,-1042.71 903.7,-1048.9"/>
<text text-anchor="middle" x="861" y="-1074.8" font-family="Times,serif" font-size="14.00">Ja</text>
</g>
<!-- A03 -->
<g id="node7" class="node">
<title>A03</title>
<polygon fill="#cca9ab" stroke="black" points="907,-940 767,-940 767,-878 907,-878 907,-940"/>
<text text-anchor="start" x="821.5" y="-923.8" font-family="Times,serif" font-weight="bold" font-size="14.00">A03</text>
<text text-anchor="start" x="779" y="-911.4" font-family="Times,serif" text-decoration="underline" font-size="12.00">Hinweis:</text>
<text text-anchor="start" x="779" y="-899.4" font-family="Times,serif" font-size="12.00">Cluster: Ablehnung</text>
<text text-anchor="start" x="779" y="-887.4" font-family="Times,serif" font-size="12.00">Regelzone falsch</text>
</g>
<!-- 3&#45;&gt;A03 -->
<g id="edge6" class="edge">
<title>3&#45;&gt;A03</title>
<path fill="none" stroke="black" d="M928.12,-1003.66C913.76,-988.89 892.6,-967.14 874.28,-948.32"/>
<polygon fill="black" stroke="black" points="876.91,-946 867.42,-941.27 871.89,-950.88 876.91,-946"/>
<text text-anchor="middle" x="915" y="-961.8" font-family="Times,serif" font-size="14.00">Nein</text>
</g>
<!-- 4 -->
<g id="node8" class="node">
<title>4</title>
<path fill="#7aab8a" stroke="black" d="M1492.5,-927C1492.5,-927 937.5,-927 937.5,-927 931.5,-927 925.5,-921 925.5,-915 925.5,-915 925.5,-903 925.5,-903 925.5,-897 931.5,-891 937.5,-891 937.5,-891 1492.5,-891 1492.5,-891 1498.5,-891 1504.5,-897 1504.5,-903 1504.5,-903 1504.5,-915 1504.5,-915 1504.5,-921 1498.5,-927 1492.5,-927"/>
<text text-anchor="start" x="939.5" y="-906.3" font-family="Times,serif" font-weight="bold" font-size="14.00">4: </text>
<text text-anchor="start" x="959.5" y="-906.3" font-family="Times,serif" font-size="14.00">Erfolgt die Aktivierung des MaBiS&#45;ZP auf Ebene des Bilanzierungsgebiet?</text>
</g>
<!-- 3&#45;&gt;4 -->
<g id="edge7" class="edge">
<title>3&#45;&gt;4</title>
<path fill="none" stroke="black" d="M987.48,-1003.53C1034.76,-984.1 1111.21,-952.67 1162.27,-931.68"/>
<polygon fill="black" stroke="black" points="1163.45,-934.98 1171.36,-927.94 1160.78,-928.5 1163.45,-934.98"/>
<text text-anchor="middle" x="1104" y="-961.8" font-family="Times,serif" font-size="14.00">Ja</text>
</g>
<!-- 5 -->
<g id="node9" class="node">
<title>5</title>
<path fill="#7aab8a" stroke="black" d="M1001,-827C1001,-827 353,-827 353,-827 347,-827 341,-821 341,-815 341,-815 341,-803 341,-803 341,-797 347,-791 353,-791 353,-791 1001,-791 1001,-791 1007,-791 1013,-797 1013,-803 1013,-803 1013,-815 1013,-815 1013,-821 1007,-827 1001,-827"/>
<text text-anchor="start" x="355" y="-806.3" font-family="Times,serif" font-weight="bold" font-size="14.00">5: </text>
<text text-anchor="start" x="375" y="-806.3" font-family="Times,serif" font-size="14.00">Ist das Bilanzierungsgebiet zum Aktivierungsbeginn in der Regelzone des BIKO gültig?</text>
</g>
<!-- 4&#45;&gt;5 -->
<g id="edge9" class="edge">
<title>4&#45;&gt;5</title>
<path fill="none" stroke="black" d="M1119.13,-890.54C1025.02,-873.39 881.78,-847.3 784.01,-829.49"/>
<polygon fill="black" stroke="black" points="784.87,-826.09 774.41,-827.74 783.62,-832.98 784.87,-826.09"/>
<text text-anchor="middle" x="953" y="-848.8" font-family="Times,serif" font-size="14.00">Ja</text>
</g>
<!-- 8 -->
<g id="node15" class="node">
<title>8</title>
<path fill="#7aab8a" stroke="black" d="M2049,-827C2049,-827 1043,-827 1043,-827 1037,-827 1031,-821 1031,-815 1031,-815 1031,-803 1031,-803 1031,-797 1037,-791 1043,-791 1043,-791 2049,-791 2049,-791 2055,-791 2061,-797 2061,-803 2061,-803 2061,-815 2061,-815 2061,-821 2055,-827 2049,-827"/>
<text text-anchor="start" x="1045" y="-806.3" font-family="Times,serif" font-weight="bold" font-size="14.00">8: </text>
<text text-anchor="start" x="1065" y="-806.3" font-family="Times,serif" font-size="14.00">Existiert bereits ein abweichendes Tupel aus Aggregationsverantwortlicher, Regelzone, Bilanzkreis und ZRT unter der ID des MaBiS&#45;ZP?</text>
</g>
<!-- 4&#45;&gt;8 -->
<g id="edge8" class="edge">
<title>4&#45;&gt;8</title>
<path fill="none" stroke="black" d="M1273.79,-890.59C1330.37,-873.84 1415.95,-848.5 1476.01,-830.72"/>
<polygon fill="black" stroke="black" points="1476.87,-834.12 1485.47,-827.92 1474.88,-827.41 1476.87,-834.12"/>
<text text-anchor="middle" x="1436" y="-848.8" font-family="Times,serif" font-size="14.00">Nein</text>
</g>
<!-- A04 -->
<g id="node10" class="node">
<title>A04</title>
<polygon fill="#cca9ab" stroke="black" points="216,-740 0,-740 0,-678 216,-678 216,-740"/>
<text text-anchor="start" x="92.5" y="-723.8" font-family="Times,serif" font-weight="bold" font-size="14.00">A04</text>
<text text-anchor="start" x="12" y="-711.4" font-family="Times,serif" text-decoration="underline" font-size="12.00">Hinweis:</text>
<text text-anchor="start" x="12" y="-699.4" font-family="Times,serif" font-size="12.00">Cluster: Ablehnung</text>
<text text-anchor="start" x="12" y="-687.4" font-family="Times,serif" font-size="12.00">Bilanzierungsgebiet nicht gültig</text>
</g>
<!-- 5&#45;&gt;A04 -->
<g id="edge10" class="edge">
<title>5&#45;&gt;A04</title>
<path fill="none" stroke="black" d="M535.87,-790.52C449.37,-778.92 336.24,-762.14 227.47,-740.43"/>
<polygon fill="black" stroke="black" points="228.25,-737.02 217.76,-738.47 226.87,-743.88 228.25,-737.02"/>
<text text-anchor="middle" x="428" y="-761.8" font-family="Times,serif" font-size="14.00">Nein</text>
</g>
<!-- 6 -->
<g id="node11" class="node">
<title>6</title>
<path fill="#7aab8a" stroke="black" d="M1322,-727C1322,-727 246,-727 246,-727 240,-727 234,-721 234,-715 234,-715 234,-703 234,-703 234,-697 240,-691 246,-691 246,-691 1322,-691 1322,-691 1328,-691 1334,-697 1334,-703 1334,-703 1334,-715 1334,-715 1334,-721 1328,-727 1322,-727"/>
<text text-anchor="start" x="248" y="-706.3" font-family="Times,serif" font-weight="bold" font-size="14.00">6: </text>
<text text-anchor="start" x="268" y="-706.3" font-family="Times,serif" font-size="14.00">Existiert bereits ein abweichendes Tupel aus Aggregationsverantwortlicher, Bilanzierungsgebiet, Bilanzkreis und ZRT unter der ID des MaBiS&#45;ZP?</text>
</g>
<!-- 5&#45;&gt;6 -->
<g id="edge11" class="edge">
<title>5&#45;&gt;6</title>
<path fill="none" stroke="black" d="M695.64,-790.93C712.56,-775.43 737.74,-752.37 756.89,-734.83"/>
<polygon fill="black" stroke="black" points="759.09,-737.56 764.1,-728.23 754.36,-732.4 759.09,-737.56"/>
<text text-anchor="middle" x="738" y="-761.8" font-family="Times,serif" font-size="14.00">Ja</text>
</g>
<!-- A05 -->
<g id="node12" class="node">
<title>A05</title>
<polygon fill="#cca9ab" stroke="black" points="756.5,-627 467.5,-627 467.5,-565 756.5,-565 756.5,-627"/>
<text text-anchor="start" x="596.5" y="-610.8" font-family="Times,serif" font-weight="bold" font-size="14.00">A05</text>
<text text-anchor="start" x="479.5" y="-598.4" font-family="Times,serif" text-decoration="underline" font-size="12.00">Hinweis:</text>
<text text-anchor="start" x="479.5" y="-586.4" font-family="Times,serif" font-size="12.00">Cluster: Ablehnung</text>
<text text-anchor="start" x="479.5" y="-574.4" font-family="Times,serif" font-size="12.00">Abweichender MaBiS&#45;ZP bereits vorhanden</text>
</g>
<!-- 6&#45;&gt;A05 -->
<g id="edge12" class="edge">
<title>6&#45;&gt;A05</title>
<path fill="none" stroke="black" d="M757.12,-690.66C733.51,-675.42 698.36,-652.74 668.58,-633.51"/>
<polygon fill="black" stroke="black" points="670.69,-630.71 660.39,-628.23 666.89,-636.59 670.69,-630.71"/>
<text text-anchor="middle" x="716" y="-648.8" font-family="Times,serif" font-size="14.00">Ja</text>
</g>
<!-- 7 -->
<g id="node13" class="node">
<title>7</title>
<path fill="#7aab8a" stroke="black" d="M1917.5,-614C1917.5,-614 786.5,-614 786.5,-614 780.5,-614 774.5,-608 774.5,-602 774.5,-602 774.5,-590 774.5,-590 774.5,-584 780.5,-578 786.5,-578 786.5,-578 1917.5,-578 1917.5,-578 1923.5,-578 1929.5,-584 1929.5,-590 1929.5,-590 1929.5,-602 1929.5,-602 1929.5,-608 1923.5,-614 1917.5,-614"/>
<text text-anchor="start" x="788.5" y="-593.3" font-family="Times,serif" font-weight="bold" font-size="14.00">7: </text>
<text text-anchor="start" x="808.5" y="-593.3" font-family="Times,serif" font-size="14.00">Existiert bereits für das genannte Tupel aus Aggregationsverantwortlicher, Bilanzierungsgebiet, Bilanzkreis und ZRT eine abweichende ID des MaBiS&#45;ZP?</text>
</g>
<!-- 6&#45;&gt;7 -->
<g id="edge13" class="edge">
<title>6&#45;&gt;7</title>
<path fill="none" stroke="black" d="M873.37,-690.53C976.12,-670.46 1144.34,-637.58 1251.53,-616.63"/>
<polygon fill="black" stroke="black" points="1252.05,-620.1 1261.19,-614.75 1250.71,-613.23 1252.05,-620.1"/>
<text text-anchor="middle" x="1120" y="-648.8" font-family="Times,serif" font-size="14.00">Nein</text>
</g>
<!-- A06 -->
<g id="node14" class="node">
<title>A06</title>
<polygon fill="#cca9ab" stroke="black" points="1517,-514 1187,-514 1187,-452 1517,-452 1517,-514"/>
<text text-anchor="start" x="1336.5" y="-497.8" font-family="Times,serif" font-weight="bold" font-size="14.00">A06</text>
<text text-anchor="start" x="1199" y="-485.4" font-family="Times,serif" text-decoration="underline" font-size="12.00">Hinweis:</text>
<text text-anchor="start" x="1199" y="-473.4" font-family="Times,serif" font-size="12.00">Cluster: Ablehnung</text>
<text text-anchor="start" x="1199" y="-461.4" font-family="Times,serif" font-size="12.00">Abweichende ID zum MaBiS&#45;ZP bereits vorhanden</text>
</g>
<!-- 7&#45;&gt;A06 -->
<g id="edge14" class="edge">
<title>7&#45;&gt;A06</title>
<path fill="none" stroke="black" d="M1352,-577.66C1352,-563.75 1352,-543.65 1352,-525.64"/>
<polygon fill="black" stroke="black" points="1355.5,-525.7 1352,-515.7 1348.5,-525.7 1355.5,-525.7"/>
<text text-anchor="middle" x="1359" y="-535.8" font-family="Times,serif" font-size="14.00">Ja</text>
</g>
<!-- 10 -->
<g id="node19" class="node">
<title>10</title>
<path fill="#7aab8a" stroke="black" d="M2273,-501C2273,-501 1875,-501 1875,-501 1869,-501 1863,-495 1863,-489 1863,-489 1863,-477 1863,-477 1863,-471 1869,-465 1875,-465 1875,-465 2273,-465 2273,-465 2279,-465 2285,-471 2285,-477 2285,-477 2285,-489 2285,-489 2285,-495 2279,-501 2273,-501"/>
<text text-anchor="start" x="1877" y="-480.3" font-family="Times,serif" font-weight="bold" font-size="14.00">10: </text>
<text text-anchor="start" x="1907" y="-480.3" font-family="Times,serif" font-size="14.00">Ist der Bilanzkreis zum Aktivierungsbeginn gültig?</text>
</g>
<!-- 7&#45;&gt;10 -->
<g id="edge15" class="edge">
<title>7&#45;&gt;10</title>
<path fill="none" stroke="black" d="M1465.61,-577.53C1597.13,-557.31 1813.06,-524.12 1949.17,-503.19"/>
<polygon fill="black" stroke="black" points="1949.61,-506.66 1958.96,-501.69 1948.55,-499.75 1949.61,-506.66"/>
<text text-anchor="middle" x="1773" y="-535.8" font-family="Times,serif" font-size="14.00">Nein</text>
</g>
<!-- A07 -->
<g id="node16" class="node">
<title>A07</title>
<polygon fill="#cca9ab" stroke="black" points="1656.5,-740 1367.5,-740 1367.5,-678 1656.5,-678 1656.5,-740"/>
<text text-anchor="start" x="1496.5" y="-723.8" font-family="Times,serif" font-weight="bold" font-size="14.00">A07</text>
<text text-anchor="start" x="1379.5" y="-711.4" font-family="Times,serif" text-decoration="underline" font-size="12.00">Hinweis:</text>
<text text-anchor="start" x="1379.5" y="-699.4" font-family="Times,serif" font-size="12.00">Cluster: Ablehnung</text>
<text text-anchor="start" x="1379.5" y="-687.4" font-family="Times,serif" font-size="12.00">Abweichender MaBiS&#45;ZP bereits vorhanden</text>
</g>
<!-- 8&#45;&gt;A07 -->
<g id="edge16" class="edge">
<title>8&#45;&gt;A07</title>
<path fill="none" stroke="black" d="M1540.08,-790.93C1536.23,-779.83 1531.03,-764.86 1526.16,-750.81"/>
<polygon fill="black" stroke="black" points="1529.6,-750.06 1523.02,-741.76 1522.99,-752.35 1529.6,-750.06"/>
<text text-anchor="middle" x="1540" y="-761.8" font-family="Times,serif" font-size="14.00">Ja</text>
</g>
<!-- 9 -->
<g id="node17" class="node">
<title>9</title>
<path fill="#7aab8a" stroke="black" d="M2747.5,-727C2747.5,-727 1686.5,-727 1686.5,-727 1680.5,-727 1674.5,-721 1674.5,-715 1674.5,-715 1674.5,-703 1674.5,-703 1674.5,-697 1680.5,-691 1686.5,-691 1686.5,-691 2747.5,-691 2747.5,-691 2753.5,-691 2759.5,-697 2759.5,-703 2759.5,-703 2759.5,-715 2759.5,-715 2759.5,-721 2753.5,-727 2747.5,-727"/>
<text text-anchor="start" x="1688.5" y="-706.3" font-family="Times,serif" font-weight="bold" font-size="14.00">9: </text>
<text text-anchor="start" x="1708.5" y="-706.3" font-family="Times,serif" font-size="14.00">Existiert bereits für das genannte Tupel aus Aggregationsverantwortlicher, Regelzone, Bilanzkreis und ZRT eine abweichende ID des MaBiS&#45;ZP?</text>
</g>
<!-- 8&#45;&gt;9 -->
<g id="edge17" class="edge">
<title>8&#45;&gt;9</title>
<path fill="none" stroke="black" d="M1665.57,-790.54C1783.77,-773.27 1964.14,-746.93 2086.12,-729.11"/>
<polygon fill="black" stroke="black" points="2086.48,-732.6 2095.87,-727.69 2085.47,-725.67 2086.48,-732.6"/>
<text text-anchor="middle" x="1898" y="-761.8" font-family="Times,serif" font-size="14.00">Nein</text>
</g>
<!-- A08 -->
<g id="node18" class="node">
<title>A08</title>
<polygon fill="#cca9ab" stroke="black" points="2282,-627 1948,-627 1948,-565 2282,-565 2282,-627"/>
<text text-anchor="start" x="2099.5" y="-610.8" font-family="Times,serif" font-weight="bold" font-size="14.00">A08</text>
<text text-anchor="start" x="1960" y="-598.4" font-family="Times,serif" text-decoration="underline" font-size="12.00">Hinweis:</text>
<text text-anchor="start" x="1960" y="-586.4" font-family="Times,serif" font-size="12.00">Cluster: Ablehnung</text>
<text text-anchor="start" x="1960" y="-574.4" font-family="Times,serif" font-size="12.00">Abweichende ID zum MaBiS&#45;ZP bereits vor&#45;handen</text>
</g>
<!-- 9&#45;&gt;A08 -->
<g id="edge18" class="edge">
<title>9&#45;&gt;A08</title>
<path fill="none" stroke="black" d="M2201.06,-690.66C2187.55,-675.96 2167.69,-654.34 2150.44,-635.57"/>
<polygon fill="black" stroke="black" points="2153.1,-633.29 2143.76,-628.3 2147.95,-638.03 2153.1,-633.29"/>
<text text-anchor="middle" x="2179" y="-648.8" font-family="Times,serif" font-size="14.00">Ja</text>
</g>
<!-- 9&#45;&gt;10 -->
<g id="edge19" class="edge">
<title>9&#45;&gt;10</title>
<path fill="none" stroke="black" d="M2240.31,-690.65C2257.98,-675.94 2280.87,-653.1 2291,-627 2300.97,-601.31 2306.71,-587.64 2291,-565 2270.72,-535.79 2238.56,-517.09 2205.15,-505.13"/>
<polygon fill="black" stroke="black" points="2206.3,-501.83 2195.7,-501.96 2204.07,-508.46 2206.3,-501.83"/>
<text text-anchor="middle" x="2317" y="-592.3" font-family="Times,serif" font-size="14.00">Nein</text>
</g>
<!-- A09 -->
<g id="node20" class="node">
<title>A09</title>
<polygon fill="#cca9ab" stroke="black" points="2065,-401 1901,-401 1901,-339 2065,-339 2065,-401"/>
<text text-anchor="start" x="1967.5" y="-384.8" font-family="Times,serif" font-weight="bold" font-size="14.00">A09</text>
<text text-anchor="start" x="1913" y="-372.4" font-family="Times,serif" text-decoration="underline" font-size="12.00">Hinweis:</text>
<text text-anchor="start" x="1913" y="-360.4" font-family="Times,serif" font-size="12.00">Cluster: Ablehnung</text>
<text text-anchor="start" x="1913" y="-348.4" font-family="Times,serif" font-size="12.00">Bilanzkreis nicht gültig</text>
</g>
<!-- 10&#45;&gt;A09 -->
<g id="edge20" class="edge">
<title>10&#45;&gt;A09</title>
<path fill="none" stroke="black" d="M2059.78,-464.66C2047.84,-450.09 2030.32,-428.72 2015.04,-410.08"/>
<polygon fill="black" stroke="black" points="2017.75,-407.87 2008.71,-402.36 2012.34,-412.31 2017.75,-407.87"/>
<text text-anchor="middle" x="2050" y="-422.8" font-family="Times,serif" font-size="14.00">Nein</text>
</g>
<!-- 11 -->
<g id="node21" class="node">
<title>11</title>
<path fill="#7aab8a" stroke="black" d="M2481,-388C2481,-388 2095,-388 2095,-388 2089,-388 2083,-382 2083,-376 2083,-376 2083,-364 2083,-364 2083,-358 2089,-352 2095,-352 2095,-352 2481,-352 2481,-352 2487,-352 2493,-358 2493,-364 2493,-364 2493,-376 2493,-376 2493,-382 2487,-388 2481,-388"/>
<text text-anchor="start" x="2097" y="-367.3" font-family="Times,serif" font-weight="bold" font-size="14.00">11: </text>
<text text-anchor="start" x="2127" y="-367.3" font-family="Times,serif" font-size="14.00">Ist der ÜNB zur Aktivierung des ZRT berechtigt?</text>
</g>
<!-- 10&#45;&gt;11 -->
<g id="edge21" class="edge">
<title>10&#45;&gt;11</title>
<path fill="none" stroke="black" d="M2107.44,-464.66C2144.31,-445.53 2203.78,-414.68 2244.32,-393.66"/>
<polygon fill="black" stroke="black" points="2245.84,-396.81 2253.1,-389.1 2242.61,-390.6 2245.84,-396.81"/>
<text text-anchor="middle" x="2200" y="-422.8" font-family="Times,serif" font-size="14.00">Ja</text>
</g>
<!-- A10 -->
<g id="node22" class="node">
<title>A10</title>
<polygon fill="#cca9ab" stroke="black" points="2314.5,-288 2091.5,-288 2091.5,-226 2314.5,-226 2314.5,-288"/>
<text text-anchor="start" x="2187.5" y="-271.8" font-family="Times,serif" font-weight="bold" font-size="14.00">A10</text>
<text text-anchor="start" x="2103.5" y="-259.4" font-family="Times,serif" text-decoration="underline" font-size="12.00">Hinweis:</text>
<text text-anchor="start" x="2103.5" y="-247.4" font-family="Times,serif" font-size="12.00">Cluster: Ablehnung</text>
<text text-anchor="start" x="2103.5" y="-235.4" font-family="Times,serif" font-size="12.00">ZRT Aktivierung nicht berechtigt</text>
</g>
<!-- 11&#45;&gt;A10 -->
<g id="edge22" class="edge">
<title>11&#45;&gt;A10</title>
<path fill="none" stroke="black" d="M2274.72,-351.66C2263.56,-337.09 2247.2,-315.72 2232.92,-297.08"/>
<polygon fill="black" stroke="black" points="2235.89,-295.2 2227.03,-289.39 2230.34,-299.45 2235.89,-295.2"/>
<text text-anchor="middle" x="2267" y="-309.8" font-family="Times,serif" font-size="14.00">Nein</text>
</g>
<!-- 12 -->
<g id="node23" class="node">
<title>12</title>
<path fill="#7aab8a" stroke="black" d="M2631,-275C2631,-275 2345,-275 2345,-275 2339,-275 2333,-269 2333,-263 2333,-263 2333,-251 2333,-251 2333,-245 2339,-239 2345,-239 2345,-239 2631,-239 2631,-239 2637,-239 2643,-245 2643,-251 2643,-251 2643,-263 2643,-263 2643,-269 2637,-275 2631,-275"/>
<text text-anchor="start" x="2347" y="-254.3" font-family="Times,serif" font-weight="bold" font-size="14.00">12: </text>
<text text-anchor="start" x="2377" y="-254.3" font-family="Times,serif" font-size="14.00">Passt die OBIS&#45;Kennzahl zum ZRT?</text>
</g>
<!-- 11&#45;&gt;12 -->
<g id="edge23" class="edge">
<title>11&#45;&gt;12</title>
<path fill="none" stroke="black" d="M2319.25,-351.66C2353.64,-332.57 2409.06,-301.81 2446.93,-280.79"/>
<polygon fill="black" stroke="black" points="2448.27,-284.05 2455.32,-276.14 2444.87,-277.93 2448.27,-284.05"/>
<text text-anchor="middle" x="2406" y="-309.8" font-family="Times,serif" font-size="14.00">Ja</text>
</g>
<!-- A11 -->
<g id="node24" class="node">
<title>A11</title>
<polygon fill="#cca9ab" stroke="black" points="2456,-175 2314,-175 2314,-113 2456,-113 2456,-175"/>
<text text-anchor="start" x="2369.5" y="-158.8" font-family="Times,serif" font-weight="bold" font-size="14.00">A11</text>
<text text-anchor="start" x="2326" y="-146.4" font-family="Times,serif" text-decoration="underline" font-size="12.00">Hinweis:</text>
<text text-anchor="start" x="2326" y="-134.4" font-family="Times,serif" font-size="12.00">Cluster: Ablehnung</text>
<text text-anchor="start" x="2326" y="-122.4" font-family="Times,serif" font-size="12.00">OBIS nicht passend</text>
</g>
<!-- 12&#45;&gt;A11 -->
<g id="edge24" class="edge">
<title>12&#45;&gt;A11</title>
<path fill="none" stroke="black" d="M2471.91,-238.66C2458.27,-223.96 2438.2,-202.34 2420.79,-183.57"/>
<polygon fill="black" stroke="black" points="2423.41,-181.24 2414.04,-176.29 2418.28,-186.01 2423.41,-181.24"/>
<text text-anchor="middle" x="2459" y="-196.8" font-family="Times,serif" font-size="14.00">Nein</text>
</g>
<!-- 13 -->
<g id="node25" class="node">
<title>13</title>
<path fill="#7aab8a" stroke="black" d="M2996,-162C2996,-162 2486,-162 2486,-162 2480,-162 2474,-156 2474,-150 2474,-150 2474,-138 2474,-138 2474,-132 2480,-126 2486,-126 2486,-126 2996,-126 2996,-126 3002,-126 3008,-132 3008,-138 3008,-138 3008,-150 3008,-150 3008,-156 3002,-162 2996,-162"/>
<text text-anchor="start" x="2488" y="-141.3" font-family="Times,serif" font-weight="bold" font-size="14.00">13: </text>
<text text-anchor="start" x="2518" y="-141.3" font-family="Times,serif" font-size="14.00">Ist der MaBiS&#45;ZP zum Zeitpunkt der Aktivierung bereits aktiviert?</text>
</g>
<!-- 12&#45;&gt;13 -->
<g id="edge25" class="edge">
<title>12&#45;&gt;13</title>
<path fill="none" stroke="black" d="M2527.81,-238.53C2571.93,-219.18 2643.14,-187.93 2690.99,-166.94"/>
<polygon fill="black" stroke="black" points="2692.29,-170.19 2700.04,-162.97 2689.47,-163.78 2692.29,-170.19"/>
<text text-anchor="middle" x="2636" y="-196.8" font-family="Times,serif" font-size="14.00">Ja</text>
</g>
<!-- A12 -->
<g id="node26" class="node">
<title>A12</title>
<polygon fill="#cca9ab" stroke="black" points="2734,-62 2548,-62 2548,0 2734,0 2734,-62"/>
<text text-anchor="start" x="2625.5" y="-45.8" font-family="Times,serif" font-weight="bold" font-size="14.00">A12</text>
<text text-anchor="start" x="2560" y="-33.4" font-family="Times,serif" text-decoration="underline" font-size="12.00">Hinweis:</text>
<text text-anchor="start" x="2560" y="-21.4" font-family="Times,serif" font-size="12.00">Cluster: Ablehnung</text>
<text text-anchor="start" x="2560" y="-9.4" font-family="Times,serif" font-size="12.00">MaBiS&#45;ZP bereits aktiviert</text>
</g>
<!-- 13&#45;&gt;A12 -->
<g id="edge26" class="edge">
<title>13&#45;&gt;A12</title>
<path fill="none" stroke="black" d="M2725.38,-125.66C2712.13,-110.96 2692.65,-89.34 2675.75,-70.57"/>
<polygon fill="black" stroke="black" points="2678.5,-68.4 2669.21,-63.31 2673.3,-73.08 2678.5,-68.4"/>
<text text-anchor="middle" x="2703" y="-83.8" font-family="Times,serif" font-size="14.00">Ja</text>
</g>
<!-- A13 -->
<g id="node27" class="node">
<title>A13</title>
<polygon fill="#cca9ab" stroke="black" points="2930,-62 2752,-62 2752,0 2930,0 2930,-62"/>
<text text-anchor="start" x="2825.5" y="-45.8" font-family="Times,serif" font-weight="bold" font-size="14.00">A13</text>
<text text-anchor="start" x="2764" y="-33.4" font-family="Times,serif" text-decoration="underline" font-size="12.00">Hinweis:</text>
<text text-anchor="start" x="2764" y="-21.4" font-family="Times,serif" font-size="12.00">Cluster: Zustimmung </text>
<text text-anchor="start" x="2764" y="-9.4" font-family="Times,serif" font-size="12.00">Aktivierung durchgeführt</text>
</g>
<!-- 13&#45;&gt;A13 -->
<g id="edge27" class="edge">
<title>13&#45;&gt;A13</title>
<path fill="none" stroke="black" d="M2756.62,-125.66C2769.87,-110.96 2789.35,-89.34 2806.25,-70.57"/>
<polygon fill="black" stroke="black" points="2808.7,-73.08 2812.79,-63.31 2803.5,-68.4 2808.7,-73.08"/>
<text text-anchor="middle" x="2813" y="-83.8" font-family="Times,serif" font-size="14.00">Nein</text>
</g>
</g>
</svg>
