<?xml version='1.0' encoding='ASCII' standalone='yes'?>
<svg xmlns="http://www.w3.org/2000/svg" xmlns:xlink="http://www.w3.org/1999/xlink" version="1.1" width="2706.6666666666665px" viewBox="0 0 2706.6666666666665 432.0" height="432.0px">
  <g>
    <svg version="1.1" width="2706.6666666666665px" viewBox="0 0 2706.6666666666665 432.0" height="432.0px">
  <polygon fill="#f3f1f6" points="0,0 2706.6666666666665,0 2706.6666666666665,432.0 0,432.0"/><g>
    <g transform="translate(1180.6615104172613, 43.19999999999999) scale(1 1) translate(0, 0) scale(1.9537700469187476 1.9537700469187476) "><sodipodi:namedview xmlns:sodipodi="http://sodipodi.sourceforge.net/DTD/sodipodi-0.dtd" xmlns:inkscape="http://www.inkscape.org/namespaces/inkscape" id="namedview7" pagecolor="#ffffff" bordercolor="#999999" borderopacity="1" inkscape:pageshadow="0" inkscape:pageopacity="0" inkscape:pagecheckerboard="0" inkscape:document-units="mm" showgrid="false" fit-margin-top="0" fit-margin-left="0" fit-margin-right="0" fit-margin-bottom="0" inkscape:zoom="0.64052329" inkscape:cx="130.36216" inkscape:cy="412.163" inkscape:window-width="1512" inkscape:window-height="916" inkscape:window-x="3840" inkscape:window-y="136" inkscape:window-maximized="0" inkscape:current-layer="layer1"/>
  <defs id="defs2">
    <clipPath clipPathUnits="userSpaceOnUse" id="clipPath23">
      <path d="M 0,568.156 H 579.236 V 0 H 0 Z" id="path21"/>
    </clipPath>
  </defs>
  <g xmlns:inkscape="http://www.inkscape.org/namespaces/inkscape" inkscape:label="Layer 1" inkscape:groupmode="layer" id="layer1" transform="translate(-16.541937,-55.305267)">
    <g id="g19" clip-path="url(#clipPath23)" transform="matrix(0.35277777,0,0,-0.35277777,0.01017023,243.73675)" style="opacity:0.2">
      <g id="g25" transform="translate(122.444,32.7195)">
        <path d="m 0,0 h -56.104 c -11,0 -19.898,9.123 -19.463,20.115 10.594,267.191 231.277,481.302 501.029,481.302 v -56.02 c 0,-10.98 -8.688,-19.892 -19.658,-20.393 C 180.29,414.697 0,228.005 0,0" style="fill:#6ead83;fill-opacity:1;fill-rule:nonzero;stroke:none" id="path27"/>
      </g>
      <g id="g29" transform="translate(273.7828,32.7195)">
        <path d="m 0,0 h -55.926 c -11.228,0 -20.091,9.482 -19.435,20.69 10.744,183.439 163.389,329.388 349.485,329.388 v -56.263 c 0,-10.709 -8.273,-19.617 -18.957,-20.35 C 112.819,263.696 0,144.774 0,0" style="fill:#6ead83;fill-opacity:1;fill-rule:nonzero;stroke:none" id="path31"/>
      </g>
      <g id="g33" transform="translate(425.7667,32.7195)">
        <path d="m 0,0 h -55.445 c -11.653,0 -20.604,10.17 -19.334,21.753 10.866,99.032 95.031,176.341 196.919,176.341 v -57.011 c 0,-10.046 -7.283,-18.755 -17.229,-20.165 C 45.688,112.522 0,61.497 0,0" style="fill:#6ead83;fill-opacity:1;fill-rule:nonzero;stroke:none" id="path35"/>
      </g>
    </g>
  </g>
</g>
    <svg width="2030pt" height="324pt" viewBox="0.00 0.00 2029.50 324.00">
<g id="graph0" class="graph" transform="scale(1 1) rotate(0) translate(4 320)">
<title>D</title>
<text text-anchor="start" x="977.25" y="-298.6" font-family="Times,serif" font-weight="bold" font-size="18.00">MaBiS</text>
<text text-anchor="start" x="762.75" y="-268.2" font-family="Times,serif" font-weight="bold" font-size="16.00">7.7.1: AD: &#220;bermittlung Datenstatus der Netzzeitreihe</text>
<!-- Start -->
<g id="node1" class="node">
<title>Start</title>
<polygon fill="#7a8da1" stroke="black" points="1039,-218 864,-218 864,-174 1039,-174 1039,-218"/>
<text text-anchor="start" x="923" y="-198.8" font-family="Times,serif" font-weight="bold" font-size="14.00">E_0066</text>
<text text-anchor="start" x="878" y="-186.4" font-family="Times,serif" font-weight="bold" text-decoration="underline" font-size="12.00">Pr&#252;fende Rolle:</text>
<text text-anchor="start" x="984" y="-186.4" font-family="Times,serif" font-weight="bold" font-size="12.00"> BIKO</text>
</g>
<!-- 1 -->
<g id="node2" class="node">
<title>1</title>
<path fill="#7aab8a" stroke="black" d="M1081,-137C1081,-137 822,-137 822,-137 816,-137 810,-131 810,-125 810,-125 810,-113 810,-113 810,-107 816,-101 822,-101 822,-101 1081,-101 1081,-101 1087,-101 1093,-107 1093,-113 1093,-113 1093,-125 1093,-125 1093,-131 1087,-137 1081,-137"/>
<text text-anchor="start" x="824" y="-116.3" font-family="Times,serif" font-weight="bold" font-size="14.00">1: </text>
<text text-anchor="start" x="844" y="-116.3" font-family="Times,serif" font-size="14.00">Ist die BKA (ohne KBKA) erfolgt?</text>
</g>
<!-- Start&#45;&gt;1 -->
<g id="edge1" class="edge">
<title>Start-&gt;1</title>
<path fill="none" stroke="black" d="M951.5,-173.71C951.5,-165.82 951.5,-156.75 951.5,-148.33"/>
<polygon fill="black" stroke="black" points="955,-148.57 951.5,-138.57 948,-148.57 955,-148.57"/>
</g>
<!-- A03 -->
<g id="node3" class="node">
<title>A03</title>
<polygon fill="#cfb986" stroke="black" points="883,-50 0,-50 0,0 883,0 883,-50"/>
<text text-anchor="start" x="426" y="-33.8" font-family="Times,serif" font-weight="bold" font-size="14.00">A03</text>
<text text-anchor="start" x="12" y="-21.4" font-family="Times,serif" text-decoration="underline" font-size="12.00">Hinweis:</text>
<text text-anchor="start" x="12" y="-9.4" font-family="Times,serif" font-size="12.00">Datenstatus &#8222;Abgerechnete Daten&#8220; f&#252;r die h&#246;chste Version der NZR mit dem Datenstatus &#8222;Abrechnungsdaten&#8220; in diesem Bilanzierungs-monat.</text>
</g>
<!-- 1&#45;&gt;A03 -->
<g id="edge2" class="edge">
<title>1-&gt;A03</title>
<path fill="none" stroke="black" d="M854.67,-100.53C779.39,-86.95 673.72,-67.89 588.09,-52.44"/>
<polygon fill="black" stroke="black" points="588.9,-49.03 578.44,-50.7 587.66,-55.92 588.9,-49.03"/>
<text text-anchor="middle" x="764.5" y="-71.8" font-family="Times,serif" font-size="14.00">Ja</text>
</g>
<!-- A06 -->
<g id="node4" class="node">
<title>A06</title>
<polygon fill="#cfb986" stroke="black" points="2021.5,-50 901.5,-50 901.5,0 2021.5,0 2021.5,-50"/>
<text text-anchor="start" x="1446" y="-33.8" font-family="Times,serif" font-weight="bold" font-size="14.00">A06</text>
<text text-anchor="start" x="913.5" y="-21.4" font-family="Times,serif" text-decoration="underline" font-size="12.00">Hinweis:</text>
<text text-anchor="start" x="913.5" y="-9.4" font-family="Times,serif" font-size="12.00">Datenstatus "Abgerechnete Daten KBKA" f&#252;r die h&#246;chste Version der NZR mit dem Datenstatus "Abgerechnete Daten" oder "Abrechnungsdaten KBKA" in diesem Bilanzierungsmonat</text>
</g>
<!-- 1&#45;&gt;A06 -->
<g id="edge3" class="edge">
<title>1-&gt;A06</title>
<path fill="none" stroke="black" d="M1048.33,-100.53C1123.61,-86.95 1229.28,-67.89 1314.91,-52.44"/>
<polygon fill="black" stroke="black" points="1315.34,-55.92 1324.56,-50.7 1314.1,-49.03 1315.34,-55.92"/>
<text text-anchor="middle" x="1239.5" y="-71.8" font-family="Times,serif" font-size="14.00">Nein</text>
</g>
</g>
</svg>
  </g>
</svg>
  </g>
</svg>
