<?xml version='1.0' encoding='ASCII' standalone='yes'?>
<svg xmlns="http://www.w3.org/2000/svg" xmlns:xlink="http://www.w3.org/1999/xlink" version="1.1" width="5845.333333333333px" viewBox="0 0 5845.333333333333 2105.3333333333335" height="2105.3333333333335px">
  <g>
    <g transform="translate(2081.157998813341, 210.5333333333333) scale(1 1) translate(0, 0) scale(9.521613901495996 9.521613901495996) "><sodipodi:namedview xmlns:sodipodi="http://sodipodi.sourceforge.net/DTD/sodipodi-0.dtd" xmlns:inkscape="http://www.inkscape.org/namespaces/inkscape" id="namedview7" pagecolor="#ffffff" bordercolor="#999999" borderopacity="1" inkscape:pageshadow="0" inkscape:pageopacity="0" inkscape:pagecheckerboard="0" inkscape:document-units="mm" showgrid="false" fit-margin-top="0" fit-margin-left="0" fit-margin-right="0" fit-margin-bottom="0" inkscape:zoom="0.64052329" inkscape:cx="130.36216" inkscape:cy="412.163" inkscape:window-width="1512" inkscape:window-height="916" inkscape:window-x="3840" inkscape:window-y="136" inkscape:window-maximized="0" inkscape:current-layer="layer1"/>
  <defs id="defs2">
    <clipPath clipPathUnits="userSpaceOnUse" id="clipPath23">
      <path d="M 0,568.156 H 579.236 V 0 H 0 Z" id="path21"/>
    </clipPath>
  </defs>
  <g xmlns:inkscape="http://www.inkscape.org/namespaces/inkscape" inkscape:label="Layer 1" inkscape:groupmode="layer" id="layer1" transform="translate(-16.541937,-55.305267)">
    <g id="g19" clip-path="url(#clipPath23)" transform="matrix(0.35277777,0,0,-0.35277777,0.01017023,243.73675)" style="opacity:0.2">
      <g id="g25" transform="translate(122.444,32.7195)">
        <path d="m 0,0 h -56.104 c -11,0 -19.898,9.123 -19.463,20.115 10.594,267.191 231.277,481.302 501.029,481.302 v -56.02 c 0,-10.98 -8.688,-19.892 -19.658,-20.393 C 180.29,414.697 0,228.005 0,0" style="fill:#6ead83;fill-opacity:1;fill-rule:nonzero;stroke:none" id="path27"/>
      </g>
      <g id="g29" transform="translate(273.7828,32.7195)">
        <path d="m 0,0 h -55.926 c -11.228,0 -20.091,9.482 -19.435,20.69 10.744,183.439 163.389,329.388 349.485,329.388 v -56.263 c 0,-10.709 -8.273,-19.617 -18.957,-20.35 C 112.819,263.696 0,144.774 0,0" style="fill:#6ead83;fill-opacity:1;fill-rule:nonzero;stroke:none" id="path31"/>
      </g>
      <g id="g33" transform="translate(425.7667,32.7195)">
        <path d="m 0,0 h -55.445 c -11.653,0 -20.604,10.17 -19.334,21.753 10.866,99.032 95.031,176.341 196.919,176.341 v -57.011 c 0,-10.046 -7.283,-18.755 -17.229,-20.165 C 45.688,112.522 0,61.497 0,0" style="fill:#6ead83;fill-opacity:1;fill-rule:nonzero;stroke:none" id="path35"/>
      </g>
    </g>
  </g>
</g>
    <svg width="4384pt" height="1579pt" viewBox="0.00 0.00 4383.50 1579.00">
<g id="graph0" class="graph" transform="scale(1 1) rotate(0) translate(4 1575)">
<title>D</title>
<text text-anchor="start" x="2154.25" y="-1553.6" font-family="Times,serif" font-weight="bold" font-size="18.00">MaBiS</text>
<text text-anchor="start" x="1573.75" y="-1523.2" font-family="Times,serif" font-weight="bold" font-size="16.00">7.62.1: AD: Aktivierung eines MaBiS-ZP f&#252;r die monatliche Ausfallarbeits&#252;berf&#252;hrungszeitreihe (AA&#220;Z) zwischen NB und BKV (anfNB)</text>
<!-- Start -->
<g id="node1" class="node">
<title>Start</title>
<polygon fill="#7a8da1" stroke="black" points="352,-1473 177,-1473 177,-1429 352,-1429 352,-1473"/>
<text text-anchor="start" x="236" y="-1453.8" font-family="Times,serif" font-weight="bold" font-size="14.00">E_0078</text>
<text text-anchor="start" x="191" y="-1441.4" font-family="Times,serif" font-weight="bold" text-decoration="underline" font-size="12.00">Pr&#252;fende Rolle:</text>
<text text-anchor="start" x="297" y="-1441.4" font-family="Times,serif" font-weight="bold" font-size="12.00"> BIKO</text>
</g>
<!-- 1 -->
<g id="node2" class="node">
<title>1</title>
<path fill="#7aab8a" stroke="black" d="M517,-1392C517,-1392 12,-1392 12,-1392 6,-1392 0,-1386 0,-1380 0,-1380 0,-1368 0,-1368 0,-1362 6,-1356 12,-1356 12,-1356 517,-1356 517,-1356 523,-1356 529,-1362 529,-1368 529,-1368 529,-1380 529,-1380 529,-1386 523,-1392 517,-1392"/>
<text text-anchor="start" x="14" y="-1371.3" font-family="Times,serif" font-weight="bold" font-size="14.00">1: </text>
<text text-anchor="start" x="34" y="-1371.3" font-family="Times,serif" font-size="14.00">Erfolgt die Aktivierung nach Ablauf der Clearingfrist f&#252;r die KBKA?</text>
</g>
<!-- Start&#45;&gt;1 -->
<g id="edge1" class="edge">
<title>Start-&gt;1</title>
<path fill="none" stroke="black" d="M264.5,-1428.71C264.5,-1420.82 264.5,-1411.75 264.5,-1403.33"/>
<polygon fill="black" stroke="black" points="268,-1403.57 264.5,-1393.57 261,-1403.57 268,-1403.57"/>
</g>
<!-- A01 -->
<g id="node3" class="node">
<title>A01</title>
<polygon fill="#cca9ab" stroke="black" points="319,-1305 174,-1305 174,-1243 319,-1243 319,-1305"/>
<text text-anchor="start" x="231" y="-1288.8" font-family="Times,serif" font-weight="bold" font-size="14.00">A01</text>
<text text-anchor="start" x="186" y="-1276.4" font-family="Times,serif" text-decoration="underline" font-size="12.00">Hinweis:</text>
<text text-anchor="start" x="186" y="-1264.4" font-family="Times,serif" font-size="12.00">Cluster: Ablehnung</text>
<text text-anchor="start" x="186" y="-1252.4" font-family="Times,serif" font-size="12.00">Frist&#252;berschreitung</text>
</g>
<!-- 1&#45;&gt;A01 -->
<g id="edge2" class="edge">
<title>1-&gt;A01</title>
<path fill="none" stroke="black" d="M261.36,-1355.93C259.37,-1345.05 256.68,-1330.44 254.15,-1316.64"/>
<polygon fill="black" stroke="black" points="257.59,-1316.02 252.34,-1306.82 250.71,-1317.28 257.59,-1316.02"/>
<text text-anchor="middle" x="265.5" y="-1326.8" font-family="Times,serif" font-size="14.00">Ja</text>
</g>
<!-- 2 -->
<g id="node4" class="node">
<title>2</title>
<path fill="#7aab8a" stroke="black" d="M761.5,-1292C761.5,-1292 349.5,-1292 349.5,-1292 343.5,-1292 337.5,-1286 337.5,-1280 337.5,-1280 337.5,-1268 337.5,-1268 337.5,-1262 343.5,-1256 349.5,-1256 349.5,-1256 761.5,-1256 761.5,-1256 767.5,-1256 773.5,-1262 773.5,-1268 773.5,-1268 773.5,-1280 773.5,-1280 773.5,-1286 767.5,-1292 761.5,-1292"/>
<text text-anchor="start" x="351.5" y="-1271.3" font-family="Times,serif" font-weight="bold" font-size="14.00">2: </text>
<text text-anchor="start" x="371.5" y="-1271.3" font-family="Times,serif" font-size="14.00">Erfolgt die Aktivierung zum Monatsersten 00:00 Uhr?</text>
</g>
<!-- 1&#45;&gt;2 -->
<g id="edge3" class="edge">
<title>1-&gt;2</title>
<path fill="none" stroke="black" d="M316.19,-1355.59C365.59,-1338.96 440.15,-1313.85 492.9,-1296.08"/>
<polygon fill="black" stroke="black" points="494.01,-1299.4 502.37,-1292.89 491.77,-1292.77 494.01,-1299.4"/>
<text text-anchor="middle" x="427.5" y="-1326.8" font-family="Times,serif" font-size="14.00">Nein</text>
</g>
<!-- A02 -->
<g id="node5" class="node">
<title>A02</title>
<polygon fill="#cca9ab" stroke="black" points="584,-1192 349,-1192 349,-1130 584,-1130 584,-1192"/>
<text text-anchor="start" x="451" y="-1175.8" font-family="Times,serif" font-weight="bold" font-size="14.00">A02</text>
<text text-anchor="start" x="361" y="-1163.4" font-family="Times,serif" text-decoration="underline" font-size="12.00">Hinweis:</text>
<text text-anchor="start" x="361" y="-1151.4" font-family="Times,serif" font-size="12.00">Cluster: Ablehnung</text>
<text text-anchor="start" x="361" y="-1139.4" font-family="Times,serif" font-size="12.00">Gew&#228;hlter Zeitpunkt nicht zul&#228;ssig</text>
</g>
<!-- 2&#45;&gt;A02 -->
<g id="edge4" class="edge">
<title>2-&gt;A02</title>
<path fill="none" stroke="black" d="M541.59,-1255.66C529.91,-1241.09 512.78,-1219.72 497.83,-1201.08"/>
<polygon fill="black" stroke="black" points="500.64,-1198.98 491.65,-1193.37 495.17,-1203.36 500.64,-1198.98"/>
<text text-anchor="middle" x="533.5" y="-1213.8" font-family="Times,serif" font-size="14.00">Nein</text>
</g>
<!-- 3 -->
<g id="node6" class="node">
<title>3</title>
<path fill="#7aab8a" stroke="black" d="M912.5,-1179C912.5,-1179 614.5,-1179 614.5,-1179 608.5,-1179 602.5,-1173 602.5,-1167 602.5,-1167 602.5,-1155 602.5,-1155 602.5,-1149 608.5,-1143 614.5,-1143 614.5,-1143 912.5,-1143 912.5,-1143 918.5,-1143 924.5,-1149 924.5,-1155 924.5,-1155 924.5,-1167 924.5,-1167 924.5,-1173 918.5,-1179 912.5,-1179"/>
<text text-anchor="start" x="616.5" y="-1158.3" font-family="Times,serif" font-weight="bold" font-size="14.00">3: </text>
<text text-anchor="start" x="636.5" y="-1158.3" font-family="Times,serif" font-size="14.00">Ist die richtige Regelzone angegeben?</text>
</g>
<!-- 2&#45;&gt;3 -->
<g id="edge5" class="edge">
<title>2-&gt;3</title>
<path fill="none" stroke="black" d="M588,-1255.66C623.77,-1236.57 681.4,-1205.81 720.79,-1184.79"/>
<polygon fill="black" stroke="black" points="722.38,-1187.91 729.55,-1180.12 719.08,-1181.74 722.38,-1187.91"/>
<text text-anchor="middle" x="679.5" y="-1213.8" font-family="Times,serif" font-size="14.00">Ja</text>
</g>
<!-- A03 -->
<g id="node7" class="node">
<title>A03</title>
<polygon fill="#cca9ab" stroke="black" points="713.5,-1079 573.5,-1079 573.5,-1017 713.5,-1017 713.5,-1079"/>
<text text-anchor="start" x="628" y="-1062.8" font-family="Times,serif" font-weight="bold" font-size="14.00">A03</text>
<text text-anchor="start" x="585.5" y="-1050.4" font-family="Times,serif" text-decoration="underline" font-size="12.00">Hinweis:</text>
<text text-anchor="start" x="585.5" y="-1038.4" font-family="Times,serif" font-size="12.00">Cluster: Ablehnung</text>
<text text-anchor="start" x="585.5" y="-1026.4" font-family="Times,serif" font-size="12.00">Regelzone falsch</text>
</g>
<!-- 3&#45;&gt;A03 -->
<g id="edge6" class="edge">
<title>3-&gt;A03</title>
<path fill="none" stroke="black" d="M744.75,-1142.66C728.64,-1127.76 704.85,-1105.75 684.38,-1086.81"/>
<polygon fill="black" stroke="black" points="686.96,-1084.43 677.24,-1080.21 682.21,-1089.57 686.96,-1084.43"/>
<text text-anchor="middle" x="728.5" y="-1100.8" font-family="Times,serif" font-size="14.00">Nein</text>
</g>
<!-- 4 -->
<g id="node8" class="node">
<title>4</title>
<path fill="#7aab8a" stroke="black" d="M1391.5,-1066C1391.5,-1066 743.5,-1066 743.5,-1066 737.5,-1066 731.5,-1060 731.5,-1054 731.5,-1054 731.5,-1042 731.5,-1042 731.5,-1036 737.5,-1030 743.5,-1030 743.5,-1030 1391.5,-1030 1391.5,-1030 1397.5,-1030 1403.5,-1036 1403.5,-1042 1403.5,-1042 1403.5,-1054 1403.5,-1054 1403.5,-1060 1397.5,-1066 1391.5,-1066"/>
<text text-anchor="start" x="745.5" y="-1045.3" font-family="Times,serif" font-weight="bold" font-size="14.00">4: </text>
<text text-anchor="start" x="765.5" y="-1045.3" font-family="Times,serif" font-size="14.00">Ist das Bilanzierungsgebiet zum Aktivierungsbeginn in der Regelzone des BIKO g&#252;ltig?</text>
</g>
<!-- 3&#45;&gt;4 -->
<g id="edge7" class="edge">
<title>3-&gt;4</title>
<path fill="none" stroke="black" d="M811.33,-1142.53C864.9,-1122.98 951.72,-1091.27 1009.21,-1070.28"/>
<polygon fill="black" stroke="black" points="1010.33,-1073.6 1018.52,-1066.88 1007.93,-1067.03 1010.33,-1073.6"/>
<text text-anchor="middle" x="941.5" y="-1100.8" font-family="Times,serif" font-size="14.00">Ja</text>
</g>
<!-- A04 -->
<g id="node9" class="node">
<title>A04</title>
<polygon fill="#cca9ab" stroke="black" points="1035.5,-966 819.5,-966 819.5,-904 1035.5,-904 1035.5,-966"/>
<text text-anchor="start" x="912" y="-949.8" font-family="Times,serif" font-weight="bold" font-size="14.00">A04</text>
<text text-anchor="start" x="831.5" y="-937.4" font-family="Times,serif" text-decoration="underline" font-size="12.00">Hinweis:</text>
<text text-anchor="start" x="831.5" y="-925.4" font-family="Times,serif" font-size="12.00">Cluster: Ablehnung</text>
<text text-anchor="start" x="831.5" y="-913.4" font-family="Times,serif" font-size="12.00">Bilanzierungsgebiet nicht g&#252;ltig</text>
</g>
<!-- 4&#45;&gt;A04 -->
<g id="edge8" class="edge">
<title>4-&gt;A04</title>
<path fill="none" stroke="black" d="M1045.62,-1029.66C1026.74,-1014.68 998.78,-992.52 974.81,-973.51"/>
<polygon fill="black" stroke="black" points="977.04,-970.82 967.03,-967.34 972.7,-976.3 977.04,-970.82"/>
<text text-anchor="middle" x="1023.5" y="-987.8" font-family="Times,serif" font-size="14.00">Nein</text>
</g>
<!-- 5 -->
<g id="node10" class="node">
<title>5</title>
<path fill="#7aab8a" stroke="black" d="M1799,-953C1799,-953 1066,-953 1066,-953 1060,-953 1054,-947 1054,-941 1054,-941 1054,-929 1054,-929 1054,-923 1060,-917 1066,-917 1066,-917 1799,-917 1799,-917 1805,-917 1811,-923 1811,-929 1811,-929 1811,-941 1811,-941 1811,-947 1805,-953 1799,-953"/>
<text text-anchor="start" x="1068" y="-932.3" font-family="Times,serif" font-weight="bold" font-size="14.00">5: </text>
<text text-anchor="start" x="1088" y="-932.3" font-family="Times,serif" font-size="14.00">Ist der Redispatch-Bilanzkreis des ANB zum Aktivierungsbeginn in der Regelzone des BIKO g&#252;ltig?</text>
</g>
<!-- 4&#45;&gt;5 -->
<g id="edge9" class="edge">
<title>4-&gt;5</title>
<path fill="none" stroke="black" d="M1124.93,-1029.53C1189.82,-1009.8 1295.35,-977.71 1364.35,-956.72"/>
<polygon fill="black" stroke="black" points="1365.1,-960.15 1373.65,-953.9 1363.07,-953.46 1365.1,-960.15"/>
<text text-anchor="middle" x="1279.5" y="-987.8" font-family="Times,serif" font-size="14.00">Ja</text>
</g>
<!-- A05 -->
<g id="node11" class="node">
<title>A05</title>
<polygon fill="#cca9ab" stroke="black" points="1411,-853 1120,-853 1120,-791 1411,-791 1411,-853"/>
<text text-anchor="start" x="1250" y="-836.8" font-family="Times,serif" font-weight="bold" font-size="14.00">A05</text>
<text text-anchor="start" x="1132" y="-824.4" font-family="Times,serif" text-decoration="underline" font-size="12.00">Hinweis:</text>
<text text-anchor="start" x="1132" y="-812.4" font-family="Times,serif" font-size="12.00">Cluster: Ablehnung</text>
<text text-anchor="start" x="1132" y="-800.4" font-family="Times,serif" font-size="12.00">Redispatch-Bilanzkreis des ANB nicht g&#252;ltig</text>
</g>
<!-- 5&#45;&gt;A05 -->
<g id="edge10" class="edge">
<title>5-&gt;A05</title>
<path fill="none" stroke="black" d="M1406.41,-916.66C1383.58,-901.48 1349.65,-878.93 1320.81,-859.76"/>
<polygon fill="black" stroke="black" points="1322.77,-856.86 1312.5,-854.24 1318.9,-862.69 1322.77,-856.86"/>
<text text-anchor="middle" x="1376.5" y="-874.8" font-family="Times,serif" font-size="14.00">Nein</text>
</g>
<!-- 6 -->
<g id="node12" class="node">
<title>6</title>
<path fill="#7aab8a" stroke="black" d="M2318,-840C2318,-840 1441,-840 1441,-840 1435,-840 1429,-834 1429,-828 1429,-828 1429,-816 1429,-816 1429,-810 1435,-804 1441,-804 1441,-804 2318,-804 2318,-804 2324,-804 2330,-810 2330,-816 2330,-816 2330,-828 2330,-828 2330,-834 2324,-840 2318,-840"/>
<text text-anchor="start" x="1443" y="-819.3" font-family="Times,serif" font-weight="bold" font-size="14.00">6: </text>
<text text-anchor="start" x="1463" y="-819.3" font-family="Times,serif" font-size="14.00">Ist der Sender zum Aktivierungsbeginn der verantwortliche NB f&#252;r den angegebenen Redispatch-Bilanzkreis des ANB?</text>
</g>
<!-- 5&#45;&gt;6 -->
<g id="edge11" class="edge">
<title>5-&gt;6</title>
<path fill="none" stroke="black" d="M1502.84,-916.53C1582.95,-896.64 1713.67,-864.18 1798.12,-843.21"/>
<polygon fill="black" stroke="black" points="1798.88,-846.63 1807.74,-840.82 1797.19,-839.83 1798.88,-846.63"/>
<text text-anchor="middle" x="1690.5" y="-874.8" font-family="Times,serif" font-size="14.00">Ja</text>
</g>
<!-- A06 -->
<g id="node13" class="node">
<title>A06</title>
<polygon fill="#cca9ab" stroke="black" points="1755,-740 1612,-740 1612,-678 1755,-678 1755,-740"/>
<text text-anchor="start" x="1668" y="-723.8" font-family="Times,serif" font-weight="bold" font-size="14.00">A06</text>
<text text-anchor="start" x="1624" y="-711.4" font-family="Times,serif" text-decoration="underline" font-size="12.00">Hinweis:</text>
<text text-anchor="start" x="1624" y="-699.4" font-family="Times,serif" font-size="12.00">Cluster: Ablehnung</text>
<text text-anchor="start" x="1624" y="-687.4" font-family="Times,serif" font-size="12.00">Keine Berechtigung</text>
</g>
<!-- 6&#45;&gt;A06 -->
<g id="edge12" class="edge">
<title>6-&gt;A06</title>
<path fill="none" stroke="black" d="M1848.88,-803.66C1821.73,-788.28 1781.22,-765.34 1747.09,-746.01"/>
<polygon fill="black" stroke="black" points="1748.93,-743.03 1738.5,-741.15 1745.48,-749.12 1748.93,-743.03"/>
<text text-anchor="middle" x="1810.5" y="-761.8" font-family="Times,serif" font-size="14.00">Nein</text>
</g>
<!-- 7 -->
<g id="node14" class="node">
<title>7</title>
<path fill="#7aab8a" stroke="black" d="M3040,-727C3040,-727 1785,-727 1785,-727 1779,-727 1773,-721 1773,-715 1773,-715 1773,-703 1773,-703 1773,-697 1779,-691 1785,-691 1785,-691 3040,-691 3040,-691 3046,-691 3052,-697 3052,-703 3052,-703 3052,-715 3052,-715 3052,-721 3046,-727 3040,-727"/>
<text text-anchor="start" x="1787" y="-706.3" font-family="Times,serif" font-weight="bold" font-size="14.00">7: </text>
<text text-anchor="start" x="1807" y="-706.3" font-family="Times,serif" font-size="14.00">Existiert bereits ein abweichendes Tupel aus Bilanzierungsgebiet, Redispatch-Bilanzkreis des ANB, Redispatch-Bilanzkreis des anfNB und ZRT unter der ID des MaBiS-ZP?</text>
</g>
<!-- 6&#45;&gt;7 -->
<g id="edge13" class="edge">
<title>6-&gt;7</title>
<path fill="none" stroke="black" d="M1963.37,-803.53C2059.58,-783.5 2216.99,-750.72 2317.61,-729.76"/>
<polygon fill="black" stroke="black" points="2318.12,-733.23 2327.2,-727.76 2316.7,-726.38 2318.12,-733.23"/>
<text text-anchor="middle" x="2185.5" y="-761.8" font-family="Times,serif" font-size="14.00">Ja</text>
</g>
<!-- A07 -->
<g id="node15" class="node">
<title>A07</title>
<polygon fill="#cca9ab" stroke="black" points="2341,-627 2052,-627 2052,-565 2341,-565 2341,-627"/>
<text text-anchor="start" x="2181" y="-610.8" font-family="Times,serif" font-weight="bold" font-size="14.00">A07</text>
<text text-anchor="start" x="2064" y="-598.4" font-family="Times,serif" text-decoration="underline" font-size="12.00">Hinweis:</text>
<text text-anchor="start" x="2064" y="-586.4" font-family="Times,serif" font-size="12.00">Cluster: Ablehnung</text>
<text text-anchor="start" x="2064" y="-574.4" font-family="Times,serif" font-size="12.00">Abweichender MaBiS-ZP bereits vorhanden</text>
</g>
<!-- 7&#45;&gt;A07 -->
<g id="edge14" class="edge">
<title>7-&gt;A07</title>
<path fill="none" stroke="black" d="M2378.75,-690.66C2348.58,-675.15 2303.43,-651.95 2265.61,-632.52"/>
<polygon fill="black" stroke="black" points="2267.51,-629.55 2257.01,-628.1 2264.31,-635.78 2267.51,-629.55"/>
<text text-anchor="middle" x="2324.5" y="-648.8" font-family="Times,serif" font-size="14.00">Ja</text>
</g>
<!-- 8 -->
<g id="node16" class="node">
<title>8</title>
<path fill="#7aab8a" stroke="black" d="M3680,-614C3680,-614 2371,-614 2371,-614 2365,-614 2359,-608 2359,-602 2359,-602 2359,-590 2359,-590 2359,-584 2365,-578 2371,-578 2371,-578 3680,-578 3680,-578 3686,-578 3692,-584 3692,-590 3692,-590 3692,-602 3692,-602 3692,-608 3686,-614 3680,-614"/>
<text text-anchor="start" x="2373" y="-593.3" font-family="Times,serif" font-weight="bold" font-size="14.00">8: </text>
<text text-anchor="start" x="2393" y="-593.3" font-family="Times,serif" font-size="14.00">Existiert bereits f&#252;r das genannte Tupel aus Bilanzierungsgebiet, Redispatch-Bilanzkreis des ANB, Redispatch-Bilanzkreis des anfNB und ZRT eine abweichende ID des MaBiS-ZP?</text>
</g>
<!-- 7&#45;&gt;8 -->
<g id="edge15" class="edge">
<title>7-&gt;8</title>
<path fill="none" stroke="black" d="M2508.96,-690.53C2620.06,-670.42 2802.12,-637.45 2917.77,-616.51"/>
<polygon fill="black" stroke="black" points="2918.4,-619.95 2927.61,-614.73 2917.15,-613.06 2918.4,-619.95"/>
<text text-anchor="middle" x="2773.5" y="-648.8" font-family="Times,serif" font-size="14.00">Nein</text>
</g>
<!-- A08 -->
<g id="node17" class="node">
<title>A08</title>
<polygon fill="#cca9ab" stroke="black" points="3063.5,-514 2733.5,-514 2733.5,-452 3063.5,-452 3063.5,-514"/>
<text text-anchor="start" x="2883" y="-497.8" font-family="Times,serif" font-weight="bold" font-size="14.00">A08</text>
<text text-anchor="start" x="2745.5" y="-485.4" font-family="Times,serif" text-decoration="underline" font-size="12.00">Hinweis:</text>
<text text-anchor="start" x="2745.5" y="-473.4" font-family="Times,serif" font-size="12.00">Cluster: Ablehnung</text>
<text text-anchor="start" x="2745.5" y="-461.4" font-family="Times,serif" font-size="12.00">Abweichende ID zum MaBiS-ZP bereits vorhanden</text>
</g>
<!-- 8&#45;&gt;A08 -->
<g id="edge16" class="edge">
<title>8-&gt;A08</title>
<path fill="none" stroke="black" d="M3005.66,-577.66C2988.6,-562.75 2963.39,-540.71 2941.71,-521.76"/>
<polygon fill="black" stroke="black" points="2944.26,-519.35 2934.43,-515.4 2939.65,-524.62 2944.26,-519.35"/>
<text text-anchor="middle" x="2977.5" y="-535.8" font-family="Times,serif" font-size="14.00">Ja</text>
</g>
<!-- 9 -->
<g id="node18" class="node">
<title>9</title>
<path fill="#7aab8a" stroke="black" d="M3645,-501C3645,-501 3094,-501 3094,-501 3088,-501 3082,-495 3082,-489 3082,-489 3082,-477 3082,-477 3082,-471 3088,-465 3094,-465 3094,-465 3645,-465 3645,-465 3651,-465 3657,-471 3657,-477 3657,-477 3657,-489 3657,-489 3657,-495 3651,-501 3645,-501"/>
<text text-anchor="start" x="3096" y="-480.3" font-family="Times,serif" font-weight="bold" font-size="14.00">9: </text>
<text text-anchor="start" x="3116" y="-480.3" font-family="Times,serif" font-size="14.00">Ist der Redispatch-Bilanzkreis des anfNB zum Aktivierungsbeginn g&#252;ltig?</text>
</g>
<!-- 8&#45;&gt;9 -->
<g id="edge17" class="edge">
<title>8-&gt;9</title>
<path fill="none" stroke="black" d="M3079.63,-577.53C3140.53,-557.88 3239.42,-525.97 3304.47,-504.98"/>
<polygon fill="black" stroke="black" points="3305.52,-508.32 3313.96,-501.92 3303.37,-501.66 3305.52,-508.32"/>
<text text-anchor="middle" x="3235.5" y="-535.8" font-family="Times,serif" font-size="14.00">Nein</text>
</g>
<!-- A09 -->
<g id="node19" class="node">
<title>A09</title>
<polygon fill="#cca9ab" stroke="black" points="3414,-401 3113,-401 3113,-339 3414,-339 3414,-401"/>
<text text-anchor="start" x="3248" y="-384.8" font-family="Times,serif" font-weight="bold" font-size="14.00">A09</text>
<text text-anchor="start" x="3125" y="-372.4" font-family="Times,serif" text-decoration="underline" font-size="12.00">Hinweis:</text>
<text text-anchor="start" x="3125" y="-360.4" font-family="Times,serif" font-size="12.00">Cluster: Ablehnung</text>
<text text-anchor="start" x="3125" y="-348.4" font-family="Times,serif" font-size="12.00">Redispatch-Bilanzkreis des anfNB nicht g&#252;ltig</text>
</g>
<!-- 9&#45;&gt;A09 -->
<g id="edge18" class="edge">
<title>9-&gt;A09</title>
<path fill="none" stroke="black" d="M3352.94,-464.66C3338.84,-449.89 3318.07,-428.14 3300.09,-409.32"/>
<polygon fill="black" stroke="black" points="3302.81,-407.09 3293.37,-402.28 3297.75,-411.93 3302.81,-407.09"/>
<text text-anchor="middle" x="3340.5" y="-422.8" font-family="Times,serif" font-size="14.00">Nein</text>
</g>
<!-- 10 -->
<g id="node20" class="node">
<title>10</title>
<path fill="#7aab8a" stroke="black" d="M3818.5,-388C3818.5,-388 3444.5,-388 3444.5,-388 3438.5,-388 3432.5,-382 3432.5,-376 3432.5,-376 3432.5,-364 3432.5,-364 3432.5,-358 3438.5,-352 3444.5,-352 3444.5,-352 3818.5,-352 3818.5,-352 3824.5,-352 3830.5,-358 3830.5,-364 3830.5,-364 3830.5,-376 3830.5,-376 3830.5,-382 3824.5,-388 3818.5,-388"/>
<text text-anchor="start" x="3446.5" y="-367.3" font-family="Times,serif" font-weight="bold" font-size="14.00">10: </text>
<text text-anchor="start" x="3476.5" y="-367.3" font-family="Times,serif" font-size="14.00">Ist der NB zur Aktivierung des ZRT berechtigt?</text>
</g>
<!-- 9&#45;&gt;10 -->
<g id="edge19" class="edge">
<title>9-&gt;10</title>
<path fill="none" stroke="black" d="M3410.73,-464.53C3456.51,-445.14 3530.47,-413.8 3580.02,-392.81"/>
<polygon fill="black" stroke="black" points="3581.28,-396.08 3589.12,-388.95 3578.55,-389.63 3581.28,-396.08"/>
<text text-anchor="middle" x="3523.5" y="-422.8" font-family="Times,serif" font-size="14.00">Ja</text>
</g>
<!-- A10 -->
<g id="node21" class="node">
<title>A10</title>
<polygon fill="#cca9ab" stroke="black" points="3652,-288 3429,-288 3429,-226 3652,-226 3652,-288"/>
<text text-anchor="start" x="3525" y="-271.8" font-family="Times,serif" font-weight="bold" font-size="14.00">A10</text>
<text text-anchor="start" x="3441" y="-259.4" font-family="Times,serif" text-decoration="underline" font-size="12.00">Hinweis:</text>
<text text-anchor="start" x="3441" y="-247.4" font-family="Times,serif" font-size="12.00">Cluster: Ablehnung</text>
<text text-anchor="start" x="3441" y="-235.4" font-family="Times,serif" font-size="12.00">ZRT Aktivierung nicht berechtigt</text>
</g>
<!-- 10&#45;&gt;A10 -->
<g id="edge20" class="edge">
<title>10-&gt;A10</title>
<path fill="none" stroke="black" d="M3617.28,-351.66C3605.34,-337.09 3587.82,-315.72 3572.54,-297.08"/>
<polygon fill="black" stroke="black" points="3575.25,-294.87 3566.21,-289.36 3569.84,-299.31 3575.25,-294.87"/>
<text text-anchor="middle" x="3608.5" y="-309.8" font-family="Times,serif" font-size="14.00">Nein</text>
</g>
<!-- 11 -->
<g id="node22" class="node">
<title>11</title>
<path fill="#7aab8a" stroke="black" d="M4014.5,-275C4014.5,-275 3682.5,-275 3682.5,-275 3676.5,-275 3670.5,-269 3670.5,-263 3670.5,-263 3670.5,-251 3670.5,-251 3670.5,-245 3676.5,-239 3682.5,-239 3682.5,-239 4014.5,-239 4014.5,-239 4020.5,-239 4026.5,-245 4026.5,-251 4026.5,-251 4026.5,-263 4026.5,-263 4026.5,-269 4020.5,-275 4014.5,-275"/>
<text text-anchor="start" x="3684.5" y="-254.3" font-family="Times,serif" font-weight="bold" font-size="14.00">11: </text>
<text text-anchor="start" x="3714.5" y="-254.3" font-family="Times,serif" font-size="14.00">Passt die Angabe des Mediums zum ZRT?</text>
</g>
<!-- 10&#45;&gt;11 -->
<g id="edge21" class="edge">
<title>10-&gt;11</title>
<path fill="none" stroke="black" d="M3665.41,-351.66C3702.88,-332.49 3763.36,-301.55 3804.47,-280.52"/>
<polygon fill="black" stroke="black" points="3805.82,-283.76 3813.13,-276.09 3802.63,-277.53 3805.82,-283.76"/>
<text text-anchor="middle" x="3760.5" y="-309.8" font-family="Times,serif" font-size="14.00">Ja</text>
</g>
<!-- A11 -->
<g id="node23" class="node">
<title>A11</title>
<polygon fill="#cca9ab" stroke="black" points="3823.5,-175 3663.5,-175 3663.5,-113 3823.5,-113 3823.5,-175"/>
<text text-anchor="start" x="3728" y="-158.8" font-family="Times,serif" font-weight="bold" font-size="14.00">A11</text>
<text text-anchor="start" x="3675.5" y="-146.4" font-family="Times,serif" text-decoration="underline" font-size="12.00">Hinweis:</text>
<text text-anchor="start" x="3675.5" y="-134.4" font-family="Times,serif" font-size="12.00">Cluster: Ablehnung</text>
<text text-anchor="start" x="3675.5" y="-122.4" font-family="Times,serif" font-size="12.00">Medium nicht passend</text>
</g>
<!-- 11&#45;&gt;A11 -->
<g id="edge22" class="edge">
<title>11-&gt;A11</title>
<path fill="none" stroke="black" d="M3832.09,-238.66C3818.13,-223.89 3797.55,-202.14 3779.75,-183.32"/>
<polygon fill="black" stroke="black" points="3782.51,-181.14 3773.09,-176.28 3777.42,-185.95 3782.51,-181.14"/>
<text text-anchor="middle" x="3819.5" y="-196.8" font-family="Times,serif" font-size="14.00">Nein</text>
</g>
<!-- 12 -->
<g id="node24" class="node">
<title>12</title>
<path fill="#7aab8a" stroke="black" d="M4363.5,-162C4363.5,-162 3853.5,-162 3853.5,-162 3847.5,-162 3841.5,-156 3841.5,-150 3841.5,-150 3841.5,-138 3841.5,-138 3841.5,-132 3847.5,-126 3853.5,-126 3853.5,-126 4363.5,-126 4363.5,-126 4369.5,-126 4375.5,-132 4375.5,-138 4375.5,-138 4375.5,-150 4375.5,-150 4375.5,-156 4369.5,-162 4363.5,-162"/>
<text text-anchor="start" x="3855.5" y="-141.3" font-family="Times,serif" font-weight="bold" font-size="14.00">12: </text>
<text text-anchor="start" x="3885.5" y="-141.3" font-family="Times,serif" font-size="14.00">Ist der MaBiS-ZP zum Zeitpunkt der Aktivierung bereits aktiviert?</text>
</g>
<!-- 11&#45;&gt;12 -->
<g id="edge23" class="edge">
<title>11-&gt;12</title>
<path fill="none" stroke="black" d="M3889.41,-238.53C3934.84,-219.14 4008.25,-187.8 4057.42,-166.81"/>
<polygon fill="black" stroke="black" points="4058.61,-170.1 4066.44,-162.96 4055.86,-163.67 4058.61,-170.1"/>
<text text-anchor="middle" x="4001.5" y="-196.8" font-family="Times,serif" font-size="14.00">Ja</text>
</g>
<!-- A12 -->
<g id="node25" class="node">
<title>A12</title>
<polygon fill="#cca9ab" stroke="black" points="4101.5,-62 3915.5,-62 3915.5,0 4101.5,0 4101.5,-62"/>
<text text-anchor="start" x="3993" y="-45.8" font-family="Times,serif" font-weight="bold" font-size="14.00">A12</text>
<text text-anchor="start" x="3927.5" y="-33.4" font-family="Times,serif" text-decoration="underline" font-size="12.00">Hinweis:</text>
<text text-anchor="start" x="3927.5" y="-21.4" font-family="Times,serif" font-size="12.00">Cluster: Ablehnung</text>
<text text-anchor="start" x="3927.5" y="-9.4" font-family="Times,serif" font-size="12.00">MaBiS-ZP bereits aktiviert</text>
</g>
<!-- 12&#45;&gt;A12 -->
<g id="edge24" class="edge">
<title>12-&gt;A12</title>
<path fill="none" stroke="black" d="M4092.88,-125.66C4079.63,-110.96 4060.15,-89.34 4043.25,-70.57"/>
<polygon fill="black" stroke="black" points="4046,-68.4 4036.71,-63.31 4040.8,-73.08 4046,-68.4"/>
<text text-anchor="middle" x="4071.5" y="-83.8" font-family="Times,serif" font-size="14.00">Ja</text>
</g>
<!-- A13 -->
<g id="node26" class="node">
<title>A13</title>
<polygon fill="#cca9ab" stroke="black" points="4297.5,-62 4119.5,-62 4119.5,0 4297.5,0 4297.5,-62"/>
<text text-anchor="start" x="4193" y="-45.8" font-family="Times,serif" font-weight="bold" font-size="14.00">A13</text>
<text text-anchor="start" x="4131.5" y="-33.4" font-family="Times,serif" text-decoration="underline" font-size="12.00">Hinweis:</text>
<text text-anchor="start" x="4131.5" y="-21.4" font-family="Times,serif" font-size="12.00">Cluster: Zustimmung</text>
<text text-anchor="start" x="4131.5" y="-9.4" font-family="Times,serif" font-size="12.00">Aktivierung durchgef&#252;hrt</text>
</g>
<!-- 12&#45;&gt;A13 -->
<g id="edge25" class="edge">
<title>12-&gt;A13</title>
<path fill="none" stroke="black" d="M4124.12,-125.66C4137.37,-110.96 4156.85,-89.34 4173.75,-70.57"/>
<polygon fill="black" stroke="black" points="4176.2,-73.08 4180.29,-63.31 4171,-68.4 4176.2,-73.08"/>
<text text-anchor="middle" x="4181.5" y="-83.8" font-family="Times,serif" font-size="14.00">Nein</text>
</g>
</g>
</svg>
  </g>
</svg>
