<?xml version="1.0" encoding="UTF-8" standalone="no"?>
<!DOCTYPE svg PUBLIC "-//W3C//DTD SVG 1.1//EN"
 "http://www.w3.org/Graphics/SVG/1.1/DTD/svg11.dtd">
<!-- Generated by graphviz version 7.0.5 (20221223.1930)
 -->
<!-- Title: D Pages: 1 -->
<svg width="997pt" height="425pt"
 viewBox="0.00 0.00 997.00 425.00" xmlns="http://www.w3.org/2000/svg" xmlns:xlink="http://www.w3.org/1999/xlink">
<g id="graph0" class="graph" transform="scale(1 1) rotate(0) translate(4 421)">
<title>D</title>
<polygon fill="white" stroke="none" points="-4,4 -4,-421 993,-421 993,4 -4,4"/>
<text text-anchor="start" x="461" y="-399.6" font-family="Times,serif" font-weight="bold" font-size="18.00">MaBiS</text>
<text text-anchor="start" x="8" y="-369.2" font-family="Times,serif" font-weight="bold" font-size="16.00">7.38.1: AD: Abbestellung der Aggregationsebene der Bilanzkreissummenzeitreihe auf Ebene der Regelzone</text>
<!-- Start -->
<g id="node1" class="node">
<title>Start</title>
<polygon fill="#7a8da1" stroke="black" points="429.25,-319 258.25,-319 258.25,-275 429.25,-275 429.25,-319"/>
<text text-anchor="start" x="315.25" y="-299.8" font-family="Times,serif" font-weight="bold" font-size="14.00">E_0022</text>
<text text-anchor="start" x="272.25" y="-287.4" font-family="Times,serif" font-weight="bold" text-decoration="underline" font-size="12.00">Prüfende Rolle:</text>
<text text-anchor="start" x="378.25" y="-287.4" font-family="Times,serif" font-weight="bold" font-size="12.00"> ÜNB</text>
</g>
<!-- 1 -->
<g id="node2" class="node">
<title>1</title>
<path fill="#7aab8a" stroke="black" d="M539.25,-238C539.25,-238 148.25,-238 148.25,-238 142.25,-238 136.25,-232 136.25,-226 136.25,-226 136.25,-214 136.25,-214 136.25,-208 142.25,-202 148.25,-202 148.25,-202 539.25,-202 539.25,-202 545.25,-202 551.25,-208 551.25,-214 551.25,-214 551.25,-226 551.25,-226 551.25,-232 545.25,-238 539.25,-238"/>
<text text-anchor="start" x="150.25" y="-217.3" font-family="Times,serif" font-weight="bold" font-size="14.00">1: </text>
<text text-anchor="start" x="170.25" y="-217.3" font-family="Times,serif" font-size="14.00">Erfolgt der Eingang der Abbestellung fristgerecht?</text>
</g>
<!-- Start&#45;&gt;1 -->
<g id="edge1" class="edge">
<title>Start&#45;&gt;1</title>
<path fill="none" stroke="black" d="M343.75,-274.71C343.75,-266.82 343.75,-257.75 343.75,-249.33"/>
<polygon fill="black" stroke="black" points="347.25,-249.57 343.75,-239.57 340.25,-249.57 347.25,-249.57"/>
</g>
<!-- A01 -->
<g id="node3" class="node">
<title>A01</title>
<polygon fill="#cca9ab" stroke="black" points="388.25,-151 243.25,-151 243.25,-101 388.25,-101 388.25,-151"/>
<text text-anchor="start" x="300.25" y="-134.8" font-family="Times,serif" font-weight="bold" font-size="14.00">A01</text>
<text text-anchor="start" x="255.25" y="-122.4" font-family="Times,serif" text-decoration="underline" font-size="12.00">Hinweis:</text>
<text text-anchor="start" x="255.25" y="-110.4" font-family="Times,serif" font-size="12.00">Fristüberschreitung</text>
</g>
<!-- 1&#45;&gt;A01 -->
<g id="edge2" class="edge">
<title>1&#45;&gt;A01</title>
<path fill="none" stroke="black" d="M338.48,-201.7C335.09,-190.55 330.56,-175.67 326.44,-162.12"/>
<polygon fill="black" stroke="black" points="329.81,-161.17 323.55,-152.62 323.11,-163.2 329.81,-161.17"/>
<text text-anchor="middle" x="350.75" y="-172.8" font-family="Times,serif" font-size="14.00">Nein</text>
</g>
<!-- 2 -->
<g id="node4" class="node">
<title>2</title>
<path fill="#7aab8a" stroke="black" d="M840.75,-144C840.75,-144 418.75,-144 418.75,-144 412.75,-144 406.75,-138 406.75,-132 406.75,-132 406.75,-120 406.75,-120 406.75,-114 412.75,-108 418.75,-108 418.75,-108 840.75,-108 840.75,-108 846.75,-108 852.75,-114 852.75,-120 852.75,-120 852.75,-132 852.75,-132 852.75,-138 846.75,-144 840.75,-144"/>
<text text-anchor="start" x="420.75" y="-123.3" font-family="Times,serif" font-weight="bold" font-size="14.00">2: </text>
<text text-anchor="start" x="440.75" y="-123.3" font-family="Times,serif" font-size="14.00">Erfolgt die Abbestellung zum Monatsersten 00:00 Uhr?</text>
</g>
<!-- 1&#45;&gt;2 -->
<g id="edge3" class="edge">
<title>1&#45;&gt;2</title>
<path fill="none" stroke="black" d="M397.88,-201.59C445.25,-186.35 514.19,-164.17 564.58,-147.96"/>
<polygon fill="black" stroke="black" points="565.47,-151.36 573.91,-144.96 563.32,-144.69 565.47,-151.36"/>
<text text-anchor="middle" x="502.75" y="-172.8" font-family="Times,serif" font-size="14.00">Ja</text>
</g>
<!-- A02 -->
<g id="node5" class="node">
<title>A02</title>
<polygon fill="#cca9ab" stroke="black" points="663.25,-50 428.25,-50 428.25,0 663.25,0 663.25,-50"/>
<text text-anchor="start" x="530.25" y="-33.8" font-family="Times,serif" font-weight="bold" font-size="14.00">A02</text>
<text text-anchor="start" x="440.25" y="-21.4" font-family="Times,serif" text-decoration="underline" font-size="12.00">Hinweis:</text>
<text text-anchor="start" x="440.25" y="-9.4" font-family="Times,serif" font-size="12.00">Gewählter Zeitpunkt nicht zulässig</text>
</g>
<!-- 2&#45;&gt;A02 -->
<g id="edge4" class="edge">
<title>2&#45;&gt;A02</title>
<path fill="none" stroke="black" d="M615.12,-107.76C603.78,-94.39 587.72,-75.46 573.9,-59.18"/>
<polygon fill="black" stroke="black" points="576.63,-56.98 567.49,-51.62 571.29,-61.51 576.63,-56.98"/>
<text text-anchor="middle" x="610.75" y="-71.8" font-family="Times,serif" font-size="14.00">Nein</text>
</g>
<!-- Ende -->
<g id="node6" class="node">
<title>Ende</title>
<polygon fill="#7a8da1" stroke="black" points="746.25,-43 681.25,-43 681.25,-7 746.25,-7 746.25,-43"/>
<text text-anchor="middle" x="713.75" y="-21.3" font-family="Times,serif" font-size="14.00">Ende</text>
</g>
<!-- 2&#45;&gt;Ende -->
<g id="edge5" class="edge">
<title>2&#45;&gt;Ende</title>
<path fill="none" stroke="black" d="M644.38,-107.76C657.43,-92.38 676.72,-69.64 691.65,-52.04"/>
<polygon fill="black" stroke="black" points="694.22,-54.42 698.02,-44.53 688.89,-49.89 694.22,-54.42"/>
<text text-anchor="middle" x="683.75" y="-71.8" font-family="Times,serif" font-size="14.00">Ja</text>
</g>
</g>
</svg>
