<?xml version='1.0' encoding='ASCII' standalone='yes'?>
<svg xmlns="http://www.w3.org/2000/svg" xmlns:xlink="http://www.w3.org/1999/xlink" version="1.1" width="1481.3333333333333px" viewBox="0 0 1481.3333333333333 1920.0" height="1920.0px">
  <g>
    <svg version="1.1" width="1481.3333333333333px" viewBox="0 0 1481.3333333333333 1920.0" height="1920.0px">
  <rect fill="#e7e6e5" x="0" y="0" width="1481.3333333333333" height="1920.0" rx="20" ry="20"/><g>
    <g transform="translate(148.1333333333333, 378.80094836912747) scale(1 1) translate(0, 0) scale(2.0458992242708836 2.0458992242708836) "><defs>
    <style>.cls-1{fill:#ffffff88;}</style>
    <!--
    ffffff88 is white with 50% transparency; this matches the colour of the tesa strip on
    ebd.hochfrequenz.de where it crosses the diagram SVG:
    https://github.com/Hochfrequenz/entscheidungsbaumdiagramme/blob/01bd43fa0f1d0333fa93596bc8b9fd1e4b285c8c/src/lib/components/features/svg-container.svelte#L54
    -->
  </defs>
  <path class="cls-1" d="M122.44,531.2h-56.1c-11,0-19.9-9.12-19.46-20.11C57.47,243.89,278.15,29.78,547.91,29.78v56.02c0,10.98-8.69,19.89-19.66,20.39-225.51,10.31-405.8,197-405.8,425Z"/>
  <path class="cls-1" d="M273.78,531.2h-55.93c-11.23,0-20.09-9.48-19.43-20.69,10.74-183.44,163.39-329.39,349.48-329.39v56.26c0,10.71-8.27,19.62-18.96,20.35-142.35,9.77-255.17,128.69-255.17,273.46Z"/>
  <path class="cls-1" d="M425.77,531.2h-55.45c-11.65,0-20.6-10.17-19.33-21.75,10.87-99.03,95.03-176.34,196.92-176.34v57.01c0,10.05-7.28,18.75-17.23,20.16-59.22,8.4-104.91,59.42-104.91,120.92Z"/>
</g>
    <svg width="1111pt" height="1440pt" viewBox="0.00 0.00 1110.79 1440.00">
<g id="graph0" class="graph" transform="scale(0.765505 0.765505) rotate(0) translate(18 1863.11)">
<title>D</title>
<text text-anchor="start" x="296.15" y="-1825.01" font-family="Roboto, sans-serif" font-weight="bold" font-size="18.00">MaBiS</text>
<text text-anchor="start" x="296.15" y="-1796.91" font-family="Roboto, sans-serif" font-weight="bold" font-size="16.00">7.14.2: AD: Austausch der Lieferantenclearingliste zwischen NB und LF (Einzelanforderung)</text>
<!-- Start -->
<g id="node1" class="node">
<title>Start</title>
<path fill="#8ba2d7" stroke="black" stroke-width="0" d="M446.8,-1755.11C446.8,-1755.11 313.75,-1755.11 313.75,-1755.11 307.75,-1755.11 301.75,-1749.11 301.75,-1743.11 301.75,-1743.11 301.75,-1721.83 301.75,-1721.83 301.75,-1715.83 307.75,-1709.83 313.75,-1709.83 313.75,-1709.83 446.8,-1709.83 446.8,-1709.83 452.8,-1709.83 458.8,-1715.83 458.8,-1721.83 458.8,-1721.83 458.8,-1743.11 458.8,-1743.11 458.8,-1749.11 452.8,-1755.11 446.8,-1755.11"/>
<text text-anchor="start" x="316.15" y="-1734.17" font-family="Roboto, sans-serif" font-weight="bold" font-size="14.00">E_0047</text>
<text text-anchor="start" x="316.15" y="-1720.17" font-family="Roboto, sans-serif" font-size="14.00">Pr&#252;fende Rolle: </text>
<text text-anchor="start" x="425.65" y="-1720.17" font-family="Roboto, sans-serif" font-weight="bold" font-size="14.00">LF</text>
</g>
<!-- 1 -->
<g id="node2" class="node">
<title>1</title>
<path fill="#c2cee9" stroke="black" stroke-width="0" d="M605.42,-1672.83C605.42,-1672.83 155.12,-1672.83 155.12,-1672.83 149.12,-1672.83 143.12,-1666.83 143.12,-1660.83 143.12,-1660.83 143.12,-1648.83 143.12,-1648.83 143.12,-1642.83 149.12,-1636.83 155.12,-1636.83 155.12,-1636.83 605.42,-1636.83 605.42,-1636.83 611.42,-1636.83 617.42,-1642.83 617.42,-1648.83 617.42,-1648.83 617.42,-1660.83 617.42,-1660.83 617.42,-1666.83 611.42,-1672.83 605.42,-1672.83"/>
<text text-anchor="start" x="157.52" y="-1651.16" font-family="Roboto, sans-serif" font-weight="bold" font-size="14.00">1: </text>
<text text-anchor="start" x="177.02" y="-1651.16" font-family="Roboto, sans-serif" font-size="14.00">Entspricht die G&#252;ltigkeit (Monat) dem angefragten Zeitraum?</text>
</g>
<!-- Start&#45;&gt;1 -->
<g id="edge1" class="edge">
<title>Start-&gt;1</title>
<path fill="none" stroke="#88a0d6" d="M380.27,-1710C380.27,-1701.92 380.27,-1692.62 380.27,-1684.02"/>
<polygon fill="#88a0d6" stroke="#88a0d6" points="383.78,-1684.06 380.28,-1674.06 376.78,-1684.06 383.78,-1684.06"/>
</g>
<!-- A01 -->
<g id="node3" class="node">
<title>A01</title>
<path fill="#c4cac1" stroke="black" stroke-width="0" d="M370.43,-1583.58C370.43,-1583.58 94.12,-1583.58 94.12,-1583.58 88.12,-1583.58 82.12,-1577.58 82.12,-1571.58 82.12,-1571.58 82.12,-1522.3 82.12,-1522.3 82.12,-1516.3 88.12,-1510.3 94.12,-1510.3 94.12,-1510.3 370.43,-1510.3 370.43,-1510.3 376.43,-1510.3 382.43,-1516.3 382.43,-1522.3 382.43,-1522.3 382.43,-1571.58 382.43,-1571.58 382.43,-1577.58 376.43,-1583.58 370.43,-1583.58"/>
<text text-anchor="start" x="96.53" y="-1562.64" font-family="Roboto, sans-serif" font-weight="bold" font-size="14.00">A01</text>
<text text-anchor="start" x="96.53" y="-1534.64" font-family="Roboto, sans-serif" font-size="14.00">Cluster: Ablehnung der gesamten Liste</text>
<text text-anchor="start" x="96.53" y="-1520.64" font-family="Roboto, sans-serif" font-size="14.00">Zeitraum nicht plausibel</text>
</g>
<!-- 1&#45;&gt;A01 -->
<g id="edge2" class="edge">
<title>1-&gt;A01</title>
<path fill="none" stroke="#88a0d6" d="M356.82,-1637.05C339.2,-1624.44 314.25,-1606.59 291.31,-1590.18"/>
<polygon fill="#88a0d6" stroke="#88a0d6" points="293.36,-1587.34 283.19,-1584.37 289.29,-1593.03 293.36,-1587.34"/>
<text text-anchor="start" x="327.27" y="-1606.53" font-family="Roboto, sans-serif" font-weight="bold" font-size="14.00">NEIN</text>
</g>
<!-- 2 -->
<g id="node4" class="node">
<title>2</title>
<path fill="#c2cee9" stroke="black" stroke-width="0" d="M809.8,-1564.94C809.8,-1564.94 412.75,-1564.94 412.75,-1564.94 406.75,-1564.94 400.75,-1558.94 400.75,-1552.94 400.75,-1552.94 400.75,-1540.94 400.75,-1540.94 400.75,-1534.94 406.75,-1528.94 412.75,-1528.94 412.75,-1528.94 809.8,-1528.94 809.8,-1528.94 815.8,-1528.94 821.8,-1534.94 821.8,-1540.94 821.8,-1540.94 821.8,-1552.94 821.8,-1552.94 821.8,-1558.94 815.8,-1564.94 809.8,-1564.94"/>
<text text-anchor="start" x="415.15" y="-1543.27" font-family="Roboto, sans-serif" font-weight="bold" font-size="14.00">2: </text>
<text text-anchor="start" x="434.65" y="-1543.27" font-family="Roboto, sans-serif" font-size="14.00">Entspricht der MaBiS-ZP dem angefragten MaBiS-ZP?</text>
</g>
<!-- 1&#45;&gt;2 -->
<g id="edge3" class="edge">
<title>1-&gt;2</title>
<path fill="none" stroke="#88a0d6" d="M417.13,-1636.93C457.03,-1618.65 520.75,-1589.44 564.23,-1569.5"/>
<polygon fill="#88a0d6" stroke="#88a0d6" points="565.54,-1572.75 573.17,-1565.41 562.62,-1566.39 565.54,-1572.75"/>
<text text-anchor="start" x="488.27" y="-1606.53" font-family="Roboto, sans-serif" font-weight="bold" font-size="14.00">JA</text>
</g>
<!-- A02 -->
<g id="node5" class="node">
<title>A02</title>
<path fill="#c4cac1" stroke="black" stroke-width="0" d="M392.55,-1457.05C392.55,-1457.05 12,-1457.05 12,-1457.05 6,-1457.05 0,-1451.05 0,-1445.05 0,-1445.05 0,-1395.77 0,-1395.77 0,-1389.77 6,-1383.77 12,-1383.77 12,-1383.77 392.55,-1383.77 392.55,-1383.77 398.55,-1383.77 404.55,-1389.77 404.55,-1395.77 404.55,-1395.77 404.55,-1445.05 404.55,-1445.05 404.55,-1451.05 398.55,-1457.05 392.55,-1457.05"/>
<text text-anchor="start" x="14.4" y="-1436.11" font-family="Roboto, sans-serif" font-weight="bold" font-size="14.00">A02</text>
<text text-anchor="start" x="14.4" y="-1408.11" font-family="Roboto, sans-serif" font-size="14.00">Cluster: Ablehnung der gesamten Liste</text>
<text text-anchor="start" x="14.4" y="-1394.11" font-family="Roboto, sans-serif" font-size="14.00">MaBiS-ZP entspricht nicht dem angefragten MaBiS-ZP</text>
</g>
<!-- 2&#45;&gt;A02 -->
<g id="edge4" class="edge">
<title>2-&gt;A02</title>
<path fill="none" stroke="#88a0d6" d="M555.69,-1529.02C497.91,-1511.42 405.48,-1483.28 329.64,-1460.19"/>
<polygon fill="#88a0d6" stroke="#88a0d6" points="331.09,-1456.97 320.5,-1457.41 329.05,-1463.67 331.09,-1456.97"/>
<text text-anchor="start" x="430.27" y="-1480" font-family="Roboto, sans-serif" font-weight="bold" font-size="14.00">NEIN</text>
</g>
<!-- 3 -->
<g id="node6" class="node">
<title>3</title>
<path fill="#c2cee9" stroke="black" stroke-width="0" d="M982.17,-1443.05C982.17,-1443.05 434.38,-1443.05 434.38,-1443.05 428.38,-1443.05 422.38,-1437.05 422.38,-1431.05 422.38,-1431.05 422.38,-1409.77 422.38,-1409.77 422.38,-1403.77 428.38,-1397.77 434.38,-1397.77 434.38,-1397.77 982.17,-1397.77 982.17,-1397.77 988.17,-1397.77 994.17,-1403.77 994.17,-1409.77 994.17,-1409.77 994.17,-1431.05 994.17,-1431.05 994.17,-1437.05 988.17,-1443.05 982.17,-1443.05"/>
<text text-anchor="start" x="436.77" y="-1422.11" font-family="Roboto, sans-serif" font-weight="bold" font-size="14.00">3: </text>
<text text-anchor="start" x="456.27" y="-1422.11" font-family="Roboto, sans-serif" font-size="14.00">Entspricht die Versionsangabe in der LF-CL der Versionsangabe der LF-SZR</text>
<text text-anchor="start" x="436.77" y="-1408.11" font-family="Roboto, sans-serif" font-size="14.00">(Kategorie A), zu der eine LF-CL angefordert wurde?</text>
</g>
<!-- 2&#45;&gt;3 -->
<g id="edge5" class="edge">
<title>2-&gt;3</title>
<path fill="none" stroke="#88a0d6" d="M624.36,-1529.15C639.76,-1509.37 665.66,-1476.12 684.61,-1451.79"/>
<polygon fill="#88a0d6" stroke="#88a0d6" points="687.19,-1454.18 690.57,-1444.14 681.67,-1449.87 687.19,-1454.18"/>
<text text-anchor="start" x="665.27" y="-1480" font-family="Roboto, sans-serif" font-weight="bold" font-size="14.00">JA</text>
</g>
<!-- A03 -->
<g id="node7" class="node">
<title>A03</title>
<path fill="#c4cac1" stroke="black" stroke-width="0" d="M456.67,-1330.52C456.67,-1330.52 175.88,-1330.52 175.88,-1330.52 169.88,-1330.52 163.87,-1324.52 163.87,-1318.52 163.87,-1318.52 163.87,-1269.24 163.87,-1269.24 163.87,-1263.24 169.87,-1257.24 175.87,-1257.24 175.87,-1257.24 456.67,-1257.24 456.67,-1257.24 462.67,-1257.24 468.67,-1263.24 468.67,-1269.24 468.67,-1269.24 468.67,-1318.52 468.67,-1318.52 468.67,-1324.52 462.67,-1330.52 456.67,-1330.52"/>
<text text-anchor="start" x="178.27" y="-1309.58" font-family="Roboto, sans-serif" font-weight="bold" font-size="14.00">A03</text>
<text text-anchor="start" x="178.27" y="-1281.58" font-family="Roboto, sans-serif" font-size="14.00">Cluster: Ablehnung der gesamten Liste </text>
<text text-anchor="start" x="178.27" y="-1267.58" font-family="Roboto, sans-serif" font-size="14.00">Version nicht zugelassen</text>
</g>
<!-- 3&#45;&gt;A03 -->
<g id="edge6" class="edge">
<title>3-&gt;A03</title>
<path fill="none" stroke="#88a0d6" d="M640.44,-1397.86C585.12,-1380.29 505.55,-1355.01 439.08,-1333.89"/>
<polygon fill="#88a0d6" stroke="#88a0d6" points="440.14,-1330.56 429.55,-1330.87 438.03,-1337.23 440.14,-1330.56"/>
<text text-anchor="start" x="535.27" y="-1353.47" font-family="Roboto, sans-serif" font-weight="bold" font-size="14.00">NEIN</text>
</g>
<!-- 4 -->
<g id="node8" class="node">
<title>4</title>
<path fill="#c2cee9" stroke="black" stroke-width="0" d="M948.05,-1311.88C948.05,-1311.88 498.5,-1311.88 498.5,-1311.88 492.5,-1311.88 486.5,-1305.88 486.5,-1299.88 486.5,-1299.88 486.5,-1287.88 486.5,-1287.88 486.5,-1281.88 492.5,-1275.88 498.5,-1275.88 498.5,-1275.88 948.05,-1275.88 948.05,-1275.88 954.05,-1275.88 960.05,-1281.88 960.05,-1287.88 960.05,-1287.88 960.05,-1299.88 960.05,-1299.88 960.05,-1305.88 954.05,-1311.88 948.05,-1311.88"/>
<text text-anchor="start" x="500.9" y="-1290.21" font-family="Roboto, sans-serif" font-weight="bold" font-size="14.00">4: </text>
<text text-anchor="start" x="520.4" y="-1290.21" font-family="Roboto, sans-serif" font-size="14.00">Ist eine erwartete Marktlokation in der LF-CL nicht enthalten?</text>
</g>
<!-- 3&#45;&gt;4 -->
<g id="edge7" class="edge">
<title>3-&gt;4</title>
<path fill="none" stroke="#88a0d6" d="M710.85,-1398C713.35,-1377.25 717.16,-1345.67 719.9,-1322.92"/>
<polygon fill="#88a0d6" stroke="#88a0d6" points="723.36,-1323.48 721.08,-1313.13 716.41,-1322.64 723.36,-1323.48"/>
<text text-anchor="start" x="716.27" y="-1353.47" font-family="Roboto, sans-serif" font-weight="bold" font-size="14.00">JA</text>
</g>
<!-- A04 -->
<g id="node9" class="node">
<title>A04</title>
<path fill="#c4cac1" stroke="black" stroke-width="0" d="M402.93,-1203.99C402.93,-1203.99 33.62,-1203.99 33.62,-1203.99 27.62,-1203.99 21.62,-1197.99 21.62,-1191.99 21.62,-1191.99 21.62,-1142.71 21.62,-1142.71 21.62,-1136.71 27.62,-1130.71 33.62,-1130.71 33.62,-1130.71 402.93,-1130.71 402.93,-1130.71 408.93,-1130.71 414.93,-1136.71 414.93,-1142.71 414.93,-1142.71 414.93,-1191.99 414.93,-1191.99 414.93,-1197.99 408.93,-1203.99 402.93,-1203.99"/>
<text text-anchor="start" x="36.03" y="-1183.05" font-family="Roboto, sans-serif" font-weight="bold" font-size="14.00">A04</text>
<text text-anchor="start" x="36.03" y="-1155.05" font-family="Roboto, sans-serif" font-size="14.00">Cluster: Korrekturliste wegen Ablehnung</text>
<text text-anchor="start" x="36.03" y="-1141.05" font-family="Roboto, sans-serif" font-size="14.00">Zus&#228;tzlicher Datensatz bzw. erg&#228;nzte Markt-lokation</text>
</g>
<!-- 4&#45;&gt;A04 -->
<g id="edge8" class="edge">
<title>4-&gt;A04</title>
<path fill="none" stroke="#88a0d6" d="M654.38,-1275.89C582.53,-1258.17 467.5,-1229.81 373.61,-1206.66"/>
<polygon fill="#88a0d6" stroke="#88a0d6" points="374.58,-1203.29 364.03,-1204.29 372.91,-1210.09 374.58,-1203.29"/>
<text text-anchor="start" x="500.27" y="-1226.94" font-family="Roboto, sans-serif" font-weight="bold" font-size="14.00">JA</text>
</g>
<!-- 5 -->
<g id="node10" class="node">
<title>5</title>
<path fill="#c2cee9" stroke="black" stroke-width="0" d="M1027.42,-1189.99C1027.42,-1189.99 445.12,-1189.99 445.12,-1189.99 439.12,-1189.99 433.12,-1183.99 433.12,-1177.99 433.12,-1177.99 433.12,-1156.71 433.12,-1156.71 433.12,-1150.71 439.12,-1144.71 445.12,-1144.71 445.12,-1144.71 1027.42,-1144.71 1027.42,-1144.71 1033.42,-1144.71 1039.42,-1150.71 1039.42,-1156.71 1039.42,-1156.71 1039.42,-1177.99 1039.42,-1177.99 1039.42,-1183.99 1033.42,-1189.99 1027.42,-1189.99"/>
<text text-anchor="start" x="447.52" y="-1169.05" font-family="Roboto, sans-serif" font-weight="bold" font-size="14.00">5: </text>
<text text-anchor="start" x="467.02" y="-1169.05" font-family="Roboto, sans-serif" font-size="14.00">Ist in der LF-CL eine Marktlokation enthalten, die im Bilanzierungsmonat dem LF</text>
<text text-anchor="start" x="447.52" y="-1155.05" font-family="Roboto, sans-serif" font-size="14.00">zur Bilanzierung nicht zugeordnet ist?</text>
</g>
<!-- 4&#45;&gt;5 -->
<g id="edge9" class="edge">
<title>4-&gt;5</title>
<path fill="none" stroke="#88a0d6" d="M725.03,-1276.09C727.02,-1257 730.32,-1225.39 732.83,-1201.33"/>
<polygon fill="#88a0d6" stroke="#88a0d6" points="736.31,-1201.7 733.87,-1191.39 729.35,-1200.97 736.31,-1201.7"/>
<text text-anchor="start" x="730.27" y="-1226.94" font-family="Roboto, sans-serif" font-weight="bold" font-size="14.00">NEIN</text>
</g>
<!-- A05 -->
<g id="node11" class="node">
<title>A05</title>
<path fill="#c4cac1" stroke="black" stroke-width="0" d="M451.92,-1077.46C451.92,-1077.46 166.62,-1077.46 166.62,-1077.46 160.62,-1077.46 154.62,-1071.46 154.62,-1065.46 154.62,-1065.46 154.62,-1016.18 154.62,-1016.18 154.62,-1010.18 160.62,-1004.18 166.62,-1004.18 166.62,-1004.18 451.92,-1004.18 451.92,-1004.18 457.92,-1004.18 463.92,-1010.18 463.92,-1016.18 463.92,-1016.18 463.92,-1065.46 463.92,-1065.46 463.92,-1071.46 457.92,-1077.46 451.92,-1077.46"/>
<text text-anchor="start" x="169.02" y="-1056.52" font-family="Roboto, sans-serif" font-weight="bold" font-size="14.00">A05</text>
<text text-anchor="start" x="169.02" y="-1028.52" font-family="Roboto, sans-serif" font-size="14.00">Cluster: Korrekturliste wegen Ablehnung</text>
<text text-anchor="start" x="169.02" y="-1014.52" font-family="Roboto, sans-serif" font-size="14.00">Marktlokation falschem LF zugeordnet</text>
</g>
<!-- 5&#45;&gt;A05 -->
<g id="edge10" class="edge">
<title>5-&gt;A05</title>
<path fill="none" stroke="#88a0d6" d="M662.38,-1144.8C601.75,-1127.12 514.37,-1101.63 441.71,-1080.44"/>
<polygon fill="#88a0d6" stroke="#88a0d6" points="443.13,-1077.21 432.55,-1077.77 441.17,-1083.93 443.13,-1077.21"/>
<text text-anchor="start" x="548.27" y="-1100.41" font-family="Roboto, sans-serif" font-weight="bold" font-size="14.00">JA</text>
</g>
<!-- 6 -->
<g id="node12" class="node">
<title>6</title>
<path fill="#c2cee9" stroke="black" stroke-width="0" d="M1022.42,-1058.82C1022.42,-1058.82 494.12,-1058.82 494.12,-1058.82 488.12,-1058.82 482.12,-1052.82 482.12,-1046.82 482.12,-1046.82 482.12,-1034.82 482.12,-1034.82 482.12,-1028.82 488.12,-1022.82 494.12,-1022.82 494.12,-1022.82 1022.42,-1022.82 1022.42,-1022.82 1028.42,-1022.82 1034.42,-1028.82 1034.42,-1034.82 1034.42,-1034.82 1034.42,-1046.82 1034.42,-1046.82 1034.42,-1052.82 1028.42,-1058.82 1022.42,-1058.82"/>
<text text-anchor="start" x="496.52" y="-1037.14" font-family="Roboto, sans-serif" font-weight="bold" font-size="14.00">6: </text>
<text text-anchor="start" x="516.02" y="-1037.14" font-family="Roboto, sans-serif" font-size="14.00">Ist die in der LF-CL enthaltene Marktlokation dem MaBiS-ZP zugeordnet?</text>
</g>
<!-- 5&#45;&gt;6 -->
<g id="edge11" class="edge">
<title>5-&gt;6</title>
<path fill="none" stroke="#88a0d6" d="M740.06,-1144.94C743.72,-1124.19 749.3,-1092.61 753.32,-1069.86"/>
<polygon fill="#88a0d6" stroke="#88a0d6" points="756.76,-1070.51 755.05,-1060.06 749.87,-1069.3 756.76,-1070.51"/>
<text text-anchor="start" x="748.27" y="-1100.41" font-family="Roboto, sans-serif" font-weight="bold" font-size="14.00">NEIN</text>
</g>
<!-- A06 -->
<g id="node13" class="node">
<title>A06</title>
<path fill="#c4cac1" stroke="black" stroke-width="0" d="M445.8,-950.93C445.8,-950.93 18.75,-950.93 18.75,-950.93 12.75,-950.93 6.75,-944.93 6.75,-938.93 6.75,-938.93 6.75,-889.65 6.75,-889.65 6.75,-883.65 12.75,-877.65 18.75,-877.65 18.75,-877.65 445.8,-877.65 445.8,-877.65 451.8,-877.65 457.8,-883.65 457.8,-889.65 457.8,-889.65 457.8,-938.93 457.8,-938.93 457.8,-944.93 451.8,-950.93 445.8,-950.93"/>
<text text-anchor="start" x="21.15" y="-929.99" font-family="Roboto, sans-serif" font-weight="bold" font-size="14.00">A06</text>
<text text-anchor="start" x="21.15" y="-901.99" font-family="Roboto, sans-serif" font-size="14.00">Cluster: Korrekturliste wegen Ablehnung</text>
<text text-anchor="start" x="21.15" y="-887.99" font-family="Roboto, sans-serif" font-size="14.00">Zu viele Marktlokationen enthalten / entfallene Marktlokation</text>
</g>
<!-- 6&#45;&gt;A06 -->
<g id="edge12" class="edge">
<title>6-&gt;A06</title>
<path fill="none" stroke="#88a0d6" d="M686.51,-1022.83C611.52,-1005.08 491.37,-976.63 393.48,-953.45"/>
<polygon fill="#88a0d6" stroke="#88a0d6" points="394.58,-950.12 384.04,-951.22 392.96,-956.93 394.58,-950.12"/>
<text text-anchor="start" x="526.27" y="-973.88" font-family="Roboto, sans-serif" font-weight="bold" font-size="14.00">NEIN</text>
</g>
<!-- 7 -->
<g id="node14" class="node">
<title>7</title>
<path fill="#c2cee9" stroke="black" stroke-width="0" d="M1050.67,-936.93C1050.67,-936.93 487.88,-936.93 487.88,-936.93 481.88,-936.93 475.88,-930.93 475.88,-924.93 475.88,-924.93 475.88,-903.65 475.88,-903.65 475.88,-897.65 481.88,-891.65 487.88,-891.65 487.88,-891.65 1050.67,-891.65 1050.67,-891.65 1056.67,-891.65 1062.67,-897.65 1062.67,-903.65 1062.67,-903.65 1062.67,-924.93 1062.67,-924.93 1062.67,-930.93 1056.67,-936.93 1050.67,-936.93"/>
<text text-anchor="start" x="490.27" y="-915.99" font-family="Roboto, sans-serif" font-weight="bold" font-size="14.00">7: </text>
<text text-anchor="start" x="509.77" y="-915.99" font-family="Roboto, sans-serif" font-size="14.00">Entspricht das Bilanzierungsgebiet dem zwischen NB und LF ausgetauschten</text>
<text text-anchor="start" x="490.27" y="-901.99" font-family="Roboto, sans-serif" font-size="14.00">Bilanzierungsgebiet?</text>
</g>
<!-- 6&#45;&gt;7 -->
<g id="edge13" class="edge">
<title>6-&gt;7</title>
<path fill="none" stroke="#88a0d6" d="M759.76,-1023.03C761.44,-1003.94 764.24,-972.33 766.36,-948.27"/>
<polygon fill="#88a0d6" stroke="#88a0d6" points="769.85,-948.6 767.24,-938.33 762.87,-947.98 769.85,-948.6"/>
<text text-anchor="start" x="764.27" y="-973.88" font-family="Roboto, sans-serif" font-weight="bold" font-size="14.00">JA</text>
</g>
<!-- A07 -->
<g id="node15" class="node">
<title>A07</title>
<path fill="#c4cac1" stroke="black" stroke-width="0" d="M1032.92,-73.28C1032.92,-73.28 717.62,-73.28 717.62,-73.28 711.62,-73.28 705.62,-67.28 705.62,-61.28 705.62,-61.28 705.62,-12 705.62,-12 705.62,-6 711.62,0 717.62,0 717.62,0 1032.92,0 1032.92,0 1038.92,0 1044.92,-6 1044.92,-12 1044.92,-12 1044.92,-61.28 1044.92,-61.28 1044.92,-67.28 1038.92,-73.28 1032.92,-73.28"/>
<text text-anchor="start" x="720.02" y="-52.34" font-family="Roboto, sans-serif" font-weight="bold" font-size="14.00">A07</text>
<text text-anchor="start" x="720.02" y="-24.34" font-family="Roboto, sans-serif" font-size="14.00">Cluster: Korrekturliste wegen Ablehnung</text>
<text text-anchor="start" x="720.02" y="-10.34" font-family="Roboto, sans-serif" font-size="14.00">Bilanzierungsrel. Daten nicht korrekt / fehlen</text>
</g>
<!-- 7&#45;&gt;A07 -->
<g id="edge14" class="edge">
<title>7-&gt;A07</title>
<path fill="none" stroke="#88a0d6" d="M622.42,-891.66C537.1,-874.8 446.27,-847.45 446.27,-807.4 446.27,-807.4 446.27,-807.4 446.27,-533.01 446.27,-507.72 441.51,-500.74 447.27,-476.12 457.67,-431.77 468.96,-422.09 498.27,-387.21"/>
<path fill="none" stroke="#88a0d6" d="M498.27,-385.21C517.06,-359.85 531.23,-362.33 551.27,-337.95"/>
<path fill="none" stroke="#88a0d6" d="M551.27,-335.95C570.69,-312.33 581.58,-312.08 601.27,-288.69"/>
<path fill="none" stroke="#88a0d6" d="M601.27,-286.69C622.91,-260.98 638.32,-264.86 660.27,-239.42"/>
<path fill="none" stroke="#88a0d6" d="M660.27,-237.42C680.25,-214.27 691.55,-214.33 710.27,-190.16"/>
<path fill="none" stroke="#88a0d6" d="M710.27,-188.16C726.95,-166.63 737.32,-166.83 754.27,-145.53"/>
<path fill="none" stroke="#88a0d6" d="M754.27,-143.53C771.63,-121.72 782.53,-122.39 800.27,-100.91"/>
<path fill="none" stroke="#88a0d6" d="M800.27,-98.91C805.62,-92.43 811.73,-86.16 818.11,-80.24"/>
<polygon fill="#88a0d6" stroke="#88a0d6" points="820.02,-83.23 825.16,-73.97 815.36,-78 820.02,-83.23"/>
<text text-anchor="start" x="447.27" y="-481.07" font-family="Roboto, sans-serif" font-weight="bold" font-size="14.00">NEIN</text>
</g>
<!-- 8 -->
<g id="node16" class="node">
<title>8</title>
<path fill="#c2cee9" stroke="black" stroke-width="0" d="M1071.92,-824.4C1071.92,-824.4 486.62,-824.4 486.62,-824.4 480.62,-824.4 474.62,-818.4 474.62,-812.4 474.62,-812.4 474.62,-800.4 474.62,-800.4 474.62,-794.4 480.62,-788.4 486.62,-788.4 486.62,-788.4 1071.92,-788.4 1071.92,-788.4 1077.92,-788.4 1083.92,-794.4 1083.92,-800.4 1083.92,-800.4 1083.92,-812.4 1083.92,-812.4 1083.92,-818.4 1077.92,-824.4 1071.92,-824.4"/>
<text text-anchor="start" x="489.02" y="-802.73" font-family="Roboto, sans-serif" font-weight="bold" font-size="14.00">8: </text>
<text text-anchor="start" x="508.52" y="-802.73" font-family="Roboto, sans-serif" font-size="14.00">Entspricht der Bilanzkreis dem zwischen NB und LF ausgetauschten Bilanzkreis?</text>
</g>
<!-- 7&#45;&gt;8 -->
<g id="edge15" class="edge">
<title>7-&gt;8</title>
<path fill="none" stroke="#88a0d6" d="M771.3,-891.86C772.83,-875.66 774.94,-853.26 776.61,-835.6"/>
<polygon fill="#88a0d6" stroke="#88a0d6" points="780.08,-836.06 777.54,-825.78 773.11,-835.4 780.08,-836.06"/>
<text text-anchor="start" x="775.27" y="-847.35" font-family="Roboto, sans-serif" font-weight="bold" font-size="14.00">JA</text>
</g>
<!-- 8&#45;&gt;A07 -->
<g id="edge16" class="edge">
<title>8-&gt;A07</title>
<path fill="none" stroke="#88a0d6" d="M652.02,-788.46C578.44,-774.96 500.27,-752.53 500.27,-718.15 500.27,-718.15 500.27,-718.15 500.27,-533.01 500.27,-468.21 459.28,-438.97 498.27,-387.21"/>
<text text-anchor="start" x="484.27" y="-431.8" font-family="Roboto, sans-serif" font-weight="bold" font-size="14.00">NEIN</text>
</g>
<!-- 9 -->
<g id="node17" class="node">
<title>9</title>
<path fill="#c2cee9" stroke="black" stroke-width="0" d="M995.42,-735.15C995.42,-735.15 563.12,-735.15 563.12,-735.15 557.12,-735.15 551.12,-729.15 551.12,-723.15 551.12,-723.15 551.12,-711.15 551.12,-711.15 551.12,-705.15 557.12,-699.15 563.12,-699.15 563.12,-699.15 995.42,-699.15 995.42,-699.15 1001.42,-699.15 1007.42,-705.15 1007.42,-711.15 1007.42,-711.15 1007.42,-723.15 1007.42,-723.15 1007.42,-729.15 1001.42,-735.15 995.42,-735.15"/>
<text text-anchor="start" x="565.52" y="-713.48" font-family="Roboto, sans-serif" font-weight="bold" font-size="14.00">9: </text>
<text text-anchor="start" x="585.02" y="-713.48" font-family="Roboto, sans-serif" font-size="14.00">Entspricht der Bilanzierungsbeginn der Erwartung des LF?</text>
</g>
<!-- 8&#45;&gt;9 -->
<g id="edge17" class="edge">
<title>8-&gt;9</title>
<path fill="none" stroke="#88a0d6" d="M779.27,-788.58C779.27,-776.63 779.27,-760.3 779.27,-746.37"/>
<polygon fill="#88a0d6" stroke="#88a0d6" points="782.78,-746.43 779.28,-736.43 775.78,-746.43 782.78,-746.43"/>
<text text-anchor="start" x="779.27" y="-758.1" font-family="Roboto, sans-serif" font-weight="bold" font-size="14.00">JA</text>
</g>
<!-- 9&#45;&gt;A07 -->
<g id="edge18" class="edge">
<title>9-&gt;A07</title>
<path fill="none" stroke="#88a0d6" d="M626.03,-699.22C591.72,-686.51 565.27,-665.01 565.27,-628.9 565.27,-628.9 565.27,-628.9 565.27,-483.74 565.27,-418.65 512.24,-390.04 551.27,-337.95"/>
<text text-anchor="start" x="539.27" y="-382.54" font-family="Roboto, sans-serif" font-weight="bold" font-size="14.00">NEIN</text>
</g>
<!-- 10 -->
<g id="node18" class="node">
<title>10</title>
<path fill="#c2cee9" stroke="black" stroke-width="0" d="M1035.3,-645.9C1035.3,-645.9 605.25,-645.9 605.25,-645.9 599.25,-645.9 593.25,-639.9 593.25,-633.9 593.25,-633.9 593.25,-621.9 593.25,-621.9 593.25,-615.9 599.25,-609.9 605.25,-609.9 605.25,-609.9 1035.3,-609.9 1035.3,-609.9 1041.3,-609.9 1047.3,-615.9 1047.3,-621.9 1047.3,-621.9 1047.3,-633.9 1047.3,-633.9 1047.3,-639.9 1041.3,-645.9 1035.3,-645.9"/>
<text text-anchor="start" x="607.65" y="-624.23" font-family="Roboto, sans-serif" font-weight="bold" font-size="14.00">10: </text>
<text text-anchor="start" x="636.9" y="-624.23" font-family="Roboto, sans-serif" font-size="14.00">Entspricht das Bilanzierungsende der Erwartung des LF?</text>
</g>
<!-- 9&#45;&gt;10 -->
<g id="edge19" class="edge">
<title>9-&gt;10</title>
<path fill="none" stroke="#88a0d6" d="M787.18,-699.33C792.97,-687.02 800.94,-670.05 807.61,-655.86"/>
<polygon fill="#88a0d6" stroke="#88a0d6" points="810.67,-657.58 811.75,-647.04 804.33,-654.6 810.67,-657.58"/>
<text text-anchor="start" x="803.27" y="-668.85" font-family="Roboto, sans-serif" font-weight="bold" font-size="14.00">JA</text>
</g>
<!-- 10&#45;&gt;A07 -->
<g id="edge20" class="edge">
<title>10-&gt;A07</title>
<path fill="none" stroke="#88a0d6" d="M708.61,-609.95C676.77,-599.66 645.11,-583.15 624.27,-556.65 605.8,-533.16 582.66,-312.06 601.27,-288.69"/>
<text text-anchor="start" x="594.27" y="-333.27" font-family="Roboto, sans-serif" font-weight="bold" font-size="14.00">NEIN</text>
</g>
<!-- 11 -->
<g id="node19" class="node">
<title>11</title>
<path fill="#c2cee9" stroke="black" stroke-width="0" d="M1186.8,-556.65C1186.8,-556.65 645.75,-556.65 645.75,-556.65 639.75,-556.65 633.75,-550.65 633.75,-544.65 633.75,-544.65 633.75,-523.37 633.75,-523.37 633.75,-517.37 639.75,-511.37 645.75,-511.37 645.75,-511.37 1186.8,-511.37 1186.8,-511.37 1192.8,-511.37 1198.8,-517.37 1198.8,-523.37 1198.8,-523.37 1198.8,-544.65 1198.8,-544.65 1198.8,-550.65 1192.8,-556.65 1186.8,-556.65"/>
<text text-anchor="start" x="648.15" y="-535.71" font-family="Roboto, sans-serif" font-weight="bold" font-size="14.00">11: </text>
<text text-anchor="start" x="677.4" y="-535.71" font-family="Roboto, sans-serif" font-size="14.00">Entspricht das normierte Profil dem zwischen NB und LF ausgetauschten</text>
<text text-anchor="start" x="648.15" y="-521.71" font-family="Roboto, sans-serif" font-size="14.00">normierten Profil?</text>
</g>
<!-- 10&#45;&gt;11 -->
<g id="edge21" class="edge">
<title>10-&gt;11</title>
<path fill="none" stroke="#88a0d6" d="M837.88,-610.05C851.25,-597.25 869.96,-579.34 885.75,-564.23"/>
<polygon fill="#88a0d6" stroke="#88a0d6" points="887.8,-567.11 892.6,-557.67 882.96,-562.06 887.8,-567.11"/>
<text text-anchor="start" x="873.27" y="-579.6" font-family="Roboto, sans-serif" font-weight="bold" font-size="14.00">JA</text>
</g>
<!-- 11&#45;&gt;A07 -->
<g id="edge22" class="edge">
<title>11-&gt;A07</title>
<path fill="none" stroke="#88a0d6" d="M771.32,-511.47C739.63,-500.33 709.09,-483.5 687.27,-458.12 655.35,-420.98 630.01,-277.92 660.27,-239.42"/>
<text text-anchor="start" x="647.27" y="-284.01" font-family="Roboto, sans-serif" font-weight="bold" font-size="14.00">NEIN</text>
</g>
<!-- 12 -->
<g id="node20" class="node">
<title>12</title>
<path fill="#c2cee9" stroke="black" stroke-width="0" d="M1317.92,-458.12C1317.92,-458.12 708.62,-458.12 708.62,-458.12 702.62,-458.12 696.62,-452.12 696.62,-446.12 696.62,-446.12 696.62,-424.84 696.62,-424.84 696.62,-418.84 702.62,-412.84 708.62,-412.84 708.62,-412.84 1317.92,-412.84 1317.92,-412.84 1323.92,-412.84 1329.92,-418.84 1329.92,-424.84 1329.92,-424.84 1329.92,-446.12 1329.92,-446.12 1329.92,-452.12 1323.92,-458.12 1317.92,-458.12"/>
<text text-anchor="start" x="711.02" y="-437.18" font-family="Roboto, sans-serif" font-weight="bold" font-size="14.00">12: </text>
<text text-anchor="start" x="740.27" y="-437.18" font-family="Roboto, sans-serif" font-size="14.00">Entspricht die Versionsangabe des Profils der zwischen NB und LF ausgetauschten</text>
<text text-anchor="start" x="711.02" y="-423.18" font-family="Roboto, sans-serif" font-size="14.00">Version des Profils?</text>
</g>
<!-- 11&#45;&gt;12 -->
<g id="edge23" class="edge">
<title>11-&gt;12</title>
<path fill="none" stroke="#88a0d6" d="M937.8,-511.59C951.37,-498.09 969.05,-480.49 983.9,-465.71"/>
<polygon fill="#88a0d6" stroke="#88a0d6" points="986.12,-468.45 990.73,-458.91 981.18,-463.48 986.12,-468.45"/>
<text text-anchor="start" x="970.27" y="-481.07" font-family="Roboto, sans-serif" font-weight="bold" font-size="14.00">JA</text>
</g>
<!-- 12&#45;&gt;A07 -->
<g id="edge24" class="edge">
<title>12-&gt;A07</title>
<path fill="none" stroke="#88a0d6" d="M882.04,-412.85C819.91,-400.01 754.65,-381.88 733.27,-359.59 706.97,-332.17 688.07,-220.99 710.27,-190.16"/>
<text text-anchor="start" x="701.27" y="-234.75" font-family="Roboto, sans-serif" font-weight="bold" font-size="14.00">NEIN</text>
</g>
<!-- 13 -->
<g id="node21" class="node">
<title>13</title>
<path fill="#c2cee9" stroke="black" stroke-width="0" d="M1342.43,-359.59C1342.43,-359.59 754.13,-359.59 754.13,-359.59 748.13,-359.59 742.13,-353.59 742.13,-347.59 742.13,-347.59 742.13,-326.31 742.13,-326.31 742.13,-320.31 748.13,-314.31 754.13,-314.31 754.13,-314.31 1342.43,-314.31 1342.43,-314.31 1348.43,-314.31 1354.43,-320.31 1354.43,-326.31 1354.43,-326.31 1354.43,-347.59 1354.43,-347.59 1354.43,-353.59 1348.43,-359.59 1342.43,-359.59"/>
<text text-anchor="start" x="756.53" y="-338.65" font-family="Roboto, sans-serif" font-weight="bold" font-size="14.00">13: </text>
<text text-anchor="start" x="785.78" y="-338.65" font-family="Roboto, sans-serif" font-size="14.00">Entspricht die veranschlagte Prognosemenge (JVP, spezifische Arbeit, usw.) der</text>
<text text-anchor="start" x="756.53" y="-324.65" font-family="Roboto, sans-serif" font-size="14.00">zwischen NB und LF ausgetauschten Prognosemenge?</text>
</g>
<!-- 12&#45;&gt;13 -->
<g id="edge25" class="edge">
<title>12-&gt;13</title>
<path fill="none" stroke="#88a0d6" d="M1021.04,-413.06C1025.62,-400.43 1031.5,-384.22 1036.62,-370.09"/>
<polygon fill="#88a0d6" stroke="#88a0d6" points="1039.89,-371.33 1040.01,-360.74 1033.31,-368.94 1039.89,-371.33"/>
<text text-anchor="start" x="1032.28" y="-382.54" font-family="Roboto, sans-serif" font-weight="bold" font-size="14.00">JA</text>
</g>
<!-- 13&#45;&gt;A07 -->
<g id="edge26" class="edge">
<title>13-&gt;A07</title>
<path fill="none" stroke="#88a0d6" d="M893.72,-314.34C858.3,-303.21 823.19,-286.41 796.27,-261.06 756.5,-223.6 722.12,-189.7 754.27,-145.53"/>
<text text-anchor="start" x="744.27" y="-185.48" font-family="Roboto, sans-serif" font-weight="bold" font-size="14.00">NEIN</text>
</g>
<!-- 14 -->
<g id="node22" class="node">
<title>14</title>
<path fill="#c2cee9" stroke="black" stroke-width="0" d="M1401.18,-261.06C1401.18,-261.06 817.38,-261.06 817.38,-261.06 811.38,-261.06 805.38,-255.06 805.38,-249.06 805.38,-249.06 805.38,-227.78 805.38,-227.78 805.38,-221.78 811.38,-215.78 817.38,-215.78 817.38,-215.78 1401.18,-215.78 1401.18,-215.78 1407.18,-215.78 1413.18,-221.78 1413.18,-227.78 1413.18,-227.78 1413.18,-249.06 1413.18,-249.06 1413.18,-255.06 1407.18,-261.06 1401.18,-261.06"/>
<text text-anchor="start" x="819.78" y="-240.12" font-family="Roboto, sans-serif" font-weight="bold" font-size="14.00">14: </text>
<text text-anchor="start" x="849.03" y="-240.12" font-family="Roboto, sans-serif" font-size="14.00">Entspricht die tats&#228;chlich bilanzierte Menge der erwarteten bilanzierten Menge</text>
<text text-anchor="start" x="819.78" y="-226.12" font-family="Roboto, sans-serif" font-size="14.00">(monatlich gemessene Menge auf Basis der Summe der 1/4-h-Werten)?</text>
</g>
<!-- 13&#45;&gt;14 -->
<g id="edge27" class="edge">
<title>13-&gt;14</title>
<path fill="none" stroke="#88a0d6" d="M1061.81,-314.53C1070.03,-301.53 1080.65,-284.72 1089.76,-270.31"/>
<polygon fill="#88a0d6" stroke="#88a0d6" points="1092.58,-272.39 1094.97,-262.06 1086.67,-268.65 1092.58,-272.39"/>
<text text-anchor="start" x="1082.28" y="-284.01" font-family="Roboto, sans-serif" font-weight="bold" font-size="14.00">JA</text>
</g>
<!-- 14&#45;&gt;A07 -->
<g id="edge28" class="edge">
<title>14-&gt;A07</title>
<path fill="none" stroke="#88a0d6" d="M932.25,-215.83C838.25,-196.88 751.29,-162.36 800.27,-100.91"/>
<text text-anchor="start" x="796.27" y="-140.85" font-family="Roboto, sans-serif" font-weight="bold" font-size="14.00">NEIN</text>
</g>
<!-- 15 -->
<g id="node23" class="node">
<title>15</title>
<path fill="#c2cee9" stroke="black" stroke-width="0" d="M1403.05,-162.53C1403.05,-162.53 869.5,-162.53 869.5,-162.53 863.5,-162.53 857.5,-156.53 857.5,-150.53 857.5,-150.53 857.5,-138.53 857.5,-138.53 857.5,-132.53 863.5,-126.53 869.5,-126.53 869.5,-126.53 1403.05,-126.53 1403.05,-126.53 1409.05,-126.53 1415.05,-132.53 1415.05,-138.53 1415.05,-138.53 1415.05,-150.53 1415.05,-150.53 1415.05,-156.53 1409.05,-162.53 1403.05,-162.53"/>
<text text-anchor="start" x="871.9" y="-140.85" font-family="Roboto, sans-serif" font-weight="bold" font-size="14.00">15: </text>
<text text-anchor="start" x="901.15" y="-140.85" font-family="Roboto, sans-serif" font-size="14.00">Entspricht der Zeitreihentyp dem zwischen NB und LF ausgetauschten?</text>
</g>
<!-- 14&#45;&gt;15 -->
<g id="edge29" class="edge">
<title>14-&gt;15</title>
<path fill="none" stroke="#88a0d6" d="M1115.54,-216.11C1119.29,-203.35 1124.09,-187 1128.13,-173.24"/>
<polygon fill="#88a0d6" stroke="#88a0d6" points="1131.42,-174.47 1130.88,-163.89 1124.7,-172.5 1131.42,-174.47"/>
<text text-anchor="start" x="1125.28" y="-185.48" font-family="Roboto, sans-serif" font-weight="bold" font-size="14.00">JA</text>
</g>
<!-- 15&#45;&gt;A07 -->
<g id="edge30" class="edge">
<title>15-&gt;A07</title>
<path fill="none" stroke="#88a0d6" d="M1094.63,-126.63C1062.06,-113.42 1015.42,-94.5 973.52,-77.5"/>
<polygon fill="#88a0d6" stroke="#88a0d6" points="974.96,-74.31 964.38,-73.79 972.33,-80.79 974.96,-74.31"/>
<text text-anchor="start" x="1044.28" y="-96.23" font-family="Roboto, sans-serif" font-weight="bold" font-size="14.00">NEIN</text>
</g>
<!-- Ende -->
<g id="node24" class="node">
<title>Ende</title>
<path fill="#8ba2d7" stroke="black" stroke-width="0" d="M1156.3,-54.64C1156.3,-54.64 1116.25,-54.64 1116.25,-54.64 1110.25,-54.64 1104.25,-48.64 1104.25,-42.64 1104.25,-42.64 1104.25,-30.64 1104.25,-30.64 1104.25,-24.64 1110.25,-18.64 1116.25,-18.64 1116.25,-18.64 1156.3,-18.64 1156.3,-18.64 1162.3,-18.64 1168.3,-24.64 1168.3,-30.64 1168.3,-30.64 1168.3,-42.64 1168.3,-42.64 1168.3,-48.64 1162.3,-54.64 1156.3,-54.64"/>
<text text-anchor="middle" x="1136.28" y="-31.96" font-family="Roboto, sans-serif" font-size="14.00">Ende</text>
</g>
<!-- 15&#45;&gt;Ende -->
<g id="edge31" class="edge">
<title>15-&gt;Ende</title>
<path fill="none" stroke="#88a0d6" d="M1136.28,-126.98C1136.28,-110.61 1136.28,-85.22 1136.28,-65.69"/>
<polygon fill="#88a0d6" stroke="#88a0d6" points="1139.78,-65.93 1136.28,-55.93 1132.78,-65.93 1139.78,-65.93"/>
<text text-anchor="start" x="1136.28" y="-96.23" font-family="Roboto, sans-serif" font-weight="bold" font-size="14.00">JA</text>
</g>
</g>
</svg>
  </g>
</svg>
  </g>
</svg>
