<?xml version='1.0' encoding='ASCII' standalone='yes'?>
<svg xmlns="http://www.w3.org/2000/svg" xmlns:xlink="http://www.w3.org/1999/xlink" version="1.1" width="1513.3333333333333px" viewBox="0 0 1513.3333333333333 432.0" height="432.0px">
  <g>
    <g transform="translate(583.9948437505948, 43.19999999999999) scale(1 1) translate(0, 0) scale(1.9537700469187476 1.9537700469187476) "><sodipodi:namedview xmlns:sodipodi="http://sodipodi.sourceforge.net/DTD/sodipodi-0.dtd" xmlns:inkscape="http://www.inkscape.org/namespaces/inkscape" id="namedview7" pagecolor="#ffffff" bordercolor="#999999" borderopacity="1" inkscape:pageshadow="0" inkscape:pageopacity="0" inkscape:pagecheckerboard="0" inkscape:document-units="mm" showgrid="false" fit-margin-top="0" fit-margin-left="0" fit-margin-right="0" fit-margin-bottom="0" inkscape:zoom="0.64052329" inkscape:cx="130.36216" inkscape:cy="412.163" inkscape:window-width="1512" inkscape:window-height="916" inkscape:window-x="3840" inkscape:window-y="136" inkscape:window-maximized="0" inkscape:current-layer="layer1"/>
  <defs id="defs2">
    <clipPath clipPathUnits="userSpaceOnUse" id="clipPath23">
      <path d="M 0,568.156 H 579.236 V 0 H 0 Z" id="path21"/>
    </clipPath>
  </defs>
  <g xmlns:inkscape="http://www.inkscape.org/namespaces/inkscape" inkscape:label="Layer 1" inkscape:groupmode="layer" id="layer1" transform="translate(-16.541937,-55.305267)">
    <g id="g19" clip-path="url(#clipPath23)" transform="matrix(0.35277777,0,0,-0.35277777,0.01017023,243.73675)" style="opacity:0.2">
      <g id="g25" transform="translate(122.444,32.7195)">
        <path d="m 0,0 h -56.104 c -11,0 -19.898,9.123 -19.463,20.115 10.594,267.191 231.277,481.302 501.029,481.302 v -56.02 c 0,-10.98 -8.688,-19.892 -19.658,-20.393 C 180.29,414.697 0,228.005 0,0" style="fill:#6ead83;fill-opacity:1;fill-rule:nonzero;stroke:none" id="path27"/>
      </g>
      <g id="g29" transform="translate(273.7828,32.7195)">
        <path d="m 0,0 h -55.926 c -11.228,0 -20.091,9.482 -19.435,20.69 10.744,183.439 163.389,329.388 349.485,329.388 v -56.263 c 0,-10.709 -8.273,-19.617 -18.957,-20.35 C 112.819,263.696 0,144.774 0,0" style="fill:#6ead83;fill-opacity:1;fill-rule:nonzero;stroke:none" id="path31"/>
      </g>
      <g id="g33" transform="translate(425.7667,32.7195)">
        <path d="m 0,0 h -55.445 c -11.653,0 -20.604,10.17 -19.334,21.753 10.866,99.032 95.031,176.341 196.919,176.341 v -57.011 c 0,-10.046 -7.283,-18.755 -17.229,-20.165 C 45.688,112.522 0,61.497 0,0" style="fill:#6ead83;fill-opacity:1;fill-rule:nonzero;stroke:none" id="path35"/>
      </g>
    </g>
  </g>
</g>
    <svg width="1135pt" height="324pt" viewBox="0.00 0.00 1135.00 324.00">
<g id="graph0" class="graph" transform="scale(1 1) rotate(0) translate(4 320)">
<title>D</title>
<text text-anchor="start" x="530" y="-298.6" font-family="Times,serif" font-weight="bold" font-size="18.00">MaBiS</text>
<text text-anchor="start" x="8" y="-268.2" font-family="Times,serif" font-weight="bold" font-size="16.00">7.61.2: AD: &#220;bermittlung Datenstatus f&#252;r die monatliche Ausfallarbeits&#252;berf&#252;hrungszeitreihe (AA&#220;Z) an NB und BKV(LF)</text>
<!-- Start -->
<g id="node1" class="node">
<title>Start</title>
<polygon fill="#7a8da1" stroke="black" points="651,-218 476,-218 476,-174 651,-174 651,-218"/>
<text text-anchor="start" x="535" y="-198.8" font-family="Times,serif" font-weight="bold" font-size="14.00">E_0076</text>
<text text-anchor="start" x="490" y="-186.4" font-family="Times,serif" font-weight="bold" text-decoration="underline" font-size="12.00">Pr&#252;fende Rolle:</text>
<text text-anchor="start" x="596" y="-186.4" font-family="Times,serif" font-weight="bold" font-size="12.00"> BIKO</text>
</g>
<!-- 1 -->
<g id="node2" class="node">
<title>1</title>
<path fill="#7aab8a" stroke="black" d="M852.5,-137C852.5,-137 274.5,-137 274.5,-137 268.5,-137 262.5,-131 262.5,-125 262.5,-125 262.5,-113 262.5,-113 262.5,-107 268.5,-101 274.5,-101 274.5,-101 852.5,-101 852.5,-101 858.5,-101 864.5,-107 864.5,-113 864.5,-113 864.5,-125 864.5,-125 864.5,-131 858.5,-137 852.5,-137"/>
<text text-anchor="start" x="276.5" y="-116.3" font-family="Times,serif" font-weight="bold" font-size="14.00">1: </text>
<text text-anchor="start" x="296.5" y="-116.3" font-family="Times,serif" font-size="14.00">Erfolgt der Eingang der Zeitreihe vor Ablauf der Frist f&#252;r den Erstaufschlag?</text>
</g>
<!-- Start&#45;&gt;1 -->
<g id="edge1" class="edge">
<title>Start-&gt;1</title>
<path fill="none" stroke="black" d="M563.5,-173.71C563.5,-165.82 563.5,-156.75 563.5,-148.33"/>
<polygon fill="black" stroke="black" points="567,-148.57 563.5,-138.57 560,-148.57 567,-148.57"/>
</g>
<!-- A01 -->
<g id="node3" class="node">
<title>A01</title>
<polygon fill="#cca9ab" stroke="black" points="568.5,-50 342.5,-50 342.5,0 568.5,0 568.5,-50"/>
<text text-anchor="start" x="440" y="-33.8" font-family="Times,serif" font-weight="bold" font-size="14.00">A01</text>
<text text-anchor="start" x="354.5" y="-21.4" font-family="Times,serif" text-decoration="underline" font-size="12.00">Hinweis:</text>
<text text-anchor="start" x="354.5" y="-9.4" font-family="Times,serif" font-size="12.00">Datenstatus &#8222;Abrechnungsdaten&#8220;</text>
</g>
<!-- 1&#45;&gt;A01 -->
<g id="edge2" class="edge">
<title>1-&gt;A01</title>
<path fill="none" stroke="black" d="M543.19,-100.7C528.93,-88.55 509.46,-71.96 492.48,-57.5"/>
<polygon fill="black" stroke="black" points="494.91,-54.97 485.03,-51.15 490.37,-60.3 494.91,-54.97"/>
<text text-anchor="middle" x="529.5" y="-71.8" font-family="Times,serif" font-size="14.00">Ja</text>
</g>
<!-- A02 -->
<g id="node4" class="node">
<title>A02</title>
<polygon fill="#cca9ab" stroke="black" points="758.5,-50 586.5,-50 586.5,0 758.5,0 758.5,-50"/>
<text text-anchor="start" x="657" y="-33.8" font-family="Times,serif" font-weight="bold" font-size="14.00">A02</text>
<text text-anchor="start" x="598.5" y="-21.4" font-family="Times,serif" text-decoration="underline" font-size="12.00">Hinweis:</text>
<text text-anchor="start" x="598.5" y="-9.4" font-family="Times,serif" font-size="12.00">Datenstatus &#8222;Pr&#252;fdaten&#8220;</text>
</g>
<!-- 1&#45;&gt;A02 -->
<g id="edge3" class="edge">
<title>1-&gt;A02</title>
<path fill="none" stroke="black" d="M584,-100.7C598.39,-88.55 618.04,-71.96 635.18,-57.5"/>
<polygon fill="black" stroke="black" points="637.32,-60.27 642.71,-51.15 632.81,-54.92 637.32,-60.27"/>
<text text-anchor="middle" x="638.5" y="-71.8" font-family="Times,serif" font-size="14.00">Nein</text>
</g>
</g>
</svg>
  </g>
</svg>
