<?xml version="1.0" encoding="UTF-8" standalone="no"?>
<!DOCTYPE svg PUBLIC "-//W3C//DTD SVG 1.1//EN"
 "http://www.w3.org/Graphics/SVG/1.1/DTD/svg11.dtd">
<!-- Generated by graphviz version 7.0.5 (20221223.1930)
 -->
<!-- Title: D Pages: 1 -->
<svg width="1038pt" height="324pt"
 viewBox="0.00 0.00 1038.00 324.00" xmlns="http://www.w3.org/2000/svg" xmlns:xlink="http://www.w3.org/1999/xlink">
<g id="graph0" class="graph" transform="scale(1 1) rotate(0) translate(4 320)">
<title>D</title>
<polygon fill="white" stroke="none" points="-4,4 -4,-320 1034,-320 1034,4 -4,4"/>
<text text-anchor="start" x="433" y="-298.6" font-family="Times,serif" font-weight="bold" font-size="18.00">Dummy Chapter</text>
<text text-anchor="start" x="425" y="-268.2" font-family="Times,serif" font-weight="bold" font-size="16.00">Dummy Subchapter</text>
<!-- Start -->
<g id="node1" class="node">
<title>Start</title>
<polygon fill="#7a8da1" stroke="black" points="595.5,-218 434.5,-218 434.5,-174 595.5,-174 595.5,-218"/>
<text text-anchor="start" x="486.5" y="-198.8" font-family="Times,serif" font-weight="bold" font-size="14.00">E_0068</text>
<text text-anchor="start" x="448.5" y="-186.4" font-family="Times,serif" font-weight="bold" text-decoration="underline" font-size="12.00">Prüfende Rolle:</text>
<text text-anchor="start" x="554.5" y="-186.4" font-family="Times,serif" font-weight="bold" font-size="12.00"> NB</text>
</g>
<!-- 1 -->
<g id="node2" class="node">
<title>1</title>
<path fill="#7aab8a" stroke="black" d="M1018,-137C1018,-137 12,-137 12,-137 6,-137 0,-131 0,-125 0,-125 0,-113 0,-113 0,-107 6,-101 12,-101 12,-101 1018,-101 1018,-101 1024,-101 1030,-107 1030,-113 1030,-113 1030,-125 1030,-125 1030,-131 1024,-137 1018,-137"/>
<text text-anchor="start" x="14" y="-116.3" font-family="Times,serif" font-weight="bold" font-size="14.00">1: </text>
<text text-anchor="start" x="34" y="-116.3" font-family="Times,serif" font-size="14.00">Sind in dem angefragten Gebiet (Bilanzierungsgebiet oder Regelzone) für diesen Bilanzkreis LF&#45;SZR zum angegebenen Zeitpunkt gültig?</text>
</g>
<!-- Start&#45;&gt;1 -->
<g id="edge1" class="edge">
<title>Start&#45;&gt;1</title>
<path fill="none" stroke="black" d="M515,-173.71C515,-165.82 515,-156.75 515,-148.33"/>
<polygon fill="black" stroke="black" points="518.5,-148.57 515,-138.57 511.5,-148.57 518.5,-148.57"/>
</g>
<!-- A01 -->
<g id="node3" class="node">
<title>A01</title>
<polygon fill="#cca9ab" stroke="black" points="535,-50 353,-50 353,0 535,0 535,-50"/>
<text text-anchor="start" x="428.5" y="-33.8" font-family="Times,serif" font-weight="bold" font-size="14.00">A01</text>
<text text-anchor="start" x="365" y="-21.4" font-family="Times,serif" text-decoration="underline" font-size="12.00">Hinweis:</text>
<text text-anchor="start" x="365" y="-9.4" font-family="Times,serif" font-size="12.00">Kein Lieferant zugeordnet</text>
</g>
<!-- 1&#45;&gt;A01 -->
<g id="edge2" class="edge">
<title>1&#45;&gt;A01</title>
<path fill="none" stroke="black" d="M501.65,-100.7C492.62,-89 480.41,-73.17 469.55,-59.1"/>
<polygon fill="black" stroke="black" points="472.46,-57.15 463.58,-51.37 466.92,-61.42 472.46,-57.15"/>
<text text-anchor="middle" x="505" y="-71.8" font-family="Times,serif" font-size="14.00">Nein</text>
</g>
<!-- Ende -->
<g id="node4" class="node">
<title>Ende</title>
<polygon fill="#7a8da1" stroke="black" points="618.5,-43 553.5,-43 553.5,-7 618.5,-7 618.5,-43"/>
<text text-anchor="middle" x="586" y="-21.3" font-family="Times,serif" font-size="14.00">Ende</text>
</g>
<!-- 1&#45;&gt;Ende -->
<g id="edge3" class="edge">
<title>1&#45;&gt;Ende</title>
<path fill="none" stroke="black" d="M528.35,-100.7C538.87,-87.07 553.69,-67.86 565.68,-52.34"/>
<polygon fill="black" stroke="black" points="568.44,-54.48 571.78,-44.43 562.9,-50.2 568.44,-54.48"/>
<text text-anchor="middle" x="559" y="-71.8" font-family="Times,serif" font-size="14.00">Ja</text>
</g>
</g>
</svg>
