<?xml version='1.0' encoding='ASCII' standalone='yes'?>
<svg xmlns="http://www.w3.org/2000/svg" xmlns:xlink="http://www.w3.org/1999/xlink" version="1.1" width="1629.3333333333333px" viewBox="0 0 1629.3333333333333 1920.0" height="1920.0px">
  <g>
    <svg version="1.1" width="1629.3333333333333px" viewBox="0 0 1629.3333333333333 1920.0" height="1920.0px">
  <rect fill="#e7e6e5" x="0" y="0" width="1629.3333333333333" height="1920.0" rx="20" ry="20"/><g>
    <g transform="translate(162.93333333333328, 320.7333563520016) scale(1 1) translate(0, 0) scale(2.250304997352853 2.250304997352853) "><!-- note that I manually added the width and height attribute to the root node
  https://chatgpt.com/share/678e3028-70cc-800b-a296-782714735772
  -->
  <defs>
    <style>.cls-1{fill:#fff;}</style>
  </defs>
  <path class="cls-1" d="M122.44,531.2h-56.1c-11,0-19.9-9.12-19.46-20.11C57.47,243.89,278.15,29.78,547.91,29.78v56.02c0,10.98-8.69,19.89-19.66,20.39-225.51,10.31-405.8,197-405.8,425Z"/>
  <path class="cls-1" d="M273.78,531.2h-55.93c-11.23,0-20.09-9.48-19.43-20.69,10.74-183.44,163.39-329.39,349.48-329.39v56.26c0,10.71-8.27,19.62-18.96,20.35-142.35,9.77-255.17,128.69-255.17,273.46Z"/>
  <path class="cls-1" d="M425.77,531.2h-55.45c-11.65,0-20.6-10.17-19.33-21.75,10.87-99.03,95.03-176.34,196.92-176.34v57.01c0,10.05-7.28,18.75-17.23,20.16-59.22,8.4-104.91,59.42-104.91,120.92Z"/>
</g>
    <svg width="1222pt" height="1440pt" viewBox="0.00 0.00 1221.91 1440.00">
<g id="graph0" class="graph" transform="scale(0.862978 0.862978) rotate(0) translate(4 1664.64)">
<title>D</title>
<text text-anchor="start" x="329.71" y="-1640.54" font-family="Roboto, sans-serif" font-weight="bold" font-size="18.00">MaBiS</text>
<text text-anchor="start" x="329.71" y="-1610.44" font-family="Roboto, sans-serif" font-weight="bold" font-size="16.00">7.60.1: AD: Aktivierung eines MaBiS-ZP f&#252;r die mtl. AA&#220;Z zwischen NB und BKV(LF)</text>
<!-- Start -->
<g id="node1" class="node">
<title>Start</title>
<path fill="#8ba2d7" stroke="black" stroke-width="0" d="M372.17,-1562.64C372.17,-1562.64 226.37,-1562.64 226.37,-1562.64 220.37,-1562.64 214.37,-1556.64 214.37,-1550.64 214.37,-1550.64 214.37,-1531.36 214.37,-1531.36 214.37,-1525.36 220.37,-1519.36 226.37,-1519.36 226.37,-1519.36 372.17,-1519.36 372.17,-1519.36 378.17,-1519.36 384.17,-1525.36 384.17,-1531.36 384.17,-1531.36 384.17,-1550.64 384.17,-1550.64 384.17,-1556.64 378.17,-1562.64 372.17,-1562.64"/>
<text text-anchor="start" x="228.77" y="-1541.7" font-family="Roboto, sans-serif" font-weight="bold" font-size="14.00">E_0071</text>
<text text-anchor="start" x="228.77" y="-1529.6" font-family="Roboto, sans-serif" font-weight="bold" text-decoration="underline" font-size="12.00">Pr&#252;fende Rolle:</text>
<text text-anchor="start" x="332.27" y="-1529.6" font-family="Roboto, sans-serif" font-weight="bold" font-size="12.00"> BIKO</text>
</g>
<!-- 1 -->
<g id="node2" class="node">
<title>1</title>
<path fill="#c2cee9" stroke="black" stroke-width="0" d="M542.42,-1482.36C542.42,-1482.36 56.12,-1482.36 56.12,-1482.36 50.12,-1482.36 44.12,-1476.36 44.12,-1470.36 44.12,-1470.36 44.12,-1458.36 44.12,-1458.36 44.12,-1452.36 50.12,-1446.36 56.12,-1446.36 56.12,-1446.36 542.42,-1446.36 542.42,-1446.36 548.42,-1446.36 554.42,-1452.36 554.42,-1458.36 554.42,-1458.36 554.42,-1470.36 554.42,-1470.36 554.42,-1476.36 548.42,-1482.36 542.42,-1482.36"/>
<text text-anchor="start" x="58.52" y="-1460.69" font-family="Roboto, sans-serif" font-weight="bold" font-size="14.00">1: </text>
<text text-anchor="start" x="78.02" y="-1460.69" font-family="Roboto, sans-serif" font-size="14.00">Erfolgt die Aktivierung nach Ablauf der Clearingfrist f&#252;r die KBKA?</text>
</g>
<!-- Start&#45;&gt;1 -->
<g id="edge1" class="edge">
<title>Start-&gt;1</title>
<path fill="none" stroke="#88a0d6" d="M299.27,-1519.6C299.27,-1511.53 299.27,-1502.12 299.27,-1493.43"/>
<polygon fill="#88a0d6" stroke="#88a0d6" points="302.78,-1493.72 299.28,-1483.72 295.78,-1493.72 302.78,-1493.72"/>
</g>
<!-- A01 -->
<g id="node3" class="node">
<title>A01</title>
<path fill="#c4cac1" stroke="black" stroke-width="0" d="M136.05,-1393.11C136.05,-1393.11 16.5,-1393.11 16.5,-1393.11 10.5,-1393.11 4.5,-1387.11 4.5,-1381.11 4.5,-1381.11 4.5,-1337.83 4.5,-1337.83 4.5,-1331.83 10.5,-1325.83 16.5,-1325.83 16.5,-1325.83 136.05,-1325.83 136.05,-1325.83 142.05,-1325.83 148.05,-1331.83 148.05,-1337.83 148.05,-1337.83 148.05,-1381.11 148.05,-1381.11 148.05,-1387.11 142.05,-1393.11 136.05,-1393.11"/>
<text text-anchor="start" x="18.9" y="-1372.17" font-family="Roboto, sans-serif" font-weight="bold" font-size="14.00">A01</text>
<text text-anchor="start" x="18.9" y="-1360.07" font-family="Roboto, sans-serif" text-decoration="underline" font-size="12.00">Hinweis:</text>
<text text-anchor="start" x="18.9" y="-1348.07" font-family="Roboto, sans-serif" font-size="12.00">Cluster: Ablehnung</text>
<text text-anchor="start" x="18.9" y="-1336.07" font-family="Roboto, sans-serif" font-size="12.00">Frist&#252;berschreitung</text>
</g>
<!-- 1&#45;&gt;A01 -->
<g id="edge2" class="edge">
<title>1-&gt;A01</title>
<path fill="none" stroke="#88a0d6" d="M262.45,-1446.37C233.84,-1433.17 193.1,-1414.37 157.01,-1397.72"/>
<polygon fill="#88a0d6" stroke="#88a0d6" points="158.89,-1394.73 148.35,-1393.72 155.96,-1401.09 158.89,-1394.73"/>
<text text-anchor="start" x="220.28" y="-1416.06" font-family="Roboto, sans-serif" font-weight="bold" font-size="14.00">JA</text>
</g>
<!-- 2 -->
<g id="node4" class="node">
<title>2</title>
<path fill="#c2cee9" stroke="black" stroke-width="0" d="M574.8,-1377.47C574.8,-1377.47 177.75,-1377.47 177.75,-1377.47 171.75,-1377.47 165.75,-1371.47 165.75,-1365.47 165.75,-1365.47 165.75,-1353.47 165.75,-1353.47 165.75,-1347.47 171.75,-1341.47 177.75,-1341.47 177.75,-1341.47 574.8,-1341.47 574.8,-1341.47 580.8,-1341.47 586.8,-1347.47 586.8,-1353.47 586.8,-1353.47 586.8,-1365.47 586.8,-1365.47 586.8,-1371.47 580.8,-1377.47 574.8,-1377.47"/>
<text text-anchor="start" x="180.15" y="-1355.8" font-family="Roboto, sans-serif" font-weight="bold" font-size="14.00">2: </text>
<text text-anchor="start" x="199.65" y="-1355.8" font-family="Roboto, sans-serif" font-size="14.00">Erfolgt die Aktivierung zum Monatsersten 00:00 Uhr?</text>
</g>
<!-- 1&#45;&gt;2 -->
<g id="edge3" class="edge">
<title>1-&gt;2</title>
<path fill="none" stroke="#88a0d6" d="M311.99,-1446.37C324.21,-1430.04 342.85,-1405.13 356.92,-1386.34"/>
<polygon fill="#88a0d6" stroke="#88a0d6" points="359.7,-1388.46 362.89,-1378.36 354.1,-1384.27 359.7,-1388.46"/>
<text text-anchor="start" x="337.27" y="-1416.06" font-family="Roboto, sans-serif" font-weight="bold" font-size="14.00">NEIN</text>
</g>
<!-- A02 -->
<g id="node5" class="node">
<title>A02</title>
<path fill="#c4cac1" stroke="black" stroke-width="0" d="M246.43,-1272.58C246.43,-1272.58 36.12,-1272.58 36.12,-1272.58 30.12,-1272.58 24.12,-1266.58 24.12,-1260.58 24.12,-1260.58 24.12,-1217.3 24.12,-1217.3 24.12,-1211.3 30.12,-1205.3 36.12,-1205.3 36.12,-1205.3 246.43,-1205.3 246.43,-1205.3 252.43,-1205.3 258.43,-1211.3 258.43,-1217.3 258.43,-1217.3 258.43,-1260.58 258.43,-1260.58 258.43,-1266.58 252.43,-1272.58 246.43,-1272.58"/>
<text text-anchor="start" x="38.53" y="-1251.64" font-family="Roboto, sans-serif" font-weight="bold" font-size="14.00">A02</text>
<text text-anchor="start" x="38.53" y="-1239.54" font-family="Roboto, sans-serif" text-decoration="underline" font-size="12.00">Hinweis:</text>
<text text-anchor="start" x="38.53" y="-1227.54" font-family="Roboto, sans-serif" font-size="12.00">Cluster: Ablehnung</text>
<text text-anchor="start" x="38.53" y="-1215.54" font-family="Roboto, sans-serif" font-size="12.00">Gew&#228;hlter Zeitpunkt nicht zul&#228;ssig</text>
</g>
<!-- 2&#45;&gt;A02 -->
<g id="edge4" class="edge">
<title>2-&gt;A02</title>
<path fill="none" stroke="#88a0d6" d="M342.61,-1341.49C309.71,-1324.89 258.51,-1299.07 215.98,-1277.62"/>
<polygon fill="#88a0d6" stroke="#88a0d6" points="217.79,-1274.61 207.29,-1273.24 214.64,-1280.86 217.79,-1274.61"/>
<text text-anchor="start" x="272.27" y="-1295.53" font-family="Roboto, sans-serif" font-weight="bold" font-size="14.00">NEIN</text>
</g>
<!-- 3 -->
<g id="node6" class="node">
<title>3</title>
<path fill="#c2cee9" stroke="black" stroke-width="0" d="M578.17,-1256.94C578.17,-1256.94 288.38,-1256.94 288.38,-1256.94 282.38,-1256.94 276.38,-1250.94 276.38,-1244.94 276.38,-1244.94 276.38,-1232.94 276.38,-1232.94 276.38,-1226.94 282.38,-1220.94 288.38,-1220.94 288.38,-1220.94 578.17,-1220.94 578.17,-1220.94 584.17,-1220.94 590.17,-1226.94 590.17,-1232.94 590.17,-1232.94 590.17,-1244.94 590.17,-1244.94 590.17,-1250.94 584.17,-1256.94 578.17,-1256.94"/>
<text text-anchor="start" x="290.77" y="-1235.27" font-family="Roboto, sans-serif" font-weight="bold" font-size="14.00">3: </text>
<text text-anchor="start" x="310.27" y="-1235.27" font-family="Roboto, sans-serif" font-size="14.00">Ist die richtige Regelzone angegeben?</text>
</g>
<!-- 2&#45;&gt;3 -->
<g id="edge5" class="edge">
<title>2-&gt;3</title>
<path fill="none" stroke="#88a0d6" d="M384.44,-1341.49C393.8,-1322.04 409.25,-1289.9 420.26,-1266.99"/>
<polygon fill="#88a0d6" stroke="#88a0d6" points="423.29,-1268.78 424.47,-1258.25 416.98,-1265.75 423.29,-1268.78"/>
<text text-anchor="start" x="407.27" y="-1295.53" font-family="Roboto, sans-serif" font-weight="bold" font-size="14.00">JA</text>
</g>
<!-- A03 -->
<g id="node7" class="node">
<title>A03</title>
<path fill="#c4cac1" stroke="black" stroke-width="0" d="M142.93,-1152.05C142.93,-1152.05 25.62,-1152.05 25.62,-1152.05 19.62,-1152.05 13.62,-1146.05 13.62,-1140.05 13.62,-1140.05 13.62,-1096.77 13.62,-1096.77 13.62,-1090.77 19.62,-1084.77 25.62,-1084.77 25.62,-1084.77 142.93,-1084.77 142.93,-1084.77 148.93,-1084.77 154.93,-1090.77 154.93,-1096.77 154.93,-1096.77 154.93,-1140.05 154.93,-1140.05 154.93,-1146.05 148.93,-1152.05 142.93,-1152.05"/>
<text text-anchor="start" x="28.03" y="-1131.11" font-family="Roboto, sans-serif" font-weight="bold" font-size="14.00">A03</text>
<text text-anchor="start" x="28.03" y="-1119.01" font-family="Roboto, sans-serif" text-decoration="underline" font-size="12.00">Hinweis:</text>
<text text-anchor="start" x="28.03" y="-1107.01" font-family="Roboto, sans-serif" font-size="12.00">Cluster: Ablehnung</text>
<text text-anchor="start" x="28.03" y="-1095.01" font-family="Roboto, sans-serif" font-size="12.00">Regelzone falsch</text>
</g>
<!-- 3&#45;&gt;A03 -->
<g id="edge6" class="edge">
<title>3-&gt;A03</title>
<path fill="none" stroke="#88a0d6" d="M375.64,-1220.97C323.22,-1205.21 243.6,-1180.47 165.36,-1152.35"/>
<polygon fill="#88a0d6" stroke="#88a0d6" points="166.85,-1149.17 156.25,-1149.06 164.47,-1155.75 166.85,-1149.17"/>
<text text-anchor="start" x="266.27" y="-1175" font-family="Roboto, sans-serif" font-weight="bold" font-size="14.00">NEIN</text>
</g>
<!-- 4 -->
<g id="node8" class="node">
<title>4</title>
<path fill="#c2cee9" stroke="black" stroke-width="0" d="M813.3,-1136.41C813.3,-1136.41 185.25,-1136.41 185.25,-1136.41 179.25,-1136.41 173.25,-1130.41 173.25,-1124.41 173.25,-1124.41 173.25,-1112.41 173.25,-1112.41 173.25,-1106.41 179.25,-1100.41 185.25,-1100.41 185.25,-1100.41 813.3,-1100.41 813.3,-1100.41 819.3,-1100.41 825.3,-1106.41 825.3,-1112.41 825.3,-1112.41 825.3,-1124.41 825.3,-1124.41 825.3,-1130.41 819.3,-1136.41 813.3,-1136.41"/>
<text text-anchor="start" x="187.65" y="-1114.74" font-family="Roboto, sans-serif" font-weight="bold" font-size="14.00">4: </text>
<text text-anchor="start" x="207.15" y="-1114.74" font-family="Roboto, sans-serif" font-size="14.00">Ist das Bilanzierungsgebiet zum Aktivierungsbeginn in der Regelzone des BIKO g&#252;ltig?</text>
</g>
<!-- 3&#45;&gt;4 -->
<g id="edge7" class="edge">
<title>3-&gt;4</title>
<path fill="none" stroke="#88a0d6" d="M442.73,-1220.96C453.61,-1201.42 471.62,-1169.08 484.38,-1146.15"/>
<polygon fill="#88a0d6" stroke="#88a0d6" points="487.29,-1148.12 489.1,-1137.68 481.18,-1144.72 487.29,-1148.12"/>
<text text-anchor="start" x="469.27" y="-1175" font-family="Roboto, sans-serif" font-weight="bold" font-size="14.00">JA</text>
</g>
<!-- A04 -->
<g id="node9" class="node">
<title>A04</title>
<path fill="#c4cac1" stroke="black" stroke-width="0" d="M207.05,-1031.52C207.05,-1031.52 15.5,-1031.52 15.5,-1031.52 9.5,-1031.52 3.5,-1025.52 3.5,-1019.52 3.5,-1019.52 3.5,-976.24 3.5,-976.24 3.5,-970.24 9.5,-964.24 15.5,-964.24 15.5,-964.24 207.05,-964.24 207.05,-964.24 213.05,-964.24 219.05,-970.24 219.05,-976.24 219.05,-976.24 219.05,-1019.52 219.05,-1019.52 219.05,-1025.52 213.05,-1031.52 207.05,-1031.52"/>
<text text-anchor="start" x="17.9" y="-1010.58" font-family="Roboto, sans-serif" font-weight="bold" font-size="14.00">A04</text>
<text text-anchor="start" x="17.9" y="-998.48" font-family="Roboto, sans-serif" text-decoration="underline" font-size="12.00">Hinweis:</text>
<text text-anchor="start" x="17.9" y="-986.48" font-family="Roboto, sans-serif" font-size="12.00">Cluster: Ablehnung</text>
<text text-anchor="start" x="17.9" y="-974.48" font-family="Roboto, sans-serif" font-size="12.00">Bilanzierungsgebiet nicht g&#252;ltig</text>
</g>
<!-- 4&#45;&gt;A04 -->
<g id="edge8" class="edge">
<title>4-&gt;A04</title>
<path fill="none" stroke="#88a0d6" d="M443.68,-1100.43C387.88,-1083.38 300.19,-1056.59 228.88,-1034.81"/>
<polygon fill="#88a0d6" stroke="#88a0d6" points="230.07,-1031.51 219.48,-1031.94 228.02,-1038.21 230.07,-1031.51"/>
<text text-anchor="start" x="328.27" y="-1054.47" font-family="Roboto, sans-serif" font-weight="bold" font-size="14.00">NEIN</text>
</g>
<!-- 5 -->
<g id="node10" class="node">
<title>5</title>
<path fill="#c2cee9" stroke="black" stroke-width="0" d="M837.8,-1020.52C837.8,-1020.52 248.75,-1020.52 248.75,-1020.52 242.75,-1020.52 236.75,-1014.52 236.75,-1008.52 236.75,-1008.52 236.75,-987.24 236.75,-987.24 236.75,-981.24 242.75,-975.24 248.75,-975.24 248.75,-975.24 837.8,-975.24 837.8,-975.24 843.8,-975.24 849.8,-981.24 849.8,-987.24 849.8,-987.24 849.8,-1008.52 849.8,-1008.52 849.8,-1014.52 843.8,-1020.52 837.8,-1020.52"/>
<text text-anchor="start" x="251.15" y="-999.58" font-family="Roboto, sans-serif" font-weight="bold" font-size="14.00">5: </text>
<text text-anchor="start" x="270.65" y="-999.58" font-family="Roboto, sans-serif" font-size="14.00">Ist der Redispatch-Bilanzkreis des ANB zum Aktivierungsbeginn in der Regelzone</text>
<text text-anchor="start" x="251.15" y="-985.58" font-family="Roboto, sans-serif" font-size="14.00">des BIKO g&#252;ltig?</text>
</g>
<!-- 4&#45;&gt;5 -->
<g id="edge9" class="edge">
<title>4-&gt;5</title>
<path fill="none" stroke="#88a0d6" d="M505.58,-1100.43C512.29,-1082.36 523.06,-1053.34 531.37,-1030.94"/>
<polygon fill="#88a0d6" stroke="#88a0d6" points="534.62,-1032.26 534.82,-1021.66 528.06,-1029.82 534.62,-1032.26"/>
<text text-anchor="start" x="523.27" y="-1054.47" font-family="Roboto, sans-serif" font-weight="bold" font-size="14.00">JA</text>
</g>
<!-- A05 -->
<g id="node11" class="node">
<title>A05</title>
<path fill="#c4cac1" stroke="black" stroke-width="0" d="M272.55,-910.99C272.55,-910.99 12,-910.99 12,-910.99 6,-910.99 0,-904.99 0,-898.99 0,-898.99 0,-855.71 0,-855.71 0,-849.71 6,-843.71 12,-843.71 12,-843.71 272.55,-843.71 272.55,-843.71 278.55,-843.71 284.55,-849.71 284.55,-855.71 284.55,-855.71 284.55,-898.99 284.55,-898.99 284.55,-904.99 278.55,-910.99 272.55,-910.99"/>
<text text-anchor="start" x="14.4" y="-890.05" font-family="Roboto, sans-serif" font-weight="bold" font-size="14.00">A05</text>
<text text-anchor="start" x="14.4" y="-877.95" font-family="Roboto, sans-serif" text-decoration="underline" font-size="12.00">Hinweis:</text>
<text text-anchor="start" x="14.4" y="-865.95" font-family="Roboto, sans-serif" font-size="12.00">Cluster: Ablehnung</text>
<text text-anchor="start" x="14.4" y="-853.95" font-family="Roboto, sans-serif" font-size="12.00">Redispatch-Bilanzkreis des ANB nicht g&#252;ltig</text>
</g>
<!-- 5&#45;&gt;A05 -->
<g id="edge10" class="edge">
<title>5-&gt;A05</title>
<path fill="none" stroke="#88a0d6" d="M470.19,-975.28C412.51,-958.23 330.8,-934.08 263.38,-914.15"/>
<polygon fill="#88a0d6" stroke="#88a0d6" points="264.72,-910.89 254.14,-911.42 262.74,-917.61 264.72,-910.89"/>
<text text-anchor="start" x="366.27" y="-933.94" font-family="Roboto, sans-serif" font-weight="bold" font-size="14.00">NEIN</text>
</g>
<!-- 6 -->
<g id="node12" class="node">
<title>6</title>
<path fill="#c2cee9" stroke="black" stroke-width="0" d="M833.55,-899.99C833.55,-899.99 315,-899.99 315,-899.99 309,-899.99 303,-893.99 303,-887.99 303,-887.99 303,-866.71 303,-866.71 303,-860.71 309,-854.71 315,-854.71 315,-854.71 833.55,-854.71 833.55,-854.71 839.55,-854.71 845.55,-860.71 845.55,-866.71 845.55,-866.71 845.55,-887.99 845.55,-887.99 845.55,-893.99 839.55,-899.99 833.55,-899.99"/>
<text text-anchor="start" x="317.4" y="-879.05" font-family="Roboto, sans-serif" font-weight="bold" font-size="14.00">6: </text>
<text text-anchor="start" x="336.9" y="-879.05" font-family="Roboto, sans-serif" font-size="14.00">Ist der Sender zum Aktivierungsbeginn der verantwortliche NB f&#252;r den</text>
<text text-anchor="start" x="317.4" y="-865.05" font-family="Roboto, sans-serif" font-size="14.00">angegebenen Redispatch-Bilanzkreis des NB?</text>
</g>
<!-- 5&#45;&gt;6 -->
<g id="edge11" class="edge">
<title>5-&gt;6</title>
<path fill="none" stroke="#88a0d6" d="M548.89,-975.42C553.61,-957.37 560.42,-931.31 565.81,-910.74"/>
<polygon fill="#88a0d6" stroke="#88a0d6" points="569.18,-911.68 568.32,-901.12 562.4,-909.91 569.18,-911.68"/>
<text text-anchor="start" x="560.27" y="-933.94" font-family="Roboto, sans-serif" font-weight="bold" font-size="14.00">JA</text>
</g>
<!-- A06 -->
<g id="node13" class="node">
<title>A06</title>
<path fill="#c4cac1" stroke="black" stroke-width="0" d="M336.8,-790.46C336.8,-790.46 215.75,-790.46 215.75,-790.46 209.75,-790.46 203.75,-784.46 203.75,-778.46 203.75,-778.46 203.75,-735.18 203.75,-735.18 203.75,-729.18 209.75,-723.18 215.75,-723.18 215.75,-723.18 336.8,-723.18 336.8,-723.18 342.8,-723.18 348.8,-729.18 348.8,-735.18 348.8,-735.18 348.8,-778.46 348.8,-778.46 348.8,-784.46 342.8,-790.46 336.8,-790.46"/>
<text text-anchor="start" x="218.15" y="-769.52" font-family="Roboto, sans-serif" font-weight="bold" font-size="14.00">A06</text>
<text text-anchor="start" x="218.15" y="-757.42" font-family="Roboto, sans-serif" text-decoration="underline" font-size="12.00">Hinweis:</text>
<text text-anchor="start" x="218.15" y="-745.42" font-family="Roboto, sans-serif" font-size="12.00">Cluster: Ablehnung</text>
<text text-anchor="start" x="218.15" y="-733.42" font-family="Roboto, sans-serif" font-size="12.00">Keine Berechtigung</text>
</g>
<!-- 6&#45;&gt;A06 -->
<g id="edge12" class="edge">
<title>6-&gt;A06</title>
<path fill="none" stroke="#88a0d6" d="M519.39,-854.73C477.9,-838.37 419.24,-815.18 359.13,-791.2"/>
<polygon fill="#88a0d6" stroke="#88a0d6" points="360.68,-788.04 350.1,-787.59 358.08,-794.55 360.68,-788.04"/>
<text text-anchor="start" x="440.27" y="-813.41" font-family="Roboto, sans-serif" font-weight="bold" font-size="14.00">NEIN</text>
</g>
<!-- 7 -->
<g id="node14" class="node">
<title>7</title>
<path fill="#c2cee9" stroke="black" stroke-width="0" d="M996.05,-779.46C996.05,-779.46 378.5,-779.46 378.5,-779.46 372.5,-779.46 366.5,-773.46 366.5,-767.46 366.5,-767.46 366.5,-746.18 366.5,-746.18 366.5,-740.18 372.5,-734.18 378.5,-734.18 378.5,-734.18 996.05,-734.18 996.05,-734.18 1002.05,-734.18 1008.05,-740.18 1008.05,-746.18 1008.05,-746.18 1008.05,-767.46 1008.05,-767.46 1008.05,-773.46 1002.05,-779.46 996.05,-779.46"/>
<text text-anchor="start" x="380.9" y="-758.52" font-family="Roboto, sans-serif" font-weight="bold" font-size="14.00">7: </text>
<text text-anchor="start" x="400.4" y="-758.52" font-family="Roboto, sans-serif" font-size="14.00">Existiert bereits ein abweichendes Tupel aus Bilanzierungs-gebiet,</text>
<text text-anchor="start" x="380.9" y="-744.52" font-family="Roboto, sans-serif" font-size="14.00">Redispatch-Bilanzkreis des ANB, Bilanzkreis des LF und ZRT unter der ID des MaBiS-ZP?</text>
</g>
<!-- 6&#45;&gt;7 -->
<g id="edge13" class="edge">
<title>6-&gt;7</title>
<path fill="none" stroke="#88a0d6" d="M594.74,-854.89C612.74,-836 639.11,-808.34 659.1,-787.37"/>
<polygon fill="#88a0d6" stroke="#88a0d6" points="661.55,-789.87 665.92,-780.22 656.49,-785.04 661.55,-789.87"/>
<text text-anchor="start" x="637.27" y="-813.41" font-family="Roboto, sans-serif" font-weight="bold" font-size="14.00">JA</text>
</g>
<!-- A07 -->
<g id="node15" class="node">
<title>A07</title>
<path fill="#c4cac1" stroke="black" stroke-width="0" d="M466.67,-669.93C466.67,-669.93 203.88,-669.93 203.88,-669.93 197.88,-669.93 191.87,-663.93 191.87,-657.93 191.87,-657.93 191.87,-614.65 191.87,-614.65 191.87,-608.65 197.87,-602.65 203.87,-602.65 203.87,-602.65 466.67,-602.65 466.67,-602.65 472.67,-602.65 478.67,-608.65 478.67,-614.65 478.67,-614.65 478.67,-657.93 478.67,-657.93 478.67,-663.93 472.67,-669.93 466.67,-669.93"/>
<text text-anchor="start" x="206.27" y="-648.99" font-family="Roboto, sans-serif" font-weight="bold" font-size="14.00">A07</text>
<text text-anchor="start" x="206.27" y="-636.89" font-family="Roboto, sans-serif" text-decoration="underline" font-size="12.00">Hinweis:</text>
<text text-anchor="start" x="206.27" y="-624.89" font-family="Roboto, sans-serif" font-size="12.00">Cluster: Ablehnung</text>
<text text-anchor="start" x="206.27" y="-612.89" font-family="Roboto, sans-serif" font-size="12.00">Abweichender MaBiS-ZP bereits vorhanden</text>
</g>
<!-- 7&#45;&gt;A07 -->
<g id="edge14" class="edge">
<title>7-&gt;A07</title>
<path fill="none" stroke="#88a0d6" d="M623.12,-734.22C572.91,-717.31 501.95,-693.41 443.05,-673.58"/>
<polygon fill="#88a0d6" stroke="#88a0d6" points="444.23,-670.28 433.63,-670.41 441.99,-676.92 444.23,-670.28"/>
<text text-anchor="start" x="532.27" y="-692.88" font-family="Roboto, sans-serif" font-weight="bold" font-size="14.00">JA</text>
</g>
<!-- 8 -->
<g id="node16" class="node">
<title>8</title>
<path fill="#c2cee9" stroke="black" stroke-width="0" d="M1079.42,-665.93C1079.42,-665.93 509.12,-665.93 509.12,-665.93 503.12,-665.93 497.12,-659.93 497.12,-653.93 497.12,-653.93 497.12,-618.65 497.12,-618.65 497.12,-612.65 503.12,-606.65 509.12,-606.65 509.12,-606.65 1079.42,-606.65 1079.42,-606.65 1085.42,-606.65 1091.42,-612.65 1091.42,-618.65 1091.42,-618.65 1091.42,-653.93 1091.42,-653.93 1091.42,-659.93 1085.42,-665.93 1079.42,-665.93"/>
<text text-anchor="start" x="511.52" y="-644.99" font-family="Roboto, sans-serif" font-weight="bold" font-size="14.00">8: </text>
<text text-anchor="start" x="531.02" y="-644.99" font-family="Roboto, sans-serif" font-size="14.00">Existiert bereits f&#252;r das genannte Tupel aus Bilanzierungs-gebiet,</text>
<text text-anchor="start" x="511.52" y="-630.99" font-family="Roboto, sans-serif" font-size="14.00">Redispatch-Bilanzkreis des ANB, Bilanzkreis des LF und ZRT eine abweichende ID</text>
<text text-anchor="start" x="511.52" y="-616.99" font-family="Roboto, sans-serif" font-size="14.00">des MaBiS-ZP?</text>
</g>
<!-- 7&#45;&gt;8 -->
<g id="edge15" class="edge">
<title>7-&gt;8</title>
<path fill="none" stroke="#88a0d6" d="M706.65,-734.36C721.76,-717.62 743.1,-693.98 760.94,-674.22"/>
<polygon fill="#88a0d6" stroke="#88a0d6" points="763.48,-676.63 767.58,-666.86 758.28,-671.94 763.48,-676.63"/>
<text text-anchor="start" x="746.27" y="-692.88" font-family="Roboto, sans-serif" font-weight="bold" font-size="14.00">NEIN</text>
</g>
<!-- A08 -->
<g id="node17" class="node">
<title>A08</title>
<path fill="#c4cac1" stroke="black" stroke-width="0" d="M729.92,-549.4C729.92,-549.4 426.62,-549.4 426.62,-549.4 420.62,-549.4 414.62,-543.4 414.62,-537.4 414.62,-537.4 414.62,-494.12 414.62,-494.12 414.62,-488.12 420.62,-482.12 426.62,-482.12 426.62,-482.12 729.92,-482.12 729.92,-482.12 735.92,-482.12 741.92,-488.12 741.92,-494.12 741.92,-494.12 741.92,-537.4 741.92,-537.4 741.92,-543.4 735.92,-549.4 729.92,-549.4"/>
<text text-anchor="start" x="429.02" y="-528.46" font-family="Roboto, sans-serif" font-weight="bold" font-size="14.00">A08</text>
<text text-anchor="start" x="429.02" y="-516.36" font-family="Roboto, sans-serif" text-decoration="underline" font-size="12.00">Hinweis:</text>
<text text-anchor="start" x="429.02" y="-504.36" font-family="Roboto, sans-serif" font-size="12.00">Cluster: Ablehnung</text>
<text text-anchor="start" x="429.02" y="-492.36" font-family="Roboto, sans-serif" font-size="12.00">Abweichende ID zum MaBiS-ZP bereits vorhanden</text>
</g>
<!-- 8&#45;&gt;A08 -->
<g id="edge16" class="edge">
<title>8-&gt;A08</title>
<path fill="none" stroke="#88a0d6" d="M742.26,-606.75C713.76,-591.11 678.08,-571.53 647.28,-554.63"/>
<polygon fill="#88a0d6" stroke="#88a0d6" points="649.24,-551.71 638.79,-549.97 645.87,-557.85 649.24,-551.71"/>
<text text-anchor="start" x="698.27" y="-572.35" font-family="Roboto, sans-serif" font-weight="bold" font-size="14.00">JA</text>
</g>
<!-- 9 -->
<g id="node18" class="node">
<title>9</title>
<path fill="#c2cee9" stroke="black" stroke-width="0" d="M1196.67,-533.76C1196.67,-533.76 771.88,-533.76 771.88,-533.76 765.88,-533.76 759.88,-527.76 759.88,-521.76 759.88,-521.76 759.88,-509.76 759.88,-509.76 759.88,-503.76 765.88,-497.76 771.88,-497.76 771.88,-497.76 1196.67,-497.76 1196.67,-497.76 1202.67,-497.76 1208.67,-503.76 1208.67,-509.76 1208.67,-509.76 1208.67,-521.76 1208.67,-521.76 1208.67,-527.76 1202.67,-533.76 1196.67,-533.76"/>
<text text-anchor="start" x="774.27" y="-512.09" font-family="Roboto, sans-serif" font-weight="bold" font-size="14.00">9: </text>
<text text-anchor="start" x="793.77" y="-512.09" font-family="Roboto, sans-serif" font-size="14.00">Ist der Bilanzkreis des LF zum Aktivierungsbeginn g&#252;ltig?</text>
</g>
<!-- 8&#45;&gt;9 -->
<g id="edge17" class="edge">
<title>8-&gt;9</title>
<path fill="none" stroke="#88a0d6" d="M839.78,-606.9C872.77,-586.32 916.81,-558.85 947.56,-539.66"/>
<polygon fill="#88a0d6" stroke="#88a0d6" points="949.13,-542.81 955.76,-534.55 945.43,-536.87 949.13,-542.81"/>
<text text-anchor="start" x="900.27" y="-572.35" font-family="Roboto, sans-serif" font-weight="bold" font-size="14.00">NEIN</text>
</g>
<!-- A09 -->
<g id="node19" class="node">
<title>A09</title>
<path fill="#c4cac1" stroke="black" stroke-width="0" d="M859.05,-428.87C859.05,-428.87 721.5,-428.87 721.5,-428.87 715.5,-428.87 709.5,-422.87 709.5,-416.87 709.5,-416.87 709.5,-373.59 709.5,-373.59 709.5,-367.59 715.5,-361.59 721.5,-361.59 721.5,-361.59 859.05,-361.59 859.05,-361.59 865.05,-361.59 871.05,-367.59 871.05,-373.59 871.05,-373.59 871.05,-416.87 871.05,-416.87 871.05,-422.87 865.05,-428.87 859.05,-428.87"/>
<text text-anchor="start" x="723.9" y="-407.93" font-family="Roboto, sans-serif" font-weight="bold" font-size="14.00">A09</text>
<text text-anchor="start" x="723.9" y="-395.83" font-family="Roboto, sans-serif" text-decoration="underline" font-size="12.00">Hinweis:</text>
<text text-anchor="start" x="723.9" y="-383.83" font-family="Roboto, sans-serif" font-size="12.00">Cluster: Ablehnung</text>
<text text-anchor="start" x="723.9" y="-371.83" font-family="Roboto, sans-serif" font-size="12.00">Bilanzkreis nicht g&#252;ltig</text>
</g>
<!-- 9&#45;&gt;A09 -->
<g id="edge18" class="edge">
<title>9-&gt;A09</title>
<path fill="none" stroke="#88a0d6" d="M956.48,-497.78C929.66,-481.39 888.13,-456.02 853.29,-434.73"/>
<polygon fill="#88a0d6" stroke="#88a0d6" points="855.31,-431.86 844.95,-429.63 851.66,-437.83 855.31,-431.86"/>
<text text-anchor="start" x="898.27" y="-451.82" font-family="Roboto, sans-serif" font-weight="bold" font-size="14.00">NEIN</text>
</g>
<!-- 10 -->
<g id="node20" class="node">
<title>10</title>
<path fill="#c2cee9" stroke="black" stroke-width="0" d="M1259.68,-413.23C1259.68,-413.23 900.88,-413.23 900.88,-413.23 894.88,-413.23 888.88,-407.23 888.88,-401.23 888.88,-401.23 888.88,-389.23 888.88,-389.23 888.88,-383.23 894.88,-377.23 900.88,-377.23 900.88,-377.23 1259.68,-377.23 1259.68,-377.23 1265.68,-377.23 1271.68,-383.23 1271.68,-389.23 1271.68,-389.23 1271.68,-401.23 1271.68,-401.23 1271.68,-407.23 1265.68,-413.23 1259.68,-413.23"/>
<text text-anchor="start" x="903.28" y="-391.55" font-family="Roboto, sans-serif" font-weight="bold" font-size="14.00">10: </text>
<text text-anchor="start" x="932.53" y="-391.55" font-family="Roboto, sans-serif" font-size="14.00">Ist der NB zur Aktivierung des ZRT berechtigt?</text>
</g>
<!-- 9&#45;&gt;10 -->
<g id="edge19" class="edge">
<title>9-&gt;10</title>
<path fill="none" stroke="#88a0d6" d="M998.03,-497.78C1014.07,-477.97 1040.75,-445.03 1059.36,-422.05"/>
<polygon fill="#88a0d6" stroke="#88a0d6" points="1062.02,-424.33 1065.59,-414.36 1056.58,-419.93 1062.02,-424.33"/>
<text text-anchor="start" x="1037.28" y="-451.82" font-family="Roboto, sans-serif" font-weight="bold" font-size="14.00">JA</text>
</g>
<!-- A10 -->
<g id="node21" class="node">
<title>A10</title>
<path fill="#c4cac1" stroke="black" stroke-width="0" d="M924.67,-308.34C924.67,-308.34 727.88,-308.34 727.88,-308.34 721.88,-308.34 715.88,-302.34 715.88,-296.34 715.88,-296.34 715.88,-253.06 715.88,-253.06 715.88,-247.06 721.88,-241.06 727.88,-241.06 727.88,-241.06 924.67,-241.06 924.67,-241.06 930.67,-241.06 936.67,-247.06 936.67,-253.06 936.67,-253.06 936.67,-296.34 936.67,-296.34 936.67,-302.34 930.67,-308.34 924.67,-308.34"/>
<text text-anchor="start" x="730.27" y="-287.4" font-family="Roboto, sans-serif" font-weight="bold" font-size="14.00">A10</text>
<text text-anchor="start" x="730.27" y="-275.3" font-family="Roboto, sans-serif" text-decoration="underline" font-size="12.00">Hinweis:</text>
<text text-anchor="start" x="730.27" y="-263.3" font-family="Roboto, sans-serif" font-size="12.00">Cluster: Ablehnung</text>
<text text-anchor="start" x="730.27" y="-251.3" font-family="Roboto, sans-serif" font-size="12.00">ZRT Aktivierung nicht berechtigt</text>
</g>
<!-- 10&#45;&gt;A10 -->
<g id="edge20" class="edge">
<title>10-&gt;A10</title>
<path fill="none" stroke="#88a0d6" d="M1043.88,-377.25C1008.17,-360.58 952.53,-334.62 906.44,-313.11"/>
<polygon fill="#88a0d6" stroke="#88a0d6" points="908.08,-310.01 897.54,-308.95 905.12,-316.35 908.08,-310.01"/>
<text text-anchor="start" x="968.27" y="-331.29" font-family="Roboto, sans-serif" font-weight="bold" font-size="14.00">NEIN</text>
</g>
<!-- 11 -->
<g id="node22" class="node">
<title>11</title>
<path fill="#c2cee9" stroke="black" stroke-width="0" d="M1290.05,-292.7C1290.05,-292.7 966.5,-292.7 966.5,-292.7 960.5,-292.7 954.5,-286.7 954.5,-280.7 954.5,-280.7 954.5,-268.7 954.5,-268.7 954.5,-262.7 960.5,-256.7 966.5,-256.7 966.5,-256.7 1290.05,-256.7 1290.05,-256.7 1296.05,-256.7 1302.05,-262.7 1302.05,-268.7 1302.05,-268.7 1302.05,-280.7 1302.05,-280.7 1302.05,-286.7 1296.05,-292.7 1290.05,-292.7"/>
<text text-anchor="start" x="968.9" y="-271.02" font-family="Roboto, sans-serif" font-weight="bold" font-size="14.00">11: </text>
<text text-anchor="start" x="998.15" y="-271.02" font-family="Roboto, sans-serif" font-size="14.00">Passt die Angabe des Mediums zum ZRT?</text>
</g>
<!-- 10&#45;&gt;11 -->
<g id="edge21" class="edge">
<title>10-&gt;11</title>
<path fill="none" stroke="#88a0d6" d="M1087.15,-377.25C1094.99,-357.88 1107.92,-325.95 1117.19,-303.07"/>
<polygon fill="#88a0d6" stroke="#88a0d6" points="1120.33,-304.64 1120.84,-294.05 1113.84,-302.01 1120.33,-304.64"/>
<text text-anchor="start" x="1106.28" y="-331.29" font-family="Roboto, sans-serif" font-weight="bold" font-size="14.00">JA</text>
</g>
<!-- A11 -->
<g id="node23" class="node">
<title>A11</title>
<path fill="#c4cac1" stroke="black" stroke-width="0" d="M864.8,-187.81C864.8,-187.81 725.75,-187.81 725.75,-187.81 719.75,-187.81 713.75,-181.81 713.75,-175.81 713.75,-175.81 713.75,-132.53 713.75,-132.53 713.75,-126.53 719.75,-120.53 725.75,-120.53 725.75,-120.53 864.8,-120.53 864.8,-120.53 870.8,-120.53 876.8,-126.53 876.8,-132.53 876.8,-132.53 876.8,-175.81 876.8,-175.81 876.8,-181.81 870.8,-187.81 864.8,-187.81"/>
<text text-anchor="start" x="728.15" y="-166.87" font-family="Roboto, sans-serif" font-weight="bold" font-size="14.00">A11</text>
<text text-anchor="start" x="728.15" y="-154.77" font-family="Roboto, sans-serif" text-decoration="underline" font-size="12.00">Hinweis:</text>
<text text-anchor="start" x="728.15" y="-142.77" font-family="Roboto, sans-serif" font-size="12.00">Cluster: Ablehnung</text>
<text text-anchor="start" x="728.15" y="-130.77" font-family="Roboto, sans-serif" font-size="12.00">Medium nicht passend</text>
</g>
<!-- 11&#45;&gt;A11 -->
<g id="edge22" class="edge">
<title>11-&gt;A11</title>
<path fill="none" stroke="#88a0d6" d="M1079.82,-256.71C1033.05,-240.27 959.93,-214.5 887.39,-188.56"/>
<polygon fill="#88a0d6" stroke="#88a0d6" points="888.72,-185.32 878.12,-185.24 886.36,-191.91 888.72,-185.32"/>
<text text-anchor="start" x="978.27" y="-210.76" font-family="Roboto, sans-serif" font-weight="bold" font-size="14.00">NEIN</text>
</g>
<!-- 12 -->
<g id="node24" class="node">
<title>12</title>
<path fill="#c2cee9" stroke="black" stroke-width="0" d="M1395.93,-172.17C1395.93,-172.17 906.63,-172.17 906.63,-172.17 900.63,-172.17 894.63,-166.17 894.63,-160.17 894.63,-160.17 894.63,-148.17 894.63,-148.17 894.63,-142.17 900.63,-136.17 906.63,-136.17 906.63,-136.17 1395.93,-136.17 1395.93,-136.17 1401.93,-136.17 1407.93,-142.17 1407.93,-148.17 1407.93,-148.17 1407.93,-160.17 1407.93,-160.17 1407.93,-166.17 1401.93,-172.17 1395.93,-172.17"/>
<text text-anchor="start" x="909.03" y="-150.5" font-family="Roboto, sans-serif" font-weight="bold" font-size="14.00">12: </text>
<text text-anchor="start" x="938.28" y="-150.5" font-family="Roboto, sans-serif" font-size="14.00">Ist der MaBiS-ZP zum Zeitpunkt der Aktivierung bereits aktiviert?</text>
</g>
<!-- 11&#45;&gt;12 -->
<g id="edge23" class="edge">
<title>11-&gt;12</title>
<path fill="none" stroke="#88a0d6" d="M1131.57,-256.72C1135.29,-237.53 1141.41,-206 1145.84,-183.16"/>
<polygon fill="#88a0d6" stroke="#88a0d6" points="1149.23,-184.09 1147.7,-173.61 1142.36,-182.76 1149.23,-184.09"/>
<text text-anchor="start" x="1140.28" y="-210.76" font-family="Roboto, sans-serif" font-weight="bold" font-size="14.00">JA</text>
</g>
<!-- A12 -->
<g id="node25" class="node">
<title>A12</title>
<path fill="#c4cac1" stroke="black" stroke-width="0" d="M1117.55,-67.28C1117.55,-67.28 959,-67.28 959,-67.28 953,-67.28 947,-61.28 947,-55.28 947,-55.28 947,-12 947,-12 947,-6 953,0 959,0 959,0 1117.55,0 1117.55,0 1123.55,0 1129.55,-6 1129.55,-12 1129.55,-12 1129.55,-55.28 1129.55,-55.28 1129.55,-61.28 1123.55,-67.28 1117.55,-67.28"/>
<text text-anchor="start" x="961.4" y="-46.34" font-family="Roboto, sans-serif" font-weight="bold" font-size="14.00">A12</text>
<text text-anchor="start" x="961.4" y="-34.24" font-family="Roboto, sans-serif" text-decoration="underline" font-size="12.00">Hinweis:</text>
<text text-anchor="start" x="961.4" y="-22.24" font-family="Roboto, sans-serif" font-size="12.00">Cluster: Ablehnung</text>
<text text-anchor="start" x="961.4" y="-10.24" font-family="Roboto, sans-serif" font-size="12.00">MaBiS-ZP bereits aktiviert</text>
</g>
<!-- 12&#45;&gt;A12 -->
<g id="edge24" class="edge">
<title>12-&gt;A12</title>
<path fill="none" stroke="#88a0d6" d="M1135.08,-136.19C1120,-120.36 1096.92,-96.15 1077.07,-75.34"/>
<polygon fill="#88a0d6" stroke="#88a0d6" points="1079.85,-73.17 1070.41,-68.35 1074.78,-78 1079.85,-73.17"/>
<text text-anchor="start" x="1101.28" y="-90.23" font-family="Roboto, sans-serif" font-weight="bold" font-size="14.00">JA</text>
</g>
<!-- A13 -->
<g id="node26" class="node">
<title>A13</title>
<path fill="#c4cac1" stroke="black" stroke-width="0" d="M1313.3,-67.28C1313.3,-67.28 1159.25,-67.28 1159.25,-67.28 1153.25,-67.28 1147.25,-61.28 1147.25,-55.28 1147.25,-55.28 1147.25,-12 1147.25,-12 1147.25,-6 1153.25,0 1159.25,0 1159.25,0 1313.3,0 1313.3,0 1319.3,0 1325.3,-6 1325.3,-12 1325.3,-12 1325.3,-55.28 1325.3,-55.28 1325.3,-61.28 1319.3,-67.28 1313.3,-67.28"/>
<text text-anchor="start" x="1161.65" y="-46.34" font-family="Roboto, sans-serif" font-weight="bold" font-size="14.00">A13</text>
<text text-anchor="start" x="1161.65" y="-34.24" font-family="Roboto, sans-serif" text-decoration="underline" font-size="12.00">Hinweis:</text>
<text text-anchor="start" x="1161.65" y="-22.24" font-family="Roboto, sans-serif" font-size="12.00">Cluster: Zustimmung</text>
<text text-anchor="start" x="1161.65" y="-10.24" font-family="Roboto, sans-serif" font-size="12.00">Aktivierung durchgef&#252;hrt</text>
</g>
<!-- 12&#45;&gt;A13 -->
<g id="edge25" class="edge">
<title>12-&gt;A13</title>
<path fill="none" stroke="#88a0d6" d="M1163.45,-136.19C1174.6,-120.64 1191.55,-97.01 1206.3,-76.44"/>
<polygon fill="#88a0d6" stroke="#88a0d6" points="1209.02,-78.65 1212,-68.48 1203.33,-74.57 1209.02,-78.65"/>
<text text-anchor="start" x="1198.28" y="-90.23" font-family="Roboto, sans-serif" font-weight="bold" font-size="14.00">NEIN</text>
</g>
</g>
</svg>
  </g>
</svg>
  </g>
</svg>
