<?xml version="1.0" encoding="UTF-8" standalone="no"?>
<!DOCTYPE svg PUBLIC "-//W3C//DTD SVG 1.1//EN"
 "http://www.w3.org/Graphics/SVG/1.1/DTD/svg11.dtd">
<!-- Generated by graphviz version 7.0.5 (20221223.1930)
 -->
<!-- Title: D Pages: 1 -->
<svg width="1158pt" height="449pt"
 viewBox="0.00 0.00 1157.50 449.00" xmlns="http://www.w3.org/2000/svg" xmlns:xlink="http://www.w3.org/1999/xlink">
<g id="graph0" class="graph" transform="scale(1 1) rotate(0) translate(4 445)">
<title>D</title>
<polygon fill="white" stroke="none" points="-4,4 -4,-445 1153.5,-445 1153.5,4 -4,4"/>
<text text-anchor="start" x="492.75" y="-423.6" font-family="Times,serif" font-weight="bold" font-size="18.00">Dummy Chapter</text>
<text text-anchor="start" x="484.75" y="-393.2" font-family="Times,serif" font-weight="bold" font-size="16.00">Dummy Subchapter</text>
<!-- Start -->
<g id="node1" class="node">
<title>Start</title>
<polygon fill="#7a8da1" stroke="black" points="428,-343 259,-343 259,-299 428,-299 428,-343"/>
<text text-anchor="start" x="315" y="-323.8" font-family="Times,serif" font-weight="bold" font-size="14.00">E_0063</text>
<text text-anchor="start" x="273" y="-311.4" font-family="Times,serif" font-weight="bold" text-decoration="underline" font-size="12.00">Prüfende Rolle:</text>
<text text-anchor="start" x="379" y="-311.4" font-family="Times,serif" font-weight="bold" font-size="12.00"> BKV</text>
</g>
<!-- 1 -->
<g id="node2" class="node">
<title>1</title>
<path fill="#7aab8a" stroke="black" d="M675,-262C675,-262 12,-262 12,-262 6,-262 0,-256 0,-250 0,-250 0,-238 0,-238 0,-232 6,-226 12,-226 12,-226 675,-226 675,-226 681,-226 687,-232 687,-238 687,-238 687,-250 687,-250 687,-256 681,-262 675,-262"/>
<text text-anchor="start" x="14" y="-241.3" font-family="Times,serif" font-weight="bold" font-size="14.00">1: </text>
<text text-anchor="start" x="34" y="-241.3" font-family="Times,serif" font-size="14.00">Liegt die Version der Zeitreihe des MaBiS&#45;ZP für diesen Bilanzierungsmonat bereits vor?</text>
</g>
<!-- Start&#45;&gt;1 -->
<g id="edge1" class="edge">
<title>Start&#45;&gt;1</title>
<path fill="none" stroke="black" d="M343.5,-298.71C343.5,-290.82 343.5,-281.75 343.5,-273.33"/>
<polygon fill="black" stroke="black" points="347,-273.57 343.5,-263.57 340,-273.57 347,-273.57"/>
</g>
<!-- A01 -->
<g id="node3" class="node">
<title>A01</title>
<polygon fill="#cca9ab" stroke="black" points="421.5,-175 229.5,-175 229.5,-113 421.5,-113 421.5,-175"/>
<text text-anchor="start" x="310" y="-158.8" font-family="Times,serif" font-weight="bold" font-size="14.00">A01</text>
<text text-anchor="start" x="241.5" y="-146.4" font-family="Times,serif" text-decoration="underline" font-size="12.00">Hinweis:</text>
<text text-anchor="start" x="241.5" y="-134.4" font-family="Times,serif" font-size="12.00">Cluster: Abweisung</text>
<text text-anchor="start" x="241.5" y="-122.4" font-family="Times,serif" font-size="12.00">Zeitreihe bereits vorhanden</text>
</g>
<!-- 1&#45;&gt;A01 -->
<g id="edge2" class="edge">
<title>1&#45;&gt;A01</title>
<path fill="none" stroke="black" d="M340.36,-225.93C338.37,-215.05 335.68,-200.44 333.15,-186.64"/>
<polygon fill="black" stroke="black" points="336.59,-186.02 331.34,-176.82 329.71,-187.28 336.59,-186.02"/>
<text text-anchor="middle" x="344.5" y="-196.8" font-family="Times,serif" font-size="14.00">Ja</text>
</g>
<!-- 2 -->
<g id="node4" class="node">
<title>2</title>
<path fill="#7aab8a" stroke="black" d="M1137.5,-162C1137.5,-162 451.5,-162 451.5,-162 445.5,-162 439.5,-156 439.5,-150 439.5,-150 439.5,-138 439.5,-138 439.5,-132 445.5,-126 451.5,-126 451.5,-126 1137.5,-126 1137.5,-126 1143.5,-126 1149.5,-132 1149.5,-138 1149.5,-138 1149.5,-150 1149.5,-150 1149.5,-156 1143.5,-162 1137.5,-162"/>
<text text-anchor="start" x="453.5" y="-141.3" font-family="Times,serif" font-weight="bold" font-size="14.00">2: </text>
<text text-anchor="start" x="473.5" y="-141.3" font-family="Times,serif" font-size="14.00">Entsprechen die Energiemengen der BK&#45;SZR (Kategorie A) den erwarteten Energiemengen?</text>
</g>
<!-- 1&#45;&gt;2 -->
<g id="edge3" class="edge">
<title>1&#45;&gt;2</title>
<path fill="none" stroke="black" d="M423.87,-225.54C502.19,-208.52 621.14,-182.67 703.04,-164.87"/>
<polygon fill="black" stroke="black" points="703.59,-168.34 712.61,-162.79 702.1,-161.5 703.59,-168.34"/>
<text text-anchor="middle" x="586.5" y="-196.8" font-family="Times,serif" font-size="14.00">Nein</text>
</g>
<!-- A02 -->
<g id="node5" class="node">
<title>A02</title>
<polygon fill="#cca9ab" stroke="black" points="809.5,-62 559.5,-62 559.5,0 809.5,0 809.5,-62"/>
<text text-anchor="start" x="669" y="-45.8" font-family="Times,serif" font-weight="bold" font-size="14.00">A02</text>
<text text-anchor="start" x="571.5" y="-33.4" font-family="Times,serif" text-decoration="underline" font-size="12.00">Hinweis:</text>
<text text-anchor="start" x="571.5" y="-21.4" font-family="Times,serif" font-size="12.00">Cluster: Ablehnung</text>
<text text-anchor="start" x="571.5" y="-9.4" font-family="Times,serif" font-size="12.00">Energiemenge falsch / nicht plausibel</text>
</g>
<!-- 2&#45;&gt;A02 -->
<g id="edge4" class="edge">
<title>2&#45;&gt;A02</title>
<path fill="none" stroke="black" d="M777.31,-125.66C762.68,-110.89 741.13,-89.14 722.47,-70.32"/>
<polygon fill="black" stroke="black" points="725,-67.9 715.48,-63.26 720.03,-72.83 725,-67.9"/>
<text text-anchor="middle" x="763.5" y="-83.8" font-family="Times,serif" font-size="14.00">Nein</text>
</g>
<!-- A03 -->
<g id="node6" class="node">
<title>A03</title>
<polygon fill="#cca9ab" stroke="black" points="979,-62 828,-62 828,0 979,0 979,-62"/>
<text text-anchor="start" x="888" y="-45.8" font-family="Times,serif" font-weight="bold" font-size="14.00">A03</text>
<text text-anchor="start" x="840" y="-33.4" font-family="Times,serif" text-decoration="underline" font-size="12.00">Hinweis:</text>
<text text-anchor="start" x="840" y="-21.4" font-family="Times,serif" font-size="12.00">Cluster: Zustimmung</text>
<text text-anchor="start" x="840" y="-9.4" font-family="Times,serif" font-size="12.00">Zeitreihe akzeptiert</text>
</g>
<!-- 2&#45;&gt;A03 -->
<g id="edge5" class="edge">
<title>2&#45;&gt;A03</title>
<path fill="none" stroke="black" d="M811.53,-125.66C826.03,-110.89 847.39,-89.14 865.87,-70.32"/>
<polygon fill="black" stroke="black" points="868.29,-72.85 872.8,-63.26 863.29,-67.95 868.29,-72.85"/>
<text text-anchor="middle" x="862.5" y="-83.8" font-family="Times,serif" font-size="14.00">Ja</text>
</g>
</g>
</svg>
