<?xml version="1.0" encoding="UTF-8" standalone="no"?>
<!DOCTYPE svg PUBLIC "-//W3C//DTD SVG 1.1//EN"
 "http://www.w3.org/Graphics/SVG/1.1/DTD/svg11.dtd">
<!-- Generated by graphviz version 7.0.5 (20221223.1930)
 -->
<!-- Title: D Pages: 1 -->
<svg width="654pt" height="324pt"
 viewBox="0.00 0.00 654.00 324.00" xmlns="http://www.w3.org/2000/svg" xmlns:xlink="http://www.w3.org/1999/xlink">
<g id="graph0" class="graph" transform="scale(1 1) rotate(0) translate(4 320)">
<title>D</title>
<polygon fill="white" stroke="none" points="-4,4 -4,-320 650,-320 650,4 -4,4"/>
<text text-anchor="start" x="241" y="-298.6" font-family="Times,serif" font-weight="bold" font-size="18.00">Dummy Chapter</text>
<text text-anchor="start" x="233" y="-268.2" font-family="Times,serif" font-weight="bold" font-size="16.00">Dummy Subchapter</text>
<!-- Start -->
<g id="node1" class="node">
<title>Start</title>
<polygon fill="#7a8da1" stroke="black" points="410.5,-218 235.5,-218 235.5,-174 410.5,-174 410.5,-218"/>
<text text-anchor="start" x="294.5" y="-198.8" font-family="Times,serif" font-weight="bold" font-size="14.00">E_0019</text>
<text text-anchor="start" x="249.5" y="-186.4" font-family="Times,serif" font-weight="bold" text-decoration="underline" font-size="12.00">Pr端fende Rolle:</text>
<text text-anchor="start" x="355.5" y="-186.4" font-family="Times,serif" font-weight="bold" font-size="12.00"> BIKO</text>
</g>
<!-- 1 -->
<g id="node2" class="node">
<title>1</title>
<path fill="#7aab8a" stroke="black" d="M634,-137C634,-137 12,-137 12,-137 6,-137 0,-131 0,-125 0,-125 0,-113 0,-113 0,-107 6,-101 12,-101 12,-101 634,-101 634,-101 640,-101 646,-107 646,-113 646,-113 646,-125 646,-125 646,-131 640,-137 634,-137"/>
<text text-anchor="start" x="14" y="-116.3" font-family="Times,serif" font-weight="bold" font-size="14.00">1: </text>
<text text-anchor="start" x="34" y="-116.3" font-family="Times,serif" font-size="14.00">Erfolgt der Eingang der Pr端fmitteilung nach Ablauf der Clearingfrist f端r die KBKA?</text>
</g>
<!-- Start&#45;&gt;1 -->
<g id="edge1" class="edge">
<title>Start&#45;&gt;1</title>
<path fill="none" stroke="black" d="M323,-173.71C323,-165.82 323,-156.75 323,-148.33"/>
<polygon fill="black" stroke="black" points="326.5,-148.57 323,-138.57 319.5,-148.57 326.5,-148.57"/>
</g>
<!-- A01 -->
<g id="node3" class="node">
<title>A01</title>
<polygon fill="#cca9ab" stroke="black" points="334.5,-50 189.5,-50 189.5,0 334.5,0 334.5,-50"/>
<text text-anchor="start" x="246.5" y="-33.8" font-family="Times,serif" font-weight="bold" font-size="14.00">A01</text>
<text text-anchor="start" x="201.5" y="-21.4" font-family="Times,serif" text-decoration="underline" font-size="12.00">Hinweis:</text>
<text text-anchor="start" x="201.5" y="-9.4" font-family="Times,serif" font-size="12.00">Frist端berschreitung</text>
</g>
<!-- 1&#45;&gt;A01 -->
<g id="edge2" class="edge">
<title>1&#45;&gt;A01</title>
<path fill="none" stroke="black" d="M311.53,-100.7C303.84,-89.11 293.48,-73.47 284.22,-59.51"/>
<polygon fill="black" stroke="black" points="287.31,-57.83 278.86,-51.43 281.47,-61.7 287.31,-57.83"/>
<text text-anchor="middle" x="307" y="-71.8" font-family="Times,serif" font-size="14.00">Ja</text>
</g>
<!-- Ende -->
<g id="node4" class="node">
<title>Ende</title>
<polygon fill="#7a8da1" stroke="black" points="417.5,-43 352.5,-43 352.5,-7 417.5,-7 417.5,-43"/>
<text text-anchor="middle" x="385" y="-21.3" font-family="Times,serif" font-size="14.00">Ende</text>
</g>
<!-- 1&#45;&gt;Ende -->
<g id="edge3" class="edge">
<title>1&#45;&gt;Ende</title>
<path fill="none" stroke="black" d="M334.66,-100.7C343.84,-87.07 356.79,-67.86 367.25,-52.34"/>
<polygon fill="black" stroke="black" points="369.86,-54.73 372.54,-44.48 364.05,-50.82 369.86,-54.73"/>
<text text-anchor="middle" x="372" y="-71.8" font-family="Times,serif" font-size="14.00">Nein</text>
</g>
</g>
</svg>
