<?xml version='1.0' encoding='ASCII' standalone='yes'?>
<svg xmlns="http://www.w3.org/2000/svg" xmlns:xlink="http://www.w3.org/1999/xlink" version="1.1" width="1560.0px" viewBox="0 0 1560.0 441.3333333333333" height="441.3333333333333px">
  <g>
    <svg version="1.1" width="1560.0px" viewBox="0 0 1560.0 441.3333333333333" height="441.3333333333333px">
  <rect fill="#e7e6e5" x="0" y="0" width="1560.0" height="441.3333333333333" rx="20" ry="20"/><g>
    <g transform="translate(600.0239932413405, 44.13333333333332) scale(1 1) translate(0, 0) scale(0.6214211959072562 0.6214211959072562) "><!-- note that I manually added the width and height attribute to the root node
  https://chatgpt.com/share/678e3028-70cc-800b-a296-782714735772
  -->
  <defs>
    <style>.cls-1{fill:#fff;}</style>
  </defs>
  <path class="cls-1" d="M122.44,531.2h-56.1c-11,0-19.9-9.12-19.46-20.11C57.47,243.89,278.15,29.78,547.91,29.78v56.02c0,10.98-8.69,19.89-19.66,20.39-225.51,10.31-405.8,197-405.8,425Z"/>
  <path class="cls-1" d="M273.78,531.2h-55.93c-11.23,0-20.09-9.48-19.43-20.69,10.74-183.44,163.39-329.39,349.48-329.39v56.26c0,10.71-8.27,19.62-18.96,20.35-142.35,9.77-255.17,128.69-255.17,273.46Z"/>
  <path class="cls-1" d="M425.77,531.2h-55.45c-11.65,0-20.6-10.17-19.33-21.75,10.87-99.03,95.03-176.34,196.92-176.34v57.01c0,10.05-7.28,18.75-17.23,20.16-59.22,8.4-104.91,59.42-104.91,120.92Z"/>
</g>
    <svg width="1170pt" height="331pt" viewBox="0.00 0.00 1170.00 330.81">
<g id="graph0" class="graph" transform="scale(1 1) rotate(0) translate(4 326.81)">
<title>D</title>
<text text-anchor="start" x="8" y="-302.71" font-family="Roboto, sans-serif" font-weight="bold" font-size="18.00">MaBiS</text>
<text text-anchor="start" x="8" y="-272.61" font-family="Roboto, sans-serif" font-weight="bold" font-size="16.00">7.68.2: AD: &#220;bermittlung Pr&#252;fmitteilung f&#252;r die monatliche Ausfallarbeits&#252;berf&#252;hrungszeitreihe (AA&#220;Z) vom BKV (anfNB) an NB</text>
<!-- Start -->
<g id="node1" class="node">
<title>Start</title>
<path fill="#8ba2d7" stroke="black" stroke-width="0" d="M653.9,-224.81C653.9,-224.81 508.1,-224.81 508.1,-224.81 502.1,-224.81 496.1,-218.81 496.1,-212.81 496.1,-212.81 496.1,-193.53 496.1,-193.53 496.1,-187.53 502.1,-181.53 508.1,-181.53 508.1,-181.53 653.9,-181.53 653.9,-181.53 659.9,-181.53 665.9,-187.53 665.9,-193.53 665.9,-193.53 665.9,-212.81 665.9,-212.81 665.9,-218.81 659.9,-224.81 653.9,-224.81"/>
<text text-anchor="start" x="510.5" y="-203.87" font-family="Roboto, sans-serif" font-weight="bold" font-size="14.00">E_0081</text>
<text text-anchor="start" x="510.5" y="-191.77" font-family="Roboto, sans-serif" font-weight="bold" text-decoration="underline" font-size="12.00">Pr&#252;fende Rolle:</text>
<text text-anchor="start" x="614" y="-191.77" font-family="Roboto, sans-serif" font-weight="bold" font-size="12.00"> BIKO</text>
</g>
<!-- 1 -->
<g id="node2" class="node">
<title>1</title>
<path fill="#c2cee9" stroke="black" stroke-width="0" d="M879.27,-144.53C879.27,-144.53 282.73,-144.53 282.73,-144.53 276.73,-144.53 270.73,-138.53 270.73,-132.53 270.73,-132.53 270.73,-120.53 270.73,-120.53 270.73,-114.53 276.73,-108.53 282.73,-108.53 282.73,-108.53 879.27,-108.53 879.27,-108.53 885.27,-108.53 891.27,-114.53 891.27,-120.53 891.27,-120.53 891.27,-132.53 891.27,-132.53 891.27,-138.53 885.27,-144.53 879.27,-144.53"/>
<text text-anchor="start" x="285.12" y="-122.86" font-family="Roboto, sans-serif" font-weight="bold" font-size="14.00">1: </text>
<text text-anchor="start" x="304.62" y="-122.86" font-family="Roboto, sans-serif" font-size="14.00">Erfolgt der Eingang der Pr&#252;fmitteilung nach Ablauf der Clearingfrist f&#252;r die KBKA?</text>
</g>
<!-- Start&#45;&gt;1 -->
<g id="edge1" class="edge">
<title>Start-&gt;1</title>
<path fill="none" stroke="#88a0d6" d="M581,-181.77C581,-173.7 581,-164.29 581,-155.6"/>
<polygon fill="#88a0d6" stroke="#88a0d6" points="584.5,-155.89 581,-145.89 577.5,-155.89 584.5,-155.89"/>
</g>
<!-- A01 -->
<g id="node3" class="node">
<title>A01</title>
<path fill="#c4cac1" stroke="black" stroke-width="0" d="M579.77,-55.28C579.77,-55.28 460.23,-55.28 460.23,-55.28 454.23,-55.28 448.23,-49.28 448.23,-43.28 448.23,-43.28 448.23,-12 448.23,-12 448.23,-6 454.23,0 460.23,0 460.23,0 579.77,0 579.77,0 585.77,0 591.77,-6 591.77,-12 591.77,-12 591.77,-43.28 591.77,-43.28 591.77,-49.28 585.77,-55.28 579.77,-55.28"/>
<text text-anchor="start" x="462.62" y="-34.34" font-family="Roboto, sans-serif" font-weight="bold" font-size="14.00">A01</text>
<text text-anchor="start" x="462.62" y="-22.24" font-family="Roboto, sans-serif" text-decoration="underline" font-size="12.00">Hinweis:</text>
<text text-anchor="start" x="462.62" y="-10.24" font-family="Roboto, sans-serif" font-size="12.00">Frist&#252;berschreitung</text>
</g>
<!-- 1&#45;&gt;A01 -->
<g id="edge2" class="edge">
<title>1-&gt;A01</title>
<path fill="none" stroke="#88a0d6" d="M570.37,-108.65C562.76,-96.56 552.21,-79.81 542.74,-64.76"/>
<polygon fill="#88a0d6" stroke="#88a0d6" points="545.8,-63.06 537.52,-56.46 539.88,-66.79 545.8,-63.06"/>
<text text-anchor="start" x="557" y="-78.23" font-family="Roboto, sans-serif" font-weight="bold" font-size="14.00">JA</text>
</g>
<!-- Ende -->
<g id="node4" class="node">
<title>Ende</title>
<path fill="#8ba2d7" stroke="black" stroke-width="0" d="M662.02,-45.64C662.02,-45.64 621.98,-45.64 621.98,-45.64 615.98,-45.64 609.98,-39.64 609.98,-33.64 609.98,-33.64 609.98,-21.64 609.98,-21.64 609.98,-15.64 615.98,-9.64 621.98,-9.64 621.98,-9.64 662.02,-9.64 662.02,-9.64 668.02,-9.64 674.02,-15.64 674.02,-21.64 674.02,-21.64 674.02,-33.64 674.02,-33.64 674.02,-39.64 668.02,-45.64 662.02,-45.64"/>
<text text-anchor="middle" x="642" y="-22.96" font-family="Roboto, sans-serif" font-size="14.00">Ende</text>
</g>
<!-- 1&#45;&gt;Ende -->
<g id="edge3" class="edge">
<title>1-&gt;Ende</title>
<path fill="none" stroke="#88a0d6" d="M591.63,-108.65C600.98,-93.79 614.77,-71.9 625.55,-54.77"/>
<polygon fill="#88a0d6" stroke="#88a0d6" points="628.32,-56.93 630.69,-46.6 622.4,-53.2 628.32,-56.93"/>
<text text-anchor="start" x="613" y="-78.23" font-family="Roboto, sans-serif" font-weight="bold" font-size="14.00">NEIN</text>
</g>
</g>
</svg>
  </g>
</svg>
  </g>
</svg>
