<?xml version='1.0' encoding='ASCII' standalone='yes'?>
<svg xmlns="http://www.w3.org/2000/svg" xmlns:xlink="http://www.w3.org/1999/xlink" version="1.1" width="1481.3333333333333px" viewBox="0 0 1481.3333333333333 1258.6666666666667" height="1258.6666666666667px">
  <g>
    <svg version="1.1" width="1481.3333333333333px" viewBox="0 0 1481.3333333333333 1258.6666666666667" height="1258.6666666666667px">
  <polygon fill="#f3f1f6" points="0,0 1481.3333333333333,0 1481.3333333333333,1258.6666666666667 0,1258.6666666666667"/><g>
    <g transform="translate(227.38162020088225, 125.86666666666665) scale(1 1) translate(0, 0) scale(1.7722707218623863 1.7722707218623863) "><!-- note that I manually added the width and height attribute to the root node
  https://chatgpt.com/share/678e3028-70cc-800b-a296-782714735772
  -->
  <defs>
    <style>.cls-1{fill:#fff;}</style>
  </defs>
  <path class="cls-1" d="M122.44,531.2h-56.1c-11,0-19.9-9.12-19.46-20.11C57.47,243.89,278.15,29.78,547.91,29.78v56.02c0,10.98-8.69,19.89-19.66,20.39-225.51,10.31-405.8,197-405.8,425Z"/>
  <path class="cls-1" d="M273.78,531.2h-55.93c-11.23,0-20.09-9.48-19.43-20.69,10.74-183.44,163.39-329.39,349.48-329.39v56.26c0,10.71-8.27,19.62-18.96,20.35-142.35,9.77-255.17,128.69-255.17,273.46Z"/>
  <path class="cls-1" d="M425.77,531.2h-55.45c-11.65,0-20.6-10.17-19.33-21.75,10.87-99.03,95.03-176.34,196.92-176.34v57.01c0,10.05-7.28,18.75-17.23,20.16-59.22,8.4-104.91,59.42-104.91,120.92Z"/>
</g>
    <svg width="1111pt" height="944pt" viewBox="0.00 0.00 1110.61 944.18">
<g id="graph0" class="graph" transform="scale(1 1) rotate(0) translate(4 940.18)">
<title>D</title>
<text text-anchor="start" x="197.68" y="-916.08" font-family="Times,serif" font-weight="bold" font-size="18.00">MaBiS</text>
<text text-anchor="start" x="197.68" y="-885.98" font-family="Times,serif" font-weight="bold" font-size="16.00">7.8.1: AD: Zuordnung einer Netzgangzeitreihe zu einer Netzzeitreihe beim NB</text>
<!-- Start -->
<g id="node1" class="node">
<title>Start</title>
<path fill="#7a8da1" stroke="black" stroke-width="0" d="M489.39,-838.18C489.39,-838.18 353.34,-838.18 353.34,-838.18 347.34,-838.18 341.34,-832.18 341.34,-826.18 341.34,-826.18 341.34,-806.9 341.34,-806.9 341.34,-800.9 347.34,-794.9 353.34,-794.9 353.34,-794.9 489.39,-794.9 489.39,-794.9 495.39,-794.9 501.39,-800.9 501.39,-806.9 501.39,-806.9 501.39,-826.18 501.39,-826.18 501.39,-832.18 495.39,-838.18 489.39,-838.18"/>
<text text-anchor="start" x="393.24" y="-817.24" font-family="Times,serif" font-weight="bold" font-size="14.00">E_0102</text>
<text text-anchor="start" x="355.74" y="-805.14" font-family="Times,serif" font-weight="bold" text-decoration="underline" font-size="12.00">Pr&#252;fende Rolle:</text>
<text text-anchor="start" x="460.74" y="-805.14" font-family="Times,serif" font-weight="bold" font-size="12.00"> NB</text>
</g>
<!-- 1 -->
<g id="node2" class="node">
<title>1</title>
<path fill="#7aab8a" stroke="black" stroke-width="0" d="M681.01,-757.9C681.01,-757.9 161.72,-757.9 161.72,-757.9 155.72,-757.9 149.72,-751.9 149.72,-745.9 149.72,-745.9 149.72,-724.62 149.72,-724.62 149.72,-718.62 155.72,-712.62 161.72,-712.62 161.72,-712.62 681.01,-712.62 681.01,-712.62 687.01,-712.62 693.01,-718.62 693.01,-724.62 693.01,-724.62 693.01,-745.9 693.01,-745.9 693.01,-751.9 687.01,-757.9 681.01,-757.9"/>
<text text-anchor="start" x="164.12" y="-736.96" font-family="Times,serif" font-weight="bold" font-size="14.00">1: </text>
<text text-anchor="start" x="183.62" y="-736.96" font-family="Times,serif" font-size="14.00">Wird die ID der Netzgangzeitreihe bereits f&#252;r die Identifikation eines</text>
<text text-anchor="start" x="164.12" y="-722.96" font-family="Times,serif" font-size="14.00">Nicht-MaBiS-ZP verwendet?</text>
</g>
<!-- Start&#45;&gt;1 -->
<g id="edge1" class="edge">
<title>Start-&gt;1</title>
<path fill="none" stroke="black" d="M421.37,-795.12C421.37,-787.15 421.37,-777.8 421.37,-768.94"/>
<polygon fill="black" stroke="black" points="424.87,-769.23 421.37,-759.23 417.87,-769.23 424.87,-769.23"/>
</g>
<!-- A01 -->
<g id="node3" class="node">
<title>A01</title>
<path fill="#cfb986" stroke="black" stroke-width="0" d="M248.73,-659.37C248.73,-659.37 12,-659.37 12,-659.37 6,-659.37 0,-653.37 0,-647.37 0,-647.37 0,-609.85 0,-609.85 0,-603.85 6,-597.85 12,-597.85 12,-597.85 248.73,-597.85 248.73,-597.85 254.73,-597.85 260.73,-603.85 260.73,-609.85 260.73,-609.85 260.73,-647.37 260.73,-647.37 260.73,-653.37 254.73,-659.37 248.73,-659.37"/>
<text text-anchor="start" x="12.24" y="-641.31" font-family="Times,serif" font-weight="bold" font-size="14.00">A01</text>
<text text-anchor="start" x="12.24" y="-629.21" font-family="Times,serif" text-decoration="underline" font-size="12.00">Hinweis:</text>
<text text-anchor="start" x="12.24" y="-617.21" font-family="Times,serif" font-size="12.00">Cluster: Ablehnung</text>
<text text-anchor="start" x="12.24" y="-605.21" font-family="Times,serif" font-size="12.00">ID bereits au&#223;erhalb MaBiS verwendet</text>
</g>
<!-- 1&#45;&gt;A01 -->
<g id="edge2" class="edge">
<title>1-&gt;A01</title>
<path fill="none" stroke="#7aab8a" d="M361.42,-712.7C321.68,-698.41 268.74,-679.37 223.55,-663.12"/>
<polygon fill="#7aab8a" stroke="#7aab8a" points="224.87,-659.87 214.27,-659.78 222.5,-666.46 224.87,-659.87"/>
<text text-anchor="start" x="310.37" y="-682.32" font-family="Times,serif" font-weight="bold" font-size="14.00">JA</text>
</g>
<!-- 2 -->
<g id="node4" class="node">
<title>2</title>
<path fill="#7aab8a" stroke="black" stroke-width="0" d="M855.89,-651.25C855.89,-651.25 290.84,-651.25 290.84,-651.25 284.84,-651.25 278.84,-645.25 278.84,-639.25 278.84,-639.25 278.84,-617.97 278.84,-617.97 278.84,-611.97 284.84,-605.97 290.84,-605.97 290.84,-605.97 855.89,-605.97 855.89,-605.97 861.89,-605.97 867.89,-611.97 867.89,-617.97 867.89,-617.97 867.89,-639.25 867.89,-639.25 867.89,-645.25 861.89,-651.25 855.89,-651.25"/>
<text text-anchor="start" x="293.24" y="-630.31" font-family="Times,serif" font-weight="bold" font-size="14.00">2: </text>
<text text-anchor="start" x="312.74" y="-630.31" font-family="Times,serif" font-size="14.00">Entspricht die Zuordnung der Netzgangzeitreihe zur Netzzeitreihe der</text>
<text text-anchor="start" x="293.24" y="-616.31" font-family="Times,serif" font-size="14.00">Vereinbarung zur messtechnischen Abgrenzung der beiden benachbarten NB?</text>
</g>
<!-- 1&#45;&gt;2 -->
<g id="edge3" class="edge">
<title>1-&gt;2</title>
<path fill="none" stroke="#7aab8a" d="M452.49,-712.83C475.67,-696.87 507.53,-674.93 532.72,-657.59"/>
<polygon fill="#7aab8a" stroke="#7aab8a" points="534.52,-660.6 540.77,-652.05 530.55,-654.84 534.52,-660.6"/>
<text text-anchor="start" x="501.37" y="-682.32" font-family="Times,serif" font-weight="bold" font-size="14.00">NEIN</text>
</g>
<!-- A02 -->
<g id="node5" class="node">
<title>A02</title>
<path fill="#cfb986" stroke="black" stroke-width="0" d="M280.86,-544.6C280.86,-544.6 35.88,-544.6 35.88,-544.6 29.88,-544.6 23.88,-538.6 23.88,-532.6 23.88,-532.6 23.88,-495.08 23.88,-495.08 23.88,-489.08 29.88,-483.08 35.88,-483.08 35.88,-483.08 280.86,-483.08 280.86,-483.08 286.86,-483.08 292.86,-489.08 292.86,-495.08 292.86,-495.08 292.86,-532.6 292.86,-532.6 292.86,-538.6 286.86,-544.6 280.86,-544.6"/>
<text text-anchor="start" x="36.12" y="-526.54" font-family="Times,serif" font-weight="bold" font-size="14.00">A02</text>
<text text-anchor="start" x="36.12" y="-514.44" font-family="Times,serif" text-decoration="underline" font-size="12.00">Hinweis:</text>
<text text-anchor="start" x="36.12" y="-502.44" font-family="Times,serif" font-size="12.00">Cluster: Ablehnung</text>
<text text-anchor="start" x="36.12" y="-490.44" font-family="Times,serif" font-size="12.00">Zuordnung passt nicht zur Vereinbarung</text>
</g>
<!-- 2&#45;&gt;A02 -->
<g id="edge4" class="edge">
<title>2-&gt;A02</title>
<path fill="none" stroke="#7aab8a" d="M493.84,-606C432.96,-589.46 347.97,-566.36 278.77,-547.56"/>
<polygon fill="#7aab8a" stroke="#7aab8a" points="279.84,-544.22 269.27,-544.98 278,-550.98 279.84,-544.22"/>
<text text-anchor="start" x="390.37" y="-567.55" font-family="Times,serif" font-weight="bold" font-size="14.00">NEIN</text>
</g>
<!-- 3 -->
<g id="node6" class="node">
<title>3</title>
<path fill="#7aab8a" stroke="black" stroke-width="0" d="M863.89,-531.84C863.89,-531.84 322.84,-531.84 322.84,-531.84 316.84,-531.84 310.84,-525.84 310.84,-519.84 310.84,-519.84 310.84,-507.84 310.84,-507.84 310.84,-501.84 316.84,-495.84 322.84,-495.84 322.84,-495.84 863.89,-495.84 863.89,-495.84 869.89,-495.84 875.89,-501.84 875.89,-507.84 875.89,-507.84 875.89,-519.84 875.89,-519.84 875.89,-525.84 869.89,-531.84 863.89,-531.84"/>
<text text-anchor="start" x="325.24" y="-510.17" font-family="Times,serif" font-weight="bold" font-size="14.00">3: </text>
<text text-anchor="start" x="344.74" y="-510.17" font-family="Times,serif" font-size="14.00">Ist der Absender zum Zuordnungsbeginn an der Netzzeitreihe beteiligt?</text>
</g>
<!-- 2&#45;&gt;3 -->
<g id="edge5" class="edge">
<title>2-&gt;3</title>
<path fill="none" stroke="#7aab8a" d="M577.17,-606.13C580.35,-588.25 584.89,-562.63 588.36,-543.08"/>
<polygon fill="#7aab8a" stroke="#7aab8a" points="591.79,-543.77 590.09,-533.31 584.9,-542.55 591.79,-543.77"/>
<text text-anchor="start" x="584.37" y="-567.55" font-family="Times,serif" font-weight="bold" font-size="14.00">JA</text>
</g>
<!-- A03 -->
<g id="node7" class="node">
<title>A03</title>
<path fill="#cfb986" stroke="black" stroke-width="0" d="M294.23,-429.83C294.23,-429.83 48.5,-429.83 48.5,-429.83 42.5,-429.83 36.5,-423.83 36.5,-417.83 36.5,-417.83 36.5,-380.31 36.5,-380.31 36.5,-374.31 42.5,-368.31 48.5,-368.31 48.5,-368.31 294.23,-368.31 294.23,-368.31 300.23,-368.31 306.23,-374.31 306.23,-380.31 306.23,-380.31 306.23,-417.83 306.23,-417.83 306.23,-423.83 300.23,-429.83 294.23,-429.83"/>
<text text-anchor="start" x="48.74" y="-411.77" font-family="Times,serif" font-weight="bold" font-size="14.00">A03</text>
<text text-anchor="start" x="48.74" y="-399.67" font-family="Times,serif" text-decoration="underline" font-size="12.00">Hinweis:</text>
<text text-anchor="start" x="48.74" y="-387.67" font-family="Times,serif" font-size="12.00">Cluster: Ablehnung</text>
<text text-anchor="start" x="48.74" y="-375.67" font-family="Times,serif" font-size="12.00">Keine Berechtigung f&#252;r die Netzzeitreihe</text>
</g>
<!-- 3&#45;&gt;A03 -->
<g id="edge6" class="edge">
<title>3-&gt;A03</title>
<path fill="none" stroke="#7aab8a" d="M530.19,-495.96C467.82,-479.29 370.83,-453.37 293.4,-432.68"/>
<polygon fill="#7aab8a" stroke="#7aab8a" points="294.64,-429.39 284.07,-430.19 292.83,-436.15 294.64,-429.39"/>
<text text-anchor="start" x="407.37" y="-452.78" font-family="Times,serif" font-weight="bold" font-size="14.00">NEIN</text>
</g>
<!-- 4 -->
<g id="node8" class="node">
<title>4</title>
<path fill="#7aab8a" stroke="black" stroke-width="0" d="M888.89,-417.07C888.89,-417.07 335.84,-417.07 335.84,-417.07 329.84,-417.07 323.84,-411.07 323.84,-405.07 323.84,-405.07 323.84,-393.07 323.84,-393.07 323.84,-387.07 329.84,-381.07 335.84,-381.07 335.84,-381.07 888.89,-381.07 888.89,-381.07 894.89,-381.07 900.89,-387.07 900.89,-393.07 900.89,-393.07 900.89,-405.07 900.89,-405.07 900.89,-411.07 894.89,-417.07 888.89,-417.07"/>
<text text-anchor="start" x="338.24" y="-395.39" font-family="Times,serif" font-weight="bold" font-size="14.00">4: </text>
<text text-anchor="start" x="357.74" y="-395.39" font-family="Times,serif" font-size="14.00">Ist der Empf&#228;nger zum Zuordnungsbeginn an der Netzzeitreihe beteiligt?</text>
</g>
<!-- 3&#45;&gt;4 -->
<g id="edge7" class="edge">
<title>3-&gt;4</title>
<path fill="none" stroke="#7aab8a" d="M596.17,-496.2C599.19,-478.29 604.04,-449.51 607.64,-428.1"/>
<polygon fill="#7aab8a" stroke="#7aab8a" points="611.09,-428.71 609.3,-418.27 604.19,-427.55 611.09,-428.71"/>
<text text-anchor="start" x="603.37" y="-452.78" font-family="Times,serif" font-weight="bold" font-size="14.00">JA</text>
</g>
<!-- A04 -->
<g id="node9" class="node">
<title>A04</title>
<path fill="#cfb986" stroke="black" stroke-width="0" d="M409.48,-315.06C409.48,-315.06 177.25,-315.06 177.25,-315.06 171.25,-315.06 165.25,-309.06 165.25,-303.06 165.25,-303.06 165.25,-265.54 165.25,-265.54 165.25,-259.54 171.25,-253.54 177.25,-253.54 177.25,-253.54 409.48,-253.54 409.48,-253.54 415.48,-253.54 421.48,-259.54 421.48,-265.54 421.48,-265.54 421.48,-303.06 421.48,-303.06 421.48,-309.06 415.48,-315.06 409.48,-315.06"/>
<text text-anchor="start" x="177.49" y="-297" font-family="Times,serif" font-weight="bold" font-size="14.00">A04</text>
<text text-anchor="start" x="177.49" y="-284.9" font-family="Times,serif" text-decoration="underline" font-size="12.00">Hinweis:</text>
<text text-anchor="start" x="177.49" y="-272.9" font-family="Times,serif" font-size="12.00">Cluster: Ablehnung</text>
<text text-anchor="start" x="177.49" y="-260.9" font-family="Times,serif" font-size="12.00">Keine Beteiligung an der Netzzeitreihe</text>
</g>
<!-- 4&#45;&gt;A04 -->
<g id="edge8" class="edge">
<title>4-&gt;A04</title>
<path fill="none" stroke="#7aab8a" d="M564.61,-381.19C518.14,-364.76 446.24,-339.34 388.14,-318.8"/>
<polygon fill="#7aab8a" stroke="#7aab8a" points="389.48,-315.57 378.89,-315.53 387.15,-322.17 389.48,-315.57"/>
<text text-anchor="start" x="471.37" y="-338.01" font-family="Times,serif" font-weight="bold" font-size="14.00">NEIN</text>
</g>
<!-- 5 -->
<g id="node10" class="node">
<title>5</title>
<path fill="#7aab8a" stroke="black" stroke-width="0" d="M1013.01,-306.94C1013.01,-306.94 451.72,-306.94 451.72,-306.94 445.72,-306.94 439.72,-300.94 439.72,-294.94 439.72,-294.94 439.72,-273.66 439.72,-273.66 439.72,-267.66 445.72,-261.66 451.72,-261.66 451.72,-261.66 1013.01,-261.66 1013.01,-261.66 1019.01,-261.66 1025.01,-267.66 1025.01,-273.66 1025.01,-273.66 1025.01,-294.94 1025.01,-294.94 1025.01,-300.94 1019.01,-306.94 1013.01,-306.94"/>
<text text-anchor="start" x="454.12" y="-286" font-family="Times,serif" font-weight="bold" font-size="14.00">5: </text>
<text text-anchor="start" x="473.62" y="-286" font-family="Times,serif" font-size="14.00">Existiert zum Zuordnungsbeginn bereits eine Zuordnung der angegebenen</text>
<text text-anchor="start" x="454.12" y="-272" font-family="Times,serif" font-size="14.00">Netzgangzeitreihe zu einer Netzzeitreihe?</text>
</g>
<!-- 4&#45;&gt;5 -->
<g id="edge9" class="edge">
<title>4-&gt;5</title>
<path fill="none" stroke="#7aab8a" d="M630.33,-381.19C649,-363.64 678.58,-335.85 701.09,-314.69"/>
<polygon fill="#7aab8a" stroke="#7aab8a" points="703.34,-317.38 708.23,-307.98 698.55,-312.27 703.34,-317.38"/>
<text text-anchor="start" x="679.37" y="-338.01" font-family="Times,serif" font-weight="bold" font-size="14.00">JA</text>
</g>
<!-- A05 -->
<g id="node11" class="node">
<title>A05</title>
<path fill="#cfb986" stroke="black" stroke-width="0" d="M614.86,-200.29C614.86,-200.29 195.88,-200.29 195.88,-200.29 189.88,-200.29 183.88,-194.29 183.88,-188.29 183.88,-188.29 183.88,-138.77 183.88,-138.77 183.88,-132.77 189.88,-126.77 195.88,-126.77 195.88,-126.77 614.86,-126.77 614.86,-126.77 620.86,-126.77 626.86,-132.77 626.86,-138.77 626.86,-138.77 626.86,-188.29 626.86,-188.29 626.86,-194.29 620.86,-200.29 614.86,-200.29"/>
<text text-anchor="start" x="196.12" y="-182.23" font-family="Times,serif" font-weight="bold" font-size="14.00">A05</text>
<text text-anchor="start" x="196.12" y="-170.13" font-family="Times,serif" text-decoration="underline" font-size="12.00">Hinweis:</text>
<text text-anchor="start" x="196.12" y="-158.13" font-family="Times,serif" font-size="12.00">Cluster: Ablehnung</text>
<text text-anchor="start" x="196.12" y="-146.13" font-family="Times,serif" font-size="12.00">Zuordnung bereits vorhanden</text>
<text text-anchor="start" x="196.12" y="-134.13" font-family="Times,serif" font-size="12.00">Hinweis: In der Antwort ist die zugeordnete Netzzeitreihe anzugeben.</text>
</g>
<!-- 5&#45;&gt;A05 -->
<g id="edge10" class="edge">
<title>5-&gt;A05</title>
<path fill="none" stroke="#7aab8a" d="M673.15,-261.79C628.98,-245.75 567.39,-223.38 514.41,-204.14"/>
<polygon fill="#7aab8a" stroke="#7aab8a" points="515.61,-200.85 505.02,-200.73 513.22,-207.43 515.61,-200.85"/>
<text text-anchor="start" x="597.37" y="-223.24" font-family="Times,serif" font-weight="bold" font-size="14.00">JA</text>
</g>
<!-- 6 -->
<g id="node12" class="node">
<title>6</title>
<path fill="#7aab8a" stroke="black" stroke-width="0" d="M1011.51,-181.53C1011.51,-181.53 657.22,-181.53 657.22,-181.53 651.22,-181.53 645.22,-175.53 645.22,-169.53 645.22,-169.53 645.22,-157.53 645.22,-157.53 645.22,-151.53 651.22,-145.53 657.22,-145.53 657.22,-145.53 1011.51,-145.53 1011.51,-145.53 1017.51,-145.53 1023.51,-151.53 1023.51,-157.53 1023.51,-157.53 1023.51,-169.53 1023.51,-169.53 1023.51,-175.53 1017.51,-181.53 1011.51,-181.53"/>
<text text-anchor="start" x="659.62" y="-159.85" font-family="Times,serif" font-weight="bold" font-size="14.00">6: </text>
<text text-anchor="start" x="679.12" y="-159.85" font-family="Times,serif" font-size="14.00">Ist ein nicht spezifizierter Fehler aufgetreten?</text>
</g>
<!-- 5&#45;&gt;6 -->
<g id="edge11" class="edge">
<title>5-&gt;6</title>
<path fill="none" stroke="#7aab8a" d="M750.84,-261.79C768.22,-241.55 794.25,-211.24 812.62,-189.85"/>
<polygon fill="#7aab8a" stroke="#7aab8a" points="815.14,-192.29 819,-182.43 809.83,-187.73 815.14,-192.29"/>
<text text-anchor="start" x="786.37" y="-223.24" font-family="Times,serif" font-weight="bold" font-size="14.00">NEIN</text>
</g>
<!-- A99 -->
<g id="node13" class="node">
<title>A99</title>
<path fill="#cfb986" stroke="black" stroke-width="0" d="M897.86,-73.52C897.86,-73.52 406.88,-73.52 406.88,-73.52 400.88,-73.52 394.88,-67.52 394.88,-61.52 394.88,-61.52 394.88,-12 394.88,-12 394.88,-6 400.88,0 406.88,0 406.88,0 897.86,0 897.86,0 903.86,0 909.86,-6 909.86,-12 909.86,-12 909.86,-61.52 909.86,-61.52 909.86,-67.52 903.86,-73.52 897.86,-73.52"/>
<text text-anchor="start" x="407.12" y="-55.46" font-family="Times,serif" font-weight="bold" font-size="14.00">A99</text>
<text text-anchor="start" x="407.12" y="-43.36" font-family="Times,serif" text-decoration="underline" font-size="12.00">Hinweis:</text>
<text text-anchor="start" x="407.12" y="-31.36" font-family="Times,serif" font-size="12.00">Ablehnung Sonstiges</text>
<text text-anchor="start" x="407.12" y="-19.36" font-family="Times,serif" font-size="12.00">Hinweis: Das identifizierte Problem ist in der Antwort zu beschreiben / benennen.</text>
<text text-anchor="start" x="407.12" y="-7.36" font-family="Times,serif" font-size="12.00">Nutzungsm&#246;glichkeit Ende: 01.04.2024 00:00 Uhr</text>
</g>
<!-- 6&#45;&gt;A99 -->
<g id="edge12" class="edge">
<title>6-&gt;A99</title>
<path fill="none" stroke="#7aab8a" d="M809.82,-145.7C785.25,-128.86 746.48,-102.28 713.55,-79.71"/>
<polygon fill="#7aab8a" stroke="#7aab8a" points="715.92,-77.08 705.69,-74.32 711.96,-82.86 715.92,-77.08"/>
<text text-anchor="start" x="753.37" y="-96.47" font-family="Times,serif" font-weight="bold" font-size="14.00">JA</text>
</g>
<!-- A06 -->
<g id="node14" class="node">
<title>A06</title>
<path fill="#cfb986" stroke="black" stroke-width="0" d="M1090.61,-67.52C1090.61,-67.52 940.12,-67.52 940.12,-67.52 934.12,-67.52 928.12,-61.52 928.12,-55.52 928.12,-55.52 928.12,-18 928.12,-18 928.12,-12 934.12,-6 940.12,-6 940.12,-6 1090.61,-6 1090.61,-6 1096.61,-6 1102.61,-12 1102.61,-18 1102.61,-18 1102.61,-55.52 1102.61,-55.52 1102.61,-61.52 1096.61,-67.52 1090.61,-67.52"/>
<text text-anchor="start" x="940.37" y="-49.46" font-family="Times,serif" font-weight="bold" font-size="14.00">A06</text>
<text text-anchor="start" x="940.37" y="-37.36" font-family="Times,serif" text-decoration="underline" font-size="12.00">Hinweis:</text>
<text text-anchor="start" x="940.37" y="-25.36" font-family="Times,serif" font-size="12.00">Cluster: Zustimmung</text>
<text text-anchor="start" x="940.37" y="-13.36" font-family="Times,serif" font-size="12.00">Zuordnung durchgef&#252;hrt</text>
</g>
<!-- 6&#45;&gt;A06 -->
<g id="edge13" class="edge">
<title>6-&gt;A06</title>
<path fill="none" stroke="#7aab8a" d="M858.78,-145.7C885.32,-127.4 928.56,-97.6 962.88,-73.94"/>
<polygon fill="#7aab8a" stroke="#7aab8a" points="964.81,-76.86 971.05,-68.31 960.83,-71.1 964.81,-76.86"/>
<text text-anchor="start" x="935.37" y="-96.47" font-family="Times,serif" font-weight="bold" font-size="14.00">NEIN</text>
</g>
</g>
</svg>
  </g>
</svg>
  </g>
</svg>
