<?xml version="1.0" encoding="UTF-8" standalone="no"?>
<!DOCTYPE svg PUBLIC "-//W3C//DTD SVG 1.1//EN"
 "http://www.w3.org/Graphics/SVG/1.1/DTD/svg11.dtd">
<!-- Generated by graphviz version 7.0.5 (20221223.1930)
 -->
<!-- Title: D Pages: 1 -->
<svg width="641pt" height="336pt"
 viewBox="0.00 0.00 641.00 336.00" xmlns="http://www.w3.org/2000/svg" xmlns:xlink="http://www.w3.org/1999/xlink">
<g id="graph0" class="graph" transform="scale(1 1) rotate(0) translate(4 332)">
<title>D</title>
<polygon fill="white" stroke="none" points="-4,4 -4,-332 637,-332 637,4 -4,4"/>
<text text-anchor="start" x="234.5" y="-310.6" font-family="Times,serif" font-weight="bold" font-size="18.00">Dummy Chapter</text>
<text text-anchor="start" x="226.5" y="-280.2" font-family="Times,serif" font-weight="bold" font-size="16.00">Dummy Subchapter</text>
<!-- Start -->
<g id="node1" class="node">
<title>Start</title>
<polygon fill="#7a8da1" stroke="black" points="413.5,-230 257.5,-230 257.5,-186 413.5,-186 413.5,-230"/>
<text text-anchor="start" x="307" y="-210.8" font-family="Times,serif" font-weight="bold" font-size="14.00">E_0206</text>
<text text-anchor="start" x="271.5" y="-198.4" font-family="Times,serif" font-weight="bold" text-decoration="underline" font-size="12.00">Prüfende Rolle:</text>
<text text-anchor="start" x="377.5" y="-198.4" font-family="Times,serif" font-weight="bold" font-size="12.00"> LF</text>
</g>
<!-- 1 -->
<g id="node2" class="node">
<title>1</title>
<path fill="#7aab8a" stroke="black" d="M621,-149C621,-149 50,-149 50,-149 44,-149 38,-143 38,-137 38,-137 38,-125 38,-125 38,-119 44,-113 50,-113 50,-113 621,-113 621,-113 627,-113 633,-119 633,-125 633,-125 633,-137 633,-137 633,-143 627,-149 621,-149"/>
<text text-anchor="start" x="52" y="-128.3" font-family="Times,serif" font-weight="bold" font-size="14.00">1: </text>
<text text-anchor="start" x="72" y="-128.3" font-family="Times,serif" font-size="14.00">Besteht ein Vertragsverhältnis über die Rechnungsabwicklung über den LF?</text>
</g>
<!-- Start&#45;&gt;1 -->
<g id="edge1" class="edge">
<title>Start&#45;&gt;1</title>
<path fill="none" stroke="black" d="M335.5,-185.71C335.5,-177.82 335.5,-168.75 335.5,-160.33"/>
<polygon fill="black" stroke="black" points="339,-160.57 335.5,-150.57 332,-160.57 339,-160.57"/>
</g>
<!-- A01 -->
<g id="node3" class="node">
<title>A01</title>
<polygon fill="#cca9ab" stroke="black" points="385,-62 0,-62 0,0 385,0 385,-62"/>
<text text-anchor="start" x="177" y="-45.8" font-family="Times,serif" font-weight="bold" font-size="14.00">A01</text>
<text text-anchor="start" x="12" y="-33.4" font-family="Times,serif" text-decoration="underline" font-size="12.00">Hinweis:</text>
<text text-anchor="start" x="12" y="-21.4" font-family="Times,serif" font-size="12.00">Cluster: Ablehnung</text>
<text text-anchor="start" x="12" y="-9.4" font-family="Times,serif" font-size="12.00">Keine Vereinbarung über die Abrechnung MSB über den LF</text>
</g>
<!-- 1&#45;&gt;A01 -->
<g id="edge2" class="edge">
<title>1&#45;&gt;A01</title>
<path fill="none" stroke="black" d="M310.26,-112.71C292.51,-100.54 268.1,-83.81 246.1,-68.73"/>
<polygon fill="black" stroke="black" points="248.32,-66.01 238.09,-63.25 244.36,-71.79 248.32,-66.01"/>
<text text-anchor="middle" x="298.5" y="-83.8" font-family="Times,serif" font-size="14.00">Nein</text>
</g>
<!-- A02 -->
<g id="node4" class="node">
<title>A02</title>
<polygon fill="#cca9ab" stroke="black" points="554,-62 403,-62 403,0 554,0 554,-62"/>
<text text-anchor="start" x="463" y="-45.8" font-family="Times,serif" font-weight="bold" font-size="14.00">A02</text>
<text text-anchor="start" x="415" y="-33.4" font-family="Times,serif" text-decoration="underline" font-size="12.00">Hinweis:</text>
<text text-anchor="start" x="415" y="-21.4" font-family="Times,serif" font-size="12.00">Cluster: Zustimmung</text>
<text text-anchor="start" x="415" y="-9.4" font-family="Times,serif" font-size="12.00">Zustimmung</text>
</g>
<!-- 1&#45;&gt;A02 -->
<g id="edge3" class="edge">
<title>1&#45;&gt;A02</title>
<path fill="none" stroke="black" d="M360.74,-112.71C378.49,-100.54 402.9,-83.81 424.9,-68.73"/>
<polygon fill="black" stroke="black" points="426.64,-71.79 432.91,-63.25 422.68,-66.01 426.64,-71.79"/>
<text text-anchor="middle" x="414.5" y="-83.8" font-family="Times,serif" font-size="14.00">Ja</text>
</g>
</g>
</svg>
