<?xml version='1.0' encoding='ASCII' standalone='yes'?>
<svg xmlns="http://www.w3.org/2000/svg" xmlns:xlink="http://www.w3.org/1999/xlink" version="1.1" width="1232.0px" viewBox="0 0 1232.0 646.6666666666666" height="646.6666666666666px">
  <g>
    <svg version="1.1" width="1232.0px" viewBox="0 0 1232.0 646.6666666666666" height="646.6666666666666px">
  <polygon fill="#f3f1f6" points="0,0 1232.0,0 1232.0,646.6666666666666 0,646.6666666666666"/><g>
    <g transform="translate(357.52520335094175, 64.66666666666664) scale(1 1) translate(0, 0) scale(2.924624915912323 2.924624915912323) "><sodipodi:namedview xmlns:sodipodi="http://sodipodi.sourceforge.net/DTD/sodipodi-0.dtd" xmlns:inkscape="http://www.inkscape.org/namespaces/inkscape" id="namedview7" pagecolor="#ffffff" bordercolor="#999999" borderopacity="1" inkscape:pageshadow="0" inkscape:pageopacity="0" inkscape:pagecheckerboard="0" inkscape:document-units="mm" showgrid="false" fit-margin-top="0" fit-margin-left="0" fit-margin-right="0" fit-margin-bottom="0" inkscape:zoom="0.64052329" inkscape:cx="130.36216" inkscape:cy="412.163" inkscape:window-width="1512" inkscape:window-height="916" inkscape:window-x="3840" inkscape:window-y="136" inkscape:window-maximized="0" inkscape:current-layer="layer1"/>
  <defs id="defs2">
    <clipPath clipPathUnits="userSpaceOnUse" id="clipPath23">
      <path d="M 0,568.156 H 579.236 V 0 H 0 Z" id="path21"/>
    </clipPath>
  </defs>
  <g xmlns:inkscape="http://www.inkscape.org/namespaces/inkscape" inkscape:label="Layer 1" inkscape:groupmode="layer" id="layer1" transform="translate(-16.541937,-55.305267)">
    <g id="g19" clip-path="url(#clipPath23)" transform="matrix(0.35277777,0,0,-0.35277777,0.01017023,243.73675)" style="opacity:0.2">
      <g id="g25" transform="translate(122.444,32.7195)">
        <path d="m 0,0 h -56.104 c -11,0 -19.898,9.123 -19.463,20.115 10.594,267.191 231.277,481.302 501.029,481.302 v -56.02 c 0,-10.98 -8.688,-19.892 -19.658,-20.393 C 180.29,414.697 0,228.005 0,0" style="fill:#6ead83;fill-opacity:0.5;fill-rule:nonzero;stroke:none" id="path27"/>
      </g>
      <g id="g29" transform="translate(273.7828,32.7195)">
        <path d="m 0,0 h -55.926 c -11.228,0 -20.091,9.482 -19.435,20.69 10.744,183.439 163.389,329.388 349.485,329.388 v -56.263 c 0,-10.709 -8.273,-19.617 -18.957,-20.35 C 112.819,263.696 0,144.774 0,0" style="fill:#6ead83;fill-opacity:0.5;fill-rule:nonzero;stroke:none" id="path31"/>
      </g>
      <g id="g33" transform="translate(425.7667,32.7195)">
        <path d="m 0,0 h -55.445 c -11.653,0 -20.604,10.17 -19.334,21.753 10.866,99.032 95.031,176.341 196.919,176.341 v -57.011 c 0,-10.046 -7.283,-18.755 -17.229,-20.165 C 45.688,112.522 0,61.497 0,0" style="fill:#6ead83;fill-opacity:0.5;fill-rule:nonzero;stroke:none" id="path35"/>
      </g>
    </g>
  </g>
</g>
    <svg width="924pt" height="485pt" viewBox="0.00 0.00 923.89 485.10">
<g id="graph0" class="graph" transform="scale(1 1) rotate(0) translate(4 481.1)">
<title>D</title>
<text text-anchor="start" x="400.57" y="-457" font-family="Times,serif" font-weight="bold" font-size="18.00">WiM Strom</text>
<text text-anchor="start" x="227.32" y="-426.9" font-family="Times,serif" font-weight="bold" font-size="16.00">9.6.1: AD: Messlokations&#228;nderung vom NB an MSB</text>
<!-- Start -->
<g id="node1" class="node">
<title>Start</title>
<polygon fill="#7a8da1" stroke="black" points="356.92,-379.1 185.62,-379.1 185.62,-335.82 356.92,-335.82 356.92,-379.1"/>
<text text-anchor="start" x="243.15" y="-358.16" font-family="Times,serif" font-weight="bold" font-size="14.00">E_0249</text>
<text text-anchor="start" x="200.02" y="-346.06" font-family="Times,serif" font-weight="bold" text-decoration="underline" font-size="12.00">Pr&#252;fende Rolle:</text>
<text text-anchor="start" x="305.02" y="-346.06" font-family="Times,serif" font-weight="bold" font-size="12.00"> MSB</text>
</g>
<!-- 1 -->
<g id="node2" class="node">
<title>1</title>
<path fill="#7aab8a" stroke="black" d="M530.55,-298.82C530.55,-298.82 12,-298.82 12,-298.82 6,-298.82 0,-292.82 0,-286.82 0,-286.82 0,-265.54 0,-265.54 0,-259.54 6,-253.54 12,-253.54 12,-253.54 530.55,-253.54 530.55,-253.54 536.55,-253.54 542.55,-259.54 542.55,-265.54 542.55,-265.54 542.55,-286.82 542.55,-286.82 542.55,-292.82 536.55,-298.82 530.55,-298.82"/>
<text text-anchor="start" x="14.4" y="-277.88" font-family="Times,serif" font-weight="bold" font-size="14.00">1: </text>
<text text-anchor="start" x="33.9" y="-277.88" font-family="Times,serif" font-size="14.00">Liegt das gew&#252;nschte &#196;nderungsdatum mindestens 20 WT nach dem</text>
<text text-anchor="start" x="14.4" y="-263.88" font-family="Times,serif" font-size="14.00">Nachrichteneingangsdatum?</text>
</g>
<!-- Start&#45;&gt;1 -->
<g id="edge1" class="edge">
<title>Start-&gt;1</title>
<path fill="none" stroke="black" d="M271.27,-335.63C271.27,-327.93 271.27,-319.01 271.27,-310.48"/>
<polygon fill="black" stroke="black" points="274.78,-310.77 271.28,-300.77 267.78,-310.77 274.78,-310.77"/>
</g>
<!-- A01 -->
<g id="node3" class="node">
<title>A01</title>
<polygon fill="#cfb986" stroke="black" points="264.39,-200.29 104.16,-200.29 104.16,-138.77 264.39,-138.77 264.39,-200.29"/>
<text text-anchor="start" x="169.27" y="-182.23" font-family="Times,serif" font-weight="bold" font-size="14.00">A01</text>
<text text-anchor="start" x="116.4" y="-170.13" font-family="Times,serif" text-decoration="underline" font-size="12.00">Hinweis:</text>
<text text-anchor="start" x="116.4" y="-158.13" font-family="Times,serif" font-size="12.00">Cluster: Ablehnung</text>
<text text-anchor="start" x="116.4" y="-146.13" font-family="Times,serif" font-size="12.00">Frist nicht eingehalten</text>
</g>
<!-- 1&#45;&gt;A01 -->
<g id="edge3" class="edge">
<title>1-&gt;A01</title>
<path fill="none" stroke="black" d="M253.04,-253.24C242.46,-240.52 228.83,-224.12 216.5,-209.29"/>
<polygon fill="black" stroke="black" points="219.47,-207.39 210.39,-201.94 214.09,-211.86 219.47,-207.39"/>
<text text-anchor="middle" x="254.15" y="-222.24" font-family="Times,serif" font-size="14.00">Nein</text>
</g>
<!-- 2 -->
<g id="node4" class="node">
<title>2</title>
<path fill="#7aab8a" stroke="black" d="M651.92,-187.53C651.92,-187.53 294.62,-187.53 294.62,-187.53 288.62,-187.53 282.62,-181.53 282.62,-175.53 282.62,-175.53 282.62,-163.53 282.62,-163.53 282.62,-157.53 288.62,-151.53 294.62,-151.53 294.62,-151.53 651.92,-151.53 651.92,-151.53 657.92,-151.53 663.92,-157.53 663.92,-163.53 663.92,-163.53 663.92,-175.53 663.92,-175.53 663.92,-181.53 657.92,-187.53 651.92,-187.53"/>
<text text-anchor="start" x="297.02" y="-165.85" font-family="Times,serif" font-weight="bold" font-size="14.00">2: </text>
<text text-anchor="start" x="316.52" y="-165.85" font-family="Times,serif" font-size="14.00">Ist die &#196;nderung in der Messlokation m&#246;glich?</text>
</g>
<!-- 1&#45;&gt;2 -->
<g id="edge2" class="edge">
<title>1-&gt;2</title>
<path fill="none" stroke="black" d="M313.62,-253.24C347.59,-235.64 395.11,-211.03 429.46,-193.23"/>
<polygon fill="black" stroke="black" points="431.05,-196.35 438.32,-188.64 427.83,-190.13 431.05,-196.35"/>
<text text-anchor="middle" x="385.02" y="-222.24" font-family="Times,serif" font-size="14.00">Ja</text>
</g>
<!-- A02 -->
<g id="node5" class="node">
<title>A02</title>
<polygon fill="#cfb986" stroke="black" points="386.89,-73.52 133.66,-73.52 133.66,-12 386.89,-12 386.89,-73.52"/>
<text text-anchor="start" x="245.27" y="-55.46" font-family="Times,serif" font-weight="bold" font-size="14.00">A02</text>
<text text-anchor="start" x="145.9" y="-43.36" font-family="Times,serif" text-decoration="underline" font-size="12.00">Hinweis:</text>
<text text-anchor="start" x="145.9" y="-31.36" font-family="Times,serif" font-size="12.00">Cluster: Zustimmung</text>
<text text-anchor="start" x="145.9" y="-19.36" font-family="Times,serif" font-size="12.00">&#196;nderung kann durchgef&#252;hrt werden.</text>
</g>
<!-- 2&#45;&gt;A02 -->
<g id="edge4" class="edge">
<title>2-&gt;A02</title>
<path fill="none" stroke="black" d="M443.66,-151.18C412.19,-132.75 361.54,-103.08 321.44,-79.59"/>
<polygon fill="black" stroke="black" points="323.46,-76.71 313.06,-74.68 319.92,-82.75 323.46,-76.71"/>
<text text-anchor="middle" x="392.02" y="-107.47" font-family="Times,serif" font-size="14.00">Ja</text>
</g>
<!-- A99 -->
<g id="node6" class="node">
<title>A99</title>
<polygon fill="#cfb986" stroke="black" points="915.89,-85.52 404.66,-85.52 404.66,0 915.89,0 915.89,-85.52"/>
<text text-anchor="start" x="645.27" y="-67.46" font-family="Times,serif" font-weight="bold" font-size="14.00">A99</text>
<text text-anchor="start" x="416.9" y="-55.36" font-family="Times,serif" text-decoration="underline" font-size="12.00">Hinweis:</text>
<text text-anchor="start" x="416.9" y="-43.36" font-family="Times,serif" font-size="12.00">Cluster: Ablehnung</text>
<text text-anchor="start" x="416.9" y="-31.36" font-family="Times,serif" font-size="12.00">Sonstiges</text>
<text text-anchor="start" x="416.9" y="-19.36" font-family="Times,serif" font-size="12.00">Hinweis: Das identifizierte Problem ist in der Antwort zu beschreiben / benennen</text>
<text text-anchor="start" x="416.9" y="-7.36" font-family="Times,serif" font-size="12.00">Nutzungsm&#246;glichkeit Ende: 01.10.2023 00:00 Uhr</text>
</g>
<!-- 2&#45;&gt;A99 -->
<g id="edge5" class="edge">
<title>2-&gt;A99</title>
<path fill="none" stroke="black" d="M499.28,-151.18C522.1,-135.95 556.43,-113.05 587.52,-92.3"/>
<polygon fill="black" stroke="black" points="589.42,-95.24 595.8,-86.78 585.53,-89.42 589.42,-95.24"/>
<text text-anchor="middle" x="583.15" y="-107.47" font-family="Times,serif" font-size="14.00">Nein</text>
</g>
</g>
</svg>
  </g>
</svg>
  </g>
</svg>
