<?xml version='1.0' encoding='ASCII' standalone='yes'?>
<svg xmlns="http://www.w3.org/2000/svg" xmlns:xlink="http://www.w3.org/1999/xlink" version="1.1" width="7593.333333333333px" viewBox="0 0 7593.333333333333 1640.0" height="1640.0px">
  <g>
    <svg version="1.1" width="7593.333333333333px" viewBox="0 0 7593.333333333333 1640.0" height="1640.0px">
  <polygon fill="#f3f1f6" points="0,0 7593.333333333333,0 7593.333333333333,1640.0 0,1640.0"/><g>
    <g transform="translate(3141.153264855653, 163.99999999999997) scale(1 1) translate(0, 0) scale(7.417089992932282 7.417089992932282) "><sodipodi:namedview xmlns:sodipodi="http://sodipodi.sourceforge.net/DTD/sodipodi-0.dtd" xmlns:inkscape="http://www.inkscape.org/namespaces/inkscape" id="namedview7" pagecolor="#ffffff" bordercolor="#999999" borderopacity="1" inkscape:pageshadow="0" inkscape:pageopacity="0" inkscape:pagecheckerboard="0" inkscape:document-units="mm" showgrid="false" fit-margin-top="0" fit-margin-left="0" fit-margin-right="0" fit-margin-bottom="0" inkscape:zoom="0.64052329" inkscape:cx="130.36216" inkscape:cy="412.163" inkscape:window-width="1512" inkscape:window-height="916" inkscape:window-x="3840" inkscape:window-y="136" inkscape:window-maximized="0" inkscape:current-layer="layer1"/>
  <defs id="defs2">
    <clipPath clipPathUnits="userSpaceOnUse" id="clipPath23">
      <path d="M 0,568.156 H 579.236 V 0 H 0 Z" id="path21"/>
    </clipPath>
  </defs>
  <g xmlns:inkscape="http://www.inkscape.org/namespaces/inkscape" inkscape:label="Layer 1" inkscape:groupmode="layer" id="layer1" transform="translate(-16.541937,-55.305267)">
    <g id="g19" clip-path="url(#clipPath23)" transform="matrix(0.35277777,0,0,-0.35277777,0.01017023,243.73675)" style="opacity:0.2">
      <g id="g25" transform="translate(122.444,32.7195)">
        <path d="m 0,0 h -56.104 c -11,0 -19.898,9.123 -19.463,20.115 10.594,267.191 231.277,481.302 501.029,481.302 v -56.02 c 0,-10.98 -8.688,-19.892 -19.658,-20.393 C 180.29,414.697 0,228.005 0,0" style="fill:#6ead83;fill-opacity:1;fill-rule:nonzero;stroke:none" id="path27"/>
      </g>
      <g id="g29" transform="translate(273.7828,32.7195)">
        <path d="m 0,0 h -55.926 c -11.228,0 -20.091,9.482 -19.435,20.69 10.744,183.439 163.389,329.388 349.485,329.388 v -56.263 c 0,-10.709 -8.273,-19.617 -18.957,-20.35 C 112.819,263.696 0,144.774 0,0" style="fill:#6ead83;fill-opacity:1;fill-rule:nonzero;stroke:none" id="path31"/>
      </g>
      <g id="g33" transform="translate(425.7667,32.7195)">
        <path d="m 0,0 h -55.445 c -11.653,0 -20.604,10.17 -19.334,21.753 10.866,99.032 95.031,176.341 196.919,176.341 v -57.011 c 0,-10.046 -7.283,-18.755 -17.229,-20.165 C 45.688,112.522 0,61.497 0,0" style="fill:#6ead83;fill-opacity:1;fill-rule:nonzero;stroke:none" id="path35"/>
      </g>
    </g>
  </g>
</g>
    <svg width="5695pt" height="1230pt" viewBox="0.00 0.00 5695.18 1229.69">
<g id="graph0" class="graph" transform="scale(1 1) rotate(0) translate(4 1225.69)">
<title>D</title>
<text text-anchor="start" x="2786.21" y="-1201.59" font-family="Times,serif" font-weight="bold" font-size="18.00">WiM Strom</text>
<text text-anchor="start" x="2612.96" y="-1171.49" font-family="Times,serif" font-weight="bold" font-size="16.00">9.15.1: AD: St&#246;rungsbehebung in der Messlokation</text>
<!-- Start -->
<g id="node1" class="node">
<title>Start</title>
<polygon fill="#7a8da1" stroke="black" points="530.43,-1123.69 359.13,-1123.69 359.13,-1080.41 530.43,-1080.41 530.43,-1123.69"/>
<text text-anchor="start" x="416.65" y="-1102.75" font-family="Times,serif" font-weight="bold" font-size="14.00">E_0217</text>
<text text-anchor="start" x="373.53" y="-1090.65" font-family="Times,serif" font-weight="bold" text-decoration="underline" font-size="12.00">Pr&#252;fende Rolle:</text>
<text text-anchor="start" x="478.53" y="-1090.65" font-family="Times,serif" font-weight="bold" font-size="12.00"> MSB</text>
</g>
<!-- 1 -->
<g id="node2" class="node">
<title>1</title>
<path fill="#7aab8a" stroke="black" d="M673.3,-1043.41C673.3,-1043.41 216.25,-1043.41 216.25,-1043.41 210.25,-1043.41 204.25,-1037.41 204.25,-1031.41 204.25,-1031.41 204.25,-1019.41 204.25,-1019.41 204.25,-1013.41 210.25,-1007.41 216.25,-1007.41 216.25,-1007.41 673.3,-1007.41 673.3,-1007.41 679.3,-1007.41 685.3,-1013.41 685.3,-1019.41 685.3,-1019.41 685.3,-1031.41 685.3,-1031.41 685.3,-1037.41 679.3,-1043.41 673.3,-1043.41"/>
<text text-anchor="start" x="218.65" y="-1021.73" font-family="Times,serif" font-weight="bold" font-size="14.00">1: </text>
<text text-anchor="start" x="238.15" y="-1021.73" font-family="Times,serif" font-size="14.00">Ist die Lieferrichtung der Marktlokation korrekt angegeben?</text>
</g>
<!-- Start&#45;&gt;1 -->
<g id="edge1" class="edge">
<title>Start-&gt;1</title>
<path fill="none" stroke="black" d="M444.78,-1080.26C444.78,-1072.22 444.78,-1062.9 444.78,-1054.3"/>
<polygon fill="black" stroke="black" points="448.28,-1054.57 444.78,-1044.57 441.28,-1054.57 448.28,-1054.57"/>
</g>
<!-- A01 -->
<g id="node3" class="node">
<title>A01</title>
<polygon fill="#cfb986" stroke="black" points="582.39,-954.16 251.16,-954.16 251.16,-892.64 582.39,-892.64 582.39,-954.16"/>
<text text-anchor="start" x="401.78" y="-936.1" font-family="Times,serif" font-weight="bold" font-size="14.00">A01</text>
<text text-anchor="start" x="263.4" y="-924" font-family="Times,serif" text-decoration="underline" font-size="12.00">Hinweis:</text>
<text text-anchor="start" x="263.4" y="-912" font-family="Times,serif" font-size="12.00">Cluster: Ablehnung</text>
<text text-anchor="start" x="263.4" y="-900" font-family="Times,serif" font-size="12.00">Lieferrichtung der Marktlokation ist nicht korrekt.</text>
</g>
<!-- 1&#45;&gt;A01 -->
<g id="edge2" class="edge">
<title>1-&gt;A01</title>
<path fill="none" stroke="black" d="M439.9,-1006.99C436.64,-995.37 432.23,-979.6 428.13,-964.94"/>
<polygon fill="black" stroke="black" points="431.28,-964.24 425.22,-955.55 424.54,-966.12 431.28,-964.24"/>
<text text-anchor="middle" x="452.65" y="-976.11" font-family="Times,serif" font-size="14.00">Nein</text>
</g>
<!-- 2 -->
<g id="node4" class="node">
<title>2</title>
<path fill="#7aab8a" stroke="black" d="M1772.68,-941.4C1772.68,-941.4 612.88,-941.4 612.88,-941.4 606.88,-941.4 600.88,-935.4 600.88,-929.4 600.88,-929.4 600.88,-917.4 600.88,-917.4 600.88,-911.4 606.88,-905.4 612.88,-905.4 612.88,-905.4 1772.68,-905.4 1772.68,-905.4 1778.68,-905.4 1784.68,-911.4 1784.68,-917.4 1784.68,-917.4 1784.68,-929.4 1784.68,-929.4 1784.68,-935.4 1778.68,-941.4 1772.68,-941.4"/>
<text text-anchor="start" x="615.28" y="-919.73" font-family="Times,serif" font-weight="bold" font-size="14.00">2: </text>
<text text-anchor="start" x="634.78" y="-919.73" font-family="Times,serif" font-size="14.00">Ist im Gesch&#228;ftsvorfall der Status der Berechnungsformel f&#252;r die Marktlokation mit &#8222;Berechnungsformel muss beim Absender angefragt werden&#8220; angegeben?</text>
</g>
<!-- 1&#45;&gt;2 -->
<g id="edge3" class="edge">
<title>1-&gt;2</title>
<path fill="none" stroke="black" d="M575.49,-1006.93C708.65,-989.13 914.49,-961.61 1051.38,-943.3"/>
<polygon fill="black" stroke="black" points="1051.49,-946.69 1060.94,-941.89 1050.56,-939.75 1051.49,-946.69"/>
<text text-anchor="middle" x="825.53" y="-976.11" font-family="Times,serif" font-size="14.00">Ja</text>
</g>
<!-- A09 -->
<g id="node5" class="node">
<title>A09</title>
<polygon fill="#cfb986" stroke="black" points="1177.77,-839.39 809.79,-839.39 809.79,-777.87 1177.77,-777.87 1177.77,-839.39"/>
<text text-anchor="start" x="978.78" y="-821.33" font-family="Times,serif" font-weight="bold" font-size="14.00">A09</text>
<text text-anchor="start" x="822.03" y="-809.23" font-family="Times,serif" text-decoration="underline" font-size="12.00">Hinweis:</text>
<text text-anchor="start" x="822.03" y="-797.23" font-family="Times,serif" font-size="12.00">Cluster: Zustimmung</text>
<text text-anchor="start" x="822.03" y="-785.23" font-family="Times,serif" font-size="12.00">Berechnungsformel muss bilateral ausgetauscht werden.</text>
</g>
<!-- 2&#45;&gt;A09 -->
<g id="edge4" class="edge">
<title>2-&gt;A09</title>
<path fill="none" stroke="black" d="M1162.12,-905.03C1133.99,-889.09 1091.48,-865 1056.21,-845.01"/>
<polygon fill="black" stroke="black" points="1058.37,-841.65 1047.95,-839.76 1054.92,-847.74 1058.37,-841.65"/>
<text text-anchor="middle" x="1112.53" y="-861.34" font-family="Times,serif" font-size="14.00">Ja</text>
</g>
<!-- 3 -->
<g id="node6" class="node">
<title>3</title>
<path fill="#7aab8a" stroke="black" d="M2303.43,-826.63C2303.43,-826.63 1208.12,-826.63 1208.12,-826.63 1202.12,-826.63 1196.12,-820.63 1196.12,-814.63 1196.12,-814.63 1196.12,-802.63 1196.12,-802.63 1196.12,-796.63 1202.12,-790.63 1208.12,-790.63 1208.12,-790.63 2303.43,-790.63 2303.43,-790.63 2309.43,-790.63 2315.43,-796.63 2315.43,-802.63 2315.43,-802.63 2315.43,-814.63 2315.43,-814.63 2315.43,-820.63 2309.43,-826.63 2303.43,-826.63"/>
<text text-anchor="start" x="1210.53" y="-804.96" font-family="Times,serif" font-weight="bold" font-size="14.00">3: </text>
<text text-anchor="start" x="1230.03" y="-804.96" font-family="Times,serif" font-size="14.00">Ist im Gesch&#228;ftsvorfall der Status der Berechnungsformel f&#252;r die Marktlokation mit &#8222;Berechnungsformel besitzt keine Rechenoperation&#8220; angegeben?</text>
</g>
<!-- 2&#45;&gt;3 -->
<g id="edge5" class="edge">
<title>2-&gt;3</title>
<path fill="none" stroke="black" d="M1280.13,-904.9C1382.4,-884.42 1551.33,-850.58 1657.93,-829.23"/>
<polygon fill="black" stroke="black" points="1658.56,-832.47 1667.68,-827.07 1657.19,-825.61 1658.56,-832.47"/>
<text text-anchor="middle" x="1525.65" y="-861.34" font-family="Times,serif" font-size="14.00">Nein</text>
</g>
<!-- 4 -->
<g id="node7" class="node">
<title>4</title>
<path fill="#7aab8a" stroke="black" d="M1787.55,-724.62C1787.55,-724.62 12,-724.62 12,-724.62 6,-724.62 0,-718.62 0,-712.62 0,-712.62 0,-700.62 0,-700.62 0,-694.62 6,-688.62 12,-688.62 12,-688.62 1787.55,-688.62 1787.55,-688.62 1793.55,-688.62 1799.55,-694.62 1799.55,-700.62 1799.55,-700.62 1799.55,-712.62 1799.55,-712.62 1799.55,-718.62 1793.55,-724.62 1787.55,-724.62"/>
<text text-anchor="start" x="14.4" y="-702.95" font-family="Times,serif" font-weight="bold" font-size="14.00">4: </text>
<text text-anchor="start" x="33.9" y="-702.95" font-family="Times,serif" font-size="14.00">Ist in den zuvor ausgetauschten Stammdatenmeldungen (z.B.&#160;Anmeldebest&#228;tigung, Stammdaten&#228;nderung (inklusive Lokationsb&#252;ndelstruktur&#228;nderung)) gem&#228;&#223; dem &#8222;G&#252;ltig-Ab&#8220; Datum genau eine Messlokation dieser Marktlokation zugeordnet?</text>
</g>
<!-- 3&#45;&gt;4 -->
<g id="edge6" class="edge">
<title>3-&gt;4</title>
<path fill="none" stroke="black" d="M1606.18,-790.15C1453.34,-772.3 1216.82,-744.66 1060.17,-726.36"/>
<polygon fill="black" stroke="black" points="1060.84,-722.8 1050.5,-725.11 1060.03,-729.75 1060.84,-722.8"/>
<text text-anchor="middle" x="1334.53" y="-746.57" font-family="Times,serif" font-size="14.00">Ja</text>
</g>
<!-- 5 -->
<g id="node10" class="node">
<title>5</title>
<path fill="#7aab8a" stroke="black" d="M2723.55,-724.62C2723.55,-724.62 1830,-724.62 1830,-724.62 1824,-724.62 1818,-718.62 1818,-712.62 1818,-712.62 1818,-700.62 1818,-700.62 1818,-694.62 1824,-688.62 1830,-688.62 1830,-688.62 2723.55,-688.62 2723.55,-688.62 2729.55,-688.62 2735.55,-694.62 2735.55,-700.62 2735.55,-700.62 2735.55,-712.62 2735.55,-712.62 2735.55,-718.62 2729.55,-724.62 2723.55,-724.62"/>
<text text-anchor="start" x="1832.4" y="-702.95" font-family="Times,serif" font-weight="bold" font-size="14.00">5: </text>
<text text-anchor="start" x="1851.9" y="-702.95" font-family="Times,serif" font-size="14.00">Liegt eine &#196;nderung der Lokationsb&#252;ndelstruktur durch den NB vor, die durch Stammdaten&#228;nderung &#252;bermittelt wurde?</text>
</g>
<!-- 3&#45;&gt;5 -->
<g id="edge7" class="edge">
<title>3-&gt;5</title>
<path fill="none" stroke="black" d="M1846.82,-790.15C1938.62,-772.53 2080.01,-745.39 2175.34,-727.09"/>
<polygon fill="black" stroke="black" points="2175.7,-730.39 2184.86,-725.07 2174.38,-723.52 2175.7,-730.39"/>
<text text-anchor="middle" x="2110.65" y="-746.57" font-family="Times,serif" font-size="14.00">Nein</text>
</g>
<!-- A10 -->
<g id="node8" class="node">
<title>A10</title>
<polygon fill="#cfb986" stroke="black" points="793.64,-635.37 379.91,-635.37 379.91,-573.85 793.64,-573.85 793.64,-635.37"/>
<text text-anchor="start" x="571.78" y="-617.31" font-family="Times,serif" font-weight="bold" font-size="14.00">A10</text>
<text text-anchor="start" x="392.15" y="-605.21" font-family="Times,serif" text-decoration="underline" font-size="12.00">Hinweis:</text>
<text text-anchor="start" x="392.15" y="-593.21" font-family="Times,serif" font-size="12.00">Cluster: Ablehnung</text>
<text text-anchor="start" x="392.15" y="-581.21" font-family="Times,serif" font-size="12.00">Der Marktlokation ist nicht genau eine Messlokation zugeordnet</text>
</g>
<!-- 4&#45;&gt;A10 -->
<g id="edge8" class="edge">
<title>4-&gt;A10</title>
<path fill="none" stroke="black" d="M845.25,-688.2C802.97,-674.69 743.1,-655.56 691.62,-639.11"/>
<polygon fill="black" stroke="black" points="693.04,-635.57 682.45,-635.86 690.91,-642.24 693.04,-635.57"/>
<text text-anchor="middle" x="806.65" y="-657.32" font-family="Times,serif" font-size="14.00">Nein</text>
</g>
<!-- A11 -->
<g id="node9" class="node">
<title>A11</title>
<polygon fill="#cfb986" stroke="black" points="1359.77,-635.37 811.79,-635.37 811.79,-573.85 1359.77,-573.85 1359.77,-635.37"/>
<text text-anchor="start" x="1070.78" y="-617.31" font-family="Times,serif" font-weight="bold" font-size="14.00">A11</text>
<text text-anchor="start" x="824.03" y="-605.21" font-family="Times,serif" text-decoration="underline" font-size="12.00">Hinweis:</text>
<text text-anchor="start" x="824.03" y="-593.21" font-family="Times,serif" font-size="12.00">Cluster: Zustimmung</text>
<text text-anchor="start" x="824.03" y="-581.21" font-family="Times,serif" font-size="12.00">Energiemenge der Marktlokation ist mit der Energiemenge der Messlokation identisch</text>
</g>
<!-- 4&#45;&gt;A11 -->
<g id="edge9" class="edge">
<title>4-&gt;A11</title>
<path fill="none" stroke="black" d="M932.17,-688.2C956.4,-675.17 990.36,-656.92 1020.18,-640.88"/>
<polygon fill="black" stroke="black" points="1021.55,-643.58 1028.7,-635.76 1018.24,-637.41 1021.55,-643.58"/>
<text text-anchor="middle" x="999.53" y="-657.32" font-family="Times,serif" font-size="14.00">Ja</text>
</g>
<!-- 6 -->
<g id="node11" class="node">
<title>6</title>
<path fill="#7aab8a" stroke="black" d="M2362.8,-622.61C2362.8,-622.61 1440.75,-622.61 1440.75,-622.61 1434.75,-622.61 1428.75,-616.61 1428.75,-610.61 1428.75,-610.61 1428.75,-598.61 1428.75,-598.61 1428.75,-592.61 1434.75,-586.61 1440.75,-586.61 1440.75,-586.61 2362.8,-586.61 2362.8,-586.61 2368.8,-586.61 2374.8,-592.61 2374.8,-598.61 2374.8,-598.61 2374.8,-610.61 2374.8,-610.61 2374.8,-616.61 2368.8,-622.61 2362.8,-622.61"/>
<text text-anchor="start" x="1443.15" y="-600.94" font-family="Times,serif" font-weight="bold" font-size="14.00">6: </text>
<text text-anchor="start" x="1462.65" y="-600.94" font-family="Times,serif" font-size="14.00">Ist das &#8222;G&#252;ltig ab&#8220;-Datum der Berechnungsformel tagidentisch mit dem Datum der Struktur&#228;nderung des Lokationsb&#252;ndels?</text>
</g>
<!-- 5&#45;&gt;6 -->
<g id="edge10" class="edge">
<title>5-&gt;6</title>
<path fill="none" stroke="black" d="M2211.45,-688.2C2146.29,-670.82 2046.24,-644.14 1977.6,-625.83"/>
<polygon fill="black" stroke="black" points="1978.85,-622.28 1968.29,-623.08 1977.05,-629.04 1978.85,-622.28"/>
<text text-anchor="middle" x="2151.53" y="-657.32" font-family="Times,serif" font-size="14.00">Ja</text>
</g>
<!-- 7 -->
<g id="node13" class="node">
<title>7</title>
<path fill="#7aab8a" stroke="black" d="M3196.93,-507.84C3196.93,-507.84 1624.62,-507.84 1624.62,-507.84 1618.62,-507.84 1612.62,-501.84 1612.62,-495.84 1612.62,-495.84 1612.62,-483.84 1612.62,-483.84 1612.62,-477.84 1618.62,-471.84 1624.62,-471.84 1624.62,-471.84 3196.93,-471.84 3196.93,-471.84 3202.93,-471.84 3208.93,-477.84 3208.93,-483.84 3208.93,-483.84 3208.93,-495.84 3208.93,-495.84 3208.93,-501.84 3202.93,-507.84 3196.93,-507.84"/>
<text text-anchor="start" x="1627.03" y="-486.16" font-family="Times,serif" font-weight="bold" font-size="14.00">7: </text>
<text text-anchor="start" x="1646.53" y="-486.16" font-family="Times,serif" font-size="14.00">Ist die Anzahl der gemeldeten / vorliegenden Mess-lokationen aus den Stammdatenmeldungen (z. B. Anmeldebest&#228;tigung, Stammdaten&#228;nderung) gem&#228;&#223; dem &#8222;G&#252;ltig ab&#8220;-Datum kleiner als in der Berechnungsformel?</text>
</g>
<!-- 5&#45;&gt;7 -->
<g id="edge11" class="edge">
<title>5-&gt;7</title>
<path fill="none" stroke="black" d="M2318.45,-688.25C2341.26,-676.61 2368.01,-659.05 2383.78,-635.37 2407.23,-600.13 2411.63,-549.91 2411.81,-518.89"/>
<polygon fill="black" stroke="black" points="2415.31,-518.99 2411.71,-509.02 2408.31,-519.05 2415.31,-518.99"/>
<text text-anchor="middle" x="2423.65" y="-599.94" font-family="Times,serif" font-size="14.00">Nein</text>
</g>
<!-- A02 -->
<g id="node12" class="node">
<title>A02</title>
<polygon fill="#cfb986" stroke="black" points="1594.27,-520.6 1235.29,-520.6 1235.29,-459.08 1594.27,-459.08 1594.27,-520.6"/>
<text text-anchor="start" x="1399.78" y="-502.54" font-family="Times,serif" font-weight="bold" font-size="14.00">A02</text>
<text text-anchor="start" x="1247.53" y="-490.44" font-family="Times,serif" text-decoration="underline" font-size="12.00">Hinweis:</text>
<text text-anchor="start" x="1247.53" y="-478.44" font-family="Times,serif" font-size="12.00">Cluster: Ablehnung</text>
<text text-anchor="start" x="1247.53" y="-466.44" font-family="Times,serif" font-size="12.00">&#8222;G&#252;ltig ab&#8220;-Datum der Berechnungsformel unplausibel.</text>
</g>
<!-- 6&#45;&gt;A02 -->
<g id="edge12" class="edge">
<title>6-&gt;A02</title>
<path fill="none" stroke="black" d="M1826.22,-586.11C1754.2,-569.44 1643.98,-543.92 1555.74,-523.48"/>
<polygon fill="black" stroke="black" points="1556.62,-519.86 1546.09,-521.02 1555.04,-526.68 1556.62,-519.86"/>
<text text-anchor="middle" x="1704.65" y="-542.55" font-family="Times,serif" font-size="14.00">Nein</text>
</g>
<!-- 6&#45;&gt;7 -->
<g id="edge13" class="edge">
<title>6-&gt;7</title>
<path fill="none" stroke="black" d="M1980.75,-586.11C2072.93,-565.69 2225.02,-532 2321.43,-510.63"/>
<polygon fill="black" stroke="black" points="2322.03,-513.87 2331.04,-508.28 2320.52,-507.03 2322.03,-513.87"/>
<text text-anchor="middle" x="2193.53" y="-542.55" font-family="Times,serif" font-size="14.00">Ja</text>
</g>
<!-- A04 -->
<g id="node14" class="node">
<title>A04</title>
<polygon fill="#cfb986" stroke="black" points="2360.89,-405.83 1912.66,-405.83 1912.66,-344.31 2360.89,-344.31 2360.89,-405.83"/>
<text text-anchor="start" x="2121.78" y="-387.77" font-family="Times,serif" font-weight="bold" font-size="14.00">A04</text>
<text text-anchor="start" x="1924.9" y="-375.67" font-family="Times,serif" text-decoration="underline" font-size="12.00">Hinweis:</text>
<text text-anchor="start" x="1924.9" y="-363.67" font-family="Times,serif" font-size="12.00">Cluster: Ablehnung</text>
<text text-anchor="start" x="1924.9" y="-351.67" font-family="Times,serif" font-size="12.00">Es sind zu viele Messlokationen in der Berechnungsformel vorhanden.</text>
</g>
<!-- 7&#45;&gt;A04 -->
<g id="edge14" class="edge">
<title>7-&gt;A04</title>
<path fill="none" stroke="black" d="M2368.26,-471.34C2328.82,-455.11 2269,-430.49 2220.05,-410.34"/>
<polygon fill="black" stroke="black" points="2221.67,-406.82 2211.09,-406.25 2219.01,-413.29 2221.67,-406.82"/>
<text text-anchor="middle" x="2297.53" y="-427.78" font-family="Times,serif" font-size="14.00">Ja</text>
</g>
<!-- 8 -->
<g id="node15" class="node">
<title>8</title>
<path fill="#7aab8a" stroke="black" d="M4000.68,-393.07C4000.68,-393.07 2390.88,-393.07 2390.88,-393.07 2384.88,-393.07 2378.88,-387.07 2378.88,-381.07 2378.88,-381.07 2378.88,-369.07 2378.88,-369.07 2378.88,-363.07 2384.88,-357.07 2390.88,-357.07 2390.88,-357.07 4000.68,-357.07 4000.68,-357.07 4006.68,-357.07 4012.68,-363.07 4012.68,-369.07 4012.68,-369.07 4012.68,-381.07 4012.68,-381.07 4012.68,-387.07 4006.68,-393.07 4000.68,-393.07"/>
<text text-anchor="start" x="2393.28" y="-371.39" font-family="Times,serif" font-weight="bold" font-size="14.00">8: </text>
<text text-anchor="start" x="2412.78" y="-371.39" font-family="Times,serif" font-size="14.00">Ist die Anzahl gem&#228;&#223; der gemeldeten/vorliegenden Messlokationen aus den Stammdatenmeldungen (z.&#160;B. Anmeldebest&#228;tigung, Stammdaten&#228;nderung) gem&#228;&#223; dem &#8222;G&#252;ltig ab&#8220;-Datum gr&#246;&#223;er als in der Berechnungsformel?</text>
</g>
<!-- 7&#45;&gt;8 -->
<g id="edge15" class="edge">
<title>7-&gt;8</title>
<path fill="none" stroke="black" d="M2532.57,-471.34C2676.5,-450.67 2915.14,-416.39 3063.49,-395.07"/>
<polygon fill="black" stroke="black" points="3063.62,-398.45 3073.02,-393.56 3062.62,-391.52 3063.62,-398.45"/>
<text text-anchor="middle" x="2867.65" y="-427.78" font-family="Times,serif" font-size="14.00">Nein</text>
</g>
<!-- A05 -->
<g id="node16" class="node">
<title>A05</title>
<polygon fill="#cfb986" stroke="black" points="3125.27,-291.06 2778.28,-291.06 2778.28,-229.54 3125.27,-229.54 3125.27,-291.06"/>
<text text-anchor="start" x="2936.78" y="-273" font-family="Times,serif" font-weight="bold" font-size="14.00">A05</text>
<text text-anchor="start" x="2790.53" y="-260.9" font-family="Times,serif" text-decoration="underline" font-size="12.00">Hinweis:</text>
<text text-anchor="start" x="2790.53" y="-248.9" font-family="Times,serif" font-size="12.00">Cluster: Ablehnung</text>
<text text-anchor="start" x="2790.53" y="-236.9" font-family="Times,serif" font-size="12.00">Es fehlen Messlokationen in der Berechnungs-formel.</text>
</g>
<!-- 8&#45;&gt;A05 -->
<g id="edge16" class="edge">
<title>8-&gt;A05</title>
<path fill="none" stroke="black" d="M3157.92,-356.57C3123.02,-340.45 3070.22,-316.04 3026.79,-295.97"/>
<polygon fill="black" stroke="black" points="3028.37,-292.38 3017.83,-291.36 3025.44,-298.74 3028.37,-292.38"/>
<text text-anchor="middle" x="3095.53" y="-313.01" font-family="Times,serif" font-size="14.00">Ja</text>
</g>
<!-- 9 -->
<g id="node17" class="node">
<title>9</title>
<path fill="#7aab8a" stroke="black" d="M4625.93,-278.3C4625.93,-278.3 3155.62,-278.3 3155.62,-278.3 3149.62,-278.3 3143.62,-272.3 3143.62,-266.3 3143.62,-266.3 3143.62,-254.3 3143.62,-254.3 3143.62,-248.3 3149.62,-242.3 3155.62,-242.3 3155.62,-242.3 4625.93,-242.3 4625.93,-242.3 4631.93,-242.3 4637.93,-248.3 4637.93,-254.3 4637.93,-254.3 4637.93,-266.3 4637.93,-266.3 4637.93,-272.3 4631.93,-278.3 4625.93,-278.3"/>
<text text-anchor="start" x="3158.03" y="-256.62" font-family="Times,serif" font-weight="bold" font-size="14.00">9: </text>
<text text-anchor="start" x="3177.53" y="-256.62" font-family="Times,serif" font-size="14.00">Sind alle ID der Messlokationen in der Berechnungsformel mit den zuvor in den Stammdatenmeldungen (z. B. Anmeldebest&#228;tigung, Stammdaten&#228;nderung) gemeldeten ID der Messlokationen identisch?</text>
</g>
<!-- 8&#45;&gt;9 -->
<g id="edge17" class="edge">
<title>8-&gt;9</title>
<path fill="none" stroke="black" d="M3303.61,-356.57C3430.66,-335.96 3641.04,-301.82 3772.48,-280.5"/>
<polygon fill="black" stroke="black" points="3772.67,-283.85 3781.98,-278.79 3771.55,-276.94 3772.67,-283.85"/>
<text text-anchor="middle" x="3602.65" y="-313.01" font-family="Times,serif" font-size="14.00">Nein</text>
</g>
<!-- A06 -->
<g id="node18" class="node">
<title>A06</title>
<polygon fill="#cfb986" stroke="black" points="3744.27,-176.29 3445.28,-176.29 3445.28,-114.77 3744.27,-114.77 3744.27,-176.29"/>
<text text-anchor="start" x="3579.78" y="-158.23" font-family="Times,serif" font-weight="bold" font-size="14.00">A06</text>
<text text-anchor="start" x="3457.53" y="-146.13" font-family="Times,serif" text-decoration="underline" font-size="12.00">Hinweis:</text>
<text text-anchor="start" x="3457.53" y="-134.13" font-family="Times,serif" font-size="12.00">Cluster: Ablehnung</text>
<text text-anchor="start" x="3457.53" y="-122.13" font-family="Times,serif" font-size="12.00">ID der Messlokationen stimmen nicht &#252;berein</text>
</g>
<!-- 9&#45;&gt;A06 -->
<g id="edge18" class="edge">
<title>9-&gt;A06</title>
<path fill="none" stroke="black" d="M3844.85,-241.8C3802.06,-225.5 3737.07,-200.74 3684.07,-180.55"/>
<polygon fill="black" stroke="black" points="3685.57,-177 3674.98,-176.71 3683.08,-183.54 3685.57,-177"/>
<text text-anchor="middle" x="3776.65" y="-198.24" font-family="Times,serif" font-size="14.00">Nein</text>
</g>
<!-- 10 -->
<g id="node19" class="node">
<title>10</title>
<path fill="#7aab8a" stroke="black" d="M5675.17,-163.53C5675.17,-163.53 3774.38,-163.53 3774.38,-163.53 3768.38,-163.53 3762.38,-157.53 3762.38,-151.53 3762.38,-151.53 3762.38,-139.53 3762.38,-139.53 3762.38,-133.53 3768.38,-127.53 3774.38,-127.53 3774.38,-127.53 5675.17,-127.53 5675.17,-127.53 5681.17,-127.53 5687.17,-133.53 5687.17,-139.53 5687.17,-139.53 5687.17,-151.53 5687.17,-151.53 5687.17,-157.53 5681.17,-163.53 5675.17,-163.53"/>
<text text-anchor="start" x="3776.77" y="-141.85" font-family="Times,serif" font-weight="bold" font-size="14.00">10: </text>
<text text-anchor="start" x="3806.02" y="-141.85" font-family="Times,serif" font-size="14.00">Existiert f&#252;r jede Flussrichtung der in der Berechnungsformel vorhandenen Messlokationen mindestens eine zuvor in den Stammdatenmeldungen (z.&#160;B. Anmeldebest&#228;tigung, Stammdaten&#228;nderung) ausgetauschte OBIS-Kennzahl* mit identischer Flussrichtung?</text>
</g>
<!-- 9&#45;&gt;10 -->
<g id="edge19" class="edge">
<title>9-&gt;10</title>
<path fill="none" stroke="black" d="M4020.17,-241.8C4173.24,-221.11 4427.13,-186.78 4584.71,-165.47"/>
<polygon fill="black" stroke="black" points="4584.98,-168.83 4594.42,-164.02 4584.04,-161.89 4584.98,-168.83"/>
<text text-anchor="middle" x="4363.52" y="-198.24" font-family="Times,serif" font-size="14.00">Ja</text>
</g>
<!-- A07 -->
<g id="node20" class="node">
<title>A07</title>
<polygon fill="#cfb986" stroke="black" points="4767.14,-61.52 4272.41,-61.52 4272.41,0 4767.14,0 4767.14,-61.52"/>
<text text-anchor="start" x="4504.77" y="-43.46" font-family="Times,serif" font-weight="bold" font-size="14.00">A07</text>
<text text-anchor="start" x="4284.65" y="-31.36" font-family="Times,serif" text-decoration="underline" font-size="12.00">Hinweis:</text>
<text text-anchor="start" x="4284.65" y="-19.36" font-family="Times,serif" font-size="12.00">Cluster: Ablehnung</text>
<text text-anchor="start" x="4284.65" y="-7.36" font-family="Times,serif" font-size="12.00">Die Flussrichtung mindestens einer Messlokation ist nicht korrekt angegeben.</text>
</g>
<!-- 10&#45;&gt;A07 -->
<g id="edge20" class="edge">
<title>10-&gt;A07</title>
<path fill="none" stroke="black" d="M4693.19,-127.16C4664.22,-111.22 4620.43,-87.13 4584.1,-67.14"/>
<polygon fill="black" stroke="black" points="4586,-63.64 4575.55,-61.89 4582.63,-69.78 4586,-63.64"/>
<text text-anchor="middle" x="4650.65" y="-83.47" font-family="Times,serif" font-size="14.00">Nein</text>
</g>
<!-- A08 -->
<g id="node21" class="node">
<title>A08</title>
<polygon fill="#cfb986" stroke="black" points="5074.01,-61.52 4785.53,-61.52 4785.53,0 5074.01,0 5074.01,-61.52"/>
<text text-anchor="start" x="4914.77" y="-43.46" font-family="Times,serif" font-weight="bold" font-size="14.00">A08</text>
<text text-anchor="start" x="4797.77" y="-31.36" font-family="Times,serif" text-decoration="underline" font-size="12.00">Hinweis:</text>
<text text-anchor="start" x="4797.77" y="-19.36" font-family="Times,serif" font-size="12.00">Cluster: Zustimmung</text>
<text text-anchor="start" x="4797.77" y="-7.36" font-family="Times,serif" font-size="12.00">Zustimmung bei berechneter Marktlokation</text>
</g>
<!-- 10&#45;&gt;A08 -->
<g id="edge21" class="edge">
<title>10-&gt;A08</title>
<path fill="none" stroke="black" d="M4756.36,-127.16C4785.33,-111.22 4829.12,-87.13 4865.45,-67.14"/>
<polygon fill="black" stroke="black" points="4866.92,-69.78 4874,-61.89 4863.55,-63.64 4866.92,-69.78"/>
<text text-anchor="middle" x="4845.52" y="-83.47" font-family="Times,serif" font-size="14.00">Ja</text>
</g>
</g>
</svg>
  </g>
</svg>
  </g>
</svg>
