<?xml version='1.0' encoding='ASCII' standalone='yes'?>
<svg xmlns="http://www.w3.org/2000/svg" xmlns:xlink="http://www.w3.org/1999/xlink" version="1.1" width="1258.6666666666667px" viewBox="0 0 1258.6666666666667 448.0" height="448.0px">
  <g>
    <g transform="translate(450.26625771666625, 44.79999999999999) scale(1 1) translate(0, 0) scale(2.026131900508331 2.026131900508331) "><sodipodi:namedview xmlns:sodipodi="http://sodipodi.sourceforge.net/DTD/sodipodi-0.dtd" xmlns:inkscape="http://www.inkscape.org/namespaces/inkscape" id="namedview7" pagecolor="#ffffff" bordercolor="#999999" borderopacity="1" inkscape:pageshadow="0" inkscape:pageopacity="0" inkscape:pagecheckerboard="0" inkscape:document-units="mm" showgrid="false" fit-margin-top="0" fit-margin-left="0" fit-margin-right="0" fit-margin-bottom="0" inkscape:zoom="0.64052329" inkscape:cx="130.36216" inkscape:cy="412.163" inkscape:window-width="1512" inkscape:window-height="916" inkscape:window-x="3840" inkscape:window-y="136" inkscape:window-maximized="0" inkscape:current-layer="layer1"/>
  <defs id="defs2">
    <clipPath clipPathUnits="userSpaceOnUse" id="clipPath23">
      <path d="M 0,568.156 H 579.236 V 0 H 0 Z" id="path21"/>
    </clipPath>
  </defs>
  <g xmlns:inkscape="http://www.inkscape.org/namespaces/inkscape" inkscape:label="Layer 1" inkscape:groupmode="layer" id="layer1" transform="translate(-16.541937,-55.305267)">
    <g id="g19" clip-path="url(#clipPath23)" transform="matrix(0.35277777,0,0,-0.35277777,0.01017023,243.73675)" style="opacity:0.2">
      <g id="g25" transform="translate(122.444,32.7195)">
        <path d="m 0,0 h -56.104 c -11,0 -19.898,9.123 -19.463,20.115 10.594,267.191 231.277,481.302 501.029,481.302 v -56.02 c 0,-10.98 -8.688,-19.892 -19.658,-20.393 C 180.29,414.697 0,228.005 0,0" style="fill:#6ead83;fill-opacity:1;fill-rule:nonzero;stroke:none" id="path27"/>
      </g>
      <g id="g29" transform="translate(273.7828,32.7195)">
        <path d="m 0,0 h -55.926 c -11.228,0 -20.091,9.482 -19.435,20.69 10.744,183.439 163.389,329.388 349.485,329.388 v -56.263 c 0,-10.709 -8.273,-19.617 -18.957,-20.35 C 112.819,263.696 0,144.774 0,0" style="fill:#6ead83;fill-opacity:1;fill-rule:nonzero;stroke:none" id="path31"/>
      </g>
      <g id="g33" transform="translate(425.7667,32.7195)">
        <path d="m 0,0 h -55.445 c -11.653,0 -20.604,10.17 -19.334,21.753 10.866,99.032 95.031,176.341 196.919,176.341 v -57.011 c 0,-10.046 -7.283,-18.755 -17.229,-20.165 C 45.688,112.522 0,61.497 0,0" style="fill:#6ead83;fill-opacity:1;fill-rule:nonzero;stroke:none" id="path35"/>
      </g>
    </g>
  </g>
</g>
    <svg width="944pt" height="336pt" viewBox="0.00 0.00 944.00 336.00">
<g id="graph0" class="graph" transform="scale(1 1) rotate(0) translate(4 332)">
<title>D</title>
<text text-anchor="start" x="410.5" y="-310.6" font-family="Times,serif" font-weight="bold" font-size="18.00">WiM Strom</text>
<text text-anchor="start" x="8" y="-280.2" font-family="Times,serif" font-weight="bold" font-size="16.00">9.10.1: AD: Beendigung Rechnungsabwicklung des Messstellenbetriebes &#252;ber den LF durch den MSB</text>
<!-- Start -->
<g id="node1" class="node">
<title>Start</title>
<polygon fill="#7a8da1" stroke="black" points="565,-230 409,-230 409,-186 565,-186 565,-230"/>
<text text-anchor="start" x="458.5" y="-210.8" font-family="Times,serif" font-weight="bold" font-size="14.00">E_0206</text>
<text text-anchor="start" x="423" y="-198.4" font-family="Times,serif" font-weight="bold" text-decoration="underline" font-size="12.00">Pr&#252;fende Rolle:</text>
<text text-anchor="start" x="529" y="-198.4" font-family="Times,serif" font-weight="bold" font-size="12.00"> LF</text>
</g>
<!-- 1 -->
<g id="node2" class="node">
<title>1</title>
<path fill="#7aab8a" stroke="black" d="M772.5,-149C772.5,-149 201.5,-149 201.5,-149 195.5,-149 189.5,-143 189.5,-137 189.5,-137 189.5,-125 189.5,-125 189.5,-119 195.5,-113 201.5,-113 201.5,-113 772.5,-113 772.5,-113 778.5,-113 784.5,-119 784.5,-125 784.5,-125 784.5,-137 784.5,-137 784.5,-143 778.5,-149 772.5,-149"/>
<text text-anchor="start" x="203.5" y="-128.3" font-family="Times,serif" font-weight="bold" font-size="14.00">1: </text>
<text text-anchor="start" x="223.5" y="-128.3" font-family="Times,serif" font-size="14.00">Besteht ein Vertragsverh&#228;ltnis &#252;ber die Rechnungsabwicklung &#252;ber den LF?</text>
</g>
<!-- Start&#45;&gt;1 -->
<g id="edge1" class="edge">
<title>Start-&gt;1</title>
<path fill="none" stroke="black" d="M487,-185.71C487,-177.82 487,-168.75 487,-160.33"/>
<polygon fill="black" stroke="black" points="490.5,-160.57 487,-150.57 483.5,-160.57 490.5,-160.57"/>
</g>
<!-- A01 -->
<g id="node3" class="node">
<title>A01</title>
<polygon fill="#cca9ab" stroke="black" points="536.5,-62 151.5,-62 151.5,0 536.5,0 536.5,-62"/>
<text text-anchor="start" x="328.5" y="-45.8" font-family="Times,serif" font-weight="bold" font-size="14.00">A01</text>
<text text-anchor="start" x="163.5" y="-33.4" font-family="Times,serif" text-decoration="underline" font-size="12.00">Hinweis:</text>
<text text-anchor="start" x="163.5" y="-21.4" font-family="Times,serif" font-size="12.00">Cluster: Ablehnung</text>
<text text-anchor="start" x="163.5" y="-9.4" font-family="Times,serif" font-size="12.00">Keine Vereinbarung &#252;ber die Abrechnung MSB &#252;ber den LF</text>
</g>
<!-- 1&#45;&gt;A01 -->
<g id="edge2" class="edge">
<title>1-&gt;A01</title>
<path fill="none" stroke="black" d="M461.76,-112.71C444.01,-100.54 419.6,-83.81 397.6,-68.73"/>
<polygon fill="black" stroke="black" points="399.82,-66.01 389.59,-63.25 395.86,-71.79 399.82,-66.01"/>
<text text-anchor="middle" x="450" y="-83.8" font-family="Times,serif" font-size="14.00">Nein</text>
</g>
<!-- A02 -->
<g id="node4" class="node">
<title>A02</title>
<polygon fill="#cca9ab" stroke="black" points="705.5,-62 554.5,-62 554.5,0 705.5,0 705.5,-62"/>
<text text-anchor="start" x="614.5" y="-45.8" font-family="Times,serif" font-weight="bold" font-size="14.00">A02</text>
<text text-anchor="start" x="566.5" y="-33.4" font-family="Times,serif" text-decoration="underline" font-size="12.00">Hinweis:</text>
<text text-anchor="start" x="566.5" y="-21.4" font-family="Times,serif" font-size="12.00">Cluster: Zustimmung</text>
<text text-anchor="start" x="566.5" y="-9.4" font-family="Times,serif" font-size="12.00">Zustimmung</text>
</g>
<!-- 1&#45;&gt;A02 -->
<g id="edge3" class="edge">
<title>1-&gt;A02</title>
<path fill="none" stroke="black" d="M512.24,-112.71C529.99,-100.54 554.4,-83.81 576.4,-68.73"/>
<polygon fill="black" stroke="black" points="578.14,-71.79 584.41,-63.25 574.18,-66.01 578.14,-71.79"/>
<text text-anchor="middle" x="566" y="-83.8" font-family="Times,serif" font-size="14.00">Ja</text>
</g>
</g>
</svg>
  </g>
</svg>
