<?xml version="1.0" encoding="UTF-8" standalone="no"?>
<!DOCTYPE svg PUBLIC "-//W3C//DTD SVG 1.1//EN"
 "http://www.w3.org/Graphics/SVG/1.1/DTD/svg11.dtd">
<!-- Generated by graphviz version 7.0.5 (20221223.1930)
 -->
<!-- Title: D Pages: 1 -->
<svg width="5696pt" height="1214pt"
 viewBox="0.00 0.00 5695.50 1214.00" xmlns="http://www.w3.org/2000/svg" xmlns:xlink="http://www.w3.org/1999/xlink">
<g id="graph0" class="graph" transform="scale(1 1) rotate(0) translate(4 1210)">
<title>D</title>
<polygon fill="white" stroke="none" points="-4,4 -4,-1210 5691.5,-1210 5691.5,4 -4,4"/>
<text text-anchor="start" x="2761.75" y="-1188.6" font-family="Times,serif" font-weight="bold" font-size="18.00">Dummy Chapter</text>
<text text-anchor="start" x="2753.75" y="-1158.2" font-family="Times,serif" font-weight="bold" font-size="16.00">Dummy Subchapter</text>
<!-- Start -->
<g id="node1" class="node">
<title>Start</title>
<polygon fill="#7a8da1" stroke="black" points="531,-1108 359,-1108 359,-1064 531,-1064 531,-1108"/>
<text text-anchor="start" x="416.5" y="-1088.8" font-family="Times,serif" font-weight="bold" font-size="14.00">E_0218</text>
<text text-anchor="start" x="373" y="-1076.4" font-family="Times,serif" font-weight="bold" text-decoration="underline" font-size="12.00">Prüfende Rolle:</text>
<text text-anchor="start" x="479" y="-1076.4" font-family="Times,serif" font-weight="bold" font-size="12.00"> MSB</text>
</g>
<!-- 1 -->
<g id="node2" class="node">
<title>1</title>
<path fill="#7aab8a" stroke="black" d="M673.5,-1027C673.5,-1027 216.5,-1027 216.5,-1027 210.5,-1027 204.5,-1021 204.5,-1015 204.5,-1015 204.5,-1003 204.5,-1003 204.5,-997 210.5,-991 216.5,-991 216.5,-991 673.5,-991 673.5,-991 679.5,-991 685.5,-997 685.5,-1003 685.5,-1003 685.5,-1015 685.5,-1015 685.5,-1021 679.5,-1027 673.5,-1027"/>
<text text-anchor="start" x="218.5" y="-1006.3" font-family="Times,serif" font-weight="bold" font-size="14.00">1: </text>
<text text-anchor="start" x="238.5" y="-1006.3" font-family="Times,serif" font-size="14.00">Ist die Lieferrichtung der Marktlokation korrekt angegeben?</text>
</g>
<!-- Start&#45;&gt;1 -->
<g id="edge1" class="edge">
<title>Start&#45;&gt;1</title>
<path fill="none" stroke="black" d="M445,-1063.71C445,-1055.82 445,-1046.75 445,-1038.33"/>
<polygon fill="black" stroke="black" points="448.5,-1038.57 445,-1028.57 441.5,-1038.57 448.5,-1038.57"/>
</g>
<!-- A01 -->
<g id="node3" class="node">
<title>A01</title>
<polygon fill="#cca9ab" stroke="black" points="582.5,-940 251.5,-940 251.5,-878 582.5,-878 582.5,-940"/>
<text text-anchor="start" x="401.5" y="-923.8" font-family="Times,serif" font-weight="bold" font-size="14.00">A01</text>
<text text-anchor="start" x="263.5" y="-911.4" font-family="Times,serif" text-decoration="underline" font-size="12.00">Hinweis:</text>
<text text-anchor="start" x="263.5" y="-899.4" font-family="Times,serif" font-size="12.00">Cluster: Ablehnung</text>
<text text-anchor="start" x="263.5" y="-887.4" font-family="Times,serif" font-size="12.00">Lieferrichtung der Marktlokation ist nicht korrekt.</text>
</g>
<!-- 1&#45;&gt;A01 -->
<g id="edge2" class="edge">
<title>1&#45;&gt;A01</title>
<path fill="none" stroke="black" d="M440.12,-990.93C436.98,-979.94 432.76,-965.15 428.78,-951.22"/>
<polygon fill="black" stroke="black" points="432.19,-950.44 426.08,-941.78 425.46,-952.36 432.19,-950.44"/>
<text text-anchor="middle" x="452" y="-961.8" font-family="Times,serif" font-size="14.00">Nein</text>
</g>
<!-- 2 -->
<g id="node4" class="node">
<title>2</title>
<path fill="#7aab8a" stroke="black" d="M1773,-927C1773,-927 613,-927 613,-927 607,-927 601,-921 601,-915 601,-915 601,-903 601,-903 601,-897 607,-891 613,-891 613,-891 1773,-891 1773,-891 1779,-891 1785,-897 1785,-903 1785,-903 1785,-915 1785,-915 1785,-921 1779,-927 1773,-927"/>
<text text-anchor="start" x="615" y="-906.3" font-family="Times,serif" font-weight="bold" font-size="14.00">2: </text>
<text text-anchor="start" x="635" y="-906.3" font-family="Times,serif" font-size="14.00">Ist im Geschäftsvorfall der Status der Berechnungsformel für die Marktlokation mit „Berechnungsformel muss beim Absender angefragt werden“ angegeben?</text>
</g>
<!-- 1&#45;&gt;2 -->
<g id="edge3" class="edge">
<title>1&#45;&gt;2</title>
<path fill="none" stroke="black" d="M578.3,-990.54C710.46,-973.22 912.34,-946.77 1048.33,-928.95"/>
<polygon fill="black" stroke="black" points="1048.68,-932.44 1058.14,-927.67 1047.77,-925.5 1048.68,-932.44"/>
<text text-anchor="middle" x="826" y="-961.8" font-family="Times,serif" font-size="14.00">Ja</text>
</g>
<!-- A09 -->
<g id="node5" class="node">
<title>A09</title>
<polygon fill="#cca9ab" stroke="black" points="1178,-827 810,-827 810,-765 1178,-765 1178,-827"/>
<text text-anchor="start" x="978.5" y="-810.8" font-family="Times,serif" font-weight="bold" font-size="14.00">A09</text>
<text text-anchor="start" x="822" y="-798.4" font-family="Times,serif" text-decoration="underline" font-size="12.00">Hinweis:</text>
<text text-anchor="start" x="822" y="-786.4" font-family="Times,serif" font-size="12.00">Cluster: Zustimmung</text>
<text text-anchor="start" x="822" y="-774.4" font-family="Times,serif" font-size="12.00">Berechnungsformel muss bilateral ausgetauscht werden.</text>
</g>
<!-- 2&#45;&gt;A09 -->
<g id="edge4" class="edge">
<title>2&#45;&gt;A09</title>
<path fill="none" stroke="black" d="M1161.91,-890.66C1134.35,-875.28 1093.22,-852.34 1058.56,-833.01"/>
<polygon fill="black" stroke="black" points="1060.27,-829.96 1049.83,-828.14 1056.86,-836.07 1060.27,-829.96"/>
<text text-anchor="middle" x="1113" y="-848.8" font-family="Times,serif" font-size="14.00">Ja</text>
</g>
<!-- 3 -->
<g id="node6" class="node">
<title>3</title>
<path fill="#7aab8a" stroke="black" d="M2304,-814C2304,-814 1208,-814 1208,-814 1202,-814 1196,-808 1196,-802 1196,-802 1196,-790 1196,-790 1196,-784 1202,-778 1208,-778 1208,-778 2304,-778 2304,-778 2310,-778 2316,-784 2316,-790 2316,-790 2316,-802 2316,-802 2316,-808 2310,-814 2304,-814"/>
<text text-anchor="start" x="1210" y="-793.3" font-family="Times,serif" font-weight="bold" font-size="14.00">3: </text>
<text text-anchor="start" x="1230" y="-793.3" font-family="Times,serif" font-size="14.00">Ist im Geschäftsvorfall der Status der Berechnungsformel für die Marktlokation mit „Berechnungsformel besitzt keine Rechenoperation“ angegeben?</text>
</g>
<!-- 2&#45;&gt;3 -->
<g id="edge5" class="edge">
<title>2&#45;&gt;3</title>
<path fill="none" stroke="black" d="M1281.59,-890.53C1383.43,-870.46 1550.16,-837.58 1656.42,-816.63"/>
<polygon fill="black" stroke="black" points="1656.85,-820.12 1665.98,-814.75 1655.49,-813.25 1656.85,-820.12"/>
<text text-anchor="middle" x="1526" y="-848.8" font-family="Times,serif" font-size="14.00">Nein</text>
</g>
<!-- 4 -->
<g id="node7" class="node">
<title>4</title>
<path fill="#7aab8a" stroke="black" d="M1788,-714C1788,-714 12,-714 12,-714 6,-714 0,-708 0,-702 0,-702 0,-690 0,-690 0,-684 6,-678 12,-678 12,-678 1788,-678 1788,-678 1794,-678 1800,-684 1800,-690 1800,-690 1800,-702 1800,-702 1800,-708 1794,-714 1788,-714"/>
<text text-anchor="start" x="14" y="-693.3" font-family="Times,serif" font-weight="bold" font-size="14.00">4: </text>
<text text-anchor="start" x="34" y="-693.3" font-family="Times,serif" font-size="14.00">Ist in den zuvor ausgetauschten Stammdatenmeldungen (z.B. Anmeldebestätigung, Stammdatenänderung (inklusive Lokationsbündelstrukturänderung)) gemäß dem „Gültig&#45;Ab“ Datum genau eine Messlokation dieser Marktlokation zugeordnet?</text>
</g>
<!-- 3&#45;&gt;4 -->
<g id="edge6" class="edge">
<title>3&#45;&gt;4</title>
<path fill="none" stroke="black" d="M1603.46,-777.54C1451.61,-760.15 1219.33,-733.56 1063.68,-715.74"/>
<polygon fill="black" stroke="black" points="1064.45,-712.3 1054.12,-714.64 1063.65,-719.26 1064.45,-712.3"/>
<text text-anchor="middle" x="1335" y="-735.8" font-family="Times,serif" font-size="14.00">Ja</text>
</g>
<!-- 5 -->
<g id="node10" class="node">
<title>5</title>
<path fill="#7aab8a" stroke="black" d="M2724,-714C2724,-714 1830,-714 1830,-714 1824,-714 1818,-708 1818,-702 1818,-702 1818,-690 1818,-690 1818,-684 1824,-678 1830,-678 1830,-678 2724,-678 2724,-678 2730,-678 2736,-684 2736,-690 2736,-690 2736,-702 2736,-702 2736,-708 2730,-714 2724,-714"/>
<text text-anchor="start" x="1832" y="-693.3" font-family="Times,serif" font-weight="bold" font-size="14.00">5: </text>
<text text-anchor="start" x="1852" y="-693.3" font-family="Times,serif" font-size="14.00">Liegt eine Änderung der Lokationsbündelstruktur durch den NB vor, die durch Stammdatenänderung übermittelt wurde?</text>
</g>
<!-- 3&#45;&gt;5 -->
<g id="edge7" class="edge">
<title>3&#45;&gt;5</title>
<path fill="none" stroke="black" d="M1848.84,-777.54C1939.88,-760.41 2078.41,-734.35 2173.08,-716.55"/>
<polygon fill="black" stroke="black" points="2173.45,-720.04 2182.63,-714.75 2172.15,-713.16 2173.45,-720.04"/>
<text text-anchor="middle" x="2096" y="-735.8" font-family="Times,serif" font-size="14.00">Nein</text>
</g>
<!-- A10 -->
<g id="node8" class="node">
<title>A10</title>
<polygon fill="#cca9ab" stroke="black" points="794,-627 380,-627 380,-565 794,-565 794,-627"/>
<text text-anchor="start" x="571.5" y="-610.8" font-family="Times,serif" font-weight="bold" font-size="14.00">A10</text>
<text text-anchor="start" x="392" y="-598.4" font-family="Times,serif" text-decoration="underline" font-size="12.00">Hinweis:</text>
<text text-anchor="start" x="392" y="-586.4" font-family="Times,serif" font-size="12.00">Cluster: Ablehnung</text>
<text text-anchor="start" x="392" y="-574.4" font-family="Times,serif" font-size="12.00">Der Marktlokation ist nicht genau eine Messlokation zugeordnet</text>
</g>
<!-- 4&#45;&gt;A10 -->
<g id="edge8" class="edge">
<title>4&#45;&gt;A10</title>
<path fill="none" stroke="black" d="M844.4,-677.59C803.08,-664.65 745.39,-646.59 695.1,-630.85"/>
<polygon fill="black" stroke="black" points="696.19,-627.52 685.6,-627.87 694.1,-634.2 696.19,-627.52"/>
<text text-anchor="middle" x="798" y="-648.8" font-family="Times,serif" font-size="14.00">Nein</text>
</g>
<!-- A11 -->
<g id="node9" class="node">
<title>A11</title>
<polygon fill="#cca9ab" stroke="black" points="1360,-627 812,-627 812,-565 1360,-565 1360,-627"/>
<text text-anchor="start" x="1070.5" y="-610.8" font-family="Times,serif" font-weight="bold" font-size="14.00">A11</text>
<text text-anchor="start" x="824" y="-598.4" font-family="Times,serif" text-decoration="underline" font-size="12.00">Hinweis:</text>
<text text-anchor="start" x="824" y="-586.4" font-family="Times,serif" font-size="12.00">Cluster: Zustimmung</text>
<text text-anchor="start" x="824" y="-574.4" font-family="Times,serif" font-size="12.00">Energiemenge der Marktlokation ist mit der Energiemenge der Messlokation identisch</text>
</g>
<!-- 4&#45;&gt;A11 -->
<g id="edge9" class="edge">
<title>4&#45;&gt;A11</title>
<path fill="none" stroke="black" d="M932.82,-677.71C956.43,-665.27 989.09,-648.06 1018.2,-632.72"/>
<polygon fill="black" stroke="black" points="1019.77,-635.85 1026.98,-628.1 1016.5,-629.66 1019.77,-635.85"/>
<text text-anchor="middle" x="1000" y="-648.8" font-family="Times,serif" font-size="14.00">Ja</text>
</g>
<!-- 6 -->
<g id="node11" class="node">
<title>6</title>
<path fill="#7aab8a" stroke="black" d="M2363,-614C2363,-614 1441,-614 1441,-614 1435,-614 1429,-608 1429,-602 1429,-602 1429,-590 1429,-590 1429,-584 1435,-578 1441,-578 1441,-578 2363,-578 2363,-578 2369,-578 2375,-584 2375,-590 2375,-590 2375,-602 2375,-602 2375,-608 2369,-614 2363,-614"/>
<text text-anchor="start" x="1443" y="-593.3" font-family="Times,serif" font-weight="bold" font-size="14.00">6: </text>
<text text-anchor="start" x="1463" y="-593.3" font-family="Times,serif" font-size="14.00">Ist das „Gültig ab“&#45;Datum der Berechnungsformel tagidentisch mit dem Datum der Strukturänderung des Lokationsbündels?</text>
</g>
<!-- 5&#45;&gt;6 -->
<g id="edge10" class="edge">
<title>5&#45;&gt;6</title>
<path fill="none" stroke="black" d="M2210.39,-677.59C2145.89,-660.74 2048.13,-635.19 1980.02,-617.39"/>
<polygon fill="black" stroke="black" points="1980.96,-614.02 1970.4,-614.88 1979.19,-620.79 1980.96,-614.02"/>
<text text-anchor="middle" x="2142" y="-648.8" font-family="Times,serif" font-size="14.00">Ja</text>
</g>
<!-- 7 -->
<g id="node13" class="node">
<title>7</title>
<path fill="#7aab8a" stroke="black" d="M3197.5,-501C3197.5,-501 1624.5,-501 1624.5,-501 1618.5,-501 1612.5,-495 1612.5,-489 1612.5,-489 1612.5,-477 1612.5,-477 1612.5,-471 1618.5,-465 1624.5,-465 1624.5,-465 3197.5,-465 3197.5,-465 3203.5,-465 3209.5,-471 3209.5,-477 3209.5,-477 3209.5,-489 3209.5,-489 3209.5,-495 3203.5,-501 3197.5,-501"/>
<text text-anchor="start" x="1626.5" y="-480.3" font-family="Times,serif" font-weight="bold" font-size="14.00">7: </text>
<text text-anchor="start" x="1646.5" y="-480.3" font-family="Times,serif" font-size="14.00">Ist die Anzahl der gemeldeten / vorliegenden Mess&#45;lokationen aus den Stammdatenmeldungen (z. B. Anmeldebestätigung, Stammdatenänderung) gemäß dem „Gültig ab“&#45;Datum kleiner als in der Berechnungsformel?</text>
</g>
<!-- 5&#45;&gt;7 -->
<g id="edge11" class="edge">
<title>5&#45;&gt;7</title>
<path fill="none" stroke="black" d="M2320.52,-677.56C2342.9,-666.39 2368.63,-649.68 2384,-627 2407.4,-592.47 2411.85,-543.01 2412.06,-512.23"/>
<polygon fill="black" stroke="black" points="2415.56,-512.52 2411.96,-502.56 2408.56,-512.59 2415.56,-512.52"/>
<text text-anchor="middle" x="2425" y="-592.3" font-family="Times,serif" font-size="14.00">Nein</text>
</g>
<!-- A02 -->
<g id="node12" class="node">
<title>A02</title>
<polygon fill="#cca9ab" stroke="black" points="1594.5,-514 1235.5,-514 1235.5,-452 1594.5,-452 1594.5,-514"/>
<text text-anchor="start" x="1399.5" y="-497.8" font-family="Times,serif" font-weight="bold" font-size="14.00">A02</text>
<text text-anchor="start" x="1247.5" y="-485.4" font-family="Times,serif" text-decoration="underline" font-size="12.00">Hinweis:</text>
<text text-anchor="start" x="1247.5" y="-473.4" font-family="Times,serif" font-size="12.00">Cluster: Ablehnung</text>
<text text-anchor="start" x="1247.5" y="-461.4" font-family="Times,serif" font-size="12.00">„Gültig ab“&#45;Datum der Berechnungsformel unplausibel.</text>
</g>
<!-- 6&#45;&gt;A02 -->
<g id="edge12" class="edge">
<title>6&#45;&gt;A02</title>
<path fill="none" stroke="black" d="M1825.37,-577.53C1754.34,-561.35 1646.82,-536.84 1559.65,-516.97"/>
<polygon fill="black" stroke="black" points="1560.59,-513.59 1550.06,-514.78 1559.03,-520.42 1560.59,-513.59"/>
<text text-anchor="middle" x="1705" y="-535.8" font-family="Times,serif" font-size="14.00">Nein</text>
</g>
<!-- 6&#45;&gt;7 -->
<g id="edge13" class="edge">
<title>6&#45;&gt;7</title>
<path fill="none" stroke="black" d="M1982.09,-577.53C2073.79,-557.54 2223.69,-524.85 2319.8,-503.89"/>
<polygon fill="black" stroke="black" points="2320.45,-507.33 2329.48,-501.78 2318.96,-500.49 2320.45,-507.33"/>
<text text-anchor="middle" x="2194" y="-535.8" font-family="Times,serif" font-size="14.00">Ja</text>
</g>
<!-- A04 -->
<g id="node14" class="node">
<title>A04</title>
<polygon fill="#cca9ab" stroke="black" points="2361,-401 1913,-401 1913,-339 2361,-339 2361,-401"/>
<text text-anchor="start" x="2121.5" y="-384.8" font-family="Times,serif" font-weight="bold" font-size="14.00">A04</text>
<text text-anchor="start" x="1925" y="-372.4" font-family="Times,serif" text-decoration="underline" font-size="12.00">Hinweis:</text>
<text text-anchor="start" x="1925" y="-360.4" font-family="Times,serif" font-size="12.00">Cluster: Ablehnung</text>
<text text-anchor="start" x="1925" y="-348.4" font-family="Times,serif" font-size="12.00">Es sind zu viele Messlokationen in der Berechnungsformel vorhanden.</text>
</g>
<!-- 7&#45;&gt;A04 -->
<g id="edge14" class="edge">
<title>7&#45;&gt;A04</title>
<path fill="none" stroke="black" d="M2367.89,-464.53C2329.06,-448.81 2270.86,-425.23 2222.61,-405.68"/>
<polygon fill="black" stroke="black" points="2224.14,-402.53 2213.56,-402.02 2221.51,-409.01 2224.14,-402.53"/>
<text text-anchor="middle" x="2298" y="-422.8" font-family="Times,serif" font-size="14.00">Ja</text>
</g>
<!-- 8 -->
<g id="node15" class="node">
<title>8</title>
<path fill="#7aab8a" stroke="black" d="M4001,-388C4001,-388 2391,-388 2391,-388 2385,-388 2379,-382 2379,-376 2379,-376 2379,-364 2379,-364 2379,-358 2385,-352 2391,-352 2391,-352 4001,-352 4001,-352 4007,-352 4013,-358 4013,-364 4013,-364 4013,-376 4013,-376 4013,-382 4007,-388 4001,-388"/>
<text text-anchor="start" x="2393" y="-367.3" font-family="Times,serif" font-weight="bold" font-size="14.00">8: </text>
<text text-anchor="start" x="2413" y="-367.3" font-family="Times,serif" font-size="14.00">Ist die Anzahl gemäß der gemeldeten/vorliegenden Messlokationen aus den Stammdatenmeldungen (z. B. Anmeldebestätigung, Stammdatenänderung) gemäß dem „Gültig ab“&#45;Datum größer als in der Berechnungsformel?</text>
</g>
<!-- 7&#45;&gt;8 -->
<g id="edge15" class="edge">
<title>7&#45;&gt;8</title>
<path fill="none" stroke="black" d="M2534.52,-464.53C2677.81,-444.27 2913.24,-410.98 3061.17,-390.06"/>
<polygon fill="black" stroke="black" points="3061.64,-393.53 3071.06,-388.67 3060.66,-386.6 3061.64,-393.53"/>
<text text-anchor="middle" x="2868" y="-422.8" font-family="Times,serif" font-size="14.00">Nein</text>
</g>
<!-- A05 -->
<g id="node16" class="node">
<title>A05</title>
<polygon fill="#cca9ab" stroke="black" points="3125.5,-288 2778.5,-288 2778.5,-226 3125.5,-226 3125.5,-288"/>
<text text-anchor="start" x="2936.5" y="-271.8" font-family="Times,serif" font-weight="bold" font-size="14.00">A05</text>
<text text-anchor="start" x="2790.5" y="-259.4" font-family="Times,serif" text-decoration="underline" font-size="12.00">Hinweis:</text>
<text text-anchor="start" x="2790.5" y="-247.4" font-family="Times,serif" font-size="12.00">Cluster: Ablehnung</text>
<text text-anchor="start" x="2790.5" y="-235.4" font-family="Times,serif" font-size="12.00">Es fehlen Messlokationen in der Berechnungs&#45;formel.</text>
</g>
<!-- 8&#45;&gt;A05 -->
<g id="edge16" class="edge">
<title>8&#45;&gt;A05</title>
<path fill="none" stroke="black" d="M3157.61,-351.53C3123.26,-335.91 3071.89,-312.54 3029.09,-293.07"/>
<polygon fill="black" stroke="black" points="3030.62,-289.92 3020.06,-288.96 3027.72,-296.29 3030.62,-289.92"/>
<text text-anchor="middle" x="3096" y="-309.8" font-family="Times,serif" font-size="14.00">Ja</text>
</g>
<!-- 9 -->
<g id="node17" class="node">
<title>9</title>
<path fill="#7aab8a" stroke="black" d="M4626.5,-275C4626.5,-275 3155.5,-275 3155.5,-275 3149.5,-275 3143.5,-269 3143.5,-263 3143.5,-263 3143.5,-251 3143.5,-251 3143.5,-245 3149.5,-239 3155.5,-239 3155.5,-239 4626.5,-239 4626.5,-239 4632.5,-239 4638.5,-245 4638.5,-251 4638.5,-251 4638.5,-263 4638.5,-263 4638.5,-269 4632.5,-275 4626.5,-275"/>
<text text-anchor="start" x="3157.5" y="-254.3" font-family="Times,serif" font-weight="bold" font-size="14.00">9: </text>
<text text-anchor="start" x="3177.5" y="-254.3" font-family="Times,serif" font-size="14.00">Sind alle ID der Messlokationen in der Berechnungsformel mit den zuvor in den Stammdatenmeldungen (z. B. Anmeldebestätigung, Stammdatenänderung) gemeldeten ID der Messlokationen identisch?</text>
</g>
<!-- 8&#45;&gt;9 -->
<g id="edge17" class="edge">
<title>8&#45;&gt;9</title>
<path fill="none" stroke="black" d="M3305.36,-351.53C3431.83,-331.33 3639.4,-298.18 3770.45,-277.25"/>
<polygon fill="black" stroke="black" points="3770.89,-280.73 3780.21,-275.69 3769.79,-273.82 3770.89,-280.73"/>
<text text-anchor="middle" x="3603" y="-309.8" font-family="Times,serif" font-size="14.00">Nein</text>
</g>
<!-- A06 -->
<g id="node18" class="node">
<title>A06</title>
<polygon fill="#cca9ab" stroke="black" points="3744.5,-175 3445.5,-175 3445.5,-113 3744.5,-113 3744.5,-175"/>
<text text-anchor="start" x="3579.5" y="-158.8" font-family="Times,serif" font-weight="bold" font-size="14.00">A06</text>
<text text-anchor="start" x="3457.5" y="-146.4" font-family="Times,serif" text-decoration="underline" font-size="12.00">Hinweis:</text>
<text text-anchor="start" x="3457.5" y="-134.4" font-family="Times,serif" font-size="12.00">Cluster: Ablehnung</text>
<text text-anchor="start" x="3457.5" y="-122.4" font-family="Times,serif" font-size="12.00">ID der Messlokationen stimmen nicht überein</text>
</g>
<!-- 9&#45;&gt;A06 -->
<g id="edge18" class="edge">
<title>9&#45;&gt;A06</title>
<path fill="none" stroke="black" d="M3844.42,-238.53C3802.31,-222.74 3739.08,-199.03 3686.83,-179.43"/>
<polygon fill="black" stroke="black" points="3688.2,-176.21 3677.61,-175.98 3685.74,-182.77 3688.2,-176.21"/>
<text text-anchor="middle" x="3777" y="-196.8" font-family="Times,serif" font-size="14.00">Nein</text>
</g>
<!-- 10 -->
<g id="node19" class="node">
<title>10</title>
<path fill="#7aab8a" stroke="black" d="M5675.5,-162C5675.5,-162 3774.5,-162 3774.5,-162 3768.5,-162 3762.5,-156 3762.5,-150 3762.5,-150 3762.5,-138 3762.5,-138 3762.5,-132 3768.5,-126 3774.5,-126 3774.5,-126 5675.5,-126 5675.5,-126 5681.5,-126 5687.5,-132 5687.5,-138 5687.5,-138 5687.5,-150 5687.5,-150 5687.5,-156 5681.5,-162 5675.5,-162"/>
<text text-anchor="start" x="3776.5" y="-141.3" font-family="Times,serif" font-weight="bold" font-size="14.00">10: </text>
<text text-anchor="start" x="3806.5" y="-141.3" font-family="Times,serif" font-size="14.00">Existiert für jede Flussrichtung der in der Berechnungsformel vorhandenen Messlokationen mindestens eine zuvor in den Stammdatenmeldungen (z. B. Anmeldebestätigung, Stammdatenänderung) ausgetauschte OBIS&#45;Kennzahl* mit identischer Flussrichtung?</text>
</g>
<!-- 9&#45;&gt;10 -->
<g id="edge19" class="edge">
<title>9&#45;&gt;10</title>
<path fill="none" stroke="black" d="M4022.23,-238.53C4174.76,-218.23 4425.59,-184.85 4582.7,-163.94"/>
<polygon fill="black" stroke="black" points="4582.9,-167.44 4592.35,-162.66 4581.97,-160.51 4582.9,-167.44"/>
<text text-anchor="middle" x="4364" y="-196.8" font-family="Times,serif" font-size="14.00">Ja</text>
</g>
<!-- A07 -->
<g id="node20" class="node">
<title>A07</title>
<polygon fill="#cca9ab" stroke="black" points="4767.5,-62 4272.5,-62 4272.5,0 4767.5,0 4767.5,-62"/>
<text text-anchor="start" x="4504.5" y="-45.8" font-family="Times,serif" font-weight="bold" font-size="14.00">A07</text>
<text text-anchor="start" x="4284.5" y="-33.4" font-family="Times,serif" text-decoration="underline" font-size="12.00">Hinweis:</text>
<text text-anchor="start" x="4284.5" y="-21.4" font-family="Times,serif" font-size="12.00">Cluster: Ablehnung</text>
<text text-anchor="start" x="4284.5" y="-9.4" font-family="Times,serif" font-size="12.00">Die Flussrichtung mindestens einer Messlokation ist nicht korrekt angegeben.</text>
</g>
<!-- 10&#45;&gt;A07 -->
<g id="edge20" class="edge">
<title>10&#45;&gt;A07</title>
<path fill="none" stroke="black" d="M4692.97,-125.66C4664.46,-110.22 4621.84,-87.14 4586.05,-67.76"/>
<polygon fill="black" stroke="black" points="4587.94,-64.81 4577.48,-63.13 4584.61,-70.96 4587.94,-64.81"/>
<text text-anchor="middle" x="4651" y="-83.8" font-family="Times,serif" font-size="14.00">Nein</text>
</g>
<!-- A08 -->
<g id="node21" class="node">
<title>A08</title>
<polygon fill="#cca9ab" stroke="black" points="5074.5,-62 4785.5,-62 4785.5,0 5074.5,0 5074.5,-62"/>
<text text-anchor="start" x="4914.5" y="-45.8" font-family="Times,serif" font-weight="bold" font-size="14.00">A08</text>
<text text-anchor="start" x="4797.5" y="-33.4" font-family="Times,serif" text-decoration="underline" font-size="12.00">Hinweis:</text>
<text text-anchor="start" x="4797.5" y="-21.4" font-family="Times,serif" font-size="12.00">Cluster: Zustimmung</text>
<text text-anchor="start" x="4797.5" y="-9.4" font-family="Times,serif" font-size="12.00">Zustimmung bei berechneter Marktlokation</text>
</g>
<!-- 10&#45;&gt;A08 -->
<g id="edge21" class="edge">
<title>10&#45;&gt;A08</title>
<path fill="none" stroke="black" d="M4757.03,-125.66C4785.54,-110.22 4828.16,-87.14 4863.95,-67.76"/>
<polygon fill="black" stroke="black" points="4865.39,-70.96 4872.52,-63.13 4862.06,-64.81 4865.39,-70.96"/>
<text text-anchor="middle" x="4846" y="-83.8" font-family="Times,serif" font-size="14.00">Ja</text>
</g>
</g>
</svg>
