<?xml version='1.0' encoding='ASCII' standalone='yes'?>
<svg xmlns="http://www.w3.org/2000/svg" xmlns:xlink="http://www.w3.org/1999/xlink" version="1.1" width="1233.3333333333333px" viewBox="0 0 1233.3333333333333 646.6666666666666" height="646.6666666666666px">
  <g>
    <svg version="1.1" width="1233.3333333333333px" viewBox="0 0 1233.3333333333333 646.6666666666666" height="646.6666666666666px">
  <polygon fill="#f3f1f6" points="0,0 1233.3333333333333,0 1233.3333333333333,646.6666666666666 0,646.6666666666666"/><g>
    <g transform="translate(352.95559936168206, 64.66666666666664) scale(1 1) translate(0, 0) scale(0.9105416314653151 0.9105416314653151) "><!-- note that I manually added the width and height attribute to the root node
  https://chatgpt.com/share/678e3028-70cc-800b-a296-782714735772
  -->
  <defs>
    <style>.cls-1{fill:#fff;}</style>
  </defs>
  <path class="cls-1" d="M122.44,531.2h-56.1c-11,0-19.9-9.12-19.46-20.11C57.47,243.89,278.15,29.78,547.91,29.78v56.02c0,10.98-8.69,19.89-19.66,20.39-225.51,10.31-405.8,197-405.8,425Z"/>
  <path class="cls-1" d="M273.78,531.2h-55.93c-11.23,0-20.09-9.48-19.43-20.69,10.74-183.44,163.39-329.39,349.48-329.39v56.26c0,10.71-8.27,19.62-18.96,20.35-142.35,9.77-255.17,128.69-255.17,273.46Z"/>
  <path class="cls-1" d="M425.77,531.2h-55.45c-11.65,0-20.6-10.17-19.33-21.75,10.87-99.03,95.03-176.34,196.92-176.34v57.01c0,10.05-7.28,18.75-17.23,20.16-59.22,8.4-104.91,59.42-104.91,120.92Z"/>
</g>
    <svg width="925pt" height="485pt" viewBox="0.00 0.00 924.76 485.10">
<g id="graph0" class="graph" transform="scale(1 1) rotate(0) translate(4 481.1)">
<title>D</title>
<text text-anchor="start" x="230.38" y="-457" font-family="Times,serif" font-weight="bold" font-size="18.00">WiM Strom</text>
<text text-anchor="start" x="230.38" y="-426.9" font-family="Times,serif" font-weight="bold" font-size="16.00">9.7.1: AD: Messlokations&#228;nderung vom LF an MSB</text>
<!-- Start -->
<g id="node1" class="node">
<title>Start</title>
<path fill="#7a8da1" stroke="black" stroke-width="0" d="M344.92,-379.1C344.92,-379.1 197.62,-379.1 197.62,-379.1 191.62,-379.1 185.62,-373.1 185.62,-367.1 185.62,-367.1 185.62,-347.82 185.62,-347.82 185.62,-341.82 191.62,-335.82 197.62,-335.82 197.62,-335.82 344.92,-335.82 344.92,-335.82 350.92,-335.82 356.92,-341.82 356.92,-347.82 356.92,-347.82 356.92,-367.1 356.92,-367.1 356.92,-373.1 350.92,-379.1 344.92,-379.1"/>
<text text-anchor="start" x="243.15" y="-358.16" font-family="Times,serif" font-weight="bold" font-size="14.00">E_0250</text>
<text text-anchor="start" x="200.02" y="-346.06" font-family="Times,serif" font-weight="bold" text-decoration="underline" font-size="12.00">Pr&#252;fende Rolle:</text>
<text text-anchor="start" x="305.02" y="-346.06" font-family="Times,serif" font-weight="bold" font-size="12.00"> MSB</text>
</g>
<!-- 1 -->
<g id="node2" class="node">
<title>1</title>
<path fill="#7aab8a" stroke="black" stroke-width="0" d="M530.55,-298.82C530.55,-298.82 12,-298.82 12,-298.82 6,-298.82 0,-292.82 0,-286.82 0,-286.82 0,-265.54 0,-265.54 0,-259.54 6,-253.54 12,-253.54 12,-253.54 530.55,-253.54 530.55,-253.54 536.55,-253.54 542.55,-259.54 542.55,-265.54 542.55,-265.54 542.55,-286.82 542.55,-286.82 542.55,-292.82 536.55,-298.82 530.55,-298.82"/>
<text text-anchor="start" x="14.4" y="-277.88" font-family="Times,serif" font-weight="bold" font-size="14.00">1: </text>
<text text-anchor="start" x="33.9" y="-277.88" font-family="Times,serif" font-size="14.00">Liegt das gew&#252;nschte &#196;nderungsdatum mindestens 20 WT nach dem</text>
<text text-anchor="start" x="14.4" y="-263.88" font-family="Times,serif" font-size="14.00">Nachrichteneingangsdatum?</text>
</g>
<!-- Start&#45;&gt;1 -->
<g id="edge1" class="edge">
<title>Start-&gt;1</title>
<path fill="none" stroke="black" d="M271.27,-336.04C271.27,-328.07 271.27,-318.72 271.27,-309.86"/>
<polygon fill="black" stroke="black" points="274.78,-310.15 271.28,-300.15 267.78,-310.15 274.78,-310.15"/>
</g>
<!-- A01 -->
<g id="node3" class="node">
<title>A01</title>
<path fill="#cfb986" stroke="black" stroke-width="0" d="M250.39,-200.29C250.39,-200.29 114.16,-200.29 114.16,-200.29 108.16,-200.29 102.16,-194.29 102.16,-188.29 102.16,-188.29 102.16,-150.77 102.16,-150.77 102.16,-144.77 108.16,-138.77 114.16,-138.77 114.16,-138.77 250.39,-138.77 250.39,-138.77 256.39,-138.77 262.39,-144.77 262.39,-150.77 262.39,-150.77 262.39,-188.29 262.39,-188.29 262.39,-194.29 256.39,-200.29 250.39,-200.29"/>
<text text-anchor="start" x="114.4" y="-182.23" font-family="Times,serif" font-weight="bold" font-size="14.00">A01</text>
<text text-anchor="start" x="114.4" y="-170.13" font-family="Times,serif" text-decoration="underline" font-size="12.00">Hinweis:</text>
<text text-anchor="start" x="114.4" y="-158.13" font-family="Times,serif" font-size="12.00">Cluster: Ablehnung</text>
<text text-anchor="start" x="114.4" y="-146.13" font-family="Times,serif" font-size="12.00">Frist nicht eingehalten</text>
</g>
<!-- 1&#45;&gt;A01 -->
<g id="edge2" class="edge">
<title>1-&gt;A01</title>
<path fill="none" stroke="#7aab8a" d="M253.05,-253.75C242.08,-240.85 227.8,-224.06 214.93,-208.93"/>
<polygon fill="#7aab8a" stroke="#7aab8a" points="217.69,-206.76 208.54,-201.41 212.35,-211.3 217.69,-206.76"/>
<text text-anchor="start" x="237.27" y="-223.24" font-family="Times,serif" font-weight="bold" font-size="14.00">NEIN</text>
</g>
<!-- 2 -->
<g id="node4" class="node">
<title>2</title>
<path fill="#7aab8a" stroke="black" stroke-width="0" d="M649.92,-187.53C649.92,-187.53 292.62,-187.53 292.62,-187.53 286.62,-187.53 280.62,-181.53 280.62,-175.53 280.62,-175.53 280.62,-163.53 280.62,-163.53 280.62,-157.53 286.62,-151.53 292.62,-151.53 292.62,-151.53 649.92,-151.53 649.92,-151.53 655.92,-151.53 661.92,-157.53 661.92,-163.53 661.92,-163.53 661.92,-175.53 661.92,-175.53 661.92,-181.53 655.92,-187.53 649.92,-187.53"/>
<text text-anchor="start" x="295.02" y="-165.85" font-family="Times,serif" font-weight="bold" font-size="14.00">2: </text>
<text text-anchor="start" x="314.52" y="-165.85" font-family="Times,serif" font-size="14.00">Ist die &#196;nderung in der Messlokation m&#246;glich?</text>
</g>
<!-- 1&#45;&gt;2 -->
<g id="edge3" class="edge">
<title>1-&gt;2</title>
<path fill="none" stroke="#7aab8a" d="M312.23,-253.75C346.35,-235.9 394.75,-210.57 429.18,-192.56"/>
<polygon fill="#7aab8a" stroke="#7aab8a" points="430.36,-195.89 437.6,-188.15 427.12,-189.69 430.36,-195.89"/>
<text text-anchor="start" x="376.27" y="-223.24" font-family="Times,serif" font-weight="bold" font-size="14.00">JA</text>
</g>
<!-- A02 -->
<g id="node5" class="node">
<title>A02</title>
<path fill="#cfb986" stroke="black" stroke-width="0" d="M371.89,-73.52C371.89,-73.52 142.66,-73.52 142.66,-73.52 136.66,-73.52 130.66,-67.52 130.66,-61.52 130.66,-61.52 130.66,-24 130.66,-24 130.66,-18 136.66,-12 142.66,-12 142.66,-12 371.89,-12 371.89,-12 377.89,-12 383.89,-18 383.89,-24 383.89,-24 383.89,-61.52 383.89,-61.52 383.89,-67.52 377.89,-73.52 371.89,-73.52"/>
<text text-anchor="start" x="142.9" y="-55.46" font-family="Times,serif" font-weight="bold" font-size="14.00">A02</text>
<text text-anchor="start" x="142.9" y="-43.36" font-family="Times,serif" text-decoration="underline" font-size="12.00">Hinweis:</text>
<text text-anchor="start" x="142.9" y="-31.36" font-family="Times,serif" font-size="12.00">Cluster: Zustimmung</text>
<text text-anchor="start" x="142.9" y="-19.36" font-family="Times,serif" font-size="12.00">&#196;nderung kann durchgef&#252;hrt werden.</text>
</g>
<!-- 2&#45;&gt;A02 -->
<g id="edge4" class="edge">
<title>2-&gt;A02</title>
<path fill="none" stroke="#7aab8a" d="M442.41,-151.7C410.69,-133.21 358.81,-102.96 318.03,-79.19"/>
<polygon fill="#7aab8a" stroke="#7aab8a" points="319.9,-76.22 309.5,-74.21 316.37,-82.27 319.9,-76.22"/>
<text text-anchor="start" x="383.27" y="-108.47" font-family="Times,serif" font-weight="bold" font-size="14.00">JA</text>
</g>
<!-- A99 -->
<g id="node6" class="node">
<title>A99</title>
<path fill="#cfb986" stroke="black" stroke-width="0" d="M904.76,-85.52C904.76,-85.52 413.78,-85.52 413.78,-85.52 407.78,-85.52 401.78,-79.52 401.78,-73.52 401.78,-73.52 401.78,-12 401.78,-12 401.78,-6 407.78,0 413.78,0 413.78,0 904.76,0 904.76,0 910.76,0 916.76,-6 916.76,-12 916.76,-12 916.76,-73.52 916.76,-73.52 916.76,-79.52 910.76,-85.52 904.76,-85.52"/>
<text text-anchor="start" x="414.02" y="-67.46" font-family="Times,serif" font-weight="bold" font-size="14.00">A99</text>
<text text-anchor="start" x="414.02" y="-55.36" font-family="Times,serif" text-decoration="underline" font-size="12.00">Hinweis:</text>
<text text-anchor="start" x="414.02" y="-43.36" font-family="Times,serif" font-size="12.00">Cluster: Ablehnung</text>
<text text-anchor="start" x="414.02" y="-31.36" font-family="Times,serif" font-size="12.00">Sonstiges</text>
<text text-anchor="start" x="414.02" y="-19.36" font-family="Times,serif" font-size="12.00">Hinweis: Das identifizierte Problem ist in der Antwort zu beschreiben / benennen.</text>
<text text-anchor="start" x="414.02" y="-7.36" font-family="Times,serif" font-size="12.00">Nutzungsm&#246;glichkeit Ende: 01.10.2023 00:00 Uhr</text>
</g>
<!-- 2&#45;&gt;A99 -->
<g id="edge5" class="edge">
<title>2-&gt;A99</title>
<path fill="none" stroke="#7aab8a" d="M496.63,-151.7C519.8,-136.33 555.21,-112.83 587.07,-91.68"/>
<polygon fill="#7aab8a" stroke="#7aab8a" points="588.73,-94.78 595.13,-86.33 584.86,-88.94 588.73,-94.78"/>
<text text-anchor="start" x="565.27" y="-108.47" font-family="Times,serif" font-weight="bold" font-size="14.00">NEIN</text>
</g>
</g>
</svg>
  </g>
</svg>
  </g>
</svg>
