<?xml version='1.0' encoding='ASCII' standalone='yes'?>
<svg xmlns="http://www.w3.org/2000/svg" xmlns:xlink="http://www.w3.org/1999/xlink" version="1.1" width="1756.0px" viewBox="0 0 1756.0 906.6666666666666" height="906.6666666666666px">
  <g>
    <svg version="1.1" width="1756.0px" viewBox="0 0 1756.0 906.6666666666666" height="906.6666666666666px">
  <polygon fill="#f3f1f6" points="0,0 1756.0,0 1756.0,906.6666666666666 0,906.6666666666666"/><g>
    <g transform="translate(508.2607716136299, 90.66666666666664) scale(1 1) translate(0, 0) scale(1.2766356894771427 1.2766356894771427) "><!-- note that I manually added the width and height attribute to the root node
  https://chatgpt.com/share/678e3028-70cc-800b-a296-782714735772
  -->
  <defs>
    <style>.cls-1{fill:#fff;}</style>
  </defs>
  <path class="cls-1" d="M122.44,531.2h-56.1c-11,0-19.9-9.12-19.46-20.11C57.47,243.89,278.15,29.78,547.91,29.78v56.02c0,10.98-8.69,19.89-19.66,20.39-225.51,10.31-405.8,197-405.8,425Z"/>
  <path class="cls-1" d="M273.78,531.2h-55.93c-11.23,0-20.09-9.48-19.43-20.69,10.74-183.44,163.39-329.39,349.48-329.39v56.26c0,10.71-8.27,19.62-18.96,20.35-142.35,9.77-255.17,128.69-255.17,273.46Z"/>
  <path class="cls-1" d="M425.77,531.2h-55.45c-11.65,0-20.6-10.17-19.33-21.75,10.87-99.03,95.03-176.34,196.92-176.34v57.01c0,10.05-7.28,18.75-17.23,20.16-59.22,8.4-104.91,59.42-104.91,120.92Z"/>
</g>
    <svg width="1317pt" height="680pt" viewBox="0.00 0.00 1317.39 679.84">
<g id="graph0" class="graph" transform="scale(1 1) rotate(0) translate(4 675.84)">
<title>D</title>
<text text-anchor="start" x="374.57" y="-651.74" font-family="Times,serif" font-weight="bold" font-size="18.00">WiM Strom</text>
<text text-anchor="start" x="374.57" y="-621.64" font-family="Times,serif" font-weight="bold" font-size="16.00">9.24.5: AD Anfrage und Bestellung von Werten durch den ESA</text>
<!-- Start -->
<g id="node1" class="node">
<title>Start</title>
<path fill="#7a8da1" stroke="black" stroke-width="0" d="M302.55,-573.84C302.55,-573.84 155.25,-573.84 155.25,-573.84 149.25,-573.84 143.25,-567.84 143.25,-561.84 143.25,-561.84 143.25,-542.56 143.25,-542.56 143.25,-536.56 149.25,-530.56 155.25,-530.56 155.25,-530.56 302.55,-530.56 302.55,-530.56 308.55,-530.56 314.55,-536.56 314.55,-542.56 314.55,-542.56 314.55,-561.84 314.55,-561.84 314.55,-567.84 308.55,-573.84 302.55,-573.84"/>
<text text-anchor="start" x="200.78" y="-552.9" font-family="Times,serif" font-weight="bold" font-size="14.00">E_0257</text>
<text text-anchor="start" x="157.65" y="-540.8" font-family="Times,serif" font-weight="bold" text-decoration="underline" font-size="12.00">Pr&#252;fende Rolle:</text>
<text text-anchor="start" x="262.65" y="-540.8" font-family="Times,serif" font-weight="bold" font-size="12.00"> MSB</text>
</g>
<!-- 1 -->
<g id="node2" class="node">
<title>1</title>
<path fill="#7aab8a" stroke="black" stroke-width="0" d="M445.8,-493.56C445.8,-493.56 12,-493.56 12,-493.56 6,-493.56 0,-487.56 0,-481.56 0,-481.56 0,-469.56 0,-469.56 0,-463.56 6,-457.56 12,-457.56 12,-457.56 445.8,-457.56 445.8,-457.56 451.8,-457.56 457.8,-463.56 457.8,-469.56 457.8,-469.56 457.8,-481.56 457.8,-481.56 457.8,-487.56 451.8,-493.56 445.8,-493.56"/>
<text text-anchor="start" x="14.4" y="-471.88" font-family="Times,serif" font-weight="bold" font-size="14.00">1: </text>
<text text-anchor="start" x="33.9" y="-471.88" font-family="Times,serif" font-size="14.00">Wurde die Bestellung des ESA durch den MSB best&#228;tigt?</text>
</g>
<!-- Start&#45;&gt;1 -->
<g id="edge1" class="edge">
<title>Start-&gt;1</title>
<path fill="none" stroke="black" d="M228.9,-530.8C228.9,-522.73 228.9,-513.32 228.9,-504.63"/>
<polygon fill="black" stroke="black" points="232.4,-504.92 228.9,-494.92 225.4,-504.92 232.4,-504.92"/>
</g>
<!-- A01 -->
<g id="node3" class="node">
<title>A01</title>
<path fill="#cfb986" stroke="black" stroke-width="0" d="M392.26,-404.31C392.26,-404.31 17.53,-404.31 17.53,-404.31 11.53,-404.31 5.53,-398.31 5.53,-392.31 5.53,-392.31 5.53,-354.79 5.53,-354.79 5.53,-348.79 11.53,-342.79 17.53,-342.79 17.53,-342.79 392.26,-342.79 392.26,-342.79 398.26,-342.79 404.26,-348.79 404.26,-354.79 404.26,-354.79 404.26,-392.31 404.26,-392.31 404.26,-398.31 398.26,-404.31 392.26,-404.31"/>
<text text-anchor="start" x="17.78" y="-386.25" font-family="Times,serif" font-weight="bold" font-size="14.00">A01</text>
<text text-anchor="start" x="17.78" y="-374.15" font-family="Times,serif" text-decoration="underline" font-size="12.00">Hinweis:</text>
<text text-anchor="start" x="17.78" y="-362.15" font-family="Times,serif" font-size="12.00">Cluster: Ablehnung</text>
<text text-anchor="start" x="17.78" y="-350.15" font-family="Times,serif" font-size="12.00">Die Bestellung des ESA wurde durch den MSB nicht best&#228;tigt.</text>
</g>
<!-- 1&#45;&gt;A01 -->
<g id="edge2" class="edge">
<title>1-&gt;A01</title>
<path fill="none" stroke="#7aab8a" d="M224.83,-457.59C222.04,-445.96 218.21,-430 214.65,-415.19"/>
<polygon fill="#7aab8a" stroke="#7aab8a" points="218.1,-414.55 212.36,-405.64 211.29,-416.18 218.1,-414.55"/>
<text text-anchor="start" x="219.9" y="-427.26" font-family="Times,serif" font-weight="bold" font-size="14.00">NEIN</text>
</g>
<!-- 2 -->
<g id="node4" class="node">
<title>2</title>
<path fill="#7aab8a" stroke="black" stroke-width="0" d="M963.8,-396.19C963.8,-396.19 434,-396.19 434,-396.19 428,-396.19 422,-390.19 422,-384.19 422,-384.19 422,-362.91 422,-362.91 422,-356.91 428,-350.91 434,-350.91 434,-350.91 963.8,-350.91 963.8,-350.91 969.8,-350.91 975.8,-356.91 975.8,-362.91 975.8,-362.91 975.8,-384.19 975.8,-384.19 975.8,-390.19 969.8,-396.19 963.8,-396.19"/>
<text text-anchor="start" x="436.4" y="-375.25" font-family="Times,serif" font-weight="bold" font-size="14.00">2: </text>
<text text-anchor="start" x="455.9" y="-375.25" font-family="Times,serif" font-size="14.00">Handelte es sich bei der Bestellung um ein turnusm&#228;&#223;ige/regelm&#228;&#223;ige</text>
<text text-anchor="start" x="436.4" y="-361.25" font-family="Times,serif" font-size="14.00">&#220;bermittlung (Abo)?</text>
</g>
<!-- 1&#45;&gt;2 -->
<g id="edge3" class="edge">
<title>1-&gt;2</title>
<path fill="none" stroke="#7aab8a" d="M308.63,-457.59C384.9,-441.36 500.68,-416.73 586.34,-398.5"/>
<polygon fill="#7aab8a" stroke="#7aab8a" points="586.89,-401.96 595.94,-396.46 585.43,-395.12 586.89,-401.96"/>
<text text-anchor="start" x="463.9" y="-427.26" font-family="Times,serif" font-weight="bold" font-size="14.00">JA</text>
</g>
<!-- 3 -->
<g id="node5" class="node">
<title>3</title>
<path fill="#7aab8a" stroke="black" stroke-width="0" d="M758.8,-289.54C758.8,-289.54 97,-289.54 97,-289.54 91,-289.54 85,-283.54 85,-277.54 85,-277.54 85,-265.54 85,-265.54 85,-259.54 91,-253.54 97,-253.54 97,-253.54 758.8,-253.54 758.8,-253.54 764.8,-253.54 770.8,-259.54 770.8,-265.54 770.8,-265.54 770.8,-277.54 770.8,-277.54 770.8,-283.54 764.8,-289.54 758.8,-289.54"/>
<text text-anchor="start" x="99.4" y="-267.86" font-family="Times,serif" font-weight="bold" font-size="14.00">3: </text>
<text text-anchor="start" x="118.9" y="-267.86" font-family="Times,serif" font-size="14.00">Wurde die turnusm&#228;&#223;ige/regelm&#228;&#223;ige &#220;bermittlung (Abo) von Werten bereits begonnen?</text>
</g>
<!-- 2&#45;&gt;3 -->
<g id="edge4" class="edge">
<title>2-&gt;3</title>
<path fill="none" stroke="#7aab8a" d="M640.43,-350.97C594.19,-333.91 530.03,-310.23 484.33,-293.36"/>
<polygon fill="#7aab8a" stroke="#7aab8a" points="485.72,-290.15 475.13,-289.97 483.3,-296.72 485.72,-290.15"/>
<text text-anchor="start" x="562.9" y="-312.49" font-family="Times,serif" font-weight="bold" font-size="14.00">JA</text>
</g>
<!-- 4 -->
<g id="node7" class="node">
<title>4</title>
<path fill="#7aab8a" stroke="black" stroke-width="0" d="M1247.17,-289.54C1247.17,-289.54 800.62,-289.54 800.62,-289.54 794.62,-289.54 788.62,-283.54 788.62,-277.54 788.62,-277.54 788.62,-265.54 788.62,-265.54 788.62,-259.54 794.62,-253.54 800.62,-253.54 800.62,-253.54 1247.17,-253.54 1247.17,-253.54 1253.17,-253.54 1259.17,-259.54 1259.17,-265.54 1259.17,-265.54 1259.17,-277.54 1259.17,-277.54 1259.17,-283.54 1253.17,-289.54 1247.17,-289.54"/>
<text text-anchor="start" x="803.02" y="-267.86" font-family="Times,serif" font-weight="bold" font-size="14.00">4: </text>
<text text-anchor="start" x="822.52" y="-267.86" font-family="Times,serif" font-size="14.00">Ist die einmalige &#220;bermittlung von Werten bereits erfolgt?</text>
</g>
<!-- 2&#45;&gt;4 -->
<g id="edge5" class="edge">
<title>2-&gt;4</title>
<path fill="none" stroke="#7aab8a" d="M769.02,-350.97C825.09,-333.72 903.13,-309.7 958.04,-292.81"/>
<polygon fill="#7aab8a" stroke="#7aab8a" points="958.73,-296.26 967.26,-289.97 956.67,-289.57 958.73,-296.26"/>
<text text-anchor="start" x="908.9" y="-312.49" font-family="Times,serif" font-weight="bold" font-size="14.00">NEIN</text>
</g>
<!-- A02 -->
<g id="node6" class="node">
<title>A02</title>
<path fill="#cfb986" stroke="black" stroke-width="0" d="M473.64,-200.29C473.64,-200.29 38.16,-200.29 38.16,-200.29 32.16,-200.29 26.16,-194.29 26.16,-188.29 26.16,-188.29 26.16,-150.77 26.16,-150.77 26.16,-144.77 32.16,-138.77 38.16,-138.77 38.16,-138.77 473.64,-138.77 473.64,-138.77 479.64,-138.77 485.64,-144.77 485.64,-150.77 485.64,-150.77 485.64,-188.29 485.64,-188.29 485.64,-194.29 479.64,-200.29 473.64,-200.29"/>
<text text-anchor="start" x="38.4" y="-182.23" font-family="Times,serif" font-weight="bold" font-size="14.00">A02</text>
<text text-anchor="start" x="38.4" y="-170.13" font-family="Times,serif" text-decoration="underline" font-size="12.00">Hinweis:</text>
<text text-anchor="start" x="38.4" y="-158.13" font-family="Times,serif" font-size="12.00">Cluster: Ablehnung</text>
<text text-anchor="start" x="38.4" y="-146.13" font-family="Times,serif" font-size="12.00">Mit der &#220;bermittlung von Werten aus dem Abo wurde bereits begonnen.</text>
</g>
<!-- 3&#45;&gt;A02 -->
<g id="edge6" class="edge">
<title>3-&gt;A02</title>
<path fill="none" stroke="#7aab8a" d="M398.72,-253.57C376.26,-240.51 344.44,-222.01 316.53,-205.78"/>
<polygon fill="#7aab8a" stroke="#7aab8a" points="318.55,-202.91 308.15,-200.91 315.03,-208.96 318.55,-202.91"/>
<text text-anchor="start" x="366.9" y="-223.24" font-family="Times,serif" font-weight="bold" font-size="14.00">JA</text>
</g>
<!-- 5 -->
<g id="node9" class="node">
<title>5</title>
<path fill="#7aab8a" stroke="black" stroke-width="0" d="M914.17,-187.53C914.17,-187.53 515.62,-187.53 515.62,-187.53 509.62,-187.53 503.62,-181.53 503.62,-175.53 503.62,-175.53 503.62,-163.53 503.62,-163.53 503.62,-157.53 509.62,-151.53 515.62,-151.53 515.62,-151.53 914.17,-151.53 914.17,-151.53 920.17,-151.53 926.17,-157.53 926.17,-163.53 926.17,-163.53 926.17,-175.53 926.17,-175.53 926.17,-181.53 920.17,-187.53 914.17,-187.53"/>
<text text-anchor="start" x="518.02" y="-165.85" font-family="Times,serif" font-weight="bold" font-size="14.00">5: </text>
<text text-anchor="start" x="537.52" y="-165.85" font-family="Times,serif" font-size="14.00">Ist ein zuvor nicht spezifizierter Fehler aufgetreten?</text>
</g>
<!-- 3&#45;&gt;5 -->
<g id="edge7" class="edge">
<title>3-&gt;5</title>
<path fill="none" stroke="#7aab8a" d="M476.59,-253.57C526.11,-236.32 602.9,-209.56 655.87,-191.1"/>
<polygon fill="#7aab8a" stroke="#7aab8a" points="656.73,-194.51 665.03,-187.91 654.43,-187.9 656.73,-194.51"/>
<text text-anchor="start" x="570.9" y="-223.24" font-family="Times,serif" font-weight="bold" font-size="14.00">NEIN</text>
</g>
<!-- A03 -->
<g id="node8" class="node">
<title>A03</title>
<path fill="#cfb986" stroke="black" stroke-width="0" d="M1297.39,-200.29C1297.39,-200.29 956.41,-200.29 956.41,-200.29 950.41,-200.29 944.41,-194.29 944.41,-188.29 944.41,-188.29 944.41,-150.77 944.41,-150.77 944.41,-144.77 950.41,-138.77 956.41,-138.77 956.41,-138.77 1297.39,-138.77 1297.39,-138.77 1303.39,-138.77 1309.39,-144.77 1309.39,-150.77 1309.39,-150.77 1309.39,-188.29 1309.39,-188.29 1309.39,-194.29 1303.39,-200.29 1297.39,-200.29"/>
<text text-anchor="start" x="956.65" y="-182.23" font-family="Times,serif" font-weight="bold" font-size="14.00">A03</text>
<text text-anchor="start" x="956.65" y="-170.13" font-family="Times,serif" text-decoration="underline" font-size="12.00">Hinweis:</text>
<text text-anchor="start" x="956.65" y="-158.13" font-family="Times,serif" font-size="12.00">Cluster: Ablehnung</text>
<text text-anchor="start" x="956.65" y="-146.13" font-family="Times,serif" font-size="12.00">Die einmalige &#220;bermittlung der Werte ist bereits erfolgt.</text>
</g>
<!-- 4&#45;&gt;A03 -->
<g id="edge8" class="edge">
<title>4-&gt;A03</title>
<path fill="none" stroke="#7aab8a" d="M1041.37,-253.57C1054.18,-241.14 1072.06,-223.77 1088.17,-208.14"/>
<polygon fill="#7aab8a" stroke="#7aab8a" points="1090.57,-210.68 1095.31,-201.2 1085.7,-205.66 1090.57,-210.68"/>
<text text-anchor="start" x="1074.9" y="-223.24" font-family="Times,serif" font-weight="bold" font-size="14.00">JA</text>
</g>
<!-- 4&#45;&gt;5 -->
<g id="edge9" class="edge">
<title>4-&gt;5</title>
<path fill="none" stroke="#7aab8a" d="M971.48,-253.57C918.02,-236.27 835.04,-209.41 778.01,-190.95"/>
<polygon fill="#7aab8a" stroke="#7aab8a" points="779.35,-187.71 768.76,-187.96 777.19,-194.37 779.35,-187.71"/>
<text text-anchor="start" x="914.9" y="-223.24" font-family="Times,serif" font-weight="bold" font-size="14.00">NEIN</text>
</g>
<!-- A99 -->
<g id="node10" class="node">
<title>A99</title>
<path fill="#cfb986" stroke="black" stroke-width="0" d="M775.39,-85.52C775.39,-85.52 284.41,-85.52 284.41,-85.52 278.41,-85.52 272.41,-79.52 272.41,-73.52 272.41,-73.52 272.41,-12 272.41,-12 272.41,-6 278.41,0 284.41,0 284.41,0 775.39,0 775.39,0 781.39,0 787.39,-6 787.39,-12 787.39,-12 787.39,-73.52 787.39,-73.52 787.39,-79.52 781.39,-85.52 775.39,-85.52"/>
<text text-anchor="start" x="284.65" y="-67.46" font-family="Times,serif" font-weight="bold" font-size="14.00">A99</text>
<text text-anchor="start" x="284.65" y="-55.36" font-family="Times,serif" text-decoration="underline" font-size="12.00">Hinweis:</text>
<text text-anchor="start" x="284.65" y="-43.36" font-family="Times,serif" font-size="12.00">Cluster: Ablehnung</text>
<text text-anchor="start" x="284.65" y="-31.36" font-family="Times,serif" font-size="12.00">Sonstiges</text>
<text text-anchor="start" x="284.65" y="-19.36" font-family="Times,serif" font-size="12.00">Hinweis: Das identifizierte Problem ist in der Antwort zu beschreiben / benennen.</text>
<text text-anchor="start" x="284.65" y="-7.36" font-family="Times,serif" font-size="12.00">Nutzungsm&#246;glichkeit Ende: 01.10.2023 00:00 Uhr</text>
</g>
<!-- 5&#45;&gt;A99 -->
<g id="edge10" class="edge">
<title>5-&gt;A99</title>
<path fill="none" stroke="#7aab8a" d="M689.95,-151.7C667.15,-136.33 632.31,-112.83 600.95,-91.68"/>
<polygon fill="#7aab8a" stroke="#7aab8a" points="603.28,-89.03 593.03,-86.34 599.37,-94.83 603.28,-89.03"/>
<text text-anchor="start" x="638.9" y="-108.47" font-family="Times,serif" font-weight="bold" font-size="14.00">JA</text>
</g>
<!-- A04 -->
<g id="node11" class="node">
<title>A04</title>
<path fill="#cfb986" stroke="black" stroke-width="0" d="M982.26,-73.52C982.26,-73.52 817.53,-73.52 817.53,-73.52 811.53,-73.52 805.53,-67.52 805.53,-61.52 805.53,-61.52 805.53,-24 805.53,-24 805.53,-18 811.53,-12 817.53,-12 817.53,-12 982.26,-12 982.26,-12 988.26,-12 994.26,-18 994.26,-24 994.26,-24 994.26,-61.52 994.26,-61.52 994.26,-67.52 988.26,-73.52 982.26,-73.52"/>
<text text-anchor="start" x="817.77" y="-55.46" font-family="Times,serif" font-weight="bold" font-size="14.00">A04</text>
<text text-anchor="start" x="817.77" y="-43.36" font-family="Times,serif" text-decoration="underline" font-size="12.00">Hinweis:</text>
<text text-anchor="start" x="817.77" y="-31.36" font-family="Times,serif" font-size="12.00">Cluster: Zustimmung</text>
<text text-anchor="start" x="817.77" y="-19.36" font-family="Times,serif" font-size="12.00">Stornierung wird best&#228;tigt.</text>
</g>
<!-- 5&#45;&gt;A04 -->
<g id="edge11" class="edge">
<title>5-&gt;A04</title>
<path fill="none" stroke="#7aab8a" d="M739.85,-151.7C767.1,-133.32 811.55,-103.34 846.7,-79.64"/>
<polygon fill="#7aab8a" stroke="#7aab8a" points="848.29,-82.79 854.63,-74.29 844.38,-76.98 848.29,-82.79"/>
<text text-anchor="start" x="806.9" y="-108.47" font-family="Times,serif" font-weight="bold" font-size="14.00">NEIN</text>
</g>
</g>
</svg>
  </g>
</svg>
  </g>
</svg>
