<?xml version='1.0' encoding='ASCII' standalone='yes'?>
<svg xmlns="http://www.w3.org/2000/svg" xmlns:xlink="http://www.w3.org/1999/xlink" version="1.1" width="1449.3333333333333px" viewBox="0 0 1449.3333333333333 869.3333333333334" height="869.3333333333334px">
  <g>
    <svg version="1.1" width="1449.3333333333333px" viewBox="0 0 1449.3333333333333 869.3333333333334" height="869.3333333333334px">
  <rect fill="#e7e6e5" x="0" y="0" width="1449.3333333333333" height="869.3333333333334" rx="20" ry="20"/><g>
    <g transform="translate(370.1519947432647, 86.93333333333332) scale(1 1) translate(0, 0) scale(1.2240683375574957 1.2240683375574957) "><!-- note that I manually added the width and height attribute to the root node
  https://chatgpt.com/share/678e3028-70cc-800b-a296-782714735772
  -->
  <defs>
    <style>.cls-1{fill:#fff;}</style>
  </defs>
  <path class="cls-1" d="M122.44,531.2h-56.1c-11,0-19.9-9.12-19.46-20.11C57.47,243.89,278.15,29.78,547.91,29.78v56.02c0,10.98-8.69,19.89-19.66,20.39-225.51,10.31-405.8,197-405.8,425Z"/>
  <path class="cls-1" d="M273.78,531.2h-55.93c-11.23,0-20.09-9.48-19.43-20.69,10.74-183.44,163.39-329.39,349.48-329.39v56.26c0,10.71-8.27,19.62-18.96,20.35-142.35,9.77-255.17,128.69-255.17,273.46Z"/>
  <path class="cls-1" d="M425.77,531.2h-55.45c-11.65,0-20.6-10.17-19.33-21.75,10.87-99.03,95.03-176.34,196.92-176.34v57.01c0,10.05-7.28,18.75-17.23,20.16-59.22,8.4-104.91,59.42-104.91,120.92Z"/>
</g>
    <svg width="1087pt" height="652pt" viewBox="0.00 0.00 1087.05 652.40">
<g id="graph0" class="graph" transform="scale(1 1) rotate(0) translate(4 648.4)">
<title>D</title>
<text text-anchor="start" x="102.65" y="-624.3" font-family="Roboto, sans-serif" font-weight="bold" font-size="18.00">WiM Strom</text>
<text text-anchor="start" x="102.65" y="-596.2" font-family="Roboto, sans-serif" font-weight="bold" font-size="16.00">9.11.2: AD: Anfrage zur Rechnungsabwicklung des Messtellenbetriebes &#252;ber den LF durch den LF</text>
<!-- Start -->
<g id="node1" class="node">
<title>Start</title>
<path fill="#8ba2d7" stroke="black" stroke-width="0" d="M476.05,-554.4C476.05,-554.4 343,-554.4 343,-554.4 337,-554.4 331,-548.4 331,-542.4 331,-542.4 331,-521.12 331,-521.12 331,-515.12 337,-509.12 343,-509.12 343,-509.12 476.05,-509.12 476.05,-509.12 482.05,-509.12 488.05,-515.12 488.05,-521.12 488.05,-521.12 488.05,-542.4 488.05,-542.4 488.05,-548.4 482.05,-554.4 476.05,-554.4"/>
<text text-anchor="start" x="345.4" y="-533.46" font-family="Roboto, sans-serif" font-weight="bold" font-size="14.00">E_0208</text>
<text text-anchor="start" x="345.4" y="-519.46" font-family="Roboto, sans-serif" font-size="14.00">Pr&#252;fende Rolle: </text>
<text text-anchor="start" x="454.9" y="-519.46" font-family="Roboto, sans-serif" font-weight="bold" font-size="14.00">LF</text>
</g>
<!-- 1 -->
<g id="node2" class="node">
<title>1</title>
<path fill="#c2cee9" stroke="black" stroke-width="0" d="M720.92,-472.12C720.92,-472.12 98.12,-472.12 98.12,-472.12 92.12,-472.12 86.12,-466.12 86.12,-460.12 86.12,-460.12 86.12,-438.84 86.12,-438.84 86.12,-432.84 92.12,-426.84 98.12,-426.84 98.12,-426.84 720.92,-426.84 720.92,-426.84 726.92,-426.84 732.92,-432.84 732.92,-438.84 732.92,-438.84 732.92,-460.12 732.92,-460.12 732.92,-466.12 726.92,-472.12 720.92,-472.12"/>
<text text-anchor="start" x="100.52" y="-451.18" font-family="Roboto, sans-serif" font-weight="bold" font-size="14.00">1: </text>
<text text-anchor="start" x="120.02" y="-451.18" font-family="Roboto, sans-serif" font-size="14.00">L&#228;sst das Vertragsverh&#228;ltnis mit dem Kunden das im Angebot benannte Beginndatum</text>
<text text-anchor="start" x="100.52" y="-437.18" font-family="Roboto, sans-serif" font-size="14.00">zum Messstellenbetrieb zu?</text>
</g>
<!-- Start&#45;&gt;1 -->
<g id="edge1" class="edge">
<title>Start-&gt;1</title>
<path fill="none" stroke="#88a0d6" d="M409.52,-509.25C409.52,-501.33 409.52,-492.17 409.52,-483.47"/>
<polygon fill="#88a0d6" stroke="#88a0d6" points="413.03,-483.57 409.53,-473.57 406.03,-483.57 413.03,-483.57"/>
</g>
<!-- A01 -->
<g id="node3" class="node">
<title>A01</title>
<path fill="#c4cac1" stroke="black" stroke-width="0" d="M457.05,-373.59C457.05,-373.59 12,-373.59 12,-373.59 6,-373.59 0,-367.59 0,-361.59 0,-361.59 0,-326.31 0,-326.31 0,-320.31 6,-314.31 12,-314.31 12,-314.31 457.05,-314.31 457.05,-314.31 463.05,-314.31 469.05,-320.31 469.05,-326.31 469.05,-326.31 469.05,-361.59 469.05,-361.59 469.05,-367.59 463.05,-373.59 457.05,-373.59"/>
<text text-anchor="start" x="14.4" y="-352.65" font-family="Roboto, sans-serif" font-weight="bold" font-size="14.00">A01</text>
<text text-anchor="start" x="14.4" y="-324.65" font-family="Roboto, sans-serif" font-size="14.00">Vertragsverh&#228;ltnis mit Dritten l&#228;sst das Beginn-datum nicht zu.</text>
</g>
<!-- 1&#45;&gt;A01 -->
<g id="edge2" class="edge">
<title>1-&gt;A01</title>
<path fill="none" stroke="#88a0d6" d="M373.26,-427.03C349.9,-413.21 319.02,-394.94 292.32,-379.14"/>
<polygon fill="#88a0d6" stroke="#88a0d6" points="294.39,-376.3 284,-374.22 290.82,-382.32 294.39,-376.3"/>
<text text-anchor="start" x="337.52" y="-396.54" font-family="Roboto, sans-serif" font-weight="bold" font-size="14.00">NEIN</text>
</g>
<!-- 2 -->
<g id="node4" class="node">
<title>2</title>
<path fill="#c2cee9" stroke="black" stroke-width="0" d="M947.55,-361.95C947.55,-361.95 499.5,-361.95 499.5,-361.95 493.5,-361.95 487.5,-355.95 487.5,-349.95 487.5,-349.95 487.5,-337.95 487.5,-337.95 487.5,-331.95 493.5,-325.95 499.5,-325.95 499.5,-325.95 947.55,-325.95 947.55,-325.95 953.55,-325.95 959.55,-331.95 959.55,-337.95 959.55,-337.95 959.55,-349.95 959.55,-349.95 959.55,-355.95 953.55,-361.95 947.55,-361.95"/>
<text text-anchor="start" x="501.9" y="-340.27" font-family="Roboto, sans-serif" font-weight="bold" font-size="14.00">2: </text>
<text text-anchor="start" x="521.4" y="-340.27" font-family="Roboto, sans-serif" font-size="14.00">Handelt es sich um ein Angebot auf Basis eines Preisblattes?</text>
</g>
<!-- 1&#45;&gt;2 -->
<g id="edge3" class="edge">
<title>1-&gt;2</title>
<path fill="none" stroke="#88a0d6" d="M474.97,-426.9C529.78,-408.83 607.49,-383.21 661.37,-365.44"/>
<polygon fill="#88a0d6" stroke="#88a0d6" points="662.31,-368.82 670.71,-362.36 660.12,-362.17 662.31,-368.82"/>
<text text-anchor="start" x="575.52" y="-396.54" font-family="Roboto, sans-serif" font-weight="bold" font-size="14.00">JA</text>
</g>
<!-- 3 -->
<g id="node5" class="node">
<title>3</title>
<path fill="#c2cee9" stroke="black" stroke-width="0" d="M775.67,-261.06C775.67,-261.06 133.38,-261.06 133.38,-261.06 127.38,-261.06 121.38,-255.06 121.38,-249.06 121.38,-249.06 121.38,-237.06 121.38,-237.06 121.38,-231.06 127.38,-225.06 133.38,-225.06 133.38,-225.06 775.67,-225.06 775.67,-225.06 781.67,-225.06 787.67,-231.06 787.67,-237.06 787.67,-237.06 787.67,-249.06 787.67,-249.06 787.67,-255.06 781.67,-261.06 775.67,-261.06"/>
<text text-anchor="start" x="135.77" y="-239.38" font-family="Roboto, sans-serif" font-weight="bold" font-size="14.00">3: </text>
<text text-anchor="start" x="155.27" y="-239.38" font-family="Roboto, sans-serif" font-size="14.00">Liegt dem LF das Preisblatt mit dem im Angebot angegebenen Preisschl&#252;sselstamm vor?</text>
</g>
<!-- 2&#45;&gt;3 -->
<g id="edge4" class="edge">
<title>2-&gt;3</title>
<path fill="none" stroke="#88a0d6" d="M677.28,-325.95C631.24,-309.02 560.49,-283.02 511.12,-264.86"/>
<polygon fill="#88a0d6" stroke="#88a0d6" points="512.63,-261.69 502.03,-261.53 510.21,-268.26 512.63,-261.69"/>
<text text-anchor="start" x="588.52" y="-284.01" font-family="Roboto, sans-serif" font-weight="bold" font-size="14.00">JA</text>
</g>
<!-- 4 -->
<g id="node7" class="node">
<title>4</title>
<path fill="#c2cee9" stroke="black" stroke-width="0" d="M1067.05,-160.17C1067.05,-160.17 580,-160.17 580,-160.17 574,-160.17 568,-154.17 568,-148.17 568,-148.17 568,-136.17 568,-136.17 568,-130.17 574,-124.17 580,-124.17 580,-124.17 1067.05,-124.17 1067.05,-124.17 1073.05,-124.17 1079.05,-130.17 1079.05,-136.17 1079.05,-136.17 1079.05,-148.17 1079.05,-148.17 1079.05,-154.17 1073.05,-160.17 1067.05,-160.17"/>
<text text-anchor="start" x="582.4" y="-138.5" font-family="Roboto, sans-serif" font-weight="bold" font-size="14.00">4: </text>
<text text-anchor="start" x="601.9" y="-138.5" font-family="Roboto, sans-serif" font-size="14.00">Entsprechen die angebotenen Positionen dem Vertrags-verh&#228;ltnis?</text>
</g>
<!-- 2&#45;&gt;4 -->
<g id="edge5" class="edge">
<title>2-&gt;4</title>
<path fill="none" stroke="#88a0d6" d="M743.3,-326.12C760,-310.83 783.24,-286.78 796.52,-261.06 811.26,-232.52 818.03,-196 821.09,-171.22"/>
<polygon fill="#88a0d6" stroke="#88a0d6" points="824.53,-171.91 822.14,-161.59 817.57,-171.15 824.53,-171.91"/>
<text text-anchor="start" x="809.52" y="-239.38" font-family="Roboto, sans-serif" font-weight="bold" font-size="14.00">NEIN</text>
</g>
<!-- A02 -->
<g id="node6" class="node">
<title>A02</title>
<path fill="#c4cac1" stroke="black" stroke-width="0" d="M538.42,-171.81C538.42,-171.81 356.62,-171.81 356.62,-171.81 350.62,-171.81 344.62,-165.81 344.62,-159.81 344.62,-159.81 344.62,-124.53 344.62,-124.53 344.62,-118.53 350.62,-112.53 356.62,-112.53 356.62,-112.53 538.42,-112.53 538.42,-112.53 544.42,-112.53 550.42,-118.53 550.42,-124.53 550.42,-124.53 550.42,-159.81 550.42,-159.81 550.42,-165.81 544.42,-171.81 538.42,-171.81"/>
<text text-anchor="start" x="359.02" y="-150.87" font-family="Roboto, sans-serif" font-weight="bold" font-size="14.00">A02</text>
<text text-anchor="start" x="359.02" y="-122.87" font-family="Roboto, sans-serif" font-size="14.00">Kein Preisblatt vorhanden</text>
</g>
<!-- 3&#45;&gt;A02 -->
<g id="edge6" class="edge">
<title>3-&gt;A02</title>
<path fill="none" stroke="#88a0d6" d="M453.34,-225.28C452.52,-213.72 451.39,-197.84 450.35,-183.12"/>
<polygon fill="#88a0d6" stroke="#88a0d6" points="453.85,-182.91 449.65,-173.18 446.86,-183.4 453.85,-182.91"/>
<text text-anchor="start" x="451.52" y="-194.76" font-family="Roboto, sans-serif" font-weight="bold" font-size="14.00">NEIN</text>
</g>
<!-- 3&#45;&gt;4 -->
<g id="edge7" class="edge">
<title>3-&gt;4</title>
<path fill="none" stroke="#88a0d6" d="M517.96,-225.06C582.18,-207.85 681.43,-181.25 749.28,-163.07"/>
<polygon fill="#88a0d6" stroke="#88a0d6" points="750.09,-166.47 758.84,-160.5 748.28,-159.71 750.09,-166.47"/>
<text text-anchor="start" x="638.52" y="-194.76" font-family="Roboto, sans-serif" font-weight="bold" font-size="14.00">JA</text>
</g>
<!-- A03 -->
<g id="node8" class="node">
<title>A03</title>
<path fill="#c4cac1" stroke="black" stroke-width="0" d="M862.92,-59.28C862.92,-59.28 462.12,-59.28 462.12,-59.28 456.12,-59.28 450.12,-53.28 450.12,-47.28 450.12,-47.28 450.12,-12 450.12,-12 450.12,-6 456.12,0 462.12,0 462.12,0 862.92,0 862.92,0 868.92,0 874.92,-6 874.92,-12 874.92,-12 874.92,-47.28 874.92,-47.28 874.92,-53.28 868.92,-59.28 862.92,-59.28"/>
<text text-anchor="start" x="464.52" y="-38.34" font-family="Roboto, sans-serif" font-weight="bold" font-size="14.00">A03</text>
<text text-anchor="start" x="464.52" y="-10.34" font-family="Roboto, sans-serif" font-size="14.00">Angebotspositionen abweichend zum Vertrags-verh&#228;ltnis</text>
</g>
<!-- 4&#45;&gt;A03 -->
<g id="edge8" class="edge">
<title>4-&gt;A03</title>
<path fill="none" stroke="#88a0d6" d="M799.07,-124.38C776.47,-108.87 742.16,-85.31 713.59,-65.7"/>
<polygon fill="#88a0d6" stroke="#88a0d6" points="715.62,-62.85 705.39,-60.07 711.66,-68.62 715.62,-62.85"/>
<text text-anchor="start" x="752.52" y="-82.23" font-family="Roboto, sans-serif" font-weight="bold" font-size="14.00">NEIN</text>
</g>
<!-- Bestellung versenden -->
<g id="node9" class="node">
<title>Bestellung versenden</title>
<path fill="#c4cac1" stroke="black" stroke-width="0" d="M1061.67,-47.64C1061.67,-47.64 905.38,-47.64 905.38,-47.64 899.38,-47.64 893.38,-41.64 893.38,-35.64 893.38,-35.64 893.38,-23.64 893.38,-23.64 893.38,-17.64 899.38,-11.64 905.38,-11.64 905.38,-11.64 1061.67,-11.64 1061.67,-11.64 1067.67,-11.64 1073.67,-17.64 1073.67,-23.64 1073.67,-23.64 1073.67,-35.64 1073.67,-35.64 1073.67,-41.64 1067.67,-47.64 1061.67,-47.64"/>
<text text-anchor="start" x="907.77" y="-24.96" font-family="Roboto, sans-serif" font-size="14.00">Bestellung versenden</text>
</g>
<!-- 4&#45;&gt;Bestellung versenden -->
<g id="edge9" class="edge">
<title>4-&gt;Bestellung versenden</title>
<path fill="none" stroke="#88a0d6" d="M847.83,-124.38C874.96,-105.64 919.07,-75.17 949.6,-54.08"/>
<polygon fill="#88a0d6" stroke="#88a0d6" points="951.51,-57.01 957.75,-48.45 947.53,-51.25 951.51,-57.01"/>
<text text-anchor="start" x="912.52" y="-82.23" font-family="Roboto, sans-serif" font-weight="bold" font-size="14.00">JA</text>
</g>
</g>
</svg>
  </g>
</svg>
  </g>
</svg>
