<?xml version='1.0' encoding='ASCII' standalone='yes'?>
<svg xmlns="http://www.w3.org/2000/svg" xmlns:xlink="http://www.w3.org/1999/xlink" version="1.1" width="1905.3333333333333px" viewBox="0 0 1905.3333333333333 1734.6666666666667" height="1734.6666666666667px">
  <g>
    <svg version="1.1" width="1905.3333333333333px" viewBox="0 0 1905.3333333333333 1734.6666666666667" height="1734.6666666666667px">
  <polygon fill="#f3f1f6" points="0,0 1905.3333333333333,0 1905.3333333333333,1734.6666666666667 0,1734.6666666666667"/><g>
    <g transform="translate(259.3146863771309, 173.46666666666664) scale(1 1) translate(0, 0) scale(7.845230960003985 7.845230960003985) "><sodipodi:namedview xmlns:sodipodi="http://sodipodi.sourceforge.net/DTD/sodipodi-0.dtd" xmlns:inkscape="http://www.inkscape.org/namespaces/inkscape" id="namedview7" pagecolor="#ffffff" bordercolor="#999999" borderopacity="1" inkscape:pageshadow="0" inkscape:pageopacity="0" inkscape:pagecheckerboard="0" inkscape:document-units="mm" showgrid="false" fit-margin-top="0" fit-margin-left="0" fit-margin-right="0" fit-margin-bottom="0" inkscape:zoom="0.64052329" inkscape:cx="130.36216" inkscape:cy="412.163" inkscape:window-width="1512" inkscape:window-height="916" inkscape:window-x="3840" inkscape:window-y="136" inkscape:window-maximized="0" inkscape:current-layer="layer1"/>
  <defs id="defs2">
    <clipPath clipPathUnits="userSpaceOnUse" id="clipPath23">
      <path d="M 0,568.156 H 579.236 V 0 H 0 Z" id="path21"/>
    </clipPath>
  </defs>
  <g xmlns:inkscape="http://www.inkscape.org/namespaces/inkscape" inkscape:label="Layer 1" inkscape:groupmode="layer" id="layer1" transform="translate(-16.541937,-55.305267)">
    <g id="g19" clip-path="url(#clipPath23)" transform="matrix(0.35277777,0,0,-0.35277777,0.01017023,243.73675)" style="opacity:0.2">
      <g id="g25" transform="translate(122.444,32.7195)">
        <path d="m 0,0 h -56.104 c -11,0 -19.898,9.123 -19.463,20.115 10.594,267.191 231.277,481.302 501.029,481.302 v -56.02 c 0,-10.98 -8.688,-19.892 -19.658,-20.393 C 180.29,414.697 0,228.005 0,0" style="fill:#6ead83;fill-opacity:0.5;fill-rule:nonzero;stroke:none" id="path27"/>
      </g>
      <g id="g29" transform="translate(273.7828,32.7195)">
        <path d="m 0,0 h -55.926 c -11.228,0 -20.091,9.482 -19.435,20.69 10.744,183.439 163.389,329.388 349.485,329.388 v -56.263 c 0,-10.709 -8.273,-19.617 -18.957,-20.35 C 112.819,263.696 0,144.774 0,0" style="fill:#6ead83;fill-opacity:0.5;fill-rule:nonzero;stroke:none" id="path31"/>
      </g>
      <g id="g33" transform="translate(425.7667,32.7195)">
        <path d="m 0,0 h -55.445 c -11.653,0 -20.604,10.17 -19.334,21.753 10.866,99.032 95.031,176.341 196.919,176.341 v -57.011 c 0,-10.046 -7.283,-18.755 -17.229,-20.165 C 45.688,112.522 0,61.497 0,0" style="fill:#6ead83;fill-opacity:0.5;fill-rule:nonzero;stroke:none" id="path35"/>
      </g>
    </g>
  </g>
</g>
    <svg width="1429pt" height="1301pt" viewBox="0.00 0.00 1429.43 1300.73">
<g id="graph0" class="graph" transform="scale(1 1) rotate(0) translate(4 1296.73)">
<title>D</title>
<text text-anchor="start" x="653.34" y="-1272.63" font-family="Times,serif" font-weight="bold" font-size="18.00">WiM Strom</text>
<text text-anchor="start" x="430.59" y="-1242.53" font-family="Times,serif" font-weight="bold" font-size="16.00">9.24.1: AD Anfrage und Bestellung von Werten durch den ESA</text>
<!-- Start -->
<g id="node1" class="node">
<title>Start</title>
<polygon fill="#7a8da1" stroke="black" points="410.17,-1194.73 238.87,-1194.73 238.87,-1151.45 410.17,-1151.45 410.17,-1194.73"/>
<text text-anchor="start" x="296.4" y="-1173.79" font-family="Times,serif" font-weight="bold" font-size="14.00">E_0252</text>
<text text-anchor="start" x="253.27" y="-1161.69" font-family="Times,serif" font-weight="bold" text-decoration="underline" font-size="12.00">Pr&#252;fende Rolle:</text>
<text text-anchor="start" x="358.27" y="-1161.69" font-family="Times,serif" font-weight="bold" font-size="12.00"> MSB</text>
</g>
<!-- 1 -->
<g id="node2" class="node">
<title>1</title>
<path fill="#7aab8a" stroke="black" d="M637.05,-1114.45C637.05,-1114.45 12,-1114.45 12,-1114.45 6,-1114.45 0,-1108.45 0,-1102.45 0,-1102.45 0,-1090.45 0,-1090.45 0,-1084.45 6,-1078.45 12,-1078.45 12,-1078.45 637.05,-1078.45 637.05,-1078.45 643.05,-1078.45 649.05,-1084.45 649.05,-1090.45 649.05,-1090.45 649.05,-1102.45 649.05,-1102.45 649.05,-1108.45 643.05,-1114.45 637.05,-1114.45"/>
<text text-anchor="start" x="14.4" y="-1092.78" font-family="Times,serif" font-weight="bold" font-size="14.00">1: </text>
<text text-anchor="start" x="33.9" y="-1092.78" font-family="Times,serif" font-size="14.00">Wird die &#220;bermittlung von Werten an die Marktrolle ESA grunds&#228;tzlich angeboten?</text>
</g>
<!-- Start&#45;&gt;1 -->
<g id="edge1" class="edge">
<title>Start-&gt;1</title>
<path fill="none" stroke="black" d="M324.52,-1151.3C324.52,-1143.44 324.52,-1134.36 324.52,-1125.92"/>
<polygon fill="black" stroke="black" points="328.03,-1126.12 324.53,-1116.12 321.03,-1126.12 328.03,-1126.12"/>
</g>
<!-- A01 -->
<g id="node3" class="node">
<title>A01</title>
<polygon fill="#cfb986" stroke="black" points="563.51,-1025.2 27.53,-1025.2 27.53,-963.68 563.51,-963.68 563.51,-1025.2"/>
<text text-anchor="start" x="280.52" y="-1007.14" font-family="Times,serif" font-weight="bold" font-size="14.00">A01</text>
<text text-anchor="start" x="39.77" y="-995.04" font-family="Times,serif" text-decoration="underline" font-size="12.00">Hinweis:</text>
<text text-anchor="start" x="39.77" y="-983.04" font-family="Times,serif" font-size="12.00">Cluster: Ablehnung</text>
<text text-anchor="start" x="39.77" y="-971.04" font-family="Times,serif" font-size="12.00">Der MSB bietet keine freiwillige &#220;bermittlung von Werten an die Marktrolle ESA an.</text>
</g>
<!-- 1&#45;&gt;A01 -->
<g id="edge2" class="edge">
<title>1-&gt;A01</title>
<path fill="none" stroke="black" d="M319.47,-1078.03C316.14,-1066.52 311.62,-1050.94 307.41,-1036.41"/>
<polygon fill="black" stroke="black" points="310.84,-1035.67 304.69,-1027.04 304.11,-1037.62 310.84,-1035.67"/>
<text text-anchor="middle" x="330.4" y="-1047.15" font-family="Times,serif" font-size="14.00">Nein</text>
</g>
<!-- 2 -->
<g id="node4" class="node">
<title>2</title>
<path fill="#7aab8a" stroke="black" d="M1169.3,-1017.08C1169.3,-1017.08 593.75,-1017.08 593.75,-1017.08 587.75,-1017.08 581.75,-1011.08 581.75,-1005.08 581.75,-1005.08 581.75,-983.8 581.75,-983.8 581.75,-977.8 587.75,-971.8 593.75,-971.8 593.75,-971.8 1169.3,-971.8 1169.3,-971.8 1175.3,-971.8 1181.3,-977.8 1181.3,-983.8 1181.3,-983.8 1181.3,-1005.08 1181.3,-1005.08 1181.3,-1011.08 1175.3,-1017.08 1169.3,-1017.08"/>
<text text-anchor="start" x="596.15" y="-996.14" font-family="Times,serif" font-weight="bold" font-size="14.00">2: </text>
<text text-anchor="start" x="615.65" y="-996.14" font-family="Times,serif" font-size="14.00">Wird das vom ESA gew&#252;nschte Messprodukt entsprechend der Codeliste der</text>
<text text-anchor="start" x="596.15" y="-982.14" font-family="Times,serif" font-size="14.00">Messprodukte angeboten?</text>
</g>
<!-- 1&#45;&gt;2 -->
<g id="edge3" class="edge">
<title>1-&gt;2</title>
<path fill="none" stroke="black" d="M421.87,-1077.97C511.96,-1061.8 646.75,-1037.59 747.09,-1019.58"/>
<polygon fill="black" stroke="black" points="747.52,-1023.06 756.74,-1017.85 746.28,-1016.17 747.52,-1023.06"/>
<text text-anchor="middle" x="609.27" y="-1047.15" font-family="Times,serif" font-size="14.00">Ja</text>
</g>
<!-- A02 -->
<g id="node5" class="node">
<title>A02</title>
<polygon fill="#cfb986" stroke="black" points="648.76,-910.43 186.28,-910.43 186.28,-848.91 648.76,-848.91 648.76,-910.43"/>
<text text-anchor="start" x="402.52" y="-892.37" font-family="Times,serif" font-weight="bold" font-size="14.00">A02</text>
<text text-anchor="start" x="198.52" y="-880.27" font-family="Times,serif" text-decoration="underline" font-size="12.00">Hinweis:</text>
<text text-anchor="start" x="198.52" y="-868.27" font-family="Times,serif" font-size="12.00">Cluster: Ablehnung</text>
<text text-anchor="start" x="198.52" y="-856.27" font-family="Times,serif" font-size="12.00">Das vom ESA gew&#252;nschte Messprodukt wird vom MSB nicht angeboten.</text>
</g>
<!-- 2&#45;&gt;A02 -->
<g id="edge4" class="edge">
<title>2-&gt;A02</title>
<path fill="none" stroke="black" d="M790.68,-971.36C723.04,-954.92 629.57,-932.2 553.1,-913.62"/>
<polygon fill="black" stroke="black" points="553.96,-910.23 543.42,-911.27 552.31,-917.03 553.96,-910.23"/>
<text text-anchor="middle" x="693.4" y="-932.38" font-family="Times,serif" font-size="14.00">Nein</text>
</g>
<!-- 3 -->
<g id="node6" class="node">
<title>3</title>
<path fill="#7aab8a" stroke="black" d="M1266.3,-902.31C1266.3,-902.31 678.75,-902.31 678.75,-902.31 672.75,-902.31 666.75,-896.31 666.75,-890.31 666.75,-890.31 666.75,-869.03 666.75,-869.03 666.75,-863.03 672.75,-857.03 678.75,-857.03 678.75,-857.03 1266.3,-857.03 1266.3,-857.03 1272.3,-857.03 1278.3,-863.03 1278.3,-869.03 1278.3,-869.03 1278.3,-890.31 1278.3,-890.31 1278.3,-896.31 1272.3,-902.31 1266.3,-902.31"/>
<text text-anchor="start" x="681.15" y="-881.37" font-family="Times,serif" font-weight="bold" font-size="14.00">3: </text>
<text text-anchor="start" x="700.65" y="-881.37" font-family="Times,serif" font-size="14.00">Liegt die vertragliche Grundlage zur Anfrage und &#220;bermittlung der Werte und</text>
<text text-anchor="start" x="681.15" y="-867.37" font-family="Times,serif" font-size="14.00">Abrechnung der erbrachten Dienstleistung vom MSB an den ESA beim MSB vor?</text>
</g>
<!-- 2&#45;&gt;3 -->
<g id="edge5" class="edge">
<title>2-&gt;3</title>
<path fill="none" stroke="black" d="M899.29,-971.43C913.07,-954.35 932.33,-930.48 947.65,-911.5"/>
<polygon fill="black" stroke="black" points="950.3,-913.78 953.86,-903.8 944.85,-909.39 950.3,-913.78"/>
<text text-anchor="middle" x="938.27" y="-932.38" font-family="Times,serif" font-size="14.00">Ja</text>
</g>
<!-- A03 -->
<g id="node7" class="node">
<title>A03</title>
<polygon fill="#cfb986" stroke="black" points="615.64,-782.78 305.41,-782.78 305.41,-721.26 615.64,-721.26 615.64,-782.78"/>
<text text-anchor="start" x="445.52" y="-764.72" font-family="Times,serif" font-weight="bold" font-size="14.00">A03</text>
<text text-anchor="start" x="317.65" y="-752.62" font-family="Times,serif" text-decoration="underline" font-size="12.00">Hinweis:</text>
<text text-anchor="start" x="317.65" y="-740.62" font-family="Times,serif" font-size="12.00">Cluster: Ablehnung</text>
<text text-anchor="start" x="317.65" y="-728.62" font-family="Times,serif" font-size="12.00">Vertragliche Grundlage des ESA liegt nicht vor.</text>
</g>
<!-- 3&#45;&gt;A03 -->
<g id="edge6" class="edge">
<title>3-&gt;A03</title>
<path fill="none" stroke="black" d="M877.5,-856.55C807.47,-840.12 709.95,-816.95 624.52,-795.66 612.15,-792.58 599.26,-789.31 586.39,-786.02"/>
<polygon fill="black" stroke="black" points="587.61,-782.72 577.05,-783.63 585.87,-789.5 587.61,-782.72"/>
<text text-anchor="middle" x="784.4" y="-817.61" font-family="Times,serif" font-size="14.00">Nein</text>
</g>
<!-- 4 -->
<g id="node8" class="node">
<title>4</title>
<path fill="#7aab8a" stroke="black" d="M1375.55,-795.66C1375.55,-795.66 645.5,-795.66 645.5,-795.66 639.5,-795.66 633.5,-789.66 633.5,-783.66 633.5,-783.66 633.5,-720.38 633.5,-720.38 633.5,-714.38 639.5,-708.38 645.5,-708.38 645.5,-708.38 1375.55,-708.38 1375.55,-708.38 1381.55,-708.38 1387.55,-714.38 1387.55,-720.38 1387.55,-720.38 1387.55,-783.66 1387.55,-783.66 1387.55,-789.66 1381.55,-795.66 1375.55,-795.66"/>
<text text-anchor="start" x="647.9" y="-774.72" font-family="Times,serif" font-weight="bold" font-size="14.00">4: </text>
<text text-anchor="start" x="667.4" y="-774.72" font-family="Times,serif" font-size="14.00">Liegt dem MSB eine g&#252;ltige datenschutzrechtliche Einwilligung (wie z. B. das</text>
<text text-anchor="start" x="647.9" y="-760.72" font-family="Times,serif" font-size="14.00">BDEW-Muster &#8222;Einwilligungserkl&#228;rung in die Verarbeitung personenbezogener Daten nach DS-GVO -</text>
<text text-anchor="start" x="647.9" y="-746.72" font-family="Times,serif" font-size="14.00">Anfrage und &#220;bermittlung von Messprodukten</text>
<text text-anchor="start" x="647.9" y="-732.72" font-family="Times,serif" font-size="14.00">gem&#228;&#223; BNetzA-Festlegung BK6-20-160&#8220;) zur Anfrage und &#220;bermittlung von</text>
<text text-anchor="start" x="647.9" y="-718.72" font-family="Times,serif" font-size="14.00">Messprodukten vor?</text>
</g>
<!-- 3&#45;&gt;4 -->
<g id="edge7" class="edge">
<title>3-&gt;4</title>
<path fill="none" stroke="black" d="M979.14,-856.78C983.34,-842.93 988.95,-824.36 994.27,-806.77"/>
<polygon fill="black" stroke="black" points="997.55,-808.02 997.09,-797.44 990.85,-805.99 997.55,-808.02"/>
<text text-anchor="middle" x="998.27" y="-817.61" font-family="Times,serif" font-size="14.00">Ja</text>
</g>
<!-- A04 -->
<g id="node9" class="node">
<title>A04</title>
<polygon fill="#cfb986" stroke="black" points="820.26,-655.13 282.78,-655.13 282.78,-593.61 820.26,-593.61 820.26,-655.13"/>
<text text-anchor="start" x="536.52" y="-637.07" font-family="Times,serif" font-weight="bold" font-size="14.00">A04</text>
<text text-anchor="start" x="295.02" y="-624.97" font-family="Times,serif" text-decoration="underline" font-size="12.00">Hinweis:</text>
<text text-anchor="start" x="295.02" y="-612.97" font-family="Times,serif" font-size="12.00">Cluster: Ablehnung</text>
<text text-anchor="start" x="295.02" y="-600.97" font-family="Times,serif" font-size="12.00">Die unterzeichnete Einwilligung des Anschlussnutzers f&#252;r die Lokation liegt nicht vor</text>
</g>
<!-- 4&#45;&gt;A04 -->
<g id="edge8" class="edge">
<title>4-&gt;A04</title>
<path fill="none" stroke="black" d="M853.21,-707.95C794.21,-691.8 728.12,-673.71 672.88,-658.59"/>
<polygon fill="black" stroke="black" points="674.01,-655.27 663.44,-656.01 672.16,-662.02 674.01,-655.27"/>
<text text-anchor="middle" x="797.4" y="-677.08" font-family="Times,serif" font-size="14.00">Nein</text>
</g>
<!-- 5 -->
<g id="node10" class="node">
<title>5</title>
<path fill="#7aab8a" stroke="black" d="M1312.68,-642.37C1312.68,-642.37 850.38,-642.37 850.38,-642.37 844.38,-642.37 838.38,-636.37 838.38,-630.37 838.38,-630.37 838.38,-618.37 838.38,-618.37 838.38,-612.37 844.38,-606.37 850.38,-606.37 850.38,-606.37 1312.68,-606.37 1312.68,-606.37 1318.68,-606.37 1324.68,-612.37 1324.68,-618.37 1324.68,-618.37 1324.68,-630.37 1324.68,-630.37 1324.68,-636.37 1318.68,-642.37 1312.68,-642.37"/>
<text text-anchor="start" x="852.78" y="-620.7" font-family="Times,serif" font-weight="bold" font-size="14.00">5: </text>
<text text-anchor="start" x="872.28" y="-620.7" font-family="Times,serif" font-size="14.00">Sind die Daten in der Einwilligung plausibel und vollst&#228;ndig?</text>
</g>
<!-- 4&#45;&gt;5 -->
<g id="edge9" class="edge">
<title>4-&gt;5</title>
<path fill="none" stroke="black" d="M1034.76,-708.13C1045.17,-689.7 1057.03,-668.72 1066.2,-652.49"/>
<polygon fill="black" stroke="black" points="1069.18,-654.34 1071.05,-643.91 1063.08,-650.89 1069.18,-654.34"/>
<text text-anchor="middle" x="1060.28" y="-677.08" font-family="Times,serif" font-size="14.00">Ja</text>
</g>
<!-- A05 -->
<g id="node11" class="node">
<title>A05</title>
<polygon fill="#cfb986" stroke="black" points="759.39,-540.36 369.66,-540.36 369.66,-478.84 759.39,-478.84 759.39,-540.36"/>
<text text-anchor="start" x="549.52" y="-522.3" font-family="Times,serif" font-weight="bold" font-size="14.00">A05</text>
<text text-anchor="start" x="381.9" y="-510.2" font-family="Times,serif" text-decoration="underline" font-size="12.00">Hinweis:</text>
<text text-anchor="start" x="381.9" y="-498.2" font-family="Times,serif" font-size="12.00">Cluster: Ablehnung</text>
<text text-anchor="start" x="381.9" y="-486.2" font-family="Times,serif" font-size="12.00">Vorliegende Einwilligung ist nicht plausibel oder vollst&#228;ndig.</text>
</g>
<!-- 5&#45;&gt;A05 -->
<g id="edge10" class="edge">
<title>5-&gt;A05</title>
<path fill="none" stroke="black" d="M1001.31,-605.87C924.85,-589.2 807.82,-563.67 714.14,-543.23"/>
<polygon fill="black" stroke="black" points="715.12,-539.87 704.6,-541.15 713.63,-546.71 715.12,-539.87"/>
<text text-anchor="middle" x="870.4" y="-562.31" font-family="Times,serif" font-size="14.00">Nein</text>
</g>
<!-- 6 -->
<g id="node12" class="node">
<title>6</title>
<path fill="#7aab8a" stroke="black" d="M1409.43,-532.24C1409.43,-532.24 789.63,-532.24 789.63,-532.24 783.63,-532.24 777.63,-526.24 777.63,-520.24 777.63,-520.24 777.63,-498.96 777.63,-498.96 777.63,-492.96 783.63,-486.96 789.63,-486.96 789.63,-486.96 1409.43,-486.96 1409.43,-486.96 1415.43,-486.96 1421.43,-492.96 1421.43,-498.96 1421.43,-498.96 1421.43,-520.24 1421.43,-520.24 1421.43,-526.24 1415.43,-532.24 1409.43,-532.24"/>
<text text-anchor="start" x="792.03" y="-511.3" font-family="Times,serif" font-weight="bold" font-size="14.00">6: </text>
<text text-anchor="start" x="811.53" y="-511.3" font-family="Times,serif" font-size="14.00">Erm&#246;glicht die vorhandene Ger&#228;tetechnik die &#220;bermittlung der angefragten Werte</text>
<text text-anchor="start" x="792.03" y="-497.3" font-family="Times,serif" font-size="14.00">entsprechend dem Messprodukt?</text>
</g>
<!-- 5&#45;&gt;6 -->
<g id="edge11" class="edge">
<title>5-&gt;6</title>
<path fill="none" stroke="black" d="M1084.26,-606.24C1086.9,-589.68 1090.98,-564.16 1094.25,-543.64"/>
<polygon fill="black" stroke="black" points="1097.66,-544.47 1095.78,-534.04 1090.75,-543.36 1097.66,-544.47"/>
<text text-anchor="middle" x="1098.28" y="-562.31" font-family="Times,serif" font-size="14.00">Ja</text>
</g>
<!-- A06 -->
<g id="node13" class="node">
<title>A06</title>
<polygon fill="#cfb986" stroke="black" points="817.26,-425.59 429.78,-425.59 429.78,-364.07 817.26,-364.07 817.26,-425.59"/>
<text text-anchor="start" x="608.52" y="-407.53" font-family="Times,serif" font-weight="bold" font-size="14.00">A06</text>
<text text-anchor="start" x="442.02" y="-395.43" font-family="Times,serif" text-decoration="underline" font-size="12.00">Hinweis:</text>
<text text-anchor="start" x="442.02" y="-383.43" font-family="Times,serif" font-size="12.00">Cluster: Ablehnung</text>
<text text-anchor="start" x="442.02" y="-371.43" font-family="Times,serif" font-size="12.00">Die Ger&#228;tetechnik misst die angeforderten Messwerte nicht.</text>
</g>
<!-- 6&#45;&gt;A06 -->
<g id="edge12" class="edge">
<title>6-&gt;A06</title>
<path fill="none" stroke="black" d="M1006.33,-486.52C936.8,-470.05 840.66,-447.27 762.12,-428.67"/>
<polygon fill="black" stroke="black" points="763.17,-425.32 752.64,-426.42 761.56,-432.13 763.17,-425.32"/>
<text text-anchor="middle" x="906.4" y="-447.54" font-family="Times,serif" font-size="14.00">Nein</text>
</g>
<!-- 7 -->
<g id="node14" class="node">
<title>7</title>
<path fill="#7aab8a" stroke="black" d="M1407.8,-412.83C1407.8,-412.83 847.25,-412.83 847.25,-412.83 841.25,-412.83 835.25,-406.83 835.25,-400.83 835.25,-400.83 835.25,-388.83 835.25,-388.83 835.25,-382.83 841.25,-376.83 847.25,-376.83 847.25,-376.83 1407.8,-376.83 1407.8,-376.83 1413.8,-376.83 1419.8,-382.83 1419.8,-388.83 1419.8,-388.83 1419.8,-400.83 1419.8,-400.83 1419.8,-406.83 1413.8,-412.83 1407.8,-412.83"/>
<text text-anchor="start" x="849.65" y="-391.15" font-family="Times,serif" font-weight="bold" font-size="14.00">7: </text>
<text text-anchor="start" x="869.15" y="-391.15" font-family="Times,serif" font-size="14.00">Handelt es sich um eine Anfrage von Werten auf Ebene der Marktlokation?</text>
</g>
<!-- 6&#45;&gt;7 -->
<g id="edge13" class="edge">
<title>6-&gt;7</title>
<path fill="none" stroke="black" d="M1104.99,-486.59C1109.42,-468.75 1115.69,-443.5 1120.49,-424.16"/>
<polygon fill="black" stroke="black" points="1123.89,-425.01 1122.9,-414.46 1117.09,-423.33 1123.89,-425.01"/>
<text text-anchor="middle" x="1121.28" y="-447.54" font-family="Times,serif" font-size="14.00">Ja</text>
</g>
<!-- 8 -->
<g id="node15" class="node">
<title>8</title>
<path fill="#7aab8a" stroke="black" d="M1148.3,-310.82C1148.3,-310.82 518.75,-310.82 518.75,-310.82 512.75,-310.82 506.75,-304.82 506.75,-298.82 506.75,-298.82 506.75,-277.54 506.75,-277.54 506.75,-271.54 512.75,-265.54 518.75,-265.54 518.75,-265.54 1148.3,-265.54 1148.3,-265.54 1154.3,-265.54 1160.3,-271.54 1160.3,-277.54 1160.3,-277.54 1160.3,-298.82 1160.3,-298.82 1160.3,-304.82 1154.3,-310.82 1148.3,-310.82"/>
<text text-anchor="start" x="521.15" y="-289.88" font-family="Times,serif" font-weight="bold" font-size="14.00">8: </text>
<text text-anchor="start" x="540.65" y="-289.88" font-family="Times,serif" font-size="14.00">Ist der MSB an allen der Marktlokation zugeordneten Messlokationen auch der MSB</text>
<text text-anchor="start" x="521.15" y="-275.88" font-family="Times,serif" font-size="14.00">der Messlokation(en)?</text>
</g>
<!-- 7&#45;&gt;8 -->
<g id="edge14" class="edge">
<title>7-&gt;8</title>
<path fill="none" stroke="black" d="M1078.65,-376.43C1031.67,-359.71 960.1,-334.23 906.4,-315.12"/>
<polygon fill="black" stroke="black" points="907.59,-311.83 897,-311.77 905.24,-318.42 907.59,-311.83"/>
<text text-anchor="middle" x="995.27" y="-332.77" font-family="Times,serif" font-size="14.00">Ja</text>
</g>
<!-- 9 -->
<g id="node17" class="node">
<title>9</title>
<path fill="#7aab8a" stroke="black" d="M1341.8,-193.53C1341.8,-193.53 1051.25,-193.53 1051.25,-193.53 1045.25,-193.53 1039.25,-187.53 1039.25,-181.53 1039.25,-181.53 1039.25,-169.53 1039.25,-169.53 1039.25,-163.53 1045.25,-157.53 1051.25,-157.53 1051.25,-157.53 1341.8,-157.53 1341.8,-157.53 1347.8,-157.53 1353.8,-163.53 1353.8,-169.53 1353.8,-169.53 1353.8,-181.53 1353.8,-181.53 1353.8,-187.53 1347.8,-193.53 1341.8,-193.53"/>
<text text-anchor="start" x="1053.65" y="-171.85" font-family="Times,serif" font-weight="bold" font-size="14.00">9: </text>
<text text-anchor="start" x="1073.15" y="-171.85" font-family="Times,serif" font-size="14.00">Muss die Anfrage abgelehnt werden?</text>
</g>
<!-- 7&#45;&gt;9 -->
<g id="edge15" class="edge">
<title>7-&gt;9</title>
<path fill="none" stroke="black" d="M1137.97,-376.63C1147.49,-360.24 1161.28,-334.63 1169.53,-310.82 1181.8,-275.39 1189.19,-232.66 1193.07,-205.07"/>
<polygon fill="black" stroke="black" points="1196.5,-205.76 1194.36,-195.38 1189.57,-204.83 1196.5,-205.76"/>
<text text-anchor="middle" x="1198.4" y="-283.5" font-family="Times,serif" font-size="14.00">Nein</text>
</g>
<!-- A07 -->
<g id="node16" class="node">
<title>A07</title>
<polygon fill="#cfb986" stroke="black" points="1021.26,-212.29 549.78,-212.29 549.78,-138.77 1021.26,-138.77 1021.26,-212.29"/>
<text text-anchor="start" x="770.52" y="-194.23" font-family="Times,serif" font-weight="bold" font-size="14.00">A07</text>
<text text-anchor="start" x="562.02" y="-182.13" font-family="Times,serif" text-decoration="underline" font-size="12.00">Hinweis:</text>
<text text-anchor="start" x="562.02" y="-170.13" font-family="Times,serif" font-size="12.00">Cluster: Ablehnung</text>
<text text-anchor="start" x="562.02" y="-158.13" font-family="Times,serif" font-size="12.00">Der MSB der Marktlokation ist nicht zeitgleich der allen Messlokation(en)</text>
<text text-anchor="start" x="562.02" y="-146.13" font-family="Times,serif" font-size="12.00">zugeordnete MSB.</text>
</g>
<!-- 8&#45;&gt;A07 -->
<g id="edge16" class="edge">
<title>8-&gt;A07</title>
<path fill="none" stroke="black" d="M823.93,-265.05C818.69,-252.98 811.99,-237.55 805.67,-222.97"/>
<polygon fill="black" stroke="black" points="808.95,-221.73 801.76,-213.94 802.52,-224.51 808.95,-221.73"/>
<text text-anchor="middle" x="831.4" y="-234.24" font-family="Times,serif" font-size="14.00">Nein</text>
</g>
<!-- 8&#45;&gt;9 -->
<g id="edge17" class="edge">
<title>8-&gt;9</title>
<path fill="none" stroke="black" d="M906.11,-265.05C970.95,-245.29 1065.21,-216.56 1128.59,-197.24"/>
<polygon fill="black" stroke="black" points="1129.27,-200.69 1137.82,-194.43 1127.23,-193.99 1129.27,-200.69"/>
<text text-anchor="middle" x="1021.27" y="-234.24" font-family="Times,serif" font-size="14.00">Ja</text>
</g>
<!-- A99 -->
<g id="node18" class="node">
<title>A99</title>
<polygon fill="#cfb986" stroke="black" points="1242.01,-85.52 727.03,-85.52 727.03,0 1242.01,0 1242.01,-85.52"/>
<text text-anchor="start" x="969.52" y="-67.46" font-family="Times,serif" font-weight="bold" font-size="14.00">A99</text>
<text text-anchor="start" x="739.27" y="-55.36" font-family="Times,serif" text-decoration="underline" font-size="12.00">Hinweis:</text>
<text text-anchor="start" x="739.27" y="-43.36" font-family="Times,serif" font-size="12.00">Cluster: Ablehnung</text>
<text text-anchor="start" x="739.27" y="-31.36" font-family="Times,serif" font-size="12.00">Sonstiges</text>
<text text-anchor="start" x="739.27" y="-19.36" font-family="Times,serif" font-size="12.00">Hinweis: Das identifizierte Problem ist in der Antwort zu beschreiben / benennen.</text>
<text text-anchor="start" x="739.27" y="-7.36" font-family="Times,serif" font-size="12.00">Nutzungsm&#246;glichkeit Ende: 01.10.2023 00:00 Uhr</text>
</g>
<!-- 9&#45;&gt;A99 -->
<g id="edge18" class="edge">
<title>9-&gt;A99</title>
<path fill="none" stroke="black" d="M1168.37,-157.16C1141.49,-140.58 1099.72,-114.82 1062.78,-92.03"/>
<polygon fill="black" stroke="black" points="1064.65,-89.07 1054.3,-86.8 1060.97,-95.03 1064.65,-89.07"/>
<text text-anchor="middle" x="1109.28" y="-107.47" font-family="Times,serif" font-size="14.00">Ja</text>
</g>
<!-- Ende -->
<g id="node19" class="node">
<title>Ende</title>
<polygon fill="#7a8da1" stroke="black" points="1325.3,-60.76 1259.75,-60.76 1259.75,-24.76 1325.3,-24.76 1325.3,-60.76"/>
<text text-anchor="middle" x="1292.53" y="-38.09" font-family="Times,serif" font-size="14.00">Ende</text>
</g>
<!-- 9&#45;&gt;Ende -->
<g id="edge19" class="edge">
<title>9-&gt;Ende</title>
<path fill="none" stroke="black" d="M1209.27,-157.16C1225.55,-134.99 1253.9,-96.38 1272.93,-70.45"/>
<polygon fill="black" stroke="black" points="1275.73,-72.55 1278.83,-62.42 1270.09,-68.41 1275.73,-72.55"/>
<text text-anchor="middle" x="1263.4" y="-107.47" font-family="Times,serif" font-size="14.00">Nein</text>
</g>
</g>
</svg>
  </g>
</svg>
  </g>
</svg>
