<?xml version='1.0' encoding='ASCII' standalone='yes'?>
<svg xmlns="http://www.w3.org/2000/svg" xmlns:xlink="http://www.w3.org/1999/xlink" version="1.1" width="1860.0px" viewBox="0 0 1860.0 1606.6666666666667" height="1606.6666666666667px">
  <g>
    <svg version="1.1" width="1860.0px" viewBox="0 0 1860.0 1606.6666666666667" height="1606.6666666666667px">
  <rect fill="#e7e6e5" x="0" y="0" width="1860.0" height="1606.6666666666667" rx="20" ry="20"/><g>
    <g transform="translate(274.8003379329765, 160.66666666666663) scale(1 1) translate(0, 0) scale(2.262273537970525 2.262273537970525) "><!-- note that I manually added the width and height attribute to the root node
  https://chatgpt.com/share/678e3028-70cc-800b-a296-782714735772
  -->
  <defs>
    <style>.cls-1{fill:#fff;}</style>
  </defs>
  <path class="cls-1" d="M122.44,531.2h-56.1c-11,0-19.9-9.12-19.46-20.11C57.47,243.89,278.15,29.78,547.91,29.78v56.02c0,10.98-8.69,19.89-19.66,20.39-225.51,10.31-405.8,197-405.8,425Z"/>
  <path class="cls-1" d="M273.78,531.2h-55.93c-11.23,0-20.09-9.48-19.43-20.69,10.74-183.44,163.39-329.39,349.48-329.39v56.26c0,10.71-8.27,19.62-18.96,20.35-142.35,9.77-255.17,128.69-255.17,273.46Z"/>
  <path class="cls-1" d="M425.77,531.2h-55.45c-11.65,0-20.6-10.17-19.33-21.75,10.87-99.03,95.03-176.34,196.92-176.34v57.01c0,10.05-7.28,18.75-17.23,20.16-59.22,8.4-104.91,59.42-104.91,120.92Z"/>
</g>
    <svg width="1395pt" height="1205pt" viewBox="0.00 0.00 1395.18 1205.05">
<g id="graph0" class="graph" transform="scale(1 1) rotate(0) translate(4 1201.05)">
<title>D</title>
<text text-anchor="start" x="404.09" y="-1176.95" font-family="Roboto, sans-serif" font-weight="bold" font-size="18.00">GPKE</text>
<text text-anchor="start" x="404.09" y="-1146.85" font-family="Roboto, sans-serif" font-weight="bold" font-size="16.00">6.36.1: AD: Bestellung &#196;nderung Bilanzierungsverfahren vom LF</text>
<!-- Start -->
<g id="node1" class="node">
<title>Start</title>
<path fill="#8ba2d7" stroke="black" stroke-width="0" d="M610.67,-1099.05C610.67,-1099.05 479.12,-1099.05 479.12,-1099.05 473.12,-1099.05 467.12,-1093.05 467.12,-1087.05 467.12,-1087.05 467.12,-1067.77 467.12,-1067.77 467.12,-1061.77 473.12,-1055.77 479.12,-1055.77 479.12,-1055.77 610.67,-1055.77 610.67,-1055.77 616.67,-1055.77 622.67,-1061.77 622.67,-1067.77 622.67,-1067.77 622.67,-1087.05 622.67,-1087.05 622.67,-1093.05 616.67,-1099.05 610.67,-1099.05"/>
<text text-anchor="start" x="481.52" y="-1078.11" font-family="Roboto, sans-serif" font-weight="bold" font-size="14.00">E_0481</text>
<text text-anchor="start" x="481.52" y="-1066.01" font-family="Roboto, sans-serif" font-weight="bold" text-decoration="underline" font-size="12.00">Pr&#252;fende Rolle:</text>
<text text-anchor="start" x="585.02" y="-1066.01" font-family="Roboto, sans-serif" font-weight="bold" font-size="12.00"> NB</text>
</g>
<!-- 1 -->
<g id="node2" class="node">
<title>1</title>
<path fill="#c2cee9" stroke="black" stroke-width="0" d="M848.05,-1018.77C848.05,-1018.77 241.75,-1018.77 241.75,-1018.77 235.75,-1018.77 229.75,-1012.77 229.75,-1006.77 229.75,-1006.77 229.75,-994.77 229.75,-994.77 229.75,-988.77 235.75,-982.77 241.75,-982.77 241.75,-982.77 848.05,-982.77 848.05,-982.77 854.05,-982.77 860.05,-988.77 860.05,-994.77 860.05,-994.77 860.05,-1006.77 860.05,-1006.77 860.05,-1012.77 854.05,-1018.77 848.05,-1018.77"/>
<text text-anchor="start" x="244.15" y="-997.09" font-family="Roboto, sans-serif" font-weight="bold" font-size="14.00">1: </text>
<text text-anchor="start" x="263.65" y="-997.09" font-family="Roboto, sans-serif" font-size="14.00">Handelt es sich um eine Marktlokation mit der messtechnischen Einordnung &#8222;iMS&#8220;?</text>
</g>
<!-- Start&#45;&gt;1 -->
<g id="edge1" class="edge">
<title>Start-&gt;1</title>
<path fill="none" stroke="#88a0d6" d="M544.9,-1056.01C544.9,-1047.94 544.9,-1038.53 544.9,-1029.84"/>
<polygon fill="#88a0d6" stroke="#88a0d6" points="548.4,-1030.13 544.9,-1020.13 541.4,-1030.13 548.4,-1030.13"/>
</g>
<!-- A01 -->
<g id="node3" class="node">
<title>A01</title>
<path fill="#c4cac1" stroke="black" stroke-width="0" d="M487.42,-929.52C487.42,-929.52 30.38,-929.52 30.38,-929.52 24.38,-929.52 18.38,-923.52 18.38,-917.52 18.38,-917.52 18.38,-886.24 18.38,-886.24 18.38,-880.24 24.38,-874.24 30.38,-874.24 30.38,-874.24 487.42,-874.24 487.42,-874.24 493.42,-874.24 499.42,-880.24 499.42,-886.24 499.42,-886.24 499.42,-917.52 499.42,-917.52 499.42,-923.52 493.42,-929.52 487.42,-929.52"/>
<text text-anchor="start" x="32.77" y="-908.58" font-family="Roboto, sans-serif" font-weight="bold" font-size="14.00">A01</text>
<text text-anchor="start" x="32.77" y="-896.48" font-family="Roboto, sans-serif" text-decoration="underline" font-size="12.00">Hinweis:</text>
<text text-anchor="start" x="32.77" y="-884.48" font-family="Roboto, sans-serif" font-size="12.00">Marktlokation befindet sich nicht in der messtechnischen Einordnung &#8222;iMS&#8220;.</text>
</g>
<!-- 1&#45;&gt;A01 -->
<g id="edge2" class="edge">
<title>1-&gt;A01</title>
<path fill="none" stroke="#88a0d6" d="M494.76,-982.78C454.32,-969.08 396.43,-949.47 348.12,-933.11"/>
<polygon fill="#88a0d6" stroke="#88a0d6" points="349.37,-929.83 338.77,-929.94 347.12,-936.46 349.37,-929.83"/>
<text text-anchor="start" x="435.9" y="-952.47" font-family="Roboto, sans-serif" font-weight="bold" font-size="14.00">NEIN</text>
</g>
<!-- 2 -->
<g id="node4" class="node">
<title>2</title>
<path fill="#c2cee9" stroke="black" stroke-width="0" d="M1066.55,-924.52C1066.55,-924.52 529.25,-924.52 529.25,-924.52 523.25,-924.52 517.25,-918.52 517.25,-912.52 517.25,-912.52 517.25,-891.24 517.25,-891.24 517.25,-885.24 523.25,-879.24 529.25,-879.24 529.25,-879.24 1066.55,-879.24 1066.55,-879.24 1072.55,-879.24 1078.55,-885.24 1078.55,-891.24 1078.55,-891.24 1078.55,-912.52 1078.55,-912.52 1078.55,-918.52 1072.55,-924.52 1066.55,-924.52"/>
<text text-anchor="start" x="531.65" y="-903.58" font-family="Roboto, sans-serif" font-weight="bold" font-size="14.00">2: </text>
<text text-anchor="start" x="551.15" y="-903.58" font-family="Roboto, sans-serif" font-size="14.00">Entspricht der geplante Termin zur &#196;nderung der Prognosegrundlage den</text>
<text text-anchor="start" x="531.65" y="-889.58" font-family="Roboto, sans-serif" font-size="14.00">Prozessfristvorgaben?</text>
</g>
<!-- 1&#45;&gt;2 -->
<g id="edge3" class="edge">
<title>1-&gt;2</title>
<path fill="none" stroke="#88a0d6" d="M589.26,-982.78C628.49,-967.76 686.28,-945.63 731.1,-928.46"/>
<polygon fill="#88a0d6" stroke="#88a0d6" points="732.12,-931.82 740.2,-924.98 729.61,-925.28 732.12,-931.82"/>
<text text-anchor="start" x="678.9" y="-952.47" font-family="Roboto, sans-serif" font-weight="bold" font-size="14.00">JA</text>
</g>
<!-- A02 -->
<g id="node5" class="node">
<title>A02</title>
<path fill="#c4cac1" stroke="black" stroke-width="0" d="M567.67,-820.99C567.67,-820.99 448.12,-820.99 448.12,-820.99 442.12,-820.99 436.12,-814.99 436.12,-808.99 436.12,-808.99 436.12,-777.71 436.12,-777.71 436.12,-771.71 442.12,-765.71 448.12,-765.71 448.12,-765.71 567.67,-765.71 567.67,-765.71 573.67,-765.71 579.67,-771.71 579.67,-777.71 579.67,-777.71 579.67,-808.99 579.67,-808.99 579.67,-814.99 573.67,-820.99 567.67,-820.99"/>
<text text-anchor="start" x="450.52" y="-800.05" font-family="Roboto, sans-serif" font-weight="bold" font-size="14.00">A02</text>
<text text-anchor="start" x="450.52" y="-787.95" font-family="Roboto, sans-serif" text-decoration="underline" font-size="12.00">Hinweis:</text>
<text text-anchor="start" x="450.52" y="-775.95" font-family="Roboto, sans-serif" font-size="12.00">Frist&#252;berschreitung</text>
</g>
<!-- 2&#45;&gt;A02 -->
<g id="edge4" class="edge">
<title>2-&gt;A02</title>
<path fill="none" stroke="#88a0d6" d="M739.21,-879.32C696.36,-863.58 637.7,-842.03 590.17,-824.57"/>
<polygon fill="#88a0d6" stroke="#88a0d6" points="591.6,-821.37 581.01,-821.21 589.19,-827.94 591.6,-821.37"/>
<text text-anchor="start" x="669.9" y="-843.94" font-family="Roboto, sans-serif" font-weight="bold" font-size="14.00">NEIN</text>
</g>
<!-- 3 -->
<g id="node6" class="node">
<title>3</title>
<path fill="#c2cee9" stroke="black" stroke-width="0" d="M1017.67,-811.35C1017.67,-811.35 610.12,-811.35 610.12,-811.35 604.12,-811.35 598.12,-805.35 598.12,-799.35 598.12,-799.35 598.12,-787.35 598.12,-787.35 598.12,-781.35 604.12,-775.35 610.12,-775.35 610.12,-775.35 1017.67,-775.35 1017.67,-775.35 1023.67,-775.35 1029.67,-781.35 1029.67,-787.35 1029.67,-787.35 1029.67,-799.35 1029.67,-799.35 1029.67,-805.35 1023.67,-811.35 1017.67,-811.35"/>
<text text-anchor="start" x="612.52" y="-789.67" font-family="Roboto, sans-serif" font-weight="bold" font-size="14.00">3: </text>
<text text-anchor="start" x="632.02" y="-789.67" font-family="Roboto, sans-serif" font-size="14.00">Handelt es sich um eine verbrauchende Marktlokation?</text>
</g>
<!-- 2&#45;&gt;3 -->
<g id="edge5" class="edge">
<title>2-&gt;3</title>
<path fill="none" stroke="#88a0d6" d="M801.14,-879.32C803.6,-862.94 807,-840.27 809.68,-822.47"/>
<polygon fill="#88a0d6" stroke="#88a0d6" points="813.1,-823.23 811.13,-812.82 806.18,-822.19 813.1,-823.23"/>
<text text-anchor="start" x="805.9" y="-843.94" font-family="Roboto, sans-serif" font-weight="bold" font-size="14.00">JA</text>
</g>
<!-- A03 -->
<g id="node7" class="node">
<title>A03</title>
<path fill="#c4cac1" stroke="black" stroke-width="0" d="M517.8,-712.46C517.8,-712.46 12,-712.46 12,-712.46 6,-712.46 0,-706.46 0,-700.46 0,-700.46 0,-657.18 0,-657.18 0,-651.18 6,-645.18 12,-645.18 12,-645.18 517.8,-645.18 517.8,-645.18 523.8,-645.18 529.8,-651.18 529.8,-657.18 529.8,-657.18 529.8,-700.46 529.8,-700.46 529.8,-706.46 523.8,-712.46 517.8,-712.46"/>
<text text-anchor="start" x="14.4" y="-691.52" font-family="Roboto, sans-serif" font-weight="bold" font-size="14.00">A03</text>
<text text-anchor="start" x="14.4" y="-679.42" font-family="Roboto, sans-serif" text-decoration="underline" font-size="12.00">Hinweis:</text>
<text text-anchor="start" x="14.4" y="-667.42" font-family="Roboto, sans-serif" font-size="12.00">Erzeugende Marktlokationen mit iMS werden immer auf der Prognosegrundlage auf</text>
<text text-anchor="start" x="14.4" y="-655.42" font-family="Roboto, sans-serif" font-size="12.00">Basis von Werten bilanziert.</text>
</g>
<!-- 3&#45;&gt;A03 -->
<g id="edge6" class="edge">
<title>3-&gt;A03</title>
<path fill="none" stroke="#88a0d6" d="M731.11,-775.38C652.94,-759.36 533.34,-734.84 434.85,-714.65"/>
<polygon fill="#88a0d6" stroke="#88a0d6" points="435.85,-711.29 425.35,-712.71 434.44,-718.14 435.85,-711.29"/>
<text text-anchor="start" x="587.9" y="-735.41" font-family="Roboto, sans-serif" font-weight="bold" font-size="14.00">NEIN</text>
</g>
<!-- 4 -->
<g id="node8" class="node">
<title>4</title>
<path fill="#c2cee9" stroke="black" stroke-width="0" d="M1079.92,-701.46C1079.92,-701.46 559.88,-701.46 559.88,-701.46 553.88,-701.46 547.88,-695.46 547.88,-689.46 547.88,-689.46 547.88,-668.18 547.88,-668.18 547.88,-662.18 553.88,-656.18 559.88,-656.18 559.88,-656.18 1079.92,-656.18 1079.92,-656.18 1085.92,-656.18 1091.92,-662.18 1091.92,-668.18 1091.92,-668.18 1091.92,-689.46 1091.92,-689.46 1091.92,-695.46 1085.92,-701.46 1079.92,-701.46"/>
<text text-anchor="start" x="562.27" y="-680.52" font-family="Roboto, sans-serif" font-weight="bold" font-size="14.00">4: </text>
<text text-anchor="start" x="581.77" y="-680.52" font-family="Roboto, sans-serif" font-size="14.00">Liegt eine Zuordnungserm&#228;chtigung f&#252;r den sich aus der gew&#252;nschten</text>
<text text-anchor="start" x="562.27" y="-666.52" font-family="Roboto, sans-serif" font-size="14.00">Prognosegrundlage ergebenden ZRT vor?</text>
</g>
<!-- 3&#45;&gt;4 -->
<g id="edge7" class="edge">
<title>3-&gt;4</title>
<path fill="none" stroke="#88a0d6" d="M814.79,-775.75C815.67,-759.19 817.05,-733.3 818.15,-712.6"/>
<polygon fill="#88a0d6" stroke="#88a0d6" points="821.65,-712.79 818.68,-702.62 814.66,-712.42 821.65,-712.79"/>
<text text-anchor="start" x="816.9" y="-735.41" font-family="Roboto, sans-serif" font-weight="bold" font-size="14.00">JA</text>
</g>
<!-- A04 -->
<g id="node9" class="node">
<title>A04</title>
<path fill="#c4cac1" stroke="black" stroke-width="0" d="M615.42,-591.93C615.42,-591.93 368.38,-591.93 368.38,-591.93 362.38,-591.93 356.38,-585.93 356.38,-579.93 356.38,-579.93 356.38,-548.65 356.38,-548.65 356.38,-542.65 362.38,-536.65 368.38,-536.65 368.38,-536.65 615.42,-536.65 615.42,-536.65 621.42,-536.65 627.42,-542.65 627.42,-548.65 627.42,-548.65 627.42,-579.93 627.42,-579.93 627.42,-585.93 621.42,-591.93 615.42,-591.93"/>
<text text-anchor="start" x="370.77" y="-570.99" font-family="Roboto, sans-serif" font-weight="bold" font-size="14.00">A04</text>
<text text-anchor="start" x="370.77" y="-558.89" font-family="Roboto, sans-serif" text-decoration="underline" font-size="12.00">Hinweis:</text>
<text text-anchor="start" x="370.77" y="-546.89" font-family="Roboto, sans-serif" font-size="12.00">Zuordnungserm&#228;chtigung liegt nicht vor.</text>
</g>
<!-- 4&#45;&gt;A04 -->
<g id="edge8" class="edge">
<title>4-&gt;A04</title>
<path fill="none" stroke="#88a0d6" d="M757.05,-656.26C706.8,-639.02 635.78,-614.65 579.89,-595.48"/>
<polygon fill="#88a0d6" stroke="#88a0d6" points="581.31,-592.26 570.71,-592.33 579.04,-598.88 581.31,-592.26"/>
<text text-anchor="start" x="664.9" y="-614.88" font-family="Roboto, sans-serif" font-weight="bold" font-size="14.00">NEIN</text>
</g>
<!-- 5 -->
<g id="node10" class="node">
<title>5</title>
<path fill="#c2cee9" stroke="black" stroke-width="0" d="M1196.67,-582.29C1196.67,-582.29 657.12,-582.29 657.12,-582.29 651.12,-582.29 645.12,-576.29 645.12,-570.29 645.12,-570.29 645.12,-558.29 645.12,-558.29 645.12,-552.29 651.12,-546.29 657.12,-546.29 657.12,-546.29 1196.67,-546.29 1196.67,-546.29 1202.67,-546.29 1208.67,-552.29 1208.67,-558.29 1208.67,-558.29 1208.67,-570.29 1208.67,-570.29 1208.67,-576.29 1202.67,-582.29 1196.67,-582.29"/>
<text text-anchor="start" x="659.52" y="-560.62" font-family="Roboto, sans-serif" font-weight="bold" font-size="14.00">5: </text>
<text text-anchor="start" x="679.02" y="-560.62" font-family="Roboto, sans-serif" font-size="14.00">Ist die gew&#252;nschte Prognosegrundlage auf Basis von Profilen angegeben?</text>
</g>
<!-- 4&#45;&gt;5 -->
<g id="edge9" class="edge">
<title>4-&gt;5</title>
<path fill="none" stroke="#88a0d6" d="M840.28,-656.39C858.13,-637.61 884.1,-610.31 902.94,-590.49"/>
<polygon fill="#88a0d6" stroke="#88a0d6" points="905.39,-592.99 909.74,-583.33 900.32,-588.17 905.39,-592.99"/>
<text text-anchor="start" x="882.9" y="-614.88" font-family="Roboto, sans-serif" font-weight="bold" font-size="14.00">JA</text>
</g>
<!-- 6 -->
<g id="node11" class="node">
<title>6</title>
<path fill="#c2cee9" stroke="black" stroke-width="0" d="M922.8,-483.4C922.8,-483.4 351,-483.4 351,-483.4 345,-483.4 339,-477.4 339,-471.4 339,-471.4 339,-450.12 339,-450.12 339,-444.12 345,-438.12 351,-438.12 351,-438.12 922.8,-438.12 922.8,-438.12 928.8,-438.12 934.8,-444.12 934.8,-450.12 934.8,-450.12 934.8,-471.4 934.8,-471.4 934.8,-477.4 928.8,-483.4 922.8,-483.4"/>
<text text-anchor="start" x="353.4" y="-462.46" font-family="Roboto, sans-serif" font-weight="bold" font-size="14.00">6: </text>
<text text-anchor="start" x="372.9" y="-462.46" font-family="Roboto, sans-serif" font-size="14.00">Befindet sich die Marktlokation in einem Lokationsb&#252;ndel in welchem ebenfalls</text>
<text text-anchor="start" x="353.4" y="-448.46" font-family="Roboto, sans-serif" font-size="14.00">eine erzeugende Marktlokation vorhanden ist?</text>
</g>
<!-- 5&#45;&gt;6 -->
<g id="edge10" class="edge">
<title>5-&gt;6</title>
<path fill="none" stroke="#88a0d6" d="M878.36,-546.3C832.13,-530.11 761.94,-505.54 709.14,-487.05"/>
<polygon fill="#88a0d6" stroke="#88a0d6" points="710.51,-483.82 699.91,-483.82 708.2,-490.43 710.51,-483.82"/>
<text text-anchor="start" x="798.9" y="-506.35" font-family="Roboto, sans-serif" font-weight="bold" font-size="14.00">JA</text>
</g>
<!-- 8 -->
<g id="node14" class="node">
<title>8</title>
<path fill="#c2cee9" stroke="black" stroke-width="0" d="M1259.3,-267.34C1259.3,-267.34 666.5,-267.34 666.5,-267.34 660.5,-267.34 654.5,-261.34 654.5,-255.34 654.5,-255.34 654.5,-234.06 654.5,-234.06 654.5,-228.06 660.5,-222.06 666.5,-222.06 666.5,-222.06 1259.3,-222.06 1259.3,-222.06 1265.3,-222.06 1271.3,-228.06 1271.3,-234.06 1271.3,-234.06 1271.3,-255.34 1271.3,-255.34 1271.3,-261.34 1265.3,-267.34 1259.3,-267.34"/>
<text text-anchor="start" x="668.9" y="-246.4" font-family="Roboto, sans-serif" font-weight="bold" font-size="14.00">8: </text>
<text text-anchor="start" x="688.4" y="-246.4" font-family="Roboto, sans-serif" font-size="14.00">Besteht f&#252;r die Marktlokation ein Wahlrecht zur &#196;nderung der Prognosegrundlage</text>
<text text-anchor="start" x="668.9" y="-232.4" font-family="Roboto, sans-serif" font-size="14.00">durch den LF?</text>
</g>
<!-- 5&#45;&gt;8 -->
<g id="edge11" class="edge">
<title>5-&gt;8</title>
<path fill="none" stroke="#88a0d6" d="M931,-546.55C934.82,-530.46 940.43,-505.39 943.9,-483.4 956.67,-402.44 945.01,-379.95 962.9,-299.96"/>
<text text-anchor="start" x="950.9" y="-407.82" font-family="Roboto, sans-serif" font-weight="bold" font-size="14.00">NEIN</text>
</g>
<!-- 7 -->
<g id="node12" class="node">
<title>7</title>
<path fill="#c2cee9" stroke="black" stroke-width="0" d="M848.3,-384.87C848.3,-384.87 309.5,-384.87 309.5,-384.87 303.5,-384.87 297.5,-378.87 297.5,-372.87 297.5,-372.87 297.5,-337.59 297.5,-337.59 297.5,-331.59 303.5,-325.59 309.5,-325.59 309.5,-325.59 848.3,-325.59 848.3,-325.59 854.3,-325.59 860.3,-331.59 860.3,-337.59 860.3,-337.59 860.3,-372.87 860.3,-372.87 860.3,-378.87 854.3,-384.87 848.3,-384.87"/>
<text text-anchor="start" x="311.9" y="-363.93" font-family="Roboto, sans-serif" font-weight="bold" font-size="14.00">7: </text>
<text text-anchor="start" x="331.4" y="-363.93" font-family="Roboto, sans-serif" font-size="14.00">Entspricht die erzeugte Energiemenge der Marktlokation der gemessenen</text>
<text text-anchor="start" x="311.9" y="-349.93" font-family="Roboto, sans-serif" font-size="14.00">Energiemenge in der Flussrichtung Erzeugung an der Messlokation der</text>
<text text-anchor="start" x="311.9" y="-335.93" font-family="Roboto, sans-serif" font-size="14.00">Netz&#252;bergabe?</text>
</g>
<!-- 6&#45;&gt;7 -->
<g id="edge12" class="edge">
<title>6-&gt;7</title>
<path fill="none" stroke="#88a0d6" d="M624.88,-438.31C617.82,-425.7 608.68,-409.39 600.41,-394.63"/>
<polygon fill="#88a0d6" stroke="#88a0d6" points="603.55,-393.06 595.6,-386.05 597.44,-396.48 603.55,-393.06"/>
<text text-anchor="start" x="612.9" y="-407.82" font-family="Roboto, sans-serif" font-weight="bold" font-size="14.00">JA</text>
</g>
<!-- 6&#45;&gt;8 -->
<g id="edge13" class="edge">
<title>6-&gt;8</title>
<path fill="none" stroke="#88a0d6" d="M753.1,-438.17C792.52,-426.89 835.1,-409.98 868.9,-384.87 894.61,-365.77 885.57,-346.42 909.9,-325.59 929.78,-308.57 955.96,-325.19 962.9,-299.96"/>
<path fill="none" stroke="#88a0d6" d="M962.9,-297.96C964.29,-291.77 964.91,-285.05 965.1,-278.56"/>
<polygon fill="#88a0d6" stroke="#88a0d6" points="968.6,-278.78 965.02,-268.81 961.6,-278.83 968.6,-278.78"/>
<text text-anchor="start" x="909.9" y="-351.55" font-family="Roboto, sans-serif" font-weight="bold" font-size="14.00">NEIN</text>
</g>
<!-- A05 -->
<g id="node13" class="node">
<title>A05</title>
<path fill="#c4cac1" stroke="black" stroke-width="0" d="M624.05,-272.34C624.05,-272.34 149.75,-272.34 149.75,-272.34 143.75,-272.34 137.75,-266.34 137.75,-260.34 137.75,-260.34 137.75,-229.06 137.75,-229.06 137.75,-223.06 143.75,-217.06 149.75,-217.06 149.75,-217.06 624.05,-217.06 624.05,-217.06 630.05,-217.06 636.05,-223.06 636.05,-229.06 636.05,-229.06 636.05,-260.34 636.05,-260.34 636.05,-266.34 630.05,-272.34 624.05,-272.34"/>
<text text-anchor="start" x="152.15" y="-251.4" font-family="Roboto, sans-serif" font-weight="bold" font-size="14.00">A05</text>
<text text-anchor="start" x="152.15" y="-239.3" font-family="Roboto, sans-serif" text-decoration="underline" font-size="12.00">Hinweis:</text>
<text text-anchor="start" x="152.15" y="-227.3" font-family="Roboto, sans-serif" font-size="12.00">Keine Volleinspeisung, keine Prognosegrundlage auf Basis von Profilen m&#246;glich</text>
</g>
<!-- 7&#45;&gt;A05 -->
<g id="edge14" class="edge">
<title>7-&gt;A05</title>
<path fill="none" stroke="#88a0d6" d="M528.45,-325.72C502.33,-310.95 470.35,-292.87 443.4,-277.64"/>
<polygon fill="#88a0d6" stroke="#88a0d6" points="445.46,-274.78 435.03,-272.91 442.02,-280.88 445.46,-274.78"/>
<text text-anchor="start" x="493.9" y="-295.29" font-family="Roboto, sans-serif" font-weight="bold" font-size="14.00">NEIN</text>
</g>
<!-- 7&#45;&gt;8 -->
<g id="edge15" class="edge">
<title>7-&gt;8</title>
<path fill="none" stroke="#88a0d6" d="M680.04,-325.64C740.79,-308.48 817.31,-286.85 875.44,-270.42"/>
<polygon fill="#88a0d6" stroke="#88a0d6" points="876.31,-273.81 884.98,-267.72 874.41,-267.07 876.31,-273.81"/>
<text text-anchor="start" x="792.9" y="-295.29" font-family="Roboto, sans-serif" font-weight="bold" font-size="14.00">JA</text>
</g>
<!-- A06 -->
<g id="node15" class="node">
<title>A06</title>
<path fill="#c4cac1" stroke="black" stroke-width="0" d="M718.67,-163.81C718.67,-163.81 353.12,-163.81 353.12,-163.81 347.12,-163.81 341.12,-157.81 341.12,-151.81 341.12,-151.81 341.12,-120.53 341.12,-120.53 341.12,-114.53 347.12,-108.53 353.12,-108.53 353.12,-108.53 718.67,-108.53 718.67,-108.53 724.67,-108.53 730.67,-114.53 730.67,-120.53 730.67,-120.53 730.67,-151.81 730.67,-151.81 730.67,-157.81 724.67,-163.81 718.67,-163.81"/>
<text text-anchor="start" x="355.52" y="-142.87" font-family="Roboto, sans-serif" font-weight="bold" font-size="14.00">A06</text>
<text text-anchor="start" x="355.52" y="-130.77" font-family="Roboto, sans-serif" text-decoration="underline" font-size="12.00">Hinweis:</text>
<text text-anchor="start" x="355.52" y="-118.77" font-family="Roboto, sans-serif" font-size="12.00">Kein Wahlrecht der Prognosegrundlage f&#252;r die Marktlokation</text>
</g>
<!-- 8&#45;&gt;A06 -->
<g id="edge16" class="edge">
<title>8-&gt;A06</title>
<path fill="none" stroke="#88a0d6" d="M876.23,-222.08C812.14,-206.09 724.12,-184.13 653.65,-166.55"/>
<polygon fill="#88a0d6" stroke="#88a0d6" points="654.52,-163.16 643.97,-164.13 652.82,-169.95 654.52,-163.16"/>
<text text-anchor="start" x="774.9" y="-186.76" font-family="Roboto, sans-serif" font-weight="bold" font-size="14.00">NEIN</text>
</g>
<!-- 9 -->
<g id="node16" class="node">
<title>9</title>
<path fill="#c2cee9" stroke="black" stroke-width="0" d="M1375.18,-154.17C1375.18,-154.17 760.63,-154.17 760.63,-154.17 754.63,-154.17 748.63,-148.17 748.63,-142.17 748.63,-142.17 748.63,-130.17 748.63,-130.17 748.63,-124.17 754.63,-118.17 760.63,-118.17 760.63,-118.17 1375.18,-118.17 1375.18,-118.17 1381.18,-118.17 1387.18,-124.17 1387.18,-130.17 1387.18,-130.17 1387.18,-142.17 1387.18,-142.17 1387.18,-148.17 1381.18,-154.17 1375.18,-154.17"/>
<text text-anchor="start" x="763.03" y="-132.5" font-family="Roboto, sans-serif" font-weight="bold" font-size="14.00">9: </text>
<text text-anchor="start" x="782.53" y="-132.5" font-family="Roboto, sans-serif" font-size="14.00">Ist die gew&#252;nschte Prognosegrundlage zum gew&#252;nschten Termin bereits umgesetzt?</text>
</g>
<!-- 8&#45;&gt;9 -->
<g id="edge17" class="edge">
<title>8-&gt;9</title>
<path fill="none" stroke="#88a0d6" d="M984.15,-222.14C1001.3,-204.74 1025.44,-180.25 1043.4,-162.03"/>
<polygon fill="#88a0d6" stroke="#88a0d6" points="1045.58,-164.8 1050.11,-155.22 1040.6,-159.89 1045.58,-164.8"/>
<text text-anchor="start" x="1020.9" y="-186.76" font-family="Roboto, sans-serif" font-weight="bold" font-size="14.00">JA</text>
</g>
<!-- A07 -->
<g id="node17" class="node">
<title>A07</title>
<path fill="#c4cac1" stroke="black" stroke-width="0" d="M911.92,-55.28C911.92,-55.28 577.88,-55.28 577.88,-55.28 571.88,-55.28 565.88,-49.28 565.88,-43.28 565.88,-43.28 565.88,-12 565.88,-12 565.88,-6 571.88,0 577.88,0 577.88,0 911.92,0 911.92,0 917.92,0 923.92,-6 923.92,-12 923.92,-12 923.92,-43.28 923.92,-43.28 923.92,-49.28 917.92,-55.28 911.92,-55.28"/>
<text text-anchor="start" x="580.27" y="-34.34" font-family="Roboto, sans-serif" font-weight="bold" font-size="14.00">A07</text>
<text text-anchor="start" x="580.27" y="-22.24" font-family="Roboto, sans-serif" text-decoration="underline" font-size="12.00">Hinweis:</text>
<text text-anchor="start" x="580.27" y="-10.24" font-family="Roboto, sans-serif" font-size="12.00">&#196;nderung zum gew&#252;nschten Termin bereits umgesetzt.</text>
</g>
<!-- 9&#45;&gt;A07 -->
<g id="edge18" class="edge">
<title>9-&gt;A07</title>
<path fill="none" stroke="#88a0d6" d="M1016.36,-118.17C967.99,-102.22 894.55,-78 836.25,-58.77"/>
<polygon fill="#88a0d6" stroke="#88a0d6" points="837.58,-55.52 826.99,-55.71 835.39,-62.17 837.58,-55.52"/>
<text text-anchor="start" x="924.9" y="-78.23" font-family="Roboto, sans-serif" font-weight="bold" font-size="14.00">JA</text>
</g>
<!-- A08 -->
<g id="node18" class="node">
<title>A08</title>
<path fill="#c4cac1" stroke="black" stroke-width="0" d="M1333.43,-55.28C1333.43,-55.28 954.38,-55.28 954.38,-55.28 948.38,-55.28 942.38,-49.28 942.38,-43.28 942.38,-43.28 942.38,-12 942.38,-12 942.38,-6 948.38,0 954.38,0 954.38,0 1333.43,0 1333.43,0 1339.43,0 1345.43,-6 1345.43,-12 1345.43,-12 1345.43,-43.28 1345.43,-43.28 1345.43,-49.28 1339.43,-55.28 1333.43,-55.28"/>
<text text-anchor="start" x="956.78" y="-34.34" font-family="Roboto, sans-serif" font-weight="bold" font-size="14.00">A08</text>
<text text-anchor="start" x="956.78" y="-22.24" font-family="Roboto, sans-serif" text-decoration="underline" font-size="12.00">Hinweis:</text>
<text text-anchor="start" x="956.78" y="-10.24" font-family="Roboto, sans-serif" font-size="12.00">Bestellung an den MSB am Objekt Marktlokation weitergeleitet</text>
</g>
<!-- 9&#45;&gt;A08 -->
<g id="edge19" class="edge">
<title>9-&gt;A08</title>
<path fill="none" stroke="#88a0d6" d="M1079.78,-118.52C1090.08,-104.07 1105.37,-82.65 1118.43,-64.35"/>
<polygon fill="#88a0d6" stroke="#88a0d6" points="1121.18,-66.52 1124.14,-56.34 1115.48,-62.45 1121.18,-66.52"/>
<text text-anchor="start" x="1109.9" y="-78.23" font-family="Roboto, sans-serif" font-weight="bold" font-size="14.00">NEIN</text>
</g>
</g>
</svg>
  </g>
</svg>
  </g>
</svg>
