<?xml version='1.0' encoding='ASCII' standalone='yes'?>
<svg xmlns="http://www.w3.org/2000/svg" xmlns:xlink="http://www.w3.org/1999/xlink" version="1.1" width="1836.0px" viewBox="0 0 1836.0 1700.0" height="1700.0px">
  <g>
    <svg version="1.1" width="1836.0px" viewBox="0 0 1836.0 1700.0" height="1700.0px">
  <polygon fill="#f3f1f6" points="0,0 1836.0,0 1836.0,1700.0 0,1700.0"/><g>
    <g transform="translate(224.7389467755561, 169.99999999999997) scale(1 1) translate(0, 0) scale(2.3936919177696425 2.3936919177696425) "><!-- note that I manually added the width and height attribute to the root node
  https://chatgpt.com/share/678e3028-70cc-800b-a296-782714735772
  -->
  <defs>
    <style>.cls-1{fill:#fff;}</style>
  </defs>
  <path class="cls-1" d="M122.44,531.2h-56.1c-11,0-19.9-9.12-19.46-20.11C57.47,243.89,278.15,29.78,547.91,29.78v56.02c0,10.98-8.69,19.89-19.66,20.39-225.51,10.31-405.8,197-405.8,425Z"/>
  <path class="cls-1" d="M273.78,531.2h-55.93c-11.23,0-20.09-9.48-19.43-20.69,10.74-183.44,163.39-329.39,349.48-329.39v56.26c0,10.71-8.27,19.62-18.96,20.35-142.35,9.77-255.17,128.69-255.17,273.46Z"/>
  <path class="cls-1" d="M425.77,531.2h-55.45c-11.65,0-20.6-10.17-19.33-21.75,10.87-99.03,95.03-176.34,196.92-176.34v57.01c0,10.05-7.28,18.75-17.23,20.16-59.22,8.4-104.91,59.42-104.91,120.92Z"/>
</g>
    <svg width="1377pt" height="1275pt" viewBox="0.00 0.00 1377.14 1274.97">
<g id="graph0" class="graph" transform="scale(1 1) rotate(0) translate(4 1270.97)">
<title>D</title>
<text text-anchor="start" x="383.07" y="-1246.87" font-family="Times,serif" font-weight="bold" font-size="18.00">GPKE</text>
<text text-anchor="start" x="383.07" y="-1216.77" font-family="Times,serif" font-weight="bold" font-size="16.00">6.32.1: AD: Bestellung &#196;nderung Z&#228;hlzeitdefinition des NB vom LF</text>
<!-- Start -->
<g id="node1" class="node">
<title>Start</title>
<path fill="#7a8da1" stroke="black" stroke-width="0" d="M415.39,-1168.97C415.39,-1168.97 279.34,-1168.97 279.34,-1168.97 273.34,-1168.97 267.34,-1162.97 267.34,-1156.97 267.34,-1156.97 267.34,-1137.69 267.34,-1137.69 267.34,-1131.69 273.34,-1125.69 279.34,-1125.69 279.34,-1125.69 415.39,-1125.69 415.39,-1125.69 421.39,-1125.69 427.39,-1131.69 427.39,-1137.69 427.39,-1137.69 427.39,-1156.97 427.39,-1156.97 427.39,-1162.97 421.39,-1168.97 415.39,-1168.97"/>
<text text-anchor="start" x="319.24" y="-1148.03" font-family="Times,serif" font-weight="bold" font-size="14.00">E_0483</text>
<text text-anchor="start" x="281.74" y="-1135.93" font-family="Times,serif" font-weight="bold" text-decoration="underline" font-size="12.00">Pr&#252;fende Rolle:</text>
<text text-anchor="start" x="386.74" y="-1135.93" font-family="Times,serif" font-weight="bold" font-size="12.00"> NB</text>
</g>
<!-- 1 -->
<g id="node2" class="node">
<title>1</title>
<path fill="#7aab8a" stroke="black" stroke-width="0" d="M637.39,-1088.69C637.39,-1088.69 57.34,-1088.69 57.34,-1088.69 51.34,-1088.69 45.34,-1082.69 45.34,-1076.69 45.34,-1076.69 45.34,-1064.69 45.34,-1064.69 45.34,-1058.69 51.34,-1052.69 57.34,-1052.69 57.34,-1052.69 637.39,-1052.69 637.39,-1052.69 643.39,-1052.69 649.39,-1058.69 649.39,-1064.69 649.39,-1064.69 649.39,-1076.69 649.39,-1076.69 649.39,-1082.69 643.39,-1088.69 637.39,-1088.69"/>
<text text-anchor="start" x="59.74" y="-1067.02" font-family="Times,serif" font-weight="bold" font-size="14.00">1: </text>
<text text-anchor="start" x="79.24" y="-1067.02" font-family="Times,serif" font-size="14.00">Handelt es sich bei der Marktlokation um eine verbrauchende Marktlokation?</text>
</g>
<!-- Start&#45;&gt;1 -->
<g id="edge1" class="edge">
<title>Start-&gt;1</title>
<path fill="none" stroke="black" d="M347.37,-1125.93C347.37,-1117.86 347.37,-1108.45 347.37,-1099.76"/>
<polygon fill="black" stroke="black" points="350.87,-1100.05 347.37,-1090.05 343.87,-1100.05 350.87,-1100.05"/>
</g>
<!-- A07 -->
<g id="node3" class="node">
<title>A07</title>
<path fill="#cfb986" stroke="black" stroke-width="0" d="M457.36,-999.44C457.36,-999.44 53.38,-999.44 53.38,-999.44 47.38,-999.44 41.38,-993.44 41.38,-987.44 41.38,-987.44 41.38,-949.92 41.38,-949.92 41.38,-943.92 47.38,-937.92 53.38,-937.92 53.38,-937.92 457.36,-937.92 457.36,-937.92 463.36,-937.92 469.36,-943.92 469.36,-949.92 469.36,-949.92 469.36,-987.44 469.36,-987.44 469.36,-993.44 463.36,-999.44 457.36,-999.44"/>
<text text-anchor="start" x="53.62" y="-981.38" font-family="Times,serif" font-weight="bold" font-size="14.00">A07</text>
<text text-anchor="start" x="53.62" y="-969.28" font-family="Times,serif" text-decoration="underline" font-size="12.00">Hinweis:</text>
<text text-anchor="start" x="53.62" y="-957.28" font-family="Times,serif" font-size="12.00">Cluster: Ablehnung</text>
<text text-anchor="start" x="53.62" y="-945.28" font-family="Times,serif" font-size="12.00">Bestellungen sind nur f&#252;r verbrauchende Marktlokationen m&#246;glich</text>
</g>
<!-- 1&#45;&gt;A07 -->
<g id="edge2" class="edge">
<title>1-&gt;A07</title>
<path fill="none" stroke="#7aab8a" d="M331.76,-1052.72C320.43,-1040.41 304.64,-1023.24 290.35,-1007.72"/>
<polygon fill="#7aab8a" stroke="#7aab8a" points="292.98,-1005.4 283.64,-1000.41 287.83,-1010.14 292.98,-1005.4"/>
<text text-anchor="start" x="314.37" y="-1022.39" font-family="Times,serif" font-weight="bold" font-size="14.00">NEIN</text>
</g>
<!-- 2 -->
<g id="node4" class="node">
<title>2</title>
<path fill="#7aab8a" stroke="black" stroke-width="0" d="M1065.26,-986.68C1065.26,-986.68 499.47,-986.68 499.47,-986.68 493.47,-986.68 487.47,-980.68 487.47,-974.68 487.47,-974.68 487.47,-962.68 487.47,-962.68 487.47,-956.68 493.47,-950.68 499.47,-950.68 499.47,-950.68 1065.26,-950.68 1065.26,-950.68 1071.26,-950.68 1077.26,-956.68 1077.26,-962.68 1077.26,-962.68 1077.26,-974.68 1077.26,-974.68 1077.26,-980.68 1071.26,-986.68 1065.26,-986.68"/>
<text text-anchor="start" x="501.87" y="-965" font-family="Times,serif" font-weight="bold" font-size="14.00">2: </text>
<text text-anchor="start" x="521.37" y="-965" font-family="Times,serif" font-size="14.00">Handelt es sich bei der Bestellung um eine R&#252;ckkehr auf eine Eintariflogik?</text>
</g>
<!-- 1&#45;&gt;2 -->
<g id="edge3" class="edge">
<title>1-&gt;2</title>
<path fill="none" stroke="#7aab8a" d="M421.16,-1052.72C497.67,-1035.13 617.13,-1007.67 697.5,-989.19"/>
<polygon fill="#7aab8a" stroke="#7aab8a" points="698.14,-992.64 707.1,-986.98 696.57,-985.81 698.14,-992.64"/>
<text text-anchor="start" x="564.37" y="-1022.39" font-family="Times,serif" font-weight="bold" font-size="14.00">JA</text>
</g>
<!-- 3 -->
<g id="node5" class="node">
<title>3</title>
<path fill="#7aab8a" stroke="black" stroke-width="0" d="M974.01,-884.67C974.01,-884.67 364.72,-884.67 364.72,-884.67 358.72,-884.67 352.72,-878.67 352.72,-872.67 352.72,-872.67 352.72,-851.39 352.72,-851.39 352.72,-845.39 358.72,-839.39 364.72,-839.39 364.72,-839.39 974.01,-839.39 974.01,-839.39 980.01,-839.39 986.01,-845.39 986.01,-851.39 986.01,-851.39 986.01,-872.67 986.01,-872.67 986.01,-878.67 980.01,-884.67 974.01,-884.67"/>
<text text-anchor="start" x="367.12" y="-863.73" font-family="Times,serif" font-weight="bold" font-size="14.00">3: </text>
<text text-anchor="start" x="386.62" y="-863.73" font-family="Times,serif" font-size="14.00">Ist die gew&#252;nschte Z&#228;hlzeit zum Anwendungszeitpunkt Bestandteil der &#220;bersicht</text>
<text text-anchor="start" x="367.12" y="-849.73" font-family="Times,serif" font-size="14.00">der Z&#228;hlzeitdefinition, welche zuvor vom NB &#252;bermittelt wurde?</text>
</g>
<!-- 2&#45;&gt;3 -->
<g id="edge5" class="edge">
<title>2-&gt;3</title>
<path fill="none" stroke="#7aab8a" d="M764.21,-950.87C747.18,-935.09 721.34,-911.17 700.94,-892.27"/>
<polygon fill="#7aab8a" stroke="#7aab8a" points="703.39,-889.77 693.68,-885.54 698.63,-894.91 703.39,-889.77"/>
<text text-anchor="start" x="728.37" y="-907.62" font-family="Times,serif" font-weight="bold" font-size="14.00">NEIN</text>
</g>
<!-- 6 -->
<g id="node11" class="node">
<title>6</title>
<path fill="#7aab8a" stroke="black" stroke-width="0" d="M1194.27,-543.84C1194.27,-543.84 850.47,-543.84 850.47,-543.84 844.47,-543.84 838.47,-537.84 838.47,-531.84 838.47,-531.84 838.47,-519.84 838.47,-519.84 838.47,-513.84 844.47,-507.84 850.47,-507.84 850.47,-507.84 1194.27,-507.84 1194.27,-507.84 1200.27,-507.84 1206.27,-513.84 1206.27,-519.84 1206.27,-519.84 1206.27,-531.84 1206.27,-531.84 1206.27,-537.84 1200.27,-543.84 1194.27,-543.84"/>
<text text-anchor="start" x="852.87" y="-522.17" font-family="Times,serif" font-weight="bold" font-size="14.00">6: </text>
<text text-anchor="start" x="872.37" y="-522.17" font-family="Times,serif" font-size="14.00">Ist der bestellte Zustand bereits vorhanden?</text>
</g>
<!-- 2&#45;&gt;6 -->
<g id="edge4" class="edge">
<title>2-&gt;6</title>
<path fill="none" stroke="#7aab8a" d="M936.06,-950.7C982.95,-936.31 1022.37,-910.19 1022.37,-863.03 1022.37,-863.03 1022.37,-863.03 1022.37,-639.61 1022.37,-610.73 1022.37,-577.7 1022.37,-554.88"/>
<polygon fill="#7aab8a" stroke="#7aab8a" points="1025.87,-555.17 1022.37,-545.17 1018.87,-555.17 1025.87,-555.17"/>
<text text-anchor="start" x="1022.37" y="-751.71" font-family="Times,serif" font-weight="bold" font-size="14.00">JA</text>
</g>
<!-- A01 -->
<g id="node6" class="node">
<title>A01</title>
<path fill="#cfb986" stroke="black" stroke-width="0" d="M368.73,-786.14C368.73,-786.14 12,-786.14 12,-786.14 6,-786.14 0,-780.14 0,-774.14 0,-774.14 0,-736.62 0,-736.62 0,-730.62 6,-724.62 12,-724.62 12,-724.62 368.73,-724.62 368.73,-724.62 374.73,-724.62 380.73,-730.62 380.73,-736.62 380.73,-736.62 380.73,-774.14 380.73,-774.14 380.73,-780.14 374.73,-786.14 368.73,-786.14"/>
<text text-anchor="start" x="12.24" y="-768.08" font-family="Times,serif" font-weight="bold" font-size="14.00">A01</text>
<text text-anchor="start" x="12.24" y="-755.98" font-family="Times,serif" text-decoration="underline" font-size="12.00">Hinweis:</text>
<text text-anchor="start" x="12.24" y="-743.98" font-family="Times,serif" font-size="12.00">Cluster: Ablehnung </text>
<text text-anchor="start" x="12.24" y="-731.98" font-family="Times,serif" font-size="12.00">Z&#228;hlzeitdefinition zum Anwendungszeitpunkt nicht bekannt</text>
</g>
<!-- 3&#45;&gt;A01 -->
<g id="edge6" class="edge">
<title>3-&gt;A01</title>
<path fill="none" stroke="#7aab8a" d="M570.41,-839.41C503.17,-824.72 413.07,-805.04 337.47,-788.52"/>
<polygon fill="#7aab8a" stroke="#7aab8a" points="338.42,-785.14 327.91,-786.43 336.93,-791.98 338.42,-785.14"/>
<text text-anchor="start" x="486.37" y="-809.09" font-family="Times,serif" font-weight="bold" font-size="14.00">NEIN</text>
</g>
<!-- 4 -->
<g id="node7" class="node">
<title>4</title>
<path fill="#7aab8a" stroke="black" stroke-width="0" d="M927.51,-778.02C927.51,-778.02 411.22,-778.02 411.22,-778.02 405.22,-778.02 399.22,-772.02 399.22,-766.02 399.22,-766.02 399.22,-744.74 399.22,-744.74 399.22,-738.74 405.22,-732.74 411.22,-732.74 411.22,-732.74 927.51,-732.74 927.51,-732.74 933.51,-732.74 939.51,-738.74 939.51,-744.74 939.51,-744.74 939.51,-766.02 939.51,-766.02 939.51,-772.02 933.51,-778.02 927.51,-778.02"/>
<text text-anchor="start" x="413.62" y="-757.08" font-family="Times,serif" font-weight="bold" font-size="14.00">4: </text>
<text text-anchor="start" x="433.12" y="-757.08" font-family="Times,serif" font-size="14.00">Ist die in der Bestellung genannte Z&#228;hlzeit in der &#220;bersicht der</text>
<text text-anchor="start" x="413.62" y="-743.08" font-family="Times,serif" font-size="14.00">Z&#228;hlzeitdefinition des NB als eine bestellbare Z&#228;hlzeit gekennzeichnet?</text>
</g>
<!-- 3&#45;&gt;4 -->
<g id="edge7" class="edge">
<title>3-&gt;4</title>
<path fill="none" stroke="#7aab8a" d="M669.37,-839.6C669.37,-825.07 669.37,-805.58 669.37,-789.12"/>
<polygon fill="#7aab8a" stroke="#7aab8a" points="672.87,-789.29 669.37,-779.29 665.87,-789.29 672.87,-789.29"/>
<text text-anchor="start" x="669.37" y="-809.09" font-family="Times,serif" font-weight="bold" font-size="14.00">JA</text>
</g>
<!-- A06 -->
<g id="node8" class="node">
<title>A06</title>
<path fill="#cfb986" stroke="black" stroke-width="0" d="M314.73,-671.37C314.73,-671.37 150,-671.37 150,-671.37 144,-671.37 138,-665.37 138,-659.37 138,-659.37 138,-621.85 138,-621.85 138,-615.85 144,-609.85 150,-609.85 150,-609.85 314.73,-609.85 314.73,-609.85 320.73,-609.85 326.73,-615.85 326.73,-621.85 326.73,-621.85 326.73,-659.37 326.73,-659.37 326.73,-665.37 320.73,-671.37 314.73,-671.37"/>
<text text-anchor="start" x="150.24" y="-653.31" font-family="Times,serif" font-weight="bold" font-size="14.00">A06</text>
<text text-anchor="start" x="150.24" y="-641.21" font-family="Times,serif" text-decoration="underline" font-size="12.00">Hinweis:</text>
<text text-anchor="start" x="150.24" y="-629.21" font-family="Times,serif" font-size="12.00">Cluster: Ablehnung </text>
<text text-anchor="start" x="150.24" y="-617.21" font-family="Times,serif" font-size="12.00">Z&#228;hlzeit ist nicht bestallbar</text>
</g>
<!-- 4&#45;&gt;A06 -->
<g id="edge8" class="edge">
<title>4-&gt;A06</title>
<path fill="none" stroke="#7aab8a" d="M578.4,-732.75C513.8,-717.16 424.77,-695.22 337.53,-671.92"/>
<polygon fill="#7aab8a" stroke="#7aab8a" points="338.65,-668.6 328.09,-669.39 336.84,-675.36 338.65,-668.6"/>
<text text-anchor="start" x="463.37" y="-694.32" font-family="Times,serif" font-weight="bold" font-size="14.00">NEIN</text>
</g>
<!-- 5 -->
<g id="node9" class="node">
<title>5</title>
<path fill="#7aab8a" stroke="black" stroke-width="0" d="M981.89,-658.61C981.89,-658.61 356.84,-658.61 356.84,-658.61 350.84,-658.61 344.84,-652.61 344.84,-646.61 344.84,-646.61 344.84,-634.61 344.84,-634.61 344.84,-628.61 350.84,-622.61 356.84,-622.61 356.84,-622.61 981.89,-622.61 981.89,-622.61 987.89,-622.61 993.89,-628.61 993.89,-634.61 993.89,-634.61 993.89,-646.61 993.89,-646.61 993.89,-652.61 987.89,-658.61 981.89,-658.61"/>
<text text-anchor="start" x="359.24" y="-636.94" font-family="Times,serif" font-weight="bold" font-size="14.00">5: </text>
<text text-anchor="start" x="378.74" y="-636.94" font-family="Times,serif" font-size="14.00">Liegt zum Anwendungszeitpunkt die ausgerollte Z&#228;hlzeit zur Z&#228;hlzeitdefinition vor?</text>
</g>
<!-- 4&#45;&gt;5 -->
<g id="edge9" class="edge">
<title>4-&gt;5</title>
<path fill="none" stroke="#7aab8a" d="M669.37,-732.9C669.37,-715.02 669.37,-689.4 669.37,-669.85"/>
<polygon fill="#7aab8a" stroke="#7aab8a" points="672.87,-670.1 669.37,-660.1 665.87,-670.1 672.87,-670.1"/>
<text text-anchor="start" x="669.37" y="-694.32" font-family="Times,serif" font-weight="bold" font-size="14.00">JA</text>
</g>
<!-- A02 -->
<g id="node10" class="node">
<title>A02</title>
<path fill="#cfb986" stroke="black" stroke-width="0" d="M808.36,-556.6C808.36,-556.6 302.38,-556.6 302.38,-556.6 296.38,-556.6 290.38,-550.6 290.38,-544.6 290.38,-544.6 290.38,-507.08 290.38,-507.08 290.38,-501.08 296.38,-495.08 302.38,-495.08 302.38,-495.08 808.36,-495.08 808.36,-495.08 814.36,-495.08 820.36,-501.08 820.36,-507.08 820.36,-507.08 820.36,-544.6 820.36,-544.6 820.36,-550.6 814.36,-556.6 808.36,-556.6"/>
<text text-anchor="start" x="302.62" y="-538.54" font-family="Times,serif" font-weight="bold" font-size="14.00">A02</text>
<text text-anchor="start" x="302.62" y="-526.44" font-family="Times,serif" text-decoration="underline" font-size="12.00">Hinweis:</text>
<text text-anchor="start" x="302.62" y="-514.44" font-family="Times,serif" font-size="12.00">Cluster: Ablehnung</text>
<text text-anchor="start" x="302.62" y="-502.44" font-family="Times,serif" font-size="12.00">Ausgerollte Z&#228;hlzeit zur Z&#228;hlzeitdefinition liegt zum Anwendungszeitpunkt nicht vor</text>
</g>
<!-- 5&#45;&gt;A02 -->
<g id="edge10" class="edge">
<title>5-&gt;A02</title>
<path fill="none" stroke="#7aab8a" d="M652.54,-622.97C636.98,-607.57 613.27,-584.12 593.17,-564.24"/>
<polygon fill="#7aab8a" stroke="#7aab8a" points="595.75,-561.86 586.17,-557.32 590.82,-566.84 595.75,-561.86"/>
<text text-anchor="start" x="618.37" y="-579.55" font-family="Times,serif" font-weight="bold" font-size="14.00">NEIN</text>
</g>
<!-- 5&#45;&gt;6 -->
<g id="edge11" class="edge">
<title>5-&gt;6</title>
<path fill="none" stroke="#7aab8a" d="M722.21,-622.73C785.25,-602.59 890.58,-568.94 958.22,-547.33"/>
<polygon fill="#7aab8a" stroke="#7aab8a" points="959.25,-550.68 967.71,-544.3 957.12,-544.01 959.25,-550.68"/>
<text text-anchor="start" x="866.37" y="-579.55" font-family="Times,serif" font-weight="bold" font-size="14.00">JA</text>
</g>
<!-- A03 -->
<g id="node12" class="node">
<title>A03</title>
<path fill="#cfb986" stroke="black" stroke-width="0" d="M796.36,-441.83C796.36,-441.83 572.38,-441.83 572.38,-441.83 566.38,-441.83 560.38,-435.83 560.38,-429.83 560.38,-429.83 560.38,-392.31 560.38,-392.31 560.38,-386.31 566.38,-380.31 572.38,-380.31 572.38,-380.31 796.36,-380.31 796.36,-380.31 802.36,-380.31 808.36,-386.31 808.36,-392.31 808.36,-392.31 808.36,-429.83 808.36,-429.83 808.36,-435.83 802.36,-441.83 796.36,-441.83"/>
<text text-anchor="start" x="572.62" y="-423.77" font-family="Times,serif" font-weight="bold" font-size="14.00">A03</text>
<text text-anchor="start" x="572.62" y="-411.67" font-family="Times,serif" text-decoration="underline" font-size="12.00">Hinweis:</text>
<text text-anchor="start" x="572.62" y="-399.67" font-family="Times,serif" font-size="12.00">Cluster: Ablehnung </text>
<text text-anchor="start" x="572.62" y="-387.67" font-family="Times,serif" font-size="12.00">Bestellter Zustand bereits vorhanden</text>
</g>
<!-- 6&#45;&gt;A03 -->
<g id="edge12" class="edge">
<title>6-&gt;A03</title>
<path fill="none" stroke="#7aab8a" d="M971.76,-507.96C922.32,-491.46 845.71,-465.9 784.02,-445.32"/>
<polygon fill="#7aab8a" stroke="#7aab8a" points="785.5,-442.12 774.9,-442.28 783.28,-448.76 785.5,-442.12"/>
<text text-anchor="start" x="873.37" y="-464.78" font-family="Times,serif" font-weight="bold" font-size="14.00">JA</text>
</g>
<!-- 7 -->
<g id="node13" class="node">
<title>7</title>
<path fill="#7aab8a" stroke="black" stroke-width="0" d="M1268.77,-429.07C1268.77,-429.07 837.97,-429.07 837.97,-429.07 831.97,-429.07 825.97,-423.07 825.97,-417.07 825.97,-417.07 825.97,-405.07 825.97,-405.07 825.97,-399.07 831.97,-393.07 837.97,-393.07 837.97,-393.07 1268.77,-393.07 1268.77,-393.07 1274.77,-393.07 1280.77,-399.07 1280.77,-405.07 1280.77,-405.07 1280.77,-417.07 1280.77,-417.07 1280.77,-423.07 1274.77,-429.07 1268.77,-429.07"/>
<text text-anchor="start" x="840.37" y="-407.39" font-family="Times,serif" font-weight="bold" font-size="14.00">7: </text>
<text text-anchor="start" x="859.87" y="-407.39" font-family="Times,serif" font-size="14.00">Ist die gew&#252;nschte Konfiguration grunds&#228;tzlich m&#246;glich?</text>
</g>
<!-- 6&#45;&gt;7 -->
<g id="edge13" class="edge">
<title>6-&gt;7</title>
<path fill="none" stroke="#7aab8a" d="M1026.94,-508.2C1031.88,-490.21 1039.85,-461.24 1045.74,-439.8"/>
<polygon fill="#7aab8a" stroke="#7aab8a" points="1049.09,-440.81 1048.37,-430.24 1042.35,-438.95 1049.09,-440.81"/>
<text text-anchor="start" x="1039.37" y="-464.78" font-family="Times,serif" font-weight="bold" font-size="14.00">NEIN</text>
</g>
<!-- A09 -->
<g id="node14" class="node">
<title>A09</title>
<path fill="#cfb986" stroke="black" stroke-width="0" d="M739.48,-327.06C739.48,-327.06 393.25,-327.06 393.25,-327.06 387.25,-327.06 381.25,-321.06 381.25,-315.06 381.25,-315.06 381.25,-265.54 381.25,-265.54 381.25,-259.54 387.25,-253.54 393.25,-253.54 393.25,-253.54 739.48,-253.54 739.48,-253.54 745.48,-253.54 751.48,-259.54 751.48,-265.54 751.48,-265.54 751.48,-315.06 751.48,-315.06 751.48,-321.06 745.48,-327.06 739.48,-327.06"/>
<text text-anchor="start" x="393.49" y="-309" font-family="Times,serif" font-weight="bold" font-size="14.00">A09</text>
<text text-anchor="start" x="393.49" y="-296.9" font-family="Times,serif" text-decoration="underline" font-size="12.00">Hinweis:</text>
<text text-anchor="start" x="393.49" y="-284.9" font-family="Times,serif" font-size="12.00">Cluster: Ablehnung</text>
<text text-anchor="start" x="393.49" y="-272.9" font-family="Times,serif" font-size="12.00">Konfiguration technisch nicht m&#246;glich</text>
<text text-anchor="start" x="393.49" y="-260.9" font-family="Times,serif" font-size="12.00">Hinweis: z.&#160;B. Z&#228;hlzeit bestellt und Eintarifz&#228;hler verbaut</text>
</g>
<!-- 7&#45;&gt;A09 -->
<g id="edge15" class="edge">
<title>7-&gt;A09</title>
<path fill="none" stroke="#7aab8a" d="M983.85,-393.12C916.43,-376.67 811.77,-351.15 724.11,-329.77"/>
<polygon fill="#7aab8a" stroke="#7aab8a" points="724.97,-326.38 714.43,-327.41 723.31,-333.18 724.97,-326.38"/>
<text text-anchor="start" x="853.37" y="-350.01" font-family="Times,serif" font-weight="bold" font-size="14.00">NEIN</text>
</g>
<!-- 8 -->
<g id="node15" class="node">
<title>8</title>
<path fill="#7aab8a" stroke="black" stroke-width="0" d="M1357.14,-312.94C1357.14,-312.94 781.59,-312.94 781.59,-312.94 775.59,-312.94 769.59,-306.94 769.59,-300.94 769.59,-300.94 769.59,-279.66 769.59,-279.66 769.59,-273.66 775.59,-267.66 781.59,-267.66 781.59,-267.66 1357.14,-267.66 1357.14,-267.66 1363.14,-267.66 1369.14,-273.66 1369.14,-279.66 1369.14,-279.66 1369.14,-300.94 1369.14,-300.94 1369.14,-306.94 1363.14,-312.94 1357.14,-312.94"/>
<text text-anchor="start" x="783.99" y="-292" font-family="Times,serif" font-weight="bold" font-size="14.00">8: </text>
<text text-anchor="start" x="803.49" y="-292" font-family="Times,serif" font-size="14.00">Wurde die Vorlauffristen zu der geplanten &#196;nderung der Ger&#228;tekonfiguration</text>
<text text-anchor="start" x="783.99" y="-278" font-family="Times,serif" font-size="14.00">eingehalten?</text>
</g>
<!-- 7&#45;&gt;8 -->
<g id="edge14" class="edge">
<title>7-&gt;8</title>
<path fill="none" stroke="#7aab8a" d="M1055.62,-393.31C1058.03,-375.42 1061.91,-346.63 1064.93,-324.19"/>
<polygon fill="#7aab8a" stroke="#7aab8a" points="1068.4,-324.68 1066.27,-314.31 1061.46,-323.75 1068.4,-324.68"/>
<text text-anchor="start" x="1061.37" y="-350.01" font-family="Times,serif" font-weight="bold" font-size="14.00">JA</text>
</g>
<!-- A08 -->
<g id="node16" class="node">
<title>A08</title>
<path fill="#cfb986" stroke="black" stroke-width="0" d="M899.61,-200.29C899.61,-200.29 779.12,-200.29 779.12,-200.29 773.12,-200.29 767.12,-194.29 767.12,-188.29 767.12,-188.29 767.12,-150.77 767.12,-150.77 767.12,-144.77 773.12,-138.77 779.12,-138.77 779.12,-138.77 899.61,-138.77 899.61,-138.77 905.61,-138.77 911.61,-144.77 911.61,-150.77 911.61,-150.77 911.61,-188.29 911.61,-188.29 911.61,-194.29 905.61,-200.29 899.61,-200.29"/>
<text text-anchor="start" x="779.37" y="-182.23" font-family="Times,serif" font-weight="bold" font-size="14.00">A08</text>
<text text-anchor="start" x="779.37" y="-170.13" font-family="Times,serif" text-decoration="underline" font-size="12.00">Hinweis:</text>
<text text-anchor="start" x="779.37" y="-158.13" font-family="Times,serif" font-size="12.00">Cluster: Ablehnung </text>
<text text-anchor="start" x="779.37" y="-146.13" font-family="Times,serif" font-size="12.00">Frist&#252;berschreitung</text>
</g>
<!-- 8&#45;&gt;A08 -->
<g id="edge17" class="edge">
<title>8-&gt;A08</title>
<path fill="none" stroke="#7aab8a" d="M1027.71,-267.79C993.94,-250.35 945.68,-225.43 906.47,-205.18"/>
<polygon fill="#7aab8a" stroke="#7aab8a" points="908.55,-202.32 898.05,-200.84 905.33,-208.53 908.55,-202.32"/>
<text text-anchor="start" x="960.37" y="-223.24" font-family="Times,serif" font-weight="bold" font-size="14.00">NEIN</text>
</g>
<!-- 9 -->
<g id="node17" class="node">
<title>9</title>
<path fill="#7aab8a" stroke="black" stroke-width="0" d="M1340.64,-187.53C1340.64,-187.53 942.09,-187.53 942.09,-187.53 936.09,-187.53 930.09,-181.53 930.09,-175.53 930.09,-175.53 930.09,-163.53 930.09,-163.53 930.09,-157.53 936.09,-151.53 942.09,-151.53 942.09,-151.53 1340.64,-151.53 1340.64,-151.53 1346.64,-151.53 1352.64,-157.53 1352.64,-163.53 1352.64,-163.53 1352.64,-175.53 1352.64,-175.53 1352.64,-181.53 1346.64,-187.53 1340.64,-187.53"/>
<text text-anchor="start" x="944.49" y="-165.85" font-family="Times,serif" font-weight="bold" font-size="14.00">9: </text>
<text text-anchor="start" x="963.99" y="-165.85" font-family="Times,serif" font-size="14.00">Ist ein zuvor nicht spezifizierter Fehler aufgetreten?</text>
</g>
<!-- 8&#45;&gt;9 -->
<g id="edge16" class="edge">
<title>8-&gt;9</title>
<path fill="none" stroke="#7aab8a" d="M1082.4,-267.79C1094.45,-247.91 1112.39,-218.32 1125.32,-197"/>
<polygon fill="#7aab8a" stroke="#7aab8a" points="1128.24,-198.94 1130.43,-188.57 1122.25,-195.31 1128.24,-198.94"/>
<text text-anchor="start" x="1111.37" y="-223.24" font-family="Times,serif" font-weight="bold" font-size="14.00">JA</text>
</g>
<!-- A99 -->
<g id="node18" class="node">
<title>A99</title>
<path fill="#cfb986" stroke="black" stroke-width="0" d="M929.11,-85.52C929.11,-85.52 445.62,-85.52 445.62,-85.52 439.62,-85.52 433.62,-79.52 433.62,-73.52 433.62,-73.52 433.62,-12 433.62,-12 433.62,-6 439.62,0 445.62,0 445.62,0 929.11,0 929.11,0 935.11,0 941.11,-6 941.11,-12 941.11,-12 941.11,-73.52 941.11,-73.52 941.11,-79.52 935.11,-85.52 929.11,-85.52"/>
<text text-anchor="start" x="445.87" y="-67.46" font-family="Times,serif" font-weight="bold" font-size="14.00">A99</text>
<text text-anchor="start" x="445.87" y="-55.36" font-family="Times,serif" text-decoration="underline" font-size="12.00">Hinweis:</text>
<text text-anchor="start" x="445.87" y="-43.36" font-family="Times,serif" font-size="12.00">Cluster: Ablehnung</text>
<text text-anchor="start" x="445.87" y="-31.36" font-family="Times,serif" font-size="12.00">Sonstiges</text>
<text text-anchor="start" x="445.87" y="-19.36" font-family="Times,serif" font-size="12.00">Hinweis: Das identifizierte Problem ist in der Antwort zu beschreiben/benennen.</text>
<text text-anchor="start" x="445.87" y="-7.36" font-family="Times,serif" font-size="12.00">Nutzungsm&#246;glichkeit Ende: 01.10.2023 00:00 Uhr</text>
</g>
<!-- 9&#45;&gt;A99 -->
<g id="edge18" class="edge">
<title>9-&gt;A99</title>
<path fill="none" stroke="#7aab8a" d="M1079.66,-151.57C1020.73,-135.38 929.33,-110.26 849.57,-88.34"/>
<polygon fill="#7aab8a" stroke="#7aab8a" points="850.93,-85.08 840.36,-85.81 849.08,-91.83 850.93,-85.08"/>
<text text-anchor="start" x="954.37" y="-108.47" font-family="Times,serif" font-weight="bold" font-size="14.00">JA</text>
</g>
<!-- A04 -->
<g id="node19" class="node">
<title>A04</title>
<path fill="#cfb986" stroke="black" stroke-width="0" d="M1343.98,-73.52C1343.98,-73.52 970.75,-73.52 970.75,-73.52 964.75,-73.52 958.75,-67.52 958.75,-61.52 958.75,-61.52 958.75,-24 958.75,-24 958.75,-18 964.75,-12 970.75,-12 970.75,-12 1343.98,-12 1343.98,-12 1349.98,-12 1355.98,-18 1355.98,-24 1355.98,-24 1355.98,-61.52 1355.98,-61.52 1355.98,-67.52 1349.98,-73.52 1343.98,-73.52"/>
<text text-anchor="start" x="970.99" y="-55.46" font-family="Times,serif" font-weight="bold" font-size="14.00">A04</text>
<text text-anchor="start" x="970.99" y="-43.36" font-family="Times,serif" text-decoration="underline" font-size="12.00">Hinweis:</text>
<text text-anchor="start" x="970.99" y="-31.36" font-family="Times,serif" font-size="12.00">Cluster: Zustimmung</text>
<text text-anchor="start" x="970.99" y="-19.36" font-family="Times,serif" font-size="12.00">Bestellung wird an den MSB der Marktlokation weitergeleitet</text>
</g>
<!-- 9&#45;&gt;A04 -->
<g id="edge19" class="edge">
<title>9-&gt;A04</title>
<path fill="none" stroke="#7aab8a" d="M1143.52,-151.7C1145.73,-134.52 1149.23,-107.19 1152.16,-84.33"/>
<polygon fill="#7aab8a" stroke="#7aab8a" points="1155.6,-85.07 1153.4,-74.7 1148.65,-84.18 1155.6,-85.07"/>
<text text-anchor="start" x="1149.37" y="-108.47" font-family="Times,serif" font-weight="bold" font-size="14.00">NEIN</text>
</g>
</g>
</svg>
  </g>
</svg>
  </g>
</svg>
