<?xml version='1.0' encoding='ASCII' standalone='yes'?>
<svg xmlns="http://www.w3.org/2000/svg" xmlns:xlink="http://www.w3.org/1999/xlink" version="1.1" width="1872.0px" viewBox="0 0 1872.0 1638.6666666666667" height="1638.6666666666667px">
  <g>
    <svg version="1.1" width="1872.0px" viewBox="0 0 1872.0 1638.6666666666667" height="1638.6666666666667px">
  <rect fill="#e7e6e5" x="0" y="0" width="1872.0" height="1638.6666666666667" rx="20" ry="20"/><g>
    <g transform="translate(267.75071810757527, 163.86666666666665) scale(1 1) translate(0, 0) scale(2.3073312681873652 2.3073312681873652) "><!-- note that I manually added the width and height attribute to the root node
  https://chatgpt.com/share/678e3028-70cc-800b-a296-782714735772
  -->
  <defs>
    <style>.cls-1{fill:#fff;}</style>
  </defs>
  <path class="cls-1" d="M122.44,531.2h-56.1c-11,0-19.9-9.12-19.46-20.11C57.47,243.89,278.15,29.78,547.91,29.78v56.02c0,10.98-8.69,19.89-19.66,20.39-225.51,10.31-405.8,197-405.8,425Z"/>
  <path class="cls-1" d="M273.78,531.2h-55.93c-11.23,0-20.09-9.48-19.43-20.69,10.74-183.44,163.39-329.39,349.48-329.39v56.26c0,10.71-8.27,19.62-18.96,20.35-142.35,9.77-255.17,128.69-255.17,273.46Z"/>
  <path class="cls-1" d="M425.77,531.2h-55.45c-11.65,0-20.6-10.17-19.33-21.75,10.87-99.03,95.03-176.34,196.92-176.34v57.01c0,10.05-7.28,18.75-17.23,20.16-59.22,8.4-104.91,59.42-104.91,120.92Z"/>
</g>
    <svg width="1404pt" height="1229pt" viewBox="0.00 0.00 1404.30 1229.05">
<g id="graph0" class="graph" transform="scale(1 1) rotate(0) translate(4 1225.05)">
<title>D</title>
<text text-anchor="start" x="408.65" y="-1200.95" font-family="Roboto, sans-serif" font-weight="bold" font-size="18.00">GPKE</text>
<text text-anchor="start" x="408.65" y="-1172.85" font-family="Roboto, sans-serif" font-weight="bold" font-size="16.00">6.36.1: AD: Bestellung &#196;nderung Bilanzierungsverfahren vom LF</text>
<!-- Start -->
<g id="node1" class="node">
<title>Start</title>
<path fill="#8ba2d7" stroke="black" stroke-width="0" d="M394.42,-1131.05C394.42,-1131.05 257.62,-1131.05 257.62,-1131.05 251.62,-1131.05 245.62,-1125.05 245.62,-1119.05 245.62,-1119.05 245.62,-1097.77 245.62,-1097.77 245.62,-1091.77 251.62,-1085.77 257.62,-1085.77 257.62,-1085.77 394.42,-1085.77 394.42,-1085.77 400.42,-1085.77 406.42,-1091.77 406.42,-1097.77 406.42,-1097.77 406.42,-1119.05 406.42,-1119.05 406.42,-1125.05 400.42,-1131.05 394.42,-1131.05"/>
<text text-anchor="start" x="260.02" y="-1110.11" font-family="Roboto, sans-serif" font-weight="bold" font-size="14.00">E_0481</text>
<text text-anchor="start" x="260.02" y="-1096.11" font-family="Roboto, sans-serif" font-size="14.00">Pr&#252;fende Rolle: </text>
<text text-anchor="start" x="369.52" y="-1096.11" font-family="Roboto, sans-serif" font-weight="bold" font-size="14.00">NB</text>
</g>
<!-- 1 -->
<g id="node2" class="node">
<title>1</title>
<path fill="#c2cee9" stroke="black" stroke-width="0" d="M629.17,-1048.77C629.17,-1048.77 22.88,-1048.77 22.88,-1048.77 16.88,-1048.77 10.88,-1042.77 10.88,-1036.77 10.88,-1036.77 10.88,-1024.77 10.88,-1024.77 10.88,-1018.77 16.88,-1012.77 22.88,-1012.77 22.88,-1012.77 629.17,-1012.77 629.17,-1012.77 635.17,-1012.77 641.17,-1018.77 641.17,-1024.77 641.17,-1024.77 641.17,-1036.77 641.17,-1036.77 641.17,-1042.77 635.17,-1048.77 629.17,-1048.77"/>
<text text-anchor="start" x="25.27" y="-1027.1" font-family="Roboto, sans-serif" font-weight="bold" font-size="14.00">1: </text>
<text text-anchor="start" x="44.77" y="-1027.1" font-family="Roboto, sans-serif" font-size="14.00">Handelt es sich um eine Marktlokation mit der messtechnischen Einordnung &#8222;iMS&#8220;?</text>
</g>
<!-- Start&#45;&gt;1 -->
<g id="edge1" class="edge">
<title>Start-&gt;1</title>
<path fill="none" stroke="#88a0d6" d="M326.02,-1085.94C326.02,-1077.86 326.02,-1068.56 326.02,-1059.96"/>
<polygon fill="#88a0d6" stroke="#88a0d6" points="329.53,-1060 326.03,-1050 322.53,-1060 329.53,-1060"/>
</g>
<!-- A01 -->
<g id="node3" class="node">
<title>A01</title>
<path fill="#c4cac1" stroke="black" stroke-width="0" d="M565.92,-959.52C565.92,-959.52 30.12,-959.52 30.12,-959.52 24.12,-959.52 18.12,-953.52 18.12,-947.52 18.12,-947.52 18.12,-912.24 18.12,-912.24 18.12,-906.24 24.12,-900.24 30.12,-900.24 30.12,-900.24 565.92,-900.24 565.92,-900.24 571.92,-900.24 577.92,-906.24 577.92,-912.24 577.92,-912.24 577.92,-947.52 577.92,-947.52 577.92,-953.52 571.92,-959.52 565.92,-959.52"/>
<text text-anchor="start" x="32.52" y="-938.58" font-family="Roboto, sans-serif" font-weight="bold" font-size="14.00">A01</text>
<text text-anchor="start" x="32.52" y="-910.58" font-family="Roboto, sans-serif" font-size="14.00">Marktlokation befindet sich nicht in der messtechnischen Einordnung &#8222;iMS&#8220;.</text>
</g>
<!-- 1&#45;&gt;A01 -->
<g id="edge2" class="edge">
<title>1-&gt;A01</title>
<path fill="none" stroke="#88a0d6" d="M321.28,-1012.99C317.97,-1001.31 313.41,-985.23 309.21,-970.39"/>
<polygon fill="#88a0d6" stroke="#88a0d6" points="312.6,-969.51 306.51,-960.84 305.86,-971.41 312.6,-969.51"/>
<text text-anchor="start" x="315.02" y="-982.47" font-family="Roboto, sans-serif" font-weight="bold" font-size="14.00">NEIN</text>
</g>
<!-- 2 -->
<g id="node4" class="node">
<title>2</title>
<path fill="#c2cee9" stroke="black" stroke-width="0" d="M1145.67,-952.52C1145.67,-952.52 608.38,-952.52 608.38,-952.52 602.38,-952.52 596.38,-946.52 596.38,-940.52 596.38,-940.52 596.38,-919.24 596.38,-919.24 596.38,-913.24 602.38,-907.24 608.38,-907.24 608.38,-907.24 1145.67,-907.24 1145.67,-907.24 1151.67,-907.24 1157.67,-913.24 1157.67,-919.24 1157.67,-919.24 1157.67,-940.52 1157.67,-940.52 1157.67,-946.52 1151.67,-952.52 1145.67,-952.52"/>
<text text-anchor="start" x="610.77" y="-931.58" font-family="Roboto, sans-serif" font-weight="bold" font-size="14.00">2: </text>
<text text-anchor="start" x="630.27" y="-931.58" font-family="Roboto, sans-serif" font-size="14.00">Entspricht der geplante Termin zur &#196;nderung der Prognosegrundlage den</text>
<text text-anchor="start" x="610.77" y="-917.58" font-family="Roboto, sans-serif" font-size="14.00">Prozessfristvorgaben?</text>
</g>
<!-- 1&#45;&gt;2 -->
<g id="edge3" class="edge">
<title>1-&gt;2</title>
<path fill="none" stroke="#88a0d6" d="M420.75,-1012.77C510.31,-996.7 645.52,-972.43 745.52,-954.48"/>
<polygon fill="#88a0d6" stroke="#88a0d6" points="745.9,-957.97 755.12,-952.76 744.66,-951.08 745.9,-957.97"/>
<text text-anchor="start" x="601.02" y="-982.47" font-family="Roboto, sans-serif" font-weight="bold" font-size="14.00">JA</text>
</g>
<!-- A02 -->
<g id="node5" class="node">
<title>A02</title>
<path fill="#c4cac1" stroke="black" stroke-width="0" d="M646.92,-846.99C646.92,-846.99 507.12,-846.99 507.12,-846.99 501.12,-846.99 495.12,-840.99 495.12,-834.99 495.12,-834.99 495.12,-799.71 495.12,-799.71 495.12,-793.71 501.12,-787.71 507.12,-787.71 507.12,-787.71 646.92,-787.71 646.92,-787.71 652.92,-787.71 658.92,-793.71 658.92,-799.71 658.92,-799.71 658.92,-834.99 658.92,-834.99 658.92,-840.99 652.92,-846.99 646.92,-846.99"/>
<text text-anchor="start" x="509.52" y="-826.05" font-family="Roboto, sans-serif" font-weight="bold" font-size="14.00">A02</text>
<text text-anchor="start" x="509.52" y="-798.05" font-family="Roboto, sans-serif" font-size="14.00">Frist&#252;berschreitung</text>
</g>
<!-- 2&#45;&gt;A02 -->
<g id="edge4" class="edge">
<title>2-&gt;A02</title>
<path fill="none" stroke="#88a0d6" d="M818.47,-907.31C774.94,-891.27 714.8,-869.11 665.43,-850.92"/>
<polygon fill="#88a0d6" stroke="#88a0d6" points="666.76,-847.68 656.17,-847.51 664.34,-854.25 666.76,-847.68"/>
<text text-anchor="start" x="744.02" y="-869.94" font-family="Roboto, sans-serif" font-weight="bold" font-size="14.00">NEIN</text>
</g>
<!-- 3 -->
<g id="node6" class="node">
<title>3</title>
<path fill="#c2cee9" stroke="black" stroke-width="0" d="M1096.8,-835.35C1096.8,-835.35 689.25,-835.35 689.25,-835.35 683.25,-835.35 677.25,-829.35 677.25,-823.35 677.25,-823.35 677.25,-811.35 677.25,-811.35 677.25,-805.35 683.25,-799.35 689.25,-799.35 689.25,-799.35 1096.8,-799.35 1096.8,-799.35 1102.8,-799.35 1108.8,-805.35 1108.8,-811.35 1108.8,-811.35 1108.8,-823.35 1108.8,-823.35 1108.8,-829.35 1102.8,-835.35 1096.8,-835.35"/>
<text text-anchor="start" x="691.65" y="-813.67" font-family="Roboto, sans-serif" font-weight="bold" font-size="14.00">3: </text>
<text text-anchor="start" x="711.15" y="-813.67" font-family="Roboto, sans-serif" font-size="14.00">Handelt es sich um eine verbrauchende Marktlokation?</text>
</g>
<!-- 2&#45;&gt;3 -->
<g id="edge5" class="edge">
<title>2-&gt;3</title>
<path fill="none" stroke="#88a0d6" d="M880.15,-907.31C882.67,-889.91 886.23,-865.31 888.97,-846.38"/>
<polygon fill="#88a0d6" stroke="#88a0d6" points="892.4,-847.07 890.37,-836.67 885.48,-846.07 892.4,-847.07"/>
<text text-anchor="start" x="885.02" y="-869.94" font-family="Roboto, sans-serif" font-weight="bold" font-size="14.00">JA</text>
</g>
<!-- A03 -->
<g id="node7" class="node">
<title>A03</title>
<path fill="#c4cac1" stroke="black" stroke-width="0" d="M598.05,-734.46C598.05,-734.46 12,-734.46 12,-734.46 6,-734.46 0,-728.46 0,-722.46 0,-722.46 0,-673.18 0,-673.18 0,-667.18 6,-661.18 12,-661.18 12,-661.18 598.05,-661.18 598.05,-661.18 604.05,-661.18 610.05,-667.18 610.05,-673.18 610.05,-673.18 610.05,-722.46 610.05,-722.46 610.05,-728.46 604.05,-734.46 598.05,-734.46"/>
<text text-anchor="start" x="14.4" y="-713.52" font-family="Roboto, sans-serif" font-weight="bold" font-size="14.00">A03</text>
<text text-anchor="start" x="14.4" y="-685.52" font-family="Roboto, sans-serif" font-size="14.00">Erzeugende Marktlokationen mit iMS werden immer auf der Prognosegrundlage auf</text>
<text text-anchor="start" x="14.4" y="-671.52" font-family="Roboto, sans-serif" font-size="14.00">Basis von Werten bilanziert.</text>
</g>
<!-- 3&#45;&gt;A03 -->
<g id="edge6" class="edge">
<title>3-&gt;A03</title>
<path fill="none" stroke="#88a0d6" d="M808.15,-799.39C726.45,-783.05 600.06,-757.79 494.4,-736.67"/>
<polygon fill="#88a0d6" stroke="#88a0d6" points="495.24,-733.27 484.75,-734.74 493.87,-740.14 495.24,-733.27"/>
<text text-anchor="start" x="651.02" y="-757.41" font-family="Roboto, sans-serif" font-weight="bold" font-size="14.00">NEIN</text>
</g>
<!-- 4 -->
<g id="node8" class="node">
<title>4</title>
<path fill="#c2cee9" stroke="black" stroke-width="0" d="M1160.05,-720.46C1160.05,-720.46 640,-720.46 640,-720.46 634,-720.46 628,-714.46 628,-708.46 628,-708.46 628,-687.18 628,-687.18 628,-681.18 634,-675.18 640,-675.18 640,-675.18 1160.05,-675.18 1160.05,-675.18 1166.05,-675.18 1172.05,-681.18 1172.05,-687.18 1172.05,-687.18 1172.05,-708.46 1172.05,-708.46 1172.05,-714.46 1166.05,-720.46 1160.05,-720.46"/>
<text text-anchor="start" x="642.4" y="-699.52" font-family="Roboto, sans-serif" font-weight="bold" font-size="14.00">4: </text>
<text text-anchor="start" x="661.9" y="-699.52" font-family="Roboto, sans-serif" font-size="14.00">Liegt eine Zuordnungserm&#228;chtigung f&#252;r den sich aus der gew&#252;nschten</text>
<text text-anchor="start" x="642.4" y="-685.52" font-family="Roboto, sans-serif" font-size="14.00">Prognosegrundlage ergebenden ZRT vor?</text>
</g>
<!-- 3&#45;&gt;4 -->
<g id="edge7" class="edge">
<title>3-&gt;4</title>
<path fill="none" stroke="#88a0d6" d="M894.03,-799.51C895.08,-781.86 896.76,-753.69 898.07,-731.63"/>
<polygon fill="#88a0d6" stroke="#88a0d6" points="901.55,-732.12 898.65,-721.93 894.56,-731.7 901.55,-732.12"/>
<text text-anchor="start" x="896.02" y="-757.41" font-family="Roboto, sans-serif" font-weight="bold" font-size="14.00">JA</text>
</g>
<!-- A04 -->
<g id="node9" class="node">
<title>A04</title>
<path fill="#c4cac1" stroke="black" stroke-width="0" d="M664.92,-607.93C664.92,-607.93 375.12,-607.93 375.12,-607.93 369.12,-607.93 363.12,-601.93 363.12,-595.93 363.12,-595.93 363.12,-560.65 363.12,-560.65 363.12,-554.65 369.12,-548.65 375.12,-548.65 375.12,-548.65 664.92,-548.65 664.92,-548.65 670.92,-548.65 676.92,-554.65 676.92,-560.65 676.92,-560.65 676.92,-595.93 676.92,-595.93 676.92,-601.93 670.92,-607.93 664.92,-607.93"/>
<text text-anchor="start" x="377.52" y="-586.99" font-family="Roboto, sans-serif" font-weight="bold" font-size="14.00">A04</text>
<text text-anchor="start" x="377.52" y="-558.99" font-family="Roboto, sans-serif" font-size="14.00">Zuordnungserm&#228;chtigung liegt nicht vor.</text>
</g>
<!-- 4&#45;&gt;A04 -->
<g id="edge8" class="edge">
<title>4-&gt;A04</title>
<path fill="none" stroke="#88a0d6" d="M830.33,-675.26C772.38,-657.34 689.07,-631.58 623.37,-611.25"/>
<polygon fill="#88a0d6" stroke="#88a0d6" points="624.6,-607.97 614.01,-608.36 622.53,-614.66 624.6,-607.97"/>
<text text-anchor="start" x="721.02" y="-630.88" font-family="Roboto, sans-serif" font-weight="bold" font-size="14.00">NEIN</text>
</g>
<!-- 5 -->
<g id="node10" class="node">
<title>5</title>
<path fill="#c2cee9" stroke="black" stroke-width="0" d="M1246.8,-596.29C1246.8,-596.29 707.25,-596.29 707.25,-596.29 701.25,-596.29 695.25,-590.29 695.25,-584.29 695.25,-584.29 695.25,-572.29 695.25,-572.29 695.25,-566.29 701.25,-560.29 707.25,-560.29 707.25,-560.29 1246.8,-560.29 1246.8,-560.29 1252.8,-560.29 1258.8,-566.29 1258.8,-572.29 1258.8,-572.29 1258.8,-584.29 1258.8,-584.29 1258.8,-590.29 1252.8,-596.29 1246.8,-596.29"/>
<text text-anchor="start" x="709.65" y="-574.62" font-family="Roboto, sans-serif" font-weight="bold" font-size="14.00">5: </text>
<text text-anchor="start" x="729.15" y="-574.62" font-family="Roboto, sans-serif" font-size="14.00">Ist die gew&#252;nschte Prognosegrundlage auf Basis von Profilen angegeben?</text>
</g>
<!-- 4&#45;&gt;5 -->
<g id="edge9" class="edge">
<title>4-&gt;5</title>
<path fill="none" stroke="#88a0d6" d="M914.15,-675.26C926.98,-655.67 945.96,-626.71 959.7,-605.73"/>
<polygon fill="#88a0d6" stroke="#88a0d6" points="962.6,-607.69 965.15,-597.41 956.75,-603.86 962.6,-607.69"/>
<text text-anchor="start" x="945.02" y="-630.88" font-family="Roboto, sans-serif" font-weight="bold" font-size="14.00">JA</text>
</g>
<!-- 6 -->
<g id="node11" class="node">
<title>6</title>
<path fill="#c2cee9" stroke="black" stroke-width="0" d="M961.92,-495.4C961.92,-495.4 390.12,-495.4 390.12,-495.4 384.12,-495.4 378.12,-489.4 378.12,-483.4 378.12,-483.4 378.12,-462.12 378.12,-462.12 378.12,-456.12 384.12,-450.12 390.12,-450.12 390.12,-450.12 961.92,-450.12 961.92,-450.12 967.92,-450.12 973.92,-456.12 973.92,-462.12 973.92,-462.12 973.92,-483.4 973.92,-483.4 973.92,-489.4 967.92,-495.4 961.92,-495.4"/>
<text text-anchor="start" x="392.52" y="-474.46" font-family="Roboto, sans-serif" font-weight="bold" font-size="14.00">6: </text>
<text text-anchor="start" x="412.02" y="-474.46" font-family="Roboto, sans-serif" font-size="14.00">Befindet sich die Marktlokation in einem Lokationsb&#252;ndel in welchem ebenfalls</text>
<text text-anchor="start" x="392.52" y="-460.46" font-family="Roboto, sans-serif" font-size="14.00">eine erzeugende Marktlokation vorhanden ist?</text>
</g>
<!-- 5&#45;&gt;6 -->
<g id="edge10" class="edge">
<title>5-&gt;6</title>
<path fill="none" stroke="#88a0d6" d="M927.66,-560.31C879.26,-543.67 804.91,-518.09 749.55,-499.05"/>
<polygon fill="#88a0d6" stroke="#88a0d6" points="750.78,-495.77 740.18,-495.83 748.5,-502.39 750.78,-495.77"/>
<text text-anchor="start" x="835.02" y="-518.35" font-family="Roboto, sans-serif" font-weight="bold" font-size="14.00">JA</text>
</g>
<!-- 8 -->
<g id="node14" class="node">
<title>8</title>
<path fill="#c2cee9" stroke="black" stroke-width="0" d="M1298.42,-277.34C1298.42,-277.34 705.62,-277.34 705.62,-277.34 699.62,-277.34 693.62,-271.34 693.62,-265.34 693.62,-265.34 693.62,-244.06 693.62,-244.06 693.62,-238.06 699.62,-232.06 705.62,-232.06 705.62,-232.06 1298.42,-232.06 1298.42,-232.06 1304.42,-232.06 1310.42,-238.06 1310.42,-244.06 1310.42,-244.06 1310.42,-265.34 1310.42,-265.34 1310.42,-271.34 1304.42,-277.34 1298.42,-277.34"/>
<text text-anchor="start" x="708.02" y="-256.4" font-family="Roboto, sans-serif" font-weight="bold" font-size="14.00">8: </text>
<text text-anchor="start" x="727.52" y="-256.4" font-family="Roboto, sans-serif" font-size="14.00">Besteht f&#252;r die Marktlokation ein Wahlrecht zur &#196;nderung der Prognosegrundlage</text>
<text text-anchor="start" x="708.02" y="-242.4" font-family="Roboto, sans-serif" font-size="14.00">durch den LF?</text>
</g>
<!-- 5&#45;&gt;8 -->
<g id="edge11" class="edge">
<title>5-&gt;8</title>
<path fill="none" stroke="#88a0d6" d="M978.36,-560.54C982.72,-506.09 996.61,-336.18 1002.02,-311.96"/>
<text text-anchor="start" x="990.02" y="-419.82" font-family="Roboto, sans-serif" font-weight="bold" font-size="14.00">NEIN</text>
</g>
<!-- 7 -->
<g id="node12" class="node">
<title>7</title>
<path fill="#c2cee9" stroke="black" stroke-width="0" d="M887.42,-396.87C887.42,-396.87 348.62,-396.87 348.62,-396.87 342.62,-396.87 336.62,-390.87 336.62,-384.87 336.62,-384.87 336.62,-349.59 336.62,-349.59 336.62,-343.59 342.62,-337.59 348.62,-337.59 348.62,-337.59 887.42,-337.59 887.42,-337.59 893.42,-337.59 899.42,-343.59 899.42,-349.59 899.42,-349.59 899.42,-384.87 899.42,-384.87 899.42,-390.87 893.42,-396.87 887.42,-396.87"/>
<text text-anchor="start" x="351.02" y="-375.93" font-family="Roboto, sans-serif" font-weight="bold" font-size="14.00">7: </text>
<text text-anchor="start" x="370.52" y="-375.93" font-family="Roboto, sans-serif" font-size="14.00">Entspricht die erzeugte Energiemenge der Marktlokation der gemessenen</text>
<text text-anchor="start" x="351.02" y="-361.93" font-family="Roboto, sans-serif" font-size="14.00">Energiemenge in der Flussrichtung Erzeugung an der Messlokation der</text>
<text text-anchor="start" x="351.02" y="-347.93" font-family="Roboto, sans-serif" font-size="14.00">Netz&#252;bergabe?</text>
</g>
<!-- 6&#45;&gt;7 -->
<g id="edge12" class="edge">
<title>6-&gt;7</title>
<path fill="none" stroke="#88a0d6" d="M664.01,-450.31C656.94,-437.7 647.81,-421.39 639.54,-406.63"/>
<polygon fill="#88a0d6" stroke="#88a0d6" points="642.67,-405.06 634.73,-398.05 636.56,-408.48 642.67,-405.06"/>
<text text-anchor="start" x="652.02" y="-419.82" font-family="Roboto, sans-serif" font-weight="bold" font-size="14.00">JA</text>
</g>
<!-- 6&#45;&gt;8 -->
<g id="edge13" class="edge">
<title>6-&gt;8</title>
<path fill="none" stroke="#88a0d6" d="M792.23,-450.17C831.65,-438.89 874.22,-421.98 908.02,-396.87 933.74,-377.77 924.69,-358.42 949.02,-337.59 968.9,-320.57 995.08,-337.19 1002.02,-311.96"/>
<path fill="none" stroke="#88a0d6" d="M1002.02,-309.96C1003.54,-303.19 1004.18,-295.82 1004.33,-288.76"/>
<polygon fill="#88a0d6" stroke="#88a0d6" points="1007.83,-288.8 1004.2,-278.84 1000.83,-288.89 1007.83,-288.8"/>
<text text-anchor="start" x="949.02" y="-363.55" font-family="Roboto, sans-serif" font-weight="bold" font-size="14.00">NEIN</text>
</g>
<!-- A05 -->
<g id="node13" class="node">
<title>A05</title>
<path fill="#c4cac1" stroke="black" stroke-width="0" d="M663.92,-284.34C663.92,-284.34 110.12,-284.34 110.12,-284.34 104.12,-284.34 98.12,-278.34 98.12,-272.34 98.12,-272.34 98.12,-237.06 98.12,-237.06 98.12,-231.06 104.12,-225.06 110.12,-225.06 110.12,-225.06 663.92,-225.06 663.92,-225.06 669.92,-225.06 675.92,-231.06 675.92,-237.06 675.92,-237.06 675.92,-272.34 675.92,-272.34 675.92,-278.34 669.92,-284.34 663.92,-284.34"/>
<text text-anchor="start" x="112.52" y="-263.4" font-family="Roboto, sans-serif" font-weight="bold" font-size="14.00">A05</text>
<text text-anchor="start" x="112.52" y="-235.4" font-family="Roboto, sans-serif" font-size="14.00">Keine Volleinspeisung, keine Prognosegrundlage auf Basis von Profilen m&#246;glich</text>
</g>
<!-- 7&#45;&gt;A05 -->
<g id="edge14" class="edge">
<title>7-&gt;A05</title>
<path fill="none" stroke="#88a0d6" d="M558.24,-337.62C527.24,-322.79 489.19,-304.59 456.85,-289.11"/>
<polygon fill="#88a0d6" stroke="#88a0d6" points="458.46,-286 447.93,-284.84 455.44,-292.31 458.46,-286"/>
<text text-anchor="start" x="516.02" y="-307.29" font-family="Roboto, sans-serif" font-weight="bold" font-size="14.00">NEIN</text>
</g>
<!-- 7&#45;&gt;8 -->
<g id="edge15" class="edge">
<title>7-&gt;8</title>
<path fill="none" stroke="#88a0d6" d="M717.41,-337.62C779.02,-319.89 857.36,-297.34 916.25,-280.39"/>
<polygon fill="#88a0d6" stroke="#88a0d6" points="916.91,-283.84 925.56,-277.71 914.98,-277.11 916.91,-283.84"/>
<text text-anchor="start" x="832.02" y="-307.29" font-family="Roboto, sans-serif" font-weight="bold" font-size="14.00">JA</text>
</g>
<!-- A06 -->
<g id="node15" class="node">
<title>A06</title>
<path fill="#c4cac1" stroke="black" stroke-width="0" d="M727.67,-171.81C727.67,-171.81 304.38,-171.81 304.38,-171.81 298.38,-171.81 292.38,-165.81 292.38,-159.81 292.38,-159.81 292.38,-124.53 292.38,-124.53 292.38,-118.53 298.38,-112.53 304.38,-112.53 304.38,-112.53 727.67,-112.53 727.67,-112.53 733.67,-112.53 739.67,-118.53 739.67,-124.53 739.67,-124.53 739.67,-159.81 739.67,-159.81 739.67,-165.81 733.67,-171.81 727.67,-171.81"/>
<text text-anchor="start" x="306.77" y="-150.87" font-family="Roboto, sans-serif" font-weight="bold" font-size="14.00">A06</text>
<text text-anchor="start" x="306.77" y="-122.87" font-family="Roboto, sans-serif" font-size="14.00">Kein Wahlrecht der Prognosegrundlage f&#252;r die Marktlokation</text>
</g>
<!-- 8&#45;&gt;A06 -->
<g id="edge16" class="edge">
<title>8-&gt;A06</title>
<path fill="none" stroke="#88a0d6" d="M906.88,-232.06C834.41,-215.58 733.65,-192.66 652.59,-174.23"/>
<polygon fill="#88a0d6" stroke="#88a0d6" points="653.79,-170.91 643.27,-172.11 652.24,-177.74 653.79,-170.91"/>
<text text-anchor="start" x="788.02" y="-194.76" font-family="Roboto, sans-serif" font-weight="bold" font-size="14.00">NEIN</text>
</g>
<!-- 9 -->
<g id="node16" class="node">
<title>9</title>
<path fill="#c2cee9" stroke="black" stroke-width="0" d="M1384.3,-160.17C1384.3,-160.17 769.75,-160.17 769.75,-160.17 763.75,-160.17 757.75,-154.17 757.75,-148.17 757.75,-148.17 757.75,-136.17 757.75,-136.17 757.75,-130.17 763.75,-124.17 769.75,-124.17 769.75,-124.17 1384.3,-124.17 1384.3,-124.17 1390.3,-124.17 1396.3,-130.17 1396.3,-136.17 1396.3,-136.17 1396.3,-148.17 1396.3,-148.17 1396.3,-154.17 1390.3,-160.17 1384.3,-160.17"/>
<text text-anchor="start" x="772.15" y="-138.5" font-family="Roboto, sans-serif" font-weight="bold" font-size="14.00">9: </text>
<text text-anchor="start" x="791.65" y="-138.5" font-family="Roboto, sans-serif" font-size="14.00">Ist die gew&#252;nschte Prognosegrundlage zum gew&#252;nschten Termin bereits umgesetzt?</text>
</g>
<!-- 8&#45;&gt;9 -->
<g id="edge17" class="edge">
<title>8-&gt;9</title>
<path fill="none" stroke="#88a0d6" d="M1016.66,-232.13C1028.86,-214.15 1046.28,-188.48 1059.27,-169.34"/>
<polygon fill="#88a0d6" stroke="#88a0d6" points="1062.04,-171.49 1064.76,-161.25 1056.25,-167.56 1062.04,-171.49"/>
<text text-anchor="start" x="1043.03" y="-194.76" font-family="Roboto, sans-serif" font-weight="bold" font-size="14.00">JA</text>
</g>
<!-- A07 -->
<g id="node17" class="node">
<title>A07</title>
<path fill="#c4cac1" stroke="black" stroke-width="0" d="M871.17,-59.28C871.17,-59.28 480.88,-59.28 480.88,-59.28 474.88,-59.28 468.88,-53.28 468.88,-47.28 468.88,-47.28 468.88,-12 468.88,-12 468.88,-6 474.88,0 480.88,0 480.88,0 871.17,0 871.17,0 877.17,0 883.17,-6 883.17,-12 883.17,-12 883.17,-47.28 883.17,-47.28 883.17,-53.28 877.17,-59.28 871.17,-59.28"/>
<text text-anchor="start" x="483.27" y="-38.34" font-family="Roboto, sans-serif" font-weight="bold" font-size="14.00">A07</text>
<text text-anchor="start" x="483.27" y="-10.34" font-family="Roboto, sans-serif" font-size="14.00">&#196;nderung zum gew&#252;nschten Termin bereits umgesetzt.</text>
</g>
<!-- 9&#45;&gt;A07 -->
<g id="edge18" class="edge">
<title>9-&gt;A07</title>
<path fill="none" stroke="#88a0d6" d="M1015.69,-124.26C955.98,-107.81 863.8,-82.4 790.52,-62.2"/>
<polygon fill="#88a0d6" stroke="#88a0d6" points="791.88,-58.94 781.31,-59.66 790.02,-65.69 791.88,-58.94"/>
<text text-anchor="start" x="900.02" y="-82.23" font-family="Roboto, sans-serif" font-weight="bold" font-size="14.00">JA</text>
</g>
<!-- A08 -->
<g id="node18" class="node">
<title>A08</title>
<path fill="#c4cac1" stroke="black" stroke-width="0" d="M1352.55,-59.28C1352.55,-59.28 913.5,-59.28 913.5,-59.28 907.5,-59.28 901.5,-53.28 901.5,-47.28 901.5,-47.28 901.5,-12 901.5,-12 901.5,-6 907.5,0 913.5,0 913.5,0 1352.55,0 1352.55,0 1358.55,0 1364.55,-6 1364.55,-12 1364.55,-12 1364.55,-47.28 1364.55,-47.28 1364.55,-53.28 1358.55,-59.28 1352.55,-59.28"/>
<text text-anchor="start" x="915.9" y="-38.34" font-family="Roboto, sans-serif" font-weight="bold" font-size="14.00">A08</text>
<text text-anchor="start" x="915.9" y="-10.34" font-family="Roboto, sans-serif" font-size="14.00">Bestellung an den MSB am Objekt Marktlokation weitergeleitet</text>
</g>
<!-- 9&#45;&gt;A08 -->
<g id="edge19" class="edge">
<title>9-&gt;A08</title>
<path fill="none" stroke="#88a0d6" d="M1085.53,-124.38C1092.91,-109.81 1103.89,-88.15 1113.43,-69.32"/>
<polygon fill="#88a0d6" stroke="#88a0d6" points="1116.47,-71.07 1117.86,-60.56 1110.22,-67.9 1116.47,-71.07"/>
<text text-anchor="start" x="1108.03" y="-82.23" font-family="Roboto, sans-serif" font-weight="bold" font-size="14.00">NEIN</text>
</g>
</g>
</svg>
  </g>
</svg>
  </g>
</svg>
