<?xml version='1.0' encoding='ASCII' standalone='yes'?>
<svg xmlns="http://www.w3.org/2000/svg" xmlns:xlink="http://www.w3.org/1999/xlink" version="1.1" width="1542.6666666666667px" viewBox="0 0 1542.6666666666667 825.3333333333334" height="825.3333333333334px">
  <g>
    <svg version="1.1" width="1542.6666666666667px" viewBox="0 0 1542.6666666666667 825.3333333333334" height="825.3333333333334px">
  <rect fill="#e7e6e5" x="0" y="0" width="1542.6666666666667" height="825.3333333333334" rx="20" ry="20"/><g>
    <g transform="translate(434.76188866985825, 82.53333333333332) scale(1 1) translate(0, 0) scale(1.1621139585093403 1.1621139585093403) "><defs>
    <style>.cls-1{fill:#ffffff88;}</style>
    <!--
    ffffff88 is white with 50% transparency; this matches the colour of the tesa strip on
    ebd.hochfrequenz.de where it crosses the diagram SVG:
    https://github.com/Hochfrequenz/entscheidungsbaumdiagramme/blob/01bd43fa0f1d0333fa93596bc8b9fd1e4b285c8c/src/lib/components/features/svg-container.svelte#L54
    -->
  </defs>
  <path class="cls-1" d="M122.44,531.2h-56.1c-11,0-19.9-9.12-19.46-20.11C57.47,243.89,278.15,29.78,547.91,29.78v56.02c0,10.98-8.69,19.89-19.66,20.39-225.51,10.31-405.8,197-405.8,425Z"/>
  <path class="cls-1" d="M273.78,531.2h-55.93c-11.23,0-20.09-9.48-19.43-20.69,10.74-183.44,163.39-329.39,349.48-329.39v56.26c0,10.71-8.27,19.62-18.96,20.35-142.35,9.77-255.17,128.69-255.17,273.46Z"/>
  <path class="cls-1" d="M425.77,531.2h-55.45c-11.65,0-20.6-10.17-19.33-21.75,10.87-99.03,95.03-176.34,196.92-176.34v57.01c0,10.05-7.28,18.75-17.23,20.16-59.22,8.4-104.91,59.42-104.91,120.92Z"/>
</g>
    <svg width="1157pt" height="619pt" viewBox="0.00 0.00 1157.05 619.15">
<g id="graph0" class="graph" transform="scale(1 1) rotate(0) translate(18 601.15)">
<title>D</title>
<text text-anchor="start" x="269.15" y="-563.05" font-family="Roboto, sans-serif" font-weight="bold" font-size="18.00">GPKE</text>
<text text-anchor="start" x="269.15" y="-534.95" font-family="Roboto, sans-serif" font-weight="bold" font-size="16.00">6.37.2: AD: Bestellung &#196;nderung Bilanzierungsverfahren vom NB</text>
<!-- Start -->
<g id="node1" class="node">
<title>Start</title>
<path fill="#8ba2d7" stroke="black" stroke-width="0" d="M438.55,-493.15C438.55,-493.15 289.75,-493.15 289.75,-493.15 283.75,-493.15 277.75,-487.15 277.75,-481.15 277.75,-481.15 277.75,-459.87 277.75,-459.87 277.75,-453.87 283.75,-447.87 289.75,-447.87 289.75,-447.87 438.55,-447.87 438.55,-447.87 444.55,-447.87 450.55,-453.87 450.55,-459.87 450.55,-459.87 450.55,-481.15 450.55,-481.15 450.55,-487.15 444.55,-493.15 438.55,-493.15"/>
<text text-anchor="start" x="292.15" y="-472.21" font-family="Roboto, sans-serif" font-weight="bold" font-size="14.00">E_0490</text>
<text text-anchor="start" x="292.15" y="-458.21" font-family="Roboto, sans-serif" font-size="14.00">Pr&#252;fende Rolle: </text>
<text text-anchor="start" x="401.65" y="-458.21" font-family="Roboto, sans-serif" font-weight="bold" font-size="14.00">MSB</text>
</g>
<!-- 1 -->
<g id="node2" class="node">
<title>1</title>
<path fill="#c2cee9" stroke="black" stroke-width="0" d="M665.8,-410.87C665.8,-410.87 62.5,-410.87 62.5,-410.87 56.5,-410.87 50.5,-404.87 50.5,-398.87 50.5,-398.87 50.5,-377.59 50.5,-377.59 50.5,-371.59 56.5,-365.59 62.5,-365.59 62.5,-365.59 665.8,-365.59 665.8,-365.59 671.8,-365.59 677.8,-371.59 677.8,-377.59 677.8,-377.59 677.8,-398.87 677.8,-398.87 677.8,-404.87 671.8,-410.87 665.8,-410.87"/>
<text text-anchor="start" x="64.9" y="-389.93" font-family="Roboto, sans-serif" font-weight="bold" font-size="14.00">1: </text>
<text text-anchor="start" x="84.4" y="-389.93" font-family="Roboto, sans-serif" font-size="14.00">Liegen alle Antworten (Stammdaten&#228;nderung des MSB der Messlokation, bei Erfolg</text>
<text text-anchor="start" x="64.9" y="-375.93" font-family="Roboto, sans-serif" font-size="14.00">bzw. Ablehnung (wegen z.&#160;B. Verbindungsaufbau)) der MSB der Messlokation vor?</text>
</g>
<!-- Start&#45;&gt;1 -->
<g id="edge1" class="edge">
<title>Start-&gt;1</title>
<path fill="none" stroke="#88a0d6" d="M364.15,-448C364.15,-440.08 364.15,-430.92 364.15,-422.22"/>
<polygon fill="#88a0d6" stroke="#88a0d6" points="367.65,-422.32 364.15,-412.32 360.65,-422.32 367.65,-422.32"/>
</g>
<!-- A01 -->
<g id="node3" class="node">
<title>A01</title>
<path fill="#c4cac1" stroke="black" stroke-width="0" d="M294.3,-312.34C294.3,-312.34 12,-312.34 12,-312.34 6,-312.34 0,-306.34 0,-300.34 0,-300.34 0,-265.06 0,-265.06 0,-259.06 6,-253.06 12,-253.06 12,-253.06 294.3,-253.06 294.3,-253.06 300.3,-253.06 306.3,-259.06 306.3,-265.06 306.3,-265.06 306.3,-300.34 306.3,-300.34 306.3,-306.34 300.3,-312.34 294.3,-312.34"/>
<text text-anchor="start" x="14.4" y="-291.4" font-family="Roboto, sans-serif" font-weight="bold" font-size="14.00">A01</text>
<text text-anchor="start" x="14.4" y="-263.4" font-family="Roboto, sans-serif" font-size="14.00">Es liegen nicht alle R&#252;ckmeldungen vor.</text>
</g>
<!-- 1&#45;&gt;A01 -->
<g id="edge2" class="edge">
<title>1-&gt;A01</title>
<path fill="none" stroke="#88a0d6" d="M320.17,-365.65C291.73,-351.7 254.11,-333.24 221.78,-317.37"/>
<polygon fill="#88a0d6" stroke="#88a0d6" points="223.37,-314.25 212.85,-312.99 220.28,-320.54 223.37,-314.25"/>
<text text-anchor="start" x="277.15" y="-335.29" font-family="Roboto, sans-serif" font-weight="bold" font-size="14.00">NEIN</text>
</g>
<!-- 2 -->
<g id="node4" class="node">
<title>2</title>
<path fill="#c2cee9" stroke="black" stroke-width="0" d="M933.8,-305.34C933.8,-305.34 336.5,-305.34 336.5,-305.34 330.5,-305.34 324.5,-299.34 324.5,-293.34 324.5,-293.34 324.5,-272.06 324.5,-272.06 324.5,-266.06 330.5,-260.06 336.5,-260.06 336.5,-260.06 933.8,-260.06 933.8,-260.06 939.8,-260.06 945.8,-266.06 945.8,-272.06 945.8,-272.06 945.8,-293.34 945.8,-293.34 945.8,-299.34 939.8,-305.34 933.8,-305.34"/>
<text text-anchor="start" x="338.9" y="-284.4" font-family="Roboto, sans-serif" font-weight="bold" font-size="14.00">2: </text>
<text text-anchor="start" x="358.4" y="-284.4" font-family="Roboto, sans-serif" font-size="14.00">War es im vorgesehenen Zeitrahmen m&#246;glich, alle betroffenen Messlokationen der</text>
<text text-anchor="start" x="338.9" y="-270.4" font-family="Roboto, sans-serif" font-size="14.00">Marktlokation entsprechend zu parametrieren?</text>
</g>
<!-- 1&#45;&gt;2 -->
<g id="edge3" class="edge">
<title>1-&gt;2</title>
<path fill="none" stroke="#88a0d6" d="M420.63,-365.65C463.57,-349.25 522.78,-326.63 568.12,-309.31"/>
<polygon fill="#88a0d6" stroke="#88a0d6" points="569.24,-312.63 577.33,-305.79 566.74,-306.09 569.24,-312.63"/>
<text text-anchor="start" x="507.15" y="-335.29" font-family="Roboto, sans-serif" font-weight="bold" font-size="14.00">JA</text>
</g>
<!-- A02 -->
<g id="node5" class="node">
<title>A02</title>
<path fill="#c4cac1" stroke="black" stroke-width="0" d="M597.55,-199.81C597.55,-199.81 184.75,-199.81 184.75,-199.81 178.75,-199.81 172.75,-193.81 172.75,-187.81 172.75,-187.81 172.75,-152.53 172.75,-152.53 172.75,-146.53 178.75,-140.53 184.75,-140.53 184.75,-140.53 597.55,-140.53 597.55,-140.53 603.55,-140.53 609.55,-146.53 609.55,-152.53 609.55,-152.53 609.55,-187.81 609.55,-187.81 609.55,-193.81 603.55,-199.81 597.55,-199.81"/>
<text text-anchor="start" x="187.15" y="-178.87" font-family="Roboto, sans-serif" font-weight="bold" font-size="14.00">A02</text>
<text text-anchor="start" x="187.15" y="-150.87" font-family="Roboto, sans-serif" font-size="14.00">Es konnten nicht alle Messlokationen parametriert werden.</text>
</g>
<!-- 2&#45;&gt;A02 -->
<g id="edge4" class="edge">
<title>2-&gt;A02</title>
<path fill="none" stroke="#88a0d6" d="M587.53,-260.13C552.64,-244.32 504.64,-222.58 464.83,-204.55"/>
<polygon fill="#88a0d6" stroke="#88a0d6" points="466.3,-201.37 455.74,-200.43 463.41,-207.75 466.3,-201.37"/>
<text text-anchor="start" x="527.15" y="-222.76" font-family="Roboto, sans-serif" font-weight="bold" font-size="14.00">NEIN</text>
</g>
<!-- 3 -->
<g id="node6" class="node">
<title>3</title>
<path fill="#c2cee9" stroke="black" stroke-width="0" d="M980.55,-188.17C980.55,-188.17 639.75,-188.17 639.75,-188.17 633.75,-188.17 627.75,-182.17 627.75,-176.17 627.75,-176.17 627.75,-164.17 627.75,-164.17 627.75,-158.17 633.75,-152.17 639.75,-152.17 639.75,-152.17 980.55,-152.17 980.55,-152.17 986.55,-152.17 992.55,-158.17 992.55,-164.17 992.55,-164.17 992.55,-176.17 992.55,-176.17 992.55,-182.17 986.55,-188.17 980.55,-188.17"/>
<text text-anchor="start" x="642.15" y="-166.5" font-family="Roboto, sans-serif" font-weight="bold" font-size="14.00">3: </text>
<text text-anchor="start" x="661.65" y="-166.5" font-family="Roboto, sans-serif" font-size="14.00">Ist ein nicht spezifizierter Fehler aufgetreten?</text>
</g>
<!-- 2&#45;&gt;3 -->
<g id="edge5" class="edge">
<title>2-&gt;3</title>
<path fill="none" stroke="#88a0d6" d="M669.31,-260.13C699.38,-241.14 743.03,-213.56 773.75,-194.16"/>
<polygon fill="#88a0d6" stroke="#88a0d6" points="775.37,-197.27 781.96,-188.98 771.63,-191.36 775.37,-197.27"/>
<text text-anchor="start" x="732.15" y="-222.76" font-family="Roboto, sans-serif" font-weight="bold" font-size="14.00">JA</text>
</g>
<!-- A99 -->
<g id="node7" class="node">
<title>A99</title>
<path fill="#c4cac1" stroke="black" stroke-width="0" d="M585.42,-87.28C585.42,-87.28 24.88,-87.28 24.88,-87.28 18.88,-87.28 12.88,-81.28 12.88,-75.28 12.88,-75.28 12.88,-12 12.88,-12 12.88,-6 18.88,0 24.88,0 24.88,0 585.42,0 585.42,0 591.42,0 597.42,-6 597.42,-12 597.42,-12 597.42,-75.28 597.42,-75.28 597.42,-81.28 591.42,-87.28 585.42,-87.28"/>
<text text-anchor="start" x="27.27" y="-66.34" font-family="Roboto, sans-serif" font-weight="bold" font-size="14.00">A99</text>
<text text-anchor="start" x="27.27" y="-38.34" font-family="Roboto, sans-serif" font-size="14.00">Ablehnung Sonstiges</text>
<text text-anchor="start" x="27.27" y="-24.34" font-family="Roboto, sans-serif" font-size="14.00">Hinweis: Das identifizierte Problem ist in der Antwort zu beschreiben/benennen.</text>
<text text-anchor="start" x="27.27" y="-10.34" font-family="Roboto, sans-serif" font-size="14.00">Nutzungsm&#246;glichkeit Ende: 01.10.2023 00:00 Uhr</text>
</g>
<!-- 3&#45;&gt;A99 -->
<g id="edge6" class="edge">
<title>3-&gt;A99</title>
<path fill="none" stroke="#88a0d6" d="M741.25,-152.18C676.48,-136.21 576.61,-111.58 488.78,-89.92"/>
<polygon fill="#88a0d6" stroke="#88a0d6" points="489.88,-86.59 479.33,-87.59 488.2,-93.38 489.88,-86.59"/>
<text text-anchor="start" x="617.15" y="-110.23" font-family="Roboto, sans-serif" font-weight="bold" font-size="14.00">JA</text>
</g>
<!-- Stammdaten&#228;nderung vom MSB (verantwortlich) ausgehend starten -->
<g id="node8" class="node">
<title>Stammdaten&#228;nderung vom MSB (verantwortlich) ausgehend starten</title>
<path fill="#c4cac1" stroke="black" stroke-width="0" d="M1109.05,-61.64C1109.05,-61.64 627.25,-61.64 627.25,-61.64 621.25,-61.64 615.25,-55.64 615.25,-49.64 615.25,-49.64 615.25,-37.64 615.25,-37.64 615.25,-31.64 621.25,-25.64 627.25,-25.64 627.25,-25.64 1109.05,-25.64 1109.05,-25.64 1115.05,-25.64 1121.05,-31.64 1121.05,-37.64 1121.05,-37.64 1121.05,-49.64 1121.05,-49.64 1121.05,-55.64 1115.05,-61.64 1109.05,-61.64"/>
<text text-anchor="start" x="629.65" y="-38.97" font-family="Roboto, sans-serif" font-size="14.00">Stammdaten&#228;nderung vom MSB (verantwortlich) ausgehend starten</text>
</g>
<!-- 3&#45;&gt;Stammdaten&#228;nderung vom MSB (verantwortlich) ausgehend starten -->
<g id="edge7" class="edge">
<title>3-&gt;Stammdaten&#228;nderung vom MSB (verantwortlich) ausgehend starten</title>
<path fill="none" stroke="#88a0d6" d="M817.97,-152.38C827.57,-131.76 843.98,-96.54 855.41,-72"/>
<polygon fill="#88a0d6" stroke="#88a0d6" points="858.58,-73.48 859.63,-62.94 852.23,-70.53 858.58,-73.48"/>
<text text-anchor="start" x="839.15" y="-110.23" font-family="Roboto, sans-serif" font-weight="bold" font-size="14.00">NEIN</text>
</g>
</g>
</svg>
  </g>
</svg>
  </g>
</svg>
