<?xml version="1.0" encoding="UTF-8" standalone="no"?>
<!DOCTYPE svg PUBLIC "-//W3C//DTD SVG 1.1//EN"
 "http://www.w3.org/Graphics/SVG/1.1/DTD/svg11.dtd">
<!-- Generated by graphviz version 7.0.5 (20221223.1930)
 -->
<!-- Title: D Pages: 1 -->
<svg width="1086pt" height="372pt"
 viewBox="0.00 0.00 1085.50 372.00" xmlns="http://www.w3.org/2000/svg" xmlns:xlink="http://www.w3.org/1999/xlink">
<g id="graph0" class="graph" transform="scale(1 1) rotate(0) translate(4 368)">
<title>D</title>
<polygon fill="white" stroke="none" points="-4,4 -4,-368 1081.5,-368 1081.5,4 -4,4"/>
<text text-anchor="start" x="456.75" y="-346.6" font-family="Times,serif" font-weight="bold" font-size="18.00">Dummy Chapter</text>
<text text-anchor="start" x="448.75" y="-316.2" font-family="Times,serif" font-weight="bold" font-size="16.00">Dummy Subchapter</text>
<!-- Start -->
<g id="node1" class="node">
<title>Start</title>
<polygon fill="#7a8da1" stroke="black" points="677.5,-266 378.5,-266 378.5,-222 677.5,-222 677.5,-266"/>
<text text-anchor="start" x="499.5" y="-246.8" font-family="Times,serif" font-weight="bold" font-size="14.00">E_0495</text>
<text text-anchor="start" x="392.5" y="-234.4" font-family="Times,serif" font-weight="bold" text-decoration="underline" font-size="12.00">Prüfende Rolle:</text>
<text text-anchor="start" x="498.5" y="-234.4" font-family="Times,serif" font-weight="bold" font-size="12.00"> MSB der Marktlokation</text>
</g>
<!-- 1 -->
<g id="node2" class="node">
<title>1</title>
<path fill="#7aab8a" stroke="black" d="M636,-185C636,-185 420,-185 420,-185 414,-185 408,-179 408,-173 408,-173 408,-161 408,-161 408,-155 414,-149 420,-149 420,-149 636,-149 636,-149 642,-149 648,-155 648,-161 648,-161 648,-173 648,-173 648,-179 642,-185 636,-185"/>
<text text-anchor="start" x="422" y="-164.3" font-family="Times,serif" font-weight="bold" font-size="14.00">1: </text>
<text text-anchor="start" x="442" y="-164.3" font-family="Times,serif" font-size="14.00">Ist ein Fehler aufgetreten?</text>
</g>
<!-- Start&#45;&gt;1 -->
<g id="edge1" class="edge">
<title>Start&#45;&gt;1</title>
<path fill="none" stroke="black" d="M528,-221.71C528,-213.82 528,-204.75 528,-196.33"/>
<polygon fill="black" stroke="black" points="531.5,-196.57 528,-186.57 524.5,-196.57 531.5,-196.57"/>
</g>
<!-- A99 -->
<g id="node3" class="node">
<title>A99</title>
<polygon fill="#cca9ab" stroke="black" points="508,-98 0,-98 0,0 508,0 508,-98"/>
<text text-anchor="start" x="238.5" y="-81.8" font-family="Times,serif" font-weight="bold" font-size="14.00">A99</text>
<text text-anchor="start" x="12" y="-69.4" font-family="Times,serif" text-decoration="underline" font-size="12.00">Hinweis:</text>
<text text-anchor="start" x="12" y="-57.4" font-family="Times,serif" font-size="12.00">Cluster </text>
<text text-anchor="start" x="12" y="-45.4" font-family="Times,serif" font-size="12.00">Ablehnung</text>
<text text-anchor="start" x="12" y="-33.4" font-family="Times,serif" font-size="12.00">Sonstiges</text>
<text text-anchor="start" x="12" y="-21.4" font-family="Times,serif" font-size="12.00">Hinweis: Das identifizierte Problem ist in der Antwort zu beschreiben/benennen.</text>
<text text-anchor="start" x="12" y="-9.4" font-family="Times,serif" font-size="12.00">Nutzungsmöglichkeit Ende: offen</text>
</g>
<!-- 1&#45;&gt;A99 -->
<g id="edge2" class="edge">
<title>1&#45;&gt;A99</title>
<path fill="none" stroke="black" d="M486.68,-148.51C457.79,-136.28 417.57,-119.25 378.68,-102.78"/>
<polygon fill="black" stroke="black" points="380.26,-99.65 369.69,-98.98 377.53,-106.1 380.26,-99.65"/>
<text text-anchor="middle" x="447" y="-119.8" font-family="Times,serif" font-size="14.00">Ja</text>
</g>
<!-- A01 -->
<g id="node4" class="node">
<title>A01</title>
<polygon fill="#cca9ab" stroke="black" points="1077.5,-80 526.5,-80 526.5,-18 1077.5,-18 1077.5,-80"/>
<text text-anchor="start" x="786.5" y="-63.8" font-family="Times,serif" font-weight="bold" font-size="14.00">A01</text>
<text text-anchor="start" x="538.5" y="-51.4" font-family="Times,serif" text-decoration="underline" font-size="12.00">Hinweis:</text>
<text text-anchor="start" x="538.5" y="-39.4" font-family="Times,serif" font-size="12.00">Cluster Zustimmung</text>
<text text-anchor="start" x="538.5" y="-27.4" font-family="Times,serif" font-size="12.00">Antwort auf Bestellung der Zählzeitdefinitionen des LF ausgehend vom MSB versenden</text>
</g>
<!-- 1&#45;&gt;A01 -->
<g id="edge3" class="edge">
<title>1&#45;&gt;A01</title>
<path fill="none" stroke="black" d="M569.32,-148.51C609.03,-131.7 670.15,-105.82 719.79,-84.8"/>
<polygon fill="black" stroke="black" points="720.96,-88.11 728.81,-80.99 718.23,-81.66 720.96,-88.11"/>
<text text-anchor="middle" x="658" y="-119.8" font-family="Times,serif" font-size="14.00">Nein</text>
</g>
</g>
</svg>
