<?xml version="1.0" encoding="UTF-8" standalone="no"?>
<!DOCTYPE svg PUBLIC "-//W3C//DTD SVG 1.1//EN"
 "http://www.w3.org/Graphics/SVG/1.1/DTD/svg11.dtd">
<!-- Generated by graphviz version 7.0.5 (20221223.1930)
 -->
<!-- Title: D Pages: 1 -->
<svg width="4058pt" height="1274pt"
 viewBox="0.00 0.00 4058.00 1274.00" xmlns="http://www.w3.org/2000/svg" xmlns:xlink="http://www.w3.org/1999/xlink">
<g id="graph0" class="graph" transform="scale(1 1) rotate(0) translate(4 1270)">
<title>D</title>
<polygon fill="white" stroke="none" points="-4,4 -4,-1270 4054,-1270 4054,4 -4,4"/>
<text text-anchor="start" x="1996" y="-1248.6" font-family="Times,serif" font-weight="bold" font-size="18.00">GPKE</text>
<text text-anchor="start" x="1657" y="-1218.2" font-family="Times,serif" font-weight="bold" font-size="16.00">6.9.1: AD: Unterbrechung der Anschlussnutzung (Sperren) auf Anweisung des LF</text>
<!-- Start -->
<g id="node1" class="node">
<title>Start</title>
<polygon fill="#7a8da1" stroke="black" points="685.5,-1168 524.5,-1168 524.5,-1124 685.5,-1124 685.5,-1168"/>
<text text-anchor="start" x="576.5" y="-1148.8" font-family="Times,serif" font-weight="bold" font-size="14.00">E_0470</text>
<text text-anchor="start" x="538.5" y="-1136.4" font-family="Times,serif" font-weight="bold" text-decoration="underline" font-size="12.00">Prüfende Rolle:</text>
<text text-anchor="start" x="644.5" y="-1136.4" font-family="Times,serif" font-weight="bold" font-size="12.00"> NB</text>
</g>
<!-- 1 -->
<g id="node2" class="node">
<title>1</title>
<path fill="#7aab8a" stroke="black" d="M1198,-1087C1198,-1087 12,-1087 12,-1087 6,-1087 0,-1081 0,-1075 0,-1075 0,-1063 0,-1063 0,-1057 6,-1051 12,-1051 12,-1051 1198,-1051 1198,-1051 1204,-1051 1210,-1057 1210,-1063 1210,-1063 1210,-1075 1210,-1075 1210,-1081 1204,-1087 1198,-1087"/>
<text text-anchor="start" x="14" y="-1066.3" font-family="Times,serif" font-weight="bold" font-size="14.00">1: </text>
<text text-anchor="start" x="34" y="-1066.3" font-family="Times,serif" font-size="14.00">Liegt für die Marktlokation im Zeitraum von 6 WT ab dem frühestmöglichen Sperrtermin bereits ein Sperrauftrag vor bzw. ist die Marktlokation bereits gesperrt?</text>
</g>
<!-- Start&#45;&gt;1 -->
<g id="edge1" class="edge">
<title>Start&#45;&gt;1</title>
<path fill="none" stroke="black" d="M605,-1123.71C605,-1115.82 605,-1106.75 605,-1098.33"/>
<polygon fill="black" stroke="black" points="608.5,-1098.57 605,-1088.57 601.5,-1098.57 608.5,-1098.57"/>
</g>
<!-- A01 -->
<g id="node3" class="node">
<title>A01</title>
<polygon fill="#cca9ab" stroke="black" points="820.5,-1000 353.5,-1000 353.5,-938 820.5,-938 820.5,-1000"/>
<text text-anchor="start" x="571.5" y="-983.8" font-family="Times,serif" font-weight="bold" font-size="14.00">A01</text>
<text text-anchor="start" x="365.5" y="-971.4" font-family="Times,serif" text-decoration="underline" font-size="12.00">Hinweis:</text>
<text text-anchor="start" x="365.5" y="-959.4" font-family="Times,serif" font-size="12.00">Cluster: Ablehnung</text>
<text text-anchor="start" x="365.5" y="-947.4" font-family="Times,serif" font-size="12.00">Sperrauftrag für Marktlokation liegt bereits vor bzw. ist bereits gesperrt.</text>
</g>
<!-- 1&#45;&gt;A01 -->
<g id="edge2" class="edge">
<title>1&#45;&gt;A01</title>
<path fill="none" stroke="black" d="M601.86,-1050.93C599.87,-1040.05 597.18,-1025.44 594.65,-1011.64"/>
<polygon fill="black" stroke="black" points="598.09,-1011.02 592.84,-1001.82 591.21,-1012.28 598.09,-1011.02"/>
<text text-anchor="middle" x="606" y="-1021.8" font-family="Times,serif" font-size="14.00">Ja</text>
</g>
<!-- 2 -->
<g id="node4" class="node">
<title>2</title>
<path fill="#7aab8a" stroke="black" d="M2367,-987C2367,-987 851,-987 851,-987 845,-987 839,-981 839,-975 839,-975 839,-963 839,-963 839,-957 845,-951 851,-951 851,-951 2367,-951 2367,-951 2373,-951 2379,-957 2379,-963 2379,-963 2379,-975 2379,-975 2379,-981 2373,-987 2367,-987"/>
<text text-anchor="start" x="853" y="-966.3" font-family="Times,serif" font-weight="bold" font-size="14.00">2: </text>
<text text-anchor="start" x="873" y="-966.3" font-family="Times,serif" font-size="14.00">Ist im Zeitraum von 6 WT ab dem frühestmöglichen Sperrtermin an allen Messlokationen, welche der Marktlokation zugeordnet sind, der identische MSB zugeordnet, wie an der zu sperrenden Marktlokation?</text>
</g>
<!-- 1&#45;&gt;2 -->
<g id="edge3" class="edge">
<title>1&#45;&gt;2</title>
<path fill="none" stroke="black" d="M784.21,-1050.51C962.89,-1033.07 1236.31,-1006.38 1418.77,-988.57"/>
<polygon fill="black" stroke="black" points="1418.99,-992.06 1428.6,-987.61 1418.31,-985.1 1418.99,-992.06"/>
<text text-anchor="middle" x="1124" y="-1021.8" font-family="Times,serif" font-size="14.00">Nein</text>
</g>
<!-- A02 -->
<g id="node5" class="node">
<title>A02</title>
<polygon fill="#cca9ab" stroke="black" points="1748.5,-887 1163.5,-887 1163.5,-825 1748.5,-825 1748.5,-887"/>
<text text-anchor="start" x="1440.5" y="-870.8" font-family="Times,serif" font-weight="bold" font-size="14.00">A02</text>
<text text-anchor="start" x="1175.5" y="-858.4" font-family="Times,serif" text-decoration="underline" font-size="12.00">Hinweis:</text>
<text text-anchor="start" x="1175.5" y="-846.4" font-family="Times,serif" font-size="12.00">Cluster: Ablehnung</text>
<text text-anchor="start" x="1175.5" y="-834.4" font-family="Times,serif" font-size="12.00">An mindestens einer Messlokation ist ein anderer MSB zugeordnet als an der Marktlokation.</text>
</g>
<!-- 2&#45;&gt;A02 -->
<g id="edge4" class="edge">
<title>2&#45;&gt;A02</title>
<path fill="none" stroke="black" d="M1585.09,-950.66C1564.27,-935.55 1533.36,-913.13 1507.02,-894.01"/>
<polygon fill="black" stroke="black" points="1509.28,-891.33 1499.13,-888.29 1505.17,-897 1509.28,-891.33"/>
<text text-anchor="middle" x="1559" y="-908.8" font-family="Times,serif" font-size="14.00">Nein</text>
</g>
<!-- 3 -->
<g id="node6" class="node">
<title>3</title>
<path fill="#7aab8a" stroke="black" d="M2247,-874C2247,-874 1779,-874 1779,-874 1773,-874 1767,-868 1767,-862 1767,-862 1767,-850 1767,-850 1767,-844 1773,-838 1779,-838 1779,-838 2247,-838 2247,-838 2253,-838 2259,-844 2259,-850 2259,-850 2259,-862 2259,-862 2259,-868 2253,-874 2247,-874"/>
<text text-anchor="start" x="1781" y="-853.3" font-family="Times,serif" font-weight="bold" font-size="14.00">3: </text>
<text text-anchor="start" x="1801" y="-853.3" font-family="Times,serif" font-size="14.00">Liegt die zu sperrende Marktlokation in der Niederspannung?</text>
</g>
<!-- 2&#45;&gt;3 -->
<g id="edge5" class="edge">
<title>2&#45;&gt;3</title>
<path fill="none" stroke="black" d="M1672.57,-950.53C1744.69,-930.72 1862.16,-898.44 1938.51,-877.47"/>
<polygon fill="black" stroke="black" points="1939.29,-880.88 1948.01,-874.86 1937.44,-874.13 1939.29,-880.88"/>
<text text-anchor="middle" x="1843" y="-908.8" font-family="Times,serif" font-size="14.00">Ja</text>
</g>
<!-- A03 -->
<g id="node7" class="node">
<title>A03</title>
<polygon fill="#cca9ab" stroke="black" points="2000,-774 1690,-774 1690,-712 2000,-712 2000,-774"/>
<text text-anchor="start" x="1829.5" y="-757.8" font-family="Times,serif" font-weight="bold" font-size="14.00">A03</text>
<text text-anchor="start" x="1702" y="-745.4" font-family="Times,serif" text-decoration="underline" font-size="12.00">Hinweis:</text>
<text text-anchor="start" x="1702" y="-733.4" font-family="Times,serif" font-size="12.00">Cluster: Ablehnung</text>
<text text-anchor="start" x="1702" y="-721.4" font-family="Times,serif" font-size="12.00">Marktlokation ist nicht in der Niederspannung.</text>
</g>
<!-- 3&#45;&gt;A03 -->
<g id="edge6" class="edge">
<title>3&#45;&gt;A03</title>
<path fill="none" stroke="black" d="M1986.75,-837.66C1963.68,-822.42 1929.36,-799.74 1900.26,-780.51"/>
<polygon fill="black" stroke="black" points="1902.55,-777.83 1892.28,-775.24 1898.69,-783.67 1902.55,-777.83"/>
<text text-anchor="middle" x="1957" y="-795.8" font-family="Times,serif" font-size="14.00">Nein</text>
</g>
<!-- 4 -->
<g id="node8" class="node">
<title>4</title>
<path fill="#7aab8a" stroke="black" d="M2889.5,-761C2889.5,-761 2030.5,-761 2030.5,-761 2024.5,-761 2018.5,-755 2018.5,-749 2018.5,-749 2018.5,-737 2018.5,-737 2018.5,-731 2024.5,-725 2030.5,-725 2030.5,-725 2889.5,-725 2889.5,-725 2895.5,-725 2901.5,-731 2901.5,-737 2901.5,-737 2901.5,-749 2901.5,-749 2901.5,-755 2895.5,-761 2889.5,-761"/>
<text text-anchor="start" x="2032.5" y="-740.3" font-family="Times,serif" font-weight="bold" font-size="14.00">4: </text>
<text text-anchor="start" x="2052.5" y="-740.3" font-family="Times,serif" font-size="14.00">Sind weitere Marktlokationen von der Sperrung betroffen, für die dieser Sperrauftrag keine Wirkung entfalten darf?</text>
</g>
<!-- 3&#45;&gt;4 -->
<g id="edge7" class="edge">
<title>3&#45;&gt;4</title>
<path fill="none" stroke="black" d="M2083.34,-837.53C2163.45,-817.64 2294.17,-785.18 2378.62,-764.21"/>
<polygon fill="black" stroke="black" points="2379.38,-767.63 2388.24,-761.82 2377.69,-760.83 2379.38,-767.63"/>
<text text-anchor="middle" x="2271" y="-795.8" font-family="Times,serif" font-size="14.00">Ja</text>
</g>
<!-- A04 -->
<g id="node9" class="node">
<title>A04</title>
<polygon fill="#cca9ab" stroke="black" points="2507.5,-661 2056.5,-661 2056.5,-599 2507.5,-599 2507.5,-661"/>
<text text-anchor="start" x="2266.5" y="-644.8" font-family="Times,serif" font-weight="bold" font-size="14.00">A04</text>
<text text-anchor="start" x="2068.5" y="-632.4" font-family="Times,serif" text-decoration="underline" font-size="12.00">Hinweis:</text>
<text text-anchor="start" x="2068.5" y="-620.4" font-family="Times,serif" font-size="12.00">Cluster: Ablehnung</text>
<text text-anchor="start" x="2068.5" y="-608.4" font-family="Times,serif" font-size="12.00">Mindestens eine weitere Marktlokation ist von der Sperrung betroffen.</text>
</g>
<!-- 4&#45;&gt;A04 -->
<g id="edge8" class="edge">
<title>4&#45;&gt;A04</title>
<path fill="none" stroke="black" d="M2432.19,-724.66C2407.64,-709.35 2371.06,-686.54 2340.15,-667.26"/>
<polygon fill="black" stroke="black" points="2342.38,-664.53 2332.04,-662.21 2338.67,-670.47 2342.38,-664.53"/>
<text text-anchor="middle" x="2389" y="-682.8" font-family="Times,serif" font-size="14.00">Ja</text>
</g>
<!-- 5 -->
<g id="node10" class="node">
<title>5</title>
<path fill="#7aab8a" stroke="black" d="M3380,-648C3380,-648 2538,-648 2538,-648 2532,-648 2526,-642 2526,-636 2526,-636 2526,-624 2526,-624 2526,-618 2532,-612 2538,-612 2538,-612 3380,-612 3380,-612 3386,-612 3392,-618 3392,-624 3392,-624 3392,-636 3392,-636 3392,-642 3386,-648 3380,-648"/>
<text text-anchor="start" x="2540" y="-627.3" font-family="Times,serif" font-weight="bold" font-size="14.00">5: </text>
<text text-anchor="start" x="2560" y="-627.3" font-family="Times,serif" font-size="14.00">Liegt ein Verhinderungsgrund einer Sperrung (z. B. Betrieb lebensnotwendiger Geräte) an der Marktlokation vor?</text>
</g>
<!-- 4&#45;&gt;5 -->
<g id="edge9" class="edge">
<title>4&#45;&gt;5</title>
<path fill="none" stroke="black" d="M2538.52,-724.53C2628.32,-704.56 2775.07,-671.91 2869.3,-650.95"/>
<polygon fill="black" stroke="black" points="2870.05,-654.37 2879.05,-648.78 2868.53,-647.54 2870.05,-654.37"/>
<text text-anchor="middle" x="2757" y="-682.8" font-family="Times,serif" font-size="14.00">Nein</text>
</g>
<!-- A05 -->
<g id="node11" class="node">
<title>A05</title>
<polygon fill="#cca9ab" stroke="black" points="3015.5,-548 2720.5,-548 2720.5,-462 3015.5,-462 3015.5,-548"/>
<text text-anchor="start" x="2852.5" y="-531.8" font-family="Times,serif" font-weight="bold" font-size="14.00">A05</text>
<text text-anchor="start" x="2732.5" y="-519.4" font-family="Times,serif" text-decoration="underline" font-size="12.00">Hinweis:</text>
<text text-anchor="start" x="2732.5" y="-507.4" font-family="Times,serif" font-size="12.00">Cluster: Ablehnung</text>
<text text-anchor="start" x="2732.5" y="-495.4" font-family="Times,serif" font-size="12.00">Verhinderungsgrund liegt vor.</text>
<text text-anchor="start" x="2732.5" y="-483.4" font-family="Times,serif" font-size="12.00">Hinweis: Das identifizierte Problem ist in der</text>
<text text-anchor="start" x="2732.5" y="-471.4" font-family="Times,serif" font-size="12.00"> Antwort zu beschreiben/benennen.</text>
</g>
<!-- 5&#45;&gt;A05 -->
<g id="edge10" class="edge">
<title>5&#45;&gt;A05</title>
<path fill="none" stroke="black" d="M2946.15,-611.64C2935.71,-597.52 2920.41,-576.84 2906.11,-557.51"/>
<polygon fill="black" stroke="black" points="2909.07,-555.63 2900.31,-549.67 2903.45,-559.8 2909.07,-555.63"/>
<text text-anchor="middle" x="2929" y="-569.8" font-family="Times,serif" font-size="14.00">Ja</text>
</g>
<!-- 6 -->
<g id="node12" class="node">
<title>6</title>
<path fill="#7aab8a" stroke="black" d="M3346,-523C3346,-523 3046,-523 3046,-523 3040,-523 3034,-517 3034,-511 3034,-511 3034,-499 3034,-499 3034,-493 3040,-487 3046,-487 3046,-487 3346,-487 3346,-487 3352,-487 3358,-493 3358,-499 3358,-499 3358,-511 3358,-511 3358,-517 3352,-523 3346,-523"/>
<text text-anchor="start" x="3048" y="-502.3" font-family="Times,serif" font-weight="bold" font-size="14.00">6: </text>
<text text-anchor="start" x="3068" y="-502.3" font-family="Times,serif" font-size="14.00">Ist der Sperrauftrag termingebunden?</text>
</g>
<!-- 5&#45;&gt;6 -->
<g id="edge11" class="edge">
<title>5&#45;&gt;6</title>
<path fill="none" stroke="black" d="M2992.7,-611.51C3034.64,-589.74 3106.34,-552.53 3152.42,-528.62"/>
<polygon fill="black" stroke="black" points="3153.8,-531.84 3161.07,-524.13 3150.58,-525.63 3153.8,-531.84"/>
<text text-anchor="middle" x="3095" y="-569.8" font-family="Times,serif" font-size="14.00">Nein</text>
</g>
<!-- 7 -->
<g id="node13" class="node">
<title>7</title>
<path fill="#7aab8a" stroke="black" d="M3034,-411C3034,-411 2184,-411 2184,-411 2178,-411 2172,-405 2172,-399 2172,-399 2172,-387 2172,-387 2172,-381 2178,-375 2184,-375 2184,-375 3034,-375 3034,-375 3040,-375 3046,-381 3046,-387 3046,-387 3046,-399 3046,-399 3046,-405 3040,-411 3034,-411"/>
<text text-anchor="start" x="2186" y="-390.3" font-family="Times,serif" font-weight="bold" font-size="14.00">7: </text>
<text text-anchor="start" x="2206" y="-390.3" font-family="Times,serif" font-size="14.00">Liegt der übermittelte Sperrtermin mindestens 12 WT nach dem Eingangsdatum der Nachricht des Sperrauftrags?</text>
</g>
<!-- 6&#45;&gt;7 -->
<g id="edge12" class="edge">
<title>6&#45;&gt;7</title>
<path fill="none" stroke="black" d="M3129.7,-486.55C3097.86,-478.49 3059.09,-469.15 3024,-462 2930.39,-442.93 2824.06,-425.59 2742.46,-413.19"/>
<polygon fill="black" stroke="black" points="2743.02,-409.74 2732.61,-411.7 2741.98,-416.66 2743.02,-409.74"/>
<text text-anchor="middle" x="2930" y="-432.8" font-family="Times,serif" font-size="14.00">Ja</text>
</g>
<!-- 8 -->
<g id="node15" class="node">
<title>8</title>
<path fill="#7aab8a" stroke="black" d="M4038,-411C4038,-411 3076,-411 3076,-411 3070,-411 3064,-405 3064,-399 3064,-399 3064,-387 3064,-387 3064,-381 3070,-375 3076,-375 3076,-375 4038,-375 4038,-375 4044,-375 4050,-381 4050,-387 4050,-387 4050,-399 4050,-399 4050,-405 4044,-411 4038,-411"/>
<text text-anchor="start" x="3078" y="-390.3" font-family="Times,serif" font-weight="bold" font-size="14.00">8: </text>
<text text-anchor="start" x="3098" y="-390.3" font-family="Times,serif" font-size="14.00">Liegt der übermittelte frühestmögliche Sperrtermin mindestens 6 WT nach dem Eingangsdatum der Nachricht des Sperrauftrags?</text>
</g>
<!-- 6&#45;&gt;8 -->
<g id="edge13" class="edge">
<title>6&#45;&gt;8</title>
<path fill="none" stroke="black" d="M3253.2,-486.57C3317.27,-467.05 3421.04,-435.43 3489.15,-414.67"/>
<polygon fill="black" stroke="black" points="3489.77,-418.14 3498.32,-411.88 3487.73,-411.45 3489.77,-418.14"/>
<text text-anchor="middle" x="3457" y="-432.8" font-family="Times,serif" font-size="14.00">Nein</text>
</g>
<!-- A06 -->
<g id="node14" class="node">
<title>A06</title>
<polygon fill="#cca9ab" stroke="black" points="2799.5,-324 2418.5,-324 2418.5,-262 2799.5,-262 2799.5,-324"/>
<text text-anchor="start" x="2593.5" y="-307.8" font-family="Times,serif" font-weight="bold" font-size="14.00">A06</text>
<text text-anchor="start" x="2430.5" y="-295.4" font-family="Times,serif" text-decoration="underline" font-size="12.00">Hinweis:</text>
<text text-anchor="start" x="2430.5" y="-283.4" font-family="Times,serif" font-size="12.00">Cluster: Ablehnung</text>
<text text-anchor="start" x="2430.5" y="-271.4" font-family="Times,serif" font-size="12.00">Fristverletzung bei einem termingebundenen Sperrauftrag.</text>
</g>
<!-- 7&#45;&gt;A06 -->
<g id="edge14" class="edge">
<title>7&#45;&gt;A06</title>
<path fill="none" stroke="black" d="M2609,-374.93C2609,-364.05 2609,-349.44 2609,-335.64"/>
<polygon fill="black" stroke="black" points="2612.5,-335.84 2609,-325.84 2605.5,-335.84 2612.5,-335.84"/>
<text text-anchor="middle" x="2626" y="-345.8" font-family="Times,serif" font-size="14.00">Nein</text>
</g>
<!-- 9 -->
<g id="node17" class="node">
<title>9</title>
<path fill="#7aab8a" stroke="black" d="M3274.5,-311C3274.5,-311 2875.5,-311 2875.5,-311 2869.5,-311 2863.5,-305 2863.5,-299 2863.5,-299 2863.5,-287 2863.5,-287 2863.5,-281 2869.5,-275 2875.5,-275 2875.5,-275 3274.5,-275 3274.5,-275 3280.5,-275 3286.5,-281 3286.5,-287 3286.5,-287 3286.5,-299 3286.5,-299 3286.5,-305 3280.5,-311 3274.5,-311"/>
<text text-anchor="start" x="2877.5" y="-290.3" font-family="Times,serif" font-weight="bold" font-size="14.00">9: </text>
<text text-anchor="start" x="2897.5" y="-290.3" font-family="Times,serif" font-size="14.00">Ist ein zuvor nicht spezifizierter Fehler aufgetreten?</text>
</g>
<!-- 7&#45;&gt;9 -->
<g id="edge15" class="edge">
<title>7&#45;&gt;9</title>
<path fill="none" stroke="black" d="M2692.04,-374.54C2773.06,-357.5 2896.12,-331.62 2980.76,-313.82"/>
<polygon fill="black" stroke="black" points="2981.37,-317.27 2990.44,-311.78 2979.93,-310.42 2981.37,-317.27"/>
<text text-anchor="middle" x="2849" y="-345.8" font-family="Times,serif" font-size="14.00">Ja</text>
</g>
<!-- A07 -->
<g id="node16" class="node">
<title>A07</title>
<polygon fill="#cca9ab" stroke="black" points="3764.5,-324 3349.5,-324 3349.5,-262 3764.5,-262 3764.5,-324"/>
<text text-anchor="start" x="3541.5" y="-307.8" font-family="Times,serif" font-weight="bold" font-size="14.00">A07</text>
<text text-anchor="start" x="3361.5" y="-295.4" font-family="Times,serif" text-decoration="underline" font-size="12.00">Hinweis:</text>
<text text-anchor="start" x="3361.5" y="-283.4" font-family="Times,serif" font-size="12.00">Cluster: Ablehnung</text>
<text text-anchor="start" x="3361.5" y="-271.4" font-family="Times,serif" font-size="12.00">Fristverletzung bei einem nicht termingebundenen Sperrauftrag.</text>
</g>
<!-- 8&#45;&gt;A07 -->
<g id="edge16" class="edge">
<title>8&#45;&gt;A07</title>
<path fill="none" stroke="black" d="M3557,-374.93C3557,-364.05 3557,-349.44 3557,-335.64"/>
<polygon fill="black" stroke="black" points="3560.5,-335.84 3557,-325.84 3553.5,-335.84 3560.5,-335.84"/>
<text text-anchor="middle" x="3574" y="-345.8" font-family="Times,serif" font-size="14.00">Nein</text>
</g>
<!-- 8&#45;&gt;9 -->
<g id="edge17" class="edge">
<title>8&#45;&gt;9</title>
<path fill="none" stroke="black" d="M3471.11,-374.54C3387.23,-357.48 3259.76,-331.57 3172.21,-313.76"/>
<polygon fill="black" stroke="black" points="3172.91,-310.34 3162.42,-311.77 3171.52,-317.2 3172.91,-310.34"/>
<text text-anchor="middle" x="3381" y="-345.8" font-family="Times,serif" font-size="14.00">Ja</text>
</g>
<!-- A99 -->
<g id="node18" class="node">
<title>A99</title>
<polygon fill="#cca9ab" stroke="black" points="3099,-211 2773,-211 2773,-113 3099,-113 3099,-211"/>
<text text-anchor="start" x="2920.5" y="-194.8" font-family="Times,serif" font-weight="bold" font-size="14.00">A99</text>
<text text-anchor="start" x="2785" y="-182.4" font-family="Times,serif" text-decoration="underline" font-size="12.00">Hinweis:</text>
<text text-anchor="start" x="2785" y="-170.4" font-family="Times,serif" font-size="12.00">Cluster: Ablehnung</text>
<text text-anchor="start" x="2785" y="-158.4" font-family="Times,serif" font-size="12.00">Sonstiges</text>
<text text-anchor="start" x="2785" y="-146.4" font-family="Times,serif" font-size="12.00">Hinweis: Das identifizierte Problem ist in der </text>
<text text-anchor="start" x="2785" y="-134.4" font-family="Times,serif" font-size="12.00">Antwort zu beschreiben/benennen.</text>
<text text-anchor="start" x="2785" y="-122.4" font-family="Times,serif" font-size="12.00">Nutzungsmöglichkeit Ende: 01.10.2023 00:00 Uhr</text>
</g>
<!-- 9&#45;&gt;A99 -->
<g id="edge18" class="edge">
<title>9&#45;&gt;A99</title>
<path fill="none" stroke="black" d="M3056.25,-274.6C3040.81,-260.27 3018.02,-239.12 2996.42,-219.07"/>
<polygon fill="black" stroke="black" points="2999.04,-216.73 2989.33,-212.49 2994.28,-221.86 2999.04,-216.73"/>
<text text-anchor="middle" x="3030" y="-232.8" font-family="Times,serif" font-size="14.00">Ja</text>
</g>
<!-- 10 -->
<g id="node19" class="node">
<title>10</title>
<path fill="#7aab8a" stroke="black" d="M3782.5,-180C3782.5,-180 3129.5,-180 3129.5,-180 3123.5,-180 3117.5,-174 3117.5,-168 3117.5,-168 3117.5,-156 3117.5,-156 3117.5,-150 3123.5,-144 3129.5,-144 3129.5,-144 3782.5,-144 3782.5,-144 3788.5,-144 3794.5,-150 3794.5,-156 3794.5,-156 3794.5,-168 3794.5,-168 3794.5,-174 3788.5,-180 3782.5,-180"/>
<text text-anchor="start" x="3131.5" y="-159.3" font-family="Times,serif" font-weight="bold" font-size="14.00">10: </text>
<text text-anchor="start" x="3161.5" y="-159.3" font-family="Times,serif" font-size="14.00">Kann der Sperrauftrag pauschal über das elektronische Preisblatt abgebildet werden?</text>
</g>
<!-- 9&#45;&gt;10 -->
<g id="edge19" class="edge">
<title>9&#45;&gt;10</title>
<path fill="none" stroke="black" d="M3126.38,-274.6C3195.79,-251.1 3319.36,-209.26 3393.89,-184.03"/>
<polygon fill="black" stroke="black" points="3394.74,-187.44 3403.09,-180.92 3392.49,-180.81 3394.74,-187.44"/>
<text text-anchor="middle" x="3272" y="-232.8" font-family="Times,serif" font-size="14.00">Nein</text>
</g>
<!-- A08 -->
<g id="node20" class="node">
<title>A08</title>
<polygon fill="#cca9ab" stroke="black" points="3432.5,-62 3045.5,-62 3045.5,0 3432.5,0 3432.5,-62"/>
<text text-anchor="start" x="3223.5" y="-45.8" font-family="Times,serif" font-weight="bold" font-size="14.00">A08</text>
<text text-anchor="start" x="3057.5" y="-33.4" font-family="Times,serif" text-decoration="underline" font-size="12.00">Hinweis:</text>
<text text-anchor="start" x="3057.5" y="-21.4" font-family="Times,serif" font-size="12.00">Cluster: Zustimmung</text>
<text text-anchor="start" x="3057.5" y="-9.4" font-family="Times,serif" font-size="12.00">Sperrung wird über das elektronische Preisblatt abgebildet.</text>
</g>
<!-- 10&#45;&gt;A08 -->
<g id="edge20" class="edge">
<title>10&#45;&gt;A08</title>
<path fill="none" stroke="black" d="M3426.73,-143.6C3394.39,-124.37 3341.39,-92.87 3299.94,-68.23"/>
<polygon fill="black" stroke="black" points="3301.89,-65.32 3291.51,-63.21 3298.32,-71.33 3301.89,-65.32"/>
<text text-anchor="middle" x="3348" y="-83.8" font-family="Times,serif" font-size="14.00">Ja</text>
</g>
<!-- A09 -->
<g id="node21" class="node">
<title>A09</title>
<polygon fill="#cca9ab" stroke="black" points="3893,-62 3451,-62 3451,0 3893,0 3893,-62"/>
<text text-anchor="start" x="3656.5" y="-45.8" font-family="Times,serif" font-weight="bold" font-size="14.00">A09</text>
<text text-anchor="start" x="3463" y="-33.4" font-family="Times,serif" text-decoration="underline" font-size="12.00">Hinweis:</text>
<text text-anchor="start" x="3463" y="-21.4" font-family="Times,serif" font-size="12.00">Cluster: Zustimmung</text>
<text text-anchor="start" x="3463" y="-9.4" font-family="Times,serif" font-size="12.00">Die individuellen Sperrkosten werden in der Nachricht ausgetauscht.</text>
</g>
<!-- 10&#45;&gt;A09 -->
<g id="edge21" class="edge">
<title>10&#45;&gt;A09</title>
<path fill="none" stroke="black" d="M3485.13,-143.6C3517.33,-124.37 3570.08,-92.87 3611.34,-68.23"/>
<polygon fill="black" stroke="black" points="3612.94,-71.35 3619.73,-63.22 3609.35,-65.34 3612.94,-71.35"/>
<text text-anchor="middle" x="3606" y="-83.8" font-family="Times,serif" font-size="14.00">Nein</text>
</g>
</g>
</svg>
