<?xml version='1.0' encoding='ASCII' standalone='yes'?>
<svg xmlns="http://www.w3.org/2000/svg" xmlns:xlink="http://www.w3.org/1999/xlink" version="1.1" width="1710.6666666666667px" viewBox="0 0 1710.6666666666667 1069.3333333333333" height="1069.3333333333333px">
  <g>
    <svg version="1.1" width="1710.6666666666667px" viewBox="0 0 1710.6666666666667 1069.3333333333333" height="1069.3333333333333px">
  <rect fill="#e7e6e5" x="0" y="0" width="1710.6666666666667" height="1069.3333333333333" rx="20" ry="20"/><g>
    <g transform="translate(419.2585375011734, 106.93333333333331) scale(1 1) translate(0, 0) scale(1.5056791514127477 1.5056791514127477) "><!-- note that I manually added the width and height attribute to the root node
  https://chatgpt.com/share/678e3028-70cc-800b-a296-782714735772
  -->
  <defs>
    <style>.cls-1{fill:#fff;}</style>
  </defs>
  <path class="cls-1" d="M122.44,531.2h-56.1c-11,0-19.9-9.12-19.46-20.11C57.47,243.89,278.15,29.78,547.91,29.78v56.02c0,10.98-8.69,19.89-19.66,20.39-225.51,10.31-405.8,197-405.8,425Z"/>
  <path class="cls-1" d="M273.78,531.2h-55.93c-11.23,0-20.09-9.48-19.43-20.69,10.74-183.44,163.39-329.39,349.48-329.39v56.26c0,10.71-8.27,19.62-18.96,20.35-142.35,9.77-255.17,128.69-255.17,273.46Z"/>
  <path class="cls-1" d="M425.77,531.2h-55.45c-11.65,0-20.6-10.17-19.33-21.75,10.87-99.03,95.03-176.34,196.92-176.34v57.01c0,10.05-7.28,18.75-17.23,20.16-59.22,8.4-104.91,59.42-104.91,120.92Z"/>
</g>
    <svg width="1283pt" height="802pt" viewBox="0.00 0.00 1283.43 801.68">
<g id="graph0" class="graph" transform="scale(1 1) rotate(0) translate(4 797.68)">
<title>D</title>
<text text-anchor="start" x="273.96" y="-773.58" font-family="Roboto, sans-serif" font-weight="bold" font-size="18.00">GPKE</text>
<text text-anchor="start" x="273.96" y="-745.48" font-family="Roboto, sans-serif" font-weight="bold" font-size="16.00">6.9.2: AD: Unterbrechung der Anschlussnutzung (Sperren) auf Anweisung des LF</text>
<!-- Start -->
<g id="node1" class="node">
<title>Start</title>
<path fill="#8ba2d7" stroke="black" stroke-width="0" d="M491.8,-703.68C491.8,-703.68 343,-703.68 343,-703.68 337,-703.68 331,-697.68 331,-691.68 331,-691.68 331,-670.4 331,-670.4 331,-664.4 337,-658.4 343,-658.4 343,-658.4 491.8,-658.4 491.8,-658.4 497.8,-658.4 503.8,-664.4 503.8,-670.4 503.8,-670.4 503.8,-691.68 503.8,-691.68 503.8,-697.68 497.8,-703.68 491.8,-703.68"/>
<text text-anchor="start" x="345.4" y="-682.74" font-family="Roboto, sans-serif" font-weight="bold" font-size="14.00">E_0488</text>
<text text-anchor="start" x="345.4" y="-668.74" font-family="Roboto, sans-serif" font-size="14.00">Pr&#252;fende Rolle: </text>
<text text-anchor="start" x="454.9" y="-668.74" font-family="Roboto, sans-serif" font-weight="bold" font-size="14.00">MSB</text>
</g>
<!-- 1 -->
<g id="node2" class="node">
<title>1</title>
<path fill="#c2cee9" stroke="black" stroke-width="0" d="M651.17,-621.4C651.17,-621.4 183.62,-621.4 183.62,-621.4 177.62,-621.4 171.62,-615.4 171.62,-609.4 171.62,-609.4 171.62,-588.12 171.62,-588.12 171.62,-582.12 177.62,-576.12 183.62,-576.12 183.62,-576.12 651.17,-576.12 651.17,-576.12 657.17,-576.12 663.17,-582.12 663.17,-588.12 663.17,-588.12 663.17,-609.4 663.17,-609.4 663.17,-615.4 657.17,-621.4 651.17,-621.4"/>
<text text-anchor="start" x="186.02" y="-600.46" font-family="Roboto, sans-serif" font-weight="bold" font-size="14.00">1: </text>
<text text-anchor="start" x="205.52" y="-600.46" font-family="Roboto, sans-serif" font-size="14.00">Hat der MSB die generelle Zustimmung zur Durchf&#252;hrung einer</text>
<text text-anchor="start" x="186.02" y="-586.46" font-family="Roboto, sans-serif" font-size="14.00">Entsperrung/Sperrung dem NB erteilt?</text>
</g>
<!-- Start&#45;&gt;1 -->
<g id="edge1" class="edge">
<title>Start-&gt;1</title>
<path fill="none" stroke="#88a0d6" d="M417.4,-658.53C417.4,-650.61 417.4,-641.45 417.4,-632.75"/>
<polygon fill="#88a0d6" stroke="#88a0d6" points="420.9,-632.85 417.4,-622.85 413.9,-632.85 420.9,-632.85"/>
</g>
<!-- A01 -->
<g id="node3" class="node">
<title>A01</title>
<path fill="#c4cac1" stroke="black" stroke-width="0" d="M514.8,-522.87C514.8,-522.87 12,-522.87 12,-522.87 6,-522.87 0,-516.87 0,-510.87 0,-510.87 0,-461.59 0,-461.59 0,-455.59 6,-449.59 12,-449.59 12,-449.59 514.8,-449.59 514.8,-449.59 520.8,-449.59 526.8,-455.59 526.8,-461.59 526.8,-461.59 526.8,-510.87 526.8,-510.87 526.8,-516.87 520.8,-522.87 514.8,-522.87"/>
<text text-anchor="start" x="14.4" y="-501.93" font-family="Roboto, sans-serif" font-weight="bold" font-size="14.00">A01</text>
<text text-anchor="start" x="14.4" y="-473.93" font-family="Roboto, sans-serif" font-size="14.00">Cluster: Zustimmung</text>
<text text-anchor="start" x="14.4" y="-459.93" font-family="Roboto, sans-serif" font-size="14.00">Generelle Zustimmung des MSB f&#252;r die Sperrung/Entsperrung liegt vor.</text>
</g>
<!-- 1&#45;&gt;A01 -->
<g id="edge2" class="edge">
<title>1-&gt;A01</title>
<path fill="none" stroke="#88a0d6" d="M387.34,-576.19C368.72,-562.82 344.19,-545.21 321.86,-529.19"/>
<polygon fill="#88a0d6" stroke="#88a0d6" points="324.17,-526.54 314.01,-523.55 320.09,-532.23 324.17,-526.54"/>
<text text-anchor="start" x="358.4" y="-545.82" font-family="Roboto, sans-serif" font-weight="bold" font-size="14.00">JA</text>
</g>
<!-- 2 -->
<g id="node4" class="node">
<title>2</title>
<path fill="#c2cee9" stroke="black" stroke-width="0" d="M1129.67,-508.87C1129.67,-508.87 557.12,-508.87 557.12,-508.87 551.12,-508.87 545.12,-502.87 545.12,-496.87 545.12,-496.87 545.12,-475.59 545.12,-475.59 545.12,-469.59 551.12,-463.59 557.12,-463.59 557.12,-463.59 1129.67,-463.59 1129.67,-463.59 1135.67,-463.59 1141.67,-469.59 1141.67,-475.59 1141.67,-475.59 1141.67,-496.87 1141.67,-496.87 1141.67,-502.87 1135.67,-508.87 1129.67,-508.87"/>
<text text-anchor="start" x="559.52" y="-487.93" font-family="Roboto, sans-serif" font-weight="bold" font-size="14.00">2: </text>
<text text-anchor="start" x="579.02" y="-487.93" font-family="Roboto, sans-serif" font-size="14.00">Liegt ein Verhinderungsgrund einer Sperrung (z. B. Betrieb lebensnotwendiger</text>
<text text-anchor="start" x="559.52" y="-473.93" font-family="Roboto, sans-serif" font-size="14.00">Ger&#228;te) an der Marktlokation vor?</text>
</g>
<!-- 1&#45;&gt;2 -->
<g id="edge3" class="edge">
<title>1-&gt;2</title>
<path fill="none" stroke="#88a0d6" d="M500.8,-576.12C572.26,-557.58 675.1,-530.9 749.44,-511.61"/>
<polygon fill="#88a0d6" stroke="#88a0d6" points="749.93,-515.1 758.73,-509.2 748.17,-508.32 749.93,-515.1"/>
<text text-anchor="start" x="630.4" y="-545.82" font-family="Roboto, sans-serif" font-weight="bold" font-size="14.00">NEIN</text>
</g>
<!-- A02 -->
<g id="node5" class="node">
<title>A02</title>
<path fill="#c4cac1" stroke="black" stroke-width="0" d="M609.55,-396.34C609.55,-396.34 297.25,-396.34 297.25,-396.34 291.25,-396.34 285.25,-390.34 285.25,-384.34 285.25,-384.34 285.25,-307.06 285.25,-307.06 285.25,-301.06 291.25,-295.06 297.25,-295.06 297.25,-295.06 609.55,-295.06 609.55,-295.06 615.55,-295.06 621.55,-301.06 621.55,-307.06 621.55,-307.06 621.55,-384.34 621.55,-384.34 621.55,-390.34 615.55,-396.34 609.55,-396.34"/>
<text text-anchor="start" x="299.65" y="-375.4" font-family="Roboto, sans-serif" font-weight="bold" font-size="14.00">A02</text>
<text text-anchor="start" x="299.65" y="-347.4" font-family="Roboto, sans-serif" font-size="14.00">Cluster: Ablehnung</text>
<text text-anchor="start" x="299.65" y="-333.4" font-family="Roboto, sans-serif" font-size="14.00">Verhinderungsgrund liegt vor.</text>
<text text-anchor="start" x="299.65" y="-319.4" font-family="Roboto, sans-serif" font-size="14.00">Hinweis: Das identifizierte Problem ist in der</text>
<text text-anchor="start" x="299.65" y="-305.4" font-family="Roboto, sans-serif" font-size="14.00"> Antwort zu beschreiben/benennen.</text>
</g>
<!-- 2&#45;&gt;A02 -->
<g id="edge4" class="edge">
<title>2-&gt;A02</title>
<path fill="none" stroke="#88a0d6" d="M782.89,-463.74C735.06,-446.75 666.18,-422.28 603.75,-400.1"/>
<polygon fill="#88a0d6" stroke="#88a0d6" points="605,-396.84 594.41,-396.79 602.66,-403.43 605,-396.84"/>
<text text-anchor="start" x="682.4" y="-419.29" font-family="Roboto, sans-serif" font-weight="bold" font-size="14.00">JA</text>
</g>
<!-- 3 -->
<g id="node6" class="node">
<title>3</title>
<path fill="#c2cee9" stroke="black" stroke-width="0" d="M1197.55,-363.7C1197.55,-363.7 651.25,-363.7 651.25,-363.7 645.25,-363.7 639.25,-357.7 639.25,-351.7 639.25,-351.7 639.25,-339.7 639.25,-339.7 639.25,-333.7 645.25,-327.7 651.25,-327.7 651.25,-327.7 1197.55,-327.7 1197.55,-327.7 1203.55,-327.7 1209.55,-333.7 1209.55,-339.7 1209.55,-339.7 1209.55,-351.7 1209.55,-351.7 1209.55,-357.7 1203.55,-363.7 1197.55,-363.7"/>
<text text-anchor="start" x="653.65" y="-342.02" font-family="Roboto, sans-serif" font-weight="bold" font-size="14.00">3: </text>
<text text-anchor="start" x="673.15" y="-342.02" font-family="Roboto, sans-serif" font-size="14.00">Liegen dem MSB technische Gr&#252;nde f&#252;r eine Ablehnung der Sperrung vor?</text>
</g>
<!-- 2&#45;&gt;3 -->
<g id="edge5" class="edge">
<title>2-&gt;3</title>
<path fill="none" stroke="#88a0d6" d="M855.88,-463.89C870.14,-439.5 893.49,-399.56 908.9,-373.2"/>
<polygon fill="#88a0d6" stroke="#88a0d6" points="911.79,-375.2 913.82,-364.8 905.75,-371.66 911.79,-375.2"/>
<text text-anchor="start" x="883.4" y="-419.29" font-family="Roboto, sans-serif" font-weight="bold" font-size="14.00">NEIN</text>
</g>
<!-- A03 -->
<g id="node7" class="node">
<title>A03</title>
<path fill="#c4cac1" stroke="black" stroke-width="0" d="M658.67,-241.81C658.67,-241.81 332.12,-241.81 332.12,-241.81 326.12,-241.81 320.12,-235.81 320.12,-229.81 320.12,-229.81 320.12,-152.53 320.12,-152.53 320.12,-146.53 326.12,-140.53 332.12,-140.53 332.12,-140.53 658.67,-140.53 658.67,-140.53 664.67,-140.53 670.67,-146.53 670.67,-152.53 670.67,-152.53 670.67,-229.81 670.67,-229.81 670.67,-235.81 664.67,-241.81 658.67,-241.81"/>
<text text-anchor="start" x="334.52" y="-220.87" font-family="Roboto, sans-serif" font-weight="bold" font-size="14.00">A03</text>
<text text-anchor="start" x="334.52" y="-192.87" font-family="Roboto, sans-serif" font-size="14.00">Cluster: Ablehnung</text>
<text text-anchor="start" x="334.52" y="-178.87" font-family="Roboto, sans-serif" font-size="14.00">Es liegt ein technischer Ablehnungsgrund vor.</text>
<text text-anchor="start" x="334.52" y="-164.87" font-family="Roboto, sans-serif" font-size="14.00">Hinweis: Das identifizierte Problem ist in der</text>
<text text-anchor="start" x="334.52" y="-150.87" font-family="Roboto, sans-serif" font-size="14.00"> Antwort zu beschreiben/benennen.</text>
</g>
<!-- 3&#45;&gt;A03 -->
<g id="edge6" class="edge">
<title>3-&gt;A03</title>
<path fill="none" stroke="#88a0d6" d="M876.85,-327.79C821.31,-308.05 726.7,-274.41 645.6,-245.57"/>
<polygon fill="#88a0d6" stroke="#88a0d6" points="646.79,-242.28 636.19,-242.23 644.44,-248.88 646.79,-242.28"/>
<text text-anchor="start" x="722.4" y="-264.76" font-family="Roboto, sans-serif" font-weight="bold" font-size="14.00">JA</text>
</g>
<!-- 4 -->
<g id="node8" class="node">
<title>4</title>
<path fill="#c2cee9" stroke="black" stroke-width="0" d="M1248.3,-209.17C1248.3,-209.17 700.5,-209.17 700.5,-209.17 694.5,-209.17 688.5,-203.17 688.5,-197.17 688.5,-197.17 688.5,-185.17 688.5,-185.17 688.5,-179.17 694.5,-173.17 700.5,-173.17 700.5,-173.17 1248.3,-173.17 1248.3,-173.17 1254.3,-173.17 1260.3,-179.17 1260.3,-185.17 1260.3,-185.17 1260.3,-197.17 1260.3,-197.17 1260.3,-203.17 1254.3,-209.17 1248.3,-209.17"/>
<text text-anchor="start" x="702.9" y="-187.5" font-family="Roboto, sans-serif" font-weight="bold" font-size="14.00">4: </text>
<text text-anchor="start" x="722.4" y="-187.5" font-family="Roboto, sans-serif" font-size="14.00">Ist eine Mitwirkung des MSB bei Entsperrung/Sperrung vor Ort gew&#252;nscht?</text>
</g>
<!-- 3&#45;&gt;4 -->
<g id="edge7" class="edge">
<title>3-&gt;4</title>
<path fill="none" stroke="#88a0d6" d="M929.94,-327.79C938.5,-301.68 955.03,-251.27 965.34,-219.81"/>
<polygon fill="#88a0d6" stroke="#88a0d6" points="968.57,-221.18 968.36,-210.59 961.92,-219 968.57,-221.18"/>
<text text-anchor="start" x="950.4" y="-264.76" font-family="Roboto, sans-serif" font-weight="bold" font-size="14.00">NEIN</text>
</g>
<!-- A04 -->
<g id="node9" class="node">
<title>A04</title>
<path fill="#c4cac1" stroke="black" stroke-width="0" d="M676.92,-87.28C676.92,-87.28 105.88,-87.28 105.88,-87.28 99.88,-87.28 93.88,-81.28 93.88,-75.28 93.88,-75.28 93.88,-12 93.88,-12 93.88,-6 99.88,0 105.88,0 105.88,0 676.92,0 676.92,0 682.92,0 688.92,-6 688.92,-12 688.92,-12 688.92,-75.28 688.92,-75.28 688.92,-81.28 682.92,-87.28 676.92,-87.28"/>
<text text-anchor="start" x="108.27" y="-66.34" font-family="Roboto, sans-serif" font-weight="bold" font-size="14.00">A04</text>
<text text-anchor="start" x="108.27" y="-38.34" font-family="Roboto, sans-serif" font-size="14.00">Cluster: Zustimmung</text>
<text text-anchor="start" x="108.27" y="-24.34" font-family="Roboto, sans-serif" font-size="14.00">MSB hat Durchf&#252;hrung der Sperrung und Entsperrung unter Mitwirkung des MSB</text>
<text text-anchor="start" x="108.27" y="-10.34" font-family="Roboto, sans-serif" font-size="14.00">zugestimmt.</text>
</g>
<!-- 4&#45;&gt;A04 -->
<g id="edge8" class="edge">
<title>4-&gt;A04</title>
<path fill="none" stroke="#88a0d6" d="M906.38,-173.19C825.2,-152.93 686.22,-118.23 573.08,-89.99"/>
<polygon fill="#88a0d6" stroke="#88a0d6" points="574.24,-86.67 563.69,-87.65 572.54,-93.46 574.24,-86.67"/>
<text text-anchor="start" x="699.4" y="-110.23" font-family="Roboto, sans-serif" font-weight="bold" font-size="14.00">JA</text>
</g>
<!-- A05 -->
<g id="node10" class="node">
<title>A05</title>
<path fill="#c4cac1" stroke="black" stroke-width="0" d="M1263.42,-80.28C1263.42,-80.28 719.38,-80.28 719.38,-80.28 713.38,-80.28 707.38,-74.28 707.38,-68.28 707.38,-68.28 707.38,-19 707.38,-19 707.38,-13 713.38,-7 719.38,-7 719.38,-7 1263.42,-7 1263.42,-7 1269.42,-7 1275.42,-13 1275.42,-19 1275.42,-19 1275.42,-68.28 1275.42,-68.28 1275.42,-74.28 1269.42,-80.28 1263.42,-80.28"/>
<text text-anchor="start" x="721.77" y="-59.34" font-family="Roboto, sans-serif" font-weight="bold" font-size="14.00">A05</text>
<text text-anchor="start" x="721.77" y="-31.34" font-family="Roboto, sans-serif" font-size="14.00">Cluster: Zustimmung</text>
<text text-anchor="start" x="721.77" y="-17.34" font-family="Roboto, sans-serif" font-size="14.00">MSB hat Durchf&#252;hrung der Sperrung und Entsperrung durch NB zugestimmt.</text>
</g>
<!-- 4&#45;&gt;A05 -->
<g id="edge9" class="edge">
<title>4-&gt;A05</title>
<path fill="none" stroke="#88a0d6" d="M976.38,-173.19C978.72,-153.22 982.68,-119.25 985.96,-91.24"/>
<polygon fill="#88a0d6" stroke="#88a0d6" points="989.4,-91.9 987.09,-81.56 982.45,-91.09 989.4,-91.9"/>
<text text-anchor="start" x="983.4" y="-110.23" font-family="Roboto, sans-serif" font-weight="bold" font-size="14.00">NEIN</text>
</g>
</g>
</svg>
  </g>
</svg>
  </g>
</svg>
