<?xml version='1.0' encoding='ASCII' standalone='yes'?>
<svg xmlns="http://www.w3.org/2000/svg" xmlns:xlink="http://www.w3.org/1999/xlink" version="1.1" width="1653.3333333333333px" viewBox="0 0 1653.3333333333333 1001.3333333333334" height="1001.3333333333334px">
  <g>
    <svg version="1.1" width="1653.3333333333333px" viewBox="0 0 1653.3333333333333 1001.3333333333334" height="1001.3333333333334px">
  <polygon fill="#f3f1f6" points="0,0 1653.3333333333333,0 1653.3333333333333,1001.3333333333334 0,1001.3333333333334"/><g>
    <g transform="translate(418.32231296348436, 100.13333333333331) scale(1 1) translate(0, 0) scale(1.409931474701962 1.409931474701962) "><!-- note that I manually added the width and height attribute to the root node
  https://chatgpt.com/share/678e3028-70cc-800b-a296-782714735772
  -->
  <defs>
    <style>.cls-1{fill:#fff;}</style>
  </defs>
  <path class="cls-1" d="M122.44,531.2h-56.1c-11,0-19.9-9.12-19.46-20.11C57.47,243.89,278.15,29.78,547.91,29.78v56.02c0,10.98-8.69,19.89-19.66,20.39-225.51,10.31-405.8,197-405.8,425Z"/>
  <path class="cls-1" d="M273.78,531.2h-55.93c-11.23,0-20.09-9.48-19.43-20.69,10.74-183.44,163.39-329.39,349.48-329.39v56.26c0,10.71-8.27,19.62-18.96,20.35-142.35,9.77-255.17,128.69-255.17,273.46Z"/>
  <path class="cls-1" d="M425.77,531.2h-55.45c-11.65,0-20.6-10.17-19.33-21.75,10.87-99.03,95.03-176.34,196.92-176.34v57.01c0,10.05-7.28,18.75-17.23,20.16-59.22,8.4-104.91,59.42-104.91,120.92Z"/>
</g>
    <svg width="1240pt" height="751pt" viewBox="0.00 0.00 1240.27 750.64">
<g id="graph0" class="graph" transform="scale(1 1) rotate(0) translate(4 746.64)">
<title>D</title>
<text text-anchor="start" x="248.63" y="-722.54" font-family="Times,serif" font-weight="bold" font-size="18.00">GPKE</text>
<text text-anchor="start" x="248.63" y="-692.44" font-family="Times,serif" font-weight="bold" font-size="16.00">6.9.2: AD: Unterbrechung der Anschlussnutzung (Sperren) auf Anweisung des LF</text>
<!-- Start -->
<g id="node1" class="node">
<title>Start</title>
<path fill="#7a8da1" stroke="black" stroke-width="0" d="M331.64,-644.64C331.64,-644.64 184.34,-644.64 184.34,-644.64 178.34,-644.64 172.34,-638.64 172.34,-632.64 172.34,-632.64 172.34,-613.36 172.34,-613.36 172.34,-607.36 178.34,-601.36 184.34,-601.36 184.34,-601.36 331.64,-601.36 331.64,-601.36 337.64,-601.36 343.64,-607.36 343.64,-613.36 343.64,-613.36 343.64,-632.64 343.64,-632.64 343.64,-638.64 337.64,-644.64 331.64,-644.64"/>
<text text-anchor="start" x="229.87" y="-623.7" font-family="Times,serif" font-weight="bold" font-size="14.00">E_0488</text>
<text text-anchor="start" x="186.74" y="-611.6" font-family="Times,serif" font-weight="bold" text-decoration="underline" font-size="12.00">Pr&#252;fende Rolle:</text>
<text text-anchor="start" x="291.74" y="-611.6" font-family="Times,serif" font-weight="bold" font-size="12.00"> MSB</text>
</g>
<!-- 1 -->
<g id="node2" class="node">
<title>1</title>
<path fill="#7aab8a" stroke="black" stroke-width="0" d="M500.39,-564.36C500.39,-564.36 15.59,-564.36 15.59,-564.36 9.59,-564.36 3.59,-558.36 3.59,-552.36 3.59,-552.36 3.59,-531.08 3.59,-531.08 3.59,-525.08 9.59,-519.08 15.59,-519.08 15.59,-519.08 500.39,-519.08 500.39,-519.08 506.39,-519.08 512.39,-525.08 512.39,-531.08 512.39,-531.08 512.39,-552.36 512.39,-552.36 512.39,-558.36 506.39,-564.36 500.39,-564.36"/>
<text text-anchor="start" x="17.99" y="-543.42" font-family="Times,serif" font-weight="bold" font-size="14.00">1: </text>
<text text-anchor="start" x="37.49" y="-543.42" font-family="Times,serif" font-size="14.00">Hat der MSB die generelle Zustimmung zur Durchf&#252;hrung einer</text>
<text text-anchor="start" x="17.99" y="-529.42" font-family="Times,serif" font-size="14.00">Entsperrung/Sperrung dem NB erteilt?</text>
</g>
<!-- Start&#45;&gt;1 -->
<g id="edge1" class="edge">
<title>Start-&gt;1</title>
<path fill="none" stroke="black" d="M257.99,-601.58C257.99,-593.61 257.99,-584.26 257.99,-575.4"/>
<polygon fill="black" stroke="black" points="261.49,-575.69 257.99,-565.69 254.49,-575.69 261.49,-575.69"/>
</g>
<!-- A01 -->
<g id="node3" class="node">
<title>A01</title>
<path fill="#cfb986" stroke="black" stroke-width="0" d="M445.98,-465.83C445.98,-465.83 12,-465.83 12,-465.83 6,-465.83 0,-459.83 0,-453.83 0,-453.83 0,-416.31 0,-416.31 0,-410.31 6,-404.31 12,-404.31 12,-404.31 445.98,-404.31 445.98,-404.31 451.98,-404.31 457.98,-410.31 457.98,-416.31 457.98,-416.31 457.98,-453.83 457.98,-453.83 457.98,-459.83 451.98,-465.83 445.98,-465.83"/>
<text text-anchor="start" x="12.24" y="-447.77" font-family="Times,serif" font-weight="bold" font-size="14.00">A01</text>
<text text-anchor="start" x="12.24" y="-435.67" font-family="Times,serif" text-decoration="underline" font-size="12.00">Hinweis:</text>
<text text-anchor="start" x="12.24" y="-423.67" font-family="Times,serif" font-size="12.00">Cluster: Zustimmung</text>
<text text-anchor="start" x="12.24" y="-411.67" font-family="Times,serif" font-size="12.00">Generelle Zustimmung des MSB f&#252;r die Sperrung/Entsperrung liegt vor.</text>
</g>
<!-- 1&#45;&gt;A01 -->
<g id="edge2" class="edge">
<title>1-&gt;A01</title>
<path fill="none" stroke="#7aab8a" d="M252.05,-519.29C248.64,-507 244.26,-491.16 240.22,-476.6"/>
<polygon fill="#7aab8a" stroke="#7aab8a" points="243.68,-475.96 237.63,-467.26 236.93,-477.83 243.68,-475.96"/>
<text text-anchor="start" x="245.99" y="-488.78" font-family="Times,serif" font-weight="bold" font-size="14.00">JA</text>
</g>
<!-- 2 -->
<g id="node4" class="node">
<title>2</title>
<path fill="#7aab8a" stroke="black" stroke-width="0" d="M1080.39,-457.71C1080.39,-457.71 487.59,-457.71 487.59,-457.71 481.59,-457.71 475.59,-451.71 475.59,-445.71 475.59,-445.71 475.59,-424.43 475.59,-424.43 475.59,-418.43 481.59,-412.43 487.59,-412.43 487.59,-412.43 1080.39,-412.43 1080.39,-412.43 1086.39,-412.43 1092.39,-418.43 1092.39,-424.43 1092.39,-424.43 1092.39,-445.71 1092.39,-445.71 1092.39,-451.71 1086.39,-457.71 1080.39,-457.71"/>
<text text-anchor="start" x="489.99" y="-436.77" font-family="Times,serif" font-weight="bold" font-size="14.00">2: </text>
<text text-anchor="start" x="509.49" y="-436.77" font-family="Times,serif" font-size="14.00">Liegt ein Verhinderungsgrund einer Sperrung (z. B. Betrieb lebensnotwendiger</text>
<text text-anchor="start" x="489.99" y="-422.77" font-family="Times,serif" font-size="14.00">Ger&#228;te) an der Marktlokation vor?</text>
</g>
<!-- 1&#45;&gt;2 -->
<g id="edge3" class="edge">
<title>1-&gt;2</title>
<path fill="none" stroke="#7aab8a" d="M366.66,-519.1C453.44,-501.83 574.91,-477.67 664.43,-459.86"/>
<polygon fill="#7aab8a" stroke="#7aab8a" points="664.85,-463.34 673.98,-457.96 663.49,-456.48 664.85,-463.34"/>
<text text-anchor="start" x="535.99" y="-488.78" font-family="Times,serif" font-weight="bold" font-size="14.00">NEIN</text>
</g>
<!-- A02 -->
<g id="node5" class="node">
<title>A02</title>
<path fill="#cfb986" stroke="black" stroke-width="0" d="M546.61,-351.06C546.61,-351.06 275.38,-351.06 275.38,-351.06 269.38,-351.06 263.38,-345.06 263.38,-339.06 263.38,-339.06 263.38,-277.54 263.38,-277.54 263.38,-271.54 269.38,-265.54 275.38,-265.54 275.38,-265.54 546.61,-265.54 546.61,-265.54 552.61,-265.54 558.61,-271.54 558.61,-277.54 558.61,-277.54 558.61,-339.06 558.61,-339.06 558.61,-345.06 552.61,-351.06 546.61,-351.06"/>
<text text-anchor="start" x="275.62" y="-333" font-family="Times,serif" font-weight="bold" font-size="14.00">A02</text>
<text text-anchor="start" x="275.62" y="-320.9" font-family="Times,serif" text-decoration="underline" font-size="12.00">Hinweis:</text>
<text text-anchor="start" x="275.62" y="-308.9" font-family="Times,serif" font-size="12.00">Cluster: Ablehnung</text>
<text text-anchor="start" x="275.62" y="-296.9" font-family="Times,serif" font-size="12.00">Verhinderungsgrund liegt vor.</text>
<text text-anchor="start" x="275.62" y="-284.9" font-family="Times,serif" font-size="12.00">Hinweis: Das identifizierte Problem ist in der</text>
<text text-anchor="start" x="275.62" y="-272.9" font-family="Times,serif" font-size="12.00"> Antwort zu beschreiben/benennen.</text>
</g>
<!-- 2&#45;&gt;A02 -->
<g id="edge4" class="edge">
<title>2-&gt;A02</title>
<path fill="none" stroke="#7aab8a" d="M719.44,-412.48C671.94,-396.59 605.64,-374.41 546.68,-354.69"/>
<polygon fill="#7aab8a" stroke="#7aab8a" points="547.79,-351.37 537.19,-351.52 545.57,-358.01 547.79,-351.37"/>
<text text-anchor="start" x="629.99" y="-374.01" font-family="Times,serif" font-weight="bold" font-size="14.00">JA</text>
</g>
<!-- 3 -->
<g id="node6" class="node">
<title>3</title>
<path fill="#7aab8a" stroke="black" stroke-width="0" d="M1151.01,-326.3C1151.01,-326.3 588.97,-326.3 588.97,-326.3 582.97,-326.3 576.97,-320.3 576.97,-314.3 576.97,-314.3 576.97,-302.3 576.97,-302.3 576.97,-296.3 582.97,-290.3 588.97,-290.3 588.97,-290.3 1151.01,-290.3 1151.01,-290.3 1157.01,-290.3 1163.01,-296.3 1163.01,-302.3 1163.01,-302.3 1163.01,-314.3 1163.01,-314.3 1163.01,-320.3 1157.01,-326.3 1151.01,-326.3"/>
<text text-anchor="start" x="591.37" y="-304.62" font-family="Times,serif" font-weight="bold" font-size="14.00">3: </text>
<text text-anchor="start" x="610.87" y="-304.62" font-family="Times,serif" font-size="14.00">Liegen dem MSB technische Gr&#252;nde f&#252;r eine Ablehnung der Sperrung vor?</text>
</g>
<!-- 2&#45;&gt;3 -->
<g id="edge5" class="edge">
<title>2-&gt;3</title>
<path fill="none" stroke="#7aab8a" d="M798.77,-412.62C813.5,-391.26 836.13,-358.43 851.91,-335.52"/>
<polygon fill="#7aab8a" stroke="#7aab8a" points="854.77,-337.54 857.57,-327.32 849.01,-333.57 854.77,-337.54"/>
<text text-anchor="start" x="826.99" y="-374.01" font-family="Times,serif" font-weight="bold" font-size="14.00">NEIN</text>
</g>
<!-- A03 -->
<g id="node7" class="node">
<title>A03</title>
<path fill="#cfb986" stroke="black" stroke-width="0" d="M605.61,-212.29C605.61,-212.29 328.38,-212.29 328.38,-212.29 322.38,-212.29 316.38,-206.29 316.38,-200.29 316.38,-200.29 316.38,-138.77 316.38,-138.77 316.38,-132.77 322.38,-126.77 328.38,-126.77 328.38,-126.77 605.61,-126.77 605.61,-126.77 611.61,-126.77 617.61,-132.77 617.61,-138.77 617.61,-138.77 617.61,-200.29 617.61,-200.29 617.61,-206.29 611.61,-212.29 605.61,-212.29"/>
<text text-anchor="start" x="328.62" y="-194.23" font-family="Times,serif" font-weight="bold" font-size="14.00">A03</text>
<text text-anchor="start" x="328.62" y="-182.13" font-family="Times,serif" text-decoration="underline" font-size="12.00">Hinweis:</text>
<text text-anchor="start" x="328.62" y="-170.13" font-family="Times,serif" font-size="12.00">Cluster: Ablehnung</text>
<text text-anchor="start" x="328.62" y="-158.13" font-family="Times,serif" font-size="12.00">Es liegt ein technischer Ablehnungsgrund vor.</text>
<text text-anchor="start" x="328.62" y="-146.13" font-family="Times,serif" font-size="12.00">Hinweis: Das identifizierte Problem ist in der</text>
<text text-anchor="start" x="328.62" y="-134.13" font-family="Times,serif" font-size="12.00"> Antwort zu beschreiben/benennen.</text>
</g>
<!-- 3&#45;&gt;A03 -->
<g id="edge6" class="edge">
<title>3-&gt;A03</title>
<path fill="none" stroke="#7aab8a" d="M820.17,-290.39C765.56,-271.86 675.68,-241.35 600.26,-215.76"/>
<polygon fill="#7aab8a" stroke="#7aab8a" points="601.74,-212.57 591.15,-212.67 599.49,-219.2 601.74,-212.57"/>
<text text-anchor="start" x="691.99" y="-235.24" font-family="Times,serif" font-weight="bold" font-size="14.00">JA</text>
</g>
<!-- 4 -->
<g id="node8" class="node">
<title>4</title>
<path fill="#7aab8a" stroke="black" stroke-width="0" d="M1220.26,-187.53C1220.26,-187.53 647.72,-187.53 647.72,-187.53 641.72,-187.53 635.72,-181.53 635.72,-175.53 635.72,-175.53 635.72,-163.53 635.72,-163.53 635.72,-157.53 641.72,-151.53 647.72,-151.53 647.72,-151.53 1220.26,-151.53 1220.26,-151.53 1226.26,-151.53 1232.26,-157.53 1232.26,-163.53 1232.26,-163.53 1232.26,-175.53 1232.26,-175.53 1232.26,-181.53 1226.26,-187.53 1220.26,-187.53"/>
<text text-anchor="start" x="650.12" y="-165.85" font-family="Times,serif" font-weight="bold" font-size="14.00">4: </text>
<text text-anchor="start" x="669.62" y="-165.85" font-family="Times,serif" font-size="14.00">Ist eine Mitwirkung des MSB bei Entsperrung/Sperrung vor Ort gew&#252;nscht?</text>
</g>
<!-- 3&#45;&gt;4 -->
<g id="edge7" class="edge">
<title>3-&gt;4</title>
<path fill="none" stroke="#7aab8a" d="M877.84,-290.53C888.68,-267.36 908.37,-225.28 921.32,-197.61"/>
<polygon fill="#7aab8a" stroke="#7aab8a" points="924.37,-199.35 925.44,-188.81 918.03,-196.38 924.37,-199.35"/>
<text text-anchor="start" x="904.99" y="-235.24" font-family="Times,serif" font-weight="bold" font-size="14.00">NEIN</text>
</g>
<!-- A04 -->
<g id="node9" class="node">
<title>A04</title>
<path fill="#cfb986" stroke="black" stroke-width="0" d="M676.98,-73.52C676.98,-73.52 177,-73.52 177,-73.52 171,-73.52 165,-67.52 165,-61.52 165,-61.52 165,-12 165,-12 165,-6 171,0 177,0 177,0 676.98,0 676.98,0 682.98,0 688.98,-6 688.98,-12 688.98,-12 688.98,-61.52 688.98,-61.52 688.98,-67.52 682.98,-73.52 676.98,-73.52"/>
<text text-anchor="start" x="177.24" y="-55.46" font-family="Times,serif" font-weight="bold" font-size="14.00">A04</text>
<text text-anchor="start" x="177.24" y="-43.36" font-family="Times,serif" text-decoration="underline" font-size="12.00">Hinweis:</text>
<text text-anchor="start" x="177.24" y="-31.36" font-family="Times,serif" font-size="12.00">Cluster: Zustimmung</text>
<text text-anchor="start" x="177.24" y="-19.36" font-family="Times,serif" font-size="12.00">MSB hat Durchf&#252;hrung der Sperrung und Entsperrung unter Mitwirkung des MSB</text>
<text text-anchor="start" x="177.24" y="-7.36" font-family="Times,serif" font-size="12.00">zugestimmt.</text>
</g>
<!-- 4&#45;&gt;A04 -->
<g id="edge8" class="edge">
<title>4-&gt;A04</title>
<path fill="none" stroke="#7aab8a" d="M868.23,-151.57C794.77,-132.62 673.45,-101.33 576.6,-76.35"/>
<polygon fill="#7aab8a" stroke="#7aab8a" points="577.53,-72.98 566.98,-73.87 575.79,-79.75 577.53,-72.98"/>
<text text-anchor="start" x="694.99" y="-96.47" font-family="Times,serif" font-weight="bold" font-size="14.00">JA</text>
</g>
<!-- A05 -->
<g id="node10" class="node">
<title>A05</title>
<path fill="#cfb986" stroke="black" stroke-width="0" d="M1190.73,-67.52C1190.73,-67.52 719.25,-67.52 719.25,-67.52 713.25,-67.52 707.25,-61.52 707.25,-55.52 707.25,-55.52 707.25,-18 707.25,-18 707.25,-12 713.25,-6 719.25,-6 719.25,-6 1190.73,-6 1190.73,-6 1196.73,-6 1202.73,-12 1202.73,-18 1202.73,-18 1202.73,-55.52 1202.73,-55.52 1202.73,-61.52 1196.73,-67.52 1190.73,-67.52"/>
<text text-anchor="start" x="719.49" y="-49.46" font-family="Times,serif" font-weight="bold" font-size="14.00">A05</text>
<text text-anchor="start" x="719.49" y="-37.36" font-family="Times,serif" text-decoration="underline" font-size="12.00">Hinweis:</text>
<text text-anchor="start" x="719.49" y="-25.36" font-family="Times,serif" font-size="12.00">Cluster: Zustimmung</text>
<text text-anchor="start" x="719.49" y="-13.36" font-family="Times,serif" font-size="12.00">MSB hat Durchf&#252;hrung der Sperrung und Entsperrung durch NB zugestimmt.</text>
</g>
<!-- 4&#45;&gt;A05 -->
<g id="edge9" class="edge">
<title>4-&gt;A05</title>
<path fill="none" stroke="#7aab8a" d="M936.69,-151.7C939.64,-133.36 944.46,-103.34 948.41,-78.72"/>
<polygon fill="#7aab8a" stroke="#7aab8a" points="951.85,-79.42 949.98,-68.99 944.93,-78.31 951.85,-79.42"/>
<text text-anchor="start" x="944.99" y="-96.47" font-family="Times,serif" font-weight="bold" font-size="14.00">NEIN</text>
</g>
</g>
</svg>
  </g>
</svg>
  </g>
</svg>
