<?xml version='1.0' encoding='ASCII' standalone='yes'?>
<svg xmlns="http://www.w3.org/2000/svg" xmlns:xlink="http://www.w3.org/1999/xlink" version="1.1" width="1920.0px" viewBox="0 0 1920.0 1232.0" height="1232.0px">
  <g>
    <svg version="1.1" width="1920.0px" viewBox="0 0 1920.0 1232.0" height="1232.0px">
  <rect fill="#e7e6e5" x="0" y="0" width="1920.0" height="1232.0" rx="20" ry="20"/><g>
    <g transform="translate(457.5896367220501, 123.19999999999997) scale(1 1) translate(0, 0) scale(1.7347226133483526 1.7347226133483526) "><!-- note that I manually added the width and height attribute to the root node
  https://chatgpt.com/share/678e3028-70cc-800b-a296-782714735772
  -->
  <defs>
    <style>.cls-1{fill:#fff;}</style>
  </defs>
  <path class="cls-1" d="M122.44,531.2h-56.1c-11,0-19.9-9.12-19.46-20.11C57.47,243.89,278.15,29.78,547.91,29.78v56.02c0,10.98-8.69,19.89-19.66,20.39-225.51,10.31-405.8,197-405.8,425Z"/>
  <path class="cls-1" d="M273.78,531.2h-55.93c-11.23,0-20.09-9.48-19.43-20.69,10.74-183.44,163.39-329.39,349.48-329.39v56.26c0,10.71-8.27,19.62-18.96,20.35-142.35,9.77-255.17,128.69-255.17,273.46Z"/>
  <path class="cls-1" d="M425.77,531.2h-55.45c-11.65,0-20.6-10.17-19.33-21.75,10.87-99.03,95.03-176.34,196.92-176.34v57.01c0,10.05-7.28,18.75-17.23,20.16-59.22,8.4-104.91,59.42-104.91,120.92Z"/>
</g>
    <svg width="1440pt" height="924pt" viewBox="0.00 0.00 1440.00 923.80">
<g id="graph0" class="graph" transform="scale(0.903289 0.903289) rotate(0) translate(4 1018.71)">
<title>D</title>
<text text-anchor="start" x="471.34" y="-994.61" font-family="Roboto, sans-serif" font-weight="bold" font-size="18.00">GPKE</text>
<text text-anchor="start" x="471.34" y="-966.51" font-family="Roboto, sans-serif" font-weight="bold" font-size="16.00">6.30.1: AD: Reklamation einer Z&#228;hlzeitdefinition des NB vom MSB an NB</text>
<!-- Start -->
<g id="node1" class="node">
<title>Start</title>
<path fill="#8ba2d7" stroke="black" stroke-width="0" d="M344.42,-924.71C344.42,-924.71 207.62,-924.71 207.62,-924.71 201.62,-924.71 195.62,-918.71 195.62,-912.71 195.62,-912.71 195.62,-891.43 195.62,-891.43 195.62,-885.43 201.62,-879.43 207.62,-879.43 207.62,-879.43 344.42,-879.43 344.42,-879.43 350.42,-879.43 356.42,-885.43 356.42,-891.43 356.42,-891.43 356.42,-912.71 356.42,-912.71 356.42,-918.71 350.42,-924.71 344.42,-924.71"/>
<text text-anchor="start" x="210.02" y="-903.77" font-family="Roboto, sans-serif" font-weight="bold" font-size="14.00">E_0478</text>
<text text-anchor="start" x="210.02" y="-889.77" font-family="Roboto, sans-serif" font-size="14.00">Pr&#252;fende Rolle: </text>
<text text-anchor="start" x="319.52" y="-889.77" font-family="Roboto, sans-serif" font-weight="bold" font-size="14.00">NB</text>
</g>
<!-- 1 -->
<g id="node2" class="node">
<title>1</title>
<path fill="#c2cee9" stroke="black" stroke-width="0" d="M522.17,-842.43C522.17,-842.43 29.88,-842.43 29.88,-842.43 23.88,-842.43 17.88,-836.43 17.88,-830.43 17.88,-830.43 17.88,-818.43 17.88,-818.43 17.88,-812.43 23.88,-806.43 29.88,-806.43 29.88,-806.43 522.17,-806.43 522.17,-806.43 528.17,-806.43 534.17,-812.43 534.17,-818.43 534.17,-818.43 534.17,-830.43 534.17,-830.43 534.17,-836.43 528.17,-842.43 522.17,-842.43"/>
<text text-anchor="start" x="32.27" y="-820.75" font-family="Roboto, sans-serif" font-weight="bold" font-size="14.00">1: </text>
<text text-anchor="start" x="51.77" y="-820.75" font-family="Roboto, sans-serif" font-size="14.00">Reklamiert der MSB eine fehlende &#220;bersicht der Z&#228;hlzeitdefinition?</text>
</g>
<!-- Start&#45;&gt;1 -->
<g id="edge1" class="edge">
<title>Start-&gt;1</title>
<path fill="none" stroke="#88a0d6" d="M276.02,-879.6C276.02,-871.52 276.02,-862.22 276.02,-853.62"/>
<polygon fill="#88a0d6" stroke="#88a0d6" points="279.53,-853.66 276.03,-843.66 272.53,-853.66 279.53,-853.66"/>
</g>
<!-- 2 -->
<g id="node3" class="node">
<title>2</title>
<path fill="#c2cee9" stroke="black" stroke-width="0" d="M510.3,-753.18C510.3,-753.18 21.75,-753.18 21.75,-753.18 15.75,-753.18 9.75,-747.18 9.75,-741.18 9.75,-741.18 9.75,-729.18 9.75,-729.18 9.75,-723.18 15.75,-717.18 21.75,-717.18 21.75,-717.18 510.3,-717.18 510.3,-717.18 516.3,-717.18 522.3,-723.18 522.3,-729.18 522.3,-729.18 522.3,-741.18 522.3,-741.18 522.3,-747.18 516.3,-753.18 510.3,-753.18"/>
<text text-anchor="start" x="24.15" y="-731.5" font-family="Roboto, sans-serif" font-weight="bold" font-size="14.00">2: </text>
<text text-anchor="start" x="43.65" y="-731.5" font-family="Roboto, sans-serif" font-size="14.00">Wurde die &#220;bersicht der Z&#228;hlzeitdefinition an den MSB versendet?</text>
</g>
<!-- 1&#45;&gt;2 -->
<g id="edge2" class="edge">
<title>1-&gt;2</title>
<path fill="none" stroke="#88a0d6" d="M274.1,-806.61C272.71,-794.54 270.82,-778 269.21,-763.98"/>
<polygon fill="#88a0d6" stroke="#88a0d6" points="272.74,-763.99 268.12,-754.45 265.78,-764.79 272.74,-763.99"/>
<text text-anchor="start" x="271.02" y="-776.13" font-family="Roboto, sans-serif" font-weight="bold" font-size="14.00">JA</text>
</g>
<!-- 3 -->
<g id="node5" class="node">
<title>3</title>
<path fill="#c2cee9" stroke="black" stroke-width="0" d="M1063.92,-753.18C1063.92,-753.18 552.12,-753.18 552.12,-753.18 546.12,-753.18 540.12,-747.18 540.12,-741.18 540.12,-741.18 540.12,-729.18 540.12,-729.18 540.12,-723.18 546.12,-717.18 552.12,-717.18 552.12,-717.18 1063.92,-717.18 1063.92,-717.18 1069.92,-717.18 1075.92,-723.18 1075.92,-729.18 1075.92,-729.18 1075.92,-741.18 1075.92,-741.18 1075.92,-747.18 1069.92,-753.18 1063.92,-753.18"/>
<text text-anchor="start" x="554.52" y="-731.5" font-family="Roboto, sans-serif" font-weight="bold" font-size="14.00">3: </text>
<text text-anchor="start" x="574.02" y="-731.5" font-family="Roboto, sans-serif" font-size="14.00">Reklamiert der MSB eine unplausible &#220;bersicht der Z&#228;hlzeitdefinition?</text>
</g>
<!-- 1&#45;&gt;3 -->
<g id="edge3" class="edge">
<title>1-&gt;3</title>
<path fill="none" stroke="#88a0d6" d="M379.55,-806.45C469.74,-791.66 600.32,-770.24 693.59,-754.95"/>
<polygon fill="#88a0d6" stroke="#88a0d6" points="693.98,-758.43 703.28,-753.36 692.85,-751.52 693.98,-758.43"/>
<text text-anchor="start" x="589.02" y="-776.13" font-family="Roboto, sans-serif" font-weight="bold" font-size="14.00">NEIN</text>
</g>
<!-- A01 -->
<g id="node4" class="node">
<title>A01</title>
<path fill="#c4cac1" stroke="black" stroke-width="0" d="M358.05,-663.93C358.05,-663.93 12,-663.93 12,-663.93 6,-663.93 0,-657.93 0,-651.93 0,-651.93 0,-616.65 0,-616.65 0,-610.65 6,-604.65 12,-604.65 12,-604.65 358.05,-604.65 358.05,-604.65 364.05,-604.65 370.05,-610.65 370.05,-616.65 370.05,-616.65 370.05,-651.93 370.05,-651.93 370.05,-657.93 364.05,-663.93 358.05,-663.93"/>
<text text-anchor="start" x="14.4" y="-642.99" font-family="Roboto, sans-serif" font-weight="bold" font-size="14.00">A01</text>
<text text-anchor="start" x="14.4" y="-614.99" font-family="Roboto, sans-serif" font-size="14.00">&#220;bersicht der Z&#228;hlzeitdefinition wurde versendet</text>
</g>
<!-- 2&#45;&gt;A01 -->
<g id="edge4" class="edge">
<title>2-&gt;A01</title>
<path fill="none" stroke="#88a0d6" d="M252.28,-717.4C242.25,-705.15 228.24,-688.05 215.61,-672.63"/>
<polygon fill="#88a0d6" stroke="#88a0d6" points="218.37,-670.48 209.33,-664.96 212.96,-674.92 218.37,-670.48"/>
<text text-anchor="start" x="235.03" y="-686.88" font-family="Roboto, sans-serif" font-weight="bold" font-size="14.00">JA</text>
</g>
<!-- 11 -->
<g id="node18" class="node">
<title>11</title>
<path fill="#c2cee9" stroke="black" stroke-width="0" d="M654.05,-188.17C654.05,-188.17 260,-188.17 260,-188.17 254,-188.17 248,-182.17 248,-176.17 248,-176.17 248,-164.17 248,-164.17 248,-158.17 254,-152.17 260,-152.17 260,-152.17 654.05,-152.17 654.05,-152.17 660.05,-152.17 666.05,-158.17 666.05,-164.17 666.05,-164.17 666.05,-176.17 666.05,-176.17 666.05,-182.17 660.05,-188.17 654.05,-188.17"/>
<text text-anchor="start" x="262.4" y="-166.5" font-family="Roboto, sans-serif" font-weight="bold" font-size="14.00">11: </text>
<text text-anchor="start" x="291.65" y="-166.5" font-family="Roboto, sans-serif" font-size="14.00">Ist ein zuvor nicht spezifizierter Fehler aufgetreten?</text>
</g>
<!-- 2&#45;&gt;11 -->
<g id="edge5" class="edge">
<title>2-&gt;11</title>
<path fill="none" stroke="#88a0d6" d="M314.36,-717.24C338.38,-706.09 365.17,-688.87 379.02,-663.93 391.82,-640.9 396.16,-624.66 379.02,-604.65 354.01,-575.44 62.04,-580.61 37.03,-551.4 19.89,-531.39 35.97,-518.45 37.03,-492.12 39.03,-441.99 34.79,-428.49 46.03,-379.59 48.76,-367.68 55.69,-366.19 56.03,-353.96"/>
<path fill="none" stroke="#88a0d6" d="M56.03,-351.96C51.24,-308.26 27.63,-284.82 58.03,-253.06 88.74,-220.96 433.82,-265.32 457.02,-227.44"/>
<path fill="none" stroke="#88a0d6" d="M457.02,-225.44C461.69,-217.69 462.86,-208.13 462.5,-199.2"/>
<polygon fill="#88a0d6" stroke="#88a0d6" points="466.01,-199.11 461.47,-189.54 459.05,-199.85 466.01,-199.11"/>
<text text-anchor="start" x="38.03" y="-461.82" font-family="Roboto, sans-serif" font-weight="bold" font-size="14.00">NEIN</text>
</g>
<!-- 4 -->
<g id="node6" class="node">
<title>4</title>
<path fill="#c2cee9" stroke="black" stroke-width="0" d="M886.05,-652.29C886.05,-652.29 438,-652.29 438,-652.29 432,-652.29 426,-646.29 426,-640.29 426,-640.29 426,-628.29 426,-628.29 426,-622.29 432,-616.29 438,-616.29 438,-616.29 886.05,-616.29 886.05,-616.29 892.05,-616.29 898.05,-622.29 898.05,-628.29 898.05,-628.29 898.05,-640.29 898.05,-640.29 898.05,-646.29 892.05,-652.29 886.05,-652.29"/>
<text text-anchor="start" x="440.4" y="-630.62" font-family="Roboto, sans-serif" font-weight="bold" font-size="14.00">4: </text>
<text text-anchor="start" x="459.9" y="-630.62" font-family="Roboto, sans-serif" font-size="14.00">Ist die versendete &#220;bersicht der Z&#228;hlzeitdefinition plausibel?</text>
</g>
<!-- 3&#45;&gt;4 -->
<g id="edge6" class="edge">
<title>3-&gt;4</title>
<path fill="none" stroke="#88a0d6" d="M782.93,-717.18C758.96,-700.95 722.67,-676.37 696.1,-658.37"/>
<polygon fill="#88a0d6" stroke="#88a0d6" points="698.29,-655.63 688.05,-652.92 694.37,-661.42 698.29,-655.63"/>
<text text-anchor="start" x="752.02" y="-686.88" font-family="Roboto, sans-serif" font-weight="bold" font-size="14.00">JA</text>
</g>
<!-- 5 -->
<g id="node8" class="node">
<title>5</title>
<path fill="#c2cee9" stroke="black" stroke-width="0" d="M1419.8,-652.29C1419.8,-652.29 928.25,-652.29 928.25,-652.29 922.25,-652.29 916.25,-646.29 916.25,-640.29 916.25,-640.29 916.25,-628.29 916.25,-628.29 916.25,-622.29 922.25,-616.29 928.25,-616.29 928.25,-616.29 1419.8,-616.29 1419.8,-616.29 1425.8,-616.29 1431.8,-622.29 1431.8,-628.29 1431.8,-628.29 1431.8,-640.29 1431.8,-640.29 1431.8,-646.29 1425.8,-652.29 1419.8,-652.29"/>
<text text-anchor="start" x="930.65" y="-630.62" font-family="Roboto, sans-serif" font-weight="bold" font-size="14.00">5: </text>
<text text-anchor="start" x="950.15" y="-630.62" font-family="Roboto, sans-serif" font-size="14.00">Reklamiert der MSB das Fehlen der ausgerollten Z&#228;hlzeitdefinition?</text>
</g>
<!-- 3&#45;&gt;5 -->
<g id="edge7" class="edge">
<title>3-&gt;5</title>
<path fill="none" stroke="#88a0d6" d="M870.94,-717.18C934.64,-699.97 1033.09,-673.37 1100.38,-655.19"/>
<polygon fill="#88a0d6" stroke="#88a0d6" points="1101.12,-658.62 1109.86,-652.63 1099.29,-651.86 1101.12,-658.62"/>
<text text-anchor="start" x="991.02" y="-686.88" font-family="Roboto, sans-serif" font-weight="bold" font-size="14.00">NEIN</text>
</g>
<!-- A02 -->
<g id="node7" class="node">
<title>A02</title>
<path fill="#c4cac1" stroke="black" stroke-width="0" d="M370.18,-551.4C370.18,-551.4 57.88,-551.4 57.88,-551.4 51.88,-551.4 45.88,-545.4 45.88,-539.4 45.88,-539.4 45.88,-504.12 45.88,-504.12 45.88,-498.12 51.88,-492.12 57.88,-492.12 57.88,-492.12 370.18,-492.12 370.18,-492.12 376.18,-492.12 382.18,-498.12 382.18,-504.12 382.18,-504.12 382.18,-539.4 382.18,-539.4 382.18,-545.4 376.18,-551.4 370.18,-551.4"/>
<text text-anchor="start" x="60.28" y="-530.46" font-family="Roboto, sans-serif" font-weight="bold" font-size="14.00">A02</text>
<text text-anchor="start" x="60.28" y="-502.46" font-family="Roboto, sans-serif" font-size="14.00">&#220;bersicht der Z&#228;hlzeitdefinition ist plausibel</text>
</g>
<!-- 4&#45;&gt;A02 -->
<g id="edge8" class="edge">
<title>4-&gt;A02</title>
<path fill="none" stroke="#88a0d6" d="M525.04,-616.32C478.64,-609.07 426.8,-599.3 380.27,-586.65 350.11,-578.45 317.85,-566.76 289.85,-555.62"/>
<polygon fill="#88a0d6" stroke="#88a0d6" points="291.32,-552.44 280.74,-551.95 288.71,-558.94 291.32,-552.44"/>
<text text-anchor="start" x="380.02" y="-574.35" font-family="Roboto, sans-serif" font-weight="bold" font-size="14.00">JA</text>
</g>
<!-- 4&#45;&gt;11 -->
<g id="edge9" class="edge">
<title>4-&gt;11</title>
<path fill="none" stroke="#88a0d6" d="M574.94,-616.34C528.69,-604.09 472.91,-583.84 431.02,-551.4 405.9,-531.94 417.79,-509.26 391.02,-492.12 267.39,-412.95 165.87,-545.56 65.03,-438.87 38.96,-411.29 53.64,-391.84 56.03,-353.96"/>
<text text-anchor="start" x="65.03" y="-405.55" font-family="Roboto, sans-serif" font-weight="bold" font-size="14.00">NEIN</text>
</g>
<!-- 6 -->
<g id="node9" class="node">
<title>6</title>
<path fill="#c2cee9" stroke="black" stroke-width="0" d="M994.3,-544.4C994.3,-544.4 451.75,-544.4 451.75,-544.4 445.75,-544.4 439.75,-538.4 439.75,-532.4 439.75,-532.4 439.75,-511.12 439.75,-511.12 439.75,-505.12 445.75,-499.12 451.75,-499.12 451.75,-499.12 994.3,-499.12 994.3,-499.12 1000.3,-499.12 1006.3,-505.12 1006.3,-511.12 1006.3,-511.12 1006.3,-532.4 1006.3,-532.4 1006.3,-538.4 1000.3,-544.4 994.3,-544.4"/>
<text text-anchor="start" x="454.15" y="-523.46" font-family="Roboto, sans-serif" font-weight="bold" font-size="14.00">6: </text>
<text text-anchor="start" x="473.65" y="-523.46" font-family="Roboto, sans-serif" font-size="14.00">Entspricht der Code der Z&#228;hlzeit einem Code aus der f&#252;r den reklamierten</text>
<text text-anchor="start" x="454.15" y="-509.46" font-family="Roboto, sans-serif" font-size="14.00">Zeitraum g&#252;ltigen &#220;bersicht der Z&#228;hlzeitdefinitionen?</text>
</g>
<!-- 5&#45;&gt;6 -->
<g id="edge10" class="edge">
<title>5-&gt;6</title>
<path fill="none" stroke="#88a0d6" d="M1105.04,-616.38C1029.51,-597.87 907.76,-568.03 822.04,-547.03"/>
<polygon fill="#88a0d6" stroke="#88a0d6" points="823,-543.66 812.46,-544.68 821.34,-550.46 823,-543.66"/>
<text text-anchor="start" x="975.02" y="-574.35" font-family="Roboto, sans-serif" font-weight="bold" font-size="14.00">JA</text>
</g>
<!-- 8 -->
<g id="node13" class="node">
<title>8</title>
<path fill="#c2cee9" stroke="black" stroke-width="0" d="M1529.93,-539.76C1529.93,-539.76 1036.12,-539.76 1036.12,-539.76 1030.12,-539.76 1024.12,-533.76 1024.12,-527.76 1024.12,-527.76 1024.12,-515.76 1024.12,-515.76 1024.12,-509.76 1030.12,-503.76 1036.12,-503.76 1036.12,-503.76 1529.93,-503.76 1529.93,-503.76 1535.93,-503.76 1541.93,-509.76 1541.93,-515.76 1541.93,-515.76 1541.93,-527.76 1541.93,-527.76 1541.93,-533.76 1535.93,-539.76 1529.93,-539.76"/>
<text text-anchor="start" x="1038.53" y="-518.09" font-family="Roboto, sans-serif" font-weight="bold" font-size="14.00">8: </text>
<text text-anchor="start" x="1058.03" y="-518.09" font-family="Roboto, sans-serif" font-size="14.00">Reklamiert der MSB eine unplausible ausgerollte Z&#228;hlzeitdefinition?</text>
</g>
<!-- 5&#45;&gt;8 -->
<g id="edge11" class="edge">
<title>5-&gt;8</title>
<path fill="none" stroke="#88a0d6" d="M1190.58,-616.5C1208.59,-598.24 1237.56,-568.86 1258.27,-547.86"/>
<polygon fill="#88a0d6" stroke="#88a0d6" points="1260.72,-550.36 1265.25,-540.78 1255.74,-545.45 1260.72,-550.36"/>
<text text-anchor="start" x="1235.03" y="-574.35" font-family="Roboto, sans-serif" font-weight="bold" font-size="14.00">NEIN</text>
</g>
<!-- A03 -->
<g id="node10" class="node">
<title>A03</title>
<path fill="#c4cac1" stroke="black" stroke-width="0" d="M916.3,-438.87C916.3,-438.87 637.75,-438.87 637.75,-438.87 631.75,-438.87 625.75,-432.87 625.75,-426.87 625.75,-426.87 625.75,-391.59 625.75,-391.59 625.75,-385.59 631.75,-379.59 637.75,-379.59 637.75,-379.59 916.3,-379.59 916.3,-379.59 922.3,-379.59 928.3,-385.59 928.3,-391.59 928.3,-391.59 928.3,-426.87 928.3,-426.87 928.3,-432.87 922.3,-438.87 916.3,-438.87"/>
<text text-anchor="start" x="640.15" y="-417.93" font-family="Roboto, sans-serif" font-weight="bold" font-size="14.00">A03</text>
<text text-anchor="start" x="640.15" y="-389.93" font-family="Roboto, sans-serif" font-size="14.00">Code der Z&#228;hlzeit wird nicht verwendet</text>
</g>
<!-- 6&#45;&gt;A03 -->
<g id="edge12" class="edge">
<title>6-&gt;A03</title>
<path fill="none" stroke="#88a0d6" d="M733.56,-499.19C740.53,-484.93 749.86,-465.84 758.08,-449"/>
<polygon fill="#88a0d6" stroke="#88a0d6" points="761.13,-450.75 762.37,-440.23 754.84,-447.67 761.13,-450.75"/>
<text text-anchor="start" x="753.02" y="-461.82" font-family="Roboto, sans-serif" font-weight="bold" font-size="14.00">NEIN</text>
</g>
<!-- 7 -->
<g id="node11" class="node">
<title>7</title>
<path fill="#c2cee9" stroke="black" stroke-width="0" d="M595.3,-427.23C595.3,-427.23 124.75,-427.23 124.75,-427.23 118.75,-427.23 112.75,-421.23 112.75,-415.23 112.75,-415.23 112.75,-403.23 112.75,-403.23 112.75,-397.23 118.75,-391.23 124.75,-391.23 124.75,-391.23 595.3,-391.23 595.3,-391.23 601.3,-391.23 607.3,-397.23 607.3,-403.23 607.3,-403.23 607.3,-415.23 607.3,-415.23 607.3,-421.23 601.3,-427.23 595.3,-427.23"/>
<text text-anchor="start" x="127.15" y="-405.55" font-family="Roboto, sans-serif" font-weight="bold" font-size="14.00">7: </text>
<text text-anchor="start" x="146.65" y="-405.55" font-family="Roboto, sans-serif" font-size="14.00">Wurde die ausgerollte Z&#228;hlzeitdefinition an den MSB versendet?</text>
</g>
<!-- 6&#45;&gt;7 -->
<g id="edge13" class="edge">
<title>6-&gt;7</title>
<path fill="none" stroke="#88a0d6" d="M652.17,-499.19C586.83,-479.29 490.56,-449.98 426.61,-430.5"/>
<polygon fill="#88a0d6" stroke="#88a0d6" points="427.88,-427.23 417.3,-427.67 425.84,-433.93 427.88,-427.23"/>
<text text-anchor="start" x="563.02" y="-461.82" font-family="Roboto, sans-serif" font-weight="bold" font-size="14.00">JA</text>
</g>
<!-- A04 -->
<g id="node12" class="node">
<title>A04</title>
<path fill="#c4cac1" stroke="black" stroke-width="0" d="M408.8,-319.34C408.8,-319.34 79.25,-319.34 79.25,-319.34 73.25,-319.34 67.25,-313.34 67.25,-307.34 67.25,-307.34 67.25,-272.06 67.25,-272.06 67.25,-266.06 73.25,-260.06 79.25,-260.06 79.25,-260.06 408.8,-260.06 408.8,-260.06 414.8,-260.06 420.8,-266.06 420.8,-272.06 420.8,-272.06 420.8,-307.34 420.8,-307.34 420.8,-313.34 414.8,-319.34 408.8,-319.34"/>
<text text-anchor="start" x="81.65" y="-298.4" font-family="Roboto, sans-serif" font-weight="bold" font-size="14.00">A04</text>
<text text-anchor="start" x="81.65" y="-270.4" font-family="Roboto, sans-serif" font-size="14.00">Ausgerollte Z&#228;hlzeitdefinition wurde versendet</text>
</g>
<!-- 7&#45;&gt;A04 -->
<g id="edge14" class="edge">
<title>7-&gt;A04</title>
<path fill="none" stroke="#88a0d6" d="M343.41,-391.39C326.96,-374.73 301.26,-348.69 280.12,-327.27"/>
<polygon fill="#88a0d6" stroke="#88a0d6" points="282.84,-325.05 273.33,-320.39 277.86,-329.96 282.84,-325.05"/>
<text text-anchor="start" x="312.02" y="-349.29" font-family="Roboto, sans-serif" font-weight="bold" font-size="14.00">JA</text>
</g>
<!-- 7&#45;&gt;11 -->
<g id="edge15" class="edge">
<title>7-&gt;11</title>
<path fill="none" stroke="#88a0d6" d="M378.4,-391.41C394.25,-375.94 416.64,-351.63 430.02,-326.34 451.34,-286.07 433.69,-266.57 457.02,-227.44"/>
<text text-anchor="start" x="445.02" y="-286.02" font-family="Roboto, sans-serif" font-weight="bold" font-size="14.00">NEIN</text>
</g>
<!-- 9 -->
<g id="node14" class="node">
<title>9</title>
<path fill="#c2cee9" stroke="black" stroke-width="0" d="M1573.93,-431.87C1573.93,-431.87 996.13,-431.87 996.13,-431.87 990.13,-431.87 984.13,-425.87 984.13,-419.87 984.13,-419.87 984.13,-398.59 984.13,-398.59 984.13,-392.59 990.13,-386.59 996.13,-386.59 996.13,-386.59 1573.93,-386.59 1573.93,-386.59 1579.93,-386.59 1585.93,-392.59 1585.93,-398.59 1585.93,-398.59 1585.93,-419.87 1585.93,-419.87 1585.93,-425.87 1579.93,-431.87 1573.93,-431.87"/>
<text text-anchor="start" x="998.53" y="-410.93" font-family="Roboto, sans-serif" font-weight="bold" font-size="14.00">9: </text>
<text text-anchor="start" x="1018.03" y="-410.93" font-family="Roboto, sans-serif" font-size="14.00">Wurde mit dem Code der Z&#228;hlzeit bereits eine ausgerollte Z&#228;hlzeitdefinition mit</text>
<text text-anchor="start" x="998.53" y="-396.93" font-family="Roboto, sans-serif" font-size="14.00">einer h&#246;heren Version versendet?</text>
</g>
<!-- 8&#45;&gt;9 -->
<g id="edge16" class="edge">
<title>8-&gt;9</title>
<path fill="none" stroke="#88a0d6" d="M1283.33,-503.97C1283.62,-487.89 1284.07,-463.19 1284.43,-443.17"/>
<polygon fill="#88a0d6" stroke="#88a0d6" points="1287.93,-443.31 1284.61,-433.25 1280.93,-443.19 1287.93,-443.31"/>
<text text-anchor="start" x="1284.03" y="-461.82" font-family="Roboto, sans-serif" font-weight="bold" font-size="14.00">JA</text>
</g>
<!-- 8&#45;&gt;11 -->
<g id="edge17" class="edge">
<title>8-&gt;11</title>
<path fill="none" stroke="#88a0d6" d="M1133.03,-503.79C1079.34,-492.08 1020.84,-472.3 975.02,-438.87 949.74,-420.42 963.41,-396.41 937.02,-379.59 788.02,-284.6 695.43,-415.77 543.02,-326.34 507.9,-305.73 516.14,-282.52 488.02,-253.06 475.69,-240.13 447.77,-242.73 457.02,-227.44"/>
<text text-anchor="start" x="901.02" y="-349.29" font-family="Roboto, sans-serif" font-weight="bold" font-size="14.00">NEIN</text>
</g>
<!-- A05 -->
<g id="node15" class="node">
<title>A05</title>
<path fill="#c4cac1" stroke="black" stroke-width="0" d="M1574.18,-326.34C1574.18,-326.34 1045.88,-326.34 1045.88,-326.34 1039.88,-326.34 1033.88,-320.34 1033.88,-314.34 1033.88,-314.34 1033.88,-265.06 1033.88,-265.06 1033.88,-259.06 1039.88,-253.06 1045.88,-253.06 1045.88,-253.06 1574.18,-253.06 1574.18,-253.06 1580.18,-253.06 1586.18,-259.06 1586.18,-265.06 1586.18,-265.06 1586.18,-314.34 1586.18,-314.34 1586.18,-320.34 1580.18,-326.34 1574.18,-326.34"/>
<text text-anchor="start" x="1048.28" y="-305.4" font-family="Roboto, sans-serif" font-weight="bold" font-size="14.00">A05</text>
<text text-anchor="start" x="1048.28" y="-277.4" font-family="Roboto, sans-serif" font-size="14.00">Es wurde bereits eine aktuellere ausgerollte Z&#228;hlzeitdefinition f&#252;r den Code</text>
<text text-anchor="start" x="1048.28" y="-263.4" font-family="Roboto, sans-serif" font-size="14.00">der Z&#228;hlzeit versendet</text>
</g>
<!-- 9&#45;&gt;A05 -->
<g id="edge18" class="edge">
<title>9-&gt;A05</title>
<path fill="none" stroke="#88a0d6" d="M1289.61,-386.67C1292.57,-372.76 1296.54,-354.11 1300.19,-336.96"/>
<polygon fill="#88a0d6" stroke="#88a0d6" points="1303.55,-337.95 1302.21,-327.44 1296.71,-336.5 1303.55,-337.95"/>
<text text-anchor="start" x="1298.03" y="-349.29" font-family="Roboto, sans-serif" font-weight="bold" font-size="14.00">JA</text>
</g>
<!-- 10 -->
<g id="node16" class="node">
<title>10</title>
<path fill="#c2cee9" stroke="black" stroke-width="0" d="M1003.92,-307.7C1003.92,-307.7 564.12,-307.7 564.12,-307.7 558.12,-307.7 552.12,-301.7 552.12,-295.7 552.12,-295.7 552.12,-283.7 552.12,-283.7 552.12,-277.7 558.12,-271.7 564.12,-271.7 564.12,-271.7 1003.92,-271.7 1003.92,-271.7 1009.92,-271.7 1015.92,-277.7 1015.92,-283.7 1015.92,-283.7 1015.92,-295.7 1015.92,-295.7 1015.92,-301.7 1009.92,-307.7 1003.92,-307.7"/>
<text text-anchor="start" x="566.52" y="-286.02" font-family="Roboto, sans-serif" font-weight="bold" font-size="14.00">10: </text>
<text text-anchor="start" x="595.77" y="-286.02" font-family="Roboto, sans-serif" font-size="14.00">Ist die versendete ausgerollte Z&#228;hlzeitdefinition plausibel?</text>
</g>
<!-- 9&#45;&gt;10 -->
<g id="edge19" class="edge">
<title>9-&gt;10</title>
<path fill="none" stroke="#88a0d6" d="M1192.84,-386.6C1099.65,-364.74 956.93,-331.26 867.13,-310.19"/>
<polygon fill="#88a0d6" stroke="#88a0d6" points="868.18,-306.85 857.65,-307.97 866.58,-313.66 868.18,-306.85"/>
<text text-anchor="start" x="1079.03" y="-349.29" font-family="Roboto, sans-serif" font-weight="bold" font-size="14.00">NEIN</text>
</g>
<!-- A06 -->
<g id="node17" class="node">
<title>A06</title>
<path fill="#c4cac1" stroke="black" stroke-width="0" d="M991.92,-199.81C991.92,-199.81 696.12,-199.81 696.12,-199.81 690.12,-199.81 684.12,-193.81 684.12,-187.81 684.12,-187.81 684.12,-152.53 684.12,-152.53 684.12,-146.53 690.12,-140.53 696.12,-140.53 696.12,-140.53 991.92,-140.53 991.92,-140.53 997.92,-140.53 1003.92,-146.53 1003.92,-152.53 1003.92,-152.53 1003.92,-187.81 1003.92,-187.81 1003.92,-193.81 997.92,-199.81 991.92,-199.81"/>
<text text-anchor="start" x="698.52" y="-178.87" font-family="Roboto, sans-serif" font-weight="bold" font-size="14.00">A06</text>
<text text-anchor="start" x="698.52" y="-150.87" font-family="Roboto, sans-serif" font-size="14.00">Ausgerollte Z&#228;hlzeitdefinition ist plausibel</text>
</g>
<!-- 10&#45;&gt;A06 -->
<g id="edge20" class="edge">
<title>10-&gt;A06</title>
<path fill="none" stroke="#88a0d6" d="M792.62,-271.86C800.83,-255.79 813.49,-230.98 824.19,-210.02"/>
<polygon fill="#88a0d6" stroke="#88a0d6" points="827.3,-211.63 828.73,-201.13 821.07,-208.44 827.3,-211.63"/>
<text text-anchor="start" x="819.02" y="-222.76" font-family="Roboto, sans-serif" font-weight="bold" font-size="14.00">JA</text>
</g>
<!-- 10&#45;&gt;11 -->
<g id="edge21" class="edge">
<title>10-&gt;11</title>
<path fill="none" stroke="#88a0d6" d="M736.83,-271.74C678.14,-250.64 578.01,-214.65 514.8,-191.93"/>
<polygon fill="#88a0d6" stroke="#88a0d6" points="516.23,-188.73 505.63,-188.64 513.86,-195.32 516.23,-188.73"/>
<text text-anchor="start" x="630.02" y="-222.76" font-family="Roboto, sans-serif" font-weight="bold" font-size="14.00">NEIN</text>
</g>
<!-- A99 -->
<g id="node19" class="node">
<title>A99</title>
<path fill="#c4cac1" stroke="black" stroke-width="0" d="M654.3,-87.28C654.3,-87.28 93.75,-87.28 93.75,-87.28 87.75,-87.28 81.75,-81.28 81.75,-75.28 81.75,-75.28 81.75,-12 81.75,-12 81.75,-6 87.75,0 93.75,0 93.75,0 654.3,0 654.3,0 660.3,0 666.3,-6 666.3,-12 666.3,-12 666.3,-75.28 666.3,-75.28 666.3,-81.28 660.3,-87.28 654.3,-87.28"/>
<text text-anchor="start" x="96.15" y="-66.34" font-family="Roboto, sans-serif" font-weight="bold" font-size="14.00">A99</text>
<text text-anchor="start" x="96.15" y="-38.34" font-family="Roboto, sans-serif" font-size="14.00">Sonstiges</text>
<text text-anchor="start" x="96.15" y="-24.34" font-family="Roboto, sans-serif" font-size="14.00">Hinweis: Das identifizierte Problem ist in der Antwort zu beschreiben/benennen.</text>
<text text-anchor="start" x="96.15" y="-10.34" font-family="Roboto, sans-serif" font-size="14.00">Nutzungsm&#246;glichkeit Ende: 01.10.2023 00:00 Uhr</text>
</g>
<!-- 11&#45;&gt;A99 -->
<g id="edge22" class="edge">
<title>11-&gt;A99</title>
<path fill="none" stroke="#88a0d6" d="M445.83,-152.38C436.24,-137.99 421.91,-116.48 408.56,-96.46"/>
<polygon fill="#88a0d6" stroke="#88a0d6" points="411.62,-94.73 403.16,-88.35 405.79,-98.62 411.62,-94.73"/>
<text text-anchor="start" x="425.02" y="-110.23" font-family="Roboto, sans-serif" font-weight="bold" font-size="14.00">JA</text>
</g>
<!-- Korrektur der &#220;bersicht der Z&#228;hlzeitdefinition bzw. Korrektur der ausgerollten Z&#228;hlzeitdefinition und die erneute &#220;bermittlung durchf&#252;hren. -->
<g id="node20" class="node">
<title>Korrektur der &#220;bersicht der Z&#228;hlzeitdefinition bzw. Korrektur der ausgerollten Z&#228;hlzeitdefinition und die erneute &#220;bermittlung durchf&#252;hren.</title>
<path fill="#c4cac1" stroke="black" stroke-width="0" d="M1239.3,-69.53C1239.3,-69.53 696.75,-69.53 696.75,-69.53 690.75,-69.53 684.75,-63.53 684.75,-57.53 684.75,-57.53 684.75,-29.75 684.75,-29.75 684.75,-23.75 690.75,-17.75 696.75,-17.75 696.75,-17.75 1239.3,-17.75 1239.3,-17.75 1245.3,-17.75 1251.3,-23.75 1251.3,-29.75 1251.3,-29.75 1251.3,-57.53 1251.3,-57.53 1251.3,-63.53 1245.3,-69.53 1239.3,-69.53"/>
<text text-anchor="start" x="699.15" y="-47.59" font-family="Roboto, sans-serif" font-size="14.00">Korrektur der &#220;bersicht der Z&#228;hlzeitdefinition bzw. Korrektur der ausgerollten</text>
<text text-anchor="start" x="699.15" y="-30.34" font-family="Roboto, sans-serif" font-size="14.00">Z&#228;hlzeitdefinition und die erneute &#220;bermittlung durchf&#252;hren.</text>
</g>
<!-- 11&#45;&gt;Korrektur der &#220;bersicht der Z&#228;hlzeitdefinition bzw. Korrektur der ausgerollten Z&#228;hlzeitdefinition und die erneute &#220;bermittlung durchf&#252;hren. -->
<g id="edge23" class="edge">
<title>11-&gt;Korrektur der &#220;bersicht der Z&#228;hlzeitdefinition bzw. Korrektur der ausgerollten Z&#228;hlzeitdefinition und die erneute &#220;bermittlung durchf&#252;hren.</title>
<path fill="none" stroke="#88a0d6" d="M526.74,-152.18C611.24,-131.59 754.76,-96.61 855.11,-72.16"/>
<polygon fill="#88a0d6" stroke="#88a0d6" points="855.85,-75.58 864.74,-69.81 854.2,-68.78 855.85,-75.58"/>
<text text-anchor="start" x="712.02" y="-110.23" font-family="Roboto, sans-serif" font-weight="bold" font-size="14.00">NEIN</text>
</g>
</g>
</svg>
  </g>
</svg>
  </g>
</svg>
