<?xml version="1.0" encoding="UTF-8" standalone="no"?>
<!DOCTYPE svg PUBLIC "-//W3C//DTD SVG 1.1//EN"
 "http://www.w3.org/Graphics/SVG/1.1/DTD/svg11.dtd">
<!-- Generated by graphviz version 7.0.5 (20221223.1930)
 -->
<!-- Title: D Pages: 1 -->
<svg width="2168pt" height="839pt"
 viewBox="0.00 0.00 2168.00 839.00" xmlns="http://www.w3.org/2000/svg" xmlns:xlink="http://www.w3.org/1999/xlink">
<g id="graph0" class="graph" transform="scale(1 1) rotate(0) translate(4 835)">
<title>D</title>
<polygon fill="white" stroke="none" points="-4,4 -4,-835 2164,-835 2164,4 -4,4"/>
<text text-anchor="start" x="1051" y="-813.6" font-family="Times,serif" font-weight="bold" font-size="18.00">GPKE</text>
<text text-anchor="start" x="783" y="-783.2" font-family="Times,serif" font-weight="bold" font-size="16.00">6.37.1: AD: Bestellung Änderung Bilanzierungsverfahren vom NB</text>
<!-- Start -->
<g id="node1" class="node">
<title>Start</title>
<polygon fill="#7a8da1" stroke="black" points="993,-733 694,-733 694,-689 993,-689 993,-733"/>
<text text-anchor="start" x="815" y="-713.8" font-family="Times,serif" font-weight="bold" font-size="14.00">E_0474</text>
<text text-anchor="start" x="708" y="-701.4" font-family="Times,serif" font-weight="bold" text-decoration="underline" font-size="12.00">Prüfende Rolle:</text>
<text text-anchor="start" x="814" y="-701.4" font-family="Times,serif" font-weight="bold" font-size="12.00"> MSB der Marktlokation</text>
</g>
<!-- 1 -->
<g id="node2" class="node">
<title>1</title>
<path fill="#7aab8a" stroke="black" d="M1059.5,-652C1059.5,-652 627.5,-652 627.5,-652 621.5,-652 615.5,-646 615.5,-640 615.5,-640 615.5,-628 615.5,-628 615.5,-622 621.5,-616 627.5,-616 627.5,-616 1059.5,-616 1059.5,-616 1065.5,-616 1071.5,-622 1071.5,-628 1071.5,-628 1071.5,-640 1071.5,-640 1071.5,-646 1065.5,-652 1059.5,-652"/>
<text text-anchor="start" x="629.5" y="-631.3" font-family="Times,serif" font-weight="bold" font-size="14.00">1: </text>
<text text-anchor="start" x="649.5" y="-631.3" font-family="Times,serif" font-size="14.00">Wurde eine Zählzeit zum Anwendungszeitpunkt bestellt?</text>
</g>
<!-- Start&#45;&gt;1 -->
<g id="edge1" class="edge">
<title>Start&#45;&gt;1</title>
<path fill="none" stroke="black" d="M843.5,-688.71C843.5,-680.82 843.5,-671.75 843.5,-663.33"/>
<polygon fill="black" stroke="black" points="847,-663.57 843.5,-653.57 840,-663.57 847,-663.57"/>
</g>
<!-- 2 -->
<g id="node3" class="node">
<title>2</title>
<path fill="#7aab8a" stroke="black" d="M1092,-565C1092,-565 17,-565 17,-565 11,-565 5,-559 5,-553 5,-553 5,-541 5,-541 5,-535 11,-529 17,-529 17,-529 1092,-529 1092,-529 1098,-529 1104,-535 1104,-541 1104,-541 1104,-553 1104,-553 1104,-559 1098,-565 1092,-565"/>
<text text-anchor="start" x="19" y="-544.3" font-family="Times,serif" font-weight="bold" font-size="14.00">2: </text>
<text text-anchor="start" x="39" y="-544.3" font-family="Times,serif" font-size="14.00">Ist die gewünschte Zählzeit zum Anwendungszeitpunkt Bestandteil der Übersicht der Zählzeitdefinition, welche zuvor vom NB übermittelt wurde?</text>
</g>
<!-- 1&#45;&gt;2 -->
<g id="edge3" class="edge">
<title>1&#45;&gt;2</title>
<path fill="none" stroke="black" d="M784.32,-615.59C737.95,-601.96 673.33,-582.95 624.42,-568.56"/>
<polygon fill="black" stroke="black" points="625.64,-565.27 615.05,-565.81 623.66,-571.99 625.64,-565.27"/>
<text text-anchor="middle" x="723.5" y="-586.8" font-family="Times,serif" font-size="14.00">Ja</text>
</g>
<!-- 4 -->
<g id="node7" class="node">
<title>4</title>
<path fill="#7aab8a" stroke="black" d="M1428,-370C1428,-370 837,-370 837,-370 831,-370 825,-364 825,-358 825,-358 825,-346 825,-346 825,-340 831,-334 837,-334 837,-334 1428,-334 1428,-334 1434,-334 1440,-340 1440,-346 1440,-346 1440,-358 1440,-358 1440,-364 1434,-370 1428,-370"/>
<text text-anchor="start" x="839" y="-349.3" font-family="Times,serif" font-weight="bold" font-size="14.00">4: </text>
<text text-anchor="start" x="859" y="-349.3" font-family="Times,serif" font-size="14.00">Ist die gewünschte Konfiguration zum gewünschten Termin bereits umgesetzt?</text>
</g>
<!-- 1&#45;&gt;4 -->
<g id="edge2" class="edge">
<title>1&#45;&gt;4</title>
<path fill="none" stroke="black" d="M968.43,-615.56C1029.09,-604.41 1093.02,-587.72 1112.5,-565 1156.8,-513.32 1147.72,-426.32 1139.13,-381.53"/>
<polygon fill="black" stroke="black" points="1142.58,-380.91 1137.13,-371.82 1135.72,-382.32 1142.58,-380.91"/>
<text text-anchor="middle" x="1160.5" y="-499.8" font-family="Times,serif" font-size="14.00">Nein</text>
</g>
<!-- A01 -->
<g id="node4" class="node">
<title>A01</title>
<polygon fill="#cca9ab" stroke="black" points="381,-478 0,-478 0,-428 381,-428 381,-478"/>
<text text-anchor="start" x="175" y="-461.8" font-family="Times,serif" font-weight="bold" font-size="14.00">A01</text>
<text text-anchor="start" x="12" y="-449.4" font-family="Times,serif" text-decoration="underline" font-size="12.00">Hinweis:</text>
<text text-anchor="start" x="12" y="-437.4" font-family="Times,serif" font-size="12.00">Zählzeitdefinition zum Anwendungszeitpunkt nicht bekannt</text>
</g>
<!-- 2&#45;&gt;A01 -->
<g id="edge4" class="edge">
<title>2&#45;&gt;A01</title>
<path fill="none" stroke="black" d="M485.61,-528.59C432.83,-515.25 359.03,-496.6 298.44,-481.28"/>
<polygon fill="black" stroke="black" points="299.3,-477.89 288.75,-478.83 297.59,-484.68 299.3,-477.89"/>
<text text-anchor="middle" x="433.5" y="-499.8" font-family="Times,serif" font-size="14.00">Nein</text>
</g>
<!-- 3 -->
<g id="node5" class="node">
<title>3</title>
<path fill="#7aab8a" stroke="black" d="M1036,-471C1036,-471 411,-471 411,-471 405,-471 399,-465 399,-459 399,-459 399,-447 399,-447 399,-441 405,-435 411,-435 411,-435 1036,-435 1036,-435 1042,-435 1048,-441 1048,-447 1048,-447 1048,-459 1048,-459 1048,-465 1042,-471 1036,-471"/>
<text text-anchor="start" x="413" y="-450.3" font-family="Times,serif" font-weight="bold" font-size="14.00">3: </text>
<text text-anchor="start" x="433" y="-450.3" font-family="Times,serif" font-size="14.00">Liegt zum Anwendungszeitpunkt die ausgerollte Zählzeit zur Zählzeitdefinition vor?</text>
</g>
<!-- 2&#45;&gt;3 -->
<g id="edge5" class="edge">
<title>2&#45;&gt;3</title>
<path fill="none" stroke="black" d="M586.29,-528.7C613.23,-514.03 652.08,-492.88 681.56,-476.83"/>
<polygon fill="black" stroke="black" points="683.13,-479.96 690.24,-472.11 679.78,-473.81 683.13,-479.96"/>
<text text-anchor="middle" x="651.5" y="-499.8" font-family="Times,serif" font-size="14.00">Ja</text>
</g>
<!-- A02 -->
<g id="node6" class="node">
<title>A02</title>
<polygon fill="#cca9ab" stroke="black" points="806.5,-377 276.5,-377 276.5,-327 806.5,-327 806.5,-377"/>
<text text-anchor="start" x="526" y="-360.8" font-family="Times,serif" font-weight="bold" font-size="14.00">A02</text>
<text text-anchor="start" x="288.5" y="-348.4" font-family="Times,serif" text-decoration="underline" font-size="12.00">Hinweis:</text>
<text text-anchor="start" x="288.5" y="-336.4" font-family="Times,serif" font-size="12.00">Ausgerollte Zählzeit zur Zählzeitdefinition liegt zum Anwendungszeitpunkt nicht vor</text>
</g>
<!-- 3&#45;&gt;A02 -->
<g id="edge6" class="edge">
<title>3&#45;&gt;A02</title>
<path fill="none" stroke="black" d="M691.38,-434.53C665.05,-420.2 627.18,-399.61 596.1,-382.7"/>
<polygon fill="black" stroke="black" points="598.05,-379.78 587.6,-378.08 594.71,-385.93 598.05,-379.78"/>
<text text-anchor="middle" x="660.5" y="-398.8" font-family="Times,serif" font-size="14.00">Nein</text>
</g>
<!-- 3&#45;&gt;4 -->
<g id="edge7" class="edge">
<title>3&#45;&gt;4</title>
<path fill="none" stroke="black" d="M795.68,-434.53C866.72,-417.33 975.09,-391.1 1049.61,-373.06"/>
<polygon fill="black" stroke="black" points="1049.99,-376.57 1058.88,-370.82 1048.34,-369.77 1049.99,-376.57"/>
<text text-anchor="middle" x="959.5" y="-398.8" font-family="Times,serif" font-size="14.00">Ja</text>
</g>
<!-- A03 -->
<g id="node8" class="node">
<title>A03</title>
<polygon fill="#cca9ab" stroke="black" points="1166,-276 805,-276 805,-226 1166,-226 1166,-276"/>
<text text-anchor="start" x="970" y="-259.8" font-family="Times,serif" font-weight="bold" font-size="14.00">A03</text>
<text text-anchor="start" x="817" y="-247.4" font-family="Times,serif" text-decoration="underline" font-size="12.00">Hinweis:</text>
<text text-anchor="start" x="817" y="-235.4" font-family="Times,serif" font-size="12.00">Gewünschte Konfiguration liegt zum Termin bereits vor.</text>
</g>
<!-- 4&#45;&gt;A03 -->
<g id="edge9" class="edge">
<title>4&#45;&gt;A03</title>
<path fill="none" stroke="black" d="M1106.56,-333.53C1085.66,-319.45 1055.76,-299.32 1030.91,-282.58"/>
<polygon fill="black" stroke="black" points="1033.16,-279.88 1022.91,-277.2 1029.25,-285.69 1033.16,-279.88"/>
<text text-anchor="middle" x="1075.5" y="-297.8" font-family="Times,serif" font-size="14.00">Ja</text>
</g>
<!-- 5 -->
<g id="node9" class="node">
<title>5</title>
<path fill="#7aab8a" stroke="black" d="M1873,-269C1873,-269 1196,-269 1196,-269 1190,-269 1184,-263 1184,-257 1184,-257 1184,-245 1184,-245 1184,-239 1190,-233 1196,-233 1196,-233 1873,-233 1873,-233 1879,-233 1885,-239 1885,-245 1885,-245 1885,-257 1885,-257 1885,-263 1879,-269 1873,-269"/>
<text text-anchor="start" x="1198" y="-248.3" font-family="Times,serif" font-weight="bold" font-size="14.00">5: </text>
<text text-anchor="start" x="1218" y="-248.3" font-family="Times,serif" font-size="14.00">Entspricht der geplante Termin zur Änderung der Konfiguration den Prozessfristvorgaben?</text>
</g>
<!-- 4&#45;&gt;5 -->
<g id="edge8" class="edge">
<title>4&#45;&gt;5</title>
<path fill="none" stroke="black" d="M1203.44,-333.53C1273.12,-316.37 1379.34,-290.21 1452.58,-272.17"/>
<polygon fill="black" stroke="black" points="1453.25,-275.61 1462.12,-269.82 1451.57,-268.82 1453.25,-275.61"/>
<text text-anchor="middle" x="1374.5" y="-297.8" font-family="Times,serif" font-size="14.00">Nein</text>
</g>
<!-- A04 -->
<g id="node10" class="node">
<title>A04</title>
<polygon fill="#cca9ab" stroke="black" points="1523,-175 1378,-175 1378,-125 1523,-125 1523,-175"/>
<text text-anchor="start" x="1435" y="-158.8" font-family="Times,serif" font-weight="bold" font-size="14.00">A04</text>
<text text-anchor="start" x="1390" y="-146.4" font-family="Times,serif" text-decoration="underline" font-size="12.00">Hinweis:</text>
<text text-anchor="start" x="1390" y="-134.4" font-family="Times,serif" font-size="12.00">Fristüberschreitung</text>
</g>
<!-- 5&#45;&gt;A04 -->
<g id="edge10" class="edge">
<title>5&#45;&gt;A04</title>
<path fill="none" stroke="black" d="M1519.87,-232.76C1508.53,-219.39 1492.47,-200.46 1478.65,-184.18"/>
<polygon fill="black" stroke="black" points="1481.38,-181.98 1472.24,-176.62 1476.04,-186.51 1481.38,-181.98"/>
<text text-anchor="middle" x="1514.5" y="-196.8" font-family="Times,serif" font-size="14.00">Nein</text>
</g>
<!-- 6 -->
<g id="node11" class="node">
<title>6</title>
<path fill="#7aab8a" stroke="black" d="M1908,-168C1908,-168 1553,-168 1553,-168 1547,-168 1541,-162 1541,-156 1541,-156 1541,-144 1541,-144 1541,-138 1547,-132 1553,-132 1553,-132 1908,-132 1908,-132 1914,-132 1920,-138 1920,-144 1920,-144 1920,-156 1920,-156 1920,-162 1914,-168 1908,-168"/>
<text text-anchor="start" x="1555" y="-147.3" font-family="Times,serif" font-weight="bold" font-size="14.00">6: </text>
<text text-anchor="start" x="1575" y="-147.3" font-family="Times,serif" font-size="14.00">Ist ein nicht spezifizierter Fehler aufgetreten?</text>
</g>
<!-- 5&#45;&gt;6 -->
<g id="edge11" class="edge">
<title>5&#45;&gt;6</title>
<path fill="none" stroke="black" d="M1569.09,-232.53C1601.6,-216.11 1650.42,-191.45 1685.85,-173.55"/>
<polygon fill="black" stroke="black" points="1687.23,-176.78 1694.58,-169.15 1684.07,-170.53 1687.23,-176.78"/>
<text text-anchor="middle" x="1650.5" y="-196.8" font-family="Times,serif" font-size="14.00">Ja</text>
</g>
<!-- A99 -->
<g id="node12" class="node">
<title>A99</title>
<polygon fill="#cca9ab" stroke="black" points="1750.5,-74 1242.5,-74 1242.5,0 1750.5,0 1750.5,-74"/>
<text text-anchor="start" x="1481" y="-57.8" font-family="Times,serif" font-weight="bold" font-size="14.00">A99</text>
<text text-anchor="start" x="1254.5" y="-45.4" font-family="Times,serif" text-decoration="underline" font-size="12.00">Hinweis:</text>
<text text-anchor="start" x="1254.5" y="-33.4" font-family="Times,serif" font-size="12.00">Ablehnung Sonstiges</text>
<text text-anchor="start" x="1254.5" y="-21.4" font-family="Times,serif" font-size="12.00">Hinweis: Das identifizierte Problem ist in der Antwort zu beschreiben/benennen.</text>
<text text-anchor="start" x="1254.5" y="-9.4" font-family="Times,serif" font-size="12.00">Nutzungsmöglichkeit Ende: 01.10.2023 00:00 Uhr</text>
</g>
<!-- 6&#45;&gt;A99 -->
<g id="edge12" class="edge">
<title>6&#45;&gt;A99</title>
<path fill="none" stroke="black" d="M1693.68,-131.53C1664.14,-117.52 1621.47,-97.28 1583.37,-79.21"/>
<polygon fill="black" stroke="black" points="1585.18,-76.19 1574.65,-75.07 1582.18,-82.52 1585.18,-76.19"/>
<text text-anchor="middle" x="1647.5" y="-95.8" font-family="Times,serif" font-size="14.00">Ja</text>
</g>
<!-- A05 -->
<g id="node13" class="node">
<title>A05</title>
<polygon fill="#cca9ab" stroke="black" points="2160,-62 1769,-62 1769,-12 2160,-12 2160,-62"/>
<text text-anchor="start" x="1949" y="-45.8" font-family="Times,serif" font-weight="bold" font-size="14.00">A05</text>
<text text-anchor="start" x="1781" y="-33.4" font-family="Times,serif" text-decoration="underline" font-size="12.00">Hinweis:</text>
<text text-anchor="start" x="1781" y="-21.4" font-family="Times,serif" font-size="12.00">Bestellung wird an den MSB der Messlokation weitergeleitet</text>
</g>
<!-- 6&#45;&gt;A05 -->
<g id="edge13" class="edge">
<title>6&#45;&gt;A05</title>
<path fill="none" stroke="black" d="M1767.32,-131.53C1803.59,-114.33 1859.65,-87.74 1902.74,-67.29"/>
<polygon fill="black" stroke="black" points="1904.22,-70.47 1911.75,-63.02 1901.22,-64.14 1904.22,-70.47"/>
<text text-anchor="middle" x="1864.5" y="-95.8" font-family="Times,serif" font-size="14.00">Nein</text>
</g>
</g>
</svg>
