<?xml version='1.0' encoding='ASCII' standalone='yes'?>
<svg xmlns="http://www.w3.org/2000/svg" xmlns:xlink="http://www.w3.org/1999/xlink" version="1.1" width="5680.0px" viewBox="0 0 5680.0 2188.0" height="2188.0px">
  <g>
    <svg version="1.1" width="5680.0px" viewBox="0 0 5680.0 2188.0" height="2188.0px">
  <polygon fill="#f3f1f6" points="0,0 5680.0,0 5680.0,2188.0 0,2188.0"/><g>
    <g transform="translate(1965.4491931935988, 218.79999999999995) scale(1 1) translate(0, 0) scale(9.895483478375509 9.895483478375509) "><sodipodi:namedview xmlns:sodipodi="http://sodipodi.sourceforge.net/DTD/sodipodi-0.dtd" xmlns:inkscape="http://www.inkscape.org/namespaces/inkscape" id="namedview7" pagecolor="#ffffff" bordercolor="#999999" borderopacity="1" inkscape:pageshadow="0" inkscape:pageopacity="0" inkscape:pagecheckerboard="0" inkscape:document-units="mm" showgrid="false" fit-margin-top="0" fit-margin-left="0" fit-margin-right="0" fit-margin-bottom="0" inkscape:zoom="0.64052329" inkscape:cx="130.36216" inkscape:cy="412.163" inkscape:window-width="1512" inkscape:window-height="916" inkscape:window-x="3840" inkscape:window-y="136" inkscape:window-maximized="0" inkscape:current-layer="layer1"/>
  <defs id="defs2">
    <clipPath clipPathUnits="userSpaceOnUse" id="clipPath23">
      <path d="M 0,568.156 H 579.236 V 0 H 0 Z" id="path21"/>
    </clipPath>
  </defs>
  <g xmlns:inkscape="http://www.inkscape.org/namespaces/inkscape" inkscape:label="Layer 1" inkscape:groupmode="layer" id="layer1" transform="translate(-16.541937,-55.305267)">
    <g id="g19" clip-path="url(#clipPath23)" transform="matrix(0.35277777,0,0,-0.35277777,0.01017023,243.73675)" style="opacity:0.2">
      <g id="g25" transform="translate(122.444,32.7195)">
        <path d="m 0,0 h -56.104 c -11,0 -19.898,9.123 -19.463,20.115 10.594,267.191 231.277,481.302 501.029,481.302 v -56.02 c 0,-10.98 -8.688,-19.892 -19.658,-20.393 C 180.29,414.697 0,228.005 0,0" style="fill:#6ead83;fill-opacity:1;fill-rule:nonzero;stroke:none" id="path27"/>
      </g>
      <g id="g29" transform="translate(273.7828,32.7195)">
        <path d="m 0,0 h -55.926 c -11.228,0 -20.091,9.482 -19.435,20.69 10.744,183.439 163.389,329.388 349.485,329.388 v -56.263 c 0,-10.709 -8.273,-19.617 -18.957,-20.35 C 112.819,263.696 0,144.774 0,0" style="fill:#6ead83;fill-opacity:1;fill-rule:nonzero;stroke:none" id="path31"/>
      </g>
      <g id="g33" transform="translate(425.7667,32.7195)">
        <path d="m 0,0 h -55.445 c -11.653,0 -20.604,10.17 -19.334,21.753 10.866,99.032 95.031,176.341 196.919,176.341 v -57.011 c 0,-10.046 -7.283,-18.755 -17.229,-20.165 C 45.688,112.522 0,61.497 0,0" style="fill:#6ead83;fill-opacity:1;fill-rule:nonzero;stroke:none" id="path35"/>
      </g>
    </g>
  </g>
</g>
    <svg width="4260pt" height="1641pt" viewBox="0.00 0.00 4260.30 1640.60">
<g id="graph0" class="graph" transform="scale(1 1) rotate(0) translate(4 1636.6)">
<title>D</title>
<text text-anchor="start" x="2102.65" y="-1612.5" font-family="Times,serif" font-weight="bold" font-size="18.00">GPKE</text>
<text text-anchor="start" x="1862.65" y="-1582.4" font-family="Times,serif" font-weight="bold" font-size="16.00">6.9.1: AD: Unterbrechung der Anschlussnutzung (Sperren) auf Anweisung des LF</text>
<!-- Start -->
<g id="node1" class="node">
<title>Start</title>
<polygon fill="#7a8da1" stroke="black" points="188.8,-1534.6 66,-1534.6 66,-1491.32 188.8,-1491.32 188.8,-1534.6"/>
<text text-anchor="start" x="105.9" y="-1513.66" font-family="Times,serif" font-weight="bold" font-size="14.00">E_0470</text>
<text text-anchor="start" x="80.4" y="-1501.56" font-family="Times,serif" font-weight="bold" text-decoration="underline" font-size="12.00">Pr&#252;fende Rolle:</text>
<text text-anchor="start" x="155.4" y="-1501.56" font-family="Times,serif" font-weight="bold" font-size="12.00"> NB</text>
</g>
<!-- 1 -->
<g id="node2" class="node">
<title>1</title>
<path fill="#7aab8a" stroke="black" d="M242.8,-1454.32C242.8,-1454.32 12,-1454.32 12,-1454.32 6,-1454.32 0,-1448.32 0,-1442.32 0,-1442.32 0,-1430.32 0,-1430.32 0,-1424.32 6,-1418.32 12,-1418.32 12,-1418.32 242.8,-1418.32 242.8,-1418.32 248.8,-1418.32 254.8,-1424.32 254.8,-1430.32 254.8,-1430.32 254.8,-1442.32 254.8,-1442.32 254.8,-1448.32 248.8,-1454.32 242.8,-1454.32"/>
<text text-anchor="start" x="14.4" y="-1432.42" font-family="Times,serif" font-weight="bold" font-size="14.00">1: </text>
<text text-anchor="start" x="27.4" y="-1432.42" font-family="Times,serif" font-size="14.00">Ist die Marktlokation bereits gesperrt?</text>
</g>
<!-- Start&#45;&gt;1 -->
<g id="edge1" class="edge">
<title>Start-&gt;1</title>
<path fill="none" stroke="black" d="M127.4,-1491.17C127.4,-1483.13 127.4,-1473.81 127.4,-1465.21"/>
<polygon fill="black" stroke="black" points="130.9,-1465.48 127.4,-1455.48 123.9,-1465.48 130.9,-1465.48"/>
</g>
<!-- A01 -->
<g id="node3" class="node">
<title>A01</title>
<polygon fill="#cfb986" stroke="black" points="203.64,-1365.52 17.16,-1365.52 17.16,-1304 203.64,-1304 203.64,-1365.52"/>
<text text-anchor="start" x="98.4" y="-1347.46" font-family="Times,serif" font-weight="bold" font-size="14.00">A01</text>
<text text-anchor="start" x="29.4" y="-1335.36" font-family="Times,serif" text-decoration="underline" font-size="12.00">Hinweis:</text>
<text text-anchor="start" x="29.4" y="-1323.36" font-family="Times,serif" font-size="12.00">Cluster: Ablehnung</text>
<text text-anchor="start" x="29.4" y="-1311.36" font-family="Times,serif" font-size="12.00">Marktlokation ist bereits gesperrt.</text>
</g>
<!-- 1&#45;&gt;A01 -->
<g id="edge2" class="edge">
<title>1-&gt;A01</title>
<path fill="none" stroke="black" d="M124.44,-1417.98C122.48,-1406.52 119.83,-1391.01 117.36,-1376.55"/>
<polygon fill="black" stroke="black" points="120.66,-1376.04 115.53,-1366.77 113.76,-1377.22 120.66,-1376.04"/>
<text text-anchor="middle" x="127.9" y="-1387.02" font-family="Times,serif" font-size="14.00">Ja</text>
</g>
<!-- 2 -->
<g id="node4" class="node">
<title>2</title>
<path fill="#7aab8a" stroke="black" d="M916.8,-1352.76C916.8,-1352.76 234,-1352.76 234,-1352.76 228,-1352.76 222,-1346.76 222,-1340.76 222,-1340.76 222,-1328.76 222,-1328.76 222,-1322.76 228,-1316.76 234,-1316.76 234,-1316.76 916.8,-1316.76 916.8,-1316.76 922.8,-1316.76 928.8,-1322.76 928.8,-1328.76 928.8,-1328.76 928.8,-1340.76 928.8,-1340.76 928.8,-1346.76 922.8,-1352.76 916.8,-1352.76"/>
<text text-anchor="start" x="236.4" y="-1330.86" font-family="Times,serif" font-weight="bold" font-size="14.00">2: </text>
<text text-anchor="start" x="250.4" y="-1330.86" font-family="Times,serif" font-size="14.00">Liegt f&#252;r die Marktlokation im Zeitraum von 6 WT ab dem fr&#252;hestm&#246;glichen Sperrtermin bereits ein Sperrauftrag vor?</text>
</g>
<!-- 1&#45;&gt;2 -->
<g id="edge3" class="edge">
<title>1-&gt;2</title>
<path fill="none" stroke="black" d="M205.95,-1417.86C284.32,-1400.45 404.55,-1373.73 486.41,-1355.54"/>
<polygon fill="black" stroke="black" points="486.94,-1358.78 495.94,-1353.2 485.42,-1351.95 486.94,-1358.78"/>
<text text-anchor="middle" x="364.9" y="-1387.02" font-family="Times,serif" font-size="14.00">Nein</text>
</g>
<!-- A10 -->
<g id="node5" class="node">
<title>A10</title>
<polygon fill="#cfb986" stroke="black" points="504.14,-1251.2 248.66,-1251.2 248.66,-1189.68 504.14,-1189.68 504.14,-1251.2"/>
<text text-anchor="start" x="364.4" y="-1233.14" font-family="Times,serif" font-weight="bold" font-size="14.00">A10</text>
<text text-anchor="start" x="260.9" y="-1221.04" font-family="Times,serif" text-decoration="underline" font-size="12.00">Hinweis:</text>
<text text-anchor="start" x="260.9" y="-1209.04" font-family="Times,serif" font-size="12.00">Cluster: Ablehnung</text>
<text text-anchor="start" x="260.9" y="-1197.04" font-family="Times,serif" font-size="12.00">Sperrauftrag f&#252;r Marktlokation liegt bereits vor.</text>
</g>
<!-- 2&#45;&gt;A10 -->
<g id="edge4" class="edge">
<title>2-&gt;A10</title>
<path fill="none" stroke="black" d="M544.74,-1316.46C516.72,-1300.64 474.41,-1276.76 439.21,-1256.89"/>
<polygon fill="black" stroke="black" points="441.39,-1253.54 430.97,-1251.67 437.95,-1259.64 441.39,-1253.54"/>
<text text-anchor="middle" x="493.9" y="-1272.7" font-family="Times,serif" font-size="14.00">Ja</text>
</g>
<!-- 3 -->
<g id="node6" class="node">
<title>3</title>
<path fill="#7aab8a" stroke="black" d="M1748.3,-1238.44C1748.3,-1238.44 534.5,-1238.44 534.5,-1238.44 528.5,-1238.44 522.5,-1232.44 522.5,-1226.44 522.5,-1226.44 522.5,-1214.44 522.5,-1214.44 522.5,-1208.44 528.5,-1202.44 534.5,-1202.44 534.5,-1202.44 1748.3,-1202.44 1748.3,-1202.44 1754.3,-1202.44 1760.3,-1208.44 1760.3,-1214.44 1760.3,-1214.44 1760.3,-1226.44 1760.3,-1226.44 1760.3,-1232.44 1754.3,-1238.44 1748.3,-1238.44"/>
<text text-anchor="start" x="536.9" y="-1216.54" font-family="Times,serif" font-weight="bold" font-size="14.00">3: </text>
<text text-anchor="start" x="550.9" y="-1216.54" font-family="Times,serif" font-size="14.00">Ist im gesamten Ausf&#252;hrungszeitraum des Sperrauftrags (= fr&#252;hestm&#246;glicher Sperrtermin bis fr&#252;hestm&#246;glicher Sperrtermin + 6 WT) der die Sperrung beauftragende LF der zu sperrenden Marktlokation zugeordnet?</text>
</g>
<!-- 2&#45;&gt;3 -->
<g id="edge5" class="edge">
<title>2-&gt;3</title>
<path fill="none" stroke="black" d="M663.53,-1316.27C766.37,-1295.86 935.94,-1262.21 1043,-1240.97"/>
<polygon fill="black" stroke="black" points="1043.35,-1244.27 1052.48,-1238.89 1041.99,-1237.4 1043.35,-1244.27"/>
<text text-anchor="middle" x="905.9" y="-1272.7" font-family="Times,serif" font-size="14.00">Nein</text>
</g>
<!-- A11 -->
<g id="node7" class="node">
<title>A11</title>
<polygon fill="#cfb986" stroke="black" points="1244.14,-1136.88 522.66,-1136.88 522.66,-1063.36 1244.14,-1063.36 1244.14,-1136.88"/>
<text text-anchor="start" x="871.4" y="-1118.82" font-family="Times,serif" font-weight="bold" font-size="14.00">A11</text>
<text text-anchor="start" x="534.9" y="-1106.72" font-family="Times,serif" text-decoration="underline" font-size="12.00">Hinweis:</text>
<text text-anchor="start" x="534.9" y="-1094.72" font-family="Times,serif" font-size="12.00">Cluster: Ablehnung</text>
<text text-anchor="start" x="534.9" y="-1082.72" font-family="Times,serif" font-size="12.00">Zuk&#252;nftiger best&#228;tigter Lieferbeginn liegt gegen&#252;ber anderem Lieferanten bereits vor.</text>
<text text-anchor="start" x="534.9" y="-1070.72" font-family="Times,serif" font-size="12.00">Die Ausf&#252;hrungsfrist der 6 WT ab dem fr&#252;hestm&#246;glichen Sperrtermin ber&#252;hrt das best&#228;tigte Lieferbeginndatum gegen&#252;ber anderem Lieferanten.</text>
</g>
<!-- 3&#45;&gt;A11 -->
<g id="edge6" class="edge">
<title>3-&gt;A11</title>
<path fill="none" stroke="black" d="M1103.33,-1201.98C1068.92,-1186.2 1016.95,-1162.37 972.16,-1141.83"/>
<polygon fill="black" stroke="black" points="973.98,-1138.35 963.43,-1137.36 971.06,-1144.71 973.98,-1138.35"/>
<text text-anchor="middle" x="1049.9" y="-1158.38" font-family="Times,serif" font-size="14.00">Nein</text>
</g>
<!-- 4 -->
<g id="node8" class="node">
<title>4</title>
<path fill="#7aab8a" stroke="black" d="M2458.8,-1118.12C2458.8,-1118.12 1274,-1118.12 1274,-1118.12 1268,-1118.12 1262,-1112.12 1262,-1106.12 1262,-1106.12 1262,-1094.12 1262,-1094.12 1262,-1088.12 1268,-1082.12 1274,-1082.12 1274,-1082.12 2458.8,-1082.12 2458.8,-1082.12 2464.8,-1082.12 2470.8,-1088.12 2470.8,-1094.12 2470.8,-1094.12 2470.8,-1106.12 2470.8,-1106.12 2470.8,-1112.12 2464.8,-1118.12 2458.8,-1118.12"/>
<text text-anchor="start" x="1276.4" y="-1096.22" font-family="Times,serif" font-weight="bold" font-size="14.00">4: </text>
<text text-anchor="start" x="1290.4" y="-1096.22" font-family="Times,serif" font-size="14.00">Ist im Zeitraum von 6 WT ab dem fr&#252;hestm&#246;glichen Sperrtermin an allen Messlokationen, welche der Marktlokation zugeordnet sind, der identische MSB zugeordnet, wie an der zu sperrenden Marktlokation?</text>
</g>
<!-- 3&#45;&gt;4 -->
<g id="edge7" class="edge">
<title>3-&gt;4</title>
<path fill="none" stroke="black" d="M1248.38,-1201.98C1382.07,-1180.16 1610.09,-1142.95 1748.64,-1120.34"/>
<polygon fill="black" stroke="black" points="1748.97,-1123.67 1758.28,-1118.6 1747.85,-1116.76 1748.97,-1123.67"/>
<text text-anchor="middle" x="1531.9" y="-1158.38" font-family="Times,serif" font-size="14.00">Ja</text>
</g>
<!-- A02 -->
<g id="node9" class="node">
<title>A02</title>
<polygon fill="#cfb986" stroke="black" points="1977.64,-1010.56 1507.16,-1010.56 1507.16,-949.04 1977.64,-949.04 1977.64,-1010.56"/>
<text text-anchor="start" x="1730.4" y="-992.5" font-family="Times,serif" font-weight="bold" font-size="14.00">A02</text>
<text text-anchor="start" x="1519.4" y="-980.4" font-family="Times,serif" text-decoration="underline" font-size="12.00">Hinweis:</text>
<text text-anchor="start" x="1519.4" y="-968.4" font-family="Times,serif" font-size="12.00">Cluster: Ablehnung</text>
<text text-anchor="start" x="1519.4" y="-956.4" font-family="Times,serif" font-size="12.00">An mindestens einer Messlokation ist ein anderer MSB zugeordnet als an der Marktlokation.</text>
</g>
<!-- 4&#45;&gt;A02 -->
<g id="edge8" class="edge">
<title>4-&gt;A02</title>
<path fill="none" stroke="black" d="M1848.1,-1081.66C1830.63,-1064.99 1803.72,-1039.32 1781.43,-1018.05"/>
<polygon fill="black" stroke="black" points="1784.42,-1016.1 1774.77,-1011.73 1779.58,-1021.16 1784.42,-1016.1"/>
<text text-anchor="middle" x="1821.9" y="-1032.06" font-family="Times,serif" font-size="14.00">Nein</text>
</g>
<!-- 5 -->
<g id="node10" class="node">
<title>5</title>
<path fill="#7aab8a" stroke="black" d="M2371.3,-997.8C2371.3,-997.8 2007.5,-997.8 2007.5,-997.8 2001.5,-997.8 1995.5,-991.8 1995.5,-985.8 1995.5,-985.8 1995.5,-973.8 1995.5,-973.8 1995.5,-967.8 2001.5,-961.8 2007.5,-961.8 2007.5,-961.8 2371.3,-961.8 2371.3,-961.8 2377.3,-961.8 2383.3,-967.8 2383.3,-973.8 2383.3,-973.8 2383.3,-985.8 2383.3,-985.8 2383.3,-991.8 2377.3,-997.8 2371.3,-997.8"/>
<text text-anchor="start" x="2009.9" y="-975.9" font-family="Times,serif" font-weight="bold" font-size="14.00">5: </text>
<text text-anchor="start" x="2023.9" y="-975.9" font-family="Times,serif" font-size="14.00">Liegt die zu sperrende Marktlokation in der Niederspannung?</text>
</g>
<!-- 4&#45;&gt;5 -->
<g id="edge9" class="edge">
<title>4-&gt;5</title>
<path fill="none" stroke="black" d="M1914.06,-1081.66C1971.99,-1060.44 2069.68,-1024.65 2131.78,-1001.91"/>
<polygon fill="black" stroke="black" points="2132.62,-1004.96 2140.81,-998.23 2130.21,-998.39 2132.62,-1004.96"/>
<text text-anchor="middle" x="2062.9" y="-1032.06" font-family="Times,serif" font-size="14.00">Ja</text>
</g>
<!-- A03 -->
<g id="node11" class="node">
<title>A03</title>
<polygon fill="#cfb986" stroke="black" points="2180.14,-896.24 1930.66,-896.24 1930.66,-834.72 2180.14,-834.72 2180.14,-896.24"/>
<text text-anchor="start" x="2043.4" y="-878.18" font-family="Times,serif" font-weight="bold" font-size="14.00">A03</text>
<text text-anchor="start" x="1942.9" y="-866.08" font-family="Times,serif" text-decoration="underline" font-size="12.00">Hinweis:</text>
<text text-anchor="start" x="1942.9" y="-854.08" font-family="Times,serif" font-size="12.00">Cluster: Ablehnung</text>
<text text-anchor="start" x="1942.9" y="-842.08" font-family="Times,serif" font-size="12.00">Marktlokation ist nicht in der Niederspannung.</text>
</g>
<!-- 5&#45;&gt;A03 -->
<g id="edge10" class="edge">
<title>5-&gt;A03</title>
<path fill="none" stroke="black" d="M2168.76,-961.5C2150.45,-946.15 2123.08,-923.21 2099.83,-903.72"/>
<polygon fill="black" stroke="black" points="2102.38,-900.46 2092.47,-896.71 2097.88,-905.82 2102.38,-900.46"/>
<text text-anchor="middle" x="2144.9" y="-917.74" font-family="Times,serif" font-size="14.00">Nein</text>
</g>
<!-- 6 -->
<g id="node12" class="node">
<title>6</title>
<path fill="#7aab8a" stroke="black" d="M2874.8,-883.48C2874.8,-883.48 2210,-883.48 2210,-883.48 2204,-883.48 2198,-877.48 2198,-871.48 2198,-871.48 2198,-859.48 2198,-859.48 2198,-853.48 2204,-847.48 2210,-847.48 2210,-847.48 2874.8,-847.48 2874.8,-847.48 2880.8,-847.48 2886.8,-853.48 2886.8,-859.48 2886.8,-859.48 2886.8,-871.48 2886.8,-871.48 2886.8,-877.48 2880.8,-883.48 2874.8,-883.48"/>
<text text-anchor="start" x="2212.4" y="-861.58" font-family="Times,serif" font-weight="bold" font-size="14.00">6: </text>
<text text-anchor="start" x="2226.4" y="-861.58" font-family="Times,serif" font-size="14.00">Sind weitere Marktlokationen von der Sperrung betroffen, f&#252;r die dieser Sperrauftrag keine Wirkung entfalten darf?</text>
</g>
<!-- 5&#45;&gt;6 -->
<g id="edge11" class="edge">
<title>5-&gt;6</title>
<path fill="none" stroke="black" d="M2244.17,-961.37C2307.04,-941.37 2410.08,-908.58 2477.07,-887.27"/>
<polygon fill="black" stroke="black" points="2478.03,-890.32 2486.5,-883.95 2475.91,-883.64 2478.03,-890.32"/>
<text text-anchor="middle" x="2392.9" y="-917.74" font-family="Times,serif" font-size="14.00">Ja</text>
</g>
<!-- A04 -->
<g id="node13" class="node">
<title>A04</title>
<polygon fill="#cfb986" stroke="black" points="2584.14,-781.92 2220.66,-781.92 2220.66,-720.4 2584.14,-720.4 2584.14,-781.92"/>
<text text-anchor="start" x="2390.4" y="-763.86" font-family="Times,serif" font-weight="bold" font-size="14.00">A04</text>
<text text-anchor="start" x="2232.9" y="-751.76" font-family="Times,serif" text-decoration="underline" font-size="12.00">Hinweis:</text>
<text text-anchor="start" x="2232.9" y="-739.76" font-family="Times,serif" font-size="12.00">Cluster: Ablehnung</text>
<text text-anchor="start" x="2232.9" y="-727.76" font-family="Times,serif" font-size="12.00">Mindestens eine weitere Marktlokation ist von der Sperrung betroffen.</text>
</g>
<!-- 6&#45;&gt;A04 -->
<g id="edge12" class="edge">
<title>6-&gt;A04</title>
<path fill="none" stroke="black" d="M2520.83,-847.18C2501.62,-831.76 2472.86,-808.69 2448.5,-789.14"/>
<polygon fill="black" stroke="black" points="2451.07,-785.92 2441.08,-782.39 2446.69,-791.38 2451.07,-785.92"/>
<text text-anchor="middle" x="2486.9" y="-803.42" font-family="Times,serif" font-size="14.00">Ja</text>
</g>
<!-- 7 -->
<g id="node14" class="node">
<title>7</title>
<path fill="#7aab8a" stroke="black" d="M3246.3,-769.16C3246.3,-769.16 2614.5,-769.16 2614.5,-769.16 2608.5,-769.16 2602.5,-763.16 2602.5,-757.16 2602.5,-757.16 2602.5,-745.16 2602.5,-745.16 2602.5,-739.16 2608.5,-733.16 2614.5,-733.16 2614.5,-733.16 3246.3,-733.16 3246.3,-733.16 3252.3,-733.16 3258.3,-739.16 3258.3,-745.16 3258.3,-745.16 3258.3,-757.16 3258.3,-757.16 3258.3,-763.16 3252.3,-769.16 3246.3,-769.16"/>
<text text-anchor="start" x="2616.9" y="-747.26" font-family="Times,serif" font-weight="bold" font-size="14.00">7: </text>
<text text-anchor="start" x="2630.9" y="-747.26" font-family="Times,serif" font-size="14.00">Liegt im gesamten Ausf&#252;hrungszeitraum ein best&#228;tigter Lieferbeginn gegen&#252;ber dem beauftragenden LF vor?</text>
</g>
<!-- 6&#45;&gt;7 -->
<g id="edge13" class="edge">
<title>6-&gt;7</title>
<path fill="none" stroke="black" d="M2602.6,-847.05C2671.98,-826.97 2785.89,-793.99 2859.5,-772.68"/>
<polygon fill="black" stroke="black" points="2860.43,-775.77 2869.06,-769.63 2858.48,-769.05 2860.43,-775.77"/>
<text text-anchor="middle" x="2773.9" y="-803.42" font-family="Times,serif" font-size="14.00">Nein</text>
</g>
<!-- A12 -->
<g id="node15" class="node">
<title>A12</title>
<polygon fill="#cfb986" stroke="black" points="3033.14,-667.6 2499.66,-667.6 2499.66,-606.08 3033.14,-606.08 3033.14,-667.6"/>
<text text-anchor="start" x="2754.4" y="-649.54" font-family="Times,serif" font-weight="bold" font-size="14.00">A12</text>
<text text-anchor="start" x="2511.9" y="-637.44" font-family="Times,serif" text-decoration="underline" font-size="12.00">Hinweis:</text>
<text text-anchor="start" x="2511.9" y="-625.44" font-family="Times,serif" font-size="12.00">Cluster: Ablehnung</text>
<text text-anchor="start" x="2511.9" y="-613.44" font-family="Times,serif" font-size="12.00">Im Ausf&#252;hrungszeitraum liegt bereits ein best&#228;tigter Lieferbeginn gegen&#252;ber dem beauftragenden LF vor.</text>
</g>
<!-- 7&#45;&gt;A12 -->
<g id="edge14" class="edge">
<title>7-&gt;A12</title>
<path fill="none" stroke="black" d="M2905.13,-732.86C2882.33,-717.24 2848.06,-693.77 2819.28,-674.06"/>
<polygon fill="black" stroke="black" points="2821.77,-670.84 2811.54,-668.07 2817.82,-676.61 2821.77,-670.84"/>
<text text-anchor="middle" x="2863.9" y="-689.1" font-family="Times,serif" font-size="14.00">Ja</text>
</g>
<!-- 8 -->
<g id="node16" class="node">
<title>8</title>
<path fill="#7aab8a" stroke="black" d="M3719.8,-654.84C3719.8,-654.84 3063,-654.84 3063,-654.84 3057,-654.84 3051,-648.84 3051,-642.84 3051,-642.84 3051,-630.84 3051,-630.84 3051,-624.84 3057,-618.84 3063,-618.84 3063,-618.84 3719.8,-618.84 3719.8,-618.84 3725.8,-618.84 3731.8,-624.84 3731.8,-630.84 3731.8,-630.84 3731.8,-642.84 3731.8,-642.84 3731.8,-648.84 3725.8,-654.84 3719.8,-654.84"/>
<text text-anchor="start" x="3065.4" y="-632.94" font-family="Times,serif" font-weight="bold" font-size="14.00">8: </text>
<text text-anchor="start" x="3079.4" y="-632.94" font-family="Times,serif" font-size="14.00">Liegt ein Verhinderungsgrund einer Sperrung (z. B. Betrieb lebensnotwendiger Ger&#228;te) an der Marktlokation vor?</text>
</g>
<!-- 7&#45;&gt;8 -->
<g id="edge15" class="edge">
<title>7-&gt;8</title>
<path fill="none" stroke="black" d="M3002.18,-732.67C3085.26,-712.43 3221.83,-679.15 3309.13,-657.88"/>
<polygon fill="black" stroke="black" points="3309.9,-661.05 3318.79,-655.29 3308.25,-654.25 3309.9,-661.05"/>
<text text-anchor="middle" x="3202.9" y="-689.1" font-family="Times,serif" font-size="14.00">Nein</text>
</g>
<!-- A05 -->
<g id="node17" class="node">
<title>A05</title>
<polygon fill="#cfb986" stroke="black" points="3438.64,-553.28 3196.16,-553.28 3196.16,-467.76 3438.64,-467.76 3438.64,-553.28"/>
<text text-anchor="start" x="3305.4" y="-535.22" font-family="Times,serif" font-weight="bold" font-size="14.00">A05</text>
<text text-anchor="start" x="3208.4" y="-523.12" font-family="Times,serif" text-decoration="underline" font-size="12.00">Hinweis:</text>
<text text-anchor="start" x="3208.4" y="-511.12" font-family="Times,serif" font-size="12.00">Cluster: Ablehnung</text>
<text text-anchor="start" x="3208.4" y="-499.12" font-family="Times,serif" font-size="12.00">Verhinderungsgrund liegt vor.</text>
<text text-anchor="start" x="3208.4" y="-487.12" font-family="Times,serif" font-size="12.00">Hinweis: Das identifizierte Problem ist in der</text>
<text text-anchor="start" x="3208.4" y="-475.12" font-family="Times,serif" font-size="12.00"> Antwort zu beschreiben/benennen.</text>
</g>
<!-- 8&#45;&gt;A05 -->
<g id="edge16" class="edge">
<title>8-&gt;A05</title>
<path fill="none" stroke="black" d="M3381.11,-618.55C3372.51,-604.1 3359.77,-582.71 3347.95,-562.84"/>
<polygon fill="black" stroke="black" points="3350.54,-561.35 3342.42,-554.55 3344.52,-564.93 3350.54,-561.35"/>
<text text-anchor="middle" x="3366.9" y="-574.78" font-family="Times,serif" font-size="14.00">Ja</text>
</g>
<!-- 9 -->
<g id="node18" class="node">
<title>9</title>
<path fill="#7aab8a" stroke="black" d="M3695.8,-528.52C3695.8,-528.52 3469,-528.52 3469,-528.52 3463,-528.52 3457,-522.52 3457,-516.52 3457,-516.52 3457,-504.52 3457,-504.52 3457,-498.52 3463,-492.52 3469,-492.52 3469,-492.52 3695.8,-492.52 3695.8,-492.52 3701.8,-492.52 3707.8,-498.52 3707.8,-504.52 3707.8,-504.52 3707.8,-516.52 3707.8,-516.52 3707.8,-522.52 3701.8,-528.52 3695.8,-528.52"/>
<text text-anchor="start" x="3471.4" y="-506.62" font-family="Times,serif" font-weight="bold" font-size="14.00">9: </text>
<text text-anchor="start" x="3485.4" y="-506.62" font-family="Times,serif" font-size="14.00">Ist der Sperrauftrag termingebunden?</text>
</g>
<!-- 8&#45;&gt;9 -->
<g id="edge17" class="edge">
<title>8-&gt;9</title>
<path fill="none" stroke="black" d="M3417.96,-618.55C3451.5,-596.72 3509.35,-559.07 3546.73,-534.74"/>
<polygon fill="black" stroke="black" points="3548.29,-537.25 3554.76,-528.86 3544.47,-531.38 3548.29,-537.25"/>
<text text-anchor="middle" x="3500.9" y="-574.78" font-family="Times,serif" font-size="14.00">Nein</text>
</g>
<!-- 10 -->
<g id="node19" class="node">
<title>10</title>
<path fill="#7aab8a" stroke="black" d="M3450.8,-414.96C3450.8,-414.96 2790,-414.96 2790,-414.96 2784,-414.96 2778,-408.96 2778,-402.96 2778,-402.96 2778,-390.96 2778,-390.96 2778,-384.96 2784,-378.96 2790,-378.96 2790,-378.96 3450.8,-378.96 3450.8,-378.96 3456.8,-378.96 3462.8,-384.96 3462.8,-390.96 3462.8,-390.96 3462.8,-402.96 3462.8,-402.96 3462.8,-408.96 3456.8,-414.96 3450.8,-414.96"/>
<text text-anchor="start" x="2792.4" y="-393.06" font-family="Times,serif" font-weight="bold" font-size="14.00">10: </text>
<text text-anchor="start" x="2812.4" y="-393.06" font-family="Times,serif" font-size="14.00">Liegt der &#252;bermittelte Sperrtermin mindestens 12 WT nach dem Eingangsdatum der Nachricht des Sperrauftrags?</text>
</g>
<!-- 9&#45;&gt;10 -->
<g id="edge18" class="edge">
<title>9-&gt;10</title>
<path fill="none" stroke="black" d="M3529.82,-492.05C3504.98,-484.11 3474.82,-474.91 3447.4,-467.76 3373.04,-448.36 3288.15,-430.36 3223.49,-417.5"/>
<polygon fill="black" stroke="black" points="3224.38,-413.91 3213.89,-415.4 3223.02,-420.78 3224.38,-413.91"/>
<text text-anchor="middle" x="3372.9" y="-436.46" font-family="Times,serif" font-size="14.00">Ja</text>
</g>
<!-- 11 -->
<g id="node21" class="node">
<title>11</title>
<path fill="#7aab8a" stroke="black" d="M4240.3,-414.96C4240.3,-414.96 3492.5,-414.96 3492.5,-414.96 3486.5,-414.96 3480.5,-408.96 3480.5,-402.96 3480.5,-402.96 3480.5,-390.96 3480.5,-390.96 3480.5,-384.96 3486.5,-378.96 3492.5,-378.96 3492.5,-378.96 4240.3,-378.96 4240.3,-378.96 4246.3,-378.96 4252.3,-384.96 4252.3,-390.96 4252.3,-390.96 4252.3,-402.96 4252.3,-402.96 4252.3,-408.96 4246.3,-414.96 4240.3,-414.96"/>
<text text-anchor="start" x="3494.9" y="-393.06" font-family="Times,serif" font-weight="bold" font-size="14.00">11: </text>
<text text-anchor="start" x="3514.9" y="-393.06" font-family="Times,serif" font-size="14.00">Liegt der &#252;bermittelte fr&#252;hestm&#246;gliche Sperrtermin mindestens 6 WT nach dem Eingangsdatum der Nachricht des Sperrauftrags?</text>
</g>
<!-- 9&#45;&gt;11 -->
<g id="edge19" class="edge">
<title>9-&gt;11</title>
<path fill="none" stroke="black" d="M3626.78,-492.09C3676.75,-472.46 3758,-440.54 3811.82,-419.4"/>
<polygon fill="black" stroke="black" points="3812.84,-422.37 3820.87,-415.45 3810.28,-415.85 3812.84,-422.37"/>
<text text-anchor="middle" x="3787.9" y="-436.46" font-family="Times,serif" font-size="14.00">Nein</text>
</g>
<!-- A06 -->
<g id="node20" class="node">
<title>A06</title>
<polygon fill="#cfb986" stroke="black" points="3273.14,-326.16 2967.66,-326.16 2967.66,-264.64 3273.14,-264.64 3273.14,-326.16"/>
<text text-anchor="start" x="3108.4" y="-308.1" font-family="Times,serif" font-weight="bold" font-size="14.00">A06</text>
<text text-anchor="start" x="2979.9" y="-296" font-family="Times,serif" text-decoration="underline" font-size="12.00">Hinweis:</text>
<text text-anchor="start" x="2979.9" y="-284" font-family="Times,serif" font-size="12.00">Cluster: Ablehnung</text>
<text text-anchor="start" x="2979.9" y="-272" font-family="Times,serif" font-size="12.00">Fristverletzung bei einem termingebundenen Sperrauftrag.</text>
</g>
<!-- 10&#45;&gt;A06 -->
<g id="edge20" class="edge">
<title>10-&gt;A06</title>
<path fill="none" stroke="black" d="M3120.4,-378.62C3120.4,-367.16 3120.4,-351.65 3120.4,-337.19"/>
<polygon fill="black" stroke="black" points="3123.9,-337.41 3120.4,-327.41 3116.9,-337.41 3123.9,-337.41"/>
<text text-anchor="middle" x="3133.9" y="-347.66" font-family="Times,serif" font-size="14.00">Nein</text>
</g>
<!-- 12 -->
<g id="node23" class="node">
<title>12</title>
<path fill="#7aab8a" stroke="black" d="M3644.3,-313.4C3644.3,-313.4 3330.5,-313.4 3330.5,-313.4 3324.5,-313.4 3318.5,-307.4 3318.5,-301.4 3318.5,-301.4 3318.5,-289.4 3318.5,-289.4 3318.5,-283.4 3324.5,-277.4 3330.5,-277.4 3330.5,-277.4 3644.3,-277.4 3644.3,-277.4 3650.3,-277.4 3656.3,-283.4 3656.3,-289.4 3656.3,-289.4 3656.3,-301.4 3656.3,-301.4 3656.3,-307.4 3650.3,-313.4 3644.3,-313.4"/>
<text text-anchor="start" x="3332.9" y="-291.5" font-family="Times,serif" font-weight="bold" font-size="14.00">12: </text>
<text text-anchor="start" x="3352.9" y="-291.5" font-family="Times,serif" font-size="14.00">Ist ein zuvor nicht spezifizierter Fehler aufgetreten?</text>
</g>
<!-- 10&#45;&gt;12 -->
<g id="edge21" class="edge">
<title>10-&gt;12</title>
<path fill="none" stroke="black" d="M3184.75,-378.5C3248.36,-361.25 3345.63,-334.86 3412.64,-316.68"/>
<polygon fill="black" stroke="black" points="3413.39,-319.83 3422.13,-313.84 3411.56,-313.08 3413.39,-319.83"/>
<text text-anchor="middle" x="3309.9" y="-347.66" font-family="Times,serif" font-size="14.00">Ja</text>
</g>
<!-- A07 -->
<g id="node22" class="node">
<title>A07</title>
<polygon fill="#cfb986" stroke="black" points="4032.64,-326.16 3700.16,-326.16 3700.16,-264.64 4032.64,-264.64 4032.64,-326.16"/>
<text text-anchor="start" x="3854.4" y="-308.1" font-family="Times,serif" font-weight="bold" font-size="14.00">A07</text>
<text text-anchor="start" x="3712.4" y="-296" font-family="Times,serif" text-decoration="underline" font-size="12.00">Hinweis:</text>
<text text-anchor="start" x="3712.4" y="-284" font-family="Times,serif" font-size="12.00">Cluster: Ablehnung</text>
<text text-anchor="start" x="3712.4" y="-272" font-family="Times,serif" font-size="12.00">Fristverletzung bei einem nicht termingebundenen Sperrauftrag.</text>
</g>
<!-- 11&#45;&gt;A07 -->
<g id="edge22" class="edge">
<title>11-&gt;A07</title>
<path fill="none" stroke="black" d="M3866.4,-378.62C3866.4,-367.16 3866.4,-351.65 3866.4,-337.19"/>
<polygon fill="black" stroke="black" points="3869.9,-337.41 3866.4,-327.41 3862.9,-337.41 3869.9,-337.41"/>
<text text-anchor="middle" x="3879.9" y="-347.66" font-family="Times,serif" font-size="14.00">Nein</text>
</g>
<!-- 11&#45;&gt;12 -->
<g id="edge23" class="edge">
<title>11-&gt;12</title>
<path fill="none" stroke="black" d="M3799.95,-378.5C3734.12,-361.21 3633.39,-334.75 3564.18,-316.57"/>
<polygon fill="black" stroke="black" points="3565.34,-312.99 3554.77,-313.84 3563.56,-319.76 3565.34,-312.99"/>
<text text-anchor="middle" x="3738.9" y="-347.66" font-family="Times,serif" font-size="14.00">Ja</text>
</g>
<!-- A99 -->
<g id="node24" class="node">
<title>A99</title>
<polygon fill="#cfb986" stroke="black" points="3509.64,-211.84 3241.16,-211.84 3241.16,-114.32 3509.64,-114.32 3509.64,-211.84"/>
<text text-anchor="start" x="3363.4" y="-193.78" font-family="Times,serif" font-weight="bold" font-size="14.00">A99</text>
<text text-anchor="start" x="3253.4" y="-181.68" font-family="Times,serif" text-decoration="underline" font-size="12.00">Hinweis:</text>
<text text-anchor="start" x="3253.4" y="-169.68" font-family="Times,serif" font-size="12.00">Cluster: Ablehnung</text>
<text text-anchor="start" x="3253.4" y="-157.68" font-family="Times,serif" font-size="12.00">Sonstiges</text>
<text text-anchor="start" x="3253.4" y="-145.68" font-family="Times,serif" font-size="12.00">Hinweis: Das identifizierte Problem ist in der </text>
<text text-anchor="start" x="3253.4" y="-133.68" font-family="Times,serif" font-size="12.00">Antwort zu beschreiben/benennen.</text>
<text text-anchor="start" x="3253.4" y="-121.68" font-family="Times,serif" font-size="12.00">Nutzungsm&#246;glichkeit Ende: 01.10.2023 00:00 Uhr</text>
</g>
<!-- 12&#45;&gt;A99 -->
<g id="edge24" class="edge">
<title>12-&gt;A99</title>
<path fill="none" stroke="black" d="M3472.53,-277.09C3459.97,-262.49 3441.27,-240.73 3423.62,-220.19"/>
<polygon fill="black" stroke="black" points="3425.84,-218.4 3416.66,-213.09 3420.53,-222.96 3425.84,-218.4"/>
<text text-anchor="middle" x="3450.9" y="-233.34" font-family="Times,serif" font-size="14.00">Ja</text>
</g>
<!-- 13 -->
<g id="node25" class="node">
<title>13</title>
<path fill="#7aab8a" stroke="black" d="M4038.8,-181.08C4038.8,-181.08 3540,-181.08 3540,-181.08 3534,-181.08 3528,-175.08 3528,-169.08 3528,-169.08 3528,-157.08 3528,-157.08 3528,-151.08 3534,-145.08 3540,-145.08 3540,-145.08 4038.8,-145.08 4038.8,-145.08 4044.8,-145.08 4050.8,-151.08 4050.8,-157.08 4050.8,-157.08 4050.8,-169.08 4050.8,-169.08 4050.8,-175.08 4044.8,-181.08 4038.8,-181.08"/>
<text text-anchor="start" x="3542.4" y="-159.18" font-family="Times,serif" font-weight="bold" font-size="14.00">13: </text>
<text text-anchor="start" x="3562.4" y="-159.18" font-family="Times,serif" font-size="14.00">Kann der Sperrauftrag pauschal &#252;ber das elektronische Preisblatt abgebildet werden?</text>
</g>
<!-- 12&#45;&gt;13 -->
<g id="edge25" class="edge">
<title>12-&gt;13</title>
<path fill="none" stroke="black" d="M3527.82,-276.96C3582.51,-253.36 3680.06,-211.26 3739.34,-185.68"/>
<polygon fill="black" stroke="black" points="3740.43,-188.59 3748.22,-181.42 3737.66,-182.17 3740.43,-188.59"/>
<text text-anchor="middle" x="3642.9" y="-233.34" font-family="Times,serif" font-size="14.00">Nein</text>
</g>
<!-- A08 -->
<g id="node26" class="node">
<title>A08</title>
<polygon fill="#cfb986" stroke="black" points="3768.64,-61.52 3460.16,-61.52 3460.16,0 3768.64,0 3768.64,-61.52"/>
<text text-anchor="start" x="3602.4" y="-43.46" font-family="Times,serif" font-weight="bold" font-size="14.00">A08</text>
<text text-anchor="start" x="3472.4" y="-31.36" font-family="Times,serif" text-decoration="underline" font-size="12.00">Hinweis:</text>
<text text-anchor="start" x="3472.4" y="-19.36" font-family="Times,serif" font-size="12.00">Cluster: Zustimmung</text>
<text text-anchor="start" x="3472.4" y="-7.36" font-family="Times,serif" font-size="12.00">Sperrung wird &#252;ber das elektronische Preisblatt abgebildet.</text>
</g>
<!-- 13&#45;&gt;A08 -->
<g id="edge26" class="edge">
<title>13-&gt;A08</title>
<path fill="none" stroke="black" d="M3766.16,-144.77C3740.13,-125.39 3697.19,-93.41 3663.61,-68.41"/>
<polygon fill="black" stroke="black" points="3665.97,-65.05 3655.86,-61.89 3661.79,-70.67 3665.97,-65.05"/>
<text text-anchor="middle" x="3702.9" y="-83.02" font-family="Times,serif" font-size="14.00">Ja</text>
</g>
<!-- A09 -->
<g id="node27" class="node">
<title>A09</title>
<polygon fill="#cfb986" stroke="black" points="4142.14,-61.52 3786.66,-61.52 3786.66,0 4142.14,0 4142.14,-61.52"/>
<text text-anchor="start" x="3952.4" y="-43.46" font-family="Times,serif" font-weight="bold" font-size="14.00">A09</text>
<text text-anchor="start" x="3798.9" y="-31.36" font-family="Times,serif" text-decoration="underline" font-size="12.00">Hinweis:</text>
<text text-anchor="start" x="3798.9" y="-19.36" font-family="Times,serif" font-size="12.00">Cluster: Zustimmung</text>
<text text-anchor="start" x="3798.9" y="-7.36" font-family="Times,serif" font-size="12.00">Die individuellen Sperrkosten werden in der Nachricht ausgetauscht.</text>
</g>
<!-- 13&#45;&gt;A09 -->
<g id="edge27" class="edge">
<title>13-&gt;A09</title>
<path fill="none" stroke="black" d="M3812.64,-144.77C3838.67,-125.39 3881.61,-93.41 3915.19,-68.41"/>
<polygon fill="black" stroke="black" points="3917.01,-70.67 3922.94,-61.89 3912.83,-65.05 3917.01,-70.67"/>
<text text-anchor="middle" x="3910.9" y="-83.02" font-family="Times,serif" font-size="14.00">Nein</text>
</g>
</g>
</svg>
  </g>
</svg>
  </g>
</svg>
