<?xml version='1.0' encoding='ASCII' standalone='yes'?>
<svg xmlns="http://www.w3.org/2000/svg" xmlns:xlink="http://www.w3.org/1999/xlink" version="1.1" width="1920.0px" viewBox="0 0 1920.0 1052.0" height="1052.0px">
  <g>
    <svg version="1.1" width="1920.0px" viewBox="0 0 1920.0 1052.0" height="1052.0px">
  <polygon fill="#f3f1f6" points="0,0 1920.0,0 1920.0,1052.0 0,1052.0"/><g>
    <g transform="translate(530.9937482399323, 105.19999999999997) scale(1 1) translate(0, 0) scale(1.481272880878626 1.481272880878626) "><!-- note that I manually added the width and height attribute to the root node
  https://chatgpt.com/share/678e3028-70cc-800b-a296-782714735772
  -->
  <defs>
    <style>.cls-1{fill:#fff;}</style>
  </defs>
  <path class="cls-1" d="M122.44,531.2h-56.1c-11,0-19.9-9.12-19.46-20.11C57.47,243.89,278.15,29.78,547.91,29.78v56.02c0,10.98-8.69,19.89-19.66,20.39-225.51,10.31-405.8,197-405.8,425Z"/>
  <path class="cls-1" d="M273.78,531.2h-55.93c-11.23,0-20.09-9.48-19.43-20.69,10.74-183.44,163.39-329.39,349.48-329.39v56.26c0,10.71-8.27,19.62-18.96,20.35-142.35,9.77-255.17,128.69-255.17,273.46Z"/>
  <path class="cls-1" d="M425.77,531.2h-55.45c-11.65,0-20.6-10.17-19.33-21.75,10.87-99.03,95.03-176.34,196.92-176.34v57.01c0,10.05-7.28,18.75-17.23,20.16-59.22,8.4-104.91,59.42-104.91,120.92Z"/>
</g>
    <svg width="1440pt" height="789pt" viewBox="0.00 0.00 1440.00 789.33">
<g id="graph0" class="graph" transform="scale(0.444549 0.444549) rotate(0) translate(4 1771.57)">
<title>D</title>
<text text-anchor="start" x="1457.74" y="-1747.47" font-family="Times,serif" font-weight="bold" font-size="18.00">GPKE</text>
<text text-anchor="start" x="1457.74" y="-1717.37" font-family="Times,serif" font-weight="bold" font-size="16.00">6.3.1: AD: Lieferende von NB an LF</text>
<!-- Start -->
<g id="node1" class="node">
<title>Start</title>
<path fill="#7a8da1" stroke="black" stroke-width="0" d="M1720.39,-1669.57C1720.39,-1669.57 1589.59,-1669.57 1589.59,-1669.57 1583.59,-1669.57 1577.59,-1663.57 1577.59,-1657.57 1577.59,-1657.57 1577.59,-1638.29 1577.59,-1638.29 1577.59,-1632.29 1583.59,-1626.29 1589.59,-1626.29 1589.59,-1626.29 1720.39,-1626.29 1720.39,-1626.29 1726.39,-1626.29 1732.39,-1632.29 1732.39,-1638.29 1732.39,-1638.29 1732.39,-1657.57 1732.39,-1657.57 1732.39,-1663.57 1726.39,-1669.57 1720.39,-1669.57"/>
<text text-anchor="start" x="1626.87" y="-1648.63" font-family="Times,serif" font-weight="bold" font-size="14.00">E_0502</text>
<text text-anchor="start" x="1591.99" y="-1636.53" font-family="Times,serif" font-weight="bold" text-decoration="underline" font-size="12.00">Pr&#252;fende Rolle:</text>
<text text-anchor="start" x="1696.99" y="-1636.53" font-family="Times,serif" font-weight="bold" font-size="12.00"> LF</text>
</g>
<!-- 10 -->
<g id="node2" class="node">
<title>10</title>
<path fill="#7aab8a" stroke="black" stroke-width="0" d="M1962.64,-1589.29C1962.64,-1589.29 1347.34,-1589.29 1347.34,-1589.29 1341.34,-1589.29 1335.34,-1583.29 1335.34,-1577.29 1335.34,-1577.29 1335.34,-1556.01 1335.34,-1556.01 1335.34,-1550.01 1341.34,-1544.01 1347.34,-1544.01 1347.34,-1544.01 1962.64,-1544.01 1962.64,-1544.01 1968.64,-1544.01 1974.64,-1550.01 1974.64,-1556.01 1974.64,-1556.01 1974.64,-1577.29 1974.64,-1577.29 1974.64,-1583.29 1968.64,-1589.29 1962.64,-1589.29"/>
<text text-anchor="start" x="1349.74" y="-1568.35" font-family="Times,serif" font-weight="bold" font-size="14.00">10: </text>
<text text-anchor="start" x="1378.99" y="-1568.35" font-family="Times,serif" font-size="14.00">Wurde bereits zum identischen Abmeldedatum f&#252;r die in diesem Gesch&#228;ftsvorfall</text>
<text text-anchor="start" x="1349.74" y="-1554.35" font-family="Times,serif" font-size="14.00">genannte Marktlokation die Lieferende-Meldung positiv best&#228;tigt?</text>
</g>
<!-- Start&#45;&gt;10 -->
<g id="edge1" class="edge">
<title>Start-&gt;10</title>
<path fill="none" stroke="black" d="M1654.99,-1626.51C1654.99,-1618.54 1654.99,-1609.19 1654.99,-1600.33"/>
<polygon fill="black" stroke="black" points="1658.49,-1600.62 1654.99,-1590.62 1651.49,-1600.62 1658.49,-1600.62"/>
</g>
<!-- A01 -->
<g id="node3" class="node">
<title>A01</title>
<path fill="#cfb986" stroke="black" stroke-width="0" d="M1714.61,-1490.76C1714.61,-1490.76 1383.38,-1490.76 1383.38,-1490.76 1377.38,-1490.76 1371.38,-1484.76 1371.38,-1478.76 1371.38,-1478.76 1371.38,-1441.24 1371.38,-1441.24 1371.38,-1435.24 1377.38,-1429.24 1383.38,-1429.24 1383.38,-1429.24 1714.61,-1429.24 1714.61,-1429.24 1720.61,-1429.24 1726.61,-1435.24 1726.61,-1441.24 1726.61,-1441.24 1726.61,-1478.76 1726.61,-1478.76 1726.61,-1484.76 1720.61,-1490.76 1714.61,-1490.76"/>
<text text-anchor="start" x="1383.62" y="-1472.7" font-family="Times,serif" font-weight="bold" font-size="14.00">A01</text>
<text text-anchor="start" x="1383.62" y="-1460.6" font-family="Times,serif" text-decoration="underline" font-size="12.00">Hinweis:</text>
<text text-anchor="start" x="1383.62" y="-1448.6" font-family="Times,serif" font-size="12.00">Cluster: Ablehnung</text>
<text text-anchor="start" x="1383.62" y="-1436.6" font-family="Times,serif" font-size="12.00">Lieferende zum Abmeldedatum wurde bereits best&#228;tigt</text>
</g>
<!-- 10&#45;&gt;A01 -->
<g id="edge2" class="edge">
<title>10-&gt;A01</title>
<path fill="none" stroke="#7aab8a" d="M1633.28,-1544.22C1619.98,-1531.08 1602.57,-1513.9 1587.03,-1498.55"/>
<polygon fill="#7aab8a" stroke="#7aab8a" points="1589.76,-1496.33 1580.18,-1491.79 1584.84,-1501.31 1589.76,-1496.33"/>
<text text-anchor="start" x="1613.99" y="-1513.71" font-family="Times,serif" font-weight="bold" font-size="14.00">JA</text>
</g>
<!-- 20 -->
<g id="node4" class="node">
<title>20</title>
<path fill="#7aab8a" stroke="black" stroke-width="0" d="M2113.26,-1478C2113.26,-1478 1756.71,-1478 1756.71,-1478 1750.71,-1478 1744.71,-1472 1744.71,-1466 1744.71,-1466 1744.71,-1454 1744.71,-1454 1744.71,-1448 1750.71,-1442 1756.71,-1442 1756.71,-1442 2113.26,-1442 2113.26,-1442 2119.26,-1442 2125.26,-1448 2125.26,-1454 2125.26,-1454 2125.26,-1466 2125.26,-1466 2125.26,-1472 2119.26,-1478 2113.26,-1478"/>
<text text-anchor="start" x="1759.12" y="-1456.33" font-family="Times,serif" font-weight="bold" font-size="14.00">20: </text>
<text text-anchor="start" x="1788.37" y="-1456.33" font-family="Times,serif" font-size="14.00">Liegt der Transaktionsgrund Stilllegung vor?</text>
</g>
<!-- 10&#45;&gt;20 -->
<g id="edge3" class="edge">
<title>10-&gt;20</title>
<path fill="none" stroke="#7aab8a" d="M1712.67,-1544.09C1761.48,-1525.85 1831.01,-1499.86 1879.27,-1481.83"/>
<polygon fill="#7aab8a" stroke="#7aab8a" points="1880.27,-1485.19 1888.42,-1478.41 1877.82,-1478.63 1880.27,-1485.19"/>
<text text-anchor="start" x="1802.99" y="-1513.71" font-family="Times,serif" font-weight="bold" font-size="14.00">NEIN</text>
</g>
<!-- 30 -->
<g id="node5" class="node">
<title>30</title>
<path fill="#7aab8a" stroke="black" stroke-width="0" d="M1788.01,-1375.99C1788.01,-1375.99 1267.97,-1375.99 1267.97,-1375.99 1261.97,-1375.99 1255.97,-1369.99 1255.97,-1363.99 1255.97,-1363.99 1255.97,-1351.99 1255.97,-1351.99 1255.97,-1345.99 1261.97,-1339.99 1267.97,-1339.99 1267.97,-1339.99 1788.01,-1339.99 1788.01,-1339.99 1794.01,-1339.99 1800.01,-1345.99 1800.01,-1351.99 1800.01,-1351.99 1800.01,-1363.99 1800.01,-1363.99 1800.01,-1369.99 1794.01,-1375.99 1788.01,-1375.99"/>
<text text-anchor="start" x="1270.37" y="-1354.32" font-family="Times,serif" font-weight="bold" font-size="14.00">30: </text>
<text text-anchor="start" x="1299.62" y="-1354.32" font-family="Times,serif" font-size="14.00">Ist die Prognosegrundlage der Marktlokation auf Basis von Werten?</text>
</g>
<!-- 20&#45;&gt;30 -->
<g id="edge4" class="edge">
<title>20-&gt;30</title>
<path fill="none" stroke="#7aab8a" d="M1865.95,-1442.03C1794.51,-1424.48 1683.05,-1397.09 1607.85,-1378.61"/>
<polygon fill="#7aab8a" stroke="#7aab8a" points="1609.05,-1375.3 1598.5,-1376.32 1607.38,-1382.1 1609.05,-1375.3"/>
<text text-anchor="start" x="1730.99" y="-1398.94" font-family="Times,serif" font-weight="bold" font-size="14.00">JA</text>
</g>
<!-- 210 -->
<g id="node34" class="node">
<title>210</title>
<path fill="#7aab8a" stroke="black" stroke-width="0" d="M2635.01,-1375.99C2635.01,-1375.99 2048.96,-1375.99 2048.96,-1375.99 2042.96,-1375.99 2036.96,-1369.99 2036.96,-1363.99 2036.96,-1363.99 2036.96,-1351.99 2036.96,-1351.99 2036.96,-1345.99 2042.96,-1339.99 2048.96,-1339.99 2048.96,-1339.99 2635.01,-1339.99 2635.01,-1339.99 2641.01,-1339.99 2647.01,-1345.99 2647.01,-1351.99 2647.01,-1351.99 2647.01,-1363.99 2647.01,-1363.99 2647.01,-1369.99 2641.01,-1375.99 2635.01,-1375.99"/>
<text text-anchor="start" x="2051.36" y="-1354.32" font-family="Times,serif" font-weight="bold" font-size="14.00">210: </text>
<text text-anchor="start" x="2090.36" y="-1354.32" font-family="Times,serif" font-size="14.00">Ist das Datum &#8222;Bilanzierungsende&#8220; identisch mit dem Datum &#8222;Lieferende&#8220;?</text>
</g>
<!-- 20&#45;&gt;210 -->
<g id="edge5" class="edge">
<title>20-&gt;210</title>
<path fill="none" stroke="#7aab8a" d="M2004.03,-1442.03C2075.47,-1424.48 2186.93,-1397.09 2262.13,-1378.61"/>
<polygon fill="#7aab8a" stroke="#7aab8a" points="2262.6,-1382.1 2271.48,-1376.32 2260.93,-1375.3 2262.6,-1382.1"/>
<text text-anchor="start" x="2197.99" y="-1398.94" font-family="Times,serif" font-weight="bold" font-size="14.00">NEIN</text>
</g>
<!-- 40 -->
<g id="node6" class="node">
<title>40</title>
<path fill="#7aab8a" stroke="black" stroke-width="0" d="M1157.76,-1267.98C1157.76,-1267.98 522.22,-1267.98 522.22,-1267.98 516.22,-1267.98 510.22,-1261.98 510.22,-1255.98 510.22,-1255.98 510.22,-1243.98 510.22,-1243.98 510.22,-1237.98 516.22,-1231.98 522.22,-1231.98 522.22,-1231.98 1157.76,-1231.98 1157.76,-1231.98 1163.76,-1231.98 1169.76,-1237.98 1169.76,-1243.98 1169.76,-1243.98 1169.76,-1255.98 1169.76,-1255.98 1169.76,-1261.98 1163.76,-1267.98 1157.76,-1267.98"/>
<text text-anchor="start" x="524.62" y="-1246.31" font-family="Times,serif" font-weight="bold" font-size="14.00">40: </text>
<text text-anchor="start" x="553.87" y="-1246.31" font-family="Times,serif" font-size="14.00">Liegt das Lieferende-Datum mindestens einen 1 WT nach dem Nachrichteneingang?</text>
</g>
<!-- 30&#45;&gt;40 -->
<g id="edge6" class="edge">
<title>30-&gt;40</title>
<path fill="none" stroke="#7aab8a" d="M1417.83,-1340.02C1293.06,-1320.79 1090.37,-1289.56 961.2,-1269.66"/>
<polygon fill="#7aab8a" stroke="#7aab8a" points="962.01,-1266.24 951.6,-1268.18 960.95,-1273.16 962.01,-1266.24"/>
<text text-anchor="start" x="1284.99" y="-1309.69" font-family="Times,serif" font-weight="bold" font-size="14.00">JA</text>
</g>
<!-- 60 -->
<g id="node10" class="node">
<title>60</title>
<path fill="#7aab8a" stroke="black" stroke-width="0" d="M1785.01,-1267.98C1785.01,-1267.98 1270.97,-1267.98 1270.97,-1267.98 1264.97,-1267.98 1258.97,-1261.98 1258.97,-1255.98 1258.97,-1255.98 1258.97,-1243.98 1258.97,-1243.98 1258.97,-1237.98 1264.97,-1231.98 1270.97,-1231.98 1270.97,-1231.98 1785.01,-1231.98 1785.01,-1231.98 1791.01,-1231.98 1797.01,-1237.98 1797.01,-1243.98 1797.01,-1243.98 1797.01,-1255.98 1797.01,-1255.98 1797.01,-1261.98 1791.01,-1267.98 1785.01,-1267.98"/>
<text text-anchor="start" x="1273.37" y="-1246.31" font-family="Times,serif" font-weight="bold" font-size="14.00">60: </text>
<text text-anchor="start" x="1302.62" y="-1246.31" font-family="Times,serif" font-size="14.00">Wird ein Datum &#8222;Bilanzierungsende&#8220; in der Abmeldung mitgeteilt?</text>
</g>
<!-- 30&#45;&gt;60 -->
<g id="edge7" class="edge">
<title>30-&gt;60</title>
<path fill="none" stroke="#7aab8a" d="M1527.99,-1340.43C1527.99,-1324.03 1527.99,-1298.62 1527.99,-1279.06"/>
<polygon fill="#7aab8a" stroke="#7aab8a" points="1531.49,-1279.29 1527.99,-1269.29 1524.49,-1279.29 1531.49,-1279.29"/>
<text text-anchor="start" x="1527.99" y="-1309.69" font-family="Times,serif" font-weight="bold" font-size="14.00">NEIN</text>
</g>
<!-- A02 -->
<g id="node7" class="node">
<title>A02</title>
<path fill="#cfb986" stroke="black" stroke-width="0" d="M509.86,-1159.97C509.86,-1159.97 12.12,-1159.97 12.12,-1159.97 6.12,-1159.97 0.12,-1153.97 0.12,-1147.97 0.12,-1147.97 0.12,-1098.45 0.12,-1098.45 0.12,-1092.45 6.12,-1086.45 12.12,-1086.45 12.12,-1086.45 509.86,-1086.45 509.86,-1086.45 515.86,-1086.45 521.86,-1092.45 521.86,-1098.45 521.86,-1098.45 521.86,-1147.97 521.86,-1147.97 521.86,-1153.97 515.86,-1159.97 509.86,-1159.97"/>
<text text-anchor="start" x="12.37" y="-1141.91" font-family="Times,serif" font-weight="bold" font-size="14.00">A02</text>
<text text-anchor="start" x="12.37" y="-1129.81" font-family="Times,serif" text-decoration="underline" font-size="12.00">Hinweis:</text>
<text text-anchor="start" x="12.37" y="-1117.81" font-family="Times,serif" font-size="12.00">Cluster: Ablehnung</text>
<text text-anchor="start" x="12.37" y="-1105.81" font-family="Times,serif" font-size="12.00">Eine Stilllegung einer Marktlokation mit Prognosegrundlage auf Basis von Werten</text>
<text text-anchor="start" x="12.37" y="-1093.81" font-family="Times,serif" font-size="12.00">kann nicht in die Vergangenheit gemeldet werden.</text>
</g>
<!-- 40&#45;&gt;A02 -->
<g id="edge8" class="edge">
<title>40-&gt;A02</title>
<path fill="none" stroke="#7aab8a" d="M761.3,-1232.02C678.65,-1214.21 545.92,-1185.61 437.93,-1162.34"/>
<polygon fill="#7aab8a" stroke="#7aab8a" points="438.89,-1158.97 428.38,-1160.28 437.42,-1165.81 438.89,-1158.97"/>
<text text-anchor="start" x="584.99" y="-1182.92" font-family="Times,serif" font-weight="bold" font-size="14.00">NEIN</text>
</g>
<!-- 50 -->
<g id="node8" class="node">
<title>50</title>
<path fill="#7aab8a" stroke="black" stroke-width="0" d="M1128.14,-1141.21C1128.14,-1141.21 551.84,-1141.21 551.84,-1141.21 545.84,-1141.21 539.84,-1135.21 539.84,-1129.21 539.84,-1129.21 539.84,-1117.21 539.84,-1117.21 539.84,-1111.21 545.84,-1105.21 551.84,-1105.21 551.84,-1105.21 1128.14,-1105.21 1128.14,-1105.21 1134.14,-1105.21 1140.14,-1111.21 1140.14,-1117.21 1140.14,-1117.21 1140.14,-1129.21 1140.14,-1129.21 1140.14,-1135.21 1134.14,-1141.21 1128.14,-1141.21"/>
<text text-anchor="start" x="554.24" y="-1119.54" font-family="Times,serif" font-weight="bold" font-size="14.00">50: </text>
<text text-anchor="start" x="583.49" y="-1119.54" font-family="Times,serif" font-size="14.00">Ist das Datum &#8222;Bilanzierungsende&#8220; identisch mit dem Datum &#8222;Lieferende&#8220;?</text>
</g>
<!-- 40&#45;&gt;50 -->
<g id="edge9" class="edge">
<title>40-&gt;50</title>
<path fill="none" stroke="#7aab8a" d="M839.99,-1232.15C839.99,-1211.78 839.99,-1177.16 839.99,-1152.62"/>
<polygon fill="#7aab8a" stroke="#7aab8a" points="843.49,-1152.68 839.99,-1142.68 836.49,-1152.68 843.49,-1152.68"/>
<text text-anchor="start" x="839.99" y="-1182.92" font-family="Times,serif" font-weight="bold" font-size="14.00">JA</text>
</g>
<!-- A03 -->
<g id="node9" class="node">
<title>A03</title>
<path fill="#cfb986" stroke="black" stroke-width="0" d="M433.98,-1033.2C433.98,-1033.2 12,-1033.2 12,-1033.2 6,-1033.2 0,-1027.2 0,-1021.2 0,-1021.2 0,-971.68 0,-971.68 0,-965.68 6,-959.68 12,-959.68 12,-959.68 433.98,-959.68 433.98,-959.68 439.98,-959.68 445.98,-965.68 445.98,-971.68 445.98,-971.68 445.98,-1021.2 445.98,-1021.2 445.98,-1027.2 439.98,-1033.2 433.98,-1033.2"/>
<text text-anchor="start" x="12.24" y="-1015.14" font-family="Times,serif" font-weight="bold" font-size="14.00">A03</text>
<text text-anchor="start" x="12.24" y="-1003.04" font-family="Times,serif" text-decoration="underline" font-size="12.00">Hinweis:</text>
<text text-anchor="start" x="12.24" y="-991.04" font-family="Times,serif" font-size="12.00">Cluster: Ablehnung</text>
<text text-anchor="start" x="12.24" y="-979.04" font-family="Times,serif" font-size="12.00">Bei Marktlokation mit Prognosegrundlage auf Basis von Werten muss</text>
<text text-anchor="start" x="12.24" y="-967.04" font-family="Times,serif" font-size="12.00">Bilanzierungsende und Lieferende identisch sein.</text>
</g>
<!-- 50&#45;&gt;A03 -->
<g id="edge10" class="edge">
<title>50-&gt;A03</title>
<path fill="none" stroke="#7aab8a" d="M693.64,-1105.23C582.37,-1092.05 443.97,-1074.95 417.24,-1068.45 384.33,-1060.45 349.29,-1048.7 318.17,-1037.06"/>
<polygon fill="#7aab8a" stroke="#7aab8a" points="319.78,-1033.92 309.19,-1033.65 317.3,-1040.47 319.78,-1033.92"/>
<text text-anchor="start" x="416.99" y="-1056.15" font-family="Times,serif" font-weight="bold" font-size="14.00">NEIN</text>
</g>
<!-- 200 -->
<g id="node32" class="node">
<title>200</title>
<path fill="#7aab8a" stroke="black" stroke-width="0" d="M2162.39,-306.94C2162.39,-306.94 1605.59,-306.94 1605.59,-306.94 1599.59,-306.94 1593.59,-300.94 1593.59,-294.94 1593.59,-294.94 1593.59,-273.66 1593.59,-273.66 1593.59,-267.66 1599.59,-261.66 1605.59,-261.66 1605.59,-261.66 2162.39,-261.66 2162.39,-261.66 2168.39,-261.66 2174.39,-267.66 2174.39,-273.66 2174.39,-273.66 2174.39,-294.94 2174.39,-294.94 2174.39,-300.94 2168.39,-306.94 2162.39,-306.94"/>
<text text-anchor="start" x="1607.99" y="-286" font-family="Times,serif" font-weight="bold" font-size="14.00">200: </text>
<text text-anchor="start" x="1646.99" y="-286" font-family="Times,serif" font-size="14.00">Liegen dem LF Informationen dar&#252;ber vor, dass die Marktlokation nicht</text>
<text text-anchor="start" x="1607.99" y="-272" font-family="Times,serif" font-size="14.00">stillgelegt wird/wurde?</text>
</g>
<!-- 50&#45;&gt;200 -->
<g id="edge11" class="edge">
<title>50-&gt;200</title>
<path fill="none" stroke="#7aab8a" d="M660.45,-1105.23C602.33,-1092.55 540.64,-1070.7 492.99,-1033.2 478.85,-1022.07 473.99,-1015.44 473.99,-997.44 473.99,-997.44 473.99,-997.44 473.99,-770.14 473.99,-711.91 542.73,-696.02 513.99,-645.37"/>
<path fill="none" stroke="#7aab8a" d="M513.99,-643.37C454.35,-563.94 363.47,-637.41 308.99,-554.36 286.09,-519.45 300.26,-390.68 324.99,-368.31 366.53,-330.73 1277.34,-349.13 1332.99,-342.69"/>
<path fill="none" stroke="#7aab8a" d="M1332.99,-340.69C1433.81,-328.94 1545.17,-317.47 1641.25,-308.03"/>
<polygon fill="#7aab8a" stroke="#7aab8a" points="1641.47,-311.53 1651.08,-307.07 1640.79,-304.56 1641.47,-311.53"/>
<text text-anchor="start" x="506.99" y="-704.08" font-family="Times,serif" font-weight="bold" font-size="14.00">JA</text>
</g>
<!-- 70 -->
<g id="node11" class="node">
<title>70</title>
<path fill="#7aab8a" stroke="black" stroke-width="0" d="M1472.27,-1141.21C1472.27,-1141.21 1169.71,-1141.21 1169.71,-1141.21 1163.71,-1141.21 1157.71,-1135.21 1157.71,-1129.21 1157.71,-1129.21 1157.71,-1117.21 1157.71,-1117.21 1157.71,-1111.21 1163.71,-1105.21 1169.71,-1105.21 1169.71,-1105.21 1472.27,-1105.21 1472.27,-1105.21 1478.27,-1105.21 1484.27,-1111.21 1484.27,-1117.21 1484.27,-1117.21 1484.27,-1129.21 1484.27,-1129.21 1484.27,-1135.21 1478.27,-1141.21 1472.27,-1141.21"/>
<text text-anchor="start" x="1172.12" y="-1119.54" font-family="Times,serif" font-weight="bold" font-size="14.00">70: </text>
<text text-anchor="start" x="1201.37" y="-1119.54" font-family="Times,serif" font-size="14.00">Hat eine Bilanzierung stattgefunden?</text>
</g>
<!-- 60&#45;&gt;70 -->
<g id="edge13" class="edge">
<title>60-&gt;70</title>
<path fill="none" stroke="#7aab8a" d="M1500.07,-1232.15C1463.65,-1210.2 1399.78,-1171.7 1358.97,-1147.1"/>
<polygon fill="#7aab8a" stroke="#7aab8a" points="1360.79,-1144.12 1350.42,-1141.95 1357.18,-1150.11 1360.79,-1144.12"/>
<text text-anchor="start" x="1435.99" y="-1182.92" font-family="Times,serif" font-weight="bold" font-size="14.00">NEIN</text>
</g>
<!-- 80 -->
<g id="node13" class="node">
<title>80</title>
<path fill="#7aab8a" stroke="black" stroke-width="0" d="M1817.27,-1141.21C1817.27,-1141.21 1514.71,-1141.21 1514.71,-1141.21 1508.71,-1141.21 1502.71,-1135.21 1502.71,-1129.21 1502.71,-1129.21 1502.71,-1117.21 1502.71,-1117.21 1502.71,-1111.21 1508.71,-1105.21 1514.71,-1105.21 1514.71,-1105.21 1817.27,-1105.21 1817.27,-1105.21 1823.27,-1105.21 1829.27,-1111.21 1829.27,-1117.21 1829.27,-1117.21 1829.27,-1129.21 1829.27,-1129.21 1829.27,-1135.21 1823.27,-1141.21 1817.27,-1141.21"/>
<text text-anchor="start" x="1517.12" y="-1119.54" font-family="Times,serif" font-weight="bold" font-size="14.00">80: </text>
<text text-anchor="start" x="1546.37" y="-1119.54" font-family="Times,serif" font-size="14.00">Hat eine Bilanzierung stattgefunden?</text>
</g>
<!-- 60&#45;&gt;80 -->
<g id="edge12" class="edge">
<title>60-&gt;80</title>
<path fill="none" stroke="#7aab8a" d="M1546.6,-1232.15C1570.37,-1210.67 1611.67,-1173.32 1638.92,-1148.69"/>
<polygon fill="#7aab8a" stroke="#7aab8a" points="1641.04,-1151.49 1646.11,-1142.18 1636.35,-1146.29 1641.04,-1151.49"/>
<text text-anchor="start" x="1604.99" y="-1182.92" font-family="Times,serif" font-weight="bold" font-size="14.00">JA</text>
</g>
<!-- A13 -->
<g id="node12" class="node">
<title>A13</title>
<path fill="#cfb986" stroke="black" stroke-width="0" d="M936.36,-1033.2C936.36,-1033.2 513.62,-1033.2 513.62,-1033.2 507.62,-1033.2 501.62,-1027.2 501.62,-1021.2 501.62,-1021.2 501.62,-971.68 501.62,-971.68 501.62,-965.68 507.62,-959.68 513.62,-959.68 513.62,-959.68 936.36,-959.68 936.36,-959.68 942.36,-959.68 948.36,-965.68 948.36,-971.68 948.36,-971.68 948.36,-1021.2 948.36,-1021.2 948.36,-1027.2 942.36,-1033.2 936.36,-1033.2"/>
<text text-anchor="start" x="513.87" y="-1015.14" font-family="Times,serif" font-weight="bold" font-size="14.00">A13</text>
<text text-anchor="start" x="513.87" y="-1003.04" font-family="Times,serif" text-decoration="underline" font-size="12.00">Hinweis:</text>
<text text-anchor="start" x="513.87" y="-991.04" font-family="Times,serif" font-size="12.00">Cluster: Ablehnung</text>
<text text-anchor="start" x="513.87" y="-979.04" font-family="Times,serif" font-size="12.00">Es wurde kein Bilanzierungsende mitgeteilt, obwohl eine Bilanzierung</text>
<text text-anchor="start" x="513.87" y="-967.04" font-family="Times,serif" font-size="12.00">stattgefunden hat.</text>
</g>
<!-- 70&#45;&gt;A13 -->
<g id="edge14" class="edge">
<title>70-&gt;A13</title>
<path fill="none" stroke="#7aab8a" d="M1248.94,-1105.27C1218.27,-1098.57 1182.03,-1091.32 1148.99,-1086.45 1058.84,-1073.15 1034.05,-1086.57 944.74,-1068.45 906.65,-1060.72 865.9,-1048.66 829.97,-1036.67"/>
<polygon fill="#7aab8a" stroke="#7aab8a" points="831.5,-1033.49 820.91,-1033.6 829.26,-1040.12 831.5,-1033.49"/>
<text text-anchor="start" x="943.99" y="-1056.15" font-family="Times,serif" font-weight="bold" font-size="14.00">JA</text>
</g>
<!-- 70&#45;&gt;200 -->
<g id="edge15" class="edge">
<title>70-&gt;200</title>
<path fill="none" stroke="#7aab8a" d="M1246.63,-1105.24C1156.66,-1084.2 1014.72,-1049.16 994.99,-1033.2 966.39,-1010.07 981.12,-987.44 956.99,-959.68 798.65,-777.45 602.43,-870 513.99,-645.37"/>
<text text-anchor="start" x="550.99" y="-704.08" font-family="Times,serif" font-weight="bold" font-size="14.00">NEIN</text>
</g>
<!-- A18 -->
<g id="node14" class="node">
<title>A18</title>
<path fill="#cfb986" stroke="black" stroke-width="0" d="M2021.36,-1033.2C2021.36,-1033.2 1598.62,-1033.2 1598.62,-1033.2 1592.62,-1033.2 1586.62,-1027.2 1586.62,-1021.2 1586.62,-1021.2 1586.62,-971.68 1586.62,-971.68 1586.62,-965.68 1592.62,-959.68 1598.62,-959.68 1598.62,-959.68 2021.36,-959.68 2021.36,-959.68 2027.36,-959.68 2033.36,-965.68 2033.36,-971.68 2033.36,-971.68 2033.36,-1021.2 2033.36,-1021.2 2033.36,-1027.2 2027.36,-1033.2 2021.36,-1033.2"/>
<text text-anchor="start" x="1598.87" y="-1015.14" font-family="Times,serif" font-weight="bold" font-size="14.00">A18</text>
<text text-anchor="start" x="1598.87" y="-1003.04" font-family="Times,serif" text-decoration="underline" font-size="12.00">Hinweis:</text>
<text text-anchor="start" x="1598.87" y="-991.04" font-family="Times,serif" font-size="12.00">Cluster: Ablehnung</text>
<text text-anchor="start" x="1598.87" y="-979.04" font-family="Times,serif" font-size="12.00">Es wurde ein Bilanzierungsende mitgeteilt, obwohl keine Bilanzierung</text>
<text text-anchor="start" x="1598.87" y="-967.04" font-family="Times,serif" font-size="12.00">stattgefunden hat</text>
</g>
<!-- 80&#45;&gt;A18 -->
<g id="edge16" class="edge">
<title>80-&gt;A18</title>
<path fill="none" stroke="#7aab8a" d="M1685.41,-1105.38C1704.52,-1088.83 1734.48,-1062.86 1760.24,-1040.55"/>
<polygon fill="#7aab8a" stroke="#7aab8a" points="1762.38,-1043.33 1767.64,-1034.13 1757.79,-1038.03 1762.38,-1043.33"/>
<text text-anchor="start" x="1745.99" y="-1056.15" font-family="Times,serif" font-weight="bold" font-size="14.00">NEIN</text>
</g>
<!-- 90 -->
<g id="node15" class="node">
<title>90</title>
<path fill="#7aab8a" stroke="black" stroke-width="0" d="M1556.14,-1014.44C1556.14,-1014.44 1015.84,-1014.44 1015.84,-1014.44 1009.84,-1014.44 1003.84,-1008.44 1003.84,-1002.44 1003.84,-1002.44 1003.84,-990.44 1003.84,-990.44 1003.84,-984.44 1009.84,-978.44 1015.84,-978.44 1015.84,-978.44 1556.14,-978.44 1556.14,-978.44 1562.14,-978.44 1568.14,-984.44 1568.14,-990.44 1568.14,-990.44 1568.14,-1002.44 1568.14,-1002.44 1568.14,-1008.44 1562.14,-1014.44 1556.14,-1014.44"/>
<text text-anchor="start" x="1018.24" y="-992.76" font-family="Times,serif" font-weight="bold" font-size="14.00">90: </text>
<text text-anchor="start" x="1047.49" y="-992.76" font-family="Times,serif" font-size="14.00">Wurde bereits ein Lieferende zu einem sp&#228;teren Termin durchgef&#252;hrt?</text>
</g>
<!-- 80&#45;&gt;90 -->
<g id="edge17" class="edge">
<title>80-&gt;90</title>
<path fill="none" stroke="#7aab8a" d="M1614.35,-1105.25C1545.1,-1082.52 1422.32,-1042.2 1348.11,-1017.84"/>
<polygon fill="#7aab8a" stroke="#7aab8a" points="1349.55,-1014.63 1338.96,-1014.83 1347.37,-1021.28 1349.55,-1014.63"/>
<text text-anchor="start" x="1497.99" y="-1056.15" font-family="Times,serif" font-weight="bold" font-size="14.00">JA</text>
</g>
<!-- 100 -->
<g id="node16" class="node">
<title>100</title>
<path fill="#7aab8a" stroke="black" stroke-width="0" d="M1602.01,-906.43C1602.01,-906.43 1057.97,-906.43 1057.97,-906.43 1051.97,-906.43 1045.97,-900.43 1045.97,-894.43 1045.97,-894.43 1045.97,-873.15 1045.97,-873.15 1045.97,-867.15 1051.97,-861.15 1057.97,-861.15 1057.97,-861.15 1602.01,-861.15 1602.01,-861.15 1608.01,-861.15 1614.01,-867.15 1614.01,-873.15 1614.01,-873.15 1614.01,-894.43 1614.01,-894.43 1614.01,-900.43 1608.01,-906.43 1602.01,-906.43"/>
<text text-anchor="start" x="1060.37" y="-885.49" font-family="Times,serif" font-weight="bold" font-size="14.00">100: </text>
<text text-anchor="start" x="1099.37" y="-885.49" font-family="Times,serif" font-size="14.00">Ist das mitgeteilte Bilanzierungsende sp&#228;ter als das zuvor mitgeteilte</text>
<text text-anchor="start" x="1060.37" y="-871.49" font-family="Times,serif" font-size="14.00">Bilanzierungsende?</text>
</g>
<!-- 90&#45;&gt;100 -->
<g id="edge18" class="edge">
<title>90-&gt;100</title>
<path fill="none" stroke="#7aab8a" d="M1292.67,-978.63C1299.16,-962.31 1309.19,-937.11 1317.21,-916.93"/>
<polygon fill="#7aab8a" stroke="#7aab8a" points="1320.43,-918.31 1320.87,-907.73 1313.92,-915.73 1320.43,-918.31"/>
<text text-anchor="start" x="1312.99" y="-929.38" font-family="Times,serif" font-weight="bold" font-size="14.00">JA</text>
</g>
<!-- 120 -->
<g id="node19" class="node">
<title>120</title>
<path fill="#7aab8a" stroke="black" stroke-width="0" d="M1331.26,-662.37C1331.26,-662.37 788.72,-662.37 788.72,-662.37 782.72,-662.37 776.72,-656.37 776.72,-650.37 776.72,-650.37 776.72,-638.37 776.72,-638.37 776.72,-632.37 782.72,-626.37 788.72,-626.37 788.72,-626.37 1331.26,-626.37 1331.26,-626.37 1337.26,-626.37 1343.26,-632.37 1343.26,-638.37 1343.26,-638.37 1343.26,-650.37 1343.26,-650.37 1343.26,-656.37 1337.26,-662.37 1331.26,-662.37"/>
<text text-anchor="start" x="791.12" y="-640.7" font-family="Times,serif" font-weight="bold" font-size="14.00">120: </text>
<text text-anchor="start" x="830.12" y="-640.7" font-family="Times,serif" font-size="14.00">Ist die Anfrage nach dem 3. WT vor dem Monatsletzten eingegangen?</text>
</g>
<!-- 90&#45;&gt;120 -->
<g id="edge19" class="edge">
<title>90-&gt;120</title>
<path fill="none" stroke="#7aab8a" d="M1162.55,-978.52C1116.63,-966 1068.16,-944.25 1036.99,-906.43 988.17,-847.2 1006.61,-809.58 1021.99,-734.38 1026.48,-712.43 1036.6,-689.2 1045.27,-671.98"/>
<polygon fill="#7aab8a" stroke="#7aab8a" points="1048.2,-673.92 1049.72,-663.44 1041.99,-670.69 1048.2,-673.92"/>
<text text-anchor="start" x="1005.99" y="-830.85" font-family="Times,serif" font-weight="bold" font-size="14.00">NEIN</text>
</g>
<!-- A14 -->
<g id="node17" class="node">
<title>A14</title>
<path fill="#cfb986" stroke="black" stroke-width="0" d="M2100.36,-801.9C2100.36,-801.9 1659.62,-801.9 1659.62,-801.9 1653.62,-801.9 1647.62,-795.9 1647.62,-789.9 1647.62,-789.9 1647.62,-752.38 1647.62,-752.38 1647.62,-746.38 1653.62,-740.38 1659.62,-740.38 1659.62,-740.38 2100.36,-740.38 2100.36,-740.38 2106.36,-740.38 2112.36,-746.38 2112.36,-752.38 2112.36,-752.38 2112.36,-789.9 2112.36,-789.9 2112.36,-795.9 2106.36,-801.9 2100.36,-801.9"/>
<text text-anchor="start" x="1659.87" y="-783.84" font-family="Times,serif" font-weight="bold" font-size="14.00">A14</text>
<text text-anchor="start" x="1659.87" y="-771.74" font-family="Times,serif" text-decoration="underline" font-size="12.00">Hinweis:</text>
<text text-anchor="start" x="1659.87" y="-759.74" font-family="Times,serif" font-size="12.00">Cluster: Ablehnung</text>
<text text-anchor="start" x="1659.87" y="-747.74" font-family="Times,serif" font-size="12.00">Bilanzierungsende ist sp&#228;ter als das zuvor mitgeteilte Bilanzierungsende.</text>
</g>
<!-- 100&#45;&gt;A14 -->
<g id="edge20" class="edge">
<title>100-&gt;A14</title>
<path fill="none" stroke="#7aab8a" d="M1437.34,-861.19C1517.99,-844.97 1629.76,-822.48 1720.8,-804.17"/>
<polygon fill="#7aab8a" stroke="#7aab8a" points="1721.48,-807.6 1730.59,-802.2 1720.1,-800.74 1721.48,-807.6"/>
<text text-anchor="start" x="1604.99" y="-830.85" font-family="Times,serif" font-weight="bold" font-size="14.00">JA</text>
</g>
<!-- 110 -->
<g id="node18" class="node">
<title>110</title>
<path fill="#7aab8a" stroke="black" stroke-width="0" d="M1617.39,-793.78C1617.39,-793.78 1042.59,-793.78 1042.59,-793.78 1036.59,-793.78 1030.59,-787.78 1030.59,-781.78 1030.59,-781.78 1030.59,-760.5 1030.59,-760.5 1030.59,-754.5 1036.59,-748.5 1042.59,-748.5 1042.59,-748.5 1617.39,-748.5 1617.39,-748.5 1623.39,-748.5 1629.39,-754.5 1629.39,-760.5 1629.39,-760.5 1629.39,-781.78 1629.39,-781.78 1629.39,-787.78 1623.39,-793.78 1617.39,-793.78"/>
<text text-anchor="start" x="1044.99" y="-772.84" font-family="Times,serif" font-weight="bold" font-size="14.00">110: </text>
<text text-anchor="start" x="1083.99" y="-772.84" font-family="Times,serif" font-size="14.00">Ist das mitgeteilte Bilanzierungsende identisch zu dem zuvor mitgeteilten</text>
<text text-anchor="start" x="1044.99" y="-758.84" font-family="Times,serif" font-size="14.00">Bilanzierungsende?</text>
</g>
<!-- 100&#45;&gt;110 -->
<g id="edge21" class="edge">
<title>100-&gt;110</title>
<path fill="none" stroke="#7aab8a" d="M1329.99,-861.19C1329.99,-845.2 1329.99,-823.13 1329.99,-804.96"/>
<polygon fill="#7aab8a" stroke="#7aab8a" points="1333.49,-805.2 1329.99,-795.2 1326.49,-805.2 1333.49,-805.2"/>
<text text-anchor="start" x="1329.99" y="-830.85" font-family="Times,serif" font-weight="bold" font-size="14.00">NEIN</text>
</g>
<!-- 110&#45;&gt;120 -->
<g id="edge22" class="edge">
<title>110-&gt;120</title>
<path fill="none" stroke="#7aab8a" d="M1283.27,-748.55C1233.91,-725.74 1156.52,-689.98 1107.04,-667.11"/>
<polygon fill="#7aab8a" stroke="#7aab8a" points="1108.54,-663.95 1098,-662.93 1105.61,-670.31 1108.54,-663.95"/>
<text text-anchor="start" x="1210.99" y="-704.08" font-family="Times,serif" font-weight="bold" font-size="14.00">JA</text>
</g>
<!-- 150 -->
<g id="node24" class="node">
<title>150</title>
<path fill="#7aab8a" stroke="black" stroke-width="0" d="M2156.64,-667.01C2156.64,-667.01 1559.34,-667.01 1559.34,-667.01 1553.34,-667.01 1547.34,-661.01 1547.34,-655.01 1547.34,-655.01 1547.34,-633.73 1547.34,-633.73 1547.34,-627.73 1553.34,-621.73 1559.34,-621.73 1559.34,-621.73 2156.64,-621.73 2156.64,-621.73 2162.64,-621.73 2168.64,-627.73 2168.64,-633.73 2168.64,-633.73 2168.64,-655.01 2168.64,-655.01 2168.64,-661.01 2162.64,-667.01 2156.64,-667.01"/>
<text text-anchor="start" x="1561.74" y="-646.07" font-family="Times,serif" font-weight="bold" font-size="14.00">150: </text>
<text text-anchor="start" x="1600.74" y="-646.07" font-family="Times,serif" font-size="14.00">Ist das Lieferendedatum &#8804; dem Monatsersten des Folgemonats 00:00 Uhr, in</text>
<text text-anchor="start" x="1561.74" y="-632.07" font-family="Times,serif" font-size="14.00">welchem der Gesch&#228;ftsvorfall eingegangen ist?</text>
</g>
<!-- 110&#45;&gt;150 -->
<g id="edge23" class="edge">
<title>110-&gt;150</title>
<path fill="none" stroke="#7aab8a" d="M1421.36,-748.55C1514.43,-726.55 1658.49,-692.51 1755.42,-669.61"/>
<polygon fill="#7aab8a" stroke="#7aab8a" points="1756.01,-673.06 1764.94,-667.36 1754.4,-666.25 1756.01,-673.06"/>
<text text-anchor="start" x="1624.99" y="-704.08" font-family="Times,serif" font-weight="bold" font-size="14.00">NEIN</text>
</g>
<!-- 130 -->
<g id="node20" class="node">
<title>130</title>
<path fill="#7aab8a" stroke="black" stroke-width="0" d="M889.89,-547.36C889.89,-547.36 330.09,-547.36 330.09,-547.36 324.09,-547.36 318.09,-541.36 318.09,-535.36 318.09,-535.36 318.09,-514.08 318.09,-514.08 318.09,-508.08 324.09,-502.08 330.09,-502.08 330.09,-502.08 889.89,-502.08 889.89,-502.08 895.89,-502.08 901.89,-508.08 901.89,-514.08 901.89,-514.08 901.89,-535.36 901.89,-535.36 901.89,-541.36 895.89,-547.36 889.89,-547.36"/>
<text text-anchor="start" x="332.49" y="-526.42" font-family="Times,serif" font-weight="bold" font-size="14.00">130: </text>
<text text-anchor="start" x="371.49" y="-526.42" font-family="Times,serif" font-size="14.00">Ist das Bilanzierungsende &#8804; dem Ende des Folgemonats (erster Tag des</text>
<text text-anchor="start" x="332.49" y="-512.42" font-family="Times,serif" font-size="14.00">&#252;bern&#228;chsten Monats 00:00 Uhr)?</text>
</g>
<!-- 120&#45;&gt;130 -->
<g id="edge24" class="edge">
<title>120-&gt;130</title>
<path fill="none" stroke="#7aab8a" d="M995.04,-626.39C918.48,-606.37 790.66,-572.96 703.46,-550.16"/>
<polygon fill="#7aab8a" stroke="#7aab8a" points="704.53,-546.82 693.97,-547.68 702.76,-553.59 704.53,-546.82"/>
<text text-anchor="start" x="847.99" y="-577.31" font-family="Times,serif" font-weight="bold" font-size="14.00">JA</text>
</g>
<!-- 140 -->
<g id="node22" class="node">
<title>140</title>
<path fill="#7aab8a" stroke="black" stroke-width="0" d="M1524.01,-547.36C1524.01,-547.36 931.97,-547.36 931.97,-547.36 925.97,-547.36 919.97,-541.36 919.97,-535.36 919.97,-535.36 919.97,-514.08 919.97,-514.08 919.97,-508.08 925.97,-502.08 931.97,-502.08 931.97,-502.08 1524.01,-502.08 1524.01,-502.08 1530.01,-502.08 1536.01,-508.08 1536.01,-514.08 1536.01,-514.08 1536.01,-535.36 1536.01,-535.36 1536.01,-541.36 1530.01,-547.36 1524.01,-547.36"/>
<text text-anchor="start" x="934.37" y="-526.42" font-family="Times,serif" font-weight="bold" font-size="14.00">140: </text>
<text text-anchor="start" x="973.37" y="-526.42" font-family="Times,serif" font-size="14.00">Ist das Bilanzierungsende &#8804; dem Ende des aktuellen Monats (erster Tag des</text>
<text text-anchor="start" x="934.37" y="-512.42" font-family="Times,serif" font-size="14.00">Folgemonats 00:00 Uhr)?</text>
</g>
<!-- 120&#45;&gt;140 -->
<g id="edge25" class="edge">
<title>120-&gt;140</title>
<path fill="none" stroke="#7aab8a" d="M1084.06,-626.51C1111.15,-607.55 1155.58,-576.43 1187.92,-553.78"/>
<polygon fill="#7aab8a" stroke="#7aab8a" points="1189.69,-556.81 1195.88,-548.21 1185.68,-551.08 1189.69,-556.81"/>
<text text-anchor="start" x="1158.99" y="-577.31" font-family="Times,serif" font-weight="bold" font-size="14.00">NEIN</text>
</g>
<!-- A20 -->
<g id="node21" class="node">
<title>A20</title>
<path fill="#cfb986" stroke="black" stroke-width="0" d="M778.48,-441.83C778.48,-441.83 383.5,-441.83 383.5,-441.83 377.5,-441.83 371.5,-435.83 371.5,-429.83 371.5,-429.83 371.5,-380.31 371.5,-380.31 371.5,-374.31 377.5,-368.31 383.5,-368.31 383.5,-368.31 778.48,-368.31 778.48,-368.31 784.48,-368.31 790.48,-374.31 790.48,-380.31 790.48,-380.31 790.48,-429.83 790.48,-429.83 790.48,-435.83 784.48,-441.83 778.48,-441.83"/>
<text text-anchor="start" x="383.74" y="-423.77" font-family="Times,serif" font-weight="bold" font-size="14.00">A20</text>
<text text-anchor="start" x="383.74" y="-411.67" font-family="Times,serif" text-decoration="underline" font-size="12.00">Hinweis:</text>
<text text-anchor="start" x="383.74" y="-399.67" font-family="Times,serif" font-size="12.00">Cluster: Ablehnung</text>
<text text-anchor="start" x="383.74" y="-387.67" font-family="Times,serif" font-size="12.00">Das Bilanzierungsende liegt zu weit in der Zukunft. Das bisherige</text>
<text text-anchor="start" x="383.74" y="-375.67" font-family="Times,serif" font-size="12.00">Bilanzierungsende muss angepasst werden.</text>
</g>
<!-- 130&#45;&gt;A20 -->
<g id="edge26" class="edge">
<title>130-&gt;A20</title>
<path fill="none" stroke="#7aab8a" d="M604.67,-502.14C601.24,-488.21 596.64,-469.55 592.4,-452.37"/>
<polygon fill="#7aab8a" stroke="#7aab8a" points="595.84,-451.71 590.05,-442.84 589.05,-453.39 595.84,-451.71"/>
<text text-anchor="start" x="597.99" y="-464.78" font-family="Times,serif" font-weight="bold" font-size="14.00">NEIN</text>
</g>
<!-- 130&#45;&gt;200 -->
<g id="edge27" class="edge">
<title>130-&gt;200</title>
<path fill="none" stroke="#7aab8a" d="M494.78,-502.08C432.38,-487.77 364.3,-467.01 345.74,-441.83 326.35,-415.53 322.94,-391.71 345.74,-368.31 384.03,-329.01 1278.49,-348.98 1332.99,-342.69"/>
<text text-anchor="start" x="344.99" y="-401.39" font-family="Times,serif" font-weight="bold" font-size="14.00">JA</text>
</g>
<!-- A21 -->
<g id="node23" class="node">
<title>A21</title>
<path fill="#cfb986" stroke="black" stroke-width="0" d="M1285.36,-441.83C1285.36,-441.83 820.62,-441.83 820.62,-441.83 814.62,-441.83 808.62,-435.83 808.62,-429.83 808.62,-429.83 808.62,-380.31 808.62,-380.31 808.62,-374.31 814.62,-368.31 820.62,-368.31 820.62,-368.31 1285.36,-368.31 1285.36,-368.31 1291.36,-368.31 1297.36,-374.31 1297.36,-380.31 1297.36,-380.31 1297.36,-429.83 1297.36,-429.83 1297.36,-435.83 1291.36,-441.83 1285.36,-441.83"/>
<text text-anchor="start" x="820.87" y="-423.77" font-family="Times,serif" font-weight="bold" font-size="14.00">A21</text>
<text text-anchor="start" x="820.87" y="-411.67" font-family="Times,serif" text-decoration="underline" font-size="12.00">Hinweis:</text>
<text text-anchor="start" x="820.87" y="-399.67" font-family="Times,serif" font-size="12.00">Cluster: Ablehnung</text>
<text text-anchor="start" x="820.87" y="-387.67" font-family="Times,serif" font-size="12.00">Bilanzierungsfrist bei Marktlokationen mit Prognosegrundlage auf Basis von</text>
<text text-anchor="start" x="820.87" y="-375.67" font-family="Times,serif" font-size="12.00">Profilen nicht eingehalten.</text>
</g>
<!-- 140&#45;&gt;A21 -->
<g id="edge28" class="edge">
<title>140-&gt;A21</title>
<path fill="none" stroke="#7aab8a" d="M1195.89,-502.14C1173.38,-487.01 1142.57,-466.29 1115.31,-447.97"/>
<polygon fill="#7aab8a" stroke="#7aab8a" points="1117.35,-445.12 1107.1,-442.45 1113.44,-450.93 1117.35,-445.12"/>
<text text-anchor="start" x="1155.99" y="-464.78" font-family="Times,serif" font-weight="bold" font-size="14.00">NEIN</text>
</g>
<!-- 140&#45;&gt;200 -->
<g id="edge29" class="edge">
<title>140-&gt;200</title>
<path fill="none" stroke="#7aab8a" d="M1254.32,-502.27C1271.37,-487.07 1292.78,-465.26 1305.99,-441.83 1328.42,-402.05 1287.63,-347.95 1332.99,-342.69"/>
<text text-anchor="start" x="1312.99" y="-401.39" font-family="Times,serif" font-weight="bold" font-size="14.00">JA</text>
</g>
<!-- 160 -->
<g id="node25" class="node">
<title>160</title>
<path fill="#7aab8a" stroke="black" stroke-width="0" d="M2734.26,-542.72C2734.26,-542.72 2191.71,-542.72 2191.71,-542.72 2185.71,-542.72 2179.71,-536.72 2179.71,-530.72 2179.71,-530.72 2179.71,-518.72 2179.71,-518.72 2179.71,-512.72 2185.71,-506.72 2191.71,-506.72 2191.71,-506.72 2734.26,-506.72 2734.26,-506.72 2740.26,-506.72 2746.26,-512.72 2746.26,-518.72 2746.26,-518.72 2746.26,-530.72 2746.26,-530.72 2746.26,-536.72 2740.26,-542.72 2734.26,-542.72"/>
<text text-anchor="start" x="2194.11" y="-521.05" font-family="Times,serif" font-weight="bold" font-size="14.00">160: </text>
<text text-anchor="start" x="2233.11" y="-521.05" font-family="Times,serif" font-size="14.00">Ist die Anfrage nach dem 3. WT vor dem Monatsletzten eingegangen?</text>
</g>
<!-- 150&#45;&gt;160 -->
<g id="edge30" class="edge">
<title>150-&gt;160</title>
<path fill="none" stroke="#7aab8a" d="M1968.96,-621.79C2082.13,-599.78 2256.06,-565.96 2364.5,-544.87"/>
<polygon fill="#7aab8a" stroke="#7aab8a" points="2365.13,-548.32 2374.27,-542.97 2363.79,-541.45 2365.13,-548.32"/>
<text text-anchor="start" x="2213.99" y="-577.31" font-family="Times,serif" font-weight="bold" font-size="14.00">JA</text>
</g>
<!-- 190 -->
<g id="node30" class="node">
<title>190</title>
<path fill="#7aab8a" stroke="black" stroke-width="0" d="M2149.89,-554.36C2149.89,-554.36 1566.09,-554.36 1566.09,-554.36 1560.09,-554.36 1554.09,-548.36 1554.09,-542.36 1554.09,-542.36 1554.09,-507.08 1554.09,-507.08 1554.09,-501.08 1560.09,-495.08 1566.09,-495.08 1566.09,-495.08 2149.89,-495.08 2149.89,-495.08 2155.89,-495.08 2161.89,-501.08 2161.89,-507.08 2161.89,-507.08 2161.89,-542.36 2161.89,-542.36 2161.89,-548.36 2155.89,-554.36 2149.89,-554.36"/>
<text text-anchor="start" x="1568.49" y="-533.42" font-family="Times,serif" font-weight="bold" font-size="14.00">190: </text>
<text text-anchor="start" x="1607.49" y="-533.42" font-family="Times,serif" font-size="14.00">Ist als Bilanzierungsende das Ende des Monats angeben, in welchem das</text>
<text text-anchor="start" x="1568.49" y="-519.42" font-family="Times,serif" font-size="14.00">Lieferende liegt? (erster Tag des Folgemonats 00:00 Uhr des Monats in welchem</text>
<text text-anchor="start" x="1568.49" y="-505.42" font-family="Times,serif" font-size="14.00">das Lieferende liegt).</text>
</g>
<!-- 150&#45;&gt;190 -->
<g id="edge31" class="edge">
<title>150-&gt;190</title>
<path fill="none" stroke="#7aab8a" d="M1857.99,-621.79C1857.99,-606.08 1857.99,-584.35 1857.99,-565.52"/>
<polygon fill="#7aab8a" stroke="#7aab8a" points="1861.49,-565.77 1857.99,-555.77 1854.49,-565.77 1861.49,-565.77"/>
<text text-anchor="start" x="1857.99" y="-577.31" font-family="Times,serif" font-weight="bold" font-size="14.00">NEIN</text>
</g>
<!-- 170 -->
<g id="node26" class="node">
<title>170</title>
<path fill="#7aab8a" stroke="black" stroke-width="0" d="M3174.39,-427.71C3174.39,-427.71 2539.59,-427.71 2539.59,-427.71 2533.59,-427.71 2527.59,-421.71 2527.59,-415.71 2527.59,-415.71 2527.59,-394.43 2527.59,-394.43 2527.59,-388.43 2533.59,-382.43 2539.59,-382.43 2539.59,-382.43 3174.39,-382.43 3174.39,-382.43 3180.39,-382.43 3186.39,-388.43 3186.39,-394.43 3186.39,-394.43 3186.39,-415.71 3186.39,-415.71 3186.39,-421.71 3180.39,-427.71 3174.39,-427.71"/>
<text text-anchor="start" x="2541.99" y="-406.77" font-family="Times,serif" font-weight="bold" font-size="14.00">170: </text>
<text text-anchor="start" x="2580.99" y="-406.77" font-family="Times,serif" font-size="14.00">Ist als Bilanzierungsende das Ende des Folgemonats (erster Tag des &#252;bern&#228;chsten</text>
<text text-anchor="start" x="2541.99" y="-392.77" font-family="Times,serif" font-size="14.00">Monats 00:00 Uhr) angegeben?</text>
</g>
<!-- 160&#45;&gt;170 -->
<g id="edge32" class="edge">
<title>160-&gt;170</title>
<path fill="none" stroke="#7aab8a" d="M2519.86,-506.74C2586.48,-486.84 2697.44,-453.71 2773.75,-430.93"/>
<polygon fill="#7aab8a" stroke="#7aab8a" points="2774.72,-434.29 2783.3,-428.08 2772.71,-427.58 2774.72,-434.29"/>
<text text-anchor="start" x="2670.99" y="-464.78" font-family="Times,serif" font-weight="bold" font-size="14.00">JA</text>
</g>
<!-- 180 -->
<g id="node28" class="node">
<title>180</title>
<path fill="#7aab8a" stroke="black" stroke-width="0" d="M2497.51,-427.71C2497.51,-427.71 1932.46,-427.71 1932.46,-427.71 1926.46,-427.71 1920.46,-421.71 1920.46,-415.71 1920.46,-415.71 1920.46,-394.43 1920.46,-394.43 1920.46,-388.43 1926.46,-382.43 1932.46,-382.43 1932.46,-382.43 2497.51,-382.43 2497.51,-382.43 2503.51,-382.43 2509.51,-388.43 2509.51,-394.43 2509.51,-394.43 2509.51,-415.71 2509.51,-415.71 2509.51,-421.71 2503.51,-427.71 2497.51,-427.71"/>
<text text-anchor="start" x="1934.86" y="-406.77" font-family="Times,serif" font-weight="bold" font-size="14.00">180: </text>
<text text-anchor="start" x="1973.86" y="-406.77" font-family="Times,serif" font-size="14.00">Ist als Bilanzierungsende das Ende des aktuellen Monats (erster Tag des</text>
<text text-anchor="start" x="1934.86" y="-392.77" font-family="Times,serif" font-size="14.00">Folgemonats 00:00 Uhr) angegeben?</text>
</g>
<!-- 160&#45;&gt;180 -->
<g id="edge33" class="edge">
<title>160-&gt;180</title>
<path fill="none" stroke="#7aab8a" d="M2427.19,-506.74C2386.2,-487.29 2318.55,-455.2 2270.67,-432.48"/>
<polygon fill="#7aab8a" stroke="#7aab8a" points="2272.37,-429.42 2261.83,-428.29 2269.37,-435.74 2272.37,-429.42"/>
<text text-anchor="start" x="2360.99" y="-464.78" font-family="Times,serif" font-weight="bold" font-size="14.00">NEIN</text>
</g>
<!-- A15 -->
<g id="node27" class="node">
<title>A15</title>
<path fill="#cfb986" stroke="black" stroke-width="0" d="M3124.35,-315.06C3124.35,-315.06 2689.62,-315.06 2689.62,-315.06 2683.62,-315.06 2677.62,-309.06 2677.62,-303.06 2677.62,-303.06 2677.62,-265.54 2677.62,-265.54 2677.62,-259.54 2683.62,-253.54 2689.62,-253.54 2689.62,-253.54 3124.35,-253.54 3124.35,-253.54 3130.35,-253.54 3136.35,-259.54 3136.35,-265.54 3136.35,-265.54 3136.35,-303.06 3136.35,-303.06 3136.35,-309.06 3130.35,-315.06 3124.35,-315.06"/>
<text text-anchor="start" x="2689.86" y="-297" font-family="Times,serif" font-weight="bold" font-size="14.00">A15</text>
<text text-anchor="start" x="2689.86" y="-284.9" font-family="Times,serif" text-decoration="underline" font-size="12.00">Hinweis:</text>
<text text-anchor="start" x="2689.86" y="-272.9" font-family="Times,serif" font-size="12.00">Cluster: Ablehnung</text>
<text text-anchor="start" x="2689.86" y="-260.9" font-family="Times,serif" font-size="12.00">Das Bilanzierungsende ist zum angegebenen Termin nicht mehr m&#246;glich</text>
</g>
<!-- 170&#45;&gt;A15 -->
<g id="edge34" class="edge">
<title>170-&gt;A15</title>
<path fill="none" stroke="#7aab8a" d="M2866.04,-382.56C2872.76,-366.62 2882.1,-344.42 2890.17,-325.26"/>
<polygon fill="#7aab8a" stroke="#7aab8a" points="2893.38,-326.66 2894.03,-316.08 2886.92,-323.94 2893.38,-326.66"/>
<text text-anchor="start" x="2885.99" y="-338.01" font-family="Times,serif" font-weight="bold" font-size="14.00">NEIN</text>
</g>
<!-- 170&#45;&gt;200 -->
<g id="edge35" class="edge">
<title>170-&gt;200</title>
<path fill="none" stroke="#7aab8a" d="M2727.83,-382.43C2633.35,-367.14 2501.97,-346.96 2385.99,-333.06 2296.5,-322.34 2273.73,-323.51 2183.99,-315.06 2160.27,-312.83 2135.49,-310.45 2110.79,-308.04"/>
<polygon fill="#7aab8a" stroke="#7aab8a" points="2111.25,-304.57 2100.96,-307.08 2110.57,-311.54 2111.25,-304.57"/>
<text text-anchor="start" x="2514.99" y="-338.01" font-family="Times,serif" font-weight="bold" font-size="14.00">JA</text>
</g>
<!-- A16 -->
<g id="node29" class="node">
<title>A16</title>
<path fill="#cfb986" stroke="black" stroke-width="0" d="M2647.48,-315.06C2647.48,-315.06 2204.5,-315.06 2204.5,-315.06 2198.5,-315.06 2192.5,-309.06 2192.5,-303.06 2192.5,-303.06 2192.5,-265.54 2192.5,-265.54 2192.5,-259.54 2198.5,-253.54 2204.5,-253.54 2204.5,-253.54 2647.48,-253.54 2647.48,-253.54 2653.48,-253.54 2659.48,-259.54 2659.48,-265.54 2659.48,-265.54 2659.48,-303.06 2659.48,-303.06 2659.48,-309.06 2653.48,-315.06 2647.48,-315.06"/>
<text text-anchor="start" x="2204.74" y="-297" font-family="Times,serif" font-weight="bold" font-size="14.00">A16</text>
<text text-anchor="start" x="2204.74" y="-284.9" font-family="Times,serif" text-decoration="underline" font-size="12.00">Hinweis:</text>
<text text-anchor="start" x="2204.74" y="-272.9" font-family="Times,serif" font-size="12.00">Cluster: Ablehnung</text>
<text text-anchor="start" x="2204.74" y="-260.9" font-family="Times,serif" font-size="12.00">Das Bilanzierungsende ist nicht der erste Tag des Folgemonats 00:00 Uhr</text>
</g>
<!-- 180&#45;&gt;A16 -->
<g id="edge36" class="edge">
<title>180-&gt;A16</title>
<path fill="none" stroke="#7aab8a" d="M2253.2,-382.56C2283.92,-365.27 2327.71,-340.62 2363.51,-320.47"/>
<polygon fill="#7aab8a" stroke="#7aab8a" points="2365.07,-323.61 2372.06,-315.65 2361.63,-317.51 2365.07,-323.61"/>
<text text-anchor="start" x="2338.99" y="-338.01" font-family="Times,serif" font-weight="bold" font-size="14.00">NEIN</text>
</g>
<!-- 180&#45;&gt;200 -->
<g id="edge37" class="edge">
<title>180-&gt;200</title>
<path fill="none" stroke="#7aab8a" d="M2155.05,-382.56C2098.75,-362.36 2014.48,-332.12 1954.87,-310.74"/>
<polygon fill="#7aab8a" stroke="#7aab8a" points="1956.06,-307.44 1945.47,-307.36 1953.7,-314.03 1956.06,-307.44"/>
<text text-anchor="start" x="2058.99" y="-338.01" font-family="Times,serif" font-weight="bold" font-size="14.00">JA</text>
</g>
<!-- A17 -->
<g id="node31" class="node">
<title>A17</title>
<path fill="#cfb986" stroke="black" stroke-width="0" d="M1890.61,-441.83C1890.61,-441.83 1433.38,-441.83 1433.38,-441.83 1427.38,-441.83 1421.38,-435.83 1421.38,-429.83 1421.38,-429.83 1421.38,-380.31 1421.38,-380.31 1421.38,-374.31 1427.38,-368.31 1433.38,-368.31 1433.38,-368.31 1890.61,-368.31 1890.61,-368.31 1896.61,-368.31 1902.61,-374.31 1902.61,-380.31 1902.61,-380.31 1902.61,-429.83 1902.61,-429.83 1902.61,-435.83 1896.61,-441.83 1890.61,-441.83"/>
<text text-anchor="start" x="1433.62" y="-423.77" font-family="Times,serif" font-weight="bold" font-size="14.00">A17</text>
<text text-anchor="start" x="1433.62" y="-411.67" font-family="Times,serif" text-decoration="underline" font-size="12.00">Hinweis:</text>
<text text-anchor="start" x="1433.62" y="-399.67" font-family="Times,serif" font-size="12.00">Cluster: Ablehnung</text>
<text text-anchor="start" x="1433.62" y="-387.67" font-family="Times,serif" font-size="12.00">Das Bilanzierungsende bei Lieferenden, welche in einem zuk&#252;nftigen Monat</text>
<text text-anchor="start" x="1433.62" y="-375.67" font-family="Times,serif" font-size="12.00">liegen, muss zum Ablauf des gleichen Monats sein.</text>
</g>
<!-- 190&#45;&gt;A17 -->
<g id="edge38" class="edge">
<title>190-&gt;A17</title>
<path fill="none" stroke="#7aab8a" d="M1810.29,-495.09C1786.58,-480.86 1757.48,-463.39 1731.35,-447.7"/>
<polygon fill="#7aab8a" stroke="#7aab8a" points="1733.17,-444.72 1722.8,-442.57 1729.57,-450.72 1733.17,-444.72"/>
<text text-anchor="start" x="1776.99" y="-464.78" font-family="Times,serif" font-weight="bold" font-size="14.00">NEIN</text>
</g>
<!-- 190&#45;&gt;200 -->
<g id="edge39" class="edge">
<title>190-&gt;200</title>
<path fill="none" stroke="#7aab8a" d="M1583.03,-495.11C1502.45,-482.44 1427.23,-465.02 1394.74,-441.83 1364.33,-420.13 1374.97,-399.22 1353.99,-368.31 1345.72,-356.13 1318.36,-344.38 1332.99,-342.69"/>
<text text-anchor="start" x="1393.99" y="-401.39" font-family="Times,serif" font-weight="bold" font-size="14.00">JA</text>
</g>
<!-- A06 -->
<g id="node33" class="node">
<title>A06</title>
<path fill="#cfb986" stroke="black" stroke-width="0" d="M2144.48,-200.29C2144.48,-200.29 1623.5,-200.29 1623.5,-200.29 1617.5,-200.29 1611.5,-194.29 1611.5,-188.29 1611.5,-188.29 1611.5,-138.77 1611.5,-138.77 1611.5,-132.77 1617.5,-126.77 1623.5,-126.77 1623.5,-126.77 2144.48,-126.77 2144.48,-126.77 2150.48,-126.77 2156.48,-132.77 2156.48,-138.77 2156.48,-138.77 2156.48,-188.29 2156.48,-188.29 2156.48,-194.29 2150.48,-200.29 2144.48,-200.29"/>
<text text-anchor="start" x="1623.74" y="-182.23" font-family="Times,serif" font-weight="bold" font-size="14.00">A06</text>
<text text-anchor="start" x="1623.74" y="-170.13" font-family="Times,serif" text-decoration="underline" font-size="12.00">Hinweis:</text>
<text text-anchor="start" x="1623.74" y="-158.13" font-family="Times,serif" font-size="12.00">Cluster: Ablehnung</text>
<text text-anchor="start" x="1623.74" y="-146.13" font-family="Times,serif" font-size="12.00">Dem LF liegen Informationen vor, dass die Marktlokation nicht stillgelegt wird/wurde.</text>
<text text-anchor="start" x="1623.74" y="-134.13" font-family="Times,serif" font-size="12.00">Hinweis: Die Informationen sind in der Antwort zu beschreiben/benennen.</text>
</g>
<!-- 200&#45;&gt;A06 -->
<g id="edge40" class="edge">
<title>200-&gt;A06</title>
<path fill="none" stroke="#7aab8a" d="M1883.99,-261.79C1883.99,-247.64 1883.99,-228.57 1883.99,-211.07"/>
<polygon fill="#7aab8a" stroke="#7aab8a" points="1887.49,-211.37 1883.99,-201.37 1880.49,-211.37 1887.49,-211.37"/>
<text text-anchor="start" x="1883.99" y="-223.24" font-family="Times,serif" font-weight="bold" font-size="14.00">JA</text>
</g>
<!-- 270 -->
<g id="node45" class="node">
<title>270</title>
<path fill="#7aab8a" stroke="black" stroke-width="0" d="M2920.01,-181.53C2920.01,-181.53 2501.96,-181.53 2501.96,-181.53 2495.96,-181.53 2489.96,-175.53 2489.96,-169.53 2489.96,-169.53 2489.96,-157.53 2489.96,-157.53 2489.96,-151.53 2495.96,-145.53 2501.96,-145.53 2501.96,-145.53 2920.01,-145.53 2920.01,-145.53 2926.01,-145.53 2932.01,-151.53 2932.01,-157.53 2932.01,-157.53 2932.01,-169.53 2932.01,-169.53 2932.01,-175.53 2926.01,-181.53 2920.01,-181.53"/>
<text text-anchor="start" x="2504.36" y="-159.85" font-family="Times,serif" font-weight="bold" font-size="14.00">270: </text>
<text text-anchor="start" x="2543.36" y="-159.85" font-family="Times,serif" font-size="14.00">Ist ein zuvor nicht spezifizierter Fehler aufgetreten?</text>
</g>
<!-- 200&#45;&gt;270 -->
<g id="edge41" class="edge">
<title>200-&gt;270</title>
<path fill="none" stroke="#7aab8a" d="M2034.23,-261.72C2190.7,-239.25 2433.25,-204.42 2581.53,-183.12"/>
<polygon fill="#7aab8a" stroke="#7aab8a" points="2582.02,-186.59 2591.42,-181.7 2581.02,-179.66 2582.02,-186.59"/>
<text text-anchor="start" x="2321.99" y="-223.24" font-family="Times,serif" font-weight="bold" font-size="14.00">NEIN</text>
</g>
<!-- A11 -->
<g id="node35" class="node">
<title>A11</title>
<path fill="#cfb986" stroke="black" stroke-width="0" d="M3166.85,-1286.74C3166.85,-1286.74 2675.12,-1286.74 2675.12,-1286.74 2669.12,-1286.74 2663.12,-1280.74 2663.12,-1274.74 2663.12,-1274.74 2663.12,-1225.22 2663.12,-1225.22 2663.12,-1219.22 2669.12,-1213.22 2675.12,-1213.22 2675.12,-1213.22 3166.85,-1213.22 3166.85,-1213.22 3172.85,-1213.22 3178.85,-1219.22 3178.85,-1225.22 3178.85,-1225.22 3178.85,-1274.74 3178.85,-1274.74 3178.85,-1280.74 3172.85,-1286.74 3166.85,-1286.74"/>
<text text-anchor="start" x="2675.36" y="-1268.68" font-family="Times,serif" font-weight="bold" font-size="14.00">A11</text>
<text text-anchor="start" x="2675.36" y="-1256.58" font-family="Times,serif" text-decoration="underline" font-size="12.00">Hinweis:</text>
<text text-anchor="start" x="2675.36" y="-1244.58" font-family="Times,serif" font-size="12.00">Cluster: Ablehnung</text>
<text text-anchor="start" x="2675.36" y="-1232.58" font-family="Times,serif" font-size="12.00">Lieferende und Bilanzierungsende m&#252;ssen bei Lieferende von NB an LF aufgrund</text>
<text text-anchor="start" x="2675.36" y="-1220.58" font-family="Times,serif" font-size="12.00">entfallender Zuordnungserm&#228;chtigung synchron sein.</text>
</g>
<!-- 210&#45;&gt;A11 -->
<g id="edge42" class="edge">
<title>210-&gt;A11</title>
<path fill="none" stroke="#7aab8a" d="M2434.7,-1340.02C2509.91,-1326.25 2618.77,-1306.31 2714.44,-1288.8"/>
<polygon fill="#7aab8a" stroke="#7aab8a" points="2715.04,-1292.25 2724.25,-1287 2713.78,-1285.36 2715.04,-1292.25"/>
<text text-anchor="start" x="2613.99" y="-1309.69" font-family="Times,serif" font-weight="bold" font-size="14.00">NEIN</text>
</g>
<!-- 220 -->
<g id="node36" class="node">
<title>220</title>
<path fill="#7aab8a" stroke="black" stroke-width="0" d="M2633.51,-1267.98C2633.51,-1267.98 2050.46,-1267.98 2050.46,-1267.98 2044.46,-1267.98 2038.46,-1261.98 2038.46,-1255.98 2038.46,-1255.98 2038.46,-1243.98 2038.46,-1243.98 2038.46,-1237.98 2044.46,-1231.98 2050.46,-1231.98 2050.46,-1231.98 2633.51,-1231.98 2633.51,-1231.98 2639.51,-1231.98 2645.51,-1237.98 2645.51,-1243.98 2645.51,-1243.98 2645.51,-1255.98 2645.51,-1255.98 2645.51,-1261.98 2639.51,-1267.98 2633.51,-1267.98"/>
<text text-anchor="start" x="2052.86" y="-1246.31" font-family="Times,serif" font-weight="bold" font-size="14.00">220: </text>
<text text-anchor="start" x="2091.86" y="-1246.31" font-family="Times,serif" font-size="14.00">Liegt das &#252;bermittelte Datum &#8222;Lieferende&#8220; nach dem Nachrichteneingang?</text>
</g>
<!-- 210&#45;&gt;220 -->
<g id="edge43" class="edge">
<title>210-&gt;220</title>
<path fill="none" stroke="#7aab8a" d="M2341.99,-1340.43C2341.99,-1324.03 2341.99,-1298.62 2341.99,-1279.06"/>
<polygon fill="#7aab8a" stroke="#7aab8a" points="2345.49,-1279.29 2341.99,-1269.29 2338.49,-1279.29 2345.49,-1279.29"/>
<text text-anchor="start" x="2341.99" y="-1309.69" font-family="Times,serif" font-weight="bold" font-size="14.00">JA</text>
</g>
<!-- A07 -->
<g id="node37" class="node">
<title>A07</title>
<path fill="#cfb986" stroke="black" stroke-width="0" d="M3218.85,-1153.97C3218.85,-1153.97 2727.12,-1153.97 2727.12,-1153.97 2721.12,-1153.97 2715.12,-1147.97 2715.12,-1141.97 2715.12,-1141.97 2715.12,-1104.45 2715.12,-1104.45 2715.12,-1098.45 2721.12,-1092.45 2727.12,-1092.45 2727.12,-1092.45 3218.85,-1092.45 3218.85,-1092.45 3224.85,-1092.45 3230.85,-1098.45 3230.85,-1104.45 3230.85,-1104.45 3230.85,-1141.97 3230.85,-1141.97 3230.85,-1147.97 3224.85,-1153.97 3218.85,-1153.97"/>
<text text-anchor="start" x="2727.36" y="-1135.91" font-family="Times,serif" font-weight="bold" font-size="14.00">A07</text>
<text text-anchor="start" x="2727.36" y="-1123.81" font-family="Times,serif" text-decoration="underline" font-size="12.00">Hinweis:</text>
<text text-anchor="start" x="2727.36" y="-1111.81" font-family="Times,serif" font-size="12.00">Cluster: Ablehnung</text>
<text text-anchor="start" x="2727.36" y="-1099.81" font-family="Times,serif" font-size="12.00">Lieferende bei entfallender Zuordnungserm&#228;chtigung muss in der Zukunft liegen.</text>
</g>
<!-- 220&#45;&gt;A07 -->
<g id="edge44" class="edge">
<title>220-&gt;A07</title>
<path fill="none" stroke="#7aab8a" d="M2427.75,-1232.02C2526.04,-1212.59 2689.31,-1180.3 2811.61,-1156.12"/>
<polygon fill="#7aab8a" stroke="#7aab8a" points="2811.96,-1159.62 2821.09,-1154.25 2810.6,-1152.75 2811.96,-1159.62"/>
<text text-anchor="start" x="2694.99" y="-1182.92" font-family="Times,serif" font-weight="bold" font-size="14.00">NEIN</text>
</g>
<!-- 230 -->
<g id="node38" class="node">
<title>230</title>
<path fill="#7aab8a" stroke="black" stroke-width="0" d="M2684.89,-1141.21C2684.89,-1141.21 1999.09,-1141.21 1999.09,-1141.21 1993.09,-1141.21 1987.09,-1135.21 1987.09,-1129.21 1987.09,-1129.21 1987.09,-1117.21 1987.09,-1117.21 1987.09,-1111.21 1993.09,-1105.21 1999.09,-1105.21 1999.09,-1105.21 2684.89,-1105.21 2684.89,-1105.21 2690.89,-1105.21 2696.89,-1111.21 2696.89,-1117.21 2696.89,-1117.21 2696.89,-1129.21 2696.89,-1129.21 2696.89,-1135.21 2690.89,-1141.21 2684.89,-1141.21"/>
<text text-anchor="start" x="2001.49" y="-1119.54" font-family="Times,serif" font-weight="bold" font-size="14.00">230: </text>
<text text-anchor="start" x="2040.49" y="-1119.54" font-family="Times,serif" font-size="14.00">Ist das angegebene Datum &#8222;Lieferende&#8220; der n&#228;chste 1. eines Kalendermonats 00:00 Uhr?</text>
</g>
<!-- 220&#45;&gt;230 -->
<g id="edge45" class="edge">
<title>220-&gt;230</title>
<path fill="none" stroke="#7aab8a" d="M2341.99,-1232.15C2341.99,-1211.78 2341.99,-1177.16 2341.99,-1152.62"/>
<polygon fill="#7aab8a" stroke="#7aab8a" points="2345.49,-1152.68 2341.99,-1142.68 2338.49,-1152.68 2345.49,-1152.68"/>
<text text-anchor="start" x="2341.99" y="-1182.92" font-family="Times,serif" font-weight="bold" font-size="14.00">JA</text>
</g>
<!-- A08 -->
<g id="node39" class="node">
<title>A08</title>
<path fill="#cfb986" stroke="black" stroke-width="0" d="M3219.1,-1033.2C3219.1,-1033.2 2716.88,-1033.2 2716.88,-1033.2 2710.88,-1033.2 2704.88,-1027.2 2704.88,-1021.2 2704.88,-1021.2 2704.88,-971.68 2704.88,-971.68 2704.88,-965.68 2710.88,-959.68 2716.88,-959.68 2716.88,-959.68 3219.1,-959.68 3219.1,-959.68 3225.1,-959.68 3231.1,-965.68 3231.1,-971.68 3231.1,-971.68 3231.1,-1021.2 3231.1,-1021.2 3231.1,-1027.2 3225.1,-1033.2 3219.1,-1033.2"/>
<text text-anchor="start" x="2717.11" y="-1015.14" font-family="Times,serif" font-weight="bold" font-size="14.00">A08</text>
<text text-anchor="start" x="2717.11" y="-1003.04" font-family="Times,serif" text-decoration="underline" font-size="12.00">Hinweis:</text>
<text text-anchor="start" x="2717.11" y="-991.04" font-family="Times,serif" font-size="12.00">Cluster: Ablehnung</text>
<text text-anchor="start" x="2717.11" y="-979.04" font-family="Times,serif" font-size="12.00">Das Lieferende bei Abmeldung wegen Deaktivierung der Zuordnungserm&#228;chtigung</text>
<text text-anchor="start" x="2717.11" y="-967.04" font-family="Times,serif" font-size="12.00">muss auf dem 1. eines Kalendermonats liegen.</text>
</g>
<!-- 230&#45;&gt;A08 -->
<g id="edge46" class="edge">
<title>230-&gt;A08</title>
<path fill="none" stroke="#7aab8a" d="M2427.07,-1105.25C2516.61,-1087.41 2660.51,-1058.72 2777.39,-1035.43"/>
<polygon fill="#7aab8a" stroke="#7aab8a" points="2778.01,-1038.88 2787.13,-1033.49 2776.64,-1032.01 2778.01,-1038.88"/>
<text text-anchor="start" x="2691.99" y="-1056.15" font-family="Times,serif" font-weight="bold" font-size="14.00">NEIN</text>
</g>
<!-- 240 -->
<g id="node40" class="node">
<title>240</title>
<path fill="#7aab8a" stroke="black" stroke-width="0" d="M2674.76,-1019.08C2674.76,-1019.08 2063.21,-1019.08 2063.21,-1019.08 2057.21,-1019.08 2051.21,-1013.08 2051.21,-1007.08 2051.21,-1007.08 2051.21,-985.8 2051.21,-985.8 2051.21,-979.8 2057.21,-973.8 2063.21,-973.8 2063.21,-973.8 2674.76,-973.8 2674.76,-973.8 2680.76,-973.8 2686.76,-979.8 2686.76,-985.8 2686.76,-985.8 2686.76,-1007.08 2686.76,-1007.08 2686.76,-1013.08 2680.76,-1019.08 2674.76,-1019.08"/>
<text text-anchor="start" x="2065.61" y="-998.14" font-family="Times,serif" font-weight="bold" font-size="14.00">240: </text>
<text text-anchor="start" x="2104.61" y="-998.14" font-family="Times,serif" font-size="14.00">Liegt der Transaktionsgrund Abmeldung wegen fehl. Zuordnungserm&#228;chtigung</text>
<text text-anchor="start" x="2065.61" y="-984.14" font-family="Times,serif" font-size="14.00">aufgrund &#196;nderung ZRT vor?</text>
</g>
<!-- 230&#45;&gt;240 -->
<g id="edge47" class="edge">
<title>230-&gt;240</title>
<path fill="none" stroke="#7aab8a" d="M2345.63,-1105.38C2349.79,-1086.18 2356.69,-1054.3 2361.91,-1030.16"/>
<polygon fill="#7aab8a" stroke="#7aab8a" points="2365.31,-1031.01 2364,-1020.49 2358.47,-1029.53 2365.31,-1031.01"/>
<text text-anchor="start" x="2356.99" y="-1056.15" font-family="Times,serif" font-weight="bold" font-size="14.00">JA</text>
</g>
<!-- 250 -->
<g id="node41" class="node">
<title>250</title>
<path fill="#7aab8a" stroke="black" stroke-width="0" d="M3005.76,-906.43C3005.76,-906.43 2442.21,-906.43 2442.21,-906.43 2436.21,-906.43 2430.21,-900.43 2430.21,-894.43 2430.21,-894.43 2430.21,-873.15 2430.21,-873.15 2430.21,-867.15 2436.21,-861.15 2442.21,-861.15 2442.21,-861.15 3005.76,-861.15 3005.76,-861.15 3011.76,-861.15 3017.76,-867.15 3017.76,-873.15 3017.76,-873.15 3017.76,-894.43 3017.76,-894.43 3017.76,-900.43 3011.76,-906.43 3005.76,-906.43"/>
<text text-anchor="start" x="2444.61" y="-885.49" font-family="Times,serif" font-weight="bold" font-size="14.00">250: </text>
<text text-anchor="start" x="2483.61" y="-885.49" font-family="Times,serif" font-size="14.00">Wurde der Zeitreihentyp an der betreffenden Marktlokation in einen</text>
<text text-anchor="start" x="2444.61" y="-871.49" font-family="Times,serif" font-size="14.00">Zeitreihentyp ge&#228;ndert, f&#252;r welchen keine Zuordnungserm&#228;chtigung besteht?</text>
</g>
<!-- 240&#45;&gt;250 -->
<g id="edge48" class="edge">
<title>240-&gt;250</title>
<path fill="none" stroke="#7aab8a" d="M2438.28,-973.84C2497.19,-955.48 2581.83,-929.1 2643.69,-909.82"/>
<polygon fill="#7aab8a" stroke="#7aab8a" points="2644.62,-913.19 2653.13,-906.88 2642.54,-906.51 2644.62,-913.19"/>
<text text-anchor="start" x="2587.99" y="-929.38" font-family="Times,serif" font-weight="bold" font-size="14.00">JA</text>
</g>
<!-- 260 -->
<g id="node43" class="node">
<title>260</title>
<path fill="#7aab8a" stroke="black" stroke-width="0" d="M2781.26,-793.78C2781.26,-793.78 2142.71,-793.78 2142.71,-793.78 2136.71,-793.78 2130.71,-787.78 2130.71,-781.78 2130.71,-781.78 2130.71,-760.5 2130.71,-760.5 2130.71,-754.5 2136.71,-748.5 2142.71,-748.5 2142.71,-748.5 2781.26,-748.5 2781.26,-748.5 2787.26,-748.5 2793.26,-754.5 2793.26,-760.5 2793.26,-760.5 2793.26,-781.78 2793.26,-781.78 2793.26,-787.78 2787.26,-793.78 2781.26,-793.78"/>
<text text-anchor="start" x="2145.11" y="-772.84" font-family="Times,serif" font-weight="bold" font-size="14.00">260: </text>
<text text-anchor="start" x="2184.11" y="-772.84" font-family="Times,serif" font-size="14.00">Hat der BKV die Deaktivierung der Zuordnungserm&#228;chtigung f&#252;r den ZRT, welcher</text>
<text text-anchor="start" x="2145.11" y="-758.84" font-family="Times,serif" font-size="14.00">der genannten Marktlokation zugeordnet ist, vorgenommen?</text>
</g>
<!-- 240&#45;&gt;260 -->
<g id="edge49" class="edge">
<title>240-&gt;260</title>
<path fill="none" stroke="#7aab8a" d="M2366.17,-973.93C2363.52,-946.5 2362.06,-898.2 2378.24,-861.15 2388.46,-837.76 2407.57,-816.69 2424.96,-800.93"/>
<polygon fill="#7aab8a" stroke="#7aab8a" points="2426.94,-803.85 2432.17,-794.63 2422.34,-798.58 2426.94,-803.85"/>
<text text-anchor="start" x="2377.99" y="-880.12" font-family="Times,serif" font-weight="bold" font-size="14.00">NEIN</text>
</g>
<!-- A12 -->
<g id="node42" class="node">
<title>A12</title>
<path fill="#cfb986" stroke="black" stroke-width="0" d="M3218.85,-807.9C3218.85,-807.9 2823.12,-807.9 2823.12,-807.9 2817.12,-807.9 2811.12,-801.9 2811.12,-795.9 2811.12,-795.9 2811.12,-746.38 2811.12,-746.38 2811.12,-740.38 2817.12,-734.38 2823.12,-734.38 2823.12,-734.38 3218.85,-734.38 3218.85,-734.38 3224.85,-734.38 3230.85,-740.38 3230.85,-746.38 3230.85,-746.38 3230.85,-795.9 3230.85,-795.9 3230.85,-801.9 3224.85,-807.9 3218.85,-807.9"/>
<text text-anchor="start" x="2823.36" y="-789.84" font-family="Times,serif" font-weight="bold" font-size="14.00">A12</text>
<text text-anchor="start" x="2823.36" y="-777.74" font-family="Times,serif" text-decoration="underline" font-size="12.00">Hinweis:</text>
<text text-anchor="start" x="2823.36" y="-765.74" font-family="Times,serif" font-size="12.00">Cluster: Ablehnung</text>
<text text-anchor="start" x="2823.36" y="-753.74" font-family="Times,serif" font-size="12.00">Es liegt keine &#196;nderung des Zeitreihentyps vor, f&#252;r welchen keine</text>
<text text-anchor="start" x="2823.36" y="-741.74" font-family="Times,serif" font-size="12.00">Zuordnungserm&#228;chtigung besteht.</text>
</g>
<!-- 250&#45;&gt;A12 -->
<g id="edge50" class="edge">
<title>250-&gt;A12</title>
<path fill="none" stroke="#7aab8a" d="M2781.96,-861.19C2819.62,-847.16 2869.85,-828.45 2914.54,-811.8"/>
<polygon fill="#7aab8a" stroke="#7aab8a" points="2915.61,-815.14 2923.76,-808.36 2913.17,-808.58 2915.61,-815.14"/>
<text text-anchor="start" x="2871.99" y="-830.85" font-family="Times,serif" font-weight="bold" font-size="14.00">NEIN</text>
</g>
<!-- 250&#45;&gt;260 -->
<g id="edge51" class="edge">
<title>250-&gt;260</title>
<path fill="none" stroke="#7aab8a" d="M2672.85,-861.19C2630.02,-843.11 2568.78,-817.24 2523.32,-798.04"/>
<polygon fill="#7aab8a" stroke="#7aab8a" points="2524.97,-794.94 2514.39,-794.27 2522.24,-801.39 2524.97,-794.94"/>
<text text-anchor="start" x="2623.99" y="-830.85" font-family="Times,serif" font-weight="bold" font-size="14.00">JA</text>
</g>
<!-- A09 -->
<g id="node44" class="node">
<title>A09</title>
<path fill="#cfb986" stroke="black" stroke-width="0" d="M2720.98,-681.13C2720.98,-681.13 2203,-681.13 2203,-681.13 2197,-681.13 2191,-675.13 2191,-669.13 2191,-669.13 2191,-619.61 2191,-619.61 2191,-613.61 2197,-607.61 2203,-607.61 2203,-607.61 2720.98,-607.61 2720.98,-607.61 2726.98,-607.61 2732.98,-613.61 2732.98,-619.61 2732.98,-619.61 2732.98,-669.13 2732.98,-669.13 2732.98,-675.13 2726.98,-681.13 2720.98,-681.13"/>
<text text-anchor="start" x="2203.24" y="-663.07" font-family="Times,serif" font-weight="bold" font-size="14.00">A09</text>
<text text-anchor="start" x="2203.24" y="-650.97" font-family="Times,serif" text-decoration="underline" font-size="12.00">Hinweis:</text>
<text text-anchor="start" x="2203.24" y="-638.97" font-family="Times,serif" font-size="12.00">Cluster: Ablehnung</text>
<text text-anchor="start" x="2203.24" y="-626.97" font-family="Times,serif" font-size="12.00">Deaktivierung der Zuordnungserm&#228;chtigung f&#252;r den der Marktlokation zugeordneten</text>
<text text-anchor="start" x="2203.24" y="-614.97" font-family="Times,serif" font-size="12.00">ZRT hat nicht stattgefunden.</text>
</g>
<!-- 260&#45;&gt;A09 -->
<g id="edge52" class="edge">
<title>260-&gt;A09</title>
<path fill="none" stroke="#7aab8a" d="M2461.99,-748.69C2461.99,-733.15 2461.99,-711.55 2461.99,-692.12"/>
<polygon fill="#7aab8a" stroke="#7aab8a" points="2465.49,-692.19 2461.99,-682.19 2458.49,-692.19 2465.49,-692.19"/>
<text text-anchor="start" x="2461.99" y="-704.08" font-family="Times,serif" font-weight="bold" font-size="14.00">NEIN</text>
</g>
<!-- 260&#45;&gt;270 -->
<g id="edge53" class="edge">
<title>260-&gt;270</title>
<path fill="none" stroke="#7aab8a" d="M2646.43,-748.5C2869.08,-721.11 3213.99,-674.05 3213.99,-645.37 3213.99,-645.37 3213.99,-645.37 3213.99,-283.3 3213.99,-222.92 3074.96,-193.2 2943.08,-178.59"/>
<polygon fill="#7aab8a" stroke="#7aab8a" points="2943.8,-175.15 2933.48,-177.55 2943.05,-182.11 2943.8,-175.15"/>
<text text-anchor="start" x="3213.99" y="-464.78" font-family="Times,serif" font-weight="bold" font-size="14.00">JA</text>
</g>
<!-- A10 -->
<g id="node46" class="node">
<title>A10</title>
<path fill="#cfb986" stroke="black" stroke-width="0" d="M2585.6,-67.52C2585.6,-67.52 2416.38,-67.52 2416.38,-67.52 2410.38,-67.52 2404.38,-61.52 2404.38,-55.52 2404.38,-55.52 2404.38,-18 2404.38,-18 2404.38,-12 2410.38,-6 2416.38,-6 2416.38,-6 2585.6,-6 2585.6,-6 2591.6,-6 2597.6,-12 2597.6,-18 2597.6,-18 2597.6,-55.52 2597.6,-55.52 2597.6,-61.52 2591.6,-67.52 2585.6,-67.52"/>
<text text-anchor="start" x="2416.61" y="-49.46" font-family="Times,serif" font-weight="bold" font-size="14.00">A10</text>
<text text-anchor="start" x="2416.61" y="-37.36" font-family="Times,serif" text-decoration="underline" font-size="12.00">Hinweis:</text>
<text text-anchor="start" x="2416.61" y="-25.36" font-family="Times,serif" font-size="12.00">Cluster: Zustimmung</text>
<text text-anchor="start" x="2416.61" y="-13.36" font-family="Times,serif" font-size="12.00">Lieferende wird zugestimmt</text>
</g>
<!-- 270&#45;&gt;A10 -->
<g id="edge54" class="edge">
<title>270-&gt;A10</title>
<path fill="none" stroke="#7aab8a" d="M2682.67,-145.7C2651.54,-127.21 2600.63,-96.96 2560.61,-73.19"/>
<polygon fill="#7aab8a" stroke="#7aab8a" points="2562.64,-70.32 2552.26,-68.22 2559.07,-76.34 2562.64,-70.32"/>
<text text-anchor="start" x="2617.99" y="-96.47" font-family="Times,serif" font-weight="bold" font-size="14.00">NEIN</text>
</g>
<!-- A99 -->
<g id="node47" class="node">
<title>A99</title>
<path fill="#cfb986" stroke="black" stroke-width="0" d="M3110.73,-73.52C3110.73,-73.52 2627.25,-73.52 2627.25,-73.52 2621.25,-73.52 2615.25,-67.52 2615.25,-61.52 2615.25,-61.52 2615.25,-12 2615.25,-12 2615.25,-6 2621.25,0 2627.25,0 2627.25,0 3110.73,0 3110.73,0 3116.73,0 3122.73,-6 3122.73,-12 3122.73,-12 3122.73,-61.52 3122.73,-61.52 3122.73,-67.52 3116.73,-73.52 3110.73,-73.52"/>
<text text-anchor="start" x="2627.49" y="-55.46" font-family="Times,serif" font-weight="bold" font-size="14.00">A99</text>
<text text-anchor="start" x="2627.49" y="-43.36" font-family="Times,serif" text-decoration="underline" font-size="12.00">Hinweis:</text>
<text text-anchor="start" x="2627.49" y="-31.36" font-family="Times,serif" font-size="12.00">Cluster: Ablehnung Sonstiges</text>
<text text-anchor="start" x="2627.49" y="-19.36" font-family="Times,serif" font-size="12.00">Hinweis: Das identifizierte Problem ist in der Antwort zu beschreiben/benennen.</text>
<text text-anchor="start" x="2627.49" y="-7.36" font-family="Times,serif" font-size="12.00">Nutzungsm&#246;glichkeit Ende: 01.10.2023 00:00 Uhr</text>
</g>
<!-- 270&#45;&gt;A99 -->
<g id="edge55" class="edge">
<title>270-&gt;A99</title>
<path fill="none" stroke="#7aab8a" d="M2732.3,-145.7C2753.35,-129.08 2786.43,-102.96 2814.77,-80.58"/>
<polygon fill="#7aab8a" stroke="#7aab8a" points="2816.91,-83.34 2822.59,-74.4 2812.58,-77.85 2816.91,-83.34"/>
<text text-anchor="start" x="2798.99" y="-96.47" font-family="Times,serif" font-weight="bold" font-size="14.00">JA</text>
</g>
</g>
</svg>
  </g>
</svg>
  </g>
</svg>
