<?xml version='1.0' encoding='ASCII' standalone='yes'?>
<svg xmlns="http://www.w3.org/2000/svg" xmlns:xlink="http://www.w3.org/1999/xlink" version="1.1" width="1262.6666666666667px" viewBox="0 0 1262.6666666666667 634.6666666666666" height="634.6666666666666px">
  <g>
    <svg version="1.1" width="1262.6666666666667px" viewBox="0 0 1262.6666666666667 634.6666666666666" height="634.6666666666666px">
  <polygon fill="#f3f1f6" points="0,0 1262.6666666666667,0 1262.6666666666667,634.6666666666666 0,634.6666666666666"/><g>
    <g transform="translate(377.6549762097216, 63.46666666666665) scale(1 1) translate(0, 0) scale(2.870353525720135 2.870353525720135) "><sodipodi:namedview xmlns:sodipodi="http://sodipodi.sourceforge.net/DTD/sodipodi-0.dtd" xmlns:inkscape="http://www.inkscape.org/namespaces/inkscape" id="namedview7" pagecolor="#ffffff" bordercolor="#999999" borderopacity="1" inkscape:pageshadow="0" inkscape:pageopacity="0" inkscape:pagecheckerboard="0" inkscape:document-units="mm" showgrid="false" fit-margin-top="0" fit-margin-left="0" fit-margin-right="0" fit-margin-bottom="0" inkscape:zoom="0.64052329" inkscape:cx="130.36216" inkscape:cy="412.163" inkscape:window-width="1512" inkscape:window-height="916" inkscape:window-x="3840" inkscape:window-y="136" inkscape:window-maximized="0" inkscape:current-layer="layer1"/>
  <defs id="defs2">
    <clipPath clipPathUnits="userSpaceOnUse" id="clipPath23">
      <path d="M 0,568.156 H 579.236 V 0 H 0 Z" id="path21"/>
    </clipPath>
  </defs>
  <g xmlns:inkscape="http://www.inkscape.org/namespaces/inkscape" inkscape:label="Layer 1" inkscape:groupmode="layer" id="layer1" transform="translate(-16.541937,-55.305267)">
    <g id="g19" clip-path="url(#clipPath23)" transform="matrix(0.35277777,0,0,-0.35277777,0.01017023,243.73675)" style="opacity:0.2">
      <g id="g25" transform="translate(122.444,32.7195)">
        <path d="m 0,0 h -56.104 c -11,0 -19.898,9.123 -19.463,20.115 10.594,267.191 231.277,481.302 501.029,481.302 v -56.02 c 0,-10.98 -8.688,-19.892 -19.658,-20.393 C 180.29,414.697 0,228.005 0,0" style="fill:#6ead83;fill-opacity:1;fill-rule:nonzero;stroke:none" id="path27"/>
      </g>
      <g id="g29" transform="translate(273.7828,32.7195)">
        <path d="m 0,0 h -55.926 c -11.228,0 -20.091,9.482 -19.435,20.69 10.744,183.439 163.389,329.388 349.485,329.388 v -56.263 c 0,-10.709 -8.273,-19.617 -18.957,-20.35 C 112.819,263.696 0,144.774 0,0" style="fill:#6ead83;fill-opacity:1;fill-rule:nonzero;stroke:none" id="path31"/>
      </g>
      <g id="g33" transform="translate(425.7667,32.7195)">
        <path d="m 0,0 h -55.445 c -11.653,0 -20.604,10.17 -19.334,21.753 10.866,99.032 95.031,176.341 196.919,176.341 v -57.011 c 0,-10.046 -7.283,-18.755 -17.229,-20.165 C 45.688,112.522 0,61.497 0,0" style="fill:#6ead83;fill-opacity:1;fill-rule:nonzero;stroke:none" id="path35"/>
      </g>
    </g>
  </g>
</g>
    <svg width="947pt" height="476pt" viewBox="0.00 0.00 947.25 475.82">
<g id="graph0" class="graph" transform="scale(1 1) rotate(0) translate(4 471.82)">
<title>D</title>
<text text-anchor="start" x="8" y="-447.72" font-family="Times,serif" font-weight="bold" font-size="18.00">Zum Modell 2 zur ladevorgangscharfen bilanziellen Energiemengenzuordnungsm&#246;glichkeit</text>
<text text-anchor="start" x="84.5" y="-417.62" font-family="Times,serif" font-weight="bold" font-size="16.00">18.1.2: AD: Anmeldung einer Marktlokation in das Modell 2 durch den NB (LPB)_neu</text>
<!-- Start -->
<g id="node1" class="node">
<title>Start</title>
<polygon fill="#7a8da1" stroke="black" points="403.29,-369.82 243.24,-369.82 243.24,-326.54 403.29,-326.54 403.29,-369.82"/>
<text text-anchor="start" x="295.14" y="-348.88" font-family="Times,serif" font-weight="bold" font-size="14.00">E_0514</text>
<text text-anchor="start" x="257.64" y="-336.78" font-family="Times,serif" font-weight="bold" text-decoration="underline" font-size="12.00">Pr&#252;fende Rolle:</text>
<text text-anchor="start" x="362.64" y="-336.78" font-family="Times,serif" font-weight="bold" font-size="12.00"> NB</text>
</g>
<!-- 1 -->
<g id="node2" class="node">
<title>1</title>
<path fill="#7aab8a" stroke="black" d="M581.79,-289.54C581.79,-289.54 64.74,-289.54 64.74,-289.54 58.74,-289.54 52.74,-283.54 52.74,-277.54 52.74,-277.54 52.74,-265.54 52.74,-265.54 52.74,-259.54 58.74,-253.54 64.74,-253.54 64.74,-253.54 581.79,-253.54 581.79,-253.54 587.79,-253.54 593.79,-259.54 593.79,-265.54 593.79,-265.54 593.79,-277.54 593.79,-277.54 593.79,-283.54 587.79,-289.54 581.79,-289.54"/>
<text text-anchor="start" x="67.14" y="-267.86" font-family="Times,serif" font-weight="bold" font-size="14.00">1: </text>
<text text-anchor="start" x="86.64" y="-267.86" font-family="Times,serif" font-size="14.00">Ging innerhalb der Antwortfrist eine Ablehnung des Lieferanten ein?</text>
</g>
<!-- Start&#45;&gt;1 -->
<g id="edge1" class="edge">
<title>Start-&gt;1</title>
<path fill="none" stroke="black" d="M323.27,-326.39C323.27,-318.35 323.27,-309.03 323.27,-300.43"/>
<polygon fill="black" stroke="black" points="326.77,-300.7 323.27,-290.7 319.77,-300.7 326.77,-300.7"/>
</g>
<!-- A01 -->
<g id="node3" class="node">
<title>A01</title>
<polygon fill="#cfb986" stroke="black" points="468.63,-200.29 141.9,-200.29 141.9,-138.77 468.63,-138.77 468.63,-200.29"/>
<text text-anchor="start" x="290.27" y="-182.23" font-family="Times,serif" font-weight="bold" font-size="14.00">A01</text>
<text text-anchor="start" x="154.14" y="-170.13" font-family="Times,serif" text-decoration="underline" font-size="12.00">Hinweis:</text>
<text text-anchor="start" x="154.14" y="-158.13" font-family="Times,serif" font-size="12.00">Cluster: Ablehnung</text>
<text text-anchor="start" x="154.14" y="-146.13" font-family="Times,serif" font-size="12.00">Ablehnung der Abmeldung durch den Lieferanten.</text>
</g>
<!-- 1&#45;&gt;A01 -->
<g id="edge2" class="edge">
<title>1-&gt;A01</title>
<path fill="none" stroke="black" d="M320.13,-253.12C318.06,-241.61 315.26,-226.03 312.64,-211.5"/>
<polygon fill="black" stroke="black" points="315.91,-210.9 310.69,-201.68 309.02,-212.14 315.91,-210.9"/>
<text text-anchor="middle" x="324.02" y="-222.24" font-family="Times,serif" font-size="14.00">Ja</text>
</g>
<!-- 2 -->
<g id="node4" class="node">
<title>2</title>
<path fill="#7aab8a" stroke="black" d="M714.04,-187.53C714.04,-187.53 498.49,-187.53 498.49,-187.53 492.49,-187.53 486.49,-181.53 486.49,-175.53 486.49,-175.53 486.49,-163.53 486.49,-163.53 486.49,-157.53 492.49,-151.53 498.49,-151.53 498.49,-151.53 714.04,-151.53 714.04,-151.53 720.04,-151.53 726.04,-157.53 726.04,-163.53 726.04,-163.53 726.04,-175.53 726.04,-175.53 726.04,-181.53 720.04,-187.53 714.04,-187.53"/>
<text text-anchor="start" x="500.89" y="-165.85" font-family="Times,serif" font-weight="bold" font-size="14.00">2: </text>
<text text-anchor="start" x="520.39" y="-165.85" font-family="Times,serif" font-size="14.00">Ist ein Fehler aufgetreten?</text>
</g>
<!-- 1&#45;&gt;2 -->
<g id="edge3" class="edge">
<title>1-&gt;2</title>
<path fill="none" stroke="black" d="M372.56,-253.12C421.01,-236 495,-209.85 546.71,-191.58"/>
<polygon fill="black" stroke="black" points="547.8,-194.55 556.06,-187.92 545.47,-187.95 547.8,-194.55"/>
<text text-anchor="middle" x="482.14" y="-222.24" font-family="Times,serif" font-size="14.00">Nein</text>
</g>
<!-- A99 -->
<g id="node5" class="node">
<title>A99</title>
<polygon fill="#cfb986" stroke="black" points="676.01,-85.52 168.53,-85.52 168.53,0 676.01,0 676.01,-85.52"/>
<text text-anchor="start" x="407.27" y="-67.46" font-family="Times,serif" font-weight="bold" font-size="14.00">A99</text>
<text text-anchor="start" x="180.77" y="-55.36" font-family="Times,serif" text-decoration="underline" font-size="12.00">Hinweis:</text>
<text text-anchor="start" x="180.77" y="-43.36" font-family="Times,serif" font-size="12.00">Cluster: Ablehnung</text>
<text text-anchor="start" x="180.77" y="-31.36" font-family="Times,serif" font-size="12.00">Sonstiges</text>
<text text-anchor="start" x="180.77" y="-19.36" font-family="Times,serif" font-size="12.00">Hinweis: Das identifizierte Problem ist in der Antwort zu beschreiben/benennen.</text>
<text text-anchor="start" x="180.77" y="-7.36" font-family="Times,serif" font-size="12.00">Nutzungsm&#246;glichkeit Ende: 01.10.2024, 00:00 Uhr</text>
</g>
<!-- 2&#45;&gt;A99 -->
<g id="edge4" class="edge">
<title>2-&gt;A99</title>
<path fill="none" stroke="black" d="M580.68,-151.18C558.12,-135.88 524.16,-112.85 493.46,-92.03"/>
<polygon fill="black" stroke="black" points="495.71,-88.66 485.47,-85.94 491.79,-94.45 495.71,-88.66"/>
<text text-anchor="middle" x="538.02" y="-107.47" font-family="Times,serif" font-size="14.00">Ja</text>
</g>
<!-- A02 -->
<g id="node6" class="node">
<title>A02</title>
<polygon fill="#cfb986" stroke="black" points="886.51,-73.52 694.03,-73.52 694.03,-12 886.51,-12 886.51,-73.52"/>
<text text-anchor="start" x="775.27" y="-55.46" font-family="Times,serif" font-weight="bold" font-size="14.00">A02</text>
<text text-anchor="start" x="706.27" y="-43.36" font-family="Times,serif" text-decoration="underline" font-size="12.00">Hinweis:</text>
<text text-anchor="start" x="706.27" y="-31.36" font-family="Times,serif" font-size="12.00">Cluster: Zustimmung</text>
<text text-anchor="start" x="706.27" y="-19.36" font-family="Times,serif" font-size="12.00">Best&#228;tigung der Anmeldung</text>
</g>
<!-- 2&#45;&gt;A02 -->
<g id="edge5" class="edge">
<title>2-&gt;A02</title>
<path fill="none" stroke="black" d="M631.85,-151.18C658.86,-132.86 702.23,-103.46 736.77,-80.04"/>
<polygon fill="black" stroke="black" points="738.49,-82.42 744.8,-73.91 734.56,-76.63 738.49,-82.42"/>
<text text-anchor="middle" x="715.14" y="-107.47" font-family="Times,serif" font-size="14.00">Nein</text>
</g>
</g>
</svg>
  </g>
</svg>
  </g>
</svg>
