<?xml version='1.0' encoding='ASCII' standalone='yes'?>
<svg xmlns="http://www.w3.org/2000/svg" xmlns:xlink="http://www.w3.org/1999/xlink" version="1.1" width="1920.0px" viewBox="0 0 1920.0 188.0" height="188.0px">
  <g>
    <svg version="1.1" width="1920.0px" viewBox="0 0 1920.0 188.0" height="188.0px">
  <rect fill="#e7e6e5" x="0" y="0" width="1920.0" height="188.0" rx="20" ry="20"/><g>
    <g transform="translate(883.3334835257674, 18.799999999999997) scale(1 1) translate(0, 0) scale(0.26471416502393696 0.26471416502393696) "><!-- note that I manually added the width and height attribute to the root node
  https://chatgpt.com/share/678e3028-70cc-800b-a296-782714735772
  -->
  <defs>
    <style>.cls-1{fill:#fff;}</style>
  </defs>
  <path class="cls-1" d="M122.44,531.2h-56.1c-11,0-19.9-9.12-19.46-20.11C57.47,243.89,278.15,29.78,547.91,29.78v56.02c0,10.98-8.69,19.89-19.66,20.39-225.51,10.31-405.8,197-405.8,425Z"/>
  <path class="cls-1" d="M273.78,531.2h-55.93c-11.23,0-20.09-9.48-19.43-20.69,10.74-183.44,163.39-329.39,349.48-329.39v56.26c0,10.71-8.27,19.62-18.96,20.35-142.35,9.77-255.17,128.69-255.17,273.46Z"/>
  <path class="cls-1" d="M425.77,531.2h-55.45c-11.65,0-20.6-10.17-19.33-21.75,10.87-99.03,95.03-176.34,196.92-176.34v57.01c0,10.05-7.28,18.75-17.23,20.16-59.22,8.4-104.91,59.42-104.91,120.92Z"/>
</g>
    <svg width="1440pt" height="141pt" viewBox="0.00 0.00 1440.00 141.07">
<g id="graph0" class="graph" transform="scale(0.984582 0.984582) rotate(0) translate(4 139.28)">
<title>D</title>
<text text-anchor="start" x="310.28" y="-115.18" font-family="Roboto, sans-serif" font-weight="bold" font-size="18.00">Prozesse zur Ermittlung und Abrechnung von Mehr-/Mindermengen Strom und Gas</text>
<text text-anchor="start" x="310.28" y="-87.08" font-family="Roboto, sans-serif" font-weight="bold" font-size="16.00">11.3.1: AD: Mehr-/Mindermengenabrechnung zwischen NB und LF</text>
<!-- Empty -->
<g id="node1" class="node">
<title>Empty</title>
<path fill="#7a8da1" stroke="black" stroke-width="0" d="M1442.55,-45.28C1442.55,-45.28 12,-45.28 12,-45.28 6,-45.28 0,-39.28 0,-33.28 0,-33.28 0,-12 0,-12 0,-6 6,0 12,0 12,0 1442.55,0 1442.55,0 1448.55,0 1454.55,-6 1454.55,-12 1454.55,-12 1454.55,-33.28 1454.55,-33.28 1454.55,-39.28 1448.55,-45.28 1442.55,-45.28"/>
<text text-anchor="start" x="699.53" y="-24.34" font-family="Roboto, sans-serif" font-weight="bold" font-size="14.00">E_0801</text>
<text text-anchor="start" x="14.4" y="-10.34" font-family="Roboto, sans-serif" font-size="14.00">GS_002_MehrMinderMengen-Rechnung pr&#252;fenGS_004_Ablehnung der Stornorechnung (aus Prozessschritt 5 MMMA NB an LF)GS_005_Ablehnung der Stornorechnung (aus Prozessschritt 7 MMMA NB an LF)</text>
</g>
</g>
</svg>
  </g>
</svg>
  </g>
</svg>
