<?xml version='1.0' encoding='ASCII' standalone='yes'?>
<svg xmlns="http://www.w3.org/2000/svg" xmlns:xlink="http://www.w3.org/1999/xlink" version="1.1" width="1680.0px" viewBox="0 0 1680.0 634.6666666666666" height="634.6666666666666px">
  <g>
    <svg version="1.1" width="1680.0px" viewBox="0 0 1680.0 634.6666666666666" height="634.6666666666666px">
  <polygon fill="#f3f1f6" points="0,0 1680.0,0 1680.0,634.6666666666666 0,634.6666666666666"/><g>
    <g transform="translate(586.3216428763883, 63.46666666666665) scale(1 1) translate(0, 0) scale(2.870353525720135 2.870353525720135) "><sodipodi:namedview xmlns:sodipodi="http://sodipodi.sourceforge.net/DTD/sodipodi-0.dtd" xmlns:inkscape="http://www.inkscape.org/namespaces/inkscape" id="namedview7" pagecolor="#ffffff" bordercolor="#999999" borderopacity="1" inkscape:pageshadow="0" inkscape:pageopacity="0" inkscape:pagecheckerboard="0" inkscape:document-units="mm" showgrid="false" fit-margin-top="0" fit-margin-left="0" fit-margin-right="0" fit-margin-bottom="0" inkscape:zoom="0.64052329" inkscape:cx="130.36216" inkscape:cy="412.163" inkscape:window-width="1512" inkscape:window-height="916" inkscape:window-x="3840" inkscape:window-y="136" inkscape:window-maximized="0" inkscape:current-layer="layer1"/>
  <defs id="defs2">
    <clipPath clipPathUnits="userSpaceOnUse" id="clipPath23">
      <path d="M 0,568.156 H 579.236 V 0 H 0 Z" id="path21"/>
    </clipPath>
  </defs>
  <g xmlns:inkscape="http://www.inkscape.org/namespaces/inkscape" inkscape:label="Layer 1" inkscape:groupmode="layer" id="layer1" transform="translate(-16.541937,-55.305267)">
    <g id="g19" clip-path="url(#clipPath23)" transform="matrix(0.35277777,0,0,-0.35277777,0.01017023,243.73675)" style="opacity:0.2">
      <g id="g25" transform="translate(122.444,32.7195)">
        <path d="m 0,0 h -56.104 c -11,0 -19.898,9.123 -19.463,20.115 10.594,267.191 231.277,481.302 501.029,481.302 v -56.02 c 0,-10.98 -8.688,-19.892 -19.658,-20.393 C 180.29,414.697 0,228.005 0,0" style="fill:#6ead83;fill-opacity:1;fill-rule:nonzero;stroke:none" id="path27"/>
      </g>
      <g id="g29" transform="translate(273.7828,32.7195)">
        <path d="m 0,0 h -55.926 c -11.228,0 -20.091,9.482 -19.435,20.69 10.744,183.439 163.389,329.388 349.485,329.388 v -56.263 c 0,-10.709 -8.273,-19.617 -18.957,-20.35 C 112.819,263.696 0,144.774 0,0" style="fill:#6ead83;fill-opacity:1;fill-rule:nonzero;stroke:none" id="path31"/>
      </g>
      <g id="g33" transform="translate(425.7667,32.7195)">
        <path d="m 0,0 h -55.445 c -11.653,0 -20.604,10.17 -19.334,21.753 10.866,99.032 95.031,176.341 196.919,176.341 v -57.011 c 0,-10.046 -7.283,-18.755 -17.229,-20.165 C 45.688,112.522 0,61.497 0,0" style="fill:#6ead83;fill-opacity:1;fill-rule:nonzero;stroke:none" id="path35"/>
      </g>
    </g>
  </g>
</g>
    <svg width="1260pt" height="476pt" viewBox="0.00 0.00 1259.64 475.82">
<g id="graph0" class="graph" transform="scale(1 1) rotate(0) translate(4 471.82)">
<title>D</title>
<text text-anchor="start" x="550.44" y="-447.72" font-family="Times,serif" font-weight="bold" font-size="18.00">Redispatch 2.0</text>
<text text-anchor="start" x="173.57" y="-417.62" font-family="Times,serif" font-weight="bold" font-size="16.00">16.2.1: AD: Ermittlung und Abstimmung der abrechnungsrelevanten Ausfallarbeit &#8211; Planwertmodell</text>
<!-- Start -->
<g id="node1" class="node">
<title>Start</title>
<polygon fill="#7a8da1" stroke="black" points="557.17,-369.82 397.12,-369.82 397.12,-326.54 557.17,-326.54 557.17,-369.82"/>
<text text-anchor="start" x="449.02" y="-348.88" font-family="Times,serif" font-weight="bold" font-size="14.00">E_0902</text>
<text text-anchor="start" x="411.52" y="-336.78" font-family="Times,serif" font-weight="bold" text-decoration="underline" font-size="12.00">Pr&#252;fende Rolle:</text>
<text text-anchor="start" x="516.52" y="-336.78" font-family="Times,serif" font-weight="bold" font-size="12.00"> NB</text>
</g>
<!-- 1 -->
<g id="node2" class="node">
<title>1</title>
<path fill="#7aab8a" stroke="black" d="M942.3,-289.54C942.3,-289.54 12,-289.54 12,-289.54 6,-289.54 0,-283.54 0,-277.54 0,-277.54 0,-265.54 0,-265.54 0,-259.54 6,-253.54 12,-253.54 12,-253.54 942.3,-253.54 942.3,-253.54 948.3,-253.54 954.3,-259.54 954.3,-265.54 954.3,-265.54 954.3,-277.54 954.3,-277.54 954.3,-283.54 948.3,-289.54 942.3,-289.54"/>
<text text-anchor="start" x="14.4" y="-267.86" font-family="Times,serif" font-weight="bold" font-size="14.00">1: </text>
<text text-anchor="start" x="33.9" y="-267.86" font-family="Times,serif" font-size="14.00">Entsprechen die Energiemengen der Ausfallarbeitszeitreihe bzw. der Fahrplananteilzeitreihe den erwarteten Energiemengen?</text>
</g>
<!-- Start&#45;&gt;1 -->
<g id="edge1" class="edge">
<title>Start-&gt;1</title>
<path fill="none" stroke="black" d="M477.15,-326.39C477.15,-318.35 477.15,-309.03 477.15,-300.43"/>
<polygon fill="black" stroke="black" points="480.65,-300.7 477.15,-290.7 473.65,-300.7 480.65,-300.7"/>
</g>
<!-- A01 -->
<g id="node3" class="node">
<title>A01</title>
<polygon fill="#cfb986" stroke="black" points="534.39,-200.29 383.91,-200.29 383.91,-138.77 534.39,-138.77 534.39,-200.29"/>
<text text-anchor="start" x="444.15" y="-182.23" font-family="Times,serif" font-weight="bold" font-size="14.00">A01</text>
<text text-anchor="start" x="396.15" y="-170.13" font-family="Times,serif" text-decoration="underline" font-size="12.00">Hinweis:</text>
<text text-anchor="start" x="396.15" y="-158.13" font-family="Times,serif" font-size="12.00">Cluster: Zustimmung</text>
<text text-anchor="start" x="396.15" y="-146.13" font-family="Times,serif" font-size="12.00">Zustimmung</text>
</g>
<!-- 1&#45;&gt;A01 -->
<g id="edge2" class="edge">
<title>1-&gt;A01</title>
<path fill="none" stroke="black" d="M474.01,-253.12C471.94,-241.61 469.14,-226.03 466.52,-211.5"/>
<polygon fill="black" stroke="black" points="469.79,-210.9 464.58,-201.68 462.9,-212.14 469.79,-210.9"/>
<text text-anchor="middle" x="477.9" y="-222.24" font-family="Times,serif" font-size="14.00">Ja</text>
</g>
<!-- 2 -->
<g id="node4" class="node">
<title>2</title>
<path fill="#7aab8a" stroke="black" d="M892.17,-187.53C892.17,-187.53 564.12,-187.53 564.12,-187.53 558.12,-187.53 552.12,-181.53 552.12,-175.53 552.12,-175.53 552.12,-163.53 552.12,-163.53 552.12,-157.53 558.12,-151.53 564.12,-151.53 564.12,-151.53 892.17,-151.53 892.17,-151.53 898.17,-151.53 904.17,-157.53 904.17,-163.53 904.17,-163.53 904.17,-175.53 904.17,-175.53 904.17,-181.53 898.17,-187.53 892.17,-187.53"/>
<text text-anchor="start" x="566.52" y="-165.85" font-family="Times,serif" font-weight="bold" font-size="14.00">2: </text>
<text text-anchor="start" x="586.02" y="-165.85" font-family="Times,serif" font-size="14.00">Kann ein Gegenvorschlag erstellt werden?</text>
</g>
<!-- 1&#45;&gt;2 -->
<g id="edge3" class="edge">
<title>1-&gt;2</title>
<path fill="none" stroke="black" d="M520.87,-253.12C563.57,-236.11 628.64,-210.18 674.46,-191.92"/>
<polygon fill="black" stroke="black" points="675.52,-194.87 683.51,-187.92 672.92,-188.37 675.52,-194.87"/>
<text text-anchor="middle" x="620.02" y="-222.24" font-family="Times,serif" font-size="14.00">Nein</text>
</g>
<!-- A02 -->
<g id="node5" class="node">
<title>A02</title>
<polygon fill="#cfb986" stroke="black" points="718.64,-85.52 203.66,-85.52 203.66,0 718.64,0 718.64,-85.52"/>
<text text-anchor="start" x="446.15" y="-67.46" font-family="Times,serif" font-weight="bold" font-size="14.00">A02</text>
<text text-anchor="start" x="215.9" y="-55.36" font-family="Times,serif" text-decoration="underline" font-size="12.00">Hinweis:</text>
<text text-anchor="start" x="215.9" y="-43.36" font-family="Times,serif" font-size="12.00">Cluster: Ablehnung</text>
<text text-anchor="start" x="215.9" y="-31.36" font-family="Times,serif" font-size="12.00">Energiemengen falsch / nicht plausibel</text>
<text text-anchor="start" x="215.9" y="-19.36" font-family="Times,serif" font-size="12.00">&#220;bermittlung Gegenvorschlag</text>
<text text-anchor="start" x="215.9" y="-7.36" font-family="Times,serif" font-size="12.00">Hinweis: Das identifizierte Problem ist in der Antwort zu beschreiben / benennen.</text>
</g>
<!-- 2&#45;&gt;A02 -->
<g id="edge4" class="edge">
<title>2-&gt;A02</title>
<path fill="none" stroke="black" d="M690.74,-151.05C657.25,-135.4 606.59,-111.72 561.37,-90.59"/>
<polygon fill="black" stroke="black" points="563.05,-87.05 552.51,-85.99 560.09,-93.39 563.05,-87.05"/>
<text text-anchor="middle" x="625.9" y="-107.47" font-family="Times,serif" font-size="14.00">Ja</text>
</g>
<!-- A03 -->
<g id="node6" class="node">
<title>A03</title>
<polygon fill="#cfb986" stroke="black" points="1251.64,-79.52 736.66,-79.52 736.66,-6 1251.64,-6 1251.64,-79.52"/>
<text text-anchor="start" x="979.15" y="-61.46" font-family="Times,serif" font-weight="bold" font-size="14.00">A03</text>
<text text-anchor="start" x="748.9" y="-49.36" font-family="Times,serif" text-decoration="underline" font-size="12.00">Hinweis:</text>
<text text-anchor="start" x="748.9" y="-37.36" font-family="Times,serif" font-size="12.00">Cluster: Ablehnung</text>
<text text-anchor="start" x="748.9" y="-25.36" font-family="Times,serif" font-size="12.00">Energiemengen falsch / nicht plausibel inkl. Korrekturanforderung</text>
<text text-anchor="start" x="748.9" y="-13.36" font-family="Times,serif" font-size="12.00">Hinweis: Das identifizierte Problem ist in der Antwort zu beschreiben / benennen.</text>
</g>
<!-- 2&#45;&gt;A03 -->
<g id="edge5" class="edge">
<title>2-&gt;A03</title>
<path fill="none" stroke="black" d="M765.42,-151.05C802,-133.89 859.15,-107.08 907.16,-84.56"/>
<polygon fill="black" stroke="black" points="908.38,-87.39 915.95,-79.97 905.41,-81.05 908.38,-87.39"/>
<text text-anchor="middle" x="878.02" y="-107.47" font-family="Times,serif" font-size="14.00">Nein</text>
</g>
</g>
</svg>
  </g>
</svg>
  </g>
</svg>
