<?xml version='1.0' encoding='ASCII' standalone='yes'?>
<svg xmlns="http://www.w3.org/2000/svg" xmlns:xlink="http://www.w3.org/1999/xlink" version="1.1" width="1285.3333333333333px" viewBox="0 0 1285.3333333333333 633.3333333333334" height="633.3333333333334px">
  <g>
    <svg version="1.1" width="1285.3333333333333px" viewBox="0 0 1285.3333333333333 633.3333333333334" height="633.3333333333334px">
  <polygon fill="#f3f1f6" points="0,0 1285.3333333333333,0 1285.3333333333333,633.3333333333334 0,633.3333333333334"/><g>
    <g transform="translate(389.5212472681044, 63.33333333333332) scale(1 1) translate(0, 0) scale(2.8643233712543372 2.8643233712543372) "><sodipodi:namedview xmlns:sodipodi="http://sodipodi.sourceforge.net/DTD/sodipodi-0.dtd" xmlns:inkscape="http://www.inkscape.org/namespaces/inkscape" id="namedview7" pagecolor="#ffffff" bordercolor="#999999" borderopacity="1" inkscape:pageshadow="0" inkscape:pageopacity="0" inkscape:pagecheckerboard="0" inkscape:document-units="mm" showgrid="false" fit-margin-top="0" fit-margin-left="0" fit-margin-right="0" fit-margin-bottom="0" inkscape:zoom="0.64052329" inkscape:cx="130.36216" inkscape:cy="412.163" inkscape:window-width="1512" inkscape:window-height="916" inkscape:window-x="3840" inkscape:window-y="136" inkscape:window-maximized="0" inkscape:current-layer="layer1"/>
  <defs id="defs2">
    <clipPath clipPathUnits="userSpaceOnUse" id="clipPath23">
      <path d="M 0,568.156 H 579.236 V 0 H 0 Z" id="path21"/>
    </clipPath>
  </defs>
  <g xmlns:inkscape="http://www.inkscape.org/namespaces/inkscape" inkscape:label="Layer 1" inkscape:groupmode="layer" id="layer1" transform="translate(-16.541937,-55.305267)">
    <g id="g19" clip-path="url(#clipPath23)" transform="matrix(0.35277777,0,0,-0.35277777,0.01017023,243.73675)" style="opacity:0.2">
      <g id="g25" transform="translate(122.444,32.7195)">
        <path d="m 0,0 h -56.104 c -11,0 -19.898,9.123 -19.463,20.115 10.594,267.191 231.277,481.302 501.029,481.302 v -56.02 c 0,-10.98 -8.688,-19.892 -19.658,-20.393 C 180.29,414.697 0,228.005 0,0" style="fill:#6ead83;fill-opacity:1;fill-rule:nonzero;stroke:none" id="path27"/>
      </g>
      <g id="g29" transform="translate(273.7828,32.7195)">
        <path d="m 0,0 h -55.926 c -11.228,0 -20.091,9.482 -19.435,20.69 10.744,183.439 163.389,329.388 349.485,329.388 v -56.263 c 0,-10.709 -8.273,-19.617 -18.957,-20.35 C 112.819,263.696 0,144.774 0,0" style="fill:#6ead83;fill-opacity:1;fill-rule:nonzero;stroke:none" id="path31"/>
      </g>
      <g id="g33" transform="translate(425.7667,32.7195)">
        <path d="m 0,0 h -55.445 c -11.653,0 -20.604,10.17 -19.334,21.753 10.866,99.032 95.031,176.341 196.919,176.341 v -57.011 c 0,-10.046 -7.283,-18.755 -17.229,-20.165 C 45.688,112.522 0,61.497 0,0" style="fill:#6ead83;fill-opacity:1;fill-rule:nonzero;stroke:none" id="path35"/>
      </g>
    </g>
  </g>
</g>
    <svg width="964pt" height="475pt" viewBox="0.00 0.00 964.14 474.92">
<g id="graph0" class="graph" transform="scale(1 1) rotate(0) translate(4 470.92)">
<title>D</title>
<text text-anchor="start" x="424.57" y="-446.82" font-family="Times,serif" font-weight="bold" font-size="18.00">Redispatch 2.0</text>
<text text-anchor="start" x="155.07" y="-416.72" font-family="Times,serif" font-weight="bold" font-size="16.00">16.2.1: AD: Ermittlung und Abstimmung der abrechnungsrelevanten Ausfallarbeit &#8211; Planwertmodell</text>
<!-- Start -->
<g id="node1" class="node">
<title>Start</title>
<polygon fill="#7a8da1" stroke="black" points="431.8,-368.92 309,-368.92 309,-325.64 431.8,-325.64 431.8,-368.92"/>
<text text-anchor="start" x="348.9" y="-347.98" font-family="Times,serif" font-weight="bold" font-size="14.00">E_0902</text>
<text text-anchor="start" x="323.4" y="-335.88" font-family="Times,serif" font-weight="bold" text-decoration="underline" font-size="12.00">Pr&#252;fende Rolle:</text>
<text text-anchor="start" x="398.4" y="-335.88" font-family="Times,serif" font-weight="bold" font-size="12.00"> NB</text>
</g>
<!-- 1 -->
<g id="node2" class="node">
<title>1</title>
<path fill="#7aab8a" stroke="black" d="M728.8,-288.64C728.8,-288.64 12,-288.64 12,-288.64 6,-288.64 0,-282.64 0,-276.64 0,-276.64 0,-264.64 0,-264.64 0,-258.64 6,-252.64 12,-252.64 12,-252.64 728.8,-252.64 728.8,-252.64 734.8,-252.64 740.8,-258.64 740.8,-264.64 740.8,-264.64 740.8,-276.64 740.8,-276.64 740.8,-282.64 734.8,-288.64 728.8,-288.64"/>
<text text-anchor="start" x="14.4" y="-266.74" font-family="Times,serif" font-weight="bold" font-size="14.00">1: </text>
<text text-anchor="start" x="27.4" y="-266.74" font-family="Times,serif" font-size="14.00">Entsprechen die Energiemengen der Ausfallarbeitszeitreihe bzw. der Fahrplananteilzeitreihe den erwarteten Energiemengen?</text>
</g>
<!-- Start&#45;&gt;1 -->
<g id="edge1" class="edge">
<title>Start-&gt;1</title>
<path fill="none" stroke="black" d="M370.4,-325.49C370.4,-317.45 370.4,-308.13 370.4,-299.53"/>
<polygon fill="black" stroke="black" points="373.9,-299.8 370.4,-289.8 366.9,-299.8 373.9,-299.8"/>
</g>
<!-- A01 -->
<g id="node3" class="node">
<title>A01</title>
<polygon fill="#cfb986" stroke="black" points="370.64,-199.84 244.16,-199.84 244.16,-138.32 370.64,-138.32 370.64,-199.84"/>
<text text-anchor="start" x="295.4" y="-181.78" font-family="Times,serif" font-weight="bold" font-size="14.00">A01</text>
<text text-anchor="start" x="256.4" y="-169.68" font-family="Times,serif" text-decoration="underline" font-size="12.00">Hinweis:</text>
<text text-anchor="start" x="256.4" y="-157.68" font-family="Times,serif" font-size="12.00">Cluster: Zustimmung</text>
<text text-anchor="start" x="256.4" y="-145.68" font-family="Times,serif" font-size="12.00">Zustimmung</text>
</g>
<!-- 1&#45;&gt;A01 -->
<g id="edge2" class="edge">
<title>1-&gt;A01</title>
<path fill="none" stroke="black" d="M359.43,-252.3C351.89,-240.39 341.59,-224.11 332.14,-209.17"/>
<polygon fill="black" stroke="black" points="334.7,-207.67 326.39,-201.09 328.78,-211.42 334.7,-207.67"/>
<text text-anchor="middle" x="353.9" y="-221.34" font-family="Times,serif" font-size="14.00">Ja</text>
</g>
<!-- 2 -->
<g id="node4" class="node">
<title>2</title>
<path fill="#7aab8a" stroke="black" d="M656.3,-187.08C656.3,-187.08 400.5,-187.08 400.5,-187.08 394.5,-187.08 388.5,-181.08 388.5,-175.08 388.5,-175.08 388.5,-163.08 388.5,-163.08 388.5,-157.08 394.5,-151.08 400.5,-151.08 400.5,-151.08 656.3,-151.08 656.3,-151.08 662.3,-151.08 668.3,-157.08 668.3,-163.08 668.3,-163.08 668.3,-175.08 668.3,-175.08 668.3,-181.08 662.3,-187.08 656.3,-187.08"/>
<text text-anchor="start" x="402.9" y="-165.18" font-family="Times,serif" font-weight="bold" font-size="14.00">2: </text>
<text text-anchor="start" x="416.9" y="-165.18" font-family="Times,serif" font-size="14.00">Kann ein Gegenvorschlag erstellt werden?</text>
</g>
<!-- 1&#45;&gt;2 -->
<g id="edge3" class="edge">
<title>1-&gt;2</title>
<path fill="none" stroke="black" d="M397.92,-252.3C423.82,-235.98 462.78,-211.43 491.39,-193.4"/>
<polygon fill="black" stroke="black" points="493.07,-195.85 499.66,-187.56 489.34,-189.93 493.07,-195.85"/>
<text text-anchor="middle" x="462.9" y="-221.34" font-family="Times,serif" font-size="14.00">Nein</text>
</g>
<!-- A02 -->
<g id="node5" class="node">
<title>A02</title>
<polygon fill="#cfb986" stroke="black" points="519.14,-85.52 99.66,-85.52 99.66,0 519.14,0 519.14,-85.52"/>
<text text-anchor="start" x="297.4" y="-67.46" font-family="Times,serif" font-weight="bold" font-size="14.00">A02</text>
<text text-anchor="start" x="111.9" y="-55.36" font-family="Times,serif" text-decoration="underline" font-size="12.00">Hinweis:</text>
<text text-anchor="start" x="111.9" y="-43.36" font-family="Times,serif" font-size="12.00">Cluster: Ablehnung</text>
<text text-anchor="start" x="111.9" y="-31.36" font-family="Times,serif" font-size="12.00">Energiemengen falsch / nicht plausibel</text>
<text text-anchor="start" x="111.9" y="-19.36" font-family="Times,serif" font-size="12.00">&#220;bermittlung Gegenvorschlag</text>
<text text-anchor="start" x="111.9" y="-7.36" font-family="Times,serif" font-size="12.00">Hinweis: Das identifizierte Problem ist in der Antwort zu beschreiben / benennen.</text>
</g>
<!-- 2&#45;&gt;A02 -->
<g id="edge4" class="edge">
<title>2-&gt;A02</title>
<path fill="none" stroke="black" d="M497.95,-150.79C470.75,-135.36 429.63,-112.01 392.72,-91.06"/>
<polygon fill="black" stroke="black" points="394.86,-87.68 384.44,-85.79 391.41,-93.77 394.86,-87.68"/>
<text text-anchor="middle" x="444.9" y="-107.02" font-family="Times,serif" font-size="14.00">Ja</text>
</g>
<!-- A03 -->
<g id="node6" class="node">
<title>A03</title>
<polygon fill="#cfb986" stroke="black" points="956.14,-79.52 536.66,-79.52 536.66,-6 956.14,-6 956.14,-79.52"/>
<text text-anchor="start" x="734.4" y="-61.46" font-family="Times,serif" font-weight="bold" font-size="14.00">A03</text>
<text text-anchor="start" x="548.9" y="-49.36" font-family="Times,serif" text-decoration="underline" font-size="12.00">Hinweis:</text>
<text text-anchor="start" x="548.9" y="-37.36" font-family="Times,serif" font-size="12.00">Cluster: Ablehnung</text>
<text text-anchor="start" x="548.9" y="-25.36" font-family="Times,serif" font-size="12.00">Energiemengen falsch / nicht plausibel inkl. Korrekturanforderung</text>
<text text-anchor="start" x="548.9" y="-13.36" font-family="Times,serif" font-size="12.00">Hinweis: Das identifizierte Problem ist in der Antwort zu beschreiben / benennen.</text>
</g>
<!-- 2&#45;&gt;A03 -->
<g id="edge5" class="edge">
<title>2-&gt;A03</title>
<path fill="none" stroke="black" d="M558.71,-150.79C588.39,-133.87 634.73,-107.44 673.94,-85.08"/>
<polygon fill="black" stroke="black" points="675.26,-87.79 682.22,-79.79 671.8,-81.71 675.26,-87.79"/>
<text text-anchor="middle" x="650.9" y="-107.02" font-family="Times,serif" font-size="14.00">Nein</text>
</g>
</g>
</svg>
  </g>
</svg>
  </g>
</svg>
