<?xml version='1.0' encoding='ASCII' standalone='yes'?>
<svg xmlns="http://www.w3.org/2000/svg" xmlns:xlink="http://www.w3.org/1999/xlink" version="1.1" width="1685.3333333333333px" viewBox="0 0 1685.3333333333333 838.6666666666666" height="838.6666666666666px">
  <g>
    <svg version="1.1" width="1685.3333333333333px" viewBox="0 0 1685.3333333333333 838.6666666666666" height="838.6666666666666px">
  <rect fill="#e7e6e5" x="0" y="0" width="1685.3333333333333" height="838.6666666666666" rx="20" ry="20"/><g>
    <g transform="translate(500.6578804092743, 83.86666666666665) scale(1 1) translate(0, 0) scale(1.180888012766357 1.180888012766357) "><!-- note that I manually added the width and height attribute to the root node
  https://chatgpt.com/share/678e3028-70cc-800b-a296-782714735772
  -->
  <defs>
    <style>.cls-1{fill:#fff;}</style>
  </defs>
  <path class="cls-1" d="M122.44,531.2h-56.1c-11,0-19.9-9.12-19.46-20.11C57.47,243.89,278.15,29.78,547.91,29.78v56.02c0,10.98-8.69,19.89-19.66,20.39-225.51,10.31-405.8,197-405.8,425Z"/>
  <path class="cls-1" d="M273.78,531.2h-55.93c-11.23,0-20.09-9.48-19.43-20.69,10.74-183.44,163.39-329.39,349.48-329.39v56.26c0,10.71-8.27,19.62-18.96,20.35-142.35,9.77-255.17,128.69-255.17,273.46Z"/>
  <path class="cls-1" d="M425.77,531.2h-55.45c-11.65,0-20.6-10.17-19.33-21.75,10.87-99.03,95.03-176.34,196.92-176.34v57.01c0,10.05-7.28,18.75-17.23,20.16-59.22,8.4-104.91,59.42-104.91,120.92Z"/>
</g>
    <svg width="1264pt" height="629pt" viewBox="0.00 0.00 1264.18 629.12">
<g id="graph0" class="graph" transform="scale(1 1) rotate(0) translate(4 625.12)">
<title>D</title>
<text text-anchor="start" x="165.34" y="-601.02" font-family="Roboto, sans-serif" font-weight="bold" font-size="18.00">MaBiS</text>
<text text-anchor="start" x="165.34" y="-570.92" font-family="Roboto, sans-serif" font-weight="bold" font-size="16.00">7.44.2: AD: &#220;bermittlung Pr&#252;fmitteilung f&#252;r die Bilanzkreissummenzeitreihe vom BKV an BIKO und &#220;NB</text>
<!-- Start -->
<g id="node1" class="node">
<title>Start</title>
<path fill="#8ba2d7" stroke="black" stroke-width="0" d="M383.17,-523.12C383.17,-523.12 237.37,-523.12 237.37,-523.12 231.37,-523.12 225.37,-517.12 225.37,-511.12 225.37,-511.12 225.37,-491.84 225.37,-491.84 225.37,-485.84 231.37,-479.84 237.37,-479.84 237.37,-479.84 383.17,-479.84 383.17,-479.84 389.17,-479.84 395.17,-485.84 395.17,-491.84 395.17,-491.84 395.17,-511.12 395.17,-511.12 395.17,-517.12 389.17,-523.12 383.17,-523.12"/>
<text text-anchor="start" x="239.77" y="-502.18" font-family="Roboto, sans-serif" font-weight="bold" font-size="14.00">E_0025</text>
<text text-anchor="start" x="239.77" y="-490.08" font-family="Roboto, sans-serif" font-weight="bold" text-decoration="underline" font-size="12.00">Pr&#252;fende Rolle:</text>
<text text-anchor="start" x="343.27" y="-490.08" font-family="Roboto, sans-serif" font-weight="bold" font-size="12.00"> BIKO</text>
</g>
<!-- 1 -->
<g id="node2" class="node">
<title>1</title>
<path fill="#c2cee9" stroke="black" stroke-width="0" d="M608.55,-442.84C608.55,-442.84 12,-442.84 12,-442.84 6,-442.84 0,-436.84 0,-430.84 0,-430.84 0,-418.84 0,-418.84 0,-412.84 6,-406.84 12,-406.84 12,-406.84 608.55,-406.84 608.55,-406.84 614.55,-406.84 620.55,-412.84 620.55,-418.84 620.55,-418.84 620.55,-430.84 620.55,-430.84 620.55,-436.84 614.55,-442.84 608.55,-442.84"/>
<text text-anchor="start" x="14.4" y="-421.16" font-family="Roboto, sans-serif" font-weight="bold" font-size="14.00">1: </text>
<text text-anchor="start" x="33.9" y="-421.16" font-family="Roboto, sans-serif" font-size="14.00">Erfolgt der Eingang der Pr&#252;fmitteilung nach Ablauf der Clearingfrist f&#252;r die KBKA?</text>
</g>
<!-- Start&#45;&gt;1 -->
<g id="edge1" class="edge">
<title>Start-&gt;1</title>
<path fill="none" stroke="#88a0d6" d="M310.27,-480.08C310.27,-472.01 310.27,-462.6 310.27,-453.91"/>
<polygon fill="#88a0d6" stroke="#88a0d6" points="313.78,-454.2 310.28,-444.2 306.78,-454.2 313.78,-454.2"/>
</g>
<!-- A01 -->
<g id="node3" class="node">
<title>A01</title>
<path fill="#c4cac1" stroke="black" stroke-width="0" d="M208.89,-353.59C208.89,-353.59 93.66,-353.59 93.66,-353.59 87.66,-353.59 81.66,-347.59 81.66,-341.59 81.66,-341.59 81.66,-316.07 81.66,-316.07 81.66,-310.07 87.66,-304.07 93.66,-304.07 93.66,-304.07 208.89,-304.07 208.89,-304.07 214.89,-304.07 220.89,-310.07 220.89,-316.07 220.89,-316.07 220.89,-341.59 220.89,-341.59 220.89,-347.59 214.89,-353.59 208.89,-353.59"/>
<text text-anchor="start" x="93.9" y="-335.53" font-family="Roboto, sans-serif" font-weight="bold" font-size="14.00">A01</text>
<text text-anchor="start" x="93.9" y="-323.43" font-family="Roboto, sans-serif" text-decoration="underline" font-size="12.00">Hinweis:</text>
<text text-anchor="start" x="93.9" y="-311.43" font-family="Roboto, sans-serif" font-size="12.00">Frist&#252;berschreitung</text>
</g>
<!-- 1&#45;&gt;A01 -->
<g id="edge2" class="edge">
<title>1-&gt;A01</title>
<path fill="none" stroke="#88a0d6" d="M281.85,-407.03C259.51,-393.83 227.85,-375.11 201.3,-359.41"/>
<polygon fill="#88a0d6" stroke="#88a0d6" points="203.09,-356.4 192.7,-354.32 199.53,-362.43 203.09,-356.4"/>
<text text-anchor="start" x="249.27" y="-376.54" font-family="Roboto, sans-serif" font-weight="bold" font-size="14.00">JA</text>
</g>
<!-- 2 -->
<g id="node4" class="node">
<title>2</title>
<path fill="#c2cee9" stroke="black" stroke-width="0" d="M689.8,-346.83C689.8,-346.83 250.75,-346.83 250.75,-346.83 244.75,-346.83 238.75,-340.83 238.75,-334.83 238.75,-334.83 238.75,-322.83 238.75,-322.83 238.75,-316.83 244.75,-310.83 250.75,-310.83 250.75,-310.83 689.8,-310.83 689.8,-310.83 695.8,-310.83 701.8,-316.83 701.8,-322.83 701.8,-322.83 701.8,-334.83 701.8,-334.83 701.8,-340.83 695.8,-346.83 689.8,-346.83"/>
<text text-anchor="start" x="253.15" y="-325.15" font-family="Roboto, sans-serif" font-weight="bold" font-size="14.00">2: </text>
<text text-anchor="start" x="272.65" y="-325.15" font-family="Roboto, sans-serif" font-size="14.00">Befindet sich der MaBiS-ZP auf der Aggregationsebene RZ?</text>
</g>
<!-- 1&#45;&gt;2 -->
<g id="edge3" class="edge">
<title>1-&gt;2</title>
<path fill="none" stroke="#88a0d6" d="M338.88,-407.03C364.77,-391.82 403.12,-369.29 431.71,-352.49"/>
<polygon fill="#88a0d6" stroke="#88a0d6" points="433.22,-355.66 440.07,-347.58 429.68,-349.62 433.22,-355.66"/>
<text text-anchor="start" x="394.27" y="-376.54" font-family="Roboto, sans-serif" font-weight="bold" font-size="14.00">NEIN</text>
</g>
<!-- 3 -->
<g id="node5" class="node">
<title>3</title>
<path fill="#c2cee9" stroke="black" stroke-width="0" d="M612.17,-250.82C612.17,-250.82 64.38,-250.82 64.38,-250.82 58.38,-250.82 52.38,-244.82 52.38,-238.82 52.38,-238.82 52.38,-217.54 52.38,-217.54 52.38,-211.54 58.38,-205.54 64.38,-205.54 64.38,-205.54 612.17,-205.54 612.17,-205.54 618.17,-205.54 624.17,-211.54 624.17,-217.54 624.17,-217.54 624.17,-238.82 624.17,-238.82 624.17,-244.82 618.17,-250.82 612.17,-250.82"/>
<text text-anchor="start" x="66.77" y="-229.88" font-family="Roboto, sans-serif" font-weight="bold" font-size="14.00">3: </text>
<text text-anchor="start" x="86.27" y="-229.88" font-family="Roboto, sans-serif" font-size="14.00">Hat der BKV f&#252;r den BK dieses MaBiS-ZP in diesem Bilanzierungsmonat die</text>
<text text-anchor="start" x="66.77" y="-215.88" font-family="Roboto, sans-serif" font-size="14.00">Aggregationsebene RZ abbestellt?</text>
</g>
<!-- 2&#45;&gt;3 -->
<g id="edge4" class="edge">
<title>2-&gt;3</title>
<path fill="none" stroke="#88a0d6" d="M447.58,-310.87C428.02,-296.25 399.36,-274.83 376.3,-257.6"/>
<polygon fill="#88a0d6" stroke="#88a0d6" points="378.44,-254.83 368.33,-251.64 374.25,-260.43 378.44,-254.83"/>
<text text-anchor="start" x="411.27" y="-273.77" font-family="Roboto, sans-serif" font-weight="bold" font-size="14.00">NEIN</text>
</g>
<!-- 5 -->
<g id="node9" class="node">
<title>5</title>
<path fill="#c2cee9" stroke="black" stroke-width="0" d="M1244.17,-250.82C1244.17,-250.82 654.38,-250.82 654.38,-250.82 648.38,-250.82 642.38,-244.82 642.38,-238.82 642.38,-238.82 642.38,-217.54 642.38,-217.54 642.38,-211.54 648.38,-205.54 654.38,-205.54 654.38,-205.54 1244.17,-205.54 1244.17,-205.54 1250.17,-205.54 1256.17,-211.54 1256.17,-217.54 1256.17,-217.54 1256.17,-238.82 1256.17,-238.82 1256.17,-244.82 1250.17,-250.82 1244.17,-250.82"/>
<text text-anchor="start" x="656.77" y="-229.88" font-family="Roboto, sans-serif" font-weight="bold" font-size="14.00">5: </text>
<text text-anchor="start" x="676.27" y="-229.88" font-family="Roboto, sans-serif" font-size="14.00">Hat der BKV dem BIKO f&#252;r diesen Bilanzierungsmonat bereits mitgeteilt, dass die</text>
<text text-anchor="start" x="656.77" y="-215.88" font-family="Roboto, sans-serif" font-size="14.00">weiteren Pr&#252;fungen auf Ebene des BG stattfinden m&#252;ssen?</text>
</g>
<!-- 2&#45;&gt;5 -->
<g id="edge5" class="edge">
<title>2-&gt;5</title>
<path fill="none" stroke="#88a0d6" d="M552.62,-310.87C630.01,-294.93 746.59,-270.92 833.36,-253.05"/>
<polygon fill="#88a0d6" stroke="#88a0d6" points="834.02,-256.49 843.11,-251.04 832.61,-249.63 834.02,-256.49"/>
<text text-anchor="start" x="752.27" y="-273.77" font-family="Roboto, sans-serif" font-weight="bold" font-size="14.00">JA</text>
</g>
<!-- Ende -->
<g id="node6" class="node">
<title>Ende</title>
<path fill="#8ba2d7" stroke="black" stroke-width="0" d="M636.3,-42.76C636.3,-42.76 596.25,-42.76 596.25,-42.76 590.25,-42.76 584.25,-36.76 584.25,-30.76 584.25,-30.76 584.25,-18.76 584.25,-18.76 584.25,-12.76 590.25,-6.76 596.25,-6.76 596.25,-6.76 636.3,-6.76 636.3,-6.76 642.3,-6.76 648.3,-12.76 648.3,-18.76 648.3,-18.76 648.3,-30.76 648.3,-30.76 648.3,-36.76 642.3,-42.76 636.3,-42.76"/>
<text text-anchor="middle" x="616.27" y="-20.08" font-family="Roboto, sans-serif" font-size="14.00">Ende</text>
</g>
<!-- 3&#45;&gt;Ende -->
<g id="edge7" class="edge">
<title>3-&gt;Ende</title>
<path fill="none" stroke="#88a0d6" d="M527.59,-205.59C571.76,-194.45 616.8,-177.64 654.27,-152.29 662.74,-146.57 712.43,-85.97 707.27,-77.14"/>
<path fill="none" stroke="#88a0d6" d="M707.27,-75.14C695.85,-58.13 676.56,-46.48 658.67,-38.79"/>
<polygon fill="#88a0d6" stroke="#88a0d6" points="660.08,-35.58 649.49,-35.16 657.5,-42.09 660.08,-35.58"/>
<text text-anchor="start" x="694.27" y="-123.86" font-family="Roboto, sans-serif" font-weight="bold" font-size="14.00">JA</text>
</g>
<!-- 4 -->
<g id="node7" class="node">
<title>4</title>
<path fill="#c2cee9" stroke="black" stroke-width="0" d="M633.17,-150.17C633.17,-150.17 43.38,-150.17 43.38,-150.17 37.38,-150.17 31.38,-144.17 31.38,-138.17 31.38,-138.17 31.38,-116.89 31.38,-116.89 31.38,-110.89 37.38,-104.89 43.38,-104.89 43.38,-104.89 633.17,-104.89 633.17,-104.89 639.17,-104.89 645.17,-110.89 645.17,-116.89 645.17,-116.89 645.17,-138.17 645.17,-138.17 645.17,-144.17 639.17,-150.17 633.17,-150.17"/>
<text text-anchor="start" x="45.77" y="-129.23" font-family="Roboto, sans-serif" font-weight="bold" font-size="14.00">4: </text>
<text text-anchor="start" x="65.27" y="-129.23" font-family="Roboto, sans-serif" font-size="14.00">Hat der BKV dem BIKO f&#252;r diesen Bilanzierungsmonat bereits mitgeteilt, dass die</text>
<text text-anchor="start" x="45.77" y="-115.23" font-family="Roboto, sans-serif" font-size="14.00">weiteren Pr&#252;fungen auf Ebene des BG stattfinden m&#252;ssen?</text>
</g>
<!-- 3&#45;&gt;4 -->
<g id="edge6" class="edge">
<title>3-&gt;4</title>
<path fill="none" stroke="#88a0d6" d="M338.27,-205.77C338.27,-192.72 338.27,-175.77 338.27,-161.08"/>
<polygon fill="#88a0d6" stroke="#88a0d6" points="341.78,-161.41 338.28,-151.41 334.78,-161.41 341.78,-161.41"/>
<text text-anchor="start" x="338.27" y="-175.24" font-family="Roboto, sans-serif" font-weight="bold" font-size="14.00">NEIN</text>
</g>
<!-- 4&#45;&gt;Ende -->
<g id="edge9" class="edge">
<title>4-&gt;Ende</title>
<path fill="none" stroke="#88a0d6" d="M397.91,-104.91C450.79,-85.75 526.71,-58.23 573.68,-41.2"/>
<polygon fill="#88a0d6" stroke="#88a0d6" points="574.76,-44.53 582.97,-37.83 572.38,-37.95 574.76,-44.53"/>
<text text-anchor="start" x="493.27" y="-72.47" font-family="Roboto, sans-serif" font-weight="bold" font-size="14.00">JA</text>
</g>
<!-- A02 -->
<g id="node8" class="node">
<title>A02</title>
<path fill="#c4cac1" stroke="black" stroke-width="0" d="M431.14,-49.52C431.14,-49.52 245.41,-49.52 245.41,-49.52 239.41,-49.52 233.41,-43.52 233.41,-37.52 233.41,-37.52 233.41,-12 233.41,-12 233.41,-6 239.41,0 245.41,0 245.41,0 431.14,0 431.14,0 437.14,0 443.14,-6 443.14,-12 443.14,-12 443.14,-37.52 443.14,-37.52 443.14,-43.52 437.14,-49.52 431.14,-49.52"/>
<text text-anchor="start" x="245.65" y="-31.46" font-family="Roboto, sans-serif" font-weight="bold" font-size="14.00">A02</text>
<text text-anchor="start" x="245.65" y="-19.36" font-family="Roboto, sans-serif" text-decoration="underline" font-size="12.00">Hinweis:</text>
<text text-anchor="start" x="245.65" y="-7.36" font-family="Roboto, sans-serif" font-size="12.00">Falsche Aggregationsebene BG</text>
</g>
<!-- 4&#45;&gt;A02 -->
<g id="edge8" class="edge">
<title>4-&gt;A02</title>
<path fill="none" stroke="#88a0d6" d="M338.27,-105.16C338.27,-92.21 338.27,-75.39 338.27,-60.56"/>
<polygon fill="#88a0d6" stroke="#88a0d6" points="341.78,-60.72 338.28,-50.72 334.78,-60.72 341.78,-60.72"/>
<text text-anchor="start" x="338.27" y="-72.47" font-family="Roboto, sans-serif" font-weight="bold" font-size="14.00">NEIN</text>
</g>
<!-- 5&#45;&gt;Ende -->
<g id="edge11" class="edge">
<title>5-&gt;Ende</title>
<path fill="none" stroke="#88a0d6" d="M886.75,-205.58C830.46,-182.74 750.19,-141.07 707.27,-77.14"/>
<text text-anchor="start" x="781.27" y="-123.86" font-family="Roboto, sans-serif" font-weight="bold" font-size="14.00">NEIN</text>
</g>
<!-- A03 -->
<g id="node10" class="node">
<title>A03</title>
<path fill="#c4cac1" stroke="black" stroke-width="0" d="M1041.76,-152.29C1041.76,-152.29 856.78,-152.29 856.78,-152.29 850.78,-152.29 844.78,-146.29 844.78,-140.29 844.78,-140.29 844.78,-114.77 844.78,-114.77 844.78,-108.77 850.78,-102.77 856.78,-102.77 856.78,-102.77 1041.76,-102.77 1041.76,-102.77 1047.76,-102.77 1053.76,-108.77 1053.76,-114.77 1053.76,-114.77 1053.76,-140.29 1053.76,-140.29 1053.76,-146.29 1047.76,-152.29 1041.76,-152.29"/>
<text text-anchor="start" x="857.02" y="-134.23" font-family="Roboto, sans-serif" font-weight="bold" font-size="14.00">A03</text>
<text text-anchor="start" x="857.02" y="-122.13" font-family="Roboto, sans-serif" text-decoration="underline" font-size="12.00">Hinweis:</text>
<text text-anchor="start" x="857.02" y="-110.13" font-family="Roboto, sans-serif" font-size="12.00">Falsche Aggregationsebene RZ</text>
</g>
<!-- 5&#45;&gt;A03 -->
<g id="edge10" class="edge">
<title>5-&gt;A03</title>
<path fill="none" stroke="#88a0d6" d="M949.27,-205.77C949.27,-193.38 949.27,-177.47 949.27,-163.32"/>
<polygon fill="#88a0d6" stroke="#88a0d6" points="952.78,-163.48 949.28,-153.48 945.78,-163.48 952.78,-163.48"/>
<text text-anchor="start" x="949.27" y="-175.24" font-family="Roboto, sans-serif" font-weight="bold" font-size="14.00">JA</text>
</g>
</g>
</svg>
  </g>
</svg>
  </g>
</svg>
