<?xml version='1.0' encoding='ASCII' standalone='yes'?>
<svg xmlns="http://www.w3.org/2000/svg" xmlns:xlink="http://www.w3.org/1999/xlink" version="1.1" width="802.6666666666666px" viewBox="0 0 802.6666666666666 445.3333333333333" height="445.3333333333333px">
  <g>
    <svg version="1.1" width="802.6666666666666px" viewBox="0 0 802.6666666666666 445.3333333333333" height="445.3333333333333px">
  <polygon fill="#f3f1f6" points="0,0 802.6666666666666,0 802.6666666666666,445.3333333333333 0,445.3333333333333"/><g>
    <g transform="translate(223.3321331667654, 44.533333333333324) scale(1 1) translate(0, 0) scale(2.0140715915767333 2.0140715915767333) "><sodipodi:namedview xmlns:sodipodi="http://sodipodi.sourceforge.net/DTD/sodipodi-0.dtd" xmlns:inkscape="http://www.inkscape.org/namespaces/inkscape" id="namedview7" pagecolor="#ffffff" bordercolor="#999999" borderopacity="1" inkscape:pageshadow="0" inkscape:pageopacity="0" inkscape:pagecheckerboard="0" inkscape:document-units="mm" showgrid="false" fit-margin-top="0" fit-margin-left="0" fit-margin-right="0" fit-margin-bottom="0" inkscape:zoom="0.64052329" inkscape:cx="130.36216" inkscape:cy="412.163" inkscape:window-width="1512" inkscape:window-height="916" inkscape:window-x="3840" inkscape:window-y="136" inkscape:window-maximized="0" inkscape:current-layer="layer1"/>
  <defs id="defs2">
    <clipPath clipPathUnits="userSpaceOnUse" id="clipPath23">
      <path d="M 0,568.156 H 579.236 V 0 H 0 Z" id="path21"/>
    </clipPath>
  </defs>
  <g xmlns:inkscape="http://www.inkscape.org/namespaces/inkscape" inkscape:label="Layer 1" inkscape:groupmode="layer" id="layer1" transform="translate(-16.541937,-55.305267)">
    <g id="g19" clip-path="url(#clipPath23)" transform="matrix(0.35277777,0,0,-0.35277777,0.01017023,243.73675)" style="opacity:0.2">
      <g id="g25" transform="translate(122.444,32.7195)">
        <path d="m 0,0 h -56.104 c -11,0 -19.898,9.123 -19.463,20.115 10.594,267.191 231.277,481.302 501.029,481.302 v -56.02 c 0,-10.98 -8.688,-19.892 -19.658,-20.393 C 180.29,414.697 0,228.005 0,0" style="fill:#6ead83;fill-opacity:0.5;fill-rule:nonzero;stroke:none" id="path27"/>
      </g>
      <g id="g29" transform="translate(273.7828,32.7195)">
        <path d="m 0,0 h -55.926 c -11.228,0 -20.091,9.482 -19.435,20.69 10.744,183.439 163.389,329.388 349.485,329.388 v -56.263 c 0,-10.709 -8.273,-19.617 -18.957,-20.35 C 112.819,263.696 0,144.774 0,0" style="fill:#6ead83;fill-opacity:0.5;fill-rule:nonzero;stroke:none" id="path31"/>
      </g>
      <g id="g33" transform="translate(425.7667,32.7195)">
        <path d="m 0,0 h -55.445 c -11.653,0 -20.604,10.17 -19.334,21.753 10.866,99.032 95.031,176.341 196.919,176.341 v -57.011 c 0,-10.046 -7.283,-18.755 -17.229,-20.165 C 45.688,112.522 0,61.497 0,0" style="fill:#6ead83;fill-opacity:0.5;fill-rule:nonzero;stroke:none" id="path35"/>
      </g>
    </g>
  </g>
</g>
    <svg width="602pt" height="334pt" viewBox="0.00 0.00 601.55 334.33">
<g id="graph0" class="graph" transform="scale(1 1) rotate(0) translate(4 330.33)">
<title>D</title>
<text text-anchor="start" x="263.4" y="-306.23" font-family="Times,serif" font-weight="bold" font-size="18.00">MaBiS</text>
<text text-anchor="start" x="50.02" y="-276.13" font-family="Times,serif" font-weight="bold" font-size="16.00">7.7.2: AD: &#220;bermittlung Datenstatus der Netzzeitreihe</text>
<!-- Start -->
<g id="node1" class="node">
<title>Start</title>
<polygon fill="#7a8da1" stroke="black" points="383.92,-228.33 209.62,-228.33 209.62,-185.05 383.92,-185.05 383.92,-228.33"/>
<text text-anchor="start" x="268.65" y="-207.39" font-family="Times,serif" font-weight="bold" font-size="14.00">E_0067</text>
<text text-anchor="start" x="224.02" y="-195.29" font-family="Times,serif" font-weight="bold" text-decoration="underline" font-size="12.00">Pr&#252;fende Rolle:</text>
<text text-anchor="start" x="329.02" y="-195.29" font-family="Times,serif" font-weight="bold" font-size="12.00"> BIKO</text>
</g>
<!-- 1 -->
<g id="node2" class="node">
<title>1</title>
<path fill="#7aab8a" stroke="black" d="M581.55,-148.05C581.55,-148.05 12,-148.05 12,-148.05 6,-148.05 0,-142.05 0,-136.05 0,-136.05 0,-114.77 0,-114.77 0,-108.77 6,-102.77 12,-102.77 12,-102.77 581.55,-102.77 581.55,-102.77 587.55,-102.77 593.55,-108.77 593.55,-114.77 593.55,-114.77 593.55,-136.05 593.55,-136.05 593.55,-142.05 587.55,-148.05 581.55,-148.05"/>
<text text-anchor="start" x="14.4" y="-127.11" font-family="Times,serif" font-weight="bold" font-size="14.00">1: </text>
<text text-anchor="start" x="33.9" y="-127.11" font-family="Times,serif" font-size="14.00">Erfolgt der Eingang der Zeitreihe vor Ablauf der Frist f&#252;r die Clearingphase</text>
<text text-anchor="start" x="14.4" y="-113.11" font-family="Times,serif" font-size="14.00">BKA (ohne KBKA)?</text>
</g>
<!-- Start&#45;&gt;1 -->
<g id="edge1" class="edge">
<title>Start-&gt;1</title>
<path fill="none" stroke="black" d="M296.77,-184.86C296.77,-177.16 296.77,-168.24 296.77,-159.71"/>
<polygon fill="black" stroke="black" points="300.28,-160 296.78,-150 293.28,-160 300.28,-160"/>
</g>
<!-- A01 -->
<g id="node3" class="node">
<title>A01</title>
<polygon fill="#cfb986" stroke="black" points="277.51,-49.52 52.03,-49.52 52.03,0 277.51,0 277.51,-49.52"/>
<text text-anchor="start" x="149.77" y="-31.46" font-family="Times,serif" font-weight="bold" font-size="14.00">A01</text>
<text text-anchor="start" x="64.27" y="-19.36" font-family="Times,serif" text-decoration="underline" font-size="12.00">Hinweis:</text>
<text text-anchor="start" x="64.27" y="-7.36" font-family="Times,serif" font-size="12.00">Datenstatus &#8222;Abrechnungsdaten&#8220;</text>
</g>
<!-- 1&#45;&gt;A01 -->
<g id="edge2" class="edge">
<title>1-&gt;A01</title>
<path fill="none" stroke="black" d="M267.15,-102.27C249.17,-88.83 225.95,-71.48 206.18,-56.7"/>
<polygon fill="black" stroke="black" points="208.39,-53.99 198.28,-50.8 204.2,-59.59 208.39,-53.99"/>
<text text-anchor="middle" x="248.52" y="-71.47" font-family="Times,serif" font-size="14.00">Ja</text>
</g>
<!-- A04 -->
<g id="node4" class="node">
<title>A04</title>
<polygon fill="#cfb986" stroke="black" points="560.01,-49.52 295.53,-49.52 295.53,0 560.01,0 560.01,-49.52"/>
<text text-anchor="start" x="412.77" y="-31.46" font-family="Times,serif" font-weight="bold" font-size="14.00">A04</text>
<text text-anchor="start" x="307.77" y="-19.36" font-family="Times,serif" text-decoration="underline" font-size="12.00">Hinweis:</text>
<text text-anchor="start" x="307.77" y="-7.36" font-family="Times,serif" font-size="12.00">Datenstatus &#8222;Abrechnungsdaten KBKA&#8220;</text>
</g>
<!-- 1&#45;&gt;A04 -->
<g id="edge3" class="edge">
<title>1-&gt;A04</title>
<path fill="none" stroke="black" d="M326.17,-102.27C344.02,-88.83 367.06,-71.48 386.69,-56.7"/>
<polygon fill="black" stroke="black" points="388.63,-59.62 394.51,-50.81 384.42,-54.03 388.63,-59.62"/>
<text text-anchor="middle" x="386.65" y="-71.47" font-family="Times,serif" font-size="14.00">Nein</text>
</g>
</g>
</svg>
  </g>
</svg>
  </g>
</svg>
