<?xml version='1.0' encoding='ASCII' standalone='yes'?>
<svg xmlns="http://www.w3.org/2000/svg" xmlns:xlink="http://www.w3.org/1999/xlink" version="1.1" width="1254.6666666666667px" viewBox="0 0 1254.6666666666667 433.3333333333333" height="433.3333333333333px">
  <g>
    <svg version="1.1" width="1254.6666666666667px" viewBox="0 0 1254.6666666666667 433.3333333333333" height="433.3333333333333px">
  <polygon fill="#f3f1f6" points="0,0 1254.6666666666667,0 1254.6666666666667,433.3333333333333 0,433.3333333333333"/><g>
    <g transform="translate(450.6197315310242, 43.33333333333332) scale(1 1) translate(0, 0) scale(0.6101567633530461 0.6101567633530461) "><!-- note that I manually added the width and height attribute to the root node
  https://chatgpt.com/share/678e3028-70cc-800b-a296-782714735772
  -->
  <defs>
    <style>.cls-1{fill:#fff;}</style>
  </defs>
  <path class="cls-1" d="M122.44,531.2h-56.1c-11,0-19.9-9.12-19.46-20.11C57.47,243.89,278.15,29.78,547.91,29.78v56.02c0,10.98-8.69,19.89-19.66,20.39-225.51,10.31-405.8,197-405.8,425Z"/>
  <path class="cls-1" d="M273.78,531.2h-55.93c-11.23,0-20.09-9.48-19.43-20.69,10.74-183.44,163.39-329.39,349.48-329.39v56.26c0,10.71-8.27,19.62-18.96,20.35-142.35,9.77-255.17,128.69-255.17,273.46Z"/>
  <path class="cls-1" d="M425.77,531.2h-55.45c-11.65,0-20.6-10.17-19.33-21.75,10.87-99.03,95.03-176.34,196.92-176.34v57.01c0,10.05-7.28,18.75-17.23,20.16-59.22,8.4-104.91,59.42-104.91,120.92Z"/>
</g>
    <svg width="941pt" height="325pt" viewBox="0.00 0.00 940.50 325.05">
<g id="graph0" class="graph" transform="scale(1 1) rotate(0) translate(4 321.05)">
<title>D</title>
<text text-anchor="start" x="8" y="-296.95" font-family="Times,serif" font-weight="bold" font-size="18.00">MaBiS</text>
<text text-anchor="start" x="8" y="-266.85" font-family="Times,serif" font-weight="bold" font-size="16.00">7.35.2: AD: &#220;bermittlung Datenstatus f&#252;r die Bilanzkreissummenzeitreihe vom BIKO an NB und BKV</text>
<!-- Start -->
<g id="node1" class="node">
<title>Start</title>
<path fill="#7a8da1" stroke="black" stroke-width="0" d="M541.4,-219.05C541.4,-219.05 391.1,-219.05 391.1,-219.05 385.1,-219.05 379.1,-213.05 379.1,-207.05 379.1,-207.05 379.1,-187.77 379.1,-187.77 379.1,-181.77 385.1,-175.77 391.1,-175.77 391.1,-175.77 541.4,-175.77 541.4,-175.77 547.4,-175.77 553.4,-181.77 553.4,-187.77 553.4,-187.77 553.4,-207.05 553.4,-207.05 553.4,-213.05 547.4,-219.05 541.4,-219.05"/>
<text text-anchor="start" x="438.12" y="-198.11" font-family="Times,serif" font-weight="bold" font-size="14.00">E_0057</text>
<text text-anchor="start" x="393.5" y="-186.01" font-family="Times,serif" font-weight="bold" text-decoration="underline" font-size="12.00">Pr&#252;fende Rolle:</text>
<text text-anchor="start" x="498.5" y="-186.01" font-family="Times,serif" font-weight="bold" font-size="12.00"> BIKO</text>
</g>
<!-- 1 -->
<g id="node2" class="node">
<title>1</title>
<path fill="#7aab8a" stroke="black" stroke-width="0" d="M755.15,-138.77C755.15,-138.77 177.35,-138.77 177.35,-138.77 171.35,-138.77 165.35,-132.77 165.35,-126.77 165.35,-126.77 165.35,-114.77 165.35,-114.77 165.35,-108.77 171.35,-102.77 177.35,-102.77 177.35,-102.77 755.15,-102.77 755.15,-102.77 761.15,-102.77 767.15,-108.77 767.15,-114.77 767.15,-114.77 767.15,-126.77 767.15,-126.77 767.15,-132.77 761.15,-138.77 755.15,-138.77"/>
<text text-anchor="start" x="179.75" y="-117.09" font-family="Times,serif" font-weight="bold" font-size="14.00">1: </text>
<text text-anchor="start" x="199.25" y="-117.09" font-family="Times,serif" font-size="14.00">Erfolgt der Eingang der Zeitreihe vor Ablauf der Frist f&#252;r den Erstaufschlag?</text>
</g>
<!-- Start&#45;&gt;1 -->
<g id="edge1" class="edge">
<title>Start-&gt;1</title>
<path fill="none" stroke="black" d="M466.25,-176.01C466.25,-167.94 466.25,-158.53 466.25,-149.84"/>
<polygon fill="black" stroke="black" points="469.75,-150.13 466.25,-140.13 462.75,-150.13 469.75,-150.13"/>
</g>
<!-- A01 -->
<g id="node3" class="node">
<title>A01</title>
<path fill="#cfb986" stroke="black" stroke-width="0" d="M457.99,-49.52C457.99,-49.52 256.51,-49.52 256.51,-49.52 250.51,-49.52 244.51,-43.52 244.51,-37.52 244.51,-37.52 244.51,-12 244.51,-12 244.51,-6 250.51,0 256.51,0 256.51,0 457.99,0 457.99,0 463.99,0 469.99,-6 469.99,-12 469.99,-12 469.99,-37.52 469.99,-37.52 469.99,-43.52 463.99,-49.52 457.99,-49.52"/>
<text text-anchor="start" x="256.75" y="-31.46" font-family="Times,serif" font-weight="bold" font-size="14.00">A01</text>
<text text-anchor="start" x="256.75" y="-19.36" font-family="Times,serif" text-decoration="underline" font-size="12.00">Hinweis:</text>
<text text-anchor="start" x="256.75" y="-7.36" font-family="Times,serif" font-size="12.00">Datenstatus &#8222;Abrechnungsdaten&#8220;</text>
</g>
<!-- 1&#45;&gt;A01 -->
<g id="edge2" class="edge">
<title>1-&gt;A01</title>
<path fill="none" stroke="#7aab8a" d="M446.76,-102.96C431.92,-90.16 411.08,-72.18 393.24,-56.8"/>
<polygon fill="#7aab8a" stroke="#7aab8a" points="395.76,-54.35 385.9,-50.47 391.19,-59.65 395.76,-54.35"/>
<text text-anchor="start" x="424.25" y="-72.47" font-family="Times,serif" font-weight="bold" font-size="14.00">JA</text>
</g>
<!-- A02 -->
<g id="node4" class="node">
<title>A02</title>
<path fill="#cfb986" stroke="black" stroke-width="0" d="M648.37,-49.52C648.37,-49.52 500.13,-49.52 500.13,-49.52 494.13,-49.52 488.13,-43.52 488.13,-37.52 488.13,-37.52 488.13,-12 488.13,-12 488.13,-6 494.13,0 500.13,0 500.13,0 648.37,0 648.37,0 654.37,0 660.37,-6 660.37,-12 660.37,-12 660.37,-37.52 660.37,-37.52 660.37,-43.52 654.37,-49.52 648.37,-49.52"/>
<text text-anchor="start" x="500.38" y="-31.46" font-family="Times,serif" font-weight="bold" font-size="14.00">A02</text>
<text text-anchor="start" x="500.38" y="-19.36" font-family="Times,serif" text-decoration="underline" font-size="12.00">Hinweis:</text>
<text text-anchor="start" x="500.38" y="-7.36" font-family="Times,serif" font-size="12.00">Datenstatus &#8222;Pr&#252;fdaten&#8220;</text>
</g>
<!-- 1&#45;&gt;A02 -->
<g id="edge3" class="edge">
<title>1-&gt;A02</title>
<path fill="none" stroke="#7aab8a" d="M485.56,-102.96C500.26,-90.16 520.92,-72.18 538.59,-56.8"/>
<polygon fill="#7aab8a" stroke="#7aab8a" points="540.61,-59.68 545.85,-50.48 536.01,-54.4 540.61,-59.68"/>
<text text-anchor="start" x="523.25" y="-72.47" font-family="Times,serif" font-weight="bold" font-size="14.00">NEIN</text>
</g>
</g>
</svg>
  </g>
</svg>
  </g>
</svg>
