<?xml version='1.0' encoding='ASCII' standalone='yes'?>
<svg xmlns="http://www.w3.org/2000/svg" xmlns:xlink="http://www.w3.org/1999/xlink" version="1.1" width="1570.6666666666667px" viewBox="0 0 1570.6666666666667 1920.0" height="1920.0px">
  <g>
    <svg version="1.1" width="1570.6666666666667px" viewBox="0 0 1570.6666666666667 1920.0" height="1920.0px">
  <rect fill="#e7e6e5" x="0" y="0" width="1570.6666666666667" height="1920.0" rx="20" ry="20"/><g>
    <g transform="translate(157.06666666666663, 343.7511405750063) scale(1 1) translate(0, 0) scale(2.1692792855005414 2.1692792855005414) "><!-- note that I manually added the width and height attribute to the root node
  https://chatgpt.com/share/678e3028-70cc-800b-a296-782714735772
  -->
  <defs>
    <style>.cls-1{fill:#fff;}</style>
  </defs>
  <path class="cls-1" d="M122.44,531.2h-56.1c-11,0-19.9-9.12-19.46-20.11C57.47,243.89,278.15,29.78,547.91,29.78v56.02c0,10.98-8.69,19.89-19.66,20.39-225.51,10.31-405.8,197-405.8,425Z"/>
  <path class="cls-1" d="M273.78,531.2h-55.93c-11.23,0-20.09-9.48-19.43-20.69,10.74-183.44,163.39-329.39,349.48-329.39v56.26c0,10.71-8.27,19.62-18.96,20.35-142.35,9.77-255.17,128.69-255.17,273.46Z"/>
  <path class="cls-1" d="M425.77,531.2h-55.45c-11.65,0-20.6-10.17-19.33-21.75,10.87-99.03,95.03-176.34,196.92-176.34v57.01c0,10.05-7.28,18.75-17.23,20.16-59.22,8.4-104.91,59.42-104.91,120.92Z"/>
</g>
    <svg width="1178pt" height="1440pt" viewBox="0.00 0.00 1177.60 1440.00">
<g id="graph0" class="graph" transform="scale(0.830143 0.830143) rotate(0) translate(4 1730.64)">
<title>D</title>
<text text-anchor="start" x="331.03" y="-1706.54" font-family="Roboto, sans-serif" font-weight="bold" font-size="18.00">MaBiS</text>
<text text-anchor="start" x="331.03" y="-1678.44" font-family="Roboto, sans-serif" font-weight="bold" font-size="16.00">7.60.1: AD: Aktivierung eines MaBiS-ZP f&#252;r die mtl. AA&#220;Z zwischen NB und BKV(LF)</text>
<!-- Start -->
<g id="node1" class="node">
<title>Start</title>
<path fill="#8ba2d7" stroke="black" stroke-width="0" d="M388.17,-1636.64C388.17,-1636.64 235.62,-1636.64 235.62,-1636.64 229.62,-1636.64 223.62,-1630.64 223.62,-1624.64 223.62,-1624.64 223.62,-1603.36 223.62,-1603.36 223.62,-1597.36 229.62,-1591.36 235.62,-1591.36 235.62,-1591.36 388.17,-1591.36 388.17,-1591.36 394.17,-1591.36 400.17,-1597.36 400.17,-1603.36 400.17,-1603.36 400.17,-1624.64 400.17,-1624.64 400.17,-1630.64 394.17,-1636.64 388.17,-1636.64"/>
<text text-anchor="start" x="238.02" y="-1615.7" font-family="Roboto, sans-serif" font-weight="bold" font-size="14.00">E_0071</text>
<text text-anchor="start" x="238.02" y="-1601.7" font-family="Roboto, sans-serif" font-size="14.00">Pr&#252;fende Rolle: </text>
<text text-anchor="start" x="347.52" y="-1601.7" font-family="Roboto, sans-serif" font-weight="bold" font-size="14.00">BIKO</text>
</g>
<!-- 1 -->
<g id="node2" class="node">
<title>1</title>
<path fill="#c2cee9" stroke="black" stroke-width="0" d="M555.05,-1554.36C555.05,-1554.36 68.75,-1554.36 68.75,-1554.36 62.75,-1554.36 56.75,-1548.36 56.75,-1542.36 56.75,-1542.36 56.75,-1530.36 56.75,-1530.36 56.75,-1524.36 62.75,-1518.36 68.75,-1518.36 68.75,-1518.36 555.05,-1518.36 555.05,-1518.36 561.05,-1518.36 567.05,-1524.36 567.05,-1530.36 567.05,-1530.36 567.05,-1542.36 567.05,-1542.36 567.05,-1548.36 561.05,-1554.36 555.05,-1554.36"/>
<text text-anchor="start" x="71.15" y="-1532.69" font-family="Roboto, sans-serif" font-weight="bold" font-size="14.00">1: </text>
<text text-anchor="start" x="90.65" y="-1532.69" font-family="Roboto, sans-serif" font-size="14.00">Erfolgt die Aktivierung nach Ablauf der Clearingfrist f&#252;r die KBKA?</text>
</g>
<!-- Start&#45;&gt;1 -->
<g id="edge1" class="edge">
<title>Start-&gt;1</title>
<path fill="none" stroke="#88a0d6" d="M311.9,-1591.53C311.9,-1583.45 311.9,-1574.15 311.9,-1565.55"/>
<polygon fill="#88a0d6" stroke="#88a0d6" points="315.4,-1565.59 311.9,-1555.59 308.4,-1565.59 315.4,-1565.59"/>
</g>
<!-- A01 -->
<g id="node3" class="node">
<title>A01</title>
<path fill="#c4cac1" stroke="black" stroke-width="0" d="M167.8,-1465.11C167.8,-1465.11 28,-1465.11 28,-1465.11 22,-1465.11 16,-1459.11 16,-1453.11 16,-1453.11 16,-1403.83 16,-1403.83 16,-1397.83 22,-1391.83 28,-1391.83 28,-1391.83 167.8,-1391.83 167.8,-1391.83 173.8,-1391.83 179.8,-1397.83 179.8,-1403.83 179.8,-1403.83 179.8,-1453.11 179.8,-1453.11 179.8,-1459.11 173.8,-1465.11 167.8,-1465.11"/>
<text text-anchor="start" x="30.4" y="-1444.17" font-family="Roboto, sans-serif" font-weight="bold" font-size="14.00">A01</text>
<text text-anchor="start" x="30.4" y="-1416.17" font-family="Roboto, sans-serif" font-size="14.00">Cluster: Ablehnung</text>
<text text-anchor="start" x="30.4" y="-1402.17" font-family="Roboto, sans-serif" font-size="14.00">Frist&#252;berschreitung</text>
</g>
<!-- 1&#45;&gt;A01 -->
<g id="edge2" class="edge">
<title>1-&gt;A01</title>
<path fill="none" stroke="#88a0d6" d="M277.99,-1518.58C251.6,-1505.52 213.86,-1486.85 179.73,-1469.96"/>
<polygon fill="#88a0d6" stroke="#88a0d6" points="181.61,-1466.99 171.1,-1465.69 178.51,-1473.26 181.61,-1466.99"/>
<text text-anchor="start" x="235.9" y="-1488.06" font-family="Roboto, sans-serif" font-weight="bold" font-size="14.00">JA</text>
</g>
<!-- 2 -->
<g id="node4" class="node">
<title>2</title>
<path fill="#c2cee9" stroke="black" stroke-width="0" d="M606.42,-1446.47C606.42,-1446.47 209.38,-1446.47 209.38,-1446.47 203.38,-1446.47 197.38,-1440.47 197.38,-1434.47 197.38,-1434.47 197.38,-1422.47 197.38,-1422.47 197.38,-1416.47 203.38,-1410.47 209.38,-1410.47 209.38,-1410.47 606.42,-1410.47 606.42,-1410.47 612.42,-1410.47 618.42,-1416.47 618.42,-1422.47 618.42,-1422.47 618.42,-1434.47 618.42,-1434.47 618.42,-1440.47 612.42,-1446.47 606.42,-1446.47"/>
<text text-anchor="start" x="211.77" y="-1424.8" font-family="Roboto, sans-serif" font-weight="bold" font-size="14.00">2: </text>
<text text-anchor="start" x="231.27" y="-1424.8" font-family="Roboto, sans-serif" font-size="14.00">Erfolgt die Aktivierung zum Monatsersten 00:00 Uhr?</text>
</g>
<!-- 1&#45;&gt;2 -->
<g id="edge3" class="edge">
<title>1-&gt;2</title>
<path fill="none" stroke="#88a0d6" d="M326.9,-1518.81C342.52,-1501.59 367.17,-1474.39 385.18,-1454.53"/>
<polygon fill="#88a0d6" stroke="#88a0d6" points="387.55,-1457.13 391.67,-1447.37 382.36,-1452.43 387.55,-1457.13"/>
<text text-anchor="start" x="356.9" y="-1488.06" font-family="Roboto, sans-serif" font-weight="bold" font-size="14.00">NEIN</text>
</g>
<!-- A02 -->
<g id="node5" class="node">
<title>A02</title>
<path fill="#c4cac1" stroke="black" stroke-width="0" d="M278.43,-1338.58C278.43,-1338.58 31.38,-1338.58 31.38,-1338.58 25.38,-1338.58 19.38,-1332.58 19.38,-1326.58 19.38,-1326.58 19.38,-1277.3 19.38,-1277.3 19.38,-1271.3 25.38,-1265.3 31.38,-1265.3 31.38,-1265.3 278.43,-1265.3 278.43,-1265.3 284.43,-1265.3 290.43,-1271.3 290.43,-1277.3 290.43,-1277.3 290.43,-1326.58 290.43,-1326.58 290.43,-1332.58 284.43,-1338.58 278.43,-1338.58"/>
<text text-anchor="start" x="33.78" y="-1317.64" font-family="Roboto, sans-serif" font-weight="bold" font-size="14.00">A02</text>
<text text-anchor="start" x="33.78" y="-1289.64" font-family="Roboto, sans-serif" font-size="14.00">Cluster: Ablehnung</text>
<text text-anchor="start" x="33.78" y="-1275.64" font-family="Roboto, sans-serif" font-size="14.00">Gew&#228;hlter Zeitpunkt nicht zul&#228;ssig</text>
</g>
<!-- 2&#45;&gt;A02 -->
<g id="edge4" class="edge">
<title>2-&gt;A02</title>
<path fill="none" stroke="#88a0d6" d="M373.52,-1410.55C338.72,-1393.42 283.62,-1366.3 237.45,-1343.57"/>
<polygon fill="#88a0d6" stroke="#88a0d6" points="239.01,-1340.44 228.49,-1339.16 235.92,-1346.72 239.01,-1340.44"/>
<text text-anchor="start" x="295.9" y="-1361.53" font-family="Roboto, sans-serif" font-weight="bold" font-size="14.00">NEIN</text>
</g>
<!-- 3 -->
<g id="node6" class="node">
<title>3</title>
<path fill="#c2cee9" stroke="black" stroke-width="0" d="M609.8,-1319.94C609.8,-1319.94 320,-1319.94 320,-1319.94 314,-1319.94 308,-1313.94 308,-1307.94 308,-1307.94 308,-1295.94 308,-1295.94 308,-1289.94 314,-1283.94 320,-1283.94 320,-1283.94 609.8,-1283.94 609.8,-1283.94 615.8,-1283.94 621.8,-1289.94 621.8,-1295.94 621.8,-1295.94 621.8,-1307.94 621.8,-1307.94 621.8,-1313.94 615.8,-1319.94 609.8,-1319.94"/>
<text text-anchor="start" x="322.4" y="-1298.27" font-family="Roboto, sans-serif" font-weight="bold" font-size="14.00">3: </text>
<text text-anchor="start" x="341.9" y="-1298.27" font-family="Roboto, sans-serif" font-size="14.00">Ist die richtige Regelzone angegeben?</text>
</g>
<!-- 2&#45;&gt;3 -->
<g id="edge5" class="edge">
<title>2-&gt;3</title>
<path fill="none" stroke="#88a0d6" d="M415.59,-1410.68C425.02,-1390.06 441.15,-1354.84 452.38,-1330.3"/>
<polygon fill="#88a0d6" stroke="#88a0d6" points="455.54,-1331.79 456.52,-1321.24 449.18,-1328.88 455.54,-1331.79"/>
<text text-anchor="start" x="438.9" y="-1361.53" font-family="Roboto, sans-serif" font-weight="bold" font-size="14.00">JA</text>
</g>
<!-- A03 -->
<g id="node7" class="node">
<title>A03</title>
<path fill="#c4cac1" stroke="black" stroke-width="0" d="M173.05,-1212.05C173.05,-1212.05 34.75,-1212.05 34.75,-1212.05 28.75,-1212.05 22.75,-1206.05 22.75,-1200.05 22.75,-1200.05 22.75,-1150.77 22.75,-1150.77 22.75,-1144.77 28.75,-1138.77 34.75,-1138.77 34.75,-1138.77 173.05,-1138.77 173.05,-1138.77 179.05,-1138.77 185.05,-1144.77 185.05,-1150.77 185.05,-1150.77 185.05,-1200.05 185.05,-1200.05 185.05,-1206.05 179.05,-1212.05 173.05,-1212.05"/>
<text text-anchor="start" x="37.15" y="-1191.11" font-family="Roboto, sans-serif" font-weight="bold" font-size="14.00">A03</text>
<text text-anchor="start" x="37.15" y="-1163.11" font-family="Roboto, sans-serif" font-size="14.00">Cluster: Ablehnung</text>
<text text-anchor="start" x="37.15" y="-1149.11" font-family="Roboto, sans-serif" font-size="14.00">Regelzone falsch</text>
</g>
<!-- 3&#45;&gt;A03 -->
<g id="edge6" class="edge">
<title>3-&gt;A03</title>
<path fill="none" stroke="#88a0d6" d="M410.07,-1284.02C357.45,-1267.54 275.58,-1241.29 195.53,-1212.58"/>
<polygon fill="#88a0d6" stroke="#88a0d6" points="196.78,-1209.31 186.19,-1209.21 194.41,-1215.89 196.78,-1209.31"/>
<text text-anchor="start" x="289.9" y="-1235" font-family="Roboto, sans-serif" font-weight="bold" font-size="14.00">NEIN</text>
</g>
<!-- 4 -->
<g id="node8" class="node">
<title>4</title>
<path fill="#c2cee9" stroke="black" stroke-width="0" d="M842.92,-1193.41C842.92,-1193.41 214.88,-1193.41 214.88,-1193.41 208.88,-1193.41 202.88,-1187.41 202.88,-1181.41 202.88,-1181.41 202.88,-1169.41 202.88,-1169.41 202.88,-1163.41 208.88,-1157.41 214.88,-1157.41 214.88,-1157.41 842.92,-1157.41 842.92,-1157.41 848.92,-1157.41 854.92,-1163.41 854.92,-1169.41 854.92,-1169.41 854.92,-1181.41 854.92,-1181.41 854.92,-1187.41 848.92,-1193.41 842.92,-1193.41"/>
<text text-anchor="start" x="217.27" y="-1171.74" font-family="Roboto, sans-serif" font-weight="bold" font-size="14.00">4: </text>
<text text-anchor="start" x="236.77" y="-1171.74" font-family="Roboto, sans-serif" font-size="14.00">Ist das Bilanzierungsgebiet zum Aktivierungsbeginn in der Regelzone des BIKO g&#252;ltig?</text>
</g>
<!-- 3&#45;&gt;4 -->
<g id="edge7" class="edge">
<title>3-&gt;4</title>
<path fill="none" stroke="#88a0d6" d="M473.53,-1284.15C484.17,-1263.44 502.39,-1227.99 515.01,-1203.44"/>
<polygon fill="#88a0d6" stroke="#88a0d6" points="518.05,-1205.18 519.51,-1194.68 511.83,-1201.98 518.05,-1205.18"/>
<text text-anchor="start" x="499.9" y="-1235" font-family="Roboto, sans-serif" font-weight="bold" font-size="14.00">JA</text>
</g>
<!-- A04 -->
<g id="node9" class="node">
<title>A04</title>
<path fill="#c4cac1" stroke="black" stroke-width="0" d="M249.93,-1085.52C249.93,-1085.52 23.88,-1085.52 23.88,-1085.52 17.88,-1085.52 11.88,-1079.52 11.88,-1073.52 11.88,-1073.52 11.88,-1024.24 11.88,-1024.24 11.88,-1018.24 17.88,-1012.24 23.88,-1012.24 23.88,-1012.24 249.93,-1012.24 249.93,-1012.24 255.93,-1012.24 261.93,-1018.24 261.93,-1024.24 261.93,-1024.24 261.93,-1073.52 261.93,-1073.52 261.93,-1079.52 255.93,-1085.52 249.93,-1085.52"/>
<text text-anchor="start" x="26.28" y="-1064.58" font-family="Roboto, sans-serif" font-weight="bold" font-size="14.00">A04</text>
<text text-anchor="start" x="26.28" y="-1036.58" font-family="Roboto, sans-serif" font-size="14.00">Cluster: Ablehnung</text>
<text text-anchor="start" x="26.28" y="-1022.58" font-family="Roboto, sans-serif" font-size="14.00">Bilanzierungsgebiet nicht g&#252;ltig</text>
</g>
<!-- 4&#45;&gt;A04 -->
<g id="edge8" class="edge">
<title>4-&gt;A04</title>
<path fill="none" stroke="#88a0d6" d="M475.63,-1157.49C420.36,-1139.93 332.02,-1111.87 259.41,-1088.8"/>
<polygon fill="#88a0d6" stroke="#88a0d6" points="260.86,-1085.59 250.27,-1085.89 258.74,-1092.26 260.86,-1085.59"/>
<text text-anchor="start" x="355.9" y="-1108.47" font-family="Roboto, sans-serif" font-weight="bold" font-size="14.00">NEIN</text>
</g>
<!-- 5 -->
<g id="node10" class="node">
<title>5</title>
<path fill="#c2cee9" stroke="black" stroke-width="0" d="M881.42,-1071.52C881.42,-1071.52 292.38,-1071.52 292.38,-1071.52 286.38,-1071.52 280.38,-1065.52 280.38,-1059.52 280.38,-1059.52 280.38,-1038.24 280.38,-1038.24 280.38,-1032.24 286.38,-1026.24 292.38,-1026.24 292.38,-1026.24 881.42,-1026.24 881.42,-1026.24 887.42,-1026.24 893.42,-1032.24 893.42,-1038.24 893.42,-1038.24 893.42,-1059.52 893.42,-1059.52 893.42,-1065.52 887.42,-1071.52 881.42,-1071.52"/>
<text text-anchor="start" x="294.77" y="-1050.58" font-family="Roboto, sans-serif" font-weight="bold" font-size="14.00">5: </text>
<text text-anchor="start" x="314.27" y="-1050.58" font-family="Roboto, sans-serif" font-size="14.00">Ist der Redispatch-Bilanzkreis des ANB zum Aktivierungsbeginn in der Regelzone</text>
<text text-anchor="start" x="294.77" y="-1036.58" font-family="Roboto, sans-serif" font-size="14.00">des BIKO g&#252;ltig?</text>
</g>
<!-- 4&#45;&gt;5 -->
<g id="edge9" class="edge">
<title>4-&gt;5</title>
<path fill="none" stroke="#88a0d6" d="M536.72,-1157.62C545.77,-1138.18 560.87,-1105.76 572.15,-1081.55"/>
<polygon fill="#88a0d6" stroke="#88a0d6" points="575.18,-1083.33 576.23,-1072.78 568.84,-1080.37 575.18,-1083.33"/>
<text text-anchor="start" x="560.9" y="-1108.47" font-family="Roboto, sans-serif" font-weight="bold" font-size="14.00">JA</text>
</g>
<!-- A05 -->
<g id="node11" class="node">
<title>A05</title>
<path fill="#c4cac1" stroke="black" stroke-width="0" d="M319.8,-958.99C319.8,-958.99 12,-958.99 12,-958.99 6,-958.99 0,-952.99 0,-946.99 0,-946.99 0,-897.71 0,-897.71 0,-891.71 6,-885.71 12,-885.71 12,-885.71 319.8,-885.71 319.8,-885.71 325.8,-885.71 331.8,-891.71 331.8,-897.71 331.8,-897.71 331.8,-946.99 331.8,-946.99 331.8,-952.99 325.8,-958.99 319.8,-958.99"/>
<text text-anchor="start" x="14.4" y="-938.05" font-family="Roboto, sans-serif" font-weight="bold" font-size="14.00">A05</text>
<text text-anchor="start" x="14.4" y="-910.05" font-family="Roboto, sans-serif" font-size="14.00">Cluster: Ablehnung</text>
<text text-anchor="start" x="14.4" y="-896.05" font-family="Roboto, sans-serif" font-size="14.00">Redispatch-Bilanzkreis des ANB nicht g&#252;ltig</text>
</g>
<!-- 5&#45;&gt;A05 -->
<g id="edge10" class="edge">
<title>5-&gt;A05</title>
<path fill="none" stroke="#88a0d6" d="M514.05,-1026.33C454.39,-1008.68 368.47,-983.27 296.91,-962.1"/>
<polygon fill="#88a0d6" stroke="#88a0d6" points="298.04,-958.79 287.46,-959.31 296.06,-965.5 298.04,-958.79"/>
<text text-anchor="start" x="400.9" y="-981.94" font-family="Roboto, sans-serif" font-weight="bold" font-size="14.00">NEIN</text>
</g>
<!-- 6 -->
<g id="node12" class="node">
<title>6</title>
<path fill="#c2cee9" stroke="black" stroke-width="0" d="M880.17,-944.99C880.17,-944.99 361.62,-944.99 361.62,-944.99 355.62,-944.99 349.62,-938.99 349.62,-932.99 349.62,-932.99 349.62,-911.71 349.62,-911.71 349.62,-905.71 355.62,-899.71 361.62,-899.71 361.62,-899.71 880.17,-899.71 880.17,-899.71 886.17,-899.71 892.17,-905.71 892.17,-911.71 892.17,-911.71 892.17,-932.99 892.17,-932.99 892.17,-938.99 886.17,-944.99 880.17,-944.99"/>
<text text-anchor="start" x="364.02" y="-924.05" font-family="Roboto, sans-serif" font-weight="bold" font-size="14.00">6: </text>
<text text-anchor="start" x="383.52" y="-924.05" font-family="Roboto, sans-serif" font-size="14.00">Ist der Sender zum Aktivierungsbeginn der verantwortliche NB f&#252;r den</text>
<text text-anchor="start" x="364.02" y="-910.05" font-family="Roboto, sans-serif" font-size="14.00">angegebenen Redispatch-Bilanzkreis des NB?</text>
</g>
<!-- 5&#45;&gt;6 -->
<g id="edge11" class="edge">
<title>5-&gt;6</title>
<path fill="none" stroke="#88a0d6" d="M592.74,-1026.47C598.05,-1007.05 605.94,-978.13 612.03,-955.85"/>
<polygon fill="#88a0d6" stroke="#88a0d6" points="615.36,-956.92 614.62,-946.35 608.61,-955.08 615.36,-956.92"/>
<text text-anchor="start" x="605.9" y="-981.94" font-family="Roboto, sans-serif" font-weight="bold" font-size="14.00">JA</text>
</g>
<!-- A06 -->
<g id="node13" class="node">
<title>A06</title>
<path fill="#c4cac1" stroke="black" stroke-width="0" d="M386.8,-832.46C386.8,-832.46 247,-832.46 247,-832.46 241,-832.46 235,-826.46 235,-820.46 235,-820.46 235,-771.18 235,-771.18 235,-765.18 241,-759.18 247,-759.18 247,-759.18 386.8,-759.18 386.8,-759.18 392.8,-759.18 398.8,-765.18 398.8,-771.18 398.8,-771.18 398.8,-820.46 398.8,-820.46 398.8,-826.46 392.8,-832.46 386.8,-832.46"/>
<text text-anchor="start" x="249.4" y="-811.52" font-family="Roboto, sans-serif" font-weight="bold" font-size="14.00">A06</text>
<text text-anchor="start" x="249.4" y="-783.52" font-family="Roboto, sans-serif" font-size="14.00">Cluster: Ablehnung</text>
<text text-anchor="start" x="249.4" y="-769.52" font-family="Roboto, sans-serif" font-size="14.00">Keine Berechtigung</text>
</g>
<!-- 6&#45;&gt;A06 -->
<g id="edge12" class="edge">
<title>6-&gt;A06</title>
<path fill="none" stroke="#88a0d6" d="M568.29,-899.8C524.57,-881.89 461.31,-855.98 409.19,-834.63"/>
<polygon fill="#88a0d6" stroke="#88a0d6" points="410.57,-831.41 399.99,-830.86 407.92,-837.89 410.57,-831.41"/>
<text text-anchor="start" x="486.9" y="-855.41" font-family="Roboto, sans-serif" font-weight="bold" font-size="14.00">NEIN</text>
</g>
<!-- 7 -->
<g id="node14" class="node">
<title>7</title>
<path fill="#c2cee9" stroke="black" stroke-width="0" d="M1046.67,-818.46C1046.67,-818.46 429.12,-818.46 429.12,-818.46 423.12,-818.46 417.12,-812.46 417.12,-806.46 417.12,-806.46 417.12,-785.18 417.12,-785.18 417.12,-779.18 423.12,-773.18 429.12,-773.18 429.12,-773.18 1046.67,-773.18 1046.67,-773.18 1052.67,-773.18 1058.67,-779.18 1058.67,-785.18 1058.67,-785.18 1058.67,-806.46 1058.67,-806.46 1058.67,-812.46 1052.67,-818.46 1046.67,-818.46"/>
<text text-anchor="start" x="431.52" y="-797.52" font-family="Roboto, sans-serif" font-weight="bold" font-size="14.00">7: </text>
<text text-anchor="start" x="451.02" y="-797.52" font-family="Roboto, sans-serif" font-size="14.00">Existiert bereits ein abweichendes Tupel aus Bilanzierungs-gebiet,</text>
<text text-anchor="start" x="431.52" y="-783.52" font-family="Roboto, sans-serif" font-size="14.00">Redispatch-Bilanzkreis des ANB, Bilanzkreis des LF und ZRT unter der ID des MaBiS-ZP?</text>
</g>
<!-- 6&#45;&gt;7 -->
<g id="edge13" class="edge">
<title>6-&gt;7</title>
<path fill="none" stroke="#88a0d6" d="M641.01,-899.94C660.02,-879.72 688.69,-849.19 709.92,-826.6"/>
<polygon fill="#88a0d6" stroke="#88a0d6" points="712.33,-829.15 716.62,-819.47 707.22,-824.36 712.33,-829.15"/>
<text text-anchor="start" x="685.9" y="-855.41" font-family="Roboto, sans-serif" font-weight="bold" font-size="14.00">JA</text>
</g>
<!-- A07 -->
<g id="node15" class="node">
<title>A07</title>
<path fill="#c4cac1" stroke="black" stroke-width="0" d="M522.3,-705.93C522.3,-705.93 217.5,-705.93 217.5,-705.93 211.5,-705.93 205.5,-699.93 205.5,-693.93 205.5,-693.93 205.5,-644.65 205.5,-644.65 205.5,-638.65 211.5,-632.65 217.5,-632.65 217.5,-632.65 522.3,-632.65 522.3,-632.65 528.3,-632.65 534.3,-638.65 534.3,-644.65 534.3,-644.65 534.3,-693.93 534.3,-693.93 534.3,-699.93 528.3,-705.93 522.3,-705.93"/>
<text text-anchor="start" x="219.9" y="-684.99" font-family="Roboto, sans-serif" font-weight="bold" font-size="14.00">A07</text>
<text text-anchor="start" x="219.9" y="-656.99" font-family="Roboto, sans-serif" font-size="14.00">Cluster: Ablehnung</text>
<text text-anchor="start" x="219.9" y="-642.99" font-family="Roboto, sans-serif" font-size="14.00">Abweichender MaBiS-ZP bereits vorhanden</text>
</g>
<!-- 7&#45;&gt;A07 -->
<g id="edge14" class="edge">
<title>7-&gt;A07</title>
<path fill="none" stroke="#88a0d6" d="M674.22,-773.27C622.39,-755.73 547.89,-730.52 485.58,-709.43"/>
<polygon fill="#88a0d6" stroke="#88a0d6" points="486.92,-706.19 476.32,-706.3 484.67,-712.82 486.92,-706.19"/>
<text text-anchor="start" x="575.9" y="-728.88" font-family="Roboto, sans-serif" font-weight="bold" font-size="14.00">JA</text>
</g>
<!-- 8 -->
<g id="node16" class="node">
<title>8</title>
<path fill="#c2cee9" stroke="black" stroke-width="0" d="M1135.05,-698.93C1135.05,-698.93 564.75,-698.93 564.75,-698.93 558.75,-698.93 552.75,-692.93 552.75,-686.93 552.75,-686.93 552.75,-651.65 552.75,-651.65 552.75,-645.65 558.75,-639.65 564.75,-639.65 564.75,-639.65 1135.05,-639.65 1135.05,-639.65 1141.05,-639.65 1147.05,-645.65 1147.05,-651.65 1147.05,-651.65 1147.05,-686.93 1147.05,-686.93 1147.05,-692.93 1141.05,-698.93 1135.05,-698.93"/>
<text text-anchor="start" x="567.15" y="-677.99" font-family="Roboto, sans-serif" font-weight="bold" font-size="14.00">8: </text>
<text text-anchor="start" x="586.65" y="-677.99" font-family="Roboto, sans-serif" font-size="14.00">Existiert bereits f&#252;r das genannte Tupel aus Bilanzierungs-gebiet,</text>
<text text-anchor="start" x="567.15" y="-663.99" font-family="Roboto, sans-serif" font-size="14.00">Redispatch-Bilanzkreis des ANB, Bilanzkreis des LF und ZRT eine abweichende ID</text>
<text text-anchor="start" x="567.15" y="-649.99" font-family="Roboto, sans-serif" font-size="14.00">des MaBiS-ZP?</text>
</g>
<!-- 7&#45;&gt;8 -->
<g id="edge15" class="edge">
<title>7-&gt;8</title>
<path fill="none" stroke="#88a0d6" d="M757.15,-773.41C773.5,-755.24 797.32,-728.76 816.72,-707.18"/>
<polygon fill="#88a0d6" stroke="#88a0d6" points="819.09,-709.78 823.18,-700 813.89,-705.09 819.09,-709.78"/>
<text text-anchor="start" x="799.9" y="-728.88" font-family="Roboto, sans-serif" font-weight="bold" font-size="14.00">NEIN</text>
</g>
<!-- A08 -->
<g id="node17" class="node">
<title>A08</title>
<path fill="#c4cac1" stroke="black" stroke-width="0" d="M758.3,-579.4C758.3,-579.4 405.5,-579.4 405.5,-579.4 399.5,-579.4 393.5,-573.4 393.5,-567.4 393.5,-567.4 393.5,-518.12 393.5,-518.12 393.5,-512.12 399.5,-506.12 405.5,-506.12 405.5,-506.12 758.3,-506.12 758.3,-506.12 764.3,-506.12 770.3,-512.12 770.3,-518.12 770.3,-518.12 770.3,-567.4 770.3,-567.4 770.3,-573.4 764.3,-579.4 758.3,-579.4"/>
<text text-anchor="start" x="407.9" y="-558.46" font-family="Roboto, sans-serif" font-weight="bold" font-size="14.00">A08</text>
<text text-anchor="start" x="407.9" y="-530.46" font-family="Roboto, sans-serif" font-size="14.00">Cluster: Ablehnung</text>
<text text-anchor="start" x="407.9" y="-516.46" font-family="Roboto, sans-serif" font-size="14.00">Abweichende ID zum MaBiS-ZP bereits vorhanden</text>
</g>
<!-- 8&#45;&gt;A08 -->
<g id="edge16" class="edge">
<title>8-&gt;A08</title>
<path fill="none" stroke="#88a0d6" d="M788.42,-639.72C752.95,-623.24 707.79,-602.26 668.75,-584.11"/>
<polygon fill="#88a0d6" stroke="#88a0d6" points="670.35,-581 659.81,-579.96 667.4,-587.35 670.35,-581"/>
<text text-anchor="start" x="731.9" y="-602.35" font-family="Roboto, sans-serif" font-weight="bold" font-size="14.00">JA</text>
</g>
<!-- 9 -->
<g id="node18" class="node">
<title>9</title>
<path fill="#c2cee9" stroke="black" stroke-width="0" d="M1225.3,-560.76C1225.3,-560.76 800.5,-560.76 800.5,-560.76 794.5,-560.76 788.5,-554.76 788.5,-548.76 788.5,-548.76 788.5,-536.76 788.5,-536.76 788.5,-530.76 794.5,-524.76 800.5,-524.76 800.5,-524.76 1225.3,-524.76 1225.3,-524.76 1231.3,-524.76 1237.3,-530.76 1237.3,-536.76 1237.3,-536.76 1237.3,-548.76 1237.3,-548.76 1237.3,-554.76 1231.3,-560.76 1225.3,-560.76"/>
<text text-anchor="start" x="802.9" y="-539.09" font-family="Roboto, sans-serif" font-weight="bold" font-size="14.00">9: </text>
<text text-anchor="start" x="822.4" y="-539.09" font-family="Roboto, sans-serif" font-size="14.00">Ist der Bilanzkreis des LF zum Aktivierungsbeginn g&#252;ltig?</text>
</g>
<!-- 8&#45;&gt;9 -->
<g id="edge17" class="edge">
<title>8-&gt;9</title>
<path fill="none" stroke="#88a0d6" d="M887.3,-639.72C915.88,-617.88 954.83,-588.13 981.74,-567.57"/>
<polygon fill="#88a0d6" stroke="#88a0d6" points="983.69,-570.48 989.52,-561.63 979.44,-564.92 983.69,-570.48"/>
<text text-anchor="start" x="940.9" y="-602.35" font-family="Roboto, sans-serif" font-weight="bold" font-size="14.00">NEIN</text>
</g>
<!-- A09 -->
<g id="node19" class="node">
<title>A09</title>
<path fill="#c4cac1" stroke="black" stroke-width="0" d="M872.42,-452.87C872.42,-452.87 709.38,-452.87 709.38,-452.87 703.38,-452.87 697.38,-446.87 697.38,-440.87 697.38,-440.87 697.38,-391.59 697.38,-391.59 697.38,-385.59 703.38,-379.59 709.38,-379.59 709.38,-379.59 872.42,-379.59 872.42,-379.59 878.42,-379.59 884.42,-385.59 884.42,-391.59 884.42,-391.59 884.42,-440.87 884.42,-440.87 884.42,-446.87 878.42,-452.87 872.42,-452.87"/>
<text text-anchor="start" x="711.77" y="-431.93" font-family="Roboto, sans-serif" font-weight="bold" font-size="14.00">A09</text>
<text text-anchor="start" x="711.77" y="-403.93" font-family="Roboto, sans-serif" font-size="14.00">Cluster: Ablehnung</text>
<text text-anchor="start" x="711.77" y="-389.93" font-family="Roboto, sans-serif" font-size="14.00">Bilanzkreis nicht g&#252;ltig</text>
</g>
<!-- 9&#45;&gt;A09 -->
<g id="edge18" class="edge">
<title>9-&gt;A09</title>
<path fill="none" stroke="#88a0d6" d="M982.96,-524.97C952.67,-507.98 904.68,-481.06 864.25,-458.38"/>
<polygon fill="#88a0d6" stroke="#88a0d6" points="866.18,-455.44 855.74,-453.6 862.75,-461.55 866.18,-455.44"/>
<text text-anchor="start" x="914.9" y="-475.82" font-family="Roboto, sans-serif" font-weight="bold" font-size="14.00">NEIN</text>
</g>
<!-- 10 -->
<g id="node20" class="node">
<title>10</title>
<path fill="#c2cee9" stroke="black" stroke-width="0" d="M1273.3,-434.23C1273.3,-434.23 914.5,-434.23 914.5,-434.23 908.5,-434.23 902.5,-428.23 902.5,-422.23 902.5,-422.23 902.5,-410.23 902.5,-410.23 902.5,-404.23 908.5,-398.23 914.5,-398.23 914.5,-398.23 1273.3,-398.23 1273.3,-398.23 1279.3,-398.23 1285.3,-404.23 1285.3,-410.23 1285.3,-410.23 1285.3,-422.23 1285.3,-422.23 1285.3,-428.23 1279.3,-434.23 1273.3,-434.23"/>
<text text-anchor="start" x="916.9" y="-412.55" font-family="Roboto, sans-serif" font-weight="bold" font-size="14.00">10: </text>
<text text-anchor="start" x="946.15" y="-412.55" font-family="Roboto, sans-serif" font-size="14.00">Ist der NB zur Aktivierung des ZRT berechtigt?</text>
</g>
<!-- 9&#45;&gt;10 -->
<g id="edge19" class="edge">
<title>9-&gt;10</title>
<path fill="none" stroke="#88a0d6" d="M1023.82,-524.97C1037.41,-504.08 1060.76,-468.17 1076.75,-443.6"/>
<polygon fill="#88a0d6" stroke="#88a0d6" points="1079.55,-445.72 1082.07,-435.43 1073.68,-441.9 1079.55,-445.72"/>
<text text-anchor="start" x="1057.9" y="-475.82" font-family="Roboto, sans-serif" font-weight="bold" font-size="14.00">JA</text>
</g>
<!-- A10 -->
<g id="node21" class="node">
<title>A10</title>
<path fill="#c4cac1" stroke="black" stroke-width="0" d="M930.17,-326.34C930.17,-326.34 699.62,-326.34 699.62,-326.34 693.62,-326.34 687.62,-320.34 687.62,-314.34 687.62,-314.34 687.62,-265.06 687.62,-265.06 687.62,-259.06 693.62,-253.06 699.62,-253.06 699.62,-253.06 930.17,-253.06 930.17,-253.06 936.17,-253.06 942.17,-259.06 942.17,-265.06 942.17,-265.06 942.17,-314.34 942.17,-314.34 942.17,-320.34 936.17,-326.34 930.17,-326.34"/>
<text text-anchor="start" x="702.02" y="-305.4" font-family="Roboto, sans-serif" font-weight="bold" font-size="14.00">A10</text>
<text text-anchor="start" x="702.02" y="-277.4" font-family="Roboto, sans-serif" font-size="14.00">Cluster: Ablehnung</text>
<text text-anchor="start" x="702.02" y="-263.4" font-family="Roboto, sans-serif" font-size="14.00">ZRT Aktivierung nicht berechtigt</text>
</g>
<!-- 10&#45;&gt;A10 -->
<g id="edge20" class="edge">
<title>10-&gt;A10</title>
<path fill="none" stroke="#88a0d6" d="M1055.98,-398.31C1017.37,-381.07 956.09,-353.72 904.97,-330.9"/>
<polygon fill="#88a0d6" stroke="#88a0d6" points="906.5,-327.75 895.94,-326.87 903.65,-334.14 906.5,-327.75"/>
<text text-anchor="start" x="970.9" y="-349.29" font-family="Roboto, sans-serif" font-weight="bold" font-size="14.00">NEIN</text>
</g>
<!-- 11 -->
<g id="node22" class="node">
<title>11</title>
<path fill="#c2cee9" stroke="black" stroke-width="0" d="M1295.68,-307.7C1295.68,-307.7 972.13,-307.7 972.13,-307.7 966.13,-307.7 960.13,-301.7 960.13,-295.7 960.13,-295.7 960.13,-283.7 960.13,-283.7 960.13,-277.7 966.13,-271.7 972.13,-271.7 972.13,-271.7 1295.68,-271.7 1295.68,-271.7 1301.68,-271.7 1307.68,-277.7 1307.68,-283.7 1307.68,-283.7 1307.68,-295.7 1307.68,-295.7 1307.68,-301.7 1301.68,-307.7 1295.68,-307.7"/>
<text text-anchor="start" x="974.53" y="-286.02" font-family="Roboto, sans-serif" font-weight="bold" font-size="14.00">11: </text>
<text text-anchor="start" x="1003.78" y="-286.02" font-family="Roboto, sans-serif" font-size="14.00">Passt die Angabe des Mediums zum ZRT?</text>
</g>
<!-- 10&#45;&gt;11 -->
<g id="edge21" class="edge">
<title>10-&gt;11</title>
<path fill="none" stroke="#88a0d6" d="M1099.29,-398.44C1105.89,-377.92 1117.13,-342.92 1125.01,-318.39"/>
<polygon fill="#88a0d6" stroke="#88a0d6" points="1128.27,-319.66 1128,-309.07 1121.61,-317.52 1128.27,-319.66"/>
<text text-anchor="start" x="1115.9" y="-349.29" font-family="Roboto, sans-serif" font-weight="bold" font-size="14.00">JA</text>
</g>
<!-- A11 -->
<g id="node23" class="node">
<title>A11</title>
<path fill="#c4cac1" stroke="black" stroke-width="0" d="M867.05,-199.81C867.05,-199.81 704.75,-199.81 704.75,-199.81 698.75,-199.81 692.75,-193.81 692.75,-187.81 692.75,-187.81 692.75,-138.53 692.75,-138.53 692.75,-132.53 698.75,-126.53 704.75,-126.53 704.75,-126.53 867.05,-126.53 867.05,-126.53 873.05,-126.53 879.05,-132.53 879.05,-138.53 879.05,-138.53 879.05,-187.81 879.05,-187.81 879.05,-193.81 873.05,-199.81 867.05,-199.81"/>
<text text-anchor="start" x="707.15" y="-178.87" font-family="Roboto, sans-serif" font-weight="bold" font-size="14.00">A11</text>
<text text-anchor="start" x="707.15" y="-150.87" font-family="Roboto, sans-serif" font-size="14.00">Cluster: Ablehnung</text>
<text text-anchor="start" x="707.15" y="-136.87" font-family="Roboto, sans-serif" font-size="14.00">Medium nicht passend</text>
</g>
<!-- 11&#45;&gt;A11 -->
<g id="edge22" class="edge">
<title>11-&gt;A11</title>
<path fill="none" stroke="#88a0d6" d="M1086.61,-271.78C1036.26,-253.76 955,-224.68 889.64,-201.29"/>
<polygon fill="#88a0d6" stroke="#88a0d6" points="890.9,-198.03 880.3,-197.95 888.54,-204.62 890.9,-198.03"/>
<text text-anchor="start" x="979.9" y="-222.76" font-family="Roboto, sans-serif" font-weight="bold" font-size="14.00">NEIN</text>
</g>
<!-- 12 -->
<g id="node24" class="node">
<title>12</title>
<path fill="#c2cee9" stroke="black" stroke-width="0" d="M1398.55,-181.17C1398.55,-181.17 909.25,-181.17 909.25,-181.17 903.25,-181.17 897.25,-175.17 897.25,-169.17 897.25,-169.17 897.25,-157.17 897.25,-157.17 897.25,-151.17 903.25,-145.17 909.25,-145.17 909.25,-145.17 1398.55,-145.17 1398.55,-145.17 1404.55,-145.17 1410.55,-151.17 1410.55,-157.17 1410.55,-157.17 1410.55,-169.17 1410.55,-169.17 1410.55,-175.17 1404.55,-181.17 1398.55,-181.17"/>
<text text-anchor="start" x="911.65" y="-159.5" font-family="Roboto, sans-serif" font-weight="bold" font-size="14.00">12: </text>
<text text-anchor="start" x="940.9" y="-159.5" font-family="Roboto, sans-serif" font-size="14.00">Ist der MaBiS-ZP zum Zeitpunkt der Aktivierung bereits aktiviert?</text>
</g>
<!-- 11&#45;&gt;12 -->
<g id="edge23" class="edge">
<title>11-&gt;12</title>
<path fill="none" stroke="#88a0d6" d="M1136.6,-271.91C1139.88,-251.48 1145.46,-216.7 1149.4,-192.19"/>
<polygon fill="#88a0d6" stroke="#88a0d6" points="1152.81,-193.02 1150.94,-182.59 1145.9,-191.91 1152.81,-193.02"/>
<text text-anchor="start" x="1144.9" y="-222.76" font-family="Roboto, sans-serif" font-weight="bold" font-size="14.00">JA</text>
</g>
<!-- A12 -->
<g id="node25" class="node">
<title>A12</title>
<path fill="#c4cac1" stroke="black" stroke-width="0" d="M1098.92,-73.28C1098.92,-73.28 914.88,-73.28 914.88,-73.28 908.88,-73.28 902.88,-67.28 902.88,-61.28 902.88,-61.28 902.88,-12 902.88,-12 902.88,-6 908.88,0 914.88,0 914.88,0 1098.92,0 1098.92,0 1104.92,0 1110.92,-6 1110.92,-12 1110.92,-12 1110.92,-61.28 1110.92,-61.28 1110.92,-67.28 1104.92,-73.28 1098.92,-73.28"/>
<text text-anchor="start" x="917.27" y="-52.34" font-family="Roboto, sans-serif" font-weight="bold" font-size="14.00">A12</text>
<text text-anchor="start" x="917.27" y="-24.34" font-family="Roboto, sans-serif" font-size="14.00">Cluster: Ablehnung</text>
<text text-anchor="start" x="917.27" y="-10.34" font-family="Roboto, sans-serif" font-size="14.00">MaBiS-ZP bereits aktiviert</text>
</g>
<!-- 12&#45;&gt;A12 -->
<g id="edge24" class="edge">
<title>12-&gt;A12</title>
<path fill="none" stroke="#88a0d6" d="M1134.07,-145.38C1114.57,-128.85 1083.98,-102.94 1057.69,-80.67"/>
<polygon fill="#88a0d6" stroke="#88a0d6" points="1060.01,-78.04 1050.12,-74.25 1055.48,-83.38 1060.01,-78.04"/>
<text text-anchor="start" x="1088.9" y="-96.23" font-family="Roboto, sans-serif" font-weight="bold" font-size="14.00">JA</text>
</g>
<!-- A13 -->
<g id="node26" class="node">
<title>A13</title>
<path fill="#c4cac1" stroke="black" stroke-width="0" d="M1322.43,-73.28C1322.43,-73.28 1141.38,-73.28 1141.38,-73.28 1135.38,-73.28 1129.38,-67.28 1129.38,-61.28 1129.38,-61.28 1129.38,-12 1129.38,-12 1129.38,-6 1135.38,0 1141.38,0 1141.38,0 1322.43,0 1322.43,0 1328.43,0 1334.43,-6 1334.43,-12 1334.43,-12 1334.43,-61.28 1334.43,-61.28 1334.43,-67.28 1328.43,-73.28 1322.43,-73.28"/>
<text text-anchor="start" x="1143.78" y="-52.34" font-family="Roboto, sans-serif" font-weight="bold" font-size="14.00">A13</text>
<text text-anchor="start" x="1143.78" y="-24.34" font-family="Roboto, sans-serif" font-size="14.00">Cluster: Zustimmung</text>
<text text-anchor="start" x="1143.78" y="-10.34" font-family="Roboto, sans-serif" font-size="14.00">Aktivierung durchgef&#252;hrt</text>
</g>
<!-- 12&#45;&gt;A13 -->
<g id="edge25" class="edge">
<title>12-&gt;A13</title>
<path fill="none" stroke="#88a0d6" d="M1164.42,-145.38C1174.41,-129.43 1189.88,-104.73 1203.49,-83"/>
<polygon fill="#88a0d6" stroke="#88a0d6" points="1206.44,-84.89 1208.78,-74.55 1200.5,-81.17 1206.44,-84.89"/>
<text text-anchor="start" x="1196.9" y="-96.23" font-family="Roboto, sans-serif" font-weight="bold" font-size="14.00">NEIN</text>
</g>
</g>
</svg>
  </g>
</svg>
  </g>
</svg>
