<?xml version='1.0' encoding='ASCII' standalone='yes'?>
<svg xmlns="http://www.w3.org/2000/svg" xmlns:xlink="http://www.w3.org/1999/xlink" version="1.1" width="1546.6666666666667px" viewBox="0 0 1546.6666666666667 433.3333333333333" height="433.3333333333333px">
  <g>
    <svg version="1.1" width="1546.6666666666667px" viewBox="0 0 1546.6666666666667 433.3333333333333" height="433.3333333333333px">
  <polygon fill="#f3f1f6" points="0,0 1546.6666666666667,0 1546.6666666666667,433.3333333333333 0,433.3333333333333"/><g>
    <g transform="translate(596.6197315310242, 43.33333333333332) scale(1 1) translate(0, 0) scale(0.6101567633530461 0.6101567633530461) "><!-- note that I manually added the width and height attribute to the root node
  https://chatgpt.com/share/678e3028-70cc-800b-a296-782714735772
  -->
  <defs>
    <style>.cls-1{fill:#fff;}</style>
  </defs>
  <path class="cls-1" d="M122.44,531.2h-56.1c-11,0-19.9-9.12-19.46-20.11C57.47,243.89,278.15,29.78,547.91,29.78v56.02c0,10.98-8.69,19.89-19.66,20.39-225.51,10.31-405.8,197-405.8,425Z"/>
  <path class="cls-1" d="M273.78,531.2h-55.93c-11.23,0-20.09-9.48-19.43-20.69,10.74-183.44,163.39-329.39,349.48-329.39v56.26c0,10.71-8.27,19.62-18.96,20.35-142.35,9.77-255.17,128.69-255.17,273.46Z"/>
  <path class="cls-1" d="M425.77,531.2h-55.45c-11.65,0-20.6-10.17-19.33-21.75,10.87-99.03,95.03-176.34,196.92-176.34v57.01c0,10.05-7.28,18.75-17.23,20.16-59.22,8.4-104.91,59.42-104.91,120.92Z"/>
</g>
    <svg width="1160pt" height="325pt" viewBox="0.00 0.00 1159.50 325.05">
<g id="graph0" class="graph" transform="scale(1 1) rotate(0) translate(4 321.05)">
<title>D</title>
<text text-anchor="start" x="8" y="-296.95" font-family="Times,serif" font-weight="bold" font-size="18.00">MaBiS</text>
<text text-anchor="start" x="8" y="-266.85" font-family="Times,serif" font-weight="bold" font-size="16.00">7.63.2: AD: &#220;bermittlung Pr&#252;fmitteilung f&#252;r die monatliche Ausfallarbeits&#252;berf&#252;hrungszeitreihe (AA&#220;Z) vom BKV(LF) an NB</text>
<!-- Start -->
<g id="node1" class="node">
<title>Start</title>
<path fill="#7a8da1" stroke="black" stroke-width="0" d="M650.9,-219.05C650.9,-219.05 500.6,-219.05 500.6,-219.05 494.6,-219.05 488.6,-213.05 488.6,-207.05 488.6,-207.05 488.6,-187.77 488.6,-187.77 488.6,-181.77 494.6,-175.77 500.6,-175.77 500.6,-175.77 650.9,-175.77 650.9,-175.77 656.9,-175.77 662.9,-181.77 662.9,-187.77 662.9,-187.77 662.9,-207.05 662.9,-207.05 662.9,-213.05 656.9,-219.05 650.9,-219.05"/>
<text text-anchor="start" x="547.62" y="-198.11" font-family="Times,serif" font-weight="bold" font-size="14.00">E_0074</text>
<text text-anchor="start" x="503" y="-186.01" font-family="Times,serif" font-weight="bold" text-decoration="underline" font-size="12.00">Pr&#252;fende Rolle:</text>
<text text-anchor="start" x="608" y="-186.01" font-family="Times,serif" font-weight="bold" font-size="12.00"> BIKO</text>
</g>
<!-- 1 -->
<g id="node2" class="node">
<title>1</title>
<path fill="#7aab8a" stroke="black" stroke-width="0" d="M886.4,-138.77C886.4,-138.77 265.1,-138.77 265.1,-138.77 259.1,-138.77 253.1,-132.77 253.1,-126.77 253.1,-126.77 253.1,-114.77 253.1,-114.77 253.1,-108.77 259.1,-102.77 265.1,-102.77 265.1,-102.77 886.4,-102.77 886.4,-102.77 892.4,-102.77 898.4,-108.77 898.4,-114.77 898.4,-114.77 898.4,-126.77 898.4,-126.77 898.4,-132.77 892.4,-138.77 886.4,-138.77"/>
<text text-anchor="start" x="267.5" y="-117.09" font-family="Times,serif" font-weight="bold" font-size="14.00">1: </text>
<text text-anchor="start" x="287" y="-117.09" font-family="Times,serif" font-size="14.00">Erfolgt der Eingang der Pr&#252;fmitteilung nach Ablauf der Clearingfrist f&#252;r die KBKA?</text>
</g>
<!-- Start&#45;&gt;1 -->
<g id="edge1" class="edge">
<title>Start-&gt;1</title>
<path fill="none" stroke="black" d="M575.75,-176.01C575.75,-167.94 575.75,-158.53 575.75,-149.84"/>
<polygon fill="black" stroke="black" points="579.25,-150.13 575.75,-140.13 572.25,-150.13 579.25,-150.13"/>
</g>
<!-- A01 -->
<g id="node3" class="node">
<title>A01</title>
<path fill="#cfb986" stroke="black" stroke-width="0" d="M573.99,-49.52C573.99,-49.52 453.51,-49.52 453.51,-49.52 447.51,-49.52 441.51,-43.52 441.51,-37.52 441.51,-37.52 441.51,-12 441.51,-12 441.51,-6 447.51,0 453.51,0 453.51,0 573.99,0 573.99,0 579.99,0 585.99,-6 585.99,-12 585.99,-12 585.99,-37.52 585.99,-37.52 585.99,-43.52 579.99,-49.52 573.99,-49.52"/>
<text text-anchor="start" x="453.75" y="-31.46" font-family="Times,serif" font-weight="bold" font-size="14.00">A01</text>
<text text-anchor="start" x="453.75" y="-19.36" font-family="Times,serif" text-decoration="underline" font-size="12.00">Hinweis:</text>
<text text-anchor="start" x="453.75" y="-7.36" font-family="Times,serif" font-size="12.00">Frist&#252;berschreitung</text>
</g>
<!-- 1&#45;&gt;A01 -->
<g id="edge2" class="edge">
<title>1-&gt;A01</title>
<path fill="none" stroke="#7aab8a" d="M564.67,-102.96C556.61,-90.75 545.44,-73.81 535.61,-58.91"/>
<polygon fill="#7aab8a" stroke="#7aab8a" points="538.66,-57.17 530.23,-50.75 532.81,-61.02 538.66,-57.17"/>
<text text-anchor="start" x="551.75" y="-72.47" font-family="Times,serif" font-weight="bold" font-size="14.00">JA</text>
</g>
<!-- Ende -->
<g id="node4" class="node">
<title>Ende</title>
<path fill="#7a8da1" stroke="black" stroke-width="0" d="M657.52,-42.76C657.52,-42.76 615.98,-42.76 615.98,-42.76 609.98,-42.76 603.98,-36.76 603.98,-30.76 603.98,-30.76 603.98,-18.76 603.98,-18.76 603.98,-12.76 609.98,-6.76 615.98,-6.76 615.98,-6.76 657.52,-6.76 657.52,-6.76 663.52,-6.76 669.52,-12.76 669.52,-18.76 669.52,-18.76 669.52,-30.76 669.52,-30.76 669.52,-36.76 663.52,-42.76 657.52,-42.76"/>
<text text-anchor="middle" x="636.75" y="-20.08" font-family="Times,serif" font-size="14.00">Ende</text>
</g>
<!-- 1&#45;&gt;Ende -->
<g id="edge3" class="edge">
<title>1-&gt;Ende</title>
<path fill="none" stroke="#7aab8a" d="M586.66,-102.96C595.79,-88.88 609,-68.53 619.56,-52.25"/>
<polygon fill="#7aab8a" stroke="#7aab8a" points="622.4,-54.3 624.91,-44.01 616.53,-50.49 622.4,-54.3"/>
<text text-anchor="start" x="607.75" y="-72.47" font-family="Times,serif" font-weight="bold" font-size="14.00">NEIN</text>
</g>
</g>
</svg>
  </g>
</svg>
  </g>
</svg>
