<?xml version='1.0' encoding='ASCII' standalone='yes'?>
<svg xmlns="http://www.w3.org/2000/svg" xmlns:xlink="http://www.w3.org/1999/xlink" version="1.1" width="1846.6666666666667px" viewBox="0 0 1846.6666666666667 1917.3333333333333" height="1917.3333333333333px">
  <g>
    <svg version="1.1" width="1846.6666666666667px" viewBox="0 0 1846.6666666666667 1917.3333333333333" height="1917.3333333333333px">
  <polygon fill="#c2cee9" points="0,0 1846.6666666666667,0 1846.6666666666667,1917.3333333333333 0,1917.3333333333333"/><g>
    <g transform="translate(184.66666666666663, 234.1295951016274) scale(1 1) translate(0, 0) scale(2.5504684298966462 2.5504684298966462) "><!-- note that I manually added the width and height attribute to the root node
  https://chatgpt.com/share/678e3028-70cc-800b-a296-782714735772
  -->
  <defs>
    <style>.cls-1{fill:#fff;}</style>
  </defs>
  <path class="cls-1" d="M122.44,531.2h-56.1c-11,0-19.9-9.12-19.46-20.11C57.47,243.89,278.15,29.78,547.91,29.78v56.02c0,10.98-8.69,19.89-19.66,20.39-225.51,10.31-405.8,197-405.8,425Z"/>
  <path class="cls-1" d="M273.78,531.2h-55.93c-11.23,0-20.09-9.48-19.43-20.69,10.74-183.44,163.39-329.39,349.48-329.39v56.26c0,10.71-8.27,19.62-18.96,20.35-142.35,9.77-255.17,128.69-255.17,273.46Z"/>
  <path class="cls-1" d="M425.77,531.2h-55.45c-11.65,0-20.6-10.17-19.33-21.75,10.87-99.03,95.03-176.34,196.92-176.34v57.01c0,10.05-7.28,18.75-17.23,20.16-59.22,8.4-104.91,59.42-104.91,120.92Z"/>
</g>
    <svg width="1385pt" height="1438pt" viewBox="0.00 0.00 1385.02 1437.52">
<g id="graph0" class="graph" transform="scale(1 1) rotate(0) translate(4 1433.52)">
<title>D</title>
<text text-anchor="start" x="365.26" y="-1409.42" font-family="Roboto, sans-serif" font-weight="bold" font-size="18.00">MaBiS</text>
<text text-anchor="start" x="365.26" y="-1379.32" font-family="Roboto, sans-serif" font-weight="bold" font-size="16.00">7.48.1: AD: Austausch der Deltazeitreihen&#252;bertrag-Liste von &#220;NB an NB</text>
<!-- Start -->
<g id="node1" class="node">
<title>Start</title>
<path fill="#7a8da1" stroke="black" stroke-width="0" d="M408.39,-1331.52C408.39,-1331.52 276.84,-1331.52 276.84,-1331.52 270.84,-1331.52 264.84,-1325.52 264.84,-1319.52 264.84,-1319.52 264.84,-1300.24 264.84,-1300.24 264.84,-1294.24 270.84,-1288.24 276.84,-1288.24 276.84,-1288.24 408.39,-1288.24 408.39,-1288.24 414.39,-1288.24 420.39,-1294.24 420.39,-1300.24 420.39,-1300.24 420.39,-1319.52 420.39,-1319.52 420.39,-1325.52 414.39,-1331.52 408.39,-1331.52"/>
<text text-anchor="start" x="314.87" y="-1310.58" font-family="Roboto, sans-serif" font-weight="bold" font-size="14.00">E_0070</text>
<text text-anchor="start" x="279.24" y="-1298.48" font-family="Roboto, sans-serif" font-weight="bold" text-decoration="underline" font-size="12.00">Pr&#252;fende Rolle:</text>
<text text-anchor="start" x="382.74" y="-1298.48" font-family="Roboto, sans-serif" font-weight="bold" font-size="12.00"> NB</text>
</g>
<!-- 1 -->
<g id="node2" class="node">
<title>1</title>
<path fill="#7aab8a" stroke="black" stroke-width="0" d="M607.51,-1251.24C607.51,-1251.24 77.72,-1251.24 77.72,-1251.24 71.72,-1251.24 65.72,-1245.24 65.72,-1239.24 65.72,-1239.24 65.72,-1227.24 65.72,-1227.24 65.72,-1221.24 71.72,-1215.24 77.72,-1215.24 77.72,-1215.24 607.51,-1215.24 607.51,-1215.24 613.51,-1215.24 619.51,-1221.24 619.51,-1227.24 619.51,-1227.24 619.51,-1239.24 619.51,-1239.24 619.51,-1245.24 613.51,-1251.24 607.51,-1251.24"/>
<text text-anchor="start" x="80.12" y="-1229.57" font-family="Roboto, sans-serif" font-weight="bold" font-size="14.00">1: </text>
<text text-anchor="start" x="99.62" y="-1229.57" font-family="Roboto, sans-serif" font-size="14.00">Erfolgt der Eingang der DZ&#220;-Liste innerhalb der Clearingphase f&#252;r DZ&#220;?</text>
</g>
<!-- Start&#45;&gt;1 -->
<g id="edge1" class="edge">
<title>Start-&gt;1</title>
<path fill="none" stroke="black" d="M342.62,-1288.48C342.62,-1280.41 342.62,-1271 342.62,-1262.31"/>
<polygon fill="black" stroke="black" points="346.12,-1262.6 342.62,-1252.6 339.12,-1262.6 346.12,-1262.6"/>
</g>
<!-- A01 -->
<g id="node3" class="node">
<title>A01</title>
<path fill="#cfb986" stroke="black" stroke-width="0" d="M325.23,-1161.99C325.23,-1161.99 12,-1161.99 12,-1161.99 6,-1161.99 0,-1155.99 0,-1149.99 0,-1149.99 0,-1112.47 0,-1112.47 0,-1106.47 6,-1100.47 12,-1100.47 12,-1100.47 325.23,-1100.47 325.23,-1100.47 331.23,-1100.47 337.23,-1106.47 337.23,-1112.47 337.23,-1112.47 337.23,-1149.99 337.23,-1149.99 337.23,-1155.99 331.23,-1161.99 325.23,-1161.99"/>
<text text-anchor="start" x="12.24" y="-1143.93" font-family="Roboto, sans-serif" font-weight="bold" font-size="14.00">A01</text>
<text text-anchor="start" x="12.24" y="-1131.83" font-family="Roboto, sans-serif" text-decoration="underline" font-size="12.00">Hinweis:</text>
<text text-anchor="start" x="12.24" y="-1119.83" font-family="Roboto, sans-serif" font-size="12.00">Cluster: Ablehnung der gesamten Liste</text>
<text text-anchor="start" x="12.24" y="-1107.83" font-family="Roboto, sans-serif" font-size="12.00">Eingang liegt nicht innerhalb der Clearingphase DZ&#220;</text>
</g>
<!-- 1&#45;&gt;A01 -->
<g id="edge2" class="edge">
<title>1-&gt;A01</title>
<path fill="none" stroke="#7aab8a" d="M313.1,-1215.27C290.37,-1202.21 258.18,-1183.71 229.95,-1167.48"/>
<polygon fill="#7aab8a" stroke="#7aab8a" points="231.87,-1164.55 221.46,-1162.6 228.39,-1170.62 231.87,-1164.55"/>
<text text-anchor="start" x="280.62" y="-1184.94" font-family="Roboto, sans-serif" font-weight="bold" font-size="14.00">NEIN</text>
</g>
<!-- 2 -->
<g id="node4" class="node">
<title>2</title>
<path fill="#7aab8a" stroke="black" stroke-width="0" d="M600.39,-1149.23C600.39,-1149.23 366.84,-1149.23 366.84,-1149.23 360.84,-1149.23 354.84,-1143.23 354.84,-1137.23 354.84,-1137.23 354.84,-1125.23 354.84,-1125.23 354.84,-1119.23 360.84,-1113.23 366.84,-1113.23 366.84,-1113.23 600.39,-1113.23 600.39,-1113.23 606.39,-1113.23 612.39,-1119.23 612.39,-1125.23 612.39,-1125.23 612.39,-1137.23 612.39,-1137.23 612.39,-1143.23 606.39,-1149.23 600.39,-1149.23"/>
<text text-anchor="start" x="369.24" y="-1127.56" font-family="Roboto, sans-serif" font-weight="bold" font-size="14.00">2: </text>
<text text-anchor="start" x="388.74" y="-1127.56" font-family="Roboto, sans-serif" font-size="14.00">Ist die Marktlokation bekannt?</text>
</g>
<!-- 1&#45;&gt;2 -->
<g id="edge3" class="edge">
<title>1-&gt;2</title>
<path fill="none" stroke="#7aab8a" d="M366.53,-1215.27C389.66,-1198.87 424.9,-1173.87 450.68,-1155.59"/>
<polygon fill="#7aab8a" stroke="#7aab8a" points="452.68,-1158.46 458.81,-1149.82 448.63,-1152.75 452.68,-1158.46"/>
<text text-anchor="start" x="412.62" y="-1184.94" font-family="Roboto, sans-serif" font-weight="bold" font-size="14.00">JA</text>
</g>
<!-- A02 -->
<g id="node5" class="node">
<title>A02</title>
<path fill="#cfb986" stroke="black" stroke-width="0" d="M282.48,-1047.22C282.48,-1047.22 42.75,-1047.22 42.75,-1047.22 36.75,-1047.22 30.75,-1041.22 30.75,-1035.22 30.75,-1035.22 30.75,-997.7 30.75,-997.7 30.75,-991.7 36.75,-985.7 42.75,-985.7 42.75,-985.7 282.48,-985.7 282.48,-985.7 288.48,-985.7 294.48,-991.7 294.48,-997.7 294.48,-997.7 294.48,-1035.22 294.48,-1035.22 294.48,-1041.22 288.48,-1047.22 282.48,-1047.22"/>
<text text-anchor="start" x="42.99" y="-1029.16" font-family="Roboto, sans-serif" font-weight="bold" font-size="14.00">A02</text>
<text text-anchor="start" x="42.99" y="-1017.06" font-family="Roboto, sans-serif" text-decoration="underline" font-size="12.00">Hinweis:</text>
<text text-anchor="start" x="42.99" y="-1005.06" font-family="Roboto, sans-serif" font-size="12.00">Cluster: Korrekturliste wegen Ablehnung</text>
<text text-anchor="start" x="42.99" y="-993.06" font-family="Roboto, sans-serif" font-size="12.00">Marktlokation ist nicht bekannt</text>
</g>
<!-- 2&#45;&gt;A02 -->
<g id="edge4" class="edge">
<title>2-&gt;A02</title>
<path fill="none" stroke="#7aab8a" d="M435.56,-1113.35C388.8,-1096.92 316.45,-1071.5 257.98,-1050.96"/>
<polygon fill="#7aab8a" stroke="#7aab8a" points="259.26,-1047.7 248.66,-1047.69 256.94,-1054.31 259.26,-1047.7"/>
<text text-anchor="start" x="341.62" y="-1070.17" font-family="Roboto, sans-serif" font-weight="bold" font-size="14.00">NEIN</text>
</g>
<!-- 3 -->
<g id="node6" class="node">
<title>3</title>
<path fill="#7aab8a" stroke="black" stroke-width="0" d="M854.51,-1039.1C854.51,-1039.1 324.72,-1039.1 324.72,-1039.1 318.72,-1039.1 312.72,-1033.1 312.72,-1027.1 312.72,-1027.1 312.72,-1005.82 312.72,-1005.82 312.72,-999.82 318.72,-993.82 324.72,-993.82 324.72,-993.82 854.51,-993.82 854.51,-993.82 860.51,-993.82 866.51,-999.82 866.51,-1005.82 866.51,-1005.82 866.51,-1027.1 866.51,-1027.1 866.51,-1033.1 860.51,-1039.1 854.51,-1039.1"/>
<text text-anchor="start" x="327.12" y="-1018.16" font-family="Roboto, sans-serif" font-weight="bold" font-size="14.00">3: </text>
<text text-anchor="start" x="346.62" y="-1018.16" font-family="Roboto, sans-serif" font-size="14.00">Entspricht das Bilanzierungsgebiet dem zwischen NB (&#252;ber LF) und &#220;NB</text>
<text text-anchor="start" x="327.12" y="-1004.16" font-family="Roboto, sans-serif" font-size="14.00">ausgetauschten Bilanzierungsgebiet?</text>
</g>
<!-- 2&#45;&gt;3 -->
<g id="edge5" class="edge">
<title>2-&gt;3</title>
<path fill="none" stroke="#7aab8a" d="M499.26,-1113.59C515.66,-1096.14 541.76,-1068.37 561.71,-1047.15"/>
<polygon fill="#7aab8a" stroke="#7aab8a" points="564.23,-1049.58 568.52,-1039.9 559.12,-1044.79 564.23,-1049.58"/>
<text text-anchor="start" x="542.62" y="-1070.17" font-family="Roboto, sans-serif" font-weight="bold" font-size="14.00">JA</text>
</g>
<!-- A03 -->
<g id="node7" class="node">
<title>A03</title>
<path fill="#cfb986" stroke="black" stroke-width="0" d="M944.36,-73.52C944.36,-73.52 640.88,-73.52 640.88,-73.52 634.88,-73.52 628.88,-67.52 628.88,-61.52 628.88,-61.52 628.88,-12 628.88,-12 628.88,-6 634.88,0 640.88,0 640.88,0 944.36,0 944.36,0 950.36,0 956.36,-6 956.36,-12 956.36,-12 956.36,-61.52 956.36,-61.52 956.36,-67.52 950.36,-73.52 944.36,-73.52"/>
<text text-anchor="start" x="641.12" y="-55.46" font-family="Roboto, sans-serif" font-weight="bold" font-size="14.00">A03</text>
<text text-anchor="start" x="641.12" y="-43.36" font-family="Roboto, sans-serif" text-decoration="underline" font-size="12.00">Hinweis:</text>
<text text-anchor="start" x="641.12" y="-31.36" font-family="Roboto, sans-serif" font-size="12.00">Cluster: Korrekturliste wegen Ablehnung</text>
<text text-anchor="start" x="641.12" y="-19.36" font-family="Roboto, sans-serif" font-size="12.00">Bilanzierungsrel. Daten nicht korrekt / fehlen</text>
<text text-anchor="start" x="641.12" y="-7.36" font-family="Roboto, sans-serif" font-size="12.00">Ist mit Werten des NB zu allen Stammdaten gef&#252;llt</text>
</g>
<!-- 3&#45;&gt;A03 -->
<g id="edge6" class="edge">
<title>3-&gt;A03</title>
<path fill="none" stroke="#7aab8a" d="M469.15,-993.83C390.99,-976.24 303.62,-948.22 303.62,-910.81 303.62,-910.81 303.62,-910.81 303.62,-582.51 303.62,-550.8 300.59,-541.34 311.62,-511.61 325.62,-473.85 337.61,-468.29 362.62,-436.72"/>
<path fill="none" stroke="#7aab8a" d="M362.62,-434.72C380.95,-410.25 392.41,-410.4 412.62,-387.45"/>
<path fill="none" stroke="#7aab8a" d="M412.62,-385.45C434.82,-360.24 449.5,-363.48 471.62,-338.19"/>
<path fill="none" stroke="#7aab8a" d="M471.62,-336.19C491.74,-313.17 501.65,-312.09 521.62,-288.93"/>
<path fill="none" stroke="#7aab8a" d="M521.62,-286.93C542.03,-263.23 556.52,-267.4 577.62,-244.3"/>
<path fill="none" stroke="#7aab8a" d="M577.62,-242.3C596.85,-221.23 607.75,-221.92 625.62,-199.68"/>
<path fill="none" stroke="#7aab8a" d="M625.62,-197.68C644.76,-173.83 657.31,-174.91 675.62,-150.41"/>
<path fill="none" stroke="#7aab8a" d="M675.62,-148.41C693.16,-124.93 705.05,-125.33 721.62,-101.14"/>
<path fill="none" stroke="#7aab8a" d="M721.62,-99.14C725.88,-92.91 730.94,-86.93 736.35,-81.3"/>
<polygon fill="#7aab8a" stroke="#7aab8a" points="738.71,-83.88 743.4,-74.38 733.81,-78.88 738.71,-83.88"/>
<text text-anchor="start" x="311.62" y="-530.58" font-family="Roboto, sans-serif" font-weight="bold" font-size="14.00">NEIN</text>
</g>
<!-- 4 -->
<g id="node8" class="node">
<title>4</title>
<path fill="#7aab8a" stroke="black" stroke-width="0" d="M924.01,-932.45C924.01,-932.45 343.22,-932.45 343.22,-932.45 337.22,-932.45 331.22,-926.45 331.22,-920.45 331.22,-920.45 331.22,-899.17 331.22,-899.17 331.22,-893.17 337.22,-887.17 343.22,-887.17 343.22,-887.17 924.01,-887.17 924.01,-887.17 930.01,-887.17 936.01,-893.17 936.01,-899.17 936.01,-899.17 936.01,-920.45 936.01,-920.45 936.01,-926.45 930.01,-932.45 924.01,-932.45"/>
<text text-anchor="start" x="345.62" y="-911.51" font-family="Roboto, sans-serif" font-weight="bold" font-size="14.00">4: </text>
<text text-anchor="start" x="365.12" y="-911.51" font-family="Roboto, sans-serif" font-size="14.00">Entspricht der Bilanzkreis dem zwischen NB (&#252;ber LF) und &#220;NB ausgetauschten</text>
<text text-anchor="start" x="345.62" y="-897.51" font-family="Roboto, sans-serif" font-size="14.00">Bilanzkreis?</text>
</g>
<!-- 3&#45;&gt;4 -->
<g id="edge7" class="edge">
<title>3-&gt;4</title>
<path fill="none" stroke="#7aab8a" d="M598.63,-994.03C604.85,-979.22 613.25,-959.25 620.25,-942.59"/>
<polygon fill="#7aab8a" stroke="#7aab8a" points="623.38,-944.18 624.03,-933.61 616.93,-941.47 623.38,-944.18"/>
<text text-anchor="start" x="616.62" y="-955.4" font-family="Roboto, sans-serif" font-weight="bold" font-size="14.00">JA</text>
</g>
<!-- 4&#45;&gt;A03 -->
<g id="edge8" class="edge">
<title>4-&gt;A03</title>
<path fill="none" stroke="#7aab8a" d="M507.12,-887.23C439.75,-872.01 370.62,-848.66 370.62,-816.92 370.62,-816.92 370.62,-816.92 370.62,-582.51 370.62,-517.62 325.18,-489.73 362.62,-436.72"/>
<text text-anchor="start" x="348.62" y="-481.31" font-family="Roboto, sans-serif" font-weight="bold" font-size="14.00">NEIN</text>
</g>
<!-- 5 -->
<g id="node9" class="node">
<title>5</title>
<path fill="#7aab8a" stroke="black" stroke-width="0" d="M852.01,-833.92C852.01,-833.92 415.22,-833.92 415.22,-833.92 409.22,-833.92 403.22,-827.92 403.22,-821.92 403.22,-821.92 403.22,-809.92 403.22,-809.92 403.22,-803.92 409.22,-797.92 415.22,-797.92 415.22,-797.92 852.01,-797.92 852.01,-797.92 858.01,-797.92 864.01,-803.92 864.01,-809.92 864.01,-809.92 864.01,-821.92 864.01,-821.92 864.01,-827.92 858.01,-833.92 852.01,-833.92"/>
<text text-anchor="start" x="417.62" y="-812.25" font-family="Roboto, sans-serif" font-weight="bold" font-size="14.00">5: </text>
<text text-anchor="start" x="437.12" y="-812.25" font-family="Roboto, sans-serif" font-size="14.00">Entspricht der Bilanzierungsbeginn der Erwartung des NB?</text>
</g>
<!-- 4&#45;&gt;5 -->
<g id="edge9" class="edge">
<title>4-&gt;5</title>
<path fill="none" stroke="#7aab8a" d="M633.62,-887.5C633.62,-874.87 633.62,-858.71 633.62,-845.05"/>
<polygon fill="#7aab8a" stroke="#7aab8a" points="637.12,-845.34 633.62,-835.34 630.12,-845.34 637.12,-845.34"/>
<text text-anchor="start" x="633.62" y="-856.87" font-family="Roboto, sans-serif" font-weight="bold" font-size="14.00">JA</text>
</g>
<!-- 5&#45;&gt;A03 -->
<g id="edge10" class="edge">
<title>5-&gt;A03</title>
<path fill="none" stroke="#7aab8a" d="M476.77,-798C442.7,-785.24 416.62,-763.71 416.62,-727.67 416.62,-727.67 416.62,-727.67 416.62,-533.25 416.62,-468.43 372.24,-438.17 412.62,-387.45"/>
<text text-anchor="start" x="399.62" y="-432.04" font-family="Roboto, sans-serif" font-weight="bold" font-size="14.00">NEIN</text>
</g>
<!-- 6 -->
<g id="node10" class="node">
<title>6</title>
<path fill="#7aab8a" stroke="black" stroke-width="0" d="M881.01,-744.67C881.01,-744.67 456.22,-744.67 456.22,-744.67 450.22,-744.67 444.22,-738.67 444.22,-732.67 444.22,-732.67 444.22,-720.67 444.22,-720.67 444.22,-714.67 450.22,-708.67 456.22,-708.67 456.22,-708.67 881.01,-708.67 881.01,-708.67 887.01,-708.67 893.01,-714.67 893.01,-720.67 893.01,-720.67 893.01,-732.67 893.01,-732.67 893.01,-738.67 887.01,-744.67 881.01,-744.67"/>
<text text-anchor="start" x="458.62" y="-723" font-family="Roboto, sans-serif" font-weight="bold" font-size="14.00">6: </text>
<text text-anchor="start" x="478.12" y="-723" font-family="Roboto, sans-serif" font-size="14.00">Entspricht das Bilanzierungsende der Erwartung des NB?</text>
</g>
<!-- 5&#45;&gt;6 -->
<g id="edge11" class="edge">
<title>5-&gt;6</title>
<path fill="none" stroke="#7aab8a" d="M640.36,-798.1C645.25,-785.91 651.97,-769.16 657.63,-755.05"/>
<polygon fill="#7aab8a" stroke="#7aab8a" points="660.85,-756.43 661.32,-745.85 654.35,-753.82 660.85,-756.43"/>
<text text-anchor="start" x="653.62" y="-767.62" font-family="Roboto, sans-serif" font-weight="bold" font-size="14.00">JA</text>
</g>
<!-- 6&#45;&gt;A03 -->
<g id="edge12" class="edge">
<title>6-&gt;A03</title>
<path fill="none" stroke="#7aab8a" d="M552.69,-708.73C513.57,-695.9 479.62,-673.37 479.62,-633.78 479.62,-633.78 479.62,-633.78 479.62,-483.98 479.62,-419.09 431.51,-389.21 471.62,-338.19"/>
<text text-anchor="start" x="456.62" y="-382.78" font-family="Roboto, sans-serif" font-weight="bold" font-size="14.00">NEIN</text>
</g>
<!-- 7 -->
<g id="node11" class="node">
<title>7</title>
<path fill="#7aab8a" stroke="black" stroke-width="0" d="M1051.26,-655.42C1051.26,-655.42 519.97,-655.42 519.97,-655.42 513.97,-655.42 507.97,-649.42 507.97,-643.42 507.97,-643.42 507.97,-622.14 507.97,-622.14 507.97,-616.14 513.97,-610.14 519.97,-610.14 519.97,-610.14 1051.26,-610.14 1051.26,-610.14 1057.26,-610.14 1063.26,-616.14 1063.26,-622.14 1063.26,-622.14 1063.26,-643.42 1063.26,-643.42 1063.26,-649.42 1057.26,-655.42 1051.26,-655.42"/>
<text text-anchor="start" x="522.37" y="-634.48" font-family="Roboto, sans-serif" font-weight="bold" font-size="14.00">7: </text>
<text text-anchor="start" x="541.87" y="-634.48" font-family="Roboto, sans-serif" font-size="14.00">Entspricht das normierte Profil dem zwischen NB und LF ausgetauschten</text>
<text text-anchor="start" x="522.37" y="-620.48" font-family="Roboto, sans-serif" font-size="14.00">normierten Profil?</text>
</g>
<!-- 6&#45;&gt;7 -->
<g id="edge13" class="edge">
<title>6-&gt;7</title>
<path fill="none" stroke="#7aab8a" d="M690.07,-708.82C706.59,-695.84 729.8,-677.62 749.2,-662.38"/>
<polygon fill="#7aab8a" stroke="#7aab8a" points="751.2,-665.26 756.91,-656.33 746.88,-659.75 751.2,-665.26"/>
<text text-anchor="start" x="733.62" y="-678.37" font-family="Roboto, sans-serif" font-weight="bold" font-size="14.00">JA</text>
</g>
<!-- 7&#45;&gt;A03 -->
<g id="edge14" class="edge">
<title>7-&gt;A03</title>
<path fill="none" stroke="#7aab8a" d="M625.72,-610.21C594.78,-598.96 565.53,-582.09 544.62,-556.89 525.53,-533.9 502.74,-312.09 521.62,-288.93"/>
<text text-anchor="start" x="514.62" y="-333.51" font-family="Roboto, sans-serif" font-weight="bold" font-size="14.00">NEIN</text>
</g>
<!-- 8 -->
<g id="node12" class="node">
<title>8</title>
<path fill="#7aab8a" stroke="black" stroke-width="0" d="M1119.51,-556.89C1119.51,-556.89 565.72,-556.89 565.72,-556.89 559.72,-556.89 553.72,-550.89 553.72,-544.89 553.72,-544.89 553.72,-523.61 553.72,-523.61 553.72,-517.61 559.72,-511.61 565.72,-511.61 565.72,-511.61 1119.51,-511.61 1119.51,-511.61 1125.51,-511.61 1131.51,-517.61 1131.51,-523.61 1131.51,-523.61 1131.51,-544.89 1131.51,-544.89 1131.51,-550.89 1125.51,-556.89 1119.51,-556.89"/>
<text text-anchor="start" x="568.12" y="-535.95" font-family="Roboto, sans-serif" font-weight="bold" font-size="14.00">8: </text>
<text text-anchor="start" x="587.62" y="-535.95" font-family="Roboto, sans-serif" font-size="14.00">Entspricht die Versionsangabe des Profils der zwischen NB und &#220;NB f&#252;r SLS</text>
<text text-anchor="start" x="568.12" y="-521.95" font-family="Roboto, sans-serif" font-size="14.00">ausgetauschten Version des Profils?</text>
</g>
<!-- 7&#45;&gt;8 -->
<g id="edge15" class="edge">
<title>7-&gt;8</title>
<path fill="none" stroke="#7aab8a" d="M798.27,-610.36C805.94,-597.36 815.86,-580.55 824.38,-566.14"/>
<polygon fill="#7aab8a" stroke="#7aab8a" points="827.16,-568.31 829.23,-557.92 821.13,-564.75 827.16,-568.31"/>
<text text-anchor="start" x="816.62" y="-579.84" font-family="Roboto, sans-serif" font-weight="bold" font-size="14.00">JA</text>
</g>
<!-- 8&#45;&gt;A03 -->
<g id="edge16" class="edge">
<title>8-&gt;A03</title>
<path fill="none" stroke="#7aab8a" d="M692.73,-511.63C660.74,-500.47 629.92,-483.65 607.62,-458.36 575.84,-422.34 547,-281.31 577.62,-244.3"/>
<text text-anchor="start" x="564.62" y="-284.25" font-family="Roboto, sans-serif" font-weight="bold" font-size="14.00">NEIN</text>
</g>
<!-- 9 -->
<g id="node13" class="node">
<title>9</title>
<path fill="#7aab8a" stroke="black" stroke-width="0" d="M1178.64,-458.36C1178.64,-458.36 628.59,-458.36 628.59,-458.36 622.59,-458.36 616.59,-452.36 616.59,-446.36 616.59,-446.36 616.59,-425.08 616.59,-425.08 616.59,-419.08 622.59,-413.08 628.59,-413.08 628.59,-413.08 1178.64,-413.08 1178.64,-413.08 1184.64,-413.08 1190.64,-419.08 1190.64,-425.08 1190.64,-425.08 1190.64,-446.36 1190.64,-446.36 1190.64,-452.36 1184.64,-458.36 1178.64,-458.36"/>
<text text-anchor="start" x="630.99" y="-437.42" font-family="Roboto, sans-serif" font-weight="bold" font-size="14.00">9: </text>
<text text-anchor="start" x="650.49" y="-437.42" font-family="Roboto, sans-serif" font-size="14.00">Entspricht die veranschlagte Prognosemenge (JVP) der zwischen NB und LF</text>
<text text-anchor="start" x="630.99" y="-423.42" font-family="Roboto, sans-serif" font-size="14.00">ausgetauschten Prognosemenge?</text>
</g>
<!-- 8&#45;&gt;9 -->
<g id="edge17" class="edge">
<title>8-&gt;9</title>
<path fill="none" stroke="#7aab8a" d="M856.15,-511.83C864.37,-498.83 874.99,-482.02 884.1,-467.61"/>
<polygon fill="#7aab8a" stroke="#7aab8a" points="886.92,-469.69 889.31,-459.36 881.01,-465.95 886.92,-469.69"/>
<text text-anchor="start" x="876.62" y="-481.31" font-family="Roboto, sans-serif" font-weight="bold" font-size="14.00">JA</text>
</g>
<!-- 9&#45;&gt;A03 -->
<g id="edge18" class="edge">
<title>9-&gt;A03</title>
<path fill="none" stroke="#7aab8a" d="M734.03,-413.09C702.47,-401.78 672.56,-384.91 650.62,-359.83 626.89,-332.72 604.01,-228.5 625.62,-199.68"/>
<text text-anchor="start" x="617.62" y="-239.62" font-family="Roboto, sans-serif" font-weight="bold" font-size="14.00">NEIN</text>
</g>
<!-- 10 -->
<g id="node14" class="node">
<title>10</title>
<path fill="#7aab8a" stroke="black" stroke-width="0" d="M1255.51,-359.83C1255.51,-359.83 671.72,-359.83 671.72,-359.83 665.72,-359.83 659.72,-353.83 659.72,-347.83 659.72,-347.83 659.72,-326.55 659.72,-326.55 659.72,-320.55 665.72,-314.55 671.72,-314.55 671.72,-314.55 1255.51,-314.55 1255.51,-314.55 1261.51,-314.55 1267.51,-320.55 1267.51,-326.55 1267.51,-326.55 1267.51,-347.83 1267.51,-347.83 1267.51,-353.83 1261.51,-359.83 1255.51,-359.83"/>
<text text-anchor="start" x="674.12" y="-338.89" font-family="Roboto, sans-serif" font-weight="bold" font-size="14.00">10: </text>
<text text-anchor="start" x="703.37" y="-338.89" font-family="Roboto, sans-serif" font-size="14.00">Entspricht die tats&#228;chlich bilanzierte Menge der erwarteten bilanzierten Menge</text>
<text text-anchor="start" x="674.12" y="-324.89" font-family="Roboto, sans-serif" font-size="14.00">(monatlich gemessene Menge auf Basis von 1/4-h-Werten)?</text>
</g>
<!-- 9&#45;&gt;10 -->
<g id="edge19" class="edge">
<title>9-&gt;10</title>
<path fill="none" stroke="#7aab8a" d="M916.93,-413.3C925.01,-400.3 935.46,-383.49 944.42,-369.08"/>
<polygon fill="#7aab8a" stroke="#7aab8a" points="947.23,-371.18 949.54,-360.84 941.29,-367.48 947.23,-371.18"/>
<text text-anchor="start" x="936.62" y="-382.78" font-family="Roboto, sans-serif" font-weight="bold" font-size="14.00">JA</text>
</g>
<!-- 10&#45;&gt;A03 -->
<g id="edge20" class="edge">
<title>10-&gt;A03</title>
<path fill="none" stroke="#7aab8a" d="M806.47,-314.61C771.74,-303.46 737.59,-286.63 711.62,-261.3 674.52,-225.12 645.92,-192.87 675.62,-150.41"/>
<text text-anchor="start" x="667.62" y="-195" font-family="Roboto, sans-serif" font-weight="bold" font-size="14.00">NEIN</text>
</g>
<!-- 11 -->
<g id="node15" class="node">
<title>11</title>
<path fill="#7aab8a" stroke="black" stroke-width="0" d="M1266.39,-261.3C1266.39,-261.3 732.84,-261.3 732.84,-261.3 726.84,-261.3 720.84,-255.3 720.84,-249.3 720.84,-249.3 720.84,-237.3 720.84,-237.3 720.84,-231.3 726.84,-225.3 732.84,-225.3 732.84,-225.3 1266.39,-225.3 1266.39,-225.3 1272.39,-225.3 1278.39,-231.3 1278.39,-237.3 1278.39,-237.3 1278.39,-249.3 1278.39,-249.3 1278.39,-255.3 1272.39,-261.3 1266.39,-261.3"/>
<text text-anchor="start" x="735.24" y="-239.62" font-family="Roboto, sans-serif" font-weight="bold" font-size="14.00">11: </text>
<text text-anchor="start" x="764.49" y="-239.62" font-family="Roboto, sans-serif" font-size="14.00">Entspricht der Zeitreihentyp dem zwischen NB und LF ausgetauschten?</text>
</g>
<!-- 10&#45;&gt;11 -->
<g id="edge21" class="edge">
<title>10-&gt;11</title>
<path fill="none" stroke="#7aab8a" d="M971.96,-314.88C977.01,-301.99 983.5,-285.44 988.92,-271.6"/>
<polygon fill="#7aab8a" stroke="#7aab8a" points="992.05,-273.2 992.44,-262.62 985.53,-270.65 992.05,-273.2"/>
<text text-anchor="start" x="985.62" y="-284.25" font-family="Roboto, sans-serif" font-weight="bold" font-size="14.00">JA</text>
</g>
<!-- 11&#45;&gt;A03 -->
<g id="edge22" class="edge">
<title>11-&gt;A03</title>
<path fill="none" stroke="#7aab8a" d="M884.4,-225.33C821.16,-213.57 751.44,-195.76 730.62,-172.05 709.65,-148.18 702.66,-126.64 721.62,-101.14"/>
<text text-anchor="start" x="730.62" y="-145.73" font-family="Roboto, sans-serif" font-weight="bold" font-size="14.00">NEIN</text>
</g>
<!-- 12 -->
<g id="node16" class="node">
<title>12</title>
<path fill="#7aab8a" stroke="black" stroke-width="0" d="M1365.01,-172.05C1365.01,-172.05 790.22,-172.05 790.22,-172.05 784.22,-172.05 778.22,-166.05 778.22,-160.05 778.22,-160.05 778.22,-138.77 778.22,-138.77 778.22,-132.77 784.22,-126.77 790.22,-126.77 790.22,-126.77 1365.01,-126.77 1365.01,-126.77 1371.01,-126.77 1377.01,-132.77 1377.01,-138.77 1377.01,-138.77 1377.01,-160.05 1377.01,-160.05 1377.01,-166.05 1371.01,-172.05 1365.01,-172.05"/>
<text text-anchor="start" x="792.62" y="-151.11" font-family="Roboto, sans-serif" font-weight="bold" font-size="14.00">12: </text>
<text text-anchor="start" x="821.87" y="-151.11" font-family="Roboto, sans-serif" font-size="14.00">Ist der &#220;bertrag der Energiemenge der Marktlokation aus der &#220;NB-DZR in die</text>
<text text-anchor="start" x="792.62" y="-137.11" font-family="Roboto, sans-serif" font-size="14.00">NB-DZR berechtigt?</text>
</g>
<!-- 11&#45;&gt;12 -->
<g id="edge23" class="edge">
<title>11-&gt;12</title>
<path fill="none" stroke="#7aab8a" d="M1013.92,-225.45C1024.58,-212.89 1039.43,-195.4 1052.1,-180.46"/>
<polygon fill="#7aab8a" stroke="#7aab8a" points="1054.49,-183.07 1058.29,-173.18 1049.15,-178.54 1054.49,-183.07"/>
<text text-anchor="start" x="1042.62" y="-195" font-family="Roboto, sans-serif" font-weight="bold" font-size="14.00">JA</text>
</g>
<!-- 12&#45;&gt;A03 -->
<g id="edge24" class="edge">
<title>12-&gt;A03</title>
<path fill="none" stroke="#7aab8a" d="M1021.99,-126.81C985.92,-112.81 937.85,-94.15 895.03,-77.52"/>
<polygon fill="#7aab8a" stroke="#7aab8a" points="896.56,-74.36 885.97,-74 894.02,-80.89 896.56,-74.36"/>
<text text-anchor="start" x="968.62" y="-96.47" font-family="Roboto, sans-serif" font-weight="bold" font-size="14.00">NEIN</text>
</g>
<!-- Ende -->
<g id="node17" class="node">
<title>Ende</title>
<path fill="#7a8da1" stroke="black" stroke-width="0" d="M1097.64,-54.76C1097.64,-54.76 1057.59,-54.76 1057.59,-54.76 1051.59,-54.76 1045.59,-48.76 1045.59,-42.76 1045.59,-42.76 1045.59,-30.76 1045.59,-30.76 1045.59,-24.76 1051.59,-18.76 1057.59,-18.76 1057.59,-18.76 1097.64,-18.76 1097.64,-18.76 1103.64,-18.76 1109.64,-24.76 1109.64,-30.76 1109.64,-30.76 1109.64,-42.76 1109.64,-42.76 1109.64,-48.76 1103.64,-54.76 1097.64,-54.76"/>
<text text-anchor="middle" x="1077.62" y="-32.09" font-family="Roboto, sans-serif" font-size="14.00">Ende</text>
</g>
<!-- 12&#45;&gt;Ende -->
<g id="edge25" class="edge">
<title>12-&gt;Ende</title>
<path fill="none" stroke="#7aab8a" d="M1077.62,-126.81C1077.62,-109.48 1077.62,-85 1077.62,-66.09"/>
<polygon fill="#7aab8a" stroke="#7aab8a" points="1081.12,-66.12 1077.62,-56.12 1074.12,-66.12 1081.12,-66.12"/>
<text text-anchor="start" x="1077.62" y="-96.47" font-family="Roboto, sans-serif" font-weight="bold" font-size="14.00">JA</text>
</g>
</g>
</svg>
  </g>
</svg>
  </g>
</svg>
