<?xml version='1.0' encoding='ASCII' standalone='yes'?>
<svg xmlns="http://www.w3.org/2000/svg" xmlns:xlink="http://www.w3.org/1999/xlink" version="1.1" width="1874.6666666666667px" viewBox="0 0 1874.6666666666667 1673.3333333333333" height="1673.3333333333333px">
  <g>
    <svg version="1.1" width="1874.6666666666667px" viewBox="0 0 1874.6666666666667 1673.3333333333333" height="1673.3333333333333px">
  <polygon fill="#c2cee9" points="0,0 1874.6666666666667,0 1874.6666666666667,1673.3333333333333 0,1673.3333333333333"/><g>
    <g transform="translate(254.94696329672388, 167.3333333333333) scale(1 1) translate(0, 0) scale(2.356143809255609 2.356143809255609) "><!-- note that I manually added the width and height attribute to the root node
  https://chatgpt.com/share/678e3028-70cc-800b-a296-782714735772
  -->
  <defs>
    <style>.cls-1{fill:#fff;}</style>
  </defs>
  <path class="cls-1" d="M122.44,531.2h-56.1c-11,0-19.9-9.12-19.46-20.11C57.47,243.89,278.15,29.78,547.91,29.78v56.02c0,10.98-8.69,19.89-19.66,20.39-225.51,10.31-405.8,197-405.8,425Z"/>
  <path class="cls-1" d="M273.78,531.2h-55.93c-11.23,0-20.09-9.48-19.43-20.69,10.74-183.44,163.39-329.39,349.48-329.39v56.26c0,10.71-8.27,19.62-18.96,20.35-142.35,9.77-255.17,128.69-255.17,273.46Z"/>
  <path class="cls-1" d="M425.77,531.2h-55.45c-11.65,0-20.6-10.17-19.33-21.75,10.87-99.03,95.03-176.34,196.92-176.34v57.01c0,10.05-7.28,18.75-17.23,20.16-59.22,8.4-104.91,59.42-104.91,120.92Z"/>
</g>
    <svg width="1406pt" height="1255pt" viewBox="0.00 0.00 1406.27 1255.21">
<g id="graph0" class="graph" transform="scale(1 1) rotate(0) translate(4 1251.21)">
<title>D</title>
<text text-anchor="start" x="222.51" y="-1227.11" font-family="Roboto, sans-serif" font-weight="bold" font-size="18.00">MaBiS</text>
<text text-anchor="start" x="222.51" y="-1197.01" font-family="Roboto, sans-serif" font-weight="bold" font-size="16.00">7.46.1: AD: Aktivierung eines MaBiS-Z&#228;hlpunkts f&#252;r den Deltazeitreihen&#252;bertrag vom &#220;NB an BIKO und NB</text>
<!-- Start -->
<g id="node1" class="node">
<title>Start</title>
<path fill="#7a8da1" stroke="black" stroke-width="0" d="M367.39,-1149.21C367.39,-1149.21 221.59,-1149.21 221.59,-1149.21 215.59,-1149.21 209.59,-1143.21 209.59,-1137.21 209.59,-1137.21 209.59,-1117.93 209.59,-1117.93 209.59,-1111.93 215.59,-1105.93 221.59,-1105.93 221.59,-1105.93 367.39,-1105.93 367.39,-1105.93 373.39,-1105.93 379.39,-1111.93 379.39,-1117.93 379.39,-1117.93 379.39,-1137.21 379.39,-1137.21 379.39,-1143.21 373.39,-1149.21 367.39,-1149.21"/>
<text text-anchor="start" x="266.74" y="-1128.27" font-family="Roboto, sans-serif" font-weight="bold" font-size="14.00">E_0027</text>
<text text-anchor="start" x="223.99" y="-1116.17" font-family="Roboto, sans-serif" font-weight="bold" text-decoration="underline" font-size="12.00">Pr&#252;fende Rolle:</text>
<text text-anchor="start" x="327.49" y="-1116.17" font-family="Roboto, sans-serif" font-weight="bold" font-size="12.00"> BIKO</text>
</g>
<!-- 1 -->
<g id="node2" class="node">
<title>1</title>
<path fill="#7aab8a" stroke="black" stroke-width="0" d="M537.64,-1068.93C537.64,-1068.93 51.34,-1068.93 51.34,-1068.93 45.34,-1068.93 39.34,-1062.93 39.34,-1056.93 39.34,-1056.93 39.34,-1044.93 39.34,-1044.93 39.34,-1038.93 45.34,-1032.93 51.34,-1032.93 51.34,-1032.93 537.64,-1032.93 537.64,-1032.93 543.64,-1032.93 549.64,-1038.93 549.64,-1044.93 549.64,-1044.93 549.64,-1056.93 549.64,-1056.93 549.64,-1062.93 543.64,-1068.93 537.64,-1068.93"/>
<text text-anchor="start" x="53.74" y="-1047.25" font-family="Roboto, sans-serif" font-weight="bold" font-size="14.00">1: </text>
<text text-anchor="start" x="73.24" y="-1047.25" font-family="Roboto, sans-serif" font-size="14.00">Erfolgt die Aktivierung nach Ablauf der Clearingfrist f&#252;r die KBKA?</text>
</g>
<!-- Start&#45;&gt;1 -->
<g id="edge1" class="edge">
<title>Start-&gt;1</title>
<path fill="none" stroke="black" d="M294.49,-1106.17C294.49,-1098.1 294.49,-1088.69 294.49,-1080"/>
<polygon fill="black" stroke="black" points="297.99,-1080.29 294.49,-1070.29 290.99,-1080.29 297.99,-1080.29"/>
</g>
<!-- A01 -->
<g id="node3" class="node">
<title>A01</title>
<path fill="#cfb986" stroke="black" stroke-width="0" d="M129.1,-979.68C129.1,-979.68 13.88,-979.68 13.88,-979.68 7.88,-979.68 1.88,-973.68 1.88,-967.68 1.88,-967.68 1.88,-930.16 1.88,-930.16 1.88,-924.16 7.88,-918.16 13.88,-918.16 13.88,-918.16 129.1,-918.16 129.1,-918.16 135.1,-918.16 141.1,-924.16 141.1,-930.16 141.1,-930.16 141.1,-967.68 141.1,-967.68 141.1,-973.68 135.1,-979.68 129.1,-979.68"/>
<text text-anchor="start" x="14.11" y="-961.62" font-family="Roboto, sans-serif" font-weight="bold" font-size="14.00">A01</text>
<text text-anchor="start" x="14.11" y="-949.52" font-family="Roboto, sans-serif" text-decoration="underline" font-size="12.00">Hinweis:</text>
<text text-anchor="start" x="14.11" y="-937.52" font-family="Roboto, sans-serif" font-size="12.00">Cluster: Ablehnung</text>
<text text-anchor="start" x="14.11" y="-925.52" font-family="Roboto, sans-serif" font-size="12.00">Frist&#252;berschreitung</text>
</g>
<!-- 1&#45;&gt;A01 -->
<g id="edge2" class="edge">
<title>1-&gt;A01</title>
<path fill="none" stroke="#7aab8a" d="M256.66,-1032.96C226.9,-1019.62 184.47,-1000.59 147.73,-984.11"/>
<polygon fill="#7aab8a" stroke="#7aab8a" points="149.47,-981.06 138.92,-980.16 146.61,-987.44 149.47,-981.06"/>
<text text-anchor="start" x="215.49" y="-1002.63" font-family="Roboto, sans-serif" font-weight="bold" font-size="14.00">JA</text>
</g>
<!-- 2 -->
<g id="node4" class="node">
<title>2</title>
<path fill="#7aab8a" stroke="black" stroke-width="0" d="M568.01,-966.92C568.01,-966.92 170.97,-966.92 170.97,-966.92 164.97,-966.92 158.97,-960.92 158.97,-954.92 158.97,-954.92 158.97,-942.92 158.97,-942.92 158.97,-936.92 164.97,-930.92 170.97,-930.92 170.97,-930.92 568.01,-930.92 568.01,-930.92 574.01,-930.92 580.01,-936.92 580.01,-942.92 580.01,-942.92 580.01,-954.92 580.01,-954.92 580.01,-960.92 574.01,-966.92 568.01,-966.92"/>
<text text-anchor="start" x="173.37" y="-945.25" font-family="Roboto, sans-serif" font-weight="bold" font-size="14.00">2: </text>
<text text-anchor="start" x="192.87" y="-945.25" font-family="Roboto, sans-serif" font-size="14.00">Erfolgt die Aktivierung zum Monatsersten 00:00 Uhr?</text>
</g>
<!-- 1&#45;&gt;2 -->
<g id="edge3" class="edge">
<title>1-&gt;2</title>
<path fill="none" stroke="#7aab8a" d="M307.21,-1032.96C319.03,-1017.21 336.78,-993.53 350.32,-975.49"/>
<polygon fill="#7aab8a" stroke="#7aab8a" points="352.85,-977.95 356.05,-967.85 347.25,-973.75 352.85,-977.95"/>
<text text-anchor="start" x="331.49" y="-1002.63" font-family="Roboto, sans-serif" font-weight="bold" font-size="14.00">NEIN</text>
</g>
<!-- A02 -->
<g id="node5" class="node">
<title>A02</title>
<path fill="#cfb986" stroke="black" stroke-width="0" d="M239.48,-864.91C239.48,-864.91 33.5,-864.91 33.5,-864.91 27.5,-864.91 21.5,-858.91 21.5,-852.91 21.5,-852.91 21.5,-815.39 21.5,-815.39 21.5,-809.39 27.5,-803.39 33.5,-803.39 33.5,-803.39 239.48,-803.39 239.48,-803.39 245.48,-803.39 251.48,-809.39 251.48,-815.39 251.48,-815.39 251.48,-852.91 251.48,-852.91 251.48,-858.91 245.48,-864.91 239.48,-864.91"/>
<text text-anchor="start" x="33.74" y="-846.85" font-family="Roboto, sans-serif" font-weight="bold" font-size="14.00">A02</text>
<text text-anchor="start" x="33.74" y="-834.75" font-family="Roboto, sans-serif" text-decoration="underline" font-size="12.00">Hinweis:</text>
<text text-anchor="start" x="33.74" y="-822.75" font-family="Roboto, sans-serif" font-size="12.00">Cluster: Ablehnung</text>
<text text-anchor="start" x="33.74" y="-810.75" font-family="Roboto, sans-serif" font-size="12.00">Gew&#228;hlter Zeitpunkt nicht zul&#228;ssig</text>
</g>
<!-- 2&#45;&gt;A02 -->
<g id="edge4" class="edge">
<title>2-&gt;A02</title>
<path fill="none" stroke="#7aab8a" d="M334.61,-931.04C301.3,-914.92 250.1,-890.14 208.1,-869.81"/>
<polygon fill="#7aab8a" stroke="#7aab8a" points="209.8,-866.74 199.28,-865.54 206.75,-873.04 209.8,-866.74"/>
<text text-anchor="start" x="266.49" y="-887.86" font-family="Roboto, sans-serif" font-weight="bold" font-size="14.00">NEIN</text>
</g>
<!-- 3 -->
<g id="node6" class="node">
<title>3</title>
<path fill="#7aab8a" stroke="black" stroke-width="0" d="M571.39,-852.15C571.39,-852.15 281.59,-852.15 281.59,-852.15 275.59,-852.15 269.59,-846.15 269.59,-840.15 269.59,-840.15 269.59,-828.15 269.59,-828.15 269.59,-822.15 275.59,-816.15 281.59,-816.15 281.59,-816.15 571.39,-816.15 571.39,-816.15 577.39,-816.15 583.39,-822.15 583.39,-828.15 583.39,-828.15 583.39,-840.15 583.39,-840.15 583.39,-846.15 577.39,-852.15 571.39,-852.15"/>
<text text-anchor="start" x="283.99" y="-830.48" font-family="Roboto, sans-serif" font-weight="bold" font-size="14.00">3: </text>
<text text-anchor="start" x="303.49" y="-830.48" font-family="Roboto, sans-serif" font-size="14.00">Ist die richtige Regelzone angegeben?</text>
</g>
<!-- 2&#45;&gt;3 -->
<g id="edge5" class="edge">
<title>2-&gt;3</title>
<path fill="none" stroke="#7aab8a" d="M377.9,-931.28C387.12,-913.04 402.05,-883.51 412.92,-861.99"/>
<polygon fill="#7aab8a" stroke="#7aab8a" points="415.97,-863.71 417.36,-853.21 409.73,-860.55 415.97,-863.71"/>
<text text-anchor="start" x="400.49" y="-887.86" font-family="Roboto, sans-serif" font-weight="bold" font-size="14.00">JA</text>
</g>
<!-- A03 -->
<g id="node7" class="node">
<title>A03</title>
<path fill="#cfb986" stroke="black" stroke-width="0" d="M124.98,-750.14C124.98,-750.14 12,-750.14 12,-750.14 6,-750.14 0,-744.14 0,-738.14 0,-738.14 0,-700.62 0,-700.62 0,-694.62 6,-688.62 12,-688.62 12,-688.62 124.98,-688.62 124.98,-688.62 130.98,-688.62 136.98,-694.62 136.98,-700.62 136.98,-700.62 136.98,-738.14 136.98,-738.14 136.98,-744.14 130.98,-750.14 124.98,-750.14"/>
<text text-anchor="start" x="12.24" y="-732.08" font-family="Roboto, sans-serif" font-weight="bold" font-size="14.00">A03</text>
<text text-anchor="start" x="12.24" y="-719.98" font-family="Roboto, sans-serif" text-decoration="underline" font-size="12.00">Hinweis:</text>
<text text-anchor="start" x="12.24" y="-707.98" font-family="Roboto, sans-serif" font-size="12.00">Cluster: Ablehnung</text>
<text text-anchor="start" x="12.24" y="-695.98" font-family="Roboto, sans-serif" font-size="12.00">Regelzone falsch</text>
</g>
<!-- 3&#45;&gt;A03 -->
<g id="edge6" class="edge">
<title>3-&gt;A03</title>
<path fill="none" stroke="#7aab8a" d="M364.34,-816.19C309.76,-800.97 228.08,-777.39 147.69,-750.45"/>
<polygon fill="#7aab8a" stroke="#7aab8a" points="148.9,-747.17 138.3,-747.29 146.66,-753.8 148.9,-747.17"/>
<text text-anchor="start" x="253.49" y="-773.09" font-family="Roboto, sans-serif" font-weight="bold" font-size="14.00">NEIN</text>
</g>
<!-- 4 -->
<g id="node8" class="node">
<title>4</title>
<path fill="#7aab8a" stroke="black" stroke-width="0" d="M795.51,-737.38C795.51,-737.38 167.47,-737.38 167.47,-737.38 161.47,-737.38 155.47,-731.38 155.47,-725.38 155.47,-725.38 155.47,-713.38 155.47,-713.38 155.47,-707.38 161.47,-701.38 167.47,-701.38 167.47,-701.38 795.51,-701.38 795.51,-701.38 801.51,-701.38 807.51,-707.38 807.51,-713.38 807.51,-713.38 807.51,-725.38 807.51,-725.38 807.51,-731.38 801.51,-737.38 795.51,-737.38"/>
<text text-anchor="start" x="169.87" y="-715.71" font-family="Roboto, sans-serif" font-weight="bold" font-size="14.00">4: </text>
<text text-anchor="start" x="189.37" y="-715.71" font-family="Roboto, sans-serif" font-size="14.00">Ist das Bilanzierungsgebiet zum Aktivierungsbeginn in der Regelzone des BIKO g&#252;ltig?</text>
</g>
<!-- 3&#45;&gt;4 -->
<g id="edge7" class="edge">
<title>3-&gt;4</title>
<path fill="none" stroke="#7aab8a" d="M434.61,-816.51C443.5,-798.27 457.9,-768.74 468.4,-747.22"/>
<polygon fill="#7aab8a" stroke="#7aab8a" points="471.44,-748.97 472.68,-738.45 465.15,-745.9 471.44,-748.97"/>
<text text-anchor="start" x="456.49" y="-773.09" font-family="Roboto, sans-serif" font-weight="bold" font-size="14.00">JA</text>
</g>
<!-- A04 -->
<g id="node9" class="node">
<title>A04</title>
<path fill="#cfb986" stroke="black" stroke-width="0" d="M217.1,-635.37C217.1,-635.37 29.88,-635.37 29.88,-635.37 23.88,-635.37 17.88,-629.37 17.88,-623.37 17.88,-623.37 17.88,-585.85 17.88,-585.85 17.88,-579.85 23.88,-573.85 29.88,-573.85 29.88,-573.85 217.1,-573.85 217.1,-573.85 223.1,-573.85 229.1,-579.85 229.1,-585.85 229.1,-585.85 229.1,-623.37 229.1,-623.37 229.1,-629.37 223.1,-635.37 217.1,-635.37"/>
<text text-anchor="start" x="30.11" y="-617.31" font-family="Roboto, sans-serif" font-weight="bold" font-size="14.00">A04</text>
<text text-anchor="start" x="30.11" y="-605.21" font-family="Roboto, sans-serif" text-decoration="underline" font-size="12.00">Hinweis:</text>
<text text-anchor="start" x="30.11" y="-593.21" font-family="Roboto, sans-serif" font-size="12.00">Cluster: Ablehnung</text>
<text text-anchor="start" x="30.11" y="-581.21" font-family="Roboto, sans-serif" font-size="12.00">Bilanzierungsgebiet nicht g&#252;ltig</text>
</g>
<!-- 4&#45;&gt;A04 -->
<g id="edge8" class="edge">
<title>4-&gt;A04</title>
<path fill="none" stroke="#7aab8a" d="M427.89,-701.5C375.42,-684.97 294.05,-659.34 228.63,-638.73"/>
<polygon fill="#7aab8a" stroke="#7aab8a" points="229.9,-635.46 219.31,-635.79 227.79,-642.14 229.9,-635.46"/>
<text text-anchor="start" x="323.49" y="-658.32" font-family="Roboto, sans-serif" font-weight="bold" font-size="14.00">NEIN</text>
</g>
<!-- 5 -->
<g id="node10" class="node">
<title>5</title>
<path fill="#7aab8a" stroke="black" stroke-width="0" d="M807.39,-627.25C807.39,-627.25 259.59,-627.25 259.59,-627.25 253.59,-627.25 247.59,-621.25 247.59,-615.25 247.59,-615.25 247.59,-593.97 247.59,-593.97 247.59,-587.97 253.59,-581.97 259.59,-581.97 259.59,-581.97 807.39,-581.97 807.39,-581.97 813.39,-581.97 819.39,-587.97 819.39,-593.97 819.39,-593.97 819.39,-615.25 819.39,-615.25 819.39,-621.25 813.39,-627.25 807.39,-627.25"/>
<text text-anchor="start" x="261.99" y="-606.31" font-family="Roboto, sans-serif" font-weight="bold" font-size="14.00">5: </text>
<text text-anchor="start" x="281.49" y="-606.31" font-family="Roboto, sans-serif" font-size="14.00">Existiert bereits ein abweichendes Tupel aus Aggregationsverantwortlicher,</text>
<text text-anchor="start" x="261.99" y="-592.31" font-family="Roboto, sans-serif" font-size="14.00">Bilanzierungsgebiet, Regelzone und ZRT unter der ID des MaBiS-ZP?</text>
</g>
<!-- 4&#45;&gt;5 -->
<g id="edge9" class="edge">
<title>4-&gt;5</title>
<path fill="none" stroke="#7aab8a" d="M489.16,-701.74C496.96,-684.84 509.22,-658.24 518.88,-637.3"/>
<polygon fill="#7aab8a" stroke="#7aab8a" points="522.01,-638.87 523.02,-628.32 515.65,-635.94 522.01,-638.87"/>
<text text-anchor="start" x="510.49" y="-658.32" font-family="Roboto, sans-serif" font-weight="bold" font-size="14.00">JA</text>
</g>
<!-- A05 -->
<g id="node11" class="node">
<title>A05</title>
<path fill="#cfb986" stroke="black" stroke-width="0" d="M438.73,-520.6C438.73,-520.6 180.25,-520.6 180.25,-520.6 174.25,-520.6 168.25,-514.6 168.25,-508.6 168.25,-508.6 168.25,-471.08 168.25,-471.08 168.25,-465.08 174.25,-459.08 180.25,-459.08 180.25,-459.08 438.73,-459.08 438.73,-459.08 444.73,-459.08 450.73,-465.08 450.73,-471.08 450.73,-471.08 450.73,-508.6 450.73,-508.6 450.73,-514.6 444.73,-520.6 438.73,-520.6"/>
<text text-anchor="start" x="180.49" y="-502.54" font-family="Roboto, sans-serif" font-weight="bold" font-size="14.00">A05</text>
<text text-anchor="start" x="180.49" y="-490.44" font-family="Roboto, sans-serif" text-decoration="underline" font-size="12.00">Hinweis:</text>
<text text-anchor="start" x="180.49" y="-478.44" font-family="Roboto, sans-serif" font-size="12.00">Cluster: Ablehnung</text>
<text text-anchor="start" x="180.49" y="-466.44" font-family="Roboto, sans-serif" font-size="12.00">Abweichender MaBiS-ZP bereits vorhanden</text>
</g>
<!-- 5&#45;&gt;A05 -->
<g id="edge10" class="edge">
<title>5-&gt;A05</title>
<path fill="none" stroke="#7aab8a" d="M490.57,-582C458.87,-566.04 415.05,-543.98 378.46,-525.56"/>
<polygon fill="#7aab8a" stroke="#7aab8a" points="380.21,-522.52 369.7,-521.15 377.06,-528.78 380.21,-522.52"/>
<text text-anchor="start" x="434.49" y="-543.55" font-family="Roboto, sans-serif" font-weight="bold" font-size="14.00">JA</text>
</g>
<!-- 6 -->
<g id="node12" class="node">
<title>6</title>
<path fill="#7aab8a" stroke="black" stroke-width="0" d="M1024.14,-512.48C1024.14,-512.48 480.84,-512.48 480.84,-512.48 474.84,-512.48 468.84,-506.48 468.84,-500.48 468.84,-500.48 468.84,-479.2 468.84,-479.2 468.84,-473.2 474.84,-467.2 480.84,-467.2 480.84,-467.2 1024.14,-467.2 1024.14,-467.2 1030.14,-467.2 1036.14,-473.2 1036.14,-479.2 1036.14,-479.2 1036.14,-500.48 1036.14,-500.48 1036.14,-506.48 1030.14,-512.48 1024.14,-512.48"/>
<text text-anchor="start" x="483.24" y="-491.54" font-family="Roboto, sans-serif" font-weight="bold" font-size="14.00">6: </text>
<text text-anchor="start" x="502.74" y="-491.54" font-family="Roboto, sans-serif" font-size="14.00">Existiert bereits f&#252;r das genannte Tupel aus Aggregationsverantwortlicher,</text>
<text text-anchor="start" x="483.24" y="-477.54" font-family="Roboto, sans-serif" font-size="14.00">Bilanzierungsgebiet, Regelzone und ZRT eine abweichende ID des MaBiS-ZP?</text>
</g>
<!-- 5&#45;&gt;6 -->
<g id="edge11" class="edge">
<title>5-&gt;6</title>
<path fill="none" stroke="#7aab8a" d="M575.46,-582C611.14,-563.62 662.53,-537.16 700.75,-517.48"/>
<polygon fill="#7aab8a" stroke="#7aab8a" points="702.03,-520.76 709.32,-513.07 698.83,-514.54 702.03,-520.76"/>
<text text-anchor="start" x="655.49" y="-543.55" font-family="Roboto, sans-serif" font-weight="bold" font-size="14.00">NEIN</text>
</g>
<!-- A06 -->
<g id="node13" class="node">
<title>A06</title>
<path fill="#cfb986" stroke="black" stroke-width="0" d="M730.23,-405.83C730.23,-405.83 426.75,-405.83 426.75,-405.83 420.75,-405.83 414.75,-399.83 414.75,-393.83 414.75,-393.83 414.75,-356.31 414.75,-356.31 414.75,-350.31 420.75,-344.31 426.75,-344.31 426.75,-344.31 730.23,-344.31 730.23,-344.31 736.23,-344.31 742.23,-350.31 742.23,-356.31 742.23,-356.31 742.23,-393.83 742.23,-393.83 742.23,-399.83 736.23,-405.83 730.23,-405.83"/>
<text text-anchor="start" x="426.99" y="-387.77" font-family="Roboto, sans-serif" font-weight="bold" font-size="14.00">A06</text>
<text text-anchor="start" x="426.99" y="-375.67" font-family="Roboto, sans-serif" text-decoration="underline" font-size="12.00">Hinweis:</text>
<text text-anchor="start" x="426.99" y="-363.67" font-family="Roboto, sans-serif" font-size="12.00">Cluster: Ablehnung</text>
<text text-anchor="start" x="426.99" y="-351.67" font-family="Roboto, sans-serif" font-size="12.00">Abweichende ID zum MaBiS-ZP bereits vor-handen</text>
</g>
<!-- 6&#45;&gt;A06 -->
<g id="edge12" class="edge">
<title>6-&gt;A06</title>
<path fill="none" stroke="#7aab8a" d="M719.35,-467.36C695.17,-451.69 661.83,-430.08 633.65,-411.82"/>
<polygon fill="#7aab8a" stroke="#7aab8a" points="635.88,-409.1 625.59,-406.6 632.08,-414.97 635.88,-409.1"/>
<text text-anchor="start" x="675.49" y="-428.78" font-family="Roboto, sans-serif" font-weight="bold" font-size="14.00">JA</text>
</g>
<!-- 7 -->
<g id="node14" class="node">
<title>7</title>
<path fill="#7aab8a" stroke="black" stroke-width="0" d="M1132.27,-393.07C1132.27,-393.07 772.72,-393.07 772.72,-393.07 766.72,-393.07 760.72,-387.07 760.72,-381.07 760.72,-381.07 760.72,-369.07 760.72,-369.07 760.72,-363.07 766.72,-357.07 772.72,-357.07 772.72,-357.07 1132.27,-357.07 1132.27,-357.07 1138.27,-357.07 1144.27,-363.07 1144.27,-369.07 1144.27,-369.07 1144.27,-381.07 1144.27,-381.07 1144.27,-387.07 1138.27,-393.07 1132.27,-393.07"/>
<text text-anchor="start" x="775.12" y="-371.39" font-family="Roboto, sans-serif" font-weight="bold" font-size="14.00">7: </text>
<text text-anchor="start" x="794.62" y="-371.39" font-family="Roboto, sans-serif" font-size="14.00">Ist der &#220;NB zur Aktivierung des ZRT berechtigt?</text>
</g>
<!-- 6&#45;&gt;7 -->
<g id="edge13" class="edge">
<title>6-&gt;7</title>
<path fill="none" stroke="#7aab8a" d="M790.58,-467.36C825.45,-447.7 876.87,-418.71 912.36,-398.7"/>
<polygon fill="#7aab8a" stroke="#7aab8a" points="914.06,-401.75 921.06,-393.79 910.63,-395.66 914.06,-401.75"/>
<text text-anchor="start" x="863.49" y="-428.78" font-family="Roboto, sans-serif" font-weight="bold" font-size="14.00">NEIN</text>
</g>
<!-- A07 -->
<g id="node15" class="node">
<title>A07</title>
<path fill="#cfb986" stroke="black" stroke-width="0" d="M897.73,-291.06C897.73,-291.06 705.25,-291.06 705.25,-291.06 699.25,-291.06 693.25,-285.06 693.25,-279.06 693.25,-279.06 693.25,-241.54 693.25,-241.54 693.25,-235.54 699.25,-229.54 705.25,-229.54 705.25,-229.54 897.73,-229.54 897.73,-229.54 903.73,-229.54 909.73,-235.54 909.73,-241.54 909.73,-241.54 909.73,-279.06 909.73,-279.06 909.73,-285.06 903.73,-291.06 897.73,-291.06"/>
<text text-anchor="start" x="705.49" y="-273" font-family="Roboto, sans-serif" font-weight="bold" font-size="14.00">A07</text>
<text text-anchor="start" x="705.49" y="-260.9" font-family="Roboto, sans-serif" text-decoration="underline" font-size="12.00">Hinweis:</text>
<text text-anchor="start" x="705.49" y="-248.9" font-family="Roboto, sans-serif" font-size="12.00">Cluster: Ablehnung</text>
<text text-anchor="start" x="705.49" y="-236.9" font-family="Roboto, sans-serif" font-size="12.00">ZRT Aktivierung nicht berechtigt</text>
</g>
<!-- 7&#45;&gt;A07 -->
<g id="edge14" class="edge">
<title>7-&gt;A07</title>
<path fill="none" stroke="#7aab8a" d="M929.88,-357.19C908.98,-341.58 877.21,-317.85 850.51,-297.91"/>
<polygon fill="#7aab8a" stroke="#7aab8a" points="852.62,-295.11 842.51,-291.93 848.43,-300.72 852.62,-295.11"/>
<text text-anchor="start" x="885.49" y="-314.01" font-family="Roboto, sans-serif" font-weight="bold" font-size="14.00">NEIN</text>
</g>
<!-- 8 -->
<g id="node16" class="node">
<title>8</title>
<path fill="#7aab8a" stroke="black" stroke-width="0" d="M1206.77,-278.3C1206.77,-278.3 940.22,-278.3 940.22,-278.3 934.22,-278.3 928.22,-272.3 928.22,-266.3 928.22,-266.3 928.22,-254.3 928.22,-254.3 928.22,-248.3 934.22,-242.3 940.22,-242.3 940.22,-242.3 1206.77,-242.3 1206.77,-242.3 1212.77,-242.3 1218.77,-248.3 1218.77,-254.3 1218.77,-254.3 1218.77,-266.3 1218.77,-266.3 1218.77,-272.3 1212.77,-278.3 1206.77,-278.3"/>
<text text-anchor="start" x="942.62" y="-256.62" font-family="Roboto, sans-serif" font-weight="bold" font-size="14.00">8: </text>
<text text-anchor="start" x="962.12" y="-256.62" font-family="Roboto, sans-serif" font-size="14.00">Passt die OBIS-Kennzahl zum ZRT?</text>
</g>
<!-- 7&#45;&gt;8 -->
<g id="edge15" class="edge">
<title>7-&gt;8</title>
<path fill="none" stroke="#7aab8a" d="M970.6,-357.19C990.83,-338.34 1023.76,-307.65 1046.91,-286.08"/>
<polygon fill="#7aab8a" stroke="#7aab8a" points="1049.21,-288.71 1054.14,-279.33 1044.44,-283.59 1049.21,-288.71"/>
<text text-anchor="start" x="1019.49" y="-314.01" font-family="Roboto, sans-serif" font-weight="bold" font-size="14.00">JA</text>
</g>
<!-- A08 -->
<g id="node17" class="node">
<title>A08</title>
<path fill="#cfb986" stroke="black" stroke-width="0" d="M864.48,-176.29C864.48,-176.29 748.5,-176.29 748.5,-176.29 742.5,-176.29 736.5,-170.29 736.5,-164.29 736.5,-164.29 736.5,-126.77 736.5,-126.77 736.5,-120.77 742.5,-114.77 748.5,-114.77 748.5,-114.77 864.48,-114.77 864.48,-114.77 870.48,-114.77 876.48,-120.77 876.48,-126.77 876.48,-126.77 876.48,-164.29 876.48,-164.29 876.48,-170.29 870.48,-176.29 864.48,-176.29"/>
<text text-anchor="start" x="748.74" y="-158.23" font-family="Roboto, sans-serif" font-weight="bold" font-size="14.00">A08</text>
<text text-anchor="start" x="748.74" y="-146.13" font-family="Roboto, sans-serif" text-decoration="underline" font-size="12.00">Hinweis:</text>
<text text-anchor="start" x="748.74" y="-134.13" font-family="Roboto, sans-serif" font-size="12.00">Cluster: Ablehnung</text>
<text text-anchor="start" x="748.74" y="-122.13" font-family="Roboto, sans-serif" font-size="12.00">OBIS nicht passend</text>
</g>
<!-- 8&#45;&gt;A08 -->
<g id="edge16" class="edge">
<title>8-&gt;A08</title>
<path fill="none" stroke="#7aab8a" d="M1033.52,-242.42C994.89,-226.1 935.27,-200.92 886.82,-180.46"/>
<polygon fill="#7aab8a" stroke="#7aab8a" points="888.32,-177.29 877.74,-176.62 885.59,-183.74 888.32,-177.29"/>
<text text-anchor="start" x="955.49" y="-199.24" font-family="Roboto, sans-serif" font-weight="bold" font-size="14.00">NEIN</text>
</g>
<!-- 9 -->
<g id="node18" class="node">
<title>9</title>
<path fill="#7aab8a" stroke="black" stroke-width="0" d="M1386.27,-163.53C1386.27,-163.53 906.72,-163.53 906.72,-163.53 900.72,-163.53 894.72,-157.53 894.72,-151.53 894.72,-151.53 894.72,-139.53 894.72,-139.53 894.72,-133.53 900.72,-127.53 906.72,-127.53 906.72,-127.53 1386.27,-127.53 1386.27,-127.53 1392.27,-127.53 1398.27,-133.53 1398.27,-139.53 1398.27,-139.53 1398.27,-151.53 1398.27,-151.53 1398.27,-157.53 1392.27,-163.53 1386.27,-163.53"/>
<text text-anchor="start" x="909.12" y="-141.85" font-family="Roboto, sans-serif" font-weight="bold" font-size="14.00">9: </text>
<text text-anchor="start" x="928.62" y="-141.85" font-family="Roboto, sans-serif" font-size="14.00">Ist der MaBiS-ZP zum Zeitpunkt der Aktivierung bereits aktiviert?</text>
</g>
<!-- 8&#45;&gt;9 -->
<g id="edge17" class="edge">
<title>8-&gt;9</title>
<path fill="none" stroke="#7aab8a" d="M1084.26,-242.66C1096.18,-224.25 1115.53,-194.35 1129.5,-172.78"/>
<polygon fill="#7aab8a" stroke="#7aab8a" points="1132.36,-174.81 1134.85,-164.51 1126.48,-171 1132.36,-174.81"/>
<text text-anchor="start" x="1113.49" y="-199.24" font-family="Roboto, sans-serif" font-weight="bold" font-size="14.00">JA</text>
</g>
<!-- A09 -->
<g id="node19" class="node">
<title>A09</title>
<path fill="#cfb986" stroke="black" stroke-width="0" d="M1116.61,-61.52C1116.61,-61.52 962.38,-61.52 962.38,-61.52 956.38,-61.52 950.38,-55.52 950.38,-49.52 950.38,-49.52 950.38,-12 950.38,-12 950.38,-6 956.38,0 962.38,0 962.38,0 1116.61,0 1116.61,0 1122.61,0 1128.61,-6 1128.61,-12 1128.61,-12 1128.61,-49.52 1128.61,-49.52 1128.61,-55.52 1122.61,-61.52 1116.61,-61.52"/>
<text text-anchor="start" x="962.62" y="-43.46" font-family="Roboto, sans-serif" font-weight="bold" font-size="14.00">A09</text>
<text text-anchor="start" x="962.62" y="-31.36" font-family="Roboto, sans-serif" text-decoration="underline" font-size="12.00">Hinweis:</text>
<text text-anchor="start" x="962.62" y="-19.36" font-family="Roboto, sans-serif" font-size="12.00">Cluster: Ablehnung</text>
<text text-anchor="start" x="962.62" y="-7.36" font-family="Roboto, sans-serif" font-size="12.00">MaBiS-ZP bereits aktiviert</text>
</g>
<!-- 9&#45;&gt;A09 -->
<g id="edge18" class="edge">
<title>9-&gt;A09</title>
<path fill="none" stroke="#7aab8a" d="M1130.7,-127.89C1116.15,-112.56 1094.04,-89.25 1075.23,-69.42"/>
<polygon fill="#7aab8a" stroke="#7aab8a" points="1077.86,-67.12 1068.44,-62.27 1072.78,-71.93 1077.86,-67.12"/>
<text text-anchor="start" x="1098.49" y="-84.47" font-family="Roboto, sans-serif" font-weight="bold" font-size="14.00">JA</text>
</g>
<!-- A10 -->
<g id="node20" class="node">
<title>A10</title>
<path fill="#cfb986" stroke="black" stroke-width="0" d="M1308.36,-61.52C1308.36,-61.52 1158.62,-61.52 1158.62,-61.52 1152.62,-61.52 1146.62,-55.52 1146.62,-49.52 1146.62,-49.52 1146.62,-12 1146.62,-12 1146.62,-6 1152.62,0 1158.62,0 1158.62,0 1308.36,0 1308.36,0 1314.36,0 1320.36,-6 1320.36,-12 1320.36,-12 1320.36,-49.52 1320.36,-49.52 1320.36,-55.52 1314.36,-61.52 1308.36,-61.52"/>
<text text-anchor="start" x="1158.87" y="-43.46" font-family="Roboto, sans-serif" font-weight="bold" font-size="14.00">A10</text>
<text text-anchor="start" x="1158.87" y="-31.36" font-family="Roboto, sans-serif" text-decoration="underline" font-size="12.00">Hinweis:</text>
<text text-anchor="start" x="1158.87" y="-19.36" font-family="Roboto, sans-serif" font-size="12.00">Cluster: Zustimmung </text>
<text text-anchor="start" x="1158.87" y="-7.36" font-family="Roboto, sans-serif" font-size="12.00">Aktivierung durchgef&#252;hrt</text>
</g>
<!-- 9&#45;&gt;A10 -->
<g id="edge19" class="edge">
<title>9-&gt;A10</title>
<path fill="none" stroke="#7aab8a" d="M1159.33,-127.89C1171,-112.76 1188.66,-89.87 1203.82,-70.22"/>
<polygon fill="#7aab8a" stroke="#7aab8a" points="1206.54,-72.43 1209.87,-62.37 1200.99,-68.15 1206.54,-72.43"/>
<text text-anchor="start" x="1194.49" y="-84.47" font-family="Roboto, sans-serif" font-weight="bold" font-size="14.00">NEIN</text>
</g>
</g>
</svg>
  </g>
</svg>
  </g>
</svg>
