<?xml version='1.0' encoding='ASCII' standalone='yes'?>
<svg xmlns="http://www.w3.org/2000/svg" xmlns:xlink="http://www.w3.org/1999/xlink" version="1.1" width="1828.0px" viewBox="0 0 1828.0 1920.0" height="1920.0px">
  <g>
    <svg version="1.1" width="1828.0px" viewBox="0 0 1828.0 1920.0" height="1920.0px">
  <polygon fill="#f3f1f6" points="0,0 1828.0,0 1828.0,1920.0 0,1920.0"/><g>
    <g transform="translate(182.79999999999995, 228.25721842634505) scale(1 1) translate(0, 0) scale(8.273478753979251 8.273478753979251) "><sodipodi:namedview xmlns:sodipodi="http://sodipodi.sourceforge.net/DTD/sodipodi-0.dtd" xmlns:inkscape="http://www.inkscape.org/namespaces/inkscape" id="namedview7" pagecolor="#ffffff" bordercolor="#999999" borderopacity="1" inkscape:pageshadow="0" inkscape:pageopacity="0" inkscape:pagecheckerboard="0" inkscape:document-units="mm" showgrid="false" fit-margin-top="0" fit-margin-left="0" fit-margin-right="0" fit-margin-bottom="0" inkscape:zoom="0.64052329" inkscape:cx="130.36216" inkscape:cy="412.163" inkscape:window-width="1512" inkscape:window-height="916" inkscape:window-x="3840" inkscape:window-y="136" inkscape:window-maximized="0" inkscape:current-layer="layer1"/>
  <defs id="defs2">
    <clipPath clipPathUnits="userSpaceOnUse" id="clipPath23">
      <path d="M 0,568.156 H 579.236 V 0 H 0 Z" id="path21"/>
    </clipPath>
  </defs>
  <g xmlns:inkscape="http://www.inkscape.org/namespaces/inkscape" inkscape:label="Layer 1" inkscape:groupmode="layer" id="layer1" transform="translate(-16.541937,-55.305267)">
    <g id="g19" clip-path="url(#clipPath23)" transform="matrix(0.35277777,0,0,-0.35277777,0.01017023,243.73675)" style="opacity:0.2">
      <g id="g25" transform="translate(122.444,32.7195)">
        <path d="m 0,0 h -56.104 c -11,0 -19.898,9.123 -19.463,20.115 10.594,267.191 231.277,481.302 501.029,481.302 v -56.02 c 0,-10.98 -8.688,-19.892 -19.658,-20.393 C 180.29,414.697 0,228.005 0,0" style="fill:#6ead83;fill-opacity:0.5;fill-rule:nonzero;stroke:none" id="path27"/>
      </g>
      <g id="g29" transform="translate(273.7828,32.7195)">
        <path d="m 0,0 h -55.926 c -11.228,0 -20.091,9.482 -19.435,20.69 10.744,183.439 163.389,329.388 349.485,329.388 v -56.263 c 0,-10.709 -8.273,-19.617 -18.957,-20.35 C 112.819,263.696 0,144.774 0,0" style="fill:#6ead83;fill-opacity:0.5;fill-rule:nonzero;stroke:none" id="path31"/>
      </g>
      <g id="g33" transform="translate(425.7667,32.7195)">
        <path d="m 0,0 h -55.445 c -11.653,0 -20.604,10.17 -19.334,21.753 10.866,99.032 95.031,176.341 196.919,176.341 v -57.011 c 0,-10.046 -7.283,-18.755 -17.229,-20.165 C 45.688,112.522 0,61.497 0,0" style="fill:#6ead83;fill-opacity:0.5;fill-rule:nonzero;stroke:none" id="path35"/>
      </g>
    </g>
  </g>
</g>
    <svg width="1371pt" height="1440pt" viewBox="0.00 0.00 1371.40 1440.00">
<g id="graph0" class="graph" transform="scale(0.96986 0.96986) rotate(0) translate(4 1480.75)">
<title>D</title>
<text text-anchor="start" x="669.63" y="-1456.65" font-family="Times,serif" font-weight="bold" font-size="18.00">MaBiS</text>
<text text-anchor="start" x="196.38" y="-1426.55" font-family="Times,serif" font-weight="bold" font-size="16.00">7.28.1: AD: Aktivierung eines MaBiS-Z&#228;hlpunkts f&#252;r die Bilanzkreissummenzeitreihe vom NB an BIKO und BKV</text>
<!-- Start -->
<g id="node1" class="node">
<title>Start</title>
<polygon fill="#7a8da1" stroke="black" points="393.39,-1378.75 219.09,-1378.75 219.09,-1335.47 393.39,-1335.47 393.39,-1378.75"/>
<text text-anchor="start" x="278.12" y="-1357.81" font-family="Times,serif" font-weight="bold" font-size="14.00">E_0034</text>
<text text-anchor="start" x="233.49" y="-1345.71" font-family="Times,serif" font-weight="bold" text-decoration="underline" font-size="12.00">Pr&#252;fende Rolle:</text>
<text text-anchor="start" x="338.49" y="-1345.71" font-family="Times,serif" font-weight="bold" font-size="12.00"> BIKO</text>
</g>
<!-- 1 -->
<g id="node2" class="node">
<title>1</title>
<path fill="#7aab8a" stroke="black" d="M558.76,-1298.47C558.76,-1298.47 53.72,-1298.47 53.72,-1298.47 47.72,-1298.47 41.72,-1292.47 41.72,-1286.47 41.72,-1286.47 41.72,-1274.47 41.72,-1274.47 41.72,-1268.47 47.72,-1262.47 53.72,-1262.47 53.72,-1262.47 558.76,-1262.47 558.76,-1262.47 564.76,-1262.47 570.76,-1268.47 570.76,-1274.47 570.76,-1274.47 570.76,-1286.47 570.76,-1286.47 570.76,-1292.47 564.76,-1298.47 558.76,-1298.47"/>
<text text-anchor="start" x="56.12" y="-1276.8" font-family="Times,serif" font-weight="bold" font-size="14.00">1: </text>
<text text-anchor="start" x="75.62" y="-1276.8" font-family="Times,serif" font-size="14.00">Erfolgt die Aktivierung nach Ablauf der Clearingfrist f&#252;r die KBKA?</text>
</g>
<!-- Start&#45;&gt;1 -->
<g id="edge1" class="edge">
<title>Start-&gt;1</title>
<path fill="none" stroke="black" d="M306.24,-1335.32C306.24,-1327.46 306.24,-1318.38 306.24,-1309.94"/>
<polygon fill="black" stroke="black" points="309.74,-1310.14 306.24,-1300.14 302.74,-1310.14 309.74,-1310.14"/>
</g>
<!-- A01 -->
<g id="node3" class="node">
<title>A01</title>
<polygon fill="#cfb986" stroke="black" points="144.48,-1209.22 0,-1209.22 0,-1147.7 144.48,-1147.7 144.48,-1209.22"/>
<text text-anchor="start" x="57.24" y="-1191.16" font-family="Times,serif" font-weight="bold" font-size="14.00">A01</text>
<text text-anchor="start" x="12.24" y="-1179.06" font-family="Times,serif" text-decoration="underline" font-size="12.00">Hinweis:</text>
<text text-anchor="start" x="12.24" y="-1167.06" font-family="Times,serif" font-size="12.00">Cluster: Ablehnung</text>
<text text-anchor="start" x="12.24" y="-1155.06" font-family="Times,serif" font-size="12.00">Frist&#252;berschreitung</text>
</g>
<!-- 1&#45;&gt;A01 -->
<g id="edge2" class="edge">
<title>1-&gt;A01</title>
<path fill="none" stroke="black" d="M265.48,-1262.05C234.6,-1248.85 191.17,-1230.29 153.3,-1214.11"/>
<polygon fill="black" stroke="black" points="154.75,-1210.92 144.18,-1210.21 152,-1217.35 154.75,-1210.92"/>
<text text-anchor="middle" x="229.99" y="-1231.17" font-family="Times,serif" font-size="14.00">Ja</text>
</g>
<!-- 2 -->
<g id="node4" class="node">
<title>2</title>
<path fill="#7aab8a" stroke="black" d="M585.89,-1196.46C585.89,-1196.46 174.59,-1196.46 174.59,-1196.46 168.59,-1196.46 162.59,-1190.46 162.59,-1184.46 162.59,-1184.46 162.59,-1172.46 162.59,-1172.46 162.59,-1166.46 168.59,-1160.46 174.59,-1160.46 174.59,-1160.46 585.89,-1160.46 585.89,-1160.46 591.89,-1160.46 597.89,-1166.46 597.89,-1172.46 597.89,-1172.46 597.89,-1184.46 597.89,-1184.46 597.89,-1190.46 591.89,-1196.46 585.89,-1196.46"/>
<text text-anchor="start" x="176.99" y="-1174.79" font-family="Times,serif" font-weight="bold" font-size="14.00">2: </text>
<text text-anchor="start" x="196.49" y="-1174.79" font-family="Times,serif" font-size="14.00">Erfolgt die Aktivierung zum Monatsersten 00:00 Uhr?</text>
</g>
<!-- 1&#45;&gt;2 -->
<g id="edge3" class="edge">
<title>1-&gt;2</title>
<path fill="none" stroke="black" d="M319.13,-1262.05C330.59,-1246.56 347.52,-1223.69 360.65,-1205.94"/>
<polygon fill="black" stroke="black" points="363.46,-1208.02 366.6,-1197.9 357.84,-1203.85 363.46,-1208.02"/>
<text text-anchor="middle" x="360.12" y="-1231.17" font-family="Times,serif" font-size="14.00">Nein</text>
</g>
<!-- A02 -->
<g id="node5" class="node">
<title>A02</title>
<polygon fill="#cfb986" stroke="black" points="258.48,-1094.45 24,-1094.45 24,-1032.93 258.48,-1032.93 258.48,-1094.45"/>
<text text-anchor="start" x="126.24" y="-1076.39" font-family="Times,serif" font-weight="bold" font-size="14.00">A02</text>
<text text-anchor="start" x="36.24" y="-1064.29" font-family="Times,serif" text-decoration="underline" font-size="12.00">Hinweis:</text>
<text text-anchor="start" x="36.24" y="-1052.29" font-family="Times,serif" font-size="12.00">Cluster: Ablehnung</text>
<text text-anchor="start" x="36.24" y="-1040.29" font-family="Times,serif" font-size="12.00">Gew&#228;hlter Zeitpunkt nicht zul&#228;ssig</text>
</g>
<!-- 2&#45;&gt;A02 -->
<g id="edge4" class="edge">
<title>2-&gt;A02</title>
<path fill="none" stroke="black" d="M343.16,-1159.96C309.12,-1143.9 257.69,-1119.64 215.26,-1099.61"/>
<polygon fill="black" stroke="black" points="216.86,-1096.5 206.33,-1095.4 213.88,-1102.83 216.86,-1096.5"/>
<text text-anchor="middle" x="291.12" y="-1116.4" font-family="Times,serif" font-size="14.00">Nein</text>
</g>
<!-- 3 -->
<g id="node6" class="node">
<title>3</title>
<path fill="#7aab8a" stroke="black" d="M585.89,-1081.69C585.89,-1081.69 288.59,-1081.69 288.59,-1081.69 282.59,-1081.69 276.59,-1075.69 276.59,-1069.69 276.59,-1069.69 276.59,-1057.69 276.59,-1057.69 276.59,-1051.69 282.59,-1045.69 288.59,-1045.69 288.59,-1045.69 585.89,-1045.69 585.89,-1045.69 591.89,-1045.69 597.89,-1051.69 597.89,-1057.69 597.89,-1057.69 597.89,-1069.69 597.89,-1069.69 597.89,-1075.69 591.89,-1081.69 585.89,-1081.69"/>
<text text-anchor="start" x="290.99" y="-1060.02" font-family="Times,serif" font-weight="bold" font-size="14.00">3: </text>
<text text-anchor="start" x="310.49" y="-1060.02" font-family="Times,serif" font-size="14.00">Ist die richtige Regelzone angegeben?</text>
</g>
<!-- 2&#45;&gt;3 -->
<g id="edge5" class="edge">
<title>2-&gt;3</title>
<path fill="none" stroke="black" d="M388.9,-1160.33C398.06,-1142.2 412.66,-1113.32 423.42,-1092.03"/>
<polygon fill="black" stroke="black" points="426.43,-1093.83 427.82,-1083.33 420.18,-1090.68 426.43,-1093.83"/>
<text text-anchor="middle" x="417.99" y="-1116.4" font-family="Times,serif" font-size="14.00">Ja</text>
</g>
<!-- A03 -->
<g id="node7" class="node">
<title>A03</title>
<polygon fill="#cfb986" stroke="black" points="156.23,-979.68 16.25,-979.68 16.25,-918.16 156.23,-918.16 156.23,-979.68"/>
<text text-anchor="start" x="71.24" y="-961.62" font-family="Times,serif" font-weight="bold" font-size="14.00">A03</text>
<text text-anchor="start" x="28.49" y="-949.52" font-family="Times,serif" text-decoration="underline" font-size="12.00">Hinweis:</text>
<text text-anchor="start" x="28.49" y="-937.52" font-family="Times,serif" font-size="12.00">Cluster: Ablehnung</text>
<text text-anchor="start" x="28.49" y="-925.52" font-family="Times,serif" font-size="12.00">Regelzone falsch</text>
</g>
<!-- 3&#45;&gt;A03 -->
<g id="edge6" class="edge">
<title>3-&gt;A03</title>
<path fill="none" stroke="black" d="M376.12,-1045.25C323.24,-1029.89 244.56,-1006.38 167.26,-980.3"/>
<polygon fill="black" stroke="black" points="168.39,-976.99 157.8,-977.09 166.15,-983.62 168.39,-976.99"/>
<text text-anchor="middle" x="286.12" y="-1001.63" font-family="Times,serif" font-size="14.00">Nein</text>
</g>
<!-- 4 -->
<g id="node8" class="node">
<title>4</title>
<path fill="#7aab8a" stroke="black" d="M834.01,-966.92C834.01,-966.92 186.47,-966.92 186.47,-966.92 180.47,-966.92 174.47,-960.92 174.47,-954.92 174.47,-954.92 174.47,-942.92 174.47,-942.92 174.47,-936.92 180.47,-930.92 186.47,-930.92 186.47,-930.92 834.01,-930.92 834.01,-930.92 840.01,-930.92 846.01,-936.92 846.01,-942.92 846.01,-942.92 846.01,-954.92 846.01,-954.92 846.01,-960.92 840.01,-966.92 834.01,-966.92"/>
<text text-anchor="start" x="188.87" y="-945.25" font-family="Times,serif" font-weight="bold" font-size="14.00">4: </text>
<text text-anchor="start" x="208.37" y="-945.25" font-family="Times,serif" font-size="14.00">Ist das Bilanzierungsgebiet zum Aktivierungsbeginn in der Regelzone des BIKO g&#252;ltig?</text>
</g>
<!-- 3&#45;&gt;4 -->
<g id="edge7" class="edge">
<title>3-&gt;4</title>
<path fill="none" stroke="black" d="M448.33,-1045.56C460.17,-1027.26 479.11,-998.02 492.92,-976.68"/>
<polygon fill="black" stroke="black" points="495.73,-978.78 498.23,-968.48 489.85,-974.97 495.73,-978.78"/>
<text text-anchor="middle" x="483.99" y="-1001.63" font-family="Times,serif" font-size="14.00">Ja</text>
</g>
<!-- A04 -->
<g id="node9" class="node">
<title>A04</title>
<polygon fill="#cfb986" stroke="black" points="225.1,-864.91 9.38,-864.91 9.38,-803.39 225.1,-803.39 225.1,-864.91"/>
<text text-anchor="start" x="102.24" y="-846.85" font-family="Times,serif" font-weight="bold" font-size="14.00">A04</text>
<text text-anchor="start" x="21.61" y="-834.75" font-family="Times,serif" text-decoration="underline" font-size="12.00">Hinweis:</text>
<text text-anchor="start" x="21.61" y="-822.75" font-family="Times,serif" font-size="12.00">Cluster: Ablehnung</text>
<text text-anchor="start" x="21.61" y="-810.75" font-family="Times,serif" font-size="12.00">Bilanzierungsgebiet nicht g&#252;ltig</text>
</g>
<!-- 4&#45;&gt;A04 -->
<g id="edge8" class="edge">
<title>4-&gt;A04</title>
<path fill="none" stroke="black" d="M449.26,-930.42C391.74,-913.92 304.01,-888.74 233.17,-868.42"/>
<polygon fill="black" stroke="black" points="234.44,-865.14 223.86,-865.74 232.5,-871.87 234.44,-865.14"/>
<text text-anchor="middle" x="354.12" y="-886.86" font-family="Times,serif" font-size="14.00">Nein</text>
</g>
<!-- 5 -->
<g id="node10" class="node">
<title>5</title>
<path fill="#7aab8a" stroke="black" d="M879.39,-856.79C879.39,-856.79 255.09,-856.79 255.09,-856.79 249.09,-856.79 243.09,-850.79 243.09,-844.79 243.09,-844.79 243.09,-823.51 243.09,-823.51 243.09,-817.51 249.09,-811.51 255.09,-811.51 255.09,-811.51 879.39,-811.51 879.39,-811.51 885.39,-811.51 891.39,-817.51 891.39,-823.51 891.39,-823.51 891.39,-844.79 891.39,-844.79 891.39,-850.79 885.39,-856.79 879.39,-856.79"/>
<text text-anchor="start" x="257.49" y="-835.85" font-family="Times,serif" font-weight="bold" font-size="14.00">5: </text>
<text text-anchor="start" x="276.99" y="-835.85" font-family="Times,serif" font-size="14.00">Ist der Sender zum Aktivierungsbeginn der verantwortliche NB f&#252;r das angegebene</text>
<text text-anchor="start" x="257.49" y="-821.85" font-family="Times,serif" font-size="14.00">Bilanzierungsgebiet?</text>
</g>
<!-- 4&#45;&gt;5 -->
<g id="edge9" class="edge">
<title>4-&gt;5</title>
<path fill="none" stroke="black" d="M518.9,-930.79C527.38,-914 540.53,-887.99 550.97,-867.33"/>
<polygon fill="black" stroke="black" points="554.08,-868.95 555.47,-858.44 547.83,-865.79 554.08,-868.95"/>
<text text-anchor="middle" x="547.99" y="-886.86" font-family="Times,serif" font-size="14.00">Ja</text>
</g>
<!-- A05 -->
<g id="node11" class="node">
<title>A05</title>
<polygon fill="#cfb986" stroke="black" points="366.73,-750.14 223.75,-750.14 223.75,-688.62 366.73,-688.62 366.73,-750.14"/>
<text text-anchor="start" x="280.24" y="-732.08" font-family="Times,serif" font-weight="bold" font-size="14.00">A05</text>
<text text-anchor="start" x="235.99" y="-719.98" font-family="Times,serif" text-decoration="underline" font-size="12.00">Hinweis:</text>
<text text-anchor="start" x="235.99" y="-707.98" font-family="Times,serif" font-size="12.00">Cluster: Ablehnung</text>
<text text-anchor="start" x="235.99" y="-695.98" font-family="Times,serif" font-size="12.00">Keine Berechtigung</text>
</g>
<!-- 5&#45;&gt;A05 -->
<g id="edge10" class="edge">
<title>5-&gt;A05</title>
<path fill="none" stroke="black" d="M514.15,-811.14C475.29,-795.03 421.83,-772.86 377.46,-754.47"/>
<polygon fill="black" stroke="black" points="378.96,-751.3 368.38,-750.7 376.28,-757.77 378.96,-751.3"/>
<text text-anchor="middle" x="464.12" y="-772.09" font-family="Times,serif" font-size="14.00">Nein</text>
</g>
<!-- 6 -->
<g id="node12" class="node">
<title>6</title>
<path fill="#7aab8a" stroke="black" d="M979.39,-742.02C979.39,-742.02 397.09,-742.02 397.09,-742.02 391.09,-742.02 385.09,-736.02 385.09,-730.02 385.09,-730.02 385.09,-708.74 385.09,-708.74 385.09,-702.74 391.09,-696.74 397.09,-696.74 397.09,-696.74 979.39,-696.74 979.39,-696.74 985.39,-696.74 991.39,-702.74 991.39,-708.74 991.39,-708.74 991.39,-730.02 991.39,-730.02 991.39,-736.02 985.39,-742.02 979.39,-742.02"/>
<text text-anchor="start" x="399.49" y="-721.08" font-family="Times,serif" font-weight="bold" font-size="14.00">6: </text>
<text text-anchor="start" x="418.99" y="-721.08" font-family="Times,serif" font-size="14.00">Existiert bereits ein abweichendes Tupel aus Bilanzierungsgebiet, Bilanzkreis</text>
<text text-anchor="start" x="399.49" y="-707.08" font-family="Times,serif" font-size="14.00">und ZRT unter der ID des MaBiS-ZP?</text>
</g>
<!-- 5&#45;&gt;6 -->
<g id="edge11" class="edge">
<title>5-&gt;6</title>
<path fill="none" stroke="black" d="M590.86,-811.14C609.51,-793.75 635.73,-769.31 656.27,-750.18"/>
<polygon fill="black" stroke="black" points="658.65,-752.75 663.58,-743.37 653.87,-747.62 658.65,-752.75"/>
<text text-anchor="middle" x="640.99" y="-772.09" font-family="Times,serif" font-size="14.00">Ja</text>
</g>
<!-- A06 -->
<g id="node13" class="node">
<title>A06</title>
<polygon fill="#cfb986" stroke="black" points="479.86,-635.37 190.62,-635.37 190.62,-573.85 479.86,-573.85 479.86,-635.37"/>
<text text-anchor="start" x="320.24" y="-617.31" font-family="Times,serif" font-weight="bold" font-size="14.00">A06</text>
<text text-anchor="start" x="202.87" y="-605.21" font-family="Times,serif" text-decoration="underline" font-size="12.00">Hinweis:</text>
<text text-anchor="start" x="202.87" y="-593.21" font-family="Times,serif" font-size="12.00">Cluster: Ablehnung</text>
<text text-anchor="start" x="202.87" y="-581.21" font-family="Times,serif" font-size="12.00">Abweichender MaBiS-ZP bereits vorhanden</text>
</g>
<!-- 6&#45;&gt;A06 -->
<g id="edge12" class="edge">
<title>6-&gt;A06</title>
<path fill="none" stroke="black" d="M619.34,-696.37C568.44,-680.11 498.22,-657.68 440.33,-639.18"/>
<polygon fill="black" stroke="black" points="441.71,-635.95 431.12,-636.24 439.58,-642.62 441.71,-635.95"/>
<text text-anchor="middle" x="538.99" y="-657.32" font-family="Times,serif" font-size="14.00">Ja</text>
</g>
<!-- 7 -->
<g id="node14" class="node">
<title>7</title>
<path fill="#7aab8a" stroke="black" d="M1086.76,-627.25C1086.76,-627.25 509.72,-627.25 509.72,-627.25 503.72,-627.25 497.72,-621.25 497.72,-615.25 497.72,-615.25 497.72,-593.97 497.72,-593.97 497.72,-587.97 503.72,-581.97 509.72,-581.97 509.72,-581.97 1086.76,-581.97 1086.76,-581.97 1092.76,-581.97 1098.76,-587.97 1098.76,-593.97 1098.76,-593.97 1098.76,-615.25 1098.76,-615.25 1098.76,-621.25 1092.76,-627.25 1086.76,-627.25"/>
<text text-anchor="start" x="512.12" y="-606.31" font-family="Times,serif" font-weight="bold" font-size="14.00">7: </text>
<text text-anchor="start" x="531.62" y="-606.31" font-family="Times,serif" font-size="14.00">Existiert bereits f&#252;r das genannte Tupel aus Bilanzierungsgebiet, Bilanzkreis</text>
<text text-anchor="start" x="512.12" y="-592.31" font-family="Times,serif" font-size="14.00">und ZRT eine abweichende ID des MaBiS-ZP?</text>
</g>
<!-- 6&#45;&gt;7 -->
<g id="edge13" class="edge">
<title>6-&gt;7</title>
<path fill="none" stroke="black" d="M709.71,-696.37C726.59,-679.06 750.29,-654.76 768.92,-635.66"/>
<polygon fill="black" stroke="black" points="771.29,-638.25 775.77,-628.65 766.28,-633.36 771.29,-638.25"/>
<text text-anchor="middle" x="766.12" y="-657.32" font-family="Times,serif" font-size="14.00">Nein</text>
</g>
<!-- A07 -->
<g id="node15" class="node">
<title>A07</title>
<polygon fill="#cfb986" stroke="black" points="756.11,-520.6 426.38,-520.6 426.38,-459.08 756.11,-459.08 756.11,-520.6"/>
<text text-anchor="start" x="576.24" y="-502.54" font-family="Times,serif" font-weight="bold" font-size="14.00">A07</text>
<text text-anchor="start" x="438.62" y="-490.44" font-family="Times,serif" text-decoration="underline" font-size="12.00">Hinweis:</text>
<text text-anchor="start" x="438.62" y="-478.44" font-family="Times,serif" font-size="12.00">Cluster: Ablehnung</text>
<text text-anchor="start" x="438.62" y="-466.44" font-family="Times,serif" font-size="12.00">Abweichende ID zum MaBiS-ZP bereits vorhanden</text>
</g>
<!-- 7&#45;&gt;A07 -->
<g id="edge14" class="edge">
<title>7-&gt;A07</title>
<path fill="none" stroke="black" d="M757.84,-581.6C729.05,-565.92 689.73,-544.49 656.51,-526.4"/>
<polygon fill="black" stroke="black" points="658.21,-523.34 647.75,-521.63 654.86,-529.48 658.21,-523.34"/>
<text text-anchor="middle" x="712.99" y="-542.55" font-family="Times,serif" font-size="14.00">Ja</text>
</g>
<!-- 8 -->
<g id="node16" class="node">
<title>8</title>
<path fill="#7aab8a" stroke="black" d="M1174.27,-507.84C1174.27,-507.84 786.22,-507.84 786.22,-507.84 780.22,-507.84 774.22,-501.84 774.22,-495.84 774.22,-495.84 774.22,-483.84 774.22,-483.84 774.22,-477.84 780.22,-471.84 786.22,-471.84 786.22,-471.84 1174.27,-471.84 1174.27,-471.84 1180.27,-471.84 1186.27,-477.84 1186.27,-483.84 1186.27,-483.84 1186.27,-495.84 1186.27,-495.84 1186.27,-501.84 1180.27,-507.84 1174.27,-507.84"/>
<text text-anchor="start" x="788.62" y="-486.16" font-family="Times,serif" font-weight="bold" font-size="14.00">8: </text>
<text text-anchor="start" x="808.12" y="-486.16" font-family="Times,serif" font-size="14.00">Ist der Bilanzkreis zum Aktivierungsbeginn g&#252;ltig?</text>
</g>
<!-- 7&#45;&gt;8 -->
<g id="edge15" class="edge">
<title>7-&gt;8</title>
<path fill="none" stroke="black" d="M833.76,-581.6C865.17,-562.14 910.83,-533.85 942.8,-514.04"/>
<polygon fill="black" stroke="black" points="944.31,-517.22 950.97,-508.98 940.62,-511.27 944.31,-517.22"/>
<text text-anchor="middle" x="916.12" y="-542.55" font-family="Times,serif" font-size="14.00">Nein</text>
</g>
<!-- A08 -->
<g id="node17" class="node">
<title>A08</title>
<polygon fill="#cfb986" stroke="black" points="859.23,-405.83 695.25,-405.83 695.25,-344.31 859.23,-344.31 859.23,-405.83"/>
<text text-anchor="start" x="762.24" y="-387.77" font-family="Times,serif" font-weight="bold" font-size="14.00">A08</text>
<text text-anchor="start" x="707.49" y="-375.67" font-family="Times,serif" text-decoration="underline" font-size="12.00">Hinweis:</text>
<text text-anchor="start" x="707.49" y="-363.67" font-family="Times,serif" font-size="12.00">Cluster: Ablehnung</text>
<text text-anchor="start" x="707.49" y="-351.67" font-family="Times,serif" font-size="12.00">Bilanzkreis nicht g&#252;ltig</text>
</g>
<!-- 8&#45;&gt;A08 -->
<g id="edge16" class="edge">
<title>8-&gt;A08</title>
<path fill="none" stroke="black" d="M948.97,-471.47C920.4,-455.6 877.28,-431.64 841.39,-411.71"/>
<polygon fill="black" stroke="black" points="843.25,-408.73 832.8,-406.94 839.85,-414.85 843.25,-408.73"/>
<text text-anchor="middle" x="907.12" y="-427.78" font-family="Times,serif" font-size="14.00">Nein</text>
</g>
<!-- 9 -->
<g id="node18" class="node">
<title>9</title>
<path fill="#7aab8a" stroke="black" d="M1252.89,-393.07C1252.89,-393.07 889.59,-393.07 889.59,-393.07 883.59,-393.07 877.59,-387.07 877.59,-381.07 877.59,-381.07 877.59,-369.07 877.59,-369.07 877.59,-363.07 883.59,-357.07 889.59,-357.07 889.59,-357.07 1252.89,-357.07 1252.89,-357.07 1258.89,-357.07 1264.89,-363.07 1264.89,-369.07 1264.89,-369.07 1264.89,-381.07 1264.89,-381.07 1264.89,-387.07 1258.89,-393.07 1252.89,-393.07"/>
<text text-anchor="start" x="891.99" y="-371.39" font-family="Times,serif" font-weight="bold" font-size="14.00">9: </text>
<text text-anchor="start" x="911.49" y="-371.39" font-family="Times,serif" font-size="14.00">Ist der NB zur Aktivierung des ZRT berechtigt?</text>
</g>
<!-- 8&#45;&gt;9 -->
<g id="edge17" class="edge">
<title>8-&gt;9</title>
<path fill="none" stroke="black" d="M994.06,-471.71C1008.96,-453.25 1032.86,-423.64 1050.11,-402.25"/>
<polygon fill="black" stroke="black" points="1052.78,-404.52 1056.34,-394.54 1047.33,-400.12 1052.78,-404.52"/>
<text text-anchor="middle" x="1036.99" y="-427.78" font-family="Times,serif" font-size="14.00">Ja</text>
</g>
<!-- A09 -->
<g id="node19" class="node">
<title>A09</title>
<polygon fill="#cfb986" stroke="black" points="944.86,-291.06 721.62,-291.06 721.62,-229.54 944.86,-229.54 944.86,-291.06"/>
<text text-anchor="start" x="818.24" y="-273" font-family="Times,serif" font-weight="bold" font-size="14.00">A09</text>
<text text-anchor="start" x="733.87" y="-260.9" font-family="Times,serif" text-decoration="underline" font-size="12.00">Hinweis:</text>
<text text-anchor="start" x="733.87" y="-248.9" font-family="Times,serif" font-size="12.00">Cluster: Ablehnung</text>
<text text-anchor="start" x="733.87" y="-236.9" font-family="Times,serif" font-size="12.00">ZRT Aktivierung nicht berechtigt</text>
</g>
<!-- 9&#45;&gt;A09 -->
<g id="edge18" class="edge">
<title>9-&gt;A09</title>
<path fill="none" stroke="black" d="M1034.31,-356.57C1000.42,-340.51 949.2,-316.25 906.95,-296.22"/>
<polygon fill="black" stroke="black" points="908.6,-293.13 898.06,-292.01 905.6,-299.46 908.6,-293.13"/>
<text text-anchor="middle" x="983.12" y="-313.01" font-family="Times,serif" font-size="14.00">Nein</text>
</g>
<!-- 10 -->
<g id="node20" class="node">
<title>10</title>
<path fill="#7aab8a" stroke="black" d="M1259.89,-278.3C1259.89,-278.3 974.59,-278.3 974.59,-278.3 968.59,-278.3 962.59,-272.3 962.59,-266.3 962.59,-266.3 962.59,-254.3 962.59,-254.3 962.59,-248.3 968.59,-242.3 974.59,-242.3 974.59,-242.3 1259.89,-242.3 1259.89,-242.3 1265.89,-242.3 1271.89,-248.3 1271.89,-254.3 1271.89,-254.3 1271.89,-266.3 1271.89,-266.3 1271.89,-272.3 1265.89,-278.3 1259.89,-278.3"/>
<text text-anchor="start" x="976.99" y="-256.62" font-family="Times,serif" font-weight="bold" font-size="14.00">10: </text>
<text text-anchor="start" x="1006.24" y="-256.62" font-family="Times,serif" font-size="14.00">Passt die OBIS-Kennzahl zum ZRT?</text>
</g>
<!-- 9&#45;&gt;10 -->
<g id="edge19" class="edge">
<title>9-&gt;10</title>
<path fill="none" stroke="black" d="M1078.23,-356.94C1085.56,-338.98 1097.19,-310.45 1105.85,-289.22"/>
<polygon fill="black" stroke="black" points="1109.08,-290.57 1109.62,-279.99 1102.6,-287.93 1109.08,-290.57"/>
<text text-anchor="middle" x="1102.99" y="-313.01" font-family="Times,serif" font-size="14.00">Ja</text>
</g>
<!-- A10 -->
<g id="node21" class="node">
<title>A10</title>
<polygon fill="#cfb986" stroke="black" points="854.36,-176.29 712.12,-176.29 712.12,-114.77 854.36,-114.77 854.36,-176.29"/>
<text text-anchor="start" x="768.24" y="-158.23" font-family="Times,serif" font-weight="bold" font-size="14.00">A10</text>
<text text-anchor="start" x="724.37" y="-146.13" font-family="Times,serif" text-decoration="underline" font-size="12.00">Hinweis:</text>
<text text-anchor="start" x="724.37" y="-134.13" font-family="Times,serif" font-size="12.00">Cluster: Ablehnung</text>
<text text-anchor="start" x="724.37" y="-122.13" font-family="Times,serif" font-size="12.00">OBIS nicht passend</text>
</g>
<!-- 10&#45;&gt;A10 -->
<g id="edge20" class="edge">
<title>10-&gt;A10</title>
<path fill="none" stroke="black" d="M1061.53,-241.8C1012.34,-226.2 938.45,-202.36 865.48,-177.03"/>
<polygon fill="black" stroke="black" points="866.74,-173.76 856.15,-173.78 864.44,-180.38 866.74,-173.76"/>
<text text-anchor="middle" x="984.12" y="-198.24" font-family="Times,serif" font-size="14.00">Nein</text>
</g>
<!-- 11 -->
<g id="node22" class="node">
<title>11</title>
<path fill="#7aab8a" stroke="black" d="M1394.01,-163.53C1394.01,-163.53 884.47,-163.53 884.47,-163.53 878.47,-163.53 872.47,-157.53 872.47,-151.53 872.47,-151.53 872.47,-139.53 872.47,-139.53 872.47,-133.53 878.47,-127.53 884.47,-127.53 884.47,-127.53 1394.01,-127.53 1394.01,-127.53 1400.01,-127.53 1406.01,-133.53 1406.01,-139.53 1406.01,-139.53 1406.01,-151.53 1406.01,-151.53 1406.01,-157.53 1400.01,-163.53 1394.01,-163.53"/>
<text text-anchor="start" x="886.87" y="-141.85" font-family="Times,serif" font-weight="bold" font-size="14.00">11: </text>
<text text-anchor="start" x="916.12" y="-141.85" font-family="Times,serif" font-size="14.00">Ist der MaBiS-ZP zum Zeitpunkt der Aktivierung bereits aktiviert?</text>
</g>
<!-- 10&#45;&gt;11 -->
<g id="edge21" class="edge">
<title>10-&gt;11</title>
<path fill="none" stroke="black" d="M1120.58,-242.17C1124.05,-224.37 1129.55,-196.21 1133.68,-175.04"/>
<polygon fill="black" stroke="black" points="1137.1,-175.79 1135.58,-165.3 1130.23,-174.45 1137.1,-175.79"/>
<text text-anchor="middle" x="1135.99" y="-198.24" font-family="Times,serif" font-size="14.00">Ja</text>
</g>
<!-- A11 -->
<g id="node23" class="node">
<title>A11</title>
<polygon fill="#cfb986" stroke="black" points="1122.11,-61.52 936.38,-61.52 936.38,0 1122.11,0 1122.11,-61.52"/>
<text text-anchor="start" x="1014.24" y="-43.46" font-family="Times,serif" font-weight="bold" font-size="14.00">A11</text>
<text text-anchor="start" x="948.62" y="-31.36" font-family="Times,serif" text-decoration="underline" font-size="12.00">Hinweis:</text>
<text text-anchor="start" x="948.62" y="-19.36" font-family="Times,serif" font-size="12.00">Cluster: Ablehnung</text>
<text text-anchor="start" x="948.62" y="-7.36" font-family="Times,serif" font-size="12.00">MaBiS-ZP bereits aktiviert</text>
</g>
<!-- 11&#45;&gt;A11 -->
<g id="edge22" class="edge">
<title>11-&gt;A11</title>
<path fill="none" stroke="black" d="M1122.53,-127.4C1107.7,-112.2 1085.5,-89.44 1066.47,-69.93"/>
<polygon fill="black" stroke="black" points="1069.09,-67.6 1059.6,-62.89 1064.08,-72.49 1069.09,-67.6"/>
<text text-anchor="middle" x="1096.99" y="-83.47" font-family="Times,serif" font-size="14.00">Ja</text>
</g>
<!-- A12 -->
<g id="node24" class="node">
<title>A12</title>
<polygon fill="#cfb986" stroke="black" points="1318.36,-61.52 1140.12,-61.52 1140.12,0 1318.36,0 1318.36,-61.52"/>
<text text-anchor="start" x="1214.24" y="-43.46" font-family="Times,serif" font-weight="bold" font-size="14.00">A12</text>
<text text-anchor="start" x="1152.37" y="-31.36" font-family="Times,serif" text-decoration="underline" font-size="12.00">Hinweis:</text>
<text text-anchor="start" x="1152.37" y="-19.36" font-family="Times,serif" font-size="12.00">Cluster: Zustimmung</text>
<text text-anchor="start" x="1152.37" y="-7.36" font-family="Times,serif" font-size="12.00">Aktivierung durchgef&#252;hrt</text>
</g>
<!-- 11&#45;&gt;A12 -->
<g id="edge23" class="edge">
<title>11-&gt;A12</title>
<path fill="none" stroke="black" d="M1152.91,-127.4C1164.88,-112.4 1182.72,-90.04 1198.15,-70.72"/>
<polygon fill="black" stroke="black" points="1200.82,-72.98 1204.32,-62.99 1195.35,-68.62 1200.82,-72.98"/>
<text text-anchor="middle" x="1206.12" y="-83.47" font-family="Times,serif" font-size="14.00">Nein</text>
</g>
</g>
</svg>
  </g>
</svg>
  </g>
</svg>
