<?xml version='1.0' encoding='ASCII' standalone='yes'?>
<svg xmlns="http://www.w3.org/2000/svg" xmlns:xlink="http://www.w3.org/1999/xlink" version="1.1" width="1920.0px" viewBox="0 0 1920.0 1402.6666666666667" height="1402.6666666666667px">
  <g>
    <svg version="1.1" width="1920.0px" viewBox="0 0 1920.0 1402.6666666666667" height="1402.6666666666667px">
  <polygon fill="#f3f1f6" points="0,0 1920.0,0 1920.0,1402.6666666666667 0,1402.6666666666667"/><g>
    <g transform="translate(387.9916643199098, 140.26666666666665) scale(1 1) translate(0, 0) scale(1.975030507838168 1.975030507838168) "><!-- note that I manually added the width and height attribute to the root node
  https://chatgpt.com/share/678e3028-70cc-800b-a296-782714735772
  -->
  <defs>
    <style>.cls-1{fill:#fff;}</style>
  </defs>
  <path class="cls-1" d="M122.44,531.2h-56.1c-11,0-19.9-9.12-19.46-20.11C57.47,243.89,278.15,29.78,547.91,29.78v56.02c0,10.98-8.69,19.89-19.66,20.39-225.51,10.31-405.8,197-405.8,425Z"/>
  <path class="cls-1" d="M273.78,531.2h-55.93c-11.23,0-20.09-9.48-19.43-20.69,10.74-183.44,163.39-329.39,349.48-329.39v56.26c0,10.71-8.27,19.62-18.96,20.35-142.35,9.77-255.17,128.69-255.17,273.46Z"/>
  <path class="cls-1" d="M425.77,531.2h-55.45c-11.65,0-20.6-10.17-19.33-21.75,10.87-99.03,95.03-176.34,196.92-176.34v57.01c0,10.05-7.28,18.75-17.23,20.16-59.22,8.4-104.91,59.42-104.91,120.92Z"/>
</g>
    <svg width="1440pt" height="1052pt" viewBox="0.00 0.00 1440.00 1052.26">
<g id="graph0" class="graph" transform="scale(0.832002 0.832002) rotate(0) translate(4 1260.73)">
<title>D</title>
<text text-anchor="start" x="637.13" y="-1236.63" font-family="Times,serif" font-weight="bold" font-size="18.00">WiM Strom</text>
<text text-anchor="start" x="637.13" y="-1206.53" font-family="Times,serif" font-weight="bold" font-size="16.00">9.17.1: AD: &#220;bermittlung der Berechnungsformel</text>
<!-- Start -->
<g id="node1" class="node">
<title>Start</title>
<path fill="#7a8da1" stroke="black" stroke-width="0" d="M523.51,-1158.73C523.51,-1158.73 376.22,-1158.73 376.22,-1158.73 370.22,-1158.73 364.22,-1152.73 364.22,-1146.73 364.22,-1146.73 364.22,-1127.45 364.22,-1127.45 364.22,-1121.45 370.22,-1115.45 376.22,-1115.45 376.22,-1115.45 523.51,-1115.45 523.51,-1115.45 529.51,-1115.45 535.51,-1121.45 535.51,-1127.45 535.51,-1127.45 535.51,-1146.73 535.51,-1146.73 535.51,-1152.73 529.51,-1158.73 523.51,-1158.73"/>
<text text-anchor="start" x="421.74" y="-1137.79" font-family="Times,serif" font-weight="bold" font-size="14.00">E_0218</text>
<text text-anchor="start" x="378.62" y="-1125.69" font-family="Times,serif" font-weight="bold" text-decoration="underline" font-size="12.00">Pr&#252;fende Rolle:</text>
<text text-anchor="start" x="483.62" y="-1125.69" font-family="Times,serif" font-weight="bold" font-size="12.00"> MSB</text>
</g>
<!-- 1 -->
<g id="node2" class="node">
<title>1</title>
<path fill="#7aab8a" stroke="black" stroke-width="0" d="M678.39,-1078.45C678.39,-1078.45 221.34,-1078.45 221.34,-1078.45 215.34,-1078.45 209.34,-1072.45 209.34,-1066.45 209.34,-1066.45 209.34,-1054.45 209.34,-1054.45 209.34,-1048.45 215.34,-1042.45 221.34,-1042.45 221.34,-1042.45 678.39,-1042.45 678.39,-1042.45 684.39,-1042.45 690.39,-1048.45 690.39,-1054.45 690.39,-1054.45 690.39,-1066.45 690.39,-1066.45 690.39,-1072.45 684.39,-1078.45 678.39,-1078.45"/>
<text text-anchor="start" x="223.74" y="-1056.77" font-family="Times,serif" font-weight="bold" font-size="14.00">1: </text>
<text text-anchor="start" x="243.24" y="-1056.77" font-family="Times,serif" font-size="14.00">Ist die Lieferrichtung der Marktlokation korrekt angegeben?</text>
</g>
<!-- Start&#45;&gt;1 -->
<g id="edge1" class="edge">
<title>Start-&gt;1</title>
<path fill="none" stroke="black" d="M449.87,-1115.69C449.87,-1107.62 449.87,-1098.21 449.87,-1089.52"/>
<polygon fill="black" stroke="black" points="453.37,-1089.81 449.87,-1079.81 446.37,-1089.81 453.37,-1089.81"/>
</g>
<!-- A01 -->
<g id="node3" class="node">
<title>A01</title>
<path fill="#cfb986" stroke="black" stroke-width="0" d="M362.48,-989.2C362.48,-989.2 55.25,-989.2 55.25,-989.2 49.25,-989.2 43.25,-983.2 43.25,-977.2 43.25,-977.2 43.25,-939.68 43.25,-939.68 43.25,-933.68 49.25,-927.68 55.25,-927.68 55.25,-927.68 362.48,-927.68 362.48,-927.68 368.48,-927.68 374.48,-933.68 374.48,-939.68 374.48,-939.68 374.48,-977.2 374.48,-977.2 374.48,-983.2 368.48,-989.2 362.48,-989.2"/>
<text text-anchor="start" x="55.49" y="-971.14" font-family="Times,serif" font-weight="bold" font-size="14.00">A01</text>
<text text-anchor="start" x="55.49" y="-959.04" font-family="Times,serif" text-decoration="underline" font-size="12.00">Hinweis:</text>
<text text-anchor="start" x="55.49" y="-947.04" font-family="Times,serif" font-size="12.00">Cluster: Ablehnung</text>
<text text-anchor="start" x="55.49" y="-935.04" font-family="Times,serif" font-size="12.00">Lieferrichtung der Marktlokation ist nicht korrekt.</text>
</g>
<!-- 1&#45;&gt;A01 -->
<g id="edge2" class="edge">
<title>1-&gt;A01</title>
<path fill="none" stroke="#7aab8a" d="M408.98,-1042.48C376.68,-1029.08 330.57,-1009.95 290.75,-993.42"/>
<polygon fill="#7aab8a" stroke="#7aab8a" points="292.22,-990.24 281.64,-989.64 289.53,-996.71 292.22,-990.24"/>
<text text-anchor="start" x="364.87" y="-1012.15" font-family="Times,serif" font-weight="bold" font-size="14.00">NEIN</text>
</g>
<!-- 2 -->
<g id="node4" class="node">
<title>2</title>
<path fill="#7aab8a" stroke="black" stroke-width="0" d="M1000.76,-981.08C1000.76,-981.08 404.97,-981.08 404.97,-981.08 398.97,-981.08 392.97,-975.08 392.97,-969.08 392.97,-969.08 392.97,-947.8 392.97,-947.8 392.97,-941.8 398.97,-935.8 404.97,-935.8 404.97,-935.8 1000.76,-935.8 1000.76,-935.8 1006.76,-935.8 1012.76,-941.8 1012.76,-947.8 1012.76,-947.8 1012.76,-969.08 1012.76,-969.08 1012.76,-975.08 1006.76,-981.08 1000.76,-981.08"/>
<text text-anchor="start" x="407.37" y="-960.14" font-family="Times,serif" font-weight="bold" font-size="14.00">2: </text>
<text text-anchor="start" x="426.87" y="-960.14" font-family="Times,serif" font-size="14.00">Ist im Gesch&#228;ftsvorfall der Status der Berechnungsformel f&#252;r die Marktlokation</text>
<text text-anchor="start" x="407.37" y="-946.14" font-family="Times,serif" font-size="14.00">mit &#8222;Berechnungsformel muss beim Absender angefragt werden&#8220; angegeben?</text>
</g>
<!-- 1&#45;&gt;2 -->
<g id="edge3" class="edge">
<title>1-&gt;2</title>
<path fill="none" stroke="#7aab8a" d="M492.78,-1042.48C532.46,-1026.8 591.99,-1003.27 637.57,-985.25"/>
<polygon fill="#7aab8a" stroke="#7aab8a" points="638.82,-988.52 646.83,-981.59 636.25,-982.01 638.82,-988.52"/>
<text text-anchor="start" x="575.87" y="-1012.15" font-family="Times,serif" font-weight="bold" font-size="14.00">JA</text>
</g>
<!-- A09 -->
<g id="node5" class="node">
<title>A09</title>
<path fill="#cfb986" stroke="black" stroke-width="0" d="M611.86,-874.43C611.86,-874.43 267.88,-874.43 267.88,-874.43 261.88,-874.43 255.88,-868.43 255.88,-862.43 255.88,-862.43 255.88,-824.91 255.88,-824.91 255.88,-818.91 261.88,-812.91 267.88,-812.91 267.88,-812.91 611.86,-812.91 611.86,-812.91 617.86,-812.91 623.86,-818.91 623.86,-824.91 623.86,-824.91 623.86,-862.43 623.86,-862.43 623.86,-868.43 617.86,-874.43 611.86,-874.43"/>
<text text-anchor="start" x="268.12" y="-856.37" font-family="Times,serif" font-weight="bold" font-size="14.00">A09</text>
<text text-anchor="start" x="268.12" y="-844.27" font-family="Times,serif" text-decoration="underline" font-size="12.00">Hinweis:</text>
<text text-anchor="start" x="268.12" y="-832.27" font-family="Times,serif" font-size="12.00">Cluster: Zustimmung</text>
<text text-anchor="start" x="268.12" y="-820.27" font-family="Times,serif" font-size="12.00">Berechnungsformel muss bilateral ausgetauscht werden.</text>
</g>
<!-- 2&#45;&gt;A09 -->
<g id="edge4" class="edge">
<title>2-&gt;A09</title>
<path fill="none" stroke="#7aab8a" d="M652.47,-935.83C614.85,-919.7 562.71,-897.34 519.47,-878.81"/>
<polygon fill="#7aab8a" stroke="#7aab8a" points="520.94,-875.62 510.37,-874.9 518.18,-882.06 520.94,-875.62"/>
<text text-anchor="start" x="586.87" y="-897.38" font-family="Times,serif" font-weight="bold" font-size="14.00">JA</text>
</g>
<!-- 3 -->
<g id="node6" class="node">
<title>3</title>
<path fill="#7aab8a" stroke="black" stroke-width="0" d="M1249.76,-866.31C1249.76,-866.31 653.97,-866.31 653.97,-866.31 647.97,-866.31 641.97,-860.31 641.97,-854.31 641.97,-854.31 641.97,-833.03 641.97,-833.03 641.97,-827.03 647.97,-821.03 653.97,-821.03 653.97,-821.03 1249.76,-821.03 1249.76,-821.03 1255.76,-821.03 1261.76,-827.03 1261.76,-833.03 1261.76,-833.03 1261.76,-854.31 1261.76,-854.31 1261.76,-860.31 1255.76,-866.31 1249.76,-866.31"/>
<text text-anchor="start" x="656.37" y="-845.37" font-family="Times,serif" font-weight="bold" font-size="14.00">3: </text>
<text text-anchor="start" x="675.87" y="-845.37" font-family="Times,serif" font-size="14.00">Ist im Gesch&#228;ftsvorfall der Status der Berechnungsformel f&#252;r die Marktlokation</text>
<text text-anchor="start" x="656.37" y="-831.37" font-family="Times,serif" font-size="14.00">mit &#8222;Berechnungsformel besitzt keine Rechenoperation&#8220; angegeben?</text>
</g>
<!-- 2&#45;&gt;3 -->
<g id="edge5" class="edge">
<title>2-&gt;3</title>
<path fill="none" stroke="#7aab8a" d="M750.58,-935.83C791.41,-917.34 850.33,-890.66 893.87,-870.93"/>
<polygon fill="#7aab8a" stroke="#7aab8a" points="895.27,-874.14 902.93,-866.83 892.38,-867.77 895.27,-874.14"/>
<text text-anchor="start" x="841.87" y="-897.38" font-family="Times,serif" font-weight="bold" font-size="14.00">NEIN</text>
</g>
<!-- 4 -->
<g id="node7" class="node">
<title>4</title>
<path fill="#7aab8a" stroke="black" stroke-width="0" d="M1008.89,-759.66C1008.89,-759.66 386.84,-759.66 386.84,-759.66 380.84,-759.66 374.84,-753.66 374.84,-747.66 374.84,-747.66 374.84,-712.38 374.84,-712.38 374.84,-706.38 380.84,-700.38 386.84,-700.38 386.84,-700.38 1008.89,-700.38 1008.89,-700.38 1014.89,-700.38 1020.89,-706.38 1020.89,-712.38 1020.89,-712.38 1020.89,-747.66 1020.89,-747.66 1020.89,-753.66 1014.89,-759.66 1008.89,-759.66"/>
<text text-anchor="start" x="389.24" y="-738.72" font-family="Times,serif" font-weight="bold" font-size="14.00">4: </text>
<text text-anchor="start" x="408.74" y="-738.72" font-family="Times,serif" font-size="14.00">Ist in den zuvor ausgetauschten Stammdatenmeldungen (z.B.&#160;Anmeldebest&#228;tigung,</text>
<text text-anchor="start" x="389.24" y="-724.72" font-family="Times,serif" font-size="14.00">Stammdaten&#228;nderung (inklusive Lokationsb&#252;ndelstruktur&#228;nderung)) gem&#228;&#223; dem</text>
<text text-anchor="start" x="389.24" y="-710.72" font-family="Times,serif" font-size="14.00">&#8222;G&#252;ltig-Ab&#8220; Datum genau eine Messlokation dieser Marktlokation zugeordnet?</text>
</g>
<!-- 3&#45;&gt;4 -->
<g id="edge6" class="edge">
<title>3-&gt;4</title>
<path fill="none" stroke="#7aab8a" d="M902.89,-821.14C866.08,-804.96 814.99,-782.5 773.02,-764.05"/>
<polygon fill="#7aab8a" stroke="#7aab8a" points="774.5,-760.88 763.94,-760.06 771.69,-767.29 774.5,-760.88"/>
<text text-anchor="start" x="839.87" y="-782.61" font-family="Times,serif" font-weight="bold" font-size="14.00">JA</text>
</g>
<!-- 5 -->
<g id="node10" class="node">
<title>5</title>
<path fill="#7aab8a" stroke="black" stroke-width="0" d="M1636.89,-752.66C1636.89,-752.66 1050.84,-752.66 1050.84,-752.66 1044.84,-752.66 1038.84,-746.66 1038.84,-740.66 1038.84,-740.66 1038.84,-719.38 1038.84,-719.38 1038.84,-713.38 1044.84,-707.38 1050.84,-707.38 1050.84,-707.38 1636.89,-707.38 1636.89,-707.38 1642.89,-707.38 1648.89,-713.38 1648.89,-719.38 1648.89,-719.38 1648.89,-740.66 1648.89,-740.66 1648.89,-746.66 1642.89,-752.66 1636.89,-752.66"/>
<text text-anchor="start" x="1053.24" y="-731.72" font-family="Times,serif" font-weight="bold" font-size="14.00">5: </text>
<text text-anchor="start" x="1072.74" y="-731.72" font-family="Times,serif" font-size="14.00">Liegt eine &#196;nderung der Lokationsb&#252;ndelstruktur durch den NB vor, die durch</text>
<text text-anchor="start" x="1053.24" y="-717.72" font-family="Times,serif" font-size="14.00">Stammdaten&#228;nderung &#252;bermittelt wurde?</text>
</g>
<!-- 3&#45;&gt;5 -->
<g id="edge7" class="edge">
<title>3-&gt;5</title>
<path fill="none" stroke="#7aab8a" d="M1027.45,-821.14C1093.23,-802.41 1188.56,-775.25 1257.37,-755.65"/>
<polygon fill="#7aab8a" stroke="#7aab8a" points="1258.07,-759.1 1266.73,-752.99 1256.15,-752.36 1258.07,-759.1"/>
<text text-anchor="start" x="1170.87" y="-782.61" font-family="Times,serif" font-weight="bold" font-size="14.00">NEIN</text>
</g>
<!-- A10 -->
<g id="node8" class="node">
<title>A10</title>
<path fill="#cfb986" stroke="black" stroke-width="0" d="M401.73,-647.13C401.73,-647.13 12,-647.13 12,-647.13 6,-647.13 0,-641.13 0,-635.13 0,-635.13 0,-597.61 0,-597.61 0,-591.61 6,-585.61 12,-585.61 12,-585.61 401.73,-585.61 401.73,-585.61 407.73,-585.61 413.73,-591.61 413.73,-597.61 413.73,-597.61 413.73,-635.13 413.73,-635.13 413.73,-641.13 407.73,-647.13 401.73,-647.13"/>
<text text-anchor="start" x="12.24" y="-629.07" font-family="Times,serif" font-weight="bold" font-size="14.00">A10</text>
<text text-anchor="start" x="12.24" y="-616.97" font-family="Times,serif" text-decoration="underline" font-size="12.00">Hinweis:</text>
<text text-anchor="start" x="12.24" y="-604.97" font-family="Times,serif" font-size="12.00">Cluster: Ablehnung</text>
<text text-anchor="start" x="12.24" y="-592.97" font-family="Times,serif" font-size="12.00">Der Marktlokation ist nicht genau eine Messlokation zugeordnet</text>
</g>
<!-- 4&#45;&gt;A10 -->
<g id="edge8" class="edge">
<title>4-&gt;A10</title>
<path fill="none" stroke="#7aab8a" d="M572.06,-700.41C503.82,-684.9 419.25,-665.67 348.69,-649.62"/>
<polygon fill="#7aab8a" stroke="#7aab8a" points="349.49,-646.21 338.96,-647.41 347.94,-653.04 349.49,-646.21"/>
<text text-anchor="start" x="480.87" y="-670.08" font-family="Times,serif" font-weight="bold" font-size="14.00">NEIN</text>
</g>
<!-- A11 -->
<g id="node9" class="node">
<title>A11</title>
<path fill="#cfb986" stroke="black" stroke-width="0" d="M967.86,-647.13C967.86,-647.13 443.88,-647.13 443.88,-647.13 437.88,-647.13 431.88,-641.13 431.88,-635.13 431.88,-635.13 431.88,-597.61 431.88,-597.61 431.88,-591.61 437.88,-585.61 443.88,-585.61 443.88,-585.61 967.86,-585.61 967.86,-585.61 973.86,-585.61 979.86,-591.61 979.86,-597.61 979.86,-597.61 979.86,-635.13 979.86,-635.13 979.86,-641.13 973.86,-647.13 967.86,-647.13"/>
<text text-anchor="start" x="444.12" y="-629.07" font-family="Times,serif" font-weight="bold" font-size="14.00">A11</text>
<text text-anchor="start" x="444.12" y="-616.97" font-family="Times,serif" text-decoration="underline" font-size="12.00">Hinweis:</text>
<text text-anchor="start" x="444.12" y="-604.97" font-family="Times,serif" font-size="12.00">Cluster: Zustimmung</text>
<text text-anchor="start" x="444.12" y="-592.97" font-family="Times,serif" font-size="12.00">Energiemenge der Marktlokation ist mit der Energiemenge der Messlokation identisch</text>
</g>
<!-- 4&#45;&gt;A11 -->
<g id="edge9" class="edge">
<title>4-&gt;A11</title>
<path fill="none" stroke="#7aab8a" d="M699.9,-700.56C700.82,-687.74 701.92,-672.36 702.93,-658.33"/>
<polygon fill="#7aab8a" stroke="#7aab8a" points="706.41,-658.68 703.64,-648.46 699.43,-658.18 706.41,-658.68"/>
<text text-anchor="start" x="701.87" y="-670.08" font-family="Times,serif" font-weight="bold" font-size="14.00">JA</text>
</g>
<!-- 6 -->
<g id="node11" class="node">
<title>6</title>
<path fill="#7aab8a" stroke="black" stroke-width="0" d="M1631.51,-639.01C1631.51,-639.01 1010.22,-639.01 1010.22,-639.01 1004.22,-639.01 998.22,-633.01 998.22,-627.01 998.22,-627.01 998.22,-605.73 998.22,-605.73 998.22,-599.73 1004.22,-593.73 1010.22,-593.73 1010.22,-593.73 1631.51,-593.73 1631.51,-593.73 1637.51,-593.73 1643.51,-599.73 1643.51,-605.73 1643.51,-605.73 1643.51,-627.01 1643.51,-627.01 1643.51,-633.01 1637.51,-639.01 1631.51,-639.01"/>
<text text-anchor="start" x="1012.62" y="-618.07" font-family="Times,serif" font-weight="bold" font-size="14.00">6: </text>
<text text-anchor="start" x="1032.12" y="-618.07" font-family="Times,serif" font-size="14.00">Ist das &#8222;G&#252;ltig ab&#8220;-Datum der Berechnungsformel tagidentisch mit dem Datum der</text>
<text text-anchor="start" x="1012.62" y="-604.07" font-family="Times,serif" font-size="14.00">Struktur&#228;nderung des Lokationsb&#252;ndels?</text>
</g>
<!-- 5&#45;&gt;6 -->
<g id="edge10" class="edge">
<title>5-&gt;6</title>
<path fill="none" stroke="#7aab8a" d="M1339.43,-707.49C1336.07,-691.2 1331.41,-668.54 1327.59,-650.01"/>
<polygon fill="#7aab8a" stroke="#7aab8a" points="1331.04,-649.4 1325.59,-640.31 1324.18,-650.81 1331.04,-649.4"/>
<text text-anchor="start" x="1332.87" y="-670.08" font-family="Times,serif" font-weight="bold" font-size="14.00">JA</text>
</g>
<!-- 7 -->
<g id="node13" class="node">
<title>7</title>
<path fill="#7aab8a" stroke="black" stroke-width="0" d="M1710.39,-531.24C1710.39,-531.24 1079.34,-531.24 1079.34,-531.24 1073.34,-531.24 1067.34,-525.24 1067.34,-519.24 1067.34,-519.24 1067.34,-483.96 1067.34,-483.96 1067.34,-477.96 1073.34,-471.96 1079.34,-471.96 1079.34,-471.96 1710.39,-471.96 1710.39,-471.96 1716.39,-471.96 1722.39,-477.96 1722.39,-483.96 1722.39,-483.96 1722.39,-519.24 1722.39,-519.24 1722.39,-525.24 1716.39,-531.24 1710.39,-531.24"/>
<text text-anchor="start" x="1081.74" y="-510.3" font-family="Times,serif" font-weight="bold" font-size="14.00">7: </text>
<text text-anchor="start" x="1101.24" y="-510.3" font-family="Times,serif" font-size="14.00">Ist die Anzahl der gemeldeten / vorliegenden Mess-lokationen aus den</text>
<text text-anchor="start" x="1081.74" y="-496.3" font-family="Times,serif" font-size="14.00">Stammdatenmeldungen (z. B. Anmeldebest&#228;tigung, Stammdaten&#228;nderung) gem&#228;&#223; dem</text>
<text text-anchor="start" x="1081.74" y="-482.3" font-family="Times,serif" font-size="14.00">&#8222;G&#252;ltig ab&#8220;-Datum kleiner als in der Berechnungsformel?</text>
</g>
<!-- 5&#45;&gt;7 -->
<g id="edge11" class="edge">
<title>5-&gt;7</title>
<path fill="none" stroke="#7aab8a" d="M1491.4,-707.42C1560.49,-693.98 1632.13,-674.07 1652.87,-647.13 1669.54,-625.46 1668.97,-607.71 1652.87,-585.61 1637.16,-564.07 1615.78,-547.99 1591.99,-536.02"/>
<polygon fill="#7aab8a" stroke="#7aab8a" points="1593.56,-532.89 1583.02,-531.79 1590.57,-539.22 1593.56,-532.89"/>
<text text-anchor="start" x="1664.87" y="-612.7" font-family="Times,serif" font-weight="bold" font-size="14.00">NEIN</text>
</g>
<!-- A02 -->
<g id="node12" class="node">
<title>A02</title>
<path fill="#cfb986" stroke="black" stroke-width="0" d="M1037.36,-532.36C1037.36,-532.36 702.38,-532.36 702.38,-532.36 696.38,-532.36 690.38,-526.36 690.38,-520.36 690.38,-520.36 690.38,-482.84 690.38,-482.84 690.38,-476.84 696.38,-470.84 702.38,-470.84 702.38,-470.84 1037.36,-470.84 1037.36,-470.84 1043.36,-470.84 1049.36,-476.84 1049.36,-482.84 1049.36,-482.84 1049.36,-520.36 1049.36,-520.36 1049.36,-526.36 1043.36,-532.36 1037.36,-532.36"/>
<text text-anchor="start" x="702.62" y="-514.3" font-family="Times,serif" font-weight="bold" font-size="14.00">A02</text>
<text text-anchor="start" x="702.62" y="-502.2" font-family="Times,serif" text-decoration="underline" font-size="12.00">Hinweis:</text>
<text text-anchor="start" x="702.62" y="-490.2" font-family="Times,serif" font-size="12.00">Cluster: Ablehnung</text>
<text text-anchor="start" x="702.62" y="-478.2" font-family="Times,serif" font-size="12.00">&#8222;G&#252;ltig ab&#8220;-Datum der Berechnungsformel unplausibel.</text>
</g>
<!-- 6&#45;&gt;A02 -->
<g id="edge12" class="edge">
<title>6-&gt;A02</title>
<path fill="none" stroke="#7aab8a" d="M1234.44,-593.76C1168.01,-577.15 1075.16,-553.93 999.79,-535.09"/>
<polygon fill="#7aab8a" stroke="#7aab8a" points="1000.82,-531.74 990.27,-532.71 999.12,-538.53 1000.82,-531.74"/>
<text text-anchor="start" x="1121.87" y="-555.31" font-family="Times,serif" font-weight="bold" font-size="14.00">NEIN</text>
</g>
<!-- 6&#45;&gt;7 -->
<g id="edge13" class="edge">
<title>6-&gt;7</title>
<path fill="none" stroke="#7aab8a" d="M1334.96,-593.89C1344.87,-578.8 1358.38,-558.19 1370.07,-540.38"/>
<polygon fill="#7aab8a" stroke="#7aab8a" points="1372.95,-542.37 1375.51,-532.09 1367.1,-538.53 1372.95,-542.37"/>
<text text-anchor="start" x="1361.87" y="-555.31" font-family="Times,serif" font-weight="bold" font-size="14.00">JA</text>
</g>
<!-- A04 -->
<g id="node14" class="node">
<title>A04</title>
<path fill="#cfb986" stroke="black" stroke-width="0" d="M1036.98,-417.59C1036.98,-417.59 612.75,-417.59 612.75,-417.59 606.75,-417.59 600.75,-411.59 600.75,-405.59 600.75,-405.59 600.75,-368.07 600.75,-368.07 600.75,-362.07 606.75,-356.07 612.75,-356.07 612.75,-356.07 1036.98,-356.07 1036.98,-356.07 1042.98,-356.07 1048.98,-362.07 1048.98,-368.07 1048.98,-368.07 1048.98,-405.59 1048.98,-405.59 1048.98,-411.59 1042.98,-417.59 1036.98,-417.59"/>
<text text-anchor="start" x="612.99" y="-399.53" font-family="Times,serif" font-weight="bold" font-size="14.00">A04</text>
<text text-anchor="start" x="612.99" y="-387.43" font-family="Times,serif" text-decoration="underline" font-size="12.00">Hinweis:</text>
<text text-anchor="start" x="612.99" y="-375.43" font-family="Times,serif" font-size="12.00">Cluster: Ablehnung</text>
<text text-anchor="start" x="612.99" y="-363.43" font-family="Times,serif" font-size="12.00">Es sind zu viele Messlokationen in der Berechnungsformel vorhanden.</text>
</g>
<!-- 7&#45;&gt;A04 -->
<g id="edge14" class="edge">
<title>7-&gt;A04</title>
<path fill="none" stroke="#7aab8a" d="M1250.29,-472C1169.8,-456.07 1069.39,-436.21 986.33,-419.78"/>
<polygon fill="#7aab8a" stroke="#7aab8a" points="987.23,-416.38 976.74,-417.88 985.87,-423.25 987.23,-416.38"/>
<text text-anchor="start" x="1143.87" y="-440.54" font-family="Times,serif" font-weight="bold" font-size="14.00">JA</text>
</g>
<!-- 8 -->
<g id="node15" class="node">
<title>8</title>
<path fill="#7aab8a" stroke="black" stroke-width="0" d="M1710.39,-416.47C1710.39,-416.47 1079.34,-416.47 1079.34,-416.47 1073.34,-416.47 1067.34,-410.47 1067.34,-404.47 1067.34,-404.47 1067.34,-369.19 1067.34,-369.19 1067.34,-363.19 1073.34,-357.19 1079.34,-357.19 1079.34,-357.19 1710.39,-357.19 1710.39,-357.19 1716.39,-357.19 1722.39,-363.19 1722.39,-369.19 1722.39,-369.19 1722.39,-404.47 1722.39,-404.47 1722.39,-410.47 1716.39,-416.47 1710.39,-416.47"/>
<text text-anchor="start" x="1081.74" y="-395.53" font-family="Times,serif" font-weight="bold" font-size="14.00">8: </text>
<text text-anchor="start" x="1101.24" y="-395.53" font-family="Times,serif" font-size="14.00">Ist die Anzahl gem&#228;&#223; der gemeldeten/vorliegenden Messlokationen aus den</text>
<text text-anchor="start" x="1081.74" y="-381.53" font-family="Times,serif" font-size="14.00">Stammdatenmeldungen (z.&#160;B. Anmeldebest&#228;tigung, Stammdaten&#228;nderung) gem&#228;&#223; dem</text>
<text text-anchor="start" x="1081.74" y="-367.53" font-family="Times,serif" font-size="14.00">&#8222;G&#252;ltig ab&#8220;-Datum gr&#246;&#223;er als in der Berechnungsformel?</text>
</g>
<!-- 7&#45;&gt;8 -->
<g id="edge15" class="edge">
<title>7-&gt;8</title>
<path fill="none" stroke="#7aab8a" d="M1394.87,-472.14C1394.87,-458.65 1394.87,-442.31 1394.87,-427.62"/>
<polygon fill="#7aab8a" stroke="#7aab8a" points="1398.37,-427.79 1394.87,-417.79 1391.37,-427.79 1398.37,-427.79"/>
<text text-anchor="start" x="1394.87" y="-440.54" font-family="Times,serif" font-weight="bold" font-size="14.00">NEIN</text>
</g>
<!-- A05 -->
<g id="node16" class="node">
<title>A05</title>
<path fill="#cfb986" stroke="black" stroke-width="0" d="M1037.36,-302.82C1037.36,-302.82 714.38,-302.82 714.38,-302.82 708.38,-302.82 702.38,-296.82 702.38,-290.82 702.38,-290.82 702.38,-253.3 702.38,-253.3 702.38,-247.3 708.38,-241.3 714.38,-241.3 714.38,-241.3 1037.36,-241.3 1037.36,-241.3 1043.36,-241.3 1049.36,-247.3 1049.36,-253.3 1049.36,-253.3 1049.36,-290.82 1049.36,-290.82 1049.36,-296.82 1043.36,-302.82 1037.36,-302.82"/>
<text text-anchor="start" x="714.62" y="-284.76" font-family="Times,serif" font-weight="bold" font-size="14.00">A05</text>
<text text-anchor="start" x="714.62" y="-272.66" font-family="Times,serif" text-decoration="underline" font-size="12.00">Hinweis:</text>
<text text-anchor="start" x="714.62" y="-260.66" font-family="Times,serif" font-size="12.00">Cluster: Ablehnung</text>
<text text-anchor="start" x="714.62" y="-248.66" font-family="Times,serif" font-size="12.00">Es fehlen Messlokationen in der Berechnungs-formel.</text>
</g>
<!-- 8&#45;&gt;A05 -->
<g id="edge16" class="edge">
<title>8-&gt;A05</title>
<path fill="none" stroke="#7aab8a" d="M1263.23,-357.23C1190.24,-341.37 1099.26,-321.6 1023.81,-305.21"/>
<polygon fill="#7aab8a" stroke="#7aab8a" points="1024.79,-301.84 1014.28,-303.13 1023.31,-308.68 1024.79,-301.84"/>
<text text-anchor="start" x="1165.87" y="-325.77" font-family="Times,serif" font-weight="bold" font-size="14.00">JA</text>
</g>
<!-- 9 -->
<g id="node17" class="node">
<title>9</title>
<path fill="#7aab8a" stroke="black" stroke-width="0" d="M1710.76,-301.7C1710.76,-301.7 1078.97,-301.7 1078.97,-301.7 1072.97,-301.7 1066.97,-295.7 1066.97,-289.7 1066.97,-289.7 1066.97,-254.42 1066.97,-254.42 1066.97,-248.42 1072.97,-242.42 1078.97,-242.42 1078.97,-242.42 1710.76,-242.42 1710.76,-242.42 1716.76,-242.42 1722.76,-248.42 1722.76,-254.42 1722.76,-254.42 1722.76,-289.7 1722.76,-289.7 1722.76,-295.7 1716.76,-301.7 1710.76,-301.7"/>
<text text-anchor="start" x="1081.37" y="-280.76" font-family="Times,serif" font-weight="bold" font-size="14.00">9: </text>
<text text-anchor="start" x="1100.87" y="-280.76" font-family="Times,serif" font-size="14.00">Sind alle ID der Messlokationen in der Berechnungsformel mit den zuvor in den</text>
<text text-anchor="start" x="1081.37" y="-266.76" font-family="Times,serif" font-size="14.00">Stammdatenmeldungen (z. B. Anmeldebest&#228;tigung, Stammdaten&#228;nderung) gemeldeten</text>
<text text-anchor="start" x="1081.37" y="-252.76" font-family="Times,serif" font-size="14.00">ID der Messlokationen identisch?</text>
</g>
<!-- 8&#45;&gt;9 -->
<g id="edge17" class="edge">
<title>8-&gt;9</title>
<path fill="none" stroke="#7aab8a" d="M1394.87,-357.37C1394.87,-343.88 1394.87,-327.54 1394.87,-312.85"/>
<polygon fill="#7aab8a" stroke="#7aab8a" points="1398.37,-313.02 1394.87,-303.02 1391.37,-313.02 1398.37,-313.02"/>
<text text-anchor="start" x="1394.87" y="-325.77" font-family="Times,serif" font-weight="bold" font-size="14.00">NEIN</text>
</g>
<!-- A06 -->
<g id="node18" class="node">
<title>A06</title>
<path fill="#cfb986" stroke="black" stroke-width="0" d="M1081.36,-182.17C1081.36,-182.17 806.38,-182.17 806.38,-182.17 800.38,-182.17 794.38,-176.17 794.38,-170.17 794.38,-170.17 794.38,-132.65 794.38,-132.65 794.38,-126.65 800.38,-120.65 806.38,-120.65 806.38,-120.65 1081.36,-120.65 1081.36,-120.65 1087.36,-120.65 1093.36,-126.65 1093.36,-132.65 1093.36,-132.65 1093.36,-170.17 1093.36,-170.17 1093.36,-176.17 1087.36,-182.17 1081.36,-182.17"/>
<text text-anchor="start" x="806.62" y="-164.11" font-family="Times,serif" font-weight="bold" font-size="14.00">A06</text>
<text text-anchor="start" x="806.62" y="-152.01" font-family="Times,serif" text-decoration="underline" font-size="12.00">Hinweis:</text>
<text text-anchor="start" x="806.62" y="-140.01" font-family="Times,serif" font-size="12.00">Cluster: Ablehnung</text>
<text text-anchor="start" x="806.62" y="-128.01" font-family="Times,serif" font-size="12.00">ID der Messlokationen stimmen nicht &#252;berein</text>
</g>
<!-- 9&#45;&gt;A06 -->
<g id="edge18" class="edge">
<title>9-&gt;A06</title>
<path fill="none" stroke="#7aab8a" d="M1286.27,-242.49C1220.33,-225.14 1135.97,-202.95 1067.48,-184.93"/>
<polygon fill="#7aab8a" stroke="#7aab8a" points="1068.65,-181.62 1058.09,-182.46 1066.87,-188.39 1068.65,-181.62"/>
<text text-anchor="start" x="1208.87" y="-211" font-family="Times,serif" font-weight="bold" font-size="14.00">NEIN</text>
</g>
<!-- 10 -->
<g id="node19" class="node">
<title>10</title>
<path fill="#7aab8a" stroke="black" stroke-width="0" d="M1704.26,-188.05C1704.26,-188.05 1123.47,-188.05 1123.47,-188.05 1117.47,-188.05 1111.47,-182.05 1111.47,-176.05 1111.47,-176.05 1111.47,-126.77 1111.47,-126.77 1111.47,-120.77 1117.47,-114.77 1123.47,-114.77 1123.47,-114.77 1704.26,-114.77 1704.26,-114.77 1710.26,-114.77 1716.26,-120.77 1716.26,-126.77 1716.26,-126.77 1716.26,-176.05 1716.26,-176.05 1716.26,-182.05 1710.26,-188.05 1704.26,-188.05"/>
<text text-anchor="start" x="1125.87" y="-167.11" font-family="Times,serif" font-weight="bold" font-size="14.00">10: </text>
<text text-anchor="start" x="1155.12" y="-167.11" font-family="Times,serif" font-size="14.00">Existiert f&#252;r jede Flussrichtung der in der Berechnungsformel vorhandenen</text>
<text text-anchor="start" x="1125.87" y="-153.11" font-family="Times,serif" font-size="14.00">Messlokationen mindestens eine zuvor in den Stammdatenmeldungen (z.&#160;B.</text>
<text text-anchor="start" x="1125.87" y="-139.11" font-family="Times,serif" font-size="14.00">Anmeldebest&#228;tigung, Stammdaten&#228;nderung) ausgetauschte OBIS-Kennzahl* mit</text>
<text text-anchor="start" x="1125.87" y="-125.11" font-family="Times,serif" font-size="14.00">identischer Flussrichtung?</text>
</g>
<!-- 9&#45;&gt;10 -->
<g id="edge19" class="edge">
<title>9-&gt;10</title>
<path fill="none" stroke="#7aab8a" d="M1399.42,-242.64C1401.52,-229.53 1404.06,-213.62 1406.43,-198.84"/>
<polygon fill="#7aab8a" stroke="#7aab8a" points="1409.83,-199.74 1407.96,-189.31 1402.92,-198.63 1409.83,-199.74"/>
<text text-anchor="start" x="1404.87" y="-211" font-family="Times,serif" font-weight="bold" font-size="14.00">JA</text>
</g>
<!-- A07 -->
<g id="node20" class="node">
<title>A07</title>
<path fill="#cfb986" stroke="black" stroke-width="0" d="M1321.23,-61.52C1321.23,-61.52 850.5,-61.52 850.5,-61.52 844.5,-61.52 838.5,-55.52 838.5,-49.52 838.5,-49.52 838.5,-12 838.5,-12 838.5,-6 844.5,0 850.5,0 850.5,0 1321.23,0 1321.23,0 1327.23,0 1333.23,-6 1333.23,-12 1333.23,-12 1333.23,-49.52 1333.23,-49.52 1333.23,-55.52 1327.23,-61.52 1321.23,-61.52"/>
<text text-anchor="start" x="850.74" y="-43.46" font-family="Times,serif" font-weight="bold" font-size="14.00">A07</text>
<text text-anchor="start" x="850.74" y="-31.36" font-family="Times,serif" text-decoration="underline" font-size="12.00">Hinweis:</text>
<text text-anchor="start" x="850.74" y="-19.36" font-family="Times,serif" font-size="12.00">Cluster: Ablehnung</text>
<text text-anchor="start" x="850.74" y="-7.36" font-family="Times,serif" font-size="12.00">Die Flussrichtung mindestens einer Messlokation ist nicht korrekt angegeben.</text>
</g>
<!-- 10&#45;&gt;A07 -->
<g id="edge20" class="edge">
<title>10-&gt;A07</title>
<path fill="none" stroke="#7aab8a" d="M1315.45,-114.81C1272.05,-99.11 1221.31,-80.76 1178.58,-65.3"/>
<polygon fill="#7aab8a" stroke="#7aab8a" points="1179.92,-62.06 1169.33,-61.95 1177.54,-68.64 1179.92,-62.06"/>
<text text-anchor="start" x="1258.87" y="-84.47" font-family="Times,serif" font-weight="bold" font-size="14.00">NEIN</text>
</g>
<!-- A08 -->
<g id="node21" class="node">
<title>A08</title>
<path fill="#cfb986" stroke="black" stroke-width="0" d="M1628.11,-61.52C1628.11,-61.52 1363.62,-61.52 1363.62,-61.52 1357.62,-61.52 1351.62,-55.52 1351.62,-49.52 1351.62,-49.52 1351.62,-12 1351.62,-12 1351.62,-6 1357.62,0 1363.62,0 1363.62,0 1628.11,0 1628.11,0 1634.11,0 1640.11,-6 1640.11,-12 1640.11,-12 1640.11,-49.52 1640.11,-49.52 1640.11,-55.52 1634.11,-61.52 1628.11,-61.52"/>
<text text-anchor="start" x="1363.87" y="-43.46" font-family="Times,serif" font-weight="bold" font-size="14.00">A08</text>
<text text-anchor="start" x="1363.87" y="-31.36" font-family="Times,serif" text-decoration="underline" font-size="12.00">Hinweis:</text>
<text text-anchor="start" x="1363.87" y="-19.36" font-family="Times,serif" font-size="12.00">Cluster: Zustimmung</text>
<text text-anchor="start" x="1363.87" y="-7.36" font-family="Times,serif" font-size="12.00">Zustimmung bei berechneter Marktlokation</text>
</g>
<!-- 10&#45;&gt;A08 -->
<g id="edge21" class="edge">
<title>10-&gt;A08</title>
<path fill="none" stroke="#7aab8a" d="M1438.47,-114.81C1448.14,-100.81 1459.28,-84.7 1469.15,-70.42"/>
<polygon fill="#7aab8a" stroke="#7aab8a" points="1471.76,-72.8 1474.56,-62.58 1466,-68.82 1471.76,-72.8"/>
<text text-anchor="start" x="1461.87" y="-84.47" font-family="Times,serif" font-weight="bold" font-size="14.00">JA</text>
</g>
</g>
</svg>
  </g>
</svg>
  </g>
</svg>
