<?xml version='1.0' encoding='ASCII' standalone='yes'?>
<svg xmlns="http://www.w3.org/2000/svg" xmlns:xlink="http://www.w3.org/1999/xlink" version="1.1" width="1920.0px" viewBox="0 0 1920.0 512.0" height="512.0px">
  <g>
    <svg version="1.1" width="1920.0px" viewBox="0 0 1920.0 512.0" height="512.0px">
  <polygon fill="#f3f1f6" points="0,0 1920.0,0 1920.0,512.0 0,512.0"/><g>
    <g transform="translate(751.2060827935793, 51.19999999999999) scale(1 1) translate(0, 0) scale(0.7209236834694454 0.7209236834694454) "><!-- note that I manually added the width and height attribute to the root node
  https://chatgpt.com/share/678e3028-70cc-800b-a296-782714735772
  -->
  <defs>
    <style>.cls-1{fill:#fff;}</style>
  </defs>
  <path class="cls-1" d="M122.44,531.2h-56.1c-11,0-19.9-9.12-19.46-20.11C57.47,243.89,278.15,29.78,547.91,29.78v56.02c0,10.98-8.69,19.89-19.66,20.39-225.51,10.31-405.8,197-405.8,425Z"/>
  <path class="cls-1" d="M273.78,531.2h-55.93c-11.23,0-20.09-9.48-19.43-20.69,10.74-183.44,163.39-329.39,349.48-329.39v56.26c0,10.71-8.27,19.62-18.96,20.35-142.35,9.77-255.17,128.69-255.17,273.46Z"/>
  <path class="cls-1" d="M425.77,531.2h-55.45c-11.65,0-20.6-10.17-19.33-21.75,10.87-99.03,95.03-176.34,196.92-176.34v57.01c0,10.05-7.28,18.75-17.23,20.16-59.22,8.4-104.91,59.42-104.91,120.92Z"/>
</g>
    <svg width="1440pt" height="384pt" viewBox="0.00 0.00 1440.00 384.43">
<g id="graph0" class="graph" transform="scale(0.397692 0.397692) rotate(0) translate(4 962.66)">
<title>D</title>
<text text-anchor="start" x="1648.57" y="-938.56" font-family="Times,serif" font-weight="bold" font-size="18.00">MPES</text>
<text text-anchor="start" x="1648.57" y="-908.46" font-family="Times,serif" font-weight="bold" font-size="16.00">8.4.1: AD: Lieferende von NB an LF</text>
<!-- Start -->
<g id="node1" class="node">
<title>Start</title>
<path fill="#7a8da1" stroke="black" stroke-width="0" d="M1538.27,-860.66C1538.27,-860.66 1407.46,-860.66 1407.46,-860.66 1401.46,-860.66 1395.46,-854.66 1395.46,-848.66 1395.46,-848.66 1395.46,-829.38 1395.46,-829.38 1395.46,-823.38 1401.46,-817.38 1407.46,-817.38 1407.46,-817.38 1538.27,-817.38 1538.27,-817.38 1544.27,-817.38 1550.27,-823.38 1550.27,-829.38 1550.27,-829.38 1550.27,-848.66 1550.27,-848.66 1550.27,-854.66 1544.27,-860.66 1538.27,-860.66"/>
<text text-anchor="start" x="1444.74" y="-839.72" font-family="Times,serif" font-weight="bold" font-size="14.00">E_0302</text>
<text text-anchor="start" x="1409.87" y="-827.62" font-family="Times,serif" font-weight="bold" text-decoration="underline" font-size="12.00">Pr&#252;fende Rolle:</text>
<text text-anchor="start" x="1514.87" y="-827.62" font-family="Times,serif" font-weight="bold" font-size="12.00"> LF</text>
</g>
<!-- 1 -->
<g id="node2" class="node">
<title>1</title>
<path fill="#7aab8a" stroke="black" stroke-width="0" d="M1775.64,-780.38C1775.64,-780.38 1170.09,-780.38 1170.09,-780.38 1164.09,-780.38 1158.09,-774.38 1158.09,-768.38 1158.09,-768.38 1158.09,-747.1 1158.09,-747.1 1158.09,-741.1 1164.09,-735.1 1170.09,-735.1 1170.09,-735.1 1775.64,-735.1 1775.64,-735.1 1781.64,-735.1 1787.64,-741.1 1787.64,-747.1 1787.64,-747.1 1787.64,-768.38 1787.64,-768.38 1787.64,-774.38 1781.64,-780.38 1775.64,-780.38"/>
<text text-anchor="start" x="1172.49" y="-759.44" font-family="Times,serif" font-weight="bold" font-size="14.00">1: </text>
<text text-anchor="start" x="1191.99" y="-759.44" font-family="Times,serif" font-size="14.00">Wurde bereits zum identischen Abmeldedatum f&#252;r die in diesem Gesch&#228;ftsvorfall</text>
<text text-anchor="start" x="1172.49" y="-745.44" font-family="Times,serif" font-size="14.00">genannte Marktlokation der Gesch&#228;ftsvorfall Lieferende positiv best&#228;tigt?</text>
</g>
<!-- Start&#45;&gt;1 -->
<g id="edge1" class="edge">
<title>Start-&gt;1</title>
<path fill="none" stroke="black" d="M1472.87,-817.6C1472.87,-809.63 1472.87,-800.28 1472.87,-791.42"/>
<polygon fill="black" stroke="black" points="1476.37,-791.71 1472.87,-781.71 1469.37,-791.71 1476.37,-791.71"/>
</g>
<!-- A01 -->
<g id="node3" class="node">
<title>A01</title>
<path fill="#cfb986" stroke="black" stroke-width="0" d="M1533.48,-681.85C1533.48,-681.85 1202.25,-681.85 1202.25,-681.85 1196.25,-681.85 1190.25,-675.85 1190.25,-669.85 1190.25,-669.85 1190.25,-632.33 1190.25,-632.33 1190.25,-626.33 1196.25,-620.33 1202.25,-620.33 1202.25,-620.33 1533.48,-620.33 1533.48,-620.33 1539.48,-620.33 1545.48,-626.33 1545.48,-632.33 1545.48,-632.33 1545.48,-669.85 1545.48,-669.85 1545.48,-675.85 1539.48,-681.85 1533.48,-681.85"/>
<text text-anchor="start" x="1202.49" y="-663.79" font-family="Times,serif" font-weight="bold" font-size="14.00">A01</text>
<text text-anchor="start" x="1202.49" y="-651.69" font-family="Times,serif" text-decoration="underline" font-size="12.00">Hinweis:</text>
<text text-anchor="start" x="1202.49" y="-639.69" font-family="Times,serif" font-size="12.00">Cluster: Ablehnung</text>
<text text-anchor="start" x="1202.49" y="-627.69" font-family="Times,serif" font-size="12.00">Lieferende zum Abmeldedatum wurde bereits best&#228;tigt</text>
</g>
<!-- 1&#45;&gt;A01 -->
<g id="edge2" class="edge">
<title>1-&gt;A01</title>
<path fill="none" stroke="#7aab8a" d="M1451.36,-735.31C1438.18,-722.17 1420.94,-704.99 1405.55,-689.64"/>
<polygon fill="#7aab8a" stroke="#7aab8a" points="1408.32,-687.47 1398.77,-682.89 1403.38,-692.43 1408.32,-687.47"/>
<text text-anchor="start" x="1431.87" y="-704.8" font-family="Times,serif" font-weight="bold" font-size="14.00">JA</text>
</g>
<!-- 2 -->
<g id="node4" class="node">
<title>2</title>
<path fill="#7aab8a" stroke="black" stroke-width="0" d="M1922.27,-669.09C1922.27,-669.09 1575.46,-669.09 1575.46,-669.09 1569.46,-669.09 1563.46,-663.09 1563.46,-657.09 1563.46,-657.09 1563.46,-645.09 1563.46,-645.09 1563.46,-639.09 1569.46,-633.09 1575.46,-633.09 1575.46,-633.09 1922.27,-633.09 1922.27,-633.09 1928.27,-633.09 1934.27,-639.09 1934.27,-645.09 1934.27,-645.09 1934.27,-657.09 1934.27,-657.09 1934.27,-663.09 1928.27,-669.09 1922.27,-669.09"/>
<text text-anchor="start" x="1577.87" y="-647.41" font-family="Times,serif" font-weight="bold" font-size="14.00">2: </text>
<text text-anchor="start" x="1597.37" y="-647.41" font-family="Times,serif" font-size="14.00">Liegt der Transaktionsgrund Stilllegung vor?</text>
</g>
<!-- 1&#45;&gt;2 -->
<g id="edge3" class="edge">
<title>1-&gt;2</title>
<path fill="none" stroke="#7aab8a" d="M1529.72,-735.18C1577.74,-716.98 1646.09,-691.06 1693.64,-673.03"/>
<polygon fill="#7aab8a" stroke="#7aab8a" points="1694.83,-676.32 1702.94,-669.5 1692.35,-669.78 1694.83,-676.32"/>
<text text-anchor="start" x="1618.87" y="-704.8" font-family="Times,serif" font-weight="bold" font-size="14.00">NEIN</text>
</g>
<!-- 3 -->
<g id="node5" class="node">
<title>3</title>
<path fill="#7aab8a" stroke="black" stroke-width="0" d="M1697.01,-567.08C1697.01,-567.08 1186.72,-567.08 1186.72,-567.08 1180.72,-567.08 1174.72,-561.08 1174.72,-555.08 1174.72,-555.08 1174.72,-543.08 1174.72,-543.08 1174.72,-537.08 1180.72,-531.08 1186.72,-531.08 1186.72,-531.08 1697.01,-531.08 1697.01,-531.08 1703.01,-531.08 1709.01,-537.08 1709.01,-543.08 1709.01,-543.08 1709.01,-555.08 1709.01,-555.08 1709.01,-561.08 1703.01,-567.08 1697.01,-567.08"/>
<text text-anchor="start" x="1189.12" y="-545.4" font-family="Times,serif" font-weight="bold" font-size="14.00">3: </text>
<text text-anchor="start" x="1208.62" y="-545.4" font-family="Times,serif" font-size="14.00">Ist die Prognosegrundlage der Marktlokation auf Basis von Werten?</text>
</g>
<!-- 2&#45;&gt;3 -->
<g id="edge4" class="edge">
<title>2-&gt;3</title>
<path fill="none" stroke="#7aab8a" d="M1696.79,-633.12C1643.67,-615.82 1561.23,-588.96 1504.56,-570.5"/>
<polygon fill="#7aab8a" stroke="#7aab8a" points="1505.97,-567.28 1495.38,-567.51 1503.81,-573.94 1505.97,-567.28"/>
<text text-anchor="start" x="1594.87" y="-590.03" font-family="Times,serif" font-weight="bold" font-size="14.00">JA</text>
</g>
<!-- 9 -->
<g id="node17" class="node">
<title>9</title>
<path fill="#7aab8a" stroke="black" stroke-width="0" d="M2340.14,-567.08C2340.14,-567.08 1773.59,-567.08 1773.59,-567.08 1767.59,-567.08 1761.59,-561.08 1761.59,-555.08 1761.59,-555.08 1761.59,-543.08 1761.59,-543.08 1761.59,-537.08 1767.59,-531.08 1773.59,-531.08 1773.59,-531.08 2340.14,-531.08 2340.14,-531.08 2346.14,-531.08 2352.14,-537.08 2352.14,-543.08 2352.14,-543.08 2352.14,-555.08 2352.14,-555.08 2352.14,-561.08 2346.14,-567.08 2340.14,-567.08"/>
<text text-anchor="start" x="1775.99" y="-545.4" font-family="Times,serif" font-weight="bold" font-size="14.00">9: </text>
<text text-anchor="start" x="1795.49" y="-545.4" font-family="Times,serif" font-size="14.00">Ist das Datum &#8222;Bilanzierungsende&#8220; identisch mit dem Datum &#8222;Lieferende&#8220;?</text>
</g>
<!-- 2&#45;&gt;9 -->
<g id="edge5" class="edge">
<title>2-&gt;9</title>
<path fill="none" stroke="#7aab8a" d="M1801.11,-633.12C1854.4,-615.82 1937.11,-588.96 1993.96,-570.5"/>
<polygon fill="#7aab8a" stroke="#7aab8a" points="1994.75,-573.93 2003.18,-567.51 1992.59,-567.27 1994.75,-573.93"/>
<text text-anchor="start" x="1947.87" y="-590.03" font-family="Times,serif" font-weight="bold" font-size="14.00">NEIN</text>
</g>
<!-- 4 -->
<g id="node6" class="node">
<title>4</title>
<path fill="#7aab8a" stroke="black" stroke-width="0" d="M1073.51,-459.07C1073.51,-459.07 476.22,-459.07 476.22,-459.07 470.22,-459.07 464.22,-453.07 464.22,-447.07 464.22,-447.07 464.22,-435.07 464.22,-435.07 464.22,-429.07 470.22,-423.07 476.22,-423.07 476.22,-423.07 1073.51,-423.07 1073.51,-423.07 1079.51,-423.07 1085.51,-429.07 1085.51,-435.07 1085.51,-435.07 1085.51,-447.07 1085.51,-447.07 1085.51,-453.07 1079.51,-459.07 1073.51,-459.07"/>
<text text-anchor="start" x="478.62" y="-437.39" font-family="Times,serif" font-weight="bold" font-size="14.00">4: </text>
<text text-anchor="start" x="498.12" y="-437.39" font-family="Times,serif" font-size="14.00">Liegt das Datum &#8222;Lieferende&#8220; mindestens 1 WT nach dem Nachrichteneingang?</text>
</g>
<!-- 3&#45;&gt;4 -->
<g id="edge6" class="edge">
<title>3-&gt;4</title>
<path fill="none" stroke="#7aab8a" d="M1335.07,-531.11C1214.23,-511.9 1017.99,-480.71 892.76,-460.81"/>
<polygon fill="#7aab8a" stroke="#7aab8a" points="893.53,-457.39 883.11,-459.27 892.44,-464.3 893.53,-457.39"/>
<text text-anchor="start" x="1206.87" y="-500.78" font-family="Times,serif" font-weight="bold" font-size="14.00">JA</text>
</g>
<!-- 6 -->
<g id="node10" class="node">
<title>6</title>
<path fill="#7aab8a" stroke="black" stroke-width="0" d="M1768.64,-459.07C1768.64,-459.07 1115.09,-459.07 1115.09,-459.07 1109.09,-459.07 1103.09,-453.07 1103.09,-447.07 1103.09,-447.07 1103.09,-435.07 1103.09,-435.07 1103.09,-429.07 1109.09,-423.07 1115.09,-423.07 1115.09,-423.07 1768.64,-423.07 1768.64,-423.07 1774.64,-423.07 1780.64,-429.07 1780.64,-435.07 1780.64,-435.07 1780.64,-447.07 1780.64,-447.07 1780.64,-453.07 1774.64,-459.07 1768.64,-459.07"/>
<text text-anchor="start" x="1117.49" y="-437.39" font-family="Times,serif" font-weight="bold" font-size="14.00">6: </text>
<text text-anchor="start" x="1136.99" y="-437.39" font-family="Times,serif" font-size="14.00">Liegt das Datum &#8222;Bilanzierungsende&#8220; mindestens 3 WT nach dem Nachrichteneingang?</text>
</g>
<!-- 3&#45;&gt;6 -->
<g id="edge7" class="edge">
<title>3-&gt;6</title>
<path fill="none" stroke="#7aab8a" d="M1441.87,-531.52C1441.87,-515.12 1441.87,-489.71 1441.87,-470.15"/>
<polygon fill="#7aab8a" stroke="#7aab8a" points="1445.37,-470.38 1441.87,-460.38 1438.37,-470.38 1445.37,-470.38"/>
<text text-anchor="start" x="1441.87" y="-500.78" font-family="Times,serif" font-weight="bold" font-size="14.00">NEIN</text>
</g>
<!-- A02 -->
<g id="node7" class="node">
<title>A02</title>
<path fill="#cfb986" stroke="black" stroke-width="0" d="M509.73,-339.06C509.73,-339.06 12,-339.06 12,-339.06 6,-339.06 0,-333.06 0,-327.06 0,-327.06 0,-277.54 0,-277.54 0,-271.54 6,-265.54 12,-265.54 12,-265.54 509.73,-265.54 509.73,-265.54 515.73,-265.54 521.73,-271.54 521.73,-277.54 521.73,-277.54 521.73,-327.06 521.73,-327.06 521.73,-333.06 515.73,-339.06 509.73,-339.06"/>
<text text-anchor="start" x="12.24" y="-321" font-family="Times,serif" font-weight="bold" font-size="14.00">A02</text>
<text text-anchor="start" x="12.24" y="-308.9" font-family="Times,serif" text-decoration="underline" font-size="12.00">Hinweis:</text>
<text text-anchor="start" x="12.24" y="-296.9" font-family="Times,serif" font-size="12.00">Cluster: Ablehnung</text>
<text text-anchor="start" x="12.24" y="-284.9" font-family="Times,serif" font-size="12.00">Eine Stilllegung einer Marktlokation mit Prognosegrundlage auf Basis von Werten</text>
<text text-anchor="start" x="12.24" y="-272.9" font-family="Times,serif" font-size="12.00">kann nicht in die Vergangenheit gemeldet werden.</text>
</g>
<!-- 4&#45;&gt;A02 -->
<g id="edge8" class="edge">
<title>4-&gt;A02</title>
<path fill="none" stroke="#7aab8a" d="M711.06,-423.09C635.25,-402.92 506.4,-368.63 405.92,-341.9"/>
<polygon fill="#7aab8a" stroke="#7aab8a" points="407.08,-338.58 396.51,-339.39 405.28,-345.35 407.08,-338.58"/>
<text text-anchor="start" x="563.87" y="-374.01" font-family="Times,serif" font-weight="bold" font-size="14.00">NEIN</text>
</g>
<!-- 5 -->
<g id="node8" class="node">
<title>5</title>
<path fill="#7aab8a" stroke="black" stroke-width="0" d="M1118.14,-320.3C1118.14,-320.3 551.59,-320.3 551.59,-320.3 545.59,-320.3 539.59,-314.3 539.59,-308.3 539.59,-308.3 539.59,-296.3 539.59,-296.3 539.59,-290.3 545.59,-284.3 551.59,-284.3 551.59,-284.3 1118.14,-284.3 1118.14,-284.3 1124.14,-284.3 1130.14,-290.3 1130.14,-296.3 1130.14,-296.3 1130.14,-308.3 1130.14,-308.3 1130.14,-314.3 1124.14,-320.3 1118.14,-320.3"/>
<text text-anchor="start" x="553.99" y="-298.62" font-family="Times,serif" font-weight="bold" font-size="14.00">5: </text>
<text text-anchor="start" x="573.49" y="-298.62" font-family="Times,serif" font-size="14.00">Ist das Datum &#8222;Bilanzierungsende&#8220; identisch mit dem Datum &#8222;Lieferende&#8220;?</text>
</g>
<!-- 4&#45;&gt;5 -->
<g id="edge9" class="edge">
<title>4-&gt;5</title>
<path fill="none" stroke="#7aab8a" d="M782.22,-423.3C792.39,-400.13 810.85,-358.05 822.98,-330.38"/>
<polygon fill="#7aab8a" stroke="#7aab8a" points="826.03,-332.16 826.84,-321.59 819.62,-329.35 826.03,-332.16"/>
<text text-anchor="start" x="804.87" y="-374.01" font-family="Times,serif" font-weight="bold" font-size="14.00">JA</text>
</g>
<!-- A03 -->
<g id="node9" class="node">
<title>A03</title>
<path fill="#cfb986" stroke="black" stroke-width="0" d="M1045.86,-200.29C1045.86,-200.29 623.88,-200.29 623.88,-200.29 617.88,-200.29 611.88,-194.29 611.88,-188.29 611.88,-188.29 611.88,-138.77 611.88,-138.77 611.88,-132.77 617.88,-126.77 623.88,-126.77 623.88,-126.77 1045.86,-126.77 1045.86,-126.77 1051.86,-126.77 1057.86,-132.77 1057.86,-138.77 1057.86,-138.77 1057.86,-188.29 1057.86,-188.29 1057.86,-194.29 1051.86,-200.29 1045.86,-200.29"/>
<text text-anchor="start" x="624.12" y="-182.23" font-family="Times,serif" font-weight="bold" font-size="14.00">A03</text>
<text text-anchor="start" x="624.12" y="-170.13" font-family="Times,serif" text-decoration="underline" font-size="12.00">Hinweis:</text>
<text text-anchor="start" x="624.12" y="-158.13" font-family="Times,serif" font-size="12.00">Cluster: Ablehnung</text>
<text text-anchor="start" x="624.12" y="-146.13" font-family="Times,serif" font-size="12.00">Bei Marktlokation mit Prognosegrundlage auf Basis von Werten muss</text>
<text text-anchor="start" x="624.12" y="-134.13" font-family="Times,serif" font-size="12.00">Bilanzierungsende und Lieferende identisch sein.</text>
</g>
<!-- 5&#45;&gt;A03 -->
<g id="edge10" class="edge">
<title>5-&gt;A03</title>
<path fill="none" stroke="#7aab8a" d="M834.87,-284.53C834.87,-266.41 834.87,-236.72 834.87,-211.41"/>
<polygon fill="#7aab8a" stroke="#7aab8a" points="838.37,-211.65 834.87,-201.65 831.37,-211.65 838.37,-211.65"/>
<text text-anchor="start" x="834.87" y="-223.24" font-family="Times,serif" font-weight="bold" font-size="14.00">NEIN</text>
</g>
<!-- 8 -->
<g id="node14" class="node">
<title>8</title>
<path fill="#7aab8a" stroke="black" stroke-width="0" d="M1896.51,-186.17C1896.51,-186.17 1359.22,-186.17 1359.22,-186.17 1353.22,-186.17 1347.22,-180.17 1347.22,-174.17 1347.22,-174.17 1347.22,-152.89 1347.22,-152.89 1347.22,-146.89 1353.22,-140.89 1359.22,-140.89 1359.22,-140.89 1896.51,-140.89 1896.51,-140.89 1902.51,-140.89 1908.51,-146.89 1908.51,-152.89 1908.51,-152.89 1908.51,-174.17 1908.51,-174.17 1908.51,-180.17 1902.51,-186.17 1896.51,-186.17"/>
<text text-anchor="start" x="1361.62" y="-165.23" font-family="Times,serif" font-weight="bold" font-size="14.00">8: </text>
<text text-anchor="start" x="1381.12" y="-165.23" font-family="Times,serif" font-size="14.00">Liegen dem LF Informationen dar&#252;ber vor, dass die Marktlokation nicht</text>
<text text-anchor="start" x="1361.62" y="-151.23" font-family="Times,serif" font-size="14.00">stillgelegt wird/wurde?</text>
</g>
<!-- 5&#45;&gt;8 -->
<g id="edge11" class="edge">
<title>5-&gt;8</title>
<path fill="none" stroke="#7aab8a" d="M933.3,-284.32C1073.75,-260.1 1332.24,-215.52 1491.19,-188.1"/>
<polygon fill="#7aab8a" stroke="#7aab8a" points="1491.71,-191.57 1500.97,-186.42 1490.52,-184.67 1491.71,-191.57"/>
<text text-anchor="start" x="1301.87" y="-223.24" font-family="Times,serif" font-weight="bold" font-size="14.00">JA</text>
</g>
<!-- A04 -->
<g id="node11" class="node">
<title>A04</title>
<path fill="#cfb986" stroke="black" stroke-width="0" d="M1625.23,-339.06C1625.23,-339.06 1160.5,-339.06 1160.5,-339.06 1154.5,-339.06 1148.5,-333.06 1148.5,-327.06 1148.5,-327.06 1148.5,-277.54 1148.5,-277.54 1148.5,-271.54 1154.5,-265.54 1160.5,-265.54 1160.5,-265.54 1625.23,-265.54 1625.23,-265.54 1631.23,-265.54 1637.23,-271.54 1637.23,-277.54 1637.23,-277.54 1637.23,-327.06 1637.23,-327.06 1637.23,-333.06 1631.23,-339.06 1625.23,-339.06"/>
<text text-anchor="start" x="1160.74" y="-321" font-family="Times,serif" font-weight="bold" font-size="14.00">A04</text>
<text text-anchor="start" x="1160.74" y="-308.9" font-family="Times,serif" text-decoration="underline" font-size="12.00">Hinweis:</text>
<text text-anchor="start" x="1160.74" y="-296.9" font-family="Times,serif" font-size="12.00">Cluster: Ablehnung</text>
<text text-anchor="start" x="1160.74" y="-284.9" font-family="Times,serif" font-size="12.00">Bilanzierungsfrist bei Marktlokationen mit Prognosegrundlage auf Basis von</text>
<text text-anchor="start" x="1160.74" y="-272.9" font-family="Times,serif" font-size="12.00">Profilen nicht eingehalten.</text>
</g>
<!-- 6&#45;&gt;A04 -->
<g id="edge12" class="edge">
<title>6-&gt;A04</title>
<path fill="none" stroke="#7aab8a" d="M1435.86,-423.3C1429.3,-405.01 1418.54,-374.95 1409.41,-349.49"/>
<polygon fill="#7aab8a" stroke="#7aab8a" points="1412.8,-348.57 1406.13,-340.34 1406.21,-350.93 1412.8,-348.57"/>
<text text-anchor="start" x="1420.87" y="-374.01" font-family="Times,serif" font-weight="bold" font-size="14.00">NEIN</text>
</g>
<!-- 7 -->
<g id="node12" class="node">
<title>7</title>
<path fill="#7aab8a" stroke="black" stroke-width="0" d="M2298.76,-320.3C2298.76,-320.3 1666.97,-320.3 1666.97,-320.3 1660.97,-320.3 1654.97,-314.3 1654.97,-308.3 1654.97,-308.3 1654.97,-296.3 1654.97,-296.3 1654.97,-290.3 1660.97,-284.3 1666.97,-284.3 1666.97,-284.3 2298.76,-284.3 2298.76,-284.3 2304.76,-284.3 2310.76,-290.3 2310.76,-296.3 2310.76,-296.3 2310.76,-308.3 2310.76,-308.3 2310.76,-314.3 2304.76,-320.3 2298.76,-320.3"/>
<text text-anchor="start" x="1669.37" y="-298.62" font-family="Times,serif" font-weight="bold" font-size="14.00">7: </text>
<text text-anchor="start" x="1688.87" y="-298.62" font-family="Times,serif" font-size="14.00">Liegt das Datum &#8222;Bilanzierungsende&#8220; auf dem 1. eines Kalendermonates 00:00 Uhr?</text>
</g>
<!-- 6&#45;&gt;7 -->
<g id="edge13" class="edge">
<title>6-&gt;7</title>
<path fill="none" stroke="#7aab8a" d="M1509.02,-423.09C1609.46,-397.7 1798.36,-349.94 1904.81,-323.03"/>
<polygon fill="#7aab8a" stroke="#7aab8a" points="1905.49,-326.47 1914.32,-320.63 1903.77,-319.69 1905.49,-326.47"/>
<text text-anchor="start" x="1711.87" y="-374.01" font-family="Times,serif" font-weight="bold" font-size="14.00">JA</text>
</g>
<!-- A05 -->
<g id="node13" class="node">
<title>A05</title>
<path fill="#cfb986" stroke="black" stroke-width="0" d="M2263.1,-194.29C2263.1,-194.29 1938.62,-194.29 1938.62,-194.29 1932.62,-194.29 1926.62,-188.29 1926.62,-182.29 1926.62,-182.29 1926.62,-144.77 1926.62,-144.77 1926.62,-138.77 1932.62,-132.77 1938.62,-132.77 1938.62,-132.77 2263.1,-132.77 2263.1,-132.77 2269.1,-132.77 2275.1,-138.77 2275.1,-144.77 2275.1,-144.77 2275.1,-182.29 2275.1,-182.29 2275.1,-188.29 2269.1,-194.29 2263.1,-194.29"/>
<text text-anchor="start" x="1938.86" y="-176.23" font-family="Times,serif" font-weight="bold" font-size="14.00">A05</text>
<text text-anchor="start" x="1938.86" y="-164.13" font-family="Times,serif" text-decoration="underline" font-size="12.00">Hinweis:</text>
<text text-anchor="start" x="1938.86" y="-152.13" font-family="Times,serif" font-size="12.00">Cluster: Ablehnung</text>
<text text-anchor="start" x="1938.86" y="-140.13" font-family="Times,serif" font-size="12.00">Bilanzierungsende liegt nicht auf dem Monatswechsel</text>
</g>
<!-- 7&#45;&gt;A05 -->
<g id="edge14" class="edge">
<title>7-&gt;A05</title>
<path fill="none" stroke="#7aab8a" d="M1997.33,-284.53C2014.83,-264.25 2044.8,-229.51 2068.01,-202.61"/>
<polygon fill="#7aab8a" stroke="#7aab8a" points="2070.42,-205.18 2074.3,-195.32 2065.12,-200.61 2070.42,-205.18"/>
<text text-anchor="start" x="2051.86" y="-223.24" font-family="Times,serif" font-weight="bold" font-size="14.00">NEIN</text>
</g>
<!-- 7&#45;&gt;8 -->
<g id="edge15" class="edge">
<title>7-&gt;8</title>
<path fill="none" stroke="#7aab8a" d="M1938.98,-284.39C1877.75,-260.8 1766.18,-217.82 1694.61,-190.24"/>
<polygon fill="#7aab8a" stroke="#7aab8a" points="1695.92,-187 1685.33,-186.67 1693.4,-193.53 1695.92,-187"/>
<text text-anchor="start" x="1804.87" y="-223.24" font-family="Times,serif" font-weight="bold" font-size="14.00">JA</text>
</g>
<!-- A06 -->
<g id="node15" class="node">
<title>A06</title>
<path fill="#cfb986" stroke="black" stroke-width="0" d="M1849.73,-73.52C1849.73,-73.52 1406,-73.52 1406,-73.52 1400,-73.52 1394,-67.52 1394,-61.52 1394,-61.52 1394,-12 1394,-12 1394,-6 1400,0 1406,0 1406,0 1849.73,0 1849.73,0 1855.73,0 1861.73,-6 1861.73,-12 1861.73,-12 1861.73,-61.52 1861.73,-61.52 1861.73,-67.52 1855.73,-73.52 1849.73,-73.52"/>
<text text-anchor="start" x="1406.24" y="-55.46" font-family="Times,serif" font-weight="bold" font-size="14.00">A06</text>
<text text-anchor="start" x="1406.24" y="-43.36" font-family="Times,serif" text-decoration="underline" font-size="12.00">Hinweis:</text>
<text text-anchor="start" x="1406.24" y="-31.36" font-family="Times,serif" font-size="12.00">Cluster: Ablehnung</text>
<text text-anchor="start" x="1406.24" y="-19.36" font-family="Times,serif" font-size="12.00">Dem LF liegen Informationen vor, dass die Marktlokation nicht stillgelegt</text>
<text text-anchor="start" x="1406.24" y="-7.36" font-family="Times,serif" font-size="12.00">wird/wurde.</text>
</g>
<!-- 8&#45;&gt;A06 -->
<g id="edge16" class="edge">
<title>8-&gt;A06</title>
<path fill="none" stroke="#7aab8a" d="M1627.87,-141.08C1627.87,-125.54 1627.87,-103.94 1627.87,-84.51"/>
<polygon fill="#7aab8a" stroke="#7aab8a" points="1631.37,-84.58 1627.87,-74.58 1624.37,-84.58 1631.37,-84.58"/>
<text text-anchor="start" x="1627.87" y="-96.47" font-family="Times,serif" font-weight="bold" font-size="14.00">JA</text>
</g>
<!-- A10 -->
<g id="node16" class="node">
<title>A10</title>
<path fill="#cfb986" stroke="black" stroke-width="0" d="M2388.48,-67.52C2388.48,-67.52 2219.25,-67.52 2219.25,-67.52 2213.25,-67.52 2207.25,-61.52 2207.25,-55.52 2207.25,-55.52 2207.25,-18 2207.25,-18 2207.25,-12 2213.25,-6 2219.25,-6 2219.25,-6 2388.48,-6 2388.48,-6 2394.48,-6 2400.48,-12 2400.48,-18 2400.48,-18 2400.48,-55.52 2400.48,-55.52 2400.48,-61.52 2394.48,-67.52 2388.48,-67.52"/>
<text text-anchor="start" x="2219.49" y="-49.46" font-family="Times,serif" font-weight="bold" font-size="14.00">A10</text>
<text text-anchor="start" x="2219.49" y="-37.36" font-family="Times,serif" text-decoration="underline" font-size="12.00">Hinweis:</text>
<text text-anchor="start" x="2219.49" y="-25.36" font-family="Times,serif" font-size="12.00">Cluster: Zustimmung</text>
<text text-anchor="start" x="2219.49" y="-13.36" font-family="Times,serif" font-size="12.00">Lieferende wird zugestimmt</text>
</g>
<!-- 8&#45;&gt;A10 -->
<g id="edge17" class="edge">
<title>8-&gt;A10</title>
<path fill="none" stroke="#7aab8a" d="M1744.84,-140.94C1871.82,-117.5 2072.9,-80.39 2196.13,-57.64"/>
<polygon fill="#7aab8a" stroke="#7aab8a" points="2196.75,-61.09 2205.95,-55.83 2195.48,-54.21 2196.75,-61.09"/>
<text text-anchor="start" x="2005.87" y="-96.47" font-family="Times,serif" font-weight="bold" font-size="14.00">NEIN</text>
</g>
<!-- A07 -->
<g id="node18" class="node">
<title>A07</title>
<path fill="#cfb986" stroke="black" stroke-width="0" d="M2302.73,-477.83C2302.73,-477.83 1811,-477.83 1811,-477.83 1805,-477.83 1799,-471.83 1799,-465.83 1799,-465.83 1799,-416.31 1799,-416.31 1799,-410.31 1805,-404.31 1811,-404.31 1811,-404.31 2302.73,-404.31 2302.73,-404.31 2308.73,-404.31 2314.73,-410.31 2314.73,-416.31 2314.73,-416.31 2314.73,-465.83 2314.73,-465.83 2314.73,-471.83 2308.73,-477.83 2302.73,-477.83"/>
<text text-anchor="start" x="1811.24" y="-459.77" font-family="Times,serif" font-weight="bold" font-size="14.00">A07</text>
<text text-anchor="start" x="1811.24" y="-447.67" font-family="Times,serif" text-decoration="underline" font-size="12.00">Hinweis:</text>
<text text-anchor="start" x="1811.24" y="-435.67" font-family="Times,serif" font-size="12.00">Cluster: Ablehnung</text>
<text text-anchor="start" x="1811.24" y="-423.67" font-family="Times,serif" font-size="12.00">Lieferende und Bilanzierungsende m&#252;ssen bei Lieferende von NB an LF aufgrund</text>
<text text-anchor="start" x="1811.24" y="-411.67" font-family="Times,serif" font-size="12.00">entfallender oder fehlender Zuordnungserm&#228;chtigung synchron sein.</text>
</g>
<!-- 9&#45;&gt;A07 -->
<g id="edge18" class="edge">
<title>9-&gt;A07</title>
<path fill="none" stroke="#7aab8a" d="M2056.86,-531.52C2056.86,-520.1 2056.86,-504.31 2056.86,-489.18"/>
<polygon fill="#7aab8a" stroke="#7aab8a" points="2060.37,-489.33 2056.87,-479.33 2053.37,-489.33 2060.37,-489.33"/>
<text text-anchor="start" x="2056.86" y="-500.78" font-family="Times,serif" font-weight="bold" font-size="14.00">NEIN</text>
</g>
<!-- 10 -->
<g id="node19" class="node">
<title>10</title>
<path fill="#7aab8a" stroke="black" stroke-width="0" d="M2918.51,-459.07C2918.51,-459.07 2345.21,-459.07 2345.21,-459.07 2339.21,-459.07 2333.21,-453.07 2333.21,-447.07 2333.21,-447.07 2333.21,-435.07 2333.21,-435.07 2333.21,-429.07 2339.21,-423.07 2345.21,-423.07 2345.21,-423.07 2918.51,-423.07 2918.51,-423.07 2924.51,-423.07 2930.51,-429.07 2930.51,-435.07 2930.51,-435.07 2930.51,-447.07 2930.51,-447.07 2930.51,-453.07 2924.51,-459.07 2918.51,-459.07"/>
<text text-anchor="start" x="2347.61" y="-437.39" font-family="Times,serif" font-weight="bold" font-size="14.00">10: </text>
<text text-anchor="start" x="2376.86" y="-437.39" font-family="Times,serif" font-size="14.00">Liegt das &#252;bermittelte Datum &#8222;Lieferende&#8220; nach dem Nachrichteneingang?</text>
</g>
<!-- 9&#45;&gt;10 -->
<g id="edge19" class="edge">
<title>9-&gt;10</title>
<path fill="none" stroke="#7aab8a" d="M2148.93,-531.11C2252.65,-511.98 2420.82,-480.98 2528.84,-461.06"/>
<polygon fill="#7aab8a" stroke="#7aab8a" points="2529.39,-464.52 2538.59,-459.27 2528.12,-457.64 2529.39,-464.52"/>
<text text-anchor="start" x="2326.86" y="-500.78" font-family="Times,serif" font-weight="bold" font-size="14.00">JA</text>
</g>
<!-- A08 -->
<g id="node20" class="node">
<title>A08</title>
<path fill="#cfb986" stroke="black" stroke-width="0" d="M2883.23,-351.06C2883.23,-351.06 2340.5,-351.06 2340.5,-351.06 2334.5,-351.06 2328.5,-345.06 2328.5,-339.06 2328.5,-339.06 2328.5,-265.54 2328.5,-265.54 2328.5,-259.54 2334.5,-253.54 2340.5,-253.54 2340.5,-253.54 2883.23,-253.54 2883.23,-253.54 2889.23,-253.54 2895.23,-259.54 2895.23,-265.54 2895.23,-265.54 2895.23,-339.06 2895.23,-339.06 2895.23,-345.06 2889.23,-351.06 2883.23,-351.06"/>
<text text-anchor="start" x="2340.74" y="-333" font-family="Times,serif" font-weight="bold" font-size="14.00">A08</text>
<text text-anchor="start" x="2340.74" y="-320.9" font-family="Times,serif" text-decoration="underline" font-size="12.00">Hinweis:</text>
<text text-anchor="start" x="2340.74" y="-308.9" font-family="Times,serif" font-size="12.00">Cluster: Ablehnung</text>
<text text-anchor="start" x="2340.74" y="-296.9" font-family="Times,serif" font-size="12.00">Lieferende bei Transaktionsgrund &#8222;Abmeldung wegen fehl. Zuordnungserm&#228;chtigung&#8220;</text>
<text text-anchor="start" x="2340.74" y="-284.9" font-family="Times,serif" font-size="12.00">oder</text>
<text text-anchor="start" x="2340.74" y="-272.9" font-family="Times,serif" font-size="12.00">&#8222;Abmeldung wegen fehl. Zuordnungserm&#228;chtigung aufgrund &#196;nderung ZRT&#8220; muss immer</text>
<text text-anchor="start" x="2340.74" y="-260.9" font-family="Times,serif" font-size="12.00">in der Zukunft sein.</text>
</g>
<!-- 10&#45;&gt;A08 -->
<g id="edge20" class="edge">
<title>10-&gt;A08</title>
<path fill="none" stroke="#7aab8a" d="M2629.41,-423.3C2627.16,-407.92 2623.7,-384.22 2620.44,-361.93"/>
<polygon fill="#7aab8a" stroke="#7aab8a" points="2623.94,-361.69 2619.03,-352.3 2617.01,-362.7 2623.94,-361.69"/>
<text text-anchor="start" x="2622.86" y="-374.01" font-family="Times,serif" font-weight="bold" font-size="14.00">NEIN</text>
</g>
<!-- 11 -->
<g id="node21" class="node">
<title>11</title>
<path fill="#7aab8a" stroke="black" stroke-width="0" d="M3600.89,-320.3C3600.89,-320.3 2924.84,-320.3 2924.84,-320.3 2918.84,-320.3 2912.84,-314.3 2912.84,-308.3 2912.84,-308.3 2912.84,-296.3 2912.84,-296.3 2912.84,-290.3 2918.84,-284.3 2924.84,-284.3 2924.84,-284.3 3600.89,-284.3 3600.89,-284.3 3606.89,-284.3 3612.89,-290.3 3612.89,-296.3 3612.89,-296.3 3612.89,-308.3 3612.89,-308.3 3612.89,-314.3 3606.89,-320.3 3600.89,-320.3"/>
<text text-anchor="start" x="2927.24" y="-298.62" font-family="Times,serif" font-weight="bold" font-size="14.00">11: </text>
<text text-anchor="start" x="2956.49" y="-298.62" font-family="Times,serif" font-size="14.00">Ist das angegebene Datum &#8222;Lieferende&#8220; der n&#228;chste 1.&#160;eines Kalendermonats 00:00 Uhr?</text>
</g>
<!-- 10&#45;&gt;11 -->
<g id="edge21" class="edge">
<title>10-&gt;11</title>
<path fill="none" stroke="#7aab8a" d="M2710.19,-423.09C2827.93,-397.57 3049.9,-349.46 3173.7,-322.63"/>
<polygon fill="#7aab8a" stroke="#7aab8a" points="3174.12,-326.12 3183.15,-320.58 3172.64,-319.28 3174.12,-326.12"/>
<text text-anchor="start" x="2946.86" y="-374.01" font-family="Times,serif" font-weight="bold" font-size="14.00">JA</text>
</g>
<!-- 11&#45;&gt;A10 -->
<g id="edge23" class="edge">
<title>11-&gt;A10</title>
<path fill="none" stroke="#7aab8a" d="M3201.05,-284.31C3041.2,-240.38 2612.64,-122.61 2411.23,-67.27"/>
<polygon fill="#7aab8a" stroke="#7aab8a" points="2412.38,-63.95 2401.81,-64.68 2410.53,-70.7 2412.38,-63.95"/>
<text text-anchor="start" x="2893.86" y="-159.85" font-family="Times,serif" font-weight="bold" font-size="14.00">JA</text>
</g>
<!-- A09 -->
<g id="node22" class="node">
<title>A09</title>
<path fill="#cfb986" stroke="black" stroke-width="0" d="M3523.35,-200.29C3523.35,-200.29 3002.38,-200.29 3002.38,-200.29 2996.38,-200.29 2990.38,-194.29 2990.38,-188.29 2990.38,-188.29 2990.38,-138.77 2990.38,-138.77 2990.38,-132.77 2996.38,-126.77 3002.38,-126.77 3002.38,-126.77 3523.35,-126.77 3523.35,-126.77 3529.35,-126.77 3535.35,-132.77 3535.35,-138.77 3535.35,-138.77 3535.35,-188.29 3535.35,-188.29 3535.35,-194.29 3529.35,-200.29 3523.35,-200.29"/>
<text text-anchor="start" x="3002.61" y="-182.23" font-family="Times,serif" font-weight="bold" font-size="14.00">A09</text>
<text text-anchor="start" x="3002.61" y="-170.13" font-family="Times,serif" text-decoration="underline" font-size="12.00">Hinweis:</text>
<text text-anchor="start" x="3002.61" y="-158.13" font-family="Times,serif" font-size="12.00">Cluster: Ablehnung</text>
<text text-anchor="start" x="3002.61" y="-146.13" font-family="Times,serif" font-size="12.00">Das Lieferende bei Abmeldung wegen fehl. Zuordnungserm&#228;chtigung muss auf dem 1.</text>
<text text-anchor="start" x="3002.61" y="-134.13" font-family="Times,serif" font-size="12.00">eines Kalendermonats liegen.</text>
</g>
<!-- 11&#45;&gt;A09 -->
<g id="edge22" class="edge">
<title>11-&gt;A09</title>
<path fill="none" stroke="#7aab8a" d="M3262.86,-284.53C3262.86,-266.41 3262.86,-236.72 3262.86,-211.41"/>
<polygon fill="#7aab8a" stroke="#7aab8a" points="3266.37,-211.65 3262.87,-201.65 3259.37,-211.65 3266.37,-211.65"/>
<text text-anchor="start" x="3262.86" y="-223.24" font-family="Times,serif" font-weight="bold" font-size="14.00">NEIN</text>
</g>
</g>
</svg>
  </g>
</svg>
  </g>
</svg>
