<?xml version='1.0' encoding='ASCII' standalone='yes'?>
<svg xmlns="http://www.w3.org/2000/svg" xmlns:xlink="http://www.w3.org/1999/xlink" version="1.1" width="1920.0px" viewBox="0 0 1920.0 512.0" height="512.0px">
  <g>
    <svg version="1.1" width="1920.0px" viewBox="0 0 1920.0 512.0" height="512.0px">
  <polygon fill="#f3f1f6" points="0,0 1920.0,0 1920.0,512.0 0,512.0"/><g>
    <g transform="translate(755.3519135809518, 51.19999999999999) scale(1 1) translate(0, 0) scale(2.315579314866664 2.315579314866664) "><sodipodi:namedview xmlns:sodipodi="http://sodipodi.sourceforge.net/DTD/sodipodi-0.dtd" xmlns:inkscape="http://www.inkscape.org/namespaces/inkscape" id="namedview7" pagecolor="#ffffff" bordercolor="#999999" borderopacity="1" inkscape:pageshadow="0" inkscape:pageopacity="0" inkscape:pagecheckerboard="0" inkscape:document-units="mm" showgrid="false" fit-margin-top="0" fit-margin-left="0" fit-margin-right="0" fit-margin-bottom="0" inkscape:zoom="0.64052329" inkscape:cx="130.36216" inkscape:cy="412.163" inkscape:window-width="1512" inkscape:window-height="916" inkscape:window-x="3840" inkscape:window-y="136" inkscape:window-maximized="0" inkscape:current-layer="layer1"/>
  <defs id="defs2">
    <clipPath clipPathUnits="userSpaceOnUse" id="clipPath23">
      <path d="M 0,568.156 H 579.236 V 0 H 0 Z" id="path21"/>
    </clipPath>
  </defs>
  <g xmlns:inkscape="http://www.inkscape.org/namespaces/inkscape" inkscape:label="Layer 1" inkscape:groupmode="layer" id="layer1" transform="translate(-16.541937,-55.305267)">
    <g id="g19" clip-path="url(#clipPath23)" transform="matrix(0.35277777,0,0,-0.35277777,0.01017023,243.73675)" style="opacity:0.2">
      <g id="g25" transform="translate(122.444,32.7195)">
        <path d="m 0,0 h -56.104 c -11,0 -19.898,9.123 -19.463,20.115 10.594,267.191 231.277,481.302 501.029,481.302 v -56.02 c 0,-10.98 -8.688,-19.892 -19.658,-20.393 C 180.29,414.697 0,228.005 0,0" style="fill:#6ead83;fill-opacity:0.5;fill-rule:nonzero;stroke:none" id="path27"/>
      </g>
      <g id="g29" transform="translate(273.7828,32.7195)">
        <path d="m 0,0 h -55.926 c -11.228,0 -20.091,9.482 -19.435,20.69 10.744,183.439 163.389,329.388 349.485,329.388 v -56.263 c 0,-10.709 -8.273,-19.617 -18.957,-20.35 C 112.819,263.696 0,144.774 0,0" style="fill:#6ead83;fill-opacity:0.5;fill-rule:nonzero;stroke:none" id="path31"/>
      </g>
      <g id="g33" transform="translate(425.7667,32.7195)">
        <path d="m 0,0 h -55.445 c -11.653,0 -20.604,10.17 -19.334,21.753 10.866,99.032 95.031,176.341 196.919,176.341 v -57.011 c 0,-10.046 -7.283,-18.755 -17.229,-20.165 C 45.688,112.522 0,61.497 0,0" style="fill:#6ead83;fill-opacity:0.5;fill-rule:nonzero;stroke:none" id="path35"/>
      </g>
    </g>
  </g>
</g>
    <svg width="1440pt" height="384pt" viewBox="0.00 0.00 1440.00 384.43">
<g id="graph0" class="graph" transform="scale(0.397692 0.397692) rotate(0) translate(4 962.66)">
<title>D</title>
<text text-anchor="start" x="1776.45" y="-938.56" font-family="Times,serif" font-weight="bold" font-size="18.00">MPES</text>
<text text-anchor="start" x="1648.57" y="-908.46" font-family="Times,serif" font-weight="bold" font-size="16.00">8.4.1: AD: Lieferende von NB an LF</text>
<!-- Start -->
<g id="node1" class="node">
<title>Start</title>
<polygon fill="#7a8da1" stroke="black" points="1549.27,-860.66 1394.46,-860.66 1394.46,-817.38 1549.27,-817.38 1549.27,-860.66"/>
<text text-anchor="start" x="1443.74" y="-839.72" font-family="Times,serif" font-weight="bold" font-size="14.00">E_0302</text>
<text text-anchor="start" x="1408.87" y="-827.62" font-family="Times,serif" font-weight="bold" text-decoration="underline" font-size="12.00">Pr&#252;fende Rolle:</text>
<text text-anchor="start" x="1513.87" y="-827.62" font-family="Times,serif" font-weight="bold" font-size="12.00"> LF</text>
</g>
<!-- 1 -->
<g id="node2" class="node">
<title>1</title>
<path fill="#7aab8a" stroke="black" d="M1774.64,-780.38C1774.64,-780.38 1169.09,-780.38 1169.09,-780.38 1163.09,-780.38 1157.09,-774.38 1157.09,-768.38 1157.09,-768.38 1157.09,-747.1 1157.09,-747.1 1157.09,-741.1 1163.09,-735.1 1169.09,-735.1 1169.09,-735.1 1774.64,-735.1 1774.64,-735.1 1780.64,-735.1 1786.64,-741.1 1786.64,-747.1 1786.64,-747.1 1786.64,-768.38 1786.64,-768.38 1786.64,-774.38 1780.64,-780.38 1774.64,-780.38"/>
<text text-anchor="start" x="1171.49" y="-759.44" font-family="Times,serif" font-weight="bold" font-size="14.00">1: </text>
<text text-anchor="start" x="1190.99" y="-759.44" font-family="Times,serif" font-size="14.00">Wurde bereits zum identischen Abmeldedatum f&#252;r die in diesem Gesch&#228;ftsvorfall</text>
<text text-anchor="start" x="1171.49" y="-745.44" font-family="Times,serif" font-size="14.00">genannte Marktlokation der Gesch&#228;ftsvorfall Lieferende positiv best&#228;tigt?</text>
</g>
<!-- Start&#45;&gt;1 -->
<g id="edge1" class="edge">
<title>Start-&gt;1</title>
<path fill="none" stroke="black" d="M1471.87,-817.19C1471.87,-809.49 1471.87,-800.57 1471.87,-792.04"/>
<polygon fill="black" stroke="black" points="1475.37,-792.33 1471.87,-782.33 1468.37,-792.33 1475.37,-792.33"/>
</g>
<!-- A01 -->
<g id="node3" class="node">
<title>A01</title>
<polygon fill="#cfb986" stroke="black" points="1545.48,-681.85 1190.25,-681.85 1190.25,-620.33 1545.48,-620.33 1545.48,-681.85"/>
<text text-anchor="start" x="1352.87" y="-663.79" font-family="Times,serif" font-weight="bold" font-size="14.00">A01</text>
<text text-anchor="start" x="1202.49" y="-651.69" font-family="Times,serif" text-decoration="underline" font-size="12.00">Hinweis:</text>
<text text-anchor="start" x="1202.49" y="-639.69" font-family="Times,serif" font-size="12.00">Cluster: Ablehnung</text>
<text text-anchor="start" x="1202.49" y="-627.69" font-family="Times,serif" font-size="12.00">Lieferende zum Abmeldedatum wurde bereits best&#228;tigt</text>
</g>
<!-- 1&#45;&gt;A01 -->
<g id="edge2" class="edge">
<title>1-&gt;A01</title>
<path fill="none" stroke="black" d="M1450.06,-734.8C1437.3,-721.96 1420.82,-705.37 1405.97,-690.43"/>
<polygon fill="black" stroke="black" points="1408.52,-688.03 1398.99,-683.41 1403.55,-692.97 1408.52,-688.03"/>
<text text-anchor="middle" x="1438.62" y="-703.8" font-family="Times,serif" font-size="14.00">Ja</text>
</g>
<!-- 2 -->
<g id="node4" class="node">
<title>2</title>
<path fill="#7aab8a" stroke="black" d="M1922.27,-669.09C1922.27,-669.09 1575.46,-669.09 1575.46,-669.09 1569.46,-669.09 1563.46,-663.09 1563.46,-657.09 1563.46,-657.09 1563.46,-645.09 1563.46,-645.09 1563.46,-639.09 1569.46,-633.09 1575.46,-633.09 1575.46,-633.09 1922.27,-633.09 1922.27,-633.09 1928.27,-633.09 1934.27,-639.09 1934.27,-645.09 1934.27,-645.09 1934.27,-657.09 1934.27,-657.09 1934.27,-663.09 1928.27,-669.09 1922.27,-669.09"/>
<text text-anchor="start" x="1577.87" y="-647.41" font-family="Times,serif" font-weight="bold" font-size="14.00">2: </text>
<text text-anchor="start" x="1597.37" y="-647.41" font-family="Times,serif" font-size="14.00">Liegt der Transaktionsgrund Stilllegung vor?</text>
</g>
<!-- 1&#45;&gt;2 -->
<g id="edge3" class="edge">
<title>1-&gt;2</title>
<path fill="none" stroke="black" d="M1530.27,-734.67C1577.98,-716.65 1645.01,-691.32 1692.24,-673.48"/>
<polygon fill="black" stroke="black" points="1693.36,-676.8 1701.48,-669.99 1690.89,-670.25 1693.36,-676.8"/>
<text text-anchor="middle" x="1634.74" y="-703.8" font-family="Times,serif" font-size="14.00">Nein</text>
</g>
<!-- 3 -->
<g id="node5" class="node">
<title>3</title>
<path fill="#7aab8a" stroke="black" d="M1697.01,-567.08C1697.01,-567.08 1186.72,-567.08 1186.72,-567.08 1180.72,-567.08 1174.72,-561.08 1174.72,-555.08 1174.72,-555.08 1174.72,-543.08 1174.72,-543.08 1174.72,-537.08 1180.72,-531.08 1186.72,-531.08 1186.72,-531.08 1697.01,-531.08 1697.01,-531.08 1703.01,-531.08 1709.01,-537.08 1709.01,-543.08 1709.01,-543.08 1709.01,-555.08 1709.01,-555.08 1709.01,-561.08 1703.01,-567.08 1697.01,-567.08"/>
<text text-anchor="start" x="1189.12" y="-545.4" font-family="Times,serif" font-weight="bold" font-size="14.00">3: </text>
<text text-anchor="start" x="1208.62" y="-545.4" font-family="Times,serif" font-size="14.00">Ist die Prognosegrundlage der Marktlokation auf Basis von Werten?</text>
</g>
<!-- 2&#45;&gt;3 -->
<g id="edge4" class="edge">
<title>2-&gt;3</title>
<path fill="none" stroke="black" d="M1695.39,-632.67C1642.81,-615.54 1562.48,-589.37 1506.38,-571.1"/>
<polygon fill="black" stroke="black" points="1507.53,-567.79 1496.94,-568.02 1505.36,-574.45 1507.53,-567.79"/>
<text text-anchor="middle" x="1601.62" y="-589.03" font-family="Times,serif" font-size="14.00">Ja</text>
</g>
<!-- 9 -->
<g id="node17" class="node">
<title>9</title>
<path fill="#7aab8a" stroke="black" d="M2340.14,-567.08C2340.14,-567.08 1773.59,-567.08 1773.59,-567.08 1767.59,-567.08 1761.59,-561.08 1761.59,-555.08 1761.59,-555.08 1761.59,-543.08 1761.59,-543.08 1761.59,-537.08 1767.59,-531.08 1773.59,-531.08 1773.59,-531.08 2340.14,-531.08 2340.14,-531.08 2346.14,-531.08 2352.14,-537.08 2352.14,-543.08 2352.14,-543.08 2352.14,-555.08 2352.14,-555.08 2352.14,-561.08 2346.14,-567.08 2340.14,-567.08"/>
<text text-anchor="start" x="1775.99" y="-545.4" font-family="Times,serif" font-weight="bold" font-size="14.00">9: </text>
<text text-anchor="start" x="1795.49" y="-545.4" font-family="Times,serif" font-size="14.00">Ist das Datum &#8222;Bilanzierungsende&#8220; identisch mit dem Datum &#8222;Lieferende&#8220;?</text>
</g>
<!-- 2&#45;&gt;9 -->
<g id="edge5" class="edge">
<title>2-&gt;9</title>
<path fill="none" stroke="black" d="M1802.51,-632.67C1855.27,-615.54 1935.85,-589.37 1992.14,-571.1"/>
<polygon fill="black" stroke="black" points="1993.19,-574.44 2001.62,-568.02 1991.02,-567.78 1993.19,-574.44"/>
<text text-anchor="middle" x="1964.74" y="-589.03" font-family="Times,serif" font-size="14.00">Nein</text>
</g>
<!-- 4 -->
<g id="node6" class="node">
<title>4</title>
<path fill="#7aab8a" stroke="black" d="M1073.51,-459.07C1073.51,-459.07 476.22,-459.07 476.22,-459.07 470.22,-459.07 464.22,-453.07 464.22,-447.07 464.22,-447.07 464.22,-435.07 464.22,-435.07 464.22,-429.07 470.22,-423.07 476.22,-423.07 476.22,-423.07 1073.51,-423.07 1073.51,-423.07 1079.51,-423.07 1085.51,-429.07 1085.51,-435.07 1085.51,-435.07 1085.51,-447.07 1085.51,-447.07 1085.51,-453.07 1079.51,-459.07 1073.51,-459.07"/>
<text text-anchor="start" x="478.62" y="-437.39" font-family="Times,serif" font-weight="bold" font-size="14.00">4: </text>
<text text-anchor="start" x="498.12" y="-437.39" font-family="Times,serif" font-size="14.00">Liegt das Datum &#8222;Lieferende&#8220; mindestens 1 WT nach dem Nachrichteneingang?</text>
</g>
<!-- 3&#45;&gt;4 -->
<g id="edge6" class="edge">
<title>3-&gt;4</title>
<path fill="none" stroke="black" d="M1332.1,-530.63C1212.02,-511.55 1020.14,-481.05 895.81,-461.29"/>
<polygon fill="black" stroke="black" points="896.67,-457.88 886.24,-459.77 895.57,-464.8 896.67,-457.88"/>
<text text-anchor="middle" x="1213.62" y="-499.78" font-family="Times,serif" font-size="14.00">Ja</text>
</g>
<!-- 6 -->
<g id="node10" class="node">
<title>6</title>
<path fill="#7aab8a" stroke="black" d="M1768.64,-459.07C1768.64,-459.07 1115.09,-459.07 1115.09,-459.07 1109.09,-459.07 1103.09,-453.07 1103.09,-447.07 1103.09,-447.07 1103.09,-435.07 1103.09,-435.07 1103.09,-429.07 1109.09,-423.07 1115.09,-423.07 1115.09,-423.07 1768.64,-423.07 1768.64,-423.07 1774.64,-423.07 1780.64,-429.07 1780.64,-435.07 1780.64,-435.07 1780.64,-447.07 1780.64,-447.07 1780.64,-453.07 1774.64,-459.07 1768.64,-459.07"/>
<text text-anchor="start" x="1117.49" y="-437.39" font-family="Times,serif" font-weight="bold" font-size="14.00">6: </text>
<text text-anchor="start" x="1136.99" y="-437.39" font-family="Times,serif" font-size="14.00">Liegt das Datum &#8222;Bilanzierungsende&#8220; mindestens 3 WT nach dem Nachrichteneingang?</text>
</g>
<!-- 3&#45;&gt;6 -->
<g id="edge7" class="edge">
<title>3-&gt;6</title>
<path fill="none" stroke="black" d="M1441.87,-531.05C1441.87,-514.84 1441.87,-490.13 1441.87,-470.86"/>
<polygon fill="black" stroke="black" points="1445.37,-470.93 1441.87,-460.93 1438.37,-470.93 1445.37,-470.93"/>
<text text-anchor="middle" x="1458.74" y="-499.78" font-family="Times,serif" font-size="14.00">Nein</text>
</g>
<!-- A02 -->
<g id="node7" class="node">
<title>A02</title>
<polygon fill="#cfb986" stroke="black" points="521.73,-339.06 0,-339.06 0,-265.54 521.73,-265.54 521.73,-339.06"/>
<text text-anchor="start" x="245.87" y="-321" font-family="Times,serif" font-weight="bold" font-size="14.00">A02</text>
<text text-anchor="start" x="12.24" y="-308.9" font-family="Times,serif" text-decoration="underline" font-size="12.00">Hinweis:</text>
<text text-anchor="start" x="12.24" y="-296.9" font-family="Times,serif" font-size="12.00">Cluster: Ablehnung</text>
<text text-anchor="start" x="12.24" y="-284.9" font-family="Times,serif" font-size="12.00">Eine Stilllegung einer Marktlokation mit Prognosegrundlage auf Basis von Werten</text>
<text text-anchor="start" x="12.24" y="-272.9" font-family="Times,serif" font-size="12.00">kann nicht in die Vergangenheit gemeldet werden.</text>
</g>
<!-- 4&#45;&gt;A02 -->
<g id="edge8" class="edge">
<title>4-&gt;A02</title>
<path fill="none" stroke="black" d="M709.24,-422.61C633.73,-402.51 507.34,-368.88 407.97,-342.44"/>
<polygon fill="black" stroke="black" points="408.94,-339.08 398.37,-339.89 407.14,-345.84 408.94,-339.08"/>
<text text-anchor="middle" x="580.74" y="-373.01" font-family="Times,serif" font-size="14.00">Nein</text>
</g>
<!-- 5 -->
<g id="node8" class="node">
<title>5</title>
<path fill="#7aab8a" stroke="black" d="M1118.14,-320.3C1118.14,-320.3 551.59,-320.3 551.59,-320.3 545.59,-320.3 539.59,-314.3 539.59,-308.3 539.59,-308.3 539.59,-296.3 539.59,-296.3 539.59,-290.3 545.59,-284.3 551.59,-284.3 551.59,-284.3 1118.14,-284.3 1118.14,-284.3 1124.14,-284.3 1130.14,-290.3 1130.14,-296.3 1130.14,-296.3 1130.14,-308.3 1130.14,-308.3 1130.14,-314.3 1124.14,-320.3 1118.14,-320.3"/>
<text text-anchor="start" x="553.99" y="-298.62" font-family="Times,serif" font-weight="bold" font-size="14.00">5: </text>
<text text-anchor="start" x="573.49" y="-298.62" font-family="Times,serif" font-size="14.00">Ist das Datum &#8222;Bilanzierungsende&#8220; identisch mit dem Datum &#8222;Lieferende&#8220;?</text>
</g>
<!-- 4&#45;&gt;5 -->
<g id="edge9" class="edge">
<title>4-&gt;5</title>
<path fill="none" stroke="black" d="M782.46,-422.75C792.61,-399.63 810.69,-358.41 822.73,-330.96"/>
<polygon fill="black" stroke="black" points="825.91,-332.43 826.72,-321.87 819.5,-329.62 825.91,-332.43"/>
<text text-anchor="middle" x="811.62" y="-373.01" font-family="Times,serif" font-size="14.00">Ja</text>
</g>
<!-- A03 -->
<g id="node9" class="node">
<title>A03</title>
<polygon fill="#cfb986" stroke="black" points="1057.86,-200.29 611.88,-200.29 611.88,-126.77 1057.86,-126.77 1057.86,-200.29"/>
<text text-anchor="start" x="819.87" y="-182.23" font-family="Times,serif" font-weight="bold" font-size="14.00">A03</text>
<text text-anchor="start" x="624.12" y="-170.13" font-family="Times,serif" text-decoration="underline" font-size="12.00">Hinweis:</text>
<text text-anchor="start" x="624.12" y="-158.13" font-family="Times,serif" font-size="12.00">Cluster: Ablehnung</text>
<text text-anchor="start" x="624.12" y="-146.13" font-family="Times,serif" font-size="12.00">Bei Marktlokation mit Prognosegrundlage auf Basis von Werten muss</text>
<text text-anchor="start" x="624.12" y="-134.13" font-family="Times,serif" font-size="12.00">Bilanzierungsende und Lieferende identisch sein.</text>
</g>
<!-- 5&#45;&gt;A03 -->
<g id="edge10" class="edge">
<title>5-&gt;A03</title>
<path fill="none" stroke="black" d="M834.87,-283.98C834.87,-265.98 834.87,-237.03 834.87,-212.13"/>
<polygon fill="black" stroke="black" points="838.37,-212.18 834.87,-202.18 831.37,-212.18 838.37,-212.18"/>
<text text-anchor="middle" x="851.74" y="-222.24" font-family="Times,serif" font-size="14.00">Nein</text>
</g>
<!-- 8 -->
<g id="node14" class="node">
<title>8</title>
<path fill="#7aab8a" stroke="black" d="M1896.51,-186.17C1896.51,-186.17 1359.22,-186.17 1359.22,-186.17 1353.22,-186.17 1347.22,-180.17 1347.22,-174.17 1347.22,-174.17 1347.22,-152.89 1347.22,-152.89 1347.22,-146.89 1353.22,-140.89 1359.22,-140.89 1359.22,-140.89 1896.51,-140.89 1896.51,-140.89 1902.51,-140.89 1908.51,-146.89 1908.51,-152.89 1908.51,-152.89 1908.51,-174.17 1908.51,-174.17 1908.51,-180.17 1902.51,-186.17 1896.51,-186.17"/>
<text text-anchor="start" x="1361.62" y="-165.23" font-family="Times,serif" font-weight="bold" font-size="14.00">8: </text>
<text text-anchor="start" x="1381.12" y="-165.23" font-family="Times,serif" font-size="14.00">Liegen dem LF Informationen dar&#252;ber vor, dass die Marktlokation nicht</text>
<text text-anchor="start" x="1361.62" y="-151.23" font-family="Times,serif" font-size="14.00">stillgelegt wird/wurde?</text>
</g>
<!-- 5&#45;&gt;8 -->
<g id="edge11" class="edge">
<title>5-&gt;8</title>
<path fill="none" stroke="black" d="M936.1,-283.84C1076.37,-259.65 1330.38,-215.84 1488.48,-188.57"/>
<polygon fill="black" stroke="black" points="1488.95,-192.04 1498.21,-186.89 1487.76,-185.14 1488.95,-192.04"/>
<text text-anchor="middle" x="1308.62" y="-222.24" font-family="Times,serif" font-size="14.00">Ja</text>
</g>
<!-- A04 -->
<g id="node11" class="node">
<title>A04</title>
<polygon fill="#cfb986" stroke="black" points="1637.23,-339.06 1148.5,-339.06 1148.5,-265.54 1637.23,-265.54 1637.23,-339.06"/>
<text text-anchor="start" x="1377.87" y="-321" font-family="Times,serif" font-weight="bold" font-size="14.00">A04</text>
<text text-anchor="start" x="1160.74" y="-308.9" font-family="Times,serif" text-decoration="underline" font-size="12.00">Hinweis:</text>
<text text-anchor="start" x="1160.74" y="-296.9" font-family="Times,serif" font-size="12.00">Cluster: Ablehnung</text>
<text text-anchor="start" x="1160.74" y="-284.9" font-family="Times,serif" font-size="12.00">Bilanzierungsfrist bei Marktlokationen mit Prognosegrundlage auf Basis von</text>
<text text-anchor="start" x="1160.74" y="-272.9" font-family="Times,serif" font-size="12.00">Profilen nicht eingehalten.</text>
</g>
<!-- 6&#45;&gt;A04 -->
<g id="edge12" class="edge">
<title>6-&gt;A04</title>
<path fill="none" stroke="black" d="M1435.66,-422.75C1429.15,-404.59 1418.65,-375.27 1409.68,-350.23"/>
<polygon fill="black" stroke="black" points="1412.99,-349.1 1406.32,-340.86 1406.4,-351.46 1412.99,-349.1"/>
<text text-anchor="middle" x="1437.74" y="-373.01" font-family="Times,serif" font-size="14.00">Nein</text>
</g>
<!-- 7 -->
<g id="node12" class="node">
<title>7</title>
<path fill="#7aab8a" stroke="black" d="M2298.76,-320.3C2298.76,-320.3 1666.97,-320.3 1666.97,-320.3 1660.97,-320.3 1654.97,-314.3 1654.97,-308.3 1654.97,-308.3 1654.97,-296.3 1654.97,-296.3 1654.97,-290.3 1660.97,-284.3 1666.97,-284.3 1666.97,-284.3 2298.76,-284.3 2298.76,-284.3 2304.76,-284.3 2310.76,-290.3 2310.76,-296.3 2310.76,-296.3 2310.76,-308.3 2310.76,-308.3 2310.76,-314.3 2304.76,-320.3 2298.76,-320.3"/>
<text text-anchor="start" x="1669.37" y="-298.62" font-family="Times,serif" font-weight="bold" font-size="14.00">7: </text>
<text text-anchor="start" x="1688.87" y="-298.62" font-family="Times,serif" font-size="14.00">Liegt das Datum &#8222;Bilanzierungsende&#8220; auf dem 1. eines Kalendermonates 00:00 Uhr?</text>
</g>
<!-- 6&#45;&gt;7 -->
<g id="edge13" class="edge">
<title>6-&gt;7</title>
<path fill="none" stroke="black" d="M1510.93,-422.61C1611.21,-397.26 1796.71,-350.36 1902.82,-323.54"/>
<polygon fill="black" stroke="black" points="1903.48,-326.98 1912.31,-321.14 1901.76,-320.19 1903.48,-326.98"/>
<text text-anchor="middle" x="1718.62" y="-373.01" font-family="Times,serif" font-size="14.00">Ja</text>
</g>
<!-- A05 -->
<g id="node13" class="node">
<title>A05</title>
<polygon fill="#cfb986" stroke="black" points="2275.1,-194.29 1926.62,-194.29 1926.62,-132.77 2275.1,-132.77 2275.1,-194.29"/>
<text text-anchor="start" x="2085.86" y="-176.23" font-family="Times,serif" font-weight="bold" font-size="14.00">A05</text>
<text text-anchor="start" x="1938.86" y="-164.13" font-family="Times,serif" text-decoration="underline" font-size="12.00">Hinweis:</text>
<text text-anchor="start" x="1938.86" y="-152.13" font-family="Times,serif" font-size="12.00">Cluster: Ablehnung</text>
<text text-anchor="start" x="1938.86" y="-140.13" font-family="Times,serif" font-size="12.00">Bilanzierungsende liegt nicht auf dem Monatswechsel</text>
</g>
<!-- 7&#45;&gt;A05 -->
<g id="edge14" class="edge">
<title>7-&gt;A05</title>
<path fill="none" stroke="black" d="M1997.81,-283.98C2015.19,-263.83 2044.43,-229.94 2067.33,-203.39"/>
<polygon fill="black" stroke="black" points="2069.96,-205.71 2073.84,-195.85 2064.66,-201.13 2069.96,-205.71"/>
<text text-anchor="middle" x="2068.74" y="-222.24" font-family="Times,serif" font-size="14.00">Nein</text>
</g>
<!-- 7&#45;&gt;8 -->
<g id="edge15" class="edge">
<title>7-&gt;8</title>
<path fill="none" stroke="black" d="M1937.54,-283.84C1876.38,-260.28 1766.92,-218.1 1695.87,-190.73"/>
<polygon fill="black" stroke="black" points="1697.24,-187.51 1686.65,-187.18 1694.73,-194.04 1697.24,-187.51"/>
<text text-anchor="middle" x="1811.62" y="-222.24" font-family="Times,serif" font-size="14.00">Ja</text>
</g>
<!-- A06 -->
<g id="node15" class="node">
<title>A06</title>
<polygon fill="#cfb986" stroke="black" points="1861.73,-73.52 1394,-73.52 1394,0 1861.73,0 1861.73,-73.52"/>
<text text-anchor="start" x="1612.87" y="-55.46" font-family="Times,serif" font-weight="bold" font-size="14.00">A06</text>
<text text-anchor="start" x="1406.24" y="-43.36" font-family="Times,serif" text-decoration="underline" font-size="12.00">Hinweis:</text>
<text text-anchor="start" x="1406.24" y="-31.36" font-family="Times,serif" font-size="12.00">Cluster: Ablehnung</text>
<text text-anchor="start" x="1406.24" y="-19.36" font-family="Times,serif" font-size="12.00">Dem LF liegen Informationen vor, dass die Marktlokation nicht stillgelegt</text>
<text text-anchor="start" x="1406.24" y="-7.36" font-family="Times,serif" font-size="12.00">wird/wurde.</text>
</g>
<!-- 8&#45;&gt;A06 -->
<g id="edge16" class="edge">
<title>8-&gt;A06</title>
<path fill="none" stroke="black" d="M1627.87,-140.51C1627.87,-125.22 1627.87,-104.25 1627.87,-85.24"/>
<polygon fill="black" stroke="black" points="1631.37,-85.24 1627.87,-75.24 1624.37,-85.24 1631.37,-85.24"/>
<text text-anchor="middle" x="1634.62" y="-95.47" font-family="Times,serif" font-size="14.00">Ja</text>
</g>
<!-- A10 -->
<g id="node16" class="node">
<title>A10</title>
<polygon fill="#cfb986" stroke="black" points="2403.48,-67.52 2210.25,-67.52 2210.25,-6 2403.48,-6 2403.48,-67.52"/>
<text text-anchor="start" x="2291.86" y="-49.46" font-family="Times,serif" font-weight="bold" font-size="14.00">A10</text>
<text text-anchor="start" x="2222.49" y="-37.36" font-family="Times,serif" text-decoration="underline" font-size="12.00">Hinweis:</text>
<text text-anchor="start" x="2222.49" y="-25.36" font-family="Times,serif" font-size="12.00">Cluster: Zustimmung</text>
<text text-anchor="start" x="2222.49" y="-13.36" font-family="Times,serif" font-size="12.00">Lieferende wird zugestimmt</text>
</g>
<!-- 8&#45;&gt;A10 -->
<g id="edge17" class="edge">
<title>8-&gt;A10</title>
<path fill="none" stroke="black" d="M1748.08,-140.44C1875.7,-116.99 2075.57,-80.26 2198.49,-57.67"/>
<polygon fill="black" stroke="black" points="2199.08,-61.12 2208.28,-55.87 2197.82,-54.24 2199.08,-61.12"/>
<text text-anchor="middle" x="2024.74" y="-95.47" font-family="Times,serif" font-size="14.00">Nein</text>
</g>
<!-- A07 -->
<g id="node18" class="node">
<title>A07</title>
<polygon fill="#cfb986" stroke="black" points="2314.73,-477.83 1799,-477.83 1799,-404.31 2314.73,-404.31 2314.73,-477.83"/>
<text text-anchor="start" x="2041.86" y="-459.77" font-family="Times,serif" font-weight="bold" font-size="14.00">A07</text>
<text text-anchor="start" x="1811.24" y="-447.67" font-family="Times,serif" text-decoration="underline" font-size="12.00">Hinweis:</text>
<text text-anchor="start" x="1811.24" y="-435.67" font-family="Times,serif" font-size="12.00">Cluster: Ablehnung</text>
<text text-anchor="start" x="1811.24" y="-423.67" font-family="Times,serif" font-size="12.00">Lieferende und Bilanzierungsende m&#252;ssen bei Lieferende von NB an LF aufgrund</text>
<text text-anchor="start" x="1811.24" y="-411.67" font-family="Times,serif" font-size="12.00">entfallender oder fehlender Zuordnungserm&#228;chtigung synchron sein.</text>
</g>
<!-- 9&#45;&gt;A07 -->
<g id="edge18" class="edge">
<title>9-&gt;A07</title>
<path fill="none" stroke="black" d="M2056.86,-531.05C2056.86,-519.67 2056.86,-504.1 2056.86,-489.16"/>
<polygon fill="black" stroke="black" points="2060.37,-489.46 2056.87,-479.46 2053.37,-489.46 2060.37,-489.46"/>
<text text-anchor="middle" x="2073.74" y="-499.78" font-family="Times,serif" font-size="14.00">Nein</text>
</g>
<!-- 10 -->
<g id="node19" class="node">
<title>10</title>
<path fill="#7aab8a" stroke="black" d="M2918.51,-459.07C2918.51,-459.07 2345.21,-459.07 2345.21,-459.07 2339.21,-459.07 2333.21,-453.07 2333.21,-447.07 2333.21,-447.07 2333.21,-435.07 2333.21,-435.07 2333.21,-429.07 2339.21,-423.07 2345.21,-423.07 2345.21,-423.07 2918.51,-423.07 2918.51,-423.07 2924.51,-423.07 2930.51,-429.07 2930.51,-435.07 2930.51,-435.07 2930.51,-447.07 2930.51,-447.07 2930.51,-453.07 2924.51,-459.07 2918.51,-459.07"/>
<text text-anchor="start" x="2347.61" y="-437.39" font-family="Times,serif" font-weight="bold" font-size="14.00">10: </text>
<text text-anchor="start" x="2376.86" y="-437.39" font-family="Times,serif" font-size="14.00">Liegt das &#252;bermittelte Datum &#8222;Lieferende&#8220; nach dem Nachrichteneingang?</text>
</g>
<!-- 9&#45;&gt;10 -->
<g id="edge19" class="edge">
<title>9-&gt;10</title>
<path fill="none" stroke="black" d="M2151.49,-530.63C2254.48,-511.65 2418.76,-481.36 2525.98,-461.59"/>
<polygon fill="black" stroke="black" points="2526.45,-465.06 2535.65,-459.81 2525.18,-458.18 2526.45,-465.06"/>
<text text-anchor="middle" x="2333.61" y="-499.78" font-family="Times,serif" font-size="14.00">Ja</text>
</g>
<!-- A08 -->
<g id="node20" class="node">
<title>A08</title>
<polygon fill="#cfb986" stroke="black" points="2895.23,-351.06 2328.5,-351.06 2328.5,-253.54 2895.23,-253.54 2895.23,-351.06"/>
<text text-anchor="start" x="2596.86" y="-333" font-family="Times,serif" font-weight="bold" font-size="14.00">A08</text>
<text text-anchor="start" x="2340.74" y="-320.9" font-family="Times,serif" text-decoration="underline" font-size="12.00">Hinweis:</text>
<text text-anchor="start" x="2340.74" y="-308.9" font-family="Times,serif" font-size="12.00">Cluster: Ablehnung</text>
<text text-anchor="start" x="2340.74" y="-296.9" font-family="Times,serif" font-size="12.00">Lieferende bei Transaktionsgrund &#8222;Abmeldung wegen fehl. Zuordnungserm&#228;chtigung&#8220;</text>
<text text-anchor="start" x="2340.74" y="-284.9" font-family="Times,serif" font-size="12.00">oder</text>
<text text-anchor="start" x="2340.74" y="-272.9" font-family="Times,serif" font-size="12.00">&#8222;Abmeldung wegen fehl. Zuordnungserm&#228;chtigung aufgrund &#196;nderung ZRT&#8220; muss immer</text>
<text text-anchor="start" x="2340.74" y="-260.9" font-family="Times,serif" font-size="12.00">in der Zukunft sein.</text>
</g>
<!-- 10&#45;&gt;A08 -->
<g id="edge20" class="edge">
<title>10-&gt;A08</title>
<path fill="none" stroke="black" d="M2629.33,-422.75C2627.1,-407.51 2623.72,-384.4 2620.53,-362.56"/>
<polygon fill="black" stroke="black" points="2624.01,-362.19 2619.1,-352.8 2617.09,-363.2 2624.01,-362.19"/>
<text text-anchor="middle" x="2639.74" y="-373.01" font-family="Times,serif" font-size="14.00">Nein</text>
</g>
<!-- 11 -->
<g id="node21" class="node">
<title>11</title>
<path fill="#7aab8a" stroke="black" d="M3600.89,-320.3C3600.89,-320.3 2924.84,-320.3 2924.84,-320.3 2918.84,-320.3 2912.84,-314.3 2912.84,-308.3 2912.84,-308.3 2912.84,-296.3 2912.84,-296.3 2912.84,-290.3 2918.84,-284.3 2924.84,-284.3 2924.84,-284.3 3600.89,-284.3 3600.89,-284.3 3606.89,-284.3 3612.89,-290.3 3612.89,-296.3 3612.89,-296.3 3612.89,-308.3 3612.89,-308.3 3612.89,-314.3 3606.89,-320.3 3600.89,-320.3"/>
<text text-anchor="start" x="2927.24" y="-298.62" font-family="Times,serif" font-weight="bold" font-size="14.00">11: </text>
<text text-anchor="start" x="2956.49" y="-298.62" font-family="Times,serif" font-size="14.00">Ist das angegebene Datum &#8222;Lieferende&#8220; der n&#228;chste 1.&#160;eines Kalendermonats 00:00 Uhr?</text>
</g>
<!-- 10&#45;&gt;11 -->
<g id="edge21" class="edge">
<title>10-&gt;11</title>
<path fill="none" stroke="black" d="M2712.42,-422.61C2829.98,-397.13 3047.93,-349.89 3171.38,-323.13"/>
<polygon fill="black" stroke="black" points="3171.78,-326.62 3180.81,-321.09 3170.3,-319.78 3171.78,-326.62"/>
<text text-anchor="middle" x="2953.61" y="-373.01" font-family="Times,serif" font-size="14.00">Ja</text>
</g>
<!-- 11&#45;&gt;A10 -->
<g id="edge23" class="edge">
<title>11-&gt;A10</title>
<path fill="none" stroke="black" d="M3199.4,-283.8C3038.77,-239.53 2614.72,-122.63 2414.48,-67.43"/>
<polygon fill="black" stroke="black" points="2415.68,-64.13 2405.11,-64.84 2413.82,-70.88 2415.68,-64.13"/>
<text text-anchor="middle" x="2901.61" y="-158.85" font-family="Times,serif" font-size="14.00">Ja</text>
</g>
<!-- A09 -->
<g id="node22" class="node">
<title>A09</title>
<polygon fill="#cfb986" stroke="black" points="3535.35,-200.29 2990.38,-200.29 2990.38,-126.77 3535.35,-126.77 3535.35,-200.29"/>
<text text-anchor="start" x="3247.86" y="-182.23" font-family="Times,serif" font-weight="bold" font-size="14.00">A09</text>
<text text-anchor="start" x="3002.61" y="-170.13" font-family="Times,serif" text-decoration="underline" font-size="12.00">Hinweis:</text>
<text text-anchor="start" x="3002.61" y="-158.13" font-family="Times,serif" font-size="12.00">Cluster: Ablehnung</text>
<text text-anchor="start" x="3002.61" y="-146.13" font-family="Times,serif" font-size="12.00">Das Lieferende bei Abmeldung wegen fehl. Zuordnungserm&#228;chtigung muss auf dem 1.</text>
<text text-anchor="start" x="3002.61" y="-134.13" font-family="Times,serif" font-size="12.00">eines Kalendermonats liegen.</text>
</g>
<!-- 11&#45;&gt;A09 -->
<g id="edge22" class="edge">
<title>11-&gt;A09</title>
<path fill="none" stroke="black" d="M3262.86,-283.98C3262.86,-265.98 3262.86,-237.03 3262.86,-212.13"/>
<polygon fill="black" stroke="black" points="3266.37,-212.18 3262.87,-202.18 3259.37,-212.18 3266.37,-212.18"/>
<text text-anchor="middle" x="3279.74" y="-222.24" font-family="Times,serif" font-size="14.00">Nein</text>
</g>
</g>
</svg>
  </g>
</svg>
  </g>
</svg>
