<?xml version='1.0' encoding='ASCII' standalone='yes'?>
<svg xmlns="http://www.w3.org/2000/svg" xmlns:xlink="http://www.w3.org/1999/xlink" version="1.1" width="1920.0px" viewBox="0 0 1920.0 949.3333333333334" height="949.3333333333334px">
  <g>
    <svg version="1.1" width="1920.0px" viewBox="0 0 1920.0 949.3333333333334" height="949.3333333333334px">
  <polygon fill="#c2cee9" points="0,0 1920.0,0 1920.0,949.3333333333334 0,949.3333333333334"/><g>
    <g transform="translate(572.8612785130949, 94.93333333333332) scale(1 1) translate(0, 0) scale(1.3367126630995965 1.3367126630995965) "><!-- note that I manually added the width and height attribute to the root node
  https://chatgpt.com/share/678e3028-70cc-800b-a296-782714735772
  -->
  <defs>
    <style>.cls-1{fill:#fff;}</style>
  </defs>
  <path class="cls-1" d="M122.44,531.2h-56.1c-11,0-19.9-9.12-19.46-20.11C57.47,243.89,278.15,29.78,547.91,29.78v56.02c0,10.98-8.69,19.89-19.66,20.39-225.51,10.31-405.8,197-405.8,425Z"/>
  <path class="cls-1" d="M273.78,531.2h-55.93c-11.23,0-20.09-9.48-19.43-20.69,10.74-183.44,163.39-329.39,349.48-329.39v56.26c0,10.71-8.27,19.62-18.96,20.35-142.35,9.77-255.17,128.69-255.17,273.46Z"/>
  <path class="cls-1" d="M425.77,531.2h-55.45c-11.65,0-20.6-10.17-19.33-21.75,10.87-99.03,95.03-176.34,196.92-176.34v57.01c0,10.05-7.28,18.75-17.23,20.16-59.22,8.4-104.91,59.42-104.91,120.92Z"/>
</g>
    <svg width="1440pt" height="712pt" viewBox="0.00 0.00 1440.00 712.00">
<g id="graph0" class="graph" transform="scale(0.45779 0.45779) rotate(0) translate(4 1551.29)">
<title>D</title>
<text text-anchor="start" x="1411.65" y="-1527.19" font-family="Roboto, sans-serif" font-weight="bold" font-size="18.00">GPKE</text>
<text text-anchor="start" x="1411.65" y="-1497.09" font-family="Roboto, sans-serif" font-weight="bold" font-size="16.00">6.2.1: AD: Lieferende von LF an NB</text>
<!-- Start -->
<g id="node1" class="node">
<title>Start</title>
<path fill="#7a8da1" stroke="black" stroke-width="0" d="M1453.55,-1449.29C1453.55,-1449.29 1322,-1449.29 1322,-1449.29 1316,-1449.29 1310,-1443.29 1310,-1437.29 1310,-1437.29 1310,-1418.01 1310,-1418.01 1310,-1412.01 1316,-1406.01 1322,-1406.01 1322,-1406.01 1453.55,-1406.01 1453.55,-1406.01 1459.55,-1406.01 1465.55,-1412.01 1465.55,-1418.01 1465.55,-1418.01 1465.55,-1437.29 1465.55,-1437.29 1465.55,-1443.29 1459.55,-1449.29 1453.55,-1449.29"/>
<text text-anchor="start" x="1360.03" y="-1428.35" font-family="Roboto, sans-serif" font-weight="bold" font-size="14.00">E_0401</text>
<text text-anchor="start" x="1324.4" y="-1416.25" font-family="Roboto, sans-serif" font-weight="bold" text-decoration="underline" font-size="12.00">Pr&#252;fende Rolle:</text>
<text text-anchor="start" x="1427.9" y="-1416.25" font-family="Roboto, sans-serif" font-weight="bold" font-size="12.00"> NB</text>
</g>
<!-- 10 -->
<g id="node2" class="node">
<title>10</title>
<path fill="#7aab8a" stroke="black" stroke-width="0" d="M1685.68,-1369.01C1685.68,-1369.01 1089.88,-1369.01 1089.88,-1369.01 1083.88,-1369.01 1077.88,-1363.01 1077.88,-1357.01 1077.88,-1357.01 1077.88,-1279.73 1077.88,-1279.73 1077.88,-1273.73 1083.88,-1267.73 1089.88,-1267.73 1089.88,-1267.73 1685.68,-1267.73 1685.68,-1267.73 1691.68,-1267.73 1697.68,-1273.73 1697.68,-1279.73 1697.68,-1279.73 1697.68,-1357.01 1697.68,-1357.01 1697.68,-1363.01 1691.68,-1369.01 1685.68,-1369.01"/>
<text text-anchor="start" x="1092.28" y="-1348.07" font-family="Roboto, sans-serif" font-weight="bold" font-size="14.00">10: </text>
<text text-anchor="start" x="1121.53" y="-1348.07" font-family="Roboto, sans-serif" font-size="14.00">Liegt ein Transaktionsgrund vor, der eine Abmeldung nur in die Zukunft zul&#228;sst?</text>
<text text-anchor="start" x="1092.28" y="-1334.07" font-family="Roboto, sans-serif" font-size="14.00">Das ist bei den folgenden Transaktionsgr&#252;nden der Fall:</text>
<text text-anchor="start" x="1092.28" y="-1320.07" font-family="Roboto, sans-serif" font-size="14.00">Ende wegen K&#252;ndigung durch LF</text>
<text text-anchor="start" x="1092.28" y="-1306.07" font-family="Roboto, sans-serif" font-size="14.00">Ende wegen K&#252;ndigung durch Kunde/LFN</text>
<text text-anchor="start" x="1092.28" y="-1292.07" font-family="Roboto, sans-serif" font-size="14.00">Ende der ESV ohne Folgelieferung</text>
<text text-anchor="start" x="1092.28" y="-1278.07" font-family="Roboto, sans-serif" font-size="14.00">Aufhebung einer zuk&#252;nftigen Zuordnung wegen aufgehobenem Vertragsverh&#228;ltnis</text>
</g>
<!-- Start&#45;&gt;10 -->
<g id="edge1" class="edge">
<title>Start-&gt;10</title>
<path fill="none" stroke="black" d="M1387.78,-1406.22C1387.78,-1398.61 1387.78,-1389.54 1387.78,-1380.16"/>
<polygon fill="black" stroke="black" points="1391.28,-1380.18 1387.78,-1370.18 1384.28,-1380.18 1391.28,-1380.18"/>
</g>
<!-- 20 -->
<g id="node3" class="node">
<title>20</title>
<path fill="#7aab8a" stroke="black" stroke-width="0" d="M1945.18,-1125.23C1945.18,-1125.23 1334.38,-1125.23 1334.38,-1125.23 1328.38,-1125.23 1322.38,-1119.23 1322.38,-1113.23 1322.38,-1113.23 1322.38,-1049.95 1322.38,-1049.95 1322.38,-1043.95 1328.38,-1037.95 1334.38,-1037.95 1334.38,-1037.95 1945.18,-1037.95 1945.18,-1037.95 1951.18,-1037.95 1957.18,-1043.95 1957.18,-1049.95 1957.18,-1049.95 1957.18,-1113.23 1957.18,-1113.23 1957.18,-1119.23 1951.18,-1125.23 1945.18,-1125.23"/>
<text text-anchor="start" x="1336.78" y="-1104.29" font-family="Roboto, sans-serif" font-weight="bold" font-size="14.00">20: </text>
<text text-anchor="start" x="1366.03" y="-1104.29" font-family="Roboto, sans-serif" font-size="14.00">Liegt ein Transaktionsgrund vor, welcher mitteilt, dass der Kunde vor</text>
<text text-anchor="start" x="1336.78" y="-1090.29" font-family="Roboto, sans-serif" font-size="14.00">Lieferbeginn ausgezogen ist, bzw. die Marktlokation vor Lieferbeginn stillgelegt wurde?</text>
<text text-anchor="start" x="1336.78" y="-1076.29" font-family="Roboto, sans-serif" font-size="14.00">Das ist bei den folgenden Transaktionsgr&#252;nden der Fall:</text>
<text text-anchor="start" x="1336.78" y="-1062.29" font-family="Roboto, sans-serif" font-size="14.00">Aufhebung einer zuk&#252;nftigen Zuordnung wegen Auszug des Kunden</text>
<text text-anchor="start" x="1336.78" y="-1048.29" font-family="Roboto, sans-serif" font-size="14.00">Aufhebung einer zuk&#252;nftigen Zuordnung wegen Stilllegung</text>
</g>
<!-- 10&#45;&gt;20 -->
<g id="edge3" class="edge">
<title>10-&gt;20</title>
<path fill="none" stroke="#7aab8a" d="M1440.91,-1267.87C1483.55,-1228.14 1543.16,-1172.6 1585.98,-1132.71"/>
<polygon fill="#7aab8a" stroke="#7aab8a" points="1588.27,-1135.36 1593.2,-1125.98 1583.5,-1130.24 1588.27,-1135.36"/>
<text text-anchor="start" x="1533.78" y="-1192.81" font-family="Roboto, sans-serif" font-weight="bold" font-size="14.00">NEIN</text>
</g>
<!-- 40 -->
<g id="node6" class="node">
<title>40</title>
<path fill="#7aab8a" stroke="black" stroke-width="0" d="M1311.3,-1214.48C1311.3,-1214.48 794.25,-1214.48 794.25,-1214.48 788.25,-1214.48 782.25,-1208.48 782.25,-1202.48 782.25,-1202.48 782.25,-1190.48 782.25,-1190.48 782.25,-1184.48 788.25,-1178.48 794.25,-1178.48 794.25,-1178.48 1311.3,-1178.48 1311.3,-1178.48 1317.3,-1178.48 1323.3,-1184.48 1323.3,-1190.48 1323.3,-1190.48 1323.3,-1202.48 1323.3,-1202.48 1323.3,-1208.48 1317.3,-1214.48 1311.3,-1214.48"/>
<text text-anchor="start" x="796.65" y="-1192.81" font-family="Roboto, sans-serif" font-weight="bold" font-size="14.00">40: </text>
<text text-anchor="start" x="825.9" y="-1192.81" font-family="Roboto, sans-serif" font-size="14.00">Liegt das Eingangsdatum mindestens 6 WT vor dem Abmeldedatum?</text>
</g>
<!-- 10&#45;&gt;40 -->
<g id="edge2" class="edge">
<title>10-&gt;40</title>
<path fill="none" stroke="#7aab8a" d="M1249.1,-1267.74C1200.56,-1250.37 1148.7,-1231.81 1110.47,-1218.13"/>
<polygon fill="#7aab8a" stroke="#7aab8a" points="1112.08,-1214.99 1101.49,-1214.91 1109.72,-1221.58 1112.08,-1214.99"/>
<text text-anchor="start" x="1189.78" y="-1237.43" font-family="Roboto, sans-serif" font-weight="bold" font-size="14.00">JA</text>
</g>
<!-- 30 -->
<g id="node4" class="node">
<title>30</title>
<path fill="#7aab8a" stroke="black" stroke-width="0" d="M1872.55,-973.06C1872.55,-973.06 1201,-973.06 1201,-973.06 1195,-973.06 1189,-967.06 1189,-961.06 1189,-961.06 1189,-949.06 1189,-949.06 1189,-943.06 1195,-937.06 1201,-937.06 1201,-937.06 1872.55,-937.06 1872.55,-937.06 1878.55,-937.06 1884.55,-943.06 1884.55,-949.06 1884.55,-949.06 1884.55,-961.06 1884.55,-961.06 1884.55,-967.06 1878.55,-973.06 1872.55,-973.06"/>
<text text-anchor="start" x="1203.4" y="-951.38" font-family="Roboto, sans-serif" font-weight="bold" font-size="14.00">30: </text>
<text text-anchor="start" x="1232.65" y="-951.38" font-family="Roboto, sans-serif" font-size="14.00">Liegt das Abmeldedatum mindestens einen Tag nach dem Eingangsdatum der Abmeldung?</text>
</g>
<!-- 20&#45;&gt;30 -->
<g id="edge4" class="edge">
<title>20-&gt;30</title>
<path fill="none" stroke="#7aab8a" d="M1604.62,-1038.08C1588.98,-1019.18 1571.1,-997.56 1557.62,-981.27"/>
<polygon fill="#7aab8a" stroke="#7aab8a" points="1560.67,-979.45 1551.6,-973.98 1555.27,-983.92 1560.67,-979.45"/>
<text text-anchor="start" x="1587.78" y="-1007.65" font-family="Roboto, sans-serif" font-weight="bold" font-size="14.00">JA</text>
</g>
<!-- 80 -->
<g id="node12" class="node">
<title>80</title>
<path fill="#7aab8a" stroke="black" stroke-width="0" d="M2530.8,-977.7C2530.8,-977.7 1914.75,-977.7 1914.75,-977.7 1908.75,-977.7 1902.75,-971.7 1902.75,-965.7 1902.75,-965.7 1902.75,-944.42 1902.75,-944.42 1902.75,-938.42 1908.75,-932.42 1914.75,-932.42 1914.75,-932.42 2530.8,-932.42 2530.8,-932.42 2536.8,-932.42 2542.8,-938.42 2542.8,-944.42 2542.8,-944.42 2542.8,-965.7 2542.8,-965.7 2542.8,-971.7 2536.8,-977.7 2530.8,-977.7"/>
<text text-anchor="start" x="1917.15" y="-956.76" font-family="Roboto, sans-serif" font-weight="bold" font-size="14.00">80: </text>
<text text-anchor="start" x="1946.4" y="-956.76" font-family="Roboto, sans-serif" font-size="14.00">Handelt es sich um eine Marktlokation, deren Mess-lokationen vollst&#228;ndig mit</text>
<text text-anchor="start" x="1917.15" y="-942.76" font-family="Roboto, sans-serif" font-size="14.00">iMS ausgestattet sind oder/und deren Prognosegrundlage auf Basis von Werten erfolgt?</text>
</g>
<!-- 20&#45;&gt;80 -->
<g id="edge5" class="edge">
<title>20-&gt;80</title>
<path fill="none" stroke="#7aab8a" d="M1839.19,-1038C1929.86,-1018.63 2033.78,-996.43 2110.56,-980.03"/>
<polygon fill="#7aab8a" stroke="#7aab8a" points="2111.16,-983.48 2120.21,-977.97 2109.7,-976.63 2111.16,-983.48"/>
<text text-anchor="start" x="1999.78" y="-1007.65" font-family="Roboto, sans-serif" font-weight="bold" font-size="14.00">NEIN</text>
</g>
<!-- A01 -->
<g id="node5" class="node">
<title>A01</title>
<path fill="#cfb986" stroke="black" stroke-width="0" d="M1794.14,-844.29C1794.14,-844.29 1317.41,-844.29 1317.41,-844.29 1311.41,-844.29 1305.41,-838.29 1305.41,-832.29 1305.41,-832.29 1305.41,-782.77 1305.41,-782.77 1305.41,-776.77 1311.41,-770.77 1317.41,-770.77 1317.41,-770.77 1794.14,-770.77 1794.14,-770.77 1800.14,-770.77 1806.14,-776.77 1806.14,-782.77 1806.14,-782.77 1806.14,-832.29 1806.14,-832.29 1806.14,-838.29 1800.14,-844.29 1794.14,-844.29"/>
<text text-anchor="start" x="1317.65" y="-826.23" font-family="Roboto, sans-serif" font-weight="bold" font-size="14.00">A01</text>
<text text-anchor="start" x="1317.65" y="-814.13" font-family="Roboto, sans-serif" text-decoration="underline" font-size="12.00">Hinweis:</text>
<text text-anchor="start" x="1317.65" y="-802.13" font-family="Roboto, sans-serif" font-size="12.00">Cluster: Ablehnung</text>
<text text-anchor="start" x="1317.65" y="-790.13" font-family="Roboto, sans-serif" font-size="12.00">Frist&#252;berschreitung bei Aufhebung einer zu-k&#252;nftigen Zuordnung wegen Auszug</text>
<text text-anchor="start" x="1317.65" y="-778.13" font-family="Roboto, sans-serif" font-size="12.00">oder Still-legung.</text>
</g>
<!-- 30&#45;&gt;A01 -->
<g id="edge6" class="edge">
<title>30-&gt;A01</title>
<path fill="none" stroke="#7aab8a" d="M1538.99,-937.08C1541.59,-917.18 1546,-883.36 1549.65,-855.41"/>
<polygon fill="#7aab8a" stroke="#7aab8a" points="1553.09,-856.11 1550.92,-845.74 1546.15,-855.2 1553.09,-856.11"/>
<text text-anchor="start" x="1543.78" y="-895.12" font-family="Roboto, sans-serif" font-weight="bold" font-size="14.00">NEIN</text>
</g>
<!-- 110 -->
<g id="node17" class="node">
<title>110</title>
<path fill="#7aab8a" stroke="black" stroke-width="0" d="M587.55,-830.17C587.55,-830.17 12,-830.17 12,-830.17 6,-830.17 0,-824.17 0,-818.17 0,-818.17 0,-796.89 0,-796.89 0,-790.89 6,-784.89 12,-784.89 12,-784.89 587.55,-784.89 587.55,-784.89 593.55,-784.89 599.55,-790.89 599.55,-796.89 599.55,-796.89 599.55,-818.17 599.55,-818.17 599.55,-824.17 593.55,-830.17 587.55,-830.17"/>
<text text-anchor="start" x="14.4" y="-809.23" font-family="Roboto, sans-serif" font-weight="bold" font-size="14.00">110: </text>
<text text-anchor="start" x="53.4" y="-809.23" font-family="Roboto, sans-serif" font-size="14.00">Erfolgt die Aufhebung einer zuk&#252;nftigen Zuordnung zu dem gleichen Datum</text>
<text text-anchor="start" x="14.4" y="-795.23" font-family="Roboto, sans-serif" font-size="14.00">(Zeitpunkt), welcher dem Lieferanten im Lieferbeginn best&#228;tigt wurde?</text>
</g>
<!-- 30&#45;&gt;110 -->
<g id="edge7" class="edge">
<title>30-&gt;110</title>
<path fill="none" stroke="#7aab8a" d="M1339.05,-937.08C1078.56,-914.63 649.07,-877.3 613.77,-872.17 543.17,-861.92 464.49,-845.96 403.55,-832.59"/>
<polygon fill="#7aab8a" stroke="#7aab8a" points="404.38,-829.19 393.86,-830.45 402.87,-836.03 404.38,-829.19"/>
<text text-anchor="start" x="986.77" y="-895.12" font-family="Roboto, sans-serif" font-weight="bold" font-size="14.00">JA</text>
</g>
<!-- A02 -->
<g id="node7" class="node">
<title>A02</title>
<path fill="#cfb986" stroke="black" stroke-width="0" d="M1292.27,-1112.35C1292.27,-1112.35 813.29,-1112.35 813.29,-1112.35 807.29,-1112.35 801.29,-1106.35 801.29,-1100.35 801.29,-1100.35 801.29,-1062.83 801.29,-1062.83 801.29,-1056.83 807.29,-1050.83 813.29,-1050.83 813.29,-1050.83 1292.27,-1050.83 1292.27,-1050.83 1298.27,-1050.83 1304.27,-1056.83 1304.27,-1062.83 1304.27,-1062.83 1304.27,-1100.35 1304.27,-1100.35 1304.27,-1106.35 1298.27,-1112.35 1292.27,-1112.35"/>
<text text-anchor="start" x="813.53" y="-1094.29" font-family="Roboto, sans-serif" font-weight="bold" font-size="14.00">A02</text>
<text text-anchor="start" x="813.53" y="-1082.19" font-family="Roboto, sans-serif" text-decoration="underline" font-size="12.00">Hinweis:</text>
<text text-anchor="start" x="813.53" y="-1070.19" font-family="Roboto, sans-serif" font-size="12.00">Cluster: Ablehnung</text>
<text text-anchor="start" x="813.53" y="-1058.19" font-family="Roboto, sans-serif" font-size="12.00">Frist&#252;berschreitung bei Transaktionsgr&#252;nden f&#252;r eine Abmeldung in der Zukunft.</text>
</g>
<!-- 40&#45;&gt;A02 -->
<g id="edge8" class="edge">
<title>40-&gt;A02</title>
<path fill="none" stroke="#7aab8a" d="M1052.78,-1178.82C1052.78,-1164.3 1052.78,-1142.62 1052.78,-1123.51"/>
<polygon fill="#7aab8a" stroke="#7aab8a" points="1056.28,-1123.55 1052.78,-1113.55 1049.28,-1123.55 1056.28,-1123.55"/>
<text text-anchor="start" x="1052.78" y="-1148.18" font-family="Roboto, sans-serif" font-weight="bold" font-size="14.00">NEIN</text>
</g>
<!-- 50 -->
<g id="node8" class="node">
<title>50</title>
<path fill="#7aab8a" stroke="black" stroke-width="0" d="M771.17,-1111.23C771.17,-1111.23 190.38,-1111.23 190.38,-1111.23 184.38,-1111.23 178.38,-1105.23 178.38,-1099.23 178.38,-1099.23 178.38,-1063.95 178.38,-1063.95 178.38,-1057.95 184.38,-1051.95 190.38,-1051.95 190.38,-1051.95 771.17,-1051.95 771.17,-1051.95 777.17,-1051.95 783.17,-1057.95 783.17,-1063.95 783.17,-1063.95 783.17,-1099.23 783.17,-1099.23 783.17,-1105.23 777.17,-1111.23 771.17,-1111.23"/>
<text text-anchor="start" x="192.77" y="-1090.29" font-family="Roboto, sans-serif" font-weight="bold" font-size="14.00">50: </text>
<text text-anchor="start" x="222.02" y="-1090.29" font-family="Roboto, sans-serif" font-size="14.00">Liegt der Transaktionsgrund</text>
<text text-anchor="start" x="192.77" y="-1076.29" font-family="Roboto, sans-serif" font-size="14.00">Aufhebung einer zuk&#252;nftigen Zuordnung wegen aufgehobenem Vertragsverh&#228;ltnis</text>
<text text-anchor="start" x="192.77" y="-1062.29" font-family="Roboto, sans-serif" font-size="14.00">vor?</text>
</g>
<!-- 40&#45;&gt;50 -->
<g id="edge9" class="edge">
<title>40-&gt;50</title>
<path fill="none" stroke="#7aab8a" d="M966.83,-1178.52C879.78,-1161.34 743.19,-1134.38 636.94,-1113.41"/>
<polygon fill="#7aab8a" stroke="#7aab8a" points="637.75,-1110 627.26,-1111.5 636.39,-1116.87 637.75,-1110"/>
<text text-anchor="start" x="866.77" y="-1148.18" font-family="Roboto, sans-serif" font-weight="bold" font-size="14.00">JA</text>
</g>
<!-- 60 -->
<g id="node9" class="node">
<title>60</title>
<path fill="#7aab8a" stroke="black" stroke-width="0" d="M757.05,-984.7C757.05,-984.7 514.5,-984.7 514.5,-984.7 508.5,-984.7 502.5,-978.7 502.5,-972.7 502.5,-972.7 502.5,-937.42 502.5,-937.42 502.5,-931.42 508.5,-925.42 514.5,-925.42 514.5,-925.42 757.05,-925.42 757.05,-925.42 763.05,-925.42 769.05,-931.42 769.05,-937.42 769.05,-937.42 769.05,-972.7 769.05,-972.7 769.05,-978.7 763.05,-984.7 757.05,-984.7"/>
<text text-anchor="start" x="516.9" y="-963.76" font-family="Roboto, sans-serif" font-weight="bold" font-size="14.00">60: </text>
<text text-anchor="start" x="546.15" y="-963.76" font-family="Roboto, sans-serif" font-size="14.00">Liegt der Transaktionsgrund </text>
<text text-anchor="start" x="516.9" y="-949.76" font-family="Roboto, sans-serif" font-size="14.00">Ende der ESV ohne Folgelieferung</text>
<text text-anchor="start" x="516.9" y="-935.76" font-family="Roboto, sans-serif" font-size="14.00">vor?</text>
</g>
<!-- 50&#45;&gt;60 -->
<g id="edge11" class="edge">
<title>50-&gt;60</title>
<path fill="none" stroke="#7aab8a" d="M516.34,-1052.02C538.68,-1034.06 567.69,-1010.76 591.52,-991.61"/>
<polygon fill="#7aab8a" stroke="#7aab8a" points="593.6,-994.44 599.2,-985.44 589.21,-988.98 593.6,-994.44"/>
<text text-anchor="start" x="575.77" y="-1007.65" font-family="Roboto, sans-serif" font-weight="bold" font-size="14.00">NEIN</text>
</g>
<!-- 50&#45;&gt;110 -->
<g id="edge10" class="edge">
<title>50-&gt;110</title>
<path fill="none" stroke="#7aab8a" d="M461.75,-1051.99C427.47,-1000.47 355.63,-892.49 320.3,-839.38"/>
<polygon fill="#7aab8a" stroke="#7aab8a" points="323.23,-837.47 314.78,-831.08 317.4,-841.34 323.23,-837.47"/>
<text text-anchor="start" x="413.77" y="-951.38" font-family="Roboto, sans-serif" font-weight="bold" font-size="14.00">JA</text>
</g>
<!-- 70 -->
<g id="node10" class="node">
<title>70</title>
<path fill="#7aab8a" stroke="black" stroke-width="0" d="M1274.92,-872.17C1274.92,-872.17 704.62,-872.17 704.62,-872.17 698.62,-872.17 692.62,-866.17 692.62,-860.17 692.62,-860.17 692.62,-754.89 692.62,-754.89 692.62,-748.89 698.62,-742.89 704.62,-742.89 704.62,-742.89 1274.92,-742.89 1274.92,-742.89 1280.92,-742.89 1286.92,-748.89 1286.92,-754.89 1286.92,-754.89 1286.92,-860.17 1286.92,-860.17 1286.92,-866.17 1280.92,-872.17 1274.92,-872.17"/>
<text text-anchor="start" x="707.02" y="-851.23" font-family="Roboto, sans-serif" font-weight="bold" font-size="14.00">70: </text>
<text text-anchor="start" x="736.27" y="-851.23" font-family="Roboto, sans-serif" font-size="14.00">Gab es an dieser Marktlokation eine best&#228;tigte Anmeldung zur Ersatz-</text>
<text text-anchor="start" x="707.02" y="-837.23" font-family="Roboto, sans-serif" font-size="14.00">Grundversorgung mit einem Lieferbeginnzeitpunkt, welcher innerhalb 3 Monaten</text>
<text text-anchor="start" x="707.02" y="-823.23" font-family="Roboto, sans-serif" font-size="14.00">vom Endezeitpunkt der Belieferung aus dieser Abmeldung begonnen hat?</text>
<text text-anchor="start" x="707.02" y="-809.23" font-family="Roboto, sans-serif" font-size="14.00">Hinweis:</text>
<text text-anchor="start" x="707.02" y="-795.23" font-family="Roboto, sans-serif" font-size="14.00">Eine Lieferende mit dem Grund &#8222;Ende der ESV ohne Folgelieferung&#8220; kann nur in</text>
<text text-anchor="start" x="707.02" y="-781.23" font-family="Roboto, sans-serif" font-size="14.00">dem Fall vorliegen, wenn diese Marktlokation innerhalb der letzten 3 Monate</text>
<text text-anchor="start" x="707.02" y="-767.23" font-family="Roboto, sans-serif" font-size="14.00">auch &#252;ber den Use-Case &#8222;Beginn der Ersatz-/Grundversorgung&#8220; vom NB beim LF</text>
<text text-anchor="start" x="707.02" y="-753.23" font-family="Roboto, sans-serif" font-size="14.00">angemeldet wurde.</text>
</g>
<!-- 60&#45;&gt;70 -->
<g id="edge12" class="edge">
<title>60-&gt;70</title>
<path fill="none" stroke="#7aab8a" d="M705.29,-925.48C739.61,-911.37 782.61,-893.7 824.7,-876.39"/>
<polygon fill="#7aab8a" stroke="#7aab8a" points="825.77,-879.74 833.69,-872.7 823.11,-873.26 825.77,-879.74"/>
<text text-anchor="start" x="780.77" y="-895.12" font-family="Roboto, sans-serif" font-weight="bold" font-size="14.00">JA</text>
</g>
<!-- 120 -->
<g id="node19" class="node">
<title>120</title>
<path fill="#7aab8a" stroke="black" stroke-width="0" d="M1360.55,-689.64C1360.55,-689.64 605,-689.64 605,-689.64 599,-689.64 593,-683.64 593,-677.64 593,-677.64 593,-600.36 593,-600.36 593,-594.36 599,-588.36 605,-588.36 605,-588.36 1360.55,-588.36 1360.55,-588.36 1366.55,-588.36 1372.55,-594.36 1372.55,-600.36 1372.55,-600.36 1372.55,-677.64 1372.55,-677.64 1372.55,-683.64 1366.55,-689.64 1360.55,-689.64"/>
<text text-anchor="start" x="607.4" y="-668.7" font-family="Roboto, sans-serif" font-weight="bold" font-size="14.00">120: </text>
<text text-anchor="start" x="646.4" y="-668.7" font-family="Roboto, sans-serif" font-size="14.00">Wurde die Zuordnung des anfragenden Lieferanten zur Marktlokation zum</text>
<text text-anchor="start" x="607.4" y="-654.7" font-family="Roboto, sans-serif" font-size="14.00">identischen Abmeldedatum bereits durch eine Best&#228;tigung in den folgenden Prozessschritten beendet? Fall:</text>
<text text-anchor="start" x="607.4" y="-640.7" font-family="Roboto, sans-serif" font-size="14.00">SD: Lieferende von LF an NB, Prozessschritt 2 "Antwort auf Abmeldung"</text>
<text text-anchor="start" x="607.4" y="-626.7" font-family="Roboto, sans-serif" font-size="14.00">SD: Lieferende von NB an LF, Prozessschritt 2 "Antwort auf Abmeldung"</text>
<text text-anchor="start" x="607.4" y="-612.7" font-family="Roboto, sans-serif" font-size="14.00">SD: Lieferbeginn, Prozessschritt 4 "Beantwortung der Abmeldeanfrage" oder die</text>
<text text-anchor="start" x="607.4" y="-598.7" font-family="Roboto, sans-serif" font-size="14.00">Best&#228;tigung erfolgt durch die Fristverstreichung</text>
</g>
<!-- 60&#45;&gt;120 -->
<g id="edge13" class="edge">
<title>60-&gt;120</title>
<path fill="none" stroke="#7aab8a" d="M627.61,-925.65C616.8,-881.54 603.55,-796.13 644.77,-742.89 659.29,-724.15 695.86,-707.34 739.84,-693.01"/>
<polygon fill="#7aab8a" stroke="#7aab8a" points="740.64,-696.43 749.11,-690.07 738.52,-689.76 740.64,-696.43"/>
<text text-anchor="start" x="644.77" y="-803.86" font-family="Roboto, sans-serif" font-weight="bold" font-size="14.00">NEIN</text>
</g>
<!-- A11 -->
<g id="node11" class="node">
<title>A11</title>
<path fill="#cfb986" stroke="black" stroke-width="0" d="M1897.14,-681.76C1897.14,-681.76 1402.41,-681.76 1402.41,-681.76 1396.41,-681.76 1390.41,-675.76 1390.41,-669.76 1390.41,-669.76 1390.41,-608.24 1390.41,-608.24 1390.41,-602.24 1396.41,-596.24 1402.41,-596.24 1402.41,-596.24 1897.14,-596.24 1897.14,-596.24 1903.14,-596.24 1909.14,-602.24 1909.14,-608.24 1909.14,-608.24 1909.14,-669.76 1909.14,-669.76 1909.14,-675.76 1903.14,-681.76 1897.14,-681.76"/>
<text text-anchor="start" x="1402.65" y="-663.7" font-family="Roboto, sans-serif" font-weight="bold" font-size="14.00">A11</text>
<text text-anchor="start" x="1402.65" y="-651.6" font-family="Roboto, sans-serif" text-decoration="underline" font-size="12.00">Hinweis:</text>
<text text-anchor="start" x="1402.65" y="-639.6" font-family="Roboto, sans-serif" font-size="12.00">Cluster: Ablehnung</text>
<text text-anchor="start" x="1402.65" y="-627.6" font-family="Roboto, sans-serif" font-size="12.00">Die Marklokation wurde nicht innerhalb der letzten 3 Monate zur Ersatz-/</text>
<text text-anchor="start" x="1402.65" y="-615.6" font-family="Roboto, sans-serif" font-size="12.00">Grundversorgung angemeldet. Somit kann es sich nicht um eine Beendigung einer</text>
<text text-anchor="start" x="1402.65" y="-603.6" font-family="Roboto, sans-serif" font-size="12.00">ESV handeln.</text>
</g>
<!-- 70&#45;&gt;A11 -->
<g id="edge14" class="edge">
<title>70-&gt;A11</title>
<path fill="none" stroke="#7aab8a" d="M1263.69,-742.99C1288.43,-736.98 1313.08,-730.89 1336.78,-724.89 1386.38,-712.33 1440.21,-697.99 1489.01,-684.72"/>
<polygon fill="#7aab8a" stroke="#7aab8a" points="1489.8,-688.13 1498.53,-682.12 1487.96,-681.38 1489.8,-688.13"/>
<text text-anchor="start" x="1396.78" y="-712.59" font-family="Roboto, sans-serif" font-weight="bold" font-size="14.00">NEIN</text>
</g>
<!-- 70&#45;&gt;120 -->
<g id="edge15" class="edge">
<title>70-&gt;120</title>
<path fill="none" stroke="#7aab8a" d="M987.11,-743.1C986.53,-729.24 985.91,-714.6 985.33,-700.84"/>
<polygon fill="#7aab8a" stroke="#7aab8a" points="988.84,-700.89 984.92,-691.05 981.84,-701.18 988.84,-700.89"/>
<text text-anchor="start" x="985.77" y="-712.59" font-family="Roboto, sans-serif" font-weight="bold" font-size="14.00">JA</text>
</g>
<!-- 90 -->
<g id="node13" class="node">
<title>90</title>
<path fill="#7aab8a" stroke="black" stroke-width="0" d="M2507.55,-825.53C2507.55,-825.53 1836,-825.53 1836,-825.53 1830,-825.53 1824,-819.53 1824,-813.53 1824,-813.53 1824,-801.53 1824,-801.53 1824,-795.53 1830,-789.53 1836,-789.53 1836,-789.53 2507.55,-789.53 2507.55,-789.53 2513.55,-789.53 2519.55,-795.53 2519.55,-801.53 2519.55,-801.53 2519.55,-813.53 2519.55,-813.53 2519.55,-819.53 2513.55,-825.53 2507.55,-825.53"/>
<text text-anchor="start" x="1838.4" y="-803.86" font-family="Roboto, sans-serif" font-weight="bold" font-size="14.00">90: </text>
<text text-anchor="start" x="1867.65" y="-803.86" font-family="Roboto, sans-serif" font-size="14.00">Liegt das Abmeldedatum mindestens einen Tag nach dem Eingangsdatum der Abmeldung?</text>
</g>
<!-- 80&#45;&gt;90 -->
<g id="edge16" class="edge">
<title>80-&gt;90</title>
<path fill="none" stroke="#7aab8a" d="M2215.25,-932.59C2206.24,-906.87 2191.14,-863.78 2181.32,-835.75"/>
<polygon fill="#7aab8a" stroke="#7aab8a" points="2184.7,-834.82 2178.09,-826.54 2178.09,-837.14 2184.7,-834.82"/>
<text text-anchor="start" x="2205.78" y="-895.12" font-family="Roboto, sans-serif" font-weight="bold" font-size="14.00">JA</text>
</g>
<!-- 100 -->
<g id="node15" class="node">
<title>100</title>
<path fill="#7aab8a" stroke="black" stroke-width="0" d="M3125.55,-830.17C3125.55,-830.17 2550,-830.17 2550,-830.17 2544,-830.17 2538,-824.17 2538,-818.17 2538,-818.17 2538,-796.89 2538,-796.89 2538,-790.89 2544,-784.89 2550,-784.89 2550,-784.89 3125.55,-784.89 3125.55,-784.89 3131.55,-784.89 3137.55,-790.89 3137.55,-796.89 3137.55,-796.89 3137.55,-818.17 3137.55,-818.17 3137.55,-824.17 3131.55,-830.17 3125.55,-830.17"/>
<text text-anchor="start" x="2552.4" y="-809.23" font-family="Roboto, sans-serif" font-weight="bold" font-size="14.00">100: </text>
<text text-anchor="start" x="2591.4" y="-809.23" font-family="Roboto, sans-serif" font-size="14.00">Liegt das Eingangsdatum der Abmeldung mehr als sechs Wochen nach dem</text>
<text text-anchor="start" x="2552.4" y="-795.23" font-family="Roboto, sans-serif" font-size="14.00">Abmeldedatum der Abmeldung?</text>
</g>
<!-- 80&#45;&gt;100 -->
<g id="edge17" class="edge">
<title>80-&gt;100</title>
<path fill="none" stroke="#7aab8a" d="M2314.18,-932.43C2426.83,-905.77 2617.7,-860.61 2735.23,-832.8"/>
<polygon fill="#7aab8a" stroke="#7aab8a" points="2735.97,-836.22 2744.9,-830.51 2734.36,-829.41 2735.97,-836.22"/>
<text text-anchor="start" x="2474.78" y="-895.12" font-family="Roboto, sans-serif" font-weight="bold" font-size="14.00">NEIN</text>
</g>
<!-- A03 -->
<g id="node14" class="node">
<title>A03</title>
<path fill="#cfb986" stroke="black" stroke-width="0" d="M2332.14,-669.76C2332.14,-669.76 2011.41,-669.76 2011.41,-669.76 2005.41,-669.76 1999.41,-663.76 1999.41,-657.76 1999.41,-657.76 1999.41,-620.24 1999.41,-620.24 1999.41,-614.24 2005.41,-608.24 2011.41,-608.24 2011.41,-608.24 2332.14,-608.24 2332.14,-608.24 2338.14,-608.24 2344.14,-614.24 2344.14,-620.24 2344.14,-620.24 2344.14,-657.76 2344.14,-657.76 2344.14,-663.76 2338.14,-669.76 2332.14,-669.76"/>
<text text-anchor="start" x="2011.65" y="-651.7" font-family="Roboto, sans-serif" font-weight="bold" font-size="14.00">A03</text>
<text text-anchor="start" x="2011.65" y="-639.6" font-family="Roboto, sans-serif" text-decoration="underline" font-size="12.00">Hinweis:</text>
<text text-anchor="start" x="2011.65" y="-627.6" font-family="Roboto, sans-serif" font-size="12.00">Cluster: Ablehnung</text>
<text text-anchor="start" x="2011.65" y="-615.6" font-family="Roboto, sans-serif" font-size="12.00">Eingangsfrist bei iMS/kME mit RLM nicht ein-gehalten.</text>
</g>
<!-- 90&#45;&gt;A03 -->
<g id="edge18" class="edge">
<title>90-&gt;A03</title>
<path fill="none" stroke="#7aab8a" d="M2171.78,-789.65C2171.78,-764.31 2171.78,-715.72 2171.78,-680.77"/>
<polygon fill="#7aab8a" stroke="#7aab8a" points="2175.28,-681 2171.78,-671 2168.28,-681 2175.28,-681"/>
<text text-anchor="start" x="2171.78" y="-712.59" font-family="Roboto, sans-serif" font-weight="bold" font-size="14.00">NEIN</text>
</g>
<!-- 90&#45;&gt;120 -->
<g id="edge19" class="edge">
<title>90-&gt;120</title>
<path fill="none" stroke="#7aab8a" d="M2094.57,-789.54C2022.57,-774.46 1911.96,-753.26 1814.78,-742.89 1594.66,-719.41 1536.15,-756.31 1317.03,-724.89 1265.4,-717.49 1210.21,-705.29 1159.85,-692.43"/>
<polygon fill="#7aab8a" stroke="#7aab8a" points="1160.87,-689.07 1150.31,-689.96 1159.12,-695.85 1160.87,-689.07"/>
<text text-anchor="start" x="1316.78" y="-712.59" font-family="Roboto, sans-serif" font-weight="bold" font-size="14.00">JA</text>
</g>
<!-- A04 -->
<g id="node16" class="node">
<title>A04</title>
<path fill="#cfb986" stroke="black" stroke-width="0" d="M3021.02,-669.76C3021.02,-669.76 2654.53,-669.76 2654.53,-669.76 2648.53,-669.76 2642.53,-663.76 2642.53,-657.76 2642.53,-657.76 2642.53,-620.24 2642.53,-620.24 2642.53,-614.24 2648.53,-608.24 2654.53,-608.24 2654.53,-608.24 3021.02,-608.24 3021.02,-608.24 3027.02,-608.24 3033.02,-614.24 3033.02,-620.24 3033.02,-620.24 3033.02,-657.76 3033.02,-657.76 3033.02,-663.76 3027.02,-669.76 3021.02,-669.76"/>
<text text-anchor="start" x="2654.78" y="-651.7" font-family="Roboto, sans-serif" font-weight="bold" font-size="14.00">A04</text>
<text text-anchor="start" x="2654.78" y="-639.6" font-family="Roboto, sans-serif" text-decoration="underline" font-size="12.00">Hinweis:</text>
<text text-anchor="start" x="2654.78" y="-627.6" font-family="Roboto, sans-serif" font-size="12.00">Cluster: Ablehnung</text>
<text text-anchor="start" x="2654.78" y="-615.6" font-family="Roboto, sans-serif" font-size="12.00">Frist&#252;berschreitung bei kME ohne RLM/mME/ Pauschalanlage.</text>
</g>
<!-- 100&#45;&gt;A04 -->
<g id="edge20" class="edge">
<title>100-&gt;A04</title>
<path fill="none" stroke="#7aab8a" d="M2837.78,-785.1C2837.78,-758.78 2837.78,-713.56 2837.78,-680.58"/>
<polygon fill="#7aab8a" stroke="#7aab8a" points="2841.28,-681 2837.78,-671 2834.28,-681 2841.28,-681"/>
<text text-anchor="start" x="2837.78" y="-712.59" font-family="Roboto, sans-serif" font-weight="bold" font-size="14.00">JA</text>
</g>
<!-- 100&#45;&gt;120 -->
<g id="edge21" class="edge">
<title>100-&gt;120</title>
<path fill="none" stroke="#7aab8a" d="M2744.2,-784.94C2683.13,-771.42 2601.53,-754.44 2528.78,-742.89 2028.45,-663.45 1892.74,-725.78 1383.67,-689.75"/>
<polygon fill="#7aab8a" stroke="#7aab8a" points="1384.07,-686.27 1373.85,-689.04 1383.57,-693.25 1384.07,-686.27"/>
<text text-anchor="start" x="2387.78" y="-712.59" font-family="Roboto, sans-serif" font-weight="bold" font-size="14.00">NEIN</text>
</g>
<!-- A10 -->
<g id="node18" class="node">
<title>A10</title>
<path fill="#cfb986" stroke="black" stroke-width="0" d="M557.26,-675.76C557.26,-675.76 42.28,-675.76 42.28,-675.76 36.28,-675.76 30.28,-669.76 30.28,-663.76 30.28,-663.76 30.28,-614.24 30.28,-614.24 30.28,-608.24 36.28,-602.24 42.28,-602.24 42.28,-602.24 557.26,-602.24 557.26,-602.24 563.26,-602.24 569.26,-608.24 569.26,-614.24 569.26,-614.24 569.26,-663.76 569.26,-663.76 569.26,-669.76 563.26,-675.76 557.26,-675.76"/>
<text text-anchor="start" x="42.52" y="-657.7" font-family="Roboto, sans-serif" font-weight="bold" font-size="14.00">A10</text>
<text text-anchor="start" x="42.52" y="-645.6" font-family="Roboto, sans-serif" text-decoration="underline" font-size="12.00">Hinweis:</text>
<text text-anchor="start" x="42.52" y="-633.6" font-family="Roboto, sans-serif" font-size="12.00">Cluster: Ablehnung</text>
<text text-anchor="start" x="42.52" y="-621.6" font-family="Roboto, sans-serif" font-size="12.00">Die Aufhebung einer zuk&#252;nftigen Zuordnung muss zum Datum (Zeitpunkt) angegeben</text>
<text text-anchor="start" x="42.52" y="-609.6" font-family="Roboto, sans-serif" font-size="12.00">werden, wie im Lieferbeginn best&#228;tigt.</text>
</g>
<!-- 110&#45;&gt;A10 -->
<g id="edge22" class="edge">
<title>110-&gt;A10</title>
<path fill="none" stroke="#7aab8a" d="M299.77,-785.1C299.77,-760.46 299.77,-719.25 299.77,-687.04"/>
<polygon fill="#7aab8a" stroke="#7aab8a" points="303.28,-687.14 299.78,-677.14 296.28,-687.14 303.28,-687.14"/>
<text text-anchor="start" x="299.77" y="-712.59" font-family="Roboto, sans-serif" font-weight="bold" font-size="14.00">NEIN</text>
</g>
<!-- 110&#45;&gt;120 -->
<g id="edge23" class="edge">
<title>110-&gt;120</title>
<path fill="none" stroke="#7aab8a" d="M358.66,-784.9C419.82,-763.05 518.62,-729.49 606.02,-707.64 628.08,-702.13 650.97,-696.88 674.07,-691.92"/>
<polygon fill="#7aab8a" stroke="#7aab8a" points="674.52,-695.41 683.58,-689.91 673.07,-688.56 674.52,-695.41"/>
<text text-anchor="start" x="605.77" y="-712.59" font-family="Roboto, sans-serif" font-weight="bold" font-size="14.00">JA</text>
</g>
<!-- A06 -->
<g id="node20" class="node">
<title>A06</title>
<path fill="#cfb986" stroke="black" stroke-width="0" d="M963.64,-430.7C963.64,-430.7 795.91,-430.7 795.91,-430.7 789.91,-430.7 783.91,-424.7 783.91,-418.7 783.91,-418.7 783.91,-381.18 783.91,-381.18 783.91,-375.18 789.91,-369.18 795.91,-369.18 795.91,-369.18 963.64,-369.18 963.64,-369.18 969.64,-369.18 975.64,-375.18 975.64,-381.18 975.64,-381.18 975.64,-418.7 975.64,-418.7 975.64,-424.7 969.64,-430.7 963.64,-430.7"/>
<text text-anchor="start" x="796.15" y="-412.64" font-family="Roboto, sans-serif" font-weight="bold" font-size="14.00">A06</text>
<text text-anchor="start" x="796.15" y="-400.54" font-family="Roboto, sans-serif" text-decoration="underline" font-size="12.00">Hinweis:</text>
<text text-anchor="start" x="796.15" y="-388.54" font-family="Roboto, sans-serif" font-size="12.00">Cluster: Zustimmung</text>
<text text-anchor="start" x="796.15" y="-376.54" font-family="Roboto, sans-serif" font-size="12.00">Best&#228;tigung der Abmeldung</text>
</g>
<!-- 120&#45;&gt;A06 -->
<g id="edge25" class="edge">
<title>120-&gt;A06</title>
<path fill="none" stroke="#7aab8a" d="M925.27,-588.52C910.86,-572.97 897.14,-554.69 888.77,-535.11 876.18,-505.62 874.51,-469.14 875.67,-441.67"/>
<polygon fill="#7aab8a" stroke="#7aab8a" points="879.14,-442.19 876.23,-432 872.15,-441.79 879.14,-442.19"/>
<text text-anchor="start" x="888.77" y="-508.8" font-family="Roboto, sans-serif" font-weight="bold" font-size="14.00">NEIN</text>
</g>
<!-- 130 -->
<g id="node21" class="node">
<title>130</title>
<path fill="#7aab8a" stroke="black" stroke-width="0" d="M1563.05,-535.11C1563.05,-535.11 948.5,-535.11 948.5,-535.11 942.5,-535.11 936.5,-529.11 936.5,-523.11 936.5,-523.11 936.5,-501.83 936.5,-501.83 936.5,-495.83 942.5,-489.83 948.5,-489.83 948.5,-489.83 1563.05,-489.83 1563.05,-489.83 1569.05,-489.83 1575.05,-495.83 1575.05,-501.83 1575.05,-501.83 1575.05,-523.11 1575.05,-523.11 1575.05,-529.11 1569.05,-535.11 1563.05,-535.11"/>
<text text-anchor="start" x="950.9" y="-514.17" font-family="Roboto, sans-serif" font-weight="bold" font-size="14.00">130: </text>
<text text-anchor="start" x="989.9" y="-514.17" font-family="Roboto, sans-serif" font-size="14.00">Ist der anfragende LF am Folgetag des Abmeldungsdatum der Marktlokation noch</text>
<text text-anchor="start" x="950.9" y="-500.17" font-family="Roboto, sans-serif" font-size="14.00">zugeordnet?</text>
</g>
<!-- 120&#45;&gt;130 -->
<g id="edge24" class="edge">
<title>120-&gt;130</title>
<path fill="none" stroke="#7aab8a" d="M1091.46,-588.42C1128.06,-571.73 1167.45,-553.76 1198.49,-539.6"/>
<polygon fill="#7aab8a" stroke="#7aab8a" points="1199.65,-542.92 1207.3,-535.58 1196.75,-536.55 1199.65,-542.92"/>
<text text-anchor="start" x="1166.78" y="-558.06" font-family="Roboto, sans-serif" font-weight="bold" font-size="14.00">JA</text>
</g>
<!-- 130&#45;&gt;A06 -->
<g id="edge27" class="edge">
<title>130-&gt;A06</title>
<path fill="none" stroke="#7aab8a" d="M1172.06,-489.85C1118.07,-475.55 1046.49,-455.94 983.77,-436.58 981.2,-435.78 978.59,-434.97 975.96,-434.14"/>
<polygon fill="#7aab8a" stroke="#7aab8a" points="977.09,-430.82 966.49,-431.1 974.95,-437.49 977.09,-430.82"/>
<text text-anchor="start" x="1101.78" y="-459.53" font-family="Roboto, sans-serif" font-weight="bold" font-size="14.00">JA</text>
</g>
<!-- 140 -->
<g id="node22" class="node">
<title>140</title>
<path fill="#7aab8a" stroke="black" stroke-width="0" d="M1756.3,-436.58C1756.3,-436.58 1005.25,-436.58 1005.25,-436.58 999.25,-436.58 993.25,-430.58 993.25,-424.58 993.25,-424.58 993.25,-375.3 993.25,-375.3 993.25,-369.3 999.25,-363.3 1005.25,-363.3 1005.25,-363.3 1756.3,-363.3 1756.3,-363.3 1762.3,-363.3 1768.3,-369.3 1768.3,-375.3 1768.3,-375.3 1768.3,-424.58 1768.3,-424.58 1768.3,-430.58 1762.3,-436.58 1756.3,-436.58"/>
<text text-anchor="start" x="1007.65" y="-415.64" font-family="Roboto, sans-serif" font-weight="bold" font-size="14.00">140: </text>
<text text-anchor="start" x="1046.65" y="-415.64" font-family="Roboto, sans-serif" font-size="14.00">Liegt ein Transaktionsgrund vor, aus welchem hervorgeht, dass der Anschlussnutzer ausgezogen ist?</text>
<text text-anchor="start" x="1007.65" y="-401.64" font-family="Roboto, sans-serif" font-size="14.00">Das ist bei den folgenden Transaktionsgr&#252;nden der Fall:</text>
<text text-anchor="start" x="1007.65" y="-387.64" font-family="Roboto, sans-serif" font-size="14.00">Ein-/Auszug (Umzug)</text>
<text text-anchor="start" x="1007.65" y="-373.64" font-family="Roboto, sans-serif" font-size="14.00">Auszug wegen Stilllegung</text>
</g>
<!-- 130&#45;&gt;140 -->
<g id="edge26" class="edge">
<title>130-&gt;140</title>
<path fill="none" stroke="#7aab8a" d="M1280.17,-489.9C1294.95,-476.83 1314.32,-459.7 1332.11,-443.97"/>
<polygon fill="#7aab8a" stroke="#7aab8a" points="1334.39,-446.63 1339.56,-437.38 1329.75,-441.38 1334.39,-446.63"/>
<text text-anchor="start" x="1317.78" y="-459.53" font-family="Roboto, sans-serif" font-weight="bold" font-size="14.00">NEIN</text>
</g>
<!-- A07 -->
<g id="node23" class="node">
<title>A07</title>
<path fill="#cfb986" stroke="black" stroke-width="0" d="M1408.89,-255.17C1408.89,-255.17 1074.66,-255.17 1074.66,-255.17 1068.66,-255.17 1062.66,-249.17 1062.66,-243.17 1062.66,-243.17 1062.66,-205.65 1062.66,-205.65 1062.66,-199.65 1068.66,-193.65 1074.66,-193.65 1074.66,-193.65 1408.89,-193.65 1408.89,-193.65 1414.89,-193.65 1420.89,-199.65 1420.89,-205.65 1420.89,-205.65 1420.89,-243.17 1420.89,-243.17 1420.89,-249.17 1414.89,-255.17 1408.89,-255.17"/>
<text text-anchor="start" x="1074.9" y="-237.11" font-family="Roboto, sans-serif" font-weight="bold" font-size="14.00">A07</text>
<text text-anchor="start" x="1074.9" y="-225.01" font-family="Roboto, sans-serif" text-decoration="underline" font-size="12.00">Hinweis:</text>
<text text-anchor="start" x="1074.9" y="-213.01" font-family="Roboto, sans-serif" font-size="12.00">Cluster: Ablehnung </text>
<text text-anchor="start" x="1074.9" y="-201.01" font-family="Roboto, sans-serif" font-size="12.00">Lieferende zum Abmeldedatum wurde bereits best&#228;tigt.</text>
</g>
<!-- 140&#45;&gt;A07 -->
<g id="edge28" class="edge">
<title>140-&gt;A07</title>
<path fill="none" stroke="#7aab8a" d="M1352.31,-363.4C1329.13,-334.47 1296.47,-293.69 1272.66,-263.97"/>
<polygon fill="#7aab8a" stroke="#7aab8a" points="1275.51,-261.92 1266.52,-256.31 1270.04,-266.3 1275.51,-261.92"/>
<text text-anchor="start" x="1335.78" y="-333" font-family="Roboto, sans-serif" font-weight="bold" font-size="14.00">NEIN</text>
</g>
<!-- 150 -->
<g id="node24" class="node">
<title>150</title>
<path fill="#7aab8a" stroke="black" stroke-width="0" d="M2014.18,-310.05C2014.18,-310.05 1451.38,-310.05 1451.38,-310.05 1445.38,-310.05 1439.38,-304.05 1439.38,-298.05 1439.38,-298.05 1439.38,-150.77 1439.38,-150.77 1439.38,-144.77 1445.38,-138.77 1451.38,-138.77 1451.38,-138.77 2014.18,-138.77 2014.18,-138.77 2020.18,-138.77 2026.18,-144.77 2026.18,-150.77 2026.18,-150.77 2026.18,-298.05 2026.18,-298.05 2026.18,-304.05 2020.18,-310.05 2014.18,-310.05"/>
<text text-anchor="start" x="1453.78" y="-289.11" font-family="Roboto, sans-serif" font-weight="bold" font-size="14.00">150: </text>
<text text-anchor="start" x="1492.78" y="-289.11" font-family="Roboto, sans-serif" font-size="14.00">Liegt in der bereits best&#228;tigten Abmeldung ein Transaktionsgrund vor, aus</text>
<text text-anchor="start" x="1453.78" y="-275.11" font-family="Roboto, sans-serif" font-size="14.00">welchem nicht hervorgeht, dass der Anschlussnutzer ausgezogen ist?</text>
<text text-anchor="start" x="1453.78" y="-261.11" font-family="Roboto, sans-serif" font-size="14.00">Das ist bei den folgenden Transaktionsgr&#252;nden der Fall:</text>
<text text-anchor="start" x="1453.78" y="-247.11" font-family="Roboto, sans-serif" font-size="14.00">Ende wegen K&#252;ndigung durch LF</text>
<text text-anchor="start" x="1453.78" y="-233.11" font-family="Roboto, sans-serif" font-size="14.00">Ende wegen K&#252;ndigung durch Kunde/LFN</text>
<text text-anchor="start" x="1453.78" y="-219.11" font-family="Roboto, sans-serif" font-size="14.00">Ende der ESV ohne Folgelieferung</text>
<text text-anchor="start" x="1453.78" y="-205.11" font-family="Roboto, sans-serif" font-size="14.00">Aufhebung einer zuk&#252;nftigen Zuordnung wegen</text>
<text text-anchor="start" x="1453.78" y="-191.11" font-family="Roboto, sans-serif" font-size="14.00">aufgehobenem Vertragsverh&#228;ltnis</text>
<text text-anchor="start" x="1453.78" y="-177.11" font-family="Roboto, sans-serif" font-size="14.00">Abmeldung wg. fehl. Zuordnungserm&#228;chtigung</text>
<text text-anchor="start" x="1453.78" y="-163.11" font-family="Roboto, sans-serif" font-size="14.00">Abmeldung wegen fehl. Zuordnungserm&#228;chtigung aufgrund &#196;nderung ZRT</text>
<text text-anchor="start" x="1453.78" y="-149.11" font-family="Roboto, sans-serif" font-size="14.00">Lieferbeginn und Abmeldung aus der Ersatzversorgung</text>
</g>
<!-- 140&#45;&gt;150 -->
<g id="edge29" class="edge">
<title>140-&gt;150</title>
<path fill="none" stroke="#7aab8a" d="M1452.86,-363.4C1481.6,-349.24 1516.1,-332.23 1550.91,-315.07"/>
<polygon fill="#7aab8a" stroke="#7aab8a" points="1552.44,-318.21 1559.86,-310.65 1549.35,-311.94 1552.44,-318.21"/>
<text text-anchor="start" x="1514.78" y="-333" font-family="Roboto, sans-serif" font-weight="bold" font-size="14.00">JA</text>
</g>
<!-- A08 -->
<g id="node25" class="node">
<title>A08</title>
<path fill="#cfb986" stroke="black" stroke-width="0" d="M1707.77,-73.52C1707.77,-73.52 1249.79,-73.52 1249.79,-73.52 1243.79,-73.52 1237.79,-67.52 1237.79,-61.52 1237.79,-61.52 1237.79,-24 1237.79,-24 1237.79,-18 1243.79,-12 1249.79,-12 1249.79,-12 1707.77,-12 1707.77,-12 1713.77,-12 1719.77,-18 1719.77,-24 1719.77,-24 1719.77,-61.52 1719.77,-61.52 1719.77,-67.52 1713.77,-73.52 1707.77,-73.52"/>
<text text-anchor="start" x="1250.03" y="-55.46" font-family="Roboto, sans-serif" font-weight="bold" font-size="14.00">A08</text>
<text text-anchor="start" x="1250.03" y="-43.36" font-family="Roboto, sans-serif" text-decoration="underline" font-size="12.00">Hinweis:</text>
<text text-anchor="start" x="1250.03" y="-31.36" font-family="Roboto, sans-serif" font-size="12.00">Cluster: Ablehnung</text>
<text text-anchor="start" x="1250.03" y="-19.36" font-family="Roboto, sans-serif" font-size="12.00">Lieferende zum Abmeldedatum wurde aus gleichem Grund bereits best&#228;tigt.</text>
</g>
<!-- 150&#45;&gt;A08 -->
<g id="edge30" class="edge">
<title>150-&gt;A08</title>
<path fill="none" stroke="#7aab8a" d="M1613.21,-138.85C1583.91,-118.12 1554.07,-97.01 1529.97,-79.97"/>
<polygon fill="#7aab8a" stroke="#7aab8a" points="1532.12,-77.2 1521.93,-74.28 1528.07,-82.92 1532.12,-77.2"/>
<text text-anchor="start" x="1582.78" y="-108.47" font-family="Roboto, sans-serif" font-weight="bold" font-size="14.00">NEIN</text>
</g>
<!-- A09 -->
<g id="node26" class="node">
<title>A09</title>
<path fill="#cfb986" stroke="black" stroke-width="0" d="M2221.52,-85.52C2221.52,-85.52 1750.04,-85.52 1750.04,-85.52 1744.04,-85.52 1738.04,-79.52 1738.04,-73.52 1738.04,-73.52 1738.04,-12 1738.04,-12 1738.04,-6 1744.04,0 1750.04,0 1750.04,0 2221.52,0 2221.52,0 2227.52,0 2233.52,-6 2233.52,-12 2233.52,-12 2233.52,-73.52 2233.52,-73.52 2233.52,-79.52 2227.52,-85.52 2221.52,-85.52"/>
<text text-anchor="start" x="1750.28" y="-67.46" font-family="Roboto, sans-serif" font-weight="bold" font-size="14.00">A09</text>
<text text-anchor="start" x="1750.28" y="-55.36" font-family="Roboto, sans-serif" text-decoration="underline" font-size="12.00">Hinweis:</text>
<text text-anchor="start" x="1750.28" y="-43.36" font-family="Roboto, sans-serif" font-size="12.00">Cluster: Zustimmung</text>
<text text-anchor="start" x="1750.28" y="-31.36" font-family="Roboto, sans-serif" font-size="12.00">Erneute Best&#228;tigung der Abmeldung aufgrund der Information, dass der</text>
<text text-anchor="start" x="1750.28" y="-19.36" font-family="Roboto, sans-serif" font-size="12.00">Anschlussnutzer nicht mehr an der Marktlokation vorhanden ist.</text>
<text text-anchor="start" x="1750.28" y="-7.36" font-family="Roboto, sans-serif" font-size="12.00">Hinweis: Das bisher best&#228;tigte Bilanzierungsende bleibt unver&#228;ndert bestehen.</text>
</g>
<!-- 150&#45;&gt;A09 -->
<g id="edge31" class="edge">
<title>150-&gt;A09</title>
<path fill="none" stroke="#7aab8a" d="M1851.87,-138.85C1874.54,-122.75 1897.53,-106.42 1917.91,-91.95"/>
<polygon fill="#7aab8a" stroke="#7aab8a" points="1919.72,-94.95 1925.85,-86.31 1915.67,-89.25 1919.72,-94.95"/>
<text text-anchor="start" x="1895.78" y="-108.47" font-family="Roboto, sans-serif" font-weight="bold" font-size="14.00">JA</text>
</g>
</g>
</svg>
  </g>
</svg>
  </g>
</svg>
