<?xml version='1.0' encoding='ASCII' standalone='yes'?>
<svg xmlns="http://www.w3.org/2000/svg" xmlns:xlink="http://www.w3.org/1999/xlink" version="1.1" width="1920.0px" viewBox="0 0 1920.0 689.3333333333334" height="689.3333333333334px">
  <g>
    <svg version="1.1" width="1920.0px" viewBox="0 0 1920.0 689.3333333333334" height="689.3333333333334px">
  <polygon fill="#c2cee9" points="0,0 1920.0,0 1920.0,689.3333333333334 0,689.3333333333334"/><g>
    <g transform="translate(678.8894395944803, 68.93333333333332) scale(1 1) translate(0, 0) scale(0.9706186050877688 0.9706186050877688) "><!-- note that I manually added the width and height attribute to the root node
  https://chatgpt.com/share/678e3028-70cc-800b-a296-782714735772
  -->
  <defs>
    <style>.cls-1{fill:#fff;}</style>
  </defs>
  <path class="cls-1" d="M122.44,531.2h-56.1c-11,0-19.9-9.12-19.46-20.11C57.47,243.89,278.15,29.78,547.91,29.78v56.02c0,10.98-8.69,19.89-19.66,20.39-225.51,10.31-405.8,197-405.8,425Z"/>
  <path class="cls-1" d="M273.78,531.2h-55.93c-11.23,0-20.09-9.48-19.43-20.69,10.74-183.44,163.39-329.39,349.48-329.39v56.26c0,10.71-8.27,19.62-18.96,20.35-142.35,9.77-255.17,128.69-255.17,273.46Z"/>
  <path class="cls-1" d="M425.77,531.2h-55.45c-11.65,0-20.6-10.17-19.33-21.75,10.87-99.03,95.03-176.34,196.92-176.34v57.01c0,10.05-7.28,18.75-17.23,20.16-59.22,8.4-104.91,59.42-104.91,120.92Z"/>
</g>
    <svg width="1440pt" height="517pt" viewBox="0.00 0.00 1440.00 517.13">
<g id="graph0" class="graph" transform="scale(0.188503 0.188503) rotate(0) translate(4 2739.34)">
<title>D</title>
<text text-anchor="start" x="3357.32" y="-2715.24" font-family="Roboto, sans-serif" font-weight="bold" font-size="18.00">GPKE</text>
<text text-anchor="start" x="3357.32" y="-2685.14" font-family="Roboto, sans-serif" font-weight="bold" font-size="16.00">6.27.1: AD: Information &#252;ber die Zuordnung einer Marktlokation zur Datenaggregation durch den &#220;NB</text>
<!-- Start -->
<g id="node1" class="node">
<title>Start</title>
<path fill="#7a8da1" stroke="black" stroke-width="0" d="M153.3,-2616.22C153.3,-2616.22 12,-2616.22 12,-2616.22 6,-2616.22 0,-2610.22 0,-2604.22 0,-2604.22 0,-2584.94 0,-2584.94 0,-2578.94 6,-2572.94 12,-2572.94 12,-2572.94 153.3,-2572.94 153.3,-2572.94 159.3,-2572.94 165.3,-2578.94 165.3,-2584.94 165.3,-2584.94 165.3,-2604.22 165.3,-2604.22 165.3,-2610.22 159.3,-2616.22 153.3,-2616.22"/>
<text text-anchor="start" x="54.9" y="-2595.28" font-family="Roboto, sans-serif" font-weight="bold" font-size="14.00">E_0455</text>
<text text-anchor="start" x="14.4" y="-2583.18" font-family="Roboto, sans-serif" font-weight="bold" text-decoration="underline" font-size="12.00">Pr&#252;fende Rolle:</text>
<text text-anchor="start" x="117.9" y="-2583.18" font-family="Roboto, sans-serif" font-weight="bold" font-size="12.00"> &#220;NB</text>
</g>
<!-- 1 -->
<g id="node2" class="node">
<title>1</title>
<path fill="#7aab8a" stroke="black" stroke-width="0" d="M679.17,-2514.82C679.17,-2514.82 12.12,-2514.82 12.12,-2514.82 6.12,-2514.82 0.12,-2508.82 0.12,-2502.82 0.12,-2502.82 0.12,-2490.82 0.12,-2490.82 0.12,-2484.82 6.12,-2478.82 12.12,-2478.82 12.12,-2478.82 679.17,-2478.82 679.17,-2478.82 685.17,-2478.82 691.17,-2484.82 691.17,-2490.82 691.17,-2490.82 691.17,-2502.82 691.17,-2502.82 691.17,-2508.82 685.17,-2514.82 679.17,-2514.82"/>
<text text-anchor="start" x="14.52" y="-2493.14" font-family="Roboto, sans-serif" font-weight="bold" font-size="14.00">1: </text>
<text text-anchor="start" x="34.02" y="-2493.14" font-family="Roboto, sans-serif" font-size="14.00">Sind Fehler im Rahmen der AHB-Pr&#252;fungen in den Stammdaten des NB festgestellt worden?</text>
</g>
<!-- Start&#45;&gt;1 -->
<g id="edge1" class="edge">
<title>Start-&gt;1</title>
<path fill="none" stroke="black" d="M125.26,-2572.95C140.65,-2565.84 158.27,-2558.1 174.65,-2551.82 207.29,-2539.31 244.18,-2527.39 275.33,-2517.94"/>
<polygon fill="black" stroke="black" points="276.07,-2521.38 284.64,-2515.15 274.05,-2514.67 276.07,-2521.38"/>
</g>
<!-- Ende -->
<g id="node4" class="node">
<title>Ende</title>
<path fill="#7a8da1" stroke="black" stroke-width="0" d="M270.68,-1914.2C270.68,-1914.2 230.62,-1914.2 230.62,-1914.2 224.62,-1914.2 218.62,-1908.2 218.62,-1902.2 218.62,-1902.2 218.62,-1890.2 218.62,-1890.2 218.62,-1884.2 224.62,-1878.2 230.62,-1878.2 230.62,-1878.2 270.68,-1878.2 270.68,-1878.2 276.68,-1878.2 282.68,-1884.2 282.68,-1890.2 282.68,-1890.2 282.68,-1902.2 282.68,-1902.2 282.68,-1908.2 276.68,-1914.2 270.68,-1914.2"/>
<text text-anchor="middle" x="250.65" y="-1891.53" font-family="Roboto, sans-serif" font-size="14.00">Ende</text>
</g>
<!-- 1&#45;&gt;Ende -->
<g id="edge2" class="edge">
<title>1-&gt;Ende</title>
<path fill="none" stroke="#7aab8a" d="M204.44,-2478.87C161.12,-2465.16 124.65,-2440.65 124.65,-2396.93 124.65,-2396.93 124.65,-2396.93 124.65,-2249.41 124.65,-2178.75 154.06,-2165.77 168.65,-2096.62"/>
<path fill="none" stroke="#7aab8a" d="M168.65,-2094.62C174.82,-2046.3 177.39,-2031.46 204.65,-1991.09"/>
<path fill="none" stroke="#7aab8a" d="M204.65,-1989.09C220.21,-1964.25 245.29,-1970.64 250.65,-1941.83"/>
<path fill="none" stroke="#7aab8a" d="M250.65,-1939.83C251.51,-1935.21 251.94,-1930.26 252.11,-1925.44"/>
<polygon fill="#7aab8a" stroke="#7aab8a" points="255.61,-1925.43 252.07,-1915.44 248.61,-1925.46 255.61,-1925.43"/>
<text text-anchor="start" x="137.65" y="-2197.47" font-family="Roboto, sans-serif" font-weight="bold" font-size="14.00">JA</text>
</g>
<!-- 2 -->
<g id="node5" class="node">
<title>2</title>
<path fill="#7aab8a" stroke="black" stroke-width="0" d="M734.8,-2425.57C734.8,-2425.57 164.5,-2425.57 164.5,-2425.57 158.5,-2425.57 152.5,-2419.57 152.5,-2413.57 152.5,-2413.57 152.5,-2378.29 152.5,-2378.29 152.5,-2372.29 158.5,-2366.29 164.5,-2366.29 164.5,-2366.29 734.8,-2366.29 734.8,-2366.29 740.8,-2366.29 746.8,-2372.29 746.8,-2378.29 746.8,-2378.29 746.8,-2413.57 746.8,-2413.57 746.8,-2419.57 740.8,-2425.57 734.8,-2425.57"/>
<text text-anchor="start" x="166.9" y="-2404.63" font-family="Roboto, sans-serif" font-weight="bold" font-size="14.00">2: </text>
<text text-anchor="start" x="186.4" y="-2404.63" font-family="Roboto, sans-serif" font-size="14.00">Ist die Marktlokation zu dem im Vorgang unter &#8222;Verwendung der Daten ab&#8220;</text>
<text text-anchor="start" x="166.9" y="-2390.63" font-family="Roboto, sans-serif" font-size="14.00">genannten Zeitpunkt bereits dem &#220;NB zur Datenaggregation zugeordnet und die</text>
<text text-anchor="start" x="166.9" y="-2376.63" font-family="Roboto, sans-serif" font-size="14.00">Meldung nicht als Korrektur kenntlich gemacht?</text>
</g>
<!-- 1&#45;&gt;2 -->
<g id="edge3" class="edge">
<title>1-&gt;2</title>
<path fill="none" stroke="#7aab8a" d="M363.29,-2479.04C376.54,-2466.45 395.17,-2448.73 411.74,-2432.98"/>
<polygon fill="#7aab8a" stroke="#7aab8a" points="413.74,-2435.9 418.58,-2426.47 408.92,-2430.83 413.74,-2435.9"/>
<text text-anchor="start" x="397.65" y="-2448.52" font-family="Roboto, sans-serif" font-weight="bold" font-size="14.00">NEIN</text>
</g>
<!-- A97 -->
<g id="node3" class="node">
<title>A97</title>
<path fill="#cfb986" stroke="black" stroke-width="0" d="M713.64,-2637.34C713.64,-2637.34 195.66,-2637.34 195.66,-2637.34 189.66,-2637.34 183.66,-2631.34 183.66,-2625.34 183.66,-2625.34 183.66,-2563.82 183.66,-2563.82 183.66,-2557.82 189.66,-2551.82 195.66,-2551.82 195.66,-2551.82 713.64,-2551.82 713.64,-2551.82 719.64,-2551.82 725.64,-2557.82 725.64,-2563.82 725.64,-2563.82 725.64,-2625.34 725.64,-2625.34 725.64,-2631.34 719.64,-2637.34 713.64,-2637.34"/>
<text text-anchor="start" x="195.9" y="-2619.28" font-family="Roboto, sans-serif" font-weight="bold" font-size="14.00">A97</text>
<text text-anchor="start" x="195.9" y="-2607.18" font-family="Roboto, sans-serif" text-decoration="underline" font-size="12.00">Hinweis:</text>
<text text-anchor="start" x="195.9" y="-2595.18" font-family="Roboto, sans-serif" font-size="12.00">Die Stammdaten des NB gen&#252;gen nicht den AHB-Vorgaben.</text>
<text text-anchor="start" x="195.9" y="-2583.18" font-family="Roboto, sans-serif" font-size="12.00">Hinweis: Diese Pr&#252;fung ist auf alle Stammdaten des NB anzuwenden. Es sind die</text>
<text text-anchor="start" x="195.9" y="-2571.18" font-family="Roboto, sans-serif" font-size="12.00">Fehlerorte aller dabei festgestellten Fehler in der Antwort zu benennen.</text>
<text text-anchor="start" x="195.9" y="-2559.18" font-family="Roboto, sans-serif" font-size="12.00">Eine Durchf&#252;hrung der nachfolgend in diesem EBD genannten Pr&#252;fungen erfolgt nicht.</text>
</g>
<!-- 2&#45;&gt;Ende -->
<g id="edge4" class="edge">
<title>2-&gt;Ende</title>
<path fill="none" stroke="#7aab8a" d="M372.38,-2366.32C311.36,-2339.38 229.73,-2292.79 187.65,-2223.79 157.9,-2175 158.16,-2152.8 168.65,-2096.62"/>
<text text-anchor="start" x="162.65" y="-2148.21" font-family="Roboto, sans-serif" font-weight="bold" font-size="14.00">JA</text>
</g>
<!-- 3 -->
<g id="node7" class="node">
<title>3</title>
<path fill="#7aab8a" stroke="black" stroke-width="0" d="M696.67,-2313.04C696.67,-2313.04 332.62,-2313.04 332.62,-2313.04 326.62,-2313.04 320.62,-2307.04 320.62,-2301.04 320.62,-2301.04 320.62,-2289.04 320.62,-2289.04 320.62,-2283.04 326.62,-2277.04 332.62,-2277.04 332.62,-2277.04 696.67,-2277.04 696.67,-2277.04 702.67,-2277.04 708.67,-2283.04 708.67,-2289.04 708.67,-2289.04 708.67,-2301.04 708.67,-2301.04 708.67,-2307.04 702.67,-2313.04 696.67,-2313.04"/>
<text text-anchor="start" x="335.02" y="-2291.36" font-family="Roboto, sans-serif" font-weight="bold" font-size="14.00">3: </text>
<text text-anchor="start" x="354.52" y="-2291.36" font-family="Roboto, sans-serif" font-size="14.00">Ist die Meldung als Korrektur kenntlich gemacht?</text>
</g>
<!-- 2&#45;&gt;3 -->
<g id="edge5" class="edge">
<title>2-&gt;3</title>
<path fill="none" stroke="#7aab8a" d="M468.45,-2366.33C477.62,-2352.37 488.58,-2335.71 497.52,-2322.11"/>
<polygon fill="#7aab8a" stroke="#7aab8a" points="500.22,-2324.37 502.78,-2314.09 494.37,-2320.53 500.22,-2324.37"/>
<text text-anchor="start" x="489.65" y="-2335.99" font-family="Roboto, sans-serif" font-weight="bold" font-size="14.00">NEIN</text>
</g>
<!-- A01 -->
<g id="node6" class="node">
<title>A01</title>
<path fill="#cfb986" stroke="black" stroke-width="0" d="M1205.51,-2625.34C1205.51,-2625.34 755.78,-2625.34 755.78,-2625.34 749.78,-2625.34 743.78,-2619.34 743.78,-2613.34 743.78,-2613.34 743.78,-2575.82 743.78,-2575.82 743.78,-2569.82 749.78,-2563.82 755.78,-2563.82 755.78,-2563.82 1205.51,-2563.82 1205.51,-2563.82 1211.51,-2563.82 1217.51,-2569.82 1217.51,-2575.82 1217.51,-2575.82 1217.51,-2613.34 1217.51,-2613.34 1217.51,-2619.34 1211.51,-2625.34 1205.51,-2625.34"/>
<text text-anchor="start" x="756.02" y="-2607.28" font-family="Roboto, sans-serif" font-weight="bold" font-size="14.00">A01</text>
<text text-anchor="start" x="756.02" y="-2595.18" font-family="Roboto, sans-serif" text-decoration="underline" font-size="12.00">Hinweis:</text>
<text text-anchor="start" x="756.02" y="-2583.18" font-family="Roboto, sans-serif" font-size="12.00">Zuordnung der Datenaggregation liegt bereits vor. &#196;nderungen sind mittels</text>
<text text-anchor="start" x="756.02" y="-2571.18" font-family="Roboto, sans-serif" font-size="12.00">Stammdatensynchronisation durchzuf&#252;hren.</text>
</g>
<!-- 4 -->
<g id="node8" class="node">
<title>4</title>
<path fill="#7aab8a" stroke="black" stroke-width="0" d="M820.42,-2223.79C820.42,-2223.79 208.88,-2223.79 208.88,-2223.79 202.88,-2223.79 196.88,-2217.79 196.88,-2211.79 196.88,-2211.79 196.88,-2190.51 196.88,-2190.51 196.88,-2184.51 202.88,-2178.51 208.88,-2178.51 208.88,-2178.51 820.42,-2178.51 820.42,-2178.51 826.42,-2178.51 832.42,-2184.51 832.42,-2190.51 832.42,-2190.51 832.42,-2211.79 832.42,-2211.79 832.42,-2217.79 826.42,-2223.79 820.42,-2223.79"/>
<text text-anchor="start" x="211.27" y="-2202.85" font-family="Roboto, sans-serif" font-weight="bold" font-size="14.00">4: </text>
<text text-anchor="start" x="230.77" y="-2202.85" font-family="Roboto, sans-serif" font-size="14.00">Ist die im Vorgang enthaltene Marktlokations-ID zum genannten Zeitpunkt dem &#220;NB</text>
<text text-anchor="start" x="211.27" y="-2188.85" font-family="Roboto, sans-serif" font-size="14.00">bereits zur Aggregation zugeordnet?</text>
</g>
<!-- 3&#45;&gt;4 -->
<g id="edge6" class="edge">
<title>3-&gt;4</title>
<path fill="none" stroke="#7aab8a" d="M514.65,-2277.19C514.65,-2265.45 514.65,-2249.4 514.65,-2235.17"/>
<polygon fill="#7aab8a" stroke="#7aab8a" points="518.15,-2235.28 514.65,-2225.28 511.15,-2235.28 518.15,-2235.28"/>
<text text-anchor="start" x="514.65" y="-2246.74" font-family="Roboto, sans-serif" font-weight="bold" font-size="14.00">JA</text>
</g>
<!-- 5 -->
<g id="node10" class="node">
<title>5</title>
<path fill="#7aab8a" stroke="black" stroke-width="0" d="M875.42,-2125.26C875.42,-2125.26 269.88,-2125.26 269.88,-2125.26 263.88,-2125.26 257.88,-2119.26 257.88,-2113.26 257.88,-2113.26 257.88,-2077.98 257.88,-2077.98 257.88,-2071.98 263.88,-2065.98 269.88,-2065.98 269.88,-2065.98 875.42,-2065.98 875.42,-2065.98 881.42,-2065.98 887.42,-2071.98 887.42,-2077.98 887.42,-2077.98 887.42,-2113.26 887.42,-2113.26 887.42,-2119.26 881.42,-2125.26 875.42,-2125.26"/>
<text text-anchor="start" x="272.27" y="-2104.32" font-family="Roboto, sans-serif" font-weight="bold" font-size="14.00">5: </text>
<text text-anchor="start" x="291.77" y="-2104.32" font-family="Roboto, sans-serif" font-size="14.00">Liegt das im Vorgang unter "Verwendung der Daten ab" genannte Datum zum</text>
<text text-anchor="start" x="272.27" y="-2090.32" font-family="Roboto, sans-serif" font-size="14.00">Zeitpunkt des Empfangs des Vorgangs beim &#220;NB vor dem Beginn des Monats, in dem</text>
<text text-anchor="start" x="272.27" y="-2076.32" font-family="Roboto, sans-serif" font-size="14.00">der Vorgang beim &#220;NB eingeht?</text>
</g>
<!-- 3&#45;&gt;5 -->
<g id="edge7" class="edge">
<title>3-&gt;5</title>
<path fill="none" stroke="#7aab8a" d="M684.77,-2277.08C753.14,-2266.43 820.76,-2249.65 841.65,-2223.79 878.71,-2177.93 829.24,-2147.68 763.04,-2128.24"/>
<polygon fill="#7aab8a" stroke="#7aab8a" points="764.31,-2124.96 753.74,-2125.62 762.42,-2131.7 764.31,-2124.96"/>
<text text-anchor="start" x="853.65" y="-2197.47" font-family="Roboto, sans-serif" font-weight="bold" font-size="14.00">NEIN</text>
</g>
<!-- 4&#45;&gt;Ende -->
<g id="edge8" class="edge">
<title>4-&gt;Ende</title>
<path fill="none" stroke="#7aab8a" d="M344.1,-2178.56C309.11,-2167.34 274.97,-2150.49 248.65,-2125.26 203.34,-2081.84 172.29,-2044.86 204.65,-1991.09"/>
<text text-anchor="start" x="192.65" y="-2035.68" font-family="Roboto, sans-serif" font-weight="bold" font-size="14.00">NEIN</text>
</g>
<!-- 4&#45;&gt;5 -->
<g id="edge9" class="edge">
<title>4-&gt;5</title>
<path fill="none" stroke="#7aab8a" d="M526.67,-2178.7C533.73,-2166.09 542.87,-2149.78 551.14,-2135.02"/>
<polygon fill="#7aab8a" stroke="#7aab8a" points="554.11,-2136.87 555.95,-2126.44 548,-2133.45 554.11,-2136.87"/>
<text text-anchor="start" x="544.65" y="-2148.21" font-family="Roboto, sans-serif" font-weight="bold" font-size="14.00">JA</text>
</g>
<!-- A19 -->
<g id="node9" class="node">
<title>A19</title>
<path fill="#cfb986" stroke="black" stroke-width="0" d="M1721.52,-2625.34C1721.52,-2625.34 1247.79,-2625.34 1247.79,-2625.34 1241.79,-2625.34 1235.79,-2619.34 1235.79,-2613.34 1235.79,-2613.34 1235.79,-2575.82 1235.79,-2575.82 1235.79,-2569.82 1241.79,-2563.82 1247.79,-2563.82 1247.79,-2563.82 1721.52,-2563.82 1721.52,-2563.82 1727.52,-2563.82 1733.52,-2569.82 1733.52,-2575.82 1733.52,-2575.82 1733.52,-2613.34 1733.52,-2613.34 1733.52,-2619.34 1727.52,-2625.34 1721.52,-2625.34"/>
<text text-anchor="start" x="1248.03" y="-2607.28" font-family="Roboto, sans-serif" font-weight="bold" font-size="14.00">A19</text>
<text text-anchor="start" x="1248.03" y="-2595.18" font-family="Roboto, sans-serif" text-decoration="underline" font-size="12.00">Hinweis:</text>
<text text-anchor="start" x="1248.03" y="-2583.18" font-family="Roboto, sans-serif" font-size="12.00">Die Marktlokation bzw. Tranche ist f&#252;r den genannten Zeitpunkt nicht dem &#220;NB</text>
<text text-anchor="start" x="1248.03" y="-2571.18" font-family="Roboto, sans-serif" font-size="12.00">zur Aggregation gemeldet.</text>
</g>
<!-- 5&#45;&gt;Ende -->
<g id="edge10" class="edge">
<title>5-&gt;Ende</title>
<path fill="none" stroke="#7aab8a" d="M394.19,-2066.04C334.56,-2052.82 278.29,-2035.03 258.9,-2012.73 238.08,-1988.79 243.78,-1972.8 250.65,-1941.83"/>
<text text-anchor="start" x="258.65" y="-1986.42" font-family="Roboto, sans-serif" font-weight="bold" font-size="14.00">JA</text>
</g>
<!-- 6 -->
<g id="node12" class="node">
<title>6</title>
<path fill="#7aab8a" stroke="black" stroke-width="0" d="M899.3,-2012.73C899.3,-2012.73 296,-2012.73 296,-2012.73 290,-2012.73 284,-2006.73 284,-2000.73 284,-2000.73 284,-1979.45 284,-1979.45 284,-1973.45 290,-1967.45 296,-1967.45 296,-1967.45 899.3,-1967.45 899.3,-1967.45 905.3,-1967.45 911.3,-1973.45 911.3,-1979.45 911.3,-1979.45 911.3,-2000.73 911.3,-2000.73 911.3,-2006.73 905.3,-2012.73 899.3,-2012.73"/>
<text text-anchor="start" x="298.4" y="-1991.79" font-family="Roboto, sans-serif" font-weight="bold" font-size="14.00">6: </text>
<text text-anchor="start" x="317.9" y="-1991.79" font-family="Roboto, sans-serif" font-size="14.00">Ist das im Vorgang unter "Verwendung der Daten ab" genannte Datum ein anderes</text>
<text text-anchor="start" x="298.4" y="-1977.79" font-family="Roboto, sans-serif" font-size="14.00">Datum, als der erste eines Monats?</text>
</g>
<!-- 5&#45;&gt;6 -->
<g id="edge11" class="edge">
<title>5-&gt;6</title>
<path fill="none" stroke="#7aab8a" d="M579.55,-2066.06C582.73,-2052.87 586.53,-2037.15 589.82,-2023.52"/>
<polygon fill="#7aab8a" stroke="#7aab8a" points="593.14,-2024.68 592.09,-2014.14 586.34,-2023.03 593.14,-2024.68"/>
<text text-anchor="start" x="586.65" y="-2035.68" font-family="Roboto, sans-serif" font-weight="bold" font-size="14.00">NEIN</text>
</g>
<!-- A20 -->
<g id="node11" class="node">
<title>A20</title>
<path fill="#cfb986" stroke="black" stroke-width="0" d="M2528.02,-2631.34C2528.02,-2631.34 1763.29,-2631.34 1763.29,-2631.34 1757.29,-2631.34 1751.29,-2625.34 1751.29,-2619.34 1751.29,-2619.34 1751.29,-2569.82 1751.29,-2569.82 1751.29,-2563.82 1757.29,-2557.82 1763.29,-2557.82 1763.29,-2557.82 2528.02,-2557.82 2528.02,-2557.82 2534.02,-2557.82 2540.02,-2563.82 2540.02,-2569.82 2540.02,-2569.82 2540.02,-2619.34 2540.02,-2619.34 2540.02,-2625.34 2534.02,-2631.34 2528.02,-2631.34"/>
<text text-anchor="start" x="1763.53" y="-2613.28" font-family="Roboto, sans-serif" font-weight="bold" font-size="14.00">A20</text>
<text text-anchor="start" x="1763.53" y="-2601.18" font-family="Roboto, sans-serif" text-decoration="underline" font-size="12.00">Hinweis:</text>
<text text-anchor="start" x="1763.53" y="-2589.18" font-family="Roboto, sans-serif" font-size="12.00">Das Datum &#8222;Verwendung der Daten ab&#8220; des Vorgangs liegt vor dem Beginn des Monats, in dem der Vorgang beim &#220;NB eingeht.</text>
<text text-anchor="start" x="1763.53" y="-2577.18" font-family="Roboto, sans-serif" font-size="12.00">Hinweis: Eine Korrektur des Datums "Verwendung der Daten ab" auf den</text>
<text text-anchor="start" x="1763.53" y="-2565.18" font-family="Roboto, sans-serif" font-size="12.00">n&#228;chstm&#246;glichen Zeitpunkt ist erforderlich.</text>
</g>
<!-- 6&#45;&gt;Ende -->
<g id="edge12" class="edge">
<title>6-&gt;Ende</title>
<path fill="none" stroke="#7aab8a" d="M492.44,-1967.52C435.68,-1954.9 364.44,-1937.46 292.82,-1914.32"/>
<polygon fill="#7aab8a" stroke="#7aab8a" points="294.28,-1911.12 283.69,-1911.34 292.11,-1917.77 294.28,-1911.12"/>
<text text-anchor="start" x="407.65" y="-1937.15" font-family="Roboto, sans-serif" font-weight="bold" font-size="14.00">JA</text>
</g>
<!-- 7 -->
<g id="node14" class="node">
<title>7</title>
<path fill="#7aab8a" stroke="black" stroke-width="0" d="M974.92,-1914.2C974.92,-1914.2 312.38,-1914.2 312.38,-1914.2 306.38,-1914.2 300.38,-1908.2 300.38,-1902.2 300.38,-1902.2 300.38,-1890.2 300.38,-1890.2 300.38,-1884.2 306.38,-1878.2 312.38,-1878.2 312.38,-1878.2 974.92,-1878.2 974.92,-1878.2 980.92,-1878.2 986.92,-1884.2 986.92,-1890.2 986.92,-1890.2 986.92,-1902.2 986.92,-1902.2 986.92,-1908.2 980.92,-1914.2 974.92,-1914.2"/>
<text text-anchor="start" x="314.77" y="-1892.53" font-family="Roboto, sans-serif" font-weight="bold" font-size="14.00">7: </text>
<text text-anchor="start" x="334.27" y="-1892.53" font-family="Roboto, sans-serif" font-size="14.00">Sind Fehler im Rahmen der AHB-Pr&#252;fungen in den Stammdaten des LF festgestellt worden?</text>
</g>
<!-- 6&#45;&gt;7 -->
<g id="edge13" class="edge">
<title>6-&gt;7</title>
<path fill="none" stroke="#7aab8a" d="M608.32,-1967.78C614.83,-1954.77 623.22,-1938.01 630.19,-1924.09"/>
<polygon fill="#7aab8a" stroke="#7aab8a" points="633.16,-1925.97 634.51,-1915.46 626.9,-1922.84 633.16,-1925.97"/>
<text text-anchor="start" x="625.65" y="-1937.15" font-family="Roboto, sans-serif" font-weight="bold" font-size="14.00">NEIN</text>
</g>
<!-- A21 -->
<g id="node13" class="node">
<title>A21</title>
<path fill="#cfb986" stroke="black" stroke-width="0" d="M3063.27,-2631.34C3063.27,-2631.34 2570.03,-2631.34 2570.03,-2631.34 2564.03,-2631.34 2558.03,-2625.34 2558.03,-2619.34 2558.03,-2619.34 2558.03,-2569.82 2558.03,-2569.82 2558.03,-2563.82 2564.03,-2557.82 2570.03,-2557.82 2570.03,-2557.82 3063.27,-2557.82 3063.27,-2557.82 3069.27,-2557.82 3075.27,-2563.82 3075.27,-2569.82 3075.27,-2569.82 3075.27,-2619.34 3075.27,-2619.34 3075.27,-2625.34 3069.27,-2631.34 3063.27,-2631.34"/>
<text text-anchor="start" x="2570.28" y="-2613.28" font-family="Roboto, sans-serif" font-weight="bold" font-size="14.00">A21</text>
<text text-anchor="start" x="2570.28" y="-2601.18" font-family="Roboto, sans-serif" text-decoration="underline" font-size="12.00">Hinweis:</text>
<text text-anchor="start" x="2570.28" y="-2589.18" font-family="Roboto, sans-serif" font-size="12.00">Die &#220;bertragung der Datenaggregation durch den &#220;NB kann nur zum Ersten eines</text>
<text text-anchor="start" x="2570.28" y="-2577.18" font-family="Roboto, sans-serif" font-size="12.00">Monats erfolgen. Eine Korrektur des Datums "Verwendung der Daten ab" auf den</text>
<text text-anchor="start" x="2570.28" y="-2565.18" font-family="Roboto, sans-serif" font-size="12.00">n&#228;chstm&#246;glichen Zeitpunkt ist erforderlich.</text>
</g>
<!-- 8 -->
<g id="node16" class="node">
<title>8</title>
<path fill="#7aab8a" stroke="black" stroke-width="0" d="M918.3,-1824.95C918.3,-1824.95 369,-1824.95 369,-1824.95 363,-1824.95 357,-1818.95 357,-1812.95 357,-1812.95 357,-1791.67 357,-1791.67 357,-1785.67 363,-1779.67 369,-1779.67 369,-1779.67 918.3,-1779.67 918.3,-1779.67 924.3,-1779.67 930.3,-1785.67 930.3,-1791.67 930.3,-1791.67 930.3,-1812.95 930.3,-1812.95 930.3,-1818.95 924.3,-1824.95 918.3,-1824.95"/>
<text text-anchor="start" x="371.4" y="-1804.01" font-family="Roboto, sans-serif" font-weight="bold" font-size="14.00">8: </text>
<text text-anchor="start" x="390.9" y="-1804.01" font-family="Roboto, sans-serif" font-size="14.00">Wurde die angegebene Verarbeitungsnummer im Vorgang bereits f&#252;r einen</text>
<text text-anchor="start" x="371.4" y="-1790.01" font-family="Roboto, sans-serif" font-size="14.00">verarbeiteten Vorgang zu dieser Marktlokation verwendet?</text>
</g>
<!-- 7&#45;&gt;8 -->
<g id="edge14" class="edge">
<title>7-&gt;8</title>
<path fill="none" stroke="#7aab8a" d="M643.65,-1878.35C643.65,-1866.61 643.65,-1850.56 643.65,-1836.33"/>
<polygon fill="#7aab8a" stroke="#7aab8a" points="647.15,-1836.44 643.65,-1826.44 640.15,-1836.44 647.15,-1836.44"/>
<text text-anchor="start" x="643.65" y="-1847.9" font-family="Roboto, sans-serif" font-weight="bold" font-size="14.00">NEIN</text>
</g>
<!-- A98 -->
<g id="node15" class="node">
<title>A98</title>
<path fill="#cfb986" stroke="black" stroke-width="0" d="M3581.64,-2631.34C3581.64,-2631.34 3105.66,-2631.34 3105.66,-2631.34 3099.66,-2631.34 3093.66,-2625.34 3093.66,-2619.34 3093.66,-2619.34 3093.66,-2569.82 3093.66,-2569.82 3093.66,-2563.82 3099.66,-2557.82 3105.66,-2557.82 3105.66,-2557.82 3581.64,-2557.82 3581.64,-2557.82 3587.64,-2557.82 3593.64,-2563.82 3593.64,-2569.82 3593.64,-2569.82 3593.64,-2619.34 3593.64,-2619.34 3593.64,-2625.34 3587.64,-2631.34 3581.64,-2631.34"/>
<text text-anchor="start" x="3105.9" y="-2613.28" font-family="Roboto, sans-serif" font-weight="bold" font-size="14.00">A98</text>
<text text-anchor="start" x="3105.9" y="-2601.18" font-family="Roboto, sans-serif" text-decoration="underline" font-size="12.00">Hinweis:</text>
<text text-anchor="start" x="3105.9" y="-2589.18" font-family="Roboto, sans-serif" font-size="12.00">Die Stammdaten des LF gen&#252;gen nicht den AHB-Vorgaben.</text>
<text text-anchor="start" x="3105.9" y="-2577.18" font-family="Roboto, sans-serif" font-size="12.00">Hinweis: Diese Pr&#252;fung ist auf alle Stammdaten des LF anzuwenden. Es sind die</text>
<text text-anchor="start" x="3105.9" y="-2565.18" font-family="Roboto, sans-serif" font-size="12.00">Fehlerorte aller dabei festgestellten Fehler in der Antwort zu benennen.</text>
</g>
<!-- 9 -->
<g id="node18" class="node">
<title>9</title>
<path fill="#7aab8a" stroke="black" stroke-width="0" d="M788.55,-1726.42C788.55,-1726.42 498.75,-1726.42 498.75,-1726.42 492.75,-1726.42 486.75,-1720.42 486.75,-1714.42 486.75,-1714.42 486.75,-1702.42 486.75,-1702.42 486.75,-1696.42 492.75,-1690.42 498.75,-1690.42 498.75,-1690.42 788.55,-1690.42 788.55,-1690.42 794.55,-1690.42 800.55,-1696.42 800.55,-1702.42 800.55,-1702.42 800.55,-1714.42 800.55,-1714.42 800.55,-1720.42 794.55,-1726.42 788.55,-1726.42"/>
<text text-anchor="start" x="501.15" y="-1704.75" font-family="Roboto, sans-serif" font-weight="bold" font-size="14.00">9: </text>
<text text-anchor="start" x="520.65" y="-1704.75" font-family="Roboto, sans-serif" font-size="14.00">Ist die richtige Regelzone angegeben?</text>
</g>
<!-- 8&#45;&gt;9 -->
<g id="edge15" class="edge">
<title>8-&gt;9</title>
<path fill="none" stroke="#7aab8a" d="M643.65,-1780C643.65,-1767.37 643.65,-1751.21 643.65,-1737.55"/>
<polygon fill="#7aab8a" stroke="#7aab8a" points="647.15,-1737.84 643.65,-1727.84 640.15,-1737.84 647.15,-1737.84"/>
<text text-anchor="start" x="643.65" y="-1749.37" font-family="Roboto, sans-serif" font-weight="bold" font-size="14.00">NEIN</text>
</g>
<!-- A22 -->
<g id="node17" class="node">
<title>A22</title>
<path fill="#cfb986" stroke="black" stroke-width="0" d="M3875.52,-2619.34C3875.52,-2619.34 3623.78,-2619.34 3623.78,-2619.34 3617.78,-2619.34 3611.78,-2613.34 3611.78,-2607.34 3611.78,-2607.34 3611.78,-2581.82 3611.78,-2581.82 3611.78,-2575.82 3617.78,-2569.82 3623.78,-2569.82 3623.78,-2569.82 3875.52,-2569.82 3875.52,-2569.82 3881.52,-2569.82 3887.52,-2575.82 3887.52,-2581.82 3887.52,-2581.82 3887.52,-2607.34 3887.52,-2607.34 3887.52,-2613.34 3881.52,-2619.34 3875.52,-2619.34"/>
<text text-anchor="start" x="3624.03" y="-2601.28" font-family="Roboto, sans-serif" font-weight="bold" font-size="14.00">A22</text>
<text text-anchor="start" x="3624.03" y="-2589.18" font-family="Roboto, sans-serif" text-decoration="underline" font-size="12.00">Hinweis:</text>
<text text-anchor="start" x="3624.03" y="-2577.18" font-family="Roboto, sans-serif" font-size="12.00">Verarbeitungsnummer bereits verwendet.</text>
</g>
<!-- 10 -->
<g id="node20" class="node">
<title>10</title>
<path fill="#7aab8a" stroke="black" stroke-width="0" d="M935.55,-1637.17C935.55,-1637.17 351.75,-1637.17 351.75,-1637.17 345.75,-1637.17 339.75,-1631.17 339.75,-1625.17 339.75,-1625.17 339.75,-1613.17 339.75,-1613.17 339.75,-1607.17 345.75,-1601.17 351.75,-1601.17 351.75,-1601.17 935.55,-1601.17 935.55,-1601.17 941.55,-1601.17 947.55,-1607.17 947.55,-1613.17 947.55,-1613.17 947.55,-1625.17 947.55,-1625.17 947.55,-1631.17 941.55,-1637.17 935.55,-1637.17"/>
<text text-anchor="start" x="354.15" y="-1615.5" font-family="Roboto, sans-serif" font-weight="bold" font-size="14.00">10: </text>
<text text-anchor="start" x="383.4" y="-1615.5" font-family="Roboto, sans-serif" font-size="14.00">Ist der angegebene Netzbetreiber der Marktlokation in der Regelzone bekannt?</text>
</g>
<!-- 9&#45;&gt;10 -->
<g id="edge16" class="edge">
<title>9-&gt;10</title>
<path fill="none" stroke="#7aab8a" d="M643.65,-1690.6C643.65,-1678.65 643.65,-1662.32 643.65,-1648.39"/>
<polygon fill="#7aab8a" stroke="#7aab8a" points="647.15,-1648.45 643.65,-1638.45 640.15,-1648.45 647.15,-1648.45"/>
<text text-anchor="start" x="643.65" y="-1660.12" font-family="Roboto, sans-serif" font-weight="bold" font-size="14.00">JA</text>
</g>
<!-- A02 -->
<g id="node19" class="node">
<title>A02</title>
<path fill="#cfb986" stroke="black" stroke-width="0" d="M4022.01,-2619.34C4022.01,-2619.34 3917.29,-2619.34 3917.29,-2619.34 3911.29,-2619.34 3905.29,-2613.34 3905.29,-2607.34 3905.29,-2607.34 3905.29,-2581.82 3905.29,-2581.82 3905.29,-2575.82 3911.29,-2569.82 3917.29,-2569.82 3917.29,-2569.82 4022.01,-2569.82 4022.01,-2569.82 4028.01,-2569.82 4034.01,-2575.82 4034.01,-2581.82 4034.01,-2581.82 4034.01,-2607.34 4034.01,-2607.34 4034.01,-2613.34 4028.01,-2619.34 4022.01,-2619.34"/>
<text text-anchor="start" x="3917.53" y="-2601.28" font-family="Roboto, sans-serif" font-weight="bold" font-size="14.00">A02</text>
<text text-anchor="start" x="3917.53" y="-2589.18" font-family="Roboto, sans-serif" text-decoration="underline" font-size="12.00">Hinweis:</text>
<text text-anchor="start" x="3917.53" y="-2577.18" font-family="Roboto, sans-serif" font-size="12.00">Regelzone falsch.</text>
</g>
<!-- 11 -->
<g id="node22" class="node">
<title>11</title>
<path fill="#7aab8a" stroke="black" stroke-width="0" d="M944.55,-1547.92C944.55,-1547.92 342.75,-1547.92 342.75,-1547.92 336.75,-1547.92 330.75,-1541.92 330.75,-1535.92 330.75,-1535.92 330.75,-1523.92 330.75,-1523.92 330.75,-1517.92 336.75,-1511.92 342.75,-1511.92 342.75,-1511.92 944.55,-1511.92 944.55,-1511.92 950.55,-1511.92 956.55,-1517.92 956.55,-1523.92 956.55,-1523.92 956.55,-1535.92 956.55,-1535.92 956.55,-1541.92 950.55,-1547.92 944.55,-1547.92"/>
<text text-anchor="start" x="345.15" y="-1526.25" font-family="Roboto, sans-serif" font-weight="bold" font-size="14.00">11: </text>
<text text-anchor="start" x="374.4" y="-1526.25" font-family="Roboto, sans-serif" font-size="14.00">Ist das Bilanzierungsgebiet zum angegebenen Zeitpunkt in der Regelzone g&#252;ltig?</text>
</g>
<!-- 10&#45;&gt;11 -->
<g id="edge17" class="edge">
<title>10-&gt;11</title>
<path fill="none" stroke="#7aab8a" d="M643.65,-1601.35C643.65,-1589.4 643.65,-1573.07 643.65,-1559.14"/>
<polygon fill="#7aab8a" stroke="#7aab8a" points="647.15,-1559.2 643.65,-1549.2 640.15,-1559.2 647.15,-1559.2"/>
<text text-anchor="start" x="643.65" y="-1570.87" font-family="Roboto, sans-serif" font-weight="bold" font-size="14.00">JA</text>
</g>
<!-- A03 -->
<g id="node21" class="node">
<title>A03</title>
<path fill="#cfb986" stroke="black" stroke-width="0" d="M4219.51,-2619.34C4219.51,-2619.34 4063.78,-2619.34 4063.78,-2619.34 4057.78,-2619.34 4051.78,-2613.34 4051.78,-2607.34 4051.78,-2607.34 4051.78,-2581.82 4051.78,-2581.82 4051.78,-2575.82 4057.78,-2569.82 4063.78,-2569.82 4063.78,-2569.82 4219.51,-2569.82 4219.51,-2569.82 4225.51,-2569.82 4231.51,-2575.82 4231.51,-2581.82 4231.51,-2581.82 4231.51,-2607.34 4231.51,-2607.34 4231.51,-2613.34 4225.51,-2619.34 4219.51,-2619.34"/>
<text text-anchor="start" x="4064.02" y="-2601.28" font-family="Roboto, sans-serif" font-weight="bold" font-size="14.00">A03</text>
<text text-anchor="start" x="4064.02" y="-2589.18" font-family="Roboto, sans-serif" text-decoration="underline" font-size="12.00">Hinweis:</text>
<text text-anchor="start" x="4064.02" y="-2577.18" font-family="Roboto, sans-serif" font-size="12.00">Netzbetreiber nicht g&#252;ltig.</text>
</g>
<!-- 12 -->
<g id="node24" class="node">
<title>12</title>
<path fill="#7aab8a" stroke="black" stroke-width="0" d="M912.3,-1458.67C912.3,-1458.67 375,-1458.67 375,-1458.67 369,-1458.67 363,-1452.67 363,-1446.67 363,-1446.67 363,-1434.67 363,-1434.67 363,-1428.67 369,-1422.67 375,-1422.67 375,-1422.67 912.3,-1422.67 912.3,-1422.67 918.3,-1422.67 924.3,-1428.67 924.3,-1434.67 924.3,-1434.67 924.3,-1446.67 924.3,-1446.67 924.3,-1452.67 918.3,-1458.67 912.3,-1458.67"/>
<text text-anchor="start" x="377.4" y="-1437" font-family="Roboto, sans-serif" font-weight="bold" font-size="14.00">12: </text>
<text text-anchor="start" x="406.65" y="-1437" font-family="Roboto, sans-serif" font-size="14.00">Ist der angegebene Netzbetreiber dem Bilanzierungsgebiet zugeordnet?</text>
</g>
<!-- 11&#45;&gt;12 -->
<g id="edge18" class="edge">
<title>11-&gt;12</title>
<path fill="none" stroke="#7aab8a" d="M643.65,-1512.1C643.65,-1500.15 643.65,-1483.82 643.65,-1469.89"/>
<polygon fill="#7aab8a" stroke="#7aab8a" points="647.15,-1469.95 643.65,-1459.95 640.15,-1469.95 647.15,-1469.95"/>
<text text-anchor="start" x="643.65" y="-1481.62" font-family="Roboto, sans-serif" font-weight="bold" font-size="14.00">JA</text>
</g>
<!-- A04 -->
<g id="node23" class="node">
<title>A04</title>
<path fill="#cfb986" stroke="black" stroke-width="0" d="M4452.14,-2619.34C4452.14,-2619.34 4261.16,-2619.34 4261.16,-2619.34 4255.16,-2619.34 4249.16,-2613.34 4249.16,-2607.34 4249.16,-2607.34 4249.16,-2581.82 4249.16,-2581.82 4249.16,-2575.82 4255.16,-2569.82 4261.16,-2569.82 4261.16,-2569.82 4452.14,-2569.82 4452.14,-2569.82 4458.14,-2569.82 4464.14,-2575.82 4464.14,-2581.82 4464.14,-2581.82 4464.14,-2607.34 4464.14,-2607.34 4464.14,-2613.34 4458.14,-2619.34 4452.14,-2619.34"/>
<text text-anchor="start" x="4261.4" y="-2601.28" font-family="Roboto, sans-serif" font-weight="bold" font-size="14.00">A04</text>
<text text-anchor="start" x="4261.4" y="-2589.18" font-family="Roboto, sans-serif" text-decoration="underline" font-size="12.00">Hinweis:</text>
<text text-anchor="start" x="4261.4" y="-2577.18" font-family="Roboto, sans-serif" font-size="12.00">Bilanzierungsgebiet nicht g&#252;ltig.</text>
</g>
<!-- 13 -->
<g id="node26" class="node">
<title>13</title>
<path fill="#7aab8a" stroke="black" stroke-width="0" d="M870.67,-1369.42C870.67,-1369.42 416.62,-1369.42 416.62,-1369.42 410.62,-1369.42 404.62,-1363.42 404.62,-1357.42 404.62,-1357.42 404.62,-1345.42 404.62,-1345.42 404.62,-1339.42 410.62,-1333.42 416.62,-1333.42 416.62,-1333.42 870.67,-1333.42 870.67,-1333.42 876.67,-1333.42 882.67,-1339.42 882.67,-1345.42 882.67,-1345.42 882.67,-1357.42 882.67,-1357.42 882.67,-1363.42 876.67,-1369.42 870.67,-1369.42"/>
<text text-anchor="start" x="419.02" y="-1347.75" font-family="Roboto, sans-serif" font-weight="bold" font-size="14.00">13: </text>
<text text-anchor="start" x="448.27" y="-1347.75" font-family="Roboto, sans-serif" font-size="14.00">Wird die Marktlokation auf Grundlage von Werten bilanziert?</text>
</g>
<!-- 12&#45;&gt;13 -->
<g id="edge19" class="edge">
<title>12-&gt;13</title>
<path fill="none" stroke="#7aab8a" d="M643.65,-1422.85C643.65,-1410.9 643.65,-1394.57 643.65,-1380.64"/>
<polygon fill="#7aab8a" stroke="#7aab8a" points="647.15,-1380.7 643.65,-1370.7 640.15,-1380.7 647.15,-1380.7"/>
<text text-anchor="start" x="643.65" y="-1392.37" font-family="Roboto, sans-serif" font-weight="bold" font-size="14.00">JA</text>
</g>
<!-- A16 -->
<g id="node25" class="node">
<title>A16</title>
<path fill="#cfb986" stroke="black" stroke-width="0" d="M4985.14,-2625.34C4985.14,-2625.34 4494.16,-2625.34 4494.16,-2625.34 4488.16,-2625.34 4482.16,-2619.34 4482.16,-2613.34 4482.16,-2613.34 4482.16,-2575.82 4482.16,-2575.82 4482.16,-2569.82 4488.16,-2563.82 4494.16,-2563.82 4494.16,-2563.82 4985.14,-2563.82 4985.14,-2563.82 4991.14,-2563.82 4997.14,-2569.82 4997.14,-2575.82 4997.14,-2575.82 4997.14,-2613.34 4997.14,-2613.34 4997.14,-2619.34 4991.14,-2625.34 4985.14,-2625.34"/>
<text text-anchor="start" x="4494.4" y="-2607.28" font-family="Roboto, sans-serif" font-weight="bold" font-size="14.00">A16</text>
<text text-anchor="start" x="4494.4" y="-2595.18" font-family="Roboto, sans-serif" text-decoration="underline" font-size="12.00">Hinweis:</text>
<text text-anchor="start" x="4494.4" y="-2583.18" font-family="Roboto, sans-serif" font-size="12.00">Angegebener Netzbetreiber entspricht nicht dem zugeordneten Netzbetreiber des</text>
<text text-anchor="start" x="4494.4" y="-2571.18" font-family="Roboto, sans-serif" font-size="12.00">Bilanzierungs-gebiets.</text>
</g>
<!-- 14 -->
<g id="node27" class="node">
<title>14</title>
<path fill="#7aab8a" stroke="black" stroke-width="0" d="M757.05,-1280.17C757.05,-1280.17 278.25,-1280.17 278.25,-1280.17 272.25,-1280.17 266.25,-1274.17 266.25,-1268.17 266.25,-1268.17 266.25,-1246.89 266.25,-1246.89 266.25,-1240.89 272.25,-1234.89 278.25,-1234.89 278.25,-1234.89 757.05,-1234.89 757.05,-1234.89 763.05,-1234.89 769.05,-1240.89 769.05,-1246.89 769.05,-1246.89 769.05,-1268.17 769.05,-1268.17 769.05,-1274.17 763.05,-1280.17 757.05,-1280.17"/>
<text text-anchor="start" x="280.65" y="-1259.23" font-family="Roboto, sans-serif" font-weight="bold" font-size="14.00">14: </text>
<text text-anchor="start" x="309.9" y="-1259.23" font-family="Roboto, sans-serif" font-size="14.00">Ist der Messstellenbetreiber zum angegebenen Zeitpunkt in der</text>
<text text-anchor="start" x="280.65" y="-1245.23" font-family="Roboto, sans-serif" font-size="14.00">BDEW-Codenummerndatenbank registriert?</text>
</g>
<!-- 13&#45;&gt;14 -->
<g id="edge20" class="edge">
<title>13-&gt;14</title>
<path fill="none" stroke="#7aab8a" d="M620.54,-1333.57C602.67,-1320.54 577.53,-1302.2 556.58,-1286.92"/>
<polygon fill="#7aab8a" stroke="#7aab8a" points="558.65,-1284.1 548.51,-1281.03 554.53,-1289.76 558.65,-1284.1"/>
<text text-anchor="start" x="594.65" y="-1303.12" font-family="Roboto, sans-serif" font-weight="bold" font-size="14.00">JA</text>
</g>
<!-- 15 -->
<g id="node29" class="node">
<title>15</title>
<path fill="#7aab8a" stroke="black" stroke-width="0" d="M926.92,-1181.64C926.92,-1181.64 366.38,-1181.64 366.38,-1181.64 360.38,-1181.64 354.38,-1175.64 354.38,-1169.64 354.38,-1169.64 354.38,-1157.64 354.38,-1157.64 354.38,-1151.64 360.38,-1145.64 366.38,-1145.64 366.38,-1145.64 926.92,-1145.64 926.92,-1145.64 932.92,-1145.64 938.92,-1151.64 938.92,-1157.64 938.92,-1157.64 938.92,-1169.64 938.92,-1169.64 938.92,-1175.64 932.92,-1181.64 926.92,-1181.64"/>
<text text-anchor="start" x="368.77" y="-1159.96" font-family="Roboto, sans-serif" font-weight="bold" font-size="14.00">15: </text>
<text text-anchor="start" x="398.02" y="-1159.96" font-family="Roboto, sans-serif" font-size="14.00">Ist der im Vorgang genannte LF identisch mit dem Absender der Nachricht?</text>
</g>
<!-- 13&#45;&gt;15 -->
<g id="edge21" class="edge">
<title>13-&gt;15</title>
<path fill="none" stroke="#7aab8a" d="M706.59,-1333.49C733.39,-1322.82 762.02,-1306.02 777.65,-1280.17 788.07,-1262.95 787.98,-1252.16 777.65,-1234.89 764.2,-1212.42 740.83,-1196.72 717.51,-1185.96"/>
<polygon fill="#7aab8a" stroke="#7aab8a" points="719.16,-1182.86 708.59,-1182.11 716.38,-1189.29 719.16,-1182.86"/>
<text text-anchor="start" x="784.65" y="-1253.86" font-family="Roboto, sans-serif" font-weight="bold" font-size="14.00">NEIN</text>
</g>
<!-- 14&#45;&gt;15 -->
<g id="edge22" class="edge">
<title>14-&gt;15</title>
<path fill="none" stroke="#7aab8a" d="M547.89,-1234.99C567.7,-1220.88 593.56,-1202.45 613.86,-1188"/>
<polygon fill="#7aab8a" stroke="#7aab8a" points="615.69,-1190.99 621.8,-1182.34 611.63,-1185.29 615.69,-1190.99"/>
<text text-anchor="start" x="596.65" y="-1204.59" font-family="Roboto, sans-serif" font-weight="bold" font-size="14.00">JA</text>
</g>
<!-- A18 -->
<g id="node28" class="node">
<title>A18</title>
<path fill="#cfb986" stroke="black" stroke-width="0" d="M5224.51,-2619.34C5224.51,-2619.34 5026.78,-2619.34 5026.78,-2619.34 5020.78,-2619.34 5014.78,-2613.34 5014.78,-2607.34 5014.78,-2607.34 5014.78,-2581.82 5014.78,-2581.82 5014.78,-2575.82 5020.78,-2569.82 5026.78,-2569.82 5026.78,-2569.82 5224.51,-2569.82 5224.51,-2569.82 5230.51,-2569.82 5236.51,-2575.82 5236.51,-2581.82 5236.51,-2581.82 5236.51,-2607.34 5236.51,-2607.34 5236.51,-2613.34 5230.51,-2619.34 5224.51,-2619.34"/>
<text text-anchor="start" x="5027.02" y="-2601.28" font-family="Roboto, sans-serif" font-weight="bold" font-size="14.00">A18</text>
<text text-anchor="start" x="5027.02" y="-2589.18" font-family="Roboto, sans-serif" text-decoration="underline" font-size="12.00">Hinweis:</text>
<text text-anchor="start" x="5027.02" y="-2577.18" font-family="Roboto, sans-serif" font-size="12.00">Messstellenbetreiber nicht g&#252;ltig.</text>
</g>
<!-- 16 -->
<g id="node31" class="node">
<title>16</title>
<path fill="#7aab8a" stroke="black" stroke-width="0" d="M854.92,-1092.39C854.92,-1092.39 438.37,-1092.39 438.37,-1092.39 432.37,-1092.39 426.37,-1086.39 426.37,-1080.39 426.37,-1080.39 426.37,-1068.39 426.37,-1068.39 426.37,-1062.39 432.37,-1056.39 438.37,-1056.39 438.37,-1056.39 854.92,-1056.39 854.92,-1056.39 860.92,-1056.39 866.92,-1062.39 866.92,-1068.39 866.92,-1068.39 866.92,-1080.39 866.92,-1080.39 866.92,-1086.39 860.92,-1092.39 854.92,-1092.39"/>
<text text-anchor="start" x="440.77" y="-1070.71" font-family="Roboto, sans-serif" font-weight="bold" font-size="14.00">16: </text>
<text text-anchor="start" x="470.02" y="-1070.71" font-family="Roboto, sans-serif" font-size="14.00">Ist der Bilanzkreis zum angegebenen Zeitpunkt g&#252;ltig?</text>
</g>
<!-- 15&#45;&gt;16 -->
<g id="edge23" class="edge">
<title>15-&gt;16</title>
<path fill="none" stroke="#7aab8a" d="M646.65,-1145.82C646.65,-1133.87 646.65,-1117.54 646.65,-1103.61"/>
<polygon fill="#7aab8a" stroke="#7aab8a" points="650.15,-1103.67 646.65,-1093.67 643.15,-1103.67 650.15,-1103.67"/>
<text text-anchor="start" x="646.65" y="-1115.34" font-family="Roboto, sans-serif" font-weight="bold" font-size="14.00">JA</text>
</g>
<!-- A05 -->
<g id="node30" class="node">
<title>A05</title>
<path fill="#cfb986" stroke="black" stroke-width="0" d="M5508.64,-2619.34C5508.64,-2619.34 5266.66,-2619.34 5266.66,-2619.34 5260.66,-2619.34 5254.66,-2613.34 5254.66,-2607.34 5254.66,-2607.34 5254.66,-2581.82 5254.66,-2581.82 5254.66,-2575.82 5260.66,-2569.82 5266.66,-2569.82 5266.66,-2569.82 5508.64,-2569.82 5508.64,-2569.82 5514.64,-2569.82 5520.64,-2575.82 5520.64,-2581.82 5520.64,-2581.82 5520.64,-2607.34 5520.64,-2607.34 5520.64,-2613.34 5514.64,-2619.34 5508.64,-2619.34"/>
<text text-anchor="start" x="5266.9" y="-2601.28" font-family="Roboto, sans-serif" font-weight="bold" font-size="14.00">A05</text>
<text text-anchor="start" x="5266.9" y="-2589.18" font-family="Roboto, sans-serif" text-decoration="underline" font-size="12.00">Hinweis:</text>
<text text-anchor="start" x="5266.9" y="-2577.18" font-family="Roboto, sans-serif" font-size="12.00">LF im Vorgang weicht vom Absender ab.</text>
</g>
<!-- 17 -->
<g id="node33" class="node">
<title>17</title>
<path fill="#7aab8a" stroke="black" stroke-width="0" d="M965.92,-1003.14C965.92,-1003.14 327.38,-1003.14 327.38,-1003.14 321.38,-1003.14 315.38,-997.14 315.38,-991.14 315.38,-991.14 315.38,-979.14 315.38,-979.14 315.38,-973.14 321.38,-967.14 327.38,-967.14 327.38,-967.14 965.92,-967.14 965.92,-967.14 971.92,-967.14 977.92,-973.14 977.92,-979.14 977.92,-979.14 977.92,-991.14 977.92,-991.14 977.92,-997.14 971.92,-1003.14 965.92,-1003.14"/>
<text text-anchor="start" x="329.77" y="-981.46" font-family="Roboto, sans-serif" font-weight="bold" font-size="14.00">17: </text>
<text text-anchor="start" x="359.02" y="-981.46" font-family="Roboto, sans-serif" font-size="14.00">Entspricht der Zeitreihentyp (ZRT) dem g&#252;ltigen ZRT zur Datenaggregation beim &#220;NB?</text>
</g>
<!-- 16&#45;&gt;17 -->
<g id="edge24" class="edge">
<title>16-&gt;17</title>
<path fill="none" stroke="#7aab8a" d="M646.65,-1056.57C646.65,-1044.62 646.65,-1028.29 646.65,-1014.36"/>
<polygon fill="#7aab8a" stroke="#7aab8a" points="650.15,-1014.42 646.65,-1004.42 643.15,-1014.42 650.15,-1014.42"/>
<text text-anchor="start" x="646.65" y="-1026.09" font-family="Roboto, sans-serif" font-weight="bold" font-size="14.00">JA</text>
</g>
<!-- A06 -->
<g id="node32" class="node">
<title>A06</title>
<path fill="#cfb986" stroke="black" stroke-width="0" d="M5687.14,-2619.34C5687.14,-2619.34 5550.16,-2619.34 5550.16,-2619.34 5544.16,-2619.34 5538.16,-2613.34 5538.16,-2607.34 5538.16,-2607.34 5538.16,-2581.82 5538.16,-2581.82 5538.16,-2575.82 5544.16,-2569.82 5550.16,-2569.82 5550.16,-2569.82 5687.14,-2569.82 5687.14,-2569.82 5693.14,-2569.82 5699.14,-2575.82 5699.14,-2581.82 5699.14,-2581.82 5699.14,-2607.34 5699.14,-2607.34 5699.14,-2613.34 5693.14,-2619.34 5687.14,-2619.34"/>
<text text-anchor="start" x="5550.4" y="-2601.28" font-family="Roboto, sans-serif" font-weight="bold" font-size="14.00">A06</text>
<text text-anchor="start" x="5550.4" y="-2589.18" font-family="Roboto, sans-serif" text-decoration="underline" font-size="12.00">Hinweis:</text>
<text text-anchor="start" x="5550.4" y="-2577.18" font-family="Roboto, sans-serif" font-size="12.00">Bilanzkreis nicht g&#252;ltig.</text>
</g>
<!-- 18 -->
<g id="node35" class="node">
<title>18</title>
<path fill="#7aab8a" stroke="black" stroke-width="0" d="M800.92,-913.89C800.92,-913.89 492.38,-913.89 492.38,-913.89 486.38,-913.89 480.38,-907.89 480.38,-901.89 480.38,-901.89 480.38,-889.89 480.38,-889.89 480.38,-883.89 486.38,-877.89 492.38,-877.89 492.38,-877.89 800.92,-877.89 800.92,-877.89 806.92,-877.89 812.92,-883.89 812.92,-889.89 812.92,-889.89 812.92,-901.89 812.92,-901.89 812.92,-907.89 806.92,-913.89 800.92,-913.89"/>
<text text-anchor="start" x="494.77" y="-892.21" font-family="Roboto, sans-serif" font-weight="bold" font-size="14.00">18: </text>
<text text-anchor="start" x="524.02" y="-892.21" font-family="Roboto, sans-serif" font-size="14.00">Passt die Prognosegrundlage zum ZRT?</text>
</g>
<!-- 17&#45;&gt;18 -->
<g id="edge25" class="edge">
<title>17-&gt;18</title>
<path fill="none" stroke="#7aab8a" d="M646.65,-967.32C646.65,-955.37 646.65,-939.04 646.65,-925.11"/>
<polygon fill="#7aab8a" stroke="#7aab8a" points="650.15,-925.17 646.65,-915.17 643.15,-925.17 650.15,-925.17"/>
<text text-anchor="start" x="646.65" y="-936.84" font-family="Roboto, sans-serif" font-weight="bold" font-size="14.00">JA</text>
</g>
<!-- A07 -->
<g id="node34" class="node">
<title>A07</title>
<path fill="#cfb986" stroke="black" stroke-width="0" d="M5842.51,-2619.34C5842.51,-2619.34 5728.78,-2619.34 5728.78,-2619.34 5722.78,-2619.34 5716.78,-2613.34 5716.78,-2607.34 5716.78,-2607.34 5716.78,-2581.82 5716.78,-2581.82 5716.78,-2575.82 5722.78,-2569.82 5728.78,-2569.82 5728.78,-2569.82 5842.51,-2569.82 5842.51,-2569.82 5848.51,-2569.82 5854.51,-2575.82 5854.51,-2581.82 5854.51,-2581.82 5854.51,-2607.34 5854.51,-2607.34 5854.51,-2613.34 5848.51,-2619.34 5842.51,-2619.34"/>
<text text-anchor="start" x="5729.02" y="-2601.28" font-family="Roboto, sans-serif" font-weight="bold" font-size="14.00">A07</text>
<text text-anchor="start" x="5729.02" y="-2589.18" font-family="Roboto, sans-serif" text-decoration="underline" font-size="12.00">Hinweis:</text>
<text text-anchor="start" x="5729.02" y="-2577.18" font-family="Roboto, sans-serif" font-size="12.00">ZRT nicht passend.</text>
</g>
<!-- 19 -->
<g id="node37" class="node">
<title>19</title>
<path fill="#7aab8a" stroke="black" stroke-width="0" d="M784.8,-824.64C784.8,-824.64 508.5,-824.64 508.5,-824.64 502.5,-824.64 496.5,-818.64 496.5,-812.64 496.5,-812.64 496.5,-800.64 496.5,-800.64 496.5,-794.64 502.5,-788.64 508.5,-788.64 508.5,-788.64 784.8,-788.64 784.8,-788.64 790.8,-788.64 796.8,-794.64 796.8,-800.64 796.8,-800.64 796.8,-812.64 796.8,-812.64 796.8,-818.64 790.8,-824.64 784.8,-824.64"/>
<text text-anchor="start" x="510.9" y="-802.96" font-family="Roboto, sans-serif" font-weight="bold" font-size="14.00">19: </text>
<text text-anchor="start" x="540.15" y="-802.96" font-family="Roboto, sans-serif" font-size="14.00">Passt die OBIS-Kennzahl zum ZRT?</text>
</g>
<!-- 18&#45;&gt;19 -->
<g id="edge26" class="edge">
<title>18-&gt;19</title>
<path fill="none" stroke="#7aab8a" d="M646.65,-878.07C646.65,-866.12 646.65,-849.79 646.65,-835.86"/>
<polygon fill="#7aab8a" stroke="#7aab8a" points="650.15,-835.92 646.65,-825.92 643.15,-835.92 650.15,-835.92"/>
<text text-anchor="start" x="646.65" y="-847.59" font-family="Roboto, sans-serif" font-weight="bold" font-size="14.00">JA</text>
</g>
<!-- A17 -->
<g id="node36" class="node">
<title>A17</title>
<path fill="#cfb986" stroke="black" stroke-width="0" d="M6127.01,-2619.34C6127.01,-2619.34 5884.28,-2619.34 5884.28,-2619.34 5878.28,-2619.34 5872.28,-2613.34 5872.28,-2607.34 5872.28,-2607.34 5872.28,-2581.82 5872.28,-2581.82 5872.28,-2575.82 5878.28,-2569.82 5884.28,-2569.82 5884.28,-2569.82 6127.01,-2569.82 6127.01,-2569.82 6133.01,-2569.82 6139.01,-2575.82 6139.01,-2581.82 6139.01,-2581.82 6139.01,-2607.34 6139.01,-2607.34 6139.01,-2613.34 6133.01,-2619.34 6127.01,-2619.34"/>
<text text-anchor="start" x="5884.52" y="-2601.28" font-family="Roboto, sans-serif" font-weight="bold" font-size="14.00">A17</text>
<text text-anchor="start" x="5884.52" y="-2589.18" font-family="Roboto, sans-serif" text-decoration="underline" font-size="12.00">Hinweis:</text>
<text text-anchor="start" x="5884.52" y="-2577.18" font-family="Roboto, sans-serif" font-size="12.00">Prognosegrundlage passt nicht zum ZRT.</text>
</g>
<!-- 20 -->
<g id="node39" class="node">
<title>20</title>
<path fill="#7aab8a" stroke="black" stroke-width="0" d="M781.8,-735.39C781.8,-735.39 511.5,-735.39 511.5,-735.39 505.5,-735.39 499.5,-729.39 499.5,-723.39 499.5,-723.39 499.5,-711.39 499.5,-711.39 499.5,-705.39 505.5,-699.39 511.5,-699.39 511.5,-699.39 781.8,-699.39 781.8,-699.39 787.8,-699.39 793.8,-705.39 793.8,-711.39 793.8,-711.39 793.8,-723.39 793.8,-723.39 793.8,-729.39 787.8,-735.39 781.8,-735.39"/>
<text text-anchor="start" x="513.9" y="-713.71" font-family="Roboto, sans-serif" font-weight="bold" font-size="14.00">20: </text>
<text text-anchor="start" x="543.15" y="-713.71" font-family="Roboto, sans-serif" font-size="14.00">Passt die Lieferrichtung zum ZRT?</text>
</g>
<!-- 19&#45;&gt;20 -->
<g id="edge27" class="edge">
<title>19-&gt;20</title>
<path fill="none" stroke="#7aab8a" d="M646.65,-788.82C646.65,-776.87 646.65,-760.54 646.65,-746.61"/>
<polygon fill="#7aab8a" stroke="#7aab8a" points="650.15,-746.67 646.65,-736.67 643.15,-746.67 650.15,-746.67"/>
<text text-anchor="start" x="646.65" y="-758.34" font-family="Roboto, sans-serif" font-weight="bold" font-size="14.00">JA</text>
</g>
<!-- A08 -->
<g id="node38" class="node">
<title>A08</title>
<path fill="#cfb986" stroke="black" stroke-width="0" d="M6288.51,-2619.34C6288.51,-2619.34 6168.78,-2619.34 6168.78,-2619.34 6162.78,-2619.34 6156.78,-2613.34 6156.78,-2607.34 6156.78,-2607.34 6156.78,-2581.82 6156.78,-2581.82 6156.78,-2575.82 6162.78,-2569.82 6168.78,-2569.82 6168.78,-2569.82 6288.51,-2569.82 6288.51,-2569.82 6294.51,-2569.82 6300.51,-2575.82 6300.51,-2581.82 6300.51,-2581.82 6300.51,-2607.34 6300.51,-2607.34 6300.51,-2613.34 6294.51,-2619.34 6288.51,-2619.34"/>
<text text-anchor="start" x="6169.02" y="-2601.28" font-family="Roboto, sans-serif" font-weight="bold" font-size="14.00">A08</text>
<text text-anchor="start" x="6169.02" y="-2589.18" font-family="Roboto, sans-serif" text-decoration="underline" font-size="12.00">Hinweis:</text>
<text text-anchor="start" x="6169.02" y="-2577.18" font-family="Roboto, sans-serif" font-size="12.00">OBIS nicht passend.</text>
</g>
<!-- 21 -->
<g id="node41" class="node">
<title>21</title>
<path fill="#7aab8a" stroke="black" stroke-width="0" d="M942.3,-646.14C942.3,-646.14 351,-646.14 351,-646.14 345,-646.14 339,-640.14 339,-634.14 339,-634.14 339,-612.86 339,-612.86 339,-606.86 345,-600.86 351,-600.86 351,-600.86 942.3,-600.86 942.3,-600.86 948.3,-600.86 954.3,-606.86 954.3,-612.86 954.3,-612.86 954.3,-634.14 954.3,-634.14 954.3,-640.14 948.3,-646.14 942.3,-646.14"/>
<text text-anchor="start" x="353.4" y="-625.2" font-family="Roboto, sans-serif" font-weight="bold" font-size="14.00">21: </text>
<text text-anchor="start" x="382.65" y="-625.2" font-family="Roboto, sans-serif" font-size="14.00">Entspricht das Bilanzierungsverfahren dem g&#252;ltigen Bilanzierungsverfahren zur</text>
<text text-anchor="start" x="353.4" y="-611.2" font-family="Roboto, sans-serif" font-size="14.00">Datenaggregation beim &#220;NB?</text>
</g>
<!-- 20&#45;&gt;21 -->
<g id="edge28" class="edge">
<title>20-&gt;21</title>
<path fill="none" stroke="#7aab8a" d="M646.65,-699.54C646.65,-687.8 646.65,-671.75 646.65,-657.52"/>
<polygon fill="#7aab8a" stroke="#7aab8a" points="650.15,-657.63 646.65,-647.63 643.15,-657.63 650.15,-657.63"/>
<text text-anchor="start" x="646.65" y="-669.09" font-family="Roboto, sans-serif" font-weight="bold" font-size="14.00">JA</text>
</g>
<!-- A09 -->
<g id="node40" class="node">
<title>A09</title>
<path fill="#cfb986" stroke="black" stroke-width="0" d="M6504.51,-2619.34C6504.51,-2619.34 6330.78,-2619.34 6330.78,-2619.34 6324.78,-2619.34 6318.78,-2613.34 6318.78,-2607.34 6318.78,-2607.34 6318.78,-2581.82 6318.78,-2581.82 6318.78,-2575.82 6324.78,-2569.82 6330.78,-2569.82 6330.78,-2569.82 6504.51,-2569.82 6504.51,-2569.82 6510.51,-2569.82 6516.51,-2575.82 6516.51,-2581.82 6516.51,-2581.82 6516.51,-2607.34 6516.51,-2607.34 6516.51,-2613.34 6510.51,-2619.34 6504.51,-2619.34"/>
<text text-anchor="start" x="6331.02" y="-2601.28" font-family="Roboto, sans-serif" font-weight="bold" font-size="14.00">A09</text>
<text text-anchor="start" x="6331.02" y="-2589.18" font-family="Roboto, sans-serif" text-decoration="underline" font-size="12.00">Hinweis:</text>
<text text-anchor="start" x="6331.02" y="-2577.18" font-family="Roboto, sans-serif" font-size="12.00">Lieferrichtung nicht passend.</text>
</g>
<!-- 23 -->
<g id="node43" class="node">
<title>23</title>
<path fill="#7aab8a" stroke="black" stroke-width="0" d="M874.8,-547.61C874.8,-547.61 418.5,-547.61 418.5,-547.61 412.5,-547.61 406.5,-541.61 406.5,-535.61 406.5,-535.61 406.5,-523.61 406.5,-523.61 406.5,-517.61 412.5,-511.61 418.5,-511.61 418.5,-511.61 874.8,-511.61 874.8,-511.61 880.8,-511.61 886.8,-517.61 886.8,-523.61 886.8,-523.61 886.8,-535.61 886.8,-535.61 886.8,-541.61 880.8,-547.61 874.8,-547.61"/>
<text text-anchor="start" x="420.9" y="-525.93" font-family="Roboto, sans-serif" font-weight="bold" font-size="14.00">23: </text>
<text text-anchor="start" x="450.15" y="-525.93" font-family="Roboto, sans-serif" font-size="14.00">Wird die Marktlokation auf Grundlage von Profilen bilanziert?</text>
</g>
<!-- 21&#45;&gt;23 -->
<g id="edge29" class="edge">
<title>21-&gt;23</title>
<path fill="none" stroke="#7aab8a" d="M646.65,-601.19C646.65,-588.56 646.65,-572.4 646.65,-558.74"/>
<polygon fill="#7aab8a" stroke="#7aab8a" points="650.15,-559.03 646.65,-549.03 643.15,-559.03 650.15,-559.03"/>
<text text-anchor="start" x="646.65" y="-570.56" font-family="Roboto, sans-serif" font-weight="bold" font-size="14.00">JA</text>
</g>
<!-- A10 -->
<g id="node42" class="node">
<title>A10</title>
<path fill="#cfb986" stroke="black" stroke-width="0" d="M6758.64,-2619.34C6758.64,-2619.34 6546.66,-2619.34 6546.66,-2619.34 6540.66,-2619.34 6534.66,-2613.34 6534.66,-2607.34 6534.66,-2607.34 6534.66,-2581.82 6534.66,-2581.82 6534.66,-2575.82 6540.66,-2569.82 6546.66,-2569.82 6546.66,-2569.82 6758.64,-2569.82 6758.64,-2569.82 6764.64,-2569.82 6770.64,-2575.82 6770.64,-2581.82 6770.64,-2581.82 6770.64,-2607.34 6770.64,-2607.34 6770.64,-2613.34 6764.64,-2619.34 6758.64,-2619.34"/>
<text text-anchor="start" x="6546.9" y="-2601.28" font-family="Roboto, sans-serif" font-weight="bold" font-size="14.00">A10</text>
<text text-anchor="start" x="6546.9" y="-2589.18" font-family="Roboto, sans-serif" text-decoration="underline" font-size="12.00">Hinweis:</text>
<text text-anchor="start" x="6546.9" y="-2577.18" font-family="Roboto, sans-serif" font-size="12.00">Bilanzierungsverfahren nicht g&#252;ltig.</text>
</g>
<!-- 24 -->
<g id="node44" class="node">
<title>24</title>
<path fill="#7aab8a" stroke="black" stroke-width="0" d="M809.92,-458.36C809.92,-458.36 267.38,-458.36 267.38,-458.36 261.38,-458.36 255.38,-452.36 255.38,-446.36 255.38,-446.36 255.38,-425.08 255.38,-425.08 255.38,-419.08 261.38,-413.08 267.38,-413.08 267.38,-413.08 809.92,-413.08 809.92,-413.08 815.92,-413.08 821.92,-419.08 821.92,-425.08 821.92,-425.08 821.92,-446.36 821.92,-446.36 821.92,-452.36 815.92,-458.36 809.92,-458.36"/>
<text text-anchor="start" x="269.77" y="-437.42" font-family="Roboto, sans-serif" font-weight="bold" font-size="14.00">24: </text>
<text text-anchor="start" x="299.02" y="-437.42" font-family="Roboto, sans-serif" font-size="14.00">Ist das angegebene normierte Profil zum angegebenen Zeitpunkt f&#252;r das</text>
<text text-anchor="start" x="269.77" y="-423.42" font-family="Roboto, sans-serif" font-size="14.00">Bilanzierungsgebiet Bestandteil der Profildefinitionsliste des Netzbetreibers?</text>
</g>
<!-- 23&#45;&gt;24 -->
<g id="edge30" class="edge">
<title>23-&gt;24</title>
<path fill="none" stroke="#7aab8a" d="M626.84,-511.76C611.66,-498.84 590.37,-480.72 572.5,-465.52"/>
<polygon fill="#7aab8a" stroke="#7aab8a" points="575.09,-463.13 565.2,-459.31 570.55,-468.46 575.09,-463.13"/>
<text text-anchor="start" x="604.65" y="-481.31" font-family="Roboto, sans-serif" font-weight="bold" font-size="14.00">JA</text>
</g>
<!-- 27 -->
<g id="node50" class="node">
<title>27</title>
<path fill="#7aab8a" stroke="black" stroke-width="0" d="M909.3,-162.77C909.3,-162.77 444,-162.77 444,-162.77 438,-162.77 432,-156.77 432,-150.77 432,-150.77 432,-138.77 432,-138.77 432,-132.77 438,-126.77 444,-126.77 444,-126.77 909.3,-126.77 909.3,-126.77 915.3,-126.77 921.3,-132.77 921.3,-138.77 921.3,-138.77 921.3,-150.77 921.3,-150.77 921.3,-156.77 915.3,-162.77 909.3,-162.77"/>
<text text-anchor="start" x="446.4" y="-141.09" font-family="Roboto, sans-serif" font-weight="bold" font-size="14.00">27: </text>
<text text-anchor="start" x="475.65" y="-141.09" font-family="Roboto, sans-serif" font-size="14.00">Hat keine vorangegangene Pr&#252;fung zu einer Antwort gef&#252;hrt?</text>
</g>
<!-- 23&#45;&gt;27 -->
<g id="edge31" class="edge">
<title>23-&gt;27</title>
<path fill="none" stroke="#7aab8a" d="M787.01,-511.67C825.4,-498.67 856.65,-476.02 856.65,-436.72 856.65,-436.72 856.65,-436.72 856.65,-237.66 856.65,-201.65 827.73,-179.75 793.07,-166.43"/>
<polygon fill="#7aab8a" stroke="#7aab8a" points="794.68,-163.28 784.08,-163.23 792.33,-169.88 794.68,-163.28"/>
<text text-anchor="start" x="856.65" y="-333.51" font-family="Roboto, sans-serif" font-weight="bold" font-size="14.00">NEIN</text>
</g>
<!-- 25 -->
<g id="node46" class="node">
<title>25</title>
<path fill="#7aab8a" stroke="black" stroke-width="0" d="M808.8,-359.83C808.8,-359.83 226.5,-359.83 226.5,-359.83 220.5,-359.83 214.5,-353.83 214.5,-347.83 214.5,-347.83 214.5,-326.55 214.5,-326.55 214.5,-320.55 220.5,-314.55 226.5,-314.55 226.5,-314.55 808.8,-314.55 808.8,-314.55 814.8,-314.55 820.8,-320.55 820.8,-326.55 820.8,-326.55 820.8,-347.83 820.8,-347.83 820.8,-353.83 814.8,-359.83 808.8,-359.83"/>
<text text-anchor="start" x="228.9" y="-338.89" font-family="Roboto, sans-serif" font-weight="bold" font-size="14.00">25: </text>
<text text-anchor="start" x="258.15" y="-338.89" font-family="Roboto, sans-serif" font-size="14.00">Ist das angegebene normierte Profil zum angegebenen Zeitpunkt ein Profil aus</text>
<text text-anchor="start" x="228.9" y="-324.89" font-family="Roboto, sans-serif" font-size="14.00">der Gruppe SLP mit synthetischen Verfahren?</text>
</g>
<!-- 24&#45;&gt;25 -->
<g id="edge32" class="edge">
<title>24-&gt;25</title>
<path fill="none" stroke="#7aab8a" d="M533.99,-413.3C531.27,-400.8 527.79,-384.78 524.73,-370.75"/>
<polygon fill="#7aab8a" stroke="#7aab8a" points="528.17,-370.06 522.62,-361.03 521.33,-371.55 528.17,-370.06"/>
<text text-anchor="start" x="528.65" y="-382.78" font-family="Roboto, sans-serif" font-weight="bold" font-size="14.00">JA</text>
</g>
<!-- A12 -->
<g id="node45" class="node">
<title>A12</title>
<path fill="#cfb986" stroke="black" stroke-width="0" d="M6988.64,-2619.34C6988.64,-2619.34 6800.66,-2619.34 6800.66,-2619.34 6794.66,-2619.34 6788.66,-2613.34 6788.66,-2607.34 6788.66,-2607.34 6788.66,-2581.82 6788.66,-2581.82 6788.66,-2575.82 6794.66,-2569.82 6800.66,-2569.82 6800.66,-2569.82 6988.64,-2569.82 6988.64,-2569.82 6994.64,-2569.82 7000.64,-2575.82 7000.64,-2581.82 7000.64,-2581.82 7000.64,-2607.34 7000.64,-2607.34 7000.64,-2613.34 6994.64,-2619.34 6988.64,-2619.34"/>
<text text-anchor="start" x="6800.9" y="-2601.28" font-family="Roboto, sans-serif" font-weight="bold" font-size="14.00">A12</text>
<text text-anchor="start" x="6800.9" y="-2589.18" font-family="Roboto, sans-serif" text-decoration="underline" font-size="12.00">Hinweis:</text>
<text text-anchor="start" x="6800.9" y="-2577.18" font-family="Roboto, sans-serif" font-size="12.00">Normiertes Profil liegt nicht vor.</text>
</g>
<!-- 26 -->
<g id="node48" class="node">
<title>26</title>
<path fill="#7aab8a" stroke="black" stroke-width="0" d="M806.3,-261.3C806.3,-261.3 287,-261.3 287,-261.3 281,-261.3 275,-255.3 275,-249.3 275,-249.3 275,-228.02 275,-228.02 275,-222.02 281,-216.02 287,-216.02 287,-216.02 806.3,-216.02 806.3,-216.02 812.3,-216.02 818.3,-222.02 818.3,-228.02 818.3,-228.02 818.3,-249.3 818.3,-249.3 818.3,-255.3 812.3,-261.3 806.3,-261.3"/>
<text text-anchor="start" x="289.4" y="-240.36" font-family="Roboto, sans-serif" font-weight="bold" font-size="14.00">26: </text>
<text text-anchor="start" x="318.65" y="-240.36" font-family="Roboto, sans-serif" font-size="14.00">Ist die Prognosegrundlage der Marktlokation eine, f&#252;r die der &#220;NB die</text>
<text text-anchor="start" x="289.4" y="-226.36" font-family="Roboto, sans-serif" font-size="14.00">Aggregation durchf&#252;hren darf?</text>
</g>
<!-- 25&#45;&gt;26 -->
<g id="edge33" class="edge">
<title>25-&gt;26</title>
<path fill="none" stroke="#7aab8a" d="M524.09,-314.77C527.88,-302.14 532.75,-285.93 536.99,-271.8"/>
<polygon fill="#7aab8a" stroke="#7aab8a" points="540.27,-273.06 539.8,-262.47 533.57,-271.04 540.27,-273.06"/>
<text text-anchor="start" x="533.65" y="-284.25" font-family="Roboto, sans-serif" font-weight="bold" font-size="14.00">JA</text>
</g>
<!-- A13 -->
<g id="node47" class="node">
<title>A13</title>
<path fill="#cfb986" stroke="black" stroke-width="0" d="M7380.26,-2619.34C7380.26,-2619.34 7031.03,-2619.34 7031.03,-2619.34 7025.03,-2619.34 7019.03,-2613.34 7019.03,-2607.34 7019.03,-2607.34 7019.03,-2581.82 7019.03,-2581.82 7019.03,-2575.82 7025.03,-2569.82 7031.03,-2569.82 7031.03,-2569.82 7380.26,-2569.82 7380.26,-2569.82 7386.26,-2569.82 7392.26,-2575.82 7392.26,-2581.82 7392.26,-2581.82 7392.26,-2607.34 7392.26,-2607.34 7392.26,-2613.34 7386.26,-2619.34 7380.26,-2619.34"/>
<text text-anchor="start" x="7031.27" y="-2601.28" font-family="Roboto, sans-serif" font-weight="bold" font-size="14.00">A13</text>
<text text-anchor="start" x="7031.27" y="-2589.18" font-family="Roboto, sans-serif" text-decoration="underline" font-size="12.00">Hinweis:</text>
<text text-anchor="start" x="7031.27" y="-2577.18" font-family="Roboto, sans-serif" font-size="12.00">Normiertes Profil &#8211; nicht SLP mit synthetischem Verfahren.</text>
</g>
<!-- 26&#45;&gt;27 -->
<g id="edge34" class="edge">
<title>26-&gt;27</title>
<path fill="none" stroke="#7aab8a" d="M577.13,-216.12C597.08,-202.01 623.15,-183.58 643.6,-169.13"/>
<polygon fill="#7aab8a" stroke="#7aab8a" points="645.47,-172.1 651.61,-163.47 641.43,-166.38 645.47,-172.1"/>
<text text-anchor="start" x="626.65" y="-185.72" font-family="Roboto, sans-serif" font-weight="bold" font-size="14.00">JA</text>
</g>
<!-- A14 -->
<g id="node49" class="node">
<title>A14</title>
<path fill="#cfb986" stroke="black" stroke-width="0" d="M7619.14,-2619.34C7619.14,-2619.34 7422.16,-2619.34 7422.16,-2619.34 7416.16,-2619.34 7410.16,-2613.34 7410.16,-2607.34 7410.16,-2607.34 7410.16,-2581.82 7410.16,-2581.82 7410.16,-2575.82 7416.16,-2569.82 7422.16,-2569.82 7422.16,-2569.82 7619.14,-2569.82 7619.14,-2569.82 7625.14,-2569.82 7631.14,-2575.82 7631.14,-2581.82 7631.14,-2581.82 7631.14,-2607.34 7631.14,-2607.34 7631.14,-2613.34 7625.14,-2619.34 7619.14,-2619.34"/>
<text text-anchor="start" x="7422.4" y="-2601.28" font-family="Roboto, sans-serif" font-weight="bold" font-size="14.00">A14</text>
<text text-anchor="start" x="7422.4" y="-2589.18" font-family="Roboto, sans-serif" text-decoration="underline" font-size="12.00">Hinweis:</text>
<text text-anchor="start" x="7422.4" y="-2577.18" font-family="Roboto, sans-serif" font-size="12.00">Unpassende Prognosegrundlage.</text>
</g>
<!-- A15 -->
<g id="node51" class="node">
<title>A15</title>
<path fill="#cfb986" stroke="black" stroke-width="0" d="M463.51,-61.52C463.51,-61.52 145.78,-61.52 145.78,-61.52 139.78,-61.52 133.78,-55.52 133.78,-49.52 133.78,-49.52 133.78,-24 133.78,-24 133.78,-18 139.78,-12 145.78,-12 145.78,-12 463.51,-12 463.51,-12 469.51,-12 475.51,-18 475.51,-24 475.51,-24 475.51,-49.52 475.51,-49.52 475.51,-55.52 469.51,-61.52 463.51,-61.52"/>
<text text-anchor="start" x="146.02" y="-43.46" font-family="Roboto, sans-serif" font-weight="bold" font-size="14.00">A15</text>
<text text-anchor="start" x="146.02" y="-31.36" font-family="Roboto, sans-serif" text-decoration="underline" font-size="12.00">Hinweis:</text>
<text text-anchor="start" x="146.02" y="-19.36" font-family="Roboto, sans-serif" font-size="12.00">Stammdaten wurden widerspruchsfrei &#252;bernommen.</text>
</g>
<!-- 27&#45;&gt;A15 -->
<g id="edge35" class="edge">
<title>27-&gt;A15</title>
<path fill="none" stroke="#7aab8a" d="M617.29,-126.86C558.39,-110.07 467.23,-84.09 398.51,-64.51"/>
<polygon fill="#7aab8a" stroke="#7aab8a" points="399.71,-61.21 389.14,-61.84 397.79,-67.94 399.71,-61.21"/>
<text text-anchor="start" x="545.65" y="-96.47" font-family="Roboto, sans-serif" font-weight="bold" font-size="14.00">JA</text>
</g>
<!-- A** -->
<g id="node52" class="node">
<title>A**</title>
<path fill="#cfb986" stroke="black" stroke-width="0" d="M951.64,-73.52C951.64,-73.52 505.66,-73.52 505.66,-73.52 499.66,-73.52 493.66,-67.52 493.66,-61.52 493.66,-61.52 493.66,-12 493.66,-12 493.66,-6 499.66,0 505.66,0 505.66,0 951.64,0 951.64,0 957.64,0 963.64,-6 963.64,-12 963.64,-12 963.64,-61.52 963.64,-61.52 963.64,-67.52 957.64,-73.52 951.64,-73.52"/>
<text text-anchor="start" x="505.9" y="-55.46" font-family="Roboto, sans-serif" font-weight="bold" font-size="14.00">A**</text>
<text text-anchor="start" x="505.9" y="-43.36" font-family="Roboto, sans-serif" text-decoration="underline" font-size="12.00">Hinweis:</text>
<text text-anchor="start" x="505.9" y="-31.36" font-family="Roboto, sans-serif" font-size="12.00">Stammdaten wurden &#252;bernommen.</text>
<text text-anchor="start" x="505.9" y="-19.36" font-family="Roboto, sans-serif" font-size="12.00">Hinweis A**: Es werden alle gemerkten Antwortcodes der vorhergehenden</text>
<text text-anchor="start" x="505.9" y="-7.36" font-family="Roboto, sans-serif" font-size="12.00">Pr&#252;fschritte &#252;bermittelt.</text>
</g>
<!-- 27&#45;&gt;A** -->
<g id="edge36" class="edge">
<title>27-&gt;A**</title>
<path fill="none" stroke="#7aab8a" d="M684.77,-127.21C690.54,-115.45 698.58,-99.07 706.2,-83.53"/>
<polygon fill="#7aab8a" stroke="#7aab8a" points="709.19,-85.38 710.45,-74.86 702.9,-82.3 709.19,-85.38"/>
<text text-anchor="start" x="700.65" y="-96.47" font-family="Roboto, sans-serif" font-weight="bold" font-size="14.00">NEIN</text>
</g>
</g>
</svg>
  </g>
</svg>
  </g>
</svg>
