<?xml version='1.0' encoding='ASCII' standalone='yes'?>
<svg xmlns="http://www.w3.org/2000/svg" xmlns:xlink="http://www.w3.org/1999/xlink" version="1.1" width="1690.6666666666667px" viewBox="0 0 1690.6666666666667 1920.0" height="1920.0px">
  <g>
    <svg version="1.1" width="1690.6666666666667px" viewBox="0 0 1690.6666666666667 1920.0" height="1920.0px">
  <rect fill="#e7e6e5" x="0" y="0" width="1690.6666666666667" height="1920.0" rx="20" ry="20"/><g>
    <g transform="translate(169.06666666666663, 296.66930920976904) scale(1 1) translate(0, 0) scale(2.3350136961075436 2.3350136961075436) "><!-- note that I manually added the width and height attribute to the root node
  https://chatgpt.com/share/678e3028-70cc-800b-a296-782714735772
  -->
  <defs>
    <style>.cls-1{fill:#fff;}</style>
  </defs>
  <path class="cls-1" d="M122.44,531.2h-56.1c-11,0-19.9-9.12-19.46-20.11C57.47,243.89,278.15,29.78,547.91,29.78v56.02c0,10.98-8.69,19.89-19.66,20.39-225.51,10.31-405.8,197-405.8,425Z"/>
  <path class="cls-1" d="M273.78,531.2h-55.93c-11.23,0-20.09-9.48-19.43-20.69,10.74-183.44,163.39-329.39,349.48-329.39v56.26c0,10.71-8.27,19.62-18.96,20.35-142.35,9.77-255.17,128.69-255.17,273.46Z"/>
  <path class="cls-1" d="M425.77,531.2h-55.45c-11.65,0-20.6-10.17-19.33-21.75,10.87-99.03,95.03-176.34,196.92-176.34v57.01c0,10.05-7.28,18.75-17.23,20.16-59.22,8.4-104.91,59.42-104.91,120.92Z"/>
</g>
    <svg width="1268pt" height="1440pt" viewBox="0.00 0.00 1268.06 1440.00">
<g id="graph0" class="graph" transform="scale(0.782124 0.782124) rotate(0) translate(4 1837.14)">
<title>D</title>
<text text-anchor="start" x="710.65" y="-1813.04" font-family="Roboto, sans-serif" font-weight="bold" font-size="18.00">GPKE</text>
<text text-anchor="start" x="710.65" y="-1782.94" font-family="Roboto, sans-serif" font-weight="bold" font-size="16.00">6.1.1: AD: K&#252;ndigung</text>
<!-- Start -->
<g id="node1" class="node">
<title>Start</title>
<path fill="#8ba2d7" stroke="black" stroke-width="0" d="M415.55,-1735.14C415.55,-1735.14 287,-1735.14 287,-1735.14 281,-1735.14 275,-1729.14 275,-1723.14 275,-1723.14 275,-1703.86 275,-1703.86 275,-1697.86 281,-1691.86 287,-1691.86 287,-1691.86 415.55,-1691.86 415.55,-1691.86 421.55,-1691.86 427.55,-1697.86 427.55,-1703.86 427.55,-1703.86 427.55,-1723.14 427.55,-1723.14 427.55,-1729.14 421.55,-1735.14 415.55,-1735.14"/>
<text text-anchor="start" x="289.4" y="-1714.2" font-family="Roboto, sans-serif" font-weight="bold" font-size="14.00">E_0400</text>
<text text-anchor="start" x="289.4" y="-1702.1" font-family="Roboto, sans-serif" font-weight="bold" text-decoration="underline" font-size="12.00">Pr&#252;fende Rolle:</text>
<text text-anchor="start" x="392.9" y="-1702.1" font-family="Roboto, sans-serif" font-weight="bold" font-size="12.00"> LF</text>
</g>
<!-- 1 -->
<g id="node2" class="node">
<title>1</title>
<path fill="#c2cee9" stroke="black" stroke-width="0" d="M612.05,-1654.86C612.05,-1654.86 90.5,-1654.86 90.5,-1654.86 84.5,-1654.86 78.5,-1648.86 78.5,-1642.86 78.5,-1642.86 78.5,-1630.86 78.5,-1630.86 78.5,-1624.86 84.5,-1618.86 90.5,-1618.86 90.5,-1618.86 612.05,-1618.86 612.05,-1618.86 618.05,-1618.86 624.05,-1624.86 624.05,-1630.86 624.05,-1630.86 624.05,-1642.86 624.05,-1642.86 624.05,-1648.86 618.05,-1654.86 612.05,-1654.86"/>
<text text-anchor="start" x="92.9" y="-1633.19" font-family="Roboto, sans-serif" font-weight="bold" font-size="14.00">1: </text>
<text text-anchor="start" x="112.4" y="-1633.19" font-family="Roboto, sans-serif" font-size="14.00">Liegt der &#252;bermittelte K&#252;ndigungstermin vor dem Nachrichteneingang?</text>
</g>
<!-- Start&#45;&gt;1 -->
<g id="edge1" class="edge">
<title>Start-&gt;1</title>
<path fill="none" stroke="#88a0d6" d="M351.27,-1692.1C351.27,-1684.03 351.27,-1674.62 351.27,-1665.93"/>
<polygon fill="#88a0d6" stroke="#88a0d6" points="354.78,-1666.22 351.28,-1656.22 347.78,-1666.22 354.78,-1666.22"/>
</g>
<!-- A12 -->
<g id="node3" class="node">
<title>A12</title>
<path fill="#c4cac1" stroke="black" stroke-width="0" d="M252.05,-1565.61C252.05,-1565.61 132.5,-1565.61 132.5,-1565.61 126.5,-1565.61 120.5,-1559.61 120.5,-1553.61 120.5,-1553.61 120.5,-1510.33 120.5,-1510.33 120.5,-1504.33 126.5,-1498.33 132.5,-1498.33 132.5,-1498.33 252.05,-1498.33 252.05,-1498.33 258.05,-1498.33 264.05,-1504.33 264.05,-1510.33 264.05,-1510.33 264.05,-1553.61 264.05,-1553.61 264.05,-1559.61 258.05,-1565.61 252.05,-1565.61"/>
<text text-anchor="start" x="134.9" y="-1544.67" font-family="Roboto, sans-serif" font-weight="bold" font-size="14.00">A12</text>
<text text-anchor="start" x="134.9" y="-1532.57" font-family="Roboto, sans-serif" text-decoration="underline" font-size="12.00">Hinweis:</text>
<text text-anchor="start" x="134.9" y="-1520.57" font-family="Roboto, sans-serif" font-size="12.00">Cluster: Ablehnung</text>
<text text-anchor="start" x="134.9" y="-1508.57" font-family="Roboto, sans-serif" font-size="12.00">Frist&#252;berschreitung</text>
</g>
<!-- 1&#45;&gt;A12 -->
<g id="edge2" class="edge">
<title>1-&gt;A12</title>
<path fill="none" stroke="#88a0d6" d="M325.02,-1618.87C305.23,-1606.07 277.3,-1587.99 252.16,-1571.72"/>
<polygon fill="#88a0d6" stroke="#88a0d6" points="254.25,-1568.91 243.95,-1566.41 250.45,-1574.78 254.25,-1568.91"/>
<text text-anchor="start" x="295.27" y="-1588.56" font-family="Roboto, sans-serif" font-weight="bold" font-size="14.00">JA</text>
</g>
<!-- 2 -->
<g id="node4" class="node">
<title>2</title>
<path fill="#c2cee9" stroke="black" stroke-width="0" d="M806.17,-1554.61C806.17,-1554.61 294.38,-1554.61 294.38,-1554.61 288.38,-1554.61 282.38,-1548.61 282.38,-1542.61 282.38,-1542.61 282.38,-1521.33 282.38,-1521.33 282.38,-1515.33 288.38,-1509.33 294.38,-1509.33 294.38,-1509.33 806.17,-1509.33 806.17,-1509.33 812.17,-1509.33 818.17,-1515.33 818.17,-1521.33 818.17,-1521.33 818.17,-1542.61 818.17,-1542.61 818.17,-1548.61 812.17,-1554.61 806.17,-1554.61"/>
<text text-anchor="start" x="296.77" y="-1533.67" font-family="Roboto, sans-serif" font-weight="bold" font-size="14.00">2: </text>
<text text-anchor="start" x="316.27" y="-1533.67" font-family="Roboto, sans-serif" font-size="14.00">Ist in der K&#252;ndigung die Angabe der Identifikationslogik mit dem Wert</text>
<text text-anchor="start" x="296.77" y="-1519.67" font-family="Roboto, sans-serif" font-size="14.00">&#8222;Marktlokations-ID&#8220; angegeben?</text>
</g>
<!-- 1&#45;&gt;2 -->
<g id="edge3" class="edge">
<title>1-&gt;2</title>
<path fill="none" stroke="#88a0d6" d="M384.14,-1618.87C415.32,-1602.75 462.65,-1578.27 498.83,-1559.57"/>
<polygon fill="#88a0d6" stroke="#88a0d6" points="500.1,-1562.85 507.38,-1555.15 496.89,-1556.63 500.1,-1562.85"/>
<text text-anchor="start" x="450.27" y="-1588.56" font-family="Roboto, sans-serif" font-weight="bold" font-size="14.00">NEIN</text>
</g>
<!-- 3 -->
<g id="node5" class="node">
<title>3</title>
<path fill="#c2cee9" stroke="black" stroke-width="0" d="M601.8,-1445.08C601.8,-1445.08 12.75,-1445.08 12.75,-1445.08 6.75,-1445.08 0.75,-1439.08 0.75,-1433.08 0.75,-1433.08 0.75,-1397.8 0.75,-1397.8 0.75,-1391.8 6.75,-1385.8 12.75,-1385.8 12.75,-1385.8 601.8,-1385.8 601.8,-1385.8 607.8,-1385.8 613.8,-1391.8 613.8,-1397.8 613.8,-1397.8 613.8,-1433.08 613.8,-1433.08 613.8,-1439.08 607.8,-1445.08 601.8,-1445.08"/>
<text text-anchor="start" x="15.15" y="-1424.14" font-family="Roboto, sans-serif" font-weight="bold" font-size="14.00">3: </text>
<text text-anchor="start" x="34.65" y="-1424.14" font-family="Roboto, sans-serif" font-size="14.00">Wurde mit der in der K&#252;ndigung angegebenen ID der Marktlokation im IT-System</text>
<text text-anchor="start" x="15.15" y="-1410.14" font-family="Roboto, sans-serif" font-size="14.00">des Empf&#228;ngers eine Marktlokation identifiziert, welcher der Empf&#228;nger f&#252;r</text>
<text text-anchor="start" x="15.15" y="-1396.14" font-family="Roboto, sans-serif" font-size="14.00">mindestens einen Tag zugeordnet war bzw. ist bzw. sein wird?</text>
</g>
<!-- 2&#45;&gt;3 -->
<g id="edge4" class="edge">
<title>2-&gt;3</title>
<path fill="none" stroke="#88a0d6" d="M504.57,-1509.43C468.95,-1492.64 418.87,-1469.04 378.08,-1449.81"/>
<polygon fill="#88a0d6" stroke="#88a0d6" points="379.83,-1446.77 369.29,-1445.67 376.85,-1453.1 379.83,-1446.77"/>
<text text-anchor="start" x="435.27" y="-1468.03" font-family="Roboto, sans-serif" font-weight="bold" font-size="14.00">JA</text>
</g>
<!-- 4 -->
<g id="node7" class="node">
<title>4</title>
<path fill="#c2cee9" stroke="black" stroke-width="0" d="M1234.55,-1445.08C1234.55,-1445.08 644,-1445.08 644,-1445.08 638,-1445.08 632,-1439.08 632,-1433.08 632,-1433.08 632,-1397.8 632,-1397.8 632,-1391.8 638,-1385.8 644,-1385.8 644,-1385.8 1234.55,-1385.8 1234.55,-1385.8 1240.55,-1385.8 1246.55,-1391.8 1246.55,-1397.8 1246.55,-1397.8 1246.55,-1433.08 1246.55,-1433.08 1246.55,-1439.08 1240.55,-1445.08 1234.55,-1445.08"/>
<text text-anchor="start" x="646.4" y="-1424.14" font-family="Roboto, sans-serif" font-weight="bold" font-size="14.00">4: </text>
<text text-anchor="start" x="665.9" y="-1424.14" font-family="Roboto, sans-serif" font-size="14.00">Wurde mit allen zur Verf&#252;gung gestellten Informationen in der K&#252;ndigung ohne</text>
<text text-anchor="start" x="646.4" y="-1410.14" font-family="Roboto, sans-serif" font-size="14.00">Ber&#252;cksichtigung des Kundennamens unter Wahrung der gebotenen Sorgfalt genau</text>
<text text-anchor="start" x="646.4" y="-1396.14" font-family="Roboto, sans-serif" font-size="14.00">eine Marktlokation ermittelt?</text>
</g>
<!-- 2&#45;&gt;4 -->
<g id="edge5" class="edge">
<title>2-&gt;4</title>
<path fill="none" stroke="#88a0d6" d="M623.44,-1509.43C682.03,-1492.18 765.06,-1467.73 831.29,-1448.23"/>
<polygon fill="#88a0d6" stroke="#88a0d6" points="832.13,-1451.64 840.73,-1445.45 830.15,-1444.92 832.13,-1451.64"/>
<text text-anchor="start" x="779.27" y="-1468.03" font-family="Roboto, sans-serif" font-weight="bold" font-size="14.00">NEIN</text>
</g>
<!-- A01 -->
<g id="node6" class="node">
<title>A01</title>
<path fill="#c4cac1" stroke="black" stroke-width="0" d="M260.55,-1332.55C260.55,-1332.55 12,-1332.55 12,-1332.55 6,-1332.55 0,-1326.55 0,-1320.55 0,-1320.55 0,-1277.27 0,-1277.27 0,-1271.27 6,-1265.27 12,-1265.27 12,-1265.27 260.55,-1265.27 260.55,-1265.27 266.55,-1265.27 272.55,-1271.27 272.55,-1277.27 272.55,-1277.27 272.55,-1320.55 272.55,-1320.55 272.55,-1326.55 266.55,-1332.55 260.55,-1332.55"/>
<text text-anchor="start" x="14.4" y="-1311.61" font-family="Roboto, sans-serif" font-weight="bold" font-size="14.00">A01</text>
<text text-anchor="start" x="14.4" y="-1299.51" font-family="Roboto, sans-serif" text-decoration="underline" font-size="12.00">Hinweis:</text>
<text text-anchor="start" x="14.4" y="-1287.51" font-family="Roboto, sans-serif" font-size="12.00">Cluster: Ablehnung</text>
<text text-anchor="start" x="14.4" y="-1275.51" font-family="Roboto, sans-serif" font-size="12.00">Die Marktlokation ist nicht identifizierbar.</text>
</g>
<!-- 3&#45;&gt;A01 -->
<g id="edge6" class="edge">
<title>3-&gt;A01</title>
<path fill="none" stroke="#88a0d6" d="M264.57,-1385.83C243.26,-1371.57 217.19,-1354.1 194.12,-1338.65"/>
<polygon fill="#88a0d6" stroke="#88a0d6" points="196.29,-1335.9 186.04,-1333.24 192.4,-1341.71 196.29,-1335.9"/>
<text text-anchor="start" x="236.28" y="-1355.5" font-family="Roboto, sans-serif" font-weight="bold" font-size="14.00">NEIN</text>
</g>
<!-- 9 -->
<g id="node16" class="node">
<title>9</title>
<path fill="#c2cee9" stroke="black" stroke-width="0" d="M570.05,-947.96C570.05,-947.96 12.5,-947.96 12.5,-947.96 6.5,-947.96 0.5,-941.96 0.5,-935.96 0.5,-935.96 0.5,-914.68 0.5,-914.68 0.5,-908.68 6.5,-902.68 12.5,-902.68 12.5,-902.68 570.05,-902.68 570.05,-902.68 576.05,-902.68 582.05,-908.68 582.05,-914.68 582.05,-914.68 582.05,-935.96 582.05,-935.96 582.05,-941.96 576.05,-947.96 570.05,-947.96"/>
<text text-anchor="start" x="14.9" y="-927.02" font-family="Roboto, sans-serif" font-weight="bold" font-size="14.00">9: </text>
<text text-anchor="start" x="34.4" y="-927.02" font-family="Roboto, sans-serif" font-size="14.00">Liegt der in der K&#252;ndigung angefragte Termin vor dem Beginn des Vertrages</text>
<text text-anchor="start" x="14.9" y="-913.02" font-family="Roboto, sans-serif" font-size="14.00">zwischen dem Kunden und dem Empf&#228;nger?</text>
</g>
<!-- 3&#45;&gt;9 -->
<g id="edge7" class="edge">
<title>3-&gt;9</title>
<path fill="none" stroke="#88a0d6" d="M310.99,-1385.83C313.61,-1352.31 312.25,-1297.3 281.27,-1265.27 200.87,-1182.12 99.47,-1301.79 26.53,-1212.02 -54.92,-1111.79 132.52,-1002.09 232.97,-952.84"/>
<polygon fill="#88a0d6" stroke="#88a0d6" points="234.46,-956.01 241.93,-948.5 231.4,-949.71 234.46,-956.01"/>
<text text-anchor="start" x="27.28" y="-1174.71" font-family="Roboto, sans-serif" font-weight="bold" font-size="14.00">JA</text>
</g>
<!-- 5 -->
<g id="node8" class="node">
<title>5</title>
<path fill="#c2cee9" stroke="black" stroke-width="0" d="M946.42,-1321.55C946.42,-1321.55 340.12,-1321.55 340.12,-1321.55 334.12,-1321.55 328.12,-1315.55 328.12,-1309.55 328.12,-1309.55 328.12,-1288.27 328.12,-1288.27 328.12,-1282.27 334.12,-1276.27 340.12,-1276.27 340.12,-1276.27 946.42,-1276.27 946.42,-1276.27 952.42,-1276.27 958.42,-1282.27 958.42,-1288.27 958.42,-1288.27 958.42,-1309.55 958.42,-1309.55 958.42,-1315.55 952.42,-1321.55 946.42,-1321.55"/>
<text text-anchor="start" x="342.52" y="-1300.61" font-family="Roboto, sans-serif" font-weight="bold" font-size="14.00">5: </text>
<text text-anchor="start" x="362.02" y="-1300.61" font-family="Roboto, sans-serif" font-size="14.00">Entspricht der Kunde aus der K&#252;ndigung dem Vertragspartner beim Empf&#228;nger der</text>
<text text-anchor="start" x="342.52" y="-1286.61" font-family="Roboto, sans-serif" font-size="14.00">K&#252;ndigung? (Identifizierung unter Wahrung der gebotenen Sorgfalt)</text>
</g>
<!-- 4&#45;&gt;5 -->
<g id="edge9" class="edge">
<title>4-&gt;5</title>
<path fill="none" stroke="#88a0d6" d="M865.35,-1385.83C817.53,-1367.33 755.81,-1343.45 709.58,-1325.57"/>
<polygon fill="#88a0d6" stroke="#88a0d6" points="711.07,-1322.39 700.49,-1322.05 708.55,-1328.92 711.07,-1322.39"/>
<text text-anchor="start" x="817.27" y="-1355.5" font-family="Roboto, sans-serif" font-weight="bold" font-size="14.00">JA</text>
</g>
<!-- 6 -->
<g id="node10" class="node">
<title>6</title>
<path fill="#c2cee9" stroke="black" stroke-width="0" d="M1584.18,-1321.55C1584.18,-1321.55 988.38,-1321.55 988.38,-1321.55 982.38,-1321.55 976.38,-1315.55 976.38,-1309.55 976.38,-1309.55 976.38,-1288.27 976.38,-1288.27 976.38,-1282.27 982.38,-1276.27 988.38,-1276.27 988.38,-1276.27 1584.18,-1276.27 1584.18,-1276.27 1590.18,-1276.27 1596.18,-1282.27 1596.18,-1288.27 1596.18,-1288.27 1596.18,-1309.55 1596.18,-1309.55 1596.18,-1315.55 1590.18,-1321.55 1584.18,-1321.55"/>
<text text-anchor="start" x="990.78" y="-1300.61" font-family="Roboto, sans-serif" font-weight="bold" font-size="14.00">6: </text>
<text text-anchor="start" x="1010.28" y="-1300.61" font-family="Roboto, sans-serif" font-size="14.00">Wurde mit den zur Verf&#252;gung gestellten Informationen in der K&#252;ndigung mehr als</text>
<text text-anchor="start" x="990.78" y="-1286.61" font-family="Roboto, sans-serif" font-size="14.00">eine Marktlokation ermittelt?</text>
</g>
<!-- 4&#45;&gt;6 -->
<g id="edge8" class="edge">
<title>4-&gt;6</title>
<path fill="none" stroke="#88a0d6" d="M1025.94,-1385.83C1082.59,-1367.14 1155.87,-1342.95 1210.25,-1325"/>
<polygon fill="#88a0d6" stroke="#88a0d6" points="1211.03,-1328.43 1219.42,-1321.97 1208.83,-1321.79 1211.03,-1328.43"/>
<text text-anchor="start" x="1122.28" y="-1355.5" font-family="Roboto, sans-serif" font-weight="bold" font-size="14.00">NEIN</text>
</g>
<!-- A02 -->
<g id="node9" class="node">
<title>A02</title>
<path fill="#c4cac1" stroke="black" stroke-width="0" d="M418.8,-1212.02C418.8,-1212.02 63.75,-1212.02 63.75,-1212.02 57.75,-1212.02 51.75,-1206.02 51.75,-1200.02 51.75,-1200.02 51.75,-1156.74 51.75,-1156.74 51.75,-1150.74 57.75,-1144.74 63.75,-1144.74 63.75,-1144.74 418.8,-1144.74 418.8,-1144.74 424.8,-1144.74 430.8,-1150.74 430.8,-1156.74 430.8,-1156.74 430.8,-1200.02 430.8,-1200.02 430.8,-1206.02 424.8,-1212.02 418.8,-1212.02"/>
<text text-anchor="start" x="66.15" y="-1191.08" font-family="Roboto, sans-serif" font-weight="bold" font-size="14.00">A02</text>
<text text-anchor="start" x="66.15" y="-1178.98" font-family="Roboto, sans-serif" text-decoration="underline" font-size="12.00">Hinweis:</text>
<text text-anchor="start" x="66.15" y="-1166.98" font-family="Roboto, sans-serif" font-size="12.00">Cluster: Ablehnung</text>
<text text-anchor="start" x="66.15" y="-1154.98" font-family="Roboto, sans-serif" font-size="12.00">Angefragter Kunde ist nicht der Vertragspartner beim LFA.</text>
</g>
<!-- 5&#45;&gt;A02 -->
<g id="edge10" class="edge">
<title>5-&gt;A02</title>
<path fill="none" stroke="#88a0d6" d="M529.09,-1276.33C492.14,-1268.37 451.18,-1258.52 414.27,-1247.27 385.4,-1238.47 354.53,-1227.04 326.97,-1216.07"/>
<polygon fill="#88a0d6" stroke="#88a0d6" points="328.58,-1212.94 317.99,-1212.46 325.97,-1219.44 328.58,-1212.94"/>
<text text-anchor="start" x="414.27" y="-1234.97" font-family="Roboto, sans-serif" font-weight="bold" font-size="14.00">NEIN</text>
</g>
<!-- 8 -->
<g id="node14" class="node">
<title>8</title>
<path fill="#c2cee9" stroke="black" stroke-width="0" d="M882.17,-1081.49C882.17,-1081.49 172.38,-1081.49 172.38,-1081.49 166.38,-1081.49 160.38,-1075.49 160.38,-1069.49 160.38,-1069.49 160.38,-1034.21 160.38,-1034.21 160.38,-1028.21 166.38,-1022.21 172.38,-1022.21 172.38,-1022.21 882.17,-1022.21 882.17,-1022.21 888.17,-1022.21 894.17,-1028.21 894.17,-1034.21 894.17,-1034.21 894.17,-1069.49 894.17,-1069.49 894.17,-1075.49 888.17,-1081.49 882.17,-1081.49"/>
<text text-anchor="start" x="174.77" y="-1060.55" font-family="Roboto, sans-serif" font-weight="bold" font-size="14.00">8: </text>
<text text-anchor="start" x="194.27" y="-1060.55" font-family="Roboto, sans-serif" font-size="14.00">Handelt es sich bei dem identifizierten Objekt um einen Teil einer</text>
<text text-anchor="start" x="174.77" y="-1046.55" font-family="Roboto, sans-serif" font-size="14.00">Kundenanlage, welches zum K&#252;ndigungsdatum + 1&#160;Tag nicht an der Marktkommunikation teilnimmt?</text>
<text text-anchor="start" x="174.77" y="-1032.55" font-family="Roboto, sans-serif" font-size="14.00">(Teil einer Kundenanlage, welche dem NB nicht bekannt ist.)</text>
</g>
<!-- 5&#45;&gt;8 -->
<g id="edge11" class="edge">
<title>5-&gt;8</title>
<path fill="none" stroke="#88a0d6" d="M561.94,-1276.34C529.5,-1263.31 495.43,-1243.02 476.52,-1212.02 453.37,-1174.04 476.17,-1124.44 498.18,-1090.78"/>
<polygon fill="#88a0d6" stroke="#88a0d6" points="501.04,-1092.79 503.77,-1082.55 495.25,-1088.85 501.04,-1092.79"/>
<text text-anchor="start" x="476.27" y="-1174.71" font-family="Roboto, sans-serif" font-weight="bold" font-size="14.00">JA</text>
</g>
<!-- A03 -->
<g id="node11" class="node">
<title>A03</title>
<path fill="#c4cac1" stroke="black" stroke-width="0" d="M763.67,-1212.02C763.67,-1212.02 512.88,-1212.02 512.88,-1212.02 506.88,-1212.02 500.88,-1206.02 500.88,-1200.02 500.88,-1200.02 500.88,-1156.74 500.88,-1156.74 500.88,-1150.74 506.88,-1144.74 512.88,-1144.74 512.88,-1144.74 763.67,-1144.74 763.67,-1144.74 769.67,-1144.74 775.67,-1150.74 775.67,-1156.74 775.67,-1156.74 775.67,-1200.02 775.67,-1200.02 775.67,-1206.02 769.67,-1212.02 763.67,-1212.02"/>
<text text-anchor="start" x="515.27" y="-1191.08" font-family="Roboto, sans-serif" font-weight="bold" font-size="14.00">A03</text>
<text text-anchor="start" x="515.27" y="-1178.98" font-family="Roboto, sans-serif" text-decoration="underline" font-size="12.00">Hinweis:</text>
<text text-anchor="start" x="515.27" y="-1166.98" font-family="Roboto, sans-serif" font-size="12.00">Cluster: Ablehnung</text>
<text text-anchor="start" x="515.27" y="-1154.98" font-family="Roboto, sans-serif" font-size="12.00">Keine Identifizierung einer Marktlokation.</text>
</g>
<!-- 6&#45;&gt;A03 -->
<g id="edge12" class="edge">
<title>6-&gt;A03</title>
<path fill="none" stroke="#88a0d6" d="M1148.77,-1276.3C1050.56,-1260.42 915.06,-1237.58 786.61,-1212.45"/>
<polygon fill="#88a0d6" stroke="#88a0d6" points="787.37,-1209.03 776.88,-1210.54 786.02,-1215.9 787.37,-1209.03"/>
<text text-anchor="start" x="963.27" y="-1234.97" font-family="Roboto, sans-serif" font-weight="bold" font-size="14.00">NEIN</text>
</g>
<!-- 7 -->
<g id="node12" class="node">
<title>7</title>
<path fill="#c2cee9" stroke="black" stroke-width="0" d="M1601.3,-1208.02C1601.3,-1208.02 805.25,-1208.02 805.25,-1208.02 799.25,-1208.02 793.25,-1202.02 793.25,-1196.02 793.25,-1196.02 793.25,-1160.74 793.25,-1160.74 793.25,-1154.74 799.25,-1148.74 805.25,-1148.74 805.25,-1148.74 1601.3,-1148.74 1601.3,-1148.74 1607.3,-1148.74 1613.3,-1154.74 1613.3,-1160.74 1613.3,-1160.74 1613.3,-1196.02 1613.3,-1196.02 1613.3,-1202.02 1607.3,-1208.02 1601.3,-1208.02"/>
<text text-anchor="start" x="807.65" y="-1187.08" font-family="Roboto, sans-serif" font-weight="bold" font-size="14.00">7: </text>
<text text-anchor="start" x="827.15" y="-1187.08" font-family="Roboto, sans-serif" font-size="14.00">Entspricht der Kunde aus der K&#252;ndigung bei exakt einer Marktlokation, dem</text>
<text text-anchor="start" x="807.65" y="-1173.08" font-family="Roboto, sans-serif" font-size="14.00">Vertragspartner beim Empf&#228;nger der K&#252;ndigung, mit welchem der LFA zum K&#252;ndigungsdatum einen Vertrag hat?</text>
<text text-anchor="start" x="807.65" y="-1159.08" font-family="Roboto, sans-serif" font-size="14.00">(Identifizierung unter Wahrung der gebotenen Sorgfalt)</text>
</g>
<!-- 6&#45;&gt;7 -->
<g id="edge13" class="edge">
<title>6-&gt;7</title>
<path fill="none" stroke="#88a0d6" d="M1271.24,-1276.45C1259.68,-1259.93 1243.42,-1236.7 1229.69,-1217.11"/>
<polygon fill="#88a0d6" stroke="#88a0d6" points="1232.67,-1215.25 1224.06,-1209.07 1226.93,-1219.27 1232.67,-1215.25"/>
<text text-anchor="start" x="1249.28" y="-1234.97" font-family="Roboto, sans-serif" font-weight="bold" font-size="14.00">JA</text>
</g>
<!-- A04 -->
<g id="node13" class="node">
<title>A04</title>
<path fill="#c4cac1" stroke="black" stroke-width="0" d="M1422.05,-1091.49C1422.05,-1091.49 984.5,-1091.49 984.5,-1091.49 978.5,-1091.49 972.5,-1085.49 972.5,-1079.49 972.5,-1079.49 972.5,-1024.21 972.5,-1024.21 972.5,-1018.21 978.5,-1012.21 984.5,-1012.21 984.5,-1012.21 1422.05,-1012.21 1422.05,-1012.21 1428.05,-1012.21 1434.05,-1018.21 1434.05,-1024.21 1434.05,-1024.21 1434.05,-1079.49 1434.05,-1079.49 1434.05,-1085.49 1428.05,-1091.49 1422.05,-1091.49"/>
<text text-anchor="start" x="986.9" y="-1070.55" font-family="Roboto, sans-serif" font-weight="bold" font-size="14.00">A04</text>
<text text-anchor="start" x="986.9" y="-1058.45" font-family="Roboto, sans-serif" text-decoration="underline" font-size="12.00">Hinweis:</text>
<text text-anchor="start" x="986.9" y="-1046.45" font-family="Roboto, sans-serif" font-size="12.00">Cluster: Ablehnung</text>
<text text-anchor="start" x="986.9" y="-1034.45" font-family="Roboto, sans-serif" font-size="12.00">Mehrere Marktlokationen wurden identifiziert, Kunde war bei keiner bzw.</text>
<text text-anchor="start" x="986.9" y="-1022.45" font-family="Roboto, sans-serif" font-size="12.00">mehreren Marktlokationen zugeordnet.</text>
</g>
<!-- 7&#45;&gt;A04 -->
<g id="edge14" class="edge">
<title>7-&gt;A04</title>
<path fill="none" stroke="#88a0d6" d="M1203.28,-1148.81C1203.28,-1135.06 1203.28,-1118.17 1203.28,-1102.41"/>
<polygon fill="#88a0d6" stroke="#88a0d6" points="1206.78,-1102.71 1203.28,-1092.71 1199.78,-1102.71 1206.78,-1102.71"/>
<text text-anchor="start" x="1203.28" y="-1114.44" font-family="Roboto, sans-serif" font-weight="bold" font-size="14.00">NEIN</text>
</g>
<!-- 7&#45;&gt;8 -->
<g id="edge15" class="edge">
<title>7-&gt;8</title>
<path fill="none" stroke="#88a0d6" d="M1048.19,-1148.81C942.2,-1129.28 801.86,-1103.43 693.56,-1083.48"/>
<polygon fill="#88a0d6" stroke="#88a0d6" points="694.48,-1080.09 684.01,-1081.72 693.21,-1086.98 694.48,-1080.09"/>
<text text-anchor="start" x="925.27" y="-1114.44" font-family="Roboto, sans-serif" font-weight="bold" font-size="14.00">JA</text>
</g>
<!-- A05 -->
<g id="node15" class="node">
<title>A05</title>
<path fill="#c4cac1" stroke="black" stroke-width="0" d="M1008.05,-958.96C1008.05,-958.96 612.5,-958.96 612.5,-958.96 606.5,-958.96 600.5,-952.96 600.5,-946.96 600.5,-946.96 600.5,-903.68 600.5,-903.68 600.5,-897.68 606.5,-891.68 612.5,-891.68 612.5,-891.68 1008.05,-891.68 1008.05,-891.68 1014.05,-891.68 1020.05,-897.68 1020.05,-903.68 1020.05,-903.68 1020.05,-946.96 1020.05,-946.96 1020.05,-952.96 1014.05,-958.96 1008.05,-958.96"/>
<text text-anchor="start" x="614.9" y="-938.02" font-family="Roboto, sans-serif" font-weight="bold" font-size="14.00">A05</text>
<text text-anchor="start" x="614.9" y="-925.92" font-family="Roboto, sans-serif" text-decoration="underline" font-size="12.00">Hinweis:</text>
<text text-anchor="start" x="614.9" y="-913.92" font-family="Roboto, sans-serif" font-size="12.00">Cluster: Ablehnung</text>
<text text-anchor="start" x="614.9" y="-901.92" font-family="Roboto, sans-serif" font-size="12.00">Teil einer Kundenanlage, die derzeit nicht se-parat bilanziert wird.</text>
</g>
<!-- 8&#45;&gt;A05 -->
<g id="edge16" class="edge">
<title>8-&gt;A05</title>
<path fill="none" stroke="#88a0d6" d="M592.2,-1022.28C631.85,-1004.83 682.98,-982.34 725.76,-963.51"/>
<polygon fill="#88a0d6" stroke="#88a0d6" points="727.03,-966.77 734.78,-959.54 724.21,-960.37 727.03,-966.77"/>
<text text-anchor="start" x="693.27" y="-981.91" font-family="Roboto, sans-serif" font-weight="bold" font-size="14.00">JA</text>
</g>
<!-- 8&#45;&gt;9 -->
<g id="edge17" class="edge">
<title>8-&gt;9</title>
<path fill="none" stroke="#88a0d6" d="M473.13,-1022.28C433.66,-1001.45 380.54,-973.42 341.91,-953.04"/>
<polygon fill="#88a0d6" stroke="#88a0d6" points="343.73,-950.04 333.25,-948.47 340.47,-956.23 343.73,-950.04"/>
<text text-anchor="start" x="416.27" y="-981.91" font-family="Roboto, sans-serif" font-weight="bold" font-size="14.00">NEIN</text>
</g>
<!-- A13 -->
<g id="node17" class="node">
<title>A13</title>
<path fill="#c4cac1" stroke="black" stroke-width="0" d="M405.68,-838.43C405.68,-838.43 40.88,-838.43 40.88,-838.43 34.88,-838.43 28.88,-832.43 28.88,-826.43 28.88,-826.43 28.88,-783.15 28.88,-783.15 28.88,-777.15 34.88,-771.15 40.88,-771.15 40.88,-771.15 405.68,-771.15 405.68,-771.15 411.68,-771.15 417.68,-777.15 417.68,-783.15 417.68,-783.15 417.68,-826.43 417.68,-826.43 417.68,-832.43 411.68,-838.43 405.68,-838.43"/>
<text text-anchor="start" x="43.28" y="-817.49" font-family="Roboto, sans-serif" font-weight="bold" font-size="14.00">A13</text>
<text text-anchor="start" x="43.28" y="-805.39" font-family="Roboto, sans-serif" text-decoration="underline" font-size="12.00">Hinweis:</text>
<text text-anchor="start" x="43.28" y="-793.39" font-family="Roboto, sans-serif" font-size="12.00">Cluster: Ablehnung</text>
<text text-anchor="start" x="43.28" y="-781.39" font-family="Roboto, sans-serif" font-size="12.00">Empf&#228;nger ist zum angefragten Zeitpunkt nicht zugeordnet.</text>
</g>
<!-- 9&#45;&gt;A13 -->
<g id="edge18" class="edge">
<title>9-&gt;A13</title>
<path fill="none" stroke="#88a0d6" d="M278.96,-902.86C270.24,-887.66 258.26,-866.77 247.64,-848.26"/>
<polygon fill="#88a0d6" stroke="#88a0d6" points="250.68,-846.52 242.66,-839.59 244.6,-850 250.68,-846.52"/>
<text text-anchor="start" x="261.27" y="-861.38" font-family="Roboto, sans-serif" font-weight="bold" font-size="14.00">JA</text>
</g>
<!-- 10 -->
<g id="node18" class="node">
<title>10</title>
<path fill="#c2cee9" stroke="black" stroke-width="0" d="M1021.3,-822.79C1021.3,-822.79 447.25,-822.79 447.25,-822.79 441.25,-822.79 435.25,-816.79 435.25,-810.79 435.25,-810.79 435.25,-798.79 435.25,-798.79 435.25,-792.79 441.25,-786.79 447.25,-786.79 447.25,-786.79 1021.3,-786.79 1021.3,-786.79 1027.3,-786.79 1033.3,-792.79 1033.3,-798.79 1033.3,-798.79 1033.3,-810.79 1033.3,-810.79 1033.3,-816.79 1027.3,-822.79 1021.3,-822.79"/>
<text text-anchor="start" x="449.65" y="-801.12" font-family="Roboto, sans-serif" font-weight="bold" font-size="14.00">10: </text>
<text text-anchor="start" x="478.9" y="-801.12" font-family="Roboto, sans-serif" font-size="14.00">Wurde der Vertrag bereits zu dem angefragten K&#252;ndigungstermin gek&#252;ndigt?</text>
</g>
<!-- 9&#45;&gt;10 -->
<g id="edge19" class="edge">
<title>9-&gt;10</title>
<path fill="none" stroke="#88a0d6" d="M372.01,-902.72C454.13,-880.75 580.31,-846.99 660.01,-825.66"/>
<polygon fill="#88a0d6" stroke="#88a0d6" points="660.72,-829.09 669.47,-823.13 658.91,-822.33 660.72,-829.09"/>
<text text-anchor="start" x="539.27" y="-861.38" font-family="Roboto, sans-serif" font-weight="bold" font-size="14.00">NEIN</text>
</g>
<!-- A06 -->
<g id="node19" class="node">
<title>A06</title>
<path fill="#c4cac1" stroke="black" stroke-width="0" d="M609.42,-717.9C609.42,-717.9 189.12,-717.9 189.12,-717.9 183.12,-717.9 177.12,-711.9 177.12,-705.9 177.12,-705.9 177.12,-662.62 177.12,-662.62 177.12,-656.62 183.12,-650.62 189.12,-650.62 189.12,-650.62 609.42,-650.62 609.42,-650.62 615.42,-650.62 621.42,-656.62 621.42,-662.62 621.42,-662.62 621.42,-705.9 621.42,-705.9 621.42,-711.9 615.42,-717.9 609.42,-717.9"/>
<text text-anchor="start" x="191.52" y="-696.96" font-family="Roboto, sans-serif" font-weight="bold" font-size="14.00">A06</text>
<text text-anchor="start" x="191.52" y="-684.86" font-family="Roboto, sans-serif" text-decoration="underline" font-size="12.00">Hinweis:</text>
<text text-anchor="start" x="191.52" y="-672.86" font-family="Roboto, sans-serif" font-size="12.00">Cluster: Zustimmung</text>
<text text-anchor="start" x="191.52" y="-660.86" font-family="Roboto, sans-serif" font-size="12.00">Vertrag wurde bereits zum angefragten K&#252;ndigungstermin gek&#252;ndigt.</text>
</g>
<!-- 10&#45;&gt;A06 -->
<g id="edge20" class="edge">
<title>10-&gt;A06</title>
<path fill="none" stroke="#88a0d6" d="M686.28,-786.81C638.39,-769.86 563.31,-743.3 501.96,-721.59"/>
<polygon fill="#88a0d6" stroke="#88a0d6" points="503.47,-718.42 492.88,-718.38 501.14,-725.01 503.47,-718.42"/>
<text text-anchor="start" x="586.27" y="-740.85" font-family="Roboto, sans-serif" font-weight="bold" font-size="14.00">JA</text>
</g>
<!-- 11 -->
<g id="node20" class="node">
<title>11</title>
<path fill="#c2cee9" stroke="black" stroke-width="0" d="M1350.92,-702.26C1350.92,-702.26 651.62,-702.26 651.62,-702.26 645.62,-702.26 639.62,-696.26 639.62,-690.26 639.62,-690.26 639.62,-678.26 639.62,-678.26 639.62,-672.26 645.62,-666.26 651.62,-666.26 651.62,-666.26 1350.92,-666.26 1350.92,-666.26 1356.92,-666.26 1362.92,-672.26 1362.92,-678.26 1362.92,-678.26 1362.92,-690.26 1362.92,-690.26 1362.92,-696.26 1356.92,-702.26 1350.92,-702.26"/>
<text text-anchor="start" x="654.02" y="-680.59" font-family="Roboto, sans-serif" font-weight="bold" font-size="14.00">11: </text>
<text text-anchor="start" x="683.27" y="-680.59" font-family="Roboto, sans-serif" font-size="14.00">Wurde der Vertrag bereits zu einem Datum vor dem angefragten K&#252;ndigungstermin gek&#252;ndigt?</text>
</g>
<!-- 10&#45;&gt;11 -->
<g id="edge21" class="edge">
<title>10-&gt;11</title>
<path fill="none" stroke="#88a0d6" d="M772.53,-786.81C820.01,-765.73 901.05,-729.75 952.83,-706.77"/>
<polygon fill="#88a0d6" stroke="#88a0d6" points="953.99,-710.08 961.71,-702.83 951.15,-703.68 953.99,-710.08"/>
<text text-anchor="start" x="883.27" y="-740.85" font-family="Roboto, sans-serif" font-weight="bold" font-size="14.00">NEIN</text>
</g>
<!-- A07 -->
<g id="node21" class="node">
<title>A07</title>
<path fill="#c4cac1" stroke="black" stroke-width="0" d="M749.3,-597.37C749.3,-597.37 373.25,-597.37 373.25,-597.37 367.25,-597.37 361.25,-591.37 361.25,-585.37 361.25,-585.37 361.25,-542.09 361.25,-542.09 361.25,-536.09 367.25,-530.09 373.25,-530.09 373.25,-530.09 749.3,-530.09 749.3,-530.09 755.3,-530.09 761.3,-536.09 761.3,-542.09 761.3,-542.09 761.3,-585.37 761.3,-585.37 761.3,-591.37 755.3,-597.37 749.3,-597.37"/>
<text text-anchor="start" x="375.65" y="-576.43" font-family="Roboto, sans-serif" font-weight="bold" font-size="14.00">A07</text>
<text text-anchor="start" x="375.65" y="-564.33" font-family="Roboto, sans-serif" text-decoration="underline" font-size="12.00">Hinweis:</text>
<text text-anchor="start" x="375.65" y="-552.33" font-family="Roboto, sans-serif" font-size="12.00">Cluster: Ablehnung</text>
<text text-anchor="start" x="375.65" y="-540.33" font-family="Roboto, sans-serif" font-size="12.00">Zum K&#252;ndigungstermin besteht kein Vertrags-verh&#228;ltnis mehr.</text>
</g>
<!-- 11&#45;&gt;A07 -->
<g id="edge22" class="edge">
<title>11-&gt;A07</title>
<path fill="none" stroke="#88a0d6" d="M938.23,-666.28C874.56,-649.12 774.28,-622.11 693.15,-600.26"/>
<polygon fill="#88a0d6" stroke="#88a0d6" points="694.37,-596.96 683.81,-597.74 692.55,-603.72 694.37,-596.96"/>
<text text-anchor="start" x="807.27" y="-620.32" font-family="Roboto, sans-serif" font-weight="bold" font-size="14.00">JA</text>
</g>
<!-- 12 -->
<g id="node22" class="node">
<title>12</title>
<path fill="#c2cee9" stroke="black" stroke-width="0" d="M1451.05,-581.73C1451.05,-581.73 791.5,-581.73 791.5,-581.73 785.5,-581.73 779.5,-575.73 779.5,-569.73 779.5,-569.73 779.5,-557.73 779.5,-557.73 779.5,-551.73 785.5,-545.73 791.5,-545.73 791.5,-545.73 1451.05,-545.73 1451.05,-545.73 1457.05,-545.73 1463.05,-551.73 1463.05,-557.73 1463.05,-557.73 1463.05,-569.73 1463.05,-569.73 1463.05,-575.73 1457.05,-581.73 1451.05,-581.73"/>
<text text-anchor="start" x="793.9" y="-560.06" font-family="Roboto, sans-serif" font-weight="bold" font-size="14.00">12: </text>
<text text-anchor="start" x="823.15" y="-560.06" font-family="Roboto, sans-serif" font-size="14.00">Handelt es sich um eine K&#252;ndigung, welche zu einem fixen Termin ausgesprochen wurde?</text>
</g>
<!-- 11&#45;&gt;12 -->
<g id="edge23" class="edge">
<title>11-&gt;12</title>
<path fill="none" stroke="#88a0d6" d="M1018.47,-666.28C1038.78,-646.21 1072.77,-612.65 1096.06,-589.64"/>
<polygon fill="#88a0d6" stroke="#88a0d6" points="1098.38,-592.26 1103.04,-582.74 1093.46,-587.28 1098.38,-592.26"/>
<text text-anchor="start" x="1068.28" y="-620.32" font-family="Roboto, sans-serif" font-weight="bold" font-size="14.00">NEIN</text>
</g>
<!-- 13 -->
<g id="node23" class="node">
<title>13</title>
<path fill="#c2cee9" stroke="black" stroke-width="0" d="M1089.67,-476.84C1089.67,-476.84 478.88,-476.84 478.88,-476.84 472.88,-476.84 466.88,-470.84 466.88,-464.84 466.88,-464.84 466.88,-443.56 466.88,-443.56 466.88,-437.56 472.88,-431.56 478.88,-431.56 478.88,-431.56 1089.67,-431.56 1089.67,-431.56 1095.67,-431.56 1101.67,-437.56 1101.67,-443.56 1101.67,-443.56 1101.67,-464.84 1101.67,-464.84 1101.67,-470.84 1095.67,-476.84 1089.67,-476.84"/>
<text text-anchor="start" x="481.27" y="-455.9" font-family="Roboto, sans-serif" font-weight="bold" font-size="14.00">13: </text>
<text text-anchor="start" x="510.52" y="-455.9" font-family="Roboto, sans-serif" font-size="14.00">Ist der Vertrag zum &#252;bermittelten K&#252;ndigungstermin unter Einhaltung der</text>
<text text-anchor="start" x="481.27" y="-441.9" font-family="Roboto, sans-serif" font-size="14.00">K&#252;ndigungsfrist unter Ber&#252;cksichtigung des Eingangsdatums der K&#252;ndigung k&#252;ndbar?</text>
</g>
<!-- 12&#45;&gt;13 -->
<g id="edge24" class="edge">
<title>12-&gt;13</title>
<path fill="none" stroke="#88a0d6" d="M1068.25,-545.81C1012.97,-528.17 925.73,-500.34 862.53,-480.17"/>
<polygon fill="#88a0d6" stroke="#88a0d6" points="863.84,-476.91 853.25,-477.21 861.71,-483.58 863.84,-476.91"/>
<text text-anchor="start" x="952.27" y="-499.79" font-family="Roboto, sans-serif" font-weight="bold" font-size="14.00">JA</text>
</g>
<!-- 15 -->
<g id="node27" class="node">
<title>15</title>
<path fill="#c2cee9" stroke="black" stroke-width="0" d="M1388.3,-378.31C1388.3,-378.31 886.25,-378.31 886.25,-378.31 880.25,-378.31 874.25,-372.31 874.25,-366.31 874.25,-366.31 874.25,-354.31 874.25,-354.31 874.25,-348.31 880.25,-342.31 886.25,-342.31 886.25,-342.31 1388.3,-342.31 1388.3,-342.31 1394.3,-342.31 1400.3,-348.31 1400.3,-354.31 1400.3,-354.31 1400.3,-366.31 1400.3,-366.31 1400.3,-372.31 1394.3,-378.31 1388.3,-378.31"/>
<text text-anchor="start" x="888.65" y="-356.63" font-family="Roboto, sans-serif" font-weight="bold" font-size="14.00">15: </text>
<text text-anchor="start" x="917.9" y="-356.63" font-family="Roboto, sans-serif" font-size="14.00">Wurde f&#252;r die K&#252;ndigung eine Vollmacht von dem LFA angefordert?</text>
</g>
<!-- 12&#45;&gt;15 -->
<g id="edge25" class="edge">
<title>12-&gt;15</title>
<path fill="none" stroke="#88a0d6" d="M1122.61,-545.9C1125.35,-511.4 1131.64,-432.29 1135.02,-389.7"/>
<polygon fill="#88a0d6" stroke="#88a0d6" points="1138.51,-389.98 1135.81,-379.74 1131.53,-389.43 1138.51,-389.98"/>
<text text-anchor="start" x="1131.28" y="-450.52" font-family="Roboto, sans-serif" font-weight="bold" font-size="14.00">NEIN</text>
</g>
<!-- 14 -->
<g id="node24" class="node">
<title>14</title>
<path fill="#c2cee9" stroke="black" stroke-width="0" d="M844.55,-378.31C844.55,-378.31 356,-378.31 356,-378.31 350,-378.31 344,-372.31 344,-366.31 344,-366.31 344,-354.31 344,-354.31 344,-348.31 350,-342.31 356,-342.31 356,-342.31 844.55,-342.31 844.55,-342.31 850.55,-342.31 856.55,-348.31 856.55,-354.31 856.55,-354.31 856.55,-366.31 856.55,-366.31 856.55,-372.31 850.55,-378.31 844.55,-378.31"/>
<text text-anchor="start" x="358.4" y="-356.63" font-family="Roboto, sans-serif" font-weight="bold" font-size="14.00">14: </text>
<text text-anchor="start" x="387.65" y="-356.63" font-family="Roboto, sans-serif" font-size="14.00">Wurde der Vertrag bereits zu einem sp&#228;teren Zeitpunkt beendet?</text>
</g>
<!-- 13&#45;&gt;14 -->
<g id="edge27" class="edge">
<title>13-&gt;14</title>
<path fill="none" stroke="#88a0d6" d="M741.14,-431.66C711.96,-417.09 673.56,-397.91 644.22,-383.26"/>
<polygon fill="#88a0d6" stroke="#88a0d6" points="646.12,-380.29 635.61,-378.96 642.99,-386.55 646.12,-380.29"/>
<text text-anchor="start" x="703.27" y="-401.26" font-family="Roboto, sans-serif" font-weight="bold" font-size="14.00">NEIN</text>
</g>
<!-- 13&#45;&gt;15 -->
<g id="edge26" class="edge">
<title>13-&gt;15</title>
<path fill="none" stroke="#88a0d6" d="M867.04,-431.66C925.69,-416.39 1003.79,-396.06 1060.95,-381.18"/>
<polygon fill="#88a0d6" stroke="#88a0d6" points="1061.83,-384.57 1070.62,-378.66 1060.06,-377.79 1061.83,-384.57"/>
<text text-anchor="start" x="1002.27" y="-401.26" font-family="Roboto, sans-serif" font-weight="bold" font-size="14.00">JA</text>
</g>
<!-- A08 -->
<g id="node25" class="node">
<title>A08</title>
<path fill="#c4cac1" stroke="black" stroke-width="0" d="M641.67,-289.06C641.67,-289.06 258.88,-289.06 258.88,-289.06 252.88,-289.06 246.87,-283.06 246.87,-277.06 246.87,-277.06 246.87,-233.78 246.87,-233.78 246.87,-227.78 252.87,-221.78 258.88,-221.78 258.88,-221.78 641.67,-221.78 641.67,-221.78 647.67,-221.78 653.67,-227.78 653.67,-233.78 653.67,-233.78 653.67,-277.06 653.67,-277.06 653.67,-283.06 647.67,-289.06 641.67,-289.06"/>
<text text-anchor="start" x="261.27" y="-268.12" font-family="Roboto, sans-serif" font-weight="bold" font-size="14.00">A08</text>
<text text-anchor="start" x="261.27" y="-256.02" font-family="Roboto, sans-serif" text-decoration="underline" font-size="12.00">Hinweis:</text>
<text text-anchor="start" x="261.27" y="-244.02" font-family="Roboto, sans-serif" font-size="12.00">Cluster: Ablehnung</text>
<text text-anchor="start" x="261.27" y="-232.02" font-family="Roboto, sans-serif" font-size="12.00">Vertragsbindung bei bereits in der Zukunft beendetem Vertrag.</text>
</g>
<!-- 14&#45;&gt;A08 -->
<g id="edge28" class="edge">
<title>14-&gt;A08</title>
<path fill="none" stroke="#88a0d6" d="M575.51,-342.32C556.92,-329.57 530.72,-311.6 507.08,-295.39"/>
<polygon fill="#88a0d6" stroke="#88a0d6" points="509.3,-292.67 499.08,-289.9 505.34,-298.44 509.3,-292.67"/>
<text text-anchor="start" x="547.27" y="-312.01" font-family="Roboto, sans-serif" font-weight="bold" font-size="14.00">JA</text>
</g>
<!-- A09 -->
<g id="node26" class="node">
<title>A09</title>
<path fill="#c4cac1" stroke="black" stroke-width="0" d="M800.92,-289.06C800.92,-289.06 683.62,-289.06 683.62,-289.06 677.62,-289.06 671.62,-283.06 671.62,-277.06 671.62,-277.06 671.62,-233.78 671.62,-233.78 671.62,-227.78 677.62,-221.78 683.62,-221.78 683.62,-221.78 800.92,-221.78 800.92,-221.78 806.92,-221.78 812.92,-227.78 812.92,-233.78 812.92,-233.78 812.92,-277.06 812.92,-277.06 812.92,-283.06 806.92,-289.06 800.92,-289.06"/>
<text text-anchor="start" x="686.02" y="-268.12" font-family="Roboto, sans-serif" font-weight="bold" font-size="14.00">A09</text>
<text text-anchor="start" x="686.02" y="-256.02" font-family="Roboto, sans-serif" text-decoration="underline" font-size="12.00">Hinweis:</text>
<text text-anchor="start" x="686.02" y="-244.02" font-family="Roboto, sans-serif" font-size="12.00">Cluster: Ablehnung</text>
<text text-anchor="start" x="686.02" y="-232.02" font-family="Roboto, sans-serif" font-size="12.00">Vertragsbindung</text>
</g>
<!-- 14&#45;&gt;A09 -->
<g id="edge29" class="edge">
<title>14-&gt;A09</title>
<path fill="none" stroke="#88a0d6" d="M623.72,-342.32C641.24,-329.63 665.9,-311.76 688.2,-295.6"/>
<polygon fill="#88a0d6" stroke="#88a0d6" points="689.99,-298.63 696.03,-289.93 685.88,-292.96 689.99,-298.63"/>
<text text-anchor="start" x="671.27" y="-312.01" font-family="Roboto, sans-serif" font-weight="bold" font-size="14.00">NEIN</text>
</g>
<!-- A11 -->
<g id="node28" class="node">
<title>A11</title>
<path fill="#c4cac1" stroke="black" stroke-width="0" d="M1038.92,-73.28C1038.92,-73.28 909.62,-73.28 909.62,-73.28 903.62,-73.28 897.62,-67.28 897.62,-61.28 897.62,-61.28 897.62,-18 897.62,-18 897.62,-12 903.62,-6 909.62,-6 909.62,-6 1038.92,-6 1038.92,-6 1044.92,-6 1050.92,-12 1050.92,-18 1050.92,-18 1050.92,-61.28 1050.92,-61.28 1050.92,-67.28 1044.92,-73.28 1038.92,-73.28"/>
<text text-anchor="start" x="912.02" y="-52.34" font-family="Roboto, sans-serif" font-weight="bold" font-size="14.00">A11</text>
<text text-anchor="start" x="912.02" y="-40.24" font-family="Roboto, sans-serif" text-decoration="underline" font-size="12.00">Hinweis:</text>
<text text-anchor="start" x="912.02" y="-28.24" font-family="Roboto, sans-serif" font-size="12.00">Cluster: Zustimmung</text>
<text text-anchor="start" x="912.02" y="-16.24" font-family="Roboto, sans-serif" font-size="12.00">Zustimmung</text>
</g>
<!-- 15&#45;&gt;A11 -->
<g id="edge30" class="edge">
<title>15-&gt;A11</title>
<path fill="none" stroke="#88a0d6" d="M1069.21,-342.38C1041.06,-331.8 1010.94,-315.06 993.27,-289.06 951.61,-227.72 957.23,-137.14 965.48,-83.98"/>
<polygon fill="#88a0d6" stroke="#88a0d6" points="968.89,-84.85 967.08,-74.41 961.98,-83.7 968.89,-84.85"/>
<text text-anchor="start" x="962.27" y="-191.48" font-family="Roboto, sans-serif" font-weight="bold" font-size="14.00">NEIN</text>
</g>
<!-- 16 -->
<g id="node29" class="node">
<title>16</title>
<path fill="#c2cee9" stroke="black" stroke-width="0" d="M1326.43,-273.42C1326.43,-273.42 1014.13,-273.42 1014.13,-273.42 1008.13,-273.42 1002.13,-267.42 1002.13,-261.42 1002.13,-261.42 1002.13,-249.42 1002.13,-249.42 1002.13,-243.42 1008.13,-237.42 1014.13,-237.42 1014.13,-237.42 1326.43,-237.42 1326.43,-237.42 1332.43,-237.42 1338.43,-243.42 1338.43,-249.42 1338.43,-249.42 1338.43,-261.42 1338.43,-261.42 1338.43,-267.42 1332.43,-273.42 1326.43,-273.42"/>
<text text-anchor="start" x="1016.53" y="-251.75" font-family="Roboto, sans-serif" font-weight="bold" font-size="14.00">16: </text>
<text text-anchor="start" x="1045.78" y="-251.75" font-family="Roboto, sans-serif" font-size="14.00">Ist die Vollmacht beim LFA eingetroffen?</text>
</g>
<!-- 15&#45;&gt;16 -->
<g id="edge31" class="edge">
<title>15-&gt;16</title>
<path fill="none" stroke="#88a0d6" d="M1142.72,-342.32C1147.82,-326.44 1155.51,-302.45 1161.48,-283.85"/>
<polygon fill="#88a0d6" stroke="#88a0d6" points="1164.74,-285.13 1164.46,-274.54 1158.08,-282.99 1164.74,-285.13"/>
<text text-anchor="start" x="1153.28" y="-312.01" font-family="Roboto, sans-serif" font-weight="bold" font-size="14.00">JA</text>
</g>
<!-- 16&#45;&gt;16 -->
<g id="edge33" class="edge">
<title>16-&gt;16</title>
<path fill="none" stroke="#88a0d6" d="M1338.37,-263.53C1349.61,-261.65 1356.43,-258.95 1356.43,-255.42 1356.43,-253.27 1353.89,-251.42 1349.37,-249.89"/>
<polygon fill="#88a0d6" stroke="#88a0d6" points="1350.38,-246.53 1339.84,-247.65 1348.78,-253.34 1350.38,-246.53"/>
<text text-anchor="start" x="1356.43" y="-251.75" font-family="Roboto, sans-serif" font-weight="bold" font-size="14.00">NEIN</text>
</g>
<!-- 17 -->
<g id="node30" class="node">
<title>17</title>
<path fill="#c2cee9" stroke="black" stroke-width="0" d="M1325.68,-168.53C1325.68,-168.53 1014.88,-168.53 1014.88,-168.53 1008.88,-168.53 1002.88,-162.53 1002.88,-156.53 1002.88,-156.53 1002.88,-144.53 1002.88,-144.53 1002.88,-138.53 1008.88,-132.53 1014.88,-132.53 1014.88,-132.53 1325.68,-132.53 1325.68,-132.53 1331.68,-132.53 1337.68,-138.53 1337.68,-144.53 1337.68,-144.53 1337.68,-156.53 1337.68,-156.53 1337.68,-162.53 1331.68,-168.53 1325.68,-168.53"/>
<text text-anchor="start" x="1017.28" y="-146.85" font-family="Roboto, sans-serif" font-weight="bold" font-size="14.00">17: </text>
<text text-anchor="start" x="1046.53" y="-146.85" font-family="Roboto, sans-serif" font-size="14.00">H&#228;lt der LFA die Vollmacht f&#252;r wirksam?</text>
</g>
<!-- 16&#45;&gt;17 -->
<g id="edge32" class="edge">
<title>16-&gt;17</title>
<path fill="none" stroke="#88a0d6" d="M1170.28,-237.43C1170.28,-221.7 1170.28,-198.01 1170.28,-179.49"/>
<polygon fill="#88a0d6" stroke="#88a0d6" points="1173.78,-179.72 1170.28,-169.72 1166.78,-179.72 1173.78,-179.72"/>
<text text-anchor="start" x="1170.28" y="-191.48" font-family="Roboto, sans-serif" font-weight="bold" font-size="14.00">JA</text>
</g>
<!-- 17&#45;&gt;A11 -->
<g id="edge34" class="edge">
<title>17-&gt;A11</title>
<path fill="none" stroke="#88a0d6" d="M1140.08,-132.75C1114.18,-118.37 1075.89,-97.09 1042.63,-78.61"/>
<polygon fill="#88a0d6" stroke="#88a0d6" points="1044.7,-75.76 1034.26,-73.97 1041.3,-81.88 1044.7,-75.76"/>
<text text-anchor="start" x="1106.28" y="-102.23" font-family="Roboto, sans-serif" font-weight="bold" font-size="14.00">JA</text>
</g>
<!-- A14 -->
<g id="node31" class="node">
<title>A14</title>
<path fill="#c4cac1" stroke="black" stroke-width="0" d="M1593.18,-79.28C1593.18,-79.28 1081.38,-79.28 1081.38,-79.28 1075.38,-79.28 1069.38,-73.28 1069.38,-67.28 1069.38,-67.28 1069.38,-12 1069.38,-12 1069.38,-6 1075.38,0 1081.38,0 1081.38,0 1593.18,0 1593.18,0 1599.18,0 1605.18,-6 1605.18,-12 1605.18,-12 1605.18,-67.28 1605.18,-67.28 1605.18,-73.28 1599.18,-79.28 1593.18,-79.28"/>
<text text-anchor="start" x="1083.78" y="-58.34" font-family="Roboto, sans-serif" font-weight="bold" font-size="14.00">A14</text>
<text text-anchor="start" x="1083.78" y="-46.24" font-family="Roboto, sans-serif" text-decoration="underline" font-size="12.00">Hinweis:</text>
<text text-anchor="start" x="1083.78" y="-34.24" font-family="Roboto, sans-serif" font-size="12.00">Cluster: Ablehnung</text>
<text text-anchor="start" x="1083.78" y="-22.24" font-family="Roboto, sans-serif" font-size="12.00">Die vom LFN eingereichte Vollmacht wird als nicht wirksam vom LFA betrachtet.</text>
<text text-anchor="start" x="1083.78" y="-10.24" font-family="Roboto, sans-serif" font-size="12.00">Hinweis: Der LFA begr&#252;ndet die Ablehnung der fehlenden Wirksamkeit der Vollmacht</text>
</g>
<!-- 17&#45;&gt;A14 -->
<g id="edge35" class="edge">
<title>17-&gt;A14</title>
<path fill="none" stroke="#88a0d6" d="M1196,-132.75C1215.48,-120.06 1243.18,-101.99 1268.9,-85.22"/>
<polygon fill="#88a0d6" stroke="#88a0d6" points="1270.53,-88.34 1277,-79.94 1266.71,-82.47 1270.53,-88.34"/>
<text text-anchor="start" x="1248.28" y="-102.23" font-family="Roboto, sans-serif" font-weight="bold" font-size="14.00">NEIN</text>
</g>
</g>
</svg>
  </g>
</svg>
  </g>
</svg>
