<?xml version='1.0' encoding='ASCII' standalone='yes'?>
<svg xmlns="http://www.w3.org/2000/svg" xmlns:xlink="http://www.w3.org/1999/xlink" version="1.1" width="1897.3333333333333px" viewBox="0 0 1897.3333333333333 1589.3333333333333" height="1589.3333333333333px">
  <g>
    <svg version="1.1" width="1897.3333333333333px" viewBox="0 0 1897.3333333333333 1589.3333333333333" height="1589.3333333333333px">
  <polygon fill="#f3f1f6" points="0,0 1897.3333333333333,0 1897.3333333333333,1589.3333333333333 0,1589.3333333333333"/><g>
    <g transform="translate(300.53554867173557, 158.93333333333328) scale(1 1) translate(0, 0) scale(2.237867267436403 2.237867267436403) "><!-- note that I manually added the width and height attribute to the root node
  https://chatgpt.com/share/678e3028-70cc-800b-a296-782714735772
  -->
  <defs>
    <style>.cls-1{fill:#fff;}</style>
  </defs>
  <path class="cls-1" d="M122.44,531.2h-56.1c-11,0-19.9-9.12-19.46-20.11C57.47,243.89,278.15,29.78,547.91,29.78v56.02c0,10.98-8.69,19.89-19.66,20.39-225.51,10.31-405.8,197-405.8,425Z"/>
  <path class="cls-1" d="M273.78,531.2h-55.93c-11.23,0-20.09-9.48-19.43-20.69,10.74-183.44,163.39-329.39,349.48-329.39v56.26c0,10.71-8.27,19.62-18.96,20.35-142.35,9.77-255.17,128.69-255.17,273.46Z"/>
  <path class="cls-1" d="M425.77,531.2h-55.45c-11.65,0-20.6-10.17-19.33-21.75,10.87-99.03,95.03-176.34,196.92-176.34v57.01c0,10.05-7.28,18.75-17.23,20.16-59.22,8.4-104.91,59.42-104.91,120.92Z"/>
</g>
    <svg width="1423pt" height="1192pt" viewBox="0.00 0.00 1422.89 1192.17">
<g id="graph0" class="graph" transform="scale(1 1) rotate(0) translate(4 1188.17)">
<title>D</title>
<text text-anchor="start" x="420.2" y="-1164.07" font-family="Times,serif" font-weight="bold" font-size="18.00">WiM Strom</text>
<text text-anchor="start" x="420.2" y="-1133.97" font-family="Times,serif" font-weight="bold" font-size="16.00">9.14.4: AD: Abrechnung Messstellenbetrieb gegen&#252;ber dem NB</text>
<!-- Start -->
<g id="node1" class="node">
<title>Start</title>
<path fill="#7a8da1" stroke="black" stroke-width="0" d="M524.89,-1086.17C524.89,-1086.17 388.84,-1086.17 388.84,-1086.17 382.84,-1086.17 376.84,-1080.17 376.84,-1074.17 376.84,-1074.17 376.84,-1054.89 376.84,-1054.89 376.84,-1048.89 382.84,-1042.89 388.84,-1042.89 388.84,-1042.89 524.89,-1042.89 524.89,-1042.89 530.89,-1042.89 536.89,-1048.89 536.89,-1054.89 536.89,-1054.89 536.89,-1074.17 536.89,-1074.17 536.89,-1080.17 530.89,-1086.17 524.89,-1086.17"/>
<text text-anchor="start" x="428.74" y="-1065.23" font-family="Times,serif" font-weight="bold" font-size="14.00">E_0569</text>
<text text-anchor="start" x="391.24" y="-1053.13" font-family="Times,serif" font-weight="bold" text-decoration="underline" font-size="12.00">Pr&#252;fende Rolle:</text>
<text text-anchor="start" x="496.24" y="-1053.13" font-family="Times,serif" font-weight="bold" font-size="12.00"> NB</text>
</g>
<!-- 10 -->
<g id="node2" class="node">
<title>10</title>
<path fill="#7aab8a" stroke="black" stroke-width="0" d="M689.51,-1005.89C689.51,-1005.89 224.22,-1005.89 224.22,-1005.89 218.22,-1005.89 212.22,-999.89 212.22,-993.89 212.22,-993.89 212.22,-981.89 212.22,-981.89 212.22,-975.89 218.22,-969.89 224.22,-969.89 224.22,-969.89 689.51,-969.89 689.51,-969.89 695.51,-969.89 701.51,-975.89 701.51,-981.89 701.51,-981.89 701.51,-993.89 701.51,-993.89 701.51,-999.89 695.51,-1005.89 689.51,-1005.89"/>
<text text-anchor="start" x="226.62" y="-984.21" font-family="Times,serif" font-weight="bold" font-size="14.00">10: </text>
<text text-anchor="start" x="255.87" y="-984.21" font-family="Times,serif" font-size="14.00">Ist die zu stornierende Rechnung beim Empf&#228;nger bekannt?</text>
</g>
<!-- Start&#45;&gt;10 -->
<g id="edge1" class="edge">
<title>Start-&gt;10</title>
<path fill="none" stroke="black" d="M456.87,-1043.13C456.87,-1035.06 456.87,-1025.65 456.87,-1016.96"/>
<polygon fill="black" stroke="black" points="460.37,-1017.25 456.87,-1007.25 453.37,-1017.25 460.37,-1017.25"/>
</g>
<!-- A01 -->
<g id="node3" class="node">
<title>A01</title>
<path fill="#cfb986" stroke="black" stroke-width="0" d="M317.73,-916.64C317.73,-916.64 12,-916.64 12,-916.64 6,-916.64 0,-910.64 0,-904.64 0,-904.64 0,-879.12 0,-879.12 0,-873.12 6,-867.12 12,-867.12 12,-867.12 317.73,-867.12 317.73,-867.12 323.73,-867.12 329.73,-873.12 329.73,-879.12 329.73,-879.12 329.73,-904.64 329.73,-904.64 329.73,-910.64 323.73,-916.64 317.73,-916.64"/>
<text text-anchor="start" x="12.24" y="-898.58" font-family="Times,serif" font-weight="bold" font-size="14.00">A01</text>
<text text-anchor="start" x="12.24" y="-886.48" font-family="Times,serif" text-decoration="underline" font-size="12.00">Hinweis:</text>
<text text-anchor="start" x="12.24" y="-874.48" font-family="Times,serif" font-size="12.00">Die zu stornierende Rechnung ist nicht vorhanden.</text>
</g>
<!-- 10&#45;&gt;A01 -->
<g id="edge2" class="edge">
<title>10-&gt;A01</title>
<path fill="none" stroke="#7aab8a" d="M404.32,-969.97C361.26,-956.11 299.49,-936.22 249.47,-920.12"/>
<polygon fill="#7aab8a" stroke="#7aab8a" points="250.69,-916.84 240.1,-917.1 248.55,-923.5 250.69,-916.84"/>
<text text-anchor="start" x="344.87" y="-939.59" font-family="Times,serif" font-weight="bold" font-size="14.00">NEIN</text>
</g>
<!-- 15 -->
<g id="node4" class="node">
<title>15</title>
<path fill="#7aab8a" stroke="black" stroke-width="0" d="M994.26,-914.52C994.26,-914.52 359.47,-914.52 359.47,-914.52 353.47,-914.52 347.47,-908.52 347.47,-902.52 347.47,-902.52 347.47,-881.24 347.47,-881.24 347.47,-875.24 353.47,-869.24 359.47,-869.24 359.47,-869.24 994.26,-869.24 994.26,-869.24 1000.26,-869.24 1006.26,-875.24 1006.26,-881.24 1006.26,-881.24 1006.26,-902.52 1006.26,-902.52 1006.26,-908.52 1000.26,-914.52 994.26,-914.52"/>
<text text-anchor="start" x="361.87" y="-893.58" font-family="Times,serif" font-weight="bold" font-size="14.00">15: </text>
<text text-anchor="start" x="391.12" y="-893.58" font-family="Times,serif" font-size="14.00">Liegt vom Rechnungssteller die in dieser Rechnung verwendete Rechnungsnummer</text>
<text text-anchor="start" x="361.87" y="-879.58" font-family="Times,serif" font-size="14.00">bereits vor?</text>
</g>
<!-- 10&#45;&gt;15 -->
<g id="edge3" class="edge">
<title>10-&gt;15</title>
<path fill="none" stroke="#7aab8a" d="M496.45,-969.97C529.7,-955.77 577.74,-935.24 615.9,-918.93"/>
<polygon fill="#7aab8a" stroke="#7aab8a" points="617.16,-922.2 624.98,-915.05 614.41,-915.76 617.16,-922.2"/>
<text text-anchor="start" x="572.87" y="-939.59" font-family="Times,serif" font-weight="bold" font-size="14.00">JA</text>
</g>
<!-- A06 -->
<g id="node5" class="node">
<title>A06</title>
<path fill="#cfb986" stroke="black" stroke-width="0" d="M461.98,-813.87C461.98,-813.87 187.75,-813.87 187.75,-813.87 181.75,-813.87 175.75,-807.87 175.75,-801.87 175.75,-801.87 175.75,-776.35 175.75,-776.35 175.75,-770.35 181.75,-764.35 187.75,-764.35 187.75,-764.35 461.98,-764.35 461.98,-764.35 467.98,-764.35 473.98,-770.35 473.98,-776.35 473.98,-776.35 473.98,-801.87 473.98,-801.87 473.98,-807.87 467.98,-813.87 461.98,-813.87"/>
<text text-anchor="start" x="187.99" y="-795.81" font-family="Times,serif" font-weight="bold" font-size="14.00">A06</text>
<text text-anchor="start" x="187.99" y="-783.71" font-family="Times,serif" text-decoration="underline" font-size="12.00">Hinweis:</text>
<text text-anchor="start" x="187.99" y="-771.71" font-family="Times,serif" font-size="12.00">Rechnungsnummer wurde bereits verwendet.</text>
</g>
<!-- 15&#45;&gt;A06 -->
<g id="edge4" class="edge">
<title>15-&gt;A06</title>
<path fill="none" stroke="#7aab8a" d="M601.35,-869.26C547.83,-853.94 475.67,-833.28 418.49,-816.91"/>
<polygon fill="#7aab8a" stroke="#7aab8a" points="419.67,-813.61 409.09,-814.22 417.74,-820.34 419.67,-813.61"/>
<text text-anchor="start" x="521.87" y="-836.82" font-family="Times,serif" font-weight="bold" font-size="14.00">JA</text>
</g>
<!-- 20 -->
<g id="node6" class="node">
<title>20</title>
<path fill="#7aab8a" stroke="black" stroke-width="0" d="M933.51,-807.11C933.51,-807.11 504.22,-807.11 504.22,-807.11 498.22,-807.11 492.22,-801.11 492.22,-795.11 492.22,-795.11 492.22,-783.11 492.22,-783.11 492.22,-777.11 498.22,-771.11 504.22,-771.11 504.22,-771.11 933.51,-771.11 933.51,-771.11 939.51,-771.11 945.51,-777.11 945.51,-783.11 945.51,-783.11 945.51,-795.11 945.51,-795.11 945.51,-801.11 939.51,-807.11 933.51,-807.11"/>
<text text-anchor="start" x="506.62" y="-785.43" font-family="Times,serif" font-weight="bold" font-size="14.00">20: </text>
<text text-anchor="start" x="535.87" y="-785.43" font-family="Times,serif" font-size="14.00">Wurde die zu stornierende Rechnung bereits storniert?</text>
</g>
<!-- 15&#45;&gt;20 -->
<g id="edge5" class="edge">
<title>15-&gt;20</title>
<path fill="none" stroke="#7aab8a" d="M685.77,-869.51C692.11,-854.3 700.68,-833.74 707.51,-817.35"/>
<polygon fill="#7aab8a" stroke="#7aab8a" points="710.71,-818.77 711.33,-808.19 704.25,-816.07 710.71,-818.77"/>
<text text-anchor="start" x="699.87" y="-836.82" font-family="Times,serif" font-weight="bold" font-size="14.00">NEIN</text>
</g>
<!-- A02 -->
<g id="node7" class="node">
<title>A02</title>
<path fill="#cfb986" stroke="black" stroke-width="0" d="M414.36,-711.1C414.36,-711.1 85.38,-711.1 85.38,-711.1 79.38,-711.1 73.38,-705.1 73.38,-699.1 73.38,-699.1 73.38,-673.58 73.38,-673.58 73.38,-667.58 79.38,-661.58 85.38,-661.58 85.38,-661.58 414.36,-661.58 414.36,-661.58 420.36,-661.58 426.36,-667.58 426.36,-673.58 426.36,-673.58 426.36,-699.1 426.36,-699.1 426.36,-705.1 420.36,-711.1 414.36,-711.1"/>
<text text-anchor="start" x="85.62" y="-693.04" font-family="Times,serif" font-weight="bold" font-size="14.00">A02</text>
<text text-anchor="start" x="85.62" y="-680.94" font-family="Times,serif" text-decoration="underline" font-size="12.00">Hinweis:</text>
<text text-anchor="start" x="85.62" y="-668.94" font-family="Times,serif" font-size="12.00">Die zu stornierende Rechnung wurde bereits storniert.</text>
</g>
<!-- 20&#45;&gt;A02 -->
<g id="edge6" class="edge">
<title>20-&gt;A02</title>
<path fill="none" stroke="#7aab8a" d="M639.84,-771.13C566.38,-755.35 455.89,-731.61 371.25,-713.42"/>
<polygon fill="#7aab8a" stroke="#7aab8a" points="372,-710 361.49,-711.32 370.53,-716.85 372,-710"/>
<text text-anchor="start" x="511.87" y="-734.05" font-family="Times,serif" font-weight="bold" font-size="14.00">JA</text>
</g>
<!-- 30 -->
<g id="node8" class="node">
<title>30</title>
<path fill="#7aab8a" stroke="black" stroke-width="0" d="M1061.26,-708.98C1061.26,-708.98 456.47,-708.98 456.47,-708.98 450.47,-708.98 444.47,-702.98 444.47,-696.98 444.47,-696.98 444.47,-675.7 444.47,-675.7 444.47,-669.7 450.47,-663.7 456.47,-663.7 456.47,-663.7 1061.26,-663.7 1061.26,-663.7 1067.26,-663.7 1073.26,-669.7 1073.26,-675.7 1073.26,-675.7 1073.26,-696.98 1073.26,-696.98 1073.26,-702.98 1067.26,-708.98 1061.26,-708.98"/>
<text text-anchor="start" x="458.87" y="-688.04" font-family="Times,serif" font-weight="bold" font-size="14.00">30: </text>
<text text-anchor="start" x="488.12" y="-688.04" font-family="Times,serif" font-size="14.00">Ist der Rechnungstyp der Stornorechnung identisch mit dem Rechnungstyp der</text>
<text text-anchor="start" x="458.87" y="-674.04" font-family="Times,serif" font-size="14.00">urspr&#252;nglichen Rechnung?</text>
</g>
<!-- 20&#45;&gt;30 -->
<g id="edge7" class="edge">
<title>20-&gt;30</title>
<path fill="none" stroke="#7aab8a" d="M725.47,-771.47C731.09,-757.3 739.33,-736.55 746.22,-719.2"/>
<polygon fill="#7aab8a" stroke="#7aab8a" points="749.3,-720.92 749.74,-710.34 742.79,-718.34 749.3,-720.92"/>
<text text-anchor="start" x="740.87" y="-734.05" font-family="Times,serif" font-weight="bold" font-size="14.00">NEIN</text>
</g>
<!-- A03 -->
<g id="node9" class="node">
<title>A03</title>
<path fill="#cfb986" stroke="black" stroke-width="0" d="M528.86,-608.33C528.86,-608.33 40.88,-608.33 40.88,-608.33 34.88,-608.33 28.88,-602.33 28.88,-596.33 28.88,-596.33 28.88,-558.81 28.88,-558.81 28.88,-552.81 34.88,-546.81 40.88,-546.81 40.88,-546.81 528.86,-546.81 528.86,-546.81 534.86,-546.81 540.86,-552.81 540.86,-558.81 540.86,-558.81 540.86,-596.33 540.86,-596.33 540.86,-602.33 534.86,-608.33 528.86,-608.33"/>
<text text-anchor="start" x="41.12" y="-590.27" font-family="Times,serif" font-weight="bold" font-size="14.00">A03</text>
<text text-anchor="start" x="41.12" y="-578.17" font-family="Times,serif" text-decoration="underline" font-size="12.00">Hinweis:</text>
<text text-anchor="start" x="41.12" y="-566.17" font-family="Times,serif" font-size="12.00">Der Rechnungstyp der Stornorechnung ist nicht identisch mit dem Rechnungstyp</text>
<text text-anchor="start" x="41.12" y="-554.17" font-family="Times,serif" font-size="12.00">der urspr&#252;nglichen Rechnung.</text>
</g>
<!-- 30&#45;&gt;A03 -->
<g id="edge8" class="edge">
<title>30-&gt;A03</title>
<path fill="none" stroke="#7aab8a" d="M662.94,-663.73C595.39,-648.52 503.8,-627.88 427.68,-610.74"/>
<polygon fill="#7aab8a" stroke="#7aab8a" points="428.57,-607.35 418.04,-608.57 427.03,-614.18 428.57,-607.35"/>
<text text-anchor="start" x="563.87" y="-631.28" font-family="Times,serif" font-weight="bold" font-size="14.00">NEIN</text>
</g>
<!-- 40 -->
<g id="node10" class="node">
<title>40</title>
<path fill="#7aab8a" stroke="black" stroke-width="0" d="M1168.89,-607.21C1168.89,-607.21 570.84,-607.21 570.84,-607.21 564.84,-607.21 558.84,-601.21 558.84,-595.21 558.84,-595.21 558.84,-559.93 558.84,-559.93 558.84,-553.93 564.84,-547.93 570.84,-547.93 570.84,-547.93 1168.89,-547.93 1168.89,-547.93 1174.89,-547.93 1180.89,-553.93 1180.89,-559.93 1180.89,-559.93 1180.89,-595.21 1180.89,-595.21 1180.89,-601.21 1174.89,-607.21 1168.89,-607.21"/>
<text text-anchor="start" x="573.24" y="-586.27" font-family="Times,serif" font-weight="bold" font-size="14.00">40: </text>
<text text-anchor="start" x="602.49" y="-586.27" font-family="Times,serif" font-size="14.00">Ist der Abrechnungszeitraum bzw. das Ausf&#252;hrungsdatum der Stornorechnung</text>
<text text-anchor="start" x="573.24" y="-572.27" font-family="Times,serif" font-size="14.00">identisch mit dem Abrechnungszeitraum bzw. dem Ausf&#252;hrungsdatum der</text>
<text text-anchor="start" x="573.24" y="-558.27" font-family="Times,serif" font-size="14.00">urspr&#252;nglichen Rechnung?</text>
</g>
<!-- 30&#45;&gt;40 -->
<g id="edge9" class="edge">
<title>30-&gt;40</title>
<path fill="none" stroke="#7aab8a" d="M781.33,-663.73C795.92,-649.7 815.3,-631.06 832.2,-614.8"/>
<polygon fill="#7aab8a" stroke="#7aab8a" points="834.4,-617.54 839.18,-608.08 829.55,-612.49 834.4,-617.54"/>
<text text-anchor="start" x="816.87" y="-631.28" font-family="Times,serif" font-weight="bold" font-size="14.00">JA</text>
</g>
<!-- A04 -->
<g id="node11" class="node">
<title>A04</title>
<path fill="#cfb986" stroke="black" stroke-width="0" d="M597.73,-493.56C597.73,-493.56 88,-493.56 88,-493.56 82,-493.56 76,-487.56 76,-481.56 76,-481.56 76,-432.04 76,-432.04 76,-426.04 82,-420.04 88,-420.04 88,-420.04 597.73,-420.04 597.73,-420.04 603.73,-420.04 609.73,-426.04 609.73,-432.04 609.73,-432.04 609.73,-481.56 609.73,-481.56 609.73,-487.56 603.73,-493.56 597.73,-493.56"/>
<text text-anchor="start" x="88.24" y="-475.5" font-family="Times,serif" font-weight="bold" font-size="14.00">A04</text>
<text text-anchor="start" x="88.24" y="-463.4" font-family="Times,serif" text-decoration="underline" font-size="12.00">Hinweis:</text>
<text text-anchor="start" x="88.24" y="-451.4" font-family="Times,serif" font-size="12.00">Der Abrechnungszeitraum bzw. des Ausf&#252;hrungsdatum der Stornorechnung ist nicht</text>
<text text-anchor="start" x="88.24" y="-439.4" font-family="Times,serif" font-size="12.00">identisch mit dem Abrechnungszeitraum bzw. dem Ausf&#252;hrungsdatum der</text>
<text text-anchor="start" x="88.24" y="-427.4" font-family="Times,serif" font-size="12.00">urspr&#252;nglichen Rechnung.</text>
</g>
<!-- 40&#45;&gt;A04 -->
<g id="edge10" class="edge">
<title>40-&gt;A04</title>
<path fill="none" stroke="#7aab8a" d="M742.96,-547.97C673.73,-532.37 587.11,-512.84 512.18,-495.96"/>
<polygon fill="#7aab8a" stroke="#7aab8a" points="513.21,-492.6 502.69,-493.82 511.68,-499.43 513.21,-492.6"/>
<text text-anchor="start" x="652.87" y="-516.51" font-family="Times,serif" font-weight="bold" font-size="14.00">NEIN</text>
</g>
<!-- 50 -->
<g id="node12" class="node">
<title>50</title>
<path fill="#7aab8a" stroke="black" stroke-width="0" d="M1327.51,-486.44C1327.51,-486.44 640.22,-486.44 640.22,-486.44 634.22,-486.44 628.22,-480.44 628.22,-474.44 628.22,-474.44 628.22,-439.16 628.22,-439.16 628.22,-433.16 634.22,-427.16 640.22,-427.16 640.22,-427.16 1327.51,-427.16 1327.51,-427.16 1333.51,-427.16 1339.51,-433.16 1339.51,-439.16 1339.51,-439.16 1339.51,-474.44 1339.51,-474.44 1339.51,-480.44 1333.51,-486.44 1327.51,-486.44"/>
<text text-anchor="start" x="642.62" y="-465.5" font-family="Times,serif" font-weight="bold" font-size="14.00">50: </text>
<text text-anchor="start" x="671.87" y="-465.5" font-family="Times,serif" font-size="14.00">Entsprechen die Betr&#228;ge der Stornorechnung den Betr&#228;gen der urspr&#252;nglichen Rechnung?</text>
<text text-anchor="start" x="642.62" y="-451.5" font-family="Times,serif" font-size="14.00">Hinweis: Alle MOA-Segmente im Summenteil m&#252;ssen unter Nutzung der</text>
<text text-anchor="start" x="642.62" y="-437.5" font-family="Times,serif" font-size="14.00">Absolutbetragfunktion &#252;bereinstimmen.</text>
</g>
<!-- 40&#45;&gt;50 -->
<g id="edge11" class="edge">
<title>40-&gt;50</title>
<path fill="none" stroke="#7aab8a" d="M897.17,-548.12C912.57,-532.08 931.98,-511.86 948.52,-494.62"/>
<polygon fill="#7aab8a" stroke="#7aab8a" points="950.94,-497.16 955.34,-487.52 945.89,-492.31 950.94,-497.16"/>
<text text-anchor="start" x="929.87" y="-516.51" font-family="Times,serif" font-weight="bold" font-size="14.00">JA</text>
</g>
<!-- A05 -->
<g id="node13" class="node">
<title>A05</title>
<path fill="#cfb986" stroke="black" stroke-width="0" d="M866.11,-366.79C866.11,-366.79 373.62,-366.79 373.62,-366.79 367.62,-366.79 361.62,-360.79 361.62,-354.79 361.62,-354.79 361.62,-317.27 361.62,-317.27 361.62,-311.27 367.62,-305.27 373.62,-305.27 373.62,-305.27 866.11,-305.27 866.11,-305.27 872.11,-305.27 878.11,-311.27 878.11,-317.27 878.11,-317.27 878.11,-354.79 878.11,-354.79 878.11,-360.79 872.11,-366.79 866.11,-366.79"/>
<text text-anchor="start" x="373.87" y="-348.73" font-family="Times,serif" font-weight="bold" font-size="14.00">A05</text>
<text text-anchor="start" x="373.87" y="-336.63" font-family="Times,serif" text-decoration="underline" font-size="12.00">Hinweis:</text>
<text text-anchor="start" x="373.87" y="-324.63" font-family="Times,serif" font-size="12.00">Mindestens ein Betrag der Stornorechnung ist nicht identisch mit dem Betrag der</text>
<text text-anchor="start" x="373.87" y="-312.63" font-family="Times,serif" font-size="12.00">urspr&#252;nglichen Rechnung.</text>
</g>
<!-- 50&#45;&gt;A05 -->
<g id="edge12" class="edge">
<title>50-&gt;A05</title>
<path fill="none" stroke="#7aab8a" d="M896.21,-427.2C843.66,-410.05 776.59,-388.17 721.69,-370.25"/>
<polygon fill="#7aab8a" stroke="#7aab8a" points="722.91,-366.97 712.31,-367.2 720.74,-373.62 722.91,-366.97"/>
<text text-anchor="start" x="811.87" y="-389.74" font-family="Times,serif" font-weight="bold" font-size="14.00">NEIN</text>
</g>
<!-- 60 -->
<g id="node14" class="node">
<title>60</title>
<path fill="#7aab8a" stroke="black" stroke-width="0" d="M1316.02,-354.03C1316.02,-354.03 907.72,-354.03 907.72,-354.03 901.72,-354.03 895.72,-348.03 895.72,-342.03 895.72,-342.03 895.72,-330.03 895.72,-330.03 895.72,-324.03 901.72,-318.03 907.72,-318.03 907.72,-318.03 1316.02,-318.03 1316.02,-318.03 1322.02,-318.03 1328.02,-324.03 1328.02,-330.03 1328.02,-330.03 1328.02,-342.03 1328.02,-342.03 1328.02,-348.03 1322.02,-354.03 1316.02,-354.03"/>
<text text-anchor="start" x="910.12" y="-332.35" font-family="Times,serif" font-weight="bold" font-size="14.00">60: </text>
<text text-anchor="start" x="939.37" y="-332.35" font-family="Times,serif" font-size="14.00">Ist ein zuvor nicht spezifizierter Fehler aufgetreten?</text>
</g>
<!-- 50&#45;&gt;60 -->
<g id="edge13" class="edge">
<title>50-&gt;60</title>
<path fill="none" stroke="#7aab8a" d="M1014.52,-427.35C1036.14,-407.3 1064.79,-380.71 1085.41,-361.58"/>
<polygon fill="#7aab8a" stroke="#7aab8a" points="1087.65,-364.28 1092.6,-354.91 1082.89,-359.14 1087.65,-364.28"/>
<text text-anchor="start" x="1058.87" y="-389.74" font-family="Times,serif" font-weight="bold" font-size="14.00">JA</text>
</g>
<!-- A99 -->
<g id="node15" class="node">
<title>A99</title>
<path fill="#cfb986" stroke="black" stroke-width="0" d="M939.61,-252.02C939.61,-252.02 456.12,-252.02 456.12,-252.02 450.12,-252.02 444.12,-246.02 444.12,-240.02 444.12,-240.02 444.12,-190.5 444.12,-190.5 444.12,-184.5 450.12,-178.5 456.12,-178.5 456.12,-178.5 939.61,-178.5 939.61,-178.5 945.61,-178.5 951.61,-184.5 951.61,-190.5 951.61,-190.5 951.61,-240.02 951.61,-240.02 951.61,-246.02 945.61,-252.02 939.61,-252.02"/>
<text text-anchor="start" x="456.37" y="-233.96" font-family="Times,serif" font-weight="bold" font-size="14.00">A99</text>
<text text-anchor="start" x="456.37" y="-221.86" font-family="Times,serif" text-decoration="underline" font-size="12.00">Hinweis:</text>
<text text-anchor="start" x="456.37" y="-209.86" font-family="Times,serif" font-size="12.00">Ablehnung Sonstiges</text>
<text text-anchor="start" x="456.37" y="-197.86" font-family="Times,serif" font-size="12.00">Hinweis: Das identifizierte Problem ist in der Antwort zu beschreiben/benennen.</text>
<text text-anchor="start" x="456.37" y="-185.86" font-family="Times,serif" font-size="12.00">Nutzungsm&#246;glichkeit Ende: 01.04.2025 00:00 Uhr</text>
</g>
<!-- 60&#45;&gt;A99 -->
<g id="edge14" class="edge">
<title>60-&gt;A99</title>
<path fill="none" stroke="#7aab8a" d="M1052.99,-318.14C995.97,-301.78 907.45,-276.39 833.06,-255.04"/>
<polygon fill="#7aab8a" stroke="#7aab8a" points="834.22,-251.74 823.64,-252.34 832.29,-258.47 834.22,-251.74"/>
<text text-anchor="start" x="941.87" y="-274.97" font-family="Times,serif" font-weight="bold" font-size="14.00">JA</text>
</g>
<!-- 70 -->
<g id="node16" class="node">
<title>70</title>
<path fill="#7aab8a" stroke="black" stroke-width="0" d="M1376.27,-233.26C1376.27,-233.26 981.47,-233.26 981.47,-233.26 975.47,-233.26 969.47,-227.26 969.47,-221.26 969.47,-221.26 969.47,-209.26 969.47,-209.26 969.47,-203.26 975.47,-197.26 981.47,-197.26 981.47,-197.26 1376.27,-197.26 1376.27,-197.26 1382.27,-197.26 1388.27,-203.26 1388.27,-209.26 1388.27,-209.26 1388.27,-221.26 1388.27,-221.26 1388.27,-227.26 1382.27,-233.26 1376.27,-233.26"/>
<text text-anchor="start" x="983.87" y="-211.58" font-family="Times,serif" font-weight="bold" font-size="14.00">70: </text>
<text text-anchor="start" x="1013.12" y="-211.58" font-family="Times,serif" font-size="14.00">Wurde der urspr&#252;nglichen Rechnung zugestimmt?</text>
</g>
<!-- 60&#45;&gt;70 -->
<g id="edge15" class="edge">
<title>60-&gt;70</title>
<path fill="none" stroke="#7aab8a" d="M1121.32,-318.27C1132.4,-298.64 1150.88,-265.87 1163.9,-242.79"/>
<polygon fill="#7aab8a" stroke="#7aab8a" points="1166.85,-244.69 1168.71,-234.26 1160.75,-241.25 1166.85,-244.69"/>
<text text-anchor="start" x="1146.87" y="-274.97" font-family="Times,serif" font-weight="bold" font-size="14.00">NEIN</text>
</g>
<!-- Ende -->
<g id="node17" class="node">
<title>Ende</title>
<path fill="#7a8da1" stroke="black" stroke-width="0" d="M1022.64,-36C1022.64,-36 981.09,-36 981.09,-36 975.09,-36 969.09,-30 969.09,-24 969.09,-24 969.09,-12 969.09,-12 969.09,-6 975.09,0 981.09,0 981.09,0 1022.64,0 1022.64,0 1028.64,0 1034.64,-6 1034.64,-12 1034.64,-12 1034.64,-24 1034.64,-24 1034.64,-30 1028.64,-36 1022.64,-36"/>
<text text-anchor="middle" x="1001.87" y="-13.32" font-family="Times,serif" font-size="14.00">Ende</text>
</g>
<!-- 70&#45;&gt;Ende -->
<g id="edge16" class="edge">
<title>70-&gt;Ende</title>
<path fill="none" stroke="#7aab8a" d="M1100.62,-197.28C1061.63,-184.43 1017.93,-162.41 994.62,-125.25 979.9,-101.8 984.88,-69.44 991.54,-46.61"/>
<polygon fill="#7aab8a" stroke="#7aab8a" points="994.78,-47.98 994.52,-37.39 988.12,-45.83 994.78,-47.98"/>
<text text-anchor="start" x="993.87" y="-103.58" font-family="Times,serif" font-weight="bold" font-size="14.00">JA</text>
</g>
<!-- 80 -->
<g id="node18" class="node">
<title>80</title>
<path fill="#7aab8a" stroke="black" stroke-width="0" d="M1402.89,-125.25C1402.89,-125.25 1032.84,-125.25 1032.84,-125.25 1026.84,-125.25 1020.84,-119.25 1020.84,-113.25 1020.84,-113.25 1020.84,-101.25 1020.84,-101.25 1020.84,-95.25 1026.84,-89.25 1032.84,-89.25 1032.84,-89.25 1402.89,-89.25 1402.89,-89.25 1408.89,-89.25 1414.89,-95.25 1414.89,-101.25 1414.89,-101.25 1414.89,-113.25 1414.89,-113.25 1414.89,-119.25 1408.89,-125.25 1402.89,-125.25"/>
<text text-anchor="start" x="1035.24" y="-103.58" font-family="Times,serif" font-weight="bold" font-size="14.00">80: </text>
<text text-anchor="start" x="1064.49" y="-103.58" font-family="Times,serif" font-size="14.00">Wurde die urspr&#252;ngliche Rechnung abgelehnt?</text>
</g>
<!-- 70&#45;&gt;80 -->
<g id="edge17" class="edge">
<title>70-&gt;80</title>
<path fill="none" stroke="#7aab8a" d="M1184.96,-197.7C1191.05,-181.15 1200.52,-155.41 1207.74,-135.78"/>
<polygon fill="#7aab8a" stroke="#7aab8a" points="1210.99,-137.06 1211.16,-126.47 1204.43,-134.64 1210.99,-137.06"/>
<text text-anchor="start" x="1203.87" y="-148.2" font-family="Times,serif" font-weight="bold" font-size="14.00">NEIN</text>
</g>
<!-- 80&#45;&gt;Ende -->
<g id="edge18" class="edge">
<title>80-&gt;Ende</title>
<path fill="none" stroke="#7aab8a" d="M1175.96,-89.32C1138.17,-74.06 1082.83,-51.71 1044.75,-36.32"/>
<polygon fill="#7aab8a" stroke="#7aab8a" points="1046.47,-33.24 1035.89,-32.74 1043.85,-39.74 1046.47,-33.24"/>
<text text-anchor="start" x="1128.87" y="-58.95" font-family="Times,serif" font-weight="bold" font-size="14.00">NEIN</text>
</g>
</g>
</svg>
  </g>
</svg>
  </g>
</svg>
