<?xml version='1.0' encoding='ASCII' standalone='yes'?>
<svg xmlns="http://www.w3.org/2000/svg" xmlns:xlink="http://www.w3.org/1999/xlink" version="1.1" width="1920.0px" viewBox="0 0 1920.0 1850.6666666666667" height="1850.6666666666667px">
  <g>
    <svg version="1.1" width="1920.0px" viewBox="0 0 1920.0 1850.6666666666667" height="1850.6666666666667px">
  <rect fill="#e7e6e5" x="0" y="0" width="1920.0" height="1850.6666666666667" rx="20" ry="20"/><g>
    <g transform="translate(205.29698676429155, 185.06666666666663) scale(1 1) translate(0, 0) scale(2.605838730873933 2.605838730873933) "><!-- note that I manually added the width and height attribute to the root node
  https://chatgpt.com/share/678e3028-70cc-800b-a296-782714735772
  -->
  <defs>
    <style>.cls-1{fill:#fff;}</style>
  </defs>
  <path class="cls-1" d="M122.44,531.2h-56.1c-11,0-19.9-9.12-19.46-20.11C57.47,243.89,278.15,29.78,547.91,29.78v56.02c0,10.98-8.69,19.89-19.66,20.39-225.51,10.31-405.8,197-405.8,425Z"/>
  <path class="cls-1" d="M273.78,531.2h-55.93c-11.23,0-20.09-9.48-19.43-20.69,10.74-183.44,163.39-329.39,349.48-329.39v56.26c0,10.71-8.27,19.62-18.96,20.35-142.35,9.77-255.17,128.69-255.17,273.46Z"/>
  <path class="cls-1" d="M425.77,531.2h-55.45c-11.65,0-20.6-10.17-19.33-21.75,10.87-99.03,95.03-176.34,196.92-176.34v57.01c0,10.05-7.28,18.75-17.23,20.16-59.22,8.4-104.91,59.42-104.91,120.92Z"/>
</g>
    <svg width="1440pt" height="1388pt" viewBox="0.00 0.00 1440.00 1388.49">
<g id="graph0" class="graph" transform="scale(0.749249 0.749249) rotate(0) translate(4 1849.17)">
<title>D</title>
<text text-anchor="start" x="705.71" y="-1825.07" font-family="Roboto, sans-serif" font-weight="bold" font-size="18.00">GPKE</text>
<text text-anchor="start" x="705.71" y="-1794.97" font-family="Roboto, sans-serif" font-weight="bold" font-size="16.00">6.36.1: AD Bestellung einer Konfiguration vom LF an NB</text>
<!-- Start -->
<g id="node1" class="node">
<title>Start</title>
<path fill="#8ba2d7" stroke="black" stroke-width="0" d="M560.8,-1747.17C560.8,-1747.17 429.25,-1747.17 429.25,-1747.17 423.25,-1747.17 417.25,-1741.17 417.25,-1735.17 417.25,-1735.17 417.25,-1715.89 417.25,-1715.89 417.25,-1709.89 423.25,-1703.89 429.25,-1703.89 429.25,-1703.89 560.8,-1703.89 560.8,-1703.89 566.8,-1703.89 572.8,-1709.89 572.8,-1715.89 572.8,-1715.89 572.8,-1735.17 572.8,-1735.17 572.8,-1741.17 566.8,-1747.17 560.8,-1747.17"/>
<text text-anchor="start" x="431.65" y="-1726.23" font-family="Roboto, sans-serif" font-weight="bold" font-size="14.00">E_0523</text>
<text text-anchor="start" x="431.65" y="-1714.13" font-family="Roboto, sans-serif" font-weight="bold" text-decoration="underline" font-size="12.00">Pr&#252;fende Rolle:</text>
<text text-anchor="start" x="535.15" y="-1714.13" font-family="Roboto, sans-serif" font-weight="bold" font-size="12.00"> NB</text>
</g>
<!-- 10 -->
<g id="node2" class="node">
<title>10</title>
<path fill="#c2cee9" stroke="black" stroke-width="0" d="M705.55,-1666.89C705.55,-1666.89 284.5,-1666.89 284.5,-1666.89 278.5,-1666.89 272.5,-1660.89 272.5,-1654.89 272.5,-1654.89 272.5,-1642.89 272.5,-1642.89 272.5,-1636.89 278.5,-1630.89 284.5,-1630.89 284.5,-1630.89 705.55,-1630.89 705.55,-1630.89 711.55,-1630.89 717.55,-1636.89 717.55,-1642.89 717.55,-1642.89 717.55,-1654.89 717.55,-1654.89 717.55,-1660.89 711.55,-1666.89 705.55,-1666.89"/>
<text text-anchor="start" x="286.9" y="-1645.22" font-family="Roboto, sans-serif" font-weight="bold" font-size="14.00">10: </text>
<text text-anchor="start" x="316.15" y="-1645.22" font-family="Roboto, sans-serif" font-size="14.00">Handelt es sich um eine kostenpflichtige Konfiguration?</text>
</g>
<!-- Start&#45;&gt;10 -->
<g id="edge1" class="edge">
<title>Start-&gt;10</title>
<path fill="none" stroke="#88a0d6" d="M495.02,-1704.13C495.02,-1696.06 495.02,-1686.65 495.02,-1677.96"/>
<polygon fill="#88a0d6" stroke="#88a0d6" points="498.53,-1678.25 495.03,-1668.25 491.53,-1678.25 498.53,-1678.25"/>
</g>
<!-- A01 -->
<g id="node3" class="node">
<title>A01</title>
<path fill="#c4cac1" stroke="black" stroke-width="0" d="M492.05,-1577.64C492.05,-1577.64 308,-1577.64 308,-1577.64 302,-1577.64 296,-1571.64 296,-1565.64 296,-1565.64 296,-1522.36 296,-1522.36 296,-1516.36 302,-1510.36 308,-1510.36 308,-1510.36 492.05,-1510.36 492.05,-1510.36 498.05,-1510.36 504.05,-1516.36 504.05,-1522.36 504.05,-1522.36 504.05,-1565.64 504.05,-1565.64 504.05,-1571.64 498.05,-1577.64 492.05,-1577.64"/>
<text text-anchor="start" x="310.4" y="-1556.7" font-family="Roboto, sans-serif" font-weight="bold" font-size="14.00">A01</text>
<text text-anchor="start" x="310.4" y="-1544.6" font-family="Roboto, sans-serif" text-decoration="underline" font-size="12.00">Hinweis:</text>
<text text-anchor="start" x="310.4" y="-1532.6" font-family="Roboto, sans-serif" font-size="12.00">Cluster: Ablehnung</text>
<text text-anchor="start" x="310.4" y="-1520.6" font-family="Roboto, sans-serif" font-size="12.00">Kostenpflichtige Konfiguration</text>
</g>
<!-- 10&#45;&gt;A01 -->
<g id="edge2" class="edge">
<title>10-&gt;A01</title>
<path fill="none" stroke="#88a0d6" d="M479.34,-1630.9C467.94,-1618.55 452.02,-1601.31 437.43,-1585.51"/>
<polygon fill="#88a0d6" stroke="#88a0d6" points="440.33,-1583.49 430.98,-1578.52 435.19,-1588.24 440.33,-1583.49"/>
<text text-anchor="start" x="461.02" y="-1600.59" font-family="Roboto, sans-serif" font-weight="bold" font-size="14.00">JA</text>
</g>
<!-- 20 -->
<g id="node4" class="node">
<title>20</title>
<path fill="#c2cee9" stroke="black" stroke-width="0" d="M1072.42,-1566.64C1072.42,-1566.64 533.62,-1566.64 533.62,-1566.64 527.62,-1566.64 521.62,-1560.64 521.62,-1554.64 521.62,-1554.64 521.62,-1533.36 521.62,-1533.36 521.62,-1527.36 527.62,-1521.36 533.62,-1521.36 533.62,-1521.36 1072.42,-1521.36 1072.42,-1521.36 1078.42,-1521.36 1084.42,-1527.36 1084.42,-1533.36 1084.42,-1533.36 1084.42,-1554.64 1084.42,-1554.64 1084.42,-1560.64 1078.42,-1566.64 1072.42,-1566.64"/>
<text text-anchor="start" x="536.02" y="-1545.7" font-family="Roboto, sans-serif" font-weight="bold" font-size="14.00">20: </text>
<text text-anchor="start" x="565.27" y="-1545.7" font-family="Roboto, sans-serif" font-size="14.00">Handelt sich um eine Bestellung einer Konfiguration einer &#196;nderung des</text>
<text text-anchor="start" x="536.02" y="-1531.7" font-family="Roboto, sans-serif" font-size="14.00">Bilanzierungsverfahrens (Prognosegrundlage)?</text>
</g>
<!-- 10&#45;&gt;20 -->
<g id="edge3" class="edge">
<title>10-&gt;20</title>
<path fill="none" stroke="#88a0d6" d="M545.88,-1630.9C595.4,-1614.36 671.25,-1589.02 727.76,-1570.14"/>
<polygon fill="#88a0d6" stroke="#88a0d6" points="728.62,-1573.55 737,-1567.06 726.4,-1566.91 728.62,-1573.55"/>
<text text-anchor="start" x="649.02" y="-1600.59" font-family="Roboto, sans-serif" font-weight="bold" font-size="14.00">NEIN</text>
</g>
<!-- 30 -->
<g id="node5" class="node">
<title>30</title>
<path fill="#c2cee9" stroke="black" stroke-width="0" d="M805.8,-1445.47C805.8,-1445.47 224.25,-1445.47 224.25,-1445.47 218.25,-1445.47 212.25,-1439.47 212.25,-1433.47 212.25,-1433.47 212.25,-1421.47 212.25,-1421.47 212.25,-1415.47 218.25,-1409.47 224.25,-1409.47 224.25,-1409.47 805.8,-1409.47 805.8,-1409.47 811.8,-1409.47 817.8,-1415.47 817.8,-1421.47 817.8,-1421.47 817.8,-1433.47 817.8,-1433.47 817.8,-1439.47 811.8,-1445.47 805.8,-1445.47"/>
<text text-anchor="start" x="226.65" y="-1423.8" font-family="Roboto, sans-serif" font-weight="bold" font-size="14.00">30: </text>
<text text-anchor="start" x="255.9" y="-1423.8" font-family="Roboto, sans-serif" font-size="14.00">Handelt es sich um eine Bestellung einer Konfiguration einer Z&#228;hlzeitdefinition</text>
</g>
<!-- 20&#45;&gt;30 -->
<g id="edge5" class="edge">
<title>20-&gt;30</title>
<path fill="none" stroke="#88a0d6" d="M748.85,-1521.46C697.13,-1500.89 619.67,-1470.08 568.26,-1449.64"/>
<polygon fill="#88a0d6" stroke="#88a0d6" points="569.7,-1446.44 559.11,-1446 567.11,-1452.95 569.7,-1446.44"/>
<text text-anchor="start" x="667.02" y="-1480.06" font-family="Roboto, sans-serif" font-weight="bold" font-size="14.00">NEIN</text>
</g>
<!-- 40 -->
<g id="node6" class="node">
<title>40</title>
<path fill="#c2cee9" stroke="black" stroke-width="0" d="M1456.3,-1457.11C1456.3,-1457.11 847.75,-1457.11 847.75,-1457.11 841.75,-1457.11 835.75,-1451.11 835.75,-1445.11 835.75,-1445.11 835.75,-1409.83 835.75,-1409.83 835.75,-1403.83 841.75,-1397.83 847.75,-1397.83 847.75,-1397.83 1456.3,-1397.83 1456.3,-1397.83 1462.3,-1397.83 1468.3,-1403.83 1468.3,-1409.83 1468.3,-1409.83 1468.3,-1445.11 1468.3,-1445.11 1468.3,-1451.11 1462.3,-1457.11 1456.3,-1457.11"/>
<text text-anchor="start" x="850.15" y="-1436.17" font-family="Roboto, sans-serif" font-weight="bold" font-size="14.00">40: </text>
<text text-anchor="start" x="879.4" y="-1436.17" font-family="Roboto, sans-serif" font-size="14.00">Handelt es sich um eine Marktlokation mit der messtechnischen Einordnung &#8222;iMS&#8220;</text>
<text text-anchor="start" x="850.15" y="-1422.17" font-family="Roboto, sans-serif" font-size="14.00">oder um eine Marktlokation, bei der alle Messlokationen mit einem Z&#228;hler des</text>
<text text-anchor="start" x="850.15" y="-1408.17" font-family="Roboto, sans-serif" font-size="14.00">Typs Lastgangz&#228;hler ausgestattet sind?</text>
</g>
<!-- 20&#45;&gt;40 -->
<g id="edge4" class="edge">
<title>20-&gt;40</title>
<path fill="none" stroke="#88a0d6" d="M868.67,-1521.46C920.9,-1504.32 994.8,-1480.07 1054.04,-1460.63"/>
<polygon fill="#88a0d6" stroke="#88a0d6" points="1055.07,-1463.97 1063.48,-1457.53 1052.89,-1457.32 1055.07,-1463.97"/>
<text text-anchor="start" x="1008.02" y="-1480.06" font-family="Roboto, sans-serif" font-weight="bold" font-size="14.00">JA</text>
</g>
<!-- 140 -->
<g id="node23" class="node">
<title>140</title>
<path fill="#c2cee9" stroke="black" stroke-width="0" d="M748.3,-1316.94C748.3,-1316.94 169.75,-1316.94 169.75,-1316.94 163.75,-1316.94 157.75,-1310.94 157.75,-1304.94 157.75,-1304.94 157.75,-1292.94 157.75,-1292.94 157.75,-1286.94 163.75,-1280.94 169.75,-1280.94 169.75,-1280.94 748.3,-1280.94 748.3,-1280.94 754.3,-1280.94 760.3,-1286.94 760.3,-1292.94 760.3,-1292.94 760.3,-1304.94 760.3,-1304.94 760.3,-1310.94 754.3,-1316.94 748.3,-1316.94"/>
<text text-anchor="start" x="172.15" y="-1295.27" font-family="Roboto, sans-serif" font-weight="bold" font-size="14.00">140: </text>
<text text-anchor="start" x="211.15" y="-1295.27" font-family="Roboto, sans-serif" font-size="14.00">Handelt es sich bei der Marktlokation um eine verbrauchende Marktlokation?</text>
</g>
<!-- 30&#45;&gt;140 -->
<g id="edge6" class="edge">
<title>30-&gt;140</title>
<path fill="none" stroke="#88a0d6" d="M507.59,-1409.67C498.26,-1388.59 482.14,-1352.17 471.05,-1327.1"/>
<polygon fill="#88a0d6" stroke="#88a0d6" points="474.35,-1325.92 467.1,-1318.2 467.95,-1328.76 474.35,-1325.92"/>
<text text-anchor="start" x="493.02" y="-1367.53" font-family="Roboto, sans-serif" font-weight="bold" font-size="14.00">JA</text>
</g>
<!-- 190 -->
<g id="node32" class="node">
<title>190</title>
<path fill="#c2cee9" stroke="black" stroke-width="0" d="M908.42,-690.29C908.42,-690.29 555.62,-690.29 555.62,-690.29 549.62,-690.29 543.62,-684.29 543.62,-678.29 543.62,-678.29 543.62,-666.29 543.62,-666.29 543.62,-660.29 549.62,-654.29 555.62,-654.29 555.62,-654.29 908.42,-654.29 908.42,-654.29 914.42,-654.29 920.42,-660.29 920.42,-666.29 920.42,-666.29 920.42,-678.29 920.42,-678.29 920.42,-684.29 914.42,-690.29 908.42,-690.29"/>
<text text-anchor="start" x="558.02" y="-668.62" font-family="Roboto, sans-serif" font-weight="bold" font-size="14.00">190: </text>
<text text-anchor="start" x="597.02" y="-668.62" font-family="Roboto, sans-serif" font-size="14.00">Ist der bestellte Zustand bereits vorhanden?</text>
</g>
<!-- 30&#45;&gt;190 -->
<g id="edge7" class="edge">
<title>30-&gt;190</title>
<path fill="none" stroke="#88a0d6" d="M636.58,-1409.5C682.67,-1397.79 732.72,-1378 769.02,-1344.58 801.35,-1314.82 773.38,-1281.56 807.02,-1253.3 889.69,-1183.86 976.57,-1284.34 1044.03,-1200.05 1160.82,-1054.11 888.04,-1172.63 814.02,-1079.52 792.1,-1051.94 793.02,-1028.53 814.02,-1000.24 820.11,-992.04 983.34,-954.72 990.02,-946.99 1017.35,-915.41 1001.69,-895.78 1004.02,-854.08"/>
<text text-anchor="start" x="814.02" y="-1036.2" font-family="Roboto, sans-serif" font-weight="bold" font-size="14.00">NEIN</text>
</g>
<!-- A02 -->
<g id="node7" class="node">
<title>A02</title>
<path fill="#c4cac1" stroke="black" stroke-width="0" d="M1312.43,-1344.58C1312.43,-1344.58 827.63,-1344.58 827.63,-1344.58 821.63,-1344.58 815.63,-1338.58 815.63,-1332.58 815.63,-1332.58 815.63,-1265.3 815.63,-1265.3 815.63,-1259.3 821.63,-1253.3 827.63,-1253.3 827.63,-1253.3 1312.43,-1253.3 1312.43,-1253.3 1318.43,-1253.3 1324.43,-1259.3 1324.43,-1265.3 1324.43,-1265.3 1324.43,-1332.58 1324.43,-1332.58 1324.43,-1338.58 1318.43,-1344.58 1312.43,-1344.58"/>
<text text-anchor="start" x="830.03" y="-1323.64" font-family="Roboto, sans-serif" font-weight="bold" font-size="14.00">A02</text>
<text text-anchor="start" x="830.03" y="-1311.54" font-family="Roboto, sans-serif" text-decoration="underline" font-size="12.00">Hinweis:</text>
<text text-anchor="start" x="830.03" y="-1299.54" font-family="Roboto, sans-serif" font-size="12.00">Cluster: Ablehnung</text>
<text text-anchor="start" x="830.03" y="-1287.54" font-family="Roboto, sans-serif" font-size="12.00">Marktlokation befindet sich nicht in der messtechnischen Einordnung &#8222;iMS&#8220; oder</text>
<text text-anchor="start" x="830.03" y="-1275.54" font-family="Roboto, sans-serif" font-size="12.00">es handelt sich nicht um eine Marktlokation, bei der alle Messlokationen mit</text>
<text text-anchor="start" x="830.03" y="-1263.54" font-family="Roboto, sans-serif" font-size="12.00">einem Z&#228;hler des Typs Lastgangz&#228;hler ausgestattet sind.</text>
</g>
<!-- 40&#45;&gt;A02 -->
<g id="edge8" class="edge">
<title>40-&gt;A02</title>
<path fill="none" stroke="#88a0d6" d="M1123.35,-1397.96C1118.27,-1392.2 1113.25,-1386.01 1109.03,-1379.83 1103.64,-1371.95 1098.59,-1363.22 1094.01,-1354.51"/>
<polygon fill="#88a0d6" stroke="#88a0d6" points="1097.19,-1353.04 1089.55,-1345.69 1090.94,-1356.2 1097.19,-1353.04"/>
<text text-anchor="start" x="1109.03" y="-1367.53" font-family="Roboto, sans-serif" font-weight="bold" font-size="14.00">NEIN</text>
</g>
<!-- 50 -->
<g id="node8" class="node">
<title>50</title>
<path fill="#c2cee9" stroke="black" stroke-width="0" d="M1901.55,-1321.58C1901.55,-1321.58 1354.5,-1321.58 1354.5,-1321.58 1348.5,-1321.58 1342.5,-1315.58 1342.5,-1309.58 1342.5,-1309.58 1342.5,-1288.3 1342.5,-1288.3 1342.5,-1282.3 1348.5,-1276.3 1354.5,-1276.3 1354.5,-1276.3 1901.55,-1276.3 1901.55,-1276.3 1907.55,-1276.3 1913.55,-1282.3 1913.55,-1288.3 1913.55,-1288.3 1913.55,-1309.58 1913.55,-1309.58 1913.55,-1315.58 1907.55,-1321.58 1901.55,-1321.58"/>
<text text-anchor="start" x="1356.9" y="-1300.64" font-family="Roboto, sans-serif" font-weight="bold" font-size="14.00">50: </text>
<text text-anchor="start" x="1386.15" y="-1300.64" font-family="Roboto, sans-serif" font-size="14.00">Entspricht der geplante Termin zur &#196;nderung der Prognosegrundlage den</text>
<text text-anchor="start" x="1356.9" y="-1286.64" font-family="Roboto, sans-serif" font-size="14.00">Prozessfristvorgaben?</text>
</g>
<!-- 40&#45;&gt;50 -->
<g id="edge9" class="edge">
<title>40-&gt;50</title>
<path fill="none" stroke="#88a0d6" d="M1259.74,-1397.84C1342.9,-1375.73 1456.74,-1345.47 1535.75,-1324.47"/>
<polygon fill="#88a0d6" stroke="#88a0d6" points="1536.43,-1327.91 1545.2,-1321.96 1534.63,-1321.14 1536.43,-1327.91"/>
<text text-anchor="start" x="1390.03" y="-1367.53" font-family="Roboto, sans-serif" font-weight="bold" font-size="14.00">JA</text>
</g>
<!-- A03 -->
<g id="node9" class="node">
<title>A03</title>
<path fill="#c4cac1" stroke="black" stroke-width="0" d="M1382.8,-1200.05C1382.8,-1200.05 1263.25,-1200.05 1263.25,-1200.05 1257.25,-1200.05 1251.25,-1194.05 1251.25,-1188.05 1251.25,-1188.05 1251.25,-1144.77 1251.25,-1144.77 1251.25,-1138.77 1257.25,-1132.77 1263.25,-1132.77 1263.25,-1132.77 1382.8,-1132.77 1382.8,-1132.77 1388.8,-1132.77 1394.8,-1138.77 1394.8,-1144.77 1394.8,-1144.77 1394.8,-1188.05 1394.8,-1188.05 1394.8,-1194.05 1388.8,-1200.05 1382.8,-1200.05"/>
<text text-anchor="start" x="1265.65" y="-1179.11" font-family="Roboto, sans-serif" font-weight="bold" font-size="14.00">A03</text>
<text text-anchor="start" x="1265.65" y="-1167.01" font-family="Roboto, sans-serif" text-decoration="underline" font-size="12.00">Hinweis:</text>
<text text-anchor="start" x="1265.65" y="-1155.01" font-family="Roboto, sans-serif" font-size="12.00">Cluster: Ablehnung</text>
<text text-anchor="start" x="1265.65" y="-1143.01" font-family="Roboto, sans-serif" font-size="12.00">Frist&#252;berschreitung</text>
</g>
<!-- 50&#45;&gt;A03 -->
<g id="edge10" class="edge">
<title>50-&gt;A03</title>
<path fill="none" stroke="#88a0d6" d="M1577.66,-1276.39C1530.77,-1256.32 1460.04,-1226.05 1405.01,-1202.5"/>
<polygon fill="#88a0d6" stroke="#88a0d6" points="1406.54,-1199.34 1395.97,-1198.63 1403.78,-1205.78 1406.54,-1199.34"/>
<text text-anchor="start" x="1475.03" y="-1223" font-family="Roboto, sans-serif" font-weight="bold" font-size="14.00">NEIN</text>
</g>
<!-- 60 -->
<g id="node10" class="node">
<title>60</title>
<path fill="#c2cee9" stroke="black" stroke-width="0" d="M1841.68,-1184.41C1841.68,-1184.41 1424.38,-1184.41 1424.38,-1184.41 1418.38,-1184.41 1412.38,-1178.41 1412.38,-1172.41 1412.38,-1172.41 1412.38,-1160.41 1412.38,-1160.41 1412.38,-1154.41 1418.38,-1148.41 1424.38,-1148.41 1424.38,-1148.41 1841.68,-1148.41 1841.68,-1148.41 1847.68,-1148.41 1853.68,-1154.41 1853.68,-1160.41 1853.68,-1160.41 1853.68,-1172.41 1853.68,-1172.41 1853.68,-1178.41 1847.68,-1184.41 1841.68,-1184.41"/>
<text text-anchor="start" x="1426.78" y="-1162.74" font-family="Roboto, sans-serif" font-weight="bold" font-size="14.00">60: </text>
<text text-anchor="start" x="1456.03" y="-1162.74" font-family="Roboto, sans-serif" font-size="14.00">Handelt es sich um eine verbrauchende Marktlokation?</text>
</g>
<!-- 50&#45;&gt;60 -->
<g id="edge11" class="edge">
<title>50-&gt;60</title>
<path fill="none" stroke="#88a0d6" d="M1628.85,-1276.39C1629.7,-1254.21 1631.03,-1219.57 1631.96,-1195.32"/>
<polygon fill="#88a0d6" stroke="#88a0d6" points="1635.45,-1195.66 1632.33,-1185.53 1628.45,-1195.39 1635.45,-1195.66"/>
<text text-anchor="start" x="1630.03" y="-1223" font-family="Roboto, sans-serif" font-weight="bold" font-size="14.00">JA</text>
</g>
<!-- A04 -->
<g id="node11" class="node">
<title>A04</title>
<path fill="#c4cac1" stroke="black" stroke-width="0" d="M1330.18,-1079.52C1330.18,-1079.52 873.88,-1079.52 873.88,-1079.52 867.88,-1079.52 861.88,-1073.52 861.88,-1067.52 861.88,-1067.52 861.88,-1012.24 861.88,-1012.24 861.88,-1006.24 867.88,-1000.24 873.88,-1000.24 873.88,-1000.24 1330.18,-1000.24 1330.18,-1000.24 1336.18,-1000.24 1342.18,-1006.24 1342.18,-1012.24 1342.18,-1012.24 1342.18,-1067.52 1342.18,-1067.52 1342.18,-1073.52 1336.18,-1079.52 1330.18,-1079.52"/>
<text text-anchor="start" x="876.28" y="-1058.58" font-family="Roboto, sans-serif" font-weight="bold" font-size="14.00">A04</text>
<text text-anchor="start" x="876.28" y="-1046.48" font-family="Roboto, sans-serif" text-decoration="underline" font-size="12.00">Hinweis:</text>
<text text-anchor="start" x="876.28" y="-1034.48" font-family="Roboto, sans-serif" font-size="12.00">Cluster: Ablehnung</text>
<text text-anchor="start" x="876.28" y="-1022.48" font-family="Roboto, sans-serif" font-size="12.00">Erzeugende Marktlokationen mit iMS oder kME/ RLM werden immer auf der</text>
<text text-anchor="start" x="876.28" y="-1010.48" font-family="Roboto, sans-serif" font-size="12.00">Prognosegrundlage auf Basis von Werten bilanziert.</text>
</g>
<!-- 60&#45;&gt;A04 -->
<g id="edge12" class="edge">
<title>60-&gt;A04</title>
<path fill="none" stroke="#88a0d6" d="M1560.58,-1148.42C1488.17,-1131.44 1374.04,-1104.67 1277.76,-1082.09"/>
<polygon fill="#88a0d6" stroke="#88a0d6" points="1278.72,-1078.72 1268.18,-1079.85 1277.12,-1085.54 1278.72,-1078.72"/>
<text text-anchor="start" x="1415.03" y="-1102.47" font-family="Roboto, sans-serif" font-weight="bold" font-size="14.00">NEIN</text>
</g>
<!-- 70 -->
<g id="node12" class="node">
<title>70</title>
<path fill="#c2cee9" stroke="black" stroke-width="0" d="M1901.93,-1062.52C1901.93,-1062.52 1372.12,-1062.52 1372.12,-1062.52 1366.12,-1062.52 1360.12,-1056.52 1360.12,-1050.52 1360.12,-1050.52 1360.12,-1029.24 1360.12,-1029.24 1360.12,-1023.24 1366.12,-1017.24 1372.12,-1017.24 1372.12,-1017.24 1901.93,-1017.24 1901.93,-1017.24 1907.93,-1017.24 1913.93,-1023.24 1913.93,-1029.24 1913.93,-1029.24 1913.93,-1050.52 1913.93,-1050.52 1913.93,-1056.52 1907.93,-1062.52 1901.93,-1062.52"/>
<text text-anchor="start" x="1374.53" y="-1041.58" font-family="Roboto, sans-serif" font-weight="bold" font-size="14.00">70: </text>
<text text-anchor="start" x="1403.78" y="-1041.58" font-family="Roboto, sans-serif" font-size="14.00">Liegt eine Zuordnungserm&#228;chtigung f&#252;r den sich aus der gew&#252;nschten</text>
<text text-anchor="start" x="1374.53" y="-1027.58" font-family="Roboto, sans-serif" font-size="14.00">Prognosegrundlage ergebenden ZRT vor?</text>
</g>
<!-- 60&#45;&gt;70 -->
<g id="edge13" class="edge">
<title>60-&gt;70</title>
<path fill="none" stroke="#88a0d6" d="M1633.56,-1148.62C1634.18,-1129.53 1635.19,-1097.92 1635.97,-1073.86"/>
<polygon fill="#88a0d6" stroke="#88a0d6" points="1639.46,-1074.03 1636.28,-1063.92 1632.47,-1073.81 1639.46,-1074.03"/>
<text text-anchor="start" x="1635.03" y="-1102.47" font-family="Roboto, sans-serif" font-weight="bold" font-size="14.00">JA</text>
</g>
<!-- A05 -->
<g id="node13" class="node">
<title>A05</title>
<path fill="#c4cac1" stroke="black" stroke-width="0" d="M1310.55,-946.99C1310.55,-946.99 1063.5,-946.99 1063.5,-946.99 1057.5,-946.99 1051.5,-940.99 1051.5,-934.99 1051.5,-934.99 1051.5,-891.71 1051.5,-891.71 1051.5,-885.71 1057.5,-879.71 1063.5,-879.71 1063.5,-879.71 1310.55,-879.71 1310.55,-879.71 1316.55,-879.71 1322.55,-885.71 1322.55,-891.71 1322.55,-891.71 1322.55,-934.99 1322.55,-934.99 1322.55,-940.99 1316.55,-946.99 1310.55,-946.99"/>
<text text-anchor="start" x="1065.9" y="-926.05" font-family="Roboto, sans-serif" font-weight="bold" font-size="14.00">A05</text>
<text text-anchor="start" x="1065.9" y="-913.95" font-family="Roboto, sans-serif" text-decoration="underline" font-size="12.00">Hinweis:</text>
<text text-anchor="start" x="1065.9" y="-901.95" font-family="Roboto, sans-serif" font-size="12.00">Cluster: Ablehnung</text>
<text text-anchor="start" x="1065.9" y="-889.95" font-family="Roboto, sans-serif" font-size="12.00">Zuordnungserm&#228;chtigung liegt nicht vor.</text>
</g>
<!-- 70&#45;&gt;A05 -->
<g id="edge14" class="edge">
<title>70-&gt;A05</title>
<path fill="none" stroke="#88a0d6" d="M1558.9,-1017.26C1491.95,-998.73 1394.2,-971.68 1315.72,-949.96"/>
<polygon fill="#88a0d6" stroke="#88a0d6" points="1316.81,-946.63 1306.23,-947.34 1314.94,-953.38 1316.81,-946.63"/>
<text text-anchor="start" x="1425.03" y="-969.94" font-family="Roboto, sans-serif" font-weight="bold" font-size="14.00">NEIN</text>
</g>
<!-- 80 -->
<g id="node14" class="node">
<title>80</title>
<path fill="#c2cee9" stroke="black" stroke-width="0" d="M1901.68,-931.35C1901.68,-931.35 1352.38,-931.35 1352.38,-931.35 1346.38,-931.35 1340.38,-925.35 1340.38,-919.35 1340.38,-919.35 1340.38,-907.35 1340.38,-907.35 1340.38,-901.35 1346.38,-895.35 1352.38,-895.35 1352.38,-895.35 1901.68,-895.35 1901.68,-895.35 1907.68,-895.35 1913.68,-901.35 1913.68,-907.35 1913.68,-907.35 1913.68,-919.35 1913.68,-919.35 1913.68,-925.35 1907.68,-931.35 1901.68,-931.35"/>
<text text-anchor="start" x="1354.78" y="-909.67" font-family="Roboto, sans-serif" font-weight="bold" font-size="14.00">80: </text>
<text text-anchor="start" x="1384.03" y="-909.67" font-family="Roboto, sans-serif" font-size="14.00">Ist die gew&#252;nschte Prognosegrundlage auf Basis von Profilen angegeben?</text>
</g>
<!-- 70&#45;&gt;80 -->
<g id="edge15" class="edge">
<title>70-&gt;80</title>
<path fill="none" stroke="#88a0d6" d="M1635.31,-1017.47C1633.64,-996.72 1631.1,-965.14 1629.28,-942.39"/>
<polygon fill="#88a0d6" stroke="#88a0d6" points="1632.78,-942.29 1628.49,-932.6 1625.8,-942.85 1632.78,-942.29"/>
<text text-anchor="start" x="1632.03" y="-969.94" font-family="Roboto, sans-serif" font-weight="bold" font-size="14.00">JA</text>
</g>
<!-- 90 -->
<g id="node15" class="node">
<title>90</title>
<path fill="#c2cee9" stroke="black" stroke-width="0" d="M1630.05,-815.46C1630.05,-815.46 1044,-815.46 1044,-815.46 1038,-815.46 1032,-809.46 1032,-803.46 1032,-803.46 1032,-782.18 1032,-782.18 1032,-776.18 1038,-770.18 1044,-770.18 1044,-770.18 1630.05,-770.18 1630.05,-770.18 1636.05,-770.18 1642.05,-776.18 1642.05,-782.18 1642.05,-782.18 1642.05,-803.46 1642.05,-803.46 1642.05,-809.46 1636.05,-815.46 1630.05,-815.46"/>
<text text-anchor="start" x="1046.4" y="-794.52" font-family="Roboto, sans-serif" font-weight="bold" font-size="14.00">90: </text>
<text text-anchor="start" x="1075.65" y="-794.52" font-family="Roboto, sans-serif" font-size="14.00">Befindet sich die Marktlokation in einem Lokationsb&#252;ndel, in welchem ebenfalls</text>
<text text-anchor="start" x="1046.4" y="-780.52" font-family="Roboto, sans-serif" font-size="14.00">eine erzeugende Marktlokation vorhanden ist?</text>
</g>
<!-- 80&#45;&gt;90 -->
<g id="edge16" class="edge">
<title>80-&gt;90</title>
<path fill="none" stroke="#88a0d6" d="M1585.48,-895.37C1537.07,-875.58 1456.56,-842.68 1400.36,-819.71"/>
<polygon fill="#88a0d6" stroke="#88a0d6" points="1401.79,-816.51 1391.21,-815.97 1399.14,-822.99 1401.79,-816.51"/>
<text text-anchor="start" x="1499.03" y="-849.41" font-family="Roboto, sans-serif" font-weight="bold" font-size="14.00">JA</text>
</g>
<!-- 110 -->
<g id="node18" class="node">
<title>110</title>
<path fill="#c2cee9" stroke="black" stroke-width="0" d="M1901.93,-569.76C1901.93,-569.76 1276.12,-569.76 1276.12,-569.76 1270.12,-569.76 1264.12,-563.76 1264.12,-557.76 1264.12,-557.76 1264.12,-545.76 1264.12,-545.76 1264.12,-539.76 1270.12,-533.76 1276.12,-533.76 1276.12,-533.76 1901.93,-533.76 1901.93,-533.76 1907.93,-533.76 1913.93,-539.76 1913.93,-545.76 1913.93,-545.76 1913.93,-557.76 1913.93,-557.76 1913.93,-563.76 1907.93,-569.76 1901.93,-569.76"/>
<text text-anchor="start" x="1278.53" y="-548.09" font-family="Roboto, sans-serif" font-weight="bold" font-size="14.00">110: </text>
<text text-anchor="start" x="1317.53" y="-548.09" font-family="Roboto, sans-serif" font-size="14.00">Handelt es sich um eine Marktlokation mit der messtechnischen Einordnung &#8222;iMS&#8220;?</text>
</g>
<!-- 80&#45;&gt;110 -->
<g id="edge17" class="edge">
<title>80-&gt;110</title>
<path fill="none" stroke="#88a0d6" d="M1632.99,-895.5C1638.75,-878.36 1647.15,-850.93 1651.03,-826.46 1664.08,-743.99 1683.19,-717.61 1656.03,-638.65 1651.32,-624.99 1641.56,-626.37 1636.03,-613.02"/>
<text text-anchor="start" x="1669.03" y="-728.88" font-family="Roboto, sans-serif" font-weight="bold" font-size="14.00">NEIN</text>
</g>
<!-- 100 -->
<g id="node16" class="node">
<title>100</title>
<path fill="#c2cee9" stroke="black" stroke-width="0" d="M1555.18,-701.93C1555.18,-701.93 996.88,-701.93 996.88,-701.93 990.88,-701.93 984.88,-695.93 984.88,-689.93 984.88,-689.93 984.88,-654.65 984.88,-654.65 984.88,-648.65 990.88,-642.65 996.88,-642.65 996.88,-642.65 1555.18,-642.65 1555.18,-642.65 1561.18,-642.65 1567.18,-648.65 1567.18,-654.65 1567.18,-654.65 1567.18,-689.93 1567.18,-689.93 1567.18,-695.93 1561.18,-701.93 1555.18,-701.93"/>
<text text-anchor="start" x="999.28" y="-680.99" font-family="Roboto, sans-serif" font-weight="bold" font-size="14.00">100: </text>
<text text-anchor="start" x="1038.28" y="-680.99" font-family="Roboto, sans-serif" font-size="14.00">Entspricht die erzeugte Energiemenge der Marktlokation der gemessenen</text>
<text text-anchor="start" x="999.28" y="-666.99" font-family="Roboto, sans-serif" font-size="14.00">Energiemenge in der Flussrichtung Erzeugung an der Messlokation der</text>
<text text-anchor="start" x="999.28" y="-652.99" font-family="Roboto, sans-serif" font-size="14.00">Netz&#252;bergabe?</text>
</g>
<!-- 90&#45;&gt;100 -->
<g id="edge18" class="edge">
<title>90-&gt;100</title>
<path fill="none" stroke="#88a0d6" d="M1325.98,-770.36C1317.6,-754.07 1305.85,-731.25 1295.86,-711.82"/>
<polygon fill="#88a0d6" stroke="#88a0d6" points="1299.05,-710.37 1291.36,-703.08 1292.82,-713.58 1299.05,-710.37"/>
<text text-anchor="start" x="1310.03" y="-728.88" font-family="Roboto, sans-serif" font-weight="bold" font-size="14.00">JA</text>
</g>
<!-- 90&#45;&gt;110 -->
<g id="edge19" class="edge">
<title>90-&gt;110</title>
<path fill="none" stroke="#88a0d6" d="M1443.39,-770.23C1487.91,-757.21 1538.02,-736.93 1576.03,-705.93 1603.16,-683.8 1597.47,-667.7 1617.03,-638.65 1624.94,-626.89 1640.69,-626.41 1636.03,-613.02"/>
<path fill="none" stroke="#88a0d6" d="M1636.03,-611.02C1630.99,-598.89 1622.61,-587.26 1614.31,-577.62"/>
<polygon fill="#88a0d6" stroke="#88a0d6" points="1617.14,-575.53 1607.82,-570.49 1611.96,-580.24 1617.14,-575.53"/>
<text text-anchor="start" x="1617.03" y="-668.62" font-family="Roboto, sans-serif" font-weight="bold" font-size="14.00">NEIN</text>
</g>
<!-- A06 -->
<g id="node17" class="node">
<title>A06</title>
<path fill="#c4cac1" stroke="black" stroke-width="0" d="M1234.17,-585.4C1234.17,-585.4 759.88,-585.4 759.88,-585.4 753.88,-585.4 747.88,-579.4 747.88,-573.4 747.88,-573.4 747.88,-530.12 747.88,-530.12 747.88,-524.12 753.88,-518.12 759.88,-518.12 759.88,-518.12 1234.17,-518.12 1234.17,-518.12 1240.17,-518.12 1246.17,-524.12 1246.17,-530.12 1246.17,-530.12 1246.17,-573.4 1246.17,-573.4 1246.17,-579.4 1240.17,-585.4 1234.17,-585.4"/>
<text text-anchor="start" x="762.27" y="-564.46" font-family="Roboto, sans-serif" font-weight="bold" font-size="14.00">A06</text>
<text text-anchor="start" x="762.27" y="-552.36" font-family="Roboto, sans-serif" text-decoration="underline" font-size="12.00">Hinweis:</text>
<text text-anchor="start" x="762.27" y="-540.36" font-family="Roboto, sans-serif" font-size="12.00">Cluster: Ablehnung</text>
<text text-anchor="start" x="762.27" y="-528.36" font-family="Roboto, sans-serif" font-size="12.00">Keine Volleinspeisung, keine Prognosegrundlage auf Basis von Profilen m&#246;glich</text>
</g>
<!-- 100&#45;&gt;A06 -->
<g id="edge20" class="edge">
<title>100-&gt;A06</title>
<path fill="none" stroke="#88a0d6" d="M1208.84,-642.75C1171.39,-626.84 1124.32,-606.84 1084.07,-589.74"/>
<polygon fill="#88a0d6" stroke="#88a0d6" points="1085.7,-586.63 1075.12,-585.94 1082.96,-593.07 1085.7,-586.63"/>
<text text-anchor="start" x="1153.03" y="-608.35" font-family="Roboto, sans-serif" font-weight="bold" font-size="14.00">NEIN</text>
</g>
<!-- 100&#45;&gt;110 -->
<g id="edge21" class="edge">
<title>100-&gt;110</title>
<path fill="none" stroke="#88a0d6" d="M1351.39,-642.75C1407.51,-621.5 1482.87,-592.96 1533.55,-573.77"/>
<polygon fill="#88a0d6" stroke="#88a0d6" points="1534.76,-577.05 1542.87,-570.24 1532.28,-570.51 1534.76,-577.05"/>
<text text-anchor="start" x="1451.03" y="-608.35" font-family="Roboto, sans-serif" font-weight="bold" font-size="14.00">JA</text>
</g>
<!-- 120 -->
<g id="node19" class="node">
<title>120</title>
<path fill="#c2cee9" stroke="black" stroke-width="0" d="M1639.18,-447.87C1639.18,-447.87 1026.88,-447.87 1026.88,-447.87 1020.88,-447.87 1014.88,-441.87 1014.88,-435.87 1014.88,-435.87 1014.88,-414.59 1014.88,-414.59 1014.88,-408.59 1020.88,-402.59 1026.88,-402.59 1026.88,-402.59 1639.18,-402.59 1639.18,-402.59 1645.18,-402.59 1651.18,-408.59 1651.18,-414.59 1651.18,-414.59 1651.18,-435.87 1651.18,-435.87 1651.18,-441.87 1645.18,-447.87 1639.18,-447.87"/>
<text text-anchor="start" x="1029.28" y="-426.93" font-family="Roboto, sans-serif" font-weight="bold" font-size="14.00">120: </text>
<text text-anchor="start" x="1068.28" y="-426.93" font-family="Roboto, sans-serif" font-size="14.00">Besteht f&#252;r die Marktlokation ein Wahlrecht zur &#196;nderung der Prognosegrundlage</text>
<text text-anchor="start" x="1029.28" y="-412.93" font-family="Roboto, sans-serif" font-size="14.00">durch den LF?</text>
</g>
<!-- 110&#45;&gt;120 -->
<g id="edge22" class="edge">
<title>110-&gt;120</title>
<path fill="none" stroke="#88a0d6" d="M1554.23,-533.84C1511.26,-512.93 1437.67,-477.13 1387.26,-452.61"/>
<polygon fill="#88a0d6" stroke="#88a0d6" points="1389.07,-449.6 1378.55,-448.37 1386.01,-455.9 1389.07,-449.6"/>
<text text-anchor="start" x="1483.03" y="-487.82" font-family="Roboto, sans-serif" font-weight="bold" font-size="14.00">JA</text>
</g>
<!-- 130 -->
<g id="node21" class="node">
<title>130</title>
<path fill="#c2cee9" stroke="black" stroke-width="0" d="M1897.05,-316.7C1897.05,-316.7 1263,-316.7 1263,-316.7 1257,-316.7 1251,-310.7 1251,-304.7 1251,-304.7 1251,-292.7 1251,-292.7 1251,-286.7 1257,-280.7 1263,-280.7 1263,-280.7 1897.05,-280.7 1897.05,-280.7 1903.05,-280.7 1909.05,-286.7 1909.05,-292.7 1909.05,-292.7 1909.05,-304.7 1909.05,-304.7 1909.05,-310.7 1903.05,-316.7 1897.05,-316.7"/>
<text text-anchor="start" x="1265.4" y="-295.02" font-family="Roboto, sans-serif" font-weight="bold" font-size="14.00">130: </text>
<text text-anchor="start" x="1304.4" y="-295.02" font-family="Roboto, sans-serif" font-size="14.00">Ist die gew&#252;nschte Prognosegrundlage zum gew&#252;nschten Termin bereits umgesetzt?</text>
</g>
<!-- 110&#45;&gt;130 -->
<g id="edge23" class="edge">
<title>110-&gt;130</title>
<path fill="none" stroke="#88a0d6" d="M1609.39,-533.76C1626.6,-517.96 1650,-492.72 1660.03,-464.87 1671.95,-431.72 1672.93,-418.38 1660.03,-385.59 1650.28,-360.82 1629.65,-338.97 1611.78,-323.5"/>
<polygon fill="#88a0d6" stroke="#88a0d6" points="1614.38,-321.11 1604.45,-317.41 1609.9,-326.49 1614.38,-321.11"/>
<text text-anchor="start" x="1669.03" y="-421.55" font-family="Roboto, sans-serif" font-weight="bold" font-size="14.00">NEIN</text>
</g>
<!-- A07 -->
<g id="node20" class="node">
<title>A07</title>
<path fill="#c4cac1" stroke="black" stroke-width="0" d="M1220.8,-332.34C1220.8,-332.34 855.25,-332.34 855.25,-332.34 849.25,-332.34 843.25,-326.34 843.25,-320.34 843.25,-320.34 843.25,-277.06 843.25,-277.06 843.25,-271.06 849.25,-265.06 855.25,-265.06 855.25,-265.06 1220.8,-265.06 1220.8,-265.06 1226.8,-265.06 1232.8,-271.06 1232.8,-277.06 1232.8,-277.06 1232.8,-320.34 1232.8,-320.34 1232.8,-326.34 1226.8,-332.34 1220.8,-332.34"/>
<text text-anchor="start" x="857.65" y="-311.4" font-family="Roboto, sans-serif" font-weight="bold" font-size="14.00">A07</text>
<text text-anchor="start" x="857.65" y="-299.3" font-family="Roboto, sans-serif" text-decoration="underline" font-size="12.00">Hinweis:</text>
<text text-anchor="start" x="857.65" y="-287.3" font-family="Roboto, sans-serif" font-size="12.00">Cluster: Ablehnung</text>
<text text-anchor="start" x="857.65" y="-275.3" font-family="Roboto, sans-serif" font-size="12.00">Kein Wahlrecht der Prognosegrundlage f&#252;r die Marktlokation</text>
</g>
<!-- 120&#45;&gt;A07 -->
<g id="edge24" class="edge">
<title>120-&gt;A07</title>
<path fill="none" stroke="#88a0d6" d="M1281.98,-402.68C1239.01,-384.54 1176.6,-358.2 1125.66,-336.69"/>
<polygon fill="#88a0d6" stroke="#88a0d6" points="1127.27,-333.58 1116.7,-332.91 1124.55,-340.02 1127.27,-333.58"/>
<text text-anchor="start" x="1194.03" y="-355.29" font-family="Roboto, sans-serif" font-weight="bold" font-size="14.00">NEIN</text>
</g>
<!-- 120&#45;&gt;130 -->
<g id="edge25" class="edge">
<title>120-&gt;130</title>
<path fill="none" stroke="#88a0d6" d="M1375.77,-402.68C1420.73,-380.01 1491.12,-344.52 1536.41,-321.69"/>
<polygon fill="#88a0d6" stroke="#88a0d6" points="1537.81,-324.9 1545.16,-317.28 1534.66,-318.65 1537.81,-324.9"/>
<text text-anchor="start" x="1478.03" y="-355.29" font-family="Roboto, sans-serif" font-weight="bold" font-size="14.00">JA</text>
</g>
<!-- A08 -->
<g id="node22" class="node">
<title>A08</title>
<path fill="#c4cac1" stroke="black" stroke-width="0" d="M1747.05,-211.81C1747.05,-211.81 1413,-211.81 1413,-211.81 1407,-211.81 1401,-205.81 1401,-199.81 1401,-199.81 1401,-156.53 1401,-156.53 1401,-150.53 1407,-144.53 1413,-144.53 1413,-144.53 1747.05,-144.53 1747.05,-144.53 1753.05,-144.53 1759.05,-150.53 1759.05,-156.53 1759.05,-156.53 1759.05,-199.81 1759.05,-199.81 1759.05,-205.81 1753.05,-211.81 1747.05,-211.81"/>
<text text-anchor="start" x="1415.4" y="-190.87" font-family="Roboto, sans-serif" font-weight="bold" font-size="14.00">A08</text>
<text text-anchor="start" x="1415.4" y="-178.77" font-family="Roboto, sans-serif" text-decoration="underline" font-size="12.00">Hinweis:</text>
<text text-anchor="start" x="1415.4" y="-166.77" font-family="Roboto, sans-serif" font-size="12.00">Cluster: Ablehnung</text>
<text text-anchor="start" x="1415.4" y="-154.77" font-family="Roboto, sans-serif" font-size="12.00">&#196;nderung zum gew&#252;nschten Termin bereits umgesetzt.</text>
</g>
<!-- 130&#45;&gt;A08 -->
<g id="edge26" class="edge">
<title>130-&gt;A08</title>
<path fill="none" stroke="#88a0d6" d="M1580.03,-280.72C1580.03,-265.73 1580.03,-243.23 1580.03,-223.21"/>
<polygon fill="#88a0d6" stroke="#88a0d6" points="1583.53,-223.3 1580.03,-213.3 1576.53,-223.3 1583.53,-223.3"/>
<text text-anchor="start" x="1580.03" y="-234.76" font-family="Roboto, sans-serif" font-weight="bold" font-size="14.00">JA</text>
</g>
<!-- 220 -->
<g id="node38" class="node">
<title>220</title>
<path fill="#c2cee9" stroke="black" stroke-width="0" d="M1189.92,-196.17C1189.92,-196.17 786.12,-196.17 786.12,-196.17 780.12,-196.17 774.12,-190.17 774.12,-184.17 774.12,-184.17 774.12,-172.17 774.12,-172.17 774.12,-166.17 780.12,-160.17 786.12,-160.17 786.12,-160.17 1189.92,-160.17 1189.92,-160.17 1195.92,-160.17 1201.92,-166.17 1201.92,-172.17 1201.92,-172.17 1201.92,-184.17 1201.92,-184.17 1201.92,-190.17 1195.92,-196.17 1189.92,-196.17"/>
<text text-anchor="start" x="788.52" y="-174.5" font-family="Roboto, sans-serif" font-weight="bold" font-size="14.00">220: </text>
<text text-anchor="start" x="827.52" y="-174.5" font-family="Roboto, sans-serif" font-size="14.00">Ist ein zuvor nicht spezifizierter Fehler aufgetreten?</text>
</g>
<!-- 130&#45;&gt;220 -->
<g id="edge27" class="edge">
<title>130-&gt;220</title>
<path fill="none" stroke="#88a0d6" d="M1495.21,-280.72C1386.29,-258.91 1197.79,-221.17 1083.82,-198.35"/>
<polygon fill="#88a0d6" stroke="#88a0d6" points="1084.66,-194.95 1074.17,-196.42 1083.29,-201.81 1084.66,-194.95"/>
<text text-anchor="start" x="1319.03" y="-234.76" font-family="Roboto, sans-serif" font-weight="bold" font-size="14.00">NEIN</text>
</g>
<!-- A10 -->
<g id="node24" class="node">
<title>A10</title>
<path fill="#c4cac1" stroke="black" stroke-width="0" d="M413.8,-1200.05C413.8,-1200.05 12.25,-1200.05 12.25,-1200.05 6.25,-1200.05 0.25,-1194.05 0.25,-1188.05 0.25,-1188.05 0.25,-1144.77 0.25,-1144.77 0.25,-1138.77 6.25,-1132.77 12.25,-1132.77 12.25,-1132.77 413.8,-1132.77 413.8,-1132.77 419.8,-1132.77 425.8,-1138.77 425.8,-1144.77 425.8,-1144.77 425.8,-1188.05 425.8,-1188.05 425.8,-1194.05 419.8,-1200.05 413.8,-1200.05"/>
<text text-anchor="start" x="14.65" y="-1179.11" font-family="Roboto, sans-serif" font-weight="bold" font-size="14.00">A10</text>
<text text-anchor="start" x="14.65" y="-1167.01" font-family="Roboto, sans-serif" text-decoration="underline" font-size="12.00">Hinweis:</text>
<text text-anchor="start" x="14.65" y="-1155.01" font-family="Roboto, sans-serif" font-size="12.00">Cluster: Ablehnung</text>
<text text-anchor="start" x="14.65" y="-1143.01" font-family="Roboto, sans-serif" font-size="12.00">Bestellungen sind nur f&#252;r verbrauchende Marktlokationen m&#246;glich</text>
</g>
<!-- 140&#45;&gt;A10 -->
<g id="edge28" class="edge">
<title>140-&gt;A10</title>
<path fill="none" stroke="#88a0d6" d="M427.12,-1281.01C391.07,-1261.88 331.28,-1230.16 284.03,-1205.08"/>
<polygon fill="#88a0d6" stroke="#88a0d6" points="285.96,-1202.15 275.49,-1200.55 282.68,-1208.33 285.96,-1202.15"/>
<text text-anchor="start" x="336.02" y="-1223" font-family="Roboto, sans-serif" font-weight="bold" font-size="14.00">NEIN</text>
</g>
<!-- 150 -->
<g id="node25" class="node">
<title>150</title>
<path fill="#c2cee9" stroke="black" stroke-width="0" d="M1022.67,-1184.41C1022.67,-1184.41 455.38,-1184.41 455.38,-1184.41 449.38,-1184.41 443.38,-1178.41 443.38,-1172.41 443.38,-1172.41 443.38,-1160.41 443.38,-1160.41 443.38,-1154.41 449.38,-1148.41 455.38,-1148.41 455.38,-1148.41 1022.67,-1148.41 1022.67,-1148.41 1028.67,-1148.41 1034.67,-1154.41 1034.67,-1160.41 1034.67,-1160.41 1034.67,-1172.41 1034.67,-1172.41 1034.67,-1178.41 1028.67,-1184.41 1022.67,-1184.41"/>
<text text-anchor="start" x="457.77" y="-1162.74" font-family="Roboto, sans-serif" font-weight="bold" font-size="14.00">150: </text>
<text text-anchor="start" x="496.77" y="-1162.74" font-family="Roboto, sans-serif" font-size="14.00">Handelt es sich bei der Bestellung um eine R&#252;ckkehr auf eine Eintariflogik?</text>
</g>
<!-- 140&#45;&gt;150 -->
<g id="edge29" class="edge">
<title>140-&gt;150</title>
<path fill="none" stroke="#88a0d6" d="M495.34,-1281.01C545.8,-1257.49 637.15,-1214.9 692.53,-1189.08"/>
<polygon fill="#88a0d6" stroke="#88a0d6" points="693.81,-1192.35 701.4,-1184.95 690.86,-1186 693.81,-1192.35"/>
<text text-anchor="start" x="624.02" y="-1223" font-family="Roboto, sans-serif" font-weight="bold" font-size="14.00">JA</text>
</g>
<!-- 160 -->
<g id="node26" class="node">
<title>160</title>
<path fill="#c2cee9" stroke="black" stroke-width="0" d="M718.8,-1062.52C718.8,-1062.52 107.25,-1062.52 107.25,-1062.52 101.25,-1062.52 95.25,-1056.52 95.25,-1050.52 95.25,-1050.52 95.25,-1029.24 95.25,-1029.24 95.25,-1023.24 101.25,-1017.24 107.25,-1017.24 107.25,-1017.24 718.8,-1017.24 718.8,-1017.24 724.8,-1017.24 730.8,-1023.24 730.8,-1029.24 730.8,-1029.24 730.8,-1050.52 730.8,-1050.52 730.8,-1056.52 724.8,-1062.52 718.8,-1062.52"/>
<text text-anchor="start" x="109.65" y="-1041.58" font-family="Roboto, sans-serif" font-weight="bold" font-size="14.00">160: </text>
<text text-anchor="start" x="148.65" y="-1041.58" font-family="Roboto, sans-serif" font-size="14.00">Ist die gew&#252;nschte Z&#228;hlzeit zum Anwendungszeitpunkt Bestandteil der &#220;bersicht</text>
<text text-anchor="start" x="109.65" y="-1027.58" font-family="Roboto, sans-serif" font-size="14.00">der Z&#228;hlzeitdefinition, welche zuvor vom NB &#252;bermittelt wurde?</text>
</g>
<!-- 150&#45;&gt;160 -->
<g id="edge31" class="edge">
<title>150-&gt;160</title>
<path fill="none" stroke="#88a0d6" d="M694.72,-1148.49C639.39,-1127.35 544.22,-1090.99 479.98,-1066.46"/>
<polygon fill="#88a0d6" stroke="#88a0d6" points="481.55,-1063.31 470.96,-1063.01 479.06,-1069.85 481.55,-1063.31"/>
<text text-anchor="start" x="605.02" y="-1102.47" font-family="Roboto, sans-serif" font-weight="bold" font-size="14.00">NEIN</text>
</g>
<!-- 150&#45;&gt;190 -->
<g id="edge30" class="edge">
<title>150-&gt;190</title>
<path fill="none" stroke="#88a0d6" d="M738.65,-1148.49C738.85,-1115.59 743.99,-1042.56 783.02,-1000.24 807.01,-974.24 905.54,-969.26 933.02,-946.99 960.28,-924.91 951.55,-906.43 974.27,-879.71 985.58,-866.42 1000.99,-871.27 1004.02,-854.08"/>
<path fill="none" stroke="#88a0d6" d="M1004.02,-852.08C1009.15,-810.25 1012.9,-790.79 985.02,-759.18 955.96,-726.21 913.75,-705.88 872.11,-693.35"/>
<polygon fill="#88a0d6" stroke="#88a0d6" points="873.29,-690.05 862.71,-690.67 871.37,-696.78 873.29,-690.05"/>
<text text-anchor="start" x="974.02" y="-909.67" font-family="Roboto, sans-serif" font-weight="bold" font-size="14.00">JA</text>
</g>
<!-- A11 -->
<g id="node27" class="node">
<title>A11</title>
<path fill="#c4cac1" stroke="black" stroke-width="0" d="M369.68,-946.99C369.68,-946.99 12.38,-946.99 12.38,-946.99 6.38,-946.99 0.38,-940.99 0.38,-934.99 0.38,-934.99 0.38,-891.71 0.38,-891.71 0.38,-885.71 6.38,-879.71 12.38,-879.71 12.38,-879.71 369.68,-879.71 369.68,-879.71 375.68,-879.71 381.68,-885.71 381.68,-891.71 381.68,-891.71 381.68,-934.99 381.68,-934.99 381.68,-940.99 375.68,-946.99 369.68,-946.99"/>
<text text-anchor="start" x="14.78" y="-926.05" font-family="Roboto, sans-serif" font-weight="bold" font-size="14.00">A11</text>
<text text-anchor="start" x="14.78" y="-913.95" font-family="Roboto, sans-serif" text-decoration="underline" font-size="12.00">Hinweis:</text>
<text text-anchor="start" x="14.78" y="-901.95" font-family="Roboto, sans-serif" font-size="12.00">Cluster: Ablehnung </text>
<text text-anchor="start" x="14.78" y="-889.95" font-family="Roboto, sans-serif" font-size="12.00">Z&#228;hlzeitdefinition zum Anwendungszeitpunkt nicht bekannt</text>
</g>
<!-- 160&#45;&gt;A11 -->
<g id="edge32" class="edge">
<title>160-&gt;A11</title>
<path fill="none" stroke="#88a0d6" d="M374.61,-1017.33C342.83,-999.5 296.9,-973.74 258.94,-952.45"/>
<polygon fill="#88a0d6" stroke="#88a0d6" points="260.72,-949.43 250.29,-947.59 257.3,-955.54 260.72,-949.43"/>
<text text-anchor="start" x="308.02" y="-969.94" font-family="Roboto, sans-serif" font-weight="bold" font-size="14.00">NEIN</text>
</g>
<!-- 170 -->
<g id="node28" class="node">
<title>170</title>
<path fill="#c2cee9" stroke="black" stroke-width="0" d="M911.92,-935.99C911.92,-935.99 412.12,-935.99 412.12,-935.99 406.12,-935.99 400.12,-929.99 400.12,-923.99 400.12,-923.99 400.12,-902.71 400.12,-902.71 400.12,-896.71 406.12,-890.71 412.12,-890.71 412.12,-890.71 911.92,-890.71 911.92,-890.71 917.92,-890.71 923.92,-896.71 923.92,-902.71 923.92,-902.71 923.92,-923.99 923.92,-923.99 923.92,-929.99 917.92,-935.99 911.92,-935.99"/>
<text text-anchor="start" x="414.52" y="-915.05" font-family="Roboto, sans-serif" font-weight="bold" font-size="14.00">170: </text>
<text text-anchor="start" x="453.52" y="-915.05" font-family="Roboto, sans-serif" font-size="14.00">Ist die in der Bestellung genannte Z&#228;hlzeit in der &#220;bersicht der</text>
<text text-anchor="start" x="414.52" y="-901.05" font-family="Roboto, sans-serif" font-size="14.00">Z&#228;hlzeitdefinition des NB als eine bestellbare Z&#228;hlzeit gekennzeichnet?</text>
</g>
<!-- 160&#45;&gt;170 -->
<g id="edge33" class="edge">
<title>160-&gt;170</title>
<path fill="none" stroke="#88a0d6" d="M456.11,-1017.33C498.47,-996.15 563.21,-963.77 608.77,-940.98"/>
<polygon fill="#88a0d6" stroke="#88a0d6" points="610.32,-944.12 617.69,-936.52 607.18,-937.86 610.32,-944.12"/>
<text text-anchor="start" x="559.02" y="-969.94" font-family="Roboto, sans-serif" font-weight="bold" font-size="14.00">JA</text>
</g>
<!-- A12 -->
<g id="node29" class="node">
<title>A12</title>
<path fill="#c4cac1" stroke="black" stroke-width="0" d="M295.68,-826.46C295.68,-826.46 130.38,-826.46 130.38,-826.46 124.38,-826.46 118.38,-820.46 118.38,-814.46 118.38,-814.46 118.38,-771.18 118.38,-771.18 118.38,-765.18 124.38,-759.18 130.38,-759.18 130.38,-759.18 295.68,-759.18 295.68,-759.18 301.68,-759.18 307.68,-765.18 307.68,-771.18 307.68,-771.18 307.68,-814.46 307.68,-814.46 307.68,-820.46 301.68,-826.46 295.68,-826.46"/>
<text text-anchor="start" x="132.78" y="-805.52" font-family="Roboto, sans-serif" font-weight="bold" font-size="14.00">A12</text>
<text text-anchor="start" x="132.78" y="-793.42" font-family="Roboto, sans-serif" text-decoration="underline" font-size="12.00">Hinweis:</text>
<text text-anchor="start" x="132.78" y="-781.42" font-family="Roboto, sans-serif" font-size="12.00">Cluster: Ablehnung </text>
<text text-anchor="start" x="132.78" y="-769.42" font-family="Roboto, sans-serif" font-size="12.00">Z&#228;hlzeit ist nicht bestallbar</text>
</g>
<!-- 170&#45;&gt;A12 -->
<g id="edge34" class="edge">
<title>170-&gt;A12</title>
<path fill="none" stroke="#88a0d6" d="M569.01,-890.8C502.07,-874.91 409.42,-852.17 318.67,-826.87"/>
<polygon fill="#88a0d6" stroke="#88a0d6" points="319.64,-823.51 309.07,-824.18 317.75,-830.25 319.64,-823.51"/>
<text text-anchor="start" x="449.02" y="-849.41" font-family="Roboto, sans-serif" font-weight="bold" font-size="14.00">NEIN</text>
</g>
<!-- 180 -->
<g id="node30" class="node">
<title>180</title>
<path fill="#c2cee9" stroke="black" stroke-width="0" d="M963.92,-810.82C963.92,-810.82 338.12,-810.82 338.12,-810.82 332.12,-810.82 326.12,-804.82 326.12,-798.82 326.12,-798.82 326.12,-786.82 326.12,-786.82 326.12,-780.82 332.12,-774.82 338.12,-774.82 338.12,-774.82 963.92,-774.82 963.92,-774.82 969.92,-774.82 975.92,-780.82 975.92,-786.82 975.92,-786.82 975.92,-798.82 975.92,-798.82 975.92,-804.82 969.92,-810.82 963.92,-810.82"/>
<text text-anchor="start" x="340.52" y="-789.14" font-family="Roboto, sans-serif" font-weight="bold" font-size="14.00">180: </text>
<text text-anchor="start" x="379.52" y="-789.14" font-family="Roboto, sans-serif" font-size="14.00">Liegt zum Anwendungszeitpunkt die ausgerollte Z&#228;hlzeit zur Z&#228;hlzeitdefinition vor?</text>
</g>
<!-- 170&#45;&gt;180 -->
<g id="edge35" class="edge">
<title>170-&gt;180</title>
<path fill="none" stroke="#88a0d6" d="M660.03,-890.89C658.24,-871.59 655.6,-843.12 653.64,-822"/>
<polygon fill="#88a0d6" stroke="#88a0d6" points="657.13,-821.68 652.72,-812.04 650.16,-822.32 657.13,-821.68"/>
<text text-anchor="start" x="657.02" y="-849.41" font-family="Roboto, sans-serif" font-weight="bold" font-size="14.00">JA</text>
</g>
<!-- A13 -->
<g id="node31" class="node">
<title>A13</title>
<path fill="#c4cac1" stroke="black" stroke-width="0" d="M513.67,-705.93C513.67,-705.93 12.38,-705.93 12.38,-705.93 6.38,-705.93 0.38,-699.93 0.38,-693.93 0.38,-693.93 0.38,-650.65 0.38,-650.65 0.38,-644.65 6.38,-638.65 12.38,-638.65 12.38,-638.65 513.67,-638.65 513.67,-638.65 519.67,-638.65 525.67,-644.65 525.67,-650.65 525.67,-650.65 525.67,-693.93 525.67,-693.93 525.67,-699.93 519.67,-705.93 513.67,-705.93"/>
<text text-anchor="start" x="14.77" y="-684.99" font-family="Roboto, sans-serif" font-weight="bold" font-size="14.00">A13</text>
<text text-anchor="start" x="14.77" y="-672.89" font-family="Roboto, sans-serif" text-decoration="underline" font-size="12.00">Hinweis:</text>
<text text-anchor="start" x="14.77" y="-660.89" font-family="Roboto, sans-serif" font-size="12.00">Cluster: Ablehnung</text>
<text text-anchor="start" x="14.77" y="-648.89" font-family="Roboto, sans-serif" font-size="12.00">Ausgerollte Z&#228;hlzeit zur Z&#228;hlzeitdefinition liegt zum Anwendungszeitpunkt nicht vor</text>
</g>
<!-- 180&#45;&gt;A13 -->
<g id="edge36" class="edge">
<title>180-&gt;A13</title>
<path fill="none" stroke="#88a0d6" d="M595.43,-774.84C539.63,-757.79 451.94,-731 380.63,-709.22"/>
<polygon fill="#88a0d6" stroke="#88a0d6" points="381.82,-705.92 371.23,-706.35 379.77,-712.62 381.82,-705.92"/>
<text text-anchor="start" x="480.02" y="-728.88" font-family="Roboto, sans-serif" font-weight="bold" font-size="14.00">NEIN</text>
</g>
<!-- 180&#45;&gt;190 -->
<g id="edge37" class="edge">
<title>180-&gt;190</title>
<path fill="none" stroke="#88a0d6" d="M662.63,-774.84C676.04,-755.21 698.28,-722.67 713.96,-699.72"/>
<polygon fill="#88a0d6" stroke="#88a0d6" points="716.83,-701.72 719.59,-691.49 711.06,-697.77 716.83,-701.72"/>
<text text-anchor="start" x="696.02" y="-728.88" font-family="Roboto, sans-serif" font-weight="bold" font-size="14.00">JA</text>
</g>
<!-- A14 -->
<g id="node33" class="node">
<title>A14</title>
<path fill="#c4cac1" stroke="black" stroke-width="0" d="M238.05,-585.4C238.05,-585.4 12,-585.4 12,-585.4 6,-585.4 0,-579.4 0,-573.4 0,-573.4 0,-530.12 0,-530.12 0,-524.12 6,-518.12 12,-518.12 12,-518.12 238.05,-518.12 238.05,-518.12 244.05,-518.12 250.05,-524.12 250.05,-530.12 250.05,-530.12 250.05,-573.4 250.05,-573.4 250.05,-579.4 244.05,-585.4 238.05,-585.4"/>
<text text-anchor="start" x="14.4" y="-564.46" font-family="Roboto, sans-serif" font-weight="bold" font-size="14.00">A14</text>
<text text-anchor="start" x="14.4" y="-552.36" font-family="Roboto, sans-serif" text-decoration="underline" font-size="12.00">Hinweis:</text>
<text text-anchor="start" x="14.4" y="-540.36" font-family="Roboto, sans-serif" font-size="12.00">Cluster: Ablehnung</text>
<text text-anchor="start" x="14.4" y="-528.36" font-family="Roboto, sans-serif" font-size="12.00">Bestellter Zustand bereits vorhanden</text>
</g>
<!-- 190&#45;&gt;A14 -->
<g id="edge38" class="edge">
<title>190-&gt;A14</title>
<path fill="none" stroke="#88a0d6" d="M628.8,-654.36C535.37,-638.62 393.77,-613.73 260.97,-585.77"/>
<polygon fill="#88a0d6" stroke="#88a0d6" points="261.78,-582.37 251.27,-583.72 260.33,-589.22 261.78,-582.37"/>
<text text-anchor="start" x="427.02" y="-608.35" font-family="Roboto, sans-serif" font-weight="bold" font-size="14.00">JA</text>
</g>
<!-- 200 -->
<g id="node34" class="node">
<title>200</title>
<path fill="#c2cee9" stroke="black" stroke-width="0" d="M718.17,-569.76C718.17,-569.76 279.88,-569.76 279.88,-569.76 273.88,-569.76 267.88,-563.76 267.88,-557.76 267.88,-557.76 267.88,-545.76 267.88,-545.76 267.88,-539.76 273.88,-533.76 279.88,-533.76 279.88,-533.76 718.17,-533.76 718.17,-533.76 724.17,-533.76 730.17,-539.76 730.17,-545.76 730.17,-545.76 730.17,-557.76 730.17,-557.76 730.17,-563.76 724.17,-569.76 718.17,-569.76"/>
<text text-anchor="start" x="282.27" y="-548.09" font-family="Roboto, sans-serif" font-weight="bold" font-size="14.00">200: </text>
<text text-anchor="start" x="321.27" y="-548.09" font-family="Roboto, sans-serif" font-size="14.00">Ist die gew&#252;nschte Konfiguration grunds&#228;tzlich m&#246;glich?</text>
</g>
<!-- 190&#45;&gt;200 -->
<g id="edge39" class="edge">
<title>190-&gt;200</title>
<path fill="none" stroke="#88a0d6" d="M698.64,-654.31C657.55,-633.4 587.67,-597.85 542.44,-574.85"/>
<polygon fill="#88a0d6" stroke="#88a0d6" points="544.2,-571.81 533.7,-570.4 541.02,-578.05 544.2,-571.81"/>
<text text-anchor="start" x="629.02" y="-608.35" font-family="Roboto, sans-serif" font-weight="bold" font-size="14.00">NEIN</text>
</g>
<!-- A15 -->
<g id="node35" class="node">
<title>A15</title>
<path fill="#c4cac1" stroke="black" stroke-width="0" d="M363.8,-464.87C363.8,-464.87 22.25,-464.87 22.25,-464.87 16.25,-464.87 10.25,-458.87 10.25,-452.87 10.25,-452.87 10.25,-397.59 10.25,-397.59 10.25,-391.59 16.25,-385.59 22.25,-385.59 22.25,-385.59 363.8,-385.59 363.8,-385.59 369.8,-385.59 375.8,-391.59 375.8,-397.59 375.8,-397.59 375.8,-452.87 375.8,-452.87 375.8,-458.87 369.8,-464.87 363.8,-464.87"/>
<text text-anchor="start" x="24.65" y="-443.93" font-family="Roboto, sans-serif" font-weight="bold" font-size="14.00">A15</text>
<text text-anchor="start" x="24.65" y="-431.83" font-family="Roboto, sans-serif" text-decoration="underline" font-size="12.00">Hinweis:</text>
<text text-anchor="start" x="24.65" y="-419.83" font-family="Roboto, sans-serif" font-size="12.00">Cluster: Ablehnung</text>
<text text-anchor="start" x="24.65" y="-407.83" font-family="Roboto, sans-serif" font-size="12.00">Konfiguration technisch nicht m&#246;glich</text>
<text text-anchor="start" x="24.65" y="-395.83" font-family="Roboto, sans-serif" font-size="12.00">Hinweis: z.&#160;B. Z&#228;hlzeit bestellt und Eintarifz&#228;hler verbaut</text>
</g>
<!-- 200&#45;&gt;A15 -->
<g id="edge41" class="edge">
<title>200-&gt;A15</title>
<path fill="none" stroke="#88a0d6" d="M457.44,-533.84C416.68,-517.25 352.88,-491.29 298.16,-469.02"/>
<polygon fill="#88a0d6" stroke="#88a0d6" points="299.69,-465.86 289.11,-465.33 297.05,-472.34 299.69,-465.86"/>
<text text-anchor="start" x="373.02" y="-487.82" font-family="Roboto, sans-serif" font-weight="bold" font-size="14.00">NEIN</text>
</g>
<!-- 210 -->
<g id="node36" class="node">
<title>210</title>
<path fill="#c2cee9" stroke="black" stroke-width="0" d="M984.67,-447.87C984.67,-447.87 405.38,-447.87 405.38,-447.87 399.38,-447.87 393.38,-441.87 393.38,-435.87 393.38,-435.87 393.38,-414.59 393.38,-414.59 393.38,-408.59 399.38,-402.59 405.38,-402.59 405.38,-402.59 984.67,-402.59 984.67,-402.59 990.67,-402.59 996.67,-408.59 996.67,-414.59 996.67,-414.59 996.67,-435.87 996.67,-435.87 996.67,-441.87 990.67,-447.87 984.67,-447.87"/>
<text text-anchor="start" x="407.77" y="-426.93" font-family="Roboto, sans-serif" font-weight="bold" font-size="14.00">210: </text>
<text text-anchor="start" x="446.77" y="-426.93" font-family="Roboto, sans-serif" font-size="14.00">Wurde die Vorlauffristen zu der geplanten &#196;nderung der Ger&#228;tekonfiguration</text>
<text text-anchor="start" x="407.77" y="-412.93" font-family="Roboto, sans-serif" font-size="14.00">eingehalten?</text>
</g>
<!-- 200&#45;&gt;210 -->
<g id="edge40" class="edge">
<title>200-&gt;210</title>
<path fill="none" stroke="#88a0d6" d="M525.46,-533.97C557.82,-513.4 613.09,-478.29 651.7,-453.76"/>
<polygon fill="#88a0d6" stroke="#88a0d6" points="653.3,-456.89 659.86,-448.57 649.54,-450.98 653.3,-456.89"/>
<text text-anchor="start" x="602.02" y="-487.82" font-family="Roboto, sans-serif" font-weight="bold" font-size="14.00">JA</text>
</g>
<!-- A16 -->
<g id="node37" class="node">
<title>A16</title>
<path fill="#c4cac1" stroke="black" stroke-width="0" d="M755.55,-332.34C755.55,-332.34 634.5,-332.34 634.5,-332.34 628.5,-332.34 622.5,-326.34 622.5,-320.34 622.5,-320.34 622.5,-277.06 622.5,-277.06 622.5,-271.06 628.5,-265.06 634.5,-265.06 634.5,-265.06 755.55,-265.06 755.55,-265.06 761.55,-265.06 767.55,-271.06 767.55,-277.06 767.55,-277.06 767.55,-320.34 767.55,-320.34 767.55,-326.34 761.55,-332.34 755.55,-332.34"/>
<text text-anchor="start" x="636.9" y="-311.4" font-family="Roboto, sans-serif" font-weight="bold" font-size="14.00">A16</text>
<text text-anchor="start" x="636.9" y="-299.3" font-family="Roboto, sans-serif" text-decoration="underline" font-size="12.00">Hinweis:</text>
<text text-anchor="start" x="636.9" y="-287.3" font-family="Roboto, sans-serif" font-size="12.00">Cluster: Ablehnung </text>
<text text-anchor="start" x="636.9" y="-275.3" font-family="Roboto, sans-serif" font-size="12.00">Frist&#252;berschreitung</text>
</g>
<!-- 210&#45;&gt;A16 -->
<g id="edge43" class="edge">
<title>210-&gt;A16</title>
<path fill="none" stroke="#88a0d6" d="M695.02,-402.82C695.02,-386.55 695.02,-363.6 695.02,-343.48"/>
<polygon fill="#88a0d6" stroke="#88a0d6" points="698.53,-343.55 695.03,-333.55 691.53,-343.55 698.53,-343.55"/>
<text text-anchor="start" x="695.02" y="-355.29" font-family="Roboto, sans-serif" font-weight="bold" font-size="14.00">NEIN</text>
</g>
<!-- 210&#45;&gt;220 -->
<g id="edge42" class="edge">
<title>210-&gt;220</title>
<path fill="none" stroke="#88a0d6" d="M716.06,-402.89C733.36,-384.84 758.02,-357.91 777.02,-332.34 797.95,-304.19 792.48,-288.83 818.27,-265.06 849.64,-236.15 892.56,-214.56 927.39,-200.25"/>
<polygon fill="#88a0d6" stroke="#88a0d6" points="928.53,-203.56 936.51,-196.6 925.93,-197.06 928.53,-203.56"/>
<text text-anchor="start" x="818.02" y="-295.02" font-family="Roboto, sans-serif" font-weight="bold" font-size="14.00">JA</text>
</g>
<!-- A99 -->
<g id="node39" class="node">
<title>A99</title>
<path fill="#c4cac1" stroke="black" stroke-width="0" d="M995.42,-91.28C995.42,-91.28 516.62,-91.28 516.62,-91.28 510.62,-91.28 504.62,-85.28 504.62,-79.28 504.62,-79.28 504.62,-12 504.62,-12 504.62,-6 510.62,0 516.62,0 516.62,0 995.42,0 995.42,0 1001.42,0 1007.42,-6 1007.42,-12 1007.42,-12 1007.42,-79.28 1007.42,-79.28 1007.42,-85.28 1001.42,-91.28 995.42,-91.28"/>
<text text-anchor="start" x="519.02" y="-70.34" font-family="Roboto, sans-serif" font-weight="bold" font-size="14.00">A99</text>
<text text-anchor="start" x="519.02" y="-58.24" font-family="Roboto, sans-serif" text-decoration="underline" font-size="12.00">Hinweis:</text>
<text text-anchor="start" x="519.02" y="-46.24" font-family="Roboto, sans-serif" font-size="12.00">Cluster: Ablehnung</text>
<text text-anchor="start" x="519.02" y="-34.24" font-family="Roboto, sans-serif" font-size="12.00">Sonstiges</text>
<text text-anchor="start" x="519.02" y="-22.24" font-family="Roboto, sans-serif" font-size="12.00">Hinweis: Das identifizierte Problem ist in der Antwort zu beschreiben/benennen.</text>
<text text-anchor="start" x="519.02" y="-10.24" font-family="Roboto, sans-serif" font-size="12.00">Nutzungsm&#246;glichkeit Ende: 01.04.2025 00:00 Uhr</text>
</g>
<!-- 220&#45;&gt;A99 -->
<g id="edge44" class="edge">
<title>220-&gt;A99</title>
<path fill="none" stroke="#88a0d6" d="M958.17,-160.37C929.62,-144.31 885.13,-119.28 845.14,-96.78"/>
<polygon fill="#88a0d6" stroke="#88a0d6" points="847.11,-93.87 836.68,-92.02 843.67,-99.97 847.11,-93.87"/>
<text text-anchor="start" x="892.02" y="-114.23" font-family="Roboto, sans-serif" font-weight="bold" font-size="14.00">JA</text>
</g>
<!-- A17 -->
<g id="node40" class="node">
<title>A17</title>
<path fill="#c4cac1" stroke="black" stroke-width="0" d="M1402.8,-79.28C1402.8,-79.28 1037.25,-79.28 1037.25,-79.28 1031.25,-79.28 1025.25,-73.28 1025.25,-67.28 1025.25,-67.28 1025.25,-24 1025.25,-24 1025.25,-18 1031.25,-12 1037.25,-12 1037.25,-12 1402.8,-12 1402.8,-12 1408.8,-12 1414.8,-18 1414.8,-24 1414.8,-24 1414.8,-67.28 1414.8,-67.28 1414.8,-73.28 1408.8,-79.28 1402.8,-79.28"/>
<text text-anchor="start" x="1039.65" y="-58.34" font-family="Roboto, sans-serif" font-weight="bold" font-size="14.00">A17</text>
<text text-anchor="start" x="1039.65" y="-46.24" font-family="Roboto, sans-serif" text-decoration="underline" font-size="12.00">Hinweis:</text>
<text text-anchor="start" x="1039.65" y="-34.24" font-family="Roboto, sans-serif" font-size="12.00">Cluster: Zustimmung</text>
<text text-anchor="start" x="1039.65" y="-22.24" font-family="Roboto, sans-serif" font-size="12.00">Bestellung wird an den MSB der Marktlokation weitergeleitet</text>
</g>
<!-- 220&#45;&gt;A17 -->
<g id="edge45" class="edge">
<title>220-&gt;A17</title>
<path fill="none" stroke="#88a0d6" d="M1017.88,-160.37C1051.67,-141.36 1107.81,-109.78 1152.36,-84.71"/>
<polygon fill="#88a0d6" stroke="#88a0d6" points="1153.94,-87.84 1160.93,-79.89 1150.5,-81.74 1153.94,-87.84"/>
<text text-anchor="start" x="1104.03" y="-114.23" font-family="Roboto, sans-serif" font-weight="bold" font-size="14.00">NEIN</text>
</g>
</g>
</svg>
  </g>
</svg>
  </g>
</svg>
