<?xml version='1.0' encoding='ASCII' standalone='yes'?>
<svg xmlns="http://www.w3.org/2000/svg" xmlns:xlink="http://www.w3.org/1999/xlink" version="1.1" width="1269.3333333333333px" viewBox="0 0 1269.3333333333333 941.3333333333334" height="941.3333333333334px">
  <g>
    <svg version="1.1" width="1269.3333333333333px" viewBox="0 0 1269.3333333333333 941.3333333333334" height="941.3333333333334px">
  <rect fill="#e7e6e5" x="0" y="0" width="1269.3333333333333" height="941.3333333333334" rx="20" ry="20"/><g>
    <g transform="translate(250.79035013611178, 94.13333333333331) scale(1 1) translate(0, 0) scale(1.3254482305453865 1.3254482305453865) "><!-- note that I manually added the width and height attribute to the root node
  https://chatgpt.com/share/678e3028-70cc-800b-a296-782714735772
  -->
  <defs>
    <style>.cls-1{fill:#fff;}</style>
  </defs>
  <path class="cls-1" d="M122.44,531.2h-56.1c-11,0-19.9-9.12-19.46-20.11C57.47,243.89,278.15,29.78,547.91,29.78v56.02c0,10.98-8.69,19.89-19.66,20.39-225.51,10.31-405.8,197-405.8,425Z"/>
  <path class="cls-1" d="M273.78,531.2h-55.93c-11.23,0-20.09-9.48-19.43-20.69,10.74-183.44,163.39-329.39,349.48-329.39v56.26c0,10.71-8.27,19.62-18.96,20.35-142.35,9.77-255.17,128.69-255.17,273.46Z"/>
  <path class="cls-1" d="M425.77,531.2h-55.45c-11.65,0-20.6-10.17-19.33-21.75,10.87-99.03,95.03-176.34,196.92-176.34v57.01c0,10.05-7.28,18.75-17.23,20.16-59.22,8.4-104.91,59.42-104.91,120.92Z"/>
</g>
    <svg width="952pt" height="706pt" viewBox="0.00 0.00 952.05 706.40">
<g id="graph0" class="graph" transform="scale(1 1) rotate(0) translate(4 702.4)">
<title>D</title>
<text text-anchor="start" x="214.03" y="-678.3" font-family="Roboto, sans-serif" font-weight="bold" font-size="18.00">GPKE</text>
<text text-anchor="start" x="214.03" y="-648.2" font-family="Roboto, sans-serif" font-weight="bold" font-size="16.00">6.38.9: AD Bestellung einer Konfiguration vom LF an MSB</text>
<!-- Start -->
<g id="node1" class="node">
<title>Start</title>
<path fill="#8ba2d7" stroke="black" stroke-width="0" d="M389.92,-600.4C389.92,-600.4 247.12,-600.4 247.12,-600.4 241.12,-600.4 235.12,-594.4 235.12,-588.4 235.12,-588.4 235.12,-569.12 235.12,-569.12 235.12,-563.12 241.12,-557.12 247.12,-557.12 247.12,-557.12 389.92,-557.12 389.92,-557.12 395.92,-557.12 401.92,-563.12 401.92,-569.12 401.92,-569.12 401.92,-588.4 401.92,-588.4 401.92,-594.4 395.92,-600.4 389.92,-600.4"/>
<text text-anchor="start" x="249.52" y="-579.46" font-family="Roboto, sans-serif" font-weight="bold" font-size="14.00">E_0538</text>
<text text-anchor="start" x="249.52" y="-567.36" font-family="Roboto, sans-serif" font-weight="bold" text-decoration="underline" font-size="12.00">Pr&#252;fende Rolle:</text>
<text text-anchor="start" x="353.02" y="-567.36" font-family="Roboto, sans-serif" font-weight="bold" font-size="12.00"> MSB</text>
</g>
<!-- 15 -->
<g id="node2" class="node">
<title>15</title>
<path fill="#c2cee9" stroke="black" stroke-width="0" d="M560.92,-520.12C560.92,-520.12 76.12,-520.12 76.12,-520.12 70.12,-520.12 64.12,-514.12 64.12,-508.12 64.12,-508.12 64.12,-486.84 64.12,-486.84 64.12,-480.84 70.12,-474.84 76.12,-474.84 76.12,-474.84 560.92,-474.84 560.92,-474.84 566.92,-474.84 572.92,-480.84 572.92,-486.84 572.92,-486.84 572.92,-508.12 572.92,-508.12 572.92,-514.12 566.92,-520.12 560.92,-520.12"/>
<text text-anchor="start" x="78.52" y="-499.18" font-family="Roboto, sans-serif" font-weight="bold" font-size="14.00">15: </text>
<text text-anchor="start" x="107.77" y="-499.18" font-family="Roboto, sans-serif" font-size="14.00">Wurden die Vorlauffristen eingehalten?</text>
<text text-anchor="start" x="78.52" y="-485.18" font-family="Roboto, sans-serif" font-size="14.00">Hinweis: Es ist die maximale und die minimale Vorlauffrist zu pr&#252;fen.</text>
</g>
<!-- Start&#45;&gt;15 -->
<g id="edge1" class="edge">
<title>Start-&gt;15</title>
<path fill="none" stroke="#88a0d6" d="M318.52,-557.34C318.52,-549.37 318.52,-540.02 318.52,-531.16"/>
<polygon fill="#88a0d6" stroke="#88a0d6" points="322.03,-531.45 318.53,-521.45 315.03,-531.45 322.03,-531.45"/>
</g>
<!-- A04 -->
<g id="node3" class="node">
<title>A04</title>
<path fill="#c4cac1" stroke="black" stroke-width="0" d="M333.93,-421.59C333.93,-421.59 89.12,-421.59 89.12,-421.59 83.12,-421.59 77.12,-415.59 77.12,-409.59 77.12,-409.59 77.12,-366.31 77.12,-366.31 77.12,-360.31 83.12,-354.31 89.12,-354.31 89.12,-354.31 333.93,-354.31 333.93,-354.31 339.93,-354.31 345.93,-360.31 345.93,-366.31 345.93,-366.31 345.93,-409.59 345.93,-409.59 345.93,-415.59 339.93,-421.59 333.93,-421.59"/>
<text text-anchor="start" x="91.53" y="-400.65" font-family="Roboto, sans-serif" font-weight="bold" font-size="14.00">A04</text>
<text text-anchor="start" x="91.53" y="-388.55" font-family="Roboto, sans-serif" text-decoration="underline" font-size="12.00">Hinweis:</text>
<text text-anchor="start" x="91.53" y="-376.55" font-family="Roboto, sans-serif" font-size="12.00">Cluster: Ablehnung</text>
<text text-anchor="start" x="91.53" y="-364.55" font-family="Roboto, sans-serif" font-size="12.00">Die Vorlauffrist wurde nicht eingehalten.</text>
</g>
<!-- 15&#45;&gt;A04 -->
<g id="edge2" class="edge">
<title>15-&gt;A04</title>
<path fill="none" stroke="#88a0d6" d="M297.13,-474.98C284.15,-461.93 267.16,-444.86 251.74,-429.37"/>
<polygon fill="#88a0d6" stroke="#88a0d6" points="254.46,-427.13 244.92,-422.51 249.49,-432.07 254.46,-427.13"/>
<text text-anchor="start" x="277.52" y="-444.54" font-family="Roboto, sans-serif" font-weight="bold" font-size="14.00">NEIN</text>
</g>
<!-- 20 -->
<g id="node4" class="node">
<title>20</title>
<path fill="#c2cee9" stroke="black" stroke-width="0" d="M777.3,-405.95C777.3,-405.95 375.75,-405.95 375.75,-405.95 369.75,-405.95 363.75,-399.95 363.75,-393.95 363.75,-393.95 363.75,-381.95 363.75,-381.95 363.75,-375.95 369.75,-369.95 375.75,-369.95 375.75,-369.95 777.3,-369.95 777.3,-369.95 783.3,-369.95 789.3,-375.95 789.3,-381.95 789.3,-381.95 789.3,-393.95 789.3,-393.95 789.3,-399.95 783.3,-405.95 777.3,-405.95"/>
<text text-anchor="start" x="378.15" y="-384.27" font-family="Roboto, sans-serif" font-weight="bold" font-size="14.00">20: </text>
<text text-anchor="start" x="407.4" y="-384.27" font-family="Roboto, sans-serif" font-size="14.00">Handelt es sich um eine kostenpflichtige Bestellung?</text>
</g>
<!-- 15&#45;&gt;20 -->
<g id="edge3" class="edge">
<title>15-&gt;20</title>
<path fill="none" stroke="#88a0d6" d="M370.42,-474.85C415.65,-456 480.85,-428.82 525.75,-410.11"/>
<polygon fill="#88a0d6" stroke="#88a0d6" points="526.85,-413.45 534.73,-406.37 524.16,-406.98 526.85,-413.45"/>
<text text-anchor="start" x="447.52" y="-444.54" font-family="Roboto, sans-serif" font-weight="bold" font-size="14.00">JA</text>
</g>
<!-- 30 -->
<g id="node5" class="node">
<title>30</title>
<path fill="#c2cee9" stroke="black" stroke-width="0" d="M612.55,-301.06C612.55,-301.06 140.5,-301.06 140.5,-301.06 134.5,-301.06 128.5,-295.06 128.5,-289.06 128.5,-289.06 128.5,-277.06 128.5,-277.06 128.5,-271.06 134.5,-265.06 140.5,-265.06 140.5,-265.06 612.55,-265.06 612.55,-265.06 618.55,-265.06 624.55,-271.06 624.55,-277.06 624.55,-277.06 624.55,-289.06 624.55,-289.06 624.55,-295.06 618.55,-301.06 612.55,-301.06"/>
<text text-anchor="start" x="142.9" y="-279.38" font-family="Roboto, sans-serif" font-weight="bold" font-size="14.00">30: </text>
<text text-anchor="start" x="172.15" y="-279.38" font-family="Roboto, sans-serif" font-size="14.00">Handelt es sich um eine Bestellung, die beendet werden kann?</text>
</g>
<!-- 20&#45;&gt;30 -->
<g id="edge4" class="edge">
<title>20-&gt;30</title>
<path fill="none" stroke="#88a0d6" d="M543.5,-369.96C509.53,-352.48 456.46,-325.18 419.3,-306.07"/>
<polygon fill="#88a0d6" stroke="#88a0d6" points="421.11,-303.06 410.61,-301.6 417.9,-309.28 421.11,-303.06"/>
<text text-anchor="start" x="476.52" y="-324.01" font-family="Roboto, sans-serif" font-weight="bold" font-size="14.00">NEIN</text>
</g>
<!-- 40 -->
<g id="node7" class="node">
<title>40</title>
<path fill="#c2cee9" stroke="black" stroke-width="0" d="M857.55,-196.17C857.55,-196.17 463.5,-196.17 463.5,-196.17 457.5,-196.17 451.5,-190.17 451.5,-184.17 451.5,-184.17 451.5,-172.17 451.5,-172.17 451.5,-166.17 457.5,-160.17 463.5,-160.17 463.5,-160.17 857.55,-160.17 857.55,-160.17 863.55,-160.17 869.55,-166.17 869.55,-172.17 869.55,-172.17 869.55,-184.17 869.55,-184.17 869.55,-190.17 863.55,-196.17 857.55,-196.17"/>
<text text-anchor="start" x="465.9" y="-174.5" font-family="Roboto, sans-serif" font-weight="bold" font-size="14.00">40: </text>
<text text-anchor="start" x="495.15" y="-174.5" font-family="Roboto, sans-serif" font-size="14.00">Ist ein zuvor nicht spezifizierter Fehler aufgetreten?</text>
</g>
<!-- 20&#45;&gt;40 -->
<g id="edge5" class="edge">
<title>20-&gt;40</title>
<path fill="none" stroke="#88a0d6" d="M590.57,-369.95C603.58,-353.36 622.53,-326.92 633.52,-301.06 646.57,-270.38 653.69,-232.56 657.29,-207.26"/>
<polygon fill="#88a0d6" stroke="#88a0d6" points="660.75,-207.8 658.59,-197.43 653.81,-206.88 660.75,-207.8"/>
<text text-anchor="start" x="645.52" y="-279.38" font-family="Roboto, sans-serif" font-weight="bold" font-size="14.00">JA</text>
</g>
<!-- A02 -->
<g id="node6" class="node">
<title>A02</title>
<path fill="#c4cac1" stroke="black" stroke-width="0" d="M421.05,-211.81C421.05,-211.81 12,-211.81 12,-211.81 6,-211.81 0,-205.81 0,-199.81 0,-199.81 0,-156.53 0,-156.53 0,-150.53 6,-144.53 12,-144.53 12,-144.53 421.05,-144.53 421.05,-144.53 427.05,-144.53 433.05,-150.53 433.05,-156.53 433.05,-156.53 433.05,-199.81 433.05,-199.81 433.05,-205.81 427.05,-211.81 421.05,-211.81"/>
<text text-anchor="start" x="14.4" y="-190.87" font-family="Roboto, sans-serif" font-weight="bold" font-size="14.00">A02</text>
<text text-anchor="start" x="14.4" y="-178.77" font-family="Roboto, sans-serif" text-decoration="underline" font-size="12.00">Hinweis:</text>
<text text-anchor="start" x="14.4" y="-166.77" font-family="Roboto, sans-serif" font-size="12.00">Cluster: Ablehnung</text>
<text text-anchor="start" x="14.4" y="-154.77" font-family="Roboto, sans-serif" font-size="12.00">Es handelt sich um eine Bestellung, die nicht beendet werden kann.</text>
</g>
<!-- 30&#45;&gt;A02 -->
<g id="edge6" class="edge">
<title>30-&gt;A02</title>
<path fill="none" stroke="#88a0d6" d="M350.1,-265.07C330.19,-252.27 302.08,-234.19 276.79,-217.92"/>
<polygon fill="#88a0d6" stroke="#88a0d6" points="278.83,-215.07 268.52,-212.61 275.04,-220.96 278.83,-215.07"/>
<text text-anchor="start" x="319.52" y="-234.76" font-family="Roboto, sans-serif" font-weight="bold" font-size="14.00">NEIN</text>
</g>
<!-- 30&#45;&gt;40 -->
<g id="edge7" class="edge">
<title>30-&gt;40</title>
<path fill="none" stroke="#88a0d6" d="M423.42,-265.07C472.8,-247.18 550.57,-219.01 603.47,-199.84"/>
<polygon fill="#88a0d6" stroke="#88a0d6" points="604.4,-203.23 612.61,-196.53 602.01,-196.65 604.4,-203.23"/>
<text text-anchor="start" x="518.52" y="-234.76" font-family="Roboto, sans-serif" font-weight="bold" font-size="14.00">JA</text>
</g>
<!-- A99 -->
<g id="node8" class="node">
<title>A99</title>
<path fill="#c4cac1" stroke="black" stroke-width="0" d="M714.92,-91.28C714.92,-91.28 236.12,-91.28 236.12,-91.28 230.12,-91.28 224.12,-85.28 224.12,-79.28 224.12,-79.28 224.12,-12 224.12,-12 224.12,-6 230.12,0 236.12,0 236.12,0 714.92,0 714.92,0 720.92,0 726.92,-6 726.92,-12 726.92,-12 726.92,-79.28 726.92,-79.28 726.92,-85.28 720.92,-91.28 714.92,-91.28"/>
<text text-anchor="start" x="238.52" y="-70.34" font-family="Roboto, sans-serif" font-weight="bold" font-size="14.00">A99</text>
<text text-anchor="start" x="238.52" y="-58.24" font-family="Roboto, sans-serif" text-decoration="underline" font-size="12.00">Hinweis:</text>
<text text-anchor="start" x="238.52" y="-46.24" font-family="Roboto, sans-serif" font-size="12.00">Cluster: Ablehnung</text>
<text text-anchor="start" x="238.52" y="-34.24" font-family="Roboto, sans-serif" font-size="12.00">Sonstiges</text>
<text text-anchor="start" x="238.52" y="-22.24" font-family="Roboto, sans-serif" font-size="12.00">Hinweis: Das identifizierte Problem ist in der Antwort zu beschreiben/benennen.</text>
<text text-anchor="start" x="238.52" y="-10.24" font-family="Roboto, sans-serif" font-size="12.00">Nutzungsm&#246;glichkeit Ende: 01.04.2025 00:00 Uhr</text>
</g>
<!-- 40&#45;&gt;A99 -->
<g id="edge8" class="edge">
<title>40-&gt;A99</title>
<path fill="none" stroke="#88a0d6" d="M636.72,-160.37C614.25,-144.52 579.38,-119.92 547.82,-97.65"/>
<polygon fill="#88a0d6" stroke="#88a0d6" points="550.01,-94.91 539.82,-92.01 545.97,-100.63 550.01,-94.91"/>
<text text-anchor="start" x="584.52" y="-114.23" font-family="Roboto, sans-serif" font-weight="bold" font-size="14.00">JA</text>
</g>
<!-- A03 -->
<g id="node9" class="node">
<title>A03</title>
<path fill="#c4cac1" stroke="black" stroke-width="0" d="M932.05,-79.28C932.05,-79.28 757,-79.28 757,-79.28 751,-79.28 745,-73.28 745,-67.28 745,-67.28 745,-24 745,-24 745,-18 751,-12 757,-12 757,-12 932.05,-12 932.05,-12 938.05,-12 944.05,-18 944.05,-24 944.05,-24 944.05,-67.28 944.05,-67.28 944.05,-73.28 938.05,-79.28 932.05,-79.28"/>
<text text-anchor="start" x="759.4" y="-58.34" font-family="Roboto, sans-serif" font-weight="bold" font-size="14.00">A03</text>
<text text-anchor="start" x="759.4" y="-46.24" font-family="Roboto, sans-serif" text-decoration="underline" font-size="12.00">Hinweis:</text>
<text text-anchor="start" x="759.4" y="-34.24" font-family="Roboto, sans-serif" font-size="12.00">Cluster: Zustimmung</text>
<text text-anchor="start" x="759.4" y="-22.24" font-family="Roboto, sans-serif" font-size="12.00">Best&#228;tigung der Beendigung</text>
</g>
<!-- 40&#45;&gt;A03 -->
<g id="edge9" class="edge">
<title>40-&gt;A03</title>
<path fill="none" stroke="#88a0d6" d="M684.2,-160.37C710.67,-141.6 754.41,-110.57 789.52,-85.66"/>
<polygon fill="#88a0d6" stroke="#88a0d6" points="791.34,-88.66 797.47,-80.02 787.29,-82.95 791.34,-88.66"/>
<text text-anchor="start" x="752.52" y="-114.23" font-family="Roboto, sans-serif" font-weight="bold" font-size="14.00">NEIN</text>
</g>
</g>
</svg>
  </g>
</svg>
  </g>
</svg>
