<?xml version='1.0' encoding='ASCII' standalone='yes'?>
<svg xmlns="http://www.w3.org/2000/svg" xmlns:xlink="http://www.w3.org/1999/xlink" version="1.1" width="1257.3333333333333px" viewBox="0 0 1257.3333333333333 918.6666666666666" height="918.6666666666666px">
  <g>
    <svg version="1.1" width="1257.3333333333333px" viewBox="0 0 1257.3333333333333 918.6666666666666" height="918.6666666666666px">
  <rect fill="#e7e6e5" x="0" y="0" width="1257.3333333333333" height="918.6666666666666" rx="20" ry="20"/><g>
    <g transform="translate(254.0338308457711, 91.86666666666665) scale(1 1) translate(0, 0) scale(1.2935323383084578 1.2935323383084578) "><!-- note that I manually added the width and height attribute to the root node
  https://chatgpt.com/share/678e3028-70cc-800b-a296-782714735772
  -->
  <defs>
    <style>.cls-1{fill:#fff;}</style>
  </defs>
  <path class="cls-1" d="M122.44,531.2h-56.1c-11,0-19.9-9.12-19.46-20.11C57.47,243.89,278.15,29.78,547.91,29.78v56.02c0,10.98-8.69,19.89-19.66,20.39-225.51,10.31-405.8,197-405.8,425Z"/>
  <path class="cls-1" d="M273.78,531.2h-55.93c-11.23,0-20.09-9.48-19.43-20.69,10.74-183.44,163.39-329.39,349.48-329.39v56.26c0,10.71-8.27,19.62-18.96,20.35-142.35,9.77-255.17,128.69-255.17,273.46Z"/>
  <path class="cls-1" d="M425.77,531.2h-55.45c-11.65,0-20.6-10.17-19.33-21.75,10.87-99.03,95.03-176.34,196.92-176.34v57.01c0,10.05-7.28,18.75-17.23,20.16-59.22,8.4-104.91,59.42-104.91,120.92Z"/>
</g>
    <svg width="943pt" height="689pt" viewBox="0.00 0.00 942.73 689.12">
<g id="graph0" class="graph" transform="scale(1 1) rotate(0) translate(4 685.12)">
<title>D</title>
<text text-anchor="start" x="153.87" y="-661.02" font-family="Roboto, sans-serif" font-weight="bold" font-size="18.00">GPKE</text>
<text text-anchor="start" x="153.87" y="-630.92" font-family="Roboto, sans-serif" font-weight="bold" font-size="16.00">6.39.1: AD Bestellung Beendigung einer Konfiguration vom LF an MSB</text>
<!-- Start -->
<g id="node1" class="node">
<title>Start</title>
<path fill="#8ba2d7" stroke="black" stroke-width="0" d="M385.76,-583.12C385.76,-583.12 242.97,-583.12 242.97,-583.12 236.97,-583.12 230.97,-577.12 230.97,-571.12 230.97,-571.12 230.97,-551.84 230.97,-551.84 230.97,-545.84 236.97,-539.84 242.97,-539.84 242.97,-539.84 385.76,-539.84 385.76,-539.84 391.76,-539.84 397.76,-545.84 397.76,-551.84 397.76,-551.84 397.76,-571.12 397.76,-571.12 397.76,-577.12 391.76,-583.12 385.76,-583.12"/>
<text text-anchor="start" x="245.37" y="-562.18" font-family="Roboto, sans-serif" font-weight="bold" font-size="14.00">E_0540</text>
<text text-anchor="start" x="245.37" y="-550.08" font-family="Roboto, sans-serif" font-weight="bold" text-decoration="underline" font-size="12.00">Pr&#252;fende Rolle:</text>
<text text-anchor="start" x="348.87" y="-550.08" font-family="Roboto, sans-serif" font-weight="bold" font-size="12.00"> MSB</text>
</g>
<!-- 15 -->
<g id="node2" class="node">
<title>15</title>
<path fill="#c2cee9" stroke="black" stroke-width="0" d="M556.76,-502.84C556.76,-502.84 71.97,-502.84 71.97,-502.84 65.97,-502.84 59.97,-496.84 59.97,-490.84 59.97,-490.84 59.97,-469.56 59.97,-469.56 59.97,-463.56 65.97,-457.56 71.97,-457.56 71.97,-457.56 556.76,-457.56 556.76,-457.56 562.76,-457.56 568.76,-463.56 568.76,-469.56 568.76,-469.56 568.76,-490.84 568.76,-490.84 568.76,-496.84 562.76,-502.84 556.76,-502.84"/>
<text text-anchor="start" x="74.37" y="-481.9" font-family="Roboto, sans-serif" font-weight="bold" font-size="14.00">15: </text>
<text text-anchor="start" x="103.62" y="-481.9" font-family="Roboto, sans-serif" font-size="14.00">Wurden die Vorlauffristen eingehalten?</text>
<text text-anchor="start" x="74.37" y="-467.9" font-family="Roboto, sans-serif" font-size="14.00">Hinweis: Es ist die maximale und die minimale Vorlauffrist zu pr&#252;fen.</text>
</g>
<!-- Start&#45;&gt;15 -->
<g id="edge1" class="edge">
<title>Start-&gt;15</title>
<path fill="none" stroke="#88a0d6" d="M314.37,-540.06C314.37,-532.09 314.37,-522.74 314.37,-513.88"/>
<polygon fill="#88a0d6" stroke="#88a0d6" points="317.87,-514.17 314.37,-504.17 310.87,-514.17 317.87,-514.17"/>
</g>
<!-- A04 -->
<g id="node3" class="node">
<title>A04</title>
<path fill="#c4cac1" stroke="black" stroke-width="0" d="M328.61,-404.31C328.61,-404.31 88.12,-404.31 88.12,-404.31 82.12,-404.31 76.12,-398.31 76.12,-392.31 76.12,-392.31 76.12,-354.79 76.12,-354.79 76.12,-348.79 82.12,-342.79 88.12,-342.79 88.12,-342.79 328.61,-342.79 328.61,-342.79 334.61,-342.79 340.61,-348.79 340.61,-354.79 340.61,-354.79 340.61,-392.31 340.61,-392.31 340.61,-398.31 334.61,-404.31 328.61,-404.31"/>
<text text-anchor="start" x="88.37" y="-386.25" font-family="Roboto, sans-serif" font-weight="bold" font-size="14.00">A04</text>
<text text-anchor="start" x="88.37" y="-374.15" font-family="Roboto, sans-serif" text-decoration="underline" font-size="12.00">Hinweis:</text>
<text text-anchor="start" x="88.37" y="-362.15" font-family="Roboto, sans-serif" font-size="12.00">Cluster: Ablehnung</text>
<text text-anchor="start" x="88.37" y="-350.15" font-family="Roboto, sans-serif" font-size="12.00">Die Vorlauffrist wurde nicht eingehalten.</text>
</g>
<!-- 15&#45;&gt;A04 -->
<g id="edge2" class="edge">
<title>15-&gt;A04</title>
<path fill="none" stroke="#88a0d6" d="M292.66,-457.77C279.35,-444.63 261.94,-427.45 246.4,-412.1"/>
<polygon fill="#88a0d6" stroke="#88a0d6" points="249.13,-409.88 239.56,-405.34 244.21,-414.86 249.13,-409.88"/>
<text text-anchor="start" x="273.37" y="-427.26" font-family="Roboto, sans-serif" font-weight="bold" font-size="14.00">NEIN</text>
</g>
<!-- 20 -->
<g id="node4" class="node">
<title>20</title>
<path fill="#c2cee9" stroke="black" stroke-width="0" d="M772.14,-391.55C772.14,-391.55 370.59,-391.55 370.59,-391.55 364.59,-391.55 358.59,-385.55 358.59,-379.55 358.59,-379.55 358.59,-367.55 358.59,-367.55 358.59,-361.55 364.59,-355.55 370.59,-355.55 370.59,-355.55 772.14,-355.55 772.14,-355.55 778.14,-355.55 784.14,-361.55 784.14,-367.55 784.14,-367.55 784.14,-379.55 784.14,-379.55 784.14,-385.55 778.14,-391.55 772.14,-391.55"/>
<text text-anchor="start" x="372.99" y="-369.87" font-family="Roboto, sans-serif" font-weight="bold" font-size="14.00">20: </text>
<text text-anchor="start" x="402.24" y="-369.87" font-family="Roboto, sans-serif" font-size="14.00">Handelt es sich um eine kostenpflichtige Bestellung?</text>
</g>
<!-- 15&#45;&gt;20 -->
<g id="edge3" class="edge">
<title>15-&gt;20</title>
<path fill="none" stroke="#88a0d6" d="M367.3,-457.64C411.83,-439.51 475.13,-413.74 519.38,-395.72"/>
<polygon fill="#88a0d6" stroke="#88a0d6" points="520.57,-399.01 528.52,-392 517.93,-392.53 520.57,-399.01"/>
<text text-anchor="start" x="450.37" y="-427.26" font-family="Roboto, sans-serif" font-weight="bold" font-size="14.00">JA</text>
</g>
<!-- 30 -->
<g id="node5" class="node">
<title>30</title>
<path fill="#c2cee9" stroke="black" stroke-width="0" d="M607.39,-289.54C607.39,-289.54 135.34,-289.54 135.34,-289.54 129.34,-289.54 123.34,-283.54 123.34,-277.54 123.34,-277.54 123.34,-265.54 123.34,-265.54 123.34,-259.54 129.34,-253.54 135.34,-253.54 135.34,-253.54 607.39,-253.54 607.39,-253.54 613.39,-253.54 619.39,-259.54 619.39,-265.54 619.39,-265.54 619.39,-277.54 619.39,-277.54 619.39,-283.54 613.39,-289.54 607.39,-289.54"/>
<text text-anchor="start" x="137.74" y="-267.86" font-family="Roboto, sans-serif" font-weight="bold" font-size="14.00">30: </text>
<text text-anchor="start" x="166.99" y="-267.86" font-family="Roboto, sans-serif" font-size="14.00">Handelt es sich um eine Bestellung, die beendet werden kann?</text>
</g>
<!-- 20&#45;&gt;30 -->
<g id="edge4" class="edge">
<title>20-&gt;30</title>
<path fill="none" stroke="#88a0d6" d="M537.44,-355.58C503.72,-338.72 451.86,-312.79 415.07,-294.4"/>
<polygon fill="#88a0d6" stroke="#88a0d6" points="416.99,-291.44 406.48,-290.1 413.86,-297.7 416.99,-291.44"/>
<text text-anchor="start" x="471.37" y="-312.49" font-family="Roboto, sans-serif" font-weight="bold" font-size="14.00">NEIN</text>
</g>
<!-- 40 -->
<g id="node7" class="node">
<title>40</title>
<path fill="#c2cee9" stroke="black" stroke-width="0" d="M852.39,-187.53C852.39,-187.53 458.34,-187.53 458.34,-187.53 452.34,-187.53 446.34,-181.53 446.34,-175.53 446.34,-175.53 446.34,-163.53 446.34,-163.53 446.34,-157.53 452.34,-151.53 458.34,-151.53 458.34,-151.53 852.39,-151.53 852.39,-151.53 858.39,-151.53 864.39,-157.53 864.39,-163.53 864.39,-163.53 864.39,-175.53 864.39,-175.53 864.39,-181.53 858.39,-187.53 852.39,-187.53"/>
<text text-anchor="start" x="460.74" y="-165.85" font-family="Roboto, sans-serif" font-weight="bold" font-size="14.00">40: </text>
<text text-anchor="start" x="489.99" y="-165.85" font-family="Roboto, sans-serif" font-size="14.00">Ist ein zuvor nicht spezifizierter Fehler aufgetreten?</text>
</g>
<!-- 20&#45;&gt;40 -->
<g id="edge5" class="edge">
<title>20-&gt;40</title>
<path fill="none" stroke="#88a0d6" d="M585.91,-355.58C598.9,-339.56 617.5,-314.37 628.37,-289.54 641.35,-259.85 648.46,-223.15 652.08,-198.42"/>
<polygon fill="#88a0d6" stroke="#88a0d6" points="655.5,-199.2 653.38,-188.82 648.57,-198.26 655.5,-199.2"/>
<text text-anchor="start" x="640.37" y="-267.86" font-family="Roboto, sans-serif" font-weight="bold" font-size="14.00">JA</text>
</g>
<!-- A02 -->
<g id="node6" class="node">
<title>A02</title>
<path fill="#c4cac1" stroke="black" stroke-width="0" d="M416.73,-200.29C416.73,-200.29 12,-200.29 12,-200.29 6,-200.29 0,-194.29 0,-188.29 0,-188.29 0,-150.77 0,-150.77 0,-144.77 6,-138.77 12,-138.77 12,-138.77 416.73,-138.77 416.73,-138.77 422.73,-138.77 428.73,-144.77 428.73,-150.77 428.73,-150.77 428.73,-188.29 428.73,-188.29 428.73,-194.29 422.73,-200.29 416.73,-200.29"/>
<text text-anchor="start" x="12.24" y="-182.23" font-family="Roboto, sans-serif" font-weight="bold" font-size="14.00">A02</text>
<text text-anchor="start" x="12.24" y="-170.13" font-family="Roboto, sans-serif" text-decoration="underline" font-size="12.00">Hinweis:</text>
<text text-anchor="start" x="12.24" y="-158.13" font-family="Roboto, sans-serif" font-size="12.00">Cluster: Ablehnung</text>
<text text-anchor="start" x="12.24" y="-146.13" font-family="Roboto, sans-serif" font-size="12.00">Es handelt sich um eine Bestellung, die nicht beendet werden kann.</text>
</g>
<!-- 30&#45;&gt;A02 -->
<g id="edge6" class="edge">
<title>30-&gt;A02</title>
<path fill="none" stroke="#88a0d6" d="M344.73,-253.57C324.41,-240.63 295.69,-222.33 270.37,-206.21"/>
<polygon fill="#88a0d6" stroke="#88a0d6" points="272.45,-203.38 262.14,-200.96 268.69,-209.29 272.45,-203.38"/>
<text text-anchor="start" x="315.37" y="-223.24" font-family="Roboto, sans-serif" font-weight="bold" font-size="14.00">NEIN</text>
</g>
<!-- 30&#45;&gt;40 -->
<g id="edge7" class="edge">
<title>30-&gt;40</title>
<path fill="none" stroke="#88a0d6" d="M419.54,-253.57C468.45,-236.35 544.22,-209.67 596.62,-191.22"/>
<polygon fill="#88a0d6" stroke="#88a0d6" points="597.73,-194.54 606,-187.91 595.4,-187.93 597.73,-194.54"/>
<text text-anchor="start" x="513.37" y="-223.24" font-family="Roboto, sans-serif" font-weight="bold" font-size="14.00">JA</text>
</g>
<!-- A99 -->
<g id="node8" class="node">
<title>A99</title>
<path fill="#c4cac1" stroke="black" stroke-width="0" d="M709.61,-85.52C709.61,-85.52 235.12,-85.52 235.12,-85.52 229.12,-85.52 223.12,-79.52 223.12,-73.52 223.12,-73.52 223.12,-12 223.12,-12 223.12,-6 229.12,0 235.12,0 235.12,0 709.61,0 709.61,0 715.61,0 721.61,-6 721.61,-12 721.61,-12 721.61,-73.52 721.61,-73.52 721.61,-79.52 715.61,-85.52 709.61,-85.52"/>
<text text-anchor="start" x="235.37" y="-67.46" font-family="Roboto, sans-serif" font-weight="bold" font-size="14.00">A99</text>
<text text-anchor="start" x="235.37" y="-55.36" font-family="Roboto, sans-serif" text-decoration="underline" font-size="12.00">Hinweis:</text>
<text text-anchor="start" x="235.37" y="-43.36" font-family="Roboto, sans-serif" font-size="12.00">Cluster: Ablehnung</text>
<text text-anchor="start" x="235.37" y="-31.36" font-family="Roboto, sans-serif" font-size="12.00">Sonstiges</text>
<text text-anchor="start" x="235.37" y="-19.36" font-family="Roboto, sans-serif" font-size="12.00">Hinweis: Das identifizierte Problem ist in der Antwort zu beschreiben/benennen.</text>
<text text-anchor="start" x="235.37" y="-7.36" font-family="Roboto, sans-serif" font-size="12.00">Nutzungsm&#246;glichkeit Ende: 01.04.2025 00:00 Uhr</text>
</g>
<!-- 40&#45;&gt;A99 -->
<g id="edge8" class="edge">
<title>40-&gt;A99</title>
<path fill="none" stroke="#88a0d6" d="M630.68,-151.7C608.23,-136.39 573.96,-113.03 543.05,-91.95"/>
<polygon fill="#88a0d6" stroke="#88a0d6" points="545.06,-89.09 534.83,-86.35 541.12,-94.87 545.06,-89.09"/>
<text text-anchor="start" x="579.37" y="-108.47" font-family="Roboto, sans-serif" font-weight="bold" font-size="14.00">JA</text>
</g>
<!-- A03 -->
<g id="node9" class="node">
<title>A03</title>
<path fill="#c4cac1" stroke="black" stroke-width="0" d="M922.73,-73.52C922.73,-73.52 752,-73.52 752,-73.52 746,-73.52 740,-67.52 740,-61.52 740,-61.52 740,-24 740,-24 740,-18 746,-12 752,-12 752,-12 922.73,-12 922.73,-12 928.73,-12 934.73,-18 934.73,-24 934.73,-24 934.73,-61.52 934.73,-61.52 934.73,-67.52 928.73,-73.52 922.73,-73.52"/>
<text text-anchor="start" x="752.24" y="-55.46" font-family="Roboto, sans-serif" font-weight="bold" font-size="14.00">A03</text>
<text text-anchor="start" x="752.24" y="-43.36" font-family="Roboto, sans-serif" text-decoration="underline" font-size="12.00">Hinweis:</text>
<text text-anchor="start" x="752.24" y="-31.36" font-family="Roboto, sans-serif" font-size="12.00">Cluster: Zustimmung</text>
<text text-anchor="start" x="752.24" y="-19.36" font-family="Roboto, sans-serif" font-size="12.00">Best&#228;tigung der Beendigung</text>
</g>
<!-- 40&#45;&gt;A03 -->
<g id="edge9" class="edge">
<title>40-&gt;A03</title>
<path fill="none" stroke="#88a0d6" d="M679.91,-151.7C706.61,-133.4 750.08,-103.6 784.59,-79.94"/>
<polygon fill="#88a0d6" stroke="#88a0d6" points="786.54,-82.84 792.81,-74.3 782.59,-77.07 786.54,-82.84"/>
<text text-anchor="start" x="746.37" y="-108.47" font-family="Roboto, sans-serif" font-weight="bold" font-size="14.00">NEIN</text>
</g>
</g>
</svg>
  </g>
</svg>
  </g>
</svg>
