<?xml version='1.0' encoding='ASCII' standalone='yes'?>
<svg xmlns="http://www.w3.org/2000/svg" xmlns:xlink="http://www.w3.org/1999/xlink" version="1.1" width="5173.333333333333px" viewBox="0 0 5173.333333333333 1141.3333333333333" height="1141.3333333333333px">
  <g>
    <svg version="1.1" width="5173.333333333333px" viewBox="0 0 5173.333333333333 1141.3333333333333" height="1141.3333333333333px">
  <polygon fill="#f3f1f6" points="0,0 5173.333333333333,0 5173.333333333333,1141.3333333333333 0,1141.3333333333333"/><g>
    <g transform="translate(2130.471974024205, 114.1333333333333) scale(1 1) translate(0, 0) scale(5.161812222723604 5.161812222723604) "><sodipodi:namedview xmlns:sodipodi="http://sodipodi.sourceforge.net/DTD/sodipodi-0.dtd" xmlns:inkscape="http://www.inkscape.org/namespaces/inkscape" id="namedview7" pagecolor="#ffffff" bordercolor="#999999" borderopacity="1" inkscape:pageshadow="0" inkscape:pageopacity="0" inkscape:pagecheckerboard="0" inkscape:document-units="mm" showgrid="false" fit-margin-top="0" fit-margin-left="0" fit-margin-right="0" fit-margin-bottom="0" inkscape:zoom="0.64052329" inkscape:cx="130.36216" inkscape:cy="412.163" inkscape:window-width="1512" inkscape:window-height="916" inkscape:window-x="3840" inkscape:window-y="136" inkscape:window-maximized="0" inkscape:current-layer="layer1"/>
  <defs id="defs2">
    <clipPath clipPathUnits="userSpaceOnUse" id="clipPath23">
      <path d="M 0,568.156 H 579.236 V 0 H 0 Z" id="path21"/>
    </clipPath>
  </defs>
  <g xmlns:inkscape="http://www.inkscape.org/namespaces/inkscape" inkscape:label="Layer 1" inkscape:groupmode="layer" id="layer1" transform="translate(-16.541937,-55.305267)">
    <g id="g19" clip-path="url(#clipPath23)" transform="matrix(0.35277777,0,0,-0.35277777,0.01017023,243.73675)" style="opacity:0.2">
      <g id="g25" transform="translate(122.444,32.7195)">
        <path d="m 0,0 h -56.104 c -11,0 -19.898,9.123 -19.463,20.115 10.594,267.191 231.277,481.302 501.029,481.302 v -56.02 c 0,-10.98 -8.688,-19.892 -19.658,-20.393 C 180.29,414.697 0,228.005 0,0" style="fill:#6ead83;fill-opacity:1;fill-rule:nonzero;stroke:none" id="path27"/>
      </g>
      <g id="g29" transform="translate(273.7828,32.7195)">
        <path d="m 0,0 h -55.926 c -11.228,0 -20.091,9.482 -19.435,20.69 10.744,183.439 163.389,329.388 349.485,329.388 v -56.263 c 0,-10.709 -8.273,-19.617 -18.957,-20.35 C 112.819,263.696 0,144.774 0,0" style="fill:#6ead83;fill-opacity:1;fill-rule:nonzero;stroke:none" id="path31"/>
      </g>
      <g id="g33" transform="translate(425.7667,32.7195)">
        <path d="m 0,0 h -55.445 c -11.653,0 -20.604,10.17 -19.334,21.753 10.866,99.032 95.031,176.341 196.919,176.341 v -57.011 c 0,-10.046 -7.283,-18.755 -17.229,-20.165 C 45.688,112.522 0,61.497 0,0" style="fill:#6ead83;fill-opacity:1;fill-rule:nonzero;stroke:none" id="path35"/>
      </g>
    </g>
  </g>
</g>
    <svg width="3880pt" height="856pt" viewBox="0.00 0.00 3880.01 856.13">
<g id="graph0" class="graph" transform="scale(1 1) rotate(0) translate(4 852.13)">
<title>D</title>
<text text-anchor="start" x="1841.88" y="-828.03" font-family="Times,serif" font-weight="bold" font-size="18.00">Sperrprozesse Gas</text>
<text text-anchor="start" x="1533.26" y="-797.93" font-family="Times,serif" font-weight="bold" font-size="16.00">19.3.1: AD: Wiederherstellung der Anschlussnutzung (Entsperren) auf Anweisung des LF</text>
<!-- Start -->
<g id="node1" class="node">
<title>Start</title>
<polygon fill="#7a8da1" stroke="black" points="535.8,-750.13 375.75,-750.13 375.75,-706.85 535.8,-706.85 535.8,-750.13"/>
<text text-anchor="start" x="427.65" y="-729.19" font-family="Times,serif" font-weight="bold" font-size="14.00">E_1004</text>
<text text-anchor="start" x="390.15" y="-717.09" font-family="Times,serif" font-weight="bold" text-decoration="underline" font-size="12.00">Pr&#252;fende Rolle:</text>
<text text-anchor="start" x="495.15" y="-717.09" font-family="Times,serif" font-weight="bold" font-size="12.00"> NB</text>
</g>
<!-- 10 -->
<g id="node2" class="node">
<title>10</title>
<path fill="#7aab8a" stroke="black" d="M899.55,-669.85C899.55,-669.85 12,-669.85 12,-669.85 6,-669.85 0,-663.85 0,-657.85 0,-657.85 0,-645.85 0,-645.85 0,-639.85 6,-633.85 12,-633.85 12,-633.85 899.55,-633.85 899.55,-633.85 905.55,-633.85 911.55,-639.85 911.55,-645.85 911.55,-645.85 911.55,-657.85 911.55,-657.85 911.55,-663.85 905.55,-669.85 899.55,-669.85"/>
<text text-anchor="start" x="14.4" y="-648.18" font-family="Times,serif" font-weight="bold" font-size="14.00">10: </text>
<text text-anchor="start" x="43.65" y="-648.18" font-family="Times,serif" font-size="14.00">Wurde die Sperrung durch den UC "Unterbrechung der Anschlussnutzung (Sperren) auf Anweisung des LF" ausgel&#246;st?</text>
</g>
<!-- Start&#45;&gt;10 -->
<g id="edge1" class="edge">
<title>Start-&gt;10</title>
<path fill="none" stroke="black" d="M455.78,-706.7C455.78,-698.84 455.78,-689.76 455.78,-681.32"/>
<polygon fill="black" stroke="black" points="459.28,-681.52 455.78,-671.52 452.28,-681.52 459.28,-681.52"/>
</g>
<!-- A05 -->
<g id="node3" class="node">
<title>A05</title>
<polygon fill="#cfb986" stroke="black" points="811.64,-580.6 43.91,-580.6 43.91,-507.08 811.64,-507.08 811.64,-580.6"/>
<text text-anchor="start" x="412.78" y="-562.54" font-family="Times,serif" font-weight="bold" font-size="14.00">A05</text>
<text text-anchor="start" x="56.15" y="-550.44" font-family="Times,serif" text-decoration="underline" font-size="12.00">Hinweis:</text>
<text text-anchor="start" x="56.15" y="-538.44" font-family="Times,serif" font-size="12.00">Cluster: Ablehnung</text>
<text text-anchor="start" x="56.15" y="-526.44" font-family="Times,serif" font-size="12.00">Marktlokation wurde nicht &#252;ber den UC (Unterbrechung der Anschlussnutzung (Sperren) auf Anweisung des LF) gesperrt. </text>
<text text-anchor="start" x="56.15" y="-514.44" font-family="Times,serif" font-size="12.00">Hinweis: Die Entsperrung muss auf konventionellem Weg erfolgen.</text>
</g>
<!-- 10&#45;&gt;A05 -->
<g id="edge2" class="edge">
<title>10-&gt;A05</title>
<path fill="none" stroke="black" d="M451.28,-633.82C448.24,-622.33 444.08,-606.56 440.1,-591.49"/>
<polygon fill="black" stroke="black" points="443.58,-590.95 437.64,-582.18 436.81,-592.74 443.58,-590.95"/>
<text text-anchor="middle" x="463.65" y="-602.55" font-family="Times,serif" font-size="14.00">Nein</text>
</g>
<!-- 20 -->
<g id="node4" class="node">
<title>20</title>
<path fill="#7aab8a" stroke="black" d="M3208.05,-561.84C3208.05,-561.84 841.5,-561.84 841.5,-561.84 835.5,-561.84 829.5,-555.84 829.5,-549.84 829.5,-549.84 829.5,-537.84 829.5,-537.84 829.5,-531.84 835.5,-525.84 841.5,-525.84 841.5,-525.84 3208.05,-525.84 3208.05,-525.84 3214.05,-525.84 3220.05,-531.84 3220.05,-537.84 3220.05,-537.84 3220.05,-549.84 3220.05,-549.84 3220.05,-555.84 3214.05,-561.84 3208.05,-561.84"/>
<text text-anchor="start" x="843.9" y="-540.17" font-family="Times,serif" font-weight="bold" font-size="14.00">20: </text>
<text text-anchor="start" x="873.15" y="-540.17" font-family="Times,serif" font-size="14.00">W&#228;re eine Wiederinbetriebnahme aufgrund eines technischen Verhinderungsgrundes (z.B. entspricht nicht den geltenden Rechtsvorschriften, beh&#246;rdlichen Verf&#252;gungen, den anerkannten Regeln der Technik, DVGW Technischen Anschlussbedingungen (TAB) oder den sonstigen besonderen Vorschriften des NB) nicht m&#246;glich?</text>
</g>
<!-- 10&#45;&gt;20 -->
<g id="edge3" class="edge">
<title>10-&gt;20</title>
<path fill="none" stroke="black" d="M714.42,-633.37C1001.58,-613.97 1462.93,-582.8 1754.63,-563.09"/>
<polygon fill="black" stroke="black" points="1754.55,-566.61 1764.29,-562.44 1754.08,-559.62 1754.55,-566.61"/>
<text text-anchor="middle" x="1200.53" y="-602.55" font-family="Times,serif" font-size="14.00">Ja</text>
</g>
<!-- A06 -->
<g id="node5" class="node">
<title>A06</title>
<polygon fill="#cfb986" stroke="black" points="2781.14,-453.83 516.41,-453.83 516.41,-368.31 2781.14,-368.31 2781.14,-453.83"/>
<text text-anchor="start" x="1633.78" y="-435.77" font-family="Times,serif" font-weight="bold" font-size="14.00">A06</text>
<text text-anchor="start" x="528.65" y="-423.67" font-family="Times,serif" text-decoration="underline" font-size="12.00">Hinweis:</text>
<text text-anchor="start" x="528.65" y="-411.67" font-family="Times,serif" font-size="12.00">Cluster Ablehnung</text>
<text text-anchor="start" x="528.65" y="-399.67" font-family="Times,serif" font-size="12.00">Wiederinbetriebnahme w&#228;re technisch nicht m&#246;glich</text>
<text text-anchor="start" x="528.65" y="-387.67" font-family="Times,serif" font-size="12.00">Hinweis:</text>
<text text-anchor="start" x="528.65" y="-375.67" font-family="Times,serif" font-size="12.00">Die Marktlokation bzw. die dazugeh&#246;rigen elektrischen Anlagen kann gem&#228;&#223; NAV und TAB nicht wieder in Betrieb genommen werden. Sie entspricht nicht der geltenden Rechtsvorschriften und beh&#246;rdlichen Verf&#252;gungen sowie den anerkannten Regeln der Technik, DVGW, den Technischen Anschlussbedingungen (TAB) und den sonstigen besonderen Vorschriften des NB.</text>
</g>
<!-- 20&#45;&gt;A06 -->
<g id="edge4" class="edge">
<title>20-&gt;A06</title>
<path fill="none" stroke="black" d="M1974.85,-525.47C1925.54,-508.33 1848.01,-481.36 1780.92,-458.03"/>
<polygon fill="black" stroke="black" points="1782.27,-454.79 1771.67,-454.81 1779.97,-461.4 1782.27,-454.79"/>
<text text-anchor="middle" x="1866.53" y="-475.78" font-family="Times,serif" font-size="14.00">Ja</text>
</g>
<!-- 30 -->
<g id="node6" class="node">
<title>30</title>
<path fill="#7aab8a" stroke="black" d="M3418.3,-429.07C3418.3,-429.07 2811.25,-429.07 2811.25,-429.07 2805.25,-429.07 2799.25,-423.07 2799.25,-417.07 2799.25,-417.07 2799.25,-405.07 2799.25,-405.07 2799.25,-399.07 2805.25,-393.07 2811.25,-393.07 2811.25,-393.07 3418.3,-393.07 3418.3,-393.07 3424.3,-393.07 3430.3,-399.07 3430.3,-405.07 3430.3,-405.07 3430.3,-417.07 3430.3,-417.07 3430.3,-423.07 3424.3,-429.07 3418.3,-429.07"/>
<text text-anchor="start" x="2813.65" y="-407.39" font-family="Times,serif" font-weight="bold" font-size="14.00">30: </text>
<text text-anchor="start" x="2842.9" y="-407.39" font-family="Times,serif" font-size="14.00">Ist zum Zeitpunkt des Nachrichteneingangs die Marktlokation bereits gesperrt?</text>
</g>
<!-- 20&#45;&gt;30 -->
<g id="edge5" class="edge">
<title>20-&gt;30</title>
<path fill="none" stroke="black" d="M2179.78,-525.35C2334.37,-507.79 2578.59,-479.68 2789.78,-453.83 2848.93,-446.59 2914.1,-438.28 2970.45,-430.99"/>
<polygon fill="black" stroke="black" points="2970.63,-434.5 2980.1,-429.74 2969.73,-427.55 2970.63,-434.5"/>
<text text-anchor="middle" x="2639.65" y="-475.78" font-family="Times,serif" font-size="14.00">Nein</text>
</g>
<!-- A01 -->
<g id="node7" class="node">
<title>A01</title>
<polygon fill="#cfb986" stroke="black" points="3137.64,-315.06 2915.91,-315.06 2915.91,-253.54 3137.64,-253.54 3137.64,-315.06"/>
<text text-anchor="start" x="3011.78" y="-297" font-family="Times,serif" font-weight="bold" font-size="14.00">A01</text>
<text text-anchor="start" x="2928.15" y="-284.9" font-family="Times,serif" text-decoration="underline" font-size="12.00">Hinweis:</text>
<text text-anchor="start" x="2928.15" y="-272.9" font-family="Times,serif" font-size="12.00">Cluster: Ablehnung</text>
<text text-anchor="start" x="2928.15" y="-260.9" font-family="Times,serif" font-size="12.00">Marktlokation ist nicht gesperrt.</text>
</g>
<!-- 30&#45;&gt;A01 -->
<g id="edge6" class="edge">
<title>30-&gt;A01</title>
<path fill="none" stroke="black" d="M3102.54,-392.72C3090.17,-375.18 3070.63,-347.48 3054.49,-324.6"/>
<polygon fill="black" stroke="black" points="3057.54,-322.85 3048.91,-316.69 3051.82,-326.88 3057.54,-322.85"/>
<text text-anchor="middle" x="3087.65" y="-337.01" font-family="Times,serif" font-size="14.00">Nein</text>
</g>
<!-- 40 -->
<g id="node8" class="node">
<title>40</title>
<path fill="#7aab8a" stroke="black" d="M3475.68,-302.3C3475.68,-302.3 3167.88,-302.3 3167.88,-302.3 3161.88,-302.3 3155.88,-296.3 3155.88,-290.3 3155.88,-290.3 3155.88,-278.3 3155.88,-278.3 3155.88,-272.3 3161.88,-266.3 3167.88,-266.3 3167.88,-266.3 3475.68,-266.3 3475.68,-266.3 3481.68,-266.3 3487.68,-272.3 3487.68,-278.3 3487.68,-278.3 3487.68,-290.3 3487.68,-290.3 3487.68,-296.3 3481.68,-302.3 3475.68,-302.3"/>
<text text-anchor="start" x="3170.28" y="-280.62" font-family="Times,serif" font-weight="bold" font-size="14.00">40: </text>
<text text-anchor="start" x="3199.53" y="-280.62" font-family="Times,serif" font-size="14.00">Liegt bereits ein Entsperrauftrag vor?</text>
</g>
<!-- 30&#45;&gt;40 -->
<g id="edge7" class="edge">
<title>30-&gt;40</title>
<path fill="none" stroke="black" d="M3143.56,-392.72C3179.91,-370.81 3242.61,-333.02 3283.11,-308.6"/>
<polygon fill="black" stroke="black" points="3284.85,-311.64 3291.61,-303.48 3281.24,-305.65 3284.85,-311.64"/>
<text text-anchor="middle" x="3244.53" y="-337.01" font-family="Times,serif" font-size="14.00">Ja</text>
</g>
<!-- A04 -->
<g id="node9" class="node">
<title>A04</title>
<polygon fill="#cfb986" stroke="black" points="3388.89,-200.29 3030.66,-200.29 3030.66,-138.77 3388.89,-138.77 3388.89,-200.29"/>
<text text-anchor="start" x="3194.78" y="-182.23" font-family="Times,serif" font-weight="bold" font-size="14.00">A04</text>
<text text-anchor="start" x="3042.9" y="-170.13" font-family="Times,serif" text-decoration="underline" font-size="12.00">Hinweis:</text>
<text text-anchor="start" x="3042.9" y="-158.13" font-family="Times,serif" font-size="12.00">Cluster: Ablehnung</text>
<text text-anchor="start" x="3042.9" y="-146.13" font-family="Times,serif" font-size="12.00">Entsperrauftrag f&#252;r die Marktlokation liegt bereits vor.</text>
</g>
<!-- 40&#45;&gt;A04 -->
<g id="edge8" class="edge">
<title>40-&gt;A04</title>
<path fill="none" stroke="black" d="M3304.76,-266.17C3289.66,-250.97 3267.06,-228.21 3247.68,-208.7"/>
<polygon fill="black" stroke="black" points="3250.21,-206.27 3240.68,-201.65 3245.24,-211.21 3250.21,-206.27"/>
<text text-anchor="middle" x="3279.53" y="-222.24" font-family="Times,serif" font-size="14.00">Ja</text>
</g>
<!-- 50 -->
<g id="node10" class="node">
<title>50</title>
<path fill="#7aab8a" stroke="black" d="M3826.93,-187.53C3826.93,-187.53 3418.62,-187.53 3418.62,-187.53 3412.62,-187.53 3406.62,-181.53 3406.62,-175.53 3406.62,-175.53 3406.62,-163.53 3406.62,-163.53 3406.62,-157.53 3412.62,-151.53 3418.62,-151.53 3418.62,-151.53 3826.93,-151.53 3826.93,-151.53 3832.93,-151.53 3838.93,-157.53 3838.93,-163.53 3838.93,-163.53 3838.93,-175.53 3838.93,-175.53 3838.93,-181.53 3832.93,-187.53 3826.93,-187.53"/>
<text text-anchor="start" x="3421.03" y="-165.85" font-family="Times,serif" font-weight="bold" font-size="14.00">50: </text>
<text text-anchor="start" x="3450.28" y="-165.85" font-family="Times,serif" font-size="14.00">Ist ein zuvor nicht spezifizierter Fehler aufgetreten?</text>
</g>
<!-- 40&#45;&gt;50 -->
<g id="edge9" class="edge">
<title>40-&gt;50</title>
<path fill="none" stroke="black" d="M3368.48,-265.8C3421.69,-245.87 3508.65,-213.29 3565.8,-191.88"/>
<polygon fill="black" stroke="black" points="3566.91,-195.2 3575.04,-188.41 3564.45,-188.64 3566.91,-195.2"/>
<text text-anchor="middle" x="3507.65" y="-222.24" font-family="Times,serif" font-size="14.00">Nein</text>
</g>
<!-- A99 -->
<g id="node11" class="node">
<title>A99</title>
<polygon fill="#cfb986" stroke="black" points="3703.39,-85.52 3192.16,-85.52 3192.16,0 3703.39,0 3703.39,-85.52"/>
<text text-anchor="start" x="3432.78" y="-67.46" font-family="Times,serif" font-weight="bold" font-size="14.00">A99</text>
<text text-anchor="start" x="3204.4" y="-55.36" font-family="Times,serif" text-decoration="underline" font-size="12.00">Hinweis:</text>
<text text-anchor="start" x="3204.4" y="-43.36" font-family="Times,serif" font-size="12.00">Cluster: Ablehnung</text>
<text text-anchor="start" x="3204.4" y="-31.36" font-family="Times,serif" font-size="12.00">Sonstiges</text>
<text text-anchor="start" x="3204.4" y="-19.36" font-family="Times,serif" font-size="12.00">Hinweis: Das identifizierte Problem ist in der Antwort zu beschreiben/benennen. </text>
<text text-anchor="start" x="3204.4" y="-7.36" font-family="Times,serif" font-size="12.00">Nutzungsm&#246;glichkeit Ende: 01.04.2025 00:00 Uhr</text>
</g>
<!-- 50&#45;&gt;A99 -->
<g id="edge10" class="edge">
<title>50-&gt;A99</title>
<path fill="none" stroke="black" d="M3598.44,-151.18C3577.17,-136.02 3545.24,-113.25 3516.23,-92.57"/>
<polygon fill="black" stroke="black" points="3518.34,-89.78 3508.17,-86.82 3514.28,-95.48 3518.34,-89.78"/>
<text text-anchor="middle" x="3558.53" y="-107.47" font-family="Times,serif" font-size="14.00">Ja</text>
</g>
<!-- A03 -->
<g id="node12" class="node">
<title>A03</title>
<polygon fill="#cfb986" stroke="black" points="3872.01,-73.52 3721.54,-73.52 3721.54,-12 3872.01,-12 3872.01,-73.52"/>
<text text-anchor="start" x="3781.78" y="-55.46" font-family="Times,serif" font-weight="bold" font-size="14.00">A03</text>
<text text-anchor="start" x="3733.78" y="-43.36" font-family="Times,serif" text-decoration="underline" font-size="12.00">Hinweis:</text>
<text text-anchor="start" x="3733.78" y="-31.36" font-family="Times,serif" font-size="12.00">Cluster: Zustimmung</text>
<text text-anchor="start" x="3733.78" y="-19.36" font-family="Times,serif" font-size="12.00">Zustimmung</text>
</g>
<!-- 50&#45;&gt;A03 -->
<g id="edge11" class="edge">
<title>50-&gt;A03</title>
<path fill="none" stroke="black" d="M3646.97,-151.18C3672.4,-132.94 3713.18,-103.71 3745.77,-80.34"/>
<polygon fill="black" stroke="black" points="3747.41,-83.47 3753.49,-74.8 3743.33,-77.78 3747.41,-83.47"/>
<text text-anchor="middle" x="3726.65" y="-107.47" font-family="Times,serif" font-size="14.00">Nein</text>
</g>
</g>
</svg>
  </g>
</svg>
  </g>
</svg>
