<?xml version='1.0' encoding='ASCII' standalone='yes'?>
<svg xmlns="http://www.w3.org/2000/svg" xmlns:xlink="http://www.w3.org/1999/xlink" version="1.1" width="2856.0px" viewBox="0 0 2856.0 1061.3333333333333" height="1061.3333333333333px">
  <g>
    <svg version="1.1" width="2856.0px" viewBox="0 0 2856.0 1061.3333333333333" height="1061.3333333333333px">
  <polygon fill="#f3f1f6" points="0,0 2856.0,0 2856.0,1061.3333333333333 0,1061.3333333333333"/><g>
    <g transform="translate(1003.7815708605148, 106.1333333333333) scale(1 1) translate(0, 0) scale(4.800002954775688 4.800002954775688) "><sodipodi:namedview xmlns:sodipodi="http://sodipodi.sourceforge.net/DTD/sodipodi-0.dtd" xmlns:inkscape="http://www.inkscape.org/namespaces/inkscape" id="namedview7" pagecolor="#ffffff" bordercolor="#999999" borderopacity="1" inkscape:pageshadow="0" inkscape:pageopacity="0" inkscape:pagecheckerboard="0" inkscape:document-units="mm" showgrid="false" fit-margin-top="0" fit-margin-left="0" fit-margin-right="0" fit-margin-bottom="0" inkscape:zoom="0.64052329" inkscape:cx="130.36216" inkscape:cy="412.163" inkscape:window-width="1512" inkscape:window-height="916" inkscape:window-x="3840" inkscape:window-y="136" inkscape:window-maximized="0" inkscape:current-layer="layer1"/>
  <defs id="defs2">
    <clipPath clipPathUnits="userSpaceOnUse" id="clipPath23">
      <path d="M 0,568.156 H 579.236 V 0 H 0 Z" id="path21"/>
    </clipPath>
  </defs>
  <g xmlns:inkscape="http://www.inkscape.org/namespaces/inkscape" inkscape:label="Layer 1" inkscape:groupmode="layer" id="layer1" transform="translate(-16.541937,-55.305267)">
    <g id="g19" clip-path="url(#clipPath23)" transform="matrix(0.35277777,0,0,-0.35277777,0.01017023,243.73675)" style="opacity:0.2">
      <g id="g25" transform="translate(122.444,32.7195)">
        <path d="m 0,0 h -56.104 c -11,0 -19.898,9.123 -19.463,20.115 10.594,267.191 231.277,481.302 501.029,481.302 v -56.02 c 0,-10.98 -8.688,-19.892 -19.658,-20.393 C 180.29,414.697 0,228.005 0,0" style="fill:#6ead83;fill-opacity:1;fill-rule:nonzero;stroke:none" id="path27"/>
      </g>
      <g id="g29" transform="translate(273.7828,32.7195)">
        <path d="m 0,0 h -55.926 c -11.228,0 -20.091,9.482 -19.435,20.69 10.744,183.439 163.389,329.388 349.485,329.388 v -56.263 c 0,-10.709 -8.273,-19.617 -18.957,-20.35 C 112.819,263.696 0,144.774 0,0" style="fill:#6ead83;fill-opacity:1;fill-rule:nonzero;stroke:none" id="path31"/>
      </g>
      <g id="g33" transform="translate(425.7667,32.7195)">
        <path d="m 0,0 h -55.445 c -11.653,0 -20.604,10.17 -19.334,21.753 10.866,99.032 95.031,176.341 196.919,176.341 v -57.011 c 0,-10.046 -7.283,-18.755 -17.229,-20.165 C 45.688,112.522 0,61.497 0,0" style="fill:#6ead83;fill-opacity:1;fill-rule:nonzero;stroke:none" id="path35"/>
      </g>
    </g>
  </g>
</g>
    <svg width="2142pt" height="796pt" viewBox="0.00 0.00 2141.55 796.13">
<g id="graph0" class="graph" transform="scale(1 1) rotate(0) translate(4 792.13)">
<title>D</title>
<text text-anchor="start" x="1033.4" y="-768.03" font-family="Times,serif" font-weight="bold" font-size="18.00">MaBiS</text>
<text text-anchor="start" x="881.15" y="-737.93" font-family="Times,serif" font-weight="bold" font-size="16.00">7.5.1: AD: Abstimmung der Netzzeitreihe</text>
<!-- Start -->
<g id="node1" class="node">
<title>Start</title>
<polygon fill="#7a8da1" stroke="black" points="382.8,-690.13 222.75,-690.13 222.75,-646.85 382.8,-646.85 382.8,-690.13"/>
<text text-anchor="start" x="274.65" y="-669.19" font-family="Times,serif" font-weight="bold" font-size="14.00">E_0040</text>
<text text-anchor="start" x="237.15" y="-657.09" font-family="Times,serif" font-weight="bold" text-decoration="underline" font-size="12.00">Pr&#252;fende Rolle:</text>
<text text-anchor="start" x="342.15" y="-657.09" font-family="Times,serif" font-weight="bold" font-size="12.00"> NB</text>
</g>
<!-- 1 -->
<g id="node2" class="node">
<title>1</title>
<path fill="#7aab8a" stroke="black" d="M593.55,-609.85C593.55,-609.85 12,-609.85 12,-609.85 6,-609.85 0,-603.85 0,-597.85 0,-597.85 0,-585.85 0,-585.85 0,-579.85 6,-573.85 12,-573.85 12,-573.85 593.55,-573.85 593.55,-573.85 599.55,-573.85 605.55,-579.85 605.55,-585.85 605.55,-585.85 605.55,-597.85 605.55,-597.85 605.55,-603.85 599.55,-609.85 593.55,-609.85"/>
<text text-anchor="start" x="14.4" y="-588.18" font-family="Times,serif" font-weight="bold" font-size="14.00">1: </text>
<text text-anchor="start" x="33.9" y="-588.18" font-family="Times,serif" font-size="14.00">Erfolgt der Eingang der Zeitreihe nach Ablauf der Clearingfrist f&#252;r die KBKA?</text>
</g>
<!-- Start&#45;&gt;1 -->
<g id="edge1" class="edge">
<title>Start-&gt;1</title>
<path fill="none" stroke="black" d="M302.78,-646.7C302.78,-638.66 302.78,-629.34 302.78,-620.74"/>
<polygon fill="black" stroke="black" points="306.28,-621.01 302.78,-611.01 299.28,-621.01 306.28,-621.01"/>
</g>
<!-- A01 -->
<g id="node3" class="node">
<title>A01</title>
<polygon fill="#cfb986" stroke="black" points="357.02,-520.6 212.54,-520.6 212.54,-459.08 357.02,-459.08 357.02,-520.6"/>
<text text-anchor="start" x="269.78" y="-502.54" font-family="Times,serif" font-weight="bold" font-size="14.00">A01</text>
<text text-anchor="start" x="224.78" y="-490.44" font-family="Times,serif" text-decoration="underline" font-size="12.00">Hinweis:</text>
<text text-anchor="start" x="224.78" y="-478.44" font-family="Times,serif" font-size="12.00">Cluster: Abweisung</text>
<text text-anchor="start" x="224.78" y="-466.44" font-family="Times,serif" font-size="12.00">Frist&#252;berschreitung</text>
</g>
<!-- 1&#45;&gt;A01 -->
<g id="edge2" class="edge">
<title>1-&gt;A01</title>
<path fill="none" stroke="black" d="M299.64,-573.43C297.57,-561.92 294.76,-546.34 292.15,-531.81"/>
<polygon fill="black" stroke="black" points="295.42,-531.21 290.2,-521.99 288.53,-532.45 295.42,-531.21"/>
<text text-anchor="middle" x="303.53" y="-542.55" font-family="Times,serif" font-size="14.00">Ja</text>
</g>
<!-- 2 -->
<g id="node4" class="node">
<title>2</title>
<path fill="#7aab8a" stroke="black" d="M860.55,-507.84C860.55,-507.84 387,-507.84 387,-507.84 381,-507.84 375,-501.84 375,-495.84 375,-495.84 375,-483.84 375,-483.84 375,-477.84 381,-471.84 387,-471.84 387,-471.84 860.55,-471.84 860.55,-471.84 866.55,-471.84 872.55,-477.84 872.55,-483.84 872.55,-483.84 872.55,-495.84 872.55,-495.84 872.55,-501.84 866.55,-507.84 860.55,-507.84"/>
<text text-anchor="start" x="389.4" y="-486.16" font-family="Times,serif" font-weight="bold" font-size="14.00">2: </text>
<text text-anchor="start" x="408.9" y="-486.16" font-family="Times,serif" font-size="14.00">Ist der MaBiS-ZP zum betrachteten Bilanzierungsmonat aktiv?</text>
</g>
<!-- 1&#45;&gt;2 -->
<g id="edge3" class="edge">
<title>1-&gt;2</title>
<path fill="none" stroke="black" d="M358.69,-573.43C414.02,-556.19 498.71,-529.81 557.41,-511.52"/>
<polygon fill="black" stroke="black" points="558.19,-514.63 566.69,-508.31 556.11,-507.95 558.19,-514.63"/>
<text text-anchor="middle" x="480.65" y="-542.55" font-family="Times,serif" font-size="14.00">Nein</text>
</g>
<!-- A02 -->
<g id="node5" class="node">
<title>A02</title>
<polygon fill="#cfb986" stroke="black" points="592.89,-405.83 360.66,-405.83 360.66,-344.31 592.89,-344.31 592.89,-405.83"/>
<text text-anchor="start" x="461.78" y="-387.77" font-family="Times,serif" font-weight="bold" font-size="14.00">A02</text>
<text text-anchor="start" x="372.9" y="-375.67" font-family="Times,serif" text-decoration="underline" font-size="12.00">Hinweis:</text>
<text text-anchor="start" x="372.9" y="-363.67" font-family="Times,serif" font-size="12.00">Cluster: Abweisung</text>
<text text-anchor="start" x="372.9" y="-351.67" font-family="Times,serif" font-size="12.00">Gew&#228;hlter Zeitraum nicht zul&#228;ssig</text>
</g>
<!-- 2&#45;&gt;A02 -->
<g id="edge4" class="edge">
<title>2-&gt;A02</title>
<path fill="none" stroke="black" d="M601.13,-471.47C580.8,-455.87 550.28,-432.46 524.57,-412.73"/>
<polygon fill="black" stroke="black" points="527.12,-409.51 517.05,-406.2 522.86,-415.07 527.12,-409.51"/>
<text text-anchor="middle" x="576.65" y="-427.78" font-family="Times,serif" font-size="14.00">Nein</text>
</g>
<!-- 3 -->
<g id="node6" class="node">
<title>3</title>
<path fill="#7aab8a" stroke="black" d="M1392.68,-393.07C1392.68,-393.07 622.88,-393.07 622.88,-393.07 616.88,-393.07 610.88,-387.07 610.88,-381.07 610.88,-381.07 610.88,-369.07 610.88,-369.07 610.88,-363.07 616.88,-357.07 622.88,-357.07 622.88,-357.07 1392.68,-357.07 1392.68,-357.07 1398.68,-357.07 1404.68,-363.07 1404.68,-369.07 1404.68,-369.07 1404.68,-381.07 1404.68,-381.07 1404.68,-387.07 1398.68,-393.07 1392.68,-393.07"/>
<text text-anchor="start" x="625.28" y="-371.39" font-family="Times,serif" font-weight="bold" font-size="14.00">3: </text>
<text text-anchor="start" x="644.78" y="-371.39" font-family="Times,serif" font-size="14.00">Liegt die Version der Zeitreihe des MaBiS-ZP f&#252;r diesen Bilanzierungsmonat und MaBiS-ZP bereits vor?</text>
</g>
<!-- 2&#45;&gt;3 -->
<g id="edge5" class="edge">
<title>2-&gt;3</title>
<path fill="none" stroke="black" d="M683.35,-471.34C752.12,-451.15 865.08,-417.97 937.93,-396.58"/>
<polygon fill="black" stroke="black" points="938.76,-399.69 947.37,-393.51 936.79,-392.97 938.76,-399.69"/>
<text text-anchor="middle" x="845.53" y="-427.78" font-family="Times,serif" font-size="14.00">Ja</text>
</g>
<!-- A03 -->
<g id="node7" class="node">
<title>A03</title>
<polygon fill="#cfb986" stroke="black" points="915.64,-291.06 723.91,-291.06 723.91,-229.54 915.64,-229.54 915.64,-291.06"/>
<text text-anchor="start" x="804.78" y="-273" font-family="Times,serif" font-weight="bold" font-size="14.00">A03</text>
<text text-anchor="start" x="736.15" y="-260.9" font-family="Times,serif" text-decoration="underline" font-size="12.00">Hinweis:</text>
<text text-anchor="start" x="736.15" y="-248.9" font-family="Times,serif" font-size="12.00">Cluster: Abweisung</text>
<text text-anchor="start" x="736.15" y="-236.9" font-family="Times,serif" font-size="12.00">Zeitreihe bereits vorhanden</text>
</g>
<!-- 3&#45;&gt;A03 -->
<g id="edge6" class="edge">
<title>3-&gt;A03</title>
<path fill="none" stroke="black" d="M978.81,-356.7C952.36,-340.83 912.42,-316.87 879.19,-296.94"/>
<polygon fill="black" stroke="black" points="881.38,-293.57 871.01,-291.43 877.78,-299.58 881.38,-293.57"/>
<text text-anchor="middle" x="932.53" y="-313.01" font-family="Times,serif" font-size="14.00">Ja</text>
</g>
<!-- 4 -->
<g id="node8" class="node">
<title>4</title>
<path fill="#7aab8a" stroke="black" d="M2121.55,-278.3C2121.55,-278.3 946,-278.3 946,-278.3 940,-278.3 934,-272.3 934,-266.3 934,-266.3 934,-254.3 934,-254.3 934,-248.3 940,-242.3 946,-242.3 946,-242.3 2121.55,-242.3 2121.55,-242.3 2127.55,-242.3 2133.55,-248.3 2133.55,-254.3 2133.55,-254.3 2133.55,-266.3 2133.55,-266.3 2133.55,-272.3 2127.55,-278.3 2121.55,-278.3"/>
<text text-anchor="start" x="948.4" y="-256.62" font-family="Times,serif" font-weight="bold" font-size="14.00">4: </text>
<text text-anchor="start" x="967.9" y="-256.62" font-family="Times,serif" font-size="14.00">Ist die Version der Zeitreihe des MaBiS-ZP h&#246;her als die bisher h&#246;chste verarbeitete Version der Zeitreihe f&#252;r diesen Bilanzierungsmonat und diesen MaBiS-ZP?</text>
</g>
<!-- 3&#45;&gt;4 -->
<g id="edge7" class="edge">
<title>3-&gt;4</title>
<path fill="none" stroke="black" d="M1089.39,-356.57C1184.74,-336.13 1342.13,-302.39 1441.75,-281.03"/>
<polygon fill="black" stroke="black" points="1442.36,-284.26 1451.41,-278.74 1440.89,-277.42 1442.36,-284.26"/>
<text text-anchor="middle" x="1319.65" y="-313.01" font-family="Times,serif" font-size="14.00">Nein</text>
</g>
<!-- A04 -->
<g id="node9" class="node">
<title>A04</title>
<polygon fill="#cfb986" stroke="black" points="1506.89,-176.29 1334.66,-176.29 1334.66,-114.77 1506.89,-114.77 1506.89,-176.29"/>
<text text-anchor="start" x="1405.78" y="-158.23" font-family="Times,serif" font-weight="bold" font-size="14.00">A04</text>
<text text-anchor="start" x="1346.9" y="-146.13" font-family="Times,serif" text-decoration="underline" font-size="12.00">Hinweis:</text>
<text text-anchor="start" x="1346.9" y="-134.13" font-family="Times,serif" font-size="12.00">Cluster: Abweisung</text>
<text text-anchor="start" x="1346.9" y="-122.13" font-family="Times,serif" font-size="12.00">Version nicht zugelassen</text>
</g>
<!-- 4&#45;&gt;A04 -->
<g id="edge8" class="edge">
<title>4-&gt;A04</title>
<path fill="none" stroke="black" d="M1516.61,-242.17C1501.24,-226.83 1478.16,-203.8 1458.5,-184.18"/>
<polygon fill="black" stroke="black" points="1461.43,-182.16 1451.88,-177.57 1456.48,-187.11 1461.43,-182.16"/>
<text text-anchor="middle" x="1501.65" y="-198.24" font-family="Times,serif" font-size="14.00">Nein</text>
</g>
<!-- 5 -->
<g id="node10" class="node">
<title>5</title>
<path fill="#7aab8a" stroke="black" d="M2100.93,-163.53C2100.93,-163.53 1536.62,-163.53 1536.62,-163.53 1530.62,-163.53 1524.62,-157.53 1524.62,-151.53 1524.62,-151.53 1524.62,-139.53 1524.62,-139.53 1524.62,-133.53 1530.62,-127.53 1536.62,-127.53 1536.62,-127.53 2100.93,-127.53 2100.93,-127.53 2106.93,-127.53 2112.93,-133.53 2112.93,-139.53 2112.93,-139.53 2112.93,-151.53 2112.93,-151.53 2112.93,-157.53 2106.93,-163.53 2100.93,-163.53"/>
<text text-anchor="start" x="1539.03" y="-141.85" font-family="Times,serif" font-weight="bold" font-size="14.00">5: </text>
<text text-anchor="start" x="1558.53" y="-141.85" font-family="Times,serif" font-size="14.00">Entsprechen die Energiemengen der NZR den erwarteten Energiemengen?</text>
</g>
<!-- 4&#45;&gt;5 -->
<g id="edge9" class="edge">
<title>4-&gt;5</title>
<path fill="none" stroke="black" d="M1577.99,-241.8C1628.37,-221.87 1710.71,-189.29 1764.83,-167.88"/>
<polygon fill="black" stroke="black" points="1765.91,-170.82 1773.92,-163.88 1763.33,-164.31 1765.91,-170.82"/>
<text text-anchor="middle" x="1700.53" y="-198.24" font-family="Times,serif" font-size="14.00">Ja</text>
</g>
<!-- A05 -->
<g id="node11" class="node">
<title>A05</title>
<polygon fill="#cfb986" stroke="black" points="1834.89,-61.52 1584.66,-61.52 1584.66,0 1834.89,0 1834.89,-61.52"/>
<text text-anchor="start" x="1694.78" y="-43.46" font-family="Times,serif" font-weight="bold" font-size="14.00">A05</text>
<text text-anchor="start" x="1596.9" y="-31.36" font-family="Times,serif" text-decoration="underline" font-size="12.00">Hinweis:</text>
<text text-anchor="start" x="1596.9" y="-19.36" font-family="Times,serif" font-size="12.00">Cluster: Ablehnung</text>
<text text-anchor="start" x="1596.9" y="-7.36" font-family="Times,serif" font-size="12.00">Energiemenge falsch / nicht plausibel</text>
</g>
<!-- 5&#45;&gt;A05 -->
<g id="edge10" class="edge">
<title>5-&gt;A05</title>
<path fill="none" stroke="black" d="M1802.22,-127.4C1787.46,-112.13 1765.33,-89.23 1746.42,-69.67"/>
<polygon fill="black" stroke="black" points="1749.28,-67.56 1739.81,-62.8 1744.25,-72.42 1749.28,-67.56"/>
<text text-anchor="middle" x="1788.65" y="-83.47" font-family="Times,serif" font-size="14.00">Nein</text>
</g>
<!-- A06 -->
<g id="node12" class="node">
<title>A06</title>
<polygon fill="#cfb986" stroke="black" points="2003.02,-61.52 1852.54,-61.52 1852.54,0 2003.02,0 2003.02,-61.52"/>
<text text-anchor="start" x="1912.78" y="-43.46" font-family="Times,serif" font-weight="bold" font-size="14.00">A06</text>
<text text-anchor="start" x="1864.78" y="-31.36" font-family="Times,serif" text-decoration="underline" font-size="12.00">Hinweis:</text>
<text text-anchor="start" x="1864.78" y="-19.36" font-family="Times,serif" font-size="12.00">Cluster: Zustimmung</text>
<text text-anchor="start" x="1864.78" y="-7.36" font-family="Times,serif" font-size="12.00">Zeitreihe akzeptiert</text>
</g>
<!-- 5&#45;&gt;A06 -->
<g id="edge11" class="edge">
<title>5-&gt;A06</title>
<path fill="none" stroke="black" d="M1835.33,-127.4C1850.09,-112.13 1872.22,-89.23 1891.13,-69.67"/>
<polygon fill="black" stroke="black" points="1893.3,-72.42 1897.74,-62.8 1888.27,-67.56 1893.3,-72.42"/>
<text text-anchor="middle" x="1886.53" y="-83.47" font-family="Times,serif" font-size="14.00">Ja</text>
</g>
</g>
</svg>
  </g>
</svg>
  </g>
</svg>
