<?xml version='1.0' encoding='ASCII' standalone='yes'?>
<svg xmlns="http://www.w3.org/2000/svg" xmlns:xlink="http://www.w3.org/1999/xlink" version="1.1" width="1494.6666666666667px" viewBox="0 0 1494.6666666666667 1920.0" height="1920.0px">
  <g>
    <svg version="1.1" width="1494.6666666666667px" viewBox="0 0 1494.6666666666667 1920.0" height="1920.0px">
  <rect fill="#e7e6e5" x="0" y="0" width="1494.6666666666667" height="1920.0" rx="20" ry="20"/><g>
    <g transform="translate(149.46666666666664, 373.56963377298996) scale(1 1) translate(0, 0) scale(2.0643141587827727 2.0643141587827727) "><!-- note that I manually added the width and height attribute to the root node
  https://chatgpt.com/share/678e3028-70cc-800b-a296-782714735772
  -->
  <defs>
    <style>.cls-1{fill:#fff;}</style>
  </defs>
  <path class="cls-1" d="M122.44,531.2h-56.1c-11,0-19.9-9.12-19.46-20.11C57.47,243.89,278.15,29.78,547.91,29.78v56.02c0,10.98-8.69,19.89-19.66,20.39-225.51,10.31-405.8,197-405.8,425Z"/>
  <path class="cls-1" d="M273.78,531.2h-55.93c-11.23,0-20.09-9.48-19.43-20.69,10.74-183.44,163.39-329.39,349.48-329.39v56.26c0,10.71-8.27,19.62-18.96,20.35-142.35,9.77-255.17,128.69-255.17,273.46Z"/>
  <path class="cls-1" d="M425.77,531.2h-55.45c-11.65,0-20.6-10.17-19.33-21.75,10.87-99.03,95.03-176.34,196.92-176.34v57.01c0,10.05-7.28,18.75-17.23,20.16-59.22,8.4-104.91,59.42-104.91,120.92Z"/>
</g>
    <svg width="1121pt" height="1440pt" viewBox="0.00 0.00 1121.20 1440.00">
<g id="graph0" class="graph" transform="scale(0.788441 0.788441) rotate(0) translate(4 1822.39)">
<title>D</title>
<text text-anchor="start" x="281.03" y="-1798.29" font-family="Roboto, sans-serif" font-weight="bold" font-size="18.00">MaBiS</text>
<text text-anchor="start" x="281.03" y="-1768.19" font-family="Roboto, sans-serif" font-weight="bold" font-size="16.00">7.23.2: AD: &#220;bermittlung Bilanzierungsgebietsclearingliste von &#220;NB an NB (Einzelanforderung)</text>
<!-- Start -->
<g id="node1" class="node">
<title>Start</title>
<path fill="#8ba2d7" stroke="black" stroke-width="0" d="M422.8,-1720.39C422.8,-1720.39 291.25,-1720.39 291.25,-1720.39 285.25,-1720.39 279.25,-1714.39 279.25,-1708.39 279.25,-1708.39 279.25,-1689.11 279.25,-1689.11 279.25,-1683.11 285.25,-1677.11 291.25,-1677.11 291.25,-1677.11 422.8,-1677.11 422.8,-1677.11 428.8,-1677.11 434.8,-1683.11 434.8,-1689.11 434.8,-1689.11 434.8,-1708.39 434.8,-1708.39 434.8,-1714.39 428.8,-1720.39 422.8,-1720.39"/>
<text text-anchor="start" x="293.65" y="-1699.45" font-family="Roboto, sans-serif" font-weight="bold" font-size="14.00">E_0017</text>
<text text-anchor="start" x="293.65" y="-1687.35" font-family="Roboto, sans-serif" font-weight="bold" text-decoration="underline" font-size="12.00">Pr&#252;fende Rolle:</text>
<text text-anchor="start" x="397.15" y="-1687.35" font-family="Roboto, sans-serif" font-weight="bold" font-size="12.00"> NB</text>
</g>
<!-- 1 -->
<g id="node2" class="node">
<title>1</title>
<path fill="#c2cee9" stroke="black" stroke-width="0" d="M584.8,-1640.11C584.8,-1640.11 129.25,-1640.11 129.25,-1640.11 123.25,-1640.11 117.25,-1634.11 117.25,-1628.11 117.25,-1628.11 117.25,-1616.11 117.25,-1616.11 117.25,-1610.11 123.25,-1604.11 129.25,-1604.11 129.25,-1604.11 584.8,-1604.11 584.8,-1604.11 590.8,-1604.11 596.8,-1610.11 596.8,-1616.11 596.8,-1616.11 596.8,-1628.11 596.8,-1628.11 596.8,-1634.11 590.8,-1640.11 584.8,-1640.11"/>
<text text-anchor="start" x="131.65" y="-1618.44" font-family="Roboto, sans-serif" font-weight="bold" font-size="14.00">1: </text>
<text text-anchor="start" x="151.15" y="-1618.44" font-family="Roboto, sans-serif" font-size="14.00">Entspricht die G&#252;ltigkeit (Monat) dem angefragten Zeit-raum?</text>
</g>
<!-- Start&#45;&gt;1 -->
<g id="edge1" class="edge">
<title>Start-&gt;1</title>
<path fill="none" stroke="#88a0d6" d="M357.02,-1677.35C357.02,-1669.28 357.02,-1659.87 357.02,-1651.18"/>
<polygon fill="#88a0d6" stroke="#88a0d6" points="360.53,-1651.47 357.03,-1641.47 353.53,-1651.47 360.53,-1651.47"/>
</g>
<!-- A01 -->
<g id="node3" class="node">
<title>A01</title>
<path fill="#c4cac1" stroke="black" stroke-width="0" d="M326.3,-1550.86C326.3,-1550.86 89.75,-1550.86 89.75,-1550.86 83.75,-1550.86 77.75,-1544.86 77.75,-1538.86 77.75,-1538.86 77.75,-1495.58 77.75,-1495.58 77.75,-1489.58 83.75,-1483.58 89.75,-1483.58 89.75,-1483.58 326.3,-1483.58 326.3,-1483.58 332.3,-1483.58 338.3,-1489.58 338.3,-1495.58 338.3,-1495.58 338.3,-1538.86 338.3,-1538.86 338.3,-1544.86 332.3,-1550.86 326.3,-1550.86"/>
<text text-anchor="start" x="92.15" y="-1529.92" font-family="Roboto, sans-serif" font-weight="bold" font-size="14.00">A01</text>
<text text-anchor="start" x="92.15" y="-1517.82" font-family="Roboto, sans-serif" text-decoration="underline" font-size="12.00">Hinweis:</text>
<text text-anchor="start" x="92.15" y="-1505.82" font-family="Roboto, sans-serif" font-size="12.00">Cluster: Ablehnung der gesamten Liste</text>
<text text-anchor="start" x="92.15" y="-1493.82" font-family="Roboto, sans-serif" font-size="12.00">Zeitraum nicht plausibel</text>
</g>
<!-- 1&#45;&gt;A01 -->
<g id="edge2" class="edge">
<title>1-&gt;A01</title>
<path fill="none" stroke="#88a0d6" d="M332.42,-1604.12C313.96,-1591.37 287.93,-1573.4 264.45,-1557.19"/>
<polygon fill="#88a0d6" stroke="#88a0d6" points="266.73,-1554.5 256.51,-1551.7 262.75,-1560.26 266.73,-1554.5"/>
<text text-anchor="start" x="304.02" y="-1573.81" font-family="Roboto, sans-serif" font-weight="bold" font-size="14.00">NEIN</text>
</g>
<!-- 2 -->
<g id="node4" class="node">
<title>2</title>
<path fill="#c2cee9" stroke="black" stroke-width="0" d="M765.55,-1535.22C765.55,-1535.22 368.5,-1535.22 368.5,-1535.22 362.5,-1535.22 356.5,-1529.22 356.5,-1523.22 356.5,-1523.22 356.5,-1511.22 356.5,-1511.22 356.5,-1505.22 362.5,-1499.22 368.5,-1499.22 368.5,-1499.22 765.55,-1499.22 765.55,-1499.22 771.55,-1499.22 777.55,-1505.22 777.55,-1511.22 777.55,-1511.22 777.55,-1523.22 777.55,-1523.22 777.55,-1529.22 771.55,-1535.22 765.55,-1535.22"/>
<text text-anchor="start" x="370.9" y="-1513.55" font-family="Roboto, sans-serif" font-weight="bold" font-size="14.00">2: </text>
<text text-anchor="start" x="390.4" y="-1513.55" font-family="Roboto, sans-serif" font-size="14.00">Entspricht der MaBiS-ZP dem angefragten MaBiS-ZP?</text>
</g>
<!-- 1&#45;&gt;2 -->
<g id="edge3" class="edge">
<title>1-&gt;2</title>
<path fill="none" stroke="#88a0d6" d="M391.7,-1604.12C427.53,-1586.57 483.56,-1559.11 522.61,-1539.98"/>
<polygon fill="#88a0d6" stroke="#88a0d6" points="523.85,-1543.27 531.29,-1535.73 520.77,-1536.99 523.85,-1543.27"/>
<text text-anchor="start" x="462.02" y="-1573.81" font-family="Roboto, sans-serif" font-weight="bold" font-size="14.00">JA</text>
</g>
<!-- A02 -->
<g id="node5" class="node">
<title>A02</title>
<path fill="#c4cac1" stroke="black" stroke-width="0" d="M347.05,-1430.33C347.05,-1430.33 19,-1430.33 19,-1430.33 13,-1430.33 7,-1424.33 7,-1418.33 7,-1418.33 7,-1375.05 7,-1375.05 7,-1369.05 13,-1363.05 19,-1363.05 19,-1363.05 347.05,-1363.05 347.05,-1363.05 353.05,-1363.05 359.05,-1369.05 359.05,-1375.05 359.05,-1375.05 359.05,-1418.33 359.05,-1418.33 359.05,-1424.33 353.05,-1430.33 347.05,-1430.33"/>
<text text-anchor="start" x="21.4" y="-1409.39" font-family="Roboto, sans-serif" font-weight="bold" font-size="14.00">A02</text>
<text text-anchor="start" x="21.4" y="-1397.29" font-family="Roboto, sans-serif" text-decoration="underline" font-size="12.00">Hinweis:</text>
<text text-anchor="start" x="21.4" y="-1385.29" font-family="Roboto, sans-serif" font-size="12.00">Cluster: Ablehnung der gesamten Liste</text>
<text text-anchor="start" x="21.4" y="-1373.29" font-family="Roboto, sans-serif" font-size="12.00">MaBiS-ZP entspricht nicht dem angefragten MaBiS-ZP</text>
</g>
<!-- 2&#45;&gt;A02 -->
<g id="edge4" class="edge">
<title>2-&gt;A02</title>
<path fill="none" stroke="#88a0d6" d="M512.01,-1499.24C456.78,-1482.19 369.99,-1455.4 299.42,-1433.62"/>
<polygon fill="#88a0d6" stroke="#88a0d6" points="300.72,-1430.36 290.13,-1430.75 298.65,-1437.04 300.72,-1430.36"/>
<text text-anchor="start" x="397.02" y="-1453.28" font-family="Roboto, sans-serif" font-weight="bold" font-size="14.00">NEIN</text>
</g>
<!-- 3 -->
<g id="node6" class="node">
<title>3</title>
<path fill="#c2cee9" stroke="black" stroke-width="0" d="M944.67,-1419.33C944.67,-1419.33 389.38,-1419.33 389.38,-1419.33 383.38,-1419.33 377.38,-1413.33 377.38,-1407.33 377.38,-1407.33 377.38,-1386.05 377.38,-1386.05 377.38,-1380.05 383.38,-1374.05 389.38,-1374.05 389.38,-1374.05 944.67,-1374.05 944.67,-1374.05 950.67,-1374.05 956.67,-1380.05 956.67,-1386.05 956.67,-1386.05 956.67,-1407.33 956.67,-1407.33 956.67,-1413.33 950.67,-1419.33 944.67,-1419.33"/>
<text text-anchor="start" x="391.77" y="-1398.39" font-family="Roboto, sans-serif" font-weight="bold" font-size="14.00">3: </text>
<text text-anchor="start" x="411.27" y="-1398.39" font-family="Roboto, sans-serif" font-size="14.00">Entspricht die Versionsangabe in der BG-CL der Versionsangabe der BG-SZR</text>
<text text-anchor="start" x="391.77" y="-1384.39" font-family="Roboto, sans-serif" font-size="14.00">(Kategorie B), zu der eine BG-CL angefordert wurde?</text>
</g>
<!-- 2&#45;&gt;3 -->
<g id="edge5" class="edge">
<title>2-&gt;3</title>
<path fill="none" stroke="#88a0d6" d="M581.35,-1499.24C597.09,-1480.59 622.65,-1450.29 641.77,-1427.63"/>
<polygon fill="#88a0d6" stroke="#88a0d6" points="644.25,-1430.11 648.02,-1420.21 638.9,-1425.6 644.25,-1430.11"/>
<text text-anchor="start" x="622.02" y="-1453.28" font-family="Roboto, sans-serif" font-weight="bold" font-size="14.00">JA</text>
</g>
<!-- A03 -->
<g id="node7" class="node">
<title>A03</title>
<path fill="#c4cac1" stroke="black" stroke-width="0" d="M406.3,-1309.8C406.3,-1309.8 169.75,-1309.8 169.75,-1309.8 163.75,-1309.8 157.75,-1303.8 157.75,-1297.8 157.75,-1297.8 157.75,-1254.52 157.75,-1254.52 157.75,-1248.52 163.75,-1242.52 169.75,-1242.52 169.75,-1242.52 406.3,-1242.52 406.3,-1242.52 412.3,-1242.52 418.3,-1248.52 418.3,-1254.52 418.3,-1254.52 418.3,-1297.8 418.3,-1297.8 418.3,-1303.8 412.3,-1309.8 406.3,-1309.8"/>
<text text-anchor="start" x="172.15" y="-1288.86" font-family="Roboto, sans-serif" font-weight="bold" font-size="14.00">A03</text>
<text text-anchor="start" x="172.15" y="-1276.76" font-family="Roboto, sans-serif" text-decoration="underline" font-size="12.00">Hinweis:</text>
<text text-anchor="start" x="172.15" y="-1264.76" font-family="Roboto, sans-serif" font-size="12.00">Cluster: Ablehnung der gesamten Liste</text>
<text text-anchor="start" x="172.15" y="-1252.76" font-family="Roboto, sans-serif" font-size="12.00">Version nicht zugelassen</text>
</g>
<!-- 3&#45;&gt;A03 -->
<g id="edge6" class="edge">
<title>3-&gt;A03</title>
<path fill="none" stroke="#88a0d6" d="M597.95,-1374.09C543.66,-1357.11 466.85,-1333.09 403.28,-1313.2"/>
<polygon fill="#88a0d6" stroke="#88a0d6" points="404.42,-1309.89 393.83,-1310.25 402.33,-1316.57 404.42,-1309.89"/>
<text text-anchor="start" x="500.02" y="-1332.75" font-family="Roboto, sans-serif" font-weight="bold" font-size="14.00">NEIN</text>
</g>
<!-- 4 -->
<g id="node8" class="node">
<title>4</title>
<path fill="#c2cee9" stroke="black" stroke-width="0" d="M907.3,-1294.16C907.3,-1294.16 448.75,-1294.16 448.75,-1294.16 442.75,-1294.16 436.75,-1288.16 436.75,-1282.16 436.75,-1282.16 436.75,-1270.16 436.75,-1270.16 436.75,-1264.16 442.75,-1258.16 448.75,-1258.16 448.75,-1258.16 907.3,-1258.16 907.3,-1258.16 913.3,-1258.16 919.3,-1264.16 919.3,-1270.16 919.3,-1270.16 919.3,-1282.16 919.3,-1282.16 919.3,-1288.16 913.3,-1294.16 907.3,-1294.16"/>
<text text-anchor="start" x="451.15" y="-1272.49" font-family="Roboto, sans-serif" font-weight="bold" font-size="14.00">4: </text>
<text text-anchor="start" x="470.65" y="-1272.49" font-family="Roboto, sans-serif" font-size="14.00">Ist eine erwartete Marktlokation in der BG-CL nicht ent-halten?</text>
</g>
<!-- 3&#45;&gt;4 -->
<g id="edge7" class="edge">
<title>3-&gt;4</title>
<path fill="none" stroke="#88a0d6" d="M669.02,-1374.23C670.81,-1354.93 673.45,-1326.46 675.41,-1305.34"/>
<polygon fill="#88a0d6" stroke="#88a0d6" points="678.89,-1305.66 676.33,-1295.38 671.92,-1305.02 678.89,-1305.66"/>
<text text-anchor="start" x="673.02" y="-1332.75" font-family="Roboto, sans-serif" font-weight="bold" font-size="14.00">JA</text>
</g>
<!-- A04 -->
<g id="node9" class="node">
<title>A04</title>
<path fill="#c4cac1" stroke="black" stroke-width="0" d="M349.3,-1189.27C349.3,-1189.27 58.75,-1189.27 58.75,-1189.27 52.75,-1189.27 46.75,-1183.27 46.75,-1177.27 46.75,-1177.27 46.75,-1133.99 46.75,-1133.99 46.75,-1127.99 52.75,-1121.99 58.75,-1121.99 58.75,-1121.99 349.3,-1121.99 349.3,-1121.99 355.3,-1121.99 361.3,-1127.99 361.3,-1133.99 361.3,-1133.99 361.3,-1177.27 361.3,-1177.27 361.3,-1183.27 355.3,-1189.27 349.3,-1189.27"/>
<text text-anchor="start" x="61.15" y="-1168.33" font-family="Roboto, sans-serif" font-weight="bold" font-size="14.00">A04</text>
<text text-anchor="start" x="61.15" y="-1156.23" font-family="Roboto, sans-serif" text-decoration="underline" font-size="12.00">Hinweis:</text>
<text text-anchor="start" x="61.15" y="-1144.23" font-family="Roboto, sans-serif" font-size="12.00">Cluster: Korrekturliste wegen Ablehnung</text>
<text text-anchor="start" x="61.15" y="-1132.23" font-family="Roboto, sans-serif" font-size="12.00">Zus&#228;tzlicher Datensatz / erg&#228;nzte Marktlokation</text>
</g>
<!-- 4&#45;&gt;A04 -->
<g id="edge8" class="edge">
<title>4-&gt;A04</title>
<path fill="none" stroke="#88a0d6" d="M610.11,-1258.18C541.38,-1240.99 433.05,-1213.9 345.56,-1192.02"/>
<polygon fill="#88a0d6" stroke="#88a0d6" points="346.47,-1188.64 335.92,-1189.61 344.77,-1195.43 346.47,-1188.64"/>
<text text-anchor="start" x="469.02" y="-1212.22" font-family="Roboto, sans-serif" font-weight="bold" font-size="14.00">JA</text>
</g>
<!-- 5 -->
<g id="node10" class="node">
<title>5</title>
<path fill="#c2cee9" stroke="black" stroke-width="0" d="M977.05,-1178.27C977.05,-1178.27 391,-1178.27 391,-1178.27 385,-1178.27 379,-1172.27 379,-1166.27 379,-1166.27 379,-1144.99 379,-1144.99 379,-1138.99 385,-1132.99 391,-1132.99 391,-1132.99 977.05,-1132.99 977.05,-1132.99 983.05,-1132.99 989.05,-1138.99 989.05,-1144.99 989.05,-1144.99 989.05,-1166.27 989.05,-1166.27 989.05,-1172.27 983.05,-1178.27 977.05,-1178.27"/>
<text text-anchor="start" x="393.4" y="-1157.33" font-family="Roboto, sans-serif" font-weight="bold" font-size="14.00">5: </text>
<text text-anchor="start" x="412.9" y="-1157.33" font-family="Roboto, sans-serif" font-size="14.00">Ist in der BG-CL eine Marktlokation enthalten, die im Bilanzierungsmonat dem LF</text>
<text text-anchor="start" x="393.4" y="-1143.33" font-family="Roboto, sans-serif" font-size="14.00">zur Bilanzierung nicht zu-geordnet ist?</text>
</g>
<!-- 4&#45;&gt;5 -->
<g id="edge9" class="edge">
<title>4-&gt;5</title>
<path fill="none" stroke="#88a0d6" d="M678.88,-1258.18C679.79,-1240.27 681.24,-1211.62 682.37,-1189.31"/>
<polygon fill="#88a0d6" stroke="#88a0d6" points="685.86,-1189.67 682.87,-1179.51 678.87,-1189.32 685.86,-1189.67"/>
<text text-anchor="start" x="681.02" y="-1212.22" font-family="Roboto, sans-serif" font-weight="bold" font-size="14.00">NEIN</text>
</g>
<!-- A05 -->
<g id="node11" class="node">
<title>A05</title>
<path fill="#c4cac1" stroke="black" stroke-width="0" d="M379.05,-1068.74C379.05,-1068.74 135,-1068.74 135,-1068.74 129,-1068.74 123,-1062.74 123,-1056.74 123,-1056.74 123,-1013.46 123,-1013.46 123,-1007.46 129,-1001.46 135,-1001.46 135,-1001.46 379.05,-1001.46 379.05,-1001.46 385.05,-1001.46 391.05,-1007.46 391.05,-1013.46 391.05,-1013.46 391.05,-1056.74 391.05,-1056.74 391.05,-1062.74 385.05,-1068.74 379.05,-1068.74"/>
<text text-anchor="start" x="137.4" y="-1047.8" font-family="Roboto, sans-serif" font-weight="bold" font-size="14.00">A05</text>
<text text-anchor="start" x="137.4" y="-1035.7" font-family="Roboto, sans-serif" text-decoration="underline" font-size="12.00">Hinweis:</text>
<text text-anchor="start" x="137.4" y="-1023.7" font-family="Roboto, sans-serif" font-size="12.00">Cluster: Korrekturliste wegen Ablehnung</text>
<text text-anchor="start" x="137.4" y="-1011.7" font-family="Roboto, sans-serif" font-size="12.00">Marktlokation falschem LF zugeordnet</text>
</g>
<!-- 5&#45;&gt;A05 -->
<g id="edge10" class="edge">
<title>5-&gt;A05</title>
<path fill="none" stroke="#88a0d6" d="M606.2,-1133.03C544.65,-1115.94 457.42,-1091.73 385.54,-1071.77"/>
<polygon fill="#88a0d6" stroke="#88a0d6" points="386.63,-1068.44 376.06,-1069.14 384.76,-1075.19 386.63,-1068.44"/>
<text text-anchor="start" x="496.02" y="-1091.69" font-family="Roboto, sans-serif" font-weight="bold" font-size="14.00">JA</text>
</g>
<!-- 6 -->
<g id="node12" class="node">
<title>6</title>
<path fill="#c2cee9" stroke="black" stroke-width="0" d="M953.05,-1053.1C953.05,-1053.1 421,-1053.1 421,-1053.1 415,-1053.1 409,-1047.1 409,-1041.1 409,-1041.1 409,-1029.1 409,-1029.1 409,-1023.1 415,-1017.1 421,-1017.1 421,-1017.1 953.05,-1017.1 953.05,-1017.1 959.05,-1017.1 965.05,-1023.1 965.05,-1029.1 965.05,-1029.1 965.05,-1041.1 965.05,-1041.1 965.05,-1047.1 959.05,-1053.1 953.05,-1053.1"/>
<text text-anchor="start" x="423.4" y="-1031.42" font-family="Roboto, sans-serif" font-weight="bold" font-size="14.00">6: </text>
<text text-anchor="start" x="442.9" y="-1031.42" font-family="Roboto, sans-serif" font-size="14.00">Ist die in der BG-CL enthaltene Marktlokation dem MaBiS-ZP zugeordnet?</text>
</g>
<!-- 5&#45;&gt;6 -->
<g id="edge11" class="edge">
<title>5-&gt;6</title>
<path fill="none" stroke="#88a0d6" d="M684.57,-1133.17C685.06,-1113.87 685.78,-1085.4 686.31,-1064.28"/>
<polygon fill="#88a0d6" stroke="#88a0d6" points="689.81,-1064.41 686.56,-1054.33 682.81,-1064.24 689.81,-1064.41"/>
<text text-anchor="start" x="685.02" y="-1091.69" font-family="Roboto, sans-serif" font-weight="bold" font-size="14.00">NEIN</text>
</g>
<!-- A06 -->
<g id="node13" class="node">
<title>A06</title>
<path fill="#c4cac1" stroke="black" stroke-width="0" d="M382.05,-948.21C382.05,-948.21 12,-948.21 12,-948.21 6,-948.21 0,-942.21 0,-936.21 0,-936.21 0,-892.93 0,-892.93 0,-886.93 6,-880.93 12,-880.93 12,-880.93 382.05,-880.93 382.05,-880.93 388.05,-880.93 394.05,-886.93 394.05,-892.93 394.05,-892.93 394.05,-936.21 394.05,-936.21 394.05,-942.21 388.05,-948.21 382.05,-948.21"/>
<text text-anchor="start" x="14.4" y="-927.27" font-family="Roboto, sans-serif" font-weight="bold" font-size="14.00">A06</text>
<text text-anchor="start" x="14.4" y="-915.17" font-family="Roboto, sans-serif" text-decoration="underline" font-size="12.00">Hinweis:</text>
<text text-anchor="start" x="14.4" y="-903.17" font-family="Roboto, sans-serif" font-size="12.00">Cluster: Korrekturliste wegen Ablehnung</text>
<text text-anchor="start" x="14.4" y="-891.17" font-family="Roboto, sans-serif" font-size="12.00">Zu viele Marktlokationen enthalten / entfallene Marktlokation</text>
</g>
<!-- 6&#45;&gt;A06 -->
<g id="edge12" class="edge">
<title>6-&gt;A06</title>
<path fill="none" stroke="#88a0d6" d="M616.82,-1017.12C545.62,-999.89 433.32,-972.73 342.78,-950.83"/>
<polygon fill="#88a0d6" stroke="#88a0d6" points="343.87,-947.49 333.32,-948.54 342.22,-954.29 343.87,-947.49"/>
<text text-anchor="start" x="471.02" y="-971.16" font-family="Roboto, sans-serif" font-weight="bold" font-size="14.00">NEIN</text>
</g>
<!-- 7 -->
<g id="node14" class="node">
<title>7</title>
<path fill="#c2cee9" stroke="black" stroke-width="0" d="M953.92,-937.21C953.92,-937.21 424.12,-937.21 424.12,-937.21 418.12,-937.21 412.12,-931.21 412.12,-925.21 412.12,-925.21 412.12,-903.93 412.12,-903.93 412.12,-897.93 418.12,-891.93 424.12,-891.93 424.12,-891.93 953.92,-891.93 953.92,-891.93 959.92,-891.93 965.92,-897.93 965.92,-903.93 965.92,-903.93 965.92,-925.21 965.92,-925.21 965.92,-931.21 959.92,-937.21 953.92,-937.21"/>
<text text-anchor="start" x="426.52" y="-916.27" font-family="Roboto, sans-serif" font-weight="bold" font-size="14.00">7: </text>
<text text-anchor="start" x="446.02" y="-916.27" font-family="Roboto, sans-serif" font-size="14.00">Entspricht das Bilanzierungsgebiet dem zwischen NB (&#252;ber LF) und &#220;NB</text>
<text text-anchor="start" x="426.52" y="-902.27" font-family="Roboto, sans-serif" font-size="14.00">ausgetauschten Bilanzierungsgebiet?</text>
</g>
<!-- 6&#45;&gt;7 -->
<g id="edge13" class="edge">
<title>6-&gt;7</title>
<path fill="none" stroke="#88a0d6" d="M687.31,-1017.12C687.61,-999.21 688.1,-970.56 688.47,-948.25"/>
<polygon fill="#88a0d6" stroke="#88a0d6" points="691.97,-948.51 688.64,-938.45 684.97,-948.39 691.97,-948.51"/>
<text text-anchor="start" x="688.02" y="-971.16" font-family="Roboto, sans-serif" font-weight="bold" font-size="14.00">JA</text>
</g>
<!-- A07 -->
<g id="node15" class="node">
<title>A07</title>
<path fill="#c4cac1" stroke="black" stroke-width="0" d="M959.17,-67.28C959.17,-67.28 688.88,-67.28 688.88,-67.28 682.88,-67.28 676.88,-61.28 676.88,-55.28 676.88,-55.28 676.88,-12 676.88,-12 676.88,-6 682.88,0 688.88,0 688.88,0 959.17,0 959.17,0 965.17,0 971.17,-6 971.17,-12 971.17,-12 971.17,-55.28 971.17,-55.28 971.17,-61.28 965.17,-67.28 959.17,-67.28"/>
<text text-anchor="start" x="691.27" y="-46.34" font-family="Roboto, sans-serif" font-weight="bold" font-size="14.00">A07</text>
<text text-anchor="start" x="691.27" y="-34.24" font-family="Roboto, sans-serif" text-decoration="underline" font-size="12.00">Hinweis:</text>
<text text-anchor="start" x="691.27" y="-22.24" font-family="Roboto, sans-serif" font-size="12.00">Cluster: Korrekturliste wegen Ablehnung</text>
<text text-anchor="start" x="691.27" y="-10.24" font-family="Roboto, sans-serif" font-size="12.00">Bilanzierungsrel. Daten nicht korrekt / fehlen</text>
</g>
<!-- 7&#45;&gt;A07 -->
<g id="edge14" class="edge">
<title>7-&gt;A07</title>
<path fill="none" stroke="#88a0d6" d="M550.45,-891.93C465.15,-874.56 372.02,-846.36 372.02,-806.04 372.02,-806.04 372.02,-806.04 372.02,-527.01 372.02,-501.72 367.42,-494.78 373.02,-470.12 383.08,-425.92 394.07,-416.1 423.02,-381.21"/>
<path fill="none" stroke="#88a0d6" d="M423.02,-379.21C442.03,-353.6 456.98,-356.76 477.02,-331.95"/>
<path fill="none" stroke="#88a0d6" d="M477.02,-329.95C495.64,-306.91 506.14,-306.3 524.02,-282.69"/>
<path fill="none" stroke="#88a0d6" d="M524.02,-280.69C542.68,-256.05 557.01,-258.53 575.02,-233.42"/>
<path fill="none" stroke="#88a0d6" d="M575.02,-231.42C592.11,-207.6 602.78,-207.1 621.02,-184.16"/>
<path fill="none" stroke="#88a0d6" d="M621.02,-182.16C639.2,-159.3 652.13,-161.79 671.02,-139.53"/>
<path fill="none" stroke="#88a0d6" d="M671.02,-137.53C689.06,-116.28 697.51,-114.8 717.02,-94.91"/>
<path fill="none" stroke="#88a0d6" d="M717.02,-92.91C724.09,-85.7 732.25,-79.15 740.84,-73.27"/>
<polygon fill="#88a0d6" stroke="#88a0d6" points="742.53,-76.34 749.02,-67.97 738.72,-70.47 742.53,-76.34"/>
<text text-anchor="start" x="373.02" y="-475.07" font-family="Roboto, sans-serif" font-weight="bold" font-size="14.00">NEIN</text>
</g>
<!-- 8 -->
<g id="node16" class="node">
<title>8</title>
<path fill="#c2cee9" stroke="black" stroke-width="0" d="M992.42,-827.68C992.42,-827.68 411.62,-827.68 411.62,-827.68 405.62,-827.68 399.62,-821.68 399.62,-815.68 399.62,-815.68 399.62,-794.4 399.62,-794.4 399.62,-788.4 405.62,-782.4 411.62,-782.4 411.62,-782.4 992.42,-782.4 992.42,-782.4 998.42,-782.4 1004.42,-788.4 1004.42,-794.4 1004.42,-794.4 1004.42,-815.68 1004.42,-815.68 1004.42,-821.68 998.42,-827.68 992.42,-827.68"/>
<text text-anchor="start" x="414.02" y="-806.74" font-family="Roboto, sans-serif" font-weight="bold" font-size="14.00">8: </text>
<text text-anchor="start" x="433.52" y="-806.74" font-family="Roboto, sans-serif" font-size="14.00">Entspricht der Bilanzkreis dem zwischen NB (&#252;ber LF) und &#220;NB ausgetauschten</text>
<text text-anchor="start" x="414.02" y="-792.74" font-family="Roboto, sans-serif" font-size="14.00">Bilanzkreis?</text>
</g>
<!-- 7&#45;&gt;8 -->
<g id="edge15" class="edge">
<title>7-&gt;8</title>
<path fill="none" stroke="#88a0d6" d="M691.62,-892.07C693.47,-876.83 695.97,-856.11 698.06,-838.82"/>
<polygon fill="#88a0d6" stroke="#88a0d6" points="701.52,-839.36 699.25,-829.01 694.57,-838.51 701.52,-839.36"/>
<text text-anchor="start" x="697.02" y="-850.63" font-family="Roboto, sans-serif" font-weight="bold" font-size="14.00">JA</text>
</g>
<!-- 8&#45;&gt;A07 -->
<g id="edge16" class="edge">
<title>8-&gt;A07</title>
<path fill="none" stroke="#88a0d6" d="M564.43,-782.42C495.29,-767.53 426.02,-744.53 426.02,-712.15 426.02,-712.15 426.02,-712.15 426.02,-527.01 426.02,-462.2 384.2,-433.11 423.02,-381.21"/>
<text text-anchor="start" x="410.02" y="-425.8" font-family="Roboto, sans-serif" font-weight="bold" font-size="14.00">NEIN</text>
</g>
<!-- 9 -->
<g id="node17" class="node">
<title>9</title>
<path fill="#c2cee9" stroke="black" stroke-width="0" d="M920.42,-729.15C920.42,-729.15 483.62,-729.15 483.62,-729.15 477.62,-729.15 471.62,-723.15 471.62,-717.15 471.62,-717.15 471.62,-705.15 471.62,-705.15 471.62,-699.15 477.62,-693.15 483.62,-693.15 483.62,-693.15 920.42,-693.15 920.42,-693.15 926.42,-693.15 932.42,-699.15 932.42,-705.15 932.42,-705.15 932.42,-717.15 932.42,-717.15 932.42,-723.15 926.42,-729.15 920.42,-729.15"/>
<text text-anchor="start" x="486.02" y="-707.48" font-family="Roboto, sans-serif" font-weight="bold" font-size="14.00">9: </text>
<text text-anchor="start" x="505.52" y="-707.48" font-family="Roboto, sans-serif" font-size="14.00">Entspricht der Bilanzierungsbeginn der Erwartung des NB?</text>
</g>
<!-- 8&#45;&gt;9 -->
<g id="edge17" class="edge">
<title>8-&gt;9</title>
<path fill="none" stroke="#88a0d6" d="M702.02,-782.73C702.02,-770.1 702.02,-753.94 702.02,-740.28"/>
<polygon fill="#88a0d6" stroke="#88a0d6" points="705.53,-740.57 702.03,-730.57 698.53,-740.57 705.53,-740.57"/>
<text text-anchor="start" x="702.02" y="-752.1" font-family="Roboto, sans-serif" font-weight="bold" font-size="14.00">JA</text>
</g>
<!-- 9&#45;&gt;A07 -->
<g id="edge18" class="edge">
<title>9-&gt;A07</title>
<path fill="none" stroke="#88a0d6" d="M551.06,-693.17C516.67,-680.49 490.02,-659.02 490.02,-622.9 490.02,-622.9 490.02,-622.9 490.02,-477.74 490.02,-412.69 438.61,-384.45 477.02,-331.95"/>
<text text-anchor="start" x="464.02" y="-376.54" font-family="Roboto, sans-serif" font-weight="bold" font-size="14.00">NEIN</text>
</g>
<!-- 10 -->
<g id="node18" class="node">
<title>10</title>
<path fill="#c2cee9" stroke="black" stroke-width="0" d="M964.3,-639.9C964.3,-639.9 529.75,-639.9 529.75,-639.9 523.75,-639.9 517.75,-633.9 517.75,-627.9 517.75,-627.9 517.75,-615.9 517.75,-615.9 517.75,-609.9 523.75,-603.9 529.75,-603.9 529.75,-603.9 964.3,-603.9 964.3,-603.9 970.3,-603.9 976.3,-609.9 976.3,-615.9 976.3,-615.9 976.3,-627.9 976.3,-627.9 976.3,-633.9 970.3,-639.9 964.3,-639.9"/>
<text text-anchor="start" x="532.15" y="-618.23" font-family="Roboto, sans-serif" font-weight="bold" font-size="14.00">10: </text>
<text text-anchor="start" x="561.4" y="-618.23" font-family="Roboto, sans-serif" font-size="14.00">Entspricht das Bilanzierungsende der Erwartung des NB?</text>
</g>
<!-- 9&#45;&gt;10 -->
<g id="edge19" class="edge">
<title>9-&gt;10</title>
<path fill="none" stroke="#88a0d6" d="M710.7,-693.33C717.05,-681.02 725.8,-664.05 733.12,-649.86"/>
<polygon fill="#88a0d6" stroke="#88a0d6" points="736.21,-651.51 737.68,-641.02 729.99,-648.3 736.21,-651.51"/>
<text text-anchor="start" x="728.02" y="-662.85" font-family="Roboto, sans-serif" font-weight="bold" font-size="14.00">JA</text>
</g>
<!-- 10&#45;&gt;A07 -->
<g id="edge20" class="edge">
<title>10-&gt;A07</title>
<path fill="none" stroke="#88a0d6" d="M635.3,-603.96C603.23,-593.68 571.23,-577.16 550.02,-550.65 531.34,-527.29 506.55,-306.96 524.02,-282.69"/>
<text text-anchor="start" x="518.02" y="-327.27" font-family="Roboto, sans-serif" font-weight="bold" font-size="14.00">NEIN</text>
</g>
<!-- 11 -->
<g id="node19" class="node">
<title>11</title>
<path fill="#c2cee9" stroke="black" stroke-width="0" d="M1079.05,-550.65C1079.05,-550.65 571,-550.65 571,-550.65 565,-550.65 559,-544.65 559,-538.65 559,-538.65 559,-517.37 559,-517.37 559,-511.37 565,-505.37 571,-505.37 571,-505.37 1079.05,-505.37 1079.05,-505.37 1085.05,-505.37 1091.05,-511.37 1091.05,-517.37 1091.05,-517.37 1091.05,-538.65 1091.05,-538.65 1091.05,-544.65 1085.05,-550.65 1079.05,-550.65"/>
<text text-anchor="start" x="573.4" y="-529.71" font-family="Roboto, sans-serif" font-weight="bold" font-size="14.00">11: </text>
<text text-anchor="start" x="602.65" y="-529.71" font-family="Roboto, sans-serif" font-size="14.00">Entspricht das normierte Profil dem zwischen NB (&#252;ber LF) und &#220;NB</text>
<text text-anchor="start" x="573.4" y="-515.71" font-family="Roboto, sans-serif" font-size="14.00">ausgetauschten normierten Profil?</text>
</g>
<!-- 10&#45;&gt;11 -->
<g id="edge21" class="edge">
<title>10-&gt;11</title>
<path fill="none" stroke="#88a0d6" d="M761.33,-604.05C771.99,-591.49 786.84,-574 799.51,-559.06"/>
<polygon fill="#88a0d6" stroke="#88a0d6" points="801.9,-561.67 805.7,-551.78 796.56,-557.14 801.9,-561.67"/>
<text text-anchor="start" x="790.02" y="-573.6" font-family="Roboto, sans-serif" font-weight="bold" font-size="14.00">JA</text>
</g>
<!-- 11&#45;&gt;A07 -->
<g id="edge22" class="edge">
<title>11-&gt;A07</title>
<path fill="none" stroke="#88a0d6" d="M696.79,-505.4C664.59,-494.3 632.76,-477.52 610.02,-452.12 555.82,-391.58 570.98,-354.3 573.02,-273.06 573.47,-255.43 564.86,-247.83 575.02,-233.42"/>
<text text-anchor="start" x="573.02" y="-278.01" font-family="Roboto, sans-serif" font-weight="bold" font-size="14.00">NEIN</text>
</g>
<!-- 12 -->
<g id="node20" class="node">
<title>12</title>
<path fill="#c2cee9" stroke="black" stroke-width="0" d="M1139.42,-452.12C1139.42,-452.12 630.62,-452.12 630.62,-452.12 624.62,-452.12 618.62,-446.12 618.62,-440.12 618.62,-440.12 618.62,-418.84 618.62,-418.84 618.62,-412.84 624.62,-406.84 630.62,-406.84 630.62,-406.84 1139.42,-406.84 1139.42,-406.84 1145.42,-406.84 1151.42,-412.84 1151.42,-418.84 1151.42,-418.84 1151.42,-440.12 1151.42,-440.12 1151.42,-446.12 1145.42,-452.12 1139.42,-452.12"/>
<text text-anchor="start" x="633.02" y="-431.18" font-family="Roboto, sans-serif" font-weight="bold" font-size="14.00">12: </text>
<text text-anchor="start" x="662.27" y="-431.18" font-family="Roboto, sans-serif" font-size="14.00">Entspricht die Versionsangabe des Profils der zwischen NB und &#220;NB</text>
<text text-anchor="start" x="633.02" y="-417.18" font-family="Roboto, sans-serif" font-size="14.00">ausgetauschten Version des Profils?</text>
</g>
<!-- 11&#45;&gt;12 -->
<g id="edge23" class="edge">
<title>11-&gt;12</title>
<path fill="none" stroke="#88a0d6" d="M838.34,-505.59C846.42,-492.59 856.87,-475.78 865.83,-461.37"/>
<polygon fill="#88a0d6" stroke="#88a0d6" points="868.64,-463.47 870.95,-453.13 862.7,-459.77 868.64,-463.47"/>
<text text-anchor="start" x="858.02" y="-475.07" font-family="Roboto, sans-serif" font-weight="bold" font-size="14.00">JA</text>
</g>
<!-- 12&#45;&gt;A07 -->
<g id="edge24" class="edge">
<title>12-&gt;A07</title>
<path fill="none" stroke="#88a0d6" d="M736.25,-406.87C703.42,-395.73 671.48,-378.92 648.02,-353.59 622.12,-325.62 598.27,-214.75 621.02,-184.16"/>
<text text-anchor="start" x="613.02" y="-228.75" font-family="Roboto, sans-serif" font-weight="bold" font-size="14.00">NEIN</text>
</g>
<!-- 13 -->
<g id="node21" class="node">
<title>13</title>
<path fill="#c2cee9" stroke="black" stroke-width="0" d="M1276.55,-353.59C1276.55,-353.59 669.5,-353.59 669.5,-353.59 663.5,-353.59 657.5,-347.59 657.5,-341.59 657.5,-341.59 657.5,-320.31 657.5,-320.31 657.5,-314.31 663.5,-308.31 669.5,-308.31 669.5,-308.31 1276.55,-308.31 1276.55,-308.31 1282.55,-308.31 1288.55,-314.31 1288.55,-320.31 1288.55,-320.31 1288.55,-341.59 1288.55,-341.59 1288.55,-347.59 1282.55,-353.59 1276.55,-353.59"/>
<text text-anchor="start" x="671.9" y="-332.65" font-family="Roboto, sans-serif" font-weight="bold" font-size="14.00">13: </text>
<text text-anchor="start" x="701.15" y="-332.65" font-family="Roboto, sans-serif" font-size="14.00">Entspricht die veranschlagte Prognosemenge (JVP) der zwischen NB (&#252;ber LF) und</text>
<text text-anchor="start" x="671.9" y="-318.65" font-family="Roboto, sans-serif" font-size="14.00">&#220;NB ausgetauschten Prognosemenge?</text>
</g>
<!-- 12&#45;&gt;13 -->
<g id="edge25" class="edge">
<title>12-&gt;13</title>
<path fill="none" stroke="#88a0d6" d="M904.56,-407.06C916.75,-393.68 932.61,-376.28 946,-361.6"/>
<polygon fill="#88a0d6" stroke="#88a0d6" points="948.38,-364.18 952.53,-354.43 943.21,-359.46 948.38,-364.18"/>
<text text-anchor="start" x="934.02" y="-376.54" font-family="Roboto, sans-serif" font-weight="bold" font-size="14.00">JA</text>
</g>
<!-- 13&#45;&gt;A07 -->
<g id="edge26" class="edge">
<title>13-&gt;A07</title>
<path fill="none" stroke="#88a0d6" d="M801.17,-308.32C766.55,-297.08 732.9,-280.23 707.02,-255.06 668.47,-217.56 638.24,-182.16 671.02,-139.53"/>
<text text-anchor="start" x="659.02" y="-179.48" font-family="Roboto, sans-serif" font-weight="bold" font-size="14.00">NEIN</text>
</g>
<!-- 14 -->
<g id="node22" class="node">
<title>14</title>
<path fill="#c2cee9" stroke="black" stroke-width="0" d="M1311.92,-255.06C1311.92,-255.06 728.12,-255.06 728.12,-255.06 722.12,-255.06 716.12,-249.06 716.12,-243.06 716.12,-243.06 716.12,-221.78 716.12,-221.78 716.12,-215.78 722.12,-209.78 728.12,-209.78 728.12,-209.78 1311.92,-209.78 1311.92,-209.78 1317.92,-209.78 1323.92,-215.78 1323.92,-221.78 1323.92,-221.78 1323.92,-243.06 1323.92,-243.06 1323.92,-249.06 1317.92,-255.06 1311.92,-255.06"/>
<text text-anchor="start" x="730.52" y="-234.12" font-family="Roboto, sans-serif" font-weight="bold" font-size="14.00">14: </text>
<text text-anchor="start" x="759.77" y="-234.12" font-family="Roboto, sans-serif" font-size="14.00">Entspricht die tats&#228;chlich bilanzierte Menge der erwarteten bilanzierten Menge</text>
<text text-anchor="start" x="730.52" y="-220.12" font-family="Roboto, sans-serif" font-size="14.00">(monatlich gemessene Menge auf Basis der Summe der 1/4-h-Werten)?</text>
</g>
<!-- 13&#45;&gt;14 -->
<g id="edge27" class="edge">
<title>13-&gt;14</title>
<path fill="none" stroke="#88a0d6" d="M983.46,-308.53C989.72,-295.65 997.81,-279.05 1004.78,-264.72"/>
<polygon fill="#88a0d6" stroke="#88a0d6" points="1007.73,-266.67 1008.96,-256.14 1001.44,-263.6 1007.73,-266.67"/>
<text text-anchor="start" x="999.02" y="-278.01" font-family="Roboto, sans-serif" font-weight="bold" font-size="14.00">JA</text>
</g>
<!-- 14&#45;&gt;A07 -->
<g id="edge28" class="edge">
<title>14-&gt;A07</title>
<path fill="none" stroke="#88a0d6" d="M861.31,-209.78C760.85,-189.89 659.82,-154.26 717.02,-94.91"/>
<text text-anchor="start" x="715.02" y="-134.85" font-family="Roboto, sans-serif" font-weight="bold" font-size="14.00">NEIN</text>
</g>
<!-- 15 -->
<g id="node23" class="node">
<title>15</title>
<path fill="#c2cee9" stroke="black" stroke-width="0" d="M1402.05,-156.53C1402.05,-156.53 786,-156.53 786,-156.53 780,-156.53 774,-150.53 774,-144.53 774,-144.53 774,-132.53 774,-132.53 774,-126.53 780,-120.53 786,-120.53 786,-120.53 1402.05,-120.53 1402.05,-120.53 1408.05,-120.53 1414.05,-126.53 1414.05,-132.53 1414.05,-132.53 1414.05,-144.53 1414.05,-144.53 1414.05,-150.53 1408.05,-156.53 1402.05,-156.53"/>
<text text-anchor="start" x="788.4" y="-134.85" font-family="Roboto, sans-serif" font-weight="bold" font-size="14.00">15: </text>
<text text-anchor="start" x="817.65" y="-134.85" font-family="Roboto, sans-serif" font-size="14.00">Entspricht der Zeitreihentyp dem zwischen NB (&#252;ber LF) und &#220;NB ausgetauschten?</text>
</g>
<!-- 14&#45;&gt;15 -->
<g id="edge29" class="edge">
<title>14-&gt;15</title>
<path fill="none" stroke="#88a0d6" d="M1037.19,-210.11C1047.98,-196.71 1061.96,-179.35 1073.35,-165.2"/>
<polygon fill="#88a0d6" stroke="#88a0d6" points="1075.91,-167.6 1079.46,-157.62 1070.46,-163.21 1075.91,-167.6"/>
<text text-anchor="start" x="1065.03" y="-179.48" font-family="Roboto, sans-serif" font-weight="bold" font-size="14.00">JA</text>
</g>
<!-- 15&#45;&gt;A07 -->
<g id="edge30" class="edge">
<title>15-&gt;A07</title>
<path fill="none" stroke="#88a0d6" d="M1049.44,-120.54C1014.43,-107.2 964.41,-88.14 920.38,-71.36"/>
<polygon fill="#88a0d6" stroke="#88a0d6" points="921.63,-68.09 911.04,-67.8 919.14,-74.63 921.63,-68.09"/>
<text text-anchor="start" x="998.02" y="-90.23" font-family="Roboto, sans-serif" font-weight="bold" font-size="14.00">NEIN</text>
</g>
<!-- Ende -->
<g id="node24" class="node">
<title>Ende</title>
<path fill="#8ba2d7" stroke="black" stroke-width="0" d="M1114.05,-51.64C1114.05,-51.64 1074,-51.64 1074,-51.64 1068,-51.64 1062,-45.64 1062,-39.64 1062,-39.64 1062,-27.64 1062,-27.64 1062,-21.64 1068,-15.64 1074,-15.64 1074,-15.64 1114.05,-15.64 1114.05,-15.64 1120.05,-15.64 1126.05,-21.64 1126.05,-27.64 1126.05,-27.64 1126.05,-39.64 1126.05,-39.64 1126.05,-45.64 1120.05,-51.64 1114.05,-51.64"/>
<text text-anchor="middle" x="1094.03" y="-28.96" font-family="Roboto, sans-serif" font-size="14.00">Ende</text>
</g>
<!-- 15&#45;&gt;Ende -->
<g id="edge31" class="edge">
<title>15-&gt;Ende</title>
<path fill="none" stroke="#88a0d6" d="M1094.03,-120.54C1094.03,-104.81 1094.03,-81.12 1094.03,-62.6"/>
<polygon fill="#88a0d6" stroke="#88a0d6" points="1097.53,-62.83 1094.03,-52.83 1090.53,-62.83 1097.53,-62.83"/>
<text text-anchor="start" x="1094.03" y="-90.23" font-family="Roboto, sans-serif" font-weight="bold" font-size="14.00">JA</text>
</g>
</g>
</svg>
  </g>
</svg>
  </g>
</svg>
