<?xml version='1.0' encoding='ASCII' standalone='yes'?>
<svg xmlns="http://www.w3.org/2000/svg" xmlns:xlink="http://www.w3.org/1999/xlink" version="1.1" width="1906.6666666666667px" viewBox="0 0 1906.6666666666667 753.3333333333334" height="753.3333333333334px">
  <g>
    <svg version="1.1" width="1906.6666666666667px" viewBox="0 0 1906.6666666666667 753.3333333333334" height="753.3333333333334px">
  <polygon fill="#f3f1f6" points="0,0 1906.6666666666667,0 1906.6666666666667,753.3333333333334 0,753.3333333333334"/><g>
    <g transform="translate(652.2235186803068, 75.33333333333331) scale(1 1) translate(0, 0) scale(3.4070372731762113 3.4070372731762113) "><sodipodi:namedview xmlns:sodipodi="http://sodipodi.sourceforge.net/DTD/sodipodi-0.dtd" xmlns:inkscape="http://www.inkscape.org/namespaces/inkscape" id="namedview7" pagecolor="#ffffff" bordercolor="#999999" borderopacity="1" inkscape:pageshadow="0" inkscape:pageopacity="0" inkscape:pagecheckerboard="0" inkscape:document-units="mm" showgrid="false" fit-margin-top="0" fit-margin-left="0" fit-margin-right="0" fit-margin-bottom="0" inkscape:zoom="0.64052329" inkscape:cx="130.36216" inkscape:cy="412.163" inkscape:window-width="1512" inkscape:window-height="916" inkscape:window-x="3840" inkscape:window-y="136" inkscape:window-maximized="0" inkscape:current-layer="layer1"/>
  <defs id="defs2">
    <clipPath clipPathUnits="userSpaceOnUse" id="clipPath23">
      <path d="M 0,568.156 H 579.236 V 0 H 0 Z" id="path21"/>
    </clipPath>
  </defs>
  <g xmlns:inkscape="http://www.inkscape.org/namespaces/inkscape" inkscape:label="Layer 1" inkscape:groupmode="layer" id="layer1" transform="translate(-16.541937,-55.305267)">
    <g id="g19" clip-path="url(#clipPath23)" transform="matrix(0.35277777,0,0,-0.35277777,0.01017023,243.73675)" style="opacity:0.2">
      <g id="g25" transform="translate(122.444,32.7195)">
        <path d="m 0,0 h -56.104 c -11,0 -19.898,9.123 -19.463,20.115 10.594,267.191 231.277,481.302 501.029,481.302 v -56.02 c 0,-10.98 -8.688,-19.892 -19.658,-20.393 C 180.29,414.697 0,228.005 0,0" style="fill:#6ead83;fill-opacity:1;fill-rule:nonzero;stroke:none" id="path27"/>
      </g>
      <g id="g29" transform="translate(273.7828,32.7195)">
        <path d="m 0,0 h -55.926 c -11.228,0 -20.091,9.482 -19.435,20.69 10.744,183.439 163.389,329.388 349.485,329.388 v -56.263 c 0,-10.709 -8.273,-19.617 -18.957,-20.35 C 112.819,263.696 0,144.774 0,0" style="fill:#6ead83;fill-opacity:1;fill-rule:nonzero;stroke:none" id="path31"/>
      </g>
      <g id="g33" transform="translate(425.7667,32.7195)">
        <path d="m 0,0 h -55.445 c -11.653,0 -20.604,10.17 -19.334,21.753 10.866,99.032 95.031,176.341 196.919,176.341 v -57.011 c 0,-10.046 -7.283,-18.755 -17.229,-20.165 C 45.688,112.522 0,61.497 0,0" style="fill:#6ead83;fill-opacity:1;fill-rule:nonzero;stroke:none" id="path35"/>
      </g>
    </g>
  </g>
</g>
    <svg width="1430pt" height="565pt" viewBox="0.00 0.00 1430.01 565.07">
<g id="graph0" class="graph" transform="scale(1 1) rotate(0) translate(4 561.07)">
<title>D</title>
<text text-anchor="start" x="677.63" y="-536.97" font-family="Times,serif" font-weight="bold" font-size="18.00">MaBiS</text>
<text text-anchor="start" x="207.01" y="-506.87" font-family="Times,serif" font-weight="bold" font-size="16.00">7.27.3: AD: &#220;bermittlung Datenstatus f&#252;r die Bilanzierungsgebietssummenzeitreihe vom BIKO an &#220;NB und NB</text>
<!-- Start -->
<g id="node1" class="node">
<title>Start</title>
<polygon fill="#7a8da1" stroke="black" points="406.01,-459.07 231.72,-459.07 231.72,-415.79 406.01,-415.79 406.01,-459.07"/>
<text text-anchor="start" x="290.74" y="-438.13" font-family="Times,serif" font-weight="bold" font-size="14.00">E_0055</text>
<text text-anchor="start" x="246.12" y="-426.03" font-family="Times,serif" font-weight="bold" text-decoration="underline" font-size="12.00">Pr&#252;fende Rolle:</text>
<text text-anchor="start" x="351.12" y="-426.03" font-family="Times,serif" font-weight="bold" font-size="12.00"> BIKO</text>
</g>
<!-- 1 -->
<g id="node2" class="node">
<title>1</title>
<path fill="#7aab8a" stroke="black" d="M490.39,-378.79C490.39,-378.79 147.34,-378.79 147.34,-378.79 141.34,-378.79 135.34,-372.79 135.34,-366.79 135.34,-366.79 135.34,-354.79 135.34,-354.79 135.34,-348.79 141.34,-342.79 147.34,-342.79 147.34,-342.79 490.39,-342.79 490.39,-342.79 496.39,-342.79 502.39,-348.79 502.39,-354.79 502.39,-354.79 502.39,-366.79 502.39,-366.79 502.39,-372.79 496.39,-378.79 490.39,-378.79"/>
<text text-anchor="start" x="149.74" y="-357.11" font-family="Times,serif" font-weight="bold" font-size="14.00">1: </text>
<text text-anchor="start" x="169.24" y="-357.11" font-family="Times,serif" font-size="14.00">Ist die eingegangene Pr&#252;fmitteilung positiv?</text>
</g>
<!-- Start&#45;&gt;1 -->
<g id="edge1" class="edge">
<title>Start-&gt;1</title>
<path fill="none" stroke="black" d="M318.87,-415.64C318.87,-407.6 318.87,-398.28 318.87,-389.68"/>
<polygon fill="black" stroke="black" points="322.37,-389.95 318.87,-379.95 315.37,-389.95 322.37,-389.95"/>
</g>
<!-- A** -->
<g id="node3" class="node">
<title>A**</title>
<polygon fill="#cfb986" stroke="black" points="605.73,-200.29 0,-200.29 0,-102.77 605.73,-102.77 605.73,-200.29"/>
<text text-anchor="start" x="290.12" y="-182.23" font-family="Times,serif" font-weight="bold" font-size="14.00">A**</text>
<text text-anchor="start" x="12.24" y="-170.13" font-family="Times,serif" text-decoration="underline" font-size="12.00">Hinweis:</text>
<text text-anchor="start" x="12.24" y="-158.13" font-family="Times,serif" font-size="12.00">Aktueller Datenstatus</text>
<text text-anchor="start" x="12.24" y="-146.13" font-family="Times,serif" font-size="12.00">Hinweis: A** wird durch richtigen Code aus dem System des BIKO ersetzt. M&#246;gliche Codes sind:</text>
<text text-anchor="start" x="12.24" y="-134.13" font-family="Times,serif" font-size="12.00">A01Datenstatus &#8222;Abrechnungsdaten&#8220;</text>
<text text-anchor="start" x="12.24" y="-122.13" font-family="Times,serif" font-size="12.00">A03Datenstatus &#8222;Abgerechnete Daten&#8220;</text>
<text text-anchor="start" x="12.24" y="-110.13" font-family="Times,serif" font-size="12.00">A04Datenstatus &#8222;Abrechnungsdaten KBKA&#8220;</text>
</g>
<!-- 1&#45;&gt;A** -->
<g id="edge2" class="edge">
<title>1-&gt;A**</title>
<path fill="none" stroke="black" d="M316.71,-342.49C315.01,-328.29 312.66,-307.63 311.12,-289.54 308.94,-264.01 307.14,-235.75 305.78,-211.56"/>
<polygon fill="black" stroke="black" points="309.23,-211.55 305.18,-201.76 302.24,-211.94 309.23,-211.55"/>
<text text-anchor="middle" x="328.74" y="-266.86" font-family="Times,serif" font-size="14.00">Nein</text>
</g>
<!-- 2 -->
<g id="node4" class="node">
<title>2</title>
<path fill="#7aab8a" stroke="black" d="M673.39,-289.54C673.39,-289.54 366.34,-289.54 366.34,-289.54 360.34,-289.54 354.34,-283.54 354.34,-277.54 354.34,-277.54 354.34,-265.54 354.34,-265.54 354.34,-259.54 360.34,-253.54 366.34,-253.54 366.34,-253.54 673.39,-253.54 673.39,-253.54 679.39,-253.54 685.39,-259.54 685.39,-265.54 685.39,-265.54 685.39,-277.54 685.39,-277.54 685.39,-283.54 679.39,-289.54 673.39,-289.54"/>
<text text-anchor="start" x="368.74" y="-267.86" font-family="Times,serif" font-weight="bold" font-size="14.00">2: </text>
<text text-anchor="start" x="388.24" y="-267.86" font-family="Times,serif" font-size="14.00">Liegt der Datenstatus &#8222;Pr&#252;fdaten&#8220; vor?</text>
</g>
<!-- 1&#45;&gt;2 -->
<g id="edge3" class="edge">
<title>1-&gt;2</title>
<path fill="none" stroke="black" d="M359.06,-342.34C390.96,-328.49 435.74,-309.06 469.94,-294.21"/>
<polygon fill="black" stroke="black" points="470.96,-297.15 478.74,-289.96 468.18,-290.73 470.96,-297.15"/>
<text text-anchor="middle" x="444.62" y="-311.49" font-family="Times,serif" font-size="14.00">Ja</text>
</g>
<!-- 2&#45;&gt;A** -->
<g id="edge4" class="edge">
<title>2-&gt;A**</title>
<path fill="none" stroke="black" d="M487.85,-253.13C464.67,-240.52 432.02,-222.77 400.59,-205.67"/>
<polygon fill="black" stroke="black" points="402.78,-202.34 392.32,-200.64 399.44,-208.49 402.78,-202.34"/>
<text text-anchor="middle" x="466.74" y="-222.24" font-family="Times,serif" font-size="14.00">Nein</text>
</g>
<!-- 3 -->
<g id="node5" class="node">
<title>3</title>
<path fill="#7aab8a" stroke="black" d="M1410.01,-169.53C1410.01,-169.53 635.72,-169.53 635.72,-169.53 629.72,-169.53 623.72,-163.53 623.72,-157.53 623.72,-157.53 623.72,-145.53 623.72,-145.53 623.72,-139.53 629.72,-133.53 635.72,-133.53 635.72,-133.53 1410.01,-133.53 1410.01,-133.53 1416.01,-133.53 1422.01,-139.53 1422.01,-145.53 1422.01,-145.53 1422.01,-157.53 1422.01,-157.53 1422.01,-163.53 1416.01,-169.53 1410.01,-169.53"/>
<text text-anchor="start" x="638.12" y="-147.85" font-family="Times,serif" font-weight="bold" font-size="14.00">3: </text>
<text text-anchor="start" x="657.62" y="-147.85" font-family="Times,serif" font-size="14.00">Erfolgt der Eingang der Pr&#252;fmitteilung vor Ablauf der Frist f&#252;r die Clearingphase der BKA (ohne KBKA)?</text>
</g>
<!-- 2&#45;&gt;3 -->
<g id="edge5" class="edge">
<title>2-&gt;3</title>
<path fill="none" stroke="black" d="M594.36,-253.06C686.09,-231.54 841.54,-195.07 937.85,-172.48"/>
<polygon fill="black" stroke="black" points="938.49,-175.69 947.43,-169.99 936.89,-168.87 938.49,-175.69"/>
<text text-anchor="middle" x="748.62" y="-222.24" font-family="Times,serif" font-size="14.00">Ja</text>
</g>
<!-- A01 -->
<g id="node6" class="node">
<title>A01</title>
<polygon fill="#cfb986" stroke="black" points="1004.61,-49.52 779.12,-49.52 779.12,0 1004.61,0 1004.61,-49.52"/>
<text text-anchor="start" x="876.87" y="-31.46" font-family="Times,serif" font-weight="bold" font-size="14.00">A01</text>
<text text-anchor="start" x="791.37" y="-19.36" font-family="Times,serif" text-decoration="underline" font-size="12.00">Hinweis:</text>
<text text-anchor="start" x="791.37" y="-7.36" font-family="Times,serif" font-size="12.00">Datenstatus &#8222;Abrechnungsdaten&#8220;</text>
</g>
<!-- 3&#45;&gt;A01 -->
<g id="edge6" class="edge">
<title>3-&gt;A01</title>
<path fill="none" stroke="black" d="M1004.65,-133.18C984.1,-113.6 950.24,-81.36 924.98,-57.3"/>
<polygon fill="black" stroke="black" points="927.76,-55.16 918.1,-50.8 922.93,-60.23 927.76,-55.16"/>
<text text-anchor="middle" x="960.62" y="-71.47" font-family="Times,serif" font-size="14.00">Ja</text>
</g>
<!-- A04 -->
<g id="node7" class="node">
<title>A04</title>
<polygon fill="#cfb986" stroke="black" points="1287.11,-49.52 1022.62,-49.52 1022.62,0 1287.11,0 1287.11,-49.52"/>
<text text-anchor="start" x="1139.87" y="-31.46" font-family="Times,serif" font-weight="bold" font-size="14.00">A04</text>
<text text-anchor="start" x="1034.87" y="-19.36" font-family="Times,serif" text-decoration="underline" font-size="12.00">Hinweis:</text>
<text text-anchor="start" x="1034.87" y="-7.36" font-family="Times,serif" font-size="12.00">Datenstatus &#8222;Abrechnungsdaten KBKA&#8220;</text>
</g>
<!-- 3&#45;&gt;A04 -->
<g id="edge7" class="edge">
<title>3-&gt;A04</title>
<path fill="none" stroke="black" d="M1041.22,-133.18C1061.93,-113.6 1096.04,-81.36 1121.5,-57.3"/>
<polygon fill="black" stroke="black" points="1123.57,-60.21 1128.43,-50.8 1118.76,-55.12 1123.57,-60.21"/>
<text text-anchor="middle" x="1125.74" y="-71.47" font-family="Times,serif" font-size="14.00">Nein</text>
</g>
</g>
</svg>
  </g>
</svg>
  </g>
</svg>
