<?xml version='1.0' encoding='ASCII' standalone='yes'?>
<svg xmlns="http://www.w3.org/2000/svg" xmlns:xlink="http://www.w3.org/1999/xlink" version="1.1" width="1864.0px" viewBox="0 0 1864.0 721.3333333333334" height="721.3333333333334px">
  <g>
    <svg version="1.1" width="1864.0px" viewBox="0 0 1864.0 721.3333333333334" height="721.3333333333334px">
  <polygon fill="#f3f1f6" points="0,0 1864.0,0 1864.0,721.3333333333334 0,721.3333333333334"/><g>
    <g transform="translate(643.6806907481639, 72.13333333333333) scale(1 1) translate(0, 0) scale(3.2623135659970446 3.2623135659970446) "><sodipodi:namedview xmlns:sodipodi="http://sodipodi.sourceforge.net/DTD/sodipodi-0.dtd" xmlns:inkscape="http://www.inkscape.org/namespaces/inkscape" id="namedview7" pagecolor="#ffffff" bordercolor="#999999" borderopacity="1" inkscape:pageshadow="0" inkscape:pageopacity="0" inkscape:pagecheckerboard="0" inkscape:document-units="mm" showgrid="false" fit-margin-top="0" fit-margin-left="0" fit-margin-right="0" fit-margin-bottom="0" inkscape:zoom="0.64052329" inkscape:cx="130.36216" inkscape:cy="412.163" inkscape:window-width="1512" inkscape:window-height="916" inkscape:window-x="3840" inkscape:window-y="136" inkscape:window-maximized="0" inkscape:current-layer="layer1"/>
  <defs id="defs2">
    <clipPath clipPathUnits="userSpaceOnUse" id="clipPath23">
      <path d="M 0,568.156 H 579.236 V 0 H 0 Z" id="path21"/>
    </clipPath>
  </defs>
  <g xmlns:inkscape="http://www.inkscape.org/namespaces/inkscape" inkscape:label="Layer 1" inkscape:groupmode="layer" id="layer1" transform="translate(-16.541937,-55.305267)">
    <g id="g19" clip-path="url(#clipPath23)" transform="matrix(0.35277777,0,0,-0.35277777,0.01017023,243.73675)" style="opacity:0.2">
      <g id="g25" transform="translate(122.444,32.7195)">
        <path d="m 0,0 h -56.104 c -11,0 -19.898,9.123 -19.463,20.115 10.594,267.191 231.277,481.302 501.029,481.302 v -56.02 c 0,-10.98 -8.688,-19.892 -19.658,-20.393 C 180.29,414.697 0,228.005 0,0" style="fill:#6ead83;fill-opacity:1;fill-rule:nonzero;stroke:none" id="path27"/>
      </g>
      <g id="g29" transform="translate(273.7828,32.7195)">
        <path d="m 0,0 h -55.926 c -11.228,0 -20.091,9.482 -19.435,20.69 10.744,183.439 163.389,329.388 349.485,329.388 v -56.263 c 0,-10.709 -8.273,-19.617 -18.957,-20.35 C 112.819,263.696 0,144.774 0,0" style="fill:#6ead83;fill-opacity:1;fill-rule:nonzero;stroke:none" id="path31"/>
      </g>
      <g id="g33" transform="translate(425.7667,32.7195)">
        <path d="m 0,0 h -55.445 c -11.653,0 -20.604,10.17 -19.334,21.753 10.866,99.032 95.031,176.341 196.919,176.341 v -57.011 c 0,-10.046 -7.283,-18.755 -17.229,-20.165 C 45.688,112.522 0,61.497 0,0" style="fill:#6ead83;fill-opacity:1;fill-rule:nonzero;stroke:none" id="path35"/>
      </g>
    </g>
  </g>
</g>
    <svg width="1398pt" height="541pt" viewBox="0.00 0.00 1397.51 541.07">
<g id="graph0" class="graph" transform="scale(1 1) rotate(0) translate(4 537.07)">
<title>D</title>
<text text-anchor="start" x="661.38" y="-512.97" font-family="Times,serif" font-weight="bold" font-size="18.00">MaBiS</text>
<text text-anchor="start" x="266.13" y="-482.87" font-family="Times,serif" font-weight="bold" font-size="16.00">7.51.2: AD: &#220;bermittlung Datenstatus des Deltazeitreihen&#252;bertrags vom BIKO an &#220;NB und NB</text>
<!-- Start -->
<g id="node1" class="node">
<title>Start</title>
<polygon fill="#7a8da1" stroke="black" points="406.01,-435.07 231.72,-435.07 231.72,-391.79 406.01,-391.79 406.01,-435.07"/>
<text text-anchor="start" x="290.74" y="-414.13" font-family="Times,serif" font-weight="bold" font-size="14.00">E_0060</text>
<text text-anchor="start" x="246.12" y="-402.03" font-family="Times,serif" font-weight="bold" text-decoration="underline" font-size="12.00">Pr&#252;fende Rolle:</text>
<text text-anchor="start" x="351.12" y="-402.03" font-family="Times,serif" font-weight="bold" font-size="12.00"> BIKO</text>
</g>
<!-- 1 -->
<g id="node2" class="node">
<title>1</title>
<path fill="#7aab8a" stroke="black" d="M490.39,-354.79C490.39,-354.79 147.34,-354.79 147.34,-354.79 141.34,-354.79 135.34,-348.79 135.34,-342.79 135.34,-342.79 135.34,-330.79 135.34,-330.79 135.34,-324.79 141.34,-318.79 147.34,-318.79 147.34,-318.79 490.39,-318.79 490.39,-318.79 496.39,-318.79 502.39,-324.79 502.39,-330.79 502.39,-330.79 502.39,-342.79 502.39,-342.79 502.39,-348.79 496.39,-354.79 490.39,-354.79"/>
<text text-anchor="start" x="149.74" y="-333.11" font-family="Times,serif" font-weight="bold" font-size="14.00">1: </text>
<text text-anchor="start" x="169.24" y="-333.11" font-family="Times,serif" font-size="14.00">Ist die eingegangene Pr&#252;fmitteilung positiv?</text>
</g>
<!-- Start&#45;&gt;1 -->
<g id="edge1" class="edge">
<title>Start-&gt;1</title>
<path fill="none" stroke="black" d="M318.87,-391.64C318.87,-383.6 318.87,-374.28 318.87,-365.68"/>
<polygon fill="black" stroke="black" points="322.37,-365.95 318.87,-355.95 315.37,-365.95 322.37,-365.95"/>
</g>
<!-- A** -->
<g id="node3" class="node">
<title>A**</title>
<polygon fill="#cfb986" stroke="black" points="605.73,-176.29 0,-176.29 0,-102.77 605.73,-102.77 605.73,-176.29"/>
<text text-anchor="start" x="290.12" y="-158.23" font-family="Times,serif" font-weight="bold" font-size="14.00">A**</text>
<text text-anchor="start" x="12.24" y="-146.13" font-family="Times,serif" text-decoration="underline" font-size="12.00">Hinweis:</text>
<text text-anchor="start" x="12.24" y="-134.13" font-family="Times,serif" font-size="12.00">Hinweis: A** wird durch richtigen Code aus dem System des BIKO ersetzt. M&#246;gliche Codes sind:</text>
<text text-anchor="start" x="12.24" y="-122.13" font-family="Times,serif" font-size="12.00">A01Datenstatus &#8222;Abrechnungsdaten&#8220;</text>
<text text-anchor="start" x="12.24" y="-110.13" font-family="Times,serif" font-size="12.00">A04Datenstatus &#8222;Abrechnungsdaten KBKA&#8220;</text>
</g>
<!-- 1&#45;&gt;A** -->
<g id="edge2" class="edge">
<title>1-&gt;A**</title>
<path fill="none" stroke="black" d="M316.74,-318.49C315.05,-304.28 312.71,-283.63 311.12,-265.54 308.84,-239.73 306.9,-210.87 305.47,-187.39"/>
<polygon fill="black" stroke="black" points="308.92,-187.44 304.83,-177.67 301.93,-187.86 308.92,-187.44"/>
<text text-anchor="middle" x="328.74" y="-242.86" font-family="Times,serif" font-size="14.00">Nein</text>
</g>
<!-- 2 -->
<g id="node4" class="node">
<title>2</title>
<path fill="#7aab8a" stroke="black" d="M673.39,-265.54C673.39,-265.54 366.34,-265.54 366.34,-265.54 360.34,-265.54 354.34,-259.54 354.34,-253.54 354.34,-253.54 354.34,-241.54 354.34,-241.54 354.34,-235.54 360.34,-229.54 366.34,-229.54 366.34,-229.54 673.39,-229.54 673.39,-229.54 679.39,-229.54 685.39,-235.54 685.39,-241.54 685.39,-241.54 685.39,-253.54 685.39,-253.54 685.39,-259.54 679.39,-265.54 673.39,-265.54"/>
<text text-anchor="start" x="368.74" y="-243.86" font-family="Times,serif" font-weight="bold" font-size="14.00">2: </text>
<text text-anchor="start" x="388.24" y="-243.86" font-family="Times,serif" font-size="14.00">Liegt der Datenstatus &#8222;Pr&#252;fdaten&#8220; vor?</text>
</g>
<!-- 1&#45;&gt;2 -->
<g id="edge3" class="edge">
<title>1-&gt;2</title>
<path fill="none" stroke="black" d="M359.06,-318.34C390.96,-304.49 435.74,-285.06 469.94,-270.21"/>
<polygon fill="black" stroke="black" points="470.96,-273.15 478.74,-265.96 468.18,-266.73 470.96,-273.15"/>
<text text-anchor="middle" x="444.62" y="-287.49" font-family="Times,serif" font-size="14.00">Ja</text>
</g>
<!-- 2&#45;&gt;A** -->
<g id="edge4" class="edge">
<title>2-&gt;A**</title>
<path fill="none" stroke="black" d="M484.52,-229.27C457.95,-216.29 420.43,-197.97 386.39,-181.33"/>
<polygon fill="black" stroke="black" points="388.41,-177.94 377.89,-176.69 385.34,-184.23 388.41,-177.94"/>
<text text-anchor="middle" x="460.74" y="-198.24" font-family="Times,serif" font-size="14.00">Nein</text>
</g>
<!-- 3 -->
<g id="node5" class="node">
<title>3</title>
<path fill="#7aab8a" stroke="black" d="M1377.51,-157.53C1377.51,-157.53 636.22,-157.53 636.22,-157.53 630.22,-157.53 624.22,-151.53 624.22,-145.53 624.22,-145.53 624.22,-133.53 624.22,-133.53 624.22,-127.53 630.22,-121.53 636.22,-121.53 636.22,-121.53 1377.51,-121.53 1377.51,-121.53 1383.51,-121.53 1389.51,-127.53 1389.51,-133.53 1389.51,-133.53 1389.51,-145.53 1389.51,-145.53 1389.51,-151.53 1383.51,-157.53 1377.51,-157.53"/>
<text text-anchor="start" x="638.62" y="-135.85" font-family="Times,serif" font-weight="bold" font-size="14.00">3: </text>
<text text-anchor="start" x="658.12" y="-135.85" font-family="Times,serif" font-size="14.00">Erfolgt der Eingang der Pr&#252;fmitteilung innerhalb der Clearingphase f&#252;r DZ&#220; der BKA (ohne KBKA)?</text>
</g>
<!-- 2&#45;&gt;3 -->
<g id="edge5" class="edge">
<title>2-&gt;3</title>
<path fill="none" stroke="black" d="M600.01,-229.09C686.89,-210.18 825.25,-180.06 916.08,-160.29"/>
<polygon fill="black" stroke="black" points="916.61,-163.54 925.64,-157.99 915.12,-156.7 916.61,-163.54"/>
<text text-anchor="middle" x="755.62" y="-198.24" font-family="Times,serif" font-size="14.00">Ja</text>
</g>
<!-- A01 -->
<g id="node6" class="node">
<title>A01</title>
<polygon fill="#cfb986" stroke="black" points="988.61,-49.52 763.12,-49.52 763.12,0 988.61,0 988.61,-49.52"/>
<text text-anchor="start" x="860.87" y="-31.46" font-family="Times,serif" font-weight="bold" font-size="14.00">A01</text>
<text text-anchor="start" x="775.37" y="-19.36" font-family="Times,serif" text-decoration="underline" font-size="12.00">Hinweis:</text>
<text text-anchor="start" x="775.37" y="-7.36" font-family="Times,serif" font-size="12.00">Datenstatus &#8222;Abrechnungsdaten&#8220;</text>
</g>
<!-- 3&#45;&gt;A01 -->
<g id="edge6" class="edge">
<title>3-&gt;A01</title>
<path fill="none" stroke="black" d="M986.68,-121.16C966.78,-104.02 935.93,-77.47 911.83,-56.72"/>
<polygon fill="black" stroke="black" points="914.48,-53.52 904.61,-49.65 909.91,-58.82 914.48,-53.52"/>
<text text-anchor="middle" x="948.62" y="-71.47" font-family="Times,serif" font-size="14.00">Ja</text>
</g>
<!-- A04 -->
<g id="node7" class="node">
<title>A04</title>
<polygon fill="#cfb986" stroke="black" points="1271.11,-49.52 1006.62,-49.52 1006.62,0 1271.11,0 1271.11,-49.52"/>
<text text-anchor="start" x="1123.87" y="-31.46" font-family="Times,serif" font-weight="bold" font-size="14.00">A04</text>
<text text-anchor="start" x="1018.87" y="-19.36" font-family="Times,serif" text-decoration="underline" font-size="12.00">Hinweis:</text>
<text text-anchor="start" x="1018.87" y="-7.36" font-family="Times,serif" font-size="12.00">Datenstatus &#8222;Abrechnungsdaten KBKA&#8220;</text>
</g>
<!-- 3&#45;&gt;A04 -->
<g id="edge7" class="edge">
<title>3-&gt;A04</title>
<path fill="none" stroke="black" d="M1027.2,-121.16C1047.25,-104.02 1078.34,-77.47 1102.63,-56.72"/>
<polygon fill="black" stroke="black" points="1104.58,-58.8 1109.91,-49.65 1100.03,-53.48 1104.58,-58.8"/>
<text text-anchor="middle" x="1105.74" y="-71.47" font-family="Times,serif" font-size="14.00">Nein</text>
</g>
</g>
</svg>
  </g>
</svg>
  </g>
</svg>
