<?xml version='1.0' encoding='ASCII' standalone='yes'?>
<svg xmlns="http://www.w3.org/2000/svg" xmlns:xlink="http://www.w3.org/1999/xlink" version="1.1" width="1797.3333333333333px" viewBox="0 0 1797.3333333333333 1100.0" height="1100.0px">
  <g>
    <svg version="1.1" width="1797.3333333333333px" viewBox="0 0 1797.3333333333333 1100.0" height="1100.0px">
  <rect fill="#e7e6e5" x="0" y="0" width="1797.3333333333333" height="1100.0" rx="20" ry="20"/><g>
    <g transform="translate(450.0859851684971, 109.99999999999997) scale(1 1) translate(0, 0) scale(1.5488594762038863 1.5488594762038863) "><!-- note that I manually added the width and height attribute to the root node
  https://chatgpt.com/share/678e3028-70cc-800b-a296-782714735772
  -->
  <defs>
    <style>.cls-1{fill:#fff;}</style>
  </defs>
  <path class="cls-1" d="M122.44,531.2h-56.1c-11,0-19.9-9.12-19.46-20.11C57.47,243.89,278.15,29.78,547.91,29.78v56.02c0,10.98-8.69,19.89-19.66,20.39-225.51,10.31-405.8,197-405.8,425Z"/>
  <path class="cls-1" d="M273.78,531.2h-55.93c-11.23,0-20.09-9.48-19.43-20.69,10.74-183.44,163.39-329.39,349.48-329.39v56.26c0,10.71-8.27,19.62-18.96,20.35-142.35,9.77-255.17,128.69-255.17,273.46Z"/>
  <path class="cls-1" d="M425.77,531.2h-55.45c-11.65,0-20.6-10.17-19.33-21.75,10.87-99.03,95.03-176.34,196.92-176.34v57.01c0,10.05-7.28,18.75-17.23,20.16-59.22,8.4-104.91,59.42-104.91,120.92Z"/>
</g>
    <svg width="1348pt" height="825pt" viewBox="0.00 0.00 1348.43 824.93">
<g id="graph0" class="graph" transform="scale(1 1) rotate(0) translate(4 820.93)">
<title>D</title>
<text text-anchor="start" x="347.71" y="-796.83" font-family="Roboto, sans-serif" font-weight="bold" font-size="18.00">MaBiS</text>
<text text-anchor="start" x="347.71" y="-766.73" font-family="Roboto, sans-serif" font-weight="bold" font-size="16.00">7.55.1: AD: &#220;bermittlung der Lieferantenausfallarbeitssummenzeitreihe</text>
<!-- Start -->
<g id="node1" class="node">
<title>Start</title>
<path fill="#8ba2d7" stroke="black" stroke-width="0" d="M355.8,-718.93C355.8,-718.93 227.25,-718.93 227.25,-718.93 221.25,-718.93 215.25,-712.93 215.25,-706.93 215.25,-706.93 215.25,-687.65 215.25,-687.65 215.25,-681.65 221.25,-675.65 227.25,-675.65 227.25,-675.65 355.8,-675.65 355.8,-675.65 361.8,-675.65 367.8,-681.65 367.8,-687.65 367.8,-687.65 367.8,-706.93 367.8,-706.93 367.8,-712.93 361.8,-718.93 355.8,-718.93"/>
<text text-anchor="start" x="229.65" y="-697.99" font-family="Roboto, sans-serif" font-weight="bold" font-size="14.00">E_0093</text>
<text text-anchor="start" x="229.65" y="-685.89" font-family="Roboto, sans-serif" font-weight="bold" text-decoration="underline" font-size="12.00">Pr&#252;fende Rolle:</text>
<text text-anchor="start" x="333.15" y="-685.89" font-family="Roboto, sans-serif" font-weight="bold" font-size="12.00"> LF</text>
</g>
<!-- 1 -->
<g id="node2" class="node">
<title>1</title>
<path fill="#c2cee9" stroke="black" stroke-width="0" d="M571.05,-638.65C571.05,-638.65 12,-638.65 12,-638.65 6,-638.65 0,-632.65 0,-626.65 0,-626.65 0,-614.65 0,-614.65 0,-608.65 6,-602.65 12,-602.65 12,-602.65 571.05,-602.65 571.05,-602.65 577.05,-602.65 583.05,-608.65 583.05,-614.65 583.05,-614.65 583.05,-626.65 583.05,-626.65 583.05,-632.65 577.05,-638.65 571.05,-638.65"/>
<text text-anchor="start" x="14.4" y="-616.98" font-family="Roboto, sans-serif" font-weight="bold" font-size="14.00">1: </text>
<text text-anchor="start" x="33.9" y="-616.98" font-family="Roboto, sans-serif" font-size="14.00">Erfolgt der Eingang der Zeitreihe nach Ablauf der Clearingfrist f&#252;r die KBKA?</text>
</g>
<!-- Start&#45;&gt;1 -->
<g id="edge1" class="edge">
<title>Start-&gt;1</title>
<path fill="none" stroke="#88a0d6" d="M291.52,-675.89C291.52,-667.82 291.52,-658.41 291.52,-649.72"/>
<polygon fill="#88a0d6" stroke="#88a0d6" points="295.03,-650.01 291.53,-640.01 288.03,-650.01 295.03,-650.01"/>
</g>
<!-- A01 -->
<g id="node3" class="node">
<title>A01</title>
<path fill="#c4cac1" stroke="black" stroke-width="0" d="M152.3,-549.4C152.3,-549.4 32.75,-549.4 32.75,-549.4 26.75,-549.4 20.75,-543.4 20.75,-537.4 20.75,-537.4 20.75,-494.12 20.75,-494.12 20.75,-488.12 26.75,-482.12 32.75,-482.12 32.75,-482.12 152.3,-482.12 152.3,-482.12 158.3,-482.12 164.3,-488.12 164.3,-494.12 164.3,-494.12 164.3,-537.4 164.3,-537.4 164.3,-543.4 158.3,-549.4 152.3,-549.4"/>
<text text-anchor="start" x="35.15" y="-528.46" font-family="Roboto, sans-serif" font-weight="bold" font-size="14.00">A01</text>
<text text-anchor="start" x="35.15" y="-516.36" font-family="Roboto, sans-serif" text-decoration="underline" font-size="12.00">Hinweis:</text>
<text text-anchor="start" x="35.15" y="-504.36" font-family="Roboto, sans-serif" font-size="12.00">Cluster: Abweisung</text>
<text text-anchor="start" x="35.15" y="-492.36" font-family="Roboto, sans-serif" font-size="12.00">Frist&#252;berschreitung</text>
</g>
<!-- 1&#45;&gt;A01 -->
<g id="edge2" class="edge">
<title>1-&gt;A01</title>
<path fill="none" stroke="#88a0d6" d="M258.66,-602.66C233.46,-589.63 197.7,-571.14 165.81,-554.65"/>
<polygon fill="#88a0d6" stroke="#88a0d6" points="167.45,-551.56 156.96,-550.07 164.23,-557.78 167.45,-551.56"/>
<text text-anchor="start" x="220.52" y="-572.35" font-family="Roboto, sans-serif" font-weight="bold" font-size="14.00">JA</text>
</g>
<!-- 2 -->
<g id="node4" class="node">
<title>2</title>
<path fill="#c2cee9" stroke="black" stroke-width="0" d="M651.05,-533.76C651.05,-533.76 194,-533.76 194,-533.76 188,-533.76 182,-527.76 182,-521.76 182,-521.76 182,-509.76 182,-509.76 182,-503.76 188,-497.76 194,-497.76 194,-497.76 651.05,-497.76 651.05,-497.76 657.05,-497.76 663.05,-503.76 663.05,-509.76 663.05,-509.76 663.05,-521.76 663.05,-521.76 663.05,-527.76 657.05,-533.76 651.05,-533.76"/>
<text text-anchor="start" x="196.4" y="-512.09" font-family="Roboto, sans-serif" font-weight="bold" font-size="14.00">2: </text>
<text text-anchor="start" x="215.9" y="-512.09" font-family="Roboto, sans-serif" font-size="14.00">Ist der MaBiS-ZP zum betrachteten Bilanzierungsmonat aktiv?</text>
</g>
<!-- 1&#45;&gt;2 -->
<g id="edge3" class="edge">
<title>1-&gt;2</title>
<path fill="none" stroke="#88a0d6" d="M313.16,-602.66C334.81,-585.65 368.3,-559.35 392.51,-540.33"/>
<polygon fill="#88a0d6" stroke="#88a0d6" points="394.4,-543.3 400.11,-534.37 390.08,-537.79 394.4,-543.3"/>
<text text-anchor="start" x="356.52" y="-572.35" font-family="Roboto, sans-serif" font-weight="bold" font-size="14.00">NEIN</text>
</g>
<!-- A02 -->
<g id="node5" class="node">
<title>A02</title>
<path fill="#c4cac1" stroke="black" stroke-width="0" d="M314.92,-428.87C314.92,-428.87 106.12,-428.87 106.12,-428.87 100.12,-428.87 94.12,-422.87 94.12,-416.87 94.12,-416.87 94.12,-373.59 94.12,-373.59 94.12,-367.59 100.12,-361.59 106.12,-361.59 106.12,-361.59 314.92,-361.59 314.92,-361.59 320.92,-361.59 326.92,-367.59 326.92,-373.59 326.92,-373.59 326.92,-416.87 326.92,-416.87 326.92,-422.87 320.92,-428.87 314.92,-428.87"/>
<text text-anchor="start" x="108.52" y="-407.93" font-family="Roboto, sans-serif" font-weight="bold" font-size="14.00">A02</text>
<text text-anchor="start" x="108.52" y="-395.83" font-family="Roboto, sans-serif" text-decoration="underline" font-size="12.00">Hinweis:</text>
<text text-anchor="start" x="108.52" y="-383.83" font-family="Roboto, sans-serif" font-size="12.00">Cluster: Abweisung</text>
<text text-anchor="start" x="108.52" y="-371.83" font-family="Roboto, sans-serif" font-size="12.00">Gew&#228;hlter Zeitraum nicht zul&#228;ssig</text>
</g>
<!-- 2&#45;&gt;A02 -->
<g id="edge4" class="edge">
<title>2-&gt;A02</title>
<path fill="none" stroke="#88a0d6" d="M392.15,-497.78C362.72,-481.32 317.07,-455.8 278.9,-434.46"/>
<polygon fill="#88a0d6" stroke="#88a0d6" points="280.62,-431.41 270.18,-429.58 277.2,-437.52 280.62,-431.41"/>
<text text-anchor="start" x="328.52" y="-451.82" font-family="Roboto, sans-serif" font-weight="bold" font-size="14.00">NEIN</text>
</g>
<!-- 3 -->
<g id="node6" class="node">
<title>3</title>
<path fill="#c2cee9" stroke="black" stroke-width="0" d="M939.67,-417.87C939.67,-417.87 357.38,-417.87 357.38,-417.87 351.38,-417.87 345.38,-411.87 345.38,-405.87 345.38,-405.87 345.38,-384.59 345.38,-384.59 345.38,-378.59 351.38,-372.59 357.38,-372.59 357.38,-372.59 939.67,-372.59 939.67,-372.59 945.67,-372.59 951.67,-378.59 951.67,-384.59 951.67,-384.59 951.67,-405.87 951.67,-405.87 951.67,-411.87 945.67,-417.87 939.67,-417.87"/>
<text text-anchor="start" x="359.77" y="-396.93" font-family="Roboto, sans-serif" font-weight="bold" font-size="14.00">3: </text>
<text text-anchor="start" x="379.27" y="-396.93" font-family="Roboto, sans-serif" font-size="14.00">Liegt die Version der Zeitreihe des MaBiS-ZP f&#252;r diesen Bilanzierungsmonat und</text>
<text text-anchor="start" x="359.77" y="-382.93" font-family="Roboto, sans-serif" font-size="14.00">MaBiS-ZP bereits vor?</text>
</g>
<!-- 2&#45;&gt;3 -->
<g id="edge5" class="edge">
<title>2-&gt;3</title>
<path fill="none" stroke="#88a0d6" d="M454.91,-497.78C492.08,-478.28 553.55,-446.04 597.25,-423.12"/>
<polygon fill="#88a0d6" stroke="#88a0d6" points="598.82,-426.25 606.05,-418.51 595.57,-420.05 598.82,-426.25"/>
<text text-anchor="start" x="548.52" y="-451.82" font-family="Roboto, sans-serif" font-weight="bold" font-size="14.00">JA</text>
</g>
<!-- A03 -->
<g id="node7" class="node">
<title>A03</title>
<path fill="#c4cac1" stroke="black" stroke-width="0" d="M550.42,-308.34C550.42,-308.34 380.62,-308.34 380.62,-308.34 374.62,-308.34 368.62,-302.34 368.62,-296.34 368.62,-296.34 368.62,-253.06 368.62,-253.06 368.62,-247.06 374.62,-241.06 380.62,-241.06 380.62,-241.06 550.42,-241.06 550.42,-241.06 556.42,-241.06 562.42,-247.06 562.42,-253.06 562.42,-253.06 562.42,-296.34 562.42,-296.34 562.42,-302.34 556.42,-308.34 550.42,-308.34"/>
<text text-anchor="start" x="383.02" y="-287.4" font-family="Roboto, sans-serif" font-weight="bold" font-size="14.00">A03</text>
<text text-anchor="start" x="383.02" y="-275.3" font-family="Roboto, sans-serif" text-decoration="underline" font-size="12.00">Hinweis:</text>
<text text-anchor="start" x="383.02" y="-263.3" font-family="Roboto, sans-serif" font-size="12.00">Cluster: Abweisung</text>
<text text-anchor="start" x="383.02" y="-251.3" font-family="Roboto, sans-serif" font-size="12.00">Zeitreihe bereits vorhanden</text>
</g>
<!-- 3&#45;&gt;A03 -->
<g id="edge6" class="edge">
<title>3-&gt;A03</title>
<path fill="none" stroke="#88a0d6" d="M615.39,-372.77C590.29,-356.51 555.15,-333.75 525.2,-314.35"/>
<polygon fill="#88a0d6" stroke="#88a0d6" points="527.24,-311.5 516.95,-309.01 523.44,-317.38 527.24,-311.5"/>
<text text-anchor="start" x="567.52" y="-331.29" font-family="Roboto, sans-serif" font-weight="bold" font-size="14.00">JA</text>
</g>
<!-- 4 -->
<g id="node8" class="node">
<title>4</title>
<path fill="#c2cee9" stroke="black" stroke-width="0" d="M1208.92,-297.34C1208.92,-297.34 592.12,-297.34 592.12,-297.34 586.12,-297.34 580.12,-291.34 580.12,-285.34 580.12,-285.34 580.12,-264.06 580.12,-264.06 580.12,-258.06 586.12,-252.06 592.12,-252.06 592.12,-252.06 1208.92,-252.06 1208.92,-252.06 1214.92,-252.06 1220.92,-258.06 1220.92,-264.06 1220.92,-264.06 1220.92,-285.34 1220.92,-285.34 1220.92,-291.34 1214.92,-297.34 1208.92,-297.34"/>
<text text-anchor="start" x="594.52" y="-276.4" font-family="Roboto, sans-serif" font-weight="bold" font-size="14.00">4: </text>
<text text-anchor="start" x="614.02" y="-276.4" font-family="Roboto, sans-serif" font-size="14.00">Ist die Version der Zeitreihe des MaBiS-ZP h&#246;her als die bisher h&#246;chste</text>
<text text-anchor="start" x="594.52" y="-262.4" font-family="Roboto, sans-serif" font-size="14.00">verarbeitete Version der Zeitreihe f&#252;r diesen Bilanzierungsmonat und diesen MaBiS-ZP?</text>
</g>
<!-- 3&#45;&gt;4 -->
<g id="edge7" class="edge">
<title>3-&gt;4</title>
<path fill="none" stroke="#88a0d6" d="M694.45,-372.63C736.73,-352.74 799.54,-323.2 844.7,-301.96"/>
<polygon fill="#88a0d6" stroke="#88a0d6" points="845.98,-305.22 853.54,-297.8 843,-298.89 845.98,-305.22"/>
<text text-anchor="start" x="789.52" y="-331.29" font-family="Roboto, sans-serif" font-weight="bold" font-size="14.00">NEIN</text>
</g>
<!-- A04 -->
<g id="node9" class="node">
<title>A04</title>
<path fill="#c4cac1" stroke="black" stroke-width="0" d="M702.42,-187.81C702.42,-187.81 550.62,-187.81 550.62,-187.81 544.62,-187.81 538.62,-181.81 538.62,-175.81 538.62,-175.81 538.62,-132.53 538.62,-132.53 538.62,-126.53 544.62,-120.53 550.62,-120.53 550.62,-120.53 702.42,-120.53 702.42,-120.53 708.42,-120.53 714.42,-126.53 714.42,-132.53 714.42,-132.53 714.42,-175.81 714.42,-175.81 714.42,-181.81 708.42,-187.81 702.42,-187.81"/>
<text text-anchor="start" x="553.02" y="-166.87" font-family="Roboto, sans-serif" font-weight="bold" font-size="14.00">A04</text>
<text text-anchor="start" x="553.02" y="-154.77" font-family="Roboto, sans-serif" text-decoration="underline" font-size="12.00">Hinweis:</text>
<text text-anchor="start" x="553.02" y="-142.77" font-family="Roboto, sans-serif" font-size="12.00">Cluster: Abweisung</text>
<text text-anchor="start" x="553.02" y="-130.77" font-family="Roboto, sans-serif" font-size="12.00">Version nicht zugelassen</text>
</g>
<!-- 4&#45;&gt;A04 -->
<g id="edge8" class="edge">
<title>4-&gt;A04</title>
<path fill="none" stroke="#88a0d6" d="M850.59,-252.1C812.07,-235.43 757.86,-211.99 712.42,-192.33"/>
<polygon fill="#88a0d6" stroke="#88a0d6" points="713.93,-189.17 703.36,-188.41 711.15,-195.59 713.93,-189.17"/>
<text text-anchor="start" x="779.52" y="-210.76" font-family="Roboto, sans-serif" font-weight="bold" font-size="14.00">NEIN</text>
</g>
<!-- 5 -->
<g id="node10" class="node">
<title>5</title>
<path fill="#c2cee9" stroke="black" stroke-width="0" d="M1328.43,-172.17C1328.43,-172.17 744.63,-172.17 744.63,-172.17 738.63,-172.17 732.63,-166.17 732.63,-160.17 732.63,-160.17 732.63,-148.17 732.63,-148.17 732.63,-142.17 738.63,-136.17 744.63,-136.17 744.63,-136.17 1328.43,-136.17 1328.43,-136.17 1334.43,-136.17 1340.43,-142.17 1340.43,-148.17 1340.43,-148.17 1340.43,-160.17 1340.43,-160.17 1340.43,-166.17 1334.43,-172.17 1328.43,-172.17"/>
<text text-anchor="start" x="747.03" y="-150.5" font-family="Roboto, sans-serif" font-weight="bold" font-size="14.00">5: </text>
<text text-anchor="start" x="766.53" y="-150.5" font-family="Roboto, sans-serif" font-size="14.00">Entsprechen die Energiemengen der LF-AASZR den erwarteten Energiemengen?</text>
</g>
<!-- 4&#45;&gt;5 -->
<g id="edge9" class="edge">
<title>4-&gt;5</title>
<path fill="none" stroke="#88a0d6" d="M925.15,-252.24C948.74,-231.68 984.28,-200.7 1008.84,-179.3"/>
<polygon fill="#88a0d6" stroke="#88a0d6" points="1010.97,-182.09 1016.21,-172.88 1006.37,-176.81 1010.97,-182.09"/>
<text text-anchor="start" x="976.52" y="-210.76" font-family="Roboto, sans-serif" font-weight="bold" font-size="14.00">JA</text>
</g>
<!-- A05 -->
<g id="node11" class="node">
<title>A05</title>
<path fill="#c4cac1" stroke="black" stroke-width="0" d="M1040.3,-67.28C1040.3,-67.28 812.75,-67.28 812.75,-67.28 806.75,-67.28 800.75,-61.28 800.75,-55.28 800.75,-55.28 800.75,-12 800.75,-12 800.75,-6 806.75,0 812.75,0 812.75,0 1040.3,0 1040.3,0 1046.3,0 1052.3,-6 1052.3,-12 1052.3,-12 1052.3,-55.28 1052.3,-55.28 1052.3,-61.28 1046.3,-67.28 1040.3,-67.28"/>
<text text-anchor="start" x="815.15" y="-46.34" font-family="Roboto, sans-serif" font-weight="bold" font-size="14.00">A05</text>
<text text-anchor="start" x="815.15" y="-34.24" font-family="Roboto, sans-serif" text-decoration="underline" font-size="12.00">Hinweis:</text>
<text text-anchor="start" x="815.15" y="-22.24" font-family="Roboto, sans-serif" font-size="12.00">Cluster: Ablehnung</text>
<text text-anchor="start" x="815.15" y="-10.24" font-family="Roboto, sans-serif" font-size="12.00">Energiemenge falsch / nicht plausibel</text>
</g>
<!-- 5&#45;&gt;A05 -->
<g id="edge10" class="edge">
<title>5-&gt;A05</title>
<path fill="none" stroke="#88a0d6" d="M1020.76,-136.19C1006.15,-120.43 983.81,-96.36 964.55,-75.61"/>
<polygon fill="#88a0d6" stroke="#88a0d6" points="967.19,-73.31 957.82,-68.36 962.06,-78.07 967.19,-73.31"/>
<text text-anchor="start" x="987.52" y="-90.23" font-family="Roboto, sans-serif" font-weight="bold" font-size="14.00">NEIN</text>
</g>
<!-- A06 -->
<g id="node12" class="node">
<title>A06</title>
<path fill="#c4cac1" stroke="black" stroke-width="0" d="M1211.18,-67.28C1211.18,-67.28 1081.88,-67.28 1081.88,-67.28 1075.88,-67.28 1069.88,-61.28 1069.88,-55.28 1069.88,-55.28 1069.88,-12 1069.88,-12 1069.88,-6 1075.88,0 1081.88,0 1081.88,0 1211.18,0 1211.18,0 1217.18,0 1223.18,-6 1223.18,-12 1223.18,-12 1223.18,-55.28 1223.18,-55.28 1223.18,-61.28 1217.18,-67.28 1211.18,-67.28"/>
<text text-anchor="start" x="1084.28" y="-46.34" font-family="Roboto, sans-serif" font-weight="bold" font-size="14.00">A06</text>
<text text-anchor="start" x="1084.28" y="-34.24" font-family="Roboto, sans-serif" text-decoration="underline" font-size="12.00">Hinweis:</text>
<text text-anchor="start" x="1084.28" y="-22.24" font-family="Roboto, sans-serif" font-size="12.00">Cluster: Zustimmung</text>
<text text-anchor="start" x="1084.28" y="-10.24" font-family="Roboto, sans-serif" font-size="12.00">Zeitreihe akzeptiert</text>
</g>
<!-- 5&#45;&gt;A06 -->
<g id="edge11" class="edge">
<title>5-&gt;A06</title>
<path fill="none" stroke="#88a0d6" d="M1052.29,-136.19C1066.9,-120.43 1089.24,-96.36 1108.5,-75.61"/>
<polygon fill="#88a0d6" stroke="#88a0d6" points="1110.99,-78.07 1115.23,-68.36 1105.86,-73.31 1110.99,-78.07"/>
<text text-anchor="start" x="1097.53" y="-90.23" font-family="Roboto, sans-serif" font-weight="bold" font-size="14.00">JA</text>
</g>
</g>
</svg>
  </g>
</svg>
  </g>
</svg>
