<?xml version='1.0' encoding='ASCII' standalone='yes'?>
<svg xmlns="http://www.w3.org/2000/svg" xmlns:xlink="http://www.w3.org/1999/xlink" version="1.1" width="1510.6666666666667px" viewBox="0 0 1510.6666666666667 441.3333333333333" height="441.3333333333333px">
  <g>
    <svg version="1.1" width="1510.6666666666667px" viewBox="0 0 1510.6666666666667 441.3333333333333" height="441.3333333333333px">
  <rect fill="#e7e6e5" x="0" y="0" width="1510.6666666666667" height="441.3333333333333" rx="20" ry="20"/><g>
    <g transform="translate(575.3573265746738, 44.13333333333332) scale(1 1) translate(0, 0) scale(0.6214211959072562 0.6214211959072562) "><!-- note that I manually added the width and height attribute to the root node
  https://chatgpt.com/share/678e3028-70cc-800b-a296-782714735772
  -->
  <defs>
    <style>.cls-1{fill:#fff;}</style>
  </defs>
  <path class="cls-1" d="M122.44,531.2h-56.1c-11,0-19.9-9.12-19.46-20.11C57.47,243.89,278.15,29.78,547.91,29.78v56.02c0,10.98-8.69,19.89-19.66,20.39-225.51,10.31-405.8,197-405.8,425Z"/>
  <path class="cls-1" d="M273.78,531.2h-55.93c-11.23,0-20.09-9.48-19.43-20.69,10.74-183.44,163.39-329.39,349.48-329.39v56.26c0,10.71-8.27,19.62-18.96,20.35-142.35,9.77-255.17,128.69-255.17,273.46Z"/>
  <path class="cls-1" d="M425.77,531.2h-55.45c-11.65,0-20.6-10.17-19.33-21.75,10.87-99.03,95.03-176.34,196.92-176.34v57.01c0,10.05-7.28,18.75-17.23,20.16-59.22,8.4-104.91,59.42-104.91,120.92Z"/>
</g>
    <svg width="1133pt" height="331pt" viewBox="0.00 0.00 1132.50 330.81">
<g id="graph0" class="graph" transform="scale(1 1) rotate(0) translate(4 326.81)">
<title>D</title>
<text text-anchor="start" x="8" y="-302.71" font-family="Roboto, sans-serif" font-weight="bold" font-size="18.00">MaBiS</text>
<text text-anchor="start" x="8" y="-272.61" font-family="Roboto, sans-serif" font-weight="bold" font-size="16.00">7.63.2: AD: &#220;bermittlung Pr&#252;fmitteilung f&#252;r die monatliche Ausfallarbeits&#252;berf&#252;hrungszeitreihe (AA&#220;Z) vom BKV(LF) an NB</text>
<!-- Start -->
<g id="node1" class="node">
<title>Start</title>
<path fill="#8ba2d7" stroke="black" stroke-width="0" d="M635.15,-224.81C635.15,-224.81 489.35,-224.81 489.35,-224.81 483.35,-224.81 477.35,-218.81 477.35,-212.81 477.35,-212.81 477.35,-193.53 477.35,-193.53 477.35,-187.53 483.35,-181.53 489.35,-181.53 489.35,-181.53 635.15,-181.53 635.15,-181.53 641.15,-181.53 647.15,-187.53 647.15,-193.53 647.15,-193.53 647.15,-212.81 647.15,-212.81 647.15,-218.81 641.15,-224.81 635.15,-224.81"/>
<text text-anchor="start" x="491.75" y="-203.87" font-family="Roboto, sans-serif" font-weight="bold" font-size="14.00">E_0074</text>
<text text-anchor="start" x="491.75" y="-191.77" font-family="Roboto, sans-serif" font-weight="bold" text-decoration="underline" font-size="12.00">Pr&#252;fende Rolle:</text>
<text text-anchor="start" x="595.25" y="-191.77" font-family="Roboto, sans-serif" font-weight="bold" font-size="12.00"> BIKO</text>
</g>
<!-- 1 -->
<g id="node2" class="node">
<title>1</title>
<path fill="#c2cee9" stroke="black" stroke-width="0" d="M860.52,-144.53C860.52,-144.53 263.98,-144.53 263.98,-144.53 257.98,-144.53 251.98,-138.53 251.98,-132.53 251.98,-132.53 251.98,-120.53 251.98,-120.53 251.98,-114.53 257.98,-108.53 263.98,-108.53 263.98,-108.53 860.52,-108.53 860.52,-108.53 866.52,-108.53 872.52,-114.53 872.52,-120.53 872.52,-120.53 872.52,-132.53 872.52,-132.53 872.52,-138.53 866.52,-144.53 860.52,-144.53"/>
<text text-anchor="start" x="266.38" y="-122.86" font-family="Roboto, sans-serif" font-weight="bold" font-size="14.00">1: </text>
<text text-anchor="start" x="285.88" y="-122.86" font-family="Roboto, sans-serif" font-size="14.00">Erfolgt der Eingang der Pr&#252;fmitteilung nach Ablauf der Clearingfrist f&#252;r die KBKA?</text>
</g>
<!-- Start&#45;&gt;1 -->
<g id="edge1" class="edge">
<title>Start-&gt;1</title>
<path fill="none" stroke="#88a0d6" d="M562.25,-181.77C562.25,-173.7 562.25,-164.29 562.25,-155.6"/>
<polygon fill="#88a0d6" stroke="#88a0d6" points="565.75,-155.89 562.25,-145.89 558.75,-155.89 565.75,-155.89"/>
</g>
<!-- A01 -->
<g id="node3" class="node">
<title>A01</title>
<path fill="#c4cac1" stroke="black" stroke-width="0" d="M561.02,-55.28C561.02,-55.28 441.48,-55.28 441.48,-55.28 435.48,-55.28 429.48,-49.28 429.48,-43.28 429.48,-43.28 429.48,-12 429.48,-12 429.48,-6 435.48,0 441.48,0 441.48,0 561.02,0 561.02,0 567.02,0 573.02,-6 573.02,-12 573.02,-12 573.02,-43.28 573.02,-43.28 573.02,-49.28 567.02,-55.28 561.02,-55.28"/>
<text text-anchor="start" x="443.88" y="-34.34" font-family="Roboto, sans-serif" font-weight="bold" font-size="14.00">A01</text>
<text text-anchor="start" x="443.88" y="-22.24" font-family="Roboto, sans-serif" text-decoration="underline" font-size="12.00">Hinweis:</text>
<text text-anchor="start" x="443.88" y="-10.24" font-family="Roboto, sans-serif" font-size="12.00">Frist&#252;berschreitung</text>
</g>
<!-- 1&#45;&gt;A01 -->
<g id="edge2" class="edge">
<title>1-&gt;A01</title>
<path fill="none" stroke="#88a0d6" d="M551.62,-108.65C544.01,-96.56 533.46,-79.81 523.99,-64.76"/>
<polygon fill="#88a0d6" stroke="#88a0d6" points="527.05,-63.06 518.77,-56.46 521.13,-66.79 527.05,-63.06"/>
<text text-anchor="start" x="538.25" y="-78.23" font-family="Roboto, sans-serif" font-weight="bold" font-size="14.00">JA</text>
</g>
<!-- Ende -->
<g id="node4" class="node">
<title>Ende</title>
<path fill="#8ba2d7" stroke="black" stroke-width="0" d="M643.27,-45.64C643.27,-45.64 603.23,-45.64 603.23,-45.64 597.23,-45.64 591.23,-39.64 591.23,-33.64 591.23,-33.64 591.23,-21.64 591.23,-21.64 591.23,-15.64 597.23,-9.64 603.23,-9.64 603.23,-9.64 643.27,-9.64 643.27,-9.64 649.27,-9.64 655.27,-15.64 655.27,-21.64 655.27,-21.64 655.27,-33.64 655.27,-33.64 655.27,-39.64 649.27,-45.64 643.27,-45.64"/>
<text text-anchor="middle" x="623.25" y="-22.96" font-family="Roboto, sans-serif" font-size="14.00">Ende</text>
</g>
<!-- 1&#45;&gt;Ende -->
<g id="edge3" class="edge">
<title>1-&gt;Ende</title>
<path fill="none" stroke="#88a0d6" d="M572.88,-108.65C582.23,-93.79 596.02,-71.9 606.8,-54.77"/>
<polygon fill="#88a0d6" stroke="#88a0d6" points="609.57,-56.93 611.94,-46.6 603.65,-53.2 609.57,-56.93"/>
<text text-anchor="start" x="594.25" y="-78.23" font-family="Roboto, sans-serif" font-weight="bold" font-size="14.00">NEIN</text>
</g>
</g>
</svg>
  </g>
</svg>
  </g>
</svg>
