<?xml version='1.0' encoding='ASCII' standalone='yes'?>
<svg xmlns="http://www.w3.org/2000/svg" xmlns:xlink="http://www.w3.org/1999/xlink" version="1.1" width="1536.0px" viewBox="0 0 1536.0 1920.0" height="1920.0px">
  <g>
    <svg version="1.1" width="1536.0px" viewBox="0 0 1536.0 1920.0" height="1920.0px">
  <polygon fill="#f3f1f6" points="0,0 1536.0,0 1536.0,1920.0 0,1920.0"/><g>
    <g transform="translate(153.59999999999997, 345.1439209534278) scale(1 1) translate(0, 0) scale(6.95189462041145 6.95189462041145) "><sodipodi:namedview xmlns:sodipodi="http://sodipodi.sourceforge.net/DTD/sodipodi-0.dtd" xmlns:inkscape="http://www.inkscape.org/namespaces/inkscape" id="namedview7" pagecolor="#ffffff" bordercolor="#999999" borderopacity="1" inkscape:pageshadow="0" inkscape:pageopacity="0" inkscape:pagecheckerboard="0" inkscape:document-units="mm" showgrid="false" fit-margin-top="0" fit-margin-left="0" fit-margin-right="0" fit-margin-bottom="0" inkscape:zoom="0.64052329" inkscape:cx="130.36216" inkscape:cy="412.163" inkscape:window-width="1512" inkscape:window-height="916" inkscape:window-x="3840" inkscape:window-y="136" inkscape:window-maximized="0" inkscape:current-layer="layer1"/>
  <defs id="defs2">
    <clipPath clipPathUnits="userSpaceOnUse" id="clipPath23">
      <path d="M 0,568.156 H 579.236 V 0 H 0 Z" id="path21"/>
    </clipPath>
  </defs>
  <g xmlns:inkscape="http://www.inkscape.org/namespaces/inkscape" inkscape:label="Layer 1" inkscape:groupmode="layer" id="layer1" transform="translate(-16.541937,-55.305267)">
    <g id="g19" clip-path="url(#clipPath23)" transform="matrix(0.35277777,0,0,-0.35277777,0.01017023,243.73675)" style="opacity:0.2">
      <g id="g25" transform="translate(122.444,32.7195)">
        <path d="m 0,0 h -56.104 c -11,0 -19.898,9.123 -19.463,20.115 10.594,267.191 231.277,481.302 501.029,481.302 v -56.02 c 0,-10.98 -8.688,-19.892 -19.658,-20.393 C 180.29,414.697 0,228.005 0,0" style="fill:#6ead83;fill-opacity:0.5;fill-rule:nonzero;stroke:none" id="path27"/>
      </g>
      <g id="g29" transform="translate(273.7828,32.7195)">
        <path d="m 0,0 h -55.926 c -11.228,0 -20.091,9.482 -19.435,20.69 10.744,183.439 163.389,329.388 349.485,329.388 v -56.263 c 0,-10.709 -8.273,-19.617 -18.957,-20.35 C 112.819,263.696 0,144.774 0,0" style="fill:#6ead83;fill-opacity:0.5;fill-rule:nonzero;stroke:none" id="path31"/>
      </g>
      <g id="g33" transform="translate(425.7667,32.7195)">
        <path d="m 0,0 h -55.445 c -11.653,0 -20.604,10.17 -19.334,21.753 10.866,99.032 95.031,176.341 196.919,176.341 v -57.011 c 0,-10.046 -7.283,-18.755 -17.229,-20.165 C 45.688,112.522 0,61.497 0,0" style="fill:#6ead83;fill-opacity:0.5;fill-rule:nonzero;stroke:none" id="path35"/>
      </g>
    </g>
  </g>
</g>
    <svg width="1152pt" height="1440pt" viewBox="0.00 0.00 1151.86 1440.00">
<g id="graph0" class="graph" transform="scale(0.81045 0.81045) rotate(0) translate(4 1772.79)">
<title>D</title>
<text text-anchor="start" x="673.26" y="-1748.69" font-family="Times,serif" font-weight="bold" font-size="18.00">MaBiS</text>
<text text-anchor="start" x="288.88" y="-1718.59" font-family="Times,serif" font-weight="bold" font-size="16.00">7.14.2: AD: Austausch der Lieferantenclearingliste zwischen NB und LF (Einzelanforderung)</text>
<!-- Start -->
<g id="node1" class="node">
<title>Start</title>
<polygon fill="#7a8da1" stroke="black" points="443.39,-1670.79 288.59,-1670.79 288.59,-1627.51 443.39,-1627.51 443.39,-1670.79"/>
<text text-anchor="start" x="337.87" y="-1649.85" font-family="Times,serif" font-weight="bold" font-size="14.00">E_0047</text>
<text text-anchor="start" x="302.99" y="-1637.75" font-family="Times,serif" font-weight="bold" text-decoration="underline" font-size="12.00">Pr&#252;fende Rolle:</text>
<text text-anchor="start" x="407.99" y="-1637.75" font-family="Times,serif" font-weight="bold" font-size="12.00"> LF</text>
</g>
<!-- 1 -->
<g id="node2" class="node">
<title>1</title>
<path fill="#7aab8a" stroke="black" d="M599.76,-1590.51C599.76,-1590.51 132.22,-1590.51 132.22,-1590.51 126.22,-1590.51 120.22,-1584.51 120.22,-1578.51 120.22,-1578.51 120.22,-1566.51 120.22,-1566.51 120.22,-1560.51 126.22,-1554.51 132.22,-1554.51 132.22,-1554.51 599.76,-1554.51 599.76,-1554.51 605.76,-1554.51 611.76,-1560.51 611.76,-1566.51 611.76,-1566.51 611.76,-1578.51 611.76,-1578.51 611.76,-1584.51 605.76,-1590.51 599.76,-1590.51"/>
<text text-anchor="start" x="134.62" y="-1568.83" font-family="Times,serif" font-weight="bold" font-size="14.00">1: </text>
<text text-anchor="start" x="154.12" y="-1568.83" font-family="Times,serif" font-size="14.00">Entspricht die G&#252;ltigkeit (Monat) dem angefragten Zeitraum?</text>
</g>
<!-- Start&#45;&gt;1 -->
<g id="edge1" class="edge">
<title>Start-&gt;1</title>
<path fill="none" stroke="black" d="M365.99,-1627.36C365.99,-1619.5 365.99,-1610.42 365.99,-1601.98"/>
<polygon fill="black" stroke="black" points="369.49,-1602.18 365.99,-1592.18 362.49,-1602.18 369.49,-1602.18"/>
</g>
<!-- A01 -->
<g id="node3" class="node">
<title>A01</title>
<polygon fill="#cfb986" stroke="black" points="341.23,-1501.26 82.75,-1501.26 82.75,-1439.74 341.23,-1439.74 341.23,-1501.26"/>
<text text-anchor="start" x="196.99" y="-1483.2" font-family="Times,serif" font-weight="bold" font-size="14.00">A01</text>
<text text-anchor="start" x="94.99" y="-1471.1" font-family="Times,serif" text-decoration="underline" font-size="12.00">Hinweis:</text>
<text text-anchor="start" x="94.99" y="-1459.1" font-family="Times,serif" font-size="12.00">Cluster: Ablehnung der gesamten Liste</text>
<text text-anchor="start" x="94.99" y="-1447.1" font-family="Times,serif" font-size="12.00">Zeitraum nicht plausibel</text>
</g>
<!-- 1&#45;&gt;A01 -->
<g id="edge2" class="edge">
<title>1-&gt;A01</title>
<path fill="none" stroke="black" d="M339.17,-1554.09C319.54,-1541.34 292.21,-1523.59 267.91,-1507.81"/>
<polygon fill="black" stroke="black" points="269.98,-1504.99 259.69,-1502.47 266.17,-1510.86 269.98,-1504.99"/>
<text text-anchor="middle" x="327.87" y="-1523.21" font-family="Times,serif" font-size="14.00">Nein</text>
</g>
<!-- 2 -->
<g id="node4" class="node">
<title>2</title>
<path fill="#7aab8a" stroke="black" d="M785.14,-1488.5C785.14,-1488.5 370.84,-1488.5 370.84,-1488.5 364.84,-1488.5 358.84,-1482.5 358.84,-1476.5 358.84,-1476.5 358.84,-1464.5 358.84,-1464.5 358.84,-1458.5 364.84,-1452.5 370.84,-1452.5 370.84,-1452.5 785.14,-1452.5 785.14,-1452.5 791.14,-1452.5 797.14,-1458.5 797.14,-1464.5 797.14,-1464.5 797.14,-1476.5 797.14,-1476.5 797.14,-1482.5 791.14,-1488.5 785.14,-1488.5"/>
<text text-anchor="start" x="373.24" y="-1466.82" font-family="Times,serif" font-weight="bold" font-size="14.00">2: </text>
<text text-anchor="start" x="392.74" y="-1466.82" font-family="Times,serif" font-size="14.00">Entspricht der MaBiS-ZP dem angefragten MaBiS-ZP?</text>
</g>
<!-- 1&#45;&gt;2 -->
<g id="edge3" class="edge">
<title>1-&gt;2</title>
<path fill="none" stroke="black" d="M402.92,-1554.09C438.53,-1537.29 492.56,-1511.8 531.17,-1493.59"/>
<polygon fill="black" stroke="black" points="532.21,-1496.97 539.76,-1489.53 529.22,-1490.64 532.21,-1496.97"/>
<text text-anchor="middle" x="478.74" y="-1523.21" font-family="Times,serif" font-size="14.00">Ja</text>
</g>
<!-- A02 -->
<g id="node5" class="node">
<title>A02</title>
<polygon fill="#cfb986" stroke="black" points="355.98,-1386.49 0,-1386.49 0,-1324.97 355.98,-1324.97 355.98,-1386.49"/>
<text text-anchor="start" x="162.99" y="-1368.43" font-family="Times,serif" font-weight="bold" font-size="14.00">A02</text>
<text text-anchor="start" x="12.24" y="-1356.33" font-family="Times,serif" text-decoration="underline" font-size="12.00">Hinweis:</text>
<text text-anchor="start" x="12.24" y="-1344.33" font-family="Times,serif" font-size="12.00">Cluster: Ablehnung der gesamten Liste</text>
<text text-anchor="start" x="12.24" y="-1332.33" font-family="Times,serif" font-size="12.00">MaBiS-ZP entspricht nicht dem angefragten MaBiS-ZP</text>
</g>
<!-- 2&#45;&gt;A02 -->
<g id="edge4" class="edge">
<title>2-&gt;A02</title>
<path fill="none" stroke="black" d="M515.93,-1452C457.38,-1435.5 368.09,-1410.32 295.99,-1390"/>
<polygon fill="black" stroke="black" points="297.06,-1386.66 286.48,-1387.32 295.16,-1393.4 297.06,-1386.66"/>
<text text-anchor="middle" x="417.87" y="-1408.44" font-family="Times,serif" font-size="14.00">Nein</text>
</g>
<!-- 3 -->
<g id="node6" class="node">
<title>3</title>
<path fill="#7aab8a" stroke="black" d="M953.64,-1378.37C953.64,-1378.37 386.34,-1378.37 386.34,-1378.37 380.34,-1378.37 374.34,-1372.37 374.34,-1366.37 374.34,-1366.37 374.34,-1345.09 374.34,-1345.09 374.34,-1339.09 380.34,-1333.09 386.34,-1333.09 386.34,-1333.09 953.64,-1333.09 953.64,-1333.09 959.64,-1333.09 965.64,-1339.09 965.64,-1345.09 965.64,-1345.09 965.64,-1366.37 965.64,-1366.37 965.64,-1372.37 959.64,-1378.37 953.64,-1378.37"/>
<text text-anchor="start" x="388.74" y="-1357.43" font-family="Times,serif" font-weight="bold" font-size="14.00">3: </text>
<text text-anchor="start" x="408.24" y="-1357.43" font-family="Times,serif" font-size="14.00">Entspricht die Versionsangabe in der LF-CL der Versionsangabe der LF-SZR</text>
<text text-anchor="start" x="388.74" y="-1343.43" font-family="Times,serif" font-size="14.00">(Kategorie A), zu der eine LF-CL angefordert wurde?</text>
</g>
<!-- 2&#45;&gt;3 -->
<g id="edge5" class="edge">
<title>2-&gt;3</title>
<path fill="none" stroke="black" d="M591.96,-1452.37C605.97,-1435.2 627.86,-1408.37 644.89,-1387.5"/>
<polygon fill="black" stroke="black" points="647.52,-1389.81 651.13,-1379.85 642.1,-1385.38 647.52,-1389.81"/>
<text text-anchor="middle" x="635.74" y="-1408.44" font-family="Times,serif" font-size="14.00">Ja</text>
</g>
<!-- A03 -->
<g id="node7" class="node">
<title>A03</title>
<polygon fill="#cfb986" stroke="black" points="417.11,-1271.72 154.88,-1271.72 154.88,-1210.2 417.11,-1210.2 417.11,-1271.72"/>
<text text-anchor="start" x="270.99" y="-1253.66" font-family="Times,serif" font-weight="bold" font-size="14.00">A03</text>
<text text-anchor="start" x="167.12" y="-1241.56" font-family="Times,serif" text-decoration="underline" font-size="12.00">Hinweis:</text>
<text text-anchor="start" x="167.12" y="-1229.56" font-family="Times,serif" font-size="12.00">Cluster: Ablehnung der gesamten Liste </text>
<text text-anchor="start" x="167.12" y="-1217.56" font-family="Times,serif" font-size="12.00">Version nicht zugelassen</text>
</g>
<!-- 3&#45;&gt;A03 -->
<g id="edge6" class="edge">
<title>3-&gt;A03</title>
<path fill="none" stroke="black" d="M595.04,-1332.72C539.43,-1316.39 462.65,-1293.84 399.53,-1275.3"/>
<polygon fill="black" stroke="black" points="400.75,-1272.01 390.17,-1272.55 398.78,-1278.73 400.75,-1272.01"/>
<text text-anchor="middle" x="516.87" y="-1293.67" font-family="Times,serif" font-size="14.00">Nein</text>
</g>
<!-- 4 -->
<g id="node8" class="node">
<title>4</title>
<path fill="#7aab8a" stroke="black" d="M918.64,-1258.96C918.64,-1258.96 447.34,-1258.96 447.34,-1258.96 441.34,-1258.96 435.34,-1252.96 435.34,-1246.96 435.34,-1246.96 435.34,-1234.96 435.34,-1234.96 435.34,-1228.96 441.34,-1222.96 447.34,-1222.96 447.34,-1222.96 918.64,-1222.96 918.64,-1222.96 924.64,-1222.96 930.64,-1228.96 930.64,-1234.96 930.64,-1234.96 930.64,-1246.96 930.64,-1246.96 930.64,-1252.96 924.64,-1258.96 918.64,-1258.96"/>
<text text-anchor="start" x="449.74" y="-1237.28" font-family="Times,serif" font-weight="bold" font-size="14.00">4: </text>
<text text-anchor="start" x="469.24" y="-1237.28" font-family="Times,serif" font-size="14.00">Ist eine erwartete Marktlokation in der LF-CL nicht enthalten?</text>
</g>
<!-- 3&#45;&gt;4 -->
<g id="edge7" class="edge">
<title>3-&gt;4</title>
<path fill="none" stroke="black" d="M672.53,-1332.72C674.57,-1314.97 677.47,-1289.87 679.69,-1270.56"/>
<polygon fill="black" stroke="black" points="683.17,-1270.96 680.84,-1260.63 676.22,-1270.16 683.17,-1270.96"/>
<text text-anchor="middle" x="683.74" y="-1293.67" font-family="Times,serif" font-size="14.00">Ja</text>
</g>
<!-- A04 -->
<g id="node9" class="node">
<title>A04</title>
<polygon fill="#cfb986" stroke="black" points="359.61,-1156.95 16.38,-1156.95 16.38,-1095.43 359.61,-1095.43 359.61,-1156.95"/>
<text text-anchor="start" x="172.99" y="-1138.89" font-family="Times,serif" font-weight="bold" font-size="14.00">A04</text>
<text text-anchor="start" x="28.62" y="-1126.79" font-family="Times,serif" text-decoration="underline" font-size="12.00">Hinweis:</text>
<text text-anchor="start" x="28.62" y="-1114.79" font-family="Times,serif" font-size="12.00">Cluster: Korrekturliste wegen Ablehnung</text>
<text text-anchor="start" x="28.62" y="-1102.79" font-family="Times,serif" font-size="12.00">Zus&#228;tzlicher Datensatz bzw. erg&#228;nzte Markt-lokation</text>
</g>
<!-- 4&#45;&gt;A04 -->
<g id="edge8" class="edge">
<title>4-&gt;A04</title>
<path fill="none" stroke="black" d="M606.19,-1222.46C533.07,-1205.81 421.19,-1180.32 331.54,-1159.89"/>
<polygon fill="black" stroke="black" points="332.45,-1156.51 321.92,-1157.7 330.9,-1163.34 332.45,-1156.51"/>
<text text-anchor="middle" x="471.74" y="-1178.9" font-family="Times,serif" font-size="14.00">Ja</text>
</g>
<!-- 5 -->
<g id="node10" class="node">
<title>5</title>
<path fill="#7aab8a" stroke="black" d="M997.89,-1148.83C997.89,-1148.83 390.09,-1148.83 390.09,-1148.83 384.09,-1148.83 378.09,-1142.83 378.09,-1136.83 378.09,-1136.83 378.09,-1115.55 378.09,-1115.55 378.09,-1109.55 384.09,-1103.55 390.09,-1103.55 390.09,-1103.55 997.89,-1103.55 997.89,-1103.55 1003.89,-1103.55 1009.89,-1109.55 1009.89,-1115.55 1009.89,-1115.55 1009.89,-1136.83 1009.89,-1136.83 1009.89,-1142.83 1003.89,-1148.83 997.89,-1148.83"/>
<text text-anchor="start" x="392.49" y="-1127.89" font-family="Times,serif" font-weight="bold" font-size="14.00">5: </text>
<text text-anchor="start" x="411.99" y="-1127.89" font-family="Times,serif" font-size="14.00">Ist in der LF-CL eine Marktlokation enthalten, die im Bilanzierungsmonat dem LF</text>
<text text-anchor="start" x="392.49" y="-1113.89" font-family="Times,serif" font-size="14.00">zur Bilanzierung nicht zugeordnet ist?</text>
</g>
<!-- 4&#45;&gt;5 -->
<g id="edge9" class="edge">
<title>4-&gt;5</title>
<path fill="none" stroke="black" d="M684.66,-1222.83C686.27,-1206.35 688.74,-1180.98 690.74,-1160.52"/>
<polygon fill="black" stroke="black" points="694.22,-1160.93 691.7,-1150.64 687.25,-1160.25 694.22,-1160.93"/>
<text text-anchor="middle" x="705.87" y="-1178.9" font-family="Times,serif" font-size="14.00">Nein</text>
</g>
<!-- A05 -->
<g id="node11" class="node">
<title>A05</title>
<polygon fill="#cfb986" stroke="black" points="420.98,-1042.18 149,-1042.18 149,-980.66 420.98,-980.66 420.98,-1042.18"/>
<text text-anchor="start" x="269.99" y="-1024.12" font-family="Times,serif" font-weight="bold" font-size="14.00">A05</text>
<text text-anchor="start" x="161.24" y="-1012.02" font-family="Times,serif" text-decoration="underline" font-size="12.00">Hinweis:</text>
<text text-anchor="start" x="161.24" y="-1000.02" font-family="Times,serif" font-size="12.00">Cluster: Korrekturliste wegen Ablehnung</text>
<text text-anchor="start" x="161.24" y="-988.02" font-family="Times,serif" font-size="12.00">Marktlokation falschem LF zugeordnet</text>
</g>
<!-- 5&#45;&gt;A05 -->
<g id="edge10" class="edge">
<title>5-&gt;A05</title>
<path fill="none" stroke="black" d="M614.16,-1103.18C554.81,-1086.82 472.81,-1064.21 405.5,-1045.65"/>
<polygon fill="black" stroke="black" points="406.43,-1042.27 395.86,-1042.99 404.57,-1049.02 406.43,-1042.27"/>
<text text-anchor="middle" x="519.74" y="-1064.13" font-family="Times,serif" font-size="14.00">Ja</text>
</g>
<!-- 6 -->
<g id="node12" class="node">
<title>6</title>
<path fill="#7aab8a" stroke="black" d="M1003.14,-1029.42C1003.14,-1029.42 450.84,-1029.42 450.84,-1029.42 444.84,-1029.42 438.84,-1023.42 438.84,-1017.42 438.84,-1017.42 438.84,-1005.42 438.84,-1005.42 438.84,-999.42 444.84,-993.42 450.84,-993.42 450.84,-993.42 1003.14,-993.42 1003.14,-993.42 1009.14,-993.42 1015.14,-999.42 1015.14,-1005.42 1015.14,-1005.42 1015.14,-1017.42 1015.14,-1017.42 1015.14,-1023.42 1009.14,-1029.42 1003.14,-1029.42"/>
<text text-anchor="start" x="453.24" y="-1007.74" font-family="Times,serif" font-weight="bold" font-size="14.00">6: </text>
<text text-anchor="start" x="472.74" y="-1007.74" font-family="Times,serif" font-size="14.00">Ist die in der LF-CL enthaltene Marktlokation dem MaBiS-ZP zugeordnet?</text>
</g>
<!-- 5&#45;&gt;6 -->
<g id="edge11" class="edge">
<title>5-&gt;6</title>
<path fill="none" stroke="black" d="M700.43,-1103.18C705.67,-1085.26 713.11,-1059.85 718.78,-1040.47"/>
<polygon fill="black" stroke="black" points="722.09,-1041.62 721.54,-1031.04 715.37,-1039.65 722.09,-1041.62"/>
<text text-anchor="middle" x="728.87" y="-1064.13" font-family="Times,serif" font-size="14.00">Nein</text>
</g>
<!-- A06 -->
<g id="node13" class="node">
<title>A06</title>
<polygon fill="#cfb986" stroke="black" points="430.98,-927.41 33,-927.41 33,-865.89 430.98,-865.89 430.98,-927.41"/>
<text text-anchor="start" x="216.99" y="-909.35" font-family="Times,serif" font-weight="bold" font-size="14.00">A06</text>
<text text-anchor="start" x="45.24" y="-897.25" font-family="Times,serif" text-decoration="underline" font-size="12.00">Hinweis:</text>
<text text-anchor="start" x="45.24" y="-885.25" font-family="Times,serif" font-size="12.00">Cluster: Korrekturliste wegen Ablehnung</text>
<text text-anchor="start" x="45.24" y="-873.25" font-family="Times,serif" font-size="12.00">Zu viele Marktlokationen enthalten / entfallene Marktlokation</text>
</g>
<!-- 6&#45;&gt;A06 -->
<g id="edge12" class="edge">
<title>6-&gt;A06</title>
<path fill="none" stroke="black" d="M650.19,-992.92C577.07,-976.27 465.19,-950.78 375.54,-930.35"/>
<polygon fill="black" stroke="black" points="376.45,-926.97 365.92,-928.16 374.9,-933.8 376.45,-926.97"/>
<text text-anchor="middle" x="525.87" y="-949.36" font-family="Times,serif" font-size="14.00">Nein</text>
</g>
<!-- 7 -->
<g id="node14" class="node">
<title>7</title>
<path fill="#7aab8a" stroke="black" d="M1041.39,-919.29C1041.39,-919.29 460.59,-919.29 460.59,-919.29 454.59,-919.29 448.59,-913.29 448.59,-907.29 448.59,-907.29 448.59,-886.01 448.59,-886.01 448.59,-880.01 454.59,-874.01 460.59,-874.01 460.59,-874.01 1041.39,-874.01 1041.39,-874.01 1047.39,-874.01 1053.39,-880.01 1053.39,-886.01 1053.39,-886.01 1053.39,-907.29 1053.39,-907.29 1053.39,-913.29 1047.39,-919.29 1041.39,-919.29"/>
<text text-anchor="start" x="462.99" y="-898.35" font-family="Times,serif" font-weight="bold" font-size="14.00">7: </text>
<text text-anchor="start" x="482.49" y="-898.35" font-family="Times,serif" font-size="14.00">Entspricht das Bilanzierungsgebiet dem zwischen NB und LF ausgetauschten</text>
<text text-anchor="start" x="462.99" y="-884.35" font-family="Times,serif" font-size="14.00">Bilanzierungsgebiet?</text>
</g>
<!-- 6&#45;&gt;7 -->
<g id="edge13" class="edge">
<title>6-&gt;7</title>
<path fill="none" stroke="black" d="M730.64,-993.29C734.16,-976.73 739.59,-951.21 743.96,-930.69"/>
<polygon fill="black" stroke="black" points="747.35,-931.58 746,-921.07 740.5,-930.13 747.35,-931.58"/>
<text text-anchor="middle" x="746.74" y="-949.36" font-family="Times,serif" font-size="14.00">Ja</text>
</g>
<!-- A07 -->
<g id="node15" class="node">
<title>A07</title>
<polygon fill="#cfb986" stroke="black" points="1021.11,-61.52 722.88,-61.52 722.88,0 1021.11,0 1021.11,-61.52"/>
<text text-anchor="start" x="856.99" y="-43.46" font-family="Times,serif" font-weight="bold" font-size="14.00">A07</text>
<text text-anchor="start" x="735.12" y="-31.36" font-family="Times,serif" text-decoration="underline" font-size="12.00">Hinweis:</text>
<text text-anchor="start" x="735.12" y="-19.36" font-family="Times,serif" font-size="12.00">Cluster: Korrekturliste wegen Ablehnung</text>
<text text-anchor="start" x="735.12" y="-7.36" font-family="Times,serif" font-size="12.00">Bilanzierungsrel. Daten nicht korrekt / fehlen</text>
</g>
<!-- 7&#45;&gt;A07 -->
<g id="edge14" class="edge">
<title>7-&gt;A07</title>
<path fill="none" stroke="black" d="M596.29,-873.57C517.03,-857.75 436.99,-832.61 436.99,-795.64 436.99,-795.64 436.99,-795.64 436.99,-521.25 436.99,-495.96 433.28,-489.16 438.24,-464.36 444.16,-434.75 447.43,-426.96 462.99,-401.08 470.72,-388.21 475.3,-386.92 484.99,-375.45"/>
<path fill="none" stroke="black" d="M484.99,-373.45C504.63,-347.47 520.18,-351.24 540.99,-326.19"/>
<path fill="none" stroke="black" d="M540.99,-324.19C559.92,-301.4 569.56,-300.12 587.99,-276.92"/>
<path fill="none" stroke="black" d="M587.99,-274.92C608.25,-249.43 623.35,-252.85 643.99,-227.66"/>
<path fill="none" stroke="black" d="M643.99,-225.66C662.76,-202.74 672.61,-201.63 690.99,-178.39"/>
<path fill="none" stroke="black" d="M690.99,-176.39C708.69,-154.02 720.61,-155.59 738.99,-133.77"/>
<path fill="none" stroke="black" d="M738.99,-131.77C756.95,-110.45 766.01,-109.55 784.99,-89.14"/>
<path fill="none" stroke="black" d="M784.99,-87.14C791.3,-80.36 798.61,-74.06 806.27,-68.31"/>
<polygon fill="black" stroke="black" points="808.02,-71.36 814.14,-62.71 803.96,-65.66 808.02,-71.36"/>
<text text-anchor="middle" x="454.87" y="-468.31" font-family="Times,serif" font-size="14.00">Nein</text>
</g>
<!-- 8 -->
<g id="node16" class="node">
<title>8</title>
<path fill="#7aab8a" stroke="black" d="M1084.89,-812.64C1084.89,-812.64 477.09,-812.64 477.09,-812.64 471.09,-812.64 465.09,-806.64 465.09,-800.64 465.09,-800.64 465.09,-788.64 465.09,-788.64 465.09,-782.64 471.09,-776.64 477.09,-776.64 477.09,-776.64 1084.89,-776.64 1084.89,-776.64 1090.89,-776.64 1096.89,-782.64 1096.89,-788.64 1096.89,-788.64 1096.89,-800.64 1096.89,-800.64 1096.89,-806.64 1090.89,-812.64 1084.89,-812.64"/>
<text text-anchor="start" x="479.49" y="-790.96" font-family="Times,serif" font-weight="bold" font-size="14.00">8: </text>
<text text-anchor="start" x="498.99" y="-790.96" font-family="Times,serif" font-size="14.00">Entspricht der Bilanzkreis dem zwischen NB und LF ausgetauschten Bilanzkreis?</text>
</g>
<!-- 7&#45;&gt;8 -->
<g id="edge15" class="edge">
<title>7-&gt;8</title>
<path fill="none" stroke="black" d="M757.5,-873.95C761.91,-859.25 767.78,-839.68 772.55,-823.78"/>
<polygon fill="black" stroke="black" points="775.83,-825.01 775.35,-814.43 769.13,-823 775.83,-825.01"/>
<text text-anchor="middle" x="776.74" y="-834.59" font-family="Times,serif" font-size="14.00">Ja</text>
</g>
<!-- 8&#45;&gt;A07 -->
<g id="edge16" class="edge">
<title>8-&gt;A07</title>
<path fill="none" stroke="black" d="M636.51,-776.19C561.77,-762.98 485.99,-741.04 485.99,-706.39 485.99,-706.39 485.99,-706.39 485.99,-521.25 485.99,-456.45 445.92,-427.15 484.99,-375.45"/>
<text text-anchor="middle" x="487.87" y="-419.04" font-family="Times,serif" font-size="14.00">Nein</text>
</g>
<!-- 9 -->
<g id="node17" class="node">
<title>9</title>
<path fill="#7aab8a" stroke="black" d="M1006.14,-723.39C1006.14,-723.39 555.84,-723.39 555.84,-723.39 549.84,-723.39 543.84,-717.39 543.84,-711.39 543.84,-711.39 543.84,-699.39 543.84,-699.39 543.84,-693.39 549.84,-687.39 555.84,-687.39 555.84,-687.39 1006.14,-687.39 1006.14,-687.39 1012.14,-687.39 1018.14,-693.39 1018.14,-699.39 1018.14,-699.39 1018.14,-711.39 1018.14,-711.39 1018.14,-717.39 1012.14,-723.39 1006.14,-723.39"/>
<text text-anchor="start" x="558.24" y="-701.71" font-family="Times,serif" font-weight="bold" font-size="14.00">9: </text>
<text text-anchor="start" x="577.74" y="-701.71" font-family="Times,serif" font-size="14.00">Entspricht der Bilanzierungsbeginn der Erwartung des LF?</text>
</g>
<!-- 8&#45;&gt;9 -->
<g id="edge17" class="edge">
<title>8-&gt;9</title>
<path fill="none" stroke="black" d="M780.99,-776.4C780.99,-764.57 780.99,-748.59 780.99,-734.89"/>
<polygon fill="black" stroke="black" points="784.49,-735.11 780.99,-725.11 777.49,-735.11 784.49,-735.11"/>
<text text-anchor="middle" x="787.74" y="-745.34" font-family="Times,serif" font-size="14.00">Ja</text>
</g>
<!-- 9&#45;&gt;A07 -->
<g id="edge18" class="edge">
<title>9-&gt;A07</title>
<path fill="none" stroke="black" d="M686.15,-686.9C621.29,-672.14 546.99,-648.41 546.99,-617.14 546.99,-617.14 546.99,-617.14 546.99,-471.98 546.99,-407.13 502.29,-378.23 540.99,-326.19"/>
<text text-anchor="middle" x="542.87" y="-369.78" font-family="Times,serif" font-size="14.00">Nein</text>
</g>
<!-- 10 -->
<g id="node18" class="node">
<title>10</title>
<path fill="#7aab8a" stroke="black" d="M1033.27,-634.14C1033.27,-634.14 586.71,-634.14 586.71,-634.14 580.71,-634.14 574.71,-628.14 574.71,-622.14 574.71,-622.14 574.71,-610.14 574.71,-610.14 574.71,-604.14 580.71,-598.14 586.71,-598.14 586.71,-598.14 1033.27,-598.14 1033.27,-598.14 1039.27,-598.14 1045.27,-604.14 1045.27,-610.14 1045.27,-610.14 1045.27,-622.14 1045.27,-622.14 1045.27,-628.14 1039.27,-634.14 1033.27,-634.14"/>
<text text-anchor="start" x="589.12" y="-612.46" font-family="Times,serif" font-weight="bold" font-size="14.00">10: </text>
<text text-anchor="start" x="618.37" y="-612.46" font-family="Times,serif" font-size="14.00">Entspricht das Bilanzierungsende der Erwartung des LF?</text>
</g>
<!-- 9&#45;&gt;10 -->
<g id="edge19" class="edge">
<title>9-&gt;10</title>
<path fill="none" stroke="black" d="M786.72,-687.15C790.69,-675.2 796.07,-659.02 800.66,-645.22"/>
<polygon fill="black" stroke="black" points="803.96,-646.37 803.8,-635.78 797.32,-644.16 803.96,-646.37"/>
<text text-anchor="middle" x="804.74" y="-656.09" font-family="Times,serif" font-size="14.00">Ja</text>
</g>
<!-- 10&#45;&gt;A07 -->
<g id="edge20" class="edge">
<title>10-&gt;A07</title>
<path fill="none" stroke="black" d="M690.72,-597.65C659.59,-587.3 629.15,-570.89 608.99,-544.89 590.69,-521.29 569.98,-300.75 587.99,-276.92"/>
<text text-anchor="middle" x="598.87" y="-320.51" font-family="Times,serif" font-size="14.00">Nein</text>
</g>
<!-- 11 -->
<g id="node19" class="node">
<title>11</title>
<path fill="#7aab8a" stroke="black" d="M1191.64,-544.89C1191.64,-544.89 630.34,-544.89 630.34,-544.89 624.34,-544.89 618.34,-538.89 618.34,-532.89 618.34,-532.89 618.34,-511.61 618.34,-511.61 618.34,-505.61 624.34,-499.61 630.34,-499.61 630.34,-499.61 1191.64,-499.61 1191.64,-499.61 1197.64,-499.61 1203.64,-505.61 1203.64,-511.61 1203.64,-511.61 1203.64,-532.89 1203.64,-532.89 1203.64,-538.89 1197.64,-544.89 1191.64,-544.89"/>
<text text-anchor="start" x="632.74" y="-523.95" font-family="Times,serif" font-weight="bold" font-size="14.00">11: </text>
<text text-anchor="start" x="661.99" y="-523.95" font-family="Times,serif" font-size="14.00">Entspricht das normierte Profil dem zwischen NB und LF ausgetauschten</text>
<text text-anchor="start" x="632.74" y="-509.95" font-family="Times,serif" font-size="14.00">normierten Profil?</text>
</g>
<!-- 10&#45;&gt;11 -->
<g id="edge21" class="edge">
<title>10-&gt;11</title>
<path fill="none" stroke="black" d="M828.99,-597.86C842.9,-585.19 862.14,-567.7 878.48,-552.83"/>
<polygon fill="black" stroke="black" points="880.55,-555.67 885.6,-546.35 875.84,-550.49 880.55,-555.67"/>
<text text-anchor="middle" x="872.74" y="-566.84" font-family="Times,serif" font-size="14.00">Ja</text>
</g>
<!-- 11&#45;&gt;A07 -->
<g id="edge22" class="edge">
<title>11-&gt;A07</title>
<path fill="none" stroke="black" d="M750.26,-499.21C719.4,-487.97 690.16,-471.23 668.99,-446.36 637.28,-409.11 614.8,-266.91 643.99,-227.66"/>
<text text-anchor="middle" x="647.87" y="-271.25" font-family="Times,serif" font-size="14.00">Nein</text>
</g>
<!-- 12 -->
<g id="node20" class="node">
<title>12</title>
<path fill="#7aab8a" stroke="black" d="M1319.76,-446.36C1319.76,-446.36 690.22,-446.36 690.22,-446.36 684.22,-446.36 678.22,-440.36 678.22,-434.36 678.22,-434.36 678.22,-413.08 678.22,-413.08 678.22,-407.08 684.22,-401.08 690.22,-401.08 690.22,-401.08 1319.76,-401.08 1319.76,-401.08 1325.76,-401.08 1331.76,-407.08 1331.76,-413.08 1331.76,-413.08 1331.76,-434.36 1331.76,-434.36 1331.76,-440.36 1325.76,-446.36 1319.76,-446.36"/>
<text text-anchor="start" x="692.62" y="-425.42" font-family="Times,serif" font-weight="bold" font-size="14.00">12: </text>
<text text-anchor="start" x="721.87" y="-425.42" font-family="Times,serif" font-size="14.00">Entspricht die Versionsangabe des Profils der zwischen NB und LF ausgetauschten</text>
<text text-anchor="start" x="692.62" y="-411.42" font-family="Times,serif" font-size="14.00">Version des Profils?</text>
</g>
<!-- 11&#45;&gt;12 -->
<g id="edge23" class="edge">
<title>11-&gt;12</title>
<path fill="none" stroke="black" d="M932.32,-499.35C945.18,-486.14 961.74,-469.14 975.8,-454.7"/>
<polygon fill="black" stroke="black" points="978.22,-457.23 982.69,-447.62 973.2,-452.34 978.22,-457.23"/>
<text text-anchor="middle" x="969.74" y="-468.31" font-family="Times,serif" font-size="14.00">Ja</text>
</g>
<!-- 12&#45;&gt;A07 -->
<g id="edge24" class="edge">
<title>12-&gt;A07</title>
<path fill="none" stroke="black" d="M858.36,-400.61C795.94,-388.19 732.73,-370.57 711.99,-347.83 686.42,-319.8 668.53,-208.97 690.99,-178.39"/>
<text text-anchor="middle" x="698.87" y="-221.98" font-family="Times,serif" font-size="14.00">Nein</text>
</g>
<!-- 13 -->
<g id="node21" class="node">
<title>13</title>
<path fill="#7aab8a" stroke="black" d="M1334.89,-347.83C1334.89,-347.83 733.09,-347.83 733.09,-347.83 727.09,-347.83 721.09,-341.83 721.09,-335.83 721.09,-335.83 721.09,-314.55 721.09,-314.55 721.09,-308.55 727.09,-302.55 733.09,-302.55 733.09,-302.55 1334.89,-302.55 1334.89,-302.55 1340.89,-302.55 1346.89,-308.55 1346.89,-314.55 1346.89,-314.55 1346.89,-335.83 1346.89,-335.83 1346.89,-341.83 1340.89,-347.83 1334.89,-347.83"/>
<text text-anchor="start" x="735.49" y="-326.89" font-family="Times,serif" font-weight="bold" font-size="14.00">13: </text>
<text text-anchor="start" x="764.74" y="-326.89" font-family="Times,serif" font-size="14.00">Entspricht die veranschlagte Prognosemenge (JVP, spezifische Arbeit, usw.) der</text>
<text text-anchor="start" x="735.49" y="-312.89" font-family="Times,serif" font-size="14.00">zwischen NB und LF ausgetauschten Prognosemenge?</text>
</g>
<!-- 12&#45;&gt;13 -->
<g id="edge25" class="edge">
<title>12-&gt;13</title>
<path fill="none" stroke="black" d="M1011.57,-400.82C1015.28,-388.47 1019.98,-372.81 1024.12,-359.03"/>
<polygon fill="black" stroke="black" points="1027.47,-360.04 1027,-349.46 1020.77,-358.03 1027.47,-360.04"/>
<text text-anchor="middle" x="1027.74" y="-369.78" font-family="Times,serif" font-size="14.00">Ja</text>
</g>
<!-- 13&#45;&gt;A07 -->
<g id="edge26" class="edge">
<title>13-&gt;A07</title>
<path fill="none" stroke="black" d="M862.88,-302.11C829.29,-290.87 796.83,-274.14 771.99,-249.3 734.23,-211.54 706.8,-176.38 738.99,-133.77"/>
<text text-anchor="middle" x="742.87" y="-172.72" font-family="Times,serif" font-size="14.00">Nein</text>
</g>
<!-- 14 -->
<g id="node22" class="node">
<title>14</title>
<path fill="#7aab8a" stroke="black" d="M1401.26,-249.3C1401.26,-249.3 792.72,-249.3 792.72,-249.3 786.72,-249.3 780.72,-243.3 780.72,-237.3 780.72,-237.3 780.72,-216.02 780.72,-216.02 780.72,-210.02 786.72,-204.02 792.72,-204.02 792.72,-204.02 1401.26,-204.02 1401.26,-204.02 1407.26,-204.02 1413.26,-210.02 1413.26,-216.02 1413.26,-216.02 1413.26,-237.3 1413.26,-237.3 1413.26,-243.3 1407.26,-249.3 1401.26,-249.3"/>
<text text-anchor="start" x="795.12" y="-228.36" font-family="Times,serif" font-weight="bold" font-size="14.00">14: </text>
<text text-anchor="start" x="824.37" y="-228.36" font-family="Times,serif" font-size="14.00">Entspricht die tats&#228;chlich bilanzierte Menge der erwarteten bilanzierten Menge</text>
<text text-anchor="start" x="795.12" y="-214.36" font-family="Times,serif" font-size="14.00">(monatlich gemessene Menge auf Basis der Summe der 1/4-h-Werten)?</text>
</g>
<!-- 13&#45;&gt;14 -->
<g id="edge27" class="edge">
<title>13-&gt;14</title>
<path fill="none" stroke="black" d="M1048.29,-302.29C1056.66,-289.45 1067.38,-273.03 1076.63,-258.86"/>
<polygon fill="black" stroke="black" points="1079.39,-261.03 1081.92,-250.74 1073.53,-257.21 1079.39,-261.03"/>
<text text-anchor="middle" x="1075.74" y="-271.25" font-family="Times,serif" font-size="14.00">Ja</text>
</g>
<!-- 14&#45;&gt;A07 -->
<g id="edge28" class="edge">
<title>14-&gt;A07</title>
<path fill="none" stroke="black" d="M921.79,-203.55C823.68,-184.14 730.96,-149.3 784.99,-89.14"/>
<text text-anchor="middle" x="797.87" y="-128.09" font-family="Times,serif" font-size="14.00">Nein</text>
</g>
<!-- 15 -->
<g id="node23" class="node">
<title>15</title>
<path fill="#7aab8a" stroke="black" d="M1400.76,-150.77C1400.76,-150.77 849.22,-150.77 849.22,-150.77 843.22,-150.77 837.22,-144.77 837.22,-138.77 837.22,-138.77 837.22,-126.77 837.22,-126.77 837.22,-120.77 843.22,-114.77 849.22,-114.77 849.22,-114.77 1400.76,-114.77 1400.76,-114.77 1406.76,-114.77 1412.76,-120.77 1412.76,-126.77 1412.76,-126.77 1412.76,-138.77 1412.76,-138.77 1412.76,-144.77 1406.76,-150.77 1400.76,-150.77"/>
<text text-anchor="start" x="851.62" y="-129.09" font-family="Times,serif" font-weight="bold" font-size="14.00">15: </text>
<text text-anchor="start" x="880.87" y="-129.09" font-family="Times,serif" font-size="14.00">Entspricht der Zeitreihentyp dem zwischen NB und LF ausgetauschten?</text>
</g>
<!-- 14&#45;&gt;15 -->
<g id="edge29" class="edge">
<title>14-&gt;15</title>
<path fill="none" stroke="black" d="M1103.63,-203.88C1107.47,-191.28 1112.34,-175.28 1116.46,-161.75"/>
<polygon fill="black" stroke="black" points="1119.7,-163.13 1119.27,-152.54 1113.01,-161.09 1119.7,-163.13"/>
<text text-anchor="middle" x="1120.74" y="-172.72" font-family="Times,serif" font-size="14.00">Ja</text>
</g>
<!-- 15&#45;&gt;A07 -->
<g id="edge30" class="edge">
<title>15-&gt;A07</title>
<path fill="none" stroke="black" d="M1080.92,-114.35C1047.38,-101.09 1000.16,-82.42 959.09,-66.19"/>
<polygon fill="black" stroke="black" points="960.51,-62.99 949.92,-62.57 957.94,-69.5 960.51,-62.99"/>
<text text-anchor="middle" x="1051.87" y="-83.47" font-family="Times,serif" font-size="14.00">Nein</text>
</g>
<!-- Ende -->
<g id="node24" class="node">
<title>Ende</title>
<polygon fill="#7a8da1" stroke="black" points="1157.77,-48.76 1092.21,-48.76 1092.21,-12.76 1157.77,-12.76 1157.77,-48.76"/>
<text text-anchor="middle" x="1124.99" y="-26.08" font-family="Times,serif" font-size="14.00">Ende</text>
</g>
<!-- 15&#45;&gt;Ende -->
<g id="edge31" class="edge">
<title>15-&gt;Ende</title>
<path fill="none" stroke="black" d="M1124.99,-114.35C1124.99,-99.51 1124.99,-77.88 1124.99,-60.48"/>
<polygon fill="black" stroke="black" points="1128.49,-60.49 1124.99,-50.49 1121.49,-60.49 1128.49,-60.49"/>
<text text-anchor="middle" x="1131.74" y="-83.47" font-family="Times,serif" font-size="14.00">Ja</text>
</g>
</g>
</svg>
  </g>
</svg>
  </g>
</svg>
