<?xml version='1.0' encoding='ASCII' standalone='yes'?>
<svg xmlns="http://www.w3.org/2000/svg" xmlns:xlink="http://www.w3.org/1999/xlink" version="1.1" width="2108.0px" viewBox="0 0 2108.0 753.3333333333334" height="753.3333333333334px">
  <g>
    <svg version="1.1" width="2108.0px" viewBox="0 0 2108.0 753.3333333333334" height="753.3333333333334px">
  <polygon fill="#f3f1f6" points="0,0 2108.0,0 2108.0,753.3333333333334 0,753.3333333333334"/><g>
    <g transform="translate(752.8901853469733, 75.33333333333331) scale(1 1) translate(0, 0) scale(3.4070372731762113 3.4070372731762113) "><sodipodi:namedview xmlns:sodipodi="http://sodipodi.sourceforge.net/DTD/sodipodi-0.dtd" xmlns:inkscape="http://www.inkscape.org/namespaces/inkscape" id="namedview7" pagecolor="#ffffff" bordercolor="#999999" borderopacity="1" inkscape:pageshadow="0" inkscape:pageopacity="0" inkscape:pagecheckerboard="0" inkscape:document-units="mm" showgrid="false" fit-margin-top="0" fit-margin-left="0" fit-margin-right="0" fit-margin-bottom="0" inkscape:zoom="0.64052329" inkscape:cx="130.36216" inkscape:cy="412.163" inkscape:window-width="1512" inkscape:window-height="916" inkscape:window-x="3840" inkscape:window-y="136" inkscape:window-maximized="0" inkscape:current-layer="layer1"/>
  <defs id="defs2">
    <clipPath clipPathUnits="userSpaceOnUse" id="clipPath23">
      <path d="M 0,568.156 H 579.236 V 0 H 0 Z" id="path21"/>
    </clipPath>
  </defs>
  <g xmlns:inkscape="http://www.inkscape.org/namespaces/inkscape" inkscape:label="Layer 1" inkscape:groupmode="layer" id="layer1" transform="translate(-16.541937,-55.305267)">
    <g id="g19" clip-path="url(#clipPath23)" transform="matrix(0.35277777,0,0,-0.35277777,0.01017023,243.73675)" style="opacity:0.2">
      <g id="g25" transform="translate(122.444,32.7195)">
        <path d="m 0,0 h -56.104 c -11,0 -19.898,9.123 -19.463,20.115 10.594,267.191 231.277,481.302 501.029,481.302 v -56.02 c 0,-10.98 -8.688,-19.892 -19.658,-20.393 C 180.29,414.697 0,228.005 0,0" style="fill:#6ead83;fill-opacity:1;fill-rule:nonzero;stroke:none" id="path27"/>
      </g>
      <g id="g29" transform="translate(273.7828,32.7195)">
        <path d="m 0,0 h -55.926 c -11.228,0 -20.091,9.482 -19.435,20.69 10.744,183.439 163.389,329.388 349.485,329.388 v -56.263 c 0,-10.709 -8.273,-19.617 -18.957,-20.35 C 112.819,263.696 0,144.774 0,0" style="fill:#6ead83;fill-opacity:1;fill-rule:nonzero;stroke:none" id="path31"/>
      </g>
      <g id="g33" transform="translate(425.7667,32.7195)">
        <path d="m 0,0 h -55.445 c -11.653,0 -20.604,10.17 -19.334,21.753 10.866,99.032 95.031,176.341 196.919,176.341 v -57.011 c 0,-10.046 -7.283,-18.755 -17.229,-20.165 C 45.688,112.522 0,61.497 0,0" style="fill:#6ead83;fill-opacity:1;fill-rule:nonzero;stroke:none" id="path35"/>
      </g>
    </g>
  </g>
</g>
    <svg width="1581pt" height="565pt" viewBox="0.00 0.00 1580.80 565.24">
<g id="graph0" class="graph" transform="scale(1 1) rotate(0) translate(4 561.24)">
<title>D</title>
<text text-anchor="start" x="760.9" y="-537.14" font-family="Times,serif" font-weight="bold" font-size="18.00">MaBiS</text>
<text text-anchor="start" x="467.4" y="-507.04" font-family="Times,serif" font-weight="bold" font-size="16.00">7.50.1: AD: &#220;bermittlung Pr&#252;fmitteilung des Deltazeitreihen&#252;bertrags von NB &#252;ber BIKO an &#220;NB</text>
<!-- Start -->
<g id="node1" class="node">
<title>Start</title>
<polygon fill="#7a8da1" stroke="black" points="333.8,-459.24 211,-459.24 211,-415.96 333.8,-415.96 333.8,-459.24"/>
<text text-anchor="start" x="250.9" y="-438.3" font-family="Times,serif" font-weight="bold" font-size="14.00">E_0065</text>
<text text-anchor="start" x="225.4" y="-426.2" font-family="Times,serif" font-weight="bold" text-decoration="underline" font-size="12.00">Pr&#252;fende Rolle:</text>
<text text-anchor="start" x="300.4" y="-426.2" font-family="Times,serif" font-weight="bold" font-size="12.00"> NB</text>
</g>
<!-- 1 -->
<g id="node2" class="node">
<title>1</title>
<path fill="#7aab8a" stroke="black" d="M532.8,-378.96C532.8,-378.96 12,-378.96 12,-378.96 6,-378.96 0,-372.96 0,-366.96 0,-366.96 0,-354.96 0,-354.96 0,-348.96 6,-342.96 12,-342.96 12,-342.96 532.8,-342.96 532.8,-342.96 538.8,-342.96 544.8,-348.96 544.8,-354.96 544.8,-354.96 544.8,-366.96 544.8,-366.96 544.8,-372.96 538.8,-378.96 532.8,-378.96"/>
<text text-anchor="start" x="14.4" y="-357.06" font-family="Times,serif" font-weight="bold" font-size="14.00">1: </text>
<text text-anchor="start" x="27.4" y="-357.06" font-family="Times,serif" font-size="14.00">Liegt die Version der Zeitreihe des MaBiS-ZP f&#252;r diesen Bilanzierungsmonat bereits vor?</text>
</g>
<!-- Start&#45;&gt;1 -->
<g id="edge1" class="edge">
<title>Start-&gt;1</title>
<path fill="none" stroke="black" d="M272.4,-415.81C272.4,-407.77 272.4,-398.45 272.4,-389.85"/>
<polygon fill="black" stroke="black" points="275.9,-390.12 272.4,-380.12 268.9,-390.12 275.9,-390.12"/>
</g>
<!-- A01 -->
<g id="node3" class="node">
<title>A01</title>
<polygon fill="#cfb986" stroke="black" points="333.64,-290.16 177.16,-290.16 177.16,-228.64 333.64,-228.64 333.64,-290.16"/>
<text text-anchor="start" x="243.4" y="-272.1" font-family="Times,serif" font-weight="bold" font-size="14.00">A01</text>
<text text-anchor="start" x="189.4" y="-260" font-family="Times,serif" text-decoration="underline" font-size="12.00">Hinweis:</text>
<text text-anchor="start" x="189.4" y="-248" font-family="Times,serif" font-size="12.00">Cluster: Abweisung</text>
<text text-anchor="start" x="189.4" y="-236" font-family="Times,serif" font-size="12.00">Zeitreihe bereits vorhanden</text>
</g>
<!-- 1&#45;&gt;A01 -->
<g id="edge2" class="edge">
<title>1-&gt;A01</title>
<path fill="none" stroke="black" d="M269.44,-342.62C267.48,-331.16 264.83,-315.65 262.36,-301.19"/>
<polygon fill="black" stroke="black" points="265.66,-300.68 260.53,-291.41 258.76,-301.86 265.66,-300.68"/>
<text text-anchor="middle" x="272.9" y="-311.66" font-family="Times,serif" font-size="14.00">Ja</text>
</g>
<!-- 2 -->
<g id="node4" class="node">
<title>2</title>
<path fill="#7aab8a" stroke="black" d="M1404.8,-277.4C1404.8,-277.4 364,-277.4 364,-277.4 358,-277.4 352,-271.4 352,-265.4 352,-265.4 352,-253.4 352,-253.4 352,-247.4 358,-241.4 364,-241.4 364,-241.4 1404.8,-241.4 1404.8,-241.4 1410.8,-241.4 1416.8,-247.4 1416.8,-253.4 1416.8,-253.4 1416.8,-265.4 1416.8,-265.4 1416.8,-271.4 1410.8,-277.4 1404.8,-277.4"/>
<text text-anchor="start" x="366.4" y="-255.5" font-family="Times,serif" font-weight="bold" font-size="14.00">2: </text>
<text text-anchor="start" x="380.4" y="-255.5" font-family="Times,serif" font-size="14.00">Ist f&#252;r die Version der Zeitreihe des DZ&#220; f&#252;r den Bilanzierungsmonat eine DZ&#220;-Liste mit identischer Version und identischem Bilanzierungsmonat zu diesem MaBiS-ZP vorhanden?</text>
</g>
<!-- 1&#45;&gt;2 -->
<g id="edge3" class="edge">
<title>1-&gt;2</title>
<path fill="none" stroke="black" d="M379.7,-342.5C487.88,-324.91 654.44,-297.81 766.31,-279.61"/>
<polygon fill="black" stroke="black" points="766.66,-282.94 775.96,-277.88 765.53,-276.03 766.66,-282.94"/>
<text text-anchor="middle" x="591.9" y="-311.66" font-family="Times,serif" font-size="14.00">Nein</text>
</g>
<!-- A02 -->
<g id="node5" class="node">
<title>A02</title>
<polygon fill="#cfb986" stroke="black" points="836.14,-175.84 678.66,-175.84 678.66,-114.32 836.14,-114.32 836.14,-175.84"/>
<text text-anchor="start" x="745.4" y="-157.78" font-family="Times,serif" font-weight="bold" font-size="14.00">A02</text>
<text text-anchor="start" x="690.9" y="-145.68" font-family="Times,serif" text-decoration="underline" font-size="12.00">Hinweis:</text>
<text text-anchor="start" x="690.9" y="-133.68" font-family="Times,serif" font-size="12.00">Cluster: Ablehnung</text>
<text text-anchor="start" x="690.9" y="-121.68" font-family="Times,serif" font-size="12.00">DZ&#220;-Liste nicht vorhanden</text>
</g>
<!-- 2&#45;&gt;A02 -->
<g id="edge4" class="edge">
<title>2-&gt;A02</title>
<path fill="none" stroke="black" d="M864.83,-241.1C847.56,-225.82 821.78,-203.01 799.8,-183.58"/>
<polygon fill="black" stroke="black" points="802.39,-181.32 792.59,-177.31 797.76,-186.56 802.39,-181.32"/>
<text text-anchor="middle" x="842.9" y="-197.34" font-family="Times,serif" font-size="14.00">Nein</text>
</g>
<!-- 3 -->
<g id="node6" class="node">
<title>3</title>
<path fill="#7aab8a" stroke="black" d="M1560.8,-163.08C1560.8,-163.08 866,-163.08 866,-163.08 860,-163.08 854,-157.08 854,-151.08 854,-151.08 854,-139.08 854,-139.08 854,-133.08 860,-127.08 866,-127.08 866,-127.08 1560.8,-127.08 1560.8,-127.08 1566.8,-127.08 1572.8,-133.08 1572.8,-139.08 1572.8,-139.08 1572.8,-151.08 1572.8,-151.08 1572.8,-157.08 1566.8,-163.08 1560.8,-163.08"/>
<text text-anchor="start" x="868.4" y="-141.18" font-family="Times,serif" font-weight="bold" font-size="14.00">3: </text>
<text text-anchor="start" x="882.4" y="-141.18" font-family="Times,serif" font-size="14.00">Entsprechen die Energiemengen des DZ&#220; den auf Basis des Pr&#252;fergebnisses der DZ&#220;-Liste ermittelten Energiemengen?</text>
</g>
<!-- 2&#45;&gt;3 -->
<g id="edge5" class="edge">
<title>2-&gt;3</title>
<path fill="none" stroke="black" d="M935.45,-240.97C993.92,-221.01 1089.68,-188.32 1152.13,-167"/>
<polygon fill="black" stroke="black" points="1152.9,-170.09 1161.23,-163.55 1150.64,-163.47 1152.9,-170.09"/>
<text text-anchor="middle" x="1074.9" y="-197.34" font-family="Times,serif" font-size="14.00">Ja</text>
</g>
<!-- A03 -->
<g id="node7" class="node">
<title>A03</title>
<polygon fill="#cfb986" stroke="black" points="1223.64,-61.52 1019.16,-61.52 1019.16,0 1223.64,0 1223.64,-61.52"/>
<text text-anchor="start" x="1109.4" y="-43.46" font-family="Times,serif" font-weight="bold" font-size="14.00">A03</text>
<text text-anchor="start" x="1031.4" y="-31.36" font-family="Times,serif" text-decoration="underline" font-size="12.00">Hinweis:</text>
<text text-anchor="start" x="1031.4" y="-19.36" font-family="Times,serif" font-size="12.00">Cluster: Ablehnung</text>
<text text-anchor="start" x="1031.4" y="-7.36" font-family="Times,serif" font-size="12.00">Energiemenge falsch / nicht plausibel</text>
</g>
<!-- 3&#45;&gt;A03 -->
<g id="edge6" class="edge">
<title>3-&gt;A03</title>
<path fill="none" stroke="black" d="M1199.43,-127.02C1187.08,-111.95 1168.62,-89.41 1152.75,-70.04"/>
<polygon fill="black" stroke="black" points="1154.95,-68.2 1145.91,-62.68 1149.54,-72.64 1154.95,-68.2"/>
<text text-anchor="middle" x="1186.9" y="-83.02" font-family="Times,serif" font-size="14.00">Nein</text>
</g>
<!-- A04 -->
<g id="node8" class="node">
<title>A04</title>
<polygon fill="#cfb986" stroke="black" points="1367.64,-61.52 1241.16,-61.52 1241.16,0 1367.64,0 1367.64,-61.52"/>
<text text-anchor="start" x="1292.4" y="-43.46" font-family="Times,serif" font-weight="bold" font-size="14.00">A04</text>
<text text-anchor="start" x="1253.4" y="-31.36" font-family="Times,serif" text-decoration="underline" font-size="12.00">Hinweis:</text>
<text text-anchor="start" x="1253.4" y="-19.36" font-family="Times,serif" font-size="12.00">Cluster: Zustimmung</text>
<text text-anchor="start" x="1253.4" y="-7.36" font-family="Times,serif" font-size="12.00">Zeitreihe akzeptiert</text>
</g>
<!-- 3&#45;&gt;A04 -->
<g id="edge7" class="edge">
<title>3-&gt;A04</title>
<path fill="none" stroke="black" d="M1227.22,-127.02C1239.43,-111.95 1257.69,-89.41 1273.39,-70.04"/>
<polygon fill="black" stroke="black" points="1276.58,-72.66 1280.16,-62.68 1271.14,-68.25 1276.58,-72.66"/>
<text text-anchor="middle" x="1268.9" y="-83.02" font-family="Times,serif" font-size="14.00">Ja</text>
</g>
</g>
</svg>
  </g>
</svg>
  </g>
</svg>
