<?xml version='1.0' encoding='ASCII' standalone='yes'?>
<svg xmlns="http://www.w3.org/2000/svg" xmlns:xlink="http://www.w3.org/1999/xlink" version="1.1" width="3786.6666666666665px" viewBox="0 0 3786.6666666666665 1973.3333333333333" height="1973.3333333333333px">
  <g>
    <svg version="1.1" width="3786.6666666666665px" viewBox="0 0 3786.6666666666665 1973.3333333333333" height="1973.3333333333333px">
  <polygon fill="#f3f1f6" points="0,0 3786.6666666666665,0 3786.6666666666665,1973.3333333333333 0,1973.3333333333333"/><g>
    <g transform="translate(1104.5855002599183, 197.3333333333333) scale(1 1) translate(0, 0) scale(8.924628609381934 8.924628609381934) "><sodipodi:namedview xmlns:sodipodi="http://sodipodi.sourceforge.net/DTD/sodipodi-0.dtd" xmlns:inkscape="http://www.inkscape.org/namespaces/inkscape" id="namedview7" pagecolor="#ffffff" bordercolor="#999999" borderopacity="1" inkscape:pageshadow="0" inkscape:pageopacity="0" inkscape:pagecheckerboard="0" inkscape:document-units="mm" showgrid="false" fit-margin-top="0" fit-margin-left="0" fit-margin-right="0" fit-margin-bottom="0" inkscape:zoom="0.64052329" inkscape:cx="130.36216" inkscape:cy="412.163" inkscape:window-width="1512" inkscape:window-height="916" inkscape:window-x="3840" inkscape:window-y="136" inkscape:window-maximized="0" inkscape:current-layer="layer1"/>
  <defs id="defs2">
    <clipPath clipPathUnits="userSpaceOnUse" id="clipPath23">
      <path d="M 0,568.156 H 579.236 V 0 H 0 Z" id="path21"/>
    </clipPath>
  </defs>
  <g xmlns:inkscape="http://www.inkscape.org/namespaces/inkscape" inkscape:label="Layer 1" inkscape:groupmode="layer" id="layer1" transform="translate(-16.541937,-55.305267)">
    <g id="g19" clip-path="url(#clipPath23)" transform="matrix(0.35277777,0,0,-0.35277777,0.01017023,243.73675)" style="opacity:0.2">
      <g id="g25" transform="translate(122.444,32.7195)">
        <path d="m 0,0 h -56.104 c -11,0 -19.898,9.123 -19.463,20.115 10.594,267.191 231.277,481.302 501.029,481.302 v -56.02 c 0,-10.98 -8.688,-19.892 -19.658,-20.393 C 180.29,414.697 0,228.005 0,0" style="fill:#6ead83;fill-opacity:1;fill-rule:nonzero;stroke:none" id="path27"/>
      </g>
      <g id="g29" transform="translate(273.7828,32.7195)">
        <path d="m 0,0 h -55.926 c -11.228,0 -20.091,9.482 -19.435,20.69 10.744,183.439 163.389,329.388 349.485,329.388 v -56.263 c 0,-10.709 -8.273,-19.617 -18.957,-20.35 C 112.819,263.696 0,144.774 0,0" style="fill:#6ead83;fill-opacity:1;fill-rule:nonzero;stroke:none" id="path31"/>
      </g>
      <g id="g33" transform="translate(425.7667,32.7195)">
        <path d="m 0,0 h -55.445 c -11.653,0 -20.604,10.17 -19.334,21.753 10.866,99.032 95.031,176.341 196.919,176.341 v -57.011 c 0,-10.046 -7.283,-18.755 -17.229,-20.165 C 45.688,112.522 0,61.497 0,0" style="fill:#6ead83;fill-opacity:1;fill-rule:nonzero;stroke:none" id="path35"/>
      </g>
    </g>
  </g>
</g>
    <svg width="2840pt" height="1480pt" viewBox="0.00 0.00 2839.80 1479.80">
<g id="graph0" class="graph" transform="scale(1 1) rotate(0) translate(4 1475.8)">
<title>D</title>
<text text-anchor="start" x="1390.4" y="-1451.7" font-family="Times,serif" font-weight="bold" font-size="18.00">MaBiS</text>
<text text-anchor="start" x="1045.4" y="-1421.6" font-family="Times,serif" font-weight="bold" font-size="16.00">7.28.1: AD: Aktivierung eines MaBiS-Z&#228;hlpunkts f&#252;r die Bilanzkreissummenzeitreihe vom NB an BIKO und BKV</text>
<!-- Start -->
<g id="node1" class="node">
<title>Start</title>
<polygon fill="#7a8da1" stroke="black" points="282.8,-1373.8 147,-1373.8 147,-1330.52 282.8,-1330.52 282.8,-1373.8"/>
<text text-anchor="start" x="193.4" y="-1352.86" font-family="Times,serif" font-weight="bold" font-size="14.00">E_0034</text>
<text text-anchor="start" x="161.4" y="-1340.76" font-family="Times,serif" font-weight="bold" text-decoration="underline" font-size="12.00">Pr&#252;fende Rolle:</text>
<text text-anchor="start" x="236.4" y="-1340.76" font-family="Times,serif" font-weight="bold" font-size="12.00"> BIKO</text>
</g>
<!-- 1 -->
<g id="node2" class="node">
<title>1</title>
<path fill="#7aab8a" stroke="black" d="M417.8,-1293.52C417.8,-1293.52 12,-1293.52 12,-1293.52 6,-1293.52 0,-1287.52 0,-1281.52 0,-1281.52 0,-1269.52 0,-1269.52 0,-1263.52 6,-1257.52 12,-1257.52 12,-1257.52 417.8,-1257.52 417.8,-1257.52 423.8,-1257.52 429.8,-1263.52 429.8,-1269.52 429.8,-1269.52 429.8,-1281.52 429.8,-1281.52 429.8,-1287.52 423.8,-1293.52 417.8,-1293.52"/>
<text text-anchor="start" x="14.4" y="-1271.62" font-family="Times,serif" font-weight="bold" font-size="14.00">1: </text>
<text text-anchor="start" x="27.4" y="-1271.62" font-family="Times,serif" font-size="14.00">Erfolgt die Aktivierung nach Ablauf der Clearingfrist f&#252;r die KBKA?</text>
</g>
<!-- Start&#45;&gt;1 -->
<g id="edge1" class="edge">
<title>Start-&gt;1</title>
<path fill="none" stroke="black" d="M214.9,-1330.37C214.9,-1322.33 214.9,-1313.01 214.9,-1304.41"/>
<polygon fill="black" stroke="black" points="218.4,-1304.68 214.9,-1294.68 211.4,-1304.68 218.4,-1304.68"/>
</g>
<!-- A01 -->
<g id="node3" class="node">
<title>A01</title>
<polygon fill="#cfb986" stroke="black" points="257.14,-1204.72 138.66,-1204.72 138.66,-1143.2 257.14,-1143.2 257.14,-1204.72"/>
<text text-anchor="start" x="185.9" y="-1186.66" font-family="Times,serif" font-weight="bold" font-size="14.00">A01</text>
<text text-anchor="start" x="150.9" y="-1174.56" font-family="Times,serif" text-decoration="underline" font-size="12.00">Hinweis:</text>
<text text-anchor="start" x="150.9" y="-1162.56" font-family="Times,serif" font-size="12.00">Cluster: Ablehnung</text>
<text text-anchor="start" x="150.9" y="-1150.56" font-family="Times,serif" font-size="12.00">Frist&#252;berschreitung</text>
</g>
<!-- 1&#45;&gt;A01 -->
<g id="edge2" class="edge">
<title>1-&gt;A01</title>
<path fill="none" stroke="black" d="M211.94,-1257.18C209.98,-1245.72 207.33,-1230.21 204.86,-1215.75"/>
<polygon fill="black" stroke="black" points="208.16,-1215.24 203.03,-1205.97 201.26,-1216.42 208.16,-1215.24"/>
<text text-anchor="middle" x="215.4" y="-1226.22" font-family="Times,serif" font-size="14.00">Ja</text>
</g>
<!-- 2 -->
<g id="node4" class="node">
<title>2</title>
<path fill="#7aab8a" stroke="black" d="M610.3,-1191.96C610.3,-1191.96 287.5,-1191.96 287.5,-1191.96 281.5,-1191.96 275.5,-1185.96 275.5,-1179.96 275.5,-1179.96 275.5,-1167.96 275.5,-1167.96 275.5,-1161.96 281.5,-1155.96 287.5,-1155.96 287.5,-1155.96 610.3,-1155.96 610.3,-1155.96 616.3,-1155.96 622.3,-1161.96 622.3,-1167.96 622.3,-1167.96 622.3,-1179.96 622.3,-1179.96 622.3,-1185.96 616.3,-1191.96 610.3,-1191.96"/>
<text text-anchor="start" x="289.9" y="-1170.06" font-family="Times,serif" font-weight="bold" font-size="14.00">2: </text>
<text text-anchor="start" x="303.9" y="-1170.06" font-family="Times,serif" font-size="14.00">Erfolgt die Aktivierung zum Monatsersten 00:00 Uhr?</text>
</g>
<!-- 1&#45;&gt;2 -->
<g id="edge3" class="edge">
<title>1-&gt;2</title>
<path fill="none" stroke="black" d="M255.93,-1257.06C295.49,-1240.23 355.46,-1214.72 398.03,-1196.6"/>
<polygon fill="black" stroke="black" points="399.09,-1199.53 406.92,-1192.4 396.35,-1193.09 399.09,-1199.53"/>
<text text-anchor="middle" x="345.4" y="-1226.22" font-family="Times,serif" font-size="14.00">Nein</text>
</g>
<!-- A02 -->
<g id="node5" class="node">
<title>A02</title>
<polygon fill="#cfb986" stroke="black" points="472.14,-1090.4 279.66,-1090.4 279.66,-1028.88 472.14,-1028.88 472.14,-1090.4"/>
<text text-anchor="start" x="363.9" y="-1072.34" font-family="Times,serif" font-weight="bold" font-size="14.00">A02</text>
<text text-anchor="start" x="291.9" y="-1060.24" font-family="Times,serif" text-decoration="underline" font-size="12.00">Hinweis:</text>
<text text-anchor="start" x="291.9" y="-1048.24" font-family="Times,serif" font-size="12.00">Cluster: Ablehnung</text>
<text text-anchor="start" x="291.9" y="-1036.24" font-family="Times,serif" font-size="12.00">Gew&#228;hlter Zeitpunkt nicht zul&#228;ssig</text>
</g>
<!-- 2&#45;&gt;A02 -->
<g id="edge4" class="edge">
<title>2-&gt;A02</title>
<path fill="none" stroke="black" d="M437.81,-1155.9C428.15,-1141.03 413.76,-1118.89 401.29,-1099.7"/>
<polygon fill="black" stroke="black" points="403.73,-1098.04 395.35,-1091.56 397.86,-1101.85 403.73,-1098.04"/>
<text text-anchor="middle" x="430.4" y="-1111.9" font-family="Times,serif" font-size="14.00">Nein</text>
</g>
<!-- 3 -->
<g id="node6" class="node">
<title>3</title>
<path fill="#7aab8a" stroke="black" d="M733.3,-1077.64C733.3,-1077.64 502.5,-1077.64 502.5,-1077.64 496.5,-1077.64 490.5,-1071.64 490.5,-1065.64 490.5,-1065.64 490.5,-1053.64 490.5,-1053.64 490.5,-1047.64 496.5,-1041.64 502.5,-1041.64 502.5,-1041.64 733.3,-1041.64 733.3,-1041.64 739.3,-1041.64 745.3,-1047.64 745.3,-1053.64 745.3,-1053.64 745.3,-1065.64 745.3,-1065.64 745.3,-1071.64 739.3,-1077.64 733.3,-1077.64"/>
<text text-anchor="start" x="504.9" y="-1055.74" font-family="Times,serif" font-weight="bold" font-size="14.00">3: </text>
<text text-anchor="start" x="518.9" y="-1055.74" font-family="Times,serif" font-size="14.00">Ist die richtige Regelzone angegeben?</text>
</g>
<!-- 2&#45;&gt;3 -->
<g id="edge5" class="edge">
<title>2-&gt;3</title>
<path fill="none" stroke="black" d="M474.94,-1155.66C503.84,-1136.45 550.65,-1105.34 582.78,-1083.98"/>
<polygon fill="black" stroke="black" points="584.44,-1086.41 590.83,-1077.96 580.57,-1080.58 584.44,-1086.41"/>
<text text-anchor="middle" x="549.4" y="-1111.9" font-family="Times,serif" font-size="14.00">Ja</text>
</g>
<!-- A03 -->
<g id="node7" class="node">
<title>A03</title>
<polygon fill="#cfb986" stroke="black" points="579.14,-976.08 460.66,-976.08 460.66,-914.56 579.14,-914.56 579.14,-976.08"/>
<text text-anchor="start" x="507.9" y="-958.02" font-family="Times,serif" font-weight="bold" font-size="14.00">A03</text>
<text text-anchor="start" x="472.9" y="-945.92" font-family="Times,serif" text-decoration="underline" font-size="12.00">Hinweis:</text>
<text text-anchor="start" x="472.9" y="-933.92" font-family="Times,serif" font-size="12.00">Cluster: Ablehnung</text>
<text text-anchor="start" x="472.9" y="-921.92" font-family="Times,serif" font-size="12.00">Regelzone falsch</text>
</g>
<!-- 3&#45;&gt;A03 -->
<g id="edge6" class="edge">
<title>3-&gt;A03</title>
<path fill="none" stroke="black" d="M603.02,-1041.58C589.8,-1026.44 570.02,-1003.77 553.07,-984.34"/>
<polygon fill="black" stroke="black" points="555.22,-982.48 546.01,-977.24 549.94,-987.08 555.22,-982.48"/>
<text text-anchor="middle" x="588.4" y="-997.58" font-family="Times,serif" font-size="14.00">Nein</text>
</g>
<!-- 4 -->
<g id="node8" class="node">
<title>4</title>
<path fill="#7aab8a" stroke="black" d="M1120.8,-963.32C1120.8,-963.32 609,-963.32 609,-963.32 603,-963.32 597,-957.32 597,-951.32 597,-951.32 597,-939.32 597,-939.32 597,-933.32 603,-927.32 609,-927.32 609,-927.32 1120.8,-927.32 1120.8,-927.32 1126.8,-927.32 1132.8,-933.32 1132.8,-939.32 1132.8,-939.32 1132.8,-951.32 1132.8,-951.32 1132.8,-957.32 1126.8,-963.32 1120.8,-963.32"/>
<text text-anchor="start" x="611.4" y="-941.42" font-family="Times,serif" font-weight="bold" font-size="14.00">4: </text>
<text text-anchor="start" x="625.4" y="-941.42" font-family="Times,serif" font-size="14.00">Ist das Bilanzierungsgebiet zum Aktivierungsbeginn in der Regelzone des BIKO g&#252;ltig?</text>
</g>
<!-- 3&#45;&gt;4 -->
<g id="edge7" class="edge">
<title>3-&gt;4</title>
<path fill="none" stroke="black" d="M656.22,-1041.21C699.4,-1021.58 769.65,-989.63 816.56,-968.3"/>
<polygon fill="black" stroke="black" points="817.83,-971.11 825.49,-963.79 814.94,-964.74 817.83,-971.11"/>
<text text-anchor="middle" x="762.4" y="-997.58" font-family="Times,serif" font-size="14.00">Ja</text>
</g>
<!-- A04 -->
<g id="node9" class="node">
<title>A04</title>
<polygon fill="#cfb986" stroke="black" points="836.14,-861.76 657.66,-861.76 657.66,-800.24 836.14,-800.24 836.14,-861.76"/>
<text text-anchor="start" x="734.9" y="-843.7" font-family="Times,serif" font-weight="bold" font-size="14.00">A04</text>
<text text-anchor="start" x="669.9" y="-831.6" font-family="Times,serif" text-decoration="underline" font-size="12.00">Hinweis:</text>
<text text-anchor="start" x="669.9" y="-819.6" font-family="Times,serif" font-size="12.00">Cluster: Ablehnung</text>
<text text-anchor="start" x="669.9" y="-807.6" font-family="Times,serif" font-size="12.00">Bilanzierungsgebiet nicht g&#252;ltig</text>
</g>
<!-- 4&#45;&gt;A04 -->
<g id="edge8" class="edge">
<title>4-&gt;A04</title>
<path fill="none" stroke="black" d="M846.72,-927.02C830.74,-911.81 806.92,-889.13 786.56,-869.75"/>
<polygon fill="black" stroke="black" points="789.32,-867.59 779.66,-863.23 784.49,-872.66 789.32,-867.59"/>
<text text-anchor="middle" x="827.4" y="-883.26" font-family="Times,serif" font-size="14.00">Nein</text>
</g>
<!-- 5 -->
<g id="node10" class="node">
<title>5</title>
<path fill="#7aab8a" stroke="black" d="M1471.8,-849C1471.8,-849 866,-849 866,-849 860,-849 854,-843 854,-837 854,-837 854,-825 854,-825 854,-819 860,-813 866,-813 866,-813 1471.8,-813 1471.8,-813 1477.8,-813 1483.8,-819 1483.8,-825 1483.8,-825 1483.8,-837 1483.8,-837 1483.8,-843 1477.8,-849 1471.8,-849"/>
<text text-anchor="start" x="868.4" y="-827.1" font-family="Times,serif" font-weight="bold" font-size="14.00">5: </text>
<text text-anchor="start" x="882.4" y="-827.1" font-family="Times,serif" font-size="14.00">Ist der Sender zum Aktivierungsbeginn der verantwortliche NB f&#252;r das angegebene Bilanzierungsgebiet?</text>
</g>
<!-- 4&#45;&gt;5 -->
<g id="edge9" class="edge">
<title>4-&gt;5</title>
<path fill="none" stroke="black" d="M912.07,-926.89C965.87,-907.01 1053.85,-874.51 1111.57,-853.18"/>
<polygon fill="black" stroke="black" points="1112.46,-856.22 1120.62,-849.47 1110.03,-849.65 1112.46,-856.22"/>
<text text-anchor="middle" x="1041.4" y="-883.26" font-family="Times,serif" font-size="14.00">Ja</text>
</g>
<!-- A05 -->
<g id="node11" class="node">
<title>A05</title>
<polygon fill="#cfb986" stroke="black" points="1110.14,-747.44 989.66,-747.44 989.66,-685.92 1110.14,-685.92 1110.14,-747.44"/>
<text text-anchor="start" x="1037.9" y="-729.38" font-family="Times,serif" font-weight="bold" font-size="14.00">A05</text>
<text text-anchor="start" x="1001.9" y="-717.28" font-family="Times,serif" text-decoration="underline" font-size="12.00">Hinweis:</text>
<text text-anchor="start" x="1001.9" y="-705.28" font-family="Times,serif" font-size="12.00">Cluster: Ablehnung</text>
<text text-anchor="start" x="1001.9" y="-693.28" font-family="Times,serif" font-size="12.00">Keine Berechtigung</text>
</g>
<!-- 5&#45;&gt;A05 -->
<g id="edge10" class="edge">
<title>5-&gt;A05</title>
<path fill="none" stroke="black" d="M1150.57,-812.7C1134.45,-797.49 1110.43,-774.81 1089.9,-755.43"/>
<polygon fill="black" stroke="black" points="1092.61,-753.23 1082.93,-748.91 1087.8,-758.32 1092.61,-753.23"/>
<text text-anchor="middle" x="1130.4" y="-768.94" font-family="Times,serif" font-size="14.00">Nein</text>
</g>
<!-- 6 -->
<g id="node12" class="node">
<title>6</title>
<path fill="#7aab8a" stroke="black" d="M1813.3,-734.68C1813.3,-734.68 1140.5,-734.68 1140.5,-734.68 1134.5,-734.68 1128.5,-728.68 1128.5,-722.68 1128.5,-722.68 1128.5,-710.68 1128.5,-710.68 1128.5,-704.68 1134.5,-698.68 1140.5,-698.68 1140.5,-698.68 1813.3,-698.68 1813.3,-698.68 1819.3,-698.68 1825.3,-704.68 1825.3,-710.68 1825.3,-710.68 1825.3,-722.68 1825.3,-722.68 1825.3,-728.68 1819.3,-734.68 1813.3,-734.68"/>
<text text-anchor="start" x="1142.9" y="-712.78" font-family="Times,serif" font-weight="bold" font-size="14.00">6: </text>
<text text-anchor="start" x="1156.9" y="-712.78" font-family="Times,serif" font-size="14.00">Existiert bereits ein abweichendes Tupel aus Bilanzierungsgebiet, Bilanzkreis und ZRT unter der ID des MaBiS-ZP?</text>
</g>
<!-- 5&#45;&gt;6 -->
<g id="edge11" class="edge">
<title>5-&gt;6</title>
<path fill="none" stroke="black" d="M1216.69,-812.57C1271.2,-792.69 1360.34,-760.19 1418.81,-738.86"/>
<polygon fill="black" stroke="black" points="1419.81,-741.86 1428,-735.15 1417.41,-735.29 1419.81,-741.86"/>
<text text-anchor="middle" x="1347.4" y="-768.94" font-family="Times,serif" font-size="14.00">Ja</text>
</g>
<!-- A06 -->
<g id="node13" class="node">
<title>A06</title>
<polygon fill="#cfb986" stroke="black" points="1460.64,-633.12 1223.16,-633.12 1223.16,-571.6 1460.64,-571.6 1460.64,-633.12"/>
<text text-anchor="start" x="1329.9" y="-615.06" font-family="Times,serif" font-weight="bold" font-size="14.00">A06</text>
<text text-anchor="start" x="1235.4" y="-602.96" font-family="Times,serif" text-decoration="underline" font-size="12.00">Hinweis:</text>
<text text-anchor="start" x="1235.4" y="-590.96" font-family="Times,serif" font-size="12.00">Cluster: Ablehnung</text>
<text text-anchor="start" x="1235.4" y="-578.96" font-family="Times,serif" font-size="12.00">Abweichender MaBiS-ZP bereits vorhanden</text>
</g>
<!-- 6&#45;&gt;A06 -->
<g id="edge12" class="edge">
<title>6-&gt;A06</title>
<path fill="none" stroke="black" d="M1456.1,-698.38C1437.66,-683.03 1410.09,-660.09 1386.66,-640.6"/>
<polygon fill="black" stroke="black" points="1389.16,-637.3 1379.24,-633.59 1384.69,-642.68 1389.16,-637.3"/>
<text text-anchor="middle" x="1423.4" y="-654.62" font-family="Times,serif" font-size="14.00">Ja</text>
</g>
<!-- 7 -->
<g id="node14" class="node">
<title>7</title>
<path fill="#7aab8a" stroke="black" d="M2206.8,-620.36C2206.8,-620.36 1491,-620.36 1491,-620.36 1485,-620.36 1479,-614.36 1479,-608.36 1479,-608.36 1479,-596.36 1479,-596.36 1479,-590.36 1485,-584.36 1491,-584.36 1491,-584.36 2206.8,-584.36 2206.8,-584.36 2212.8,-584.36 2218.8,-590.36 2218.8,-596.36 2218.8,-596.36 2218.8,-608.36 2218.8,-608.36 2218.8,-614.36 2212.8,-620.36 2206.8,-620.36"/>
<text text-anchor="start" x="1493.4" y="-598.46" font-family="Times,serif" font-weight="bold" font-size="14.00">7: </text>
<text text-anchor="start" x="1507.4" y="-598.46" font-family="Times,serif" font-size="14.00">Existiert bereits f&#252;r das genannte Tupel aus Bilanzierungsgebiet, Bilanzkreis und ZRT eine abweichende ID des MaBiS-ZP?</text>
</g>
<!-- 6&#45;&gt;7 -->
<g id="edge13" class="edge">
<title>6-&gt;7</title>
<path fill="none" stroke="black" d="M1534.62,-698.25C1601.14,-678.17 1710.35,-645.19 1780.92,-623.88"/>
<polygon fill="black" stroke="black" points="1781.49,-627.07 1790.05,-620.83 1779.46,-620.37 1781.49,-627.07"/>
<text text-anchor="middle" x="1699.4" y="-654.62" font-family="Times,serif" font-size="14.00">Nein</text>
</g>
<!-- A07 -->
<g id="node15" class="node">
<title>A07</title>
<polygon fill="#cfb986" stroke="black" points="1897.64,-518.8 1624.16,-518.8 1624.16,-457.28 1897.64,-457.28 1897.64,-518.8"/>
<text text-anchor="start" x="1748.9" y="-500.74" font-family="Times,serif" font-weight="bold" font-size="14.00">A07</text>
<text text-anchor="start" x="1636.4" y="-488.64" font-family="Times,serif" text-decoration="underline" font-size="12.00">Hinweis:</text>
<text text-anchor="start" x="1636.4" y="-476.64" font-family="Times,serif" font-size="12.00">Cluster: Ablehnung</text>
<text text-anchor="start" x="1636.4" y="-464.64" font-family="Times,serif" font-size="12.00">Abweichende ID zum MaBiS-ZP bereits vorhanden</text>
</g>
<!-- 7&#45;&gt;A07 -->
<g id="edge14" class="edge">
<title>7-&gt;A07</title>
<path fill="none" stroke="black" d="M1835.53,-584.3C1823.78,-569.29 1806.22,-546.89 1791.09,-527.58"/>
<polygon fill="black" stroke="black" points="1793.27,-525.68 1784.34,-519.96 1787.76,-529.99 1793.27,-525.68"/>
<text text-anchor="middle" x="1816.4" y="-540.3" font-family="Times,serif" font-size="14.00">Ja</text>
</g>
<!-- 8 -->
<g id="node16" class="node">
<title>8</title>
<path fill="#7aab8a" stroke="black" d="M2232.3,-506.04C2232.3,-506.04 1927.5,-506.04 1927.5,-506.04 1921.5,-506.04 1915.5,-500.04 1915.5,-494.04 1915.5,-494.04 1915.5,-482.04 1915.5,-482.04 1915.5,-476.04 1921.5,-470.04 1927.5,-470.04 1927.5,-470.04 2232.3,-470.04 2232.3,-470.04 2238.3,-470.04 2244.3,-476.04 2244.3,-482.04 2244.3,-482.04 2244.3,-494.04 2244.3,-494.04 2244.3,-500.04 2238.3,-506.04 2232.3,-506.04"/>
<text text-anchor="start" x="1929.9" y="-484.14" font-family="Times,serif" font-weight="bold" font-size="14.00">8: </text>
<text text-anchor="start" x="1943.9" y="-484.14" font-family="Times,serif" font-size="14.00">Ist der Bilanzkreis zum Aktivierungsbeginn g&#252;ltig?</text>
</g>
<!-- 7&#45;&gt;8 -->
<g id="edge15" class="edge">
<title>7-&gt;8</title>
<path fill="none" stroke="black" d="M1884.74,-583.93C1924.95,-564.38 1990.27,-532.62 2034.14,-511.29"/>
<polygon fill="black" stroke="black" points="2035.51,-514.03 2042.98,-506.51 2032.45,-507.73 2035.51,-514.03"/>
<text text-anchor="middle" x="1992.4" y="-540.3" font-family="Times,serif" font-size="14.00">Nein</text>
</g>
<!-- A08 -->
<g id="node17" class="node">
<title>A08</title>
<polygon fill="#cfb986" stroke="black" points="2075.14,-404.48 1938.66,-404.48 1938.66,-342.96 2075.14,-342.96 2075.14,-404.48"/>
<text text-anchor="start" x="1994.9" y="-386.42" font-family="Times,serif" font-weight="bold" font-size="14.00">A08</text>
<text text-anchor="start" x="1950.9" y="-374.32" font-family="Times,serif" text-decoration="underline" font-size="12.00">Hinweis:</text>
<text text-anchor="start" x="1950.9" y="-362.32" font-family="Times,serif" font-size="12.00">Cluster: Ablehnung</text>
<text text-anchor="start" x="1950.9" y="-350.32" font-family="Times,serif" font-size="12.00">Bilanzkreis nicht g&#252;ltig</text>
</g>
<!-- 8&#45;&gt;A08 -->
<g id="edge16" class="edge">
<title>8-&gt;A08</title>
<path fill="none" stroke="black" d="M2068.81,-469.98C2059.15,-455.11 2044.76,-432.97 2032.29,-413.78"/>
<polygon fill="black" stroke="black" points="2034.73,-412.12 2026.35,-405.64 2028.86,-415.93 2034.73,-412.12"/>
<text text-anchor="middle" x="2061.4" y="-425.98" font-family="Times,serif" font-size="14.00">Nein</text>
</g>
<!-- 9 -->
<g id="node18" class="node">
<title>9</title>
<path fill="#7aab8a" stroke="black" d="M2392.3,-391.72C2392.3,-391.72 2105.5,-391.72 2105.5,-391.72 2099.5,-391.72 2093.5,-385.72 2093.5,-379.72 2093.5,-379.72 2093.5,-367.72 2093.5,-367.72 2093.5,-361.72 2099.5,-355.72 2105.5,-355.72 2105.5,-355.72 2392.3,-355.72 2392.3,-355.72 2398.3,-355.72 2404.3,-361.72 2404.3,-367.72 2404.3,-367.72 2404.3,-379.72 2404.3,-379.72 2404.3,-385.72 2398.3,-391.72 2392.3,-391.72"/>
<text text-anchor="start" x="2107.9" y="-369.82" font-family="Times,serif" font-weight="bold" font-size="14.00">9: </text>
<text text-anchor="start" x="2121.9" y="-369.82" font-family="Times,serif" font-size="14.00">Ist der NB zur Aktivierung des ZRT berechtigt?</text>
</g>
<!-- 8&#45;&gt;9 -->
<g id="edge17" class="edge">
<title>8-&gt;9</title>
<path fill="none" stroke="black" d="M2105.94,-469.74C2134.84,-450.53 2181.65,-419.42 2213.78,-398.06"/>
<polygon fill="black" stroke="black" points="2215.44,-400.49 2221.83,-392.04 2211.57,-394.66 2215.44,-400.49"/>
<text text-anchor="middle" x="2180.4" y="-425.98" font-family="Times,serif" font-size="14.00">Ja</text>
</g>
<!-- A09 -->
<g id="node19" class="node">
<title>A09</title>
<polygon fill="#cfb986" stroke="black" points="2270.14,-290.16 2083.66,-290.16 2083.66,-228.64 2270.14,-228.64 2270.14,-290.16"/>
<text text-anchor="start" x="2164.9" y="-272.1" font-family="Times,serif" font-weight="bold" font-size="14.00">A09</text>
<text text-anchor="start" x="2095.9" y="-260" font-family="Times,serif" text-decoration="underline" font-size="12.00">Hinweis:</text>
<text text-anchor="start" x="2095.9" y="-248" font-family="Times,serif" font-size="12.00">Cluster: Ablehnung</text>
<text text-anchor="start" x="2095.9" y="-236" font-family="Times,serif" font-size="12.00">ZRT Aktivierung nicht berechtigt</text>
</g>
<!-- 9&#45;&gt;A09 -->
<g id="edge18" class="edge">
<title>9-&gt;A09</title>
<path fill="none" stroke="black" d="M2237.96,-355.66C2228.43,-340.79 2214.24,-318.65 2201.94,-299.46"/>
<polygon fill="black" stroke="black" points="2204.42,-297.85 2196.08,-291.32 2198.53,-301.63 2204.42,-297.85"/>
<text text-anchor="middle" x="2231.4" y="-311.66" font-family="Times,serif" font-size="14.00">Nein</text>
</g>
<!-- 10 -->
<g id="node20" class="node">
<title>10</title>
<path fill="#7aab8a" stroke="black" d="M2531.3,-277.4C2531.3,-277.4 2300.5,-277.4 2300.5,-277.4 2294.5,-277.4 2288.5,-271.4 2288.5,-265.4 2288.5,-265.4 2288.5,-253.4 2288.5,-253.4 2288.5,-247.4 2294.5,-241.4 2300.5,-241.4 2300.5,-241.4 2531.3,-241.4 2531.3,-241.4 2537.3,-241.4 2543.3,-247.4 2543.3,-253.4 2543.3,-253.4 2543.3,-265.4 2543.3,-265.4 2543.3,-271.4 2537.3,-277.4 2531.3,-277.4"/>
<text text-anchor="start" x="2302.9" y="-255.5" font-family="Times,serif" font-weight="bold" font-size="14.00">10: </text>
<text text-anchor="start" x="2322.9" y="-255.5" font-family="Times,serif" font-size="14.00">Passt die OBIS-Kennzahl zum ZRT?</text>
</g>
<!-- 9&#45;&gt;10 -->
<g id="edge19" class="edge">
<title>9-&gt;10</title>
<path fill="none" stroke="black" d="M2274.63,-355.42C2303.19,-336.21 2349.44,-305.1 2381.2,-283.74"/>
<polygon fill="black" stroke="black" points="2382.8,-286.21 2389.14,-277.72 2378.89,-280.4 2382.8,-286.21"/>
<text text-anchor="middle" x="2348.4" y="-311.66" font-family="Times,serif" font-size="14.00">Ja</text>
</g>
<!-- A10 -->
<g id="node21" class="node">
<title>A10</title>
<polygon fill="#cfb986" stroke="black" points="2391.64,-175.84 2272.16,-175.84 2272.16,-114.32 2391.64,-114.32 2391.64,-175.84"/>
<text text-anchor="start" x="2319.9" y="-157.78" font-family="Times,serif" font-weight="bold" font-size="14.00">A10</text>
<text text-anchor="start" x="2284.4" y="-145.68" font-family="Times,serif" text-decoration="underline" font-size="12.00">Hinweis:</text>
<text text-anchor="start" x="2284.4" y="-133.68" font-family="Times,serif" font-size="12.00">Cluster: Ablehnung</text>
<text text-anchor="start" x="2284.4" y="-121.68" font-family="Times,serif" font-size="12.00">OBIS nicht passend</text>
</g>
<!-- 10&#45;&gt;A10 -->
<g id="edge20" class="edge">
<title>10-&gt;A10</title>
<path fill="none" stroke="black" d="M2403.14,-241.34C2391.92,-226.33 2375.16,-203.93 2360.72,-184.62"/>
<polygon fill="black" stroke="black" points="2363.07,-182.91 2354.28,-177 2357.46,-187.11 2363.07,-182.91"/>
<text text-anchor="middle" x="2393.4" y="-197.34" font-family="Times,serif" font-size="14.00">Nein</text>
</g>
<!-- 11 -->
<g id="node22" class="node">
<title>11</title>
<path fill="#7aab8a" stroke="black" d="M2819.8,-163.08C2819.8,-163.08 2422,-163.08 2422,-163.08 2416,-163.08 2410,-157.08 2410,-151.08 2410,-151.08 2410,-139.08 2410,-139.08 2410,-133.08 2416,-127.08 2422,-127.08 2422,-127.08 2819.8,-127.08 2819.8,-127.08 2825.8,-127.08 2831.8,-133.08 2831.8,-139.08 2831.8,-139.08 2831.8,-151.08 2831.8,-151.08 2831.8,-157.08 2825.8,-163.08 2819.8,-163.08"/>
<text text-anchor="start" x="2424.4" y="-141.18" font-family="Times,serif" font-weight="bold" font-size="14.00">11: </text>
<text text-anchor="start" x="2444.4" y="-141.18" font-family="Times,serif" font-size="14.00">Ist der MaBiS-ZP zum Zeitpunkt der Aktivierung bereits aktiviert?</text>
</g>
<!-- 10&#45;&gt;11 -->
<g id="edge21" class="edge">
<title>10-&gt;11</title>
<path fill="none" stroke="black" d="M2447.48,-241.1C2483,-221.64 2540.79,-189.97 2579.79,-168.6"/>
<polygon fill="black" stroke="black" points="2581.19,-171.28 2588.28,-163.4 2577.83,-165.14 2581.19,-171.28"/>
<text text-anchor="middle" x="2536.4" y="-197.34" font-family="Times,serif" font-size="14.00">Ja</text>
</g>
<!-- A11 -->
<g id="node23" class="node">
<title>A11</title>
<polygon fill="#cfb986" stroke="black" points="2613.14,-61.52 2458.66,-61.52 2458.66,0 2613.14,0 2613.14,-61.52"/>
<text text-anchor="start" x="2523.9" y="-43.46" font-family="Times,serif" font-weight="bold" font-size="14.00">A11</text>
<text text-anchor="start" x="2470.9" y="-31.36" font-family="Times,serif" text-decoration="underline" font-size="12.00">Hinweis:</text>
<text text-anchor="start" x="2470.9" y="-19.36" font-family="Times,serif" font-size="12.00">Cluster: Ablehnung</text>
<text text-anchor="start" x="2470.9" y="-7.36" font-family="Times,serif" font-size="12.00">MaBiS-ZP bereits aktiviert</text>
</g>
<!-- 11&#45;&gt;A11 -->
<g id="edge22" class="edge">
<title>11-&gt;A11</title>
<path fill="none" stroke="black" d="M2607.99,-127.02C2596.63,-112.01 2579.68,-89.61 2565.07,-70.3"/>
<polygon fill="black" stroke="black" points="2567.37,-68.54 2558.54,-62.68 2561.79,-72.77 2567.37,-68.54"/>
<text text-anchor="middle" x="2589.4" y="-83.02" font-family="Times,serif" font-size="14.00">Ja</text>
</g>
<!-- A12 -->
<g id="node24" class="node">
<title>A12</title>
<polygon fill="#cfb986" stroke="black" points="2778.64,-61.52 2631.16,-61.52 2631.16,0 2778.64,0 2778.64,-61.52"/>
<text text-anchor="start" x="2692.9" y="-43.46" font-family="Times,serif" font-weight="bold" font-size="14.00">A12</text>
<text text-anchor="start" x="2643.4" y="-31.36" font-family="Times,serif" text-decoration="underline" font-size="12.00">Hinweis:</text>
<text text-anchor="start" x="2643.4" y="-19.36" font-family="Times,serif" font-size="12.00">Cluster: Zustimmung</text>
<text text-anchor="start" x="2643.4" y="-7.36" font-family="Times,serif" font-size="12.00">Aktivierung durchgef&#252;hrt</text>
</g>
<!-- 11&#45;&gt;A12 -->
<g id="edge23" class="edge">
<title>11-&gt;A12</title>
<path fill="none" stroke="black" d="M2633.66,-127.02C2644.88,-112.01 2661.64,-89.61 2676.08,-70.3"/>
<polygon fill="black" stroke="black" points="2679.34,-72.79 2682.52,-62.68 2673.73,-68.59 2679.34,-72.79"/>
<text text-anchor="middle" x="2682.4" y="-83.02" font-family="Times,serif" font-size="14.00">Nein</text>
</g>
</g>
</svg>
  </g>
</svg>
  </g>
</svg>
