<?xml version='1.0' encoding='ASCII' standalone='yes'?>
<svg xmlns="http://www.w3.org/2000/svg" xmlns:xlink="http://www.w3.org/1999/xlink" version="1.1" width="1378.6666666666667px" viewBox="0 0 1378.6666666666667 465.3333333333333" height="465.3333333333333px">
  <g>
    <svg version="1.1" width="1378.6666666666667px" viewBox="0 0 1378.6666666666667 465.3333333333333" height="465.3333333333333px">
  <polygon fill="#f3f1f6" points="0,0 1378.6666666666667,0 1378.6666666666667,465.3333333333333 0,465.3333333333333"/><g>
    <g transform="translate(503.3380672910214, 46.533333333333324) scale(1 1) translate(0, 0) scale(2.1045239085637126 2.1045239085637126) "><sodipodi:namedview xmlns:sodipodi="http://sodipodi.sourceforge.net/DTD/sodipodi-0.dtd" xmlns:inkscape="http://www.inkscape.org/namespaces/inkscape" id="namedview7" pagecolor="#ffffff" bordercolor="#999999" borderopacity="1" inkscape:pageshadow="0" inkscape:pageopacity="0" inkscape:pagecheckerboard="0" inkscape:document-units="mm" showgrid="false" fit-margin-top="0" fit-margin-left="0" fit-margin-right="0" fit-margin-bottom="0" inkscape:zoom="0.64052329" inkscape:cx="130.36216" inkscape:cy="412.163" inkscape:window-width="1512" inkscape:window-height="916" inkscape:window-x="3840" inkscape:window-y="136" inkscape:window-maximized="0" inkscape:current-layer="layer1"/>
  <defs id="defs2">
    <clipPath clipPathUnits="userSpaceOnUse" id="clipPath23">
      <path d="M 0,568.156 H 579.236 V 0 H 0 Z" id="path21"/>
    </clipPath>
  </defs>
  <g xmlns:inkscape="http://www.inkscape.org/namespaces/inkscape" inkscape:label="Layer 1" inkscape:groupmode="layer" id="layer1" transform="translate(-16.541937,-55.305267)">
    <g id="g19" clip-path="url(#clipPath23)" transform="matrix(0.35277777,0,0,-0.35277777,0.01017023,243.73675)" style="opacity:0.2">
      <g id="g25" transform="translate(122.444,32.7195)">
        <path d="m 0,0 h -56.104 c -11,0 -19.898,9.123 -19.463,20.115 10.594,267.191 231.277,481.302 501.029,481.302 v -56.02 c 0,-10.98 -8.688,-19.892 -19.658,-20.393 C 180.29,414.697 0,228.005 0,0" style="fill:#6ead83;fill-opacity:0.5;fill-rule:nonzero;stroke:none" id="path27"/>
      </g>
      <g id="g29" transform="translate(273.7828,32.7195)">
        <path d="m 0,0 h -55.926 c -11.228,0 -20.091,9.482 -19.435,20.69 10.744,183.439 163.389,329.388 349.485,329.388 v -56.263 c 0,-10.709 -8.273,-19.617 -18.957,-20.35 C 112.819,263.696 0,144.774 0,0" style="fill:#6ead83;fill-opacity:0.5;fill-rule:nonzero;stroke:none" id="path31"/>
      </g>
      <g id="g33" transform="translate(425.7667,32.7195)">
        <path d="m 0,0 h -55.445 c -11.653,0 -20.604,10.17 -19.334,21.753 10.866,99.032 95.031,176.341 196.919,176.341 v -57.011 c 0,-10.046 -7.283,-18.755 -17.229,-20.165 C 45.688,112.522 0,61.497 0,0" style="fill:#6ead83;fill-opacity:0.5;fill-rule:nonzero;stroke:none" id="path35"/>
      </g>
    </g>
  </g>
</g>
    <svg width="1034pt" height="349pt" viewBox="0.00 0.00 1034.48 349.05">
<g id="graph0" class="graph" transform="scale(1 1) rotate(0) translate(4 345.05)">
<title>D</title>
<text text-anchor="start" x="479.87" y="-320.95" font-family="Times,serif" font-weight="bold" font-size="18.00">MaBiS</text>
<text text-anchor="start" x="266.49" y="-290.85" font-family="Times,serif" font-weight="bold" font-size="16.00">7.7.1: AD: &#220;bermittlung Datenstatus der Netzzeitreihe</text>
<!-- Start -->
<g id="node1" class="node">
<title>Start</title>
<polygon fill="#7a8da1" stroke="black" points="591.01,-243.05 416.72,-243.05 416.72,-199.77 591.01,-199.77 591.01,-243.05"/>
<text text-anchor="start" x="475.74" y="-222.11" font-family="Times,serif" font-weight="bold" font-size="14.00">E_0066</text>
<text text-anchor="start" x="431.12" y="-210.01" font-family="Times,serif" font-weight="bold" text-decoration="underline" font-size="12.00">Pr&#252;fende Rolle:</text>
<text text-anchor="start" x="536.12" y="-210.01" font-family="Times,serif" font-weight="bold" font-size="12.00"> BIKO</text>
</g>
<!-- 1 -->
<g id="node2" class="node">
<title>1</title>
<path fill="#7aab8a" stroke="black" d="M633.01,-162.77C633.01,-162.77 374.72,-162.77 374.72,-162.77 368.72,-162.77 362.72,-156.77 362.72,-150.77 362.72,-150.77 362.72,-138.77 362.72,-138.77 362.72,-132.77 368.72,-126.77 374.72,-126.77 374.72,-126.77 633.01,-126.77 633.01,-126.77 639.01,-126.77 645.01,-132.77 645.01,-138.77 645.01,-138.77 645.01,-150.77 645.01,-150.77 645.01,-156.77 639.01,-162.77 633.01,-162.77"/>
<text text-anchor="start" x="377.12" y="-141.09" font-family="Times,serif" font-weight="bold" font-size="14.00">1: </text>
<text text-anchor="start" x="396.62" y="-141.09" font-family="Times,serif" font-size="14.00">Ist die BKA (ohne KBKA) erfolgt?</text>
</g>
<!-- Start&#45;&gt;1 -->
<g id="edge1" class="edge">
<title>Start-&gt;1</title>
<path fill="none" stroke="black" d="M503.87,-199.62C503.87,-191.76 503.87,-182.68 503.87,-174.24"/>
<polygon fill="black" stroke="black" points="507.37,-174.44 503.87,-164.44 500.37,-174.44 507.37,-174.44"/>
</g>
<!-- A03 -->
<g id="node3" class="node">
<title>A03</title>
<polygon fill="#cfb986" stroke="black" points="485.73,-67.52 0,-67.52 0,-6 485.73,-6 485.73,-67.52"/>
<text text-anchor="start" x="227.87" y="-49.46" font-family="Times,serif" font-weight="bold" font-size="14.00">A03</text>
<text text-anchor="start" x="12.24" y="-37.36" font-family="Times,serif" text-decoration="underline" font-size="12.00">Hinweis:</text>
<text text-anchor="start" x="12.24" y="-25.36" font-family="Times,serif" font-size="12.00">Datenstatus &#8222;Abgerechnete Daten&#8220; f&#252;r die h&#246;chste Version der NZR mit dem</text>
<text text-anchor="start" x="12.24" y="-13.36" font-family="Times,serif" font-size="12.00">Datenstatus &#8222;Abrechnungsdaten&#8220; in diesem Bilanzierungs-monat.</text>
</g>
<!-- 1&#45;&gt;A03 -->
<g id="edge2" class="edge">
<title>1-&gt;A03</title>
<path fill="none" stroke="black" d="M461.06,-126.38C424.98,-111.73 372.25,-90.31 327.66,-72.2"/>
<polygon fill="black" stroke="black" points="329.09,-69.01 318.51,-68.49 326.46,-75.49 329.09,-69.01"/>
<text text-anchor="middle" x="418.62" y="-95.47" font-family="Times,serif" font-size="14.00">Ja</text>
</g>
<!-- A06 -->
<g id="node4" class="node">
<title>A06</title>
<polygon fill="#cfb986" stroke="black" points="1026.48,-73.52 503.25,-73.52 503.25,0 1026.48,0 1026.48,-73.52"/>
<text text-anchor="start" x="749.87" y="-55.46" font-family="Times,serif" font-weight="bold" font-size="14.00">A06</text>
<text text-anchor="start" x="515.49" y="-43.36" font-family="Times,serif" text-decoration="underline" font-size="12.00">Hinweis:</text>
<text text-anchor="start" x="515.49" y="-31.36" font-family="Times,serif" font-size="12.00">Datenstatus "Abgerechnete Daten KBKA" f&#252;r die h&#246;chste Version der NZR mit dem</text>
<text text-anchor="start" x="515.49" y="-19.36" font-family="Times,serif" font-size="12.00">Datenstatus "Abgerechnete Daten" oder "Abrechnungsdaten KBKA" in diesem</text>
<text text-anchor="start" x="515.49" y="-7.36" font-family="Times,serif" font-size="12.00">Bilanzierungsmonat</text>
</g>
<!-- 1&#45;&gt;A06 -->
<g id="edge3" class="edge">
<title>1-&gt;A06</title>
<path fill="none" stroke="black" d="M546.67,-126.38C578.8,-113.33 624.13,-94.92 665.15,-78.26"/>
<polygon fill="black" stroke="black" points="666.4,-81.53 674.35,-74.52 663.77,-75.04 666.4,-81.53"/>
<text text-anchor="middle" x="642.74" y="-95.47" font-family="Times,serif" font-size="14.00">Nein</text>
</g>
</g>
</svg>
  </g>
</svg>
  </g>
</svg>
