<?xml version='1.0' encoding='ASCII' standalone='yes'?>
<svg xmlns="http://www.w3.org/2000/svg" xmlns:xlink="http://www.w3.org/1999/xlink" version="1.1" width="1520.0px" viewBox="0 0 1520.0 720.0" height="720.0px">
  <g>
    <svg version="1.1" width="1520.0px" viewBox="0 0 1520.0 720.0" height="720.0px">
  <polygon fill="#f3f1f6" points="0,0 1520.0,0 1520.0,720.0 0,720.0"/><g>
    <g transform="translate(472.21362847321353, 71.99999999999999) scale(1 1) translate(0, 0) scale(3.256283411531246 3.256283411531246) "><sodipodi:namedview xmlns:sodipodi="http://sodipodi.sourceforge.net/DTD/sodipodi-0.dtd" xmlns:inkscape="http://www.inkscape.org/namespaces/inkscape" id="namedview7" pagecolor="#ffffff" bordercolor="#999999" borderopacity="1" inkscape:pageshadow="0" inkscape:pageopacity="0" inkscape:pagecheckerboard="0" inkscape:document-units="mm" showgrid="false" fit-margin-top="0" fit-margin-left="0" fit-margin-right="0" fit-margin-bottom="0" inkscape:zoom="0.64052329" inkscape:cx="130.36216" inkscape:cy="412.163" inkscape:window-width="1512" inkscape:window-height="916" inkscape:window-x="3840" inkscape:window-y="136" inkscape:window-maximized="0" inkscape:current-layer="layer1"/>
  <defs id="defs2">
    <clipPath clipPathUnits="userSpaceOnUse" id="clipPath23">
      <path d="M 0,568.156 H 579.236 V 0 H 0 Z" id="path21"/>
    </clipPath>
  </defs>
  <g xmlns:inkscape="http://www.inkscape.org/namespaces/inkscape" inkscape:label="Layer 1" inkscape:groupmode="layer" id="layer1" transform="translate(-16.541937,-55.305267)">
    <g id="g19" clip-path="url(#clipPath23)" transform="matrix(0.35277777,0,0,-0.35277777,0.01017023,243.73675)" style="opacity:0.2">
      <g id="g25" transform="translate(122.444,32.7195)">
        <path d="m 0,0 h -56.104 c -11,0 -19.898,9.123 -19.463,20.115 10.594,267.191 231.277,481.302 501.029,481.302 v -56.02 c 0,-10.98 -8.688,-19.892 -19.658,-20.393 C 180.29,414.697 0,228.005 0,0" style="fill:#6ead83;fill-opacity:1;fill-rule:nonzero;stroke:none" id="path27"/>
      </g>
      <g id="g29" transform="translate(273.7828,32.7195)">
        <path d="m 0,0 h -55.926 c -11.228,0 -20.091,9.482 -19.435,20.69 10.744,183.439 163.389,329.388 349.485,329.388 v -56.263 c 0,-10.709 -8.273,-19.617 -18.957,-20.35 C 112.819,263.696 0,144.774 0,0" style="fill:#6ead83;fill-opacity:1;fill-rule:nonzero;stroke:none" id="path31"/>
      </g>
      <g id="g33" transform="translate(425.7667,32.7195)">
        <path d="m 0,0 h -55.445 c -11.653,0 -20.604,10.17 -19.334,21.753 10.866,99.032 95.031,176.341 196.919,176.341 v -57.011 c 0,-10.046 -7.283,-18.755 -17.229,-20.165 C 45.688,112.522 0,61.497 0,0" style="fill:#6ead83;fill-opacity:1;fill-rule:nonzero;stroke:none" id="path35"/>
      </g>
    </g>
  </g>
</g>
    <svg width="1140pt" height="540pt" viewBox="0.00 0.00 1140.14 539.72">
<g id="graph0" class="graph" transform="scale(1 1) rotate(0) translate(4 535.72)">
<title>D</title>
<text text-anchor="start" x="540.57" y="-511.62" font-family="Times,serif" font-weight="bold" font-size="18.00">MaBiS</text>
<text text-anchor="start" x="256.57" y="-481.52" font-family="Times,serif" font-weight="bold" font-size="16.00">7.51.2: AD: &#220;bermittlung Datenstatus des Deltazeitreihen&#252;bertrags vom BIKO an &#220;NB und NB</text>
<!-- Start -->
<g id="node1" class="node">
<title>Start</title>
<polygon fill="#7a8da1" stroke="black" points="333.14,-433.72 197.34,-433.72 197.34,-390.44 333.14,-390.44 333.14,-433.72"/>
<text text-anchor="start" x="243.74" y="-412.78" font-family="Times,serif" font-weight="bold" font-size="14.00">E_0060</text>
<text text-anchor="start" x="211.74" y="-400.68" font-family="Times,serif" font-weight="bold" text-decoration="underline" font-size="12.00">Pr&#252;fende Rolle:</text>
<text text-anchor="start" x="286.74" y="-400.68" font-family="Times,serif" font-weight="bold" font-size="12.00"> BIKO</text>
</g>
<!-- 1 -->
<g id="node2" class="node">
<title>1</title>
<path fill="#7aab8a" stroke="black" d="M397.64,-353.44C397.64,-353.44 132.84,-353.44 132.84,-353.44 126.84,-353.44 120.84,-347.44 120.84,-341.44 120.84,-341.44 120.84,-329.44 120.84,-329.44 120.84,-323.44 126.84,-317.44 132.84,-317.44 132.84,-317.44 397.64,-317.44 397.64,-317.44 403.64,-317.44 409.64,-323.44 409.64,-329.44 409.64,-329.44 409.64,-341.44 409.64,-341.44 409.64,-347.44 403.64,-353.44 397.64,-353.44"/>
<text text-anchor="start" x="135.24" y="-331.54" font-family="Times,serif" font-weight="bold" font-size="14.00">1: </text>
<text text-anchor="start" x="148.24" y="-331.54" font-family="Times,serif" font-size="14.00">Ist die eingegangene Pr&#252;fmitteilung positiv?</text>
</g>
<!-- Start&#45;&gt;1 -->
<g id="edge1" class="edge">
<title>Start-&gt;1</title>
<path fill="none" stroke="black" d="M265.24,-390.29C265.24,-382.25 265.24,-372.93 265.24,-364.33"/>
<polygon fill="black" stroke="black" points="268.74,-364.6 265.24,-354.6 261.74,-364.6 268.74,-364.6"/>
</g>
<!-- A** -->
<g id="node3" class="node">
<title>A**</title>
<polygon fill="#cfb986" stroke="black" points="498.48,-175.84 0,-175.84 0,-102.32 498.48,-102.32 498.48,-175.84"/>
<text text-anchor="start" x="237.24" y="-157.78" font-family="Times,serif" font-weight="bold" font-size="14.00">A**</text>
<text text-anchor="start" x="12.24" y="-145.68" font-family="Times,serif" text-decoration="underline" font-size="12.00">Hinweis:</text>
<text text-anchor="start" x="12.24" y="-133.68" font-family="Times,serif" font-size="12.00">Hinweis: A** wird durch richtigen Code aus dem System des BIKO ersetzt. M&#246;gliche Codes sind:</text>
<text text-anchor="start" x="12.24" y="-121.68" font-family="Times,serif" font-size="12.00">A01Datenstatus &#8222;Abrechnungsdaten&#8220;</text>
<text text-anchor="start" x="12.24" y="-109.68" font-family="Times,serif" font-size="12.00">A04Datenstatus &#8222;Abrechnungsdaten KBKA&#8220;</text>
</g>
<!-- 1&#45;&gt;A** -->
<g id="edge2" class="edge">
<title>1-&gt;A**</title>
<path fill="none" stroke="black" d="M263.35,-316.95C261.86,-302.84 259.78,-282.48 258.24,-264.64 256.02,-238.91 253.92,-210.15 252.3,-186.75"/>
<polygon fill="black" stroke="black" points="255.75,-186.81 251.57,-177.08 248.76,-187.29 255.75,-186.81"/>
<text text-anchor="middle" x="271.74" y="-241.74" font-family="Times,serif" font-size="14.00">Nein</text>
</g>
<!-- 2 -->
<g id="node4" class="node">
<title>2</title>
<path fill="#7aab8a" stroke="black" d="M542.64,-264.64C542.64,-264.64 305.84,-264.64 305.84,-264.64 299.84,-264.64 293.84,-258.64 293.84,-252.64 293.84,-252.64 293.84,-240.64 293.84,-240.64 293.84,-234.64 299.84,-228.64 305.84,-228.64 305.84,-228.64 542.64,-228.64 542.64,-228.64 548.64,-228.64 554.64,-234.64 554.64,-240.64 554.64,-240.64 554.64,-252.64 554.64,-252.64 554.64,-258.64 548.64,-264.64 542.64,-264.64"/>
<text text-anchor="start" x="308.24" y="-242.74" font-family="Times,serif" font-weight="bold" font-size="14.00">2: </text>
<text text-anchor="start" x="322.24" y="-242.74" font-family="Times,serif" font-size="14.00">Liegt der Datenstatus &#8222;Pr&#252;fdaten&#8220; vor?</text>
</g>
<!-- 1&#45;&gt;2 -->
<g id="edge3" class="edge">
<title>1-&gt;2</title>
<path fill="none" stroke="black" d="M297.03,-317.08C321.65,-303.64 355.95,-284.92 382.73,-270.3"/>
<polygon fill="black" stroke="black" points="384.13,-272.98 391.23,-265.12 380.77,-266.83 384.13,-272.98"/>
<text text-anchor="middle" x="364.74" y="-286.14" font-family="Times,serif" font-size="14.00">Ja</text>
</g>
<!-- 2&#45;&gt;A** -->
<g id="edge4" class="edge">
<title>2-&gt;A**</title>
<path fill="none" stroke="black" d="M395.34,-228.21C374.41,-215.58 345.21,-197.97 318.4,-181.8"/>
<polygon fill="black" stroke="black" points="320.41,-178.32 310.04,-176.15 316.8,-184.31 320.41,-178.32"/>
<text text-anchor="middle" x="376.74" y="-197.34" font-family="Times,serif" font-size="14.00">Nein</text>
</g>
<!-- 3 -->
<g id="node5" class="node">
<title>3</title>
<path fill="#7aab8a" stroke="black" d="M1120.14,-157.08C1120.14,-157.08 528.34,-157.08 528.34,-157.08 522.34,-157.08 516.34,-151.08 516.34,-145.08 516.34,-145.08 516.34,-133.08 516.34,-133.08 516.34,-127.08 522.34,-121.08 528.34,-121.08 528.34,-121.08 1120.14,-121.08 1120.14,-121.08 1126.14,-121.08 1132.14,-127.08 1132.14,-133.08 1132.14,-133.08 1132.14,-145.08 1132.14,-145.08 1132.14,-151.08 1126.14,-157.08 1120.14,-157.08"/>
<text text-anchor="start" x="530.74" y="-135.18" font-family="Times,serif" font-weight="bold" font-size="14.00">3: </text>
<text text-anchor="start" x="544.74" y="-135.18" font-family="Times,serif" font-size="14.00">Erfolgt der Eingang der Pr&#252;fmitteilung innerhalb der Clearingphase f&#252;r DZ&#220; der BKA (ohne KBKA)?</text>
</g>
<!-- 2&#45;&gt;3 -->
<g id="edge5" class="edge">
<title>2-&gt;3</title>
<path fill="none" stroke="black" d="M490.29,-228.21C561.08,-209.53 673.29,-179.92 747.83,-160.24"/>
<polygon fill="black" stroke="black" points="748.31,-163.47 757.09,-157.54 746.53,-156.7 748.31,-163.47"/>
<text text-anchor="middle" x="618.74" y="-197.34" font-family="Times,serif" font-size="14.00">Ja</text>
</g>
<!-- A01 -->
<g id="node6" class="node">
<title>A01</title>
<polygon fill="#cfb986" stroke="black" points="805.98,-49.52 622.5,-49.52 622.5,0 805.98,0 805.98,-49.52"/>
<text text-anchor="start" x="702.24" y="-31.46" font-family="Times,serif" font-weight="bold" font-size="14.00">A01</text>
<text text-anchor="start" x="634.74" y="-19.36" font-family="Times,serif" text-decoration="underline" font-size="12.00">Hinweis:</text>
<text text-anchor="start" x="634.74" y="-7.36" font-family="Times,serif" font-size="12.00">Datenstatus &#8222;Abrechnungsdaten&#8220;</text>
</g>
<!-- 3&#45;&gt;A01 -->
<g id="edge6" class="edge">
<title>3-&gt;A01</title>
<path fill="none" stroke="black" d="M807.53,-121.02C791.01,-104.15 765.34,-77.94 745.1,-57.28"/>
<polygon fill="black" stroke="black" points="748.14,-55.36 738.65,-50.66 743.14,-60.25 748.14,-55.36"/>
<text text-anchor="middle" x="774.74" y="-71.02" font-family="Times,serif" font-size="14.00">Ja</text>
</g>
<!-- A04 -->
<g id="node7" class="node">
<title>A04</title>
<polygon fill="#cfb986" stroke="black" points="1044.48,-49.52 824,-49.52 824,0 1044.48,0 1044.48,-49.52"/>
<text text-anchor="start" x="922.24" y="-31.46" font-family="Times,serif" font-weight="bold" font-size="14.00">A04</text>
<text text-anchor="start" x="836.24" y="-19.36" font-family="Times,serif" text-decoration="underline" font-size="12.00">Hinweis:</text>
<text text-anchor="start" x="836.24" y="-7.36" font-family="Times,serif" font-size="12.00">Datenstatus &#8222;Abrechnungsdaten KBKA&#8220;</text>
</g>
<!-- 3&#45;&gt;A04 -->
<g id="edge7" class="edge">
<title>3-&gt;A04</title>
<path fill="none" stroke="black" d="M840.95,-121.02C857.47,-104.15 883.14,-77.94 903.38,-57.28"/>
<polygon fill="black" stroke="black" points="905.34,-60.25 909.83,-50.66 900.34,-55.36 905.34,-60.25"/>
<text text-anchor="middle" x="906.74" y="-71.02" font-family="Times,serif" font-size="14.00">Nein</text>
</g>
</g>
</svg>
  </g>
</svg>
  </g>
</svg>
