<?xml version='1.0' encoding='ASCII' standalone='yes'?>
<svg xmlns="http://www.w3.org/2000/svg" xmlns:xlink="http://www.w3.org/1999/xlink" version="1.1" width="1764.0px" viewBox="0 0 1764.0 981.3333333333334" height="981.3333333333334px">
  <g>
    <svg version="1.1" width="1764.0px" viewBox="0 0 1764.0 981.3333333333334" height="981.3333333333334px">
  <rect fill="#e7e6e5" x="0" y="0" width="1764.0" height="981.3333333333334" rx="20" ry="20"/><g>
    <g transform="translate(481.8116586876935, 98.13333333333331) scale(1 1) translate(0, 0) scale(1.381770393316437 1.381770393316437) "><!-- note that I manually added the width and height attribute to the root node
  https://chatgpt.com/share/678e3028-70cc-800b-a296-782714735772
  -->
  <defs>
    <style>.cls-1{fill:#fff;}</style>
  </defs>
  <path class="cls-1" d="M122.44,531.2h-56.1c-11,0-19.9-9.12-19.46-20.11C57.47,243.89,278.15,29.78,547.91,29.78v56.02c0,10.98-8.69,19.89-19.66,20.39-225.51,10.31-405.8,197-405.8,425Z"/>
  <path class="cls-1" d="M273.78,531.2h-55.93c-11.23,0-20.09-9.48-19.43-20.69,10.74-183.44,163.39-329.39,349.48-329.39v56.26c0,10.71-8.27,19.62-18.96,20.35-142.35,9.77-255.17,128.69-255.17,273.46Z"/>
  <path class="cls-1" d="M425.77,531.2h-55.45c-11.65,0-20.6-10.17-19.33-21.75,10.87-99.03,95.03-176.34,196.92-176.34v57.01c0,10.05-7.28,18.75-17.23,20.16-59.22,8.4-104.91,59.42-104.91,120.92Z"/>
</g>
    <svg width="1323pt" height="736pt" viewBox="0.00 0.00 1323.02 736.13">
<g id="graph0" class="graph" transform="scale(1 1) rotate(0) translate(4 732.13)">
<title>D</title>
<text text-anchor="start" x="294.88" y="-708.03" font-family="Roboto, sans-serif" font-weight="bold" font-size="18.00">MaBiS</text>
<text text-anchor="start" x="294.88" y="-677.93" font-family="Roboto, sans-serif" font-weight="bold" font-size="16.00">7.49.1: AD: &#220;bermittlung des Deltazeitreihen&#252;bertrags vom &#220;NB an BIKO und NB</text>
<!-- Start -->
<g id="node1" class="node">
<title>Start</title>
<path fill="#8ba2d7" stroke="black" stroke-width="0" d="M405.51,-630.13C405.51,-630.13 259.72,-630.13 259.72,-630.13 253.72,-630.13 247.72,-624.13 247.72,-618.13 247.72,-618.13 247.72,-598.85 247.72,-598.85 247.72,-592.85 253.72,-586.85 259.72,-586.85 259.72,-586.85 405.51,-586.85 405.51,-586.85 411.51,-586.85 417.51,-592.85 417.51,-598.85 417.51,-598.85 417.51,-618.13 417.51,-618.13 417.51,-624.13 411.51,-630.13 405.51,-630.13"/>
<text text-anchor="start" x="262.12" y="-609.19" font-family="Roboto, sans-serif" font-weight="bold" font-size="14.00">E_0029</text>
<text text-anchor="start" x="262.12" y="-597.09" font-family="Roboto, sans-serif" font-weight="bold" text-decoration="underline" font-size="12.00">Pr&#252;fende Rolle:</text>
<text text-anchor="start" x="365.62" y="-597.09" font-family="Roboto, sans-serif" font-weight="bold" font-size="12.00"> BIKO</text>
</g>
<!-- 1 -->
<g id="node2" class="node">
<title>1</title>
<path fill="#c2cee9" stroke="black" stroke-width="0" d="M594.14,-549.85C594.14,-549.85 71.09,-549.85 71.09,-549.85 65.09,-549.85 59.09,-543.85 59.09,-537.85 59.09,-537.85 59.09,-525.85 59.09,-525.85 59.09,-519.85 65.09,-513.85 71.09,-513.85 71.09,-513.85 594.14,-513.85 594.14,-513.85 600.14,-513.85 606.14,-519.85 606.14,-525.85 606.14,-525.85 606.14,-537.85 606.14,-537.85 606.14,-543.85 600.14,-549.85 594.14,-549.85"/>
<text text-anchor="start" x="73.49" y="-528.17" font-family="Roboto, sans-serif" font-weight="bold" font-size="14.00">1: </text>
<text text-anchor="start" x="92.99" y="-528.17" font-family="Roboto, sans-serif" font-size="14.00">Erfolgt der Eingang der Zeitreihe innerhalb der Clearingphase f&#252;r DZ&#220;?</text>
</g>
<!-- Start&#45;&gt;1 -->
<g id="edge1" class="edge">
<title>Start-&gt;1</title>
<path fill="none" stroke="#88a0d6" d="M332.62,-587.09C332.62,-579.02 332.62,-569.61 332.62,-560.92"/>
<polygon fill="#88a0d6" stroke="#88a0d6" points="336.12,-561.21 332.62,-551.21 329.12,-561.21 336.12,-561.21"/>
</g>
<!-- A01 -->
<g id="node3" class="node">
<title>A01</title>
<path fill="#c4cac1" stroke="black" stroke-width="0" d="M325.23,-460.6C325.23,-460.6 12,-460.6 12,-460.6 6,-460.6 0,-454.6 0,-448.6 0,-448.6 0,-423.08 0,-423.08 0,-417.08 6,-411.08 12,-411.08 12,-411.08 325.23,-411.08 325.23,-411.08 331.23,-411.08 337.23,-417.08 337.23,-423.08 337.23,-423.08 337.23,-448.6 337.23,-448.6 337.23,-454.6 331.23,-460.6 325.23,-460.6"/>
<text text-anchor="start" x="12.24" y="-442.54" font-family="Roboto, sans-serif" font-weight="bold" font-size="14.00">A01</text>
<text text-anchor="start" x="12.24" y="-430.44" font-family="Roboto, sans-serif" text-decoration="underline" font-size="12.00">Hinweis:</text>
<text text-anchor="start" x="12.24" y="-418.44" font-family="Roboto, sans-serif" font-size="12.00">Eingang liegt nicht innerhalb der Clearingphase DZ&#220;</text>
</g>
<!-- 1&#45;&gt;A01 -->
<g id="edge2" class="edge">
<title>1-&gt;A01</title>
<path fill="none" stroke="#88a0d6" d="M303.3,-514.04C280.16,-500.78 247.31,-481.95 219.85,-466.21"/>
<polygon fill="#88a0d6" stroke="#88a0d6" points="221.73,-463.25 211.32,-461.32 218.25,-469.33 221.73,-463.25"/>
<text text-anchor="start" x="269.62" y="-483.55" font-family="Roboto, sans-serif" font-weight="bold" font-size="14.00">NEIN</text>
</g>
<!-- 2 -->
<g id="node4" class="node">
<title>2</title>
<path fill="#c2cee9" stroke="black" stroke-width="0" d="M824.14,-453.84C824.14,-453.84 367.09,-453.84 367.09,-453.84 361.09,-453.84 355.09,-447.84 355.09,-441.84 355.09,-441.84 355.09,-429.84 355.09,-429.84 355.09,-423.84 361.09,-417.84 367.09,-417.84 367.09,-417.84 824.14,-417.84 824.14,-417.84 830.14,-417.84 836.14,-423.84 836.14,-429.84 836.14,-429.84 836.14,-441.84 836.14,-441.84 836.14,-447.84 830.14,-453.84 824.14,-453.84"/>
<text text-anchor="start" x="369.49" y="-432.16" font-family="Roboto, sans-serif" font-weight="bold" font-size="14.00">2: </text>
<text text-anchor="start" x="388.99" y="-432.16" font-family="Roboto, sans-serif" font-size="14.00">Ist der MaBiS-ZP zum betrachteten Bilanzierungsmonat aktiv?</text>
</g>
<!-- 1&#45;&gt;2 -->
<g id="edge3" class="edge">
<title>1-&gt;2</title>
<path fill="none" stroke="#88a0d6" d="M379.94,-513.93C424.12,-498.14 490.16,-474.53 537.52,-457.61"/>
<polygon fill="#88a0d6" stroke="#88a0d6" points="538.57,-460.95 546.8,-454.29 536.21,-454.36 538.57,-460.95"/>
<text text-anchor="start" x="471.62" y="-483.55" font-family="Roboto, sans-serif" font-weight="bold" font-size="14.00">JA</text>
</g>
<!-- A02 -->
<g id="node5" class="node">
<title>A02</title>
<path fill="#c4cac1" stroke="black" stroke-width="0" d="M479.86,-357.83C479.86,-357.83 275.38,-357.83 275.38,-357.83 269.38,-357.83 263.38,-351.83 263.38,-345.83 263.38,-345.83 263.38,-320.31 263.38,-320.31 263.38,-314.31 269.38,-308.31 275.38,-308.31 275.38,-308.31 479.86,-308.31 479.86,-308.31 485.86,-308.31 491.86,-314.31 491.86,-320.31 491.86,-320.31 491.86,-345.83 491.86,-345.83 491.86,-351.83 485.86,-357.83 479.86,-357.83"/>
<text text-anchor="start" x="275.62" y="-339.77" font-family="Roboto, sans-serif" font-weight="bold" font-size="14.00">A02</text>
<text text-anchor="start" x="275.62" y="-327.67" font-family="Roboto, sans-serif" text-decoration="underline" font-size="12.00">Hinweis:</text>
<text text-anchor="start" x="275.62" y="-315.67" font-family="Roboto, sans-serif" font-size="12.00">Gew&#228;hlter Zeitraum nicht zul&#228;ssig</text>
</g>
<!-- 2&#45;&gt;A02 -->
<g id="edge4" class="edge">
<title>2-&gt;A02</title>
<path fill="none" stroke="#88a0d6" d="M559.13,-417.97C526.41,-402.85 477.76,-380.36 439.05,-362.47"/>
<polygon fill="#88a0d6" stroke="#88a0d6" points="440.85,-359.44 430.3,-358.43 437.91,-365.8 440.85,-359.44"/>
<text text-anchor="start" x="499.62" y="-380.78" font-family="Roboto, sans-serif" font-weight="bold" font-size="14.00">NEIN</text>
</g>
<!-- 3 -->
<g id="node6" class="node">
<title>3</title>
<path fill="#c2cee9" stroke="black" stroke-width="0" d="M1091.39,-355.71C1091.39,-355.71 521.84,-355.71 521.84,-355.71 515.84,-355.71 509.84,-349.71 509.84,-343.71 509.84,-343.71 509.84,-322.43 509.84,-322.43 509.84,-316.43 515.84,-310.43 521.84,-310.43 521.84,-310.43 1091.39,-310.43 1091.39,-310.43 1097.39,-310.43 1103.39,-316.43 1103.39,-322.43 1103.39,-322.43 1103.39,-343.71 1103.39,-343.71 1103.39,-349.71 1097.39,-355.71 1091.39,-355.71"/>
<text text-anchor="start" x="524.24" y="-334.77" font-family="Roboto, sans-serif" font-weight="bold" font-size="14.00">3: </text>
<text text-anchor="start" x="543.74" y="-334.77" font-family="Roboto, sans-serif" font-size="14.00">Wird die Frist von 2 WT vor dem erforderlichen Versand der Zeitreihe nach der</text>
<text text-anchor="start" x="524.24" y="-320.77" font-family="Roboto, sans-serif" font-size="14.00">Aktivierung eingehalten?</text>
</g>
<!-- 2&#45;&gt;3 -->
<g id="edge5" class="edge">
<title>2-&gt;3</title>
<path fill="none" stroke="#88a0d6" d="M630.93,-417.97C663.89,-402.23 713.56,-378.51 751.69,-360.3"/>
<polygon fill="#88a0d6" stroke="#88a0d6" points="752.73,-363.68 760.25,-356.21 749.72,-357.36 752.73,-363.68"/>
<text text-anchor="start" x="713.62" y="-380.78" font-family="Roboto, sans-serif" font-weight="bold" font-size="14.00">JA</text>
</g>
<!-- A03 -->
<g id="node7" class="node">
<title>A03</title>
<path fill="#c4cac1" stroke="black" stroke-width="0" d="M614.48,-255.06C614.48,-255.06 494.75,-255.06 494.75,-255.06 488.75,-255.06 482.75,-249.06 482.75,-243.06 482.75,-243.06 482.75,-217.54 482.75,-217.54 482.75,-211.54 488.75,-205.54 494.75,-205.54 494.75,-205.54 614.48,-205.54 614.48,-205.54 620.48,-205.54 626.48,-211.54 626.48,-217.54 626.48,-217.54 626.48,-243.06 626.48,-243.06 626.48,-249.06 620.48,-255.06 614.48,-255.06"/>
<text text-anchor="start" x="494.99" y="-237" font-family="Roboto, sans-serif" font-weight="bold" font-size="14.00">A03</text>
<text text-anchor="start" x="494.99" y="-224.9" font-family="Roboto, sans-serif" text-decoration="underline" font-size="12.00">Hinweis:</text>
<text text-anchor="start" x="494.99" y="-212.9" font-family="Roboto, sans-serif" font-size="12.00">Fristunterschreitung</text>
</g>
<!-- 3&#45;&gt;A03 -->
<g id="edge6" class="edge">
<title>3-&gt;A03</title>
<path fill="none" stroke="#88a0d6" d="M752.55,-310.45C715.12,-295.48 664.94,-275.42 624.47,-259.23"/>
<polygon fill="#88a0d6" stroke="#88a0d6" points="625.86,-256.02 615.27,-255.56 623.26,-262.52 625.86,-256.02"/>
<text text-anchor="start" x="695.62" y="-278.01" font-family="Roboto, sans-serif" font-weight="bold" font-size="14.00">NEIN</text>
</g>
<!-- 4 -->
<g id="node8" class="node">
<title>4</title>
<path fill="#c2cee9" stroke="black" stroke-width="0" d="M1207.01,-252.94C1207.01,-252.94 656.22,-252.94 656.22,-252.94 650.22,-252.94 644.22,-246.94 644.22,-240.94 644.22,-240.94 644.22,-219.66 644.22,-219.66 644.22,-213.66 650.22,-207.66 656.22,-207.66 656.22,-207.66 1207.01,-207.66 1207.01,-207.66 1213.01,-207.66 1219.01,-213.66 1219.01,-219.66 1219.01,-219.66 1219.01,-240.94 1219.01,-240.94 1219.01,-246.94 1213.01,-252.94 1207.01,-252.94"/>
<text text-anchor="start" x="658.62" y="-232" font-family="Roboto, sans-serif" font-weight="bold" font-size="14.00">4: </text>
<text text-anchor="start" x="678.12" y="-232" font-family="Roboto, sans-serif" font-size="14.00">Liegt die Version der Zeitreihe des MaBiS-ZP f&#252;r diesen Bilanzierungsmonat</text>
<text text-anchor="start" x="658.62" y="-218" font-family="Roboto, sans-serif" font-size="14.00">bereits vor?</text>
</g>
<!-- 3&#45;&gt;4 -->
<g id="edge7" class="edge">
<title>3-&gt;4</title>
<path fill="none" stroke="#88a0d6" d="M833.43,-310.45C851.72,-295.71 876.14,-276.02 896.05,-259.97"/>
<polygon fill="#88a0d6" stroke="#88a0d6" points="898.08,-262.83 903.67,-253.83 893.68,-257.38 898.08,-262.83"/>
<text text-anchor="start" x="875.62" y="-278.01" font-family="Roboto, sans-serif" font-weight="bold" font-size="14.00">JA</text>
</g>
<!-- A04 -->
<g id="node9" class="node">
<title>A04</title>
<path fill="#c4cac1" stroke="black" stroke-width="0" d="M644.36,-152.29C644.36,-152.29 478.88,-152.29 478.88,-152.29 472.88,-152.29 466.88,-146.29 466.88,-140.29 466.88,-140.29 466.88,-114.77 466.88,-114.77 466.88,-108.77 472.88,-102.77 478.88,-102.77 478.88,-102.77 644.36,-102.77 644.36,-102.77 650.36,-102.77 656.36,-108.77 656.36,-114.77 656.36,-114.77 656.36,-140.29 656.36,-140.29 656.36,-146.29 650.36,-152.29 644.36,-152.29"/>
<text text-anchor="start" x="479.12" y="-134.23" font-family="Roboto, sans-serif" font-weight="bold" font-size="14.00">A04</text>
<text text-anchor="start" x="479.12" y="-122.13" font-family="Roboto, sans-serif" text-decoration="underline" font-size="12.00">Hinweis:</text>
<text text-anchor="start" x="479.12" y="-110.13" font-family="Roboto, sans-serif" font-size="12.00">Zeitreihe bereits vorhanden</text>
</g>
<!-- 4&#45;&gt;A04 -->
<g id="edge8" class="edge">
<title>4-&gt;A04</title>
<path fill="none" stroke="#88a0d6" d="M852.24,-207.68C795.87,-192.33 719.82,-171.62 659.66,-155.23"/>
<polygon fill="#88a0d6" stroke="#88a0d6" points="660.64,-151.87 650.08,-152.62 658.8,-158.63 660.64,-151.87"/>
<text text-anchor="start" x="768.62" y="-175.24" font-family="Roboto, sans-serif" font-weight="bold" font-size="14.00">JA</text>
</g>
<!-- 5 -->
<g id="node10" class="node">
<title>5</title>
<path fill="#c2cee9" stroke="black" stroke-width="0" d="M1303.01,-150.17C1303.01,-150.17 686.22,-150.17 686.22,-150.17 680.22,-150.17 674.22,-144.17 674.22,-138.17 674.22,-138.17 674.22,-116.89 674.22,-116.89 674.22,-110.89 680.22,-104.89 686.22,-104.89 686.22,-104.89 1303.01,-104.89 1303.01,-104.89 1309.01,-104.89 1315.01,-110.89 1315.01,-116.89 1315.01,-116.89 1315.01,-138.17 1315.01,-138.17 1315.01,-144.17 1309.01,-150.17 1303.01,-150.17"/>
<text text-anchor="start" x="688.62" y="-129.23" font-family="Roboto, sans-serif" font-weight="bold" font-size="14.00">5: </text>
<text text-anchor="start" x="708.12" y="-129.23" font-family="Roboto, sans-serif" font-size="14.00">Ist die Version der Zeitreihe des MaBiS-ZP h&#246;her als die bisher h&#246;chste</text>
<text text-anchor="start" x="688.62" y="-115.23" font-family="Roboto, sans-serif" font-size="14.00">verarbeitete Version der Zeitreihe f&#252;r diesen Bilanzierungsmonat und diesen MaBiS-ZP?</text>
</g>
<!-- 4&#45;&gt;5 -->
<g id="edge9" class="edge">
<title>4-&gt;5</title>
<path fill="none" stroke="#88a0d6" d="M944.98,-207.93C953.83,-193.77 965.58,-174.97 975.43,-159.21"/>
<polygon fill="#88a0d6" stroke="#88a0d6" points="978.14,-161.49 980.47,-151.15 972.2,-157.78 978.14,-161.49"/>
<text text-anchor="start" x="966.62" y="-175.24" font-family="Roboto, sans-serif" font-weight="bold" font-size="14.00">NEIN</text>
</g>
<!-- A05 -->
<g id="node11" class="node">
<title>A05</title>
<path fill="#c4cac1" stroke="black" stroke-width="0" d="M1000.36,-49.52C1000.36,-49.52 852.88,-49.52 852.88,-49.52 846.88,-49.52 840.88,-43.52 840.88,-37.52 840.88,-37.52 840.88,-12 840.88,-12 840.88,-6 846.88,0 852.88,0 852.88,0 1000.36,0 1000.36,0 1006.36,0 1012.36,-6 1012.36,-12 1012.36,-12 1012.36,-37.52 1012.36,-37.52 1012.36,-43.52 1006.36,-49.52 1000.36,-49.52"/>
<text text-anchor="start" x="853.12" y="-31.46" font-family="Roboto, sans-serif" font-weight="bold" font-size="14.00">A05</text>
<text text-anchor="start" x="853.12" y="-19.36" font-family="Roboto, sans-serif" text-decoration="underline" font-size="12.00">Hinweis:</text>
<text text-anchor="start" x="853.12" y="-7.36" font-family="Roboto, sans-serif" font-size="12.00">Version nicht zugelassen</text>
</g>
<!-- 5&#45;&gt;A05 -->
<g id="edge10" class="edge">
<title>5-&gt;A05</title>
<path fill="none" stroke="#88a0d6" d="M980.19,-105.16C971.02,-91.57 958.97,-73.71 948.62,-58.38"/>
<polygon fill="#88a0d6" stroke="#88a0d6" points="951.78,-56.8 943.29,-50.47 945.98,-60.71 951.78,-56.8"/>
<text text-anchor="start" x="964.62" y="-72.47" font-family="Roboto, sans-serif" font-weight="bold" font-size="14.00">NEIN</text>
</g>
<!-- Ende -->
<g id="node12" class="node">
<title>Ende</title>
<path fill="#8ba2d7" stroke="black" stroke-width="0" d="M1082.64,-42.76C1082.64,-42.76 1042.59,-42.76 1042.59,-42.76 1036.59,-42.76 1030.59,-36.76 1030.59,-30.76 1030.59,-30.76 1030.59,-18.76 1030.59,-18.76 1030.59,-12.76 1036.59,-6.76 1042.59,-6.76 1042.59,-6.76 1082.64,-6.76 1082.64,-6.76 1088.64,-6.76 1094.64,-12.76 1094.64,-18.76 1094.64,-18.76 1094.64,-30.76 1094.64,-30.76 1094.64,-36.76 1088.64,-42.76 1082.64,-42.76"/>
<text text-anchor="middle" x="1062.62" y="-20.08" font-family="Roboto, sans-serif" font-size="14.00">Ende</text>
</g>
<!-- 5&#45;&gt;Ende -->
<g id="edge11" class="edge">
<title>5-&gt;Ende</title>
<path fill="none" stroke="#88a0d6" d="M1009.04,-105.16C1019.6,-89.51 1033.98,-68.2 1045.18,-51.6"/>
<polygon fill="#88a0d6" stroke="#88a0d6" points="1047.82,-53.94 1050.51,-43.7 1042.02,-50.03 1047.82,-53.94"/>
<text text-anchor="start" x="1032.62" y="-72.47" font-family="Roboto, sans-serif" font-weight="bold" font-size="14.00">JA</text>
</g>
</g>
</svg>
  </g>
</svg>
  </g>
</svg>
