<?xml version='1.0' encoding='ASCII' standalone='yes'?>
<svg xmlns="http://www.w3.org/2000/svg" xmlns:xlink="http://www.w3.org/1999/xlink" version="1.1" width="1482.6666666666667px" viewBox="0 0 1482.6666666666667 1920.0" height="1920.0px">
  <g>
    <svg version="1.1" width="1482.6666666666667px" viewBox="0 0 1482.6666666666667 1920.0" height="1920.0px">
  <rect fill="#e7e6e5" x="0" y="0" width="1482.6666666666667" height="1920.0" rx="20" ry="20"/><g>
    <g transform="translate(148.26666666666665, 378.2778169095137) scale(1 1) translate(0, 0) scale(2.0477407177220726 2.0477407177220726) "><!-- note that I manually added the width and height attribute to the root node
  https://chatgpt.com/share/678e3028-70cc-800b-a296-782714735772
  -->
  <defs>
    <style>.cls-1{fill:#fff;}</style>
  </defs>
  <path class="cls-1" d="M122.44,531.2h-56.1c-11,0-19.9-9.12-19.46-20.11C57.47,243.89,278.15,29.78,547.91,29.78v56.02c0,10.98-8.69,19.89-19.66,20.39-225.51,10.31-405.8,197-405.8,425Z"/>
  <path class="cls-1" d="M273.78,531.2h-55.93c-11.23,0-20.09-9.48-19.43-20.69,10.74-183.44,163.39-329.39,349.48-329.39v56.26c0,10.71-8.27,19.62-18.96,20.35-142.35,9.77-255.17,128.69-255.17,273.46Z"/>
  <path class="cls-1" d="M425.77,531.2h-55.45c-11.65,0-20.6-10.17-19.33-21.75,10.87-99.03,95.03-176.34,196.92-176.34v57.01c0,10.05-7.28,18.75-17.23,20.16-59.22,8.4-104.91,59.42-104.91,120.92Z"/>
</g>
    <svg width="1112pt" height="1440pt" viewBox="0.00 0.00 1111.67 1440.00">
<g id="graph0" class="graph" transform="scale(0.792467 0.792467) rotate(0) translate(4 1813.11)">
<title>D</title>
<text text-anchor="start" x="279.65" y="-1789.01" font-family="Roboto, sans-serif" font-weight="bold" font-size="18.00">MaBiS</text>
<text text-anchor="start" x="279.65" y="-1758.91" font-family="Roboto, sans-serif" font-weight="bold" font-size="16.00">7.18.2: AD: Austausch der Lieferantenclearingliste zwischen &#220;NB und LF (Einzelanforderung)</text>
<!-- Start -->
<g id="node1" class="node">
<title>Start</title>
<path fill="#8ba2d7" stroke="black" stroke-width="0" d="M403.3,-1711.11C403.3,-1711.11 274.75,-1711.11 274.75,-1711.11 268.75,-1711.11 262.75,-1705.11 262.75,-1699.11 262.75,-1699.11 262.75,-1679.83 262.75,-1679.83 262.75,-1673.83 268.75,-1667.83 274.75,-1667.83 274.75,-1667.83 403.3,-1667.83 403.3,-1667.83 409.3,-1667.83 415.3,-1673.83 415.3,-1679.83 415.3,-1679.83 415.3,-1699.11 415.3,-1699.11 415.3,-1705.11 409.3,-1711.11 403.3,-1711.11"/>
<text text-anchor="start" x="277.15" y="-1690.17" font-family="Roboto, sans-serif" font-weight="bold" font-size="14.00">E_0014</text>
<text text-anchor="start" x="277.15" y="-1678.07" font-family="Roboto, sans-serif" font-weight="bold" text-decoration="underline" font-size="12.00">Pr&#252;fende Rolle:</text>
<text text-anchor="start" x="380.65" y="-1678.07" font-family="Roboto, sans-serif" font-weight="bold" font-size="12.00"> LF</text>
</g>
<!-- 1 -->
<g id="node2" class="node">
<title>1</title>
<path fill="#c2cee9" stroke="black" stroke-width="0" d="M564.17,-1630.83C564.17,-1630.83 113.88,-1630.83 113.88,-1630.83 107.88,-1630.83 101.87,-1624.83 101.87,-1618.83 101.87,-1618.83 101.87,-1606.83 101.87,-1606.83 101.87,-1600.83 107.87,-1594.83 113.87,-1594.83 113.87,-1594.83 564.17,-1594.83 564.17,-1594.83 570.17,-1594.83 576.17,-1600.83 576.17,-1606.83 576.17,-1606.83 576.17,-1618.83 576.17,-1618.83 576.17,-1624.83 570.17,-1630.83 564.17,-1630.83"/>
<text text-anchor="start" x="116.27" y="-1609.16" font-family="Roboto, sans-serif" font-weight="bold" font-size="14.00">1: </text>
<text text-anchor="start" x="135.77" y="-1609.16" font-family="Roboto, sans-serif" font-size="14.00">Entspricht die G&#252;ltigkeit (Monat) dem angefragten Zeitraum?</text>
</g>
<!-- Start&#45;&gt;1 -->
<g id="edge1" class="edge">
<title>Start-&gt;1</title>
<path fill="none" stroke="#88a0d6" d="M339.02,-1668.07C339.02,-1660 339.02,-1650.59 339.02,-1641.9"/>
<polygon fill="#88a0d6" stroke="#88a0d6" points="342.53,-1642.19 339.03,-1632.19 335.53,-1642.19 342.53,-1642.19"/>
</g>
<!-- A01 -->
<g id="node3" class="node">
<title>A01</title>
<path fill="#c4cac1" stroke="black" stroke-width="0" d="M307.3,-1541.58C307.3,-1541.58 70.75,-1541.58 70.75,-1541.58 64.75,-1541.58 58.75,-1535.58 58.75,-1529.58 58.75,-1529.58 58.75,-1486.3 58.75,-1486.3 58.75,-1480.3 64.75,-1474.3 70.75,-1474.3 70.75,-1474.3 307.3,-1474.3 307.3,-1474.3 313.3,-1474.3 319.3,-1480.3 319.3,-1486.3 319.3,-1486.3 319.3,-1529.58 319.3,-1529.58 319.3,-1535.58 313.3,-1541.58 307.3,-1541.58"/>
<text text-anchor="start" x="73.15" y="-1520.64" font-family="Roboto, sans-serif" font-weight="bold" font-size="14.00">A01</text>
<text text-anchor="start" x="73.15" y="-1508.54" font-family="Roboto, sans-serif" text-decoration="underline" font-size="12.00">Hinweis:</text>
<text text-anchor="start" x="73.15" y="-1496.54" font-family="Roboto, sans-serif" font-size="12.00">Cluster: Ablehnung der gesamten Liste</text>
<text text-anchor="start" x="73.15" y="-1484.54" font-family="Roboto, sans-serif" font-size="12.00">Zeitraum nicht plausibel</text>
</g>
<!-- 1&#45;&gt;A01 -->
<g id="edge2" class="edge">
<title>1-&gt;A01</title>
<path fill="none" stroke="#88a0d6" d="M314.26,-1594.84C295.67,-1582.09 269.47,-1564.12 245.83,-1547.91"/>
<polygon fill="#88a0d6" stroke="#88a0d6" points="248.05,-1545.19 237.83,-1542.42 244.09,-1550.96 248.05,-1545.19"/>
<text text-anchor="start" x="286.02" y="-1564.53" font-family="Roboto, sans-serif" font-weight="bold" font-size="14.00">NEIN</text>
</g>
<!-- 2 -->
<g id="node4" class="node">
<title>2</title>
<path fill="#c2cee9" stroke="black" stroke-width="0" d="M746.55,-1525.94C746.55,-1525.94 349.5,-1525.94 349.5,-1525.94 343.5,-1525.94 337.5,-1519.94 337.5,-1513.94 337.5,-1513.94 337.5,-1501.94 337.5,-1501.94 337.5,-1495.94 343.5,-1489.94 349.5,-1489.94 349.5,-1489.94 746.55,-1489.94 746.55,-1489.94 752.55,-1489.94 758.55,-1495.94 758.55,-1501.94 758.55,-1501.94 758.55,-1513.94 758.55,-1513.94 758.55,-1519.94 752.55,-1525.94 746.55,-1525.94"/>
<text text-anchor="start" x="351.9" y="-1504.27" font-family="Roboto, sans-serif" font-weight="bold" font-size="14.00">2: </text>
<text text-anchor="start" x="371.4" y="-1504.27" font-family="Roboto, sans-serif" font-size="14.00">Entspricht der MaBiS-ZP dem angefragten MaBiS-ZP?</text>
</g>
<!-- 1&#45;&gt;2 -->
<g id="edge3" class="edge">
<title>1-&gt;2</title>
<path fill="none" stroke="#88a0d6" d="M373.54,-1594.84C409.19,-1577.29 464.96,-1549.83 503.82,-1530.7"/>
<polygon fill="#88a0d6" stroke="#88a0d6" points="505.03,-1534.01 512.45,-1526.45 501.93,-1527.73 505.03,-1534.01"/>
<text text-anchor="start" x="443.02" y="-1564.53" font-family="Roboto, sans-serif" font-weight="bold" font-size="14.00">JA</text>
</g>
<!-- A02 -->
<g id="node5" class="node">
<title>A02</title>
<path fill="#c4cac1" stroke="black" stroke-width="0" d="M340.05,-1421.05C340.05,-1421.05 12,-1421.05 12,-1421.05 6,-1421.05 0,-1415.05 0,-1409.05 0,-1409.05 0,-1365.77 0,-1365.77 0,-1359.77 6,-1353.77 12,-1353.77 12,-1353.77 340.05,-1353.77 340.05,-1353.77 346.05,-1353.77 352.05,-1359.77 352.05,-1365.77 352.05,-1365.77 352.05,-1409.05 352.05,-1409.05 352.05,-1415.05 346.05,-1421.05 340.05,-1421.05"/>
<text text-anchor="start" x="14.4" y="-1400.11" font-family="Roboto, sans-serif" font-weight="bold" font-size="14.00">A02</text>
<text text-anchor="start" x="14.4" y="-1388.01" font-family="Roboto, sans-serif" text-decoration="underline" font-size="12.00">Hinweis:</text>
<text text-anchor="start" x="14.4" y="-1376.01" font-family="Roboto, sans-serif" font-size="12.00">Cluster: Ablehnung der gesamten Liste</text>
<text text-anchor="start" x="14.4" y="-1364.01" font-family="Roboto, sans-serif" font-size="12.00">MaBiS-ZP entspricht nicht dem angefragten MaBiS-ZP</text>
</g>
<!-- 2&#45;&gt;A02 -->
<g id="edge4" class="edge">
<title>2-&gt;A02</title>
<path fill="none" stroke="#88a0d6" d="M494.73,-1489.96C441.33,-1472.94 357.49,-1446.23 289.2,-1424.47"/>
<polygon fill="#88a0d6" stroke="#88a0d6" points="290.42,-1421.18 279.83,-1421.48 288.29,-1427.85 290.42,-1421.18"/>
<text text-anchor="start" x="384.02" y="-1444" font-family="Roboto, sans-serif" font-weight="bold" font-size="14.00">NEIN</text>
</g>
<!-- 3 -->
<g id="node6" class="node">
<title>3</title>
<path fill="#c2cee9" stroke="black" stroke-width="0" d="M929.92,-1410.05C929.92,-1410.05 382.12,-1410.05 382.12,-1410.05 376.12,-1410.05 370.12,-1404.05 370.12,-1398.05 370.12,-1398.05 370.12,-1376.77 370.12,-1376.77 370.12,-1370.77 376.12,-1364.77 382.12,-1364.77 382.12,-1364.77 929.92,-1364.77 929.92,-1364.77 935.92,-1364.77 941.92,-1370.77 941.92,-1376.77 941.92,-1376.77 941.92,-1398.05 941.92,-1398.05 941.92,-1404.05 935.92,-1410.05 929.92,-1410.05"/>
<text text-anchor="start" x="384.52" y="-1389.11" font-family="Roboto, sans-serif" font-weight="bold" font-size="14.00">3: </text>
<text text-anchor="start" x="404.02" y="-1389.11" font-family="Roboto, sans-serif" font-size="14.00">Entspricht die Versionsangabe in der LF-CL der Versionsangabe der LF-SZR</text>
<text text-anchor="start" x="384.52" y="-1375.11" font-family="Roboto, sans-serif" font-size="14.00">(Kategorie B), zu der eine LF-CL angefordert wurde?</text>
</g>
<!-- 2&#45;&gt;3 -->
<g id="edge5" class="edge">
<title>2-&gt;3</title>
<path fill="none" stroke="#88a0d6" d="M563.5,-1489.96C580.57,-1471.23 608.35,-1440.74 629.02,-1418.05"/>
<polygon fill="#88a0d6" stroke="#88a0d6" points="631.39,-1420.64 635.54,-1410.89 626.22,-1415.93 631.39,-1420.64"/>
<text text-anchor="start" x="608.02" y="-1444" font-family="Roboto, sans-serif" font-weight="bold" font-size="14.00">JA</text>
</g>
<!-- A03 -->
<g id="node7" class="node">
<title>A03</title>
<path fill="#c4cac1" stroke="black" stroke-width="0" d="M424.3,-1300.52C424.3,-1300.52 187.75,-1300.52 187.75,-1300.52 181.75,-1300.52 175.75,-1294.52 175.75,-1288.52 175.75,-1288.52 175.75,-1245.24 175.75,-1245.24 175.75,-1239.24 181.75,-1233.24 187.75,-1233.24 187.75,-1233.24 424.3,-1233.24 424.3,-1233.24 430.3,-1233.24 436.3,-1239.24 436.3,-1245.24 436.3,-1245.24 436.3,-1288.52 436.3,-1288.52 436.3,-1294.52 430.3,-1300.52 424.3,-1300.52"/>
<text text-anchor="start" x="190.15" y="-1279.58" font-family="Roboto, sans-serif" font-weight="bold" font-size="14.00">A03</text>
<text text-anchor="start" x="190.15" y="-1267.48" font-family="Roboto, sans-serif" text-decoration="underline" font-size="12.00">Hinweis:</text>
<text text-anchor="start" x="190.15" y="-1255.48" font-family="Roboto, sans-serif" font-size="12.00">Cluster: Ablehnung der gesamten Liste</text>
<text text-anchor="start" x="190.15" y="-1243.48" font-family="Roboto, sans-serif" font-size="12.00">Version nicht zugelassen</text>
</g>
<!-- 3&#45;&gt;A03 -->
<g id="edge6" class="edge">
<title>3-&gt;A03</title>
<path fill="none" stroke="#88a0d6" d="M592.24,-1364.81C542.31,-1347.9 471.75,-1324 413.19,-1304.17"/>
<polygon fill="#88a0d6" stroke="#88a0d6" points="414.43,-1300.9 403.83,-1301 412.18,-1307.53 414.43,-1300.9"/>
<text text-anchor="start" x="501.02" y="-1323.47" font-family="Roboto, sans-serif" font-weight="bold" font-size="14.00">NEIN</text>
</g>
<!-- 4 -->
<g id="node8" class="node">
<title>4</title>
<path fill="#c2cee9" stroke="black" stroke-width="0" d="M915.8,-1284.88C915.8,-1284.88 466.25,-1284.88 466.25,-1284.88 460.25,-1284.88 454.25,-1278.88 454.25,-1272.88 454.25,-1272.88 454.25,-1260.88 454.25,-1260.88 454.25,-1254.88 460.25,-1248.88 466.25,-1248.88 466.25,-1248.88 915.8,-1248.88 915.8,-1248.88 921.8,-1248.88 927.8,-1254.88 927.8,-1260.88 927.8,-1260.88 927.8,-1272.88 927.8,-1272.88 927.8,-1278.88 921.8,-1284.88 915.8,-1284.88"/>
<text text-anchor="start" x="468.65" y="-1263.21" font-family="Roboto, sans-serif" font-weight="bold" font-size="14.00">4: </text>
<text text-anchor="start" x="488.15" y="-1263.21" font-family="Roboto, sans-serif" font-size="14.00">Ist eine erwartete Marktlokation in der LF-CL nicht enthalten?</text>
</g>
<!-- 3&#45;&gt;4 -->
<g id="edge7" class="edge">
<title>3-&gt;4</title>
<path fill="none" stroke="#88a0d6" d="M662.36,-1364.95C668.11,-1345.47 676.63,-1316.65 682.88,-1295.47"/>
<polygon fill="#88a0d6" stroke="#88a0d6" points="686.19,-1296.63 685.66,-1286.05 679.47,-1294.65 686.19,-1296.63"/>
<text text-anchor="start" x="675.02" y="-1323.47" font-family="Roboto, sans-serif" font-weight="bold" font-size="14.00">JA</text>
</g>
<!-- A04 -->
<g id="node9" class="node">
<title>A04</title>
<path fill="#c4cac1" stroke="black" stroke-width="0" d="M375.3,-1179.99C375.3,-1179.99 84.75,-1179.99 84.75,-1179.99 78.75,-1179.99 72.75,-1173.99 72.75,-1167.99 72.75,-1167.99 72.75,-1124.71 72.75,-1124.71 72.75,-1118.71 78.75,-1112.71 84.75,-1112.71 84.75,-1112.71 375.3,-1112.71 375.3,-1112.71 381.3,-1112.71 387.3,-1118.71 387.3,-1124.71 387.3,-1124.71 387.3,-1167.99 387.3,-1167.99 387.3,-1173.99 381.3,-1179.99 375.3,-1179.99"/>
<text text-anchor="start" x="87.15" y="-1159.05" font-family="Roboto, sans-serif" font-weight="bold" font-size="14.00">A04</text>
<text text-anchor="start" x="87.15" y="-1146.95" font-family="Roboto, sans-serif" text-decoration="underline" font-size="12.00">Hinweis:</text>
<text text-anchor="start" x="87.15" y="-1134.95" font-family="Roboto, sans-serif" font-size="12.00">Cluster: Korrekturliste wegen Ablehnung</text>
<text text-anchor="start" x="87.15" y="-1122.95" font-family="Roboto, sans-serif" font-size="12.00">Zus&#228;tzlicher Datensatz / erg&#228;nzte Marktlokation</text>
</g>
<!-- 4&#45;&gt;A04 -->
<g id="edge8" class="edge">
<title>4-&gt;A04</title>
<path fill="none" stroke="#88a0d6" d="M624.97,-1248.9C558.19,-1231.73 452.98,-1204.67 367.93,-1182.81"/>
<polygon fill="#88a0d6" stroke="#88a0d6" points="368.89,-1179.44 358.34,-1180.34 367.15,-1186.22 368.89,-1179.44"/>
<text text-anchor="start" x="488.02" y="-1202.94" font-family="Roboto, sans-serif" font-weight="bold" font-size="14.00">JA</text>
</g>
<!-- 5 -->
<g id="node10" class="node">
<title>5</title>
<path fill="#c2cee9" stroke="black" stroke-width="0" d="M999.17,-1168.99C999.17,-1168.99 416.88,-1168.99 416.88,-1168.99 410.88,-1168.99 404.88,-1162.99 404.88,-1156.99 404.88,-1156.99 404.88,-1135.71 404.88,-1135.71 404.88,-1129.71 410.88,-1123.71 416.88,-1123.71 416.88,-1123.71 999.17,-1123.71 999.17,-1123.71 1005.17,-1123.71 1011.17,-1129.71 1011.17,-1135.71 1011.17,-1135.71 1011.17,-1156.99 1011.17,-1156.99 1011.17,-1162.99 1005.17,-1168.99 999.17,-1168.99"/>
<text text-anchor="start" x="419.27" y="-1148.05" font-family="Roboto, sans-serif" font-weight="bold" font-size="14.00">5: </text>
<text text-anchor="start" x="438.77" y="-1148.05" font-family="Roboto, sans-serif" font-size="14.00">Ist in der LF-CL eine Marktlokation enthalten, die im Bilanzierungsmonat dem LF</text>
<text text-anchor="start" x="419.27" y="-1134.05" font-family="Roboto, sans-serif" font-size="14.00">zur Bilanzierung nicht zugeordnet ist?</text>
</g>
<!-- 4&#45;&gt;5 -->
<g id="edge9" class="edge">
<title>4-&gt;5</title>
<path fill="none" stroke="#88a0d6" d="M693.46,-1248.9C696.03,-1230.99 700.14,-1202.34 703.34,-1180.03"/>
<polygon fill="#88a0d6" stroke="#88a0d6" points="706.79,-1180.61 704.75,-1170.21 699.86,-1179.61 706.79,-1180.61"/>
<text text-anchor="start" x="700.02" y="-1202.94" font-family="Roboto, sans-serif" font-weight="bold" font-size="14.00">NEIN</text>
</g>
<!-- A05 -->
<g id="node11" class="node">
<title>A05</title>
<path fill="#c4cac1" stroke="black" stroke-width="0" d="M411.05,-1059.46C411.05,-1059.46 167,-1059.46 167,-1059.46 161,-1059.46 155,-1053.46 155,-1047.46 155,-1047.46 155,-1004.18 155,-1004.18 155,-998.18 161,-992.18 167,-992.18 167,-992.18 411.05,-992.18 411.05,-992.18 417.05,-992.18 423.05,-998.18 423.05,-1004.18 423.05,-1004.18 423.05,-1047.46 423.05,-1047.46 423.05,-1053.46 417.05,-1059.46 411.05,-1059.46"/>
<text text-anchor="start" x="169.4" y="-1038.52" font-family="Roboto, sans-serif" font-weight="bold" font-size="14.00">A05</text>
<text text-anchor="start" x="169.4" y="-1026.42" font-family="Roboto, sans-serif" text-decoration="underline" font-size="12.00">Hinweis:</text>
<text text-anchor="start" x="169.4" y="-1014.42" font-family="Roboto, sans-serif" font-size="12.00">Cluster: Korrekturliste wegen Ablehnung</text>
<text text-anchor="start" x="169.4" y="-1002.42" font-family="Roboto, sans-serif" font-size="12.00">Marktlokation falschem LF zugeordnet</text>
</g>
<!-- 5&#45;&gt;A05 -->
<g id="edge10" class="edge">
<title>5-&gt;A05</title>
<path fill="none" stroke="#88a0d6" d="M631.66,-1123.75C571.27,-1106.66 485.67,-1082.45 415.13,-1062.49"/>
<polygon fill="#88a0d6" stroke="#88a0d6" points="416.43,-1059.22 405.85,-1059.87 414.52,-1065.96 416.43,-1059.22"/>
<text text-anchor="start" x="523.02" y="-1082.41" font-family="Roboto, sans-serif" font-weight="bold" font-size="14.00">JA</text>
</g>
<!-- 6 -->
<g id="node12" class="node">
<title>6</title>
<path fill="#c2cee9" stroke="black" stroke-width="0" d="M981.17,-1043.82C981.17,-1043.82 452.88,-1043.82 452.88,-1043.82 446.88,-1043.82 440.88,-1037.82 440.88,-1031.82 440.88,-1031.82 440.88,-1019.82 440.88,-1019.82 440.88,-1013.82 446.88,-1007.82 452.88,-1007.82 452.88,-1007.82 981.17,-1007.82 981.17,-1007.82 987.17,-1007.82 993.17,-1013.82 993.17,-1019.82 993.17,-1019.82 993.17,-1031.82 993.17,-1031.82 993.17,-1037.82 987.17,-1043.82 981.17,-1043.82"/>
<text text-anchor="start" x="455.27" y="-1022.14" font-family="Roboto, sans-serif" font-weight="bold" font-size="14.00">6: </text>
<text text-anchor="start" x="474.77" y="-1022.14" font-family="Roboto, sans-serif" font-size="14.00">Ist die in der LF-CL enthaltene Marktlokation dem MaBiS-ZP zugeordnet?</text>
</g>
<!-- 5&#45;&gt;6 -->
<g id="edge11" class="edge">
<title>5-&gt;6</title>
<path fill="none" stroke="#88a0d6" d="M709.65,-1123.89C711.12,-1104.59 713.28,-1076.12 714.89,-1055"/>
<polygon fill="#88a0d6" stroke="#88a0d6" points="718.37,-1055.28 715.64,-1045.04 711.39,-1054.75 718.37,-1055.28"/>
<text text-anchor="start" x="713.02" y="-1082.41" font-family="Roboto, sans-serif" font-weight="bold" font-size="14.00">NEIN</text>
</g>
<!-- A06 -->
<g id="node13" class="node">
<title>A06</title>
<path fill="#c4cac1" stroke="black" stroke-width="0" d="M400.05,-938.93C400.05,-938.93 30,-938.93 30,-938.93 24,-938.93 18,-932.93 18,-926.93 18,-926.93 18,-883.65 18,-883.65 18,-877.65 24,-871.65 30,-871.65 30,-871.65 400.05,-871.65 400.05,-871.65 406.05,-871.65 412.05,-877.65 412.05,-883.65 412.05,-883.65 412.05,-926.93 412.05,-926.93 412.05,-932.93 406.05,-938.93 400.05,-938.93"/>
<text text-anchor="start" x="32.4" y="-917.99" font-family="Roboto, sans-serif" font-weight="bold" font-size="14.00">A06</text>
<text text-anchor="start" x="32.4" y="-905.89" font-family="Roboto, sans-serif" text-decoration="underline" font-size="12.00">Hinweis:</text>
<text text-anchor="start" x="32.4" y="-893.89" font-family="Roboto, sans-serif" font-size="12.00">Cluster: Korrekturliste wegen Ablehnung</text>
<text text-anchor="start" x="32.4" y="-881.89" font-family="Roboto, sans-serif" font-size="12.00">Zu viele Marktlokationen enthalten / entfallene Marktlokation</text>
</g>
<!-- 6&#45;&gt;A06 -->
<g id="edge12" class="edge">
<title>6-&gt;A06</title>
<path fill="none" stroke="#88a0d6" d="M645.1,-1007.84C572.16,-990.61 457.11,-963.45 364.35,-941.55"/>
<polygon fill="#88a0d6" stroke="#88a0d6" points="365.16,-938.14 354.63,-939.25 363.55,-944.96 365.16,-938.14"/>
<text text-anchor="start" x="496.02" y="-961.88" font-family="Roboto, sans-serif" font-weight="bold" font-size="14.00">NEIN</text>
</g>
<!-- 7 -->
<g id="node14" class="node">
<title>7</title>
<path fill="#c2cee9" stroke="black" stroke-width="0" d="M1004.42,-927.93C1004.42,-927.93 441.62,-927.93 441.62,-927.93 435.62,-927.93 429.62,-921.93 429.62,-915.93 429.62,-915.93 429.62,-894.65 429.62,-894.65 429.62,-888.65 435.62,-882.65 441.62,-882.65 441.62,-882.65 1004.42,-882.65 1004.42,-882.65 1010.42,-882.65 1016.42,-888.65 1016.42,-894.65 1016.42,-894.65 1016.42,-915.93 1016.42,-915.93 1016.42,-921.93 1010.42,-927.93 1004.42,-927.93"/>
<text text-anchor="start" x="444.02" y="-906.99" font-family="Roboto, sans-serif" font-weight="bold" font-size="14.00">7: </text>
<text text-anchor="start" x="463.52" y="-906.99" font-family="Roboto, sans-serif" font-size="14.00">Entspricht das Bilanzierungsgebiet dem zwischen NB und LF ausgetauschten</text>
<text text-anchor="start" x="444.02" y="-892.99" font-family="Roboto, sans-serif" font-size="14.00">Bilanzierungsgebiet?</text>
</g>
<!-- 6&#45;&gt;7 -->
<g id="edge13" class="edge">
<title>6-&gt;7</title>
<path fill="none" stroke="#88a0d6" d="M717.88,-1007.84C718.79,-989.93 720.24,-961.28 721.37,-938.97"/>
<polygon fill="#88a0d6" stroke="#88a0d6" points="724.86,-939.33 721.87,-929.17 717.87,-938.98 724.86,-939.33"/>
<text text-anchor="start" x="720.02" y="-961.88" font-family="Roboto, sans-serif" font-weight="bold" font-size="14.00">JA</text>
</g>
<!-- A07 -->
<g id="node15" class="node">
<title>A07</title>
<path fill="#c4cac1" stroke="black" stroke-width="0" d="M1001.17,-67.28C1001.17,-67.28 730.88,-67.28 730.88,-67.28 724.88,-67.28 718.88,-61.28 718.88,-55.28 718.88,-55.28 718.88,-12 718.88,-12 718.88,-6 724.88,0 730.88,0 730.88,0 1001.17,0 1001.17,0 1007.17,0 1013.17,-6 1013.17,-12 1013.17,-12 1013.17,-55.28 1013.17,-55.28 1013.17,-61.28 1007.17,-67.28 1001.17,-67.28"/>
<text text-anchor="start" x="733.27" y="-46.34" font-family="Roboto, sans-serif" font-weight="bold" font-size="14.00">A07</text>
<text text-anchor="start" x="733.27" y="-34.24" font-family="Roboto, sans-serif" text-decoration="underline" font-size="12.00">Hinweis:</text>
<text text-anchor="start" x="733.27" y="-22.24" font-family="Roboto, sans-serif" font-size="12.00">Cluster: Korrekturliste wegen Ablehnung</text>
<text text-anchor="start" x="733.27" y="-10.24" font-family="Roboto, sans-serif" font-size="12.00">Bilanzierungsrel. Daten nicht korrekt / fehlen</text>
</g>
<!-- 7&#45;&gt;A07 -->
<g id="edge14" class="edge">
<title>7-&gt;A07</title>
<path fill="none" stroke="#88a0d6" d="M587.04,-882.67C506.89,-865.95 421.02,-839.2 421.02,-801.4 421.02,-801.4 421.02,-801.4 421.02,-527.01 421.02,-501.72 416.42,-494.78 422.02,-470.12 428.89,-439.95 434.34,-432.89 451.02,-406.84 459.12,-394.2 463.26,-392.62 473.02,-381.21"/>
<path fill="none" stroke="#88a0d6" d="M473.02,-379.21C492.55,-353.57 507.3,-356.63 528.02,-331.95"/>
<path fill="none" stroke="#88a0d6" d="M528.02,-329.95C547.69,-306.53 558.62,-306.32 578.02,-282.69"/>
<path fill="none" stroke="#88a0d6" d="M578.02,-280.69C598.91,-255.25 613.82,-258.59 635.02,-233.42"/>
<path fill="none" stroke="#88a0d6" d="M635.02,-231.42C654.52,-208.28 664.83,-207.55 684.02,-184.16"/>
<path fill="none" stroke="#88a0d6" d="M684.02,-182.16C702.55,-159.58 715.13,-161.79 734.02,-139.53"/>
<path fill="none" stroke="#88a0d6" d="M734.02,-137.53C752.06,-116.28 761.42,-115.66 780.02,-94.91"/>
<path fill="none" stroke="#88a0d6" d="M780.02,-92.91C786.17,-86.05 793.28,-79.62 800.73,-73.7"/>
<polygon fill="#88a0d6" stroke="#88a0d6" points="802.51,-76.74 808.38,-67.92 798.29,-71.16 802.51,-76.74"/>
<text text-anchor="start" x="422.02" y="-475.07" font-family="Roboto, sans-serif" font-weight="bold" font-size="14.00">NEIN</text>
</g>
<!-- 8 -->
<g id="node16" class="node">
<title>8</title>
<path fill="#c2cee9" stroke="black" stroke-width="0" d="M1046.67,-818.4C1046.67,-818.4 461.38,-818.4 461.38,-818.4 455.38,-818.4 449.38,-812.4 449.38,-806.4 449.38,-806.4 449.38,-794.4 449.38,-794.4 449.38,-788.4 455.38,-782.4 461.38,-782.4 461.38,-782.4 1046.67,-782.4 1046.67,-782.4 1052.67,-782.4 1058.67,-788.4 1058.67,-794.4 1058.67,-794.4 1058.67,-806.4 1058.67,-806.4 1058.67,-812.4 1052.67,-818.4 1046.67,-818.4"/>
<text text-anchor="start" x="463.77" y="-796.73" font-family="Roboto, sans-serif" font-weight="bold" font-size="14.00">8: </text>
<text text-anchor="start" x="483.27" y="-796.73" font-family="Roboto, sans-serif" font-size="14.00">Entspricht der Bilanzkreis dem zwischen NB und LF ausgetauschten Bilanzkreis?</text>
</g>
<!-- 7&#45;&gt;8 -->
<g id="edge15" class="edge">
<title>7-&gt;8</title>
<path fill="none" stroke="#88a0d6" d="M729.45,-882.97C734.15,-867.38 740.56,-846.09 745.66,-829.17"/>
<polygon fill="#88a0d6" stroke="#88a0d6" points="748.97,-830.31 748.5,-819.73 742.27,-828.29 748.97,-830.31"/>
<text text-anchor="start" x="743.02" y="-841.35" font-family="Roboto, sans-serif" font-weight="bold" font-size="14.00">JA</text>
</g>
<!-- 8&#45;&gt;A07 -->
<g id="edge16" class="edge">
<title>8-&gt;A07</title>
<path fill="none" stroke="#88a0d6" d="M626.77,-782.46C553.19,-768.96 475.02,-746.53 475.02,-712.15 475.02,-712.15 475.02,-712.15 475.02,-527.01 475.02,-462.21 433.55,-432.61 473.02,-381.21"/>
<text text-anchor="start" x="459.02" y="-425.8" font-family="Roboto, sans-serif" font-weight="bold" font-size="14.00">NEIN</text>
</g>
<!-- 9 -->
<g id="node17" class="node">
<title>9</title>
<path fill="#c2cee9" stroke="black" stroke-width="0" d="M970.17,-729.15C970.17,-729.15 537.88,-729.15 537.88,-729.15 531.88,-729.15 525.88,-723.15 525.88,-717.15 525.88,-717.15 525.88,-705.15 525.88,-705.15 525.88,-699.15 531.88,-693.15 537.88,-693.15 537.88,-693.15 970.17,-693.15 970.17,-693.15 976.17,-693.15 982.17,-699.15 982.17,-705.15 982.17,-705.15 982.17,-717.15 982.17,-717.15 982.17,-723.15 976.17,-729.15 970.17,-729.15"/>
<text text-anchor="start" x="540.27" y="-707.48" font-family="Roboto, sans-serif" font-weight="bold" font-size="14.00">9: </text>
<text text-anchor="start" x="559.77" y="-707.48" font-family="Roboto, sans-serif" font-size="14.00">Entspricht der Bilanzierungsbeginn der Erwartung des LF?</text>
</g>
<!-- 8&#45;&gt;9 -->
<g id="edge17" class="edge">
<title>8-&gt;9</title>
<path fill="none" stroke="#88a0d6" d="M754.02,-782.58C754.02,-770.63 754.02,-754.3 754.02,-740.37"/>
<polygon fill="#88a0d6" stroke="#88a0d6" points="757.53,-740.43 754.03,-730.43 750.53,-740.43 757.53,-740.43"/>
<text text-anchor="start" x="754.02" y="-752.1" font-family="Roboto, sans-serif" font-weight="bold" font-size="14.00">JA</text>
</g>
<!-- 9&#45;&gt;A07 -->
<g id="edge18" class="edge">
<title>9-&gt;A07</title>
<path fill="none" stroke="#88a0d6" d="M600.78,-693.22C566.47,-680.51 540.02,-659.01 540.02,-622.9 540.02,-622.9 540.02,-622.9 540.02,-477.74 540.02,-412.73 488.63,-383.67 528.02,-331.95"/>
<text text-anchor="start" x="515.02" y="-376.54" font-family="Roboto, sans-serif" font-weight="bold" font-size="14.00">NEIN</text>
</g>
<!-- 10 -->
<g id="node18" class="node">
<title>10</title>
<path fill="#c2cee9" stroke="black" stroke-width="0" d="M1010.05,-639.9C1010.05,-639.9 580,-639.9 580,-639.9 574,-639.9 568,-633.9 568,-627.9 568,-627.9 568,-615.9 568,-615.9 568,-609.9 574,-603.9 580,-603.9 580,-603.9 1010.05,-603.9 1010.05,-603.9 1016.05,-603.9 1022.05,-609.9 1022.05,-615.9 1022.05,-615.9 1022.05,-627.9 1022.05,-627.9 1022.05,-633.9 1016.05,-639.9 1010.05,-639.9"/>
<text text-anchor="start" x="582.4" y="-618.23" font-family="Roboto, sans-serif" font-weight="bold" font-size="14.00">10: </text>
<text text-anchor="start" x="611.65" y="-618.23" font-family="Roboto, sans-serif" font-size="14.00">Entspricht das Bilanzierungsende der Erwartung des LF?</text>
</g>
<!-- 9&#45;&gt;10 -->
<g id="edge19" class="edge">
<title>9-&gt;10</title>
<path fill="none" stroke="#88a0d6" d="M761.93,-693.33C767.72,-681.02 775.69,-664.05 782.36,-649.86"/>
<polygon fill="#88a0d6" stroke="#88a0d6" points="785.42,-651.58 786.5,-641.04 779.08,-648.6 785.42,-651.58"/>
<text text-anchor="start" x="778.02" y="-662.85" font-family="Roboto, sans-serif" font-weight="bold" font-size="14.00">JA</text>
</g>
<!-- 10&#45;&gt;A07 -->
<g id="edge20" class="edge">
<title>10-&gt;A07</title>
<path fill="none" stroke="#88a0d6" d="M685.57,-603.97C653.72,-593.68 621.92,-577.17 601.02,-550.65 582.53,-527.18 559.61,-306.22 578.02,-282.69"/>
<text text-anchor="start" x="572.02" y="-327.27" font-family="Roboto, sans-serif" font-weight="bold" font-size="14.00">NEIN</text>
</g>
<!-- 11 -->
<g id="node19" class="node">
<title>11</title>
<path fill="#c2cee9" stroke="black" stroke-width="0" d="M1163.55,-550.65C1163.55,-550.65 622.5,-550.65 622.5,-550.65 616.5,-550.65 610.5,-544.65 610.5,-538.65 610.5,-538.65 610.5,-517.37 610.5,-517.37 610.5,-511.37 616.5,-505.37 622.5,-505.37 622.5,-505.37 1163.55,-505.37 1163.55,-505.37 1169.55,-505.37 1175.55,-511.37 1175.55,-517.37 1175.55,-517.37 1175.55,-538.65 1175.55,-538.65 1175.55,-544.65 1169.55,-550.65 1163.55,-550.65"/>
<text text-anchor="start" x="624.9" y="-529.71" font-family="Roboto, sans-serif" font-weight="bold" font-size="14.00">11: </text>
<text text-anchor="start" x="654.15" y="-529.71" font-family="Roboto, sans-serif" font-size="14.00">Entspricht das normierte Profil dem zwischen NB und LF ausgetauschten</text>
<text text-anchor="start" x="624.9" y="-515.71" font-family="Roboto, sans-serif" font-size="14.00">normierten Profil?</text>
</g>
<!-- 10&#45;&gt;11 -->
<g id="edge21" class="edge">
<title>10-&gt;11</title>
<path fill="none" stroke="#88a0d6" d="M813,-604.05C826.65,-591.25 845.75,-573.34 861.86,-558.23"/>
<polygon fill="#88a0d6" stroke="#88a0d6" points="863.97,-561.05 868.87,-551.66 859.18,-555.95 863.97,-561.05"/>
<text text-anchor="start" x="849.02" y="-573.6" font-family="Roboto, sans-serif" font-weight="bold" font-size="14.00">JA</text>
</g>
<!-- 11&#45;&gt;A07 -->
<g id="edge22" class="edge">
<title>11-&gt;A07</title>
<path fill="none" stroke="#88a0d6" d="M748.58,-505.39C716.78,-494.25 686.06,-477.44 664.02,-452.12 631.84,-415.13 605.22,-272.34 635.02,-233.42"/>
<text text-anchor="start" x="622.02" y="-278.01" font-family="Roboto, sans-serif" font-weight="bold" font-size="14.00">NEIN</text>
</g>
<!-- 12 -->
<g id="node20" class="node">
<title>12</title>
<path fill="#c2cee9" stroke="black" stroke-width="0" d="M1294.67,-452.12C1294.67,-452.12 685.38,-452.12 685.38,-452.12 679.38,-452.12 673.38,-446.12 673.38,-440.12 673.38,-440.12 673.38,-418.84 673.38,-418.84 673.38,-412.84 679.38,-406.84 685.38,-406.84 685.38,-406.84 1294.67,-406.84 1294.67,-406.84 1300.67,-406.84 1306.67,-412.84 1306.67,-418.84 1306.67,-418.84 1306.67,-440.12 1306.67,-440.12 1306.67,-446.12 1300.67,-452.12 1294.67,-452.12"/>
<text text-anchor="start" x="687.77" y="-431.18" font-family="Roboto, sans-serif" font-weight="bold" font-size="14.00">12: </text>
<text text-anchor="start" x="717.02" y="-431.18" font-family="Roboto, sans-serif" font-size="14.00">Entspricht die Versionsangabe des Profils der zwischen NB und LF ausgetauschten</text>
<text text-anchor="start" x="687.77" y="-417.18" font-family="Roboto, sans-serif" font-size="14.00">Version des Profils?</text>
</g>
<!-- 11&#45;&gt;12 -->
<g id="edge23" class="edge">
<title>11-&gt;12</title>
<path fill="none" stroke="#88a0d6" d="M914.55,-505.59C928.12,-492.09 945.8,-474.49 960.65,-459.71"/>
<polygon fill="#88a0d6" stroke="#88a0d6" points="962.87,-462.45 967.48,-452.91 957.93,-457.48 962.87,-462.45"/>
<text text-anchor="start" x="947.02" y="-475.07" font-family="Roboto, sans-serif" font-weight="bold" font-size="14.00">JA</text>
</g>
<!-- 12&#45;&gt;A07 -->
<g id="edge24" class="edge">
<title>12-&gt;A07</title>
<path fill="none" stroke="#88a0d6" d="M856.54,-406.89C794.26,-394.14 729.22,-376.08 708.02,-353.59 681.94,-325.91 660.96,-214.39 684.02,-184.16"/>
<text text-anchor="start" x="675.02" y="-228.75" font-family="Roboto, sans-serif" font-weight="bold" font-size="14.00">NEIN</text>
</g>
<!-- 13 -->
<g id="node21" class="node">
<title>13</title>
<path fill="#c2cee9" stroke="black" stroke-width="0" d="M1288.92,-353.59C1288.92,-353.59 729.12,-353.59 729.12,-353.59 723.12,-353.59 717.12,-347.59 717.12,-341.59 717.12,-341.59 717.12,-320.31 717.12,-320.31 717.12,-314.31 723.12,-308.31 729.12,-308.31 729.12,-308.31 1288.92,-308.31 1288.92,-308.31 1294.92,-308.31 1300.92,-314.31 1300.92,-320.31 1300.92,-320.31 1300.92,-341.59 1300.92,-341.59 1300.92,-347.59 1294.92,-353.59 1288.92,-353.59"/>
<text text-anchor="start" x="731.52" y="-332.65" font-family="Roboto, sans-serif" font-weight="bold" font-size="14.00">13: </text>
<text text-anchor="start" x="760.77" y="-332.65" font-family="Roboto, sans-serif" font-size="14.00">Entspricht die veranschlagte Prognosemenge (JVP) der zwischen NB und LF</text>
<text text-anchor="start" x="731.52" y="-318.65" font-family="Roboto, sans-serif" font-size="14.00">ausgetauschten Prognosemenge?</text>
</g>
<!-- 12&#45;&gt;13 -->
<g id="edge25" class="edge">
<title>12-&gt;13</title>
<path fill="none" stroke="#88a0d6" d="M994.24,-407.06C996.7,-394.56 999.85,-378.54 1002.62,-364.51"/>
<polygon fill="#88a0d6" stroke="#88a0d6" points="1006.03,-365.29 1004.53,-354.8 999.16,-363.93 1006.03,-365.29"/>
<text text-anchor="start" x="1000.02" y="-376.54" font-family="Roboto, sans-serif" font-weight="bold" font-size="14.00">JA</text>
</g>
<!-- 13&#45;&gt;A07 -->
<g id="edge26" class="edge">
<title>13-&gt;A07</title>
<path fill="none" stroke="#88a0d6" d="M863.42,-308.36C829.2,-297.25 795.37,-280.45 770.02,-255.06 732.03,-217 701.24,-182.16 734.02,-139.53"/>
<text text-anchor="start" x="722.02" y="-179.48" font-family="Roboto, sans-serif" font-weight="bold" font-size="14.00">NEIN</text>
</g>
<!-- 14 -->
<g id="node22" class="node">
<title>14</title>
<path fill="#c2cee9" stroke="black" stroke-width="0" d="M1374.93,-255.06C1374.93,-255.06 791.13,-255.06 791.13,-255.06 785.13,-255.06 779.13,-249.06 779.13,-243.06 779.13,-243.06 779.13,-221.78 779.13,-221.78 779.13,-215.78 785.13,-209.78 791.13,-209.78 791.13,-209.78 1374.93,-209.78 1374.93,-209.78 1380.93,-209.78 1386.93,-215.78 1386.93,-221.78 1386.93,-221.78 1386.93,-243.06 1386.93,-243.06 1386.93,-249.06 1380.93,-255.06 1374.93,-255.06"/>
<text text-anchor="start" x="793.53" y="-234.12" font-family="Roboto, sans-serif" font-weight="bold" font-size="14.00">14: </text>
<text text-anchor="start" x="822.78" y="-234.12" font-family="Roboto, sans-serif" font-size="14.00">Entspricht die tats&#228;chlich bilanzierte Menge der erwarteten bilanzierten Menge</text>
<text text-anchor="start" x="793.53" y="-220.12" font-family="Roboto, sans-serif" font-size="14.00">(monatlich gemessene Menge auf Basis der Summe der 1/4-h-Werten)?</text>
</g>
<!-- 13&#45;&gt;14 -->
<g id="edge27" class="edge">
<title>13-&gt;14</title>
<path fill="none" stroke="#88a0d6" d="M1025.45,-308.53C1035.51,-295.4 1048.54,-278.4 1059.67,-263.89"/>
<polygon fill="#88a0d6" stroke="#88a0d6" points="1062.42,-266.05 1065.73,-255.98 1056.87,-261.79 1062.42,-266.05"/>
<text text-anchor="start" x="1050.03" y="-278.01" font-family="Roboto, sans-serif" font-weight="bold" font-size="14.00">JA</text>
</g>
<!-- 14&#45;&gt;A07 -->
<g id="edge28" class="edge">
<title>14-&gt;A07</title>
<path fill="none" stroke="#88a0d6" d="M917.95,-209.8C821.14,-190.37 727.28,-155.32 780.02,-94.91"/>
<text text-anchor="start" x="777.02" y="-134.85" font-family="Roboto, sans-serif" font-weight="bold" font-size="14.00">NEIN</text>
</g>
<!-- 15 -->
<g id="node23" class="node">
<title>15</title>
<path fill="#c2cee9" stroke="black" stroke-width="0" d="M1382.8,-156.53C1382.8,-156.53 849.25,-156.53 849.25,-156.53 843.25,-156.53 837.25,-150.53 837.25,-144.53 837.25,-144.53 837.25,-132.53 837.25,-132.53 837.25,-126.53 843.25,-120.53 849.25,-120.53 849.25,-120.53 1382.8,-120.53 1382.8,-120.53 1388.8,-120.53 1394.8,-126.53 1394.8,-132.53 1394.8,-132.53 1394.8,-144.53 1394.8,-144.53 1394.8,-150.53 1388.8,-156.53 1382.8,-156.53"/>
<text text-anchor="start" x="851.65" y="-134.85" font-family="Roboto, sans-serif" font-weight="bold" font-size="14.00">15: </text>
<text text-anchor="start" x="880.9" y="-134.85" font-family="Roboto, sans-serif" font-size="14.00">Entspricht der Zeitreihentyp dem zwischen NB und LF ausgetauschten?</text>
</g>
<!-- 14&#45;&gt;15 -->
<g id="edge29" class="edge">
<title>14-&gt;15</title>
<path fill="none" stroke="#88a0d6" d="M1090.68,-210.11C1095.26,-197.35 1101.13,-181 1106.07,-167.24"/>
<polygon fill="#88a0d6" stroke="#88a0d6" points="1109.36,-168.46 1109.44,-157.86 1102.77,-166.09 1109.36,-168.46"/>
<text text-anchor="start" x="1103.03" y="-179.48" font-family="Roboto, sans-serif" font-weight="bold" font-size="14.00">JA</text>
</g>
<!-- 15&#45;&gt;A07 -->
<g id="edge30" class="edge">
<title>15-&gt;A07</title>
<path fill="none" stroke="#88a0d6" d="M1074.74,-120.54C1042.46,-107.26 996.4,-88.3 955.76,-71.57"/>
<polygon fill="#88a0d6" stroke="#88a0d6" points="957.26,-68.4 946.68,-67.84 954.6,-74.88 957.26,-68.4"/>
<text text-anchor="start" x="1028.03" y="-90.23" font-family="Roboto, sans-serif" font-weight="bold" font-size="14.00">NEIN</text>
</g>
<!-- Ende -->
<g id="node24" class="node">
<title>Ende</title>
<path fill="#8ba2d7" stroke="black" stroke-width="0" d="M1136.05,-51.64C1136.05,-51.64 1096,-51.64 1096,-51.64 1090,-51.64 1084,-45.64 1084,-39.64 1084,-39.64 1084,-27.64 1084,-27.64 1084,-21.64 1090,-15.64 1096,-15.64 1096,-15.64 1136.05,-15.64 1136.05,-15.64 1142.05,-15.64 1148.05,-21.64 1148.05,-27.64 1148.05,-27.64 1148.05,-39.64 1148.05,-39.64 1148.05,-45.64 1142.05,-51.64 1136.05,-51.64"/>
<text text-anchor="middle" x="1116.03" y="-28.96" font-family="Roboto, sans-serif" font-size="14.00">Ende</text>
</g>
<!-- 15&#45;&gt;Ende -->
<g id="edge31" class="edge">
<title>15-&gt;Ende</title>
<path fill="none" stroke="#88a0d6" d="M1116.03,-120.54C1116.03,-104.81 1116.03,-81.12 1116.03,-62.6"/>
<polygon fill="#88a0d6" stroke="#88a0d6" points="1119.53,-62.83 1116.03,-52.83 1112.53,-62.83 1119.53,-62.83"/>
<text text-anchor="start" x="1116.03" y="-90.23" font-family="Roboto, sans-serif" font-weight="bold" font-size="14.00">JA</text>
</g>
</g>
</svg>
  </g>
</svg>
  </g>
</svg>
