<?xml version='1.0' encoding='ASCII' standalone='yes'?>
<svg xmlns="http://www.w3.org/2000/svg" xmlns:xlink="http://www.w3.org/1999/xlink" version="1.1" width="802.6666666666666px" viewBox="0 0 802.6666666666666 445.3333333333333" height="445.3333333333333px">
  <g>
    <svg version="1.1" width="802.6666666666666px" viewBox="0 0 802.6666666666666 445.3333333333333" height="445.3333333333333px">
  <polygon fill="#f3f1f6" points="0,0 802.6666666666666,0 802.6666666666666,445.3333333333333 0,445.3333333333333"/><g>
    <g transform="translate(219.72612409649864, 44.533333333333324) scale(1 1) translate(0, 0) scale(0.6270534121843612 0.6270534121843612) "><!-- note that I manually added the width and height attribute to the root node
  https://chatgpt.com/share/678e3028-70cc-800b-a296-782714735772
  -->
  <defs>
    <style>.cls-1{fill:#fff;}</style>
  </defs>
  <path class="cls-1" d="M122.44,531.2h-56.1c-11,0-19.9-9.12-19.46-20.11C57.47,243.89,278.15,29.78,547.91,29.78v56.02c0,10.98-8.69,19.89-19.66,20.39-225.51,10.31-405.8,197-405.8,425Z"/>
  <path class="cls-1" d="M273.78,531.2h-55.93c-11.23,0-20.09-9.48-19.43-20.69,10.74-183.44,163.39-329.39,349.48-329.39v56.26c0,10.71-8.27,19.62-18.96,20.35-142.35,9.77-255.17,128.69-255.17,273.46Z"/>
  <path class="cls-1" d="M425.77,531.2h-55.45c-11.65,0-20.6-10.17-19.33-21.75,10.87-99.03,95.03-176.34,196.92-176.34v57.01c0,10.05-7.28,18.75-17.23,20.16-59.22,8.4-104.91,59.42-104.91,120.92Z"/>
</g>
    <svg width="602pt" height="334pt" viewBox="0.00 0.00 601.55 334.33">
<g id="graph0" class="graph" transform="scale(1 1) rotate(0) translate(4 330.33)">
<title>D</title>
<text text-anchor="start" x="50.02" y="-306.23" font-family="Times,serif" font-weight="bold" font-size="18.00">MaBiS</text>
<text text-anchor="start" x="50.02" y="-276.13" font-family="Times,serif" font-weight="bold" font-size="16.00">7.7.2: AD: &#220;bermittlung Datenstatus der Netzzeitreihe</text>
<!-- Start -->
<g id="node1" class="node">
<title>Start</title>
<path fill="#7a8da1" stroke="black" stroke-width="0" d="M371.92,-228.33C371.92,-228.33 221.62,-228.33 221.62,-228.33 215.62,-228.33 209.62,-222.33 209.62,-216.33 209.62,-216.33 209.62,-197.05 209.62,-197.05 209.62,-191.05 215.62,-185.05 221.62,-185.05 221.62,-185.05 371.92,-185.05 371.92,-185.05 377.92,-185.05 383.92,-191.05 383.92,-197.05 383.92,-197.05 383.92,-216.33 383.92,-216.33 383.92,-222.33 377.92,-228.33 371.92,-228.33"/>
<text text-anchor="start" x="268.65" y="-207.39" font-family="Times,serif" font-weight="bold" font-size="14.00">E_0067</text>
<text text-anchor="start" x="224.02" y="-195.29" font-family="Times,serif" font-weight="bold" text-decoration="underline" font-size="12.00">Pr&#252;fende Rolle:</text>
<text text-anchor="start" x="329.02" y="-195.29" font-family="Times,serif" font-weight="bold" font-size="12.00"> BIKO</text>
</g>
<!-- 1 -->
<g id="node2" class="node">
<title>1</title>
<path fill="#7aab8a" stroke="black" stroke-width="0" d="M581.55,-148.05C581.55,-148.05 12,-148.05 12,-148.05 6,-148.05 0,-142.05 0,-136.05 0,-136.05 0,-114.77 0,-114.77 0,-108.77 6,-102.77 12,-102.77 12,-102.77 581.55,-102.77 581.55,-102.77 587.55,-102.77 593.55,-108.77 593.55,-114.77 593.55,-114.77 593.55,-136.05 593.55,-136.05 593.55,-142.05 587.55,-148.05 581.55,-148.05"/>
<text text-anchor="start" x="14.4" y="-127.11" font-family="Times,serif" font-weight="bold" font-size="14.00">1: </text>
<text text-anchor="start" x="33.9" y="-127.11" font-family="Times,serif" font-size="14.00">Erfolgt der Eingang der Zeitreihe vor Ablauf der Frist f&#252;r die Clearingphase</text>
<text text-anchor="start" x="14.4" y="-113.11" font-family="Times,serif" font-size="14.00">BKA (ohne KBKA)?</text>
</g>
<!-- Start&#45;&gt;1 -->
<g id="edge1" class="edge">
<title>Start-&gt;1</title>
<path fill="none" stroke="black" d="M296.77,-185.27C296.77,-177.3 296.77,-167.95 296.77,-159.09"/>
<polygon fill="black" stroke="black" points="300.28,-159.38 296.78,-149.38 293.28,-159.38 300.28,-159.38"/>
</g>
<!-- A01 -->
<g id="node3" class="node">
<title>A01</title>
<path fill="#cfb986" stroke="black" stroke-width="0" d="M265.51,-49.52C265.51,-49.52 64.03,-49.52 64.03,-49.52 58.03,-49.52 52.03,-43.52 52.03,-37.52 52.03,-37.52 52.03,-12 52.03,-12 52.03,-6 58.03,0 64.03,0 64.03,0 265.51,0 265.51,0 271.51,0 277.51,-6 277.51,-12 277.51,-12 277.51,-37.52 277.51,-37.52 277.51,-43.52 271.51,-49.52 265.51,-49.52"/>
<text text-anchor="start" x="64.27" y="-31.46" font-family="Times,serif" font-weight="bold" font-size="14.00">A01</text>
<text text-anchor="start" x="64.27" y="-19.36" font-family="Times,serif" text-decoration="underline" font-size="12.00">Hinweis:</text>
<text text-anchor="start" x="64.27" y="-7.36" font-family="Times,serif" font-size="12.00">Datenstatus &#8222;Abrechnungsdaten&#8220;</text>
</g>
<!-- 1&#45;&gt;A01 -->
<g id="edge2" class="edge">
<title>1-&gt;A01</title>
<path fill="none" stroke="#7aab8a" d="M268.13,-103C249.72,-89.24 225.53,-71.16 205.18,-55.95"/>
<polygon fill="#7aab8a" stroke="#7aab8a" points="207.45,-53.28 197.34,-50.1 203.26,-58.89 207.45,-53.28"/>
<text text-anchor="start" x="241.77" y="-72.47" font-family="Times,serif" font-weight="bold" font-size="14.00">JA</text>
</g>
<!-- A04 -->
<g id="node4" class="node">
<title>A04</title>
<path fill="#cfb986" stroke="black" stroke-width="0" d="M548.01,-49.52C548.01,-49.52 307.53,-49.52 307.53,-49.52 301.53,-49.52 295.53,-43.52 295.53,-37.52 295.53,-37.52 295.53,-12 295.53,-12 295.53,-6 301.53,0 307.53,0 307.53,0 548.01,0 548.01,0 554.01,0 560.01,-6 560.01,-12 560.01,-12 560.01,-37.52 560.01,-37.52 560.01,-43.52 554.01,-49.52 548.01,-49.52"/>
<text text-anchor="start" x="307.77" y="-31.46" font-family="Times,serif" font-weight="bold" font-size="14.00">A04</text>
<text text-anchor="start" x="307.77" y="-19.36" font-family="Times,serif" text-decoration="underline" font-size="12.00">Hinweis:</text>
<text text-anchor="start" x="307.77" y="-7.36" font-family="Times,serif" font-size="12.00">Datenstatus &#8222;Abrechnungsdaten KBKA&#8220;</text>
</g>
<!-- 1&#45;&gt;A04 -->
<g id="edge3" class="edge">
<title>1-&gt;A04</title>
<path fill="none" stroke="#7aab8a" d="M325.2,-103C343.47,-89.24 367.48,-71.16 387.68,-55.95"/>
<polygon fill="#7aab8a" stroke="#7aab8a" points="389.57,-58.92 395.45,-50.1 385.35,-53.32 389.57,-58.92"/>
<text text-anchor="start" x="369.77" y="-72.47" font-family="Times,serif" font-weight="bold" font-size="14.00">NEIN</text>
</g>
</g>
</svg>
  </g>
</svg>
  </g>
</svg>
