<?xml version='1.0' encoding='ASCII' standalone='yes'?>
<svg xmlns="http://www.w3.org/2000/svg" xmlns:xlink="http://www.w3.org/1999/xlink" version="1.1" width="4537.333333333333px" viewBox="0 0 4537.333333333333 2125.3333333333335" height="2125.3333333333335px">
  <g>
    <svg version="1.1" width="4537.333333333333px" viewBox="0 0 4537.333333333333 2125.3333333333335" height="2125.3333333333335px">
  <polygon fill="#f3f1f6" points="0,0 4537.333333333333,0 4537.333333333333,2125.3333333333335 0,2125.3333333333335"/><g>
    <g transform="translate(1419.1639329375967, 212.5333333333333) scale(1 1) translate(0, 0) scale(9.612066218482974 9.612066218482974) "><sodipodi:namedview xmlns:sodipodi="http://sodipodi.sourceforge.net/DTD/sodipodi-0.dtd" xmlns:inkscape="http://www.inkscape.org/namespaces/inkscape" id="namedview7" pagecolor="#ffffff" bordercolor="#999999" borderopacity="1" inkscape:pageshadow="0" inkscape:pageopacity="0" inkscape:pagecheckerboard="0" inkscape:document-units="mm" showgrid="false" fit-margin-top="0" fit-margin-left="0" fit-margin-right="0" fit-margin-bottom="0" inkscape:zoom="0.64052329" inkscape:cx="130.36216" inkscape:cy="412.163" inkscape:window-width="1512" inkscape:window-height="916" inkscape:window-x="3840" inkscape:window-y="136" inkscape:window-maximized="0" inkscape:current-layer="layer1"/>
  <defs id="defs2">
    <clipPath clipPathUnits="userSpaceOnUse" id="clipPath23">
      <path d="M 0,568.156 H 579.236 V 0 H 0 Z" id="path21"/>
    </clipPath>
  </defs>
  <g xmlns:inkscape="http://www.inkscape.org/namespaces/inkscape" inkscape:label="Layer 1" inkscape:groupmode="layer" id="layer1" transform="translate(-16.541937,-55.305267)">
    <g id="g19" clip-path="url(#clipPath23)" transform="matrix(0.35277777,0,0,-0.35277777,0.01017023,243.73675)" style="opacity:0.2">
      <g id="g25" transform="translate(122.444,32.7195)">
        <path d="m 0,0 h -56.104 c -11,0 -19.898,9.123 -19.463,20.115 10.594,267.191 231.277,481.302 501.029,481.302 v -56.02 c 0,-10.98 -8.688,-19.892 -19.658,-20.393 C 180.29,414.697 0,228.005 0,0" style="fill:#6ead83;fill-opacity:1;fill-rule:nonzero;stroke:none" id="path27"/>
      </g>
      <g id="g29" transform="translate(273.7828,32.7195)">
        <path d="m 0,0 h -55.926 c -11.228,0 -20.091,9.482 -19.435,20.69 10.744,183.439 163.389,329.388 349.485,329.388 v -56.263 c 0,-10.709 -8.273,-19.617 -18.957,-20.35 C 112.819,263.696 0,144.774 0,0" style="fill:#6ead83;fill-opacity:1;fill-rule:nonzero;stroke:none" id="path31"/>
      </g>
      <g id="g33" transform="translate(425.7667,32.7195)">
        <path d="m 0,0 h -55.445 c -11.653,0 -20.604,10.17 -19.334,21.753 10.866,99.032 95.031,176.341 196.919,176.341 v -57.011 c 0,-10.046 -7.283,-18.755 -17.229,-20.165 C 45.688,112.522 0,61.497 0,0" style="fill:#6ead83;fill-opacity:1;fill-rule:nonzero;stroke:none" id="path35"/>
      </g>
    </g>
  </g>
</g>
    <svg width="3403pt" height="1594pt" viewBox="0.00 0.00 3402.80 1594.12">
<g id="graph0" class="graph" transform="scale(1 1) rotate(0) translate(4 1590.12)">
<title>D</title>
<text text-anchor="start" x="1671.9" y="-1566.02" font-family="Times,serif" font-weight="bold" font-size="18.00">MaBiS</text>
<text text-anchor="start" x="1408.9" y="-1535.92" font-family="Times,serif" font-weight="bold" font-size="16.00">7.60.1: AD: Aktivierung eines MaBiS-ZP f&#252;r die mtl. AA&#220;Z zwischen NB und BKV(LF)</text>
<!-- Start -->
<g id="node1" class="node">
<title>Start</title>
<polygon fill="#7a8da1" stroke="black" points="282.8,-1488.12 147,-1488.12 147,-1444.84 282.8,-1444.84 282.8,-1488.12"/>
<text text-anchor="start" x="193.4" y="-1467.18" font-family="Times,serif" font-weight="bold" font-size="14.00">E_0071</text>
<text text-anchor="start" x="161.4" y="-1455.08" font-family="Times,serif" font-weight="bold" text-decoration="underline" font-size="12.00">Pr&#252;fende Rolle:</text>
<text text-anchor="start" x="236.4" y="-1455.08" font-family="Times,serif" font-weight="bold" font-size="12.00"> BIKO</text>
</g>
<!-- 1 -->
<g id="node2" class="node">
<title>1</title>
<path fill="#7aab8a" stroke="black" d="M417.8,-1407.84C417.8,-1407.84 12,-1407.84 12,-1407.84 6,-1407.84 0,-1401.84 0,-1395.84 0,-1395.84 0,-1383.84 0,-1383.84 0,-1377.84 6,-1371.84 12,-1371.84 12,-1371.84 417.8,-1371.84 417.8,-1371.84 423.8,-1371.84 429.8,-1377.84 429.8,-1383.84 429.8,-1383.84 429.8,-1395.84 429.8,-1395.84 429.8,-1401.84 423.8,-1407.84 417.8,-1407.84"/>
<text text-anchor="start" x="14.4" y="-1385.94" font-family="Times,serif" font-weight="bold" font-size="14.00">1: </text>
<text text-anchor="start" x="27.4" y="-1385.94" font-family="Times,serif" font-size="14.00">Erfolgt die Aktivierung nach Ablauf der Clearingfrist f&#252;r die KBKA?</text>
</g>
<!-- Start&#45;&gt;1 -->
<g id="edge1" class="edge">
<title>Start-&gt;1</title>
<path fill="none" stroke="black" d="M214.9,-1444.69C214.9,-1436.65 214.9,-1427.33 214.9,-1418.73"/>
<polygon fill="black" stroke="black" points="218.4,-1419 214.9,-1409 211.4,-1419 218.4,-1419"/>
</g>
<!-- A01 -->
<g id="node3" class="node">
<title>A01</title>
<polygon fill="#cfb986" stroke="black" points="257.14,-1319.04 138.66,-1319.04 138.66,-1257.52 257.14,-1257.52 257.14,-1319.04"/>
<text text-anchor="start" x="185.9" y="-1300.98" font-family="Times,serif" font-weight="bold" font-size="14.00">A01</text>
<text text-anchor="start" x="150.9" y="-1288.88" font-family="Times,serif" text-decoration="underline" font-size="12.00">Hinweis:</text>
<text text-anchor="start" x="150.9" y="-1276.88" font-family="Times,serif" font-size="12.00">Cluster: Ablehnung</text>
<text text-anchor="start" x="150.9" y="-1264.88" font-family="Times,serif" font-size="12.00">Frist&#252;berschreitung</text>
</g>
<!-- 1&#45;&gt;A01 -->
<g id="edge2" class="edge">
<title>1-&gt;A01</title>
<path fill="none" stroke="black" d="M211.94,-1371.5C209.98,-1360.04 207.33,-1344.53 204.86,-1330.07"/>
<polygon fill="black" stroke="black" points="208.16,-1329.56 203.03,-1320.29 201.26,-1330.74 208.16,-1329.56"/>
<text text-anchor="middle" x="215.4" y="-1340.54" font-family="Times,serif" font-size="14.00">Ja</text>
</g>
<!-- 2 -->
<g id="node4" class="node">
<title>2</title>
<path fill="#7aab8a" stroke="black" d="M610.3,-1306.28C610.3,-1306.28 287.5,-1306.28 287.5,-1306.28 281.5,-1306.28 275.5,-1300.28 275.5,-1294.28 275.5,-1294.28 275.5,-1282.28 275.5,-1282.28 275.5,-1276.28 281.5,-1270.28 287.5,-1270.28 287.5,-1270.28 610.3,-1270.28 610.3,-1270.28 616.3,-1270.28 622.3,-1276.28 622.3,-1282.28 622.3,-1282.28 622.3,-1294.28 622.3,-1294.28 622.3,-1300.28 616.3,-1306.28 610.3,-1306.28"/>
<text text-anchor="start" x="289.9" y="-1284.38" font-family="Times,serif" font-weight="bold" font-size="14.00">2: </text>
<text text-anchor="start" x="303.9" y="-1284.38" font-family="Times,serif" font-size="14.00">Erfolgt die Aktivierung zum Monatsersten 00:00 Uhr?</text>
</g>
<!-- 1&#45;&gt;2 -->
<g id="edge3" class="edge">
<title>1-&gt;2</title>
<path fill="none" stroke="black" d="M255.93,-1371.38C295.49,-1354.55 355.46,-1329.04 398.03,-1310.92"/>
<polygon fill="black" stroke="black" points="399.09,-1313.85 406.92,-1306.72 396.35,-1307.41 399.09,-1313.85"/>
<text text-anchor="middle" x="345.4" y="-1340.54" font-family="Times,serif" font-size="14.00">Nein</text>
</g>
<!-- A02 -->
<g id="node5" class="node">
<title>A02</title>
<polygon fill="#cfb986" stroke="black" points="472.14,-1204.72 279.66,-1204.72 279.66,-1143.2 472.14,-1143.2 472.14,-1204.72"/>
<text text-anchor="start" x="363.9" y="-1186.66" font-family="Times,serif" font-weight="bold" font-size="14.00">A02</text>
<text text-anchor="start" x="291.9" y="-1174.56" font-family="Times,serif" text-decoration="underline" font-size="12.00">Hinweis:</text>
<text text-anchor="start" x="291.9" y="-1162.56" font-family="Times,serif" font-size="12.00">Cluster: Ablehnung</text>
<text text-anchor="start" x="291.9" y="-1150.56" font-family="Times,serif" font-size="12.00">Gew&#228;hlter Zeitpunkt nicht zul&#228;ssig</text>
</g>
<!-- 2&#45;&gt;A02 -->
<g id="edge4" class="edge">
<title>2-&gt;A02</title>
<path fill="none" stroke="black" d="M437.81,-1270.22C428.15,-1255.35 413.76,-1233.21 401.29,-1214.02"/>
<polygon fill="black" stroke="black" points="403.73,-1212.36 395.35,-1205.88 397.86,-1216.17 403.73,-1212.36"/>
<text text-anchor="middle" x="430.4" y="-1226.22" font-family="Times,serif" font-size="14.00">Nein</text>
</g>
<!-- 3 -->
<g id="node6" class="node">
<title>3</title>
<path fill="#7aab8a" stroke="black" d="M733.3,-1191.96C733.3,-1191.96 502.5,-1191.96 502.5,-1191.96 496.5,-1191.96 490.5,-1185.96 490.5,-1179.96 490.5,-1179.96 490.5,-1167.96 490.5,-1167.96 490.5,-1161.96 496.5,-1155.96 502.5,-1155.96 502.5,-1155.96 733.3,-1155.96 733.3,-1155.96 739.3,-1155.96 745.3,-1161.96 745.3,-1167.96 745.3,-1167.96 745.3,-1179.96 745.3,-1179.96 745.3,-1185.96 739.3,-1191.96 733.3,-1191.96"/>
<text text-anchor="start" x="504.9" y="-1170.06" font-family="Times,serif" font-weight="bold" font-size="14.00">3: </text>
<text text-anchor="start" x="518.9" y="-1170.06" font-family="Times,serif" font-size="14.00">Ist die richtige Regelzone angegeben?</text>
</g>
<!-- 2&#45;&gt;3 -->
<g id="edge5" class="edge">
<title>2-&gt;3</title>
<path fill="none" stroke="black" d="M474.94,-1269.98C503.84,-1250.77 550.65,-1219.66 582.78,-1198.3"/>
<polygon fill="black" stroke="black" points="584.44,-1200.73 590.83,-1192.28 580.57,-1194.9 584.44,-1200.73"/>
<text text-anchor="middle" x="549.4" y="-1226.22" font-family="Times,serif" font-size="14.00">Ja</text>
</g>
<!-- A03 -->
<g id="node7" class="node">
<title>A03</title>
<polygon fill="#cfb986" stroke="black" points="579.14,-1090.4 460.66,-1090.4 460.66,-1028.88 579.14,-1028.88 579.14,-1090.4"/>
<text text-anchor="start" x="507.9" y="-1072.34" font-family="Times,serif" font-weight="bold" font-size="14.00">A03</text>
<text text-anchor="start" x="472.9" y="-1060.24" font-family="Times,serif" text-decoration="underline" font-size="12.00">Hinweis:</text>
<text text-anchor="start" x="472.9" y="-1048.24" font-family="Times,serif" font-size="12.00">Cluster: Ablehnung</text>
<text text-anchor="start" x="472.9" y="-1036.24" font-family="Times,serif" font-size="12.00">Regelzone falsch</text>
</g>
<!-- 3&#45;&gt;A03 -->
<g id="edge6" class="edge">
<title>3-&gt;A03</title>
<path fill="none" stroke="black" d="M603.02,-1155.9C589.8,-1140.76 570.02,-1118.09 553.07,-1098.66"/>
<polygon fill="black" stroke="black" points="555.22,-1096.8 546.01,-1091.56 549.94,-1101.4 555.22,-1096.8"/>
<text text-anchor="middle" x="588.4" y="-1111.9" font-family="Times,serif" font-size="14.00">Nein</text>
</g>
<!-- 4 -->
<g id="node8" class="node">
<title>4</title>
<path fill="#7aab8a" stroke="black" d="M1120.8,-1077.64C1120.8,-1077.64 609,-1077.64 609,-1077.64 603,-1077.64 597,-1071.64 597,-1065.64 597,-1065.64 597,-1053.64 597,-1053.64 597,-1047.64 603,-1041.64 609,-1041.64 609,-1041.64 1120.8,-1041.64 1120.8,-1041.64 1126.8,-1041.64 1132.8,-1047.64 1132.8,-1053.64 1132.8,-1053.64 1132.8,-1065.64 1132.8,-1065.64 1132.8,-1071.64 1126.8,-1077.64 1120.8,-1077.64"/>
<text text-anchor="start" x="611.4" y="-1055.74" font-family="Times,serif" font-weight="bold" font-size="14.00">4: </text>
<text text-anchor="start" x="625.4" y="-1055.74" font-family="Times,serif" font-size="14.00">Ist das Bilanzierungsgebiet zum Aktivierungsbeginn in der Regelzone des BIKO g&#252;ltig?</text>
</g>
<!-- 3&#45;&gt;4 -->
<g id="edge7" class="edge">
<title>3-&gt;4</title>
<path fill="none" stroke="black" d="M656.22,-1155.53C699.4,-1135.9 769.65,-1103.95 816.56,-1082.62"/>
<polygon fill="black" stroke="black" points="817.83,-1085.43 825.49,-1078.11 814.94,-1079.06 817.83,-1085.43"/>
<text text-anchor="middle" x="762.4" y="-1111.9" font-family="Times,serif" font-size="14.00">Ja</text>
</g>
<!-- A04 -->
<g id="node9" class="node">
<title>A04</title>
<polygon fill="#cfb986" stroke="black" points="839.14,-976.08 660.66,-976.08 660.66,-914.56 839.14,-914.56 839.14,-976.08"/>
<text text-anchor="start" x="737.9" y="-958.02" font-family="Times,serif" font-weight="bold" font-size="14.00">A04</text>
<text text-anchor="start" x="672.9" y="-945.92" font-family="Times,serif" text-decoration="underline" font-size="12.00">Hinweis:</text>
<text text-anchor="start" x="672.9" y="-933.92" font-family="Times,serif" font-size="12.00">Cluster: Ablehnung</text>
<text text-anchor="start" x="672.9" y="-921.92" font-family="Times,serif" font-size="12.00">Bilanzierungsgebiet nicht g&#252;ltig</text>
</g>
<!-- 4&#45;&gt;A04 -->
<g id="edge8" class="edge">
<title>4-&gt;A04</title>
<path fill="none" stroke="black" d="M847.43,-1041.58C831.79,-1026.3 808.3,-1003.36 788.29,-983.82"/>
<polygon fill="black" stroke="black" points="791.14,-981.73 781.54,-977.24 786.24,-986.73 791.14,-981.73"/>
<text text-anchor="middle" x="828.4" y="-997.58" font-family="Times,serif" font-size="14.00">Nein</text>
</g>
<!-- 5 -->
<g id="node10" class="node">
<title>5</title>
<path fill="#7aab8a" stroke="black" d="M1454.8,-963.32C1454.8,-963.32 869,-963.32 869,-963.32 863,-963.32 857,-957.32 857,-951.32 857,-951.32 857,-939.32 857,-939.32 857,-933.32 863,-927.32 869,-927.32 869,-927.32 1454.8,-927.32 1454.8,-927.32 1460.8,-927.32 1466.8,-933.32 1466.8,-939.32 1466.8,-939.32 1466.8,-951.32 1466.8,-951.32 1466.8,-957.32 1460.8,-963.32 1454.8,-963.32"/>
<text text-anchor="start" x="871.4" y="-941.42" font-family="Times,serif" font-weight="bold" font-size="14.00">5: </text>
<text text-anchor="start" x="885.4" y="-941.42" font-family="Times,serif" font-size="14.00">Ist der Redispatch-Bilanzkreis des ANB zum Aktivierungsbeginn in der Regelzone des BIKO g&#252;ltig?</text>
</g>
<!-- 4&#45;&gt;5 -->
<g id="edge9" class="edge">
<title>4-&gt;5</title>
<path fill="none" stroke="black" d="M910.98,-1041.21C963.44,-1021.37 1049.14,-988.96 1105.54,-967.64"/>
<polygon fill="black" stroke="black" points="1106.6,-970.6 1114.71,-963.79 1104.12,-964.05 1106.6,-970.6"/>
<text text-anchor="middle" x="1037.4" y="-997.58" font-family="Times,serif" font-size="14.00">Ja</text>
</g>
<!-- A05 -->
<g id="node11" class="node">
<title>A05</title>
<polygon fill="#cfb986" stroke="black" points="1147.64,-861.76 906.16,-861.76 906.16,-800.24 1147.64,-800.24 1147.64,-861.76"/>
<text text-anchor="start" x="1014.9" y="-843.7" font-family="Times,serif" font-weight="bold" font-size="14.00">A05</text>
<text text-anchor="start" x="918.4" y="-831.6" font-family="Times,serif" text-decoration="underline" font-size="12.00">Hinweis:</text>
<text text-anchor="start" x="918.4" y="-819.6" font-family="Times,serif" font-size="12.00">Cluster: Ablehnung</text>
<text text-anchor="start" x="918.4" y="-807.6" font-family="Times,serif" font-size="12.00">Redispatch-Bilanzkreis des ANB nicht g&#252;ltig</text>
</g>
<!-- 5&#45;&gt;A05 -->
<g id="edge10" class="edge">
<title>5-&gt;A05</title>
<path fill="none" stroke="black" d="M1141.1,-927.02C1122.66,-911.67 1095.09,-888.73 1071.66,-869.24"/>
<polygon fill="black" stroke="black" points="1074.16,-865.94 1064.24,-862.23 1069.69,-871.32 1074.16,-865.94"/>
<text text-anchor="middle" x="1116.4" y="-883.26" font-family="Times,serif" font-size="14.00">Nein</text>
</g>
<!-- 6 -->
<g id="node12" class="node">
<title>6</title>
<path fill="#7aab8a" stroke="black" d="M1856.3,-849C1856.3,-849 1177.5,-849 1177.5,-849 1171.5,-849 1165.5,-843 1165.5,-837 1165.5,-837 1165.5,-825 1165.5,-825 1165.5,-819 1171.5,-813 1177.5,-813 1177.5,-813 1856.3,-813 1856.3,-813 1862.3,-813 1868.3,-819 1868.3,-825 1868.3,-825 1868.3,-837 1868.3,-837 1868.3,-843 1862.3,-849 1856.3,-849"/>
<text text-anchor="start" x="1179.9" y="-827.1" font-family="Times,serif" font-weight="bold" font-size="14.00">6: </text>
<text text-anchor="start" x="1193.9" y="-827.1" font-family="Times,serif" font-size="14.00">Ist der Sender zum Aktivierungsbeginn der verantwortliche NB f&#252;r den angegebenen Redispatch-Bilanzkreis des NB?</text>
</g>
<!-- 5&#45;&gt;6 -->
<g id="edge11" class="edge">
<title>5-&gt;6</title>
<path fill="none" stroke="black" d="M1216.98,-926.89C1280.33,-906.85 1384.25,-873.97 1451.62,-852.66"/>
<polygon fill="black" stroke="black" points="1452.21,-855.82 1460.69,-849.47 1450.1,-849.15 1452.21,-855.82"/>
<text text-anchor="middle" x="1366.4" y="-883.26" font-family="Times,serif" font-size="14.00">Ja</text>
</g>
<!-- A06 -->
<g id="node13" class="node">
<title>A06</title>
<polygon fill="#cfb986" stroke="black" points="1428.14,-747.44 1307.66,-747.44 1307.66,-685.92 1428.14,-685.92 1428.14,-747.44"/>
<text text-anchor="start" x="1355.9" y="-729.38" font-family="Times,serif" font-weight="bold" font-size="14.00">A06</text>
<text text-anchor="start" x="1319.9" y="-717.28" font-family="Times,serif" text-decoration="underline" font-size="12.00">Hinweis:</text>
<text text-anchor="start" x="1319.9" y="-705.28" font-family="Times,serif" font-size="12.00">Cluster: Ablehnung</text>
<text text-anchor="start" x="1319.9" y="-693.28" font-family="Times,serif" font-size="12.00">Keine Berechtigung</text>
</g>
<!-- 6&#45;&gt;A06 -->
<g id="edge12" class="edge">
<title>6-&gt;A06</title>
<path fill="none" stroke="black" d="M1493.95,-812.7C1473.41,-797.22 1442.63,-774.01 1416.62,-754.41"/>
<polygon fill="black" stroke="black" points="1419.1,-751.14 1409.01,-747.91 1414.89,-756.73 1419.1,-751.14"/>
<text text-anchor="middle" x="1465.4" y="-768.94" font-family="Times,serif" font-size="14.00">Nein</text>
</g>
<!-- 7 -->
<g id="node14" class="node">
<title>7</title>
<path fill="#7aab8a" stroke="black" d="M2371.3,-734.68C2371.3,-734.68 1458.5,-734.68 1458.5,-734.68 1452.5,-734.68 1446.5,-728.68 1446.5,-722.68 1446.5,-722.68 1446.5,-710.68 1446.5,-710.68 1446.5,-704.68 1452.5,-698.68 1458.5,-698.68 1458.5,-698.68 2371.3,-698.68 2371.3,-698.68 2377.3,-698.68 2383.3,-704.68 2383.3,-710.68 2383.3,-710.68 2383.3,-722.68 2383.3,-722.68 2383.3,-728.68 2377.3,-734.68 2371.3,-734.68"/>
<text text-anchor="start" x="1460.9" y="-712.78" font-family="Times,serif" font-weight="bold" font-size="14.00">7: </text>
<text text-anchor="start" x="1474.9" y="-712.78" font-family="Times,serif" font-size="14.00">Existiert bereits ein abweichendes Tupel aus Bilanzierungs-gebiet, Redispatch-Bilanzkreis des ANB, Bilanzkreis des LF und ZRT unter der ID des MaBiS-ZP?</text>
</g>
<!-- 6&#45;&gt;7 -->
<g id="edge13" class="edge">
<title>6-&gt;7</title>
<path fill="none" stroke="black" d="M1578.65,-812.57C1649.97,-792.45 1767.14,-759.38 1842.64,-738.07"/>
<polygon fill="black" stroke="black" points="1843.33,-741.23 1852,-735.15 1841.43,-734.5 1843.33,-741.23"/>
<text text-anchor="middle" x="1745.4" y="-768.94" font-family="Times,serif" font-size="14.00">Ja</text>
</g>
<!-- A07 -->
<g id="node15" class="node">
<title>A07</title>
<polygon fill="#cfb986" stroke="black" points="1868.64,-633.12 1631.16,-633.12 1631.16,-571.6 1868.64,-571.6 1868.64,-633.12"/>
<text text-anchor="start" x="1737.9" y="-615.06" font-family="Times,serif" font-weight="bold" font-size="14.00">A07</text>
<text text-anchor="start" x="1643.4" y="-602.96" font-family="Times,serif" text-decoration="underline" font-size="12.00">Hinweis:</text>
<text text-anchor="start" x="1643.4" y="-590.96" font-family="Times,serif" font-size="12.00">Cluster: Ablehnung</text>
<text text-anchor="start" x="1643.4" y="-578.96" font-family="Times,serif" font-size="12.00">Abweichender MaBiS-ZP bereits vorhanden</text>
</g>
<!-- 7&#45;&gt;A07 -->
<g id="edge14" class="edge">
<title>7-&gt;A07</title>
<path fill="none" stroke="black" d="M1889.48,-698.38C1866.54,-682.76 1832.06,-659.29 1803.1,-639.58"/>
<polygon fill="black" stroke="black" points="1805.55,-636.33 1795.31,-633.59 1801.61,-642.11 1805.55,-636.33"/>
<text text-anchor="middle" x="1848.4" y="-654.62" font-family="Times,serif" font-size="14.00">Ja</text>
</g>
<!-- 8 -->
<g id="node16" class="node">
<title>8</title>
<path fill="#7aab8a" stroke="black" d="M2854.8,-620.36C2854.8,-620.36 1899,-620.36 1899,-620.36 1893,-620.36 1887,-614.36 1887,-608.36 1887,-608.36 1887,-596.36 1887,-596.36 1887,-590.36 1893,-584.36 1899,-584.36 1899,-584.36 2854.8,-584.36 2854.8,-584.36 2860.8,-584.36 2866.8,-590.36 2866.8,-596.36 2866.8,-596.36 2866.8,-608.36 2866.8,-608.36 2866.8,-614.36 2860.8,-620.36 2854.8,-620.36"/>
<text text-anchor="start" x="1901.4" y="-598.46" font-family="Times,serif" font-weight="bold" font-size="14.00">8: </text>
<text text-anchor="start" x="1915.4" y="-598.46" font-family="Times,serif" font-size="14.00">Existiert bereits f&#252;r das genannte Tupel aus Bilanzierungs-gebiet, Redispatch-Bilanzkreis des ANB, Bilanzkreis des LF und ZRT eine abweichende ID des MaBiS-ZP?</text>
</g>
<!-- 7&#45;&gt;8 -->
<g id="edge15" class="edge">
<title>7-&gt;8</title>
<path fill="none" stroke="black" d="M1986.83,-698.19C2070.1,-677.95 2206.96,-644.67 2294.45,-623.4"/>
<polygon fill="black" stroke="black" points="2295.25,-626.57 2304.14,-620.81 2293.59,-619.77 2295.25,-626.57"/>
<text text-anchor="middle" x="2187.4" y="-654.62" font-family="Times,serif" font-size="14.00">Nein</text>
</g>
<!-- A08 -->
<g id="node17" class="node">
<title>A08</title>
<polygon fill="#cfb986" stroke="black" points="2420.64,-518.8 2147.16,-518.8 2147.16,-457.28 2420.64,-457.28 2420.64,-518.8"/>
<text text-anchor="start" x="2271.9" y="-500.74" font-family="Times,serif" font-weight="bold" font-size="14.00">A08</text>
<text text-anchor="start" x="2159.4" y="-488.64" font-family="Times,serif" text-decoration="underline" font-size="12.00">Hinweis:</text>
<text text-anchor="start" x="2159.4" y="-476.64" font-family="Times,serif" font-size="12.00">Cluster: Ablehnung</text>
<text text-anchor="start" x="2159.4" y="-464.64" font-family="Times,serif" font-size="12.00">Abweichende ID zum MaBiS-ZP bereits vorhanden</text>
</g>
<!-- 8&#45;&gt;A08 -->
<g id="edge16" class="edge">
<title>8-&gt;A08</title>
<path fill="none" stroke="black" d="M2362.78,-584.3C2350.29,-569.23 2331.63,-546.69 2315.59,-527.32"/>
<polygon fill="black" stroke="black" points="2317.75,-525.43 2308.68,-519.96 2312.36,-529.9 2317.75,-525.43"/>
<text text-anchor="middle" x="2342.4" y="-540.3" font-family="Times,serif" font-size="14.00">Ja</text>
</g>
<!-- 9 -->
<g id="node18" class="node">
<title>9</title>
<path fill="#7aab8a" stroke="black" d="M2797.3,-506.04C2797.3,-506.04 2450.5,-506.04 2450.5,-506.04 2444.5,-506.04 2438.5,-500.04 2438.5,-494.04 2438.5,-494.04 2438.5,-482.04 2438.5,-482.04 2438.5,-476.04 2444.5,-470.04 2450.5,-470.04 2450.5,-470.04 2797.3,-470.04 2797.3,-470.04 2803.3,-470.04 2809.3,-476.04 2809.3,-482.04 2809.3,-482.04 2809.3,-494.04 2809.3,-494.04 2809.3,-500.04 2803.3,-506.04 2797.3,-506.04"/>
<text text-anchor="start" x="2452.9" y="-484.14" font-family="Times,serif" font-weight="bold" font-size="14.00">9: </text>
<text text-anchor="start" x="2466.9" y="-484.14" font-family="Times,serif" font-size="14.00">Ist der Bilanzkreis des LF zum Aktivierungsbeginn g&#252;ltig?</text>
</g>
<!-- 8&#45;&gt;9 -->
<g id="edge17" class="edge">
<title>8-&gt;9</title>
<path fill="none" stroke="black" d="M2415.22,-583.93C2458.4,-564.3 2528.65,-532.35 2575.56,-511.02"/>
<polygon fill="black" stroke="black" points="2576.83,-513.83 2584.49,-506.51 2573.94,-507.46 2576.83,-513.83"/>
<text text-anchor="middle" x="2529.4" y="-540.3" font-family="Times,serif" font-size="14.00">Nein</text>
</g>
<!-- A09 -->
<g id="node19" class="node">
<title>A09</title>
<polygon fill="#cfb986" stroke="black" points="2619.14,-404.48 2482.66,-404.48 2482.66,-342.96 2619.14,-342.96 2619.14,-404.48"/>
<text text-anchor="start" x="2538.9" y="-386.42" font-family="Times,serif" font-weight="bold" font-size="14.00">A09</text>
<text text-anchor="start" x="2494.9" y="-374.32" font-family="Times,serif" text-decoration="underline" font-size="12.00">Hinweis:</text>
<text text-anchor="start" x="2494.9" y="-362.32" font-family="Times,serif" font-size="12.00">Cluster: Ablehnung</text>
<text text-anchor="start" x="2494.9" y="-350.32" font-family="Times,serif" font-size="12.00">Bilanzkreis nicht g&#252;ltig</text>
</g>
<!-- 9&#45;&gt;A09 -->
<g id="edge18" class="edge">
<title>9-&gt;A09</title>
<path fill="none" stroke="black" d="M2612.81,-469.98C2603.15,-455.11 2588.76,-432.97 2576.29,-413.78"/>
<polygon fill="black" stroke="black" points="2578.73,-412.12 2570.35,-405.64 2572.86,-415.93 2578.73,-412.12"/>
<text text-anchor="middle" x="2605.4" y="-425.98" font-family="Times,serif" font-size="14.00">Nein</text>
</g>
<!-- 10 -->
<g id="node20" class="node">
<title>10</title>
<path fill="#7aab8a" stroke="black" d="M2942.3,-391.72C2942.3,-391.72 2649.5,-391.72 2649.5,-391.72 2643.5,-391.72 2637.5,-385.72 2637.5,-379.72 2637.5,-379.72 2637.5,-367.72 2637.5,-367.72 2637.5,-361.72 2643.5,-355.72 2649.5,-355.72 2649.5,-355.72 2942.3,-355.72 2942.3,-355.72 2948.3,-355.72 2954.3,-361.72 2954.3,-367.72 2954.3,-367.72 2954.3,-379.72 2954.3,-379.72 2954.3,-385.72 2948.3,-391.72 2942.3,-391.72"/>
<text text-anchor="start" x="2651.9" y="-369.82" font-family="Times,serif" font-weight="bold" font-size="14.00">10: </text>
<text text-anchor="start" x="2671.9" y="-369.82" font-family="Times,serif" font-size="14.00">Ist der NB zur Aktivierung des ZRT berechtigt?</text>
</g>
<!-- 9&#45;&gt;10 -->
<g id="edge19" class="edge">
<title>9-&gt;10</title>
<path fill="none" stroke="black" d="M2650.4,-469.74C2679.94,-450.44 2727.86,-419.15 2760.58,-397.79"/>
<polygon fill="black" stroke="black" points="2761.91,-400.44 2768.37,-392.04 2758.09,-394.58 2761.91,-400.44"/>
<text text-anchor="middle" x="2726.4" y="-425.98" font-family="Times,serif" font-size="14.00">Ja</text>
</g>
<!-- A10 -->
<g id="node21" class="node">
<title>A10</title>
<polygon fill="#cfb986" stroke="black" points="2813.14,-290.16 2626.66,-290.16 2626.66,-228.64 2813.14,-228.64 2813.14,-290.16"/>
<text text-anchor="start" x="2707.9" y="-272.1" font-family="Times,serif" font-weight="bold" font-size="14.00">A10</text>
<text text-anchor="start" x="2638.9" y="-260" font-family="Times,serif" text-decoration="underline" font-size="12.00">Hinweis:</text>
<text text-anchor="start" x="2638.9" y="-248" font-family="Times,serif" font-size="12.00">Cluster: Ablehnung</text>
<text text-anchor="start" x="2638.9" y="-236" font-family="Times,serif" font-size="12.00">ZRT Aktivierung nicht berechtigt</text>
</g>
<!-- 10&#45;&gt;A10 -->
<g id="edge20" class="edge">
<title>10-&gt;A10</title>
<path fill="none" stroke="black" d="M2784.36,-355.66C2774.25,-340.72 2759.18,-318.45 2746.15,-299.2"/>
<polygon fill="black" stroke="black" points="2748.65,-297.64 2740.15,-291.32 2742.85,-301.57 2748.65,-297.64"/>
<text text-anchor="middle" x="2776.4" y="-311.66" font-family="Times,serif" font-size="14.00">Nein</text>
</g>
<!-- 11 -->
<g id="node22" class="node">
<title>11</title>
<path fill="#7aab8a" stroke="black" d="M3106.8,-277.4C3106.8,-277.4 2843,-277.4 2843,-277.4 2837,-277.4 2831,-271.4 2831,-265.4 2831,-265.4 2831,-253.4 2831,-253.4 2831,-247.4 2837,-241.4 2843,-241.4 2843,-241.4 3106.8,-241.4 3106.8,-241.4 3112.8,-241.4 3118.8,-247.4 3118.8,-253.4 3118.8,-253.4 3118.8,-265.4 3118.8,-265.4 3118.8,-271.4 3112.8,-277.4 3106.8,-277.4"/>
<text text-anchor="start" x="2845.4" y="-255.5" font-family="Times,serif" font-weight="bold" font-size="14.00">11: </text>
<text text-anchor="start" x="2865.4" y="-255.5" font-family="Times,serif" font-size="14.00">Passt die Angabe des Mediums zum ZRT?</text>
</g>
<!-- 10&#45;&gt;11 -->
<g id="edge21" class="edge">
<title>10-&gt;11</title>
<path fill="none" stroke="black" d="M2823.48,-355.42C2854.22,-336.12 2904.09,-304.83 2938.14,-283.47"/>
<polygon fill="black" stroke="black" points="2939.68,-286 2946.29,-277.72 2935.96,-280.07 2939.68,-286"/>
<text text-anchor="middle" x="2902.4" y="-311.66" font-family="Times,serif" font-size="14.00">Ja</text>
</g>
<!-- A11 -->
<g id="node23" class="node">
<title>A11</title>
<polygon fill="#cfb986" stroke="black" points="2955.14,-175.84 2822.66,-175.84 2822.66,-114.32 2955.14,-114.32 2955.14,-175.84"/>
<text text-anchor="start" x="2876.9" y="-157.78" font-family="Times,serif" font-weight="bold" font-size="14.00">A11</text>
<text text-anchor="start" x="2834.9" y="-145.68" font-family="Times,serif" text-decoration="underline" font-size="12.00">Hinweis:</text>
<text text-anchor="start" x="2834.9" y="-133.68" font-family="Times,serif" font-size="12.00">Cluster: Ablehnung</text>
<text text-anchor="start" x="2834.9" y="-121.68" font-family="Times,serif" font-size="12.00">Medium nicht passend</text>
</g>
<!-- 11&#45;&gt;A11 -->
<g id="edge22" class="edge">
<title>11-&gt;A11</title>
<path fill="none" stroke="black" d="M2961.84,-241.34C2950.35,-226.33 2933.19,-203.93 2918.41,-184.62"/>
<polygon fill="black" stroke="black" points="2920.67,-182.81 2911.81,-177 2915.11,-187.07 2920.67,-182.81"/>
<text text-anchor="middle" x="2951.4" y="-197.34" font-family="Times,serif" font-size="14.00">Nein</text>
</g>
<!-- 12 -->
<g id="node24" class="node">
<title>12</title>
<path fill="#7aab8a" stroke="black" d="M3382.8,-163.08C3382.8,-163.08 2985,-163.08 2985,-163.08 2979,-163.08 2973,-157.08 2973,-151.08 2973,-151.08 2973,-139.08 2973,-139.08 2973,-133.08 2979,-127.08 2985,-127.08 2985,-127.08 3382.8,-127.08 3382.8,-127.08 3388.8,-127.08 3394.8,-133.08 3394.8,-139.08 3394.8,-139.08 3394.8,-151.08 3394.8,-151.08 3394.8,-157.08 3388.8,-163.08 3382.8,-163.08"/>
<text text-anchor="start" x="2987.4" y="-141.18" font-family="Times,serif" font-weight="bold" font-size="14.00">12: </text>
<text text-anchor="start" x="3007.4" y="-141.18" font-family="Times,serif" font-size="14.00">Ist der MaBiS-ZP zum Zeitpunkt der Aktivierung bereits aktiviert?</text>
</g>
<!-- 11&#45;&gt;12 -->
<g id="edge23" class="edge">
<title>11-&gt;12</title>
<path fill="none" stroke="black" d="M3007.1,-241.1C3043.3,-221.64 3102.22,-189.97 3141.99,-168.6"/>
<polygon fill="black" stroke="black" points="3143.51,-171.22 3150.67,-163.4 3140.2,-165.05 3143.51,-171.22"/>
<text text-anchor="middle" x="3098.4" y="-197.34" font-family="Times,serif" font-size="14.00">Ja</text>
</g>
<!-- A12 -->
<g id="node25" class="node">
<title>A12</title>
<polygon fill="#cfb986" stroke="black" points="3176.14,-61.52 3021.66,-61.52 3021.66,0 3176.14,0 3176.14,-61.52"/>
<text text-anchor="start" x="3086.9" y="-43.46" font-family="Times,serif" font-weight="bold" font-size="14.00">A12</text>
<text text-anchor="start" x="3033.9" y="-31.36" font-family="Times,serif" text-decoration="underline" font-size="12.00">Hinweis:</text>
<text text-anchor="start" x="3033.9" y="-19.36" font-family="Times,serif" font-size="12.00">Cluster: Ablehnung</text>
<text text-anchor="start" x="3033.9" y="-7.36" font-family="Times,serif" font-size="12.00">MaBiS-ZP bereits aktiviert</text>
</g>
<!-- 12&#45;&gt;A12 -->
<g id="edge24" class="edge">
<title>12-&gt;A12</title>
<path fill="none" stroke="black" d="M3170.99,-127.02C3159.63,-112.01 3142.68,-89.61 3128.07,-70.3"/>
<polygon fill="black" stroke="black" points="3130.37,-68.54 3121.54,-62.68 3124.79,-72.77 3130.37,-68.54"/>
<text text-anchor="middle" x="3152.4" y="-83.02" font-family="Times,serif" font-size="14.00">Ja</text>
</g>
<!-- A13 -->
<g id="node26" class="node">
<title>A13</title>
<polygon fill="#cfb986" stroke="black" points="3341.64,-61.52 3194.16,-61.52 3194.16,0 3341.64,0 3341.64,-61.52"/>
<text text-anchor="start" x="3255.9" y="-43.46" font-family="Times,serif" font-weight="bold" font-size="14.00">A13</text>
<text text-anchor="start" x="3206.4" y="-31.36" font-family="Times,serif" text-decoration="underline" font-size="12.00">Hinweis:</text>
<text text-anchor="start" x="3206.4" y="-19.36" font-family="Times,serif" font-size="12.00">Cluster: Zustimmung</text>
<text text-anchor="start" x="3206.4" y="-7.36" font-family="Times,serif" font-size="12.00">Aktivierung durchgef&#252;hrt</text>
</g>
<!-- 12&#45;&gt;A13 -->
<g id="edge25" class="edge">
<title>12-&gt;A13</title>
<path fill="none" stroke="black" d="M3196.66,-127.02C3207.88,-112.01 3224.64,-89.61 3239.08,-70.3"/>
<polygon fill="black" stroke="black" points="3242.34,-72.79 3245.52,-62.68 3236.73,-68.59 3242.34,-72.79"/>
<text text-anchor="middle" x="3245.4" y="-83.02" font-family="Times,serif" font-size="14.00">Nein</text>
</g>
</g>
</svg>
  </g>
</svg>
  </g>
</svg>
