<?xml version='1.0' encoding='ASCII' standalone='yes'?>
<svg xmlns="http://www.w3.org/2000/svg" xmlns:xlink="http://www.w3.org/1999/xlink" version="1.1" width="1137.3333333333333px" viewBox="0 0 1137.3333333333333 433.3333333333333" height="433.3333333333333px">
  <g>
    <svg version="1.1" width="1137.3333333333333px" viewBox="0 0 1137.3333333333333 433.3333333333333" height="433.3333333333333px">
  <polygon fill="#f3f1f6" points="0,0 1137.3333333333333,0 1137.3333333333333,433.3333333333333 0,433.3333333333333"/><g>
    <g transform="translate(395.46190602554515, 43.33333333333332) scale(1 1) translate(0, 0) scale(1.9598002013845461 1.9598002013845461) "><sodipodi:namedview xmlns:sodipodi="http://sodipodi.sourceforge.net/DTD/sodipodi-0.dtd" xmlns:inkscape="http://www.inkscape.org/namespaces/inkscape" id="namedview7" pagecolor="#ffffff" bordercolor="#999999" borderopacity="1" inkscape:pageshadow="0" inkscape:pageopacity="0" inkscape:pagecheckerboard="0" inkscape:document-units="mm" showgrid="false" fit-margin-top="0" fit-margin-left="0" fit-margin-right="0" fit-margin-bottom="0" inkscape:zoom="0.64052329" inkscape:cx="130.36216" inkscape:cy="412.163" inkscape:window-width="1512" inkscape:window-height="916" inkscape:window-x="3840" inkscape:window-y="136" inkscape:window-maximized="0" inkscape:current-layer="layer1"/>
  <defs id="defs2">
    <clipPath clipPathUnits="userSpaceOnUse" id="clipPath23">
      <path d="M 0,568.156 H 579.236 V 0 H 0 Z" id="path21"/>
    </clipPath>
  </defs>
  <g xmlns:inkscape="http://www.inkscape.org/namespaces/inkscape" inkscape:label="Layer 1" inkscape:groupmode="layer" id="layer1" transform="translate(-16.541937,-55.305267)">
    <g id="g19" clip-path="url(#clipPath23)" transform="matrix(0.35277777,0,0,-0.35277777,0.01017023,243.73675)" style="opacity:0.2">
      <g id="g25" transform="translate(122.444,32.7195)">
        <path d="m 0,0 h -56.104 c -11,0 -19.898,9.123 -19.463,20.115 10.594,267.191 231.277,481.302 501.029,481.302 v -56.02 c 0,-10.98 -8.688,-19.892 -19.658,-20.393 C 180.29,414.697 0,228.005 0,0" style="fill:#6ead83;fill-opacity:1;fill-rule:nonzero;stroke:none" id="path27"/>
      </g>
      <g id="g29" transform="translate(273.7828,32.7195)">
        <path d="m 0,0 h -55.926 c -11.228,0 -20.091,9.482 -19.435,20.69 10.744,183.439 163.389,329.388 349.485,329.388 v -56.263 c 0,-10.709 -8.273,-19.617 -18.957,-20.35 C 112.819,263.696 0,144.774 0,0" style="fill:#6ead83;fill-opacity:1;fill-rule:nonzero;stroke:none" id="path31"/>
      </g>
      <g id="g33" transform="translate(425.7667,32.7195)">
        <path d="m 0,0 h -55.445 c -11.653,0 -20.604,10.17 -19.334,21.753 10.866,99.032 95.031,176.341 196.919,176.341 v -57.011 c 0,-10.046 -7.283,-18.755 -17.229,-20.165 C 45.688,112.522 0,61.497 0,0" style="fill:#6ead83;fill-opacity:1;fill-rule:nonzero;stroke:none" id="path35"/>
      </g>
    </g>
  </g>
</g>
    <svg width="853pt" height="325pt" viewBox="0.00 0.00 853.00 324.60">
<g id="graph0" class="graph" transform="scale(1 1) rotate(0) translate(4 320.6)">
<title>D</title>
<text text-anchor="start" x="397" y="-296.5" font-family="Times,serif" font-weight="bold" font-size="18.00">MaBiS</text>
<text text-anchor="start" x="8" y="-266.4" font-family="Times,serif" font-weight="bold" font-size="16.00">7.69.2: AD: &#220;bermittlung Datenstatus f&#252;r die monatliche Ausfallarbeits&#252;berf&#252;hrungszeitreihe (AA&#220;Z) an NB und BKV (anfNB)</text>
<!-- Start -->
<g id="node1" class="node">
<title>Start</title>
<polygon fill="#7a8da1" stroke="black" points="490.4,-218.6 354.6,-218.6 354.6,-175.32 490.4,-175.32 490.4,-218.6"/>
<text text-anchor="start" x="401" y="-197.66" font-family="Times,serif" font-weight="bold" font-size="14.00">E_0083</text>
<text text-anchor="start" x="369" y="-185.56" font-family="Times,serif" font-weight="bold" text-decoration="underline" font-size="12.00">Pr&#252;fende Rolle:</text>
<text text-anchor="start" x="444" y="-185.56" font-family="Times,serif" font-weight="bold" font-size="12.00"> BIKO</text>
</g>
<!-- 1 -->
<g id="node2" class="node">
<title>1</title>
<path fill="#7aab8a" stroke="black" d="M646.4,-138.32C646.4,-138.32 198.6,-138.32 198.6,-138.32 192.6,-138.32 186.6,-132.32 186.6,-126.32 186.6,-126.32 186.6,-114.32 186.6,-114.32 186.6,-108.32 192.6,-102.32 198.6,-102.32 198.6,-102.32 646.4,-102.32 646.4,-102.32 652.4,-102.32 658.4,-108.32 658.4,-114.32 658.4,-114.32 658.4,-126.32 658.4,-126.32 658.4,-132.32 652.4,-138.32 646.4,-138.32"/>
<text text-anchor="start" x="201" y="-116.42" font-family="Times,serif" font-weight="bold" font-size="14.00">1: </text>
<text text-anchor="start" x="214" y="-116.42" font-family="Times,serif" font-size="14.00">Erfolgt der Eingang der Zeitreihe vor Ablauf der Frist f&#252;r den Erstaufschlag?</text>
</g>
<!-- Start&#45;&gt;1 -->
<g id="edge1" class="edge">
<title>Start-&gt;1</title>
<path fill="none" stroke="black" d="M422.5,-175.17C422.5,-167.13 422.5,-157.81 422.5,-149.21"/>
<polygon fill="black" stroke="black" points="426,-149.48 422.5,-139.48 419,-149.48 426,-149.48"/>
</g>
<!-- A01 -->
<g id="node3" class="node">
<title>A01</title>
<polygon fill="#cfb986" stroke="black" points="424.24,-49.52 240.76,-49.52 240.76,0 424.24,0 424.24,-49.52"/>
<text text-anchor="start" x="320.5" y="-31.46" font-family="Times,serif" font-weight="bold" font-size="14.00">A01</text>
<text text-anchor="start" x="253" y="-19.36" font-family="Times,serif" text-decoration="underline" font-size="12.00">Hinweis:</text>
<text text-anchor="start" x="253" y="-7.36" font-family="Times,serif" font-size="12.00">Datenstatus &#8222;Abrechnungsdaten&#8220;</text>
</g>
<!-- 1&#45;&gt;A01 -->
<g id="edge2" class="edge">
<title>1-&gt;A01</title>
<path fill="none" stroke="black" d="M405.99,-102.16C393.98,-89.67 377.36,-72.4 362.97,-57.43"/>
<polygon fill="black" stroke="black" points="366.14,-55.64 356.68,-50.86 361.09,-60.49 366.14,-55.64"/>
<text text-anchor="middle" x="394" y="-71.02" font-family="Times,serif" font-size="14.00">Ja</text>
</g>
<!-- A02 -->
<g id="node4" class="node">
<title>A02</title>
<polygon fill="#cfb986" stroke="black" points="582.74,-49.52 442.26,-49.52 442.26,0 582.74,0 582.74,-49.52"/>
<text text-anchor="start" x="500.5" y="-31.46" font-family="Times,serif" font-weight="bold" font-size="14.00">A02</text>
<text text-anchor="start" x="454.5" y="-19.36" font-family="Times,serif" text-decoration="underline" font-size="12.00">Hinweis:</text>
<text text-anchor="start" x="454.5" y="-7.36" font-family="Times,serif" font-size="12.00">Datenstatus &#8222;Pr&#252;fdaten&#8220;</text>
</g>
<!-- 1&#45;&gt;A02 -->
<g id="edge3" class="edge">
<title>1-&gt;A02</title>
<path fill="none" stroke="black" d="M439.01,-102.16C451.02,-89.67 467.64,-72.4 482.03,-57.43"/>
<polygon fill="black" stroke="black" points="483.91,-60.49 488.32,-50.86 478.86,-55.64 483.91,-60.49"/>
<text text-anchor="middle" x="484" y="-71.02" font-family="Times,serif" font-size="14.00">Nein</text>
</g>
</g>
</svg>
  </g>
</svg>
  </g>
</svg>
