<?xml version='1.0' encoding='ASCII' standalone='yes'?>
<svg xmlns="http://www.w3.org/2000/svg" xmlns:xlink="http://www.w3.org/1999/xlink" version="1.1" width="5349.333333333333px" viewBox="0 0 5349.333333333333 2320.0" height="2320.0px">
  <g>
    <svg version="1.1" width="5349.333333333333px" viewBox="0 0 5349.333333333333 2320.0" height="2320.0px">
  <polygon fill="#f3f1f6" points="0,0 5349.333333333333,0 5349.333333333333,2320.0 0,2320.0"/><g>
    <g transform="translate(1747.3550250803546, 231.99999999999994) scale(1 1) translate(0, 0) scale(10.49246877048957 10.49246877048957) "><sodipodi:namedview xmlns:sodipodi="http://sodipodi.sourceforge.net/DTD/sodipodi-0.dtd" xmlns:inkscape="http://www.inkscape.org/namespaces/inkscape" id="namedview7" pagecolor="#ffffff" bordercolor="#999999" borderopacity="1" inkscape:pageshadow="0" inkscape:pageopacity="0" inkscape:pagecheckerboard="0" inkscape:document-units="mm" showgrid="false" fit-margin-top="0" fit-margin-left="0" fit-margin-right="0" fit-margin-bottom="0" inkscape:zoom="0.64052329" inkscape:cx="130.36216" inkscape:cy="412.163" inkscape:window-width="1512" inkscape:window-height="916" inkscape:window-x="3840" inkscape:window-y="136" inkscape:window-maximized="0" inkscape:current-layer="layer1"/>
  <defs id="defs2">
    <clipPath clipPathUnits="userSpaceOnUse" id="clipPath23">
      <path d="M 0,568.156 H 579.236 V 0 H 0 Z" id="path21"/>
    </clipPath>
  </defs>
  <g xmlns:inkscape="http://www.inkscape.org/namespaces/inkscape" inkscape:label="Layer 1" inkscape:groupmode="layer" id="layer1" transform="translate(-16.541937,-55.305267)">
    <g id="g19" clip-path="url(#clipPath23)" transform="matrix(0.35277777,0,0,-0.35277777,0.01017023,243.73675)" style="opacity:0.2">
      <g id="g25" transform="translate(122.444,32.7195)">
        <path d="m 0,0 h -56.104 c -11,0 -19.898,9.123 -19.463,20.115 10.594,267.191 231.277,481.302 501.029,481.302 v -56.02 c 0,-10.98 -8.688,-19.892 -19.658,-20.393 C 180.29,414.697 0,228.005 0,0" style="fill:#6ead83;fill-opacity:1;fill-rule:nonzero;stroke:none" id="path27"/>
      </g>
      <g id="g29" transform="translate(273.7828,32.7195)">
        <path d="m 0,0 h -55.926 c -11.228,0 -20.091,9.482 -19.435,20.69 10.744,183.439 163.389,329.388 349.485,329.388 v -56.263 c 0,-10.709 -8.273,-19.617 -18.957,-20.35 C 112.819,263.696 0,144.774 0,0" style="fill:#6ead83;fill-opacity:1;fill-rule:nonzero;stroke:none" id="path31"/>
      </g>
      <g id="g33" transform="translate(425.7667,32.7195)">
        <path d="m 0,0 h -55.445 c -11.653,0 -20.604,10.17 -19.334,21.753 10.866,99.032 95.031,176.341 196.919,176.341 v -57.011 c 0,-10.046 -7.283,-18.755 -17.229,-20.165 C 45.688,112.522 0,61.497 0,0" style="fill:#6ead83;fill-opacity:1;fill-rule:nonzero;stroke:none" id="path35"/>
      </g>
    </g>
  </g>
</g>
    <svg width="4012pt" height="1740pt" viewBox="0.00 0.00 4011.80 1739.67">
<g id="graph0" class="graph" transform="scale(1 1) rotate(0) translate(4 1735.67)">
<title>D</title>
<text text-anchor="start" x="1968.53" y="-1711.57" font-family="Times,serif" font-weight="bold" font-size="18.00">MaBiS</text>
<text text-anchor="start" x="1577.03" y="-1681.47" font-family="Times,serif" font-weight="bold" font-size="16.00">7.18.2: AD: Austausch der Lieferantenclearingliste zwischen &#220;NB und LF (Einzelanforderung)</text>
<!-- Start -->
<g id="node1" class="node">
<title>Start</title>
<polygon fill="#7a8da1" stroke="black" points="323.18,-1633.67 168.38,-1633.67 168.38,-1590.39 323.18,-1590.39 323.18,-1633.67"/>
<text text-anchor="start" x="217.65" y="-1612.73" font-family="Times,serif" font-weight="bold" font-size="14.00">E_0014</text>
<text text-anchor="start" x="182.78" y="-1600.63" font-family="Times,serif" font-weight="bold" text-decoration="underline" font-size="12.00">Pr&#252;fende Rolle:</text>
<text text-anchor="start" x="287.78" y="-1600.63" font-family="Times,serif" font-weight="bold" font-size="12.00"> LF</text>
</g>
<!-- 1 -->
<g id="node2" class="node">
<title>1</title>
<path fill="#7aab8a" stroke="black" d="M479.55,-1553.39C479.55,-1553.39 12,-1553.39 12,-1553.39 6,-1553.39 0,-1547.39 0,-1541.39 0,-1541.39 0,-1529.39 0,-1529.39 0,-1523.39 6,-1517.39 12,-1517.39 12,-1517.39 479.55,-1517.39 479.55,-1517.39 485.55,-1517.39 491.55,-1523.39 491.55,-1529.39 491.55,-1529.39 491.55,-1541.39 491.55,-1541.39 491.55,-1547.39 485.55,-1553.39 479.55,-1553.39"/>
<text text-anchor="start" x="14.4" y="-1531.71" font-family="Times,serif" font-weight="bold" font-size="14.00">1: </text>
<text text-anchor="start" x="33.9" y="-1531.71" font-family="Times,serif" font-size="14.00">Entspricht die G&#252;ltigkeit (Monat) dem angefragten Zeitraum?</text>
</g>
<!-- Start&#45;&gt;1 -->
<g id="edge1" class="edge">
<title>Start-&gt;1</title>
<path fill="none" stroke="black" d="M245.78,-1590.24C245.78,-1582.2 245.78,-1572.88 245.78,-1564.28"/>
<polygon fill="black" stroke="black" points="249.28,-1564.55 245.78,-1554.55 242.28,-1564.55 249.28,-1564.55"/>
</g>
<!-- A01 -->
<g id="node3" class="node">
<title>A01</title>
<polygon fill="#cfb986" stroke="black" points="347.02,-1464.14 88.54,-1464.14 88.54,-1402.62 347.02,-1402.62 347.02,-1464.14"/>
<text text-anchor="start" x="202.78" y="-1446.08" font-family="Times,serif" font-weight="bold" font-size="14.00">A01</text>
<text text-anchor="start" x="100.78" y="-1433.98" font-family="Times,serif" text-decoration="underline" font-size="12.00">Hinweis:</text>
<text text-anchor="start" x="100.78" y="-1421.98" font-family="Times,serif" font-size="12.00">Cluster: Ablehnung der gesamten Liste</text>
<text text-anchor="start" x="100.78" y="-1409.98" font-family="Times,serif" font-size="12.00">Zeitraum nicht plausibel</text>
</g>
<!-- 1&#45;&gt;A01 -->
<g id="edge2" class="edge">
<title>1-&gt;A01</title>
<path fill="none" stroke="black" d="M240.9,-1516.97C237.64,-1505.35 233.23,-1489.58 229.13,-1474.92"/>
<polygon fill="black" stroke="black" points="232.28,-1474.22 226.22,-1465.53 225.54,-1476.1 232.28,-1474.22"/>
<text text-anchor="middle" x="253.65" y="-1486.09" font-family="Times,serif" font-size="14.00">Nein</text>
</g>
<!-- 2 -->
<g id="node4" class="node">
<title>2</title>
<path fill="#7aab8a" stroke="black" d="M790.93,-1451.38C790.93,-1451.38 376.63,-1451.38 376.63,-1451.38 370.63,-1451.38 364.63,-1445.38 364.63,-1439.38 364.63,-1439.38 364.63,-1427.38 364.63,-1427.38 364.63,-1421.38 370.63,-1415.38 376.63,-1415.38 376.63,-1415.38 790.93,-1415.38 790.93,-1415.38 796.93,-1415.38 802.93,-1421.38 802.93,-1427.38 802.93,-1427.38 802.93,-1439.38 802.93,-1439.38 802.93,-1445.38 796.93,-1451.38 790.93,-1451.38"/>
<text text-anchor="start" x="379.03" y="-1429.7" font-family="Times,serif" font-weight="bold" font-size="14.00">2: </text>
<text text-anchor="start" x="398.53" y="-1429.7" font-family="Times,serif" font-size="14.00">Entspricht der MaBiS-ZP dem angefragten MaBiS-ZP?</text>
</g>
<!-- 1&#45;&gt;2 -->
<g id="edge3" class="edge">
<title>1-&gt;2</title>
<path fill="none" stroke="black" d="M304.65,-1516.97C363.03,-1499.7 452.45,-1473.24 514.28,-1454.94"/>
<polygon fill="black" stroke="black" points="515.13,-1458.05 523.72,-1451.85 513.14,-1451.33 515.13,-1458.05"/>
<text text-anchor="middle" x="421.53" y="-1486.09" font-family="Times,serif" font-size="14.00">Ja</text>
</g>
<!-- A02 -->
<g id="node5" class="node">
<title>A02</title>
<polygon fill="#cfb986" stroke="black" points="577.77,-1349.37 221.79,-1349.37 221.79,-1287.85 577.77,-1287.85 577.77,-1349.37"/>
<text text-anchor="start" x="384.78" y="-1331.31" font-family="Times,serif" font-weight="bold" font-size="14.00">A02</text>
<text text-anchor="start" x="234.03" y="-1319.21" font-family="Times,serif" text-decoration="underline" font-size="12.00">Hinweis:</text>
<text text-anchor="start" x="234.03" y="-1307.21" font-family="Times,serif" font-size="12.00">Cluster: Ablehnung der gesamten Liste</text>
<text text-anchor="start" x="234.03" y="-1295.21" font-family="Times,serif" font-size="12.00">MaBiS-ZP entspricht nicht dem angefragten MaBiS-ZP</text>
</g>
<!-- 2&#45;&gt;A02 -->
<g id="edge4" class="edge">
<title>2-&gt;A02</title>
<path fill="none" stroke="black" d="M555.43,-1415.01C529.54,-1399.14 490.45,-1375.18 457.92,-1355.25"/>
<polygon fill="black" stroke="black" points="460.29,-1351.98 449.94,-1349.74 456.64,-1357.95 460.29,-1351.98"/>
<text text-anchor="middle" x="520.65" y="-1371.32" font-family="Times,serif" font-size="14.00">Nein</text>
</g>
<!-- 3 -->
<g id="node6" class="node">
<title>3</title>
<path fill="#7aab8a" stroke="black" d="M1555.93,-1336.61C1555.93,-1336.61 607.63,-1336.61 607.63,-1336.61 601.63,-1336.61 595.63,-1330.61 595.63,-1324.61 595.63,-1324.61 595.63,-1312.61 595.63,-1312.61 595.63,-1306.61 601.63,-1300.61 607.63,-1300.61 607.63,-1300.61 1555.93,-1300.61 1555.93,-1300.61 1561.93,-1300.61 1567.93,-1306.61 1567.93,-1312.61 1567.93,-1312.61 1567.93,-1324.61 1567.93,-1324.61 1567.93,-1330.61 1561.93,-1336.61 1555.93,-1336.61"/>
<text text-anchor="start" x="610.03" y="-1314.93" font-family="Times,serif" font-weight="bold" font-size="14.00">3: </text>
<text text-anchor="start" x="629.53" y="-1314.93" font-family="Times,serif" font-size="14.00">Entspricht die Versionsangabe in der LF-CL der Versionsangabe der LF-SZR (Kategorie B), zu der eine LF-CL angefordert wurde?</text>
</g>
<!-- 2&#45;&gt;3 -->
<g id="edge5" class="edge">
<title>2-&gt;3</title>
<path fill="none" stroke="black" d="M661.04,-1414.88C751.14,-1394.48 899.73,-1360.83 994.08,-1339.47"/>
<polygon fill="black" stroke="black" points="994.76,-1342.68 1003.74,-1337.05 993.21,-1335.85 994.76,-1342.68"/>
<text text-anchor="middle" x="869.53" y="-1371.32" font-family="Times,serif" font-size="14.00">Ja</text>
</g>
<!-- A03 -->
<g id="node7" class="node">
<title>A03</title>
<polygon fill="#cfb986" stroke="black" points="1098.02,-1234.6 839.54,-1234.6 839.54,-1173.08 1098.02,-1173.08 1098.02,-1234.6"/>
<text text-anchor="start" x="953.78" y="-1216.54" font-family="Times,serif" font-weight="bold" font-size="14.00">A03</text>
<text text-anchor="start" x="851.78" y="-1204.44" font-family="Times,serif" text-decoration="underline" font-size="12.00">Hinweis:</text>
<text text-anchor="start" x="851.78" y="-1192.44" font-family="Times,serif" font-size="12.00">Cluster: Ablehnung der gesamten Liste</text>
<text text-anchor="start" x="851.78" y="-1180.44" font-family="Times,serif" font-size="12.00">Version nicht zugelassen</text>
</g>
<!-- 3&#45;&gt;A03 -->
<g id="edge6" class="edge">
<title>3-&gt;A03</title>
<path fill="none" stroke="black" d="M1064.61,-1300.48C1049.24,-1285.14 1026.16,-1262.11 1006.5,-1242.49"/>
<polygon fill="black" stroke="black" points="1009.43,-1240.47 999.88,-1235.88 1004.48,-1245.42 1009.43,-1240.47"/>
<text text-anchor="middle" x="1049.65" y="-1256.55" font-family="Times,serif" font-size="14.00">Nein</text>
</g>
<!-- 4 -->
<g id="node8" class="node">
<title>4</title>
<path fill="#7aab8a" stroke="black" d="M1599.43,-1221.84C1599.43,-1221.84 1128.12,-1221.84 1128.12,-1221.84 1122.12,-1221.84 1116.12,-1215.84 1116.12,-1209.84 1116.12,-1209.84 1116.12,-1197.84 1116.12,-1197.84 1116.12,-1191.84 1122.12,-1185.84 1128.12,-1185.84 1128.12,-1185.84 1599.43,-1185.84 1599.43,-1185.84 1605.43,-1185.84 1611.43,-1191.84 1611.43,-1197.84 1611.43,-1197.84 1611.43,-1209.84 1611.43,-1209.84 1611.43,-1215.84 1605.43,-1221.84 1599.43,-1221.84"/>
<text text-anchor="start" x="1130.53" y="-1200.16" font-family="Times,serif" font-weight="bold" font-size="14.00">4: </text>
<text text-anchor="start" x="1150.03" y="-1200.16" font-family="Times,serif" font-size="14.00">Ist eine erwartete Marktlokation in der LF-CL nicht enthalten?</text>
</g>
<!-- 3&#45;&gt;4 -->
<g id="edge7" class="edge">
<title>3-&gt;4</title>
<path fill="none" stroke="black" d="M1125.53,-1300.11C1175.38,-1280.18 1256.85,-1247.6 1310.39,-1226.19"/>
<polygon fill="black" stroke="black" points="1311.4,-1229.16 1319.38,-1222.19 1308.8,-1222.66 1311.4,-1229.16"/>
<text text-anchor="middle" x="1246.53" y="-1256.55" font-family="Times,serif" font-size="14.00">Ja</text>
</g>
<!-- A04 -->
<g id="node9" class="node">
<title>A04</title>
<polygon fill="#cfb986" stroke="black" points="1355.27,-1119.83 1038.29,-1119.83 1038.29,-1058.31 1355.27,-1058.31 1355.27,-1119.83"/>
<text text-anchor="start" x="1181.78" y="-1101.77" font-family="Times,serif" font-weight="bold" font-size="14.00">A04</text>
<text text-anchor="start" x="1050.53" y="-1089.67" font-family="Times,serif" text-decoration="underline" font-size="12.00">Hinweis:</text>
<text text-anchor="start" x="1050.53" y="-1077.67" font-family="Times,serif" font-size="12.00">Cluster: Korrekturliste wegen Ablehnung</text>
<text text-anchor="start" x="1050.53" y="-1065.67" font-family="Times,serif" font-size="12.00">Zus&#228;tzlicher Datensatz / erg&#228;nzte Marktlokation</text>
</g>
<!-- 4&#45;&gt;A04 -->
<g id="edge8" class="edge">
<title>4-&gt;A04</title>
<path fill="none" stroke="black" d="M1338.05,-1185.47C1314.75,-1169.73 1279.68,-1146.05 1250.31,-1126.22"/>
<polygon fill="black" stroke="black" points="1252.64,-1122.9 1242.4,-1120.2 1248.73,-1128.7 1252.64,-1122.9"/>
<text text-anchor="middle" x="1297.53" y="-1141.78" font-family="Times,serif" font-size="14.00">Ja</text>
</g>
<!-- 5 -->
<g id="node10" class="node">
<title>5</title>
<path fill="#7aab8a" stroke="black" d="M2272.18,-1107.07C2272.18,-1107.07 1385.38,-1107.07 1385.38,-1107.07 1379.38,-1107.07 1373.38,-1101.07 1373.38,-1095.07 1373.38,-1095.07 1373.38,-1083.07 1373.38,-1083.07 1373.38,-1077.07 1379.38,-1071.07 1385.38,-1071.07 1385.38,-1071.07 2272.18,-1071.07 2272.18,-1071.07 2278.18,-1071.07 2284.18,-1077.07 2284.18,-1083.07 2284.18,-1083.07 2284.18,-1095.07 2284.18,-1095.07 2284.18,-1101.07 2278.18,-1107.07 2272.18,-1107.07"/>
<text text-anchor="start" x="1387.78" y="-1085.39" font-family="Times,serif" font-weight="bold" font-size="14.00">5: </text>
<text text-anchor="start" x="1407.28" y="-1085.39" font-family="Times,serif" font-size="14.00">Ist in der LF-CL eine Marktlokation enthalten, die im Bilanzierungsmonat dem LF zur Bilanzierung nicht zugeordnet ist?</text>
</g>
<!-- 4&#45;&gt;5 -->
<g id="edge9" class="edge">
<title>4-&gt;5</title>
<path fill="none" stroke="black" d="M1435.92,-1185.34C1519.88,-1164.98 1658.23,-1131.43 1746.35,-1110.06"/>
<polygon fill="black" stroke="black" points="1746.95,-1113.27 1755.84,-1107.51 1745.3,-1106.47 1746.95,-1113.27"/>
<text text-anchor="middle" x="1641.65" y="-1141.78" font-family="Times,serif" font-size="14.00">Nein</text>
</g>
<!-- A05 -->
<g id="node11" class="node">
<title>A05</title>
<polygon fill="#cfb986" stroke="black" points="1845.77,-1005.06 1573.79,-1005.06 1573.79,-943.54 1845.77,-943.54 1845.77,-1005.06"/>
<text text-anchor="start" x="1694.78" y="-987" font-family="Times,serif" font-weight="bold" font-size="14.00">A05</text>
<text text-anchor="start" x="1586.03" y="-974.9" font-family="Times,serif" text-decoration="underline" font-size="12.00">Hinweis:</text>
<text text-anchor="start" x="1586.03" y="-962.9" font-family="Times,serif" font-size="12.00">Cluster: Korrekturliste wegen Ablehnung</text>
<text text-anchor="start" x="1586.03" y="-950.9" font-family="Times,serif" font-size="12.00">Marktlokation falschem LF zugeordnet</text>
</g>
<!-- 5&#45;&gt;A05 -->
<g id="edge10" class="edge">
<title>5-&gt;A05</title>
<path fill="none" stroke="black" d="M1810.44,-1070.7C1794.14,-1055.25 1769.75,-1032.13 1749.06,-1012.53"/>
<polygon fill="black" stroke="black" points="1752,-1010.55 1742.34,-1006.21 1747.19,-1015.63 1752,-1010.55"/>
<text text-anchor="middle" x="1783.53" y="-1027.01" font-family="Times,serif" font-size="14.00">Ja</text>
</g>
<!-- 6 -->
<g id="node12" class="node">
<title>6</title>
<path fill="#7aab8a" stroke="black" d="M2427.93,-992.3C2427.93,-992.3 1875.62,-992.3 1875.62,-992.3 1869.62,-992.3 1863.62,-986.3 1863.62,-980.3 1863.62,-980.3 1863.62,-968.3 1863.62,-968.3 1863.62,-962.3 1869.62,-956.3 1875.62,-956.3 1875.62,-956.3 2427.93,-956.3 2427.93,-956.3 2433.93,-956.3 2439.93,-962.3 2439.93,-968.3 2439.93,-968.3 2439.93,-980.3 2439.93,-980.3 2439.93,-986.3 2433.93,-992.3 2427.93,-992.3"/>
<text text-anchor="start" x="1878.03" y="-970.62" font-family="Times,serif" font-weight="bold" font-size="14.00">6: </text>
<text text-anchor="start" x="1897.53" y="-970.62" font-family="Times,serif" font-size="14.00">Ist die in der LF-CL enthaltene Marktlokation dem MaBiS-ZP zugeordnet?</text>
</g>
<!-- 5&#45;&gt;6 -->
<g id="edge11" class="edge">
<title>5-&gt;6</title>
<path fill="none" stroke="black" d="M1878.89,-1070.57C1936.26,-1050.54 2030.19,-1017.75 2091.51,-996.34"/>
<polygon fill="black" stroke="black" points="2092.52,-999.35 2100.81,-992.74 2090.21,-992.74 2092.52,-999.35"/>
<text text-anchor="middle" x="2026.65" y="-1027.01" font-family="Times,serif" font-size="14.00">Nein</text>
</g>
<!-- A06 -->
<g id="node13" class="node">
<title>A06</title>
<polygon fill="#cfb986" stroke="black" points="2187.77,-890.29 1789.79,-890.29 1789.79,-828.77 2187.77,-828.77 2187.77,-890.29"/>
<text text-anchor="start" x="1973.78" y="-872.23" font-family="Times,serif" font-weight="bold" font-size="14.00">A06</text>
<text text-anchor="start" x="1802.03" y="-860.13" font-family="Times,serif" text-decoration="underline" font-size="12.00">Hinweis:</text>
<text text-anchor="start" x="1802.03" y="-848.13" font-family="Times,serif" font-size="12.00">Cluster: Korrekturliste wegen Ablehnung</text>
<text text-anchor="start" x="1802.03" y="-836.13" font-family="Times,serif" font-size="12.00">Zu viele Marktlokationen enthalten / entfallene Marktlokation</text>
</g>
<!-- 6&#45;&gt;A06 -->
<g id="edge12" class="edge">
<title>6-&gt;A06</title>
<path fill="none" stroke="black" d="M2126.66,-955.93C2103.92,-940.19 2069.69,-916.51 2041.03,-896.68"/>
<polygon fill="black" stroke="black" points="2043.54,-893.47 2033.33,-890.66 2039.56,-899.23 2043.54,-893.47"/>
<text text-anchor="middle" x="2097.65" y="-912.24" font-family="Times,serif" font-size="14.00">Nein</text>
</g>
<!-- 7 -->
<g id="node14" class="node">
<title>7</title>
<path fill="#7aab8a" stroke="black" d="M2953.8,-877.53C2953.8,-877.53 2217.75,-877.53 2217.75,-877.53 2211.75,-877.53 2205.75,-871.53 2205.75,-865.53 2205.75,-865.53 2205.75,-853.53 2205.75,-853.53 2205.75,-847.53 2211.75,-841.53 2217.75,-841.53 2217.75,-841.53 2953.8,-841.53 2953.8,-841.53 2959.8,-841.53 2965.8,-847.53 2965.8,-853.53 2965.8,-853.53 2965.8,-865.53 2965.8,-865.53 2965.8,-871.53 2959.8,-877.53 2953.8,-877.53"/>
<text text-anchor="start" x="2220.15" y="-855.86" font-family="Times,serif" font-weight="bold" font-size="14.00">7: </text>
<text text-anchor="start" x="2239.65" y="-855.86" font-family="Times,serif" font-size="14.00">Entspricht das Bilanzierungsgebiet dem zwischen NB und LF ausgetauschten Bilanzierungsgebiet?</text>
</g>
<!-- 6&#45;&gt;7 -->
<g id="edge13" class="edge">
<title>6-&gt;7</title>
<path fill="none" stroke="black" d="M2219.11,-955.8C2297.23,-935.5 2425.81,-902.09 2508.09,-880.71"/>
<polygon fill="black" stroke="black" points="2508.84,-883.88 2517.64,-877.97 2507.08,-877.1 2508.84,-883.88"/>
<text text-anchor="middle" x="2401.53" y="-912.24" font-family="Times,serif" font-size="14.00">Ja</text>
</g>
<!-- A07 -->
<g id="node15" class="node">
<title>A07</title>
<polygon fill="#cfb986" stroke="black" points="2871.89,-61.52 2573.66,-61.52 2573.66,0 2871.89,0 2871.89,-61.52"/>
<text text-anchor="start" x="2707.78" y="-43.46" font-family="Times,serif" font-weight="bold" font-size="14.00">A07</text>
<text text-anchor="start" x="2585.9" y="-31.36" font-family="Times,serif" text-decoration="underline" font-size="12.00">Hinweis:</text>
<text text-anchor="start" x="2585.9" y="-19.36" font-family="Times,serif" font-size="12.00">Cluster: Korrekturliste wegen Ablehnung</text>
<text text-anchor="start" x="2585.9" y="-7.36" font-family="Times,serif" font-size="12.00">Bilanzierungsrel. Daten nicht korrekt / fehlen</text>
</g>
<!-- 7&#45;&gt;A07 -->
<g id="edge14" class="edge">
<title>7-&gt;A07</title>
<path fill="none" stroke="black" d="M2553.16,-841.19C2526.01,-824.14 2491.78,-795.33 2491.78,-758.52 2491.78,-758.52 2491.78,-758.52 2491.78,-131.77 2491.78,-90.48 2523.25,-66.04 2562.96,-51.64"/>
<polygon fill="black" stroke="black" points="2563.85,-54.7 2572.22,-48.2 2561.62,-48.06 2563.85,-54.7"/>
<text text-anchor="middle" x="2508.65" y="-440.47" font-family="Times,serif" font-size="14.00">Nein</text>
</g>
<!-- 8 -->
<g id="node16" class="node">
<title>8</title>
<path fill="#7aab8a" stroke="black" d="M3139.68,-775.52C3139.68,-775.52 2531.88,-775.52 2531.88,-775.52 2525.88,-775.52 2519.88,-769.52 2519.88,-763.52 2519.88,-763.52 2519.88,-751.52 2519.88,-751.52 2519.88,-745.52 2525.88,-739.52 2531.88,-739.52 2531.88,-739.52 3139.68,-739.52 3139.68,-739.52 3145.68,-739.52 3151.68,-745.52 3151.68,-751.52 3151.68,-751.52 3151.68,-763.52 3151.68,-763.52 3151.68,-769.52 3145.68,-775.52 3139.68,-775.52"/>
<text text-anchor="start" x="2534.28" y="-753.85" font-family="Times,serif" font-weight="bold" font-size="14.00">8: </text>
<text text-anchor="start" x="2553.78" y="-753.85" font-family="Times,serif" font-size="14.00">Entspricht der Bilanzkreis dem zwischen NB und LF ausgetauschten Bilanzkreis?</text>
</g>
<!-- 7&#45;&gt;8 -->
<g id="edge15" class="edge">
<title>7-&gt;8</title>
<path fill="none" stroke="black" d="M2629.32,-841.11C2671.85,-824.1 2736.66,-798.17 2782.3,-779.91"/>
<polygon fill="black" stroke="black" points="2783.32,-782.87 2791.31,-775.91 2780.72,-776.37 2783.32,-782.87"/>
<text text-anchor="middle" x="2754.53" y="-797.47" font-family="Times,serif" font-size="14.00">Ja</text>
</g>
<!-- 8&#45;&gt;A07 -->
<g id="edge16" class="edge">
<title>8-&gt;A07</title>
<path fill="none" stroke="black" d="M2704.79,-739.05C2631.92,-725.52 2555.78,-703.26 2555.78,-669.27 2555.78,-669.27 2555.78,-669.27 2555.78,-131.77 2555.78,-102.73 2574.6,-81.91 2599.6,-67.07"/>
<polygon fill="black" stroke="black" points="2600.99,-69.75 2608.07,-61.87 2597.62,-63.62 2600.99,-69.75"/>
<text text-anchor="middle" x="2572.65" y="-395.84" font-family="Times,serif" font-size="14.00">Nein</text>
</g>
<!-- 9 -->
<g id="node17" class="node">
<title>9</title>
<path fill="#7aab8a" stroke="black" d="M3060.93,-686.27C3060.93,-686.27 2610.62,-686.27 2610.62,-686.27 2604.62,-686.27 2598.62,-680.27 2598.62,-674.27 2598.62,-674.27 2598.62,-662.27 2598.62,-662.27 2598.62,-656.27 2604.62,-650.27 2610.62,-650.27 2610.62,-650.27 3060.93,-650.27 3060.93,-650.27 3066.93,-650.27 3072.93,-656.27 3072.93,-662.27 3072.93,-662.27 3072.93,-674.27 3072.93,-674.27 3072.93,-680.27 3066.93,-686.27 3060.93,-686.27"/>
<text text-anchor="start" x="2613.03" y="-664.6" font-family="Times,serif" font-weight="bold" font-size="14.00">9: </text>
<text text-anchor="start" x="2632.53" y="-664.6" font-family="Times,serif" font-size="14.00">Entspricht der Bilanzierungsbeginn der Erwartung des LF?</text>
</g>
<!-- 8&#45;&gt;9 -->
<g id="edge17" class="edge">
<title>8-&gt;9</title>
<path fill="none" stroke="black" d="M2835.78,-739.28C2835.78,-727.33 2835.78,-711.15 2835.78,-697.35"/>
<polygon fill="black" stroke="black" points="2839.28,-697.47 2835.78,-687.47 2832.28,-697.47 2839.28,-697.47"/>
<text text-anchor="middle" x="2842.53" y="-708.22" font-family="Times,serif" font-size="14.00">Ja</text>
</g>
<!-- 9&#45;&gt;A07 -->
<g id="edge18" class="edge">
<title>9-&gt;A07</title>
<path fill="none" stroke="black" d="M2751.8,-649.82C2690.39,-634.55 2617.78,-610.14 2617.78,-580.02 2617.78,-580.02 2617.78,-580.02 2617.78,-131.77 2617.78,-105.77 2634.86,-84.47 2655.25,-68.31"/>
<polygon fill="black" stroke="black" points="2656.9,-70.71 2662.83,-61.93 2652.72,-65.09 2656.9,-70.71"/>
<text text-anchor="middle" x="2634.65" y="-351.22" font-family="Times,serif" font-size="14.00">Nein</text>
</g>
<!-- 10 -->
<g id="node18" class="node">
<title>10</title>
<path fill="#7aab8a" stroke="black" d="M3104.05,-597.02C3104.05,-597.02 2657.5,-597.02 2657.5,-597.02 2651.5,-597.02 2645.5,-591.02 2645.5,-585.02 2645.5,-585.02 2645.5,-573.02 2645.5,-573.02 2645.5,-567.02 2651.5,-561.02 2657.5,-561.02 2657.5,-561.02 3104.05,-561.02 3104.05,-561.02 3110.05,-561.02 3116.05,-567.02 3116.05,-573.02 3116.05,-573.02 3116.05,-585.02 3116.05,-585.02 3116.05,-591.02 3110.05,-597.02 3104.05,-597.02"/>
<text text-anchor="start" x="2659.9" y="-575.35" font-family="Times,serif" font-weight="bold" font-size="14.00">10: </text>
<text text-anchor="start" x="2689.15" y="-575.35" font-family="Times,serif" font-size="14.00">Entspricht das Bilanzierungsende der Erwartung des LF?</text>
</g>
<!-- 9&#45;&gt;10 -->
<g id="edge19" class="edge">
<title>9-&gt;10</title>
<path fill="none" stroke="black" d="M2844.67,-650.03C2851.01,-637.72 2859.68,-620.93 2866.93,-606.87"/>
<polygon fill="black" stroke="black" points="2870.43,-608.71 2871.9,-598.22 2864.21,-605.51 2870.43,-608.71"/>
<text text-anchor="middle" x="2868.53" y="-618.97" font-family="Times,serif" font-size="14.00">Ja</text>
</g>
<!-- 10&#45;&gt;A07 -->
<g id="edge20" class="edge">
<title>10-&gt;A07</title>
<path fill="none" stroke="black" d="M2726.1,-560.55C2692.49,-547.78 2666.78,-526.38 2666.78,-490.77 2666.78,-490.77 2666.78,-490.77 2666.78,-131.77 2666.78,-109.74 2677.25,-88.06 2689.13,-70.55"/>
<polygon fill="black" stroke="black" points="2692.43,-72.95 2695.43,-62.79 2686.75,-68.87 2692.43,-72.95"/>
<text text-anchor="middle" x="2683.65" y="-306.59" font-family="Times,serif" font-size="14.00">Nein</text>
</g>
<!-- 11 -->
<g id="node19" class="node">
<title>11</title>
<path fill="#7aab8a" stroke="black" d="M3402.93,-507.77C3402.93,-507.77 2706.62,-507.77 2706.62,-507.77 2700.62,-507.77 2694.62,-501.77 2694.62,-495.77 2694.62,-495.77 2694.62,-483.77 2694.62,-483.77 2694.62,-477.77 2700.62,-471.77 2706.62,-471.77 2706.62,-471.77 3402.93,-471.77 3402.93,-471.77 3408.93,-471.77 3414.93,-477.77 3414.93,-483.77 3414.93,-483.77 3414.93,-495.77 3414.93,-495.77 3414.93,-501.77 3408.93,-507.77 3402.93,-507.77"/>
<text text-anchor="start" x="2709.03" y="-486.09" font-family="Times,serif" font-weight="bold" font-size="14.00">11: </text>
<text text-anchor="start" x="2738.28" y="-486.09" font-family="Times,serif" font-size="14.00">Entspricht das normierte Profil dem zwischen NB und LF ausgetauschten normierten Profil?</text>
</g>
<!-- 10&#45;&gt;11 -->
<g id="edge21" class="edge">
<title>10-&gt;11</title>
<path fill="none" stroke="black" d="M2915.57,-560.57C2942.83,-546.9 2980.95,-527.79 3010.41,-513.02"/>
<polygon fill="black" stroke="black" points="3011.67,-515.8 3019.04,-508.19 3008.53,-509.54 3011.67,-515.8"/>
<text text-anchor="middle" x="2989.53" y="-529.72" font-family="Times,serif" font-size="14.00">Ja</text>
</g>
<!-- 11&#45;&gt;A07 -->
<g id="edge22" class="edge">
<title>11-&gt;A07</title>
<path fill="none" stroke="black" d="M2910.11,-471.28C2842.01,-460.04 2770.73,-442.91 2747.78,-418.52 2701.73,-369.59 2712.31,-161.63 2719.19,-72.54"/>
<polygon fill="black" stroke="black" points="2722.74,-73.03 2720.05,-62.78 2715.76,-72.47 2722.74,-73.03"/>
<text text-anchor="middle" x="2731.65" y="-261.97" font-family="Times,serif" font-size="14.00">Nein</text>
</g>
<!-- 12 -->
<g id="node20" class="node">
<title>12</title>
<path fill="#7aab8a" stroke="black" d="M3542.93,-418.52C3542.93,-418.52 2768.62,-418.52 2768.62,-418.52 2762.62,-418.52 2756.62,-412.52 2756.62,-406.52 2756.62,-406.52 2756.62,-394.52 2756.62,-394.52 2756.62,-388.52 2762.62,-382.52 2768.62,-382.52 2768.62,-382.52 3542.93,-382.52 3542.93,-382.52 3548.93,-382.52 3554.93,-388.52 3554.93,-394.52 3554.93,-394.52 3554.93,-406.52 3554.93,-406.52 3554.93,-412.52 3548.93,-418.52 3542.93,-418.52"/>
<text text-anchor="start" x="2771.03" y="-396.84" font-family="Times,serif" font-weight="bold" font-size="14.00">12: </text>
<text text-anchor="start" x="2800.28" y="-396.84" font-family="Times,serif" font-size="14.00">Entspricht die Versionsangabe des Profils der zwischen NB und LF ausgetauschten Version des Profils?</text>
</g>
<!-- 11&#45;&gt;12 -->
<g id="edge23" class="edge">
<title>11-&gt;12</title>
<path fill="none" stroke="black" d="M3074.73,-471.53C3089.95,-458.39 3111.09,-440.12 3127.97,-425.54"/>
<polygon fill="black" stroke="black" points="3129.58,-427.91 3134.86,-418.72 3125.01,-422.61 3129.58,-427.91"/>
<text text-anchor="middle" x="3120.53" y="-440.47" font-family="Times,serif" font-size="14.00">Ja</text>
</g>
<!-- 12&#45;&gt;A07 -->
<g id="edge24" class="edge">
<title>12-&gt;A07</title>
<path fill="none" stroke="black" d="M2965.25,-382.03C2890.69,-371.36 2816.79,-354.7 2790.78,-329.27 2750.17,-289.58 2750.77,-134.55 2736.78,-79.52 2736.19,-77.21 2735.56,-74.84 2734.92,-72.45"/>
<polygon fill="black" stroke="black" points="2738.06,-71.68 2731.99,-62.99 2731.31,-73.56 2738.06,-71.68"/>
<text text-anchor="middle" x="2775.65" y="-217.34" font-family="Times,serif" font-size="14.00">Nein</text>
</g>
<!-- 13 -->
<g id="node21" class="node">
<title>13</title>
<path fill="#7aab8a" stroke="black" d="M3635.68,-329.27C3635.68,-329.27 2811.88,-329.27 2811.88,-329.27 2805.88,-329.27 2799.88,-323.27 2799.88,-317.27 2799.88,-317.27 2799.88,-305.27 2799.88,-305.27 2799.88,-299.27 2805.88,-293.27 2811.88,-293.27 2811.88,-293.27 3635.68,-293.27 3635.68,-293.27 3641.68,-293.27 3647.68,-299.27 3647.68,-305.27 3647.68,-305.27 3647.68,-317.27 3647.68,-317.27 3647.68,-323.27 3641.68,-329.27 3635.68,-329.27"/>
<text text-anchor="start" x="2814.28" y="-307.59" font-family="Times,serif" font-weight="bold" font-size="14.00">13: </text>
<text text-anchor="start" x="2843.53" y="-307.59" font-family="Times,serif" font-size="14.00">Entspricht die veranschlagte Prognosemenge (JVP) der zwischen NB und LF ausgetauschten Prognosemenge?</text>
</g>
<!-- 12&#45;&gt;13 -->
<g id="edge25" class="edge">
<title>12-&gt;13</title>
<path fill="none" stroke="black" d="M3169.21,-382.28C3179.08,-369.62 3192.66,-352.19 3203.8,-337.9"/>
<polygon fill="black" stroke="black" points="3206.98,-340.51 3210.37,-330.47 3201.46,-336.21 3206.98,-340.51"/>
<text text-anchor="middle" x="3202.53" y="-351.22" font-family="Times,serif" font-size="14.00">Ja</text>
</g>
<!-- 13&#45;&gt;A07 -->
<g id="edge26" class="edge">
<title>13-&gt;A07</title>
<path fill="none" stroke="black" d="M3044.82,-292.79C2964.68,-281.75 2881.37,-264.8 2850.78,-240.02 2790.71,-191.37 2830.62,-141.01 2783.78,-79.52 2781.07,-75.97 2778.04,-72.54 2774.82,-69.25"/>
<polygon fill="black" stroke="black" points="2777.68,-67.19 2768.01,-62.86 2772.87,-72.28 2777.68,-67.19"/>
<text text-anchor="middle" x="2832.65" y="-172.72" font-family="Times,serif" font-size="14.00">Nein</text>
</g>
<!-- 14 -->
<g id="node22" class="node">
<title>14</title>
<path fill="#7aab8a" stroke="black" d="M3991.8,-240.02C3991.8,-240.02 2871.75,-240.02 2871.75,-240.02 2865.75,-240.02 2859.75,-234.02 2859.75,-228.02 2859.75,-228.02 2859.75,-216.02 2859.75,-216.02 2859.75,-210.02 2865.75,-204.02 2871.75,-204.02 2871.75,-204.02 3991.8,-204.02 3991.8,-204.02 3997.8,-204.02 4003.8,-210.02 4003.8,-216.02 4003.8,-216.02 4003.8,-228.02 4003.8,-228.02 4003.8,-234.02 3997.8,-240.02 3991.8,-240.02"/>
<text text-anchor="start" x="2874.15" y="-218.34" font-family="Times,serif" font-weight="bold" font-size="14.00">14: </text>
<text text-anchor="start" x="2903.4" y="-218.34" font-family="Times,serif" font-size="14.00">Entspricht die tats&#228;chlich bilanzierte Menge der erwarteten bilanzierten Menge (monatlich gemessene Menge auf Basis der Summe der 1/4-h-Werten)?</text>
</g>
<!-- 13&#45;&gt;14 -->
<g id="edge27" class="edge">
<title>13-&gt;14</title>
<path fill="none" stroke="black" d="M3265.37,-292.82C3298.39,-278.97 3344.72,-259.54 3380.12,-244.69"/>
<polygon fill="black" stroke="black" points="3381.39,-247.53 3389.26,-240.44 3378.68,-241.08 3381.39,-247.53"/>
<text text-anchor="middle" x="3352.53" y="-261.97" font-family="Times,serif" font-size="14.00">Ja</text>
</g>
<!-- 14&#45;&gt;A07 -->
<g id="edge28" class="edge">
<title>14-&gt;A07</title>
<path fill="none" stroke="black" d="M3306.14,-203.53C3230.61,-191.66 3132.98,-173.91 3048.03,-150.77 3002.47,-138.36 2890.42,-96.4 2810.59,-65.8"/>
<polygon fill="black" stroke="black" points="2812.13,-62.26 2801.54,-61.94 2809.62,-68.79 2812.13,-62.26"/>
<text text-anchor="middle" x="3064.65" y="-128.09" font-family="Times,serif" font-size="14.00">Nein</text>
</g>
<!-- 15 -->
<g id="node23" class="node">
<title>15</title>
<path fill="#7aab8a" stroke="black" d="M3654.55,-150.77C3654.55,-150.77 3103,-150.77 3103,-150.77 3097,-150.77 3091,-144.77 3091,-138.77 3091,-138.77 3091,-126.77 3091,-126.77 3091,-120.77 3097,-114.77 3103,-114.77 3103,-114.77 3654.55,-114.77 3654.55,-114.77 3660.55,-114.77 3666.55,-120.77 3666.55,-126.77 3666.55,-126.77 3666.55,-138.77 3666.55,-138.77 3666.55,-144.77 3660.55,-150.77 3654.55,-150.77"/>
<text text-anchor="start" x="3105.4" y="-129.09" font-family="Times,serif" font-weight="bold" font-size="14.00">15: </text>
<text text-anchor="start" x="3134.65" y="-129.09" font-family="Times,serif" font-size="14.00">Entspricht der Zeitreihentyp dem zwischen NB und LF ausgetauschten?</text>
</g>
<!-- 14&#45;&gt;15 -->
<g id="edge29" class="edge">
<title>14-&gt;15</title>
<path fill="none" stroke="black" d="M3421.3,-203.78C3413.75,-191.35 3403.42,-174.35 3394.84,-160.21"/>
<polygon fill="black" stroke="black" points="3397.41,-158.7 3389.22,-151.97 3391.42,-162.34 3397.41,-158.7"/>
<text text-anchor="middle" x="3416.53" y="-172.72" font-family="Times,serif" font-size="14.00">Ja</text>
</g>
<!-- 15&#45;&gt;A07 -->
<g id="edge30" class="edge">
<title>15-&gt;A07</title>
<path fill="none" stroke="black" d="M3264.13,-114.29C3158.52,-98.19 3000.76,-74.14 2882.76,-56.15"/>
<polygon fill="black" stroke="black" points="2883.6,-52.59 2873.18,-54.54 2882.54,-59.51 2883.6,-52.59"/>
<text text-anchor="middle" x="3164.65" y="-83.47" font-family="Times,serif" font-size="14.00">Nein</text>
</g>
<!-- Ende -->
<g id="node24" class="node">
<title>Ende</title>
<polygon fill="#7a8da1" stroke="black" points="3411.55,-48.76 3346,-48.76 3346,-12.76 3411.55,-12.76 3411.55,-48.76"/>
<text text-anchor="middle" x="3378.78" y="-26.08" font-family="Times,serif" font-size="14.00">Ende</text>
</g>
<!-- 15&#45;&gt;Ende -->
<g id="edge31" class="edge">
<title>15-&gt;Ende</title>
<path fill="none" stroke="black" d="M3378.78,-114.35C3378.78,-99.29 3378.78,-77.25 3378.78,-59.73"/>
<polygon fill="black" stroke="black" points="3382.28,-59.98 3378.78,-49.98 3375.28,-59.98 3382.28,-59.98"/>
<text text-anchor="middle" x="3385.53" y="-83.47" font-family="Times,serif" font-size="14.00">Ja</text>
</g>
</g>
</svg>
  </g>
</svg>
  </g>
</svg>
