<?xml version='1.0' encoding='ASCII' standalone='yes'?>
<svg xmlns="http://www.w3.org/2000/svg" xmlns:xlink="http://www.w3.org/1999/xlink" version="1.1" width="3293.3333333333335px" viewBox="0 0 3293.3333333333335 1220.0" height="1220.0px">
  <g>
    <svg version="1.1" width="3293.3333333333335px" viewBox="0 0 3293.3333333333335 1220.0" height="1220.0px">
  <polygon fill="#f3f1f6" points="0,0 3293.3333333333335,0 3293.3333333333335,1220.0 0,1220.0"/><g>
    <g transform="translate(1159.0286482462784, 121.99999999999997) scale(1 1) translate(0, 0) scale(5.517591336205722 5.517591336205722) "><sodipodi:namedview xmlns:sodipodi="http://sodipodi.sourceforge.net/DTD/sodipodi-0.dtd" xmlns:inkscape="http://www.inkscape.org/namespaces/inkscape" id="namedview7" pagecolor="#ffffff" bordercolor="#999999" borderopacity="1" inkscape:pageshadow="0" inkscape:pageopacity="0" inkscape:pagecheckerboard="0" inkscape:document-units="mm" showgrid="false" fit-margin-top="0" fit-margin-left="0" fit-margin-right="0" fit-margin-bottom="0" inkscape:zoom="0.64052329" inkscape:cx="130.36216" inkscape:cy="412.163" inkscape:window-width="1512" inkscape:window-height="916" inkscape:window-x="3840" inkscape:window-y="136" inkscape:window-maximized="0" inkscape:current-layer="layer1"/>
  <defs id="defs2">
    <clipPath clipPathUnits="userSpaceOnUse" id="clipPath23">
      <path d="M 0,568.156 H 579.236 V 0 H 0 Z" id="path21"/>
    </clipPath>
  </defs>
  <g xmlns:inkscape="http://www.inkscape.org/namespaces/inkscape" inkscape:label="Layer 1" inkscape:groupmode="layer" id="layer1" transform="translate(-16.541937,-55.305267)">
    <g id="g19" clip-path="url(#clipPath23)" transform="matrix(0.35277777,0,0,-0.35277777,0.01017023,243.73675)" style="opacity:0.2">
      <g id="g25" transform="translate(122.444,32.7195)">
        <path d="m 0,0 h -56.104 c -11,0 -19.898,9.123 -19.463,20.115 10.594,267.191 231.277,481.302 501.029,481.302 v -56.02 c 0,-10.98 -8.688,-19.892 -19.658,-20.393 C 180.29,414.697 0,228.005 0,0" style="fill:#6ead83;fill-opacity:1;fill-rule:nonzero;stroke:none" id="path27"/>
      </g>
      <g id="g29" transform="translate(273.7828,32.7195)">
        <path d="m 0,0 h -55.926 c -11.228,0 -20.091,9.482 -19.435,20.69 10.744,183.439 163.389,329.388 349.485,329.388 v -56.263 c 0,-10.709 -8.273,-19.617 -18.957,-20.35 C 112.819,263.696 0,144.774 0,0" style="fill:#6ead83;fill-opacity:1;fill-rule:nonzero;stroke:none" id="path31"/>
      </g>
      <g id="g33" transform="translate(425.7667,32.7195)">
        <path d="m 0,0 h -55.445 c -11.653,0 -20.604,10.17 -19.334,21.753 10.866,99.032 95.031,176.341 196.919,176.341 v -57.011 c 0,-10.046 -7.283,-18.755 -17.229,-20.165 C 45.688,112.522 0,61.497 0,0" style="fill:#6ead83;fill-opacity:1;fill-rule:nonzero;stroke:none" id="path35"/>
      </g>
    </g>
  </g>
</g>
    <svg width="2470pt" height="915pt" viewBox="0.00 0.00 2469.55 914.63">
<g id="graph0" class="graph" transform="scale(1 1) rotate(0) translate(4 910.63)">
<title>D</title>
<text text-anchor="start" x="1197.4" y="-886.53" font-family="Times,serif" font-weight="bold" font-size="18.00">MaBiS</text>
<text text-anchor="start" x="837.78" y="-856.43" font-family="Times,serif" font-weight="bold" font-size="16.00">7.43.1: AD: &#220;bermittlung der Bilanzkreissummenzeitreihe vom &#220;NB an BIKO und BKV</text>
<!-- Start -->
<g id="node1" class="node">
<title>Start</title>
<polygon fill="#7a8da1" stroke="black" points="389.93,-808.63 215.63,-808.63 215.63,-765.35 389.93,-765.35 389.93,-808.63"/>
<text text-anchor="start" x="274.65" y="-787.69" font-family="Times,serif" font-weight="bold" font-size="14.00">E_0023</text>
<text text-anchor="start" x="230.03" y="-775.59" font-family="Times,serif" font-weight="bold" text-decoration="underline" font-size="12.00">Pr&#252;fende Rolle:</text>
<text text-anchor="start" x="335.03" y="-775.59" font-family="Times,serif" font-weight="bold" font-size="12.00"> BIKO</text>
</g>
<!-- 1 -->
<g id="node2" class="node">
<title>1</title>
<path fill="#7aab8a" stroke="black" d="M593.55,-728.35C593.55,-728.35 12,-728.35 12,-728.35 6,-728.35 0,-722.35 0,-716.35 0,-716.35 0,-704.35 0,-704.35 0,-698.35 6,-692.35 12,-692.35 12,-692.35 593.55,-692.35 593.55,-692.35 599.55,-692.35 605.55,-698.35 605.55,-704.35 605.55,-704.35 605.55,-716.35 605.55,-716.35 605.55,-722.35 599.55,-728.35 593.55,-728.35"/>
<text text-anchor="start" x="14.4" y="-706.67" font-family="Times,serif" font-weight="bold" font-size="14.00">1: </text>
<text text-anchor="start" x="33.9" y="-706.67" font-family="Times,serif" font-size="14.00">Erfolgt der Eingang der Zeitreihe nach Ablauf der Clearingfrist f&#252;r die KBKA?</text>
</g>
<!-- Start&#45;&gt;1 -->
<g id="edge1" class="edge">
<title>Start-&gt;1</title>
<path fill="none" stroke="black" d="M302.78,-765.2C302.78,-757.16 302.78,-747.84 302.78,-739.24"/>
<polygon fill="black" stroke="black" points="306.28,-739.51 302.78,-729.51 299.28,-739.51 306.28,-739.51"/>
</g>
<!-- A01 -->
<g id="node3" class="node">
<title>A01</title>
<polygon fill="#cfb986" stroke="black" points="357.02,-639.1 212.54,-639.1 212.54,-589.58 357.02,-589.58 357.02,-639.1"/>
<text text-anchor="start" x="269.78" y="-621.04" font-family="Times,serif" font-weight="bold" font-size="14.00">A01</text>
<text text-anchor="start" x="224.78" y="-608.94" font-family="Times,serif" text-decoration="underline" font-size="12.00">Hinweis:</text>
<text text-anchor="start" x="224.78" y="-596.94" font-family="Times,serif" font-size="12.00">Frist&#252;berschreitung</text>
</g>
<!-- 1&#45;&gt;A01 -->
<g id="edge2" class="edge">
<title>1-&gt;A01</title>
<path fill="none" stroke="black" d="M299.47,-692.11C297.23,-680.36 294.17,-664.41 291.43,-650.09"/>
<polygon fill="black" stroke="black" points="294.73,-649.72 289.41,-640.55 287.85,-651.03 294.73,-649.72"/>
<text text-anchor="middle" x="303.53" y="-661.05" font-family="Times,serif" font-size="14.00">Ja</text>
</g>
<!-- 2 -->
<g id="node4" class="node">
<title>2</title>
<path fill="#7aab8a" stroke="black" d="M860.55,-632.34C860.55,-632.34 387,-632.34 387,-632.34 381,-632.34 375,-626.34 375,-620.34 375,-620.34 375,-608.34 375,-608.34 375,-602.34 381,-596.34 387,-596.34 387,-596.34 860.55,-596.34 860.55,-596.34 866.55,-596.34 872.55,-602.34 872.55,-608.34 872.55,-608.34 872.55,-620.34 872.55,-620.34 872.55,-626.34 866.55,-632.34 860.55,-632.34"/>
<text text-anchor="start" x="389.4" y="-610.66" font-family="Times,serif" font-weight="bold" font-size="14.00">2: </text>
<text text-anchor="start" x="408.9" y="-610.66" font-family="Times,serif" font-size="14.00">Ist der MaBiS-ZP zum betrachteten Bilanzierungsmonat aktiv?</text>
</g>
<!-- 1&#45;&gt;2 -->
<g id="edge3" class="edge">
<title>1-&gt;2</title>
<path fill="none" stroke="black" d="M362.4,-691.89C416.59,-676.02 496.59,-652.59 553.79,-635.84"/>
<polygon fill="black" stroke="black" points="554.58,-638.96 563.2,-632.79 552.62,-632.24 554.58,-638.96"/>
<text text-anchor="middle" x="490.65" y="-661.05" font-family="Times,serif" font-size="14.00">Nein</text>
</g>
<!-- A02 -->
<g id="node5" class="node">
<title>A02</title>
<polygon fill="#cfb986" stroke="black" points="592.89,-536.33 360.66,-536.33 360.66,-486.81 592.89,-486.81 592.89,-536.33"/>
<text text-anchor="start" x="461.78" y="-518.27" font-family="Times,serif" font-weight="bold" font-size="14.00">A02</text>
<text text-anchor="start" x="372.9" y="-506.17" font-family="Times,serif" text-decoration="underline" font-size="12.00">Hinweis:</text>
<text text-anchor="start" x="372.9" y="-494.17" font-family="Times,serif" font-size="12.00">Gew&#228;hlter Zeitraum nicht zul&#228;ssig</text>
</g>
<!-- 2&#45;&gt;A02 -->
<g id="edge4" class="edge">
<title>2-&gt;A02</title>
<path fill="none" stroke="black" d="M598.5,-596.02C577.3,-581.48 546.51,-560.38 521.21,-543.03"/>
<polygon fill="black" stroke="black" points="523.39,-539.59 513.16,-536.83 519.43,-545.37 523.39,-539.59"/>
<text text-anchor="middle" x="576.65" y="-558.28" font-family="Times,serif" font-size="14.00">Nein</text>
</g>
<!-- 3 -->
<g id="node6" class="node">
<title>3</title>
<path fill="#7aab8a" stroke="black" d="M1398.68,-529.57C1398.68,-529.57 622.88,-529.57 622.88,-529.57 616.88,-529.57 610.88,-523.57 610.88,-517.57 610.88,-517.57 610.88,-505.57 610.88,-505.57 610.88,-499.57 616.88,-493.57 622.88,-493.57 622.88,-493.57 1398.68,-493.57 1398.68,-493.57 1404.68,-493.57 1410.68,-499.57 1410.68,-505.57 1410.68,-505.57 1410.68,-517.57 1410.68,-517.57 1410.68,-523.57 1404.68,-529.57 1398.68,-529.57"/>
<text text-anchor="start" x="625.28" y="-507.89" font-family="Times,serif" font-weight="bold" font-size="14.00">3: </text>
<text text-anchor="start" x="644.78" y="-507.89" font-family="Times,serif" font-size="14.00">Wird die Frist von 2 WT vor dem erforderlichen Versand der Zeitreihe nach der Aktivierung eingehalten?</text>
</g>
<!-- 2&#45;&gt;3 -->
<g id="edge5" class="edge">
<title>2-&gt;3</title>
<path fill="none" stroke="black" d="M690.74,-595.9C758.27,-578.32 862.41,-551.2 933.43,-532.71"/>
<polygon fill="black" stroke="black" points="933.86,-535.95 942.65,-530.05 932.1,-529.18 933.86,-535.95"/>
<text text-anchor="middle" x="847.53" y="-558.28" font-family="Times,serif" font-size="14.00">Ja</text>
</g>
<!-- A03 -->
<g id="node7" class="node">
<title>A03</title>
<polygon fill="#cfb986" stroke="black" points="962.27,-433.56 813.29,-433.56 813.29,-384.04 962.27,-384.04 962.27,-433.56"/>
<text text-anchor="start" x="872.78" y="-415.5" font-family="Times,serif" font-weight="bold" font-size="14.00">A03</text>
<text text-anchor="start" x="825.53" y="-403.4" font-family="Times,serif" text-decoration="underline" font-size="12.00">Hinweis:</text>
<text text-anchor="start" x="825.53" y="-391.4" font-family="Times,serif" font-size="12.00">Fristunterschreitung</text>
</g>
<!-- 3&#45;&gt;A03 -->
<g id="edge6" class="edge">
<title>3-&gt;A03</title>
<path fill="none" stroke="black" d="M989.63,-493.25C972.12,-478.9 946.81,-458.16 925.79,-440.95"/>
<polygon fill="black" stroke="black" points="928.34,-437.69 918.38,-434.06 923.9,-443.1 928.34,-437.69"/>
<text text-anchor="middle" x="973.65" y="-455.51" font-family="Times,serif" font-size="14.00">Nein</text>
</g>
<!-- 4 -->
<g id="node8" class="node">
<title>4</title>
<path fill="#7aab8a" stroke="black" d="M1655.05,-426.8C1655.05,-426.8 992.5,-426.8 992.5,-426.8 986.5,-426.8 980.5,-420.8 980.5,-414.8 980.5,-414.8 980.5,-402.8 980.5,-402.8 980.5,-396.8 986.5,-390.8 992.5,-390.8 992.5,-390.8 1655.05,-390.8 1655.05,-390.8 1661.05,-390.8 1667.05,-396.8 1667.05,-402.8 1667.05,-402.8 1667.05,-414.8 1667.05,-414.8 1667.05,-420.8 1661.05,-426.8 1655.05,-426.8"/>
<text text-anchor="start" x="994.9" y="-405.12" font-family="Times,serif" font-weight="bold" font-size="14.00">4: </text>
<text text-anchor="start" x="1014.4" y="-405.12" font-family="Times,serif" font-size="14.00">Liegt die Version der Zeitreihe des MaBiS-ZP f&#252;r diesen Bilanzierungsmonat bereits vor?</text>
</g>
<!-- 3&#45;&gt;4 -->
<g id="edge7" class="edge">
<title>3-&gt;4</title>
<path fill="none" stroke="black" d="M1064.94,-493.13C1118.88,-475.76 1201.72,-449.1 1259.09,-430.63"/>
<polygon fill="black" stroke="black" points="1260.04,-433.67 1268.49,-427.28 1257.9,-427.01 1260.04,-433.67"/>
<text text-anchor="middle" x="1193.53" y="-455.51" font-family="Times,serif" font-size="14.00">Ja</text>
</g>
<!-- A04 -->
<g id="node9" class="node">
<title>A04</title>
<polygon fill="#cfb986" stroke="black" points="1276.64,-330.79 1084.91,-330.79 1084.91,-281.27 1276.64,-281.27 1276.64,-330.79"/>
<text text-anchor="start" x="1165.78" y="-312.73" font-family="Times,serif" font-weight="bold" font-size="14.00">A04</text>
<text text-anchor="start" x="1097.15" y="-300.63" font-family="Times,serif" text-decoration="underline" font-size="12.00">Hinweis:</text>
<text text-anchor="start" x="1097.15" y="-288.63" font-family="Times,serif" font-size="12.00">Zeitreihe bereits vorhanden</text>
</g>
<!-- 4&#45;&gt;A04 -->
<g id="edge8" class="edge">
<title>4-&gt;A04</title>
<path fill="none" stroke="black" d="M1299.19,-390.48C1278.57,-375.94 1248.62,-354.84 1224,-337.49"/>
<polygon fill="black" stroke="black" points="1226.39,-334.19 1216.2,-331.29 1222.35,-339.91 1226.39,-334.19"/>
<text text-anchor="middle" x="1268.53" y="-352.74" font-family="Times,serif" font-size="14.00">Ja</text>
</g>
<!-- 5 -->
<g id="node10" class="node">
<title>5</title>
<path fill="#7aab8a" stroke="black" d="M2126.43,-324.03C2126.43,-324.03 1307.12,-324.03 1307.12,-324.03 1301.12,-324.03 1295.12,-318.03 1295.12,-312.03 1295.12,-312.03 1295.12,-300.03 1295.12,-300.03 1295.12,-294.03 1301.12,-288.03 1307.12,-288.03 1307.12,-288.03 2126.43,-288.03 2126.43,-288.03 2132.43,-288.03 2138.43,-294.03 2138.43,-300.03 2138.43,-300.03 2138.43,-312.03 2138.43,-312.03 2138.43,-318.03 2132.43,-324.03 2126.43,-324.03"/>
<text text-anchor="start" x="1309.53" y="-302.35" font-family="Times,serif" font-weight="bold" font-size="14.00">5: </text>
<text text-anchor="start" x="1329.03" y="-302.35" font-family="Times,serif" font-size="14.00">Hat der BKV f&#252;r den BK dieses MaBiS-ZP in diesem Bilanzierungsmonat die Aggregationsebene RZ abbestellt?</text>
</g>
<!-- 4&#45;&gt;5 -->
<g id="edge9" class="edge">
<title>4-&gt;5</title>
<path fill="none" stroke="black" d="M1391.78,-390.36C1460.36,-372.78 1566.11,-345.66 1638.23,-327.17"/>
<polygon fill="black" stroke="black" points="1638.8,-330.38 1647.61,-324.51 1637.06,-323.6 1638.8,-330.38"/>
<text text-anchor="middle" x="1561.65" y="-352.74" font-family="Times,serif" font-size="14.00">Nein</text>
</g>
<!-- 6 -->
<g id="node11" class="node">
<title>6</title>
<path fill="#7aab8a" stroke="black" d="M1813.8,-228.02C1813.8,-228.02 849.75,-228.02 849.75,-228.02 843.75,-228.02 837.75,-222.02 837.75,-216.02 837.75,-216.02 837.75,-204.02 837.75,-204.02 837.75,-198.02 843.75,-192.02 849.75,-192.02 849.75,-192.02 1813.8,-192.02 1813.8,-192.02 1819.8,-192.02 1825.8,-198.02 1825.8,-204.02 1825.8,-204.02 1825.8,-216.02 1825.8,-216.02 1825.8,-222.02 1819.8,-228.02 1813.8,-228.02"/>
<text text-anchor="start" x="852.15" y="-206.34" font-family="Times,serif" font-weight="bold" font-size="14.00">6: </text>
<text text-anchor="start" x="871.65" y="-206.34" font-family="Times,serif" font-size="14.00">Hat der BKV f&#252;r diesen Bilanzierungsmonat bereits mitgeteilt, dass die weiteren Pr&#252;fungen auf Ebene des BG stattfinden m&#252;ssen?</text>
</g>
<!-- 5&#45;&gt;6 -->
<g id="edge11" class="edge">
<title>5-&gt;6</title>
<path fill="none" stroke="black" d="M1645.26,-287.57C1579.59,-271.53 1482.32,-247.78 1413.58,-231"/>
<polygon fill="black" stroke="black" points="1414.78,-227.44 1404.23,-228.47 1413.12,-234.24 1414.78,-227.44"/>
<text text-anchor="middle" x="1553.65" y="-249.97" font-family="Times,serif" font-size="14.00">Nein</text>
</g>
<!-- 7 -->
<g id="node13" class="node">
<title>7</title>
<path fill="#7aab8a" stroke="black" d="M2449.55,-138.77C2449.55,-138.77 1274,-138.77 1274,-138.77 1268,-138.77 1262,-132.77 1262,-126.77 1262,-126.77 1262,-114.77 1262,-114.77 1262,-108.77 1268,-102.77 1274,-102.77 1274,-102.77 2449.55,-102.77 2449.55,-102.77 2455.55,-102.77 2461.55,-108.77 2461.55,-114.77 2461.55,-114.77 2461.55,-126.77 2461.55,-126.77 2461.55,-132.77 2455.55,-138.77 2449.55,-138.77"/>
<text text-anchor="start" x="1276.4" y="-117.09" font-family="Times,serif" font-weight="bold" font-size="14.00">7: </text>
<text text-anchor="start" x="1295.9" y="-117.09" font-family="Times,serif" font-size="14.00">Ist die Version der Zeitreihe des MaBiS-ZP h&#246;her als die bisher h&#246;chste verarbeitete Version der Zeitreihe f&#252;r diesen Bilanzierungsmonat und diesen MaBiS-ZP?</text>
</g>
<!-- 5&#45;&gt;7 -->
<g id="edge10" class="edge">
<title>5-&gt;7</title>
<path fill="none" stroke="black" d="M1758.35,-287.54C1784.04,-274.68 1815.64,-254.79 1834.78,-228.02 1851.25,-204.97 1857.7,-172.81 1860.2,-149.92"/>
<polygon fill="black" stroke="black" points="1863.76,-150.47 1861.17,-140.2 1856.79,-149.84 1863.76,-150.47"/>
<text text-anchor="middle" x="1857.53" y="-205.34" font-family="Times,serif" font-size="14.00">Ja</text>
</g>
<!-- Ende -->
<g id="node12" class="node">
<title>Ende</title>
<polygon fill="#7a8da1" stroke="black" points="1500.55,-42.76 1435,-42.76 1435,-6.76 1500.55,-6.76 1500.55,-42.76"/>
<text text-anchor="middle" x="1467.78" y="-20.08" font-family="Times,serif" font-size="14.00">Ende</text>
</g>
<!-- 6&#45;&gt;Ende -->
<g id="edge13" class="edge">
<title>6-&gt;Ende</title>
<path fill="none" stroke="black" d="M1288.8,-191.65C1246.81,-172.1 1192.77,-138.38 1219.03,-102.77 1243.5,-69.58 1359.43,-44.58 1424.03,-32.96"/>
<polygon fill="black" stroke="black" points="1424.46,-36.26 1433.7,-31.08 1423.24,-29.37 1424.46,-36.26"/>
<text text-anchor="middle" x="1236.65" y="-116.09" font-family="Times,serif" font-size="14.00">Nein</text>
</g>
<!-- 6&#45;&gt;7 -->
<g id="edge12" class="edge">
<title>6-&gt;7</title>
<path fill="none" stroke="black" d="M1438.07,-191.52C1526.87,-176.9 1653.32,-156.09 1744.94,-141"/>
<polygon fill="black" stroke="black" points="1745.36,-144.32 1754.65,-139.24 1744.22,-137.41 1745.36,-144.32"/>
<text text-anchor="middle" x="1650.53" y="-160.72" font-family="Times,serif" font-size="14.00">Ja</text>
</g>
<!-- 7&#45;&gt;Ende -->
<g id="edge15" class="edge">
<title>7-&gt;Ende</title>
<path fill="none" stroke="black" d="M1788.59,-102.31C1707.22,-82.89 1578.45,-52.17 1511.48,-36.19"/>
<polygon fill="black" stroke="black" points="1512.43,-32.58 1501.89,-33.66 1510.81,-39.39 1512.43,-32.58"/>
<text text-anchor="middle" x="1717.53" y="-71.47" font-family="Times,serif" font-size="14.00">Ja</text>
</g>
<!-- A05 -->
<g id="node14" class="node">
<title>A05</title>
<polygon fill="#cfb986" stroke="black" points="1947.89,-49.52 1775.66,-49.52 1775.66,0 1947.89,0 1947.89,-49.52"/>
<text text-anchor="start" x="1846.78" y="-31.46" font-family="Times,serif" font-weight="bold" font-size="14.00">A05</text>
<text text-anchor="start" x="1787.9" y="-19.36" font-family="Times,serif" text-decoration="underline" font-size="12.00">Hinweis:</text>
<text text-anchor="start" x="1787.9" y="-7.36" font-family="Times,serif" font-size="12.00">Version nicht zugelassen</text>
</g>
<!-- 7&#45;&gt;A05 -->
<g id="edge14" class="edge">
<title>7-&gt;A05</title>
<path fill="none" stroke="black" d="M1861.78,-102.53C1861.78,-90.9 1861.78,-75.14 1861.78,-60.93"/>
<polygon fill="black" stroke="black" points="1865.28,-60.97 1861.78,-50.97 1858.28,-60.97 1865.28,-60.97"/>
<text text-anchor="middle" x="1878.65" y="-71.47" font-family="Times,serif" font-size="14.00">Nein</text>
</g>
</g>
</svg>
  </g>
</svg>
  </g>
</svg>
