<?xml version='1.0' encoding='ASCII' standalone='yes'?>
<svg xmlns="http://www.w3.org/2000/svg" xmlns:xlink="http://www.w3.org/1999/xlink" version="1.1" width="1462.6666666666667px" viewBox="0 0 1462.6666666666667 1305.3333333333333" height="1305.3333333333333px">
  <g>
    <svg version="1.1" width="1462.6666666666667px" viewBox="0 0 1462.6666666666667 1305.3333333333333" height="1305.3333333333333px">
  <rect fill="#e7e6e5" x="0" y="0" width="1462.6666666666667" height="1305.3333333333333" rx="20" ry="20"/><g>
    <g transform="translate(199.01759128883884, 130.5333333333333) scale(1 1) translate(0, 0) scale(1.837979911761945 1.837979911761945) "><!-- note that I manually added the width and height attribute to the root node
  https://chatgpt.com/share/678e3028-70cc-800b-a296-782714735772
  -->
  <defs>
    <style>.cls-1{fill:#fff;}</style>
  </defs>
  <path class="cls-1" d="M122.44,531.2h-56.1c-11,0-19.9-9.12-19.46-20.11C57.47,243.89,278.15,29.78,547.91,29.78v56.02c0,10.98-8.69,19.89-19.66,20.39-225.51,10.31-405.8,197-405.8,425Z"/>
  <path class="cls-1" d="M273.78,531.2h-55.93c-11.23,0-20.09-9.48-19.43-20.69,10.74-183.44,163.39-329.39,349.48-329.39v56.26c0,10.71-8.27,19.62-18.96,20.35-142.35,9.77-255.17,128.69-255.17,273.46Z"/>
  <path class="cls-1" d="M425.77,531.2h-55.45c-11.65,0-20.6-10.17-19.33-21.75,10.87-99.03,95.03-176.34,196.92-176.34v57.01c0,10.05-7.28,18.75-17.23,20.16-59.22,8.4-104.91,59.42-104.91,120.92Z"/>
</g>
    <svg width="1097pt" height="979pt" viewBox="0.00 0.00 1096.68 978.74">
<g id="graph0" class="graph" transform="scale(1 1) rotate(0) translate(4 974.74)">
<title>D</title>
<text text-anchor="start" x="197.84" y="-950.64" font-family="Roboto, sans-serif" font-weight="bold" font-size="18.00">MaBiS</text>
<text text-anchor="start" x="197.84" y="-920.54" font-family="Roboto, sans-serif" font-weight="bold" font-size="16.00">7.8.1: AD: Zuordnung einer Netzgangzeitreihe zu einer Netzzeitreihe beim NB</text>
<!-- Start -->
<g id="node1" class="node">
<title>Start</title>
<path fill="#8ba2d7" stroke="black" stroke-width="0" d="M475.55,-872.74C475.55,-872.74 344,-872.74 344,-872.74 338,-872.74 332,-866.74 332,-860.74 332,-860.74 332,-841.46 332,-841.46 332,-835.46 338,-829.46 344,-829.46 344,-829.46 475.55,-829.46 475.55,-829.46 481.55,-829.46 487.55,-835.46 487.55,-841.46 487.55,-841.46 487.55,-860.74 487.55,-860.74 487.55,-866.74 481.55,-872.74 475.55,-872.74"/>
<text text-anchor="start" x="346.4" y="-851.8" font-family="Roboto, sans-serif" font-weight="bold" font-size="14.00">E_0102</text>
<text text-anchor="start" x="346.4" y="-839.7" font-family="Roboto, sans-serif" font-weight="bold" text-decoration="underline" font-size="12.00">Pr&#252;fende Rolle:</text>
<text text-anchor="start" x="449.9" y="-839.7" font-family="Roboto, sans-serif" font-weight="bold" font-size="12.00"> NB</text>
</g>
<!-- 1 -->
<g id="node2" class="node">
<title>1</title>
<path fill="#c2cee9" stroke="black" stroke-width="0" d="M658.55,-792.46C658.55,-792.46 161,-792.46 161,-792.46 155,-792.46 149,-786.46 149,-780.46 149,-780.46 149,-759.18 149,-759.18 149,-753.18 155,-747.18 161,-747.18 161,-747.18 658.55,-747.18 658.55,-747.18 664.55,-747.18 670.55,-753.18 670.55,-759.18 670.55,-759.18 670.55,-780.46 670.55,-780.46 670.55,-786.46 664.55,-792.46 658.55,-792.46"/>
<text text-anchor="start" x="163.4" y="-771.52" font-family="Roboto, sans-serif" font-weight="bold" font-size="14.00">1: </text>
<text text-anchor="start" x="182.9" y="-771.52" font-family="Roboto, sans-serif" font-size="14.00">Wird die ID der Netzgangzeitreihe bereits f&#252;r die Identifikation eines</text>
<text text-anchor="start" x="163.4" y="-757.52" font-family="Roboto, sans-serif" font-size="14.00">Nicht-MaBiS-ZP verwendet?</text>
</g>
<!-- Start&#45;&gt;1 -->
<g id="edge1" class="edge">
<title>Start-&gt;1</title>
<path fill="none" stroke="#88a0d6" d="M409.77,-829.68C409.77,-821.71 409.77,-812.36 409.77,-803.5"/>
<polygon fill="#88a0d6" stroke="#88a0d6" points="413.28,-803.79 409.78,-793.79 406.28,-803.79 413.28,-803.79"/>
</g>
<!-- A01 -->
<g id="node3" class="node">
<title>A01</title>
<path fill="#c4cac1" stroke="black" stroke-width="0" d="M245.55,-693.93C245.55,-693.93 12,-693.93 12,-693.93 6,-693.93 0,-687.93 0,-681.93 0,-681.93 0,-638.65 0,-638.65 0,-632.65 6,-626.65 12,-626.65 12,-626.65 245.55,-626.65 245.55,-626.65 251.55,-626.65 257.55,-632.65 257.55,-638.65 257.55,-638.65 257.55,-681.93 257.55,-681.93 257.55,-687.93 251.55,-693.93 245.55,-693.93"/>
<text text-anchor="start" x="14.4" y="-672.99" font-family="Roboto, sans-serif" font-weight="bold" font-size="14.00">A01</text>
<text text-anchor="start" x="14.4" y="-660.89" font-family="Roboto, sans-serif" text-decoration="underline" font-size="12.00">Hinweis:</text>
<text text-anchor="start" x="14.4" y="-648.89" font-family="Roboto, sans-serif" font-size="12.00">Cluster: Ablehnung</text>
<text text-anchor="start" x="14.4" y="-636.89" font-family="Roboto, sans-serif" font-size="12.00">ID bereits au&#223;erhalb MaBiS verwendet</text>
</g>
<!-- 1&#45;&gt;A01 -->
<g id="edge2" class="edge">
<title>1-&gt;A01</title>
<path fill="none" stroke="#88a0d6" d="M353.25,-747.19C316.46,-733.11 267.54,-714.39 224.76,-698.02"/>
<polygon fill="#88a0d6" stroke="#88a0d6" points="226.03,-694.76 215.44,-694.45 223.53,-701.3 226.03,-694.76"/>
<text text-anchor="start" x="301.77" y="-716.88" font-family="Roboto, sans-serif" font-weight="bold" font-size="14.00">JA</text>
</g>
<!-- 2 -->
<g id="node4" class="node">
<title>2</title>
<path fill="#c2cee9" stroke="black" stroke-width="0" d="M839.92,-682.93C839.92,-682.93 287.62,-682.93 287.62,-682.93 281.62,-682.93 275.62,-676.93 275.62,-670.93 275.62,-670.93 275.62,-649.65 275.62,-649.65 275.62,-643.65 281.62,-637.65 287.62,-637.65 287.62,-637.65 839.92,-637.65 839.92,-637.65 845.92,-637.65 851.92,-643.65 851.92,-649.65 851.92,-649.65 851.92,-670.93 851.92,-670.93 851.92,-676.93 845.92,-682.93 839.92,-682.93"/>
<text text-anchor="start" x="290.02" y="-661.99" font-family="Roboto, sans-serif" font-weight="bold" font-size="14.00">2: </text>
<text text-anchor="start" x="309.52" y="-661.99" font-family="Roboto, sans-serif" font-size="14.00">Entspricht die Zuordnung der Netzgangzeitreihe zur Netzzeitreihe der</text>
<text text-anchor="start" x="290.02" y="-647.99" font-family="Roboto, sans-serif" font-size="14.00">Vereinbarung zur messtechnischen Abgrenzung der beiden benachbarten NB?</text>
</g>
<!-- 1&#45;&gt;2 -->
<g id="edge3" class="edge">
<title>1-&gt;2</title>
<path fill="none" stroke="#88a0d6" d="M440.57,-747.32C464.49,-730.61 497.85,-707.32 523.83,-689.18"/>
<polygon fill="#88a0d6" stroke="#88a0d6" points="525.6,-692.22 531.79,-683.62 521.59,-686.48 525.6,-692.22"/>
<text text-anchor="start" x="486.77" y="-716.88" font-family="Roboto, sans-serif" font-weight="bold" font-size="14.00">NEIN</text>
</g>
<!-- A02 -->
<g id="node5" class="node">
<title>A02</title>
<path fill="#c4cac1" stroke="black" stroke-width="0" d="M279.18,-573.4C279.18,-573.4 34.38,-573.4 34.38,-573.4 28.38,-573.4 22.38,-567.4 22.38,-561.4 22.38,-561.4 22.38,-518.12 22.38,-518.12 22.38,-512.12 28.38,-506.12 34.38,-506.12 34.38,-506.12 279.18,-506.12 279.18,-506.12 285.18,-506.12 291.18,-512.12 291.18,-518.12 291.18,-518.12 291.18,-561.4 291.18,-561.4 291.18,-567.4 285.18,-573.4 279.18,-573.4"/>
<text text-anchor="start" x="36.78" y="-552.46" font-family="Roboto, sans-serif" font-weight="bold" font-size="14.00">A02</text>
<text text-anchor="start" x="36.78" y="-540.36" font-family="Roboto, sans-serif" text-decoration="underline" font-size="12.00">Hinweis:</text>
<text text-anchor="start" x="36.78" y="-528.36" font-family="Roboto, sans-serif" font-size="12.00">Cluster: Ablehnung</text>
<text text-anchor="start" x="36.78" y="-516.36" font-family="Roboto, sans-serif" font-size="12.00">Zuordnung passt nicht zur Vereinbarung</text>
</g>
<!-- 2&#45;&gt;A02 -->
<g id="edge4" class="edge">
<title>2-&gt;A02</title>
<path fill="none" stroke="#88a0d6" d="M489.6,-637.69C431.05,-620.64 348.12,-596.49 279.69,-576.56"/>
<polygon fill="#88a0d6" stroke="#88a0d6" points="280.88,-573.26 270.3,-573.82 278.92,-579.98 280.88,-573.26"/>
<text text-anchor="start" x="383.77" y="-596.35" font-family="Roboto, sans-serif" font-weight="bold" font-size="14.00">NEIN</text>
</g>
<!-- 3 -->
<g id="node6" class="node">
<title>3</title>
<path fill="#c2cee9" stroke="black" stroke-width="0" d="M846.42,-557.76C846.42,-557.76 321.12,-557.76 321.12,-557.76 315.12,-557.76 309.12,-551.76 309.12,-545.76 309.12,-545.76 309.12,-533.76 309.12,-533.76 309.12,-527.76 315.12,-521.76 321.12,-521.76 321.12,-521.76 846.42,-521.76 846.42,-521.76 852.42,-521.76 858.42,-527.76 858.42,-533.76 858.42,-533.76 858.42,-545.76 858.42,-545.76 858.42,-551.76 852.42,-557.76 846.42,-557.76"/>
<text text-anchor="start" x="323.52" y="-536.09" font-family="Roboto, sans-serif" font-weight="bold" font-size="14.00">3: </text>
<text text-anchor="start" x="343.02" y="-536.09" font-family="Roboto, sans-serif" font-size="14.00">Ist der Absender zum Zuordnungsbeginn an der Netzzeitreihe beteiligt?</text>
</g>
<!-- 2&#45;&gt;3 -->
<g id="edge5" class="edge">
<title>2-&gt;3</title>
<path fill="none" stroke="#88a0d6" d="M567.4,-637.83C570.67,-618.44 575.5,-589.79 579.07,-568.64"/>
<polygon fill="#88a0d6" stroke="#88a0d6" points="582.49,-569.41 580.7,-558.97 575.59,-568.25 582.49,-569.41"/>
<text text-anchor="start" x="574.77" y="-596.35" font-family="Roboto, sans-serif" font-weight="bold" font-size="14.00">JA</text>
</g>
<!-- A03 -->
<g id="node7" class="node">
<title>A03</title>
<path fill="#c4cac1" stroke="black" stroke-width="0" d="M292.55,-452.87C292.55,-452.87 47,-452.87 47,-452.87 41,-452.87 35,-446.87 35,-440.87 35,-440.87 35,-397.59 35,-397.59 35,-391.59 41,-385.59 47,-385.59 47,-385.59 292.55,-385.59 292.55,-385.59 298.55,-385.59 304.55,-391.59 304.55,-397.59 304.55,-397.59 304.55,-440.87 304.55,-440.87 304.55,-446.87 298.55,-452.87 292.55,-452.87"/>
<text text-anchor="start" x="49.4" y="-431.93" font-family="Roboto, sans-serif" font-weight="bold" font-size="14.00">A03</text>
<text text-anchor="start" x="49.4" y="-419.83" font-family="Roboto, sans-serif" text-decoration="underline" font-size="12.00">Hinweis:</text>
<text text-anchor="start" x="49.4" y="-407.83" font-family="Roboto, sans-serif" font-size="12.00">Cluster: Ablehnung</text>
<text text-anchor="start" x="49.4" y="-395.83" font-family="Roboto, sans-serif" font-size="12.00">Keine Berechtigung f&#252;r die Netzzeitreihe</text>
</g>
<!-- 3&#45;&gt;A03 -->
<g id="edge6" class="edge">
<title>3-&gt;A03</title>
<path fill="none" stroke="#88a0d6" d="M524.46,-521.78C464.67,-504.66 370.58,-477.72 294.33,-455.89"/>
<polygon fill="#88a0d6" stroke="#88a0d6" points="295.72,-452.65 285.14,-453.26 293.8,-459.38 295.72,-452.65"/>
<text text-anchor="start" x="400.77" y="-475.82" font-family="Roboto, sans-serif" font-weight="bold" font-size="14.00">NEIN</text>
</g>
<!-- 4 -->
<g id="node8" class="node">
<title>4</title>
<path fill="#c2cee9" stroke="black" stroke-width="0" d="M870.67,-437.23C870.67,-437.23 334.88,-437.23 334.88,-437.23 328.88,-437.23 322.88,-431.23 322.88,-425.23 322.88,-425.23 322.88,-413.23 322.88,-413.23 322.88,-407.23 328.88,-401.23 334.88,-401.23 334.88,-401.23 870.67,-401.23 870.67,-401.23 876.67,-401.23 882.67,-407.23 882.67,-413.23 882.67,-413.23 882.67,-425.23 882.67,-425.23 882.67,-431.23 876.67,-437.23 870.67,-437.23"/>
<text text-anchor="start" x="337.27" y="-415.55" font-family="Roboto, sans-serif" font-weight="bold" font-size="14.00">4: </text>
<text text-anchor="start" x="356.77" y="-415.55" font-family="Roboto, sans-serif" font-size="14.00">Ist der Empf&#228;nger zum Zuordnungsbeginn an der Netzzeitreihe beteiligt?</text>
</g>
<!-- 3&#45;&gt;4 -->
<g id="edge7" class="edge">
<title>3-&gt;4</title>
<path fill="none" stroke="#88a0d6" d="M586.5,-521.78C589.56,-502.68 594.58,-471.35 598.24,-448.54"/>
<polygon fill="#88a0d6" stroke="#88a0d6" points="601.69,-449.1 599.82,-438.68 594.78,-448 601.69,-449.1"/>
<text text-anchor="start" x="593.77" y="-475.82" font-family="Roboto, sans-serif" font-weight="bold" font-size="14.00">JA</text>
</g>
<!-- A04 -->
<g id="node9" class="node">
<title>A04</title>
<path fill="#c4cac1" stroke="black" stroke-width="0" d="M405.17,-332.34C405.17,-332.34 172.38,-332.34 172.38,-332.34 166.38,-332.34 160.37,-326.34 160.37,-320.34 160.37,-320.34 160.37,-277.06 160.37,-277.06 160.37,-271.06 166.37,-265.06 172.37,-265.06 172.37,-265.06 405.17,-265.06 405.17,-265.06 411.17,-265.06 417.17,-271.06 417.17,-277.06 417.17,-277.06 417.17,-320.34 417.17,-320.34 417.17,-326.34 411.17,-332.34 405.17,-332.34"/>
<text text-anchor="start" x="174.77" y="-311.4" font-family="Roboto, sans-serif" font-weight="bold" font-size="14.00">A04</text>
<text text-anchor="start" x="174.77" y="-299.3" font-family="Roboto, sans-serif" text-decoration="underline" font-size="12.00">Hinweis:</text>
<text text-anchor="start" x="174.77" y="-287.3" font-family="Roboto, sans-serif" font-size="12.00">Cluster: Ablehnung</text>
<text text-anchor="start" x="174.77" y="-275.3" font-family="Roboto, sans-serif" font-size="12.00">Keine Beteiligung an der Netzzeitreihe</text>
</g>
<!-- 4&#45;&gt;A04 -->
<g id="edge8" class="edge">
<title>4-&gt;A04</title>
<path fill="none" stroke="#88a0d6" d="M557.79,-401.25C513.09,-384.37 443.11,-357.96 385.73,-336.3"/>
<polygon fill="#88a0d6" stroke="#88a0d6" points="387.18,-333.11 376.59,-332.85 384.71,-339.65 387.18,-333.11"/>
<text text-anchor="start" x="463.77" y="-355.29" font-family="Roboto, sans-serif" font-weight="bold" font-size="14.00">NEIN</text>
</g>
<!-- 5 -->
<g id="node10" class="node">
<title>5</title>
<path fill="#c2cee9" stroke="black" stroke-width="0" d="M994.67,-321.34C994.67,-321.34 446.88,-321.34 446.88,-321.34 440.88,-321.34 434.88,-315.34 434.88,-309.34 434.88,-309.34 434.88,-288.06 434.88,-288.06 434.88,-282.06 440.88,-276.06 446.88,-276.06 446.88,-276.06 994.67,-276.06 994.67,-276.06 1000.67,-276.06 1006.67,-282.06 1006.67,-288.06 1006.67,-288.06 1006.67,-309.34 1006.67,-309.34 1006.67,-315.34 1000.67,-321.34 994.67,-321.34"/>
<text text-anchor="start" x="449.27" y="-300.4" font-family="Roboto, sans-serif" font-weight="bold" font-size="14.00">5: </text>
<text text-anchor="start" x="468.77" y="-300.4" font-family="Roboto, sans-serif" font-size="14.00">Existiert zum Zuordnungsbeginn bereits eine Zuordnung der angegebenen</text>
<text text-anchor="start" x="449.27" y="-286.4" font-family="Roboto, sans-serif" font-size="14.00">Netzgangzeitreihe zu einer Netzzeitreihe?</text>
</g>
<!-- 4&#45;&gt;5 -->
<g id="edge9" class="edge">
<title>4-&gt;5</title>
<path fill="none" stroke="#88a0d6" d="M619.68,-401.25C638.41,-382.43 668.95,-351.76 691.57,-329.04"/>
<polygon fill="#88a0d6" stroke="#88a0d6" points="693.86,-331.69 698.44,-322.14 688.9,-326.75 693.86,-331.69"/>
<text text-anchor="start" x="668.77" y="-355.29" font-family="Roboto, sans-serif" font-weight="bold" font-size="14.00">JA</text>
</g>
<!-- A05 -->
<g id="node11" class="node">
<title>A05</title>
<path fill="#c4cac1" stroke="black" stroke-width="0" d="M608.42,-211.81C608.42,-211.81 191.12,-211.81 191.12,-211.81 185.12,-211.81 179.12,-205.81 179.12,-199.81 179.12,-199.81 179.12,-144.53 179.12,-144.53 179.12,-138.53 185.12,-132.53 191.12,-132.53 191.12,-132.53 608.42,-132.53 608.42,-132.53 614.42,-132.53 620.42,-138.53 620.42,-144.53 620.42,-144.53 620.42,-199.81 620.42,-199.81 620.42,-205.81 614.42,-211.81 608.42,-211.81"/>
<text text-anchor="start" x="193.52" y="-190.87" font-family="Roboto, sans-serif" font-weight="bold" font-size="14.00">A05</text>
<text text-anchor="start" x="193.52" y="-178.77" font-family="Roboto, sans-serif" text-decoration="underline" font-size="12.00">Hinweis:</text>
<text text-anchor="start" x="193.52" y="-166.77" font-family="Roboto, sans-serif" font-size="12.00">Cluster: Ablehnung</text>
<text text-anchor="start" x="193.52" y="-154.77" font-family="Roboto, sans-serif" font-size="12.00">Zuordnung bereits vorhanden</text>
<text text-anchor="start" x="193.52" y="-142.77" font-family="Roboto, sans-serif" font-size="12.00">Hinweis: In der Antwort ist die zugeordnete Netzzeitreihe anzugeben.</text>
</g>
<!-- 5&#45;&gt;A05 -->
<g id="edge10" class="edge">
<title>5-&gt;A05</title>
<path fill="none" stroke="#88a0d6" d="M665.23,-276.15C622.59,-259.61 562.35,-236.24 510.03,-215.94"/>
<polygon fill="#88a0d6" stroke="#88a0d6" points="511.34,-212.7 500.75,-212.34 508.8,-219.22 511.34,-212.7"/>
<text text-anchor="start" x="588.77" y="-234.76" font-family="Roboto, sans-serif" font-weight="bold" font-size="14.00">JA</text>
</g>
<!-- 6 -->
<g id="node12" class="node">
<title>6</title>
<path fill="#c2cee9" stroke="black" stroke-width="0" d="M991.17,-190.17C991.17,-190.17 650.38,-190.17 650.38,-190.17 644.38,-190.17 638.38,-184.17 638.38,-178.17 638.38,-178.17 638.38,-166.17 638.38,-166.17 638.38,-160.17 644.38,-154.17 650.38,-154.17 650.38,-154.17 991.17,-154.17 991.17,-154.17 997.17,-154.17 1003.17,-160.17 1003.17,-166.17 1003.17,-166.17 1003.17,-178.17 1003.17,-178.17 1003.17,-184.17 997.17,-190.17 991.17,-190.17"/>
<text text-anchor="start" x="652.77" y="-168.5" font-family="Roboto, sans-serif" font-weight="bold" font-size="14.00">6: </text>
<text text-anchor="start" x="672.27" y="-168.5" font-family="Roboto, sans-serif" font-size="14.00">Ist ein nicht spezifizierter Fehler aufgetreten?</text>
</g>
<!-- 5&#45;&gt;6 -->
<g id="edge11" class="edge">
<title>5-&gt;6</title>
<path fill="none" stroke="#88a0d6" d="M737.97,-276.29C755.24,-254.78 781.87,-221.61 800.25,-198.73"/>
<polygon fill="#88a0d6" stroke="#88a0d6" points="802.85,-201.08 806.38,-191.1 797.39,-196.7 802.85,-201.08"/>
<text text-anchor="start" x="772.77" y="-234.76" font-family="Roboto, sans-serif" font-weight="bold" font-size="14.00">NEIN</text>
</g>
<!-- A99 -->
<g id="node13" class="node">
<title>A99</title>
<path fill="#c4cac1" stroke="black" stroke-width="0" d="M882.92,-79.28C882.92,-79.28 396.62,-79.28 396.62,-79.28 390.62,-79.28 384.62,-73.28 384.62,-67.28 384.62,-67.28 384.62,-12 384.62,-12 384.62,-6 390.62,0 396.62,0 396.62,0 882.92,0 882.92,0 888.92,0 894.92,-6 894.92,-12 894.92,-12 894.92,-67.28 894.92,-67.28 894.92,-73.28 888.92,-79.28 882.92,-79.28"/>
<text text-anchor="start" x="399.02" y="-58.34" font-family="Roboto, sans-serif" font-weight="bold" font-size="14.00">A99</text>
<text text-anchor="start" x="399.02" y="-46.24" font-family="Roboto, sans-serif" text-decoration="underline" font-size="12.00">Hinweis:</text>
<text text-anchor="start" x="399.02" y="-34.24" font-family="Roboto, sans-serif" font-size="12.00">Ablehnung Sonstiges</text>
<text text-anchor="start" x="399.02" y="-22.24" font-family="Roboto, sans-serif" font-size="12.00">Hinweis: Das identifizierte Problem ist in der Antwort zu beschreiben / benennen.</text>
<text text-anchor="start" x="399.02" y="-10.24" font-family="Roboto, sans-serif" font-size="12.00">Nutzungsm&#246;glichkeit Ende: 03.04.2024 00:00 Uhr</text>
</g>
<!-- 6&#45;&gt;A99 -->
<g id="edge12" class="edge">
<title>6-&gt;A99</title>
<path fill="none" stroke="#88a0d6" d="M797.48,-154.37C773.48,-137.06 735.04,-109.34 702.11,-85.59"/>
<polygon fill="#88a0d6" stroke="#88a0d6" points="704.37,-82.91 694.22,-79.9 700.28,-88.59 704.37,-82.91"/>
<text text-anchor="start" x="740.77" y="-102.23" font-family="Roboto, sans-serif" font-weight="bold" font-size="14.00">JA</text>
</g>
<!-- A06 -->
<g id="node14" class="node">
<title>A06</title>
<path fill="#c4cac1" stroke="black" stroke-width="0" d="M1076.67,-73.28C1076.67,-73.28 924.88,-73.28 924.88,-73.28 918.88,-73.28 912.88,-67.28 912.88,-61.28 912.88,-61.28 912.88,-18 912.88,-18 912.88,-12 918.88,-6 924.88,-6 924.88,-6 1076.67,-6 1076.67,-6 1082.67,-6 1088.67,-12 1088.67,-18 1088.67,-18 1088.67,-61.28 1088.67,-61.28 1088.67,-67.28 1082.67,-73.28 1076.67,-73.28"/>
<text text-anchor="start" x="927.27" y="-52.34" font-family="Roboto, sans-serif" font-weight="bold" font-size="14.00">A06</text>
<text text-anchor="start" x="927.27" y="-40.24" font-family="Roboto, sans-serif" text-decoration="underline" font-size="12.00">Hinweis:</text>
<text text-anchor="start" x="927.27" y="-28.24" font-family="Roboto, sans-serif" font-size="12.00">Cluster: Zustimmung</text>
<text text-anchor="start" x="927.27" y="-16.24" font-family="Roboto, sans-serif" font-size="12.00">Zuordnung durchgef&#252;hrt</text>
</g>
<!-- 6&#45;&gt;A06 -->
<g id="edge13" class="edge">
<title>6-&gt;A06</title>
<path fill="none" stroke="#88a0d6" d="M843.94,-154.37C869.83,-135.6 912.61,-104.57 946.96,-79.66"/>
<polygon fill="#88a0d6" stroke="#88a0d6" points="948.69,-82.74 954.73,-74.03 944.58,-77.07 948.69,-82.74"/>
<text text-anchor="start" x="920.77" y="-102.23" font-family="Roboto, sans-serif" font-weight="bold" font-size="14.00">NEIN</text>
</g>
</g>
</svg>
  </g>
</svg>
  </g>
</svg>
