<?xml version='1.0' encoding='ASCII' standalone='yes'?>
<svg xmlns="http://www.w3.org/2000/svg" xmlns:xlink="http://www.w3.org/1999/xlink" version="1.1" width="1014.6666666666666px" viewBox="0 0 1014.6666666666666 449.3333333333333" height="449.3333333333333px">
  <g>
    <svg version="1.1" width="1014.6666666666666px" viewBox="0 0 1014.6666666666666 449.3333333333333" height="449.3333333333333px">
  <polygon fill="#f3f1f6" points="0,0 1014.6666666666666,0 1014.6666666666666,449.3333333333333 0,449.3333333333333"/><g>
    <g transform="translate(327.73331999161655, 44.93333333333332) scale(1 1) translate(0, 0) scale(2.0321620549741297 2.0321620549741297) "><sodipodi:namedview xmlns:sodipodi="http://sodipodi.sourceforge.net/DTD/sodipodi-0.dtd" xmlns:inkscape="http://www.inkscape.org/namespaces/inkscape" id="namedview7" pagecolor="#ffffff" bordercolor="#999999" borderopacity="1" inkscape:pageshadow="0" inkscape:pageopacity="0" inkscape:pagecheckerboard="0" inkscape:document-units="mm" showgrid="false" fit-margin-top="0" fit-margin-left="0" fit-margin-right="0" fit-margin-bottom="0" inkscape:zoom="0.64052329" inkscape:cx="130.36216" inkscape:cy="412.163" inkscape:window-width="1512" inkscape:window-height="916" inkscape:window-x="3840" inkscape:window-y="136" inkscape:window-maximized="0" inkscape:current-layer="layer1"/>
  <defs id="defs2">
    <clipPath clipPathUnits="userSpaceOnUse" id="clipPath23">
      <path d="M 0,568.156 H 579.236 V 0 H 0 Z" id="path21"/>
    </clipPath>
  </defs>
  <g xmlns:inkscape="http://www.inkscape.org/namespaces/inkscape" inkscape:label="Layer 1" inkscape:groupmode="layer" id="layer1" transform="translate(-16.541937,-55.305267)">
    <g id="g19" clip-path="url(#clipPath23)" transform="matrix(0.35277777,0,0,-0.35277777,0.01017023,243.73675)" style="opacity:0.2">
      <g id="g25" transform="translate(122.444,32.7195)">
        <path d="m 0,0 h -56.104 c -11,0 -19.898,9.123 -19.463,20.115 10.594,267.191 231.277,481.302 501.029,481.302 v -56.02 c 0,-10.98 -8.688,-19.892 -19.658,-20.393 C 180.29,414.697 0,228.005 0,0" style="fill:#6ead83;fill-opacity:1;fill-rule:nonzero;stroke:none" id="path27"/>
      </g>
      <g id="g29" transform="translate(273.7828,32.7195)">
        <path d="m 0,0 h -55.926 c -11.228,0 -20.091,9.482 -19.435,20.69 10.744,183.439 163.389,329.388 349.485,329.388 v -56.263 c 0,-10.709 -8.273,-19.617 -18.957,-20.35 C 112.819,263.696 0,144.774 0,0" style="fill:#6ead83;fill-opacity:1;fill-rule:nonzero;stroke:none" id="path31"/>
      </g>
      <g id="g33" transform="translate(425.7667,32.7195)">
        <path d="m 0,0 h -55.445 c -11.653,0 -20.604,10.17 -19.334,21.753 10.866,99.032 95.031,176.341 196.919,176.341 v -57.011 c 0,-10.046 -7.283,-18.755 -17.229,-20.165 C 45.688,112.522 0,61.497 0,0" style="fill:#6ead83;fill-opacity:1;fill-rule:nonzero;stroke:none" id="path35"/>
      </g>
    </g>
  </g>
</g>
    <svg width="761pt" height="337pt" viewBox="0.00 0.00 760.55 337.05">
<g id="graph0" class="graph" transform="scale(1 1) rotate(0) translate(4 333.05)">
<title>D</title>
<text text-anchor="start" x="318.9" y="-308.95" font-family="Times,serif" font-weight="bold" font-size="18.00">WiM Strom</text>
<text text-anchor="start" x="207.9" y="-278.85" font-family="Times,serif" font-weight="bold" font-size="16.00">9.2.2: AD: Beginn Messstellenbetrieb</text>
<!-- Start -->
<g id="node1" class="node">
<title>Start</title>
<polygon fill="#7a8da1" stroke="black" points="461.92,-231.05 290.62,-231.05 290.62,-187.77 461.92,-187.77 461.92,-231.05"/>
<text text-anchor="start" x="348.15" y="-210.11" font-family="Times,serif" font-weight="bold" font-size="14.00">E_0232</text>
<text text-anchor="start" x="305.02" y="-198.01" font-family="Times,serif" font-weight="bold" text-decoration="underline" font-size="12.00">Pr&#252;fende Rolle:</text>
<text text-anchor="start" x="410.02" y="-198.01" font-family="Times,serif" font-weight="bold" font-size="12.00"> MSB</text>
</g>
<!-- 1 -->
<g id="node2" class="node">
<title>1</title>
<path fill="#7aab8a" stroke="black" d="M740.55,-150.77C740.55,-150.77 12,-150.77 12,-150.77 6,-150.77 0,-144.77 0,-138.77 0,-138.77 0,-126.77 0,-126.77 0,-120.77 6,-114.77 12,-114.77 12,-114.77 740.55,-114.77 740.55,-114.77 746.55,-114.77 752.55,-120.77 752.55,-126.77 752.55,-126.77 752.55,-138.77 752.55,-138.77 752.55,-144.77 746.55,-150.77 740.55,-150.77"/>
<text text-anchor="start" x="14.4" y="-129.09" font-family="Times,serif" font-weight="bold" font-size="14.00">1: </text>
<text text-anchor="start" x="33.9" y="-129.09" font-family="Times,serif" font-size="14.00">Liegt das gew&#252;nschte &#196;nderungsdatum mindestens 20 WT nach dem Nachrichteneingangsdatum?</text>
</g>
<!-- Start&#45;&gt;1 -->
<g id="edge1" class="edge">
<title>Start-&gt;1</title>
<path fill="none" stroke="black" d="M376.27,-187.62C376.27,-179.58 376.27,-170.26 376.27,-161.66"/>
<polygon fill="black" stroke="black" points="379.78,-161.93 376.27,-151.93 372.78,-161.93 379.78,-161.93"/>
</g>
<!-- A01 -->
<g id="node3" class="node">
<title>A01</title>
<polygon fill="#cfb986" stroke="black" points="344.39,-61.52 184.16,-61.52 184.16,0 344.39,0 344.39,-61.52"/>
<text text-anchor="start" x="249.27" y="-43.46" font-family="Times,serif" font-weight="bold" font-size="14.00">A01</text>
<text text-anchor="start" x="196.4" y="-31.36" font-family="Times,serif" text-decoration="underline" font-size="12.00">Hinweis:</text>
<text text-anchor="start" x="196.4" y="-19.36" font-family="Times,serif" font-size="12.00">Cluster: Ablehnung</text>
<text text-anchor="start" x="196.4" y="-7.36" font-family="Times,serif" font-size="12.00">Frist nicht eingehalten</text>
</g>
<!-- 1&#45;&gt;A01 -->
<g id="edge2" class="edge">
<title>1-&gt;A01</title>
<path fill="none" stroke="black" d="M356.77,-114.35C342.74,-101.83 323.32,-84.48 305.88,-68.91"/>
<polygon fill="black" stroke="black" points="308.83,-66.96 299.04,-62.91 304.17,-72.18 308.83,-66.96"/>
<text text-anchor="middle" x="354.15" y="-83.47" font-family="Times,serif" font-size="14.00">Nein</text>
</g>
<!-- A02 -->
<g id="node4" class="node">
<title>A02</title>
<polygon fill="#cfb986" stroke="black" points="615.89,-61.52 362.66,-61.52 362.66,0 615.89,0 615.89,-61.52"/>
<text text-anchor="start" x="474.27" y="-43.46" font-family="Times,serif" font-weight="bold" font-size="14.00">A02</text>
<text text-anchor="start" x="374.9" y="-31.36" font-family="Times,serif" text-decoration="underline" font-size="12.00">Hinweis:</text>
<text text-anchor="start" x="374.9" y="-19.36" font-family="Times,serif" font-size="12.00">Cluster: Zustimmung</text>
<text text-anchor="start" x="374.9" y="-7.36" font-family="Times,serif" font-size="12.00">&#196;nderung kann durchgef&#252;hrt werden.</text>
</g>
<!-- 1&#45;&gt;A02 -->
<g id="edge3" class="edge">
<title>1-&gt;A02</title>
<path fill="none" stroke="black" d="M395.96,-114.35C410.11,-101.83 429.71,-84.48 447.3,-68.91"/>
<polygon fill="black" stroke="black" points="449.04,-72.16 454.21,-62.91 444.4,-66.92 449.04,-72.16"/>
<text text-anchor="middle" x="439.02" y="-83.47" font-family="Times,serif" font-size="14.00">Ja</text>
</g>
</g>
</svg>
  </g>
</svg>
  </g>
</svg>
