<?xml version='1.0' encoding='ASCII' standalone='yes'?>
<svg xmlns="http://www.w3.org/2000/svg" xmlns:xlink="http://www.w3.org/1999/xlink" version="1.1" width="1726.6666666666667px" viewBox="0 0 1726.6666666666667 968.0" height="968.0px">
  <g>
    <svg version="1.1" width="1726.6666666666667px" viewBox="0 0 1726.6666666666667 968.0" height="968.0px">
  <rect fill="#e7e6e5" x="0" y="0" width="1726.6666666666667" height="968.0" rx="20" ry="20"/><g>
    <g transform="translate(468.5823336149441, 96.79999999999998) scale(1 1) translate(0, 0) scale(1.3629963390594202 1.3629963390594202) "><!-- note that I manually added the width and height attribute to the root node
  https://chatgpt.com/share/678e3028-70cc-800b-a296-782714735772
  -->
  <defs>
    <style>.cls-1{fill:#fff;}</style>
  </defs>
  <path class="cls-1" d="M122.44,531.2h-56.1c-11,0-19.9-9.12-19.46-20.11C57.47,243.89,278.15,29.78,547.91,29.78v56.02c0,10.98-8.69,19.89-19.66,20.39-225.51,10.31-405.8,197-405.8,425Z"/>
  <path class="cls-1" d="M273.78,531.2h-55.93c-11.23,0-20.09-9.48-19.43-20.69,10.74-183.44,163.39-329.39,349.48-329.39v56.26c0,10.71-8.27,19.62-18.96,20.35-142.35,9.77-255.17,128.69-255.17,273.46Z"/>
  <path class="cls-1" d="M425.77,531.2h-55.45c-11.65,0-20.6-10.17-19.33-21.75,10.87-99.03,95.03-176.34,196.92-176.34v57.01c0,10.05-7.28,18.75-17.23,20.16-59.22,8.4-104.91,59.42-104.91,120.92Z"/>
</g>
    <svg width="1295pt" height="726pt" viewBox="0.00 0.00 1295.18 725.68">
<g id="graph0" class="graph" transform="scale(1 1) rotate(0) translate(4 721.68)">
<title>D</title>
<text text-anchor="start" x="320.71" y="-697.58" font-family="Roboto, sans-serif" font-weight="bold" font-size="18.00">WiM Strom</text>
<text text-anchor="start" x="320.71" y="-667.48" font-family="Roboto, sans-serif" font-weight="bold" font-size="16.00">9.25.1: AD: Beendigung der &#220;bermittlung von Werten an ESA durch ESA</text>
<!-- Start -->
<g id="node1" class="node">
<title>Start</title>
<path fill="#8ba2d7" stroke="black" stroke-width="0" d="M336.67,-619.68C336.67,-619.68 193.87,-619.68 193.87,-619.68 187.87,-619.68 181.87,-613.68 181.87,-607.68 181.87,-607.68 181.87,-588.4 181.87,-588.4 181.87,-582.4 187.87,-576.4 193.87,-576.4 193.87,-576.4 336.67,-576.4 336.67,-576.4 342.67,-576.4 348.67,-582.4 348.67,-588.4 348.67,-588.4 348.67,-607.68 348.67,-607.68 348.67,-613.68 342.67,-619.68 336.67,-619.68"/>
<text text-anchor="start" x="196.27" y="-598.74" font-family="Roboto, sans-serif" font-weight="bold" font-size="14.00">E_0254</text>
<text text-anchor="start" x="196.27" y="-586.64" font-family="Roboto, sans-serif" font-weight="bold" text-decoration="underline" font-size="12.00">Pr&#252;fende Rolle:</text>
<text text-anchor="start" x="299.77" y="-586.64" font-family="Roboto, sans-serif" font-weight="bold" font-size="12.00"> MSB</text>
</g>
<!-- 1 -->
<g id="node2" class="node">
<title>1</title>
<path fill="#c2cee9" stroke="black" stroke-width="0" d="M518.55,-539.4C518.55,-539.4 12,-539.4 12,-539.4 6,-539.4 0,-533.4 0,-527.4 0,-527.4 0,-506.12 0,-506.12 0,-500.12 6,-494.12 12,-494.12 12,-494.12 518.55,-494.12 518.55,-494.12 524.55,-494.12 530.55,-500.12 530.55,-506.12 530.55,-506.12 530.55,-527.4 530.55,-527.4 530.55,-533.4 524.55,-539.4 518.55,-539.4"/>
<text text-anchor="start" x="14.4" y="-518.46" font-family="Roboto, sans-serif" font-weight="bold" font-size="14.00">1: </text>
<text text-anchor="start" x="33.9" y="-518.46" font-family="Roboto, sans-serif" font-size="14.00">Handelt es sich bei der Bestellung um eine Bestellung f&#252;r</text>
<text text-anchor="start" x="14.4" y="-504.46" font-family="Roboto, sans-serif" font-size="14.00">turnusm&#228;&#223;ige/regelm&#228;&#223;ige &#220;bermittlung (Abo) von Werten an den ESA?</text>
</g>
<!-- Start&#45;&gt;1 -->
<g id="edge1" class="edge">
<title>Start-&gt;1</title>
<path fill="none" stroke="#88a0d6" d="M265.27,-576.62C265.27,-568.65 265.27,-559.3 265.27,-550.44"/>
<polygon fill="#88a0d6" stroke="#88a0d6" points="268.78,-550.73 265.28,-540.73 261.78,-550.73 268.78,-550.73"/>
</g>
<!-- A01 -->
<g id="node3" class="node">
<title>A01</title>
<path fill="#c4cac1" stroke="black" stroke-width="0" d="M445.05,-440.87C445.05,-440.87 31.5,-440.87 31.5,-440.87 25.5,-440.87 19.5,-434.87 19.5,-428.87 19.5,-428.87 19.5,-385.59 19.5,-385.59 19.5,-379.59 25.5,-373.59 31.5,-373.59 31.5,-373.59 445.05,-373.59 445.05,-373.59 451.05,-373.59 457.05,-379.59 457.05,-385.59 457.05,-385.59 457.05,-428.87 457.05,-428.87 457.05,-434.87 451.05,-440.87 445.05,-440.87"/>
<text text-anchor="start" x="33.9" y="-419.93" font-family="Roboto, sans-serif" font-weight="bold" font-size="14.00">A01</text>
<text text-anchor="start" x="33.9" y="-407.83" font-family="Roboto, sans-serif" text-decoration="underline" font-size="12.00">Hinweis:</text>
<text text-anchor="start" x="33.9" y="-395.83" font-family="Roboto, sans-serif" font-size="12.00">Cluster: Ablehnung</text>
<text text-anchor="start" x="33.9" y="-383.83" font-family="Roboto, sans-serif" font-size="12.00">Es handelte sich bei der Bestellung um eine einmalige &#220;bermittlung.</text>
</g>
<!-- 1&#45;&gt;A01 -->
<g id="edge2" class="edge">
<title>1-&gt;A01</title>
<path fill="none" stroke="#88a0d6" d="M259.88,-494.26C256.81,-482.05 252.86,-466.32 249.18,-451.65"/>
<polygon fill="#88a0d6" stroke="#88a0d6" points="252.63,-451.03 246.8,-442.19 245.84,-452.74 252.63,-451.03"/>
<text text-anchor="start" x="254.27" y="-463.82" font-family="Roboto, sans-serif" font-weight="bold" font-size="14.00">NEIN</text>
</g>
<!-- 2 -->
<g id="node4" class="node">
<title>2</title>
<path fill="#c2cee9" stroke="black" stroke-width="0" d="M1035.55,-429.87C1035.55,-429.87 487,-429.87 487,-429.87 481,-429.87 475,-423.87 475,-417.87 475,-417.87 475,-396.59 475,-396.59 475,-390.59 481,-384.59 487,-384.59 487,-384.59 1035.55,-384.59 1035.55,-384.59 1041.55,-384.59 1047.55,-390.59 1047.55,-396.59 1047.55,-396.59 1047.55,-417.87 1047.55,-417.87 1047.55,-423.87 1041.55,-429.87 1035.55,-429.87"/>
<text text-anchor="start" x="489.4" y="-408.93" font-family="Roboto, sans-serif" font-weight="bold" font-size="14.00">2: </text>
<text text-anchor="start" x="508.9" y="-408.93" font-family="Roboto, sans-serif" font-size="14.00">Ist das gew&#252;nschte Beendigungsdatum gr&#246;&#223;er als der Beginnzeitpunkt der</text>
<text text-anchor="start" x="489.4" y="-394.93" font-family="Roboto, sans-serif" font-size="14.00">turnusm&#228;&#223;igen/regelm&#228;&#223;igen &#220;bermittlung (Abo)?</text>
</g>
<!-- 1&#45;&gt;2 -->
<g id="edge3" class="edge">
<title>1-&gt;2</title>
<path fill="none" stroke="#88a0d6" d="M365.05,-494.13C447.71,-476.21 565.07,-450.77 650.6,-432.22"/>
<polygon fill="#88a0d6" stroke="#88a0d6" points="651.15,-435.69 660.18,-430.15 649.66,-428.85 651.15,-435.69"/>
<text text-anchor="start" x="513.27" y="-463.82" font-family="Roboto, sans-serif" font-weight="bold" font-size="14.00">JA</text>
</g>
<!-- A02 -->
<g id="node5" class="node">
<title>A02</title>
<path fill="#c4cac1" stroke="black" stroke-width="0" d="M548.42,-320.34C548.42,-320.34 356.12,-320.34 356.12,-320.34 350.12,-320.34 344.12,-314.34 344.12,-308.34 344.12,-308.34 344.12,-265.06 344.12,-265.06 344.12,-259.06 350.12,-253.06 356.12,-253.06 356.12,-253.06 548.42,-253.06 548.42,-253.06 554.42,-253.06 560.42,-259.06 560.42,-265.06 560.42,-265.06 560.42,-308.34 560.42,-308.34 560.42,-314.34 554.42,-320.34 548.42,-320.34"/>
<text text-anchor="start" x="358.52" y="-299.4" font-family="Roboto, sans-serif" font-weight="bold" font-size="14.00">A02</text>
<text text-anchor="start" x="358.52" y="-287.3" font-family="Roboto, sans-serif" text-decoration="underline" font-size="12.00">Hinweis:</text>
<text text-anchor="start" x="358.52" y="-275.3" font-family="Roboto, sans-serif" font-size="12.00">Cluster: Ablehnung</text>
<text text-anchor="start" x="358.52" y="-263.3" font-family="Roboto, sans-serif" font-size="12.00">Die Bestellung ist zu stornieren.</text>
</g>
<!-- 2&#45;&gt;A02 -->
<g id="edge4" class="edge">
<title>2-&gt;A02</title>
<path fill="none" stroke="#88a0d6" d="M704.96,-384.63C661.15,-367.82 599.36,-344.12 547.85,-324.36"/>
<polygon fill="#88a0d6" stroke="#88a0d6" points="549.36,-321.19 538.77,-320.88 546.85,-327.73 549.36,-321.19"/>
<text text-anchor="start" x="625.27" y="-343.29" font-family="Roboto, sans-serif" font-weight="bold" font-size="14.00">NEIN</text>
</g>
<!-- 3 -->
<g id="node6" class="node">
<title>3</title>
<path fill="#c2cee9" stroke="black" stroke-width="0" d="M1186.55,-309.34C1186.55,-309.34 590,-309.34 590,-309.34 584,-309.34 578,-303.34 578,-297.34 578,-297.34 578,-276.06 578,-276.06 578,-270.06 584,-264.06 590,-264.06 590,-264.06 1186.55,-264.06 1186.55,-264.06 1192.55,-264.06 1198.55,-270.06 1198.55,-276.06 1198.55,-276.06 1198.55,-297.34 1198.55,-297.34 1198.55,-303.34 1192.55,-309.34 1186.55,-309.34"/>
<text text-anchor="start" x="592.4" y="-288.4" font-family="Roboto, sans-serif" font-weight="bold" font-size="14.00">3: </text>
<text text-anchor="start" x="611.9" y="-288.4" font-family="Roboto, sans-serif" font-size="14.00">Wurde die &#220;bermittlung von Werten bereits zu einem fr&#252;heren oder zu dem in der</text>
<text text-anchor="start" x="592.4" y="-274.4" font-family="Roboto, sans-serif" font-size="14.00">Beendigung genannten Zeitpunkt beendet?</text>
</g>
<!-- 2&#45;&gt;3 -->
<g id="edge5" class="edge">
<title>2-&gt;3</title>
<path fill="none" stroke="#88a0d6" d="M784.27,-384.77C804.68,-365.72 834.67,-337.73 857.21,-316.69"/>
<polygon fill="#88a0d6" stroke="#88a0d6" points="859.42,-319.42 864.34,-310.04 854.64,-314.3 859.42,-319.42"/>
<text text-anchor="start" x="832.27" y="-343.29" font-family="Roboto, sans-serif" font-weight="bold" font-size="14.00">JA</text>
</g>
<!-- A03 -->
<g id="node7" class="node">
<title>A03</title>
<path fill="#c4cac1" stroke="black" stroke-width="0" d="M631.05,-199.81C631.05,-199.81 133.5,-199.81 133.5,-199.81 127.5,-199.81 121.5,-193.81 121.5,-187.81 121.5,-187.81 121.5,-132.53 121.5,-132.53 121.5,-126.53 127.5,-120.53 133.5,-120.53 133.5,-120.53 631.05,-120.53 631.05,-120.53 637.05,-120.53 643.05,-126.53 643.05,-132.53 643.05,-132.53 643.05,-187.81 643.05,-187.81 643.05,-193.81 637.05,-199.81 631.05,-199.81"/>
<text text-anchor="start" x="135.9" y="-178.87" font-family="Roboto, sans-serif" font-weight="bold" font-size="14.00">A03</text>
<text text-anchor="start" x="135.9" y="-166.77" font-family="Roboto, sans-serif" text-decoration="underline" font-size="12.00">Hinweis:</text>
<text text-anchor="start" x="135.9" y="-154.77" font-family="Roboto, sans-serif" font-size="12.00">Cluster: Ablehnung</text>
<text text-anchor="start" x="135.9" y="-142.77" font-family="Roboto, sans-serif" font-size="12.00">Die &#220;bermittlung wurde bereits zu einem fr&#252;heren oder zu dem in der Beendigung</text>
<text text-anchor="start" x="135.9" y="-130.77" font-family="Roboto, sans-serif" font-size="12.00">genannten Zeitpunkt beendet.</text>
</g>
<!-- 3&#45;&gt;A03 -->
<g id="edge6" class="edge">
<title>3-&gt;A03</title>
<path fill="none" stroke="#88a0d6" d="M800.43,-264.08C731.56,-247.13 633.7,-223.05 549.97,-202.44"/>
<polygon fill="#88a0d6" stroke="#88a0d6" points="551.06,-199.1 540.51,-200.11 549.39,-205.9 551.06,-199.1"/>
<text text-anchor="start" x="680.27" y="-222.76" font-family="Roboto, sans-serif" font-weight="bold" font-size="14.00">JA</text>
</g>
<!-- 4 -->
<g id="node8" class="node">
<title>4</title>
<path fill="#c2cee9" stroke="black" stroke-width="0" d="M1275.17,-182.81C1275.17,-182.81 673.38,-182.81 673.38,-182.81 667.38,-182.81 661.38,-176.81 661.38,-170.81 661.38,-170.81 661.38,-149.53 661.38,-149.53 661.38,-143.53 667.38,-137.53 673.38,-137.53 673.38,-137.53 1275.17,-137.53 1275.17,-137.53 1281.17,-137.53 1287.17,-143.53 1287.17,-149.53 1287.17,-149.53 1287.17,-170.81 1287.17,-170.81 1287.17,-176.81 1281.17,-182.81 1275.17,-182.81"/>
<text text-anchor="start" x="675.77" y="-161.87" font-family="Roboto, sans-serif" font-weight="bold" font-size="14.00">4: </text>
<text text-anchor="start" x="695.27" y="-161.87" font-family="Roboto, sans-serif" font-size="14.00">Liegt das gew&#252;nschte Beendigungsdatum vor dem Zeitpunkt, f&#252;r den die j&#252;ngsten</text>
<text text-anchor="start" x="675.77" y="-147.87" font-family="Roboto, sans-serif" font-size="14.00">Daten geliefert wurden?</text>
</g>
<!-- 3&#45;&gt;4 -->
<g id="edge7" class="edge">
<title>3-&gt;4</title>
<path fill="none" stroke="#88a0d6" d="M903.06,-264.29C916.78,-244.42 937.37,-214.62 952.88,-192.15"/>
<polygon fill="#88a0d6" stroke="#88a0d6" points="955.73,-194.18 958.54,-183.96 949.97,-190.2 955.73,-194.18"/>
<text text-anchor="start" x="933.27" y="-222.76" font-family="Roboto, sans-serif" font-weight="bold" font-size="14.00">NEIN</text>
</g>
<!-- A04 -->
<g id="node9" class="node">
<title>A04</title>
<path fill="#c4cac1" stroke="black" stroke-width="0" d="M1026.67,-67.28C1026.67,-67.28 535.88,-67.28 535.88,-67.28 529.88,-67.28 523.88,-61.28 523.88,-55.28 523.88,-55.28 523.88,-12 523.88,-12 523.88,-6 529.88,0 535.88,0 535.88,0 1026.67,0 1026.67,0 1032.67,0 1038.67,-6 1038.67,-12 1038.67,-12 1038.67,-55.28 1038.67,-55.28 1038.67,-61.28 1032.67,-67.28 1026.67,-67.28"/>
<text text-anchor="start" x="538.27" y="-46.34" font-family="Roboto, sans-serif" font-weight="bold" font-size="14.00">A04</text>
<text text-anchor="start" x="538.27" y="-34.24" font-family="Roboto, sans-serif" text-decoration="underline" font-size="12.00">Hinweis:</text>
<text text-anchor="start" x="538.27" y="-22.24" font-family="Roboto, sans-serif" font-size="12.00">Cluster: Ablehnung</text>
<text text-anchor="start" x="538.27" y="-10.24" font-family="Roboto, sans-serif" font-size="12.00">Es wurden bereits Daten nach dem gew&#252;nschten Beendigungsdatum &#252;bermittelt.</text>
</g>
<!-- 4&#45;&gt;A04 -->
<g id="edge8" class="edge">
<title>4-&gt;A04</title>
<path fill="none" stroke="#88a0d6" d="M941.1,-137.76C913.73,-120.1 874.2,-94.6 841.29,-73.37"/>
<polygon fill="#88a0d6" stroke="#88a0d6" points="843.34,-70.52 833.04,-68.04 839.54,-76.4 843.34,-70.52"/>
<text text-anchor="start" x="883.27" y="-90.23" font-family="Roboto, sans-serif" font-weight="bold" font-size="14.00">JA</text>
</g>
<!-- A05 -->
<g id="node10" class="node">
<title>A05</title>
<path fill="#c4cac1" stroke="black" stroke-width="0" d="M1229.68,-67.28C1229.68,-67.28 1068.88,-67.28 1068.88,-67.28 1062.88,-67.28 1056.88,-61.28 1056.88,-55.28 1056.88,-55.28 1056.88,-12 1056.88,-12 1056.88,-6 1062.88,0 1068.88,0 1068.88,0 1229.68,0 1229.68,0 1235.68,0 1241.68,-6 1241.68,-12 1241.68,-12 1241.68,-55.28 1241.68,-55.28 1241.68,-61.28 1235.68,-67.28 1229.68,-67.28"/>
<text text-anchor="start" x="1071.28" y="-46.34" font-family="Roboto, sans-serif" font-weight="bold" font-size="14.00">A05</text>
<text text-anchor="start" x="1071.28" y="-34.24" font-family="Roboto, sans-serif" text-decoration="underline" font-size="12.00">Hinweis:</text>
<text text-anchor="start" x="1071.28" y="-22.24" font-family="Roboto, sans-serif" font-size="12.00">Cluster: Zustimmung</text>
<text text-anchor="start" x="1071.28" y="-10.24" font-family="Roboto, sans-serif" font-size="12.00">Beendigung wird best&#228;tigt</text>
</g>
<!-- 4&#45;&gt;A05 -->
<g id="edge9" class="edge">
<title>4-&gt;A05</title>
<path fill="none" stroke="#88a0d6" d="M1004.36,-137.76C1029.07,-120.18 1064.71,-94.81 1094.47,-73.64"/>
<polygon fill="#88a0d6" stroke="#88a0d6" points="1096.14,-76.74 1102.26,-68.09 1092.08,-71.04 1096.14,-76.74"/>
<text text-anchor="start" x="1077.28" y="-90.23" font-family="Roboto, sans-serif" font-weight="bold" font-size="14.00">NEIN</text>
</g>
</g>
</svg>
  </g>
</svg>
  </g>
</svg>
