<?xml version='1.0' encoding='ASCII' standalone='yes'?>
<svg xmlns="http://www.w3.org/2000/svg" xmlns:xlink="http://www.w3.org/1999/xlink" version="1.1" width="4486.666666666667px" viewBox="0 0 4486.666666666667 1481.3333333333333" height="1481.3333333333333px">
  <g>
    <svg version="1.1" width="4486.666666666667px" viewBox="0 0 4486.666666666667 1481.3333333333333" height="1481.3333333333333px">
  <polygon fill="#f3f1f6" points="0,0 4486.666666666667,0 4486.666666666667,1481.3333333333333 0,1481.3333333333333"/><g>
    <g transform="translate(1651.2395208032228, 148.1333333333333) scale(1 1) translate(0, 0) scale(6.699501611502248 6.699501611502248) "><sodipodi:namedview xmlns:sodipodi="http://sodipodi.sourceforge.net/DTD/sodipodi-0.dtd" xmlns:inkscape="http://www.inkscape.org/namespaces/inkscape" id="namedview7" pagecolor="#ffffff" bordercolor="#999999" borderopacity="1" inkscape:pageshadow="0" inkscape:pageopacity="0" inkscape:pagecheckerboard="0" inkscape:document-units="mm" showgrid="false" fit-margin-top="0" fit-margin-left="0" fit-margin-right="0" fit-margin-bottom="0" inkscape:zoom="0.64052329" inkscape:cx="130.36216" inkscape:cy="412.163" inkscape:window-width="1512" inkscape:window-height="916" inkscape:window-x="3840" inkscape:window-y="136" inkscape:window-maximized="0" inkscape:current-layer="layer1"/>
  <defs id="defs2">
    <clipPath clipPathUnits="userSpaceOnUse" id="clipPath23">
      <path d="M 0,568.156 H 579.236 V 0 H 0 Z" id="path21"/>
    </clipPath>
  </defs>
  <g xmlns:inkscape="http://www.inkscape.org/namespaces/inkscape" inkscape:label="Layer 1" inkscape:groupmode="layer" id="layer1" transform="translate(-16.541937,-55.305267)">
    <g id="g19" clip-path="url(#clipPath23)" transform="matrix(0.35277777,0,0,-0.35277777,0.01017023,243.73675)" style="opacity:0.2">
      <g id="g25" transform="translate(122.444,32.7195)">
        <path d="m 0,0 h -56.104 c -11,0 -19.898,9.123 -19.463,20.115 10.594,267.191 231.277,481.302 501.029,481.302 v -56.02 c 0,-10.98 -8.688,-19.892 -19.658,-20.393 C 180.29,414.697 0,228.005 0,0" style="fill:#6ead83;fill-opacity:1;fill-rule:nonzero;stroke:none" id="path27"/>
      </g>
      <g id="g29" transform="translate(273.7828,32.7195)">
        <path d="m 0,0 h -55.926 c -11.228,0 -20.091,9.482 -19.435,20.69 10.744,183.439 163.389,329.388 349.485,329.388 v -56.263 c 0,-10.709 -8.273,-19.617 -18.957,-20.35 C 112.819,263.696 0,144.774 0,0" style="fill:#6ead83;fill-opacity:1;fill-rule:nonzero;stroke:none" id="path31"/>
      </g>
      <g id="g33" transform="translate(425.7667,32.7195)">
        <path d="m 0,0 h -55.445 c -11.653,0 -20.604,10.17 -19.334,21.753 10.866,99.032 95.031,176.341 196.919,176.341 v -57.011 c 0,-10.046 -7.283,-18.755 -17.229,-20.165 C 45.688,112.522 0,61.497 0,0" style="fill:#6ead83;fill-opacity:1;fill-rule:nonzero;stroke:none" id="path35"/>
      </g>
    </g>
  </g>
</g>
    <svg width="3365pt" height="1111pt" viewBox="0.00 0.00 3364.80 1111.32">
<g id="graph0" class="graph" transform="scale(1 1) rotate(0) translate(4 1107.32)">
<title>D</title>
<text text-anchor="start" x="1635.4" y="-1083.22" font-family="Times,serif" font-weight="bold" font-size="18.00">WiM Strom</text>
<text text-anchor="start" x="1549.9" y="-1053.12" font-family="Times,serif" font-weight="bold" font-size="16.00">9.17.1: AD: Anforderung Wert vom NB</text>
<!-- Start -->
<g id="node1" class="node">
<title>Start</title>
<polygon fill="#7a8da1" stroke="black" points="323.3,-1005.32 191.5,-1005.32 191.5,-962.04 323.3,-962.04 323.3,-1005.32"/>
<text text-anchor="start" x="235.9" y="-984.38" font-family="Times,serif" font-weight="bold" font-size="14.00">E_0219</text>
<text text-anchor="start" x="205.9" y="-972.28" font-family="Times,serif" font-weight="bold" text-decoration="underline" font-size="12.00">Pr&#252;fende Rolle:</text>
<text text-anchor="start" x="280.9" y="-972.28" font-family="Times,serif" font-weight="bold" font-size="12.00"> MSB</text>
</g>
<!-- 1 -->
<g id="node2" class="node">
<title>1</title>
<path fill="#7aab8a" stroke="black" d="M502.8,-925.04C502.8,-925.04 12,-925.04 12,-925.04 6,-925.04 0,-919.04 0,-913.04 0,-913.04 0,-901.04 0,-901.04 0,-895.04 6,-889.04 12,-889.04 12,-889.04 502.8,-889.04 502.8,-889.04 508.8,-889.04 514.8,-895.04 514.8,-901.04 514.8,-901.04 514.8,-913.04 514.8,-913.04 514.8,-919.04 508.8,-925.04 502.8,-925.04"/>
<text text-anchor="start" x="14.4" y="-903.14" font-family="Times,serif" font-weight="bold" font-size="14.00">1: </text>
<text text-anchor="start" x="27.4" y="-903.14" font-family="Times,serif" font-size="14.00">Wird die &#220;bermittlung von Werten an die Marktrolle ESA grunds&#228;tzlich angeboten?</text>
</g>
<!-- Start&#45;&gt;1 -->
<g id="edge1" class="edge">
<title>Start-&gt;1</title>
<path fill="none" stroke="black" d="M257.4,-961.89C257.4,-953.85 257.4,-944.53 257.4,-935.93"/>
<polygon fill="black" stroke="black" points="260.9,-936.2 257.4,-926.2 253.9,-936.2 260.9,-936.2"/>
</g>
<!-- A01 -->
<g id="node3" class="node">
<title>A01</title>
<polygon fill="#cfb986" stroke="black" points="452.14,-836.24 12.66,-836.24 12.66,-774.72 452.14,-774.72 452.14,-836.24"/>
<text text-anchor="start" x="220.4" y="-818.18" font-family="Times,serif" font-weight="bold" font-size="14.00">A01</text>
<text text-anchor="start" x="24.9" y="-806.08" font-family="Times,serif" text-decoration="underline" font-size="12.00">Hinweis:</text>
<text text-anchor="start" x="24.9" y="-794.08" font-family="Times,serif" font-size="12.00">Cluster: Ablehnung</text>
<text text-anchor="start" x="24.9" y="-782.08" font-family="Times,serif" font-size="12.00">Der MSB bietet keine freiwillige &#220;bermittlung von Werten an die Marktrolle ESA an.</text>
</g>
<!-- 1&#45;&gt;A01 -->
<g id="edge2" class="edge">
<title>1-&gt;A01</title>
<path fill="none" stroke="black" d="M253.05,-888.7C250.14,-877.13 246.2,-861.43 242.54,-846.84"/>
<polygon fill="black" stroke="black" points="245.77,-846.34 239.94,-837.49 238.98,-848.05 245.77,-846.34"/>
<text text-anchor="middle" x="262.9" y="-857.74" font-family="Times,serif" font-size="14.00">Nein</text>
</g>
<!-- 2 -->
<g id="node4" class="node">
<title>2</title>
<path fill="#7aab8a" stroke="black" d="M1082.3,-823.48C1082.3,-823.48 482.5,-823.48 482.5,-823.48 476.5,-823.48 470.5,-817.48 470.5,-811.48 470.5,-811.48 470.5,-799.48 470.5,-799.48 470.5,-793.48 476.5,-787.48 482.5,-787.48 482.5,-787.48 1082.3,-787.48 1082.3,-787.48 1088.3,-787.48 1094.3,-793.48 1094.3,-799.48 1094.3,-799.48 1094.3,-811.48 1094.3,-811.48 1094.3,-817.48 1088.3,-823.48 1082.3,-823.48"/>
<text text-anchor="start" x="484.9" y="-801.58" font-family="Times,serif" font-weight="bold" font-size="14.00">2: </text>
<text text-anchor="start" x="498.9" y="-801.58" font-family="Times,serif" font-size="14.00">Wird das vom ESA gew&#252;nschte Messprodukt entsprechend der Codeliste der Messprodukte angeboten?</text>
</g>
<!-- 1&#45;&gt;2 -->
<g id="edge3" class="edge">
<title>1-&gt;2</title>
<path fill="none" stroke="black" d="M349.45,-888.58C441.85,-871.06 583.91,-844.12 679.86,-825.92"/>
<polygon fill="black" stroke="black" points="680.28,-829.22 689.46,-823.92 678.98,-822.34 680.28,-829.22"/>
<text text-anchor="middle" x="525.9" y="-857.74" font-family="Times,serif" font-size="14.00">Ja</text>
</g>
<!-- A02 -->
<g id="node5" class="node">
<title>A02</title>
<polygon fill="#cfb986" stroke="black" points="789.64,-721.92 411.16,-721.92 411.16,-660.4 789.64,-660.4 789.64,-721.92"/>
<text text-anchor="start" x="588.4" y="-703.86" font-family="Times,serif" font-weight="bold" font-size="14.00">A02</text>
<text text-anchor="start" x="423.4" y="-691.76" font-family="Times,serif" text-decoration="underline" font-size="12.00">Hinweis:</text>
<text text-anchor="start" x="423.4" y="-679.76" font-family="Times,serif" font-size="12.00">Cluster: Ablehnung</text>
<text text-anchor="start" x="423.4" y="-667.76" font-family="Times,serif" font-size="12.00">Das vom ESA gew&#252;nschte Messprodukt wird vom MSB nicht angeboten.</text>
</g>
<!-- 2&#45;&gt;A02 -->
<g id="edge4" class="edge">
<title>2-&gt;A02</title>
<path fill="none" stroke="black" d="M754.36,-787.18C728.95,-771.49 690.69,-747.88 658.67,-728.12"/>
<polygon fill="black" stroke="black" points="660.74,-724.67 650.39,-722.39 657.06,-730.62 660.74,-724.67"/>
<text text-anchor="middle" x="715.9" y="-743.42" font-family="Times,serif" font-size="14.00">Nein</text>
</g>
<!-- 3 -->
<g id="node6" class="node">
<title>3</title>
<path fill="#7aab8a" stroke="black" d="M1743.3,-709.16C1743.3,-709.16 819.5,-709.16 819.5,-709.16 813.5,-709.16 807.5,-703.16 807.5,-697.16 807.5,-697.16 807.5,-685.16 807.5,-685.16 807.5,-679.16 813.5,-673.16 819.5,-673.16 819.5,-673.16 1743.3,-673.16 1743.3,-673.16 1749.3,-673.16 1755.3,-679.16 1755.3,-685.16 1755.3,-685.16 1755.3,-697.16 1755.3,-697.16 1755.3,-703.16 1749.3,-709.16 1743.3,-709.16"/>
<text text-anchor="start" x="821.9" y="-687.26" font-family="Times,serif" font-weight="bold" font-size="14.00">3: </text>
<text text-anchor="start" x="835.9" y="-687.26" font-family="Times,serif" font-size="14.00">Liegt die vertragliche Grundlage zur Anfrage und &#220;bermittlung der Werte und Abrechnung der erbrachten Dienstleistung vom MSB an den ESA beim MSB vor?</text>
</g>
<!-- 2&#45;&gt;3 -->
<g id="edge5" class="edge">
<title>2-&gt;3</title>
<path fill="none" stroke="black" d="M860.09,-786.99C950.3,-766.69 1098.76,-733.27 1193.21,-712.01"/>
<polygon fill="black" stroke="black" points="1193.9,-715.22 1202.89,-709.61 1192.36,-708.39 1193.9,-715.22"/>
<text text-anchor="middle" x="1067.9" y="-743.42" font-family="Times,serif" font-size="14.00">Ja</text>
</g>
<!-- A03 -->
<g id="node7" class="node">
<title>A03</title>
<polygon fill="#cfb986" stroke="black" points="1226.64,-607.6 970.16,-607.6 970.16,-546.08 1226.64,-546.08 1226.64,-607.6"/>
<text text-anchor="start" x="1086.4" y="-589.54" font-family="Times,serif" font-weight="bold" font-size="14.00">A03</text>
<text text-anchor="start" x="982.4" y="-577.44" font-family="Times,serif" text-decoration="underline" font-size="12.00">Hinweis:</text>
<text text-anchor="start" x="982.4" y="-565.44" font-family="Times,serif" font-size="12.00">Cluster: Ablehnung</text>
<text text-anchor="start" x="982.4" y="-553.44" font-family="Times,serif" font-size="12.00">Vertragliche Grundlage des ESA liegt nicht vor.</text>
</g>
<!-- 3&#45;&gt;A03 -->
<g id="edge6" class="edge">
<title>3-&gt;A03</title>
<path fill="none" stroke="black" d="M1253.21,-672.86C1227.66,-657.17 1189.19,-633.56 1156.99,-613.8"/>
<polygon fill="black" stroke="black" points="1159.01,-610.32 1148.66,-608.07 1155.35,-616.29 1159.01,-610.32"/>
<text text-anchor="middle" x="1214.9" y="-629.1" font-family="Times,serif" font-size="14.00">Nein</text>
</g>
<!-- 4 -->
<g id="node8" class="node">
<title>4</title>
<path fill="#7aab8a" stroke="black" d="M2304.3,-606.48C2304.3,-606.48 1256.5,-606.48 1256.5,-606.48 1250.5,-606.48 1244.5,-600.48 1244.5,-594.48 1244.5,-594.48 1244.5,-559.2 1244.5,-559.2 1244.5,-553.2 1250.5,-547.2 1256.5,-547.2 1256.5,-547.2 2304.3,-547.2 2304.3,-547.2 2310.3,-547.2 2316.3,-553.2 2316.3,-559.2 2316.3,-559.2 2316.3,-594.48 2316.3,-594.48 2316.3,-600.48 2310.3,-606.48 2304.3,-606.48"/>
<text text-anchor="start" x="1258.9" y="-585.54" font-family="Times,serif" font-weight="bold" font-size="14.00">4: </text>
<text text-anchor="start" x="1272.9" y="-585.54" font-family="Times,serif" font-size="14.00">Liegt dem MSB eine g&#252;ltige datenschutzrechtliche Einwilligung (wie z. B. das BDEW-Muster &#8222;Einwilligungserkl&#228;rung in die Verarbeitung personenbezogener Daten nach DS-GVO - </text>
<text text-anchor="start" x="1258.9" y="-571.54" font-family="Times,serif" font-size="14.00">Anfrage und &#220;bermittlung von Messprodukten </text>
<text text-anchor="start" x="1258.9" y="-557.54" font-family="Times,serif" font-size="14.00">gem&#228;&#223; BNetzA-Festlegung BK6-20-160&#8220;) zur Anfrage und &#220;bermittlung von Messprodukten vor?</text>
</g>
<!-- 3&#45;&gt;4 -->
<g id="edge7" class="edge">
<title>3-&gt;4</title>
<path fill="none" stroke="black" d="M1359.09,-672.67C1434.19,-655.77 1549.66,-629.78 1640.73,-609.28"/>
<polygon fill="black" stroke="black" points="1641.44,-612.48 1650.43,-606.87 1639.9,-605.65 1641.44,-612.48"/>
<text text-anchor="middle" x="1566.9" y="-629.1" font-family="Times,serif" font-size="14.00">Ja</text>
</g>
<!-- A04 -->
<g id="node9" class="node">
<title>A04</title>
<polygon fill="#cfb986" stroke="black" points="1879.64,-493.28 1441.16,-493.28 1441.16,-431.76 1879.64,-431.76 1879.64,-493.28"/>
<text text-anchor="start" x="1648.4" y="-475.22" font-family="Times,serif" font-weight="bold" font-size="14.00">A04</text>
<text text-anchor="start" x="1453.4" y="-463.12" font-family="Times,serif" text-decoration="underline" font-size="12.00">Hinweis:</text>
<text text-anchor="start" x="1453.4" y="-451.12" font-family="Times,serif" font-size="12.00">Cluster: Ablehnung</text>
<text text-anchor="start" x="1453.4" y="-439.12" font-family="Times,serif" font-size="12.00">Die unterzeichnete Einwilligung des Anschlussnutzers f&#252;r die Lokation liegt nicht vor</text>
</g>
<!-- 4&#45;&gt;A04 -->
<g id="edge8" class="edge">
<title>4-&gt;A04</title>
<path fill="none" stroke="black" d="M1749.5,-546.91C1734.46,-532.84 1716.2,-515.75 1700.14,-500.72"/>
<polygon fill="black" stroke="black" points="1703.15,-498.8 1693.45,-494.52 1698.36,-503.91 1703.15,-498.8"/>
<text text-anchor="middle" x="1741.9" y="-514.78" font-family="Times,serif" font-size="14.00">Nein</text>
</g>
<!-- 5 -->
<g id="node10" class="node">
<title>5</title>
<path fill="#7aab8a" stroke="black" d="M2273.3,-480.52C2273.3,-480.52 1909.5,-480.52 1909.5,-480.52 1903.5,-480.52 1897.5,-474.52 1897.5,-468.52 1897.5,-468.52 1897.5,-456.52 1897.5,-456.52 1897.5,-450.52 1903.5,-444.52 1909.5,-444.52 1909.5,-444.52 2273.3,-444.52 2273.3,-444.52 2279.3,-444.52 2285.3,-450.52 2285.3,-456.52 2285.3,-456.52 2285.3,-468.52 2285.3,-468.52 2285.3,-474.52 2279.3,-480.52 2273.3,-480.52"/>
<text text-anchor="start" x="1911.9" y="-458.62" font-family="Times,serif" font-weight="bold" font-size="14.00">5: </text>
<text text-anchor="start" x="1925.9" y="-458.62" font-family="Times,serif" font-size="14.00">Sind die Daten in der Einwilligung plausibel und vollst&#228;ndig?</text>
</g>
<!-- 4&#45;&gt;5 -->
<g id="edge9" class="edge">
<title>4-&gt;5</title>
<path fill="none" stroke="black" d="M1860.89,-546.77C1914.72,-527.33 1984.31,-502.2 2032.88,-484.65"/>
<polygon fill="black" stroke="black" points="2034,-487.61 2042.22,-480.92 2031.62,-481.03 2034,-487.61"/>
<text text-anchor="middle" x="1960.9" y="-514.78" font-family="Times,serif" font-size="14.00">Ja</text>
</g>
<!-- A05 -->
<g id="node11" class="node">
<title>A05</title>
<polygon fill="#cfb986" stroke="black" points="2109.14,-378.96 1787.66,-378.96 1787.66,-317.44 2109.14,-317.44 2109.14,-378.96"/>
<text text-anchor="start" x="1936.4" y="-360.9" font-family="Times,serif" font-weight="bold" font-size="14.00">A05</text>
<text text-anchor="start" x="1799.9" y="-348.8" font-family="Times,serif" text-decoration="underline" font-size="12.00">Hinweis:</text>
<text text-anchor="start" x="1799.9" y="-336.8" font-family="Times,serif" font-size="12.00">Cluster: Ablehnung</text>
<text text-anchor="start" x="1799.9" y="-324.8" font-family="Times,serif" font-size="12.00">Vorliegende Einwilligung ist nicht plausibel oder vollst&#228;ndig.</text>
</g>
<!-- 5&#45;&gt;A05 -->
<g id="edge10" class="edge">
<title>5-&gt;A05</title>
<path fill="none" stroke="black" d="M2069.37,-444.22C2049.75,-428.8 2020.37,-405.73 1995.48,-386.18"/>
<polygon fill="black" stroke="black" points="1997.92,-382.86 1987.89,-379.43 1993.59,-388.36 1997.92,-382.86"/>
<text text-anchor="middle" x="2042.9" y="-400.46" font-family="Times,serif" font-size="14.00">Nein</text>
</g>
<!-- 6 -->
<g id="node12" class="node">
<title>6</title>
<path fill="#7aab8a" stroke="black" d="M2805.8,-366.2C2805.8,-366.2 2139,-366.2 2139,-366.2 2133,-366.2 2127,-360.2 2127,-354.2 2127,-354.2 2127,-342.2 2127,-342.2 2127,-336.2 2133,-330.2 2139,-330.2 2139,-330.2 2805.8,-330.2 2805.8,-330.2 2811.8,-330.2 2817.8,-336.2 2817.8,-342.2 2817.8,-342.2 2817.8,-354.2 2817.8,-354.2 2817.8,-360.2 2811.8,-366.2 2805.8,-366.2"/>
<text text-anchor="start" x="2141.4" y="-344.3" font-family="Times,serif" font-weight="bold" font-size="14.00">6: </text>
<text text-anchor="start" x="2155.4" y="-344.3" font-family="Times,serif" font-size="14.00">Erm&#246;glicht die vorhandene Ger&#228;tetechnik die &#220;bermittlung der angefragten Werte entsprechend dem Messprodukt?</text>
</g>
<!-- 5&#45;&gt;6 -->
<g id="edge11" class="edge">
<title>5-&gt;6</title>
<path fill="none" stroke="black" d="M2150.51,-444.09C2218.65,-424.01 2330.5,-391.03 2402.78,-369.72"/>
<polygon fill="black" stroke="black" points="2403.55,-372.85 2412.15,-366.67 2401.57,-366.14 2403.55,-372.85"/>
<text text-anchor="middle" x="2310.9" y="-400.46" font-family="Times,serif" font-size="14.00">Ja</text>
</g>
<!-- A06 -->
<g id="node13" class="node">
<title>A06</title>
<polygon fill="#cfb986" stroke="black" points="2514.64,-264.64 2202.16,-264.64 2202.16,-203.12 2514.64,-203.12 2514.64,-264.64"/>
<text text-anchor="start" x="2346.4" y="-246.58" font-family="Times,serif" font-weight="bold" font-size="14.00">A06</text>
<text text-anchor="start" x="2214.4" y="-234.48" font-family="Times,serif" text-decoration="underline" font-size="12.00">Hinweis:</text>
<text text-anchor="start" x="2214.4" y="-222.48" font-family="Times,serif" font-size="12.00">Cluster: Ablehnung</text>
<text text-anchor="start" x="2214.4" y="-210.48" font-family="Times,serif" font-size="12.00">Die Ger&#228;tetechnik misst die angeforderten Messwerte nicht.</text>
</g>
<!-- 6&#45;&gt;A06 -->
<g id="edge12" class="edge">
<title>6-&gt;A06</title>
<path fill="none" stroke="black" d="M2455.09,-330.14C2439.58,-314.86 2416.29,-291.92 2396.46,-272.38"/>
<polygon fill="black" stroke="black" points="2399.35,-270.33 2389.77,-265.8 2394.44,-275.31 2399.35,-270.33"/>
<text text-anchor="middle" x="2435.9" y="-286.14" font-family="Times,serif" font-size="14.00">Nein</text>
</g>
<!-- 7 -->
<g id="node14" class="node">
<title>7</title>
<path fill="#7aab8a" stroke="black" d="M2986.3,-251.88C2986.3,-251.88 2544.5,-251.88 2544.5,-251.88 2538.5,-251.88 2532.5,-245.88 2532.5,-239.88 2532.5,-239.88 2532.5,-227.88 2532.5,-227.88 2532.5,-221.88 2538.5,-215.88 2544.5,-215.88 2544.5,-215.88 2986.3,-215.88 2986.3,-215.88 2992.3,-215.88 2998.3,-221.88 2998.3,-227.88 2998.3,-227.88 2998.3,-239.88 2998.3,-239.88 2998.3,-245.88 2992.3,-251.88 2986.3,-251.88"/>
<text text-anchor="start" x="2546.9" y="-229.98" font-family="Times,serif" font-weight="bold" font-size="14.00">7: </text>
<text text-anchor="start" x="2560.9" y="-229.98" font-family="Times,serif" font-size="14.00">Handelt es sich um eine Anfrage von Werten auf Ebene der Marktlokation?</text>
</g>
<!-- 6&#45;&gt;7 -->
<g id="edge13" class="edge">
<title>6-&gt;7</title>
<path fill="none" stroke="black" d="M2517.86,-329.77C2569.61,-309.93 2654.16,-277.52 2709.8,-256.2"/>
<polygon fill="black" stroke="black" points="2710.75,-259.2 2718.83,-252.35 2708.24,-252.66 2710.75,-259.2"/>
<text text-anchor="middle" x="2642.9" y="-286.14" font-family="Times,serif" font-size="14.00">Ja</text>
</g>
<!-- Ende -->
<g id="node15" class="node">
<title>Ende</title>
<polygon fill="#7a8da1" stroke="black" points="2735.8,-48.76 2679,-48.76 2679,-12.76 2735.8,-12.76 2735.8,-48.76"/>
<text text-anchor="middle" x="2707.4" y="-25.86" font-family="Times,serif" font-size="14.00">Ende</text>
</g>
<!-- 7&#45;&gt;Ende -->
<g id="edge15" class="edge">
<title>7-&gt;Ende</title>
<path fill="none" stroke="black" d="M2735.53,-215.43C2714.08,-201.02 2686.84,-178.41 2674.4,-150.32 2661.01,-120.1 2675.85,-83.11 2689.7,-58.57"/>
<polygon fill="black" stroke="black" points="2693.18,-60.57 2695.28,-50.19 2687.16,-56.99 2693.18,-60.57"/>
<text text-anchor="middle" x="2687.9" y="-127.42" font-family="Times,serif" font-size="14.00">Nein</text>
</g>
<!-- 8 -->
<g id="node16" class="node">
<title>8</title>
<path fill="#7aab8a" stroke="black" d="M3344.8,-150.32C3344.8,-150.32 2722,-150.32 2722,-150.32 2716,-150.32 2710,-144.32 2710,-138.32 2710,-138.32 2710,-126.32 2710,-126.32 2710,-120.32 2716,-114.32 2722,-114.32 2722,-114.32 3344.8,-114.32 3344.8,-114.32 3350.8,-114.32 3356.8,-120.32 3356.8,-126.32 3356.8,-126.32 3356.8,-138.32 3356.8,-138.32 3356.8,-144.32 3350.8,-150.32 3344.8,-150.32"/>
<text text-anchor="start" x="2724.4" y="-128.42" font-family="Times,serif" font-weight="bold" font-size="14.00">8: </text>
<text text-anchor="start" x="2738.4" y="-128.42" font-family="Times,serif" font-size="14.00">Ist der MSB an allen der Marktlokation zugeordneten Messlokationen auch der MSB der Messlokation(en)?</text>
</g>
<!-- 7&#45;&gt;8 -->
<g id="edge14" class="edge">
<title>7-&gt;8</title>
<path fill="none" stroke="black" d="M2812.39,-215.42C2858.08,-198.45 2927.54,-172.64 2976.37,-154.5"/>
<polygon fill="black" stroke="black" points="2977.31,-157.52 2985.47,-150.76 2974.87,-150.96 2977.31,-157.52"/>
<text text-anchor="middle" x="2943.9" y="-171.82" font-family="Times,serif" font-size="14.00">Ja</text>
</g>
<!-- 8&#45;&gt;Ende -->
<g id="edge17" class="edge">
<title>8-&gt;Ende</title>
<path fill="none" stroke="black" d="M2965.84,-113.89C2915.93,-100.61 2846.51,-81.29 2786.4,-61.52 2773.24,-57.19 2759.03,-52 2746.33,-47.18"/>
<polygon fill="black" stroke="black" points="2747.67,-43.56 2737.08,-43.24 2745.16,-50.09 2747.67,-43.56"/>
<text text-anchor="middle" x="2905.9" y="-83.02" font-family="Times,serif" font-size="14.00">Ja</text>
</g>
<!-- A07 -->
<g id="node17" class="node">
<title>A07</title>
<polygon fill="#cfb986" stroke="black" points="3271.64,-61.52 2795.16,-61.52 2795.16,0 3271.64,0 3271.64,-61.52"/>
<text text-anchor="start" x="3021.4" y="-43.46" font-family="Times,serif" font-weight="bold" font-size="14.00">A07</text>
<text text-anchor="start" x="2807.4" y="-31.36" font-family="Times,serif" text-decoration="underline" font-size="12.00">Hinweis:</text>
<text text-anchor="start" x="2807.4" y="-19.36" font-family="Times,serif" font-size="12.00">Cluster: Ablehnung</text>
<text text-anchor="start" x="2807.4" y="-7.36" font-family="Times,serif" font-size="12.00">Der MSB der Marktlokation ist nicht zeitgleich der allen Messlokation(en) zugeordnete MSB.</text>
</g>
<!-- 8&#45;&gt;A07 -->
<g id="edge16" class="edge">
<title>8-&gt;A07</title>
<path fill="none" stroke="black" d="M3033.4,-113.98C3033.4,-102.52 3033.4,-87.01 3033.4,-72.55"/>
<polygon fill="black" stroke="black" points="3036.9,-72.77 3033.4,-62.77 3029.9,-72.77 3036.9,-72.77"/>
<text text-anchor="middle" x="3046.9" y="-83.02" font-family="Times,serif" font-size="14.00">Nein</text>
</g>
</g>
</svg>
  </g>
</svg>
  </g>
</svg>
