<?xml version='1.0' encoding='ASCII' standalone='yes'?>
<svg xmlns="http://www.w3.org/2000/svg" xmlns:xlink="http://www.w3.org/1999/xlink" version="1.1" width="1465.3333333333333px" viewBox="0 0 1465.3333333333333 898.6666666666666" height="898.6666666666666px">
  <g>
    <svg version="1.1" width="1465.3333333333333px" viewBox="0 0 1465.3333333333333 898.6666666666666" height="898.6666666666666px">
  <polygon fill="#f3f1f6" points="0,0 1465.3333333333333,0 1465.3333333333333,898.6666666666666 0,898.6666666666666"/><g>
    <g transform="translate(366.1898432366468, 89.86666666666665) scale(1 1) translate(0, 0) scale(1.2653712569229327 1.2653712569229327) "><!-- note that I manually added the width and height attribute to the root node
  https://chatgpt.com/share/678e3028-70cc-800b-a296-782714735772
  -->
  <defs>
    <style>.cls-1{fill:#fff;}</style>
  </defs>
  <path class="cls-1" d="M122.44,531.2h-56.1c-11,0-19.9-9.12-19.46-20.11C57.47,243.89,278.15,29.78,547.91,29.78v56.02c0,10.98-8.69,19.89-19.66,20.39-225.51,10.31-405.8,197-405.8,425Z"/>
  <path class="cls-1" d="M273.78,531.2h-55.93c-11.23,0-20.09-9.48-19.43-20.69,10.74-183.44,163.39-329.39,349.48-329.39v56.26c0,10.71-8.27,19.62-18.96,20.35-142.35,9.77-255.17,128.69-255.17,273.46Z"/>
  <path class="cls-1" d="M425.77,531.2h-55.45c-11.65,0-20.6-10.17-19.33-21.75,10.87-99.03,95.03-176.34,196.92-176.34v57.01c0,10.05-7.28,18.75-17.23,20.16-59.22,8.4-104.91,59.42-104.91,120.92Z"/>
</g>
    <svg width="1099pt" height="674pt" viewBox="0.00 0.00 1099.11 674.40">
<g id="graph0" class="graph" transform="scale(1 1) rotate(0) translate(4 670.4)">
<title>D</title>
<text text-anchor="start" x="250.8" y="-646.3" font-family="Times,serif" font-weight="bold" font-size="18.00">WiM Strom</text>
<text text-anchor="start" x="250.8" y="-616.2" font-family="Times,serif" font-weight="bold" font-size="16.00">9.8.2: AD: Ersteinbau eines iMS in eine bestehende Messlokation</text>
<!-- Start -->
<g id="node1" class="node">
<title>Start</title>
<path fill="#7a8da1" stroke="black" stroke-width="0" d="M552.01,-568.4C552.01,-568.4 404.72,-568.4 404.72,-568.4 398.72,-568.4 392.72,-562.4 392.72,-556.4 392.72,-556.4 392.72,-537.12 392.72,-537.12 392.72,-531.12 398.72,-525.12 404.72,-525.12 404.72,-525.12 552.01,-525.12 552.01,-525.12 558.01,-525.12 564.01,-531.12 564.01,-537.12 564.01,-537.12 564.01,-556.4 564.01,-556.4 564.01,-562.4 558.01,-568.4 552.01,-568.4"/>
<text text-anchor="start" x="450.24" y="-547.46" font-family="Times,serif" font-weight="bold" font-size="14.00">E_0233</text>
<text text-anchor="start" x="407.12" y="-535.36" font-family="Times,serif" font-weight="bold" text-decoration="underline" font-size="12.00">Pr&#252;fende Rolle:</text>
<text text-anchor="start" x="512.12" y="-535.36" font-family="Times,serif" font-weight="bold" font-size="12.00"> MSB</text>
</g>
<!-- 1 -->
<g id="node2" class="node">
<title>1</title>
<path fill="#7aab8a" stroke="black" stroke-width="0" d="M785.64,-488.12C785.64,-488.12 171.09,-488.12 171.09,-488.12 165.09,-488.12 159.09,-482.12 159.09,-476.12 159.09,-476.12 159.09,-454.84 159.09,-454.84 159.09,-448.84 165.09,-442.84 171.09,-442.84 171.09,-442.84 785.64,-442.84 785.64,-442.84 791.64,-442.84 797.64,-448.84 797.64,-454.84 797.64,-454.84 797.64,-476.12 797.64,-476.12 797.64,-482.12 791.64,-488.12 785.64,-488.12"/>
<text text-anchor="start" x="173.49" y="-467.18" font-family="Times,serif" font-weight="bold" font-size="14.00">1: </text>
<text text-anchor="start" x="192.99" y="-467.18" font-family="Times,serif" font-size="14.00">Liegt f&#252;r die f&#252;r den Rollout vorgesehene Messlokation ein Bestandsschutz gem&#228;&#223;</text>
<text text-anchor="start" x="173.49" y="-453.18" font-family="Times,serif" font-size="14.00">&#167;19 Abs. 5 MsbG vor?</text>
</g>
<!-- Start&#45;&gt;1 -->
<g id="edge1" class="edge">
<title>Start-&gt;1</title>
<path fill="none" stroke="black" d="M478.37,-525.34C478.37,-517.37 478.37,-508.02 478.37,-499.16"/>
<polygon fill="black" stroke="black" points="481.87,-499.45 478.37,-489.45 474.87,-499.45 481.87,-499.45"/>
</g>
<!-- 2 -->
<g id="node3" class="node">
<title>2</title>
<path fill="#7aab8a" stroke="black" stroke-width="0" d="M596.26,-389.59C596.26,-389.59 30.47,-389.59 30.47,-389.59 24.47,-389.59 18.47,-383.59 18.47,-377.59 18.47,-377.59 18.47,-356.31 18.47,-356.31 18.47,-350.31 24.47,-344.31 30.47,-344.31 30.47,-344.31 596.26,-344.31 596.26,-344.31 602.26,-344.31 608.26,-350.31 608.26,-356.31 608.26,-356.31 608.26,-377.59 608.26,-377.59 608.26,-383.59 602.26,-389.59 596.26,-389.59"/>
<text text-anchor="start" x="32.87" y="-368.65" font-family="Times,serif" font-weight="bold" font-size="14.00">2: </text>
<text text-anchor="start" x="52.37" y="-368.65" font-family="Times,serif" font-size="14.00">Wird auf den Bestandsschutz gem&#228;&#223; &#167; 19 Abs. 5 MsbG f&#252;r die Messlokation</text>
<text text-anchor="start" x="32.87" y="-354.65" font-family="Times,serif" font-size="14.00">verzichtet?</text>
</g>
<!-- 1&#45;&gt;2 -->
<g id="edge2" class="edge">
<title>1-&gt;2</title>
<path fill="none" stroke="#7aab8a" d="M441.75,-443.06C417.58,-428.92 385.72,-410.28 359.79,-395.11"/>
<polygon fill="#7aab8a" stroke="#7aab8a" points="361.87,-392.27 351.47,-390.24 358.34,-398.31 361.87,-392.27"/>
<text text-anchor="start" x="405.37" y="-412.54" font-family="Times,serif" font-weight="bold" font-size="14.00">JA</text>
</g>
<!-- 3 -->
<g id="node5" class="node">
<title>3</title>
<path fill="#7aab8a" stroke="black" stroke-width="0" d="M859.76,-278.3C859.76,-278.3 428.97,-278.3 428.97,-278.3 422.97,-278.3 416.97,-272.3 416.97,-266.3 416.97,-266.3 416.97,-254.3 416.97,-254.3 416.97,-248.3 422.97,-242.3 428.97,-242.3 428.97,-242.3 859.76,-242.3 859.76,-242.3 865.76,-242.3 871.76,-248.3 871.76,-254.3 871.76,-254.3 871.76,-266.3 871.76,-266.3 871.76,-272.3 865.76,-278.3 859.76,-278.3"/>
<text text-anchor="start" x="431.37" y="-256.62" font-family="Times,serif" font-weight="bold" font-size="14.00">3: </text>
<text text-anchor="start" x="450.87" y="-256.62" font-family="Times,serif" font-size="14.00">Ist der Selbsteinbau eines iMS oder einer mME geplant?</text>
</g>
<!-- 1&#45;&gt;3 -->
<g id="edge3" class="edge">
<title>1-&gt;3</title>
<path fill="none" stroke="#7aab8a" d="M544.45,-442.91C570.85,-431.12 599.23,-413.85 617.37,-389.59 639.21,-360.37 644.28,-317.45 645.03,-289.44"/>
<polygon fill="#7aab8a" stroke="#7aab8a" points="648.52,-289.62 645.1,-279.59 641.52,-289.56 648.52,-289.62"/>
<text text-anchor="start" x="637.37" y="-363.27" font-family="Times,serif" font-weight="bold" font-size="14.00">NEIN</text>
</g>
<!-- A01 -->
<g id="node4" class="node">
<title>A01</title>
<path fill="#cfb986" stroke="black" stroke-width="0" d="M386.73,-291.06C386.73,-291.06 12,-291.06 12,-291.06 6,-291.06 0,-285.06 0,-279.06 0,-279.06 0,-241.54 0,-241.54 0,-235.54 6,-229.54 12,-229.54 12,-229.54 386.73,-229.54 386.73,-229.54 392.73,-229.54 398.73,-235.54 398.73,-241.54 398.73,-241.54 398.73,-279.06 398.73,-279.06 398.73,-285.06 392.73,-291.06 386.73,-291.06"/>
<text text-anchor="start" x="12.24" y="-273" font-family="Times,serif" font-weight="bold" font-size="14.00">A01</text>
<text text-anchor="start" x="12.24" y="-260.9" font-family="Times,serif" text-decoration="underline" font-size="12.00">Hinweis:</text>
<text text-anchor="start" x="12.24" y="-248.9" font-family="Times,serif" font-size="12.00">Cluster: Ablehnung</text>
<text text-anchor="start" x="12.24" y="-236.9" font-family="Times,serif" font-size="12.00">Bestandsschutz gem&#228;&#223; &#167; 19 Abs. 5 MsbG f&#252;r die Messlokation</text>
</g>
<!-- 2&#45;&gt;A01 -->
<g id="edge4" class="edge">
<title>2-&gt;A01</title>
<path fill="none" stroke="#7aab8a" d="M290.02,-344.52C275.58,-331.26 256.64,-313.88 239.82,-298.43"/>
<polygon fill="#7aab8a" stroke="#7aab8a" points="242.6,-296.24 232.87,-292.06 237.87,-301.4 242.6,-296.24"/>
<text text-anchor="start" x="269.37" y="-314.01" font-family="Times,serif" font-weight="bold" font-size="14.00">NEIN</text>
</g>
<!-- 2&#45;&gt;3 -->
<g id="edge5" class="edge">
<title>2-&gt;3</title>
<path fill="none" stroke="#7aab8a" d="M381.55,-344.39C439.77,-325.98 522.93,-299.69 580.02,-281.64"/>
<polygon fill="#7aab8a" stroke="#7aab8a" points="580.8,-285.07 589.28,-278.72 578.69,-278.39 580.8,-285.07"/>
<text text-anchor="start" x="488.37" y="-314.01" font-family="Times,serif" font-weight="bold" font-size="14.00">JA</text>
</g>
<!-- A02 -->
<g id="node6" class="node">
<title>A02</title>
<path fill="#cfb986" stroke="black" stroke-width="0" d="M504.73,-176.29C504.73,-176.29 214,-176.29 214,-176.29 208,-176.29 202,-170.29 202,-164.29 202,-164.29 202,-126.77 202,-126.77 202,-120.77 208,-114.77 214,-114.77 214,-114.77 504.73,-114.77 504.73,-114.77 510.73,-114.77 516.73,-120.77 516.73,-126.77 516.73,-126.77 516.73,-164.29 516.73,-164.29 516.73,-170.29 510.73,-176.29 504.73,-176.29"/>
<text text-anchor="start" x="214.24" y="-158.23" font-family="Times,serif" font-weight="bold" font-size="14.00">A02</text>
<text text-anchor="start" x="214.24" y="-146.13" font-family="Times,serif" text-decoration="underline" font-size="12.00">Hinweis:</text>
<text text-anchor="start" x="214.24" y="-134.13" font-family="Times,serif" font-size="12.00">Cluster: Ablehnung</text>
<text text-anchor="start" x="214.24" y="-122.13" font-family="Times,serif" font-size="12.00">Selbsteinbau eines iMS oder einer mME geplant</text>
</g>
<!-- 3&#45;&gt;A02 -->
<g id="edge6" class="edge">
<title>3-&gt;A02</title>
<path fill="none" stroke="#7aab8a" d="M601.7,-242.42C560.44,-226.09 496.74,-200.89 445.01,-180.42"/>
<polygon fill="#7aab8a" stroke="#7aab8a" points="446.49,-177.24 435.9,-176.81 443.91,-183.75 446.49,-177.24"/>
<text text-anchor="start" x="518.37" y="-199.24" font-family="Times,serif" font-weight="bold" font-size="14.00">JA</text>
</g>
<!-- 4 -->
<g id="node7" class="node">
<title>4</title>
<path fill="#7aab8a" stroke="black" stroke-width="0" d="M1040.26,-163.53C1040.26,-163.53 546.47,-163.53 546.47,-163.53 540.47,-163.53 534.47,-157.53 534.47,-151.53 534.47,-151.53 534.47,-139.53 534.47,-139.53 534.47,-133.53 540.47,-127.53 546.47,-127.53 546.47,-127.53 1040.26,-127.53 1040.26,-127.53 1046.26,-127.53 1052.26,-133.53 1052.26,-139.53 1052.26,-139.53 1052.26,-151.53 1052.26,-151.53 1052.26,-157.53 1046.26,-163.53 1040.26,-163.53"/>
<text text-anchor="start" x="548.87" y="-141.85" font-family="Times,serif" font-weight="bold" font-size="14.00">4: </text>
<text text-anchor="start" x="568.37" y="-141.85" font-family="Times,serif" font-size="14.00">Wird auf den Selbsteinbau eines iMS oder einer mME verzichtet?</text>
</g>
<!-- 3&#45;&gt;4 -->
<g id="edge7" class="edge">
<title>3-&gt;4</title>
<path fill="none" stroke="#7aab8a" d="M666.67,-242.42C691.91,-223.32 733.2,-192.06 761.75,-170.46"/>
<polygon fill="#7aab8a" stroke="#7aab8a" points="763.84,-173.27 769.7,-164.44 759.61,-167.69 763.84,-173.27"/>
<text text-anchor="start" x="727.37" y="-199.24" font-family="Times,serif" font-weight="bold" font-size="14.00">NEIN</text>
</g>
<!-- A03 -->
<g id="node8" class="node">
<title>A03</title>
<path fill="#cfb986" stroke="black" stroke-width="0" d="M565.98,-61.52C565.98,-61.52 204.75,-61.52 204.75,-61.52 198.75,-61.52 192.75,-55.52 192.75,-49.52 192.75,-49.52 192.75,-12 192.75,-12 192.75,-6 198.75,0 204.75,0 204.75,0 565.98,0 565.98,0 571.98,0 577.98,-6 577.98,-12 577.98,-12 577.98,-49.52 577.98,-49.52 577.98,-55.52 571.98,-61.52 565.98,-61.52"/>
<text text-anchor="start" x="204.99" y="-43.46" font-family="Times,serif" font-weight="bold" font-size="14.00">A03</text>
<text text-anchor="start" x="204.99" y="-31.36" font-family="Times,serif" text-decoration="underline" font-size="12.00">Hinweis:</text>
<text text-anchor="start" x="204.99" y="-19.36" font-family="Times,serif" font-size="12.00">Cluster: Zustimmung</text>
<text text-anchor="start" x="204.99" y="-7.36" font-family="Times,serif" font-size="12.00">Auf Selbsteinbau eines iMS oder einer mME wird verzichtet</text>
</g>
<!-- 4&#45;&gt;A03 -->
<g id="edge8" class="edge">
<title>4-&gt;A03</title>
<path fill="none" stroke="#7aab8a" d="M732.28,-127.65C672.11,-111.02 578.59,-85.17 503.81,-64.5"/>
<polygon fill="#7aab8a" stroke="#7aab8a" points="504.95,-61.18 494.38,-61.89 503.09,-67.93 504.95,-61.18"/>
<text text-anchor="start" x="613.37" y="-84.47" font-family="Times,serif" font-weight="bold" font-size="14.00">JA</text>
</g>
<!-- A04 -->
<g id="node9" class="node">
<title>A04</title>
<path fill="#cfb986" stroke="black" stroke-width="0" d="M1079.11,-61.52C1079.11,-61.52 607.62,-61.52 607.62,-61.52 601.62,-61.52 595.62,-55.52 595.62,-49.52 595.62,-49.52 595.62,-12 595.62,-12 595.62,-6 601.62,0 607.62,0 607.62,0 1079.11,0 1079.11,0 1085.11,0 1091.11,-6 1091.11,-12 1091.11,-12 1091.11,-49.52 1091.11,-49.52 1091.11,-55.52 1085.11,-61.52 1079.11,-61.52"/>
<text text-anchor="start" x="607.87" y="-43.46" font-family="Times,serif" font-weight="bold" font-size="14.00">A04</text>
<text text-anchor="start" x="607.87" y="-31.36" font-family="Times,serif" text-decoration="underline" font-size="12.00">Hinweis:</text>
<text text-anchor="start" x="607.87" y="-19.36" font-family="Times,serif" font-size="12.00">Cluster: Ablehnung</text>
<text text-anchor="start" x="607.87" y="-7.36" font-family="Times,serif" font-size="12.00">Zum jetzigen Zeitpunkt noch keine Aussage hin-sichtlich Selbsteinbau m&#246;glich</text>
</g>
<!-- 4&#45;&gt;A04 -->
<g id="edge9" class="edge">
<title>4-&gt;A04</title>
<path fill="none" stroke="#7aab8a" d="M800.74,-127.89C807.3,-113.11 817.14,-90.9 825.72,-71.56"/>
<polygon fill="#7aab8a" stroke="#7aab8a" points="828.86,-73.12 829.71,-62.56 822.46,-70.28 828.86,-73.12"/>
<text text-anchor="start" x="820.37" y="-84.47" font-family="Times,serif" font-weight="bold" font-size="14.00">NEIN</text>
</g>
</g>
</svg>
  </g>
</svg>
  </g>
</svg>
