<?xml version='1.0' encoding='ASCII' standalone='yes'?>
<svg xmlns="http://www.w3.org/2000/svg" xmlns:xlink="http://www.w3.org/1999/xlink" version="1.1" width="1920.0px" viewBox="0 0 1920.0 601.3333333333334" height="601.3333333333334px">
  <g>
    <svg version="1.1" width="1920.0px" viewBox="0 0 1920.0 601.3333333333334" height="601.3333333333334px">
  <rect fill="#e7e6e5" x="0" y="0" width="1920.0" height="601.3333333333334" rx="20" ry="20"/><g>
    <g transform="translate(714.7758941143339, 60.133333333333326) scale(1 1) translate(0, 0) scale(0.8467098469914579 0.8467098469914579) "><defs>
    <style>.cls-1{fill:#ffffff88;}</style>
    <!--
    ffffff88 is white with 50% transparency; this matches the colour of the tesa strip on
    ebd.hochfrequenz.de where it crosses the diagram SVG:
    https://github.com/Hochfrequenz/entscheidungsbaumdiagramme/blob/01bd43fa0f1d0333fa93596bc8b9fd1e4b285c8c/src/lib/components/features/svg-container.svelte#L54
    -->
  </defs>
  <path class="cls-1" d="M122.44,531.2h-56.1c-11,0-19.9-9.12-19.46-20.11C57.47,243.89,278.15,29.78,547.91,29.78v56.02c0,10.98-8.69,19.89-19.66,20.39-225.51,10.31-405.8,197-405.8,425Z"/>
  <path class="cls-1" d="M273.78,531.2h-55.93c-11.23,0-20.09-9.48-19.43-20.69,10.74-183.44,163.39-329.39,349.48-329.39v56.26c0,10.71-8.27,19.62-18.96,20.35-142.35,9.77-255.17,128.69-255.17,273.46Z"/>
  <path class="cls-1" d="M425.77,531.2h-55.45c-11.65,0-20.6-10.17-19.33-21.75,10.87-99.03,95.03-176.34,196.92-176.34v57.01c0,10.05-7.28,18.75-17.23,20.16-59.22,8.4-104.91,59.42-104.91,120.92Z"/>
</g>
    <svg width="1440pt" height="451pt" viewBox="0.00 0.00 1440.00 450.87">
<g id="graph0" class="graph" transform="scale(0.375729 0.375729) rotate(0) translate(18 1181.99)">
<title>D</title>
<text text-anchor="start" x="1741.15" y="-1143.89" font-family="Roboto, sans-serif" font-weight="bold" font-size="18.00">MPES</text>
<text text-anchor="start" x="1741.15" y="-1115.79" font-family="Roboto, sans-serif" font-weight="bold" font-size="16.00">8.4.1: AD: Lieferende von NB an LF</text>
<!-- Start -->
<g id="node1" class="node">
<title>Start</title>
<path fill="#8ba2d7" stroke="black" stroke-width="0" d="M1629.3,-1073.99C1629.3,-1073.99 1496.25,-1073.99 1496.25,-1073.99 1490.25,-1073.99 1484.25,-1067.99 1484.25,-1061.99 1484.25,-1061.99 1484.25,-1040.71 1484.25,-1040.71 1484.25,-1034.71 1490.25,-1028.71 1496.25,-1028.71 1496.25,-1028.71 1629.3,-1028.71 1629.3,-1028.71 1635.3,-1028.71 1641.3,-1034.71 1641.3,-1040.71 1641.3,-1040.71 1641.3,-1061.99 1641.3,-1061.99 1641.3,-1067.99 1635.3,-1073.99 1629.3,-1073.99"/>
<text text-anchor="start" x="1498.65" y="-1053.05" font-family="Roboto, sans-serif" font-weight="bold" font-size="14.00">E_0302</text>
<text text-anchor="start" x="1498.65" y="-1039.05" font-family="Roboto, sans-serif" font-size="14.00">Pr&#252;fende Rolle: </text>
<text text-anchor="start" x="1608.15" y="-1039.05" font-family="Roboto, sans-serif" font-weight="bold" font-size="14.00">LF</text>
</g>
<!-- 1 -->
<g id="node2" class="node">
<title>1</title>
<path fill="#c2cee9" stroke="black" stroke-width="0" d="M1857.68,-991.71C1857.68,-991.71 1267.88,-991.71 1267.88,-991.71 1261.88,-991.71 1255.88,-985.71 1255.88,-979.71 1255.88,-979.71 1255.88,-958.43 1255.88,-958.43 1255.88,-952.43 1261.88,-946.43 1267.88,-946.43 1267.88,-946.43 1857.68,-946.43 1857.68,-946.43 1863.68,-946.43 1869.68,-952.43 1869.68,-958.43 1869.68,-958.43 1869.68,-979.71 1869.68,-979.71 1869.68,-985.71 1863.68,-991.71 1857.68,-991.71"/>
<text text-anchor="start" x="1270.28" y="-970.77" font-family="Roboto, sans-serif" font-weight="bold" font-size="14.00">1: </text>
<text text-anchor="start" x="1289.78" y="-970.77" font-family="Roboto, sans-serif" font-size="14.00">Wurde bereits zum identischen Abmeldedatum f&#252;r die in diesem Gesch&#228;ftsvorfall</text>
<text text-anchor="start" x="1270.28" y="-956.77" font-family="Roboto, sans-serif" font-size="14.00">genannte Marktlokation der Gesch&#228;ftsvorfall Lieferende positiv best&#228;tigt?</text>
</g>
<!-- Start&#45;&gt;1 -->
<g id="edge1" class="edge">
<title>Start-&gt;1</title>
<path fill="none" stroke="#88a0d6" d="M1562.78,-1028.84C1562.78,-1020.92 1562.78,-1011.76 1562.78,-1003.06"/>
<polygon fill="#88a0d6" stroke="#88a0d6" points="1566.28,-1003.16 1562.78,-993.16 1559.28,-1003.16 1566.28,-1003.16"/>
</g>
<!-- A01 -->
<g id="node3" class="node">
<title>A01</title>
<path fill="#c4cac1" stroke="black" stroke-width="0" d="M1646.8,-893.18C1646.8,-893.18 1258.75,-893.18 1258.75,-893.18 1252.75,-893.18 1246.75,-887.18 1246.75,-881.18 1246.75,-881.18 1246.75,-831.9 1246.75,-831.9 1246.75,-825.9 1252.75,-819.9 1258.75,-819.9 1258.75,-819.9 1646.8,-819.9 1646.8,-819.9 1652.8,-819.9 1658.8,-825.9 1658.8,-831.9 1658.8,-831.9 1658.8,-881.18 1658.8,-881.18 1658.8,-887.18 1652.8,-893.18 1646.8,-893.18"/>
<text text-anchor="start" x="1261.15" y="-872.24" font-family="Roboto, sans-serif" font-weight="bold" font-size="14.00">A01</text>
<text text-anchor="start" x="1261.15" y="-844.24" font-family="Roboto, sans-serif" font-size="14.00">Cluster: Ablehnung</text>
<text text-anchor="start" x="1261.15" y="-830.24" font-family="Roboto, sans-serif" font-size="14.00">Lieferende zum Abmeldedatum wurde bereits best&#228;tigt</text>
</g>
<!-- 1&#45;&gt;A01 -->
<g id="edge2" class="edge">
<title>1-&gt;A01</title>
<path fill="none" stroke="#88a0d6" d="M1541.3,-946.5C1528.42,-933.55 1511.57,-916.61 1496.02,-901"/>
<polygon fill="#88a0d6" stroke="#88a0d6" points="1498.65,-898.67 1489.11,-894.05 1493.69,-903.61 1498.65,-898.67"/>
<text text-anchor="start" x="1520.78" y="-916.13" font-family="Roboto, sans-serif" font-weight="bold" font-size="14.00">JA</text>
</g>
<!-- 2 -->
<g id="node4" class="node">
<title>2</title>
<path fill="#c2cee9" stroke="black" stroke-width="0" d="M2021.05,-874.54C2021.05,-874.54 1688.5,-874.54 1688.5,-874.54 1682.5,-874.54 1676.5,-868.54 1676.5,-862.54 1676.5,-862.54 1676.5,-850.54 1676.5,-850.54 1676.5,-844.54 1682.5,-838.54 1688.5,-838.54 1688.5,-838.54 2021.05,-838.54 2021.05,-838.54 2027.05,-838.54 2033.05,-844.54 2033.05,-850.54 2033.05,-850.54 2033.05,-862.54 2033.05,-862.54 2033.05,-868.54 2027.05,-874.54 2021.05,-874.54"/>
<text text-anchor="start" x="1690.9" y="-852.87" font-family="Roboto, sans-serif" font-weight="bold" font-size="14.00">2: </text>
<text text-anchor="start" x="1710.4" y="-852.87" font-family="Roboto, sans-serif" font-size="14.00">Liegt der Transaktionsgrund Stilllegung vor?</text>
</g>
<!-- 1&#45;&gt;2 -->
<g id="edge3" class="edge">
<title>1-&gt;2</title>
<path fill="none" stroke="#88a0d6" d="M1619.77,-946.5C1671.68,-926.85 1747.86,-898.01 1799.29,-878.54"/>
<polygon fill="#88a0d6" stroke="#88a0d6" points="1800.34,-881.89 1808.46,-875.07 1797.86,-875.34 1800.34,-881.89"/>
<text text-anchor="start" x="1708.78" y="-916.13" font-family="Roboto, sans-serif" font-weight="bold" font-size="14.00">NEIN</text>
</g>
<!-- 3 -->
<g id="node5" class="node">
<title>3</title>
<path fill="#c2cee9" stroke="black" stroke-width="0" d="M1777.93,-766.65C1777.93,-766.65 1285.62,-766.65 1285.62,-766.65 1279.62,-766.65 1273.62,-760.65 1273.62,-754.65 1273.62,-754.65 1273.62,-742.65 1273.62,-742.65 1273.62,-736.65 1279.62,-730.65 1285.62,-730.65 1285.62,-730.65 1777.93,-730.65 1777.93,-730.65 1783.93,-730.65 1789.93,-736.65 1789.93,-742.65 1789.93,-742.65 1789.93,-754.65 1789.93,-754.65 1789.93,-760.65 1783.93,-766.65 1777.93,-766.65"/>
<text text-anchor="start" x="1288.03" y="-744.98" font-family="Roboto, sans-serif" font-weight="bold" font-size="14.00">3: </text>
<text text-anchor="start" x="1307.53" y="-744.98" font-family="Roboto, sans-serif" font-size="14.00">Ist die Prognosegrundlage der Marktlokation auf Basis von Werten?</text>
</g>
<!-- 2&#45;&gt;3 -->
<g id="edge4" class="edge">
<title>2-&gt;3</title>
<path fill="none" stroke="#88a0d6" d="M1803.24,-838.64C1746.36,-820 1654.84,-789.99 1594.01,-770.05"/>
<polygon fill="#88a0d6" stroke="#88a0d6" points="1595.43,-766.83 1584.83,-767.04 1593.25,-773.49 1595.43,-766.83"/>
<text text-anchor="start" x="1682.78" y="-789.6" font-family="Roboto, sans-serif" font-weight="bold" font-size="14.00">JA</text>
</g>
<!-- 9 -->
<g id="node16" class="node">
<title>9</title>
<path fill="#c2cee9" stroke="black" stroke-width="0" d="M2452.43,-766.65C2452.43,-766.65 1903.12,-766.65 1903.12,-766.65 1897.12,-766.65 1891.12,-760.65 1891.12,-754.65 1891.12,-754.65 1891.12,-742.65 1891.12,-742.65 1891.12,-736.65 1897.12,-730.65 1903.12,-730.65 1903.12,-730.65 2452.43,-730.65 2452.43,-730.65 2458.43,-730.65 2464.43,-736.65 2464.43,-742.65 2464.43,-742.65 2464.43,-754.65 2464.43,-754.65 2464.43,-760.65 2458.43,-766.65 2452.43,-766.65"/>
<text text-anchor="start" x="1905.53" y="-744.98" font-family="Roboto, sans-serif" font-weight="bold" font-size="14.00">9: </text>
<text text-anchor="start" x="1925.03" y="-744.98" font-family="Roboto, sans-serif" font-size="14.00">Ist das Datum &#8222;Bilanzierungsende&#8220; identisch mit dem Datum &#8222;Lieferende&#8220;?</text>
</g>
<!-- 2&#45;&gt;9 -->
<g id="edge5" class="edge">
<title>2-&gt;9</title>
<path fill="none" stroke="#88a0d6" d="M1906.31,-838.64C1963.19,-820 2054.71,-789.99 2115.54,-770.05"/>
<polygon fill="#88a0d6" stroke="#88a0d6" points="2116.3,-773.49 2124.72,-767.04 2114.12,-766.83 2116.3,-773.49"/>
<text text-anchor="start" x="2063.78" y="-789.6" font-family="Roboto, sans-serif" font-weight="bold" font-size="14.00">NEIN</text>
</g>
<!-- 4 -->
<g id="node6" class="node">
<title>4</title>
<path fill="#c2cee9" stroke="black" stroke-width="0" d="M1171.17,-651.76C1171.17,-651.76 590.38,-651.76 590.38,-651.76 584.38,-651.76 578.38,-645.76 578.38,-639.76 578.38,-639.76 578.38,-627.76 578.38,-627.76 578.38,-621.76 584.38,-615.76 590.38,-615.76 590.38,-615.76 1171.17,-615.76 1171.17,-615.76 1177.17,-615.76 1183.17,-621.76 1183.17,-627.76 1183.17,-627.76 1183.17,-639.76 1183.17,-639.76 1183.17,-645.76 1177.17,-651.76 1171.17,-651.76"/>
<text text-anchor="start" x="592.77" y="-630.09" font-family="Roboto, sans-serif" font-weight="bold" font-size="14.00">4: </text>
<text text-anchor="start" x="612.27" y="-630.09" font-family="Roboto, sans-serif" font-size="14.00">Liegt das Datum &#8222;Lieferende&#8220; mindestens 1 WT nach dem Nachrichteneingang?</text>
</g>
<!-- 3&#45;&gt;4 -->
<g id="edge6" class="edge">
<title>3-&gt;4</title>
<path fill="none" stroke="#88a0d6" d="M1433.96,-730.69C1314.75,-710.02 1113.89,-675.19 989.81,-653.67"/>
<polygon fill="#88a0d6" stroke="#88a0d6" points="990.73,-650.28 980.28,-652.02 989.53,-657.17 990.73,-650.28"/>
<text text-anchor="start" x="1320.78" y="-700.35" font-family="Roboto, sans-serif" font-weight="bold" font-size="14.00">JA</text>
</g>
<!-- 6 -->
<g id="node10" class="node">
<title>6</title>
<path fill="#c2cee9" stroke="black" stroke-width="0" d="M1850.3,-651.76C1850.3,-651.76 1213.25,-651.76 1213.25,-651.76 1207.25,-651.76 1201.25,-645.76 1201.25,-639.76 1201.25,-639.76 1201.25,-627.76 1201.25,-627.76 1201.25,-621.76 1207.25,-615.76 1213.25,-615.76 1213.25,-615.76 1850.3,-615.76 1850.3,-615.76 1856.3,-615.76 1862.3,-621.76 1862.3,-627.76 1862.3,-627.76 1862.3,-639.76 1862.3,-639.76 1862.3,-645.76 1856.3,-651.76 1850.3,-651.76"/>
<text text-anchor="start" x="1215.65" y="-630.09" font-family="Roboto, sans-serif" font-weight="bold" font-size="14.00">6: </text>
<text text-anchor="start" x="1235.15" y="-630.09" font-family="Roboto, sans-serif" font-size="14.00">Liegt das Datum &#8222;Bilanzierungsende&#8220; mindestens 3 WT nach dem Nachrichteneingang?</text>
</g>
<!-- 3&#45;&gt;6 -->
<g id="edge7" class="edge">
<title>3-&gt;6</title>
<path fill="none" stroke="#88a0d6" d="M1531.78,-730.99C1531.78,-713.07 1531.78,-684.25 1531.78,-662.82"/>
<polygon fill="#88a0d6" stroke="#88a0d6" points="1535.28,-663 1531.78,-653 1528.28,-663 1535.28,-663"/>
<text text-anchor="start" x="1531.78" y="-700.35" font-family="Roboto, sans-serif" font-weight="bold" font-size="14.00">NEIN</text>
</g>
<!-- A02 -->
<g id="node7" class="node">
<title>A02</title>
<path fill="#c4cac1" stroke="black" stroke-width="0" d="M581.55,-522.87C581.55,-522.87 12,-522.87 12,-522.87 6,-522.87 0,-516.87 0,-510.87 0,-510.87 0,-447.59 0,-447.59 0,-441.59 6,-435.59 12,-435.59 12,-435.59 581.55,-435.59 581.55,-435.59 587.55,-435.59 593.55,-441.59 593.55,-447.59 593.55,-447.59 593.55,-510.87 593.55,-510.87 593.55,-516.87 587.55,-522.87 581.55,-522.87"/>
<text text-anchor="start" x="14.4" y="-501.93" font-family="Roboto, sans-serif" font-weight="bold" font-size="14.00">A02</text>
<text text-anchor="start" x="14.4" y="-473.93" font-family="Roboto, sans-serif" font-size="14.00">Cluster: Ablehnung</text>
<text text-anchor="start" x="14.4" y="-459.93" font-family="Roboto, sans-serif" font-size="14.00">Eine Stilllegung einer Marktlokation mit Prognosegrundlage auf Basis von Werten</text>
<text text-anchor="start" x="14.4" y="-445.93" font-family="Roboto, sans-serif" font-size="14.00">kann nicht in die Vergangenheit gemeldet werden.</text>
</g>
<!-- 4&#45;&gt;A02 -->
<g id="edge8" class="edge">
<title>4-&gt;A02</title>
<path fill="none" stroke="#88a0d6" d="M815.76,-615.78C733.02,-594.17 586.88,-556 470.72,-525.66"/>
<polygon fill="#88a0d6" stroke="#88a0d6" points="471.95,-522.37 461.39,-523.23 470.19,-529.14 471.95,-522.37"/>
<text text-anchor="start" x="640.77" y="-559.82" font-family="Roboto, sans-serif" font-weight="bold" font-size="14.00">NEIN</text>
</g>
<!-- 5 -->
<g id="node8" class="node">
<title>5</title>
<path fill="#c2cee9" stroke="black" stroke-width="0" d="M1172.42,-497.23C1172.42,-497.23 623.12,-497.23 623.12,-497.23 617.12,-497.23 611.12,-491.23 611.12,-485.23 611.12,-485.23 611.12,-473.23 611.12,-473.23 611.12,-467.23 617.12,-461.23 623.12,-461.23 623.12,-461.23 1172.42,-461.23 1172.42,-461.23 1178.42,-461.23 1184.42,-467.23 1184.42,-473.23 1184.42,-473.23 1184.42,-485.23 1184.42,-485.23 1184.42,-491.23 1178.42,-497.23 1172.42,-497.23"/>
<text text-anchor="start" x="625.52" y="-475.55" font-family="Roboto, sans-serif" font-weight="bold" font-size="14.00">5: </text>
<text text-anchor="start" x="645.02" y="-475.55" font-family="Roboto, sans-serif" font-size="14.00">Ist das Datum &#8222;Bilanzierungsende&#8220; identisch mit dem Datum &#8222;Lieferende&#8220;?</text>
</g>
<!-- 4&#45;&gt;5 -->
<g id="edge9" class="edge">
<title>4-&gt;5</title>
<path fill="none" stroke="#88a0d6" d="M882.66,-615.85C885.56,-589.86 891.14,-539.77 894.65,-508.28"/>
<polygon fill="#88a0d6" stroke="#88a0d6" points="898.09,-509.04 895.71,-498.72 891.13,-508.27 898.09,-509.04"/>
<text text-anchor="start" x="888.77" y="-559.82" font-family="Roboto, sans-serif" font-weight="bold" font-size="14.00">JA</text>
</g>
<!-- A03 -->
<g id="node9" class="node">
<title>A03</title>
<path fill="#c4cac1" stroke="black" stroke-width="0" d="M1140.55,-368.34C1140.55,-368.34 655,-368.34 655,-368.34 649,-368.34 643,-362.34 643,-356.34 643,-356.34 643,-293.06 643,-293.06 643,-287.06 649,-281.06 655,-281.06 655,-281.06 1140.55,-281.06 1140.55,-281.06 1146.55,-281.06 1152.55,-287.06 1152.55,-293.06 1152.55,-293.06 1152.55,-356.34 1152.55,-356.34 1152.55,-362.34 1146.55,-368.34 1140.55,-368.34"/>
<text text-anchor="start" x="657.4" y="-347.4" font-family="Roboto, sans-serif" font-weight="bold" font-size="14.00">A03</text>
<text text-anchor="start" x="657.4" y="-319.4" font-family="Roboto, sans-serif" font-size="14.00">Cluster: Ablehnung</text>
<text text-anchor="start" x="657.4" y="-305.4" font-family="Roboto, sans-serif" font-size="14.00">Bei Marktlokation mit Prognosegrundlage auf Basis von Werten muss</text>
<text text-anchor="start" x="657.4" y="-291.4" font-family="Roboto, sans-serif" font-size="14.00">Bilanzierungsende und Lieferende identisch sein.</text>
</g>
<!-- 5&#45;&gt;A03 -->
<g id="edge10" class="edge">
<title>5-&gt;A03</title>
<path fill="none" stroke="#88a0d6" d="M897.77,-461.32C897.77,-441.6 897.77,-408.02 897.77,-379.21"/>
<polygon fill="#88a0d6" stroke="#88a0d6" points="901.28,-379.55 897.78,-369.55 894.28,-379.55 901.28,-379.55"/>
<text text-anchor="start" x="897.77" y="-391.29" font-family="Roboto, sans-serif" font-weight="bold" font-size="14.00">NEIN</text>
</g>
<!-- 8 -->
<g id="node14" class="node">
<title>8</title>
<path fill="#c2cee9" stroke="black" stroke-width="0" d="M1987.05,-347.34C1987.05,-347.34 1468.5,-347.34 1468.5,-347.34 1462.5,-347.34 1456.5,-341.34 1456.5,-335.34 1456.5,-335.34 1456.5,-314.06 1456.5,-314.06 1456.5,-308.06 1462.5,-302.06 1468.5,-302.06 1468.5,-302.06 1987.05,-302.06 1987.05,-302.06 1993.05,-302.06 1999.05,-308.06 1999.05,-314.06 1999.05,-314.06 1999.05,-335.34 1999.05,-335.34 1999.05,-341.34 1993.05,-347.34 1987.05,-347.34"/>
<text text-anchor="start" x="1470.9" y="-326.4" font-family="Roboto, sans-serif" font-weight="bold" font-size="14.00">8: </text>
<text text-anchor="start" x="1490.4" y="-326.4" font-family="Roboto, sans-serif" font-size="14.00">Liegen dem LF Informationen dar&#252;ber vor, dass die Marktlokation nicht</text>
<text text-anchor="start" x="1470.9" y="-312.4" font-family="Roboto, sans-serif" font-size="14.00">stillgelegt wird/wurde?</text>
</g>
<!-- 5&#45;&gt;8 -->
<g id="edge11" class="edge">
<title>5-&gt;8</title>
<path fill="none" stroke="#88a0d6" d="M985.15,-461.24C1044.06,-449.85 1123.55,-434.61 1193.78,-421.59 1329.96,-396.33 1485.88,-368.46 1593.93,-349.3"/>
<polygon fill="#88a0d6" stroke="#88a0d6" points="1594.49,-352.75 1603.73,-347.56 1593.27,-345.86 1594.49,-352.75"/>
<text text-anchor="start" x="1383.78" y="-391.29" font-family="Roboto, sans-serif" font-weight="bold" font-size="14.00">JA</text>
</g>
<!-- A04 -->
<g id="node11" class="node">
<title>A04</title>
<path fill="#c4cac1" stroke="black" stroke-width="0" d="M1747.18,-522.87C1747.18,-522.87 1214.38,-522.87 1214.38,-522.87 1208.38,-522.87 1202.38,-516.87 1202.38,-510.87 1202.38,-510.87 1202.38,-447.59 1202.38,-447.59 1202.38,-441.59 1208.38,-435.59 1214.38,-435.59 1214.38,-435.59 1747.18,-435.59 1747.18,-435.59 1753.18,-435.59 1759.18,-441.59 1759.18,-447.59 1759.18,-447.59 1759.18,-510.87 1759.18,-510.87 1759.18,-516.87 1753.18,-522.87 1747.18,-522.87"/>
<text text-anchor="start" x="1216.78" y="-501.93" font-family="Roboto, sans-serif" font-weight="bold" font-size="14.00">A04</text>
<text text-anchor="start" x="1216.78" y="-473.93" font-family="Roboto, sans-serif" font-size="14.00">Cluster: Ablehnung</text>
<text text-anchor="start" x="1216.78" y="-459.93" font-family="Roboto, sans-serif" font-size="14.00">Bilanzierungsfrist bei Marktlokationen mit Prognosegrundlage auf Basis von</text>
<text text-anchor="start" x="1216.78" y="-445.93" font-family="Roboto, sans-serif" font-size="14.00">Profilen nicht eingehalten.</text>
</g>
<!-- 6&#45;&gt;A04 -->
<g id="edge12" class="edge">
<title>6-&gt;A04</title>
<path fill="none" stroke="#88a0d6" d="M1526.12,-615.85C1519.5,-596.05 1508.2,-562.26 1498.54,-533.36"/>
<polygon fill="#88a0d6" stroke="#88a0d6" points="1501.9,-532.38 1495.41,-524 1495.26,-534.6 1501.9,-532.38"/>
<text text-anchor="start" x="1510.78" y="-559.82" font-family="Roboto, sans-serif" font-weight="bold" font-size="14.00">NEIN</text>
</g>
<!-- 7 -->
<g id="node12" class="node">
<title>7</title>
<path fill="#c2cee9" stroke="black" stroke-width="0" d="M2404.43,-497.23C2404.43,-497.23 1789.12,-497.23 1789.12,-497.23 1783.12,-497.23 1777.12,-491.23 1777.12,-485.23 1777.12,-485.23 1777.12,-473.23 1777.12,-473.23 1777.12,-467.23 1783.12,-461.23 1789.12,-461.23 1789.12,-461.23 2404.43,-461.23 2404.43,-461.23 2410.43,-461.23 2416.43,-467.23 2416.43,-473.23 2416.43,-473.23 2416.43,-485.23 2416.43,-485.23 2416.43,-491.23 2410.43,-497.23 2404.43,-497.23"/>
<text text-anchor="start" x="1791.53" y="-475.55" font-family="Roboto, sans-serif" font-weight="bold" font-size="14.00">7: </text>
<text text-anchor="start" x="1811.03" y="-475.55" font-family="Roboto, sans-serif" font-size="14.00">Liegt das Datum &#8222;Bilanzierungsende&#8220; auf dem 1. eines Kalendermonates 00:00 Uhr?</text>
</g>
<!-- 6&#45;&gt;7 -->
<g id="edge13" class="edge">
<title>6-&gt;7</title>
<path fill="none" stroke="#88a0d6" d="M1594.67,-615.78C1699.89,-587.37 1911.08,-530.36 2023.09,-500.12"/>
<polygon fill="#88a0d6" stroke="#88a0d6" points="2023.74,-503.57 2032.48,-497.59 2021.91,-496.81 2023.74,-503.57"/>
<text text-anchor="start" x="1813.78" y="-559.82" font-family="Roboto, sans-serif" font-weight="bold" font-size="14.00">JA</text>
</g>
<!-- A05 -->
<g id="node13" class="node">
<title>A05</title>
<path fill="#c4cac1" stroke="black" stroke-width="0" d="M2408.68,-361.34C2408.68,-361.34 2028.88,-361.34 2028.88,-361.34 2022.88,-361.34 2016.88,-355.34 2016.88,-349.34 2016.88,-349.34 2016.88,-300.06 2016.88,-300.06 2016.88,-294.06 2022.88,-288.06 2028.88,-288.06 2028.88,-288.06 2408.68,-288.06 2408.68,-288.06 2414.68,-288.06 2420.68,-294.06 2420.68,-300.06 2420.68,-300.06 2420.68,-349.34 2420.68,-349.34 2420.68,-355.34 2414.68,-361.34 2408.68,-361.34"/>
<text text-anchor="start" x="2031.28" y="-340.4" font-family="Roboto, sans-serif" font-weight="bold" font-size="14.00">A05</text>
<text text-anchor="start" x="2031.28" y="-312.4" font-family="Roboto, sans-serif" font-size="14.00">Cluster: Ablehnung</text>
<text text-anchor="start" x="2031.28" y="-298.4" font-family="Roboto, sans-serif" font-size="14.00">Bilanzierungsende liegt nicht auf dem Monatswechsel</text>
</g>
<!-- 7&#45;&gt;A05 -->
<g id="edge14" class="edge">
<title>7-&gt;A05</title>
<path fill="none" stroke="#88a0d6" d="M2110.3,-461.32C2127.8,-439.44 2158.96,-400.49 2183.4,-369.93"/>
<polygon fill="#88a0d6" stroke="#88a0d6" points="2185.97,-372.32 2189.48,-362.33 2180.5,-367.95 2185.97,-372.32"/>
<text text-anchor="start" x="2167.78" y="-391.29" font-family="Roboto, sans-serif" font-weight="bold" font-size="14.00">NEIN</text>
</g>
<!-- 7&#45;&gt;8 -->
<g id="edge15" class="edge">
<title>7-&gt;8</title>
<path fill="none" stroke="#88a0d6" d="M2055.88,-461.32C1991.54,-434.73 1866.23,-382.93 1790.46,-351.61"/>
<polygon fill="#88a0d6" stroke="#88a0d6" points="1792.09,-348.5 1781.51,-347.91 1789.42,-354.97 1792.09,-348.5"/>
<text text-anchor="start" x="1911.78" y="-391.29" font-family="Roboto, sans-serif" font-weight="bold" font-size="14.00">JA</text>
</g>
<!-- A06 -->
<g id="node15" class="node">
<title>A06</title>
<path fill="#c4cac1" stroke="black" stroke-width="0" d="M1982.18,-227.81C1982.18,-227.81 1473.38,-227.81 1473.38,-227.81 1467.38,-227.81 1461.38,-221.81 1461.38,-215.81 1461.38,-215.81 1461.38,-152.53 1461.38,-152.53 1461.38,-146.53 1467.38,-140.53 1473.38,-140.53 1473.38,-140.53 1982.18,-140.53 1982.18,-140.53 1988.18,-140.53 1994.18,-146.53 1994.18,-152.53 1994.18,-152.53 1994.18,-215.81 1994.18,-215.81 1994.18,-221.81 1988.18,-227.81 1982.18,-227.81"/>
<text text-anchor="start" x="1475.78" y="-206.87" font-family="Roboto, sans-serif" font-weight="bold" font-size="14.00">A06</text>
<text text-anchor="start" x="1475.78" y="-178.87" font-family="Roboto, sans-serif" font-size="14.00">Cluster: Ablehnung</text>
<text text-anchor="start" x="1475.78" y="-164.87" font-family="Roboto, sans-serif" font-size="14.00">Dem LF liegen Informationen vor, dass die Marktlokation nicht stillgelegt</text>
<text text-anchor="start" x="1475.78" y="-150.87" font-family="Roboto, sans-serif" font-size="14.00">wird/wurde.</text>
</g>
<!-- 8&#45;&gt;A06 -->
<g id="edge16" class="edge">
<title>8-&gt;A06</title>
<path fill="none" stroke="#88a0d6" d="M1727.78,-302.36C1727.78,-285.49 1727.78,-261.18 1727.78,-239.08"/>
<polygon fill="#88a0d6" stroke="#88a0d6" points="1731.28,-239.28 1727.78,-229.28 1724.28,-239.28 1731.28,-239.28"/>
<text text-anchor="start" x="1727.78" y="-250.76" font-family="Roboto, sans-serif" font-weight="bold" font-size="14.00">JA</text>
</g>
<!-- 12 -->
<g id="node22" class="node">
<title>12</title>
<path fill="#c2cee9" stroke="black" stroke-width="0" d="M3068.8,-202.17C3068.8,-202.17 2674.75,-202.17 2674.75,-202.17 2668.75,-202.17 2662.75,-196.17 2662.75,-190.17 2662.75,-190.17 2662.75,-178.17 2662.75,-178.17 2662.75,-172.17 2668.75,-166.17 2674.75,-166.17 2674.75,-166.17 3068.8,-166.17 3068.8,-166.17 3074.8,-166.17 3080.8,-172.17 3080.8,-178.17 3080.8,-178.17 3080.8,-190.17 3080.8,-190.17 3080.8,-196.17 3074.8,-202.17 3068.8,-202.17"/>
<text text-anchor="start" x="2677.15" y="-180.5" font-family="Roboto, sans-serif" font-weight="bold" font-size="14.00">12: </text>
<text text-anchor="start" x="2706.4" y="-180.5" font-family="Roboto, sans-serif" font-size="14.00">Ist ein zuvor nicht spezifizierter Fehler aufgetreten?</text>
</g>
<!-- 8&#45;&gt;12 -->
<g id="edge17" class="edge">
<title>8-&gt;12</title>
<path fill="none" stroke="#88a0d6" d="M1862.2,-302.1C1908.3,-294.99 1960.24,-287.31 2007.78,-281.06 2242.41,-250.19 2513.77,-221.16 2688.83,-203.3"/>
<polygon fill="#88a0d6" stroke="#88a0d6" points="2689.12,-206.79 2698.71,-202.29 2688.41,-199.82 2689.12,-206.79"/>
<text text-anchor="start" x="2291.78" y="-250.76" font-family="Roboto, sans-serif" font-weight="bold" font-size="14.00">NEIN</text>
</g>
<!-- A07 -->
<g id="node17" class="node">
<title>A07</title>
<path fill="#c4cac1" stroke="black" stroke-width="0" d="M2462.93,-677.4C2462.93,-677.4 1892.62,-677.4 1892.62,-677.4 1886.62,-677.4 1880.62,-671.4 1880.62,-665.4 1880.62,-665.4 1880.62,-602.12 1880.62,-602.12 1880.62,-596.12 1886.62,-590.12 1892.62,-590.12 1892.62,-590.12 2462.93,-590.12 2462.93,-590.12 2468.93,-590.12 2474.93,-596.12 2474.93,-602.12 2474.93,-602.12 2474.93,-665.4 2474.93,-665.4 2474.93,-671.4 2468.93,-677.4 2462.93,-677.4"/>
<text text-anchor="start" x="1895.03" y="-656.46" font-family="Roboto, sans-serif" font-weight="bold" font-size="14.00">A07</text>
<text text-anchor="start" x="1895.03" y="-628.46" font-family="Roboto, sans-serif" font-size="14.00">Cluster: Ablehnung</text>
<text text-anchor="start" x="1895.03" y="-614.46" font-family="Roboto, sans-serif" font-size="14.00">Lieferende und Bilanzierungsende m&#252;ssen bei Lieferende von NB an LF aufgrund</text>
<text text-anchor="start" x="1895.03" y="-600.46" font-family="Roboto, sans-serif" font-size="14.00">entfallender oder fehlender Zuordnungserm&#228;chtigung synchron sein.</text>
</g>
<!-- 9&#45;&gt;A07 -->
<g id="edge18" class="edge">
<title>9-&gt;A07</title>
<path fill="none" stroke="#88a0d6" d="M2177.78,-730.99C2177.78,-719.64 2177.78,-703.92 2177.78,-688.48"/>
<polygon fill="#88a0d6" stroke="#88a0d6" points="2181.28,-688.86 2177.78,-678.86 2174.28,-688.86 2181.28,-688.86"/>
<text text-anchor="start" x="2177.78" y="-700.35" font-family="Roboto, sans-serif" font-weight="bold" font-size="14.00">NEIN</text>
</g>
<!-- 10 -->
<g id="node18" class="node">
<title>10</title>
<path fill="#c2cee9" stroke="black" stroke-width="0" d="M3059.05,-651.76C3059.05,-651.76 2504.5,-651.76 2504.5,-651.76 2498.5,-651.76 2492.5,-645.76 2492.5,-639.76 2492.5,-639.76 2492.5,-627.76 2492.5,-627.76 2492.5,-621.76 2498.5,-615.76 2504.5,-615.76 2504.5,-615.76 3059.05,-615.76 3059.05,-615.76 3065.05,-615.76 3071.05,-621.76 3071.05,-627.76 3071.05,-627.76 3071.05,-639.76 3071.05,-639.76 3071.05,-645.76 3065.05,-651.76 3059.05,-651.76"/>
<text text-anchor="start" x="2506.9" y="-630.09" font-family="Roboto, sans-serif" font-weight="bold" font-size="14.00">10: </text>
<text text-anchor="start" x="2536.15" y="-630.09" font-family="Roboto, sans-serif" font-size="14.00">Liegt das &#252;bermittelte Datum &#8222;Lieferende&#8220; nach dem Nachrichteneingang?</text>
</g>
<!-- 9&#45;&gt;10 -->
<g id="edge19" class="edge">
<title>9-&gt;10</title>
<path fill="none" stroke="#88a0d6" d="M2268.53,-730.69C2378.8,-710.08 2564.36,-675.4 2679.57,-653.86"/>
<polygon fill="#88a0d6" stroke="#88a0d6" points="2680.16,-657.31 2689.35,-652.03 2678.88,-650.43 2680.16,-657.31"/>
<text text-anchor="start" x="2442.78" y="-700.35" font-family="Roboto, sans-serif" font-weight="bold" font-size="14.00">JA</text>
</g>
<!-- A08 -->
<g id="node19" class="node">
<title>A08</title>
<path fill="#c4cac1" stroke="black" stroke-width="0" d="M3083.3,-536.87C3083.3,-536.87 2446.25,-536.87 2446.25,-536.87 2440.25,-536.87 2434.25,-530.87 2434.25,-524.87 2434.25,-524.87 2434.25,-433.59 2434.25,-433.59 2434.25,-427.59 2440.25,-421.59 2446.25,-421.59 2446.25,-421.59 3083.3,-421.59 3083.3,-421.59 3089.3,-421.59 3095.3,-427.59 3095.3,-433.59 3095.3,-433.59 3095.3,-524.87 3095.3,-524.87 3095.3,-530.87 3089.3,-536.87 3083.3,-536.87"/>
<text text-anchor="start" x="2448.65" y="-515.93" font-family="Roboto, sans-serif" font-weight="bold" font-size="14.00">A08</text>
<text text-anchor="start" x="2448.65" y="-487.93" font-family="Roboto, sans-serif" font-size="14.00">Cluster: Ablehnung</text>
<text text-anchor="start" x="2448.65" y="-473.93" font-family="Roboto, sans-serif" font-size="14.00">Lieferende bei Transaktionsgrund &#8222;Abmeldung wegen fehl. Zuordnungserm&#228;chtigung&#8220;</text>
<text text-anchor="start" x="2448.65" y="-459.93" font-family="Roboto, sans-serif" font-size="14.00">oder</text>
<text text-anchor="start" x="2448.65" y="-445.93" font-family="Roboto, sans-serif" font-size="14.00">&#8222;Abmeldung wegen fehl. Zuordnungserm&#228;chtigung aufgrund &#196;nderung ZRT&#8220; muss immer</text>
<text text-anchor="start" x="2448.65" y="-431.93" font-family="Roboto, sans-serif" font-size="14.00">in der Zukunft sein.</text>
</g>
<!-- 10&#45;&gt;A08 -->
<g id="edge20" class="edge">
<title>10-&gt;A08</title>
<path fill="none" stroke="#88a0d6" d="M2779.89,-615.85C2778.05,-599.31 2775.12,-573 2772.32,-547.95"/>
<polygon fill="#88a0d6" stroke="#88a0d6" points="2775.81,-547.62 2771.22,-538.07 2768.85,-548.39 2775.81,-547.62"/>
<text text-anchor="start" x="2774.78" y="-559.82" font-family="Roboto, sans-serif" font-weight="bold" font-size="14.00">NEIN</text>
</g>
<!-- 11 -->
<g id="node20" class="node">
<title>11</title>
<path fill="#c2cee9" stroke="black" stroke-width="0" d="M3784.55,-497.23C3784.55,-497.23 3125,-497.23 3125,-497.23 3119,-497.23 3113,-491.23 3113,-485.23 3113,-485.23 3113,-473.23 3113,-473.23 3113,-467.23 3119,-461.23 3125,-461.23 3125,-461.23 3784.55,-461.23 3784.55,-461.23 3790.55,-461.23 3796.55,-467.23 3796.55,-473.23 3796.55,-473.23 3796.55,-485.23 3796.55,-485.23 3796.55,-491.23 3790.55,-497.23 3784.55,-497.23"/>
<text text-anchor="start" x="3127.4" y="-475.55" font-family="Roboto, sans-serif" font-weight="bold" font-size="14.00">11: </text>
<text text-anchor="start" x="3156.65" y="-475.55" font-family="Roboto, sans-serif" font-size="14.00">Ist das angegebene Datum &#8222;Lieferende&#8220; der n&#228;chste 1.&#160;eines Kalendermonats 00:00 Uhr?</text>
</g>
<!-- 10&#45;&gt;11 -->
<g id="edge21" class="edge">
<title>10-&gt;11</title>
<path fill="none" stroke="#88a0d6" d="M2856.69,-615.78C2982.66,-587.23 3236.12,-529.79 3369.02,-499.67"/>
<polygon fill="#88a0d6" stroke="#88a0d6" points="3369.48,-503.15 3378.46,-497.53 3367.93,-496.32 3369.48,-503.15"/>
<text text-anchor="start" x="3117.78" y="-559.82" font-family="Roboto, sans-serif" font-weight="bold" font-size="14.00">JA</text>
</g>
<!-- A09 -->
<g id="node21" class="node">
<title>A09</title>
<path fill="#c4cac1" stroke="black" stroke-width="0" d="M3406.93,-368.34C3406.93,-368.34 2794.62,-368.34 2794.62,-368.34 2788.62,-368.34 2782.62,-362.34 2782.62,-356.34 2782.62,-356.34 2782.62,-293.06 2782.62,-293.06 2782.62,-287.06 2788.62,-281.06 2794.62,-281.06 2794.62,-281.06 3406.93,-281.06 3406.93,-281.06 3412.93,-281.06 3418.93,-287.06 3418.93,-293.06 3418.93,-293.06 3418.93,-356.34 3418.93,-356.34 3418.93,-362.34 3412.93,-368.34 3406.93,-368.34"/>
<text text-anchor="start" x="2797.03" y="-347.4" font-family="Roboto, sans-serif" font-weight="bold" font-size="14.00">A09</text>
<text text-anchor="start" x="2797.03" y="-319.4" font-family="Roboto, sans-serif" font-size="14.00">Cluster: Ablehnung</text>
<text text-anchor="start" x="2797.03" y="-305.4" font-family="Roboto, sans-serif" font-size="14.00">Das Lieferende bei Abmeldung wegen fehl. Zuordnungserm&#228;chtigung muss auf dem 1.</text>
<text text-anchor="start" x="2797.03" y="-291.4" font-family="Roboto, sans-serif" font-size="14.00">eines Kalendermonats liegen.</text>
</g>
<!-- 11&#45;&gt;A09 -->
<g id="edge22" class="edge">
<title>11-&gt;A09</title>
<path fill="none" stroke="#88a0d6" d="M3415.54,-461.32C3366.21,-440.07 3279.52,-402.72 3209.59,-372.59"/>
<polygon fill="#88a0d6" stroke="#88a0d6" points="3211.36,-369.54 3200.79,-368.8 3208.59,-375.97 3211.36,-369.54"/>
<text text-anchor="start" x="3277.78" y="-391.29" font-family="Roboto, sans-serif" font-weight="bold" font-size="14.00">NEIN</text>
</g>
<!-- 11&#45;&gt;12 -->
<g id="edge23" class="edge">
<title>11-&gt;12</title>
<path fill="none" stroke="#88a0d6" d="M3458.3,-461.47C3465.2,-423.61 3475.9,-330.89 3427.78,-281.06 3381.36,-233.01 3226.53,-208.94 3092.01,-196.94"/>
<polygon fill="#88a0d6" stroke="#88a0d6" points="3092.49,-193.46 3082.23,-196.08 3091.89,-200.44 3092.49,-193.46"/>
<text text-anchor="start" x="3462.78" y="-321.02" font-family="Roboto, sans-serif" font-weight="bold" font-size="14.00">JA</text>
</g>
<!-- A10 -->
<g id="node23" class="node">
<title>A10</title>
<path fill="#c4cac1" stroke="black" stroke-width="0" d="M2759.93,-80.28C2759.93,-80.28 2561.62,-80.28 2561.62,-80.28 2555.62,-80.28 2549.62,-74.28 2549.62,-68.28 2549.62,-68.28 2549.62,-19 2549.62,-19 2549.62,-13 2555.62,-7 2561.62,-7 2561.62,-7 2759.93,-7 2759.93,-7 2765.93,-7 2771.93,-13 2771.93,-19 2771.93,-19 2771.93,-68.28 2771.93,-68.28 2771.93,-74.28 2765.93,-80.28 2759.93,-80.28"/>
<text text-anchor="start" x="2564.03" y="-59.34" font-family="Roboto, sans-serif" font-weight="bold" font-size="14.00">A10</text>
<text text-anchor="start" x="2564.03" y="-31.34" font-family="Roboto, sans-serif" font-size="14.00">Cluster: Zustimmung</text>
<text text-anchor="start" x="2564.03" y="-17.34" font-family="Roboto, sans-serif" font-size="14.00">Lieferende wird zugestimmt</text>
</g>
<!-- 12&#45;&gt;A10 -->
<g id="edge24" class="edge">
<title>12-&gt;A10</title>
<path fill="none" stroke="#88a0d6" d="M2845.9,-166.18C2815.85,-146.45 2765.18,-113.19 2724.45,-86.44"/>
<polygon fill="#88a0d6" stroke="#88a0d6" points="2726.4,-83.54 2716.12,-80.98 2722.56,-89.39 2726.4,-83.54"/>
<text text-anchor="start" x="2778.78" y="-110.23" font-family="Roboto, sans-serif" font-weight="bold" font-size="14.00">NEIN</text>
</g>
<!-- A99 -->
<g id="node24" class="node">
<title>A99</title>
<path fill="#c4cac1" stroke="black" stroke-width="0" d="M3362.05,-87.28C3362.05,-87.28 2801.5,-87.28 2801.5,-87.28 2795.5,-87.28 2789.5,-81.28 2789.5,-75.28 2789.5,-75.28 2789.5,-12 2789.5,-12 2789.5,-6 2795.5,0 2801.5,0 2801.5,0 3362.05,0 3362.05,0 3368.05,0 3374.05,-6 3374.05,-12 3374.05,-12 3374.05,-75.28 3374.05,-75.28 3374.05,-81.28 3368.05,-87.28 3362.05,-87.28"/>
<text text-anchor="start" x="2803.9" y="-66.34" font-family="Roboto, sans-serif" font-weight="bold" font-size="14.00">A99</text>
<text text-anchor="start" x="2803.9" y="-38.34" font-family="Roboto, sans-serif" font-size="14.00">Cluster: Ablehnung Sonstiges</text>
<text text-anchor="start" x="2803.9" y="-24.34" font-family="Roboto, sans-serif" font-size="14.00">Hinweis: Das identifizierte Problem ist in der Antwort zu beschreiben/benennen.</text>
<text text-anchor="start" x="2803.9" y="-10.34" font-family="Roboto, sans-serif" font-size="14.00">Nutzungsm&#246;glichkeit Ende: 03.04.2024 00:00 Uhr</text>
</g>
<!-- 12&#45;&gt;A99 -->
<g id="edge25" class="edge">
<title>12-&gt;A99</title>
<path fill="none" stroke="#88a0d6" d="M2897.53,-166.18C2925,-148.06 2969.79,-118.51 3008.33,-93.09"/>
<polygon fill="#88a0d6" stroke="#88a0d6" points="3009.78,-96.32 3016.2,-87.9 3005.93,-90.48 3009.78,-96.32"/>
<text text-anchor="start" x="2988.78" y="-110.23" font-family="Roboto, sans-serif" font-weight="bold" font-size="14.00">JA</text>
</g>
</g>
</svg>
  </g>
</svg>
  </g>
</svg>
