<?xml version='1.0' encoding='ASCII' standalone='yes'?>
<svg xmlns="http://www.w3.org/2000/svg" xmlns:xlink="http://www.w3.org/1999/xlink" version="1.1" width="3148.0px" viewBox="0 0 3148.0 1090.6666666666667" height="1090.6666666666667px">
  <g>
    <svg version="1.1" width="3148.0px" viewBox="0 0 3148.0 1090.6666666666667" height="1090.6666666666667px">
  <polygon fill="#f3f1f6" points="0,0 3148.0,0 3148.0,1090.6666666666667 0,1090.6666666666667"/><g>
    <g transform="translate(1138.0569409094235, 109.06666666666665) scale(1 1) translate(0, 0) scale(4.932666353023258 4.932666353023258) "><sodipodi:namedview xmlns:sodipodi="http://sodipodi.sourceforge.net/DTD/sodipodi-0.dtd" xmlns:inkscape="http://www.inkscape.org/namespaces/inkscape" id="namedview7" pagecolor="#ffffff" bordercolor="#999999" borderopacity="1" inkscape:pageshadow="0" inkscape:pageopacity="0" inkscape:pagecheckerboard="0" inkscape:document-units="mm" showgrid="false" fit-margin-top="0" fit-margin-left="0" fit-margin-right="0" fit-margin-bottom="0" inkscape:zoom="0.64052329" inkscape:cx="130.36216" inkscape:cy="412.163" inkscape:window-width="1512" inkscape:window-height="916" inkscape:window-x="3840" inkscape:window-y="136" inkscape:window-maximized="0" inkscape:current-layer="layer1"/>
  <defs id="defs2">
    <clipPath clipPathUnits="userSpaceOnUse" id="clipPath23">
      <path d="M 0,568.156 H 579.236 V 0 H 0 Z" id="path21"/>
    </clipPath>
  </defs>
  <g xmlns:inkscape="http://www.inkscape.org/namespaces/inkscape" inkscape:label="Layer 1" inkscape:groupmode="layer" id="layer1" transform="translate(-16.541937,-55.305267)">
    <g id="g19" clip-path="url(#clipPath23)" transform="matrix(0.35277777,0,0,-0.35277777,0.01017023,243.73675)" style="opacity:0.2">
      <g id="g25" transform="translate(122.444,32.7195)">
        <path d="m 0,0 h -56.104 c -11,0 -19.898,9.123 -19.463,20.115 10.594,267.191 231.277,481.302 501.029,481.302 v -56.02 c 0,-10.98 -8.688,-19.892 -19.658,-20.393 C 180.29,414.697 0,228.005 0,0" style="fill:#6ead83;fill-opacity:1;fill-rule:nonzero;stroke:none" id="path27"/>
      </g>
      <g id="g29" transform="translate(273.7828,32.7195)">
        <path d="m 0,0 h -55.926 c -11.228,0 -20.091,9.482 -19.435,20.69 10.744,183.439 163.389,329.388 349.485,329.388 v -56.263 c 0,-10.709 -8.273,-19.617 -18.957,-20.35 C 112.819,263.696 0,144.774 0,0" style="fill:#6ead83;fill-opacity:1;fill-rule:nonzero;stroke:none" id="path31"/>
      </g>
      <g id="g33" transform="translate(425.7667,32.7195)">
        <path d="m 0,0 h -55.445 c -11.653,0 -20.604,10.17 -19.334,21.753 10.866,99.032 95.031,176.341 196.919,176.341 v -57.011 c 0,-10.046 -7.283,-18.755 -17.229,-20.165 C 45.688,112.522 0,61.497 0,0" style="fill:#6ead83;fill-opacity:1;fill-rule:nonzero;stroke:none" id="path35"/>
      </g>
    </g>
  </g>
</g>
    <svg width="2361pt" height="818pt" viewBox="0.00 0.00 2361.14 817.88">
<g id="graph0" class="graph" transform="scale(1 1) rotate(0) translate(4 813.88)">
<title>D</title>
<text text-anchor="start" x="1153.07" y="-789.78" font-family="Times,serif" font-weight="bold" font-size="18.00">MPES</text>
<text text-anchor="start" x="1058.07" y="-759.68" font-family="Times,serif" font-weight="bold" font-size="16.00">8.3.1: AD: Lieferende von LF an NB</text>
<!-- Start -->
<g id="node1" class="node">
<title>Start</title>
<polygon fill="#7a8da1" stroke="black" points="338.3,-711.88 215.5,-711.88 215.5,-668.6 338.3,-668.6 338.3,-711.88"/>
<text text-anchor="start" x="255.4" y="-690.94" font-family="Times,serif" font-weight="bold" font-size="14.00">E_0306</text>
<text text-anchor="start" x="229.9" y="-678.84" font-family="Times,serif" font-weight="bold" text-decoration="underline" font-size="12.00">Pr&#252;fende Rolle:</text>
<text text-anchor="start" x="304.9" y="-678.84" font-family="Times,serif" font-weight="bold" font-size="12.00"> NB</text>
</g>
<!-- 1 -->
<g id="node2" class="node">
<title>1</title>
<path fill="#7aab8a" stroke="black" d="M541.8,-631.6C541.8,-631.6 12,-631.6 12,-631.6 6,-631.6 0,-625.6 0,-619.6 0,-619.6 0,-607.6 0,-607.6 0,-601.6 6,-595.6 12,-595.6 12,-595.6 541.8,-595.6 541.8,-595.6 547.8,-595.6 553.8,-601.6 553.8,-607.6 553.8,-607.6 553.8,-619.6 553.8,-619.6 553.8,-625.6 547.8,-631.6 541.8,-631.6"/>
<text text-anchor="start" x="14.4" y="-609.7" font-family="Times,serif" font-weight="bold" font-size="14.00">1: </text>
<text text-anchor="start" x="27.4" y="-609.7" font-family="Times,serif" font-size="14.00">Liegt das Abmeldedatum mindestens einen Tag nach dem Eingangsdatum der Abmeldung?</text>
</g>
<!-- Start&#45;&gt;1 -->
<g id="edge1" class="edge">
<title>Start-&gt;1</title>
<path fill="none" stroke="black" d="M276.9,-668.45C276.9,-660.41 276.9,-651.09 276.9,-642.49"/>
<polygon fill="black" stroke="black" points="280.4,-642.76 276.9,-632.76 273.4,-642.76 280.4,-642.76"/>
</g>
<!-- A01 -->
<g id="node3" class="node">
<title>A01</title>
<polygon fill="#cfb986" stroke="black" points="503.14,-542.8 0.66,-542.8 0.66,-481.28 503.14,-481.28 503.14,-542.8"/>
<text text-anchor="start" x="239.9" y="-524.74" font-family="Times,serif" font-weight="bold" font-size="14.00">A01</text>
<text text-anchor="start" x="12.9" y="-512.64" font-family="Times,serif" text-decoration="underline" font-size="12.00">Hinweis:</text>
<text text-anchor="start" x="12.9" y="-500.64" font-family="Times,serif" font-size="12.00">Cluster: Ablehnung</text>
<text text-anchor="start" x="12.9" y="-488.64" font-family="Times,serif" font-size="12.00">Frist&#252;berschreitung bei Aufhebung einer zu-k&#252;nftigen Zuordnung wegen Auszug oder Still-legung.</text>
</g>
<!-- 1&#45;&gt;A01 -->
<g id="edge2" class="edge">
<title>1-&gt;A01</title>
<path fill="none" stroke="black" d="M272.55,-595.26C269.64,-583.69 265.7,-567.99 262.04,-553.4"/>
<polygon fill="black" stroke="black" points="265.27,-552.9 259.44,-544.05 258.48,-554.61 265.27,-552.9"/>
<text text-anchor="middle" x="282.4" y="-564.3" font-family="Times,serif" font-size="14.00">Nein</text>
</g>
<!-- 2 -->
<g id="node4" class="node">
<title>2</title>
<path fill="#7aab8a" stroke="black" d="M1234.3,-530.04C1234.3,-530.04 533.5,-530.04 533.5,-530.04 527.5,-530.04 521.5,-524.04 521.5,-518.04 521.5,-518.04 521.5,-506.04 521.5,-506.04 521.5,-500.04 527.5,-494.04 533.5,-494.04 533.5,-494.04 1234.3,-494.04 1234.3,-494.04 1240.3,-494.04 1246.3,-500.04 1246.3,-506.04 1246.3,-506.04 1246.3,-518.04 1246.3,-518.04 1246.3,-524.04 1240.3,-530.04 1234.3,-530.04"/>
<text text-anchor="start" x="535.9" y="-508.14" font-family="Times,serif" font-weight="bold" font-size="14.00">2: </text>
<text text-anchor="start" x="549.9" y="-508.14" font-family="Times,serif" font-size="14.00">Liegt das Eingangsdatum der Abmeldung mindestens 1 Monat vor dem Monatsletzten des gew&#252;nschten Abmeldedatums?</text>
</g>
<!-- 1&#45;&gt;2 -->
<g id="edge3" class="edge">
<title>1-&gt;2</title>
<path fill="none" stroke="black" d="M383.33,-595.14C490.62,-577.55 655.82,-550.45 766.78,-532.25"/>
<polygon fill="black" stroke="black" points="767.04,-535.59 776.34,-530.52 765.91,-528.68 767.04,-535.59"/>
<text text-anchor="middle" x="586.4" y="-564.3" font-family="Times,serif" font-size="14.00">Ja</text>
</g>
<!-- A02 -->
<g id="node5" class="node">
<title>A02</title>
<polygon fill="#cfb986" stroke="black" points="912.64,-428.48 497.16,-428.48 497.16,-354.96 912.64,-354.96 912.64,-428.48"/>
<text text-anchor="start" x="692.9" y="-410.42" font-family="Times,serif" font-weight="bold" font-size="14.00">A02</text>
<text text-anchor="start" x="509.4" y="-398.32" font-family="Times,serif" text-decoration="underline" font-size="12.00">Hinweis:</text>
<text text-anchor="start" x="509.4" y="-386.32" font-family="Times,serif" font-size="12.00">Cluster: Ablehnung</text>
<text text-anchor="start" x="509.4" y="-374.32" font-family="Times,serif" font-size="12.00">Frist&#252;berschreitung bei Transaktionsgr&#252;nden f&#252;r eine Abmeldung in der Zukunft.</text>
<text text-anchor="start" x="509.4" y="-362.32" font-family="Times,serif" font-size="12.00">Hinweis: Abmeldedatum kann ausschlie&#223;lich ein Monatsletzter sein.</text>
</g>
<!-- 2&#45;&gt;A02 -->
<g id="edge4" class="edge">
<title>2-&gt;A02</title>
<path fill="none" stroke="black" d="M857.49,-493.58C834.12,-478.14 799.08,-454.97 768.47,-434.74"/>
<polygon fill="black" stroke="black" points="770.82,-431.44 760.55,-428.84 766.96,-437.28 770.82,-431.44"/>
<text text-anchor="middle" x="824.4" y="-449.98" font-family="Times,serif" font-size="14.00">Nein</text>
</g>
<!-- 3 -->
<g id="node6" class="node">
<title>3</title>
<path fill="#7aab8a" stroke="black" d="M1794.8,-409.72C1794.8,-409.72 943,-409.72 943,-409.72 937,-409.72 931,-403.72 931,-397.72 931,-397.72 931,-385.72 931,-385.72 931,-379.72 937,-373.72 943,-373.72 943,-373.72 1794.8,-373.72 1794.8,-373.72 1800.8,-373.72 1806.8,-379.72 1806.8,-385.72 1806.8,-385.72 1806.8,-397.72 1806.8,-397.72 1806.8,-403.72 1800.8,-409.72 1794.8,-409.72"/>
<text text-anchor="start" x="945.4" y="-387.82" font-family="Times,serif" font-weight="bold" font-size="14.00">3: </text>
<text text-anchor="start" x="959.4" y="-387.82" font-family="Times,serif" font-size="14.00">Erfolgt die Aufhebung einer zuk&#252;nftigen Zuordnung zu dem gleichen Datum (Zeitpunkt), welcher dem Lieferanten im Lieferbeginn best&#228;tigt wurde?</text>
</g>
<!-- 2&#45;&gt;3 -->
<g id="edge5" class="edge">
<title>2-&gt;3</title>
<path fill="none" stroke="black" d="M955.46,-493.58C1043.88,-472.01 1194,-435.39 1286.95,-412.71"/>
<polygon fill="black" stroke="black" points="1287.55,-415.92 1296.44,-410.15 1285.89,-409.12 1287.55,-415.92"/>
<text text-anchor="middle" x="1147.4" y="-449.98" font-family="Times,serif" font-size="14.00">Ja</text>
</g>
<!-- A03 -->
<g id="node7" class="node">
<title>A03</title>
<polygon fill="#cfb986" stroke="black" points="1552.64,-302.16 921.16,-302.16 921.16,-240.64 1552.64,-240.64 1552.64,-302.16"/>
<text text-anchor="start" x="1224.9" y="-284.1" font-family="Times,serif" font-weight="bold" font-size="14.00">A03</text>
<text text-anchor="start" x="933.4" y="-272" font-family="Times,serif" text-decoration="underline" font-size="12.00">Hinweis:</text>
<text text-anchor="start" x="933.4" y="-260" font-family="Times,serif" font-size="12.00">Cluster: Ablehnung</text>
<text text-anchor="start" x="933.4" y="-248" font-family="Times,serif" font-size="12.00">Die Aufhebung einer zuk&#252;nftigen Zuordnung muss zum Datum (Zeitpunkt) angegeben werden, wie im Lieferbeginn best&#228;tigt.</text>
</g>
<!-- 3&#45;&gt;A03 -->
<g id="edge6" class="edge">
<title>3-&gt;A03</title>
<path fill="none" stroke="black" d="M1349.42,-373.26C1330.88,-356.64 1302.38,-331.09 1278.7,-309.87"/>
<polygon fill="black" stroke="black" points="1281.33,-307.63 1271.55,-303.56 1276.66,-312.84 1281.33,-307.63"/>
<text text-anchor="middle" x="1320.4" y="-323.66" font-family="Times,serif" font-size="14.00">Nein</text>
</g>
<!-- 4 -->
<g id="node8" class="node">
<title>4</title>
<path fill="#7aab8a" stroke="black" d="M1853.3,-289.4C1853.3,-289.4 1582.5,-289.4 1582.5,-289.4 1576.5,-289.4 1570.5,-283.4 1570.5,-277.4 1570.5,-277.4 1570.5,-265.4 1570.5,-265.4 1570.5,-259.4 1576.5,-253.4 1582.5,-253.4 1582.5,-253.4 1853.3,-253.4 1853.3,-253.4 1859.3,-253.4 1865.3,-259.4 1865.3,-265.4 1865.3,-265.4 1865.3,-277.4 1865.3,-277.4 1865.3,-283.4 1859.3,-289.4 1853.3,-289.4"/>
<text text-anchor="start" x="1584.9" y="-267.5" font-family="Times,serif" font-weight="bold" font-size="14.00">4: </text>
<text text-anchor="start" x="1598.9" y="-267.5" font-family="Times,serif" font-size="14.00">Liegt bereits eine best&#228;tigte Abmeldung vor?</text>
</g>
<!-- 3&#45;&gt;4 -->
<g id="edge7" class="edge">
<title>3-&gt;4</title>
<path fill="none" stroke="black" d="M1420.4,-373.26C1483.25,-351.95 1589.42,-315.96 1656.47,-293.23"/>
<polygon fill="black" stroke="black" points="1657.13,-296.36 1665.48,-289.83 1654.88,-289.73 1657.13,-296.36"/>
<text text-anchor="middle" x="1580.4" y="-323.66" font-family="Times,serif" font-size="14.00">Ja</text>
</g>
<!-- A04 -->
<g id="node9" class="node">
<title>A04</title>
<polygon fill="#cfb986" stroke="black" points="1810.64,-187.84 1419.16,-187.84 1419.16,-126.32 1810.64,-126.32 1810.64,-187.84"/>
<text text-anchor="start" x="1602.9" y="-169.78" font-family="Times,serif" font-weight="bold" font-size="14.00">A04</text>
<text text-anchor="start" x="1431.4" y="-157.68" font-family="Times,serif" text-decoration="underline" font-size="12.00">Hinweis:</text>
<text text-anchor="start" x="1431.4" y="-145.68" font-family="Times,serif" font-size="12.00">Cluster: Ablehnung </text>
<text text-anchor="start" x="1431.4" y="-133.68" font-family="Times,serif" font-size="12.00">Lieferende zum Abmeldedatum wurde aus gleichem Grund bereits best&#228;tigt.</text>
</g>
<!-- 4&#45;&gt;A04 -->
<g id="edge8" class="edge">
<title>4-&gt;A04</title>
<path fill="none" stroke="black" d="M1702.26,-253.34C1688.37,-238.2 1667.58,-215.53 1649.76,-196.1"/>
<polygon fill="black" stroke="black" points="1652.68,-194.01 1643.34,-189 1647.52,-198.74 1652.68,-194.01"/>
<text text-anchor="middle" x="1678.4" y="-209.34" font-family="Times,serif" font-size="14.00">Ja</text>
</g>
<!-- 5 -->
<g id="node10" class="node">
<title>5</title>
<path fill="#7aab8a" stroke="black" d="M2148.8,-175.08C2148.8,-175.08 1841,-175.08 1841,-175.08 1835,-175.08 1829,-169.08 1829,-163.08 1829,-163.08 1829,-151.08 1829,-151.08 1829,-145.08 1835,-139.08 1841,-139.08 1841,-139.08 2148.8,-139.08 2148.8,-139.08 2154.8,-139.08 2160.8,-145.08 2160.8,-151.08 2160.8,-151.08 2160.8,-163.08 2160.8,-163.08 2160.8,-169.08 2154.8,-175.08 2148.8,-175.08"/>
<text text-anchor="start" x="1843.4" y="-153.18" font-family="Times,serif" font-weight="bold" font-size="14.00">5: </text>
<text text-anchor="start" x="1857.4" y="-153.18" font-family="Times,serif" font-size="14.00">Ist ein zuvor nicht spezifizierter Fehler aufgetreten?</text>
</g>
<!-- 4&#45;&gt;5 -->
<g id="edge9" class="edge">
<title>4-&gt;5</title>
<path fill="none" stroke="black" d="M1760.88,-252.97C1809.6,-233.22 1889.07,-200.99 1941.68,-179.66"/>
<polygon fill="black" stroke="black" points="1942.87,-182.55 1950.82,-175.55 1940.24,-176.06 1942.87,-182.55"/>
<text text-anchor="middle" x="1887.4" y="-209.34" font-family="Times,serif" font-size="14.00">Nein</text>
</g>
<!-- A05 -->
<g id="node11" class="node">
<title>A05</title>
<polygon fill="#cfb986" stroke="black" points="1923.14,-67.52 1762.66,-67.52 1762.66,-6 1923.14,-6 1923.14,-67.52"/>
<text text-anchor="start" x="1830.9" y="-49.46" font-family="Times,serif" font-weight="bold" font-size="14.00">A05</text>
<text text-anchor="start" x="1774.9" y="-37.36" font-family="Times,serif" text-decoration="underline" font-size="12.00">Hinweis:</text>
<text text-anchor="start" x="1774.9" y="-25.36" font-family="Times,serif" font-size="12.00">Cluster: Zustimmung</text>
<text text-anchor="start" x="1774.9" y="-13.36" font-family="Times,serif" font-size="12.00">Lieferende wird zugestimmt</text>
</g>
<!-- 5&#45;&gt;A05 -->
<g id="edge10" class="edge">
<title>5-&gt;A05</title>
<path fill="none" stroke="black" d="M1972.47,-138.62C1950.94,-121.86 1917.73,-96.01 1890.32,-74.67"/>
<polygon fill="black" stroke="black" points="1892.69,-71.3 1882.65,-67.92 1888.39,-76.83 1892.69,-71.3"/>
<text text-anchor="middle" x="1946.4" y="-95.02" font-family="Times,serif" font-size="14.00">Nein</text>
</g>
<!-- A99 -->
<g id="node12" class="node">
<title>A99</title>
<polygon fill="#cfb986" stroke="black" points="2353.14,-73.52 1940.66,-73.52 1940.66,0 2353.14,0 2353.14,-73.52"/>
<text text-anchor="start" x="2134.9" y="-55.46" font-family="Times,serif" font-weight="bold" font-size="14.00">A99</text>
<text text-anchor="start" x="1952.9" y="-43.36" font-family="Times,serif" text-decoration="underline" font-size="12.00">Hinweis:</text>
<text text-anchor="start" x="1952.9" y="-31.36" font-family="Times,serif" font-size="12.00">Cluster: Ablehnung Sonstiges </text>
<text text-anchor="start" x="1952.9" y="-19.36" font-family="Times,serif" font-size="12.00">Hinweis: Das identifizierte Problem ist in der Antwort zu beschreiben/benennen.</text>
<text text-anchor="start" x="1952.9" y="-7.36" font-family="Times,serif" font-size="12.00">Nutzungsm&#246;glichkeit Ende: 01.10.2024 00:00 Uhr</text>
</g>
<!-- 5&#45;&gt;A99 -->
<g id="edge11" class="edge">
<title>5-&gt;A99</title>
<path fill="none" stroke="black" d="M2017.33,-138.62C2036.92,-123.37 2066.16,-100.61 2091.91,-80.56"/>
<polygon fill="black" stroke="black" points="2093.75,-82.79 2099.49,-73.88 2089.45,-77.26 2093.75,-82.79"/>
<text text-anchor="middle" x="2081.4" y="-95.02" font-family="Times,serif" font-size="14.00">Ja</text>
</g>
</g>
</svg>
  </g>
</svg>
  </g>
</svg>
