<?xml version='1.0' encoding='ASCII' standalone='yes'?>
<svg xmlns="http://www.w3.org/2000/svg" xmlns:xlink="http://www.w3.org/1999/xlink" version="1.1" width="1850.6666666666667px" viewBox="0 0 1850.6666666666667 1330.6666666666667" height="1330.6666666666667px">
  <g>
    <svg version="1.1" width="1850.6666666666667px" viewBox="0 0 1850.6666666666667 1330.6666666666667" height="1330.6666666666667px">
  <rect fill="#e7e6e5" x="0" y="0" width="1850.6666666666667" height="1330.6666666666667" rx="20" ry="20"/><g>
    <g transform="translate(382.68664226039607, 133.06666666666663) scale(1 1) translate(0, 0) scale(1.8736506148502774 1.8736506148502774) "><defs>
    <style>.cls-1{fill:#ffffff88;}</style>
    <!--
    ffffff88 is white with 50% transparency; this matches the colour of the tesa strip on
    ebd.hochfrequenz.de where it crosses the diagram SVG:
    https://github.com/Hochfrequenz/entscheidungsbaumdiagramme/blob/01bd43fa0f1d0333fa93596bc8b9fd1e4b285c8c/src/lib/components/features/svg-container.svelte#L54
    -->
  </defs>
  <path class="cls-1" d="M122.44,531.2h-56.1c-11,0-19.9-9.12-19.46-20.11C57.47,243.89,278.15,29.78,547.91,29.78v56.02c0,10.98-8.69,19.89-19.66,20.39-225.51,10.31-405.8,197-405.8,425Z"/>
  <path class="cls-1" d="M273.78,531.2h-55.93c-11.23,0-20.09-9.48-19.43-20.69,10.74-183.44,163.39-329.39,349.48-329.39v56.26c0,10.71-8.27,19.62-18.96,20.35-142.35,9.77-255.17,128.69-255.17,273.46Z"/>
  <path class="cls-1" d="M425.77,531.2h-55.45c-11.65,0-20.6-10.17-19.33-21.75,10.87-99.03,95.03-176.34,196.92-176.34v57.01c0,10.05-7.28,18.75-17.23,20.16-59.22,8.4-104.91,59.42-104.91,120.92Z"/>
</g>
    <svg width="1388pt" height="998pt" viewBox="0.00 0.00 1388.30 997.74">
<g id="graph0" class="graph" transform="scale(1 1) rotate(0) translate(18 979.74)">
<title>D</title>
<text text-anchor="start" x="402.78" y="-941.64" font-family="Roboto, sans-serif" font-weight="bold" font-size="18.00">GPKE</text>
<text text-anchor="start" x="402.78" y="-913.54" font-family="Roboto, sans-serif" font-weight="bold" font-size="16.00">6.29.1: AD: Bestellung &#196;nderung Konzessionsabgabe vom LF</text>
<!-- Start -->
<g id="node1" class="node">
<title>Start</title>
<path fill="#8ba2d7" stroke="black" stroke-width="0" d="M514.92,-871.74C514.92,-871.74 378.12,-871.74 378.12,-871.74 372.12,-871.74 366.12,-865.74 366.12,-859.74 366.12,-859.74 366.12,-838.46 366.12,-838.46 366.12,-832.46 372.12,-826.46 378.12,-826.46 378.12,-826.46 514.92,-826.46 514.92,-826.46 520.92,-826.46 526.92,-832.46 526.92,-838.46 526.92,-838.46 526.92,-859.74 526.92,-859.74 526.92,-865.74 520.92,-871.74 514.92,-871.74"/>
<text text-anchor="start" x="380.52" y="-850.8" font-family="Roboto, sans-serif" font-weight="bold" font-size="14.00">E_0477</text>
<text text-anchor="start" x="380.52" y="-836.8" font-family="Roboto, sans-serif" font-size="14.00">Pr&#252;fende Rolle: </text>
<text text-anchor="start" x="490.02" y="-836.8" font-family="Roboto, sans-serif" font-weight="bold" font-size="14.00">NB</text>
</g>
<!-- 10 -->
<g id="node2" class="node">
<title>10</title>
<path fill="#c2cee9" stroke="black" stroke-width="0" d="M688.17,-789.46C688.17,-789.46 204.88,-789.46 204.88,-789.46 198.88,-789.46 192.87,-783.46 192.87,-777.46 192.87,-777.46 192.87,-756.18 192.87,-756.18 192.87,-750.18 198.87,-744.18 204.87,-744.18 204.87,-744.18 688.17,-744.18 688.17,-744.18 694.17,-744.18 700.17,-750.18 700.17,-756.18 700.17,-756.18 700.17,-777.46 700.17,-777.46 700.17,-783.46 694.17,-789.46 688.17,-789.46"/>
<text text-anchor="start" x="207.27" y="-768.52" font-family="Roboto, sans-serif" font-weight="bold" font-size="14.00">10: </text>
<text text-anchor="start" x="236.52" y="-768.52" font-family="Roboto, sans-serif" font-size="14.00">Ist der Marktlokation zum Zeitpunkt der bestellten &#196;nderung die</text>
<text text-anchor="start" x="207.27" y="-754.52" font-family="Roboto, sans-serif" font-size="14.00">Sondervertragskunden-KA zugeordnet?</text>
</g>
<!-- Start&#45;&gt;10 -->
<g id="edge1" class="edge">
<title>Start-&gt;10</title>
<path fill="none" stroke="#88a0d6" d="M446.52,-826.59C446.52,-818.67 446.52,-809.51 446.52,-800.81"/>
<polygon fill="#88a0d6" stroke="#88a0d6" points="450.03,-800.91 446.53,-790.91 443.03,-800.91 450.03,-800.91"/>
</g>
<!-- A01 -->
<g id="node3" class="node">
<title>A01</title>
<path fill="#c4cac1" stroke="black" stroke-width="0" d="M589.05,-690.93C589.05,-690.93 12,-690.93 12,-690.93 6,-690.93 0,-684.93 0,-678.93 0,-678.93 0,-629.65 0,-629.65 0,-623.65 6,-617.65 12,-617.65 12,-617.65 589.05,-617.65 589.05,-617.65 595.05,-617.65 601.05,-623.65 601.05,-629.65 601.05,-629.65 601.05,-678.93 601.05,-678.93 601.05,-684.93 595.05,-690.93 589.05,-690.93"/>
<text text-anchor="start" x="14.4" y="-669.99" font-family="Roboto, sans-serif" font-weight="bold" font-size="14.00">A01</text>
<text text-anchor="start" x="14.4" y="-641.99" font-family="Roboto, sans-serif" font-size="14.00">Sondervertragskunden-KA gem&#228;&#223; &#167; 2 Abs. 3 der Konzessionsabgabenverordnung,</text>
<text text-anchor="start" x="14.4" y="-627.99" font-family="Roboto, sans-serif" font-size="14.00">daher keine &#196;nderung m&#246;glich</text>
</g>
<!-- 10&#45;&gt;A01 -->
<g id="edge2" class="edge">
<title>10-&gt;A01</title>
<path fill="none" stroke="#88a0d6" d="M418.03,-744.25C400.53,-731 377.53,-713.58 356.51,-697.67"/>
<polygon fill="#88a0d6" stroke="#88a0d6" points="358.63,-694.89 348.54,-691.64 354.4,-700.47 358.63,-694.89"/>
<text text-anchor="start" x="390.52" y="-713.88" font-family="Roboto, sans-serif" font-weight="bold" font-size="14.00">JA</text>
</g>
<!-- 20 -->
<g id="node4" class="node">
<title>20</title>
<path fill="#c2cee9" stroke="black" stroke-width="0" d="M1061.92,-672.29C1061.92,-672.29 631.12,-672.29 631.12,-672.29 625.12,-672.29 619.12,-666.29 619.12,-660.29 619.12,-660.29 619.12,-648.29 619.12,-648.29 619.12,-642.29 625.12,-636.29 631.12,-636.29 631.12,-636.29 1061.92,-636.29 1061.92,-636.29 1067.92,-636.29 1073.92,-642.29 1073.92,-648.29 1073.92,-648.29 1073.92,-660.29 1073.92,-660.29 1073.92,-666.29 1067.92,-672.29 1061.92,-672.29"/>
<text text-anchor="start" x="633.52" y="-650.62" font-family="Roboto, sans-serif" font-weight="bold" font-size="14.00">20: </text>
<text text-anchor="start" x="662.77" y="-650.62" font-family="Roboto, sans-serif" font-size="14.00">Ist die Marktlokation von der Konzessionsabgabe befreit?</text>
</g>
<!-- 10&#45;&gt;20 -->
<g id="edge3" class="edge">
<title>10-&gt;20</title>
<path fill="none" stroke="#88a0d6" d="M524.6,-744.25C596.9,-724.27 703.57,-694.79 774.03,-675.32"/>
<polygon fill="#88a0d6" stroke="#88a0d6" points="774.85,-678.73 783.55,-672.69 772.98,-671.98 774.85,-678.73"/>
<text text-anchor="start" x="646.52" y="-713.88" font-family="Roboto, sans-serif" font-weight="bold" font-size="14.00">NEIN</text>
</g>
<!-- A02 -->
<g id="node5" class="node">
<title>A02</title>
<path fill="#c4cac1" stroke="black" stroke-width="0" d="M629.3,-564.4C629.3,-564.4 107.75,-564.4 107.75,-564.4 101.75,-564.4 95.75,-558.4 95.75,-552.4 95.75,-552.4 95.75,-517.12 95.75,-517.12 95.75,-511.12 101.75,-505.12 107.75,-505.12 107.75,-505.12 629.3,-505.12 629.3,-505.12 635.3,-505.12 641.3,-511.12 641.3,-517.12 641.3,-517.12 641.3,-552.4 641.3,-552.4 641.3,-558.4 635.3,-564.4 629.3,-564.4"/>
<text text-anchor="start" x="110.15" y="-543.46" font-family="Roboto, sans-serif" font-weight="bold" font-size="14.00">A02</text>
<text text-anchor="start" x="110.15" y="-515.46" font-family="Roboto, sans-serif" font-size="14.00">&#196;nderung nicht m&#246;glich, da Marktlokation von Konzessionsabgabe befreit.</text>
</g>
<!-- 20&#45;&gt;A02 -->
<g id="edge4" class="edge">
<title>20-&gt;A02</title>
<path fill="none" stroke="#88a0d6" d="M777.53,-636.33C704.07,-618.26 586.17,-589.27 495.79,-567.05"/>
<polygon fill="#88a0d6" stroke="#88a0d6" points="496.64,-563.66 486.1,-564.67 494.97,-570.45 496.64,-563.66"/>
<text text-anchor="start" x="621.52" y="-587.35" font-family="Roboto, sans-serif" font-weight="bold" font-size="14.00">JA</text>
</g>
<!-- 30 -->
<g id="node6" class="node">
<title>30</title>
<path fill="#c2cee9" stroke="black" stroke-width="0" d="M1161.92,-552.76C1161.92,-552.76 671.12,-552.76 671.12,-552.76 665.12,-552.76 659.12,-546.76 659.12,-540.76 659.12,-540.76 659.12,-528.76 659.12,-528.76 659.12,-522.76 665.12,-516.76 671.12,-516.76 671.12,-516.76 1161.92,-516.76 1161.92,-516.76 1167.92,-516.76 1173.92,-522.76 1173.92,-528.76 1173.92,-528.76 1173.92,-540.76 1173.92,-540.76 1173.92,-546.76 1167.92,-552.76 1161.92,-552.76"/>
<text text-anchor="start" x="673.52" y="-531.09" font-family="Roboto, sans-serif" font-weight="bold" font-size="14.00">30: </text>
<text text-anchor="start" x="702.77" y="-531.09" font-family="Roboto, sans-serif" font-size="14.00">Ist der bestellte Zustand an der Marktlokation bereits vorhanden?</text>
</g>
<!-- 20&#45;&gt;30 -->
<g id="edge5" class="edge">
<title>20-&gt;30</title>
<path fill="none" stroke="#88a0d6" d="M856.55,-636.45C868.09,-617.08 887.19,-585.01 900.73,-562.28"/>
<polygon fill="#88a0d6" stroke="#88a0d6" points="903.63,-564.25 905.74,-553.87 897.62,-560.67 903.63,-564.25"/>
<text text-anchor="start" x="887.52" y="-587.35" font-family="Roboto, sans-serif" font-weight="bold" font-size="14.00">NEIN</text>
</g>
<!-- A03 -->
<g id="node7" class="node">
<title>A03</title>
<path fill="#c4cac1" stroke="black" stroke-width="0" d="M688.17,-451.87C688.17,-451.87 210.88,-451.87 210.88,-451.87 204.88,-451.87 198.87,-445.87 198.87,-439.87 198.87,-439.87 198.87,-404.59 198.87,-404.59 198.87,-398.59 204.87,-392.59 210.87,-392.59 210.87,-392.59 688.17,-392.59 688.17,-392.59 694.17,-392.59 700.17,-398.59 700.17,-404.59 700.17,-404.59 700.17,-439.87 700.17,-439.87 700.17,-445.87 694.17,-451.87 688.17,-451.87"/>
<text text-anchor="start" x="213.27" y="-430.93" font-family="Roboto, sans-serif" font-weight="bold" font-size="14.00">A03</text>
<text text-anchor="start" x="213.27" y="-402.93" font-family="Roboto, sans-serif" font-size="14.00">Der gew&#252;nschte Zustand ist bereits an der Marktlokation hinterlegt.</text>
</g>
<!-- 30&#45;&gt;A03 -->
<g id="edge6" class="edge">
<title>30-&gt;A03</title>
<path fill="none" stroke="#88a0d6" d="M844.83,-516.79C774.9,-500.24 666.88,-474.67 581.41,-454.45"/>
<polygon fill="#88a0d6" stroke="#88a0d6" points="582.32,-451.06 571.78,-452.17 580.71,-457.88 582.32,-451.06"/>
<text text-anchor="start" x="710.52" y="-474.82" font-family="Roboto, sans-serif" font-weight="bold" font-size="14.00">JA</text>
</g>
<!-- 40 -->
<g id="node8" class="node">
<title>40</title>
<path fill="#c2cee9" stroke="black" stroke-width="0" d="M1173.3,-444.87C1173.3,-444.87 729.75,-444.87 729.75,-444.87 723.75,-444.87 717.75,-438.87 717.75,-432.87 717.75,-432.87 717.75,-411.59 717.75,-411.59 717.75,-405.59 723.75,-399.59 729.75,-399.59 729.75,-399.59 1173.3,-399.59 1173.3,-399.59 1179.3,-399.59 1185.3,-405.59 1185.3,-411.59 1185.3,-411.59 1185.3,-432.87 1185.3,-432.87 1185.3,-438.87 1179.3,-444.87 1173.3,-444.87"/>
<text text-anchor="start" x="732.15" y="-423.93" font-family="Roboto, sans-serif" font-weight="bold" font-size="14.00">40: </text>
<text text-anchor="start" x="761.4" y="-423.93" font-family="Roboto, sans-serif" font-size="14.00">Bestellt der LF f&#252;r eine Marktlokation den Wechsel auf eine</text>
<text text-anchor="start" x="732.15" y="-409.93" font-family="Roboto, sans-serif" font-size="14.00">Schwachlast-Konzessionsabgabe?</text>
</g>
<!-- 30&#45;&gt;40 -->
<g id="edge7" class="edge">
<title>30-&gt;40</title>
<path fill="none" stroke="#88a0d6" d="M921.84,-516.97C926.98,-500.74 934.9,-475.72 941.27,-455.61"/>
<polygon fill="#88a0d6" stroke="#88a0d6" points="944.58,-456.77 944.26,-446.18 937.9,-454.66 944.58,-456.77"/>
<text text-anchor="start" x="935.52" y="-474.82" font-family="Roboto, sans-serif" font-weight="bold" font-size="14.00">NEIN</text>
</g>
<!-- Stammdaten&#228;nderung NB (verantwortlich) ausgehend
Hinweis: Der LF beauftragt den NB die Schwachlast&#45;Konzessionsabgabe an der Marktlokation nicht mehr ab dem angegebenen Zeitpunkt abzurechnen. Es soll die regul&#228;re Konzessionsabgabe abgerechnet werden. -->
<g id="node9" class="node">
<title>Stammdaten&#228;nderung NB (verantwortlich) ausgehend
Hinweis: Der LF beauftragt den NB die Schwachlast-Konzessionsabgabe an der Marktlokation nicht mehr ab dem angegebenen Zeitpunkt abzurechnen. Es soll die regul&#228;re Konzessionsabgabe abgerechnet werden.</title>
<path fill="#c4cac1" stroke="black" stroke-width="0" d="M623.92,-339.34C623.92,-339.34 43.12,-339.34 43.12,-339.34 37.12,-339.34 31.12,-333.34 31.12,-327.34 31.12,-327.34 31.12,-265.06 31.12,-265.06 31.12,-259.06 37.12,-253.06 43.12,-253.06 43.12,-253.06 623.92,-253.06 623.92,-253.06 629.92,-253.06 635.92,-259.06 635.92,-265.06 635.92,-265.06 635.92,-327.34 635.92,-327.34 635.92,-333.34 629.92,-339.34 623.92,-339.34"/>
<text text-anchor="start" x="45.52" y="-317.4" font-family="Roboto, sans-serif" font-size="14.00">Stammdaten&#228;nderung NB (verantwortlich) ausgehend</text>
<text text-anchor="start" x="45.52" y="-300.15" font-family="Roboto, sans-serif" font-size="14.00">Hinweis: Der LF beauftragt den NB die Schwachlast-Konzessionsabgabe an der</text>
<text text-anchor="start" x="45.52" y="-282.9" font-family="Roboto, sans-serif" font-size="14.00">Marktlokation nicht mehr ab dem angegebenen Zeitpunkt abzurechnen. Es soll die</text>
<text text-anchor="start" x="45.52" y="-265.65" font-family="Roboto, sans-serif" font-size="14.00">regul&#228;re Konzessionsabgabe abgerechnet werden.</text>
</g>
<!-- 40&#45;&gt;Stammdaten&#228;nderung NB (verantwortlich) ausgehend
Hinweis: Der LF beauftragt den NB die Schwachlast&#45;Konzessionsabgabe an der Marktlokation nicht mehr ab dem angegebenen Zeitpunkt abzurechnen. Es soll die regul&#228;re Konzessionsabgabe abgerechnet werden. -->
<g id="edge8" class="edge">
<title>40-&gt;Stammdaten&#228;nderung NB (verantwortlich) ausgehend
Hinweis: Der LF beauftragt den NB die Schwachlast-Konzessionsabgabe an der Marktlokation nicht mehr ab dem angegebenen Zeitpunkt abzurechnen. Es soll die regul&#228;re Konzessionsabgabe abgerechnet werden.</title>
<path fill="none" stroke="#88a0d6" d="M843.88,-399.63C764.13,-383.62 652.69,-361.25 554.28,-341.5"/>
<polygon fill="#88a0d6" stroke="#88a0d6" points="555.25,-338.13 544.75,-339.59 553.87,-344.99 555.25,-338.13"/>
<text text-anchor="start" x="715.52" y="-362.29" font-family="Roboto, sans-serif" font-weight="bold" font-size="14.00">NEIN</text>
</g>
<!-- 50 -->
<g id="node10" class="node">
<title>50</title>
<path fill="#c2cee9" stroke="black" stroke-width="0" d="M1283.3,-318.84C1283.3,-318.84 665.75,-318.84 665.75,-318.84 659.75,-318.84 653.75,-312.84 653.75,-306.84 653.75,-306.84 653.75,-285.56 653.75,-285.56 653.75,-279.56 659.75,-273.56 665.75,-273.56 665.75,-273.56 1283.3,-273.56 1283.3,-273.56 1289.3,-273.56 1295.3,-279.56 1295.3,-285.56 1295.3,-285.56 1295.3,-306.84 1295.3,-306.84 1295.3,-312.84 1289.3,-318.84 1283.3,-318.84"/>
<text text-anchor="start" x="668.15" y="-297.9" font-family="Roboto, sans-serif" font-weight="bold" font-size="14.00">50: </text>
<text text-anchor="start" x="697.4" y="-297.9" font-family="Roboto, sans-serif" font-size="14.00">M&#246;chte der NB die Bestellung der r&#252;ckwirkenden &#196;nderung der Konzessionsabgabe</text>
<text text-anchor="start" x="668.15" y="-283.9" font-family="Roboto, sans-serif" font-size="14.00">aufgrund rechtlicher Fristen ablehnen?</text>
</g>
<!-- 40&#45;&gt;50 -->
<g id="edge9" class="edge">
<title>40-&gt;50</title>
<path fill="none" stroke="#88a0d6" d="M955.53,-399.63C959.11,-380.33 964.4,-351.79 968.49,-329.73"/>
<polygon fill="#88a0d6" stroke="#88a0d6" points="971.91,-330.52 970.29,-320.04 965.02,-329.24 971.91,-330.52"/>
<text text-anchor="start" x="962.52" y="-362.29" font-family="Roboto, sans-serif" font-weight="bold" font-size="14.00">JA</text>
</g>
<!-- A05 -->
<g id="node11" class="node">
<title>A05</title>
<path fill="#c4cac1" stroke="black" stroke-width="0" d="M704.8,-192.81C704.8,-192.81 390.25,-192.81 390.25,-192.81 384.25,-192.81 378.25,-186.81 378.25,-180.81 378.25,-180.81 378.25,-145.53 378.25,-145.53 378.25,-139.53 384.25,-133.53 390.25,-133.53 390.25,-133.53 704.8,-133.53 704.8,-133.53 710.8,-133.53 716.8,-139.53 716.8,-145.53 716.8,-145.53 716.8,-180.81 716.8,-180.81 716.8,-186.81 710.8,-192.81 704.8,-192.81"/>
<text text-anchor="start" x="392.65" y="-171.87" font-family="Roboto, sans-serif" font-weight="bold" font-size="14.00">A05</text>
<text text-anchor="start" x="392.65" y="-143.87" font-family="Roboto, sans-serif" font-size="14.00">Eine r&#252;ckwirkende &#196;nderung wird abgelehnt</text>
</g>
<!-- 50&#45;&gt;A05 -->
<g id="edge10" class="edge">
<title>50-&gt;A05</title>
<path fill="none" stroke="#88a0d6" d="M904.01,-273.56C835.24,-252.46 729.83,-220.11 651.45,-196.06"/>
<polygon fill="#88a0d6" stroke="#88a0d6" points="652.61,-192.75 642.02,-193.17 650.55,-199.45 652.61,-192.75"/>
<text text-anchor="start" x="773.52" y="-222.76" font-family="Roboto, sans-serif" font-weight="bold" font-size="14.00">JA</text>
</g>
<!-- 60 -->
<g id="node12" class="node">
<title>60</title>
<path fill="#c2cee9" stroke="black" stroke-width="0" d="M1340.3,-199.81C1340.3,-199.81 746.75,-199.81 746.75,-199.81 740.75,-199.81 734.75,-193.81 734.75,-187.81 734.75,-187.81 734.75,-138.53 734.75,-138.53 734.75,-132.53 740.75,-126.53 746.75,-126.53 746.75,-126.53 1340.3,-126.53 1340.3,-126.53 1346.3,-126.53 1352.3,-132.53 1352.3,-138.53 1352.3,-138.53 1352.3,-187.81 1352.3,-187.81 1352.3,-193.81 1346.3,-199.81 1340.3,-199.81"/>
<text text-anchor="start" x="749.15" y="-178.87" font-family="Roboto, sans-serif" font-weight="bold" font-size="14.00">60: </text>
<text text-anchor="start" x="778.4" y="-178.87" font-family="Roboto, sans-serif" font-size="14.00">L&#228;sst die Ger&#228;tekonfiguration der Messlokationen der angefragten Marktlokation</text>
<text text-anchor="start" x="749.15" y="-164.87" font-family="Roboto, sans-serif" font-size="14.00">zum Umsetzungszeitpunkt die separate Erfassung der Energie in den</text>
<text text-anchor="start" x="749.15" y="-150.87" font-family="Roboto, sans-serif" font-size="14.00">Schwachlastzeiten zu, um die niedrige Konzessionsabgabe f&#252;r diese Menge</text>
<text text-anchor="start" x="749.15" y="-136.87" font-family="Roboto, sans-serif" font-size="14.00">abrechnen zu k&#246;nnen?</text>
</g>
<!-- 50&#45;&gt;60 -->
<g id="edge11" class="edge">
<title>50-&gt;60</title>
<path fill="none" stroke="#88a0d6" d="M985.92,-273.56C995.04,-256.24 1008.15,-231.35 1019.55,-209.69"/>
<polygon fill="#88a0d6" stroke="#88a0d6" points="1022.56,-211.5 1024.12,-201.02 1016.36,-208.24 1022.56,-211.5"/>
<text text-anchor="start" x="1014.53" y="-222.76" font-family="Roboto, sans-serif" font-weight="bold" font-size="14.00">NEIN</text>
</g>
<!-- A04 -->
<g id="node13" class="node">
<title>A04</title>
<path fill="#c4cac1" stroke="black" stroke-width="0" d="M873.8,-73.28C873.8,-73.28 349.25,-73.28 349.25,-73.28 343.25,-73.28 337.25,-67.28 337.25,-61.28 337.25,-61.28 337.25,-12 337.25,-12 337.25,-6 343.25,0 349.25,0 349.25,0 873.8,0 873.8,0 879.8,0 885.8,-6 885.8,-12 885.8,-12 885.8,-61.28 885.8,-61.28 885.8,-67.28 879.8,-73.28 873.8,-73.28"/>
<text text-anchor="start" x="351.65" y="-52.34" font-family="Roboto, sans-serif" font-weight="bold" font-size="14.00">A04</text>
<text text-anchor="start" x="351.65" y="-24.34" font-family="Roboto, sans-serif" font-size="14.00">An der Marktlokation kann die Energie in den Schwachlastzeiten nicht zum</text>
<text text-anchor="start" x="351.65" y="-10.34" font-family="Roboto, sans-serif" font-size="14.00">angefragten Zeitpunkt separat erfasst werden.</text>
</g>
<!-- 60&#45;&gt;A04 -->
<g id="edge12" class="edge">
<title>60-&gt;A04</title>
<path fill="none" stroke="#88a0d6" d="M920.02,-126.57C865.67,-110.9 801.68,-92.46 746.12,-76.44"/>
<polygon fill="#88a0d6" stroke="#88a0d6" points="747.15,-73.09 736.58,-73.69 745.21,-79.82 747.15,-73.09"/>
<text text-anchor="start" x="852.52" y="-96.23" font-family="Roboto, sans-serif" font-weight="bold" font-size="14.00">NEIN</text>
</g>
<!-- Stammdaten&#228;nderung NB (verantwortlich) ausgehend -->
<g id="node14" class="node">
<title>Stammdaten&#228;nderung NB (verantwortlich) ausgehend</title>
<path fill="#c4cac1" stroke="black" stroke-width="0" d="M1298.93,-54.64C1298.93,-54.64 916.13,-54.64 916.13,-54.64 910.13,-54.64 904.13,-48.64 904.13,-42.64 904.13,-42.64 904.13,-30.64 904.13,-30.64 904.13,-24.64 910.13,-18.64 916.13,-18.64 916.13,-18.64 1298.93,-18.64 1298.93,-18.64 1304.93,-18.64 1310.93,-24.64 1310.93,-30.64 1310.93,-30.64 1310.93,-42.64 1310.93,-42.64 1310.93,-48.64 1304.93,-54.64 1298.93,-54.64"/>
<text text-anchor="start" x="918.53" y="-31.96" font-family="Roboto, sans-serif" font-size="14.00">Stammdaten&#228;nderung NB (verantwortlich) ausgehend</text>
</g>
<!-- 60&#45;&gt;Stammdaten&#228;nderung NB (verantwortlich) ausgehend -->
<g id="edge13" class="edge">
<title>60-&gt;Stammdaten&#228;nderung NB (verantwortlich) ausgehend</title>
<path fill="none" stroke="#88a0d6" d="M1061.69,-126.82C1071.84,-107.07 1084.28,-82.86 1093.64,-64.65"/>
<polygon fill="#88a0d6" stroke="#88a0d6" points="1096.74,-66.28 1098.2,-55.78 1090.52,-63.08 1096.74,-66.28"/>
<text text-anchor="start" x="1078.53" y="-96.23" font-family="Roboto, sans-serif" font-weight="bold" font-size="14.00">JA</text>
</g>
</g>
</svg>
  </g>
</svg>
  </g>
</svg>
