<?xml version='1.0' encoding='ASCII' standalone='yes'?>
<svg xmlns="http://www.w3.org/2000/svg" xmlns:xlink="http://www.w3.org/1999/xlink" version="1.1" width="972.0px" viewBox="0 0 972.0 190.66666666666666" height="190.66666666666666px">
  <g>
    <svg version="1.1" width="972.0px" viewBox="0 0 972.0 190.66666666666666" height="190.66666666666666px">
  <rect fill="#e7e6e5" x="0" y="0" width="972.0" height="190.66666666666666" rx="20" ry="20"/><g>
    <g transform="translate(408.24601520698394, 19.066666666666663) scale(1 1) translate(0, 0) scale(0.2684689758753403 0.2684689758753403) "><!-- note that I manually added the width and height attribute to the root node
  https://chatgpt.com/share/678e3028-70cc-800b-a296-782714735772
  -->
  <defs>
    <style>.cls-1{fill:#fff;}</style>
  </defs>
  <path class="cls-1" d="M122.44,531.2h-56.1c-11,0-19.9-9.12-19.46-20.11C57.47,243.89,278.15,29.78,547.91,29.78v56.02c0,10.98-8.69,19.89-19.66,20.39-225.51,10.31-405.8,197-405.8,425Z"/>
  <path class="cls-1" d="M273.78,531.2h-55.93c-11.23,0-20.09-9.48-19.43-20.69,10.74-183.44,163.39-329.39,349.48-329.39v56.26c0,10.71-8.27,19.62-18.96,20.35-142.35,9.77-255.17,128.69-255.17,273.46Z"/>
  <path class="cls-1" d="M425.77,531.2h-55.45c-11.65,0-20.6-10.17-19.33-21.75,10.87-99.03,95.03-176.34,196.92-176.34v57.01c0,10.05-7.28,18.75-17.23,20.16-59.22,8.4-104.91,59.42-104.91,120.92Z"/>
</g>
    <svg width="729pt" height="143pt" viewBox="0.00 0.00 729.00 143.28">
<g id="graph0" class="graph" transform="scale(1 1) rotate(0) translate(4 139.28)">
<title>D</title>
<text text-anchor="start" x="8" y="-115.18" font-family="Roboto, sans-serif" font-weight="bold" font-size="18.00">GPKE</text>
<text text-anchor="start" x="8" y="-87.08" font-family="Roboto, sans-serif" font-weight="bold" font-size="16.00">6.23.2: AD: Anfrage zur Stammdaten&#228;nderung von MSB an LF (verantwortlich)</text>
<!-- Empty -->
<g id="node1" class="node">
<title>Empty</title>
<path fill="#7a8da1" stroke="black" stroke-width="0" d="M463.02,-45.28C463.02,-45.28 257.98,-45.28 257.98,-45.28 251.97,-45.28 245.97,-39.28 245.97,-33.28 245.97,-33.28 245.97,-12 245.97,-12 245.97,-6 251.97,0 257.98,0 257.98,0 463.02,0 463.02,0 469.02,0 475.02,-6 475.02,-12 475.02,-12 475.02,-33.28 475.02,-33.28 475.02,-39.28 469.02,-45.28 463.02,-45.28"/>
<text text-anchor="start" x="332.75" y="-24.34" font-family="Roboto, sans-serif" font-weight="bold" font-size="14.00">E_0426</text>
<text text-anchor="start" x="260.38" y="-10.34" font-family="Roboto, sans-serif" font-size="14.00">S_0031_Antwort auf Anfrage</text>
</g>
</g>
</svg>
  </g>
</svg>
  </g>
</svg>
