<?xml version='1.0' encoding='ASCII' standalone='yes'?>
<svg xmlns="http://www.w3.org/2000/svg" xmlns:xlink="http://www.w3.org/1999/xlink" version="1.1" width="1920.0px" viewBox="0 0 1920.0 837.3333333333334" height="837.3333333333334px">
  <g>
    <svg version="1.1" width="1920.0px" viewBox="0 0 1920.0 837.3333333333334" height="837.3333333333334px">
  <polygon fill="#f3f1f6" points="0,0 1920.0,0 1920.0,837.3333333333334 0,837.3333333333334"/><g>
    <g transform="translate(625.3151086688483, 83.73333333333332) scale(1 1) translate(0, 0) scale(3.7869370045215236 3.7869370045215236) "><sodipodi:namedview xmlns:sodipodi="http://sodipodi.sourceforge.net/DTD/sodipodi-0.dtd" xmlns:inkscape="http://www.inkscape.org/namespaces/inkscape" id="namedview7" pagecolor="#ffffff" bordercolor="#999999" borderopacity="1" inkscape:pageshadow="0" inkscape:pageopacity="0" inkscape:pagecheckerboard="0" inkscape:document-units="mm" showgrid="false" fit-margin-top="0" fit-margin-left="0" fit-margin-right="0" fit-margin-bottom="0" inkscape:zoom="0.64052329" inkscape:cx="130.36216" inkscape:cy="412.163" inkscape:window-width="1512" inkscape:window-height="916" inkscape:window-x="3840" inkscape:window-y="136" inkscape:window-maximized="0" inkscape:current-layer="layer1"/>
  <defs id="defs2">
    <clipPath clipPathUnits="userSpaceOnUse" id="clipPath23">
      <path d="M 0,568.156 H 579.236 V 0 H 0 Z" id="path21"/>
    </clipPath>
  </defs>
  <g xmlns:inkscape="http://www.inkscape.org/namespaces/inkscape" inkscape:label="Layer 1" inkscape:groupmode="layer" id="layer1" transform="translate(-16.541937,-55.305267)">
    <g id="g19" clip-path="url(#clipPath23)" transform="matrix(0.35277777,0,0,-0.35277777,0.01017023,243.73675)" style="opacity:0.2">
      <g id="g25" transform="translate(122.444,32.7195)">
        <path d="m 0,0 h -56.104 c -11,0 -19.898,9.123 -19.463,20.115 10.594,267.191 231.277,481.302 501.029,481.302 v -56.02 c 0,-10.98 -8.688,-19.892 -19.658,-20.393 C 180.29,414.697 0,228.005 0,0" style="fill:#6ead83;fill-opacity:0.5;fill-rule:nonzero;stroke:none" id="path27"/>
      </g>
      <g id="g29" transform="translate(273.7828,32.7195)">
        <path d="m 0,0 h -55.926 c -11.228,0 -20.091,9.482 -19.435,20.69 10.744,183.439 163.389,329.388 349.485,329.388 v -56.263 c 0,-10.709 -8.273,-19.617 -18.957,-20.35 C 112.819,263.696 0,144.774 0,0" style="fill:#6ead83;fill-opacity:0.5;fill-rule:nonzero;stroke:none" id="path31"/>
      </g>
      <g id="g33" transform="translate(425.7667,32.7195)">
        <path d="m 0,0 h -55.445 c -11.653,0 -20.604,10.17 -19.334,21.753 10.866,99.032 95.031,176.341 196.919,176.341 v -57.011 c 0,-10.046 -7.283,-18.755 -17.229,-20.165 C 45.688,112.522 0,61.497 0,0" style="fill:#6ead83;fill-opacity:0.5;fill-rule:nonzero;stroke:none" id="path35"/>
      </g>
    </g>
  </g>
</g>
    <svg width="1440pt" height="628pt" viewBox="0.00 0.00 1440.00 627.63">
<g id="graph0" class="graph" transform="scale(0.943634 0.943634) rotate(0) translate(4 661.12)">
<title>D</title>
<text text-anchor="start" x="730.13" y="-637.02" font-family="Times,serif" font-weight="bold" font-size="18.00">GPKE</text>
<text text-anchor="start" x="255.76" y="-606.92" font-family="Times,serif" font-weight="bold" font-size="16.00">6.11.1: AD: Stornieren der Unterbrechung und Wiederherstellung der Anschlussnutzung auf Anweisung des LF</text>
<!-- Start -->
<g id="node1" class="node">
<title>Start</title>
<polygon fill="#7a8da1" stroke="black" points="574.39,-559.12 414.34,-559.12 414.34,-515.84 574.39,-515.84 574.39,-559.12"/>
<text text-anchor="start" x="466.24" y="-538.18" font-family="Times,serif" font-weight="bold" font-size="14.00">E_0468</text>
<text text-anchor="start" x="428.74" y="-526.08" font-family="Times,serif" font-weight="bold" text-decoration="underline" font-size="12.00">Pr&#252;fende Rolle:</text>
<text text-anchor="start" x="533.74" y="-526.08" font-family="Times,serif" font-weight="bold" font-size="12.00"> NB</text>
</g>
<!-- 1 -->
<g id="node2" class="node">
<title>1</title>
<path fill="#7aab8a" stroke="black" d="M754.39,-478.84C754.39,-478.84 234.34,-478.84 234.34,-478.84 228.34,-478.84 222.34,-472.84 222.34,-466.84 222.34,-466.84 222.34,-454.84 222.34,-454.84 222.34,-448.84 228.34,-442.84 234.34,-442.84 234.34,-442.84 754.39,-442.84 754.39,-442.84 760.39,-442.84 766.39,-448.84 766.39,-454.84 766.39,-454.84 766.39,-466.84 766.39,-466.84 766.39,-472.84 760.39,-478.84 754.39,-478.84"/>
<text text-anchor="start" x="236.74" y="-457.16" font-family="Times,serif" font-weight="bold" font-size="14.00">1: </text>
<text text-anchor="start" x="256.24" y="-457.16" font-family="Times,serif" font-size="14.00">Wurde der Sperr- / Entsperrauftrag bereits durch den NB abgelehnt?</text>
</g>
<!-- Start&#45;&gt;1 -->
<g id="edge1" class="edge">
<title>Start-&gt;1</title>
<path fill="none" stroke="black" d="M494.37,-515.69C494.37,-507.83 494.37,-498.75 494.37,-490.31"/>
<polygon fill="black" stroke="black" points="497.87,-490.51 494.37,-480.51 490.87,-490.51 497.87,-490.51"/>
</g>
<!-- A06 -->
<g id="node3" class="node">
<title>A06</title>
<polygon fill="#cfb986" stroke="black" points="551.86,-389.59 96.88,-389.59 96.88,-328.07 551.86,-328.07 551.86,-389.59"/>
<text text-anchor="start" x="309.37" y="-371.53" font-family="Times,serif" font-weight="bold" font-size="14.00">A06</text>
<text text-anchor="start" x="109.12" y="-359.43" font-family="Times,serif" text-decoration="underline" font-size="12.00">Hinweis:</text>
<text text-anchor="start" x="109.12" y="-347.43" font-family="Times,serif" font-size="12.00">Cluster: Ablehnung</text>
<text text-anchor="start" x="109.12" y="-335.43" font-family="Times,serif" font-size="12.00">Auftrag wurde bereits abgelehnt und kann nicht mehr storniert werden</text>
</g>
<!-- 1&#45;&gt;A06 -->
<g id="edge2" class="edge">
<title>1-&gt;A06</title>
<path fill="none" stroke="black" d="M464.75,-442.42C442.89,-429.56 412.38,-411.61 385.38,-395.73"/>
<polygon fill="black" stroke="black" points="387.31,-392.8 376.92,-390.75 383.76,-398.84 387.31,-392.8"/>
<text text-anchor="middle" x="441.12" y="-411.54" font-family="Times,serif" font-size="14.00">Ja</text>
</g>
<!-- 2 -->
<g id="node4" class="node">
<title>2</title>
<path fill="#7aab8a" stroke="black" d="M1046.64,-376.83C1046.64,-376.83 582.09,-376.83 582.09,-376.83 576.09,-376.83 570.09,-370.83 570.09,-364.83 570.09,-364.83 570.09,-352.83 570.09,-352.83 570.09,-346.83 576.09,-340.83 582.09,-340.83 582.09,-340.83 1046.64,-340.83 1046.64,-340.83 1052.64,-340.83 1058.64,-346.83 1058.64,-352.83 1058.64,-352.83 1058.64,-364.83 1058.64,-364.83 1058.64,-370.83 1052.64,-376.83 1046.64,-376.83"/>
<text text-anchor="start" x="584.49" y="-355.15" font-family="Times,serif" font-weight="bold" font-size="14.00">2: </text>
<text text-anchor="start" x="603.99" y="-355.15" font-family="Times,serif" font-size="14.00">Handelt es sich um eine Stornierung eines Entsperrauftrags?</text>
</g>
<!-- 1&#45;&gt;2 -->
<g id="edge3" class="edge">
<title>1-&gt;2</title>
<path fill="none" stroke="black" d="M550.1,-442.42C605.03,-425.25 688.99,-399.01 747.48,-380.73"/>
<polygon fill="black" stroke="black" points="748.51,-384.08 757.01,-377.75 746.43,-377.4 748.51,-384.08"/>
<text text-anchor="middle" x="671.24" y="-411.54" font-family="Times,serif" font-size="14.00">Nein</text>
</g>
<!-- 3 -->
<g id="node5" class="node">
<title>3</title>
<path fill="#7aab8a" stroke="black" d="M614.64,-270.18C614.64,-270.18 66.09,-270.18 66.09,-270.18 60.09,-270.18 54.09,-264.18 54.09,-258.18 54.09,-258.18 54.09,-246.18 54.09,-246.18 54.09,-240.18 60.09,-234.18 66.09,-234.18 66.09,-234.18 614.64,-234.18 614.64,-234.18 620.64,-234.18 626.64,-240.18 626.64,-246.18 626.64,-246.18 626.64,-258.18 626.64,-258.18 626.64,-264.18 620.64,-270.18 614.64,-270.18"/>
<text text-anchor="start" x="68.49" y="-248.5" font-family="Times,serif" font-weight="bold" font-size="14.00">3: </text>
<text text-anchor="start" x="87.99" y="-248.5" font-family="Times,serif" font-size="14.00">Ist die Stornierung vor der Durchf&#252;hrung der Entsperrung eingegangen?</text>
</g>
<!-- 2&#45;&gt;3 -->
<g id="edge4" class="edge">
<title>2-&gt;3</title>
<path fill="none" stroke="black" d="M735.29,-340.37C651.18,-321.8 518.36,-292.48 430.31,-273.04"/>
<polygon fill="black" stroke="black" points="431.26,-269.66 420.74,-270.93 429.75,-276.5 431.26,-269.66"/>
<text text-anchor="middle" x="598.12" y="-296.77" font-family="Times,serif" font-size="14.00">Ja</text>
</g>
<!-- 4 -->
<g id="node8" class="node">
<title>4</title>
<path fill="#7aab8a" stroke="black" d="M1273.76,-274.82C1273.76,-274.82 656.97,-274.82 656.97,-274.82 650.97,-274.82 644.97,-268.82 644.97,-262.82 644.97,-262.82 644.97,-241.54 644.97,-241.54 644.97,-235.54 650.97,-229.54 656.97,-229.54 656.97,-229.54 1273.76,-229.54 1273.76,-229.54 1279.76,-229.54 1285.76,-235.54 1285.76,-241.54 1285.76,-241.54 1285.76,-262.82 1285.76,-262.82 1285.76,-268.82 1279.76,-274.82 1273.76,-274.82"/>
<text text-anchor="start" x="659.37" y="-253.88" font-family="Times,serif" font-weight="bold" font-size="14.00">4: </text>
<text text-anchor="start" x="678.87" y="-253.88" font-family="Times,serif" font-size="14.00">Ist der Nachrichteneingang der Stornierung sp&#228;testens am Tag vor dem geplanten</text>
<text text-anchor="start" x="659.37" y="-239.88" font-family="Times,serif" font-size="14.00">Ausf&#252;hrungstermin bzw. fixen Sperrtermin aus dem Sperrauftrag eingegangen?</text>
</g>
<!-- 2&#45;&gt;4 -->
<g id="edge5" class="edge">
<title>2-&gt;4</title>
<path fill="none" stroke="black" d="M839.3,-340.55C862.38,-324.55 897.12,-300.47 924.3,-281.64"/>
<polygon fill="black" stroke="black" points="926.09,-284.66 932.32,-276.08 922.1,-278.9 926.09,-284.66"/>
<text text-anchor="middle" x="924.24" y="-296.77" font-family="Times,serif" font-size="14.00">Nein</text>
</g>
<!-- A01 -->
<g id="node6" class="node">
<title>A01</title>
<polygon fill="#cfb986" stroke="black" points="200.73,-176.29 0,-176.29 0,-114.77 200.73,-114.77 200.73,-176.29"/>
<text text-anchor="start" x="85.36" y="-158.23" font-family="Times,serif" font-weight="bold" font-size="14.00">A01</text>
<text text-anchor="start" x="12.24" y="-146.13" font-family="Times,serif" text-decoration="underline" font-size="12.00">Hinweis:</text>
<text text-anchor="start" x="12.24" y="-134.13" font-family="Times,serif" font-size="12.00">Cluster: Zustimmung</text>
<text text-anchor="start" x="12.24" y="-122.13" font-family="Times,serif" font-size="12.00">Entsperrauftrag ist storniert.</text>
</g>
<!-- 3&#45;&gt;A01 -->
<g id="edge6" class="edge">
<title>3-&gt;A01</title>
<path fill="none" stroke="black" d="M300.46,-233.78C267.73,-219.51 220.35,-198.85 179.91,-181.22"/>
<polygon fill="black" stroke="black" points="181.48,-178.08 170.91,-177.29 178.68,-184.5 181.48,-178.08"/>
<text text-anchor="middle" x="255.12" y="-198.24" font-family="Times,serif" font-size="14.00">Ja</text>
</g>
<!-- A02 -->
<g id="node7" class="node">
<title>A02</title>
<polygon fill="#cfb986" stroke="black" points="572.23,-176.29 218.5,-176.29 218.5,-114.77 572.23,-114.77 572.23,-176.29"/>
<text text-anchor="start" x="380.37" y="-158.23" font-family="Times,serif" font-weight="bold" font-size="14.00">A02</text>
<text text-anchor="start" x="230.74" y="-146.13" font-family="Times,serif" text-decoration="underline" font-size="12.00">Hinweis:</text>
<text text-anchor="start" x="230.74" y="-134.13" font-family="Times,serif" font-size="12.00">Cluster: Ablehnung</text>
<text text-anchor="start" x="230.74" y="-122.13" font-family="Times,serif" font-size="12.00">Stornierung des Entsperrauftrags nicht mehr m&#246;glich.</text>
</g>
<!-- 3&#45;&gt;A02 -->
<g id="edge7" class="edge">
<title>3-&gt;A02</title>
<path fill="none" stroke="black" d="M349.45,-233.9C356.22,-221.01 365.75,-202.88 374.37,-186.48"/>
<polygon fill="black" stroke="black" points="377.33,-188.36 378.89,-177.88 371.14,-185.11 377.33,-188.36"/>
<text text-anchor="middle" x="386.24" y="-198.24" font-family="Times,serif" font-size="14.00">Nein</text>
</g>
<!-- A03 -->
<g id="node9" class="node">
<title>A03</title>
<polygon fill="#cfb986" stroke="black" points="950.61,-176.29 590.12,-176.29 590.12,-114.77 950.61,-114.77 950.61,-176.29"/>
<text text-anchor="start" x="755.37" y="-158.23" font-family="Times,serif" font-weight="bold" font-size="14.00">A03</text>
<text text-anchor="start" x="602.37" y="-146.13" font-family="Times,serif" text-decoration="underline" font-size="12.00">Hinweis:</text>
<text text-anchor="start" x="602.37" y="-134.13" font-family="Times,serif" font-size="12.00">Cluster: Zustimmung</text>
<text text-anchor="start" x="602.37" y="-122.13" font-family="Times,serif" font-size="12.00">Sperrauftrag ist bis zum Vortag der Sperrung storniert.</text>
</g>
<!-- 4&#45;&gt;A03 -->
<g id="edge8" class="edge">
<title>4-&gt;A03</title>
<path fill="none" stroke="black" d="M924.49,-229.24C899.11,-215.62 865.91,-197.8 836.82,-182.19"/>
<polygon fill="black" stroke="black" points="838.52,-179.13 828.05,-177.49 835.21,-185.3 838.52,-179.13"/>
<text text-anchor="middle" x="897.12" y="-198.24" font-family="Times,serif" font-size="14.00">Ja</text>
</g>
<!-- 5 -->
<g id="node10" class="node">
<title>5</title>
<path fill="#7aab8a" stroke="black" d="M1506.01,-163.53C1506.01,-163.53 980.72,-163.53 980.72,-163.53 974.72,-163.53 968.72,-157.53 968.72,-151.53 968.72,-151.53 968.72,-139.53 968.72,-139.53 968.72,-133.53 974.72,-127.53 980.72,-127.53 980.72,-127.53 1506.01,-127.53 1506.01,-127.53 1512.01,-127.53 1518.01,-133.53 1518.01,-139.53 1518.01,-139.53 1518.01,-151.53 1518.01,-151.53 1518.01,-157.53 1512.01,-163.53 1506.01,-163.53"/>
<text text-anchor="start" x="983.12" y="-141.85" font-family="Times,serif" font-weight="bold" font-size="14.00">5: </text>
<text text-anchor="start" x="1002.62" y="-141.85" font-family="Times,serif" font-size="14.00">Ist die Stornierung vor der Durchf&#252;hrung der Sperrung eingegangen?</text>
</g>
<!-- 4&#45;&gt;5 -->
<g id="edge9" class="edge">
<title>4-&gt;5</title>
<path fill="none" stroke="black" d="M1023.98,-229.11C1071.87,-211.09 1139.14,-185.76 1186.53,-167.92"/>
<polygon fill="black" stroke="black" points="1187.69,-171.23 1195.81,-164.43 1185.22,-164.68 1187.69,-171.23"/>
<text text-anchor="middle" x="1129.24" y="-198.24" font-family="Times,serif" font-size="14.00">Nein</text>
</g>
<!-- A04 -->
<g id="node11" class="node">
<title>A04</title>
<polygon fill="#cfb986" stroke="black" points="1111.73,-61.52 797,-61.52 797,0 1111.73,0 1111.73,-61.52"/>
<text text-anchor="start" x="939.37" y="-43.46" font-family="Times,serif" font-weight="bold" font-size="14.00">A04</text>
<text text-anchor="start" x="809.24" y="-31.36" font-family="Times,serif" text-decoration="underline" font-size="12.00">Hinweis:</text>
<text text-anchor="start" x="809.24" y="-19.36" font-family="Times,serif" font-size="12.00">Cluster: Zustimmung</text>
<text text-anchor="start" x="809.24" y="-7.36" font-family="Times,serif" font-size="12.00">Sperrauftrag ist am Tag der Sperrung storniert.</text>
</g>
<!-- 5&#45;&gt;A04 -->
<g id="edge10" class="edge">
<title>5-&gt;A04</title>
<path fill="none" stroke="black" d="M1198.53,-127.03C1156.92,-110.8 1093.82,-86.18 1042.2,-66.03"/>
<polygon fill="black" stroke="black" points="1043.7,-62.86 1033.11,-62.49 1041.15,-69.38 1043.7,-62.86"/>
<text text-anchor="middle" x="1122.12" y="-83.47" font-family="Times,serif" font-size="14.00">Ja</text>
</g>
<!-- A05 -->
<g id="node12" class="node">
<title>A05</title>
<polygon fill="#cfb986" stroke="black" points="1464.86,-61.52 1129.88,-61.52 1129.88,0 1464.86,0 1464.86,-61.52"/>
<text text-anchor="start" x="1282.37" y="-43.46" font-family="Times,serif" font-weight="bold" font-size="14.00">A05</text>
<text text-anchor="start" x="1142.12" y="-31.36" font-family="Times,serif" text-decoration="underline" font-size="12.00">Hinweis:</text>
<text text-anchor="start" x="1142.12" y="-19.36" font-family="Times,serif" font-size="12.00">Cluster: Ablehnung</text>
<text text-anchor="start" x="1142.12" y="-7.36" font-family="Times,serif" font-size="12.00">Stornierung des Sperrauftrags nicht mehr m&#246;glich.</text>
</g>
<!-- 5&#45;&gt;A05 -->
<g id="edge11" class="edge">
<title>5-&gt;A05</title>
<path fill="none" stroke="black" d="M1251.57,-127.4C1258.59,-112.74 1268.97,-91.05 1278.08,-72.03"/>
<polygon fill="black" stroke="black" points="1281.16,-73.7 1282.33,-63.17 1274.85,-70.67 1281.16,-73.7"/>
<text text-anchor="middle" x="1290.24" y="-83.47" font-family="Times,serif" font-size="14.00">Nein</text>
</g>
</g>
</svg>
  </g>
</svg>
  </g>
</svg>
