<?xml version='1.0' encoding='ASCII' standalone='yes'?>
<svg xmlns="http://www.w3.org/2000/svg" xmlns:xlink="http://www.w3.org/1999/xlink" version="1.1" width="5682.666666666667px" viewBox="0 0 5682.666666666667 1874.6666666666667" height="1874.6666666666667px">
  <g>
    <svg version="1.1" width="5682.666666666667px" viewBox="0 0 5682.666666666667 1874.6666666666667" height="1874.6666666666667px">
  <polygon fill="#f3f1f6" points="0,0 5682.666666666667,0 5682.666666666667,1874.6666666666667 0,1874.6666666666667"/><g>
    <g transform="translate(2092.0228919135893, 187.46666666666664) scale(1 1) translate(0, 0) scale(8.478397178912838 8.478397178912838) "><sodipodi:namedview xmlns:sodipodi="http://sodipodi.sourceforge.net/DTD/sodipodi-0.dtd" xmlns:inkscape="http://www.inkscape.org/namespaces/inkscape" id="namedview7" pagecolor="#ffffff" bordercolor="#999999" borderopacity="1" inkscape:pageshadow="0" inkscape:pageopacity="0" inkscape:pagecheckerboard="0" inkscape:document-units="mm" showgrid="false" fit-margin-top="0" fit-margin-left="0" fit-margin-right="0" fit-margin-bottom="0" inkscape:zoom="0.64052329" inkscape:cx="130.36216" inkscape:cy="412.163" inkscape:window-width="1512" inkscape:window-height="916" inkscape:window-x="3840" inkscape:window-y="136" inkscape:window-maximized="0" inkscape:current-layer="layer1"/>
  <defs id="defs2">
    <clipPath clipPathUnits="userSpaceOnUse" id="clipPath23">
      <path d="M 0,568.156 H 579.236 V 0 H 0 Z" id="path21"/>
    </clipPath>
  </defs>
  <g xmlns:inkscape="http://www.inkscape.org/namespaces/inkscape" inkscape:label="Layer 1" inkscape:groupmode="layer" id="layer1" transform="translate(-16.541937,-55.305267)">
    <g id="g19" clip-path="url(#clipPath23)" transform="matrix(0.35277777,0,0,-0.35277777,0.01017023,243.73675)" style="opacity:0.2">
      <g id="g25" transform="translate(122.444,32.7195)">
        <path d="m 0,0 h -56.104 c -11,0 -19.898,9.123 -19.463,20.115 10.594,267.191 231.277,481.302 501.029,481.302 v -56.02 c 0,-10.98 -8.688,-19.892 -19.658,-20.393 C 180.29,414.697 0,228.005 0,0" style="fill:#6ead83;fill-opacity:1;fill-rule:nonzero;stroke:none" id="path27"/>
      </g>
      <g id="g29" transform="translate(273.7828,32.7195)">
        <path d="m 0,0 h -55.926 c -11.228,0 -20.091,9.482 -19.435,20.69 10.744,183.439 163.389,329.388 349.485,329.388 v -56.263 c 0,-10.709 -8.273,-19.617 -18.957,-20.35 C 112.819,263.696 0,144.774 0,0" style="fill:#6ead83;fill-opacity:1;fill-rule:nonzero;stroke:none" id="path31"/>
      </g>
      <g id="g33" transform="translate(425.7667,32.7195)">
        <path d="m 0,0 h -55.445 c -11.653,0 -20.604,10.17 -19.334,21.753 10.866,99.032 95.031,176.341 196.919,176.341 v -57.011 c 0,-10.046 -7.283,-18.755 -17.229,-20.165 C 45.688,112.522 0,61.497 0,0" style="fill:#6ead83;fill-opacity:1;fill-rule:nonzero;stroke:none" id="path35"/>
      </g>
    </g>
  </g>
</g>
    <svg width="4262pt" height="1406pt" viewBox="0.00 0.00 4262.30 1406.20">
<g id="graph0" class="graph" transform="scale(1 1) rotate(0) translate(4 1402.2)">
<title>D</title>
<text text-anchor="start" x="2103.65" y="-1378.1" font-family="Times,serif" font-weight="bold" font-size="18.00">GPKE</text>
<text text-anchor="start" x="2022.15" y="-1348" font-family="Times,serif" font-weight="bold" font-size="16.00">6.2.1: AD: Lieferende LF an NB</text>
<!-- Start -->
<g id="node1" class="node">
<title>Start</title>
<polygon fill="#7a8da1" stroke="black" points="2047.8,-1300.2 1925,-1300.2 1925,-1256.92 2047.8,-1256.92 2047.8,-1300.2"/>
<text text-anchor="start" x="1964.9" y="-1279.26" font-family="Times,serif" font-weight="bold" font-size="14.00">E_0401</text>
<text text-anchor="start" x="1939.4" y="-1267.16" font-family="Times,serif" font-weight="bold" text-decoration="underline" font-size="12.00">Pr&#252;fende Rolle:</text>
<text text-anchor="start" x="2014.4" y="-1267.16" font-family="Times,serif" font-weight="bold" font-size="12.00"> NB</text>
</g>
<!-- 10 -->
<g id="node2" class="node">
<title>10</title>
<path fill="#7aab8a" stroke="black" d="M2226.3,-1219.92C2226.3,-1219.92 1746.5,-1219.92 1746.5,-1219.92 1740.5,-1219.92 1734.5,-1213.92 1734.5,-1207.92 1734.5,-1207.92 1734.5,-1130.64 1734.5,-1130.64 1734.5,-1124.64 1740.5,-1118.64 1746.5,-1118.64 1746.5,-1118.64 2226.3,-1118.64 2226.3,-1118.64 2232.3,-1118.64 2238.3,-1124.64 2238.3,-1130.64 2238.3,-1130.64 2238.3,-1207.92 2238.3,-1207.92 2238.3,-1213.92 2232.3,-1219.92 2226.3,-1219.92"/>
<text text-anchor="start" x="1748.9" y="-1198.98" font-family="Times,serif" font-weight="bold" font-size="14.00">10: </text>
<text text-anchor="start" x="1768.9" y="-1198.98" font-family="Times,serif" font-size="14.00">Liegt ein Transaktionsgrund vor, der eine Abmeldung nur in die Zukunft zul&#228;sst?</text>
<text text-anchor="start" x="1748.9" y="-1184.98" font-family="Times,serif" font-size="14.00">Das ist bei den folgenden Transaktionsgr&#252;nden der Fall:</text>
<text text-anchor="start" x="1748.9" y="-1170.98" font-family="Times,serif" font-size="14.00">Ende wegen K&#252;ndigung durch LF</text>
<text text-anchor="start" x="1748.9" y="-1156.98" font-family="Times,serif" font-size="14.00">Ende wegen K&#252;ndigung durch Kunde/LFN</text>
<text text-anchor="start" x="1748.9" y="-1142.98" font-family="Times,serif" font-size="14.00">Ende der ESV ohne Folgelieferung</text>
<text text-anchor="start" x="1748.9" y="-1128.98" font-family="Times,serif" font-size="14.00">Aufhebung einer zuk&#252;nftigen Zuordnung wegen aufgehobenem Vertragsverh&#228;ltnis</text>
</g>
<!-- Start&#45;&gt;10 -->
<g id="edge1" class="edge">
<title>Start-&gt;10</title>
<path fill="none" stroke="black" d="M1986.4,-1256.62C1986.4,-1249.08 1986.4,-1240.15 1986.4,-1230.94"/>
<polygon fill="black" stroke="black" points="1989.9,-1231.06 1986.4,-1221.06 1982.9,-1231.06 1989.9,-1231.06"/>
</g>
<!-- 20 -->
<g id="node3" class="node">
<title>20</title>
<path fill="#7aab8a" stroke="black" d="M2810.8,-977.04C2810.8,-977.04 1894,-977.04 1894,-977.04 1888,-977.04 1882,-971.04 1882,-965.04 1882,-965.04 1882,-915.76 1882,-915.76 1882,-909.76 1888,-903.76 1894,-903.76 1894,-903.76 2810.8,-903.76 2810.8,-903.76 2816.8,-903.76 2822.8,-909.76 2822.8,-915.76 2822.8,-915.76 2822.8,-965.04 2822.8,-965.04 2822.8,-971.04 2816.8,-977.04 2810.8,-977.04"/>
<text text-anchor="start" x="1896.4" y="-956.1" font-family="Times,serif" font-weight="bold" font-size="14.00">20: </text>
<text text-anchor="start" x="1917.4" y="-956.1" font-family="Times,serif" font-size="14.00">Liegt ein Transaktionsgrund vor, welcher mitteilt, dass der Kunde vor Lieferbeginn ausgezogen ist, bzw. die Marktlokation vor Lieferbeginn stillgelegt wurde?</text>
<text text-anchor="start" x="1896.4" y="-942.1" font-family="Times,serif" font-size="14.00">Das ist bei den folgenden Transaktionsgr&#252;nden der Fall:</text>
<text text-anchor="start" x="1896.4" y="-928.1" font-family="Times,serif" font-size="14.00">Aufhebung einer zuk&#252;nftigen Zuordnung wegen Auszug des Kunden</text>
<text text-anchor="start" x="1896.4" y="-914.1" font-family="Times,serif" font-size="14.00">Aufhebung einer zuk&#252;nftigen Zuordnung wegen Stilllegung</text>
</g>
<!-- 10&#45;&gt;20 -->
<g id="edge3" class="edge">
<title>10-&gt;20</title>
<path fill="none" stroke="black" d="M2067.17,-1118.21C2132.55,-1077.68 2223.56,-1021.27 2285.05,-983.15"/>
<polygon fill="black" stroke="black" points="2286.62,-985.67 2293.28,-977.43 2282.93,-979.72 2286.62,-985.67"/>
<text text-anchor="middle" x="2219.9" y="-1042.94" font-family="Times,serif" font-size="14.00">Nein</text>
</g>
<!-- 40 -->
<g id="node6" class="node">
<title>40</title>
<path fill="#7aab8a" stroke="black" d="M1828.3,-1065.84C1828.3,-1065.84 1412.5,-1065.84 1412.5,-1065.84 1406.5,-1065.84 1400.5,-1059.84 1400.5,-1053.84 1400.5,-1053.84 1400.5,-1041.84 1400.5,-1041.84 1400.5,-1035.84 1406.5,-1029.84 1412.5,-1029.84 1412.5,-1029.84 1828.3,-1029.84 1828.3,-1029.84 1834.3,-1029.84 1840.3,-1035.84 1840.3,-1041.84 1840.3,-1041.84 1840.3,-1053.84 1840.3,-1053.84 1840.3,-1059.84 1834.3,-1065.84 1828.3,-1065.84"/>
<text text-anchor="start" x="1414.9" y="-1043.94" font-family="Times,serif" font-weight="bold" font-size="14.00">40: </text>
<text text-anchor="start" x="1435.9" y="-1043.94" font-family="Times,serif" font-size="14.00">Liegt das Eingangsdatum mindestens 6 WT vor dem Abmeldedatum?</text>
</g>
<!-- 10&#45;&gt;40 -->
<g id="edge2" class="edge">
<title>10-&gt;40</title>
<path fill="none" stroke="black" d="M1832.77,-1118.15C1780.77,-1101.17 1725.51,-1083.14 1684.4,-1069.72"/>
<polygon fill="black" stroke="black" points="1685.59,-1066.1 1674.99,-1066.33 1683.41,-1072.76 1685.59,-1066.1"/>
<text text-anchor="middle" x="1776.9" y="-1087.34" font-family="Times,serif" font-size="14.00">Ja</text>
</g>
<!-- 30 -->
<g id="node4" class="node">
<title>30</title>
<path fill="#7aab8a" stroke="black" d="M2621.3,-839.32C2621.3,-839.32 2083.5,-839.32 2083.5,-839.32 2077.5,-839.32 2071.5,-833.32 2071.5,-827.32 2071.5,-827.32 2071.5,-815.32 2071.5,-815.32 2071.5,-809.32 2077.5,-803.32 2083.5,-803.32 2083.5,-803.32 2621.3,-803.32 2621.3,-803.32 2627.3,-803.32 2633.3,-809.32 2633.3,-815.32 2633.3,-815.32 2633.3,-827.32 2633.3,-827.32 2633.3,-833.32 2627.3,-839.32 2621.3,-839.32"/>
<text text-anchor="start" x="2085.9" y="-817.42" font-family="Times,serif" font-weight="bold" font-size="14.00">30: </text>
<text text-anchor="start" x="2106.9" y="-817.42" font-family="Times,serif" font-size="14.00">Liegt das Abmeldedatum mindestens einen Tag nach dem Eingangsdatum der Abmeldung?</text>
</g>
<!-- 20&#45;&gt;30 -->
<g id="edge4" class="edge">
<title>20-&gt;30</title>
<path fill="none" stroke="black" d="M2352.4,-903.32C2352.4,-886.23 2352.4,-866.14 2352.4,-850.24"/>
<polygon fill="black" stroke="black" points="2355.9,-850.51 2352.4,-840.51 2348.9,-850.51 2355.9,-850.51"/>
<text text-anchor="middle" x="2357.9" y="-872.46" font-family="Times,serif" font-size="14.00">Ja</text>
</g>
<!-- 80 -->
<g id="node12" class="node">
<title>80</title>
<path fill="#7aab8a" stroke="black" d="M3766.8,-839.32C3766.8,-839.32 2808,-839.32 2808,-839.32 2802,-839.32 2796,-833.32 2796,-827.32 2796,-827.32 2796,-815.32 2796,-815.32 2796,-809.32 2802,-803.32 2808,-803.32 2808,-803.32 3766.8,-803.32 3766.8,-803.32 3772.8,-803.32 3778.8,-809.32 3778.8,-815.32 3778.8,-815.32 3778.8,-827.32 3778.8,-827.32 3778.8,-833.32 3772.8,-839.32 3766.8,-839.32"/>
<text text-anchor="start" x="2810.4" y="-817.42" font-family="Times,serif" font-weight="bold" font-size="14.00">80: </text>
<text text-anchor="start" x="2831.4" y="-817.42" font-family="Times,serif" font-size="14.00">Handelt es sich um eine Marktlokation, deren Mess-lokationen vollst&#228;ndig mit iMS ausgestattet sind oder/und deren Prognosegrundlage auf Basis von Werten erfolgt?</text>
</g>
<!-- 20&#45;&gt;80 -->
<g id="edge5" class="edge">
<title>20-&gt;80</title>
<path fill="none" stroke="black" d="M2640.88,-903.28C2804.9,-882.74 3003.56,-857.86 3137,-841.15"/>
<polygon fill="black" stroke="black" points="3137.21,-844.53 3146.7,-839.81 3136.34,-837.58 3137.21,-844.53"/>
<text text-anchor="middle" x="2917.9" y="-872.46" font-family="Times,serif" font-size="14.00">Nein</text>
</g>
<!-- A01 -->
<g id="node5" class="node">
<title>A01</title>
<polygon fill="#cfb986" stroke="black" points="2988.64,-738.88 2486.16,-738.88 2486.16,-677.36 2988.64,-677.36 2988.64,-738.88"/>
<text text-anchor="start" x="2725.4" y="-720.82" font-family="Times,serif" font-weight="bold" font-size="14.00">A01</text>
<text text-anchor="start" x="2498.4" y="-708.72" font-family="Times,serif" text-decoration="underline" font-size="12.00">Hinweis:</text>
<text text-anchor="start" x="2498.4" y="-696.72" font-family="Times,serif" font-size="12.00">Cluster: Ablehnung</text>
<text text-anchor="start" x="2498.4" y="-684.72" font-family="Times,serif" font-size="12.00">Frist&#252;berschreitung bei Aufhebung einer zu-k&#252;nftigen Zuordnung wegen Auszug oder Still-legung.</text>
</g>
<!-- 30&#45;&gt;A01 -->
<g id="edge6" class="edge">
<title>30-&gt;A01</title>
<path fill="none" stroke="black" d="M2412.98,-802.82C2468.97,-786.65 2553.66,-762.19 2622.47,-742.31"/>
<polygon fill="black" stroke="black" points="2623.3,-745.43 2631.94,-739.29 2621.36,-738.7 2623.3,-745.43"/>
<text text-anchor="middle" x="2581.9" y="-760.38" font-family="Times,serif" font-size="14.00">Nein</text>
</g>
<!-- 110 -->
<g id="node17" class="node">
<title>110</title>
<path fill="#7aab8a" stroke="black" d="M876.8,-726.12C876.8,-726.12 12,-726.12 12,-726.12 6,-726.12 0,-720.12 0,-714.12 0,-714.12 0,-702.12 0,-702.12 0,-696.12 6,-690.12 12,-690.12 12,-690.12 876.8,-690.12 876.8,-690.12 882.8,-690.12 888.8,-696.12 888.8,-702.12 888.8,-702.12 888.8,-714.12 888.8,-714.12 888.8,-720.12 882.8,-726.12 876.8,-726.12"/>
<text text-anchor="start" x="14.4" y="-704.22" font-family="Times,serif" font-weight="bold" font-size="14.00">110: </text>
<text text-anchor="start" x="41.4" y="-704.22" font-family="Times,serif" font-size="14.00">Erfolgt die Aufhebung einer zuk&#252;nftigen Zuordnung zu dem gleichen Datum (Zeitpunkt), welcher dem Lieferanten im Lieferbeginn best&#228;tigt wurde?</text>
</g>
<!-- 30&#45;&gt;110 -->
<g id="edge7" class="edge">
<title>30-&gt;110</title>
<path fill="none" stroke="black" d="M2136.35,-802.82C1953.92,-788.6 1685.72,-768.97 1451.4,-756.88 1207.59,-744.3 1146.24,-750.8 902.4,-738.88 837.47,-735.71 767.41,-731.53 702.08,-727.32"/>
<polygon fill="black" stroke="black" points="702.43,-723.77 692.22,-726.62 701.97,-730.76 702.43,-723.77"/>
<text text-anchor="middle" x="1729.9" y="-760.38" font-family="Times,serif" font-size="14.00">Ja</text>
</g>
<!-- A02 -->
<g id="node7" class="node">
<title>A02</title>
<polygon fill="#cfb986" stroke="black" points="1828.14,-971.16 1412.66,-971.16 1412.66,-909.64 1828.14,-909.64 1828.14,-971.16"/>
<text text-anchor="start" x="1608.4" y="-953.1" font-family="Times,serif" font-weight="bold" font-size="14.00">A02</text>
<text text-anchor="start" x="1424.9" y="-941" font-family="Times,serif" text-decoration="underline" font-size="12.00">Hinweis:</text>
<text text-anchor="start" x="1424.9" y="-929" font-family="Times,serif" font-size="12.00">Cluster: Ablehnung</text>
<text text-anchor="start" x="1424.9" y="-917" font-family="Times,serif" font-size="12.00">Frist&#252;berschreitung bei Transaktionsgr&#252;nden f&#252;r eine Abmeldung in der Zukunft.</text>
</g>
<!-- 40&#45;&gt;A02 -->
<g id="edge8" class="edge">
<title>40-&gt;A02</title>
<path fill="none" stroke="black" d="M1620.4,-1029.43C1620.4,-1016.69 1620.4,-998.87 1620.4,-982.59"/>
<polygon fill="black" stroke="black" points="1623.9,-982.64 1620.4,-972.64 1616.9,-982.64 1623.9,-982.64"/>
<text text-anchor="middle" x="1633.9" y="-998.54" font-family="Times,serif" font-size="14.00">Nein</text>
</g>
<!-- 50 -->
<g id="node8" class="node">
<title>50</title>
<path fill="#7aab8a" stroke="black" d="M1310.8,-970.04C1310.8,-970.04 844,-970.04 844,-970.04 838,-970.04 832,-964.04 832,-958.04 832,-958.04 832,-922.76 832,-922.76 832,-916.76 838,-910.76 844,-910.76 844,-910.76 1310.8,-910.76 1310.8,-910.76 1316.8,-910.76 1322.8,-916.76 1322.8,-922.76 1322.8,-922.76 1322.8,-958.04 1322.8,-958.04 1322.8,-964.04 1316.8,-970.04 1310.8,-970.04"/>
<text text-anchor="start" x="846.4" y="-949.1" font-family="Times,serif" font-weight="bold" font-size="14.00">50: </text>
<text text-anchor="start" x="867.4" y="-949.1" font-family="Times,serif" font-size="14.00">Liegt der Transaktionsgrund </text>
<text text-anchor="start" x="846.4" y="-935.1" font-family="Times,serif" font-size="14.00">Aufhebung einer zuk&#252;nftigen Zuordnung wegen aufgehobenem Vertragsverh&#228;ltnis</text>
<text text-anchor="start" x="846.4" y="-921.1" font-family="Times,serif" font-size="14.00">vor?</text>
</g>
<!-- 40&#45;&gt;50 -->
<g id="edge9" class="edge">
<title>40-&gt;50</title>
<path fill="none" stroke="black" d="M1530.43,-1029.37C1451.05,-1013.96 1333.46,-991.12 1237.97,-972.58"/>
<polygon fill="black" stroke="black" points="1238.81,-968.98 1228.33,-970.51 1237.48,-975.86 1238.81,-968.98"/>
<text text-anchor="middle" x="1434.9" y="-998.54" font-family="Times,serif" font-size="14.00">Ja</text>
</g>
<!-- 60 -->
<g id="node9" class="node">
<title>60</title>
<path fill="#7aab8a" stroke="black" d="M1177.8,-850.96C1177.8,-850.96 977,-850.96 977,-850.96 971,-850.96 965,-844.96 965,-838.96 965,-838.96 965,-803.68 965,-803.68 965,-797.68 971,-791.68 977,-791.68 977,-791.68 1177.8,-791.68 1177.8,-791.68 1183.8,-791.68 1189.8,-797.68 1189.8,-803.68 1189.8,-803.68 1189.8,-838.96 1189.8,-838.96 1189.8,-844.96 1183.8,-850.96 1177.8,-850.96"/>
<text text-anchor="start" x="979.4" y="-830.02" font-family="Times,serif" font-weight="bold" font-size="14.00">60: </text>
<text text-anchor="start" x="1000.4" y="-830.02" font-family="Times,serif" font-size="14.00">Liegt der Transaktionsgrund </text>
<text text-anchor="start" x="979.4" y="-816.02" font-family="Times,serif" font-size="14.00">Ende der ESV ohne Folgelieferung</text>
<text text-anchor="start" x="979.4" y="-802.02" font-family="Times,serif" font-size="14.00">vor?</text>
</g>
<!-- 50&#45;&gt;60 -->
<g id="edge11" class="edge">
<title>50-&gt;60</title>
<path fill="none" stroke="black" d="M1077.4,-910.46C1077.4,-895.82 1077.4,-877.84 1077.4,-861.94"/>
<polygon fill="black" stroke="black" points="1080.9,-862.33 1077.4,-852.33 1073.9,-862.33 1080.9,-862.33"/>
<text text-anchor="middle" x="1090.9" y="-872.46" font-family="Times,serif" font-size="14.00">Nein</text>
</g>
<!-- 50&#45;&gt;110 -->
<g id="edge10" class="edge">
<title>50-&gt;110</title>
<path fill="none" stroke="black" d="M997.55,-910.35C868.31,-863.33 616.31,-771.66 502.57,-730.28"/>
<polygon fill="black" stroke="black" points="503.92,-726.69 493.33,-726.56 501.53,-733.26 503.92,-726.69"/>
<text text-anchor="middle" x="839.9" y="-816.42" font-family="Times,serif" font-size="14.00">Ja</text>
</g>
<!-- 70 -->
<g id="node10" class="node">
<title>70</title>
<path fill="#7aab8a" stroke="black" d="M2455.8,-737.76C2455.8,-737.76 981,-737.76 981,-737.76 975,-737.76 969,-731.76 969,-725.76 969,-725.76 969,-690.48 969,-690.48 969,-684.48 975,-678.48 981,-678.48 981,-678.48 2455.8,-678.48 2455.8,-678.48 2461.8,-678.48 2467.8,-684.48 2467.8,-690.48 2467.8,-690.48 2467.8,-725.76 2467.8,-725.76 2467.8,-731.76 2461.8,-737.76 2455.8,-737.76"/>
<text text-anchor="start" x="983.4" y="-716.82" font-family="Times,serif" font-weight="bold" font-size="14.00">70: </text>
<text text-anchor="start" x="1004.4" y="-716.82" font-family="Times,serif" font-size="14.00">Gab es an dieser Marktlokation eine best&#228;tigte Anmeldung zur Ersatz- Grundversorgung mit einem Lieferbeginnzeitpunkt, welcher innerhalb 3 Monaten vom Endezeitpunkt der Belieferung aus dieser Abmeldung begonnen hat?</text>
<text text-anchor="start" x="983.4" y="-702.82" font-family="Times,serif" font-size="14.00">Hinweis: </text>
<text text-anchor="start" x="983.4" y="-688.82" font-family="Times,serif" font-size="14.00">Eine Lieferende mit dem Grund &#8222;Ende der ESV ohne Folgelieferung&#8220; kann nur in dem Fall vorliegen, wenn diese Marktlokation innerhalb der letzten 3 Monate auch &#252;ber den Use-Case &#8222;Beginn der Ersatz-/Grundversorgung&#8220; vom NB beim LF angemeldet wurde.</text>
</g>
<!-- 60&#45;&gt;70 -->
<g id="edge12" class="edge">
<title>60-&gt;70</title>
<path fill="none" stroke="black" d="M1190.15,-800.76C1286.81,-783.99 1427.77,-759.54 1539.77,-740.11"/>
<polygon fill="black" stroke="black" points="1540.26,-743.4 1549.51,-738.24 1539.06,-736.51 1540.26,-743.4"/>
<text text-anchor="middle" x="1441.9" y="-760.38" font-family="Times,serif" font-size="14.00">Ja</text>
</g>
<!-- 120 -->
<g id="node19" class="node">
<title>120</title>
<path fill="#7aab8a" stroke="black" d="M2043.8,-624.56C2043.8,-624.56 989,-624.56 989,-624.56 983,-624.56 977,-618.56 977,-612.56 977,-612.56 977,-563.28 977,-563.28 977,-557.28 983,-551.28 989,-551.28 989,-551.28 2043.8,-551.28 2043.8,-551.28 2049.8,-551.28 2055.8,-557.28 2055.8,-563.28 2055.8,-563.28 2055.8,-612.56 2055.8,-612.56 2055.8,-618.56 2049.8,-624.56 2043.8,-624.56"/>
<text text-anchor="start" x="991.4" y="-603.62" font-family="Times,serif" font-weight="bold" font-size="14.00">120: </text>
<text text-anchor="start" x="1018.4" y="-603.62" font-family="Times,serif" font-size="14.00">Wurde die Zuordnung des anfragenden Lieferanten zur Marktlokation zum identischen Abmeldedatum bereits durch eine Best&#228;tigung in den folgenden Prozessschritten beendet? Fall:</text>
<text text-anchor="start" x="991.4" y="-589.62" font-family="Times,serif" font-size="14.00">SD: Lieferende von LF an NB, Prozessschritt 2 "Antwort auf Abmeldung"</text>
<text text-anchor="start" x="991.4" y="-575.62" font-family="Times,serif" font-size="14.00">SD: Lieferende von NB an LF, Prozessschritt 2 "Antwort auf Abmeldung"</text>
<text text-anchor="start" x="991.4" y="-561.62" font-family="Times,serif" font-size="14.00">SD: Lieferbeginn, Prozessschritt 4 "Beantwortung der Abmeldeanfrage" oder die Best&#228;tigung erfolgt durch die Fristverstreichung</text>
</g>
<!-- 60&#45;&gt;120 -->
<g id="edge13" class="edge">
<title>60-&gt;120</title>
<path fill="none" stroke="black" d="M992.97,-791.38C969.54,-779.01 946.86,-761.95 933.4,-738.88 919.62,-715.26 915.57,-698.09 933.4,-677.36 951.63,-656.16 988.61,-639.98 1035.52,-627.65"/>
<polygon fill="black" stroke="black" points="1036.17,-630.84 1045.01,-624.99 1034.45,-624.05 1036.17,-630.84"/>
<text text-anchor="middle" x="946.9" y="-703.22" font-family="Times,serif" font-size="14.00">Nein</text>
</g>
<!-- A11 -->
<g id="node11" class="node">
<title>A11</title>
<polygon fill="#cfb986" stroke="black" points="2923.14,-618.68 2073.66,-618.68 2073.66,-557.16 2923.14,-557.16 2923.14,-618.68"/>
<text text-anchor="start" x="2486.4" y="-600.62" font-family="Times,serif" font-weight="bold" font-size="14.00">A11</text>
<text text-anchor="start" x="2085.9" y="-588.52" font-family="Times,serif" text-decoration="underline" font-size="12.00">Hinweis:</text>
<text text-anchor="start" x="2085.9" y="-576.52" font-family="Times,serif" font-size="12.00">Cluster: Ablehnung</text>
<text text-anchor="start" x="2085.9" y="-564.52" font-family="Times,serif" font-size="12.00">Die Marklokation wurde nicht innerhalb der letzten 3 Monate zur Ersatz-/ Grundversorgung angemeldet. Somit kann es sich nicht um eine Beendigung einer ESV handeln.</text>
</g>
<!-- 70&#45;&gt;A11 -->
<g id="edge14" class="edge">
<title>70-&gt;A11</title>
<path fill="none" stroke="black" d="M1987.52,-677.99C2032.95,-672.33 2079.57,-666.05 2123.4,-659.36 2194.73,-648.47 2273.24,-634.09 2339.92,-621.17"/>
<polygon fill="black" stroke="black" points="2340.37,-624.45 2349.52,-619.11 2339.03,-617.58 2340.37,-624.45"/>
<text text-anchor="middle" x="2229.9" y="-646.06" font-family="Times,serif" font-size="14.00">Nein</text>
</g>
<!-- 70&#45;&gt;120 -->
<g id="edge15" class="edge">
<title>70-&gt;120</title>
<path fill="none" stroke="black" d="M1668.73,-678.05C1644.17,-663.68 1614.1,-646.09 1587.18,-630.34"/>
<polygon fill="black" stroke="black" points="1589.21,-626.88 1578.81,-624.85 1585.67,-632.92 1589.21,-626.88"/>
<text text-anchor="middle" x="1641.9" y="-646.06" font-family="Times,serif" font-size="14.00">Ja</text>
</g>
<!-- 90 -->
<g id="node13" class="node">
<title>90</title>
<path fill="#7aab8a" stroke="black" d="M3556.3,-726.12C3556.3,-726.12 3018.5,-726.12 3018.5,-726.12 3012.5,-726.12 3006.5,-720.12 3006.5,-714.12 3006.5,-714.12 3006.5,-702.12 3006.5,-702.12 3006.5,-696.12 3012.5,-690.12 3018.5,-690.12 3018.5,-690.12 3556.3,-690.12 3556.3,-690.12 3562.3,-690.12 3568.3,-696.12 3568.3,-702.12 3568.3,-702.12 3568.3,-714.12 3568.3,-714.12 3568.3,-720.12 3562.3,-726.12 3556.3,-726.12"/>
<text text-anchor="start" x="3020.9" y="-704.22" font-family="Times,serif" font-weight="bold" font-size="14.00">90: </text>
<text text-anchor="start" x="3041.9" y="-704.22" font-family="Times,serif" font-size="14.00">Liegt das Abmeldedatum mindestens einen Tag nach dem Eingangsdatum der Abmeldung?</text>
</g>
<!-- 80&#45;&gt;90 -->
<g id="edge16" class="edge">
<title>80-&gt;90</title>
<path fill="none" stroke="black" d="M3287.4,-802.94C3287.4,-785.4 3287.4,-758.01 3287.4,-737.35"/>
<polygon fill="black" stroke="black" points="3290.9,-737.37 3287.4,-727.37 3283.9,-737.37 3290.9,-737.37"/>
<text text-anchor="middle" x="3292.9" y="-760.38" font-family="Times,serif" font-size="14.00">Ja</text>
</g>
<!-- 100 -->
<g id="node15" class="node">
<title>100</title>
<path fill="#7aab8a" stroke="black" d="M4242.3,-726.12C4242.3,-726.12 3598.5,-726.12 3598.5,-726.12 3592.5,-726.12 3586.5,-720.12 3586.5,-714.12 3586.5,-714.12 3586.5,-702.12 3586.5,-702.12 3586.5,-696.12 3592.5,-690.12 3598.5,-690.12 3598.5,-690.12 4242.3,-690.12 4242.3,-690.12 4248.3,-690.12 4254.3,-696.12 4254.3,-702.12 4254.3,-702.12 4254.3,-714.12 4254.3,-714.12 4254.3,-720.12 4248.3,-726.12 4242.3,-726.12"/>
<text text-anchor="start" x="3600.9" y="-704.22" font-family="Times,serif" font-weight="bold" font-size="14.00">100: </text>
<text text-anchor="start" x="3627.9" y="-704.22" font-family="Times,serif" font-size="14.00">Liegt das Eingangsdatum der Abmeldung mehr als sechs Wochen nach dem Abmeldedatum der Abmeldung?</text>
</g>
<!-- 80&#45;&gt;100 -->
<g id="edge17" class="edge">
<title>80-&gt;100</title>
<path fill="none" stroke="black" d="M3387,-802.82C3502.08,-782.61 3690.87,-749.44 3810.24,-728.47"/>
<polygon fill="black" stroke="black" points="3810.61,-731.78 3819.86,-726.61 3809.4,-724.89 3810.61,-731.78"/>
<text text-anchor="middle" x="3654.9" y="-760.38" font-family="Times,serif" font-size="14.00">Nein</text>
</g>
<!-- A03 -->
<g id="node14" class="node">
<title>A03</title>
<polygon fill="#cfb986" stroke="black" points="3436.14,-618.68 3138.66,-618.68 3138.66,-557.16 3436.14,-557.16 3436.14,-618.68"/>
<text text-anchor="start" x="3275.4" y="-600.62" font-family="Times,serif" font-weight="bold" font-size="14.00">A03</text>
<text text-anchor="start" x="3150.9" y="-588.52" font-family="Times,serif" text-decoration="underline" font-size="12.00">Hinweis:</text>
<text text-anchor="start" x="3150.9" y="-576.52" font-family="Times,serif" font-size="12.00">Cluster: Ablehnung</text>
<text text-anchor="start" x="3150.9" y="-564.52" font-family="Times,serif" font-size="12.00">Eingangsfrist bei iMS/kME mit RLM nicht ein-gehalten.</text>
</g>
<!-- 90&#45;&gt;A03 -->
<g id="edge18" class="edge">
<title>90-&gt;A03</title>
<path fill="none" stroke="black" d="M3287.4,-689.68C3287.4,-673.97 3287.4,-650.26 3287.4,-629.79"/>
<polygon fill="black" stroke="black" points="3290.9,-629.82 3287.4,-619.82 3283.9,-629.82 3290.9,-629.82"/>
<text text-anchor="middle" x="3300.9" y="-646.06" font-family="Times,serif" font-size="14.00">Nein</text>
</g>
<!-- 90&#45;&gt;120 -->
<g id="edge19" class="edge">
<title>90-&gt;120</title>
<path fill="none" stroke="black" d="M3140.06,-689.64C3094.4,-684.86 3043.88,-680.21 2997.4,-677.36 2602.95,-653.17 2502.64,-686.74 2108.4,-659.36 2001.94,-651.97 1885.21,-639.1 1783.75,-626.37"/>
<polygon fill="black" stroke="black" points="1784.4,-622.8 1774.04,-625.02 1783.52,-629.75 1784.4,-622.8"/>
<text text-anchor="middle" x="2113.9" y="-646.06" font-family="Times,serif" font-size="14.00">Ja</text>
</g>
<!-- A04 -->
<g id="node16" class="node">
<title>A04</title>
<polygon fill="#cfb986" stroke="black" points="4086.14,-618.68 3754.66,-618.68 3754.66,-557.16 4086.14,-557.16 4086.14,-618.68"/>
<text text-anchor="start" x="3908.4" y="-600.62" font-family="Times,serif" font-weight="bold" font-size="14.00">A04</text>
<text text-anchor="start" x="3766.9" y="-588.52" font-family="Times,serif" text-decoration="underline" font-size="12.00">Hinweis:</text>
<text text-anchor="start" x="3766.9" y="-576.52" font-family="Times,serif" font-size="12.00">Cluster: Ablehnung</text>
<text text-anchor="start" x="3766.9" y="-564.52" font-family="Times,serif" font-size="12.00">Frist&#252;berschreitung bei kME ohne RLM/mME/ Pauschalanlage.</text>
</g>
<!-- 100&#45;&gt;A04 -->
<g id="edge20" class="edge">
<title>100-&gt;A04</title>
<path fill="none" stroke="black" d="M3920.4,-689.68C3920.4,-673.97 3920.4,-650.26 3920.4,-629.79"/>
<polygon fill="black" stroke="black" points="3923.9,-629.82 3920.4,-619.82 3916.9,-629.82 3923.9,-629.82"/>
<text text-anchor="middle" x="3925.9" y="-646.06" font-family="Times,serif" font-size="14.00">Ja</text>
</g>
<!-- 100&#45;&gt;120 -->
<g id="edge21" class="edge">
<title>100-&gt;120</title>
<path fill="none" stroke="black" d="M3790.05,-689.62C3668.31,-674.12 3481.42,-652.45 3318.4,-642.56 2765.56,-609.02 2623.16,-646.18 2066.87,-624.65"/>
<polygon fill="black" stroke="black" points="2067.29,-621.12 2057.16,-624.23 2067.02,-628.12 2067.29,-621.12"/>
<text text-anchor="middle" x="3530.9" y="-646.06" font-family="Times,serif" font-size="14.00">Nein</text>
</g>
<!-- A10 -->
<g id="node18" class="node">
<title>A10</title>
<polygon fill="#cfb986" stroke="black" points="760.14,-618.68 128.66,-618.68 128.66,-557.16 760.14,-557.16 760.14,-618.68"/>
<text text-anchor="start" x="432.4" y="-600.62" font-family="Times,serif" font-weight="bold" font-size="14.00">A10</text>
<text text-anchor="start" x="140.9" y="-588.52" font-family="Times,serif" text-decoration="underline" font-size="12.00">Hinweis:</text>
<text text-anchor="start" x="140.9" y="-576.52" font-family="Times,serif" font-size="12.00">Cluster: Ablehnung</text>
<text text-anchor="start" x="140.9" y="-564.52" font-family="Times,serif" font-size="12.00">Die Aufhebung einer zuk&#252;nftigen Zuordnung muss zum Datum (Zeitpunkt) angegeben werden, wie im Lieferbeginn best&#228;tigt.</text>
</g>
<!-- 110&#45;&gt;A10 -->
<g id="edge22" class="edge">
<title>110-&gt;A10</title>
<path fill="none" stroke="black" d="M444.4,-689.68C444.4,-673.97 444.4,-650.26 444.4,-629.79"/>
<polygon fill="black" stroke="black" points="447.9,-629.82 444.4,-619.82 440.9,-629.82 447.9,-629.82"/>
<text text-anchor="middle" x="457.9" y="-646.06" font-family="Times,serif" font-size="14.00">Nein</text>
</g>
<!-- 110&#45;&gt;120 -->
<g id="edge23" class="edge">
<title>110-&gt;120</title>
<path fill="none" stroke="black" d="M555.44,-689.65C647.44,-675.59 781.69,-656.02 899.4,-642.56 950.48,-636.72 1004,-631.19 1057.26,-626.06"/>
<polygon fill="black" stroke="black" points="1057.29,-629.48 1066.91,-625.04 1056.63,-622.51 1057.29,-629.48"/>
<text text-anchor="middle" x="904.9" y="-646.06" font-family="Times,serif" font-size="14.00">Ja</text>
</g>
<!-- A06 -->
<g id="node20" class="node">
<title>A06</title>
<polygon fill="#cfb986" stroke="black" points="1503.14,-403.8 1343.66,-403.8 1343.66,-342.28 1503.14,-342.28 1503.14,-403.8"/>
<text text-anchor="start" x="1411.4" y="-385.74" font-family="Times,serif" font-weight="bold" font-size="14.00">A06</text>
<text text-anchor="start" x="1355.9" y="-373.64" font-family="Times,serif" text-decoration="underline" font-size="12.00">Hinweis:</text>
<text text-anchor="start" x="1355.9" y="-361.64" font-family="Times,serif" font-size="12.00">Cluster: Zustimmung</text>
<text text-anchor="start" x="1355.9" y="-349.64" font-family="Times,serif" font-size="12.00">Best&#228;tigung der Abmeldung</text>
</g>
<!-- 120&#45;&gt;A06 -->
<g id="edge25" class="edge">
<title>120-&gt;A06</title>
<path fill="none" stroke="black" d="M1471.25,-550.86C1456.23,-536.29 1441.13,-518.24 1432.4,-498.48 1420.81,-472.25 1418.8,-439.86 1419.56,-414.7"/>
<polygon fill="black" stroke="black" points="1423.09,-415.21 1420.06,-405.05 1416.1,-414.88 1423.09,-415.21"/>
<text text-anchor="middle" x="1445.9" y="-475.58" font-family="Times,serif" font-size="14.00">Nein</text>
</g>
<!-- 130 -->
<g id="node21" class="node">
<title>130</title>
<path fill="#7aab8a" stroke="black" d="M2044.3,-498.48C2044.3,-498.48 1480.5,-498.48 1480.5,-498.48 1474.5,-498.48 1468.5,-492.48 1468.5,-486.48 1468.5,-486.48 1468.5,-474.48 1468.5,-474.48 1468.5,-468.48 1474.5,-462.48 1480.5,-462.48 1480.5,-462.48 2044.3,-462.48 2044.3,-462.48 2050.3,-462.48 2056.3,-468.48 2056.3,-474.48 2056.3,-474.48 2056.3,-486.48 2056.3,-486.48 2056.3,-492.48 2050.3,-498.48 2044.3,-498.48"/>
<text text-anchor="start" x="1482.9" y="-476.58" font-family="Times,serif" font-weight="bold" font-size="14.00">130: </text>
<text text-anchor="start" x="1509.9" y="-476.58" font-family="Times,serif" font-size="14.00">Ist der anfragende LF am Folgetag des Abmeldungsdatum der Marktlokation noch zugeordnet?</text>
</g>
<!-- 120&#45;&gt;130 -->
<g id="edge24" class="edge">
<title>120-&gt;130</title>
<path fill="none" stroke="black" d="M1600.72,-550.78C1637.61,-534.97 1679.68,-516.93 1711.66,-503.23"/>
<polygon fill="black" stroke="black" points="1712.85,-506.1 1720.66,-498.94 1710.09,-499.66 1712.85,-506.1"/>
<text text-anchor="middle" x="1681.9" y="-519.98" font-family="Times,serif" font-size="14.00">Ja</text>
</g>
<!-- 130&#45;&gt;A06 -->
<g id="edge27" class="edge">
<title>130-&gt;A06</title>
<path fill="none" stroke="black" d="M1692,-462.01C1641.57,-448.96 1572.26,-429.96 1512.4,-409.68 1510.67,-409.09 1508.92,-408.49 1507.16,-407.87"/>
<polygon fill="black" stroke="black" points="1508.58,-404.31 1497.99,-404.22 1506.22,-410.9 1508.58,-404.31"/>
<text text-anchor="middle" x="1626.9" y="-431.18" font-family="Times,serif" font-size="14.00">Ja</text>
</g>
<!-- 140 -->
<g id="node22" class="node">
<title>140</title>
<path fill="#7aab8a" stroke="black" d="M2129.3,-409.68C2129.3,-409.68 1533.5,-409.68 1533.5,-409.68 1527.5,-409.68 1521.5,-403.68 1521.5,-397.68 1521.5,-397.68 1521.5,-348.4 1521.5,-348.4 1521.5,-342.4 1527.5,-336.4 1533.5,-336.4 1533.5,-336.4 2129.3,-336.4 2129.3,-336.4 2135.3,-336.4 2141.3,-342.4 2141.3,-348.4 2141.3,-348.4 2141.3,-397.68 2141.3,-397.68 2141.3,-403.68 2135.3,-409.68 2129.3,-409.68"/>
<text text-anchor="start" x="1535.9" y="-388.74" font-family="Times,serif" font-weight="bold" font-size="14.00">140: </text>
<text text-anchor="start" x="1562.9" y="-388.74" font-family="Times,serif" font-size="14.00">Liegt ein Transaktionsgrund vor, aus welchem hervorgeht, dass der Anschlussnutzer ausgezogen ist?</text>
<text text-anchor="start" x="1535.9" y="-374.74" font-family="Times,serif" font-size="14.00">Das ist bei den folgenden Transaktionsgr&#252;nden der Fall:</text>
<text text-anchor="start" x="1535.9" y="-360.74" font-family="Times,serif" font-size="14.00">Ein-/Auszug (Umzug)</text>
<text text-anchor="start" x="1535.9" y="-346.74" font-family="Times,serif" font-size="14.00">Auszug wegen Stilllegung</text>
</g>
<!-- 130&#45;&gt;140 -->
<g id="edge26" class="edge">
<title>130-&gt;140</title>
<path fill="none" stroke="black" d="M1773.79,-462.07C1781.54,-450.24 1792.15,-434.01 1802.17,-418.71"/>
<polygon fill="black" stroke="black" points="1805.42,-421.14 1807.96,-410.85 1799.56,-417.3 1805.42,-421.14"/>
<text text-anchor="middle" x="1808.9" y="-431.18" font-family="Times,serif" font-size="14.00">Nein</text>
</g>
<!-- A07 -->
<g id="node23" class="node">
<title>A07</title>
<polygon fill="#cfb986" stroke="black" points="1816.14,-235.72 1524.66,-235.72 1524.66,-174.2 1816.14,-174.2 1816.14,-235.72"/>
<text text-anchor="start" x="1658.4" y="-217.66" font-family="Times,serif" font-weight="bold" font-size="14.00">A07</text>
<text text-anchor="start" x="1536.9" y="-205.56" font-family="Times,serif" text-decoration="underline" font-size="12.00">Hinweis:</text>
<text text-anchor="start" x="1536.9" y="-193.56" font-family="Times,serif" font-size="12.00">Cluster: Ablehnung </text>
<text text-anchor="start" x="1536.9" y="-181.56" font-family="Times,serif" font-size="12.00">Lieferende zum Abmeldedatum wurde bereits best&#228;tigt.</text>
</g>
<!-- 140&#45;&gt;A07 -->
<g id="edge28" class="edge">
<title>140-&gt;A07</title>
<path fill="none" stroke="black" d="M1796.47,-336C1770.12,-308.83 1734.06,-271.63 1707.26,-243.98"/>
<polygon fill="black" stroke="black" points="1710.08,-241.84 1700.61,-237.09 1705.06,-246.71 1710.08,-241.84"/>
<text text-anchor="middle" x="1792.9" y="-305.1" font-family="Times,serif" font-size="14.00">Nein</text>
</g>
<!-- 150 -->
<g id="node24" class="node">
<title>150</title>
<path fill="#7aab8a" stroke="black" d="M2684.3,-283.6C2684.3,-283.6 1846.5,-283.6 1846.5,-283.6 1840.5,-283.6 1834.5,-277.6 1834.5,-271.6 1834.5,-271.6 1834.5,-138.32 1834.5,-138.32 1834.5,-132.32 1840.5,-126.32 1846.5,-126.32 1846.5,-126.32 2684.3,-126.32 2684.3,-126.32 2690.3,-126.32 2696.3,-132.32 2696.3,-138.32 2696.3,-138.32 2696.3,-271.6 2696.3,-271.6 2696.3,-277.6 2690.3,-283.6 2684.3,-283.6"/>
<text text-anchor="start" x="1848.9" y="-262.66" font-family="Times,serif" font-weight="bold" font-size="14.00">150: </text>
<text text-anchor="start" x="1875.9" y="-262.66" font-family="Times,serif" font-size="14.00">Liegt in der bereits best&#228;tigten Abmeldung ein Transaktionsgrund vor, aus welchem nicht hervorgeht, dass der Anschlussnutzer ausgezogen ist?</text>
<text text-anchor="start" x="1848.9" y="-248.66" font-family="Times,serif" font-size="14.00">Das ist bei den folgenden Transaktionsgr&#252;nden der Fall:</text>
<text text-anchor="start" x="1848.9" y="-234.66" font-family="Times,serif" font-size="14.00">Ende wegen K&#252;ndigung durch LF</text>
<text text-anchor="start" x="1848.9" y="-220.66" font-family="Times,serif" font-size="14.00">Ende wegen K&#252;ndigung durch Kunde/LFN</text>
<text text-anchor="start" x="1848.9" y="-206.66" font-family="Times,serif" font-size="14.00">Ende der ESV ohne Folgelieferung</text>
<text text-anchor="start" x="1848.9" y="-192.66" font-family="Times,serif" font-size="14.00">Aufhebung einer zuk&#252;nftigen Zuordnung wegen</text>
<text text-anchor="start" x="1848.9" y="-178.66" font-family="Times,serif" font-size="14.00">aufgehobenem Vertragsverh&#228;ltnis</text>
<text text-anchor="start" x="1848.9" y="-164.66" font-family="Times,serif" font-size="14.00">Abmeldung wg. fehl. Zuordnungserm&#228;chtigung</text>
<text text-anchor="start" x="1848.9" y="-150.66" font-family="Times,serif" font-size="14.00">Abmeldung wegen fehl. Zuordnungserm&#228;chtigung aufgrund &#196;nderung ZRT</text>
<text text-anchor="start" x="1848.9" y="-136.66" font-family="Times,serif" font-size="14.00">Lieferbeginn und Abmeldung aus der Ersatzversorgung</text>
</g>
<!-- 140&#45;&gt;150 -->
<g id="edge29" class="edge">
<title>140-&gt;150</title>
<path fill="none" stroke="black" d="M1925.84,-335.9C1963.05,-321.66 2007.41,-304.69 2051.59,-287.78"/>
<polygon fill="black" stroke="black" points="2052.52,-290.79 2060.61,-283.94 2050.02,-284.25 2052.52,-290.79"/>
<text text-anchor="middle" x="2015.9" y="-305.1" font-family="Times,serif" font-size="14.00">Ja</text>
</g>
<!-- A08 -->
<g id="node25" class="node">
<title>A08</title>
<polygon fill="#cfb986" stroke="black" points="2183.14,-67.52 1791.66,-67.52 1791.66,-6 2183.14,-6 2183.14,-67.52"/>
<text text-anchor="start" x="1975.4" y="-49.46" font-family="Times,serif" font-weight="bold" font-size="14.00">A08</text>
<text text-anchor="start" x="1803.9" y="-37.36" font-family="Times,serif" text-decoration="underline" font-size="12.00">Hinweis:</text>
<text text-anchor="start" x="1803.9" y="-25.36" font-family="Times,serif" font-size="12.00">Cluster: Ablehnung </text>
<text text-anchor="start" x="1803.9" y="-13.36" font-family="Times,serif" font-size="12.00">Lieferende zum Abmeldedatum wurde aus gleichem Grund bereits best&#228;tigt.</text>
</g>
<!-- 150&#45;&gt;A08 -->
<g id="edge30" class="edge">
<title>150-&gt;A08</title>
<path fill="none" stroke="black" d="M2134.95,-125.97C2104.16,-107.57 2072.82,-88.83 2046.99,-73.38"/>
<polygon fill="black" stroke="black" points="2049.11,-69.98 2038.73,-67.85 2045.52,-75.98 2049.11,-69.98"/>
<text text-anchor="middle" x="2115.9" y="-95.02" font-family="Times,serif" font-size="14.00">Nein</text>
</g>
<!-- A09 -->
<g id="node26" class="node">
<title>A09</title>
<polygon fill="#cfb986" stroke="black" points="2884.14,-73.52 2200.66,-73.52 2200.66,0 2884.14,0 2884.14,-73.52"/>
<text text-anchor="start" x="2530.4" y="-55.46" font-family="Times,serif" font-weight="bold" font-size="14.00">A09</text>
<text text-anchor="start" x="2212.9" y="-43.36" font-family="Times,serif" text-decoration="underline" font-size="12.00">Hinweis:</text>
<text text-anchor="start" x="2212.9" y="-31.36" font-family="Times,serif" font-size="12.00">Cluster: Zustimmung</text>
<text text-anchor="start" x="2212.9" y="-19.36" font-family="Times,serif" font-size="12.00">Erneute Best&#228;tigung der Abmeldung aufgrund der Information, dass der Anschlussnutzer nicht mehr an der Marktlokation vorhanden ist.</text>
<text text-anchor="start" x="2212.9" y="-7.36" font-family="Times,serif" font-size="12.00">Hinweis: Das bisher best&#228;tigte Bilanzierungsende bleibt unver&#228;ndert bestehen.</text>
</g>
<!-- 150&#45;&gt;A09 -->
<g id="edge31" class="edge">
<title>150-&gt;A09</title>
<path fill="none" stroke="black" d="M2395.38,-125.97C2422.19,-109.89 2449.42,-93.55 2473.04,-79.38"/>
<polygon fill="black" stroke="black" points="2474.47,-82 2481.25,-73.85 2470.87,-76 2474.47,-82"/>
<text text-anchor="middle" x="2450.9" y="-95.02" font-family="Times,serif" font-size="14.00">Ja</text>
</g>
</g>
</svg>
  </g>
</svg>
  </g>
</svg>
