<?xml version='1.0' encoding='ASCII' standalone='yes'?>
<svg xmlns="http://www.w3.org/2000/svg" xmlns:xlink="http://www.w3.org/1999/xlink" version="1.1" width="4232.0px" viewBox="0 0 4232.0 1138.6666666666667" height="1138.6666666666667px">
  <g>
    <svg version="1.1" width="4232.0px" viewBox="0 0 4232.0 1138.6666666666667" height="1138.6666666666667px">
  <polygon fill="#f3f1f6" points="0,0 4232.0,0 4232.0,1138.6666666666667 0,1138.6666666666667"/><g>
    <g transform="translate(1660.8711828076375, 113.86666666666665) scale(1 1) translate(0, 0) scale(5.149751913792008 5.149751913792008) "><sodipodi:namedview xmlns:sodipodi="http://sodipodi.sourceforge.net/DTD/sodipodi-0.dtd" xmlns:inkscape="http://www.inkscape.org/namespaces/inkscape" id="namedview7" pagecolor="#ffffff" bordercolor="#999999" borderopacity="1" inkscape:pageshadow="0" inkscape:pageopacity="0" inkscape:pagecheckerboard="0" inkscape:document-units="mm" showgrid="false" fit-margin-top="0" fit-margin-left="0" fit-margin-right="0" fit-margin-bottom="0" inkscape:zoom="0.64052329" inkscape:cx="130.36216" inkscape:cy="412.163" inkscape:window-width="1512" inkscape:window-height="916" inkscape:window-x="3840" inkscape:window-y="136" inkscape:window-maximized="0" inkscape:current-layer="layer1"/>
  <defs id="defs2">
    <clipPath clipPathUnits="userSpaceOnUse" id="clipPath23">
      <path d="M 0,568.156 H 579.236 V 0 H 0 Z" id="path21"/>
    </clipPath>
  </defs>
  <g xmlns:inkscape="http://www.inkscape.org/namespaces/inkscape" inkscape:label="Layer 1" inkscape:groupmode="layer" id="layer1" transform="translate(-16.541937,-55.305267)">
    <g id="g19" clip-path="url(#clipPath23)" transform="matrix(0.35277777,0,0,-0.35277777,0.01017023,243.73675)" style="opacity:0.2">
      <g id="g25" transform="translate(122.444,32.7195)">
        <path d="m 0,0 h -56.104 c -11,0 -19.898,9.123 -19.463,20.115 10.594,267.191 231.277,481.302 501.029,481.302 v -56.02 c 0,-10.98 -8.688,-19.892 -19.658,-20.393 C 180.29,414.697 0,228.005 0,0" style="fill:#6ead83;fill-opacity:1;fill-rule:nonzero;stroke:none" id="path27"/>
      </g>
      <g id="g29" transform="translate(273.7828,32.7195)">
        <path d="m 0,0 h -55.926 c -11.228,0 -20.091,9.482 -19.435,20.69 10.744,183.439 163.389,329.388 349.485,329.388 v -56.263 c 0,-10.709 -8.273,-19.617 -18.957,-20.35 C 112.819,263.696 0,144.774 0,0" style="fill:#6ead83;fill-opacity:1;fill-rule:nonzero;stroke:none" id="path31"/>
      </g>
      <g id="g33" transform="translate(425.7667,32.7195)">
        <path d="m 0,0 h -55.445 c -11.653,0 -20.604,10.17 -19.334,21.753 10.866,99.032 95.031,176.341 196.919,176.341 v -57.011 c 0,-10.046 -7.283,-18.755 -17.229,-20.165 C 45.688,112.522 0,61.497 0,0" style="fill:#6ead83;fill-opacity:1;fill-rule:nonzero;stroke:none" id="path35"/>
      </g>
    </g>
  </g>
</g>
    <svg width="3174pt" height="854pt" viewBox="0.00 0.00 3173.64 853.88">
<g id="graph0" class="graph" transform="scale(1 1) rotate(0) translate(4 849.88)">
<title>D</title>
<text text-anchor="start" x="1559.32" y="-825.78" font-family="Times,serif" font-weight="bold" font-size="18.00">GPKE</text>
<text text-anchor="start" x="1294.32" y="-795.68" font-family="Times,serif" font-weight="bold" font-size="16.00">6.10.1: AD: Wiederherstellung der Anschlussnutzung (Entsperren) auf Anweisung des LF</text>
<!-- Start -->
<g id="node1" class="node">
<title>Start</title>
<polygon fill="#7a8da1" stroke="black" points="416.8,-747.88 294,-747.88 294,-704.6 416.8,-704.6 416.8,-747.88"/>
<text text-anchor="start" x="333.9" y="-726.94" font-family="Times,serif" font-weight="bold" font-size="14.00">E_0497</text>
<text text-anchor="start" x="308.4" y="-714.84" font-family="Times,serif" font-weight="bold" text-decoration="underline" font-size="12.00">Pr&#252;fende Rolle:</text>
<text text-anchor="start" x="383.4" y="-714.84" font-family="Times,serif" font-weight="bold" font-size="12.00"> NB</text>
</g>
<!-- 1 -->
<g id="node2" class="node">
<title>1</title>
<path fill="#7aab8a" stroke="black" d="M698.8,-667.6C698.8,-667.6 12,-667.6 12,-667.6 6,-667.6 0,-661.6 0,-655.6 0,-655.6 0,-643.6 0,-643.6 0,-637.6 6,-631.6 12,-631.6 12,-631.6 698.8,-631.6 698.8,-631.6 704.8,-631.6 710.8,-637.6 710.8,-643.6 710.8,-643.6 710.8,-655.6 710.8,-655.6 710.8,-661.6 704.8,-667.6 698.8,-667.6"/>
<text text-anchor="start" x="14.4" y="-645.7" font-family="Times,serif" font-weight="bold" font-size="14.00">1: </text>
<text text-anchor="start" x="27.4" y="-645.7" font-family="Times,serif" font-size="14.00">Wurde die Sperrung durch den UC "Unterbrechung der Anschlussnutzung (Sperren) auf Anweisung des LF" ausgel&#246;st?</text>
</g>
<!-- Start&#45;&gt;1 -->
<g id="edge1" class="edge">
<title>Start-&gt;1</title>
<path fill="none" stroke="black" d="M355.4,-704.45C355.4,-696.41 355.4,-687.09 355.4,-678.49"/>
<polygon fill="black" stroke="black" points="358.9,-678.76 355.4,-668.76 351.9,-678.76 358.9,-678.76"/>
</g>
<!-- A05 -->
<g id="node3" class="node">
<title>A05</title>
<polygon fill="#cfb986" stroke="black" points="639.64,-578.8 21.16,-578.8 21.16,-505.28 639.64,-505.28 639.64,-578.8"/>
<text text-anchor="start" x="318.4" y="-560.74" font-family="Times,serif" font-weight="bold" font-size="14.00">A05</text>
<text text-anchor="start" x="33.4" y="-548.64" font-family="Times,serif" text-decoration="underline" font-size="12.00">Hinweis:</text>
<text text-anchor="start" x="33.4" y="-536.64" font-family="Times,serif" font-size="12.00">Cluster: Ablehnung</text>
<text text-anchor="start" x="33.4" y="-524.64" font-family="Times,serif" font-size="12.00">Marktlokation wurde nicht &#252;ber den UC (Unterbrechung der Anschlussnutzung (Sperren) auf Anweisung des LF) gesperrt. </text>
<text text-anchor="start" x="33.4" y="-512.64" font-family="Times,serif" font-size="12.00">Hinweis: Die Entsperrung muss auf konventionellem Weg erfolgen.</text>
</g>
<!-- 1&#45;&gt;A05 -->
<g id="edge2" class="edge">
<title>1-&gt;A05</title>
<path fill="none" stroke="black" d="M351.27,-631.17C348.57,-619.77 344.91,-604.29 341.4,-589.48"/>
<polygon fill="black" stroke="black" points="344.6,-588.82 338.89,-579.89 337.79,-590.43 344.6,-588.82"/>
<text text-anchor="middle" x="360.9" y="-600.3" font-family="Times,serif" font-size="14.00">Nein</text>
</g>
<!-- 2 -->
<g id="node4" class="node">
<title>2</title>
<path fill="#7aab8a" stroke="black" d="M2589.3,-560.04C2589.3,-560.04 669.5,-560.04 669.5,-560.04 663.5,-560.04 657.5,-554.04 657.5,-548.04 657.5,-548.04 657.5,-536.04 657.5,-536.04 657.5,-530.04 663.5,-524.04 669.5,-524.04 669.5,-524.04 2589.3,-524.04 2589.3,-524.04 2595.3,-524.04 2601.3,-530.04 2601.3,-536.04 2601.3,-536.04 2601.3,-548.04 2601.3,-548.04 2601.3,-554.04 2595.3,-560.04 2589.3,-560.04"/>
<text text-anchor="start" x="671.9" y="-538.14" font-family="Times,serif" font-weight="bold" font-size="14.00">2: </text>
<text text-anchor="start" x="685.9" y="-538.14" font-family="Times,serif" font-size="14.00">W&#228;re eine Wiederinbetriebnahme aufgrund eines technischen Verhinderungsrundes (z.B. entspricht nicht den geltenden Rechtsvorschriften, beh&#246;rdlichen Verf&#252;gungen, den anerkannten Regeln der Technik, DIN VDE Normen, Technischen Anschlussbedingungen (TAB) oder den sonstigen besonderen Vorschriften des NB) nicht m&#246;glich?</text>
</g>
<!-- 1&#45;&gt;2 -->
<g id="edge3" class="edge">
<title>1-&gt;2</title>
<path fill="none" stroke="black" d="M566.49,-631.11C798.93,-611.85 1171,-581.02 1407.62,-561.42"/>
<polygon fill="black" stroke="black" points="1407.75,-564.83 1417.43,-560.52 1407.18,-557.86 1407.75,-564.83"/>
<text text-anchor="middle" x="959.9" y="-600.3" font-family="Times,serif" font-size="14.00">Ja</text>
</g>
<!-- A06 -->
<g id="node5" class="node">
<title>A06</title>
<polygon fill="#cfb986" stroke="black" points="2290.64,-452.48 330.16,-452.48 330.16,-366.96 2290.64,-366.96 2290.64,-452.48"/>
<text text-anchor="start" x="1298.4" y="-434.42" font-family="Times,serif" font-weight="bold" font-size="14.00">A06</text>
<text text-anchor="start" x="342.4" y="-422.32" font-family="Times,serif" text-decoration="underline" font-size="12.00">Hinweis:</text>
<text text-anchor="start" x="342.4" y="-410.32" font-family="Times,serif" font-size="12.00">Cluster: Ablehnung</text>
<text text-anchor="start" x="342.4" y="-398.32" font-family="Times,serif" font-size="12.00">Wiederinbetriebnahme w&#228;re technisch nicht m&#246;glich</text>
<text text-anchor="start" x="342.4" y="-386.32" font-family="Times,serif" font-size="12.00">Hinweis:</text>
<text text-anchor="start" x="342.4" y="-374.32" font-family="Times,serif" font-size="12.00">Die Marktlokation bzw. die dazugeh&#246;rigen elektrischen Anlagen kann gem&#228;&#223; NAV und TAB nicht wieder in Betrieb genommen werden. Sie entspricht nicht der geltenden Rechtsvorschriften und beh&#246;rdlichen Verf&#252;gungen sowie den anerkannten Regeln der Technik, insbesondere DIN VDE Normen, den Technischen Anschlussbedingungen (TAB) und den sonstigen besonderen Vorschriften des NB.</text>
</g>
<!-- 2&#45;&gt;A06 -->
<g id="edge4" class="edge">
<title>2-&gt;A06</title>
<path fill="none" stroke="black" d="M1586.71,-523.6C1545.15,-506.62 1480.16,-480.07 1423.66,-456.99"/>
<polygon fill="black" stroke="black" points="1425.16,-453.41 1414.58,-452.87 1422.51,-459.89 1425.16,-453.41"/>
<text text-anchor="middle" x="1494.9" y="-473.98" font-family="Times,serif" font-size="14.00">Ja</text>
</g>
<!-- 3 -->
<g id="node6" class="node">
<title>3</title>
<path fill="#7aab8a" stroke="black" d="M2785.8,-427.72C2785.8,-427.72 2321,-427.72 2321,-427.72 2315,-427.72 2309,-421.72 2309,-415.72 2309,-415.72 2309,-403.72 2309,-403.72 2309,-397.72 2315,-391.72 2321,-391.72 2321,-391.72 2785.8,-391.72 2785.8,-391.72 2791.8,-391.72 2797.8,-397.72 2797.8,-403.72 2797.8,-403.72 2797.8,-415.72 2797.8,-415.72 2797.8,-421.72 2791.8,-427.72 2785.8,-427.72"/>
<text text-anchor="start" x="2323.4" y="-405.82" font-family="Times,serif" font-weight="bold" font-size="14.00">3: </text>
<text text-anchor="start" x="2337.4" y="-405.82" font-family="Times,serif" font-size="14.00">Ist zum Zeitpunkt des Nachrichteneingangs die Marktlokation bereits entsperrt?</text>
</g>
<!-- 2&#45;&gt;3 -->
<g id="edge5" class="edge">
<title>2-&gt;3</title>
<path fill="none" stroke="black" d="M1771.72,-523.55C1907.48,-506.55 2117.62,-479.43 2299.4,-452.48 2345.75,-445.61 2396.75,-437.36 2440.8,-430.02"/>
<polygon fill="black" stroke="black" points="2441.27,-433.32 2450.55,-428.22 2440.11,-426.42 2441.27,-433.32"/>
<text text-anchor="middle" x="2184.9" y="-473.98" font-family="Times,serif" font-size="14.00">Nein</text>
</g>
<!-- A01 -->
<g id="node7" class="node">
<title>A01</title>
<polygon fill="#cfb986" stroke="black" points="2576.14,-314.16 2396.66,-314.16 2396.66,-252.64 2576.14,-252.64 2576.14,-314.16"/>
<text text-anchor="start" x="2474.4" y="-296.1" font-family="Times,serif" font-weight="bold" font-size="14.00">A01</text>
<text text-anchor="start" x="2408.9" y="-284" font-family="Times,serif" text-decoration="underline" font-size="12.00">Hinweis:</text>
<text text-anchor="start" x="2408.9" y="-272" font-family="Times,serif" font-size="12.00">Cluster: Ablehnung</text>
<text text-anchor="start" x="2408.9" y="-260" font-family="Times,serif" font-size="12.00">Marktlokation ist nicht gesperrt.</text>
</g>
<!-- 3&#45;&gt;A01 -->
<g id="edge6" class="edge">
<title>3-&gt;A01</title>
<path fill="none" stroke="black" d="M2544.08,-391.43C2534.71,-374.04 2519.92,-346.6 2507.67,-323.86"/>
<polygon fill="black" stroke="black" points="2510.42,-322.59 2502.59,-315.44 2504.26,-325.91 2510.42,-322.59"/>
<text text-anchor="middle" x="2525.9" y="-335.66" font-family="Times,serif" font-size="14.00">Ja</text>
</g>
<!-- 4 -->
<g id="node8" class="node">
<title>4</title>
<path fill="#7aab8a" stroke="black" d="M2834.3,-301.4C2834.3,-301.4 2606.5,-301.4 2606.5,-301.4 2600.5,-301.4 2594.5,-295.4 2594.5,-289.4 2594.5,-289.4 2594.5,-277.4 2594.5,-277.4 2594.5,-271.4 2600.5,-265.4 2606.5,-265.4 2606.5,-265.4 2834.3,-265.4 2834.3,-265.4 2840.3,-265.4 2846.3,-271.4 2846.3,-277.4 2846.3,-277.4 2846.3,-289.4 2846.3,-289.4 2846.3,-295.4 2840.3,-301.4 2834.3,-301.4"/>
<text text-anchor="start" x="2608.9" y="-279.5" font-family="Times,serif" font-weight="bold" font-size="14.00">4: </text>
<text text-anchor="start" x="2622.9" y="-279.5" font-family="Times,serif" font-size="14.00">Liegt bereits ein Entsperrauftrag vor?</text>
</g>
<!-- 3&#45;&gt;4 -->
<g id="edge7" class="edge">
<title>3-&gt;4</title>
<path fill="none" stroke="black" d="M2576.62,-391.43C2605.7,-369.78 2655.67,-332.58 2688.37,-308.24"/>
<polygon fill="black" stroke="black" points="2690.18,-310.52 2696.11,-301.74 2686,-304.9 2690.18,-310.52"/>
<text text-anchor="middle" x="2665.9" y="-335.66" font-family="Times,serif" font-size="14.00">Nein</text>
</g>
<!-- A04 -->
<g id="node9" class="node">
<title>A04</title>
<polygon fill="#cfb986" stroke="black" points="2774.14,-199.84 2486.66,-199.84 2486.66,-138.32 2774.14,-138.32 2774.14,-199.84"/>
<text text-anchor="start" x="2618.4" y="-181.78" font-family="Times,serif" font-weight="bold" font-size="14.00">A04</text>
<text text-anchor="start" x="2498.9" y="-169.68" font-family="Times,serif" text-decoration="underline" font-size="12.00">Hinweis:</text>
<text text-anchor="start" x="2498.9" y="-157.68" font-family="Times,serif" font-size="12.00">Cluster: Ablehnung</text>
<text text-anchor="start" x="2498.9" y="-145.68" font-family="Times,serif" font-size="12.00">Entsperrauftrag f&#252;r die Marktlokation liegt bereits vor.</text>
</g>
<!-- 4&#45;&gt;A04 -->
<g id="edge8" class="edge">
<title>4-&gt;A04</title>
<path fill="none" stroke="black" d="M2706.73,-265.34C2694.65,-250.27 2676.59,-227.73 2661.07,-208.36"/>
<polygon fill="black" stroke="black" points="2663.36,-206.62 2654.38,-201 2657.9,-210.99 2663.36,-206.62"/>
<text text-anchor="middle" x="2686.9" y="-221.34" font-family="Times,serif" font-size="14.00">Ja</text>
</g>
<!-- 5 -->
<g id="node10" class="node">
<title>5</title>
<path fill="#7aab8a" stroke="black" d="M3112.3,-187.08C3112.3,-187.08 2804.5,-187.08 2804.5,-187.08 2798.5,-187.08 2792.5,-181.08 2792.5,-175.08 2792.5,-175.08 2792.5,-163.08 2792.5,-163.08 2792.5,-157.08 2798.5,-151.08 2804.5,-151.08 2804.5,-151.08 3112.3,-151.08 3112.3,-151.08 3118.3,-151.08 3124.3,-157.08 3124.3,-163.08 3124.3,-163.08 3124.3,-175.08 3124.3,-175.08 3124.3,-181.08 3118.3,-187.08 3112.3,-187.08"/>
<text text-anchor="start" x="2806.9" y="-165.18" font-family="Times,serif" font-weight="bold" font-size="14.00">5: </text>
<text text-anchor="start" x="2820.9" y="-165.18" font-family="Times,serif" font-size="14.00">Ist ein zuvor nicht spezifizierter Fehler aufgetreten?</text>
</g>
<!-- 4&#45;&gt;5 -->
<g id="edge9" class="edge">
<title>4-&gt;5</title>
<path fill="none" stroke="black" d="M2757.33,-264.97C2798.84,-245.38 2866.34,-213.53 2911.54,-192.2"/>
<polygon fill="black" stroke="black" points="2912.84,-194.98 2920.39,-187.55 2909.85,-188.65 2912.84,-194.98"/>
<text text-anchor="middle" x="2867.9" y="-221.34" font-family="Times,serif" font-size="14.00">Nein</text>
</g>
<!-- A99 -->
<g id="node11" class="node">
<title>A99</title>
<polygon fill="#cfb986" stroke="black" points="3021.14,-85.52 2605.66,-85.52 2605.66,0 3021.14,0 3021.14,-85.52"/>
<text text-anchor="start" x="2801.4" y="-67.46" font-family="Times,serif" font-weight="bold" font-size="14.00">A99</text>
<text text-anchor="start" x="2617.9" y="-55.36" font-family="Times,serif" text-decoration="underline" font-size="12.00">Hinweis:</text>
<text text-anchor="start" x="2617.9" y="-43.36" font-family="Times,serif" font-size="12.00">Cluster: Ablehnung</text>
<text text-anchor="start" x="2617.9" y="-31.36" font-family="Times,serif" font-size="12.00">Sonstiges</text>
<text text-anchor="start" x="2617.9" y="-19.36" font-family="Times,serif" font-size="12.00">Hinweis: Das identifizierte Problem ist in der Antwort zu beschreiben/benennen. </text>
<text text-anchor="start" x="2617.9" y="-7.36" font-family="Times,serif" font-size="12.00">Nutzungsm&#246;glichkeit Ende: 01.10.2024 00:00 Uhr</text>
</g>
<!-- 5&#45;&gt;A99 -->
<g id="edge10" class="edge">
<title>5-&gt;A99</title>
<path fill="none" stroke="black" d="M2938.24,-150.79C2920.77,-135.81 2894.61,-113.39 2870.75,-92.93"/>
<polygon fill="black" stroke="black" points="2873.29,-89.64 2863.42,-85.79 2868.73,-94.96 2873.29,-89.64"/>
<text text-anchor="middle" x="2904.9" y="-107.02" font-family="Times,serif" font-size="14.00">Ja</text>
</g>
<!-- A03 -->
<g id="node12" class="node">
<title>A03</title>
<polygon fill="#cfb986" stroke="black" points="3165.64,-73.52 3039.16,-73.52 3039.16,-12 3165.64,-12 3165.64,-73.52"/>
<text text-anchor="start" x="3090.4" y="-55.46" font-family="Times,serif" font-weight="bold" font-size="14.00">A03</text>
<text text-anchor="start" x="3051.4" y="-43.36" font-family="Times,serif" text-decoration="underline" font-size="12.00">Hinweis:</text>
<text text-anchor="start" x="3051.4" y="-31.36" font-family="Times,serif" font-size="12.00">Cluster: Zustimmung</text>
<text text-anchor="start" x="3051.4" y="-19.36" font-family="Times,serif" font-size="12.00">Zustimmung</text>
</g>
<!-- 5&#45;&gt;A03 -->
<g id="edge11" class="edge">
<title>5-&gt;A03</title>
<path fill="none" stroke="black" d="M2978.42,-150.79C2999.29,-132.78 3032.64,-103.99 3059.49,-80.8"/>
<polygon fill="black" stroke="black" points="3061.32,-82.99 3066.6,-73.8 3056.74,-77.69 3061.32,-82.99"/>
<text text-anchor="middle" x="3043.9" y="-107.02" font-family="Times,serif" font-size="14.00">Nein</text>
</g>
</g>
</svg>
  </g>
</svg>
  </g>
</svg>
