<?xml version='1.0' encoding='ASCII' standalone='yes'?>
<svg xmlns="http://www.w3.org/2000/svg" xmlns:xlink="http://www.w3.org/1999/xlink" version="1.1" width="1920.0px" viewBox="0 0 1920.0 678.6666666666666" height="678.6666666666666px">
  <g>
    <svg version="1.1" width="1920.0px" viewBox="0 0 1920.0 678.6666666666666" height="678.6666666666666px">
  <polygon fill="#f3f1f6" points="0,0 1920.0,0 1920.0,678.6666666666666 0,678.6666666666666"/><g>
    <g transform="translate(683.2393128696142, 67.86666666666665) scale(1 1) translate(0, 0) scale(0.9555993616821552 0.9555993616821552) "><!-- note that I manually added the width and height attribute to the root node
  https://chatgpt.com/share/678e3028-70cc-800b-a296-782714735772
  -->
  <defs>
    <style>.cls-1{fill:#fff;}</style>
  </defs>
  <path class="cls-1" d="M122.44,531.2h-56.1c-11,0-19.9-9.12-19.46-20.11C57.47,243.89,278.15,29.78,547.91,29.78v56.02c0,10.98-8.69,19.89-19.66,20.39-225.51,10.31-405.8,197-405.8,425Z"/>
  <path class="cls-1" d="M273.78,531.2h-55.93c-11.23,0-20.09-9.48-19.43-20.69,10.74-183.44,163.39-329.39,349.48-329.39v56.26c0,10.71-8.27,19.62-18.96,20.35-142.35,9.77-255.17,128.69-255.17,273.46Z"/>
  <path class="cls-1" d="M425.77,531.2h-55.45c-11.65,0-20.6-10.17-19.33-21.75,10.87-99.03,95.03-176.34,196.92-176.34v57.01c0,10.05-7.28,18.75-17.23,20.16-59.22,8.4-104.91,59.42-104.91,120.92Z"/>
</g>
    <svg width="1440pt" height="509pt" viewBox="0.00 0.00 1440.00 509.27">
<g id="graph0" class="graph" transform="scale(0.185638 0.185638) rotate(0) translate(4 2739.34)">
<title>D</title>
<text text-anchor="start" x="3406.88" y="-2715.24" font-family="Times,serif" font-weight="bold" font-size="18.00">GPKE</text>
<text text-anchor="start" x="3406.88" y="-2685.14" font-family="Times,serif" font-weight="bold" font-size="16.00">6.27.1: AD: Information &#252;ber die Zuordnung einer Marktlokation zur Datenaggregation durch den &#220;NB</text>
<!-- Start -->
<g id="node1" class="node">
<title>Start</title>
<path fill="#7a8da1" stroke="black" stroke-width="0" d="M158.67,-2616.22C158.67,-2616.22 12.12,-2616.22 12.12,-2616.22 6.12,-2616.22 0.12,-2610.22 0.12,-2604.22 0.12,-2604.22 0.12,-2584.94 0.12,-2584.94 0.12,-2578.94 6.12,-2572.94 12.12,-2572.94 12.12,-2572.94 158.67,-2572.94 158.67,-2572.94 164.67,-2572.94 170.67,-2578.94 170.67,-2584.94 170.67,-2584.94 170.67,-2604.22 170.67,-2604.22 170.67,-2610.22 164.67,-2616.22 158.67,-2616.22"/>
<text text-anchor="start" x="57.27" y="-2595.28" font-family="Times,serif" font-weight="bold" font-size="14.00">E_0455</text>
<text text-anchor="start" x="14.52" y="-2583.18" font-family="Times,serif" font-weight="bold" text-decoration="underline" font-size="12.00">Pr&#252;fende Rolle:</text>
<text text-anchor="start" x="119.52" y="-2583.18" font-family="Times,serif" font-weight="bold" font-size="12.00"> &#220;NB</text>
</g>
<!-- 1 -->
<g id="node2" class="node">
<title>1</title>
<path fill="#7aab8a" stroke="black" stroke-width="0" d="M700.8,-2514.82C700.8,-2514.82 12,-2514.82 12,-2514.82 6,-2514.82 0,-2508.82 0,-2502.82 0,-2502.82 0,-2490.82 0,-2490.82 0,-2484.82 6,-2478.82 12,-2478.82 12,-2478.82 700.8,-2478.82 700.8,-2478.82 706.8,-2478.82 712.8,-2484.82 712.8,-2490.82 712.8,-2490.82 712.8,-2502.82 712.8,-2502.82 712.8,-2508.82 706.8,-2514.82 700.8,-2514.82"/>
<text text-anchor="start" x="14.4" y="-2493.14" font-family="Times,serif" font-weight="bold" font-size="14.00">1: </text>
<text text-anchor="start" x="33.9" y="-2493.14" font-family="Times,serif" font-size="14.00">Sind Fehler im Rahmen der AHB-Pr&#252;fungen in den Stammdaten des NB festgestellt worden?</text>
</g>
<!-- Start&#45;&gt;1 -->
<g id="edge1" class="edge">
<title>Start-&gt;1</title>
<path fill="none" stroke="black" d="M128.47,-2573.12C144.31,-2565.95 162.5,-2558.12 179.4,-2551.82 213.2,-2539.21 251.41,-2527.27 283.66,-2517.84"/>
<polygon fill="black" stroke="black" points="284.26,-2521.31 292.89,-2515.16 282.31,-2514.59 284.26,-2521.31"/>
</g>
<!-- Ende -->
<g id="node4" class="node">
<title>Ende</title>
<path fill="#7a8da1" stroke="black" stroke-width="0" d="M177.17,-1914.2C177.17,-1914.2 135.62,-1914.2 135.62,-1914.2 129.62,-1914.2 123.62,-1908.2 123.62,-1902.2 123.62,-1902.2 123.62,-1890.2 123.62,-1890.2 123.62,-1884.2 129.62,-1878.2 135.62,-1878.2 135.62,-1878.2 177.17,-1878.2 177.17,-1878.2 183.17,-1878.2 189.17,-1884.2 189.17,-1890.2 189.17,-1890.2 189.17,-1902.2 189.17,-1902.2 189.17,-1908.2 183.17,-1914.2 177.17,-1914.2"/>
<text text-anchor="middle" x="156.4" y="-1891.53" font-family="Times,serif" font-size="14.00">Ende</text>
</g>
<!-- 1&#45;&gt;Ende -->
<g id="edge2" class="edge">
<title>1-&gt;Ende</title>
<path fill="none" stroke="#7aab8a" d="M217.63,-2478.9C129.29,-2464.1 31.4,-2438.36 31.4,-2396.93 31.4,-2396.93 31.4,-2396.93 31.4,-2249.41 31.4,-2178.62 62.4,-2166.01 76.4,-2096.62"/>
<path fill="none" stroke="#7aab8a" d="M76.4,-2094.62C82.11,-2046.53 83.46,-2031.34 110.4,-1991.09"/>
<path fill="none" stroke="#7aab8a" d="M110.4,-1989.09C125.85,-1964.18 151.04,-1970.64 156.4,-1941.83"/>
<path fill="none" stroke="#7aab8a" d="M156.4,-1939.83C157.26,-1935.21 157.69,-1930.26 157.86,-1925.44"/>
<polygon fill="#7aab8a" stroke="#7aab8a" points="161.36,-1925.43 157.82,-1915.44 154.36,-1925.46 161.36,-1925.43"/>
<text text-anchor="start" x="45.4" y="-2197.47" font-family="Times,serif" font-weight="bold" font-size="14.00">JA</text>
</g>
<!-- 2 -->
<g id="node5" class="node">
<title>2</title>
<path fill="#7aab8a" stroke="black" stroke-width="0" d="M659.55,-2425.57C659.55,-2425.57 71.25,-2425.57 71.25,-2425.57 65.25,-2425.57 59.25,-2419.57 59.25,-2413.57 59.25,-2413.57 59.25,-2378.29 59.25,-2378.29 59.25,-2372.29 65.25,-2366.29 71.25,-2366.29 71.25,-2366.29 659.55,-2366.29 659.55,-2366.29 665.55,-2366.29 671.55,-2372.29 671.55,-2378.29 671.55,-2378.29 671.55,-2413.57 671.55,-2413.57 671.55,-2419.57 665.55,-2425.57 659.55,-2425.57"/>
<text text-anchor="start" x="73.65" y="-2404.63" font-family="Times,serif" font-weight="bold" font-size="14.00">2: </text>
<text text-anchor="start" x="93.15" y="-2404.63" font-family="Times,serif" font-size="14.00">Ist die Marktlokation zu dem im Vorgang unter &#8222;Verwendung der Daten ab&#8220;</text>
<text text-anchor="start" x="73.65" y="-2390.63" font-family="Times,serif" font-size="14.00">genannten Zeitpunkt bereits dem &#220;NB zur Datenaggregation zugeordnet und die</text>
<text text-anchor="start" x="73.65" y="-2376.63" font-family="Times,serif" font-size="14.00">Meldung nicht als Korrektur kenntlich gemacht?</text>
</g>
<!-- 1&#45;&gt;2 -->
<g id="edge3" class="edge">
<title>1-&gt;2</title>
<path fill="none" stroke="#7aab8a" d="M357.93,-2479.04C358.98,-2467.48 360.42,-2451.6 361.76,-2436.88"/>
<polygon fill="#7aab8a" stroke="#7aab8a" points="365.25,-2437.21 362.67,-2426.94 358.28,-2436.58 365.25,-2437.21"/>
<text text-anchor="start" x="360.4" y="-2448.52" font-family="Times,serif" font-weight="bold" font-size="14.00">NEIN</text>
</g>
<!-- A97 -->
<g id="node3" class="node">
<title>A97</title>
<path fill="#cfb986" stroke="black" stroke-width="0" d="M726.51,-2637.34C726.51,-2637.34 200.28,-2637.34 200.28,-2637.34 194.28,-2637.34 188.28,-2631.34 188.28,-2625.34 188.28,-2625.34 188.28,-2563.82 188.28,-2563.82 188.28,-2557.82 194.28,-2551.82 200.28,-2551.82 200.28,-2551.82 726.51,-2551.82 726.51,-2551.82 732.51,-2551.82 738.51,-2557.82 738.51,-2563.82 738.51,-2563.82 738.51,-2625.34 738.51,-2625.34 738.51,-2631.34 732.51,-2637.34 726.51,-2637.34"/>
<text text-anchor="start" x="200.52" y="-2619.28" font-family="Times,serif" font-weight="bold" font-size="14.00">A97</text>
<text text-anchor="start" x="200.52" y="-2607.18" font-family="Times,serif" text-decoration="underline" font-size="12.00">Hinweis:</text>
<text text-anchor="start" x="200.52" y="-2595.18" font-family="Times,serif" font-size="12.00">Die Stammdaten des NB gen&#252;gen nicht den AHB-Vorgaben.</text>
<text text-anchor="start" x="200.52" y="-2583.18" font-family="Times,serif" font-size="12.00">Hinweis: Diese Pr&#252;fung ist auf alle Stammdaten des NB anzuwenden. Es sind die</text>
<text text-anchor="start" x="200.52" y="-2571.18" font-family="Times,serif" font-size="12.00">Fehlerorte aller dabei festgestellten Fehler in der Antwort zu benennen.</text>
<text text-anchor="start" x="200.52" y="-2559.18" font-family="Times,serif" font-size="12.00">Eine Durchf&#252;hrung der nachfolgend in diesem EBD genannten Pr&#252;fungen erfolgt nicht.</text>
</g>
<!-- 2&#45;&gt;Ende -->
<g id="edge4" class="edge">
<title>2-&gt;Ende</title>
<path fill="none" stroke="#7aab8a" d="M284.19,-2366.3C221.49,-2339.64 138.41,-2293.44 95.4,-2223.79 65.37,-2175.17 66.41,-2152.89 76.4,-2096.62"/>
<text text-anchor="start" x="70.4" y="-2148.21" font-family="Times,serif" font-weight="bold" font-size="14.00">JA</text>
</g>
<!-- 3 -->
<g id="node7" class="node">
<title>3</title>
<path fill="#7aab8a" stroke="black" stroke-width="0" d="M623.3,-2313.04C623.3,-2313.04 243.5,-2313.04 243.5,-2313.04 237.5,-2313.04 231.5,-2307.04 231.5,-2301.04 231.5,-2301.04 231.5,-2289.04 231.5,-2289.04 231.5,-2283.04 237.5,-2277.04 243.5,-2277.04 243.5,-2277.04 623.3,-2277.04 623.3,-2277.04 629.3,-2277.04 635.3,-2283.04 635.3,-2289.04 635.3,-2289.04 635.3,-2301.04 635.3,-2301.04 635.3,-2307.04 629.3,-2313.04 623.3,-2313.04"/>
<text text-anchor="start" x="245.9" y="-2291.36" font-family="Times,serif" font-weight="bold" font-size="14.00">3: </text>
<text text-anchor="start" x="265.4" y="-2291.36" font-family="Times,serif" font-size="14.00">Ist die Meldung als Korrektur kenntlich gemacht?</text>
</g>
<!-- 2&#45;&gt;3 -->
<g id="edge5" class="edge">
<title>2-&gt;3</title>
<path fill="none" stroke="#7aab8a" d="M385.07,-2366.33C394.66,-2352.37 406.12,-2335.71 415.47,-2322.11"/>
<polygon fill="#7aab8a" stroke="#7aab8a" points="418.22,-2324.3 421,-2314.08 412.45,-2320.33 418.22,-2324.3"/>
<text text-anchor="start" x="407.4" y="-2335.99" font-family="Times,serif" font-weight="bold" font-size="14.00">NEIN</text>
</g>
<!-- A01 -->
<g id="node6" class="node">
<title>A01</title>
<path fill="#cfb986" stroke="black" stroke-width="0" d="M1224.26,-2625.34C1224.26,-2625.34 768.53,-2625.34 768.53,-2625.34 762.53,-2625.34 756.53,-2619.34 756.53,-2613.34 756.53,-2613.34 756.53,-2575.82 756.53,-2575.82 756.53,-2569.82 762.53,-2563.82 768.53,-2563.82 768.53,-2563.82 1224.26,-2563.82 1224.26,-2563.82 1230.26,-2563.82 1236.26,-2569.82 1236.26,-2575.82 1236.26,-2575.82 1236.26,-2613.34 1236.26,-2613.34 1236.26,-2619.34 1230.26,-2625.34 1224.26,-2625.34"/>
<text text-anchor="start" x="768.77" y="-2607.28" font-family="Times,serif" font-weight="bold" font-size="14.00">A01</text>
<text text-anchor="start" x="768.77" y="-2595.18" font-family="Times,serif" text-decoration="underline" font-size="12.00">Hinweis:</text>
<text text-anchor="start" x="768.77" y="-2583.18" font-family="Times,serif" font-size="12.00">Zuordnung der Datenaggregation liegt bereits vor. &#196;nderungen sind mittels</text>
<text text-anchor="start" x="768.77" y="-2571.18" font-family="Times,serif" font-size="12.00">Stammdatensynchronisation durchzuf&#252;hren.</text>
</g>
<!-- 4 -->
<g id="node8" class="node">
<title>4</title>
<path fill="#7aab8a" stroke="black" stroke-width="0" d="M750.05,-2223.79C750.05,-2223.79 116.75,-2223.79 116.75,-2223.79 110.75,-2223.79 104.75,-2217.79 104.75,-2211.79 104.75,-2211.79 104.75,-2190.51 104.75,-2190.51 104.75,-2184.51 110.75,-2178.51 116.75,-2178.51 116.75,-2178.51 750.05,-2178.51 750.05,-2178.51 756.05,-2178.51 762.05,-2184.51 762.05,-2190.51 762.05,-2190.51 762.05,-2211.79 762.05,-2211.79 762.05,-2217.79 756.05,-2223.79 750.05,-2223.79"/>
<text text-anchor="start" x="119.15" y="-2202.85" font-family="Times,serif" font-weight="bold" font-size="14.00">4: </text>
<text text-anchor="start" x="138.65" y="-2202.85" font-family="Times,serif" font-size="14.00">Ist die im Vorgang enthaltene Marktlokations-ID zum genannten Zeitpunkt dem &#220;NB</text>
<text text-anchor="start" x="119.15" y="-2188.85" font-family="Times,serif" font-size="14.00">bereits zur Aggregation zugeordnet?</text>
</g>
<!-- 3&#45;&gt;4 -->
<g id="edge6" class="edge">
<title>3-&gt;4</title>
<path fill="none" stroke="#7aab8a" d="M433.4,-2277.19C433.4,-2265.45 433.4,-2249.4 433.4,-2235.17"/>
<polygon fill="#7aab8a" stroke="#7aab8a" points="436.9,-2235.28 433.4,-2225.28 429.9,-2235.28 436.9,-2235.28"/>
<text text-anchor="start" x="433.4" y="-2246.74" font-family="Times,serif" font-weight="bold" font-size="14.00">JA</text>
</g>
<!-- 5 -->
<g id="node10" class="node">
<title>5</title>
<path fill="#7aab8a" stroke="black" stroke-width="0" d="M799.42,-2125.26C799.42,-2125.26 177.38,-2125.26 177.38,-2125.26 171.38,-2125.26 165.38,-2119.26 165.38,-2113.26 165.38,-2113.26 165.38,-2077.98 165.38,-2077.98 165.38,-2071.98 171.38,-2065.98 177.38,-2065.98 177.38,-2065.98 799.42,-2065.98 799.42,-2065.98 805.42,-2065.98 811.42,-2071.98 811.42,-2077.98 811.42,-2077.98 811.42,-2113.26 811.42,-2113.26 811.42,-2119.26 805.42,-2125.26 799.42,-2125.26"/>
<text text-anchor="start" x="179.77" y="-2104.32" font-family="Times,serif" font-weight="bold" font-size="14.00">5: </text>
<text text-anchor="start" x="199.27" y="-2104.32" font-family="Times,serif" font-size="14.00">Liegt das im Vorgang unter "Verwendung der Daten ab" genannte Datum zum</text>
<text text-anchor="start" x="179.77" y="-2090.32" font-family="Times,serif" font-size="14.00">Zeitpunkt des Empfangs des Vorgangs beim &#220;NB vor dem Beginn des Monats, in dem</text>
<text text-anchor="start" x="179.77" y="-2076.32" font-family="Times,serif" font-size="14.00">der Vorgang beim &#220;NB eingeht?</text>
</g>
<!-- 3&#45;&gt;5 -->
<g id="edge7" class="edge">
<title>3-&gt;5</title>
<path fill="none" stroke="#7aab8a" d="M613.82,-2277.08C682.88,-2266.53 750.22,-2249.83 771.4,-2223.79 809.15,-2177.39 760.89,-2147.31 694.13,-2128.13"/>
<polygon fill="#7aab8a" stroke="#7aab8a" points="695.3,-2124.82 684.73,-2125.54 693.44,-2131.57 695.3,-2124.82"/>
<text text-anchor="start" x="784.4" y="-2197.47" font-family="Times,serif" font-weight="bold" font-size="14.00">NEIN</text>
</g>
<!-- 4&#45;&gt;Ende -->
<g id="edge8" class="edge">
<title>4-&gt;Ende</title>
<path fill="none" stroke="#7aab8a" d="M253.27,-2178.61C217.82,-2167.33 183.32,-2150.45 156.4,-2125.26 110.37,-2082.19 78.14,-2045.25 110.4,-1991.09"/>
<text text-anchor="start" x="98.4" y="-2035.68" font-family="Times,serif" font-weight="bold" font-size="14.00">NEIN</text>
</g>
<!-- 4&#45;&gt;5 -->
<g id="edge9" class="edge">
<title>4-&gt;5</title>
<path fill="none" stroke="#7aab8a" d="M444.8,-2178.7C451.49,-2166.09 460.16,-2149.78 468,-2135.02"/>
<polygon fill="#7aab8a" stroke="#7aab8a" points="470.95,-2136.93 472.55,-2126.45 464.77,-2133.64 470.95,-2136.93"/>
<text text-anchor="start" x="462.4" y="-2148.21" font-family="Times,serif" font-weight="bold" font-size="14.00">JA</text>
</g>
<!-- A19 -->
<g id="node9" class="node">
<title>A19</title>
<path fill="#cfb986" stroke="black" stroke-width="0" d="M1750.89,-2625.34C1750.89,-2625.34 1265.91,-2625.34 1265.91,-2625.34 1259.91,-2625.34 1253.91,-2619.34 1253.91,-2613.34 1253.91,-2613.34 1253.91,-2575.82 1253.91,-2575.82 1253.91,-2569.82 1259.91,-2563.82 1265.91,-2563.82 1265.91,-2563.82 1750.89,-2563.82 1750.89,-2563.82 1756.89,-2563.82 1762.89,-2569.82 1762.89,-2575.82 1762.89,-2575.82 1762.89,-2613.34 1762.89,-2613.34 1762.89,-2619.34 1756.89,-2625.34 1750.89,-2625.34"/>
<text text-anchor="start" x="1266.15" y="-2607.28" font-family="Times,serif" font-weight="bold" font-size="14.00">A19</text>
<text text-anchor="start" x="1266.15" y="-2595.18" font-family="Times,serif" text-decoration="underline" font-size="12.00">Hinweis:</text>
<text text-anchor="start" x="1266.15" y="-2583.18" font-family="Times,serif" font-size="12.00">Die Marktlokation bzw. Tranche ist f&#252;r den genannten Zeitpunkt nicht dem &#220;NB</text>
<text text-anchor="start" x="1266.15" y="-2571.18" font-family="Times,serif" font-size="12.00">zur Aggregation gemeldet.</text>
</g>
<!-- 5&#45;&gt;Ende -->
<g id="edge10" class="edge">
<title>5-&gt;Ende</title>
<path fill="none" stroke="#7aab8a" d="M302.03,-2065.98C241.6,-2052.89 184.97,-2035.2 165.15,-2012.73 144.15,-1988.92 149.52,-1972.82 156.4,-1941.83"/>
<text text-anchor="start" x="164.4" y="-1986.42" font-family="Times,serif" font-weight="bold" font-size="14.00">JA</text>
</g>
<!-- 6 -->
<g id="node12" class="node">
<title>6</title>
<path fill="#7aab8a" stroke="black" stroke-width="0" d="M821.55,-2012.73C821.55,-2012.73 203.25,-2012.73 203.25,-2012.73 197.25,-2012.73 191.25,-2006.73 191.25,-2000.73 191.25,-2000.73 191.25,-1979.45 191.25,-1979.45 191.25,-1973.45 197.25,-1967.45 203.25,-1967.45 203.25,-1967.45 821.55,-1967.45 821.55,-1967.45 827.55,-1967.45 833.55,-1973.45 833.55,-1979.45 833.55,-1979.45 833.55,-2000.73 833.55,-2000.73 833.55,-2006.73 827.55,-2012.73 821.55,-2012.73"/>
<text text-anchor="start" x="205.65" y="-1991.79" font-family="Times,serif" font-weight="bold" font-size="14.00">6: </text>
<text text-anchor="start" x="225.15" y="-1991.79" font-family="Times,serif" font-size="14.00">Ist das im Vorgang unter "Verwendung der Daten ab" genannte Datum ein anderes</text>
<text text-anchor="start" x="205.65" y="-1977.79" font-family="Times,serif" font-size="14.00">Datum, als der erste eines Monats?</text>
</g>
<!-- 5&#45;&gt;6 -->
<g id="edge11" class="edge">
<title>5-&gt;6</title>
<path fill="none" stroke="#7aab8a" d="M495.02,-2066.06C498.08,-2052.87 501.72,-2037.15 504.88,-2023.52"/>
<polygon fill="#7aab8a" stroke="#7aab8a" points="508.21,-2024.67 507.06,-2014.14 501.39,-2023.09 508.21,-2024.67"/>
<text text-anchor="start" x="502.4" y="-2035.68" font-family="Times,serif" font-weight="bold" font-size="14.00">NEIN</text>
</g>
<!-- A20 -->
<g id="node11" class="node">
<title>A20</title>
<path fill="#cfb986" stroke="black" stroke-width="0" d="M2564.14,-2631.34C2564.14,-2631.34 1792.66,-2631.34 1792.66,-2631.34 1786.66,-2631.34 1780.66,-2625.34 1780.66,-2619.34 1780.66,-2619.34 1780.66,-2569.82 1780.66,-2569.82 1780.66,-2563.82 1786.66,-2557.82 1792.66,-2557.82 1792.66,-2557.82 2564.14,-2557.82 2564.14,-2557.82 2570.14,-2557.82 2576.14,-2563.82 2576.14,-2569.82 2576.14,-2569.82 2576.14,-2619.34 2576.14,-2619.34 2576.14,-2625.34 2570.14,-2631.34 2564.14,-2631.34"/>
<text text-anchor="start" x="1792.9" y="-2613.28" font-family="Times,serif" font-weight="bold" font-size="14.00">A20</text>
<text text-anchor="start" x="1792.9" y="-2601.18" font-family="Times,serif" text-decoration="underline" font-size="12.00">Hinweis:</text>
<text text-anchor="start" x="1792.9" y="-2589.18" font-family="Times,serif" font-size="12.00">Das Datum &#8222;Verwendung der Daten ab&#8220; des Vorgangs liegt vor dem Beginn des Monats, in dem der Vorgang beim &#220;NB eingeht.</text>
<text text-anchor="start" x="1792.9" y="-2577.18" font-family="Times,serif" font-size="12.00">Hinweis: Eine Korrektur des Datums "Verwendung der Daten ab" auf den</text>
<text text-anchor="start" x="1792.9" y="-2565.18" font-family="Times,serif" font-size="12.00">n&#228;chstm&#246;glichen Zeitpunkt ist erforderlich.</text>
</g>
<!-- 6&#45;&gt;Ende -->
<g id="edge12" class="edge">
<title>6-&gt;Ende</title>
<path fill="none" stroke="#7aab8a" d="M402.61,-1967.49C344.39,-1954.98 271.7,-1937.65 199.54,-1914.66"/>
<polygon fill="#7aab8a" stroke="#7aab8a" points="200.93,-1911.43 190.34,-1911.69 198.78,-1918.09 200.93,-1911.43"/>
<text text-anchor="start" x="316.4" y="-1937.15" font-family="Times,serif" font-weight="bold" font-size="14.00">JA</text>
</g>
<!-- 7 -->
<g id="node14" class="node">
<title>7</title>
<path fill="#7aab8a" stroke="black" stroke-width="0" d="M903.92,-1914.2C903.92,-1914.2 218.88,-1914.2 218.88,-1914.2 212.88,-1914.2 206.88,-1908.2 206.88,-1902.2 206.88,-1902.2 206.88,-1890.2 206.88,-1890.2 206.88,-1884.2 212.88,-1878.2 218.88,-1878.2 218.88,-1878.2 903.92,-1878.2 903.92,-1878.2 909.92,-1878.2 915.92,-1884.2 915.92,-1890.2 915.92,-1890.2 915.92,-1902.2 915.92,-1902.2 915.92,-1908.2 909.92,-1914.2 903.92,-1914.2"/>
<text text-anchor="start" x="221.27" y="-1892.53" font-family="Times,serif" font-weight="bold" font-size="14.00">7: </text>
<text text-anchor="start" x="240.77" y="-1892.53" font-family="Times,serif" font-size="14.00">Sind Fehler im Rahmen der AHB-Pr&#252;fungen in den Stammdaten des LF festgestellt worden?</text>
</g>
<!-- 6&#45;&gt;7 -->
<g id="edge13" class="edge">
<title>6-&gt;7</title>
<path fill="none" stroke="#7aab8a" d="M523.76,-1967.78C530.7,-1954.77 539.64,-1938.01 547.06,-1924.09"/>
<polygon fill="#7aab8a" stroke="#7aab8a" points="550.05,-1925.91 551.67,-1915.44 543.88,-1922.62 550.05,-1925.91"/>
<text text-anchor="start" x="542.4" y="-1937.15" font-family="Times,serif" font-weight="bold" font-size="14.00">NEIN</text>
</g>
<!-- A21 -->
<g id="node13" class="node">
<title>A21</title>
<path fill="#cfb986" stroke="black" stroke-width="0" d="M3108.52,-2631.34C3108.52,-2631.34 2606.28,-2631.34 2606.28,-2631.34 2600.28,-2631.34 2594.28,-2625.34 2594.28,-2619.34 2594.28,-2619.34 2594.28,-2569.82 2594.28,-2569.82 2594.28,-2563.82 2600.28,-2557.82 2606.28,-2557.82 2606.28,-2557.82 3108.52,-2557.82 3108.52,-2557.82 3114.52,-2557.82 3120.52,-2563.82 3120.52,-2569.82 3120.52,-2569.82 3120.52,-2619.34 3120.52,-2619.34 3120.52,-2625.34 3114.52,-2631.34 3108.52,-2631.34"/>
<text text-anchor="start" x="2606.53" y="-2613.28" font-family="Times,serif" font-weight="bold" font-size="14.00">A21</text>
<text text-anchor="start" x="2606.53" y="-2601.18" font-family="Times,serif" text-decoration="underline" font-size="12.00">Hinweis:</text>
<text text-anchor="start" x="2606.53" y="-2589.18" font-family="Times,serif" font-size="12.00">Die &#220;bertragung der Datenaggregation durch den &#220;NB kann nur zum Ersten eines</text>
<text text-anchor="start" x="2606.53" y="-2577.18" font-family="Times,serif" font-size="12.00">Monats erfolgen. Eine Korrektur des Datums "Verwendung der Daten ab" auf den</text>
<text text-anchor="start" x="2606.53" y="-2565.18" font-family="Times,serif" font-size="12.00">n&#228;chstm&#246;glichen Zeitpunkt ist erforderlich.</text>
</g>
<!-- 8 -->
<g id="node16" class="node">
<title>8</title>
<path fill="#7aab8a" stroke="black" stroke-width="0" d="M843.17,-1824.95C843.17,-1824.95 279.62,-1824.95 279.62,-1824.95 273.62,-1824.95 267.62,-1818.95 267.62,-1812.95 267.62,-1812.95 267.62,-1791.67 267.62,-1791.67 267.62,-1785.67 273.62,-1779.67 279.62,-1779.67 279.62,-1779.67 843.17,-1779.67 843.17,-1779.67 849.17,-1779.67 855.17,-1785.67 855.17,-1791.67 855.17,-1791.67 855.17,-1812.95 855.17,-1812.95 855.17,-1818.95 849.17,-1824.95 843.17,-1824.95"/>
<text text-anchor="start" x="282.02" y="-1804.01" font-family="Times,serif" font-weight="bold" font-size="14.00">8: </text>
<text text-anchor="start" x="301.52" y="-1804.01" font-family="Times,serif" font-size="14.00">Wurde die angegebene Verarbeitungsnummer im Vorgang bereits f&#252;r einen</text>
<text text-anchor="start" x="282.02" y="-1790.01" font-family="Times,serif" font-size="14.00">verarbeiteten Vorgang zu dieser Marktlokation verwendet?</text>
</g>
<!-- 7&#45;&gt;8 -->
<g id="edge14" class="edge">
<title>7-&gt;8</title>
<path fill="none" stroke="#7aab8a" d="M561.4,-1878.35C561.4,-1866.61 561.4,-1850.56 561.4,-1836.33"/>
<polygon fill="#7aab8a" stroke="#7aab8a" points="564.9,-1836.44 561.4,-1826.44 557.9,-1836.44 564.9,-1836.44"/>
<text text-anchor="start" x="561.4" y="-1847.9" font-family="Times,serif" font-weight="bold" font-size="14.00">NEIN</text>
</g>
<!-- A98 -->
<g id="node15" class="node">
<title>A98</title>
<path fill="#cfb986" stroke="black" stroke-width="0" d="M3635.89,-2631.34C3635.89,-2631.34 3150.91,-2631.34 3150.91,-2631.34 3144.91,-2631.34 3138.91,-2625.34 3138.91,-2619.34 3138.91,-2619.34 3138.91,-2569.82 3138.91,-2569.82 3138.91,-2563.82 3144.91,-2557.82 3150.91,-2557.82 3150.91,-2557.82 3635.89,-2557.82 3635.89,-2557.82 3641.89,-2557.82 3647.89,-2563.82 3647.89,-2569.82 3647.89,-2569.82 3647.89,-2619.34 3647.89,-2619.34 3647.89,-2625.34 3641.89,-2631.34 3635.89,-2631.34"/>
<text text-anchor="start" x="3151.15" y="-2613.28" font-family="Times,serif" font-weight="bold" font-size="14.00">A98</text>
<text text-anchor="start" x="3151.15" y="-2601.18" font-family="Times,serif" text-decoration="underline" font-size="12.00">Hinweis:</text>
<text text-anchor="start" x="3151.15" y="-2589.18" font-family="Times,serif" font-size="12.00">Die Stammdaten des LF gen&#252;gen nicht den AHB-Vorgaben.</text>
<text text-anchor="start" x="3151.15" y="-2577.18" font-family="Times,serif" font-size="12.00">Hinweis: Diese Pr&#252;fung ist auf alle Stammdaten des LF anzuwenden. Es sind die</text>
<text text-anchor="start" x="3151.15" y="-2565.18" font-family="Times,serif" font-size="12.00">Fehlerorte aller dabei festgestellten Fehler in der Antwort zu benennen.</text>
</g>
<!-- 9 -->
<g id="node18" class="node">
<title>9</title>
<path fill="#7aab8a" stroke="black" stroke-width="0" d="M710.05,-1726.42C710.05,-1726.42 412.75,-1726.42 412.75,-1726.42 406.75,-1726.42 400.75,-1720.42 400.75,-1714.42 400.75,-1714.42 400.75,-1702.42 400.75,-1702.42 400.75,-1696.42 406.75,-1690.42 412.75,-1690.42 412.75,-1690.42 710.05,-1690.42 710.05,-1690.42 716.05,-1690.42 722.05,-1696.42 722.05,-1702.42 722.05,-1702.42 722.05,-1714.42 722.05,-1714.42 722.05,-1720.42 716.05,-1726.42 710.05,-1726.42"/>
<text text-anchor="start" x="415.15" y="-1704.75" font-family="Times,serif" font-weight="bold" font-size="14.00">9: </text>
<text text-anchor="start" x="434.65" y="-1704.75" font-family="Times,serif" font-size="14.00">Ist die richtige Regelzone angegeben?</text>
</g>
<!-- 8&#45;&gt;9 -->
<g id="edge15" class="edge">
<title>8-&gt;9</title>
<path fill="none" stroke="#7aab8a" d="M561.4,-1780C561.4,-1767.37 561.4,-1751.21 561.4,-1737.55"/>
<polygon fill="#7aab8a" stroke="#7aab8a" points="564.9,-1737.84 561.4,-1727.84 557.9,-1737.84 564.9,-1737.84"/>
<text text-anchor="start" x="561.4" y="-1749.37" font-family="Times,serif" font-weight="bold" font-size="14.00">NEIN</text>
</g>
<!-- A22 -->
<g id="node17" class="node">
<title>A22</title>
<path fill="#cfb986" stroke="black" stroke-width="0" d="M3928.89,-2619.34C3928.89,-2619.34 3677.91,-2619.34 3677.91,-2619.34 3671.91,-2619.34 3665.91,-2613.34 3665.91,-2607.34 3665.91,-2607.34 3665.91,-2581.82 3665.91,-2581.82 3665.91,-2575.82 3671.91,-2569.82 3677.91,-2569.82 3677.91,-2569.82 3928.89,-2569.82 3928.89,-2569.82 3934.89,-2569.82 3940.89,-2575.82 3940.89,-2581.82 3940.89,-2581.82 3940.89,-2607.34 3940.89,-2607.34 3940.89,-2613.34 3934.89,-2619.34 3928.89,-2619.34"/>
<text text-anchor="start" x="3678.15" y="-2601.28" font-family="Times,serif" font-weight="bold" font-size="14.00">A22</text>
<text text-anchor="start" x="3678.15" y="-2589.18" font-family="Times,serif" text-decoration="underline" font-size="12.00">Hinweis:</text>
<text text-anchor="start" x="3678.15" y="-2577.18" font-family="Times,serif" font-size="12.00">Verarbeitungsnummer bereits verwendet.</text>
</g>
<!-- 10 -->
<g id="node20" class="node">
<title>10</title>
<path fill="#7aab8a" stroke="black" stroke-width="0" d="M863.8,-1637.17C863.8,-1637.17 259,-1637.17 259,-1637.17 253,-1637.17 247,-1631.17 247,-1625.17 247,-1625.17 247,-1613.17 247,-1613.17 247,-1607.17 253,-1601.17 259,-1601.17 259,-1601.17 863.8,-1601.17 863.8,-1601.17 869.8,-1601.17 875.8,-1607.17 875.8,-1613.17 875.8,-1613.17 875.8,-1625.17 875.8,-1625.17 875.8,-1631.17 869.8,-1637.17 863.8,-1637.17"/>
<text text-anchor="start" x="261.4" y="-1615.5" font-family="Times,serif" font-weight="bold" font-size="14.00">10: </text>
<text text-anchor="start" x="290.65" y="-1615.5" font-family="Times,serif" font-size="14.00">Ist der angegebene Netzbetreiber der Marktlokation in der Regelzone bekannt?</text>
</g>
<!-- 9&#45;&gt;10 -->
<g id="edge16" class="edge">
<title>9-&gt;10</title>
<path fill="none" stroke="#7aab8a" d="M561.4,-1690.6C561.4,-1678.65 561.4,-1662.32 561.4,-1648.39"/>
<polygon fill="#7aab8a" stroke="#7aab8a" points="564.9,-1648.45 561.4,-1638.45 557.9,-1648.45 564.9,-1648.45"/>
<text text-anchor="start" x="561.4" y="-1660.12" font-family="Times,serif" font-weight="bold" font-size="14.00">JA</text>
</g>
<!-- A02 -->
<g id="node19" class="node">
<title>A02</title>
<path fill="#cfb986" stroke="black" stroke-width="0" d="M4076.14,-2619.34C4076.14,-2619.34 3970.66,-2619.34 3970.66,-2619.34 3964.66,-2619.34 3958.66,-2613.34 3958.66,-2607.34 3958.66,-2607.34 3958.66,-2581.82 3958.66,-2581.82 3958.66,-2575.82 3964.66,-2569.82 3970.66,-2569.82 3970.66,-2569.82 4076.14,-2569.82 4076.14,-2569.82 4082.14,-2569.82 4088.14,-2575.82 4088.14,-2581.82 4088.14,-2581.82 4088.14,-2607.34 4088.14,-2607.34 4088.14,-2613.34 4082.14,-2619.34 4076.14,-2619.34"/>
<text text-anchor="start" x="3970.9" y="-2601.28" font-family="Times,serif" font-weight="bold" font-size="14.00">A02</text>
<text text-anchor="start" x="3970.9" y="-2589.18" font-family="Times,serif" text-decoration="underline" font-size="12.00">Hinweis:</text>
<text text-anchor="start" x="3970.9" y="-2577.18" font-family="Times,serif" font-size="12.00">Regelzone falsch.</text>
</g>
<!-- 11 -->
<g id="node22" class="node">
<title>11</title>
<path fill="#7aab8a" stroke="black" stroke-width="0" d="M869.8,-1547.92C869.8,-1547.92 253,-1547.92 253,-1547.92 247,-1547.92 241,-1541.92 241,-1535.92 241,-1535.92 241,-1523.92 241,-1523.92 241,-1517.92 247,-1511.92 253,-1511.92 253,-1511.92 869.8,-1511.92 869.8,-1511.92 875.8,-1511.92 881.8,-1517.92 881.8,-1523.92 881.8,-1523.92 881.8,-1535.92 881.8,-1535.92 881.8,-1541.92 875.8,-1547.92 869.8,-1547.92"/>
<text text-anchor="start" x="255.4" y="-1526.25" font-family="Times,serif" font-weight="bold" font-size="14.00">11: </text>
<text text-anchor="start" x="284.65" y="-1526.25" font-family="Times,serif" font-size="14.00">Ist das Bilanzierungsgebiet zum angegebenen Zeitpunkt in der Regelzone g&#252;ltig?</text>
</g>
<!-- 10&#45;&gt;11 -->
<g id="edge17" class="edge">
<title>10-&gt;11</title>
<path fill="none" stroke="#7aab8a" d="M561.4,-1601.35C561.4,-1589.4 561.4,-1573.07 561.4,-1559.14"/>
<polygon fill="#7aab8a" stroke="#7aab8a" points="564.9,-1559.2 561.4,-1549.2 557.9,-1559.2 564.9,-1559.2"/>
<text text-anchor="start" x="561.4" y="-1570.87" font-family="Times,serif" font-weight="bold" font-size="14.00">JA</text>
</g>
<!-- A03 -->
<g id="node21" class="node">
<title>A03</title>
<path fill="#cfb986" stroke="black" stroke-width="0" d="M4277.14,-2619.34C4277.14,-2619.34 4117.66,-2619.34 4117.66,-2619.34 4111.66,-2619.34 4105.66,-2613.34 4105.66,-2607.34 4105.66,-2607.34 4105.66,-2581.82 4105.66,-2581.82 4105.66,-2575.82 4111.66,-2569.82 4117.66,-2569.82 4117.66,-2569.82 4277.14,-2569.82 4277.14,-2569.82 4283.14,-2569.82 4289.14,-2575.82 4289.14,-2581.82 4289.14,-2581.82 4289.14,-2607.34 4289.14,-2607.34 4289.14,-2613.34 4283.14,-2619.34 4277.14,-2619.34"/>
<text text-anchor="start" x="4117.9" y="-2601.28" font-family="Times,serif" font-weight="bold" font-size="14.00">A03</text>
<text text-anchor="start" x="4117.9" y="-2589.18" font-family="Times,serif" text-decoration="underline" font-size="12.00">Hinweis:</text>
<text text-anchor="start" x="4117.9" y="-2577.18" font-family="Times,serif" font-size="12.00">Netzbetreiber nicht g&#252;ltig.</text>
</g>
<!-- 12 -->
<g id="node24" class="node">
<title>12</title>
<path fill="#7aab8a" stroke="black" stroke-width="0" d="M837.92,-1458.67C837.92,-1458.67 284.88,-1458.67 284.88,-1458.67 278.88,-1458.67 272.88,-1452.67 272.88,-1446.67 272.88,-1446.67 272.88,-1434.67 272.88,-1434.67 272.88,-1428.67 278.88,-1422.67 284.88,-1422.67 284.88,-1422.67 837.92,-1422.67 837.92,-1422.67 843.92,-1422.67 849.92,-1428.67 849.92,-1434.67 849.92,-1434.67 849.92,-1446.67 849.92,-1446.67 849.92,-1452.67 843.92,-1458.67 837.92,-1458.67"/>
<text text-anchor="start" x="287.27" y="-1437" font-family="Times,serif" font-weight="bold" font-size="14.00">12: </text>
<text text-anchor="start" x="316.52" y="-1437" font-family="Times,serif" font-size="14.00">Ist der angegebene Netzbetreiber dem Bilanzierungsgebiet zugeordnet?</text>
</g>
<!-- 11&#45;&gt;12 -->
<g id="edge18" class="edge">
<title>11-&gt;12</title>
<path fill="none" stroke="#7aab8a" d="M561.4,-1512.1C561.4,-1500.15 561.4,-1483.82 561.4,-1469.89"/>
<polygon fill="#7aab8a" stroke="#7aab8a" points="564.9,-1469.95 561.4,-1459.95 557.9,-1469.95 564.9,-1469.95"/>
<text text-anchor="start" x="561.4" y="-1481.62" font-family="Times,serif" font-weight="bold" font-size="14.00">JA</text>
</g>
<!-- A04 -->
<g id="node23" class="node">
<title>A04</title>
<path fill="#cfb986" stroke="black" stroke-width="0" d="M4514.14,-2619.34C4514.14,-2619.34 4318.66,-2619.34 4318.66,-2619.34 4312.66,-2619.34 4306.66,-2613.34 4306.66,-2607.34 4306.66,-2607.34 4306.66,-2581.82 4306.66,-2581.82 4306.66,-2575.82 4312.66,-2569.82 4318.66,-2569.82 4318.66,-2569.82 4514.14,-2569.82 4514.14,-2569.82 4520.14,-2569.82 4526.14,-2575.82 4526.14,-2581.82 4526.14,-2581.82 4526.14,-2607.34 4526.14,-2607.34 4526.14,-2613.34 4520.14,-2619.34 4514.14,-2619.34"/>
<text text-anchor="start" x="4318.9" y="-2601.28" font-family="Times,serif" font-weight="bold" font-size="14.00">A04</text>
<text text-anchor="start" x="4318.9" y="-2589.18" font-family="Times,serif" text-decoration="underline" font-size="12.00">Hinweis:</text>
<text text-anchor="start" x="4318.9" y="-2577.18" font-family="Times,serif" font-size="12.00">Bilanzierungsgebiet nicht g&#252;ltig.</text>
</g>
<!-- 13 -->
<g id="node26" class="node">
<title>13</title>
<path fill="#7aab8a" stroke="black" stroke-width="0" d="M797.8,-1369.42C797.8,-1369.42 325,-1369.42 325,-1369.42 319,-1369.42 313,-1363.42 313,-1357.42 313,-1357.42 313,-1345.42 313,-1345.42 313,-1339.42 319,-1333.42 325,-1333.42 325,-1333.42 797.8,-1333.42 797.8,-1333.42 803.8,-1333.42 809.8,-1339.42 809.8,-1345.42 809.8,-1345.42 809.8,-1357.42 809.8,-1357.42 809.8,-1363.42 803.8,-1369.42 797.8,-1369.42"/>
<text text-anchor="start" x="327.4" y="-1347.75" font-family="Times,serif" font-weight="bold" font-size="14.00">13: </text>
<text text-anchor="start" x="356.65" y="-1347.75" font-family="Times,serif" font-size="14.00">Wird die Marktlokation auf Grundlage von Werten bilanziert?</text>
</g>
<!-- 12&#45;&gt;13 -->
<g id="edge19" class="edge">
<title>12-&gt;13</title>
<path fill="none" stroke="#7aab8a" d="M561.4,-1422.85C561.4,-1410.9 561.4,-1394.57 561.4,-1380.64"/>
<polygon fill="#7aab8a" stroke="#7aab8a" points="564.9,-1380.7 561.4,-1370.7 557.9,-1380.7 564.9,-1380.7"/>
<text text-anchor="start" x="561.4" y="-1392.37" font-family="Times,serif" font-weight="bold" font-size="14.00">JA</text>
</g>
<!-- A16 -->
<g id="node25" class="node">
<title>A16</title>
<path fill="#cfb986" stroke="black" stroke-width="0" d="M5046.89,-2625.34C5046.89,-2625.34 4555.91,-2625.34 4555.91,-2625.34 4549.91,-2625.34 4543.91,-2619.34 4543.91,-2613.34 4543.91,-2613.34 4543.91,-2575.82 4543.91,-2575.82 4543.91,-2569.82 4549.91,-2563.82 4555.91,-2563.82 4555.91,-2563.82 5046.89,-2563.82 5046.89,-2563.82 5052.89,-2563.82 5058.89,-2569.82 5058.89,-2575.82 5058.89,-2575.82 5058.89,-2613.34 5058.89,-2613.34 5058.89,-2619.34 5052.89,-2625.34 5046.89,-2625.34"/>
<text text-anchor="start" x="4556.15" y="-2607.28" font-family="Times,serif" font-weight="bold" font-size="14.00">A16</text>
<text text-anchor="start" x="4556.15" y="-2595.18" font-family="Times,serif" text-decoration="underline" font-size="12.00">Hinweis:</text>
<text text-anchor="start" x="4556.15" y="-2583.18" font-family="Times,serif" font-size="12.00">Angegebener Netzbetreiber entspricht nicht dem zugeordneten Netzbetreiber des</text>
<text text-anchor="start" x="4556.15" y="-2571.18" font-family="Times,serif" font-size="12.00">Bilanzierungs-gebiets.</text>
</g>
<!-- 14 -->
<g id="node27" class="node">
<title>14</title>
<path fill="#7aab8a" stroke="black" stroke-width="0" d="M520.92,-1280.17C520.92,-1280.17 27.88,-1280.17 27.88,-1280.17 21.88,-1280.17 15.88,-1274.17 15.88,-1268.17 15.88,-1268.17 15.88,-1246.89 15.88,-1246.89 15.88,-1240.89 21.88,-1234.89 27.88,-1234.89 27.88,-1234.89 520.92,-1234.89 520.92,-1234.89 526.92,-1234.89 532.92,-1240.89 532.92,-1246.89 532.92,-1246.89 532.92,-1268.17 532.92,-1268.17 532.92,-1274.17 526.92,-1280.17 520.92,-1280.17"/>
<text text-anchor="start" x="30.27" y="-1259.23" font-family="Times,serif" font-weight="bold" font-size="14.00">14: </text>
<text text-anchor="start" x="59.52" y="-1259.23" font-family="Times,serif" font-size="14.00">Ist der Messstellenbetreiber zum angegebenen Zeitpunkt in der</text>
<text text-anchor="start" x="30.27" y="-1245.23" font-family="Times,serif" font-size="14.00">BDEW-Codenummerndatenbank registriert?</text>
</g>
<!-- 13&#45;&gt;14 -->
<g id="edge20" class="edge">
<title>13-&gt;14</title>
<path fill="none" stroke="#7aab8a" d="M508.43,-1333.46C464.67,-1319.45 401.92,-1299.36 352.42,-1283.51"/>
<polygon fill="#7aab8a" stroke="#7aab8a" points="353.78,-1280.27 343.19,-1280.55 351.64,-1286.94 353.78,-1280.27"/>
<text text-anchor="start" x="451.4" y="-1303.12" font-family="Times,serif" font-weight="bold" font-size="14.00">JA</text>
</g>
<!-- 15 -->
<g id="node29" class="node">
<title>15</title>
<path fill="#7aab8a" stroke="black" stroke-width="0" d="M745.67,-1181.64C745.67,-1181.64 167.12,-1181.64 167.12,-1181.64 161.12,-1181.64 155.12,-1175.64 155.12,-1169.64 155.12,-1169.64 155.12,-1157.64 155.12,-1157.64 155.12,-1151.64 161.12,-1145.64 167.12,-1145.64 167.12,-1145.64 745.67,-1145.64 745.67,-1145.64 751.67,-1145.64 757.67,-1151.64 757.67,-1157.64 757.67,-1157.64 757.67,-1169.64 757.67,-1169.64 757.67,-1175.64 751.67,-1181.64 745.67,-1181.64"/>
<text text-anchor="start" x="169.52" y="-1159.96" font-family="Times,serif" font-weight="bold" font-size="14.00">15: </text>
<text text-anchor="start" x="198.77" y="-1159.96" font-family="Times,serif" font-size="14.00">Ist der im Vorgang genannte LF identisch mit dem Absender der Nachricht?</text>
</g>
<!-- 13&#45;&gt;15 -->
<g id="edge21" class="edge">
<title>13-&gt;15</title>
<path fill="none" stroke="#7aab8a" d="M562.23,-1333.5C562.63,-1309.83 560.52,-1266.21 542.4,-1234.89 531.32,-1215.74 512.9,-1199.64 495.94,-1187.71"/>
<polygon fill="#7aab8a" stroke="#7aab8a" points="498.23,-1185.03 487.98,-1182.36 494.32,-1190.84 498.23,-1185.03"/>
<text text-anchor="start" x="557.4" y="-1253.86" font-family="Times,serif" font-weight="bold" font-size="14.00">NEIN</text>
</g>
<!-- 14&#45;&gt;15 -->
<g id="edge22" class="edge">
<title>14-&gt;15</title>
<path fill="none" stroke="#7aab8a" d="M317.07,-1234.99C345.8,-1220.48 383.58,-1201.41 412.55,-1186.78"/>
<polygon fill="#7aab8a" stroke="#7aab8a" points="414.09,-1189.92 421.44,-1182.29 410.94,-1183.67 414.09,-1189.92"/>
<text text-anchor="start" x="386.4" y="-1204.59" font-family="Times,serif" font-weight="bold" font-size="14.00">JA</text>
</g>
<!-- A18 -->
<g id="node28" class="node">
<title>A18</title>
<path fill="#cfb986" stroke="black" stroke-width="0" d="M5290.14,-2619.34C5290.14,-2619.34 5088.66,-2619.34 5088.66,-2619.34 5082.66,-2619.34 5076.66,-2613.34 5076.66,-2607.34 5076.66,-2607.34 5076.66,-2581.82 5076.66,-2581.82 5076.66,-2575.82 5082.66,-2569.82 5088.66,-2569.82 5088.66,-2569.82 5290.14,-2569.82 5290.14,-2569.82 5296.14,-2569.82 5302.14,-2575.82 5302.14,-2581.82 5302.14,-2581.82 5302.14,-2607.34 5302.14,-2607.34 5302.14,-2613.34 5296.14,-2619.34 5290.14,-2619.34"/>
<text text-anchor="start" x="5088.9" y="-2601.28" font-family="Times,serif" font-weight="bold" font-size="14.00">A18</text>
<text text-anchor="start" x="5088.9" y="-2589.18" font-family="Times,serif" text-decoration="underline" font-size="12.00">Hinweis:</text>
<text text-anchor="start" x="5088.9" y="-2577.18" font-family="Times,serif" font-size="12.00">Messstellenbetreiber nicht g&#252;ltig.</text>
</g>
<!-- 16 -->
<g id="node31" class="node">
<title>16</title>
<path fill="#7aab8a" stroke="black" stroke-width="0" d="M670.3,-1092.39C670.3,-1092.39 242.5,-1092.39 242.5,-1092.39 236.5,-1092.39 230.5,-1086.39 230.5,-1080.39 230.5,-1080.39 230.5,-1068.39 230.5,-1068.39 230.5,-1062.39 236.5,-1056.39 242.5,-1056.39 242.5,-1056.39 670.3,-1056.39 670.3,-1056.39 676.3,-1056.39 682.3,-1062.39 682.3,-1068.39 682.3,-1068.39 682.3,-1080.39 682.3,-1080.39 682.3,-1086.39 676.3,-1092.39 670.3,-1092.39"/>
<text text-anchor="start" x="244.9" y="-1070.71" font-family="Times,serif" font-weight="bold" font-size="14.00">16: </text>
<text text-anchor="start" x="274.15" y="-1070.71" font-family="Times,serif" font-size="14.00">Ist der Bilanzkreis zum angegebenen Zeitpunkt g&#252;ltig?</text>
</g>
<!-- 15&#45;&gt;16 -->
<g id="edge23" class="edge">
<title>15-&gt;16</title>
<path fill="none" stroke="#7aab8a" d="M456.4,-1145.82C456.4,-1133.87 456.4,-1117.54 456.4,-1103.61"/>
<polygon fill="#7aab8a" stroke="#7aab8a" points="459.9,-1103.67 456.4,-1093.67 452.9,-1103.67 459.9,-1103.67"/>
<text text-anchor="start" x="456.4" y="-1115.34" font-family="Times,serif" font-weight="bold" font-size="14.00">JA</text>
</g>
<!-- A05 -->
<g id="node30" class="node">
<title>A05</title>
<path fill="#cfb986" stroke="black" stroke-width="0" d="M5578.64,-2619.34C5578.64,-2619.34 5332.16,-2619.34 5332.16,-2619.34 5326.16,-2619.34 5320.16,-2613.34 5320.16,-2607.34 5320.16,-2607.34 5320.16,-2581.82 5320.16,-2581.82 5320.16,-2575.82 5326.16,-2569.82 5332.16,-2569.82 5332.16,-2569.82 5578.64,-2569.82 5578.64,-2569.82 5584.64,-2569.82 5590.64,-2575.82 5590.64,-2581.82 5590.64,-2581.82 5590.64,-2607.34 5590.64,-2607.34 5590.64,-2613.34 5584.64,-2619.34 5578.64,-2619.34"/>
<text text-anchor="start" x="5332.4" y="-2601.28" font-family="Times,serif" font-weight="bold" font-size="14.00">A05</text>
<text text-anchor="start" x="5332.4" y="-2589.18" font-family="Times,serif" text-decoration="underline" font-size="12.00">Hinweis:</text>
<text text-anchor="start" x="5332.4" y="-2577.18" font-family="Times,serif" font-size="12.00">LF im Vorgang weicht vom Absender ab.</text>
</g>
<!-- 17 -->
<g id="node33" class="node">
<title>17</title>
<path fill="#7aab8a" stroke="black" stroke-width="0" d="M788.8,-1003.14C788.8,-1003.14 124,-1003.14 124,-1003.14 118,-1003.14 112,-997.14 112,-991.14 112,-991.14 112,-979.14 112,-979.14 112,-973.14 118,-967.14 124,-967.14 124,-967.14 788.8,-967.14 788.8,-967.14 794.8,-967.14 800.8,-973.14 800.8,-979.14 800.8,-979.14 800.8,-991.14 800.8,-991.14 800.8,-997.14 794.8,-1003.14 788.8,-1003.14"/>
<text text-anchor="start" x="126.4" y="-981.46" font-family="Times,serif" font-weight="bold" font-size="14.00">17: </text>
<text text-anchor="start" x="155.65" y="-981.46" font-family="Times,serif" font-size="14.00">Entspricht der Zeitreihentyp (ZRT) dem g&#252;ltigen ZRT zur Datenaggregation beim &#220;NB?</text>
</g>
<!-- 16&#45;&gt;17 -->
<g id="edge24" class="edge">
<title>16-&gt;17</title>
<path fill="none" stroke="#7aab8a" d="M456.4,-1056.57C456.4,-1044.62 456.4,-1028.29 456.4,-1014.36"/>
<polygon fill="#7aab8a" stroke="#7aab8a" points="459.9,-1014.42 456.4,-1004.42 452.9,-1014.42 459.9,-1014.42"/>
<text text-anchor="start" x="456.4" y="-1026.09" font-family="Times,serif" font-weight="bold" font-size="14.00">JA</text>
</g>
<!-- A06 -->
<g id="node32" class="node">
<title>A06</title>
<path fill="#cfb986" stroke="black" stroke-width="0" d="M5764.26,-2619.34C5764.26,-2619.34 5620.53,-2619.34 5620.53,-2619.34 5614.53,-2619.34 5608.53,-2613.34 5608.53,-2607.34 5608.53,-2607.34 5608.53,-2581.82 5608.53,-2581.82 5608.53,-2575.82 5614.53,-2569.82 5620.53,-2569.82 5620.53,-2569.82 5764.26,-2569.82 5764.26,-2569.82 5770.26,-2569.82 5776.26,-2575.82 5776.26,-2581.82 5776.26,-2581.82 5776.26,-2607.34 5776.26,-2607.34 5776.26,-2613.34 5770.26,-2619.34 5764.26,-2619.34"/>
<text text-anchor="start" x="5620.77" y="-2601.28" font-family="Times,serif" font-weight="bold" font-size="14.00">A06</text>
<text text-anchor="start" x="5620.77" y="-2589.18" font-family="Times,serif" text-decoration="underline" font-size="12.00">Hinweis:</text>
<text text-anchor="start" x="5620.77" y="-2577.18" font-family="Times,serif" font-size="12.00">Bilanzkreis nicht g&#252;ltig.</text>
</g>
<!-- 18 -->
<g id="node35" class="node">
<title>18</title>
<path fill="#7aab8a" stroke="black" stroke-width="0" d="M615.55,-913.89C615.55,-913.89 297.25,-913.89 297.25,-913.89 291.25,-913.89 285.25,-907.89 285.25,-901.89 285.25,-901.89 285.25,-889.89 285.25,-889.89 285.25,-883.89 291.25,-877.89 297.25,-877.89 297.25,-877.89 615.55,-877.89 615.55,-877.89 621.55,-877.89 627.55,-883.89 627.55,-889.89 627.55,-889.89 627.55,-901.89 627.55,-901.89 627.55,-907.89 621.55,-913.89 615.55,-913.89"/>
<text text-anchor="start" x="299.65" y="-892.21" font-family="Times,serif" font-weight="bold" font-size="14.00">18: </text>
<text text-anchor="start" x="328.9" y="-892.21" font-family="Times,serif" font-size="14.00">Passt die Prognosegrundlage zum ZRT?</text>
</g>
<!-- 17&#45;&gt;18 -->
<g id="edge25" class="edge">
<title>17-&gt;18</title>
<path fill="none" stroke="#7aab8a" d="M456.4,-967.32C456.4,-955.37 456.4,-939.04 456.4,-925.11"/>
<polygon fill="#7aab8a" stroke="#7aab8a" points="459.9,-925.17 456.4,-915.17 452.9,-925.17 459.9,-925.17"/>
<text text-anchor="start" x="456.4" y="-936.84" font-family="Times,serif" font-weight="bold" font-size="14.00">JA</text>
</g>
<!-- A07 -->
<g id="node34" class="node">
<title>A07</title>
<path fill="#cfb986" stroke="black" stroke-width="0" d="M5922.39,-2619.34C5922.39,-2619.34 5806.41,-2619.34 5806.41,-2619.34 5800.41,-2619.34 5794.41,-2613.34 5794.41,-2607.34 5794.41,-2607.34 5794.41,-2581.82 5794.41,-2581.82 5794.41,-2575.82 5800.41,-2569.82 5806.41,-2569.82 5806.41,-2569.82 5922.39,-2569.82 5922.39,-2569.82 5928.39,-2569.82 5934.39,-2575.82 5934.39,-2581.82 5934.39,-2581.82 5934.39,-2607.34 5934.39,-2607.34 5934.39,-2613.34 5928.39,-2619.34 5922.39,-2619.34"/>
<text text-anchor="start" x="5806.65" y="-2601.28" font-family="Times,serif" font-weight="bold" font-size="14.00">A07</text>
<text text-anchor="start" x="5806.65" y="-2589.18" font-family="Times,serif" text-decoration="underline" font-size="12.00">Hinweis:</text>
<text text-anchor="start" x="5806.65" y="-2577.18" font-family="Times,serif" font-size="12.00">ZRT nicht passend.</text>
</g>
<!-- 19 -->
<g id="node37" class="node">
<title>19</title>
<path fill="#7aab8a" stroke="black" stroke-width="0" d="M599.05,-824.64C599.05,-824.64 313.75,-824.64 313.75,-824.64 307.75,-824.64 301.75,-818.64 301.75,-812.64 301.75,-812.64 301.75,-800.64 301.75,-800.64 301.75,-794.64 307.75,-788.64 313.75,-788.64 313.75,-788.64 599.05,-788.64 599.05,-788.64 605.05,-788.64 611.05,-794.64 611.05,-800.64 611.05,-800.64 611.05,-812.64 611.05,-812.64 611.05,-818.64 605.05,-824.64 599.05,-824.64"/>
<text text-anchor="start" x="316.15" y="-802.96" font-family="Times,serif" font-weight="bold" font-size="14.00">19: </text>
<text text-anchor="start" x="345.4" y="-802.96" font-family="Times,serif" font-size="14.00">Passt die OBIS-Kennzahl zum ZRT?</text>
</g>
<!-- 18&#45;&gt;19 -->
<g id="edge26" class="edge">
<title>18-&gt;19</title>
<path fill="none" stroke="#7aab8a" d="M456.4,-878.07C456.4,-866.12 456.4,-849.79 456.4,-835.86"/>
<polygon fill="#7aab8a" stroke="#7aab8a" points="459.9,-835.92 456.4,-825.92 452.9,-835.92 459.9,-835.92"/>
<text text-anchor="start" x="456.4" y="-847.59" font-family="Times,serif" font-weight="bold" font-size="14.00">JA</text>
</g>
<!-- A17 -->
<g id="node36" class="node">
<title>A17</title>
<path fill="#cfb986" stroke="black" stroke-width="0" d="M6212.01,-2619.34C6212.01,-2619.34 5964.78,-2619.34 5964.78,-2619.34 5958.78,-2619.34 5952.78,-2613.34 5952.78,-2607.34 5952.78,-2607.34 5952.78,-2581.82 5952.78,-2581.82 5952.78,-2575.82 5958.78,-2569.82 5964.78,-2569.82 5964.78,-2569.82 6212.01,-2569.82 6212.01,-2569.82 6218.01,-2569.82 6224.01,-2575.82 6224.01,-2581.82 6224.01,-2581.82 6224.01,-2607.34 6224.01,-2607.34 6224.01,-2613.34 6218.01,-2619.34 6212.01,-2619.34"/>
<text text-anchor="start" x="5965.02" y="-2601.28" font-family="Times,serif" font-weight="bold" font-size="14.00">A17</text>
<text text-anchor="start" x="5965.02" y="-2589.18" font-family="Times,serif" text-decoration="underline" font-size="12.00">Hinweis:</text>
<text text-anchor="start" x="5965.02" y="-2577.18" font-family="Times,serif" font-size="12.00">Prognosegrundlage passt nicht zum ZRT.</text>
</g>
<!-- 20 -->
<g id="node39" class="node">
<title>20</title>
<path fill="#7aab8a" stroke="black" stroke-width="0" d="M597.17,-735.39C597.17,-735.39 315.62,-735.39 315.62,-735.39 309.62,-735.39 303.62,-729.39 303.62,-723.39 303.62,-723.39 303.62,-711.39 303.62,-711.39 303.62,-705.39 309.62,-699.39 315.62,-699.39 315.62,-699.39 597.17,-699.39 597.17,-699.39 603.17,-699.39 609.17,-705.39 609.17,-711.39 609.17,-711.39 609.17,-723.39 609.17,-723.39 609.17,-729.39 603.17,-735.39 597.17,-735.39"/>
<text text-anchor="start" x="318.02" y="-713.71" font-family="Times,serif" font-weight="bold" font-size="14.00">20: </text>
<text text-anchor="start" x="347.27" y="-713.71" font-family="Times,serif" font-size="14.00">Passt die Lieferrichtung zum ZRT?</text>
</g>
<!-- 19&#45;&gt;20 -->
<g id="edge27" class="edge">
<title>19-&gt;20</title>
<path fill="none" stroke="#7aab8a" d="M456.4,-788.82C456.4,-776.87 456.4,-760.54 456.4,-746.61"/>
<polygon fill="#7aab8a" stroke="#7aab8a" points="459.9,-746.67 456.4,-736.67 452.9,-746.67 459.9,-746.67"/>
<text text-anchor="start" x="456.4" y="-758.34" font-family="Times,serif" font-weight="bold" font-size="14.00">JA</text>
</g>
<!-- A08 -->
<g id="node38" class="node">
<title>A08</title>
<path fill="#cfb986" stroke="black" stroke-width="0" d="M6376.39,-2619.34C6376.39,-2619.34 6254.41,-2619.34 6254.41,-2619.34 6248.41,-2619.34 6242.41,-2613.34 6242.41,-2607.34 6242.41,-2607.34 6242.41,-2581.82 6242.41,-2581.82 6242.41,-2575.82 6248.41,-2569.82 6254.41,-2569.82 6254.41,-2569.82 6376.39,-2569.82 6376.39,-2569.82 6382.39,-2569.82 6388.39,-2575.82 6388.39,-2581.82 6388.39,-2581.82 6388.39,-2607.34 6388.39,-2607.34 6388.39,-2613.34 6382.39,-2619.34 6376.39,-2619.34"/>
<text text-anchor="start" x="6254.65" y="-2601.28" font-family="Times,serif" font-weight="bold" font-size="14.00">A08</text>
<text text-anchor="start" x="6254.65" y="-2589.18" font-family="Times,serif" text-decoration="underline" font-size="12.00">Hinweis:</text>
<text text-anchor="start" x="6254.65" y="-2577.18" font-family="Times,serif" font-size="12.00">OBIS nicht passend.</text>
</g>
<!-- 21 -->
<g id="node41" class="node">
<title>21</title>
<path fill="#7aab8a" stroke="black" stroke-width="0" d="M761.8,-646.14C761.8,-646.14 151,-646.14 151,-646.14 145,-646.14 139,-640.14 139,-634.14 139,-634.14 139,-612.86 139,-612.86 139,-606.86 145,-600.86 151,-600.86 151,-600.86 761.8,-600.86 761.8,-600.86 767.8,-600.86 773.8,-606.86 773.8,-612.86 773.8,-612.86 773.8,-634.14 773.8,-634.14 773.8,-640.14 767.8,-646.14 761.8,-646.14"/>
<text text-anchor="start" x="153.4" y="-625.2" font-family="Times,serif" font-weight="bold" font-size="14.00">21: </text>
<text text-anchor="start" x="182.65" y="-625.2" font-family="Times,serif" font-size="14.00">Entspricht das Bilanzierungsverfahren dem g&#252;ltigen Bilanzierungsverfahren zur</text>
<text text-anchor="start" x="153.4" y="-611.2" font-family="Times,serif" font-size="14.00">Datenaggregation beim &#220;NB?</text>
</g>
<!-- 20&#45;&gt;21 -->
<g id="edge28" class="edge">
<title>20-&gt;21</title>
<path fill="none" stroke="#7aab8a" d="M456.4,-699.54C456.4,-687.8 456.4,-671.75 456.4,-657.52"/>
<polygon fill="#7aab8a" stroke="#7aab8a" points="459.9,-657.63 456.4,-647.63 452.9,-657.63 459.9,-657.63"/>
<text text-anchor="start" x="456.4" y="-669.09" font-family="Times,serif" font-weight="bold" font-size="14.00">JA</text>
</g>
<!-- A09 -->
<g id="node40" class="node">
<title>A09</title>
<path fill="#cfb986" stroke="black" stroke-width="0" d="M6596.14,-2619.34C6596.14,-2619.34 6418.66,-2619.34 6418.66,-2619.34 6412.66,-2619.34 6406.66,-2613.34 6406.66,-2607.34 6406.66,-2607.34 6406.66,-2581.82 6406.66,-2581.82 6406.66,-2575.82 6412.66,-2569.82 6418.66,-2569.82 6418.66,-2569.82 6596.14,-2569.82 6596.14,-2569.82 6602.14,-2569.82 6608.14,-2575.82 6608.14,-2581.82 6608.14,-2581.82 6608.14,-2607.34 6608.14,-2607.34 6608.14,-2613.34 6602.14,-2619.34 6596.14,-2619.34"/>
<text text-anchor="start" x="6418.9" y="-2601.28" font-family="Times,serif" font-weight="bold" font-size="14.00">A09</text>
<text text-anchor="start" x="6418.9" y="-2589.18" font-family="Times,serif" text-decoration="underline" font-size="12.00">Hinweis:</text>
<text text-anchor="start" x="6418.9" y="-2577.18" font-family="Times,serif" font-size="12.00">Lieferrichtung nicht passend.</text>
</g>
<!-- 23 -->
<g id="node43" class="node">
<title>23</title>
<path fill="#7aab8a" stroke="black" stroke-width="0" d="M694.67,-547.61C694.67,-547.61 218.12,-547.61 218.12,-547.61 212.12,-547.61 206.12,-541.61 206.12,-535.61 206.12,-535.61 206.12,-523.61 206.12,-523.61 206.12,-517.61 212.12,-511.61 218.12,-511.61 218.12,-511.61 694.67,-511.61 694.67,-511.61 700.67,-511.61 706.67,-517.61 706.67,-523.61 706.67,-523.61 706.67,-535.61 706.67,-535.61 706.67,-541.61 700.67,-547.61 694.67,-547.61"/>
<text text-anchor="start" x="220.52" y="-525.93" font-family="Times,serif" font-weight="bold" font-size="14.00">23: </text>
<text text-anchor="start" x="249.77" y="-525.93" font-family="Times,serif" font-size="14.00">Wird die Marktlokation auf Grundlage von Profilen bilanziert?</text>
</g>
<!-- 21&#45;&gt;23 -->
<g id="edge29" class="edge">
<title>21-&gt;23</title>
<path fill="none" stroke="#7aab8a" d="M456.4,-601.19C456.4,-588.56 456.4,-572.4 456.4,-558.74"/>
<polygon fill="#7aab8a" stroke="#7aab8a" points="459.9,-559.03 456.4,-549.03 452.9,-559.03 459.9,-559.03"/>
<text text-anchor="start" x="456.4" y="-570.56" font-family="Times,serif" font-weight="bold" font-size="14.00">JA</text>
</g>
<!-- A10 -->
<g id="node42" class="node">
<title>A10</title>
<path fill="#cfb986" stroke="black" stroke-width="0" d="M6856.39,-2619.34C6856.39,-2619.34 6638.41,-2619.34 6638.41,-2619.34 6632.41,-2619.34 6626.41,-2613.34 6626.41,-2607.34 6626.41,-2607.34 6626.41,-2581.82 6626.41,-2581.82 6626.41,-2575.82 6632.41,-2569.82 6638.41,-2569.82 6638.41,-2569.82 6856.39,-2569.82 6856.39,-2569.82 6862.39,-2569.82 6868.39,-2575.82 6868.39,-2581.82 6868.39,-2581.82 6868.39,-2607.34 6868.39,-2607.34 6868.39,-2613.34 6862.39,-2619.34 6856.39,-2619.34"/>
<text text-anchor="start" x="6638.65" y="-2601.28" font-family="Times,serif" font-weight="bold" font-size="14.00">A10</text>
<text text-anchor="start" x="6638.65" y="-2589.18" font-family="Times,serif" text-decoration="underline" font-size="12.00">Hinweis:</text>
<text text-anchor="start" x="6638.65" y="-2577.18" font-family="Times,serif" font-size="12.00">Bilanzierungsverfahren nicht g&#252;ltig.</text>
</g>
<!-- 24 -->
<g id="node44" class="node">
<title>24</title>
<path fill="#7aab8a" stroke="black" stroke-width="0" d="M677.67,-458.36C677.67,-458.36 117.12,-458.36 117.12,-458.36 111.12,-458.36 105.12,-452.36 105.12,-446.36 105.12,-446.36 105.12,-425.08 105.12,-425.08 105.12,-419.08 111.12,-413.08 117.12,-413.08 117.12,-413.08 677.67,-413.08 677.67,-413.08 683.67,-413.08 689.67,-419.08 689.67,-425.08 689.67,-425.08 689.67,-446.36 689.67,-446.36 689.67,-452.36 683.67,-458.36 677.67,-458.36"/>
<text text-anchor="start" x="119.52" y="-437.42" font-family="Times,serif" font-weight="bold" font-size="14.00">24: </text>
<text text-anchor="start" x="148.77" y="-437.42" font-family="Times,serif" font-size="14.00">Ist das angegebene normierte Profil zum angegebenen Zeitpunkt f&#252;r das</text>
<text text-anchor="start" x="119.52" y="-423.42" font-family="Times,serif" font-size="14.00">Bilanzierungsgebiet Bestandteil der Profildefinitionsliste des Netzbetreibers?</text>
</g>
<!-- 23&#45;&gt;24 -->
<g id="edge30" class="edge">
<title>23-&gt;24</title>
<path fill="none" stroke="#7aab8a" d="M445.58,-511.76C437.66,-499.43 426.7,-482.36 417.24,-467.61"/>
<polygon fill="#7aab8a" stroke="#7aab8a" points="420.44,-466.13 412.09,-459.61 414.55,-469.91 420.44,-466.13"/>
<text text-anchor="start" x="433.4" y="-481.31" font-family="Times,serif" font-weight="bold" font-size="14.00">JA</text>
</g>
<!-- 27 -->
<g id="node50" class="node">
<title>27</title>
<path fill="#7aab8a" stroke="black" stroke-width="0" d="M924.42,-162.77C924.42,-162.77 446.38,-162.77 446.38,-162.77 440.38,-162.77 434.38,-156.77 434.38,-150.77 434.38,-150.77 434.38,-138.77 434.38,-138.77 434.38,-132.77 440.38,-126.77 446.38,-126.77 446.38,-126.77 924.42,-126.77 924.42,-126.77 930.42,-126.77 936.42,-132.77 936.42,-138.77 936.42,-138.77 936.42,-150.77 936.42,-150.77 936.42,-156.77 930.42,-162.77 924.42,-162.77"/>
<text text-anchor="start" x="448.77" y="-141.09" font-family="Times,serif" font-weight="bold" font-size="14.00">27: </text>
<text text-anchor="start" x="478.02" y="-141.09" font-family="Times,serif" font-size="14.00">Hat keine vorangegangene Pr&#252;fung zu einer Antwort gef&#252;hrt?</text>
</g>
<!-- 23&#45;&gt;27 -->
<g id="edge31" class="edge">
<title>23-&gt;27</title>
<path fill="none" stroke="#7aab8a" d="M565.02,-511.65C639.31,-496.87 724.4,-472.2 724.4,-436.72 724.4,-436.72 724.4,-436.72 724.4,-237.66 724.4,-214.19 713.49,-189.84 703.21,-172.1"/>
<polygon fill="#7aab8a" stroke="#7aab8a" points="706.31,-170.47 698.1,-163.77 700.34,-174.13 706.31,-170.47"/>
<text text-anchor="start" x="724.4" y="-333.51" font-family="Times,serif" font-weight="bold" font-size="14.00">NEIN</text>
</g>
<!-- 25 -->
<g id="node46" class="node">
<title>25</title>
<path fill="#7aab8a" stroke="black" stroke-width="0" d="M676.42,-359.83C676.42,-359.83 78.38,-359.83 78.38,-359.83 72.38,-359.83 66.38,-353.83 66.38,-347.83 66.38,-347.83 66.38,-326.55 66.38,-326.55 66.38,-320.55 72.38,-314.55 78.38,-314.55 78.38,-314.55 676.42,-314.55 676.42,-314.55 682.42,-314.55 688.42,-320.55 688.42,-326.55 688.42,-326.55 688.42,-347.83 688.42,-347.83 688.42,-353.83 682.42,-359.83 676.42,-359.83"/>
<text text-anchor="start" x="80.77" y="-338.89" font-family="Times,serif" font-weight="bold" font-size="14.00">25: </text>
<text text-anchor="start" x="110.02" y="-338.89" font-family="Times,serif" font-size="14.00">Ist das angegebene normierte Profil zum angegebenen Zeitpunkt ein Profil aus</text>
<text text-anchor="start" x="80.77" y="-324.89" font-family="Times,serif" font-size="14.00">der Gruppe SLP mit synthetischen Verfahren?</text>
</g>
<!-- 24&#45;&gt;25 -->
<g id="edge32" class="edge">
<title>24-&gt;25</title>
<path fill="none" stroke="#7aab8a" d="M392.96,-413.3C390.37,-400.8 387.05,-384.78 384.15,-370.75"/>
<polygon fill="#7aab8a" stroke="#7aab8a" points="387.59,-370.12 382.13,-361.04 380.73,-371.54 387.59,-370.12"/>
<text text-anchor="start" x="388.4" y="-382.78" font-family="Times,serif" font-weight="bold" font-size="14.00">JA</text>
</g>
<!-- A12 -->
<g id="node45" class="node">
<title>A12</title>
<path fill="#cfb986" stroke="black" stroke-width="0" d="M7094.89,-2619.34C7094.89,-2619.34 6897.91,-2619.34 6897.91,-2619.34 6891.91,-2619.34 6885.91,-2613.34 6885.91,-2607.34 6885.91,-2607.34 6885.91,-2581.82 6885.91,-2581.82 6885.91,-2575.82 6891.91,-2569.82 6897.91,-2569.82 6897.91,-2569.82 7094.89,-2569.82 7094.89,-2569.82 7100.89,-2569.82 7106.89,-2575.82 7106.89,-2581.82 7106.89,-2581.82 7106.89,-2607.34 7106.89,-2607.34 7106.89,-2613.34 7100.89,-2619.34 7094.89,-2619.34"/>
<text text-anchor="start" x="6898.15" y="-2601.28" font-family="Times,serif" font-weight="bold" font-size="14.00">A12</text>
<text text-anchor="start" x="6898.15" y="-2589.18" font-family="Times,serif" text-decoration="underline" font-size="12.00">Hinweis:</text>
<text text-anchor="start" x="6898.15" y="-2577.18" font-family="Times,serif" font-size="12.00">Normiertes Profil liegt nicht vor.</text>
</g>
<!-- 26 -->
<g id="node48" class="node">
<title>26</title>
<path fill="#7aab8a" stroke="black" stroke-width="0" d="M665.92,-261.3C665.92,-261.3 124.88,-261.3 124.88,-261.3 118.88,-261.3 112.88,-255.3 112.88,-249.3 112.88,-249.3 112.88,-228.02 112.88,-228.02 112.88,-222.02 118.88,-216.02 124.88,-216.02 124.88,-216.02 665.92,-216.02 665.92,-216.02 671.92,-216.02 677.92,-222.02 677.92,-228.02 677.92,-228.02 677.92,-249.3 677.92,-249.3 677.92,-255.3 671.92,-261.3 665.92,-261.3"/>
<text text-anchor="start" x="127.27" y="-240.36" font-family="Times,serif" font-weight="bold" font-size="14.00">26: </text>
<text text-anchor="start" x="156.52" y="-240.36" font-family="Times,serif" font-size="14.00">Ist die Prognosegrundlage der Marktlokation eine, f&#252;r die der &#220;NB die</text>
<text text-anchor="start" x="127.27" y="-226.36" font-family="Times,serif" font-size="14.00">Aggregation durchf&#252;hren darf?</text>
</g>
<!-- 25&#45;&gt;26 -->
<g id="edge33" class="edge">
<title>25-&gt;26</title>
<path fill="none" stroke="#7aab8a" d="M381.39,-314.77C383.73,-302.27 386.71,-286.25 389.33,-272.22"/>
<polygon fill="#7aab8a" stroke="#7aab8a" points="392.75,-272.98 391.14,-262.51 385.87,-271.7 392.75,-272.98"/>
<text text-anchor="start" x="387.4" y="-284.25" font-family="Times,serif" font-weight="bold" font-size="14.00">JA</text>
</g>
<!-- A13 -->
<g id="node47" class="node">
<title>A13</title>
<path fill="#cfb986" stroke="black" stroke-width="0" d="M7495.89,-2619.34C7495.89,-2619.34 7136.91,-2619.34 7136.91,-2619.34 7130.91,-2619.34 7124.91,-2613.34 7124.91,-2607.34 7124.91,-2607.34 7124.91,-2581.82 7124.91,-2581.82 7124.91,-2575.82 7130.91,-2569.82 7136.91,-2569.82 7136.91,-2569.82 7495.89,-2569.82 7495.89,-2569.82 7501.89,-2569.82 7507.89,-2575.82 7507.89,-2581.82 7507.89,-2581.82 7507.89,-2607.34 7507.89,-2607.34 7507.89,-2613.34 7501.89,-2619.34 7495.89,-2619.34"/>
<text text-anchor="start" x="7137.15" y="-2601.28" font-family="Times,serif" font-weight="bold" font-size="14.00">A13</text>
<text text-anchor="start" x="7137.15" y="-2589.18" font-family="Times,serif" text-decoration="underline" font-size="12.00">Hinweis:</text>
<text text-anchor="start" x="7137.15" y="-2577.18" font-family="Times,serif" font-size="12.00">Normiertes Profil &#8211; nicht SLP mit synthetischem Verfahren.</text>
</g>
<!-- 26&#45;&gt;27 -->
<g id="edge34" class="edge">
<title>26-&gt;27</title>
<path fill="none" stroke="#7aab8a" d="M463.39,-216.12C510.97,-201.04 574.14,-181.02 620.93,-166.2"/>
<polygon fill="#7aab8a" stroke="#7aab8a" points="621.93,-169.55 630.4,-163.2 619.81,-162.88 621.93,-169.55"/>
<text text-anchor="start" x="574.4" y="-185.72" font-family="Times,serif" font-weight="bold" font-size="14.00">JA</text>
</g>
<!-- A14 -->
<g id="node49" class="node">
<title>A14</title>
<path fill="#cfb986" stroke="black" stroke-width="0" d="M7737.01,-2619.34C7737.01,-2619.34 7537.78,-2619.34 7537.78,-2619.34 7531.78,-2619.34 7525.78,-2613.34 7525.78,-2607.34 7525.78,-2607.34 7525.78,-2581.82 7525.78,-2581.82 7525.78,-2575.82 7531.78,-2569.82 7537.78,-2569.82 7537.78,-2569.82 7737.01,-2569.82 7737.01,-2569.82 7743.01,-2569.82 7749.01,-2575.82 7749.01,-2581.82 7749.01,-2581.82 7749.01,-2607.34 7749.01,-2607.34 7749.01,-2613.34 7743.01,-2619.34 7737.01,-2619.34"/>
<text text-anchor="start" x="7538.02" y="-2601.28" font-family="Times,serif" font-weight="bold" font-size="14.00">A14</text>
<text text-anchor="start" x="7538.02" y="-2589.18" font-family="Times,serif" text-decoration="underline" font-size="12.00">Hinweis:</text>
<text text-anchor="start" x="7538.02" y="-2577.18" font-family="Times,serif" font-size="12.00">Unpassende Prognosegrundlage.</text>
</g>
<!-- A15 -->
<g id="node51" class="node">
<title>A15</title>
<path fill="#cfb986" stroke="black" stroke-width="0" d="M631.39,-61.52C631.39,-61.52 311.41,-61.52 311.41,-61.52 305.41,-61.52 299.41,-55.52 299.41,-49.52 299.41,-49.52 299.41,-24 299.41,-24 299.41,-18 305.41,-12 311.41,-12 311.41,-12 631.39,-12 631.39,-12 637.39,-12 643.39,-18 643.39,-24 643.39,-24 643.39,-49.52 643.39,-49.52 643.39,-55.52 637.39,-61.52 631.39,-61.52"/>
<text text-anchor="start" x="311.65" y="-43.46" font-family="Times,serif" font-weight="bold" font-size="14.00">A15</text>
<text text-anchor="start" x="311.65" y="-31.36" font-family="Times,serif" text-decoration="underline" font-size="12.00">Hinweis:</text>
<text text-anchor="start" x="311.65" y="-19.36" font-family="Times,serif" font-size="12.00">Stammdaten wurden widerspruchsfrei &#252;bernommen.</text>
</g>
<!-- 27&#45;&gt;A15 -->
<g id="edge35" class="edge">
<title>27-&gt;A15</title>
<path fill="none" stroke="#7aab8a" d="M651.49,-126.97C618.71,-110.73 568.4,-85.81 529.27,-66.43"/>
<polygon fill="#7aab8a" stroke="#7aab8a" points="530.95,-63.35 520.43,-62.05 527.84,-69.62 530.95,-63.35"/>
<text text-anchor="start" x="609.4" y="-96.47" font-family="Times,serif" font-weight="bold" font-size="14.00">JA</text>
</g>
<!-- A** -->
<g id="node52" class="node">
<title>A**</title>
<path fill="#cfb986" stroke="black" stroke-width="0" d="M1125.76,-73.52C1125.76,-73.52 673.03,-73.52 673.03,-73.52 667.03,-73.52 661.03,-67.52 661.03,-61.52 661.03,-61.52 661.03,-12 661.03,-12 661.03,-6 667.03,0 673.03,0 673.03,0 1125.76,0 1125.76,0 1131.76,0 1137.76,-6 1137.76,-12 1137.76,-12 1137.76,-61.52 1137.76,-61.52 1137.76,-67.52 1131.76,-73.52 1125.76,-73.52"/>
<text text-anchor="start" x="673.27" y="-55.46" font-family="Times,serif" font-weight="bold" font-size="14.00">A**</text>
<text text-anchor="start" x="673.27" y="-43.36" font-family="Times,serif" text-decoration="underline" font-size="12.00">Hinweis:</text>
<text text-anchor="start" x="673.27" y="-31.36" font-family="Times,serif" font-size="12.00">Stammdaten wurden &#252;bernommen.</text>
<text text-anchor="start" x="673.27" y="-19.36" font-family="Times,serif" font-size="12.00">Hinweis A**: Es werden alle gemerkten Antwortcodes der vorhergehenden</text>
<text text-anchor="start" x="673.27" y="-7.36" font-family="Times,serif" font-size="12.00">Pr&#252;fschritte &#252;bermittelt.</text>
</g>
<!-- 27&#45;&gt;A** -->
<g id="edge36" class="edge">
<title>27-&gt;A**</title>
<path fill="none" stroke="#7aab8a" d="M719.31,-126.97C745.7,-113.9 783.44,-95.2 817.57,-78.3"/>
<polygon fill="#7aab8a" stroke="#7aab8a" points="818.79,-81.6 826.2,-74.02 815.69,-75.32 818.79,-81.6"/>
<text text-anchor="start" x="785.4" y="-96.47" font-family="Times,serif" font-weight="bold" font-size="14.00">NEIN</text>
</g>
</g>
</svg>
  </g>
</svg>
  </g>
</svg>
