<?xml version='1.0' encoding='ASCII' standalone='yes'?>
<svg xmlns="http://www.w3.org/2000/svg" xmlns:xlink="http://www.w3.org/1999/xlink" version="1.1" width="1920.0px" viewBox="0 0 1920.0 984.0" height="984.0px">
  <g>
    <svg version="1.1" width="1920.0px" viewBox="0 0 1920.0 984.0" height="984.0px">
  <polygon fill="#f3f1f6" points="0,0 1920.0,0 1920.0,984.0 0,984.0"/><g>
    <g transform="translate(558.7241903689101, 98.39999999999998) scale(1 1) translate(0, 0) scale(1.3855252041678403 1.3855252041678403) "><!-- note that I manually added the width and height attribute to the root node
  https://chatgpt.com/share/678e3028-70cc-800b-a296-782714735772
  -->
  <defs>
    <style>.cls-1{fill:#fff;}</style>
  </defs>
  <path class="cls-1" d="M122.44,531.2h-56.1c-11,0-19.9-9.12-19.46-20.11C57.47,243.89,278.15,29.78,547.91,29.78v56.02c0,10.98-8.69,19.89-19.66,20.39-225.51,10.31-405.8,197-405.8,425Z"/>
  <path class="cls-1" d="M273.78,531.2h-55.93c-11.23,0-20.09-9.48-19.43-20.69,10.74-183.44,163.39-329.39,349.48-329.39v56.26c0,10.71-8.27,19.62-18.96,20.35-142.35,9.77-255.17,128.69-255.17,273.46Z"/>
  <path class="cls-1" d="M425.77,531.2h-55.45c-11.65,0-20.6-10.17-19.33-21.75,10.87-99.03,95.03-176.34,196.92-176.34v57.01c0,10.05-7.28,18.75-17.23,20.16-59.22,8.4-104.91,59.42-104.91,120.92Z"/>
</g>
    <svg width="1440pt" height="738pt" viewBox="0.00 0.00 1440.00 738.08">
<g id="graph0" class="graph" transform="scale(0.444412 0.444412) rotate(0) translate(4 1656.8)">
<title>D</title>
<text text-anchor="start" x="1458.24" y="-1632.7" font-family="Times,serif" font-weight="bold" font-size="18.00">GPKE</text>
<text text-anchor="start" x="1458.24" y="-1602.6" font-family="Times,serif" font-weight="bold" font-size="16.00">6.3.1: AD: Lieferende von NB an LF</text>
<!-- Start -->
<g id="node1" class="node">
<title>Start</title>
<path fill="#7a8da1" stroke="black" stroke-width="0" d="M1702.39,-1554.8C1702.39,-1554.8 1571.59,-1554.8 1571.59,-1554.8 1565.59,-1554.8 1559.59,-1548.8 1559.59,-1542.8 1559.59,-1542.8 1559.59,-1523.52 1559.59,-1523.52 1559.59,-1517.52 1565.59,-1511.52 1571.59,-1511.52 1571.59,-1511.52 1702.39,-1511.52 1702.39,-1511.52 1708.39,-1511.52 1714.39,-1517.52 1714.39,-1523.52 1714.39,-1523.52 1714.39,-1542.8 1714.39,-1542.8 1714.39,-1548.8 1708.39,-1554.8 1702.39,-1554.8"/>
<text text-anchor="start" x="1608.87" y="-1533.86" font-family="Times,serif" font-weight="bold" font-size="14.00">E_0502</text>
<text text-anchor="start" x="1573.99" y="-1521.76" font-family="Times,serif" font-weight="bold" text-decoration="underline" font-size="12.00">Pr&#252;fende Rolle:</text>
<text text-anchor="start" x="1678.99" y="-1521.76" font-family="Times,serif" font-weight="bold" font-size="12.00"> LF</text>
</g>
<!-- 10 -->
<g id="node2" class="node">
<title>10</title>
<path fill="#7aab8a" stroke="black" stroke-width="0" d="M1944.64,-1474.52C1944.64,-1474.52 1329.34,-1474.52 1329.34,-1474.52 1323.34,-1474.52 1317.34,-1468.52 1317.34,-1462.52 1317.34,-1462.52 1317.34,-1441.24 1317.34,-1441.24 1317.34,-1435.24 1323.34,-1429.24 1329.34,-1429.24 1329.34,-1429.24 1944.64,-1429.24 1944.64,-1429.24 1950.64,-1429.24 1956.64,-1435.24 1956.64,-1441.24 1956.64,-1441.24 1956.64,-1462.52 1956.64,-1462.52 1956.64,-1468.52 1950.64,-1474.52 1944.64,-1474.52"/>
<text text-anchor="start" x="1331.74" y="-1453.58" font-family="Times,serif" font-weight="bold" font-size="14.00">10: </text>
<text text-anchor="start" x="1360.99" y="-1453.58" font-family="Times,serif" font-size="14.00">Wurde bereits zum identischen Abmeldedatum f&#252;r die in diesem Gesch&#228;ftsvorfall</text>
<text text-anchor="start" x="1331.74" y="-1439.58" font-family="Times,serif" font-size="14.00">genannte Marktlokation die Lieferende-Meldung positiv best&#228;tigt?</text>
</g>
<!-- Start&#45;&gt;10 -->
<g id="edge1" class="edge">
<title>Start-&gt;10</title>
<path fill="none" stroke="black" d="M1636.99,-1511.74C1636.99,-1503.77 1636.99,-1494.42 1636.99,-1485.56"/>
<polygon fill="black" stroke="black" points="1640.49,-1485.85 1636.99,-1475.85 1633.49,-1485.85 1640.49,-1485.85"/>
</g>
<!-- A01 -->
<g id="node3" class="node">
<title>A01</title>
<path fill="#cfb986" stroke="black" stroke-width="0" d="M1696.61,-1375.99C1696.61,-1375.99 1365.38,-1375.99 1365.38,-1375.99 1359.38,-1375.99 1353.38,-1369.99 1353.38,-1363.99 1353.38,-1363.99 1353.38,-1326.47 1353.38,-1326.47 1353.38,-1320.47 1359.38,-1314.47 1365.38,-1314.47 1365.38,-1314.47 1696.61,-1314.47 1696.61,-1314.47 1702.61,-1314.47 1708.61,-1320.47 1708.61,-1326.47 1708.61,-1326.47 1708.61,-1363.99 1708.61,-1363.99 1708.61,-1369.99 1702.61,-1375.99 1696.61,-1375.99"/>
<text text-anchor="start" x="1365.62" y="-1357.93" font-family="Times,serif" font-weight="bold" font-size="14.00">A01</text>
<text text-anchor="start" x="1365.62" y="-1345.83" font-family="Times,serif" text-decoration="underline" font-size="12.00">Hinweis:</text>
<text text-anchor="start" x="1365.62" y="-1333.83" font-family="Times,serif" font-size="12.00">Cluster: Ablehnung</text>
<text text-anchor="start" x="1365.62" y="-1321.83" font-family="Times,serif" font-size="12.00">Lieferende zum Abmeldedatum wurde bereits best&#228;tigt</text>
</g>
<!-- 10&#45;&gt;A01 -->
<g id="edge2" class="edge">
<title>10-&gt;A01</title>
<path fill="none" stroke="#7aab8a" d="M1615.28,-1429.45C1601.98,-1416.31 1584.57,-1399.13 1569.03,-1383.78"/>
<polygon fill="#7aab8a" stroke="#7aab8a" points="1571.76,-1381.56 1562.18,-1377.02 1566.84,-1386.54 1571.76,-1381.56"/>
<text text-anchor="start" x="1595.99" y="-1398.94" font-family="Times,serif" font-weight="bold" font-size="14.00">JA</text>
</g>
<!-- 20 -->
<g id="node4" class="node">
<title>20</title>
<path fill="#7aab8a" stroke="black" stroke-width="0" d="M2095.26,-1363.23C2095.26,-1363.23 1738.71,-1363.23 1738.71,-1363.23 1732.71,-1363.23 1726.71,-1357.23 1726.71,-1351.23 1726.71,-1351.23 1726.71,-1339.23 1726.71,-1339.23 1726.71,-1333.23 1732.71,-1327.23 1738.71,-1327.23 1738.71,-1327.23 2095.26,-1327.23 2095.26,-1327.23 2101.26,-1327.23 2107.26,-1333.23 2107.26,-1339.23 2107.26,-1339.23 2107.26,-1351.23 2107.26,-1351.23 2107.26,-1357.23 2101.26,-1363.23 2095.26,-1363.23"/>
<text text-anchor="start" x="1741.12" y="-1341.56" font-family="Times,serif" font-weight="bold" font-size="14.00">20: </text>
<text text-anchor="start" x="1770.37" y="-1341.56" font-family="Times,serif" font-size="14.00">Liegt der Transaktionsgrund Stilllegung vor?</text>
</g>
<!-- 10&#45;&gt;20 -->
<g id="edge3" class="edge">
<title>10-&gt;20</title>
<path fill="none" stroke="#7aab8a" d="M1694.67,-1429.32C1743.48,-1411.08 1813.01,-1385.09 1861.27,-1367.06"/>
<polygon fill="#7aab8a" stroke="#7aab8a" points="1862.27,-1370.42 1870.42,-1363.64 1859.82,-1363.86 1862.27,-1370.42"/>
<text text-anchor="start" x="1784.99" y="-1398.94" font-family="Times,serif" font-weight="bold" font-size="14.00">NEIN</text>
</g>
<!-- 30 -->
<g id="node5" class="node">
<title>30</title>
<path fill="#7aab8a" stroke="black" stroke-width="0" d="M1753.01,-1261.22C1753.01,-1261.22 1232.97,-1261.22 1232.97,-1261.22 1226.97,-1261.22 1220.97,-1255.22 1220.97,-1249.22 1220.97,-1249.22 1220.97,-1237.22 1220.97,-1237.22 1220.97,-1231.22 1226.97,-1225.22 1232.97,-1225.22 1232.97,-1225.22 1753.01,-1225.22 1753.01,-1225.22 1759.01,-1225.22 1765.01,-1231.22 1765.01,-1237.22 1765.01,-1237.22 1765.01,-1249.22 1765.01,-1249.22 1765.01,-1255.22 1759.01,-1261.22 1753.01,-1261.22"/>
<text text-anchor="start" x="1235.37" y="-1239.55" font-family="Times,serif" font-weight="bold" font-size="14.00">30: </text>
<text text-anchor="start" x="1264.62" y="-1239.55" font-family="Times,serif" font-size="14.00">Ist die Prognosegrundlage der Marktlokation auf Basis von Werten?</text>
</g>
<!-- 20&#45;&gt;30 -->
<g id="edge4" class="edge">
<title>20-&gt;30</title>
<path fill="none" stroke="#7aab8a" d="M1845.06,-1327.26C1770.49,-1309.67 1654.05,-1282.21 1575.71,-1263.73"/>
<polygon fill="#7aab8a" stroke="#7aab8a" points="1576.92,-1260.42 1566.39,-1261.53 1575.32,-1267.23 1576.92,-1260.42"/>
<text text-anchor="start" x="1704.99" y="-1284.17" font-family="Times,serif" font-weight="bold" font-size="14.00">JA</text>
</g>
<!-- 210 -->
<g id="node35" class="node">
<title>210</title>
<path fill="#7aab8a" stroke="black" stroke-width="0" d="M2636.01,-1261.22C2636.01,-1261.22 2049.96,-1261.22 2049.96,-1261.22 2043.96,-1261.22 2037.96,-1255.22 2037.96,-1249.22 2037.96,-1249.22 2037.96,-1237.22 2037.96,-1237.22 2037.96,-1231.22 2043.96,-1225.22 2049.96,-1225.22 2049.96,-1225.22 2636.01,-1225.22 2636.01,-1225.22 2642.01,-1225.22 2648.01,-1231.22 2648.01,-1237.22 2648.01,-1237.22 2648.01,-1249.22 2648.01,-1249.22 2648.01,-1255.22 2642.01,-1261.22 2636.01,-1261.22"/>
<text text-anchor="start" x="2052.36" y="-1239.55" font-family="Times,serif" font-weight="bold" font-size="14.00">210: </text>
<text text-anchor="start" x="2091.36" y="-1239.55" font-family="Times,serif" font-size="14.00">Ist das Datum &#8222;Bilanzierungsende&#8220; identisch mit dem Datum &#8222;Lieferende&#8220;?</text>
</g>
<!-- 20&#45;&gt;210 -->
<g id="edge5" class="edge">
<title>20-&gt;210</title>
<path fill="none" stroke="#7aab8a" d="M1989.26,-1327.26C2064.19,-1309.67 2181.17,-1282.21 2259.88,-1263.73"/>
<polygon fill="#7aab8a" stroke="#7aab8a" points="2260.32,-1267.22 2269.25,-1261.53 2258.72,-1260.41 2260.32,-1267.22"/>
<text text-anchor="start" x="2192.99" y="-1284.17" font-family="Times,serif" font-weight="bold" font-size="14.00">NEIN</text>
</g>
<!-- 40 -->
<g id="node6" class="node">
<title>40</title>
<path fill="#7aab8a" stroke="black" stroke-width="0" d="M1157.76,-1153.21C1157.76,-1153.21 522.22,-1153.21 522.22,-1153.21 516.22,-1153.21 510.22,-1147.21 510.22,-1141.21 510.22,-1141.21 510.22,-1129.21 510.22,-1129.21 510.22,-1123.21 516.22,-1117.21 522.22,-1117.21 522.22,-1117.21 1157.76,-1117.21 1157.76,-1117.21 1163.76,-1117.21 1169.76,-1123.21 1169.76,-1129.21 1169.76,-1129.21 1169.76,-1141.21 1169.76,-1141.21 1169.76,-1147.21 1163.76,-1153.21 1157.76,-1153.21"/>
<text text-anchor="start" x="524.62" y="-1131.54" font-family="Times,serif" font-weight="bold" font-size="14.00">40: </text>
<text text-anchor="start" x="553.87" y="-1131.54" font-family="Times,serif" font-size="14.00">Liegt das Lieferende-Datum mindestens einen 1 WT nach dem Nachrichteneingang?</text>
</g>
<!-- 30&#45;&gt;40 -->
<g id="edge6" class="edge">
<title>30-&gt;40</title>
<path fill="none" stroke="#7aab8a" d="M1388.44,-1225.25C1270.25,-1206.06 1078.4,-1174.91 955.78,-1155.01"/>
<polygon fill="#7aab8a" stroke="#7aab8a" points="956.42,-1151.57 945.99,-1153.42 955.3,-1158.48 956.42,-1151.57"/>
<text text-anchor="start" x="1262.99" y="-1194.92" font-family="Times,serif" font-weight="bold" font-size="14.00">JA</text>
</g>
<!-- 60 -->
<g id="node10" class="node">
<title>60</title>
<path fill="#7aab8a" stroke="black" stroke-width="0" d="M1750.01,-1153.21C1750.01,-1153.21 1235.97,-1153.21 1235.97,-1153.21 1229.97,-1153.21 1223.97,-1147.21 1223.97,-1141.21 1223.97,-1141.21 1223.97,-1129.21 1223.97,-1129.21 1223.97,-1123.21 1229.97,-1117.21 1235.97,-1117.21 1235.97,-1117.21 1750.01,-1117.21 1750.01,-1117.21 1756.01,-1117.21 1762.01,-1123.21 1762.01,-1129.21 1762.01,-1129.21 1762.01,-1141.21 1762.01,-1141.21 1762.01,-1147.21 1756.01,-1153.21 1750.01,-1153.21"/>
<text text-anchor="start" x="1238.37" y="-1131.54" font-family="Times,serif" font-weight="bold" font-size="14.00">60: </text>
<text text-anchor="start" x="1267.62" y="-1131.54" font-family="Times,serif" font-size="14.00">Wird ein Datum &#8222;Bilanzierungsende&#8220; in der Abmeldung mitgeteilt?</text>
</g>
<!-- 30&#45;&gt;60 -->
<g id="edge7" class="edge">
<title>30-&gt;60</title>
<path fill="none" stroke="#7aab8a" d="M1492.99,-1225.66C1492.99,-1209.26 1492.99,-1183.85 1492.99,-1164.29"/>
<polygon fill="#7aab8a" stroke="#7aab8a" points="1496.49,-1164.52 1492.99,-1154.52 1489.49,-1164.52 1496.49,-1164.52"/>
<text text-anchor="start" x="1492.99" y="-1194.92" font-family="Times,serif" font-weight="bold" font-size="14.00">NEIN</text>
</g>
<!-- A02 -->
<g id="node7" class="node">
<title>A02</title>
<path fill="#cfb986" stroke="black" stroke-width="0" d="M509.86,-1045.2C509.86,-1045.2 12.12,-1045.2 12.12,-1045.2 6.12,-1045.2 0.12,-1039.2 0.12,-1033.2 0.12,-1033.2 0.12,-983.68 0.12,-983.68 0.12,-977.68 6.12,-971.68 12.12,-971.68 12.12,-971.68 509.86,-971.68 509.86,-971.68 515.86,-971.68 521.86,-977.68 521.86,-983.68 521.86,-983.68 521.86,-1033.2 521.86,-1033.2 521.86,-1039.2 515.86,-1045.2 509.86,-1045.2"/>
<text text-anchor="start" x="12.37" y="-1027.14" font-family="Times,serif" font-weight="bold" font-size="14.00">A02</text>
<text text-anchor="start" x="12.37" y="-1015.04" font-family="Times,serif" text-decoration="underline" font-size="12.00">Hinweis:</text>
<text text-anchor="start" x="12.37" y="-1003.04" font-family="Times,serif" font-size="12.00">Cluster: Ablehnung</text>
<text text-anchor="start" x="12.37" y="-991.04" font-family="Times,serif" font-size="12.00">Eine Stilllegung einer Marktlokation mit Prognosegrundlage auf Basis von Werten</text>
<text text-anchor="start" x="12.37" y="-979.04" font-family="Times,serif" font-size="12.00">kann nicht in die Vergangenheit gemeldet werden.</text>
</g>
<!-- 40&#45;&gt;A02 -->
<g id="edge8" class="edge">
<title>40-&gt;A02</title>
<path fill="none" stroke="#7aab8a" d="M761.3,-1117.25C678.65,-1099.44 545.92,-1070.84 437.93,-1047.57"/>
<polygon fill="#7aab8a" stroke="#7aab8a" points="438.89,-1044.2 428.38,-1045.51 437.42,-1051.04 438.89,-1044.2"/>
<text text-anchor="start" x="584.99" y="-1068.15" font-family="Times,serif" font-weight="bold" font-size="14.00">NEIN</text>
</g>
<!-- 50 -->
<g id="node8" class="node">
<title>50</title>
<path fill="#7aab8a" stroke="black" stroke-width="0" d="M1128.14,-1026.44C1128.14,-1026.44 551.84,-1026.44 551.84,-1026.44 545.84,-1026.44 539.84,-1020.44 539.84,-1014.44 539.84,-1014.44 539.84,-1002.44 539.84,-1002.44 539.84,-996.44 545.84,-990.44 551.84,-990.44 551.84,-990.44 1128.14,-990.44 1128.14,-990.44 1134.14,-990.44 1140.14,-996.44 1140.14,-1002.44 1140.14,-1002.44 1140.14,-1014.44 1140.14,-1014.44 1140.14,-1020.44 1134.14,-1026.44 1128.14,-1026.44"/>
<text text-anchor="start" x="554.24" y="-1004.76" font-family="Times,serif" font-weight="bold" font-size="14.00">50: </text>
<text text-anchor="start" x="583.49" y="-1004.76" font-family="Times,serif" font-size="14.00">Ist das Datum &#8222;Bilanzierungsende&#8220; identisch mit dem Datum &#8222;Lieferende&#8220;?</text>
</g>
<!-- 40&#45;&gt;50 -->
<g id="edge9" class="edge">
<title>40-&gt;50</title>
<path fill="none" stroke="#7aab8a" d="M839.99,-1117.38C839.99,-1097.01 839.99,-1062.39 839.99,-1037.85"/>
<polygon fill="#7aab8a" stroke="#7aab8a" points="843.49,-1037.91 839.99,-1027.91 836.49,-1037.91 843.49,-1037.91"/>
<text text-anchor="start" x="839.99" y="-1068.15" font-family="Times,serif" font-weight="bold" font-size="14.00">JA</text>
</g>
<!-- A03 -->
<g id="node9" class="node">
<title>A03</title>
<path fill="#cfb986" stroke="black" stroke-width="0" d="M433.98,-918.43C433.98,-918.43 12,-918.43 12,-918.43 6,-918.43 0,-912.43 0,-906.43 0,-906.43 0,-856.91 0,-856.91 0,-850.91 6,-844.91 12,-844.91 12,-844.91 433.98,-844.91 433.98,-844.91 439.98,-844.91 445.98,-850.91 445.98,-856.91 445.98,-856.91 445.98,-906.43 445.98,-906.43 445.98,-912.43 439.98,-918.43 433.98,-918.43"/>
<text text-anchor="start" x="12.24" y="-900.37" font-family="Times,serif" font-weight="bold" font-size="14.00">A03</text>
<text text-anchor="start" x="12.24" y="-888.27" font-family="Times,serif" text-decoration="underline" font-size="12.00">Hinweis:</text>
<text text-anchor="start" x="12.24" y="-876.27" font-family="Times,serif" font-size="12.00">Cluster: Ablehnung</text>
<text text-anchor="start" x="12.24" y="-864.27" font-family="Times,serif" font-size="12.00">Bei Marktlokation mit Prognosegrundlage auf Basis von Werten muss</text>
<text text-anchor="start" x="12.24" y="-852.27" font-family="Times,serif" font-size="12.00">Bilanzierungsende und Lieferende identisch sein.</text>
</g>
<!-- 50&#45;&gt;A03 -->
<g id="edge10" class="edge">
<title>50-&gt;A03</title>
<path fill="none" stroke="#7aab8a" d="M693.64,-990.46C582.37,-977.28 443.97,-960.18 417.24,-953.68 384.33,-945.68 349.29,-933.93 318.17,-922.29"/>
<polygon fill="#7aab8a" stroke="#7aab8a" points="319.78,-919.15 309.19,-918.88 317.3,-925.7 319.78,-919.15"/>
<text text-anchor="start" x="416.99" y="-941.38" font-family="Times,serif" font-weight="bold" font-size="14.00">NEIN</text>
</g>
<!-- 200 -->
<g id="node32" class="node">
<title>200</title>
<path fill="#7aab8a" stroke="black" stroke-width="0" d="M2132.39,-186.17C2132.39,-186.17 1575.59,-186.17 1575.59,-186.17 1569.59,-186.17 1563.59,-180.17 1563.59,-174.17 1563.59,-174.17 1563.59,-152.89 1563.59,-152.89 1563.59,-146.89 1569.59,-140.89 1575.59,-140.89 1575.59,-140.89 2132.39,-140.89 2132.39,-140.89 2138.39,-140.89 2144.39,-146.89 2144.39,-152.89 2144.39,-152.89 2144.39,-174.17 2144.39,-174.17 2144.39,-180.17 2138.39,-186.17 2132.39,-186.17"/>
<text text-anchor="start" x="1577.99" y="-165.23" font-family="Times,serif" font-weight="bold" font-size="14.00">200: </text>
<text text-anchor="start" x="1616.99" y="-165.23" font-family="Times,serif" font-size="14.00">Liegen dem LF Informationen dar&#252;ber vor, dass die Marktlokation nicht</text>
<text text-anchor="start" x="1577.99" y="-151.23" font-family="Times,serif" font-size="14.00">stillgelegt wird/wurde?</text>
</g>
<!-- 50&#45;&gt;200 -->
<g id="edge11" class="edge">
<title>50-&gt;200</title>
<path fill="none" stroke="#7aab8a" d="M709.45,-990.48C626.46,-976.5 530.52,-953.25 507.99,-918.43 486.88,-885.79 494.88,-722.77 493.74,-601.61 493.67,-593.94 492.49,-591.92 493.74,-584.36 497.85,-559.46 517.01,-555.33 511.99,-530.6"/>
<path fill="none" stroke="#7aab8a" d="M511.99,-528.6C453.5,-325.1 -17.73,-411.76 122.99,-253.54 186.86,-181.72 493.57,-235.14 1306.99,-200.29 1386.68,-196.88 1472.81,-191.86 1552.63,-186.67"/>
<polygon fill="#7aab8a" stroke="#7aab8a" points="1552.59,-190.18 1562.34,-186.03 1552.14,-183.19 1552.59,-190.18"/>
<text text-anchor="start" x="492.99" y="-589.31" font-family="Times,serif" font-weight="bold" font-size="14.00">JA</text>
</g>
<!-- 70 -->
<g id="node11" class="node">
<title>70</title>
<path fill="#7aab8a" stroke="black" stroke-width="0" d="M1472.27,-1026.44C1472.27,-1026.44 1169.71,-1026.44 1169.71,-1026.44 1163.71,-1026.44 1157.71,-1020.44 1157.71,-1014.44 1157.71,-1014.44 1157.71,-1002.44 1157.71,-1002.44 1157.71,-996.44 1163.71,-990.44 1169.71,-990.44 1169.71,-990.44 1472.27,-990.44 1472.27,-990.44 1478.27,-990.44 1484.27,-996.44 1484.27,-1002.44 1484.27,-1002.44 1484.27,-1014.44 1484.27,-1014.44 1484.27,-1020.44 1478.27,-1026.44 1472.27,-1026.44"/>
<text text-anchor="start" x="1172.12" y="-1004.76" font-family="Times,serif" font-weight="bold" font-size="14.00">70: </text>
<text text-anchor="start" x="1201.37" y="-1004.76" font-family="Times,serif" font-size="14.00">Hat eine Bilanzierung stattgefunden?</text>
</g>
<!-- 60&#45;&gt;70 -->
<g id="edge13" class="edge">
<title>60-&gt;70</title>
<path fill="none" stroke="#7aab8a" d="M1469.79,-1117.38C1439.79,-1095.62 1387.35,-1057.58 1353.42,-1032.96"/>
<polygon fill="#7aab8a" stroke="#7aab8a" points="1355.74,-1030.33 1345.59,-1027.29 1351.63,-1035.99 1355.74,-1030.33"/>
<text text-anchor="start" x="1416.99" y="-1068.15" font-family="Times,serif" font-weight="bold" font-size="14.00">NEIN</text>
</g>
<!-- 80 -->
<g id="node13" class="node">
<title>80</title>
<path fill="#7aab8a" stroke="black" stroke-width="0" d="M1817.27,-1026.44C1817.27,-1026.44 1514.71,-1026.44 1514.71,-1026.44 1508.71,-1026.44 1502.71,-1020.44 1502.71,-1014.44 1502.71,-1014.44 1502.71,-1002.44 1502.71,-1002.44 1502.71,-996.44 1508.71,-990.44 1514.71,-990.44 1514.71,-990.44 1817.27,-990.44 1817.27,-990.44 1823.27,-990.44 1829.27,-996.44 1829.27,-1002.44 1829.27,-1002.44 1829.27,-1014.44 1829.27,-1014.44 1829.27,-1020.44 1823.27,-1026.44 1817.27,-1026.44"/>
<text text-anchor="start" x="1517.12" y="-1004.76" font-family="Times,serif" font-weight="bold" font-size="14.00">80: </text>
<text text-anchor="start" x="1546.37" y="-1004.76" font-family="Times,serif" font-size="14.00">Hat eine Bilanzierung stattgefunden?</text>
</g>
<!-- 60&#45;&gt;80 -->
<g id="edge12" class="edge">
<title>60-&gt;80</title>
<path fill="none" stroke="#7aab8a" d="M1516.32,-1117.38C1546.5,-1095.62 1599.24,-1057.58 1633.38,-1032.96"/>
<polygon fill="#7aab8a" stroke="#7aab8a" points="1635.18,-1035.97 1641.25,-1027.28 1631.09,-1030.3 1635.18,-1035.97"/>
<text text-anchor="start" x="1588.99" y="-1068.15" font-family="Times,serif" font-weight="bold" font-size="14.00">JA</text>
</g>
<!-- A13 -->
<g id="node12" class="node">
<title>A13</title>
<path fill="#cfb986" stroke="black" stroke-width="0" d="M974.36,-918.43C974.36,-918.43 551.62,-918.43 551.62,-918.43 545.62,-918.43 539.62,-912.43 539.62,-906.43 539.62,-906.43 539.62,-856.91 539.62,-856.91 539.62,-850.91 545.62,-844.91 551.62,-844.91 551.62,-844.91 974.36,-844.91 974.36,-844.91 980.36,-844.91 986.36,-850.91 986.36,-856.91 986.36,-856.91 986.36,-906.43 986.36,-906.43 986.36,-912.43 980.36,-918.43 974.36,-918.43"/>
<text text-anchor="start" x="551.87" y="-900.37" font-family="Times,serif" font-weight="bold" font-size="14.00">A13</text>
<text text-anchor="start" x="551.87" y="-888.27" font-family="Times,serif" text-decoration="underline" font-size="12.00">Hinweis:</text>
<text text-anchor="start" x="551.87" y="-876.27" font-family="Times,serif" font-size="12.00">Cluster: Ablehnung</text>
<text text-anchor="start" x="551.87" y="-864.27" font-family="Times,serif" font-size="12.00">Es wurde kein Bilanzierungsende mitgeteilt, obwohl eine Bilanzierung</text>
<text text-anchor="start" x="551.87" y="-852.27" font-family="Times,serif" font-size="12.00">stattgefunden hat.</text>
</g>
<!-- 70&#45;&gt;A13 -->
<g id="edge14" class="edge">
<title>70-&gt;A13</title>
<path fill="none" stroke="#7aab8a" d="M1245.15,-990.48C1165.58,-972.69 1037.84,-944.13 933.83,-920.87"/>
<polygon fill="#7aab8a" stroke="#7aab8a" points="934.88,-917.52 924.36,-918.75 933.35,-924.35 934.88,-917.52"/>
<text text-anchor="start" x="1074.99" y="-941.38" font-family="Times,serif" font-weight="bold" font-size="14.00">JA</text>
</g>
<!-- 70&#45;&gt;200 -->
<g id="edge15" class="edge">
<title>70-&gt;200</title>
<path fill="none" stroke="#7aab8a" d="M1248.94,-990.47C1218.28,-983.76 1182.03,-976.52 1148.99,-971.68 1012.6,-951.7 645.97,-994.45 530.99,-918.43 515.98,-908.5 511.99,-900.67 511.99,-882.67 511.99,-882.67 511.99,-882.67 511.99,-655.37 511.99,-599.92 522.24,-585.1 511.99,-530.6"/>
<text text-anchor="start" x="515.99" y="-589.31" font-family="Times,serif" font-weight="bold" font-size="14.00">NEIN</text>
</g>
<!-- A18 -->
<g id="node14" class="node">
<title>A18</title>
<path fill="#cfb986" stroke="black" stroke-width="0" d="M2022.36,-918.43C2022.36,-918.43 1599.62,-918.43 1599.62,-918.43 1593.62,-918.43 1587.62,-912.43 1587.62,-906.43 1587.62,-906.43 1587.62,-856.91 1587.62,-856.91 1587.62,-850.91 1593.62,-844.91 1599.62,-844.91 1599.62,-844.91 2022.36,-844.91 2022.36,-844.91 2028.36,-844.91 2034.36,-850.91 2034.36,-856.91 2034.36,-856.91 2034.36,-906.43 2034.36,-906.43 2034.36,-912.43 2028.36,-918.43 2022.36,-918.43"/>
<text text-anchor="start" x="1599.87" y="-900.37" font-family="Times,serif" font-weight="bold" font-size="14.00">A18</text>
<text text-anchor="start" x="1599.87" y="-888.27" font-family="Times,serif" text-decoration="underline" font-size="12.00">Hinweis:</text>
<text text-anchor="start" x="1599.87" y="-876.27" font-family="Times,serif" font-size="12.00">Cluster: Ablehnung</text>
<text text-anchor="start" x="1599.87" y="-864.27" font-family="Times,serif" font-size="12.00">Es wurde ein Bilanzierungsende mitgeteilt, obwohl keine Bilanzierung</text>
<text text-anchor="start" x="1599.87" y="-852.27" font-family="Times,serif" font-size="12.00">stattgefunden hat</text>
</g>
<!-- 80&#45;&gt;A18 -->
<g id="edge16" class="edge">
<title>80-&gt;A18</title>
<path fill="none" stroke="#7aab8a" d="M1685.55,-990.61C1704.78,-974.06 1734.96,-948.09 1760.89,-925.78"/>
<polygon fill="#7aab8a" stroke="#7aab8a" points="1763.06,-928.53 1768.35,-919.36 1758.49,-923.23 1763.06,-928.53"/>
<text text-anchor="start" x="1746.99" y="-941.38" font-family="Times,serif" font-weight="bold" font-size="14.00">NEIN</text>
</g>
<!-- 90 -->
<g id="node15" class="node">
<title>90</title>
<path fill="#7aab8a" stroke="black" stroke-width="0" d="M1557.14,-899.67C1557.14,-899.67 1016.84,-899.67 1016.84,-899.67 1010.84,-899.67 1004.84,-893.67 1004.84,-887.67 1004.84,-887.67 1004.84,-875.67 1004.84,-875.67 1004.84,-869.67 1010.84,-863.67 1016.84,-863.67 1016.84,-863.67 1557.14,-863.67 1557.14,-863.67 1563.14,-863.67 1569.14,-869.67 1569.14,-875.67 1569.14,-875.67 1569.14,-887.67 1569.14,-887.67 1569.14,-893.67 1563.14,-899.67 1557.14,-899.67"/>
<text text-anchor="start" x="1019.24" y="-878" font-family="Times,serif" font-weight="bold" font-size="14.00">90: </text>
<text text-anchor="start" x="1048.49" y="-878" font-family="Times,serif" font-size="14.00">Wurde bereits ein Lieferende zu einem sp&#228;teren Termin durchgef&#252;hrt?</text>
</g>
<!-- 80&#45;&gt;90 -->
<g id="edge17" class="edge">
<title>80-&gt;90</title>
<path fill="none" stroke="#7aab8a" d="M1614.48,-990.48C1545.42,-967.75 1422.96,-927.43 1348.94,-903.07"/>
<polygon fill="#7aab8a" stroke="#7aab8a" points="1350.42,-899.87 1339.82,-900.06 1348.23,-906.51 1350.42,-899.87"/>
<text text-anchor="start" x="1498.99" y="-941.38" font-family="Times,serif" font-weight="bold" font-size="14.00">JA</text>
</g>
<!-- 100 -->
<g id="node16" class="node">
<title>100</title>
<path fill="#7aab8a" stroke="black" stroke-width="0" d="M1603.01,-791.66C1603.01,-791.66 1058.97,-791.66 1058.97,-791.66 1052.97,-791.66 1046.97,-785.66 1046.97,-779.66 1046.97,-779.66 1046.97,-758.38 1046.97,-758.38 1046.97,-752.38 1052.97,-746.38 1058.97,-746.38 1058.97,-746.38 1603.01,-746.38 1603.01,-746.38 1609.01,-746.38 1615.01,-752.38 1615.01,-758.38 1615.01,-758.38 1615.01,-779.66 1615.01,-779.66 1615.01,-785.66 1609.01,-791.66 1603.01,-791.66"/>
<text text-anchor="start" x="1061.37" y="-770.72" font-family="Times,serif" font-weight="bold" font-size="14.00">100: </text>
<text text-anchor="start" x="1100.37" y="-770.72" font-family="Times,serif" font-size="14.00">Ist das mitgeteilte Bilanzierungsende sp&#228;ter als das zuvor mitgeteilte</text>
<text text-anchor="start" x="1061.37" y="-756.72" font-family="Times,serif" font-size="14.00">Bilanzierungsende?</text>
</g>
<!-- 90&#45;&gt;100 -->
<g id="edge18" class="edge">
<title>90-&gt;100</title>
<path fill="none" stroke="#7aab8a" d="M1293.67,-863.86C1300.16,-847.54 1310.19,-822.34 1318.21,-802.16"/>
<polygon fill="#7aab8a" stroke="#7aab8a" points="1321.43,-803.54 1321.87,-792.96 1314.92,-800.96 1321.43,-803.54"/>
<text text-anchor="start" x="1313.99" y="-814.61" font-family="Times,serif" font-weight="bold" font-size="14.00">JA</text>
</g>
<!-- 150 -->
<g id="node24" class="node">
<title>150</title>
<path fill="#7aab8a" stroke="black" stroke-width="0" d="M1462.64,-552.24C1462.64,-552.24 865.34,-552.24 865.34,-552.24 859.34,-552.24 853.34,-546.24 853.34,-540.24 853.34,-540.24 853.34,-518.96 853.34,-518.96 853.34,-512.96 859.34,-506.96 865.34,-506.96 865.34,-506.96 1462.64,-506.96 1462.64,-506.96 1468.64,-506.96 1474.64,-512.96 1474.64,-518.96 1474.64,-518.96 1474.64,-540.24 1474.64,-540.24 1474.64,-546.24 1468.64,-552.24 1462.64,-552.24"/>
<text text-anchor="start" x="867.74" y="-531.3" font-family="Times,serif" font-weight="bold" font-size="14.00">150: </text>
<text text-anchor="start" x="906.74" y="-531.3" font-family="Times,serif" font-size="14.00">Ist das Lieferendedatum &#8804; dem Monatsersten des Folgemonats 00:00 Uhr, in</text>
<text text-anchor="start" x="867.74" y="-517.3" font-family="Times,serif" font-size="14.00">welchem der Gesch&#228;ftsvorfall eingegangen ist?</text>
</g>
<!-- 90&#45;&gt;150 -->
<g id="edge19" class="edge">
<title>90-&gt;150</title>
<path fill="none" stroke="#7aab8a" d="M1163.55,-863.75C1117.63,-851.23 1069.16,-829.48 1037.99,-791.66 989.17,-732.43 985.93,-686.83 1022.99,-619.61 1038.43,-591.61 1066.78,-571.21 1094.04,-557.05"/>
<polygon fill="#7aab8a" stroke="#7aab8a" points="1095.24,-560.36 1102.65,-552.79 1092.14,-554.09 1095.24,-560.36"/>
<text text-anchor="start" x="1000.99" y="-716.08" font-family="Times,serif" font-weight="bold" font-size="14.00">NEIN</text>
</g>
<!-- A14 -->
<g id="node17" class="node">
<title>A14</title>
<path fill="#cfb986" stroke="black" stroke-width="0" d="M2101.36,-687.13C2101.36,-687.13 1660.62,-687.13 1660.62,-687.13 1654.62,-687.13 1648.62,-681.13 1648.62,-675.13 1648.62,-675.13 1648.62,-637.61 1648.62,-637.61 1648.62,-631.61 1654.62,-625.61 1660.62,-625.61 1660.62,-625.61 2101.36,-625.61 2101.36,-625.61 2107.36,-625.61 2113.36,-631.61 2113.36,-637.61 2113.36,-637.61 2113.36,-675.13 2113.36,-675.13 2113.36,-681.13 2107.36,-687.13 2101.36,-687.13"/>
<text text-anchor="start" x="1660.87" y="-669.07" font-family="Times,serif" font-weight="bold" font-size="14.00">A14</text>
<text text-anchor="start" x="1660.87" y="-656.97" font-family="Times,serif" text-decoration="underline" font-size="12.00">Hinweis:</text>
<text text-anchor="start" x="1660.87" y="-644.97" font-family="Times,serif" font-size="12.00">Cluster: Ablehnung</text>
<text text-anchor="start" x="1660.87" y="-632.97" font-family="Times,serif" font-size="12.00">Bilanzierungsende ist sp&#228;ter als das zuvor mitgeteilte Bilanzierungsende.</text>
</g>
<!-- 100&#45;&gt;A14 -->
<g id="edge20" class="edge">
<title>100-&gt;A14</title>
<path fill="none" stroke="#7aab8a" d="M1438.34,-746.42C1518.99,-730.2 1630.76,-707.71 1721.8,-689.4"/>
<polygon fill="#7aab8a" stroke="#7aab8a" points="1722.48,-692.83 1731.59,-687.43 1721.1,-685.97 1722.48,-692.83"/>
<text text-anchor="start" x="1605.99" y="-716.08" font-family="Times,serif" font-weight="bold" font-size="14.00">JA</text>
</g>
<!-- 110 -->
<g id="node18" class="node">
<title>110</title>
<path fill="#7aab8a" stroke="black" stroke-width="0" d="M1618.39,-679.01C1618.39,-679.01 1043.59,-679.01 1043.59,-679.01 1037.59,-679.01 1031.59,-673.01 1031.59,-667.01 1031.59,-667.01 1031.59,-645.73 1031.59,-645.73 1031.59,-639.73 1037.59,-633.73 1043.59,-633.73 1043.59,-633.73 1618.39,-633.73 1618.39,-633.73 1624.39,-633.73 1630.39,-639.73 1630.39,-645.73 1630.39,-645.73 1630.39,-667.01 1630.39,-667.01 1630.39,-673.01 1624.39,-679.01 1618.39,-679.01"/>
<text text-anchor="start" x="1045.99" y="-658.07" font-family="Times,serif" font-weight="bold" font-size="14.00">110: </text>
<text text-anchor="start" x="1084.99" y="-658.07" font-family="Times,serif" font-size="14.00">Ist das mitgeteilte Bilanzierungsende identisch zu dem zuvor mitgeteilten</text>
<text text-anchor="start" x="1045.99" y="-644.07" font-family="Times,serif" font-size="14.00">Bilanzierungsende?</text>
</g>
<!-- 100&#45;&gt;110 -->
<g id="edge21" class="edge">
<title>100-&gt;110</title>
<path fill="none" stroke="#7aab8a" d="M1330.99,-746.42C1330.99,-730.43 1330.99,-708.36 1330.99,-690.19"/>
<polygon fill="#7aab8a" stroke="#7aab8a" points="1334.49,-690.43 1330.99,-680.43 1327.49,-690.43 1334.49,-690.43"/>
<text text-anchor="start" x="1330.99" y="-716.08" font-family="Times,serif" font-weight="bold" font-size="14.00">NEIN</text>
</g>
<!-- 120 -->
<g id="node19" class="node">
<title>120</title>
<path fill="#7aab8a" stroke="black" stroke-width="0" d="M2548.26,-427.95C2548.26,-427.95 2005.71,-427.95 2005.71,-427.95 1999.71,-427.95 1993.71,-421.95 1993.71,-415.95 1993.71,-415.95 1993.71,-403.95 1993.71,-403.95 1993.71,-397.95 1999.71,-391.95 2005.71,-391.95 2005.71,-391.95 2548.26,-391.95 2548.26,-391.95 2554.26,-391.95 2560.26,-397.95 2560.26,-403.95 2560.26,-403.95 2560.26,-415.95 2560.26,-415.95 2560.26,-421.95 2554.26,-427.95 2548.26,-427.95"/>
<text text-anchor="start" x="2008.11" y="-406.27" font-family="Times,serif" font-weight="bold" font-size="14.00">120: </text>
<text text-anchor="start" x="2047.11" y="-406.27" font-family="Times,serif" font-size="14.00">Ist die Anfrage nach dem 3. WT vor dem Monatsletzten eingegangen?</text>
</g>
<!-- 110&#45;&gt;120 -->
<g id="edge22" class="edge">
<title>110-&gt;120</title>
<path fill="none" stroke="#7aab8a" d="M1414.53,-633.79C1596.21,-586.85 2024.99,-476.06 2200.29,-430.77"/>
<polygon fill="#7aab8a" stroke="#7aab8a" points="2200.94,-434.21 2209.75,-428.32 2199.19,-427.44 2200.94,-434.21"/>
<text text-anchor="start" x="1958.99" y="-525.93" font-family="Times,serif" font-weight="bold" font-size="14.00">JA</text>
</g>
<!-- 110&#45;&gt;150 -->
<g id="edge23" class="edge">
<title>110-&gt;150</title>
<path fill="none" stroke="#7aab8a" d="M1302.28,-633.92C1274.56,-613.21 1232.42,-581.72 1201.94,-558.95"/>
<polygon fill="#7aab8a" stroke="#7aab8a" points="1204.2,-556.27 1194.1,-553.09 1200.01,-561.88 1204.2,-556.27"/>
<text text-anchor="start" x="1256.99" y="-589.31" font-family="Times,serif" font-weight="bold" font-size="14.00">NEIN</text>
</g>
<!-- 130 -->
<g id="node20" class="node">
<title>130</title>
<path fill="#7aab8a" stroke="black" stroke-width="0" d="M3174.89,-312.94C3174.89,-312.94 2615.09,-312.94 2615.09,-312.94 2609.09,-312.94 2603.09,-306.94 2603.09,-300.94 2603.09,-300.94 2603.09,-279.66 2603.09,-279.66 2603.09,-273.66 2609.09,-267.66 2615.09,-267.66 2615.09,-267.66 3174.89,-267.66 3174.89,-267.66 3180.89,-267.66 3186.89,-273.66 3186.89,-279.66 3186.89,-279.66 3186.89,-300.94 3186.89,-300.94 3186.89,-306.94 3180.89,-312.94 3174.89,-312.94"/>
<text text-anchor="start" x="2617.49" y="-292" font-family="Times,serif" font-weight="bold" font-size="14.00">130: </text>
<text text-anchor="start" x="2656.49" y="-292" font-family="Times,serif" font-size="14.00">Ist das Bilanzierungsende &#8804; dem Ende des Folgemonats (erster Tag des</text>
<text text-anchor="start" x="2617.49" y="-278" font-family="Times,serif" font-size="14.00">&#252;bern&#228;chsten Monats 00:00 Uhr)?</text>
</g>
<!-- 120&#45;&gt;130 -->
<g id="edge24" class="edge">
<title>120-&gt;130</title>
<path fill="none" stroke="#7aab8a" d="M2366.19,-391.97C2472.43,-371.74 2650.54,-337.84 2770.35,-315.03"/>
<polygon fill="#7aab8a" stroke="#7aab8a" points="2770.74,-318.52 2779.91,-313.21 2769.43,-311.64 2770.74,-318.52"/>
<text text-anchor="start" x="2603.99" y="-350.01" font-family="Times,serif" font-weight="bold" font-size="14.00">JA</text>
</g>
<!-- 140 -->
<g id="node22" class="node">
<title>140</title>
<path fill="#7aab8a" stroke="black" stroke-width="0" d="M2573.01,-312.94C2573.01,-312.94 1980.96,-312.94 1980.96,-312.94 1974.96,-312.94 1968.96,-306.94 1968.96,-300.94 1968.96,-300.94 1968.96,-279.66 1968.96,-279.66 1968.96,-273.66 1974.96,-267.66 1980.96,-267.66 1980.96,-267.66 2573.01,-267.66 2573.01,-267.66 2579.01,-267.66 2585.01,-273.66 2585.01,-279.66 2585.01,-279.66 2585.01,-300.94 2585.01,-300.94 2585.01,-306.94 2579.01,-312.94 2573.01,-312.94"/>
<text text-anchor="start" x="1983.36" y="-292" font-family="Times,serif" font-weight="bold" font-size="14.00">140: </text>
<text text-anchor="start" x="2022.36" y="-292" font-family="Times,serif" font-size="14.00">Ist das Bilanzierungsende &#8804; dem Ende des aktuellen Monats (erster Tag des</text>
<text text-anchor="start" x="1983.36" y="-278" font-family="Times,serif" font-size="14.00">Folgemonats 00:00 Uhr)?</text>
</g>
<!-- 120&#45;&gt;140 -->
<g id="edge25" class="edge">
<title>120-&gt;140</title>
<path fill="none" stroke="#7aab8a" d="M2276.99,-392.09C2276.99,-374.43 2276.99,-346.23 2276.99,-324.14"/>
<polygon fill="#7aab8a" stroke="#7aab8a" points="2280.49,-324.44 2276.99,-314.44 2273.49,-324.44 2280.49,-324.44"/>
<text text-anchor="start" x="2276.99" y="-350.01" font-family="Times,serif" font-weight="bold" font-size="14.00">NEIN</text>
</g>
<!-- A20 -->
<g id="node21" class="node">
<title>A20</title>
<path fill="#cfb986" stroke="black" stroke-width="0" d="M3092.48,-200.29C3092.48,-200.29 2697.5,-200.29 2697.5,-200.29 2691.5,-200.29 2685.5,-194.29 2685.5,-188.29 2685.5,-188.29 2685.5,-138.77 2685.5,-138.77 2685.5,-132.77 2691.5,-126.77 2697.5,-126.77 2697.5,-126.77 3092.48,-126.77 3092.48,-126.77 3098.48,-126.77 3104.48,-132.77 3104.48,-138.77 3104.48,-138.77 3104.48,-188.29 3104.48,-188.29 3104.48,-194.29 3098.48,-200.29 3092.48,-200.29"/>
<text text-anchor="start" x="2697.74" y="-182.23" font-family="Times,serif" font-weight="bold" font-size="14.00">A20</text>
<text text-anchor="start" x="2697.74" y="-170.13" font-family="Times,serif" text-decoration="underline" font-size="12.00">Hinweis:</text>
<text text-anchor="start" x="2697.74" y="-158.13" font-family="Times,serif" font-size="12.00">Cluster: Ablehnung</text>
<text text-anchor="start" x="2697.74" y="-146.13" font-family="Times,serif" font-size="12.00">Das Bilanzierungsende liegt zu weit in der Zukunft. Das bisherige</text>
<text text-anchor="start" x="2697.74" y="-134.13" font-family="Times,serif" font-size="12.00">Bilanzierungsende muss angepasst werden.</text>
</g>
<!-- 130&#45;&gt;A20 -->
<g id="edge26" class="edge">
<title>130-&gt;A20</title>
<path fill="none" stroke="#7aab8a" d="M2894.99,-267.85C2894.99,-252.31 2894.99,-230.71 2894.99,-211.28"/>
<polygon fill="#7aab8a" stroke="#7aab8a" points="2898.49,-211.35 2894.99,-201.35 2891.49,-211.35 2898.49,-211.35"/>
<text text-anchor="start" x="2894.99" y="-223.24" font-family="Times,serif" font-weight="bold" font-size="14.00">NEIN</text>
</g>
<!-- 130&#45;&gt;200 -->
<g id="edge27" class="edge">
<title>130-&gt;200</title>
<path fill="none" stroke="#7aab8a" d="M2725.61,-267.7C2682.71,-262.63 2636.69,-257.55 2593.99,-253.54 2478.56,-242.7 2449.01,-248.04 2333.74,-235.54 2218.4,-223.03 2088.23,-203.42 1992.61,-187.97"/>
<polygon fill="#7aab8a" stroke="#7aab8a" points="1993.35,-184.54 1982.91,-186.4 1992.22,-191.45 1993.35,-184.54"/>
<text text-anchor="start" x="2332.99" y="-223.24" font-family="Times,serif" font-weight="bold" font-size="14.00">JA</text>
</g>
<!-- A21 -->
<g id="node23" class="node">
<title>A21</title>
<path fill="#cfb986" stroke="black" stroke-width="0" d="M2639.35,-200.29C2639.35,-200.29 2174.62,-200.29 2174.62,-200.29 2168.62,-200.29 2162.62,-194.29 2162.62,-188.29 2162.62,-188.29 2162.62,-138.77 2162.62,-138.77 2162.62,-132.77 2168.62,-126.77 2174.62,-126.77 2174.62,-126.77 2639.35,-126.77 2639.35,-126.77 2645.35,-126.77 2651.35,-132.77 2651.35,-138.77 2651.35,-138.77 2651.35,-188.29 2651.35,-188.29 2651.35,-194.29 2645.35,-200.29 2639.35,-200.29"/>
<text text-anchor="start" x="2174.86" y="-182.23" font-family="Times,serif" font-weight="bold" font-size="14.00">A21</text>
<text text-anchor="start" x="2174.86" y="-170.13" font-family="Times,serif" text-decoration="underline" font-size="12.00">Hinweis:</text>
<text text-anchor="start" x="2174.86" y="-158.13" font-family="Times,serif" font-size="12.00">Cluster: Ablehnung</text>
<text text-anchor="start" x="2174.86" y="-146.13" font-family="Times,serif" font-size="12.00">Bilanzierungsfrist bei Marktlokationen mit Prognosegrundlage auf Basis von</text>
<text text-anchor="start" x="2174.86" y="-134.13" font-family="Times,serif" font-size="12.00">Profilen nicht eingehalten.</text>
</g>
<!-- 140&#45;&gt;A21 -->
<g id="edge28" class="edge">
<title>140-&gt;A21</title>
<path fill="none" stroke="#7aab8a" d="M2313.46,-267.81C2327.26,-258.78 2342.61,-247.57 2354.99,-235.54 2363.13,-227.63 2370.92,-218.34 2377.88,-209.13"/>
<polygon fill="#7aab8a" stroke="#7aab8a" points="2380.58,-211.36 2383.65,-201.22 2374.93,-207.23 2380.58,-211.36"/>
<text text-anchor="start" x="2368.99" y="-223.24" font-family="Times,serif" font-weight="bold" font-size="14.00">NEIN</text>
</g>
<!-- 140&#45;&gt;200 -->
<g id="edge29" class="edge">
<title>140-&gt;200</title>
<path fill="none" stroke="#7aab8a" d="M2203.79,-267.71C2129.83,-245.89 2015.68,-212.22 1938.06,-189.33"/>
<polygon fill="#7aab8a" stroke="#7aab8a" points="1939.39,-186.07 1928.81,-186.6 1937.41,-192.78 1939.39,-186.07"/>
<text text-anchor="start" x="2089.99" y="-223.24" font-family="Times,serif" font-weight="bold" font-size="14.00">JA</text>
</g>
<!-- 160 -->
<g id="node25" class="node">
<title>160</title>
<path fill="#7aab8a" stroke="black" stroke-width="0" d="M1331.26,-427.95C1331.26,-427.95 788.72,-427.95 788.72,-427.95 782.72,-427.95 776.72,-421.95 776.72,-415.95 776.72,-415.95 776.72,-403.95 776.72,-403.95 776.72,-397.95 782.72,-391.95 788.72,-391.95 788.72,-391.95 1331.26,-391.95 1331.26,-391.95 1337.26,-391.95 1343.26,-397.95 1343.26,-403.95 1343.26,-403.95 1343.26,-415.95 1343.26,-415.95 1343.26,-421.95 1337.26,-427.95 1331.26,-427.95"/>
<text text-anchor="start" x="791.12" y="-406.27" font-family="Times,serif" font-weight="bold" font-size="14.00">160: </text>
<text text-anchor="start" x="830.12" y="-406.27" font-family="Times,serif" font-size="14.00">Ist die Anfrage nach dem 3. WT vor dem Monatsletzten eingegangen?</text>
</g>
<!-- 150&#45;&gt;160 -->
<g id="edge30" class="edge">
<title>150-&gt;160</title>
<path fill="none" stroke="#7aab8a" d="M1144.91,-507.02C1127.26,-487.05 1101.02,-457.36 1082.38,-436.28"/>
<polygon fill="#7aab8a" stroke="#7aab8a" points="1085.15,-434.13 1075.91,-428.96 1079.91,-438.77 1085.15,-434.13"/>
<text text-anchor="start" x="1114.99" y="-462.54" font-family="Times,serif" font-weight="bold" font-size="14.00">JA</text>
</g>
<!-- 190 -->
<g id="node30" class="node">
<title>190</title>
<path fill="#7aab8a" stroke="black" stroke-width="0" d="M1956.89,-439.59C1956.89,-439.59 1373.09,-439.59 1373.09,-439.59 1367.09,-439.59 1361.09,-433.59 1361.09,-427.59 1361.09,-427.59 1361.09,-392.31 1361.09,-392.31 1361.09,-386.31 1367.09,-380.31 1373.09,-380.31 1373.09,-380.31 1956.89,-380.31 1956.89,-380.31 1962.89,-380.31 1968.89,-386.31 1968.89,-392.31 1968.89,-392.31 1968.89,-427.59 1968.89,-427.59 1968.89,-433.59 1962.89,-439.59 1956.89,-439.59"/>
<text text-anchor="start" x="1375.49" y="-418.65" font-family="Times,serif" font-weight="bold" font-size="14.00">190: </text>
<text text-anchor="start" x="1414.49" y="-418.65" font-family="Times,serif" font-size="14.00">Ist als Bilanzierungsende das Ende des Monats angeben, in welchem das</text>
<text text-anchor="start" x="1375.49" y="-404.65" font-family="Times,serif" font-size="14.00">Lieferende liegt? (erster Tag des Folgemonats 00:00 Uhr des Monats in welchem</text>
<text text-anchor="start" x="1375.49" y="-390.65" font-family="Times,serif" font-size="14.00">das Lieferende liegt).</text>
</g>
<!-- 150&#45;&gt;190 -->
<g id="edge31" class="edge">
<title>150-&gt;190</title>
<path fill="none" stroke="#7aab8a" d="M1255.88,-507.02C1333.36,-488.83 1445.23,-462.56 1532.41,-442.08"/>
<polygon fill="#7aab8a" stroke="#7aab8a" points="1533.04,-445.53 1541.98,-439.84 1531.44,-438.72 1533.04,-445.53"/>
<text text-anchor="start" x="1458.99" y="-462.54" font-family="Times,serif" font-weight="bold" font-size="14.00">NEIN</text>
</g>
<!-- 170 -->
<g id="node26" class="node">
<title>170</title>
<path fill="#7aab8a" stroke="black" stroke-width="0" d="M1386.39,-312.94C1386.39,-312.94 751.59,-312.94 751.59,-312.94 745.59,-312.94 739.59,-306.94 739.59,-300.94 739.59,-300.94 739.59,-279.66 739.59,-279.66 739.59,-273.66 745.59,-267.66 751.59,-267.66 751.59,-267.66 1386.39,-267.66 1386.39,-267.66 1392.39,-267.66 1398.39,-273.66 1398.39,-279.66 1398.39,-279.66 1398.39,-300.94 1398.39,-300.94 1398.39,-306.94 1392.39,-312.94 1386.39,-312.94"/>
<text text-anchor="start" x="753.99" y="-292" font-family="Times,serif" font-weight="bold" font-size="14.00">170: </text>
<text text-anchor="start" x="792.99" y="-292" font-family="Times,serif" font-size="14.00">Ist als Bilanzierungsende das Ende des Folgemonats (erster Tag des &#252;bern&#228;chsten</text>
<text text-anchor="start" x="753.99" y="-278" font-family="Times,serif" font-size="14.00">Monats 00:00 Uhr) angegeben?</text>
</g>
<!-- 160&#45;&gt;170 -->
<g id="edge32" class="edge">
<title>160-&gt;170</title>
<path fill="none" stroke="#7aab8a" d="M1061.28,-392.09C1062.63,-374.43 1064.79,-346.23 1066.48,-324.14"/>
<polygon fill="#7aab8a" stroke="#7aab8a" points="1069.95,-324.67 1067.22,-314.43 1062.97,-324.13 1069.95,-324.67"/>
<text text-anchor="start" x="1063.99" y="-350.01" font-family="Times,serif" font-weight="bold" font-size="14.00">JA</text>
</g>
<!-- 180 -->
<g id="node28" class="node">
<title>180</title>
<path fill="#7aab8a" stroke="black" stroke-width="0" d="M709.51,-312.94C709.51,-312.94 144.47,-312.94 144.47,-312.94 138.47,-312.94 132.47,-306.94 132.47,-300.94 132.47,-300.94 132.47,-279.66 132.47,-279.66 132.47,-273.66 138.47,-267.66 144.47,-267.66 144.47,-267.66 709.51,-267.66 709.51,-267.66 715.51,-267.66 721.51,-273.66 721.51,-279.66 721.51,-279.66 721.51,-300.94 721.51,-300.94 721.51,-306.94 715.51,-312.94 709.51,-312.94"/>
<text text-anchor="start" x="146.87" y="-292" font-family="Times,serif" font-weight="bold" font-size="14.00">180: </text>
<text text-anchor="start" x="185.87" y="-292" font-family="Times,serif" font-size="14.00">Ist als Bilanzierungsende das Ende des aktuellen Monats (erster Tag des</text>
<text text-anchor="start" x="146.87" y="-278" font-family="Times,serif" font-size="14.00">Folgemonats 00:00 Uhr) angegeben?</text>
</g>
<!-- 160&#45;&gt;180 -->
<g id="edge33" class="edge">
<title>160-&gt;180</title>
<path fill="none" stroke="#7aab8a" d="M968.62,-391.97C859.81,-371.74 677.37,-337.84 554.65,-315.03"/>
<polygon fill="#7aab8a" stroke="#7aab8a" points="555.3,-311.59 544.83,-313.2 554.02,-318.47 555.3,-311.59"/>
<text text-anchor="start" x="799.99" y="-350.01" font-family="Times,serif" font-weight="bold" font-size="14.00">NEIN</text>
</g>
<!-- A15 -->
<g id="node27" class="node">
<title>A15</title>
<path fill="#cfb986" stroke="black" stroke-width="0" d="M1286.36,-194.29C1286.36,-194.29 851.62,-194.29 851.62,-194.29 845.62,-194.29 839.62,-188.29 839.62,-182.29 839.62,-182.29 839.62,-144.77 839.62,-144.77 839.62,-138.77 845.62,-132.77 851.62,-132.77 851.62,-132.77 1286.36,-132.77 1286.36,-132.77 1292.36,-132.77 1298.36,-138.77 1298.36,-144.77 1298.36,-144.77 1298.36,-182.29 1298.36,-182.29 1298.36,-188.29 1292.36,-194.29 1286.36,-194.29"/>
<text text-anchor="start" x="851.87" y="-176.23" font-family="Times,serif" font-weight="bold" font-size="14.00">A15</text>
<text text-anchor="start" x="851.87" y="-164.13" font-family="Times,serif" text-decoration="underline" font-size="12.00">Hinweis:</text>
<text text-anchor="start" x="851.87" y="-152.13" font-family="Times,serif" font-size="12.00">Cluster: Ablehnung</text>
<text text-anchor="start" x="851.87" y="-140.13" font-family="Times,serif" font-size="12.00">Das Bilanzierungsende ist zum angegebenen Termin nicht mehr m&#246;glich</text>
</g>
<!-- 170&#45;&gt;A15 -->
<g id="edge34" class="edge">
<title>170-&gt;A15</title>
<path fill="none" stroke="#7aab8a" d="M1068.99,-267.85C1068.99,-250.76 1068.99,-226.34 1068.99,-205.53"/>
<polygon fill="#7aab8a" stroke="#7aab8a" points="1072.49,-205.61 1068.99,-195.61 1065.49,-205.61 1072.49,-205.61"/>
<text text-anchor="start" x="1068.99" y="-223.24" font-family="Times,serif" font-weight="bold" font-size="14.00">NEIN</text>
</g>
<!-- 170&#45;&gt;200 -->
<g id="edge35" class="edge">
<title>170-&gt;200</title>
<path fill="none" stroke="#7aab8a" d="M1204.83,-267.71C1344.9,-245.45 1562.61,-210.84 1706.73,-187.94"/>
<polygon fill="#7aab8a" stroke="#7aab8a" points="1707.02,-191.43 1716.35,-186.41 1705.92,-184.52 1707.02,-191.43"/>
<text text-anchor="start" x="1507.99" y="-223.24" font-family="Times,serif" font-weight="bold" font-size="14.00">JA</text>
</g>
<!-- A16 -->
<g id="node29" class="node">
<title>A16</title>
<path fill="#cfb986" stroke="black" stroke-width="0" d="M648.48,-194.29C648.48,-194.29 205.5,-194.29 205.5,-194.29 199.5,-194.29 193.5,-188.29 193.5,-182.29 193.5,-182.29 193.5,-144.77 193.5,-144.77 193.5,-138.77 199.5,-132.77 205.5,-132.77 205.5,-132.77 648.48,-132.77 648.48,-132.77 654.48,-132.77 660.48,-138.77 660.48,-144.77 660.48,-144.77 660.48,-182.29 660.48,-182.29 660.48,-188.29 654.48,-194.29 648.48,-194.29"/>
<text text-anchor="start" x="205.74" y="-176.23" font-family="Times,serif" font-weight="bold" font-size="14.00">A16</text>
<text text-anchor="start" x="205.74" y="-164.13" font-family="Times,serif" text-decoration="underline" font-size="12.00">Hinweis:</text>
<text text-anchor="start" x="205.74" y="-152.13" font-family="Times,serif" font-size="12.00">Cluster: Ablehnung</text>
<text text-anchor="start" x="205.74" y="-140.13" font-family="Times,serif" font-size="12.00">Das Bilanzierungsende ist nicht der erste Tag des Folgemonats 00:00 Uhr</text>
</g>
<!-- 180&#45;&gt;A16 -->
<g id="edge36" class="edge">
<title>180-&gt;A16</title>
<path fill="none" stroke="#7aab8a" d="M426.99,-267.85C426.99,-250.76 426.99,-226.34 426.99,-205.53"/>
<polygon fill="#7aab8a" stroke="#7aab8a" points="430.49,-205.61 426.99,-195.61 423.49,-205.61 430.49,-205.61"/>
<text text-anchor="start" x="426.99" y="-223.24" font-family="Times,serif" font-weight="bold" font-size="14.00">NEIN</text>
</g>
<!-- 180&#45;&gt;200 -->
<g id="edge37" class="edge">
<title>180-&gt;200</title>
<path fill="none" stroke="#7aab8a" d="M592.44,-267.7C637.33,-262.42 685.97,-257.24 730.99,-253.54 901.71,-239.53 945.13,-247.75 1115.99,-235.54 1294.93,-222.76 1497.76,-202.85 1645.44,-187.36"/>
<polygon fill="#7aab8a" stroke="#7aab8a" points="1645.79,-190.84 1655.37,-186.31 1645.06,-183.88 1645.79,-190.84"/>
<text text-anchor="start" x="1317.99" y="-223.24" font-family="Times,serif" font-weight="bold" font-size="14.00">JA</text>
</g>
<!-- A17 -->
<g id="node31" class="node">
<title>A17</title>
<path fill="#cfb986" stroke="black" stroke-width="0" d="M1885.61,-327.06C1885.61,-327.06 1428.38,-327.06 1428.38,-327.06 1422.38,-327.06 1416.38,-321.06 1416.38,-315.06 1416.38,-315.06 1416.38,-265.54 1416.38,-265.54 1416.38,-259.54 1422.38,-253.54 1428.38,-253.54 1428.38,-253.54 1885.61,-253.54 1885.61,-253.54 1891.61,-253.54 1897.61,-259.54 1897.61,-265.54 1897.61,-265.54 1897.61,-315.06 1897.61,-315.06 1897.61,-321.06 1891.61,-327.06 1885.61,-327.06"/>
<text text-anchor="start" x="1428.62" y="-309" font-family="Times,serif" font-weight="bold" font-size="14.00">A17</text>
<text text-anchor="start" x="1428.62" y="-296.9" font-family="Times,serif" text-decoration="underline" font-size="12.00">Hinweis:</text>
<text text-anchor="start" x="1428.62" y="-284.9" font-family="Times,serif" font-size="12.00">Cluster: Ablehnung</text>
<text text-anchor="start" x="1428.62" y="-272.9" font-family="Times,serif" font-size="12.00">Das Bilanzierungsende bei Lieferenden, welche in einem zuk&#252;nftigen Monat</text>
<text text-anchor="start" x="1428.62" y="-260.9" font-family="Times,serif" font-size="12.00">liegen, muss zum Ablauf des gleichen Monats sein.</text>
</g>
<!-- 190&#45;&gt;A17 -->
<g id="edge38" class="edge">
<title>190-&gt;A17</title>
<path fill="none" stroke="#7aab8a" d="M1663.05,-380.47C1662.19,-367.7 1661.14,-352.3 1660.16,-337.92"/>
<polygon fill="#7aab8a" stroke="#7aab8a" points="1663.67,-337.92 1659.5,-328.18 1656.68,-338.4 1663.67,-337.92"/>
<text text-anchor="start" x="1660.99" y="-350.01" font-family="Times,serif" font-weight="bold" font-size="14.00">NEIN</text>
</g>
<!-- 190&#45;&gt;200 -->
<g id="edge39" class="edge">
<title>190-&gt;200</title>
<path fill="none" stroke="#7aab8a" d="M1837.61,-380.44C1864.84,-368.32 1889.67,-351.21 1906.99,-327.06 1935.85,-286.83 1904.59,-230.02 1879.31,-195.31"/>
<polygon fill="#7aab8a" stroke="#7aab8a" points="1882.12,-193.23 1873.31,-187.35 1876.53,-197.45 1882.12,-193.23"/>
<text text-anchor="start" x="1917.99" y="-286.62" font-family="Times,serif" font-weight="bold" font-size="14.00">JA</text>
</g>
<!-- A06 -->
<g id="node33" class="node">
<title>A06</title>
<path fill="#cfb986" stroke="black" stroke-width="0" d="M2114.48,-73.52C2114.48,-73.52 1593.5,-73.52 1593.5,-73.52 1587.5,-73.52 1581.5,-67.52 1581.5,-61.52 1581.5,-61.52 1581.5,-12 1581.5,-12 1581.5,-6 1587.5,0 1593.5,0 1593.5,0 2114.48,0 2114.48,0 2120.48,0 2126.48,-6 2126.48,-12 2126.48,-12 2126.48,-61.52 2126.48,-61.52 2126.48,-67.52 2120.48,-73.52 2114.48,-73.52"/>
<text text-anchor="start" x="1593.74" y="-55.46" font-family="Times,serif" font-weight="bold" font-size="14.00">A06</text>
<text text-anchor="start" x="1593.74" y="-43.36" font-family="Times,serif" text-decoration="underline" font-size="12.00">Hinweis:</text>
<text text-anchor="start" x="1593.74" y="-31.36" font-family="Times,serif" font-size="12.00">Cluster: Ablehnung</text>
<text text-anchor="start" x="1593.74" y="-19.36" font-family="Times,serif" font-size="12.00">Dem LF liegen Informationen vor, dass die Marktlokation nicht stillgelegt wird/wurde.</text>
<text text-anchor="start" x="1593.74" y="-7.36" font-family="Times,serif" font-size="12.00">Hinweis: Die Informationen sind in der Antwort zu beschreiben/benennen.</text>
</g>
<!-- 200&#45;&gt;A06 -->
<g id="edge40" class="edge">
<title>200-&gt;A06</title>
<path fill="none" stroke="#7aab8a" d="M1853.99,-141.08C1853.99,-125.54 1853.99,-103.94 1853.99,-84.51"/>
<polygon fill="#7aab8a" stroke="#7aab8a" points="1857.49,-84.58 1853.99,-74.58 1850.49,-84.58 1857.49,-84.58"/>
<text text-anchor="start" x="1853.99" y="-96.47" font-family="Times,serif" font-weight="bold" font-size="14.00">JA</text>
</g>
<!-- A10 -->
<g id="node34" class="node">
<title>A10</title>
<path fill="#cfb986" stroke="black" stroke-width="0" d="M2780.6,-67.52C2780.6,-67.52 2611.38,-67.52 2611.38,-67.52 2605.38,-67.52 2599.38,-61.52 2599.38,-55.52 2599.38,-55.52 2599.38,-18 2599.38,-18 2599.38,-12 2605.38,-6 2611.38,-6 2611.38,-6 2780.6,-6 2780.6,-6 2786.6,-6 2792.6,-12 2792.6,-18 2792.6,-18 2792.6,-55.52 2792.6,-55.52 2792.6,-61.52 2786.6,-67.52 2780.6,-67.52"/>
<text text-anchor="start" x="2611.61" y="-49.46" font-family="Times,serif" font-weight="bold" font-size="14.00">A10</text>
<text text-anchor="start" x="2611.61" y="-37.36" font-family="Times,serif" text-decoration="underline" font-size="12.00">Hinweis:</text>
<text text-anchor="start" x="2611.61" y="-25.36" font-family="Times,serif" font-size="12.00">Cluster: Zustimmung</text>
<text text-anchor="start" x="2611.61" y="-13.36" font-family="Times,serif" font-size="12.00">Lieferende wird zugestimmt</text>
</g>
<!-- 200&#45;&gt;A10 -->
<g id="edge41" class="edge">
<title>200-&gt;A10</title>
<path fill="none" stroke="#7aab8a" d="M1999.69,-140.94C2167.41,-116.09 2438.94,-75.85 2588.55,-53.68"/>
<polygon fill="#7aab8a" stroke="#7aab8a" points="2588.67,-57.2 2598.05,-52.27 2587.64,-50.28 2588.67,-57.2"/>
<text text-anchor="start" x="2324.99" y="-96.47" font-family="Times,serif" font-weight="bold" font-size="14.00">NEIN</text>
</g>
<!-- A11 -->
<g id="node36" class="node">
<title>A11</title>
<path fill="#cfb986" stroke="black" stroke-width="0" d="M3167.85,-1171.97C3167.85,-1171.97 2676.12,-1171.97 2676.12,-1171.97 2670.12,-1171.97 2664.12,-1165.97 2664.12,-1159.97 2664.12,-1159.97 2664.12,-1110.45 2664.12,-1110.45 2664.12,-1104.45 2670.12,-1098.45 2676.12,-1098.45 2676.12,-1098.45 3167.85,-1098.45 3167.85,-1098.45 3173.85,-1098.45 3179.85,-1104.45 3179.85,-1110.45 3179.85,-1110.45 3179.85,-1159.97 3179.85,-1159.97 3179.85,-1165.97 3173.85,-1171.97 3167.85,-1171.97"/>
<text text-anchor="start" x="2676.36" y="-1153.91" font-family="Times,serif" font-weight="bold" font-size="14.00">A11</text>
<text text-anchor="start" x="2676.36" y="-1141.81" font-family="Times,serif" text-decoration="underline" font-size="12.00">Hinweis:</text>
<text text-anchor="start" x="2676.36" y="-1129.81" font-family="Times,serif" font-size="12.00">Cluster: Ablehnung</text>
<text text-anchor="start" x="2676.36" y="-1117.81" font-family="Times,serif" font-size="12.00">Lieferende und Bilanzierungsende m&#252;ssen bei Lieferende von NB an LF aufgrund</text>
<text text-anchor="start" x="2676.36" y="-1105.81" font-family="Times,serif" font-size="12.00">entfallender Zuordnungserm&#228;chtigung synchron sein.</text>
</g>
<!-- 210&#45;&gt;A11 -->
<g id="edge42" class="edge">
<title>210-&gt;A11</title>
<path fill="none" stroke="#7aab8a" d="M2435.7,-1225.25C2510.91,-1211.48 2619.77,-1191.54 2715.44,-1174.03"/>
<polygon fill="#7aab8a" stroke="#7aab8a" points="2716.04,-1177.48 2725.25,-1172.23 2714.78,-1170.59 2716.04,-1177.48"/>
<text text-anchor="start" x="2614.99" y="-1194.92" font-family="Times,serif" font-weight="bold" font-size="14.00">NEIN</text>
</g>
<!-- 220 -->
<g id="node37" class="node">
<title>220</title>
<path fill="#7aab8a" stroke="black" stroke-width="0" d="M2634.51,-1153.21C2634.51,-1153.21 2051.46,-1153.21 2051.46,-1153.21 2045.46,-1153.21 2039.46,-1147.21 2039.46,-1141.21 2039.46,-1141.21 2039.46,-1129.21 2039.46,-1129.21 2039.46,-1123.21 2045.46,-1117.21 2051.46,-1117.21 2051.46,-1117.21 2634.51,-1117.21 2634.51,-1117.21 2640.51,-1117.21 2646.51,-1123.21 2646.51,-1129.21 2646.51,-1129.21 2646.51,-1141.21 2646.51,-1141.21 2646.51,-1147.21 2640.51,-1153.21 2634.51,-1153.21"/>
<text text-anchor="start" x="2053.86" y="-1131.54" font-family="Times,serif" font-weight="bold" font-size="14.00">220: </text>
<text text-anchor="start" x="2092.86" y="-1131.54" font-family="Times,serif" font-size="14.00">Liegt das &#252;bermittelte Datum &#8222;Lieferende&#8220; nach dem Nachrichteneingang?</text>
</g>
<!-- 210&#45;&gt;220 -->
<g id="edge43" class="edge">
<title>210-&gt;220</title>
<path fill="none" stroke="#7aab8a" d="M2342.99,-1225.66C2342.99,-1209.26 2342.99,-1183.85 2342.99,-1164.29"/>
<polygon fill="#7aab8a" stroke="#7aab8a" points="2346.49,-1164.52 2342.99,-1154.52 2339.49,-1164.52 2346.49,-1164.52"/>
<text text-anchor="start" x="2342.99" y="-1194.92" font-family="Times,serif" font-weight="bold" font-size="14.00">JA</text>
</g>
<!-- A07 -->
<g id="node38" class="node">
<title>A07</title>
<path fill="#cfb986" stroke="black" stroke-width="0" d="M3219.85,-1039.2C3219.85,-1039.2 2728.12,-1039.2 2728.12,-1039.2 2722.12,-1039.2 2716.12,-1033.2 2716.12,-1027.2 2716.12,-1027.2 2716.12,-989.68 2716.12,-989.68 2716.12,-983.68 2722.12,-977.68 2728.12,-977.68 2728.12,-977.68 3219.85,-977.68 3219.85,-977.68 3225.85,-977.68 3231.85,-983.68 3231.85,-989.68 3231.85,-989.68 3231.85,-1027.2 3231.85,-1027.2 3231.85,-1033.2 3225.85,-1039.2 3219.85,-1039.2"/>
<text text-anchor="start" x="2728.36" y="-1021.14" font-family="Times,serif" font-weight="bold" font-size="14.00">A07</text>
<text text-anchor="start" x="2728.36" y="-1009.04" font-family="Times,serif" text-decoration="underline" font-size="12.00">Hinweis:</text>
<text text-anchor="start" x="2728.36" y="-997.04" font-family="Times,serif" font-size="12.00">Cluster: Ablehnung</text>
<text text-anchor="start" x="2728.36" y="-985.04" font-family="Times,serif" font-size="12.00">Lieferende bei entfallender Zuordnungserm&#228;chtigung muss in der Zukunft liegen.</text>
</g>
<!-- 220&#45;&gt;A07 -->
<g id="edge44" class="edge">
<title>220-&gt;A07</title>
<path fill="none" stroke="#7aab8a" d="M2428.75,-1117.25C2527.04,-1097.82 2690.31,-1065.53 2812.61,-1041.35"/>
<polygon fill="#7aab8a" stroke="#7aab8a" points="2812.96,-1044.85 2822.09,-1039.48 2811.6,-1037.98 2812.96,-1044.85"/>
<text text-anchor="start" x="2695.99" y="-1068.15" font-family="Times,serif" font-weight="bold" font-size="14.00">NEIN</text>
</g>
<!-- 230 -->
<g id="node39" class="node">
<title>230</title>
<path fill="#7aab8a" stroke="black" stroke-width="0" d="M2685.89,-1026.44C2685.89,-1026.44 2000.09,-1026.44 2000.09,-1026.44 1994.09,-1026.44 1988.09,-1020.44 1988.09,-1014.44 1988.09,-1014.44 1988.09,-1002.44 1988.09,-1002.44 1988.09,-996.44 1994.09,-990.44 2000.09,-990.44 2000.09,-990.44 2685.89,-990.44 2685.89,-990.44 2691.89,-990.44 2697.89,-996.44 2697.89,-1002.44 2697.89,-1002.44 2697.89,-1014.44 2697.89,-1014.44 2697.89,-1020.44 2691.89,-1026.44 2685.89,-1026.44"/>
<text text-anchor="start" x="2002.49" y="-1004.76" font-family="Times,serif" font-weight="bold" font-size="14.00">230: </text>
<text text-anchor="start" x="2041.49" y="-1004.76" font-family="Times,serif" font-size="14.00">Ist das angegebene Datum &#8222;Lieferende&#8220; der n&#228;chste 1. eines Kalendermonats 00:00 Uhr?</text>
</g>
<!-- 220&#45;&gt;230 -->
<g id="edge45" class="edge">
<title>220-&gt;230</title>
<path fill="none" stroke="#7aab8a" d="M2342.99,-1117.38C2342.99,-1097.01 2342.99,-1062.39 2342.99,-1037.85"/>
<polygon fill="#7aab8a" stroke="#7aab8a" points="2346.49,-1037.91 2342.99,-1027.91 2339.49,-1037.91 2346.49,-1037.91"/>
<text text-anchor="start" x="2342.99" y="-1068.15" font-family="Times,serif" font-weight="bold" font-size="14.00">JA</text>
</g>
<!-- A08 -->
<g id="node40" class="node">
<title>A08</title>
<path fill="#cfb986" stroke="black" stroke-width="0" d="M3220.1,-918.43C3220.1,-918.43 2717.88,-918.43 2717.88,-918.43 2711.88,-918.43 2705.88,-912.43 2705.88,-906.43 2705.88,-906.43 2705.88,-856.91 2705.88,-856.91 2705.88,-850.91 2711.88,-844.91 2717.88,-844.91 2717.88,-844.91 3220.1,-844.91 3220.1,-844.91 3226.1,-844.91 3232.1,-850.91 3232.1,-856.91 3232.1,-856.91 3232.1,-906.43 3232.1,-906.43 3232.1,-912.43 3226.1,-918.43 3220.1,-918.43"/>
<text text-anchor="start" x="2718.11" y="-900.37" font-family="Times,serif" font-weight="bold" font-size="14.00">A08</text>
<text text-anchor="start" x="2718.11" y="-888.27" font-family="Times,serif" text-decoration="underline" font-size="12.00">Hinweis:</text>
<text text-anchor="start" x="2718.11" y="-876.27" font-family="Times,serif" font-size="12.00">Cluster: Ablehnung</text>
<text text-anchor="start" x="2718.11" y="-864.27" font-family="Times,serif" font-size="12.00">Das Lieferende bei Abmeldung wegen Deaktivierung der Zuordnungserm&#228;chtigung</text>
<text text-anchor="start" x="2718.11" y="-852.27" font-family="Times,serif" font-size="12.00">muss auf dem 1. eines Kalendermonats liegen.</text>
</g>
<!-- 230&#45;&gt;A08 -->
<g id="edge46" class="edge">
<title>230-&gt;A08</title>
<path fill="none" stroke="#7aab8a" d="M2428.07,-990.48C2517.61,-972.64 2661.51,-943.95 2778.39,-920.66"/>
<polygon fill="#7aab8a" stroke="#7aab8a" points="2779.01,-924.11 2788.13,-918.72 2777.64,-917.24 2779.01,-924.11"/>
<text text-anchor="start" x="2692.99" y="-941.38" font-family="Times,serif" font-weight="bold" font-size="14.00">NEIN</text>
</g>
<!-- 240 -->
<g id="node41" class="node">
<title>240</title>
<path fill="#7aab8a" stroke="black" stroke-width="0" d="M2675.76,-904.31C2675.76,-904.31 2064.21,-904.31 2064.21,-904.31 2058.21,-904.31 2052.21,-898.31 2052.21,-892.31 2052.21,-892.31 2052.21,-871.03 2052.21,-871.03 2052.21,-865.03 2058.21,-859.03 2064.21,-859.03 2064.21,-859.03 2675.76,-859.03 2675.76,-859.03 2681.76,-859.03 2687.76,-865.03 2687.76,-871.03 2687.76,-871.03 2687.76,-892.31 2687.76,-892.31 2687.76,-898.31 2681.76,-904.31 2675.76,-904.31"/>
<text text-anchor="start" x="2066.61" y="-883.37" font-family="Times,serif" font-weight="bold" font-size="14.00">240: </text>
<text text-anchor="start" x="2105.61" y="-883.37" font-family="Times,serif" font-size="14.00">Liegt der Transaktionsgrund Abmeldung wegen fehl. Zuordnungserm&#228;chtigung</text>
<text text-anchor="start" x="2066.61" y="-869.37" font-family="Times,serif" font-size="14.00">aufgrund &#196;nderung ZRT vor?</text>
</g>
<!-- 230&#45;&gt;240 -->
<g id="edge47" class="edge">
<title>230-&gt;240</title>
<path fill="none" stroke="#7aab8a" d="M2346.63,-990.61C2350.79,-971.41 2357.69,-939.53 2362.91,-915.39"/>
<polygon fill="#7aab8a" stroke="#7aab8a" points="2366.31,-916.24 2365,-905.72 2359.47,-914.76 2366.31,-916.24"/>
<text text-anchor="start" x="2357.99" y="-941.38" font-family="Times,serif" font-weight="bold" font-size="14.00">JA</text>
</g>
<!-- 250 -->
<g id="node42" class="node">
<title>250</title>
<path fill="#7aab8a" stroke="black" stroke-width="0" d="M3006.76,-791.66C3006.76,-791.66 2443.21,-791.66 2443.21,-791.66 2437.21,-791.66 2431.21,-785.66 2431.21,-779.66 2431.21,-779.66 2431.21,-758.38 2431.21,-758.38 2431.21,-752.38 2437.21,-746.38 2443.21,-746.38 2443.21,-746.38 3006.76,-746.38 3006.76,-746.38 3012.76,-746.38 3018.76,-752.38 3018.76,-758.38 3018.76,-758.38 3018.76,-779.66 3018.76,-779.66 3018.76,-785.66 3012.76,-791.66 3006.76,-791.66"/>
<text text-anchor="start" x="2445.61" y="-770.72" font-family="Times,serif" font-weight="bold" font-size="14.00">250: </text>
<text text-anchor="start" x="2484.61" y="-770.72" font-family="Times,serif" font-size="14.00">Wurde der Zeitreihentyp an der betreffenden Marktlokation in einen</text>
<text text-anchor="start" x="2445.61" y="-756.72" font-family="Times,serif" font-size="14.00">Zeitreihentyp ge&#228;ndert, f&#252;r welchen keine Zuordnungserm&#228;chtigung besteht?</text>
</g>
<!-- 240&#45;&gt;250 -->
<g id="edge48" class="edge">
<title>240-&gt;250</title>
<path fill="none" stroke="#7aab8a" d="M2439.28,-859.07C2498.19,-840.71 2582.83,-814.33 2644.69,-795.05"/>
<polygon fill="#7aab8a" stroke="#7aab8a" points="2645.62,-798.42 2654.13,-792.11 2643.54,-791.74 2645.62,-798.42"/>
<text text-anchor="start" x="2588.99" y="-814.61" font-family="Times,serif" font-weight="bold" font-size="14.00">JA</text>
</g>
<!-- 260 -->
<g id="node44" class="node">
<title>260</title>
<path fill="#7aab8a" stroke="black" stroke-width="0" d="M2782.26,-679.01C2782.26,-679.01 2143.71,-679.01 2143.71,-679.01 2137.71,-679.01 2131.71,-673.01 2131.71,-667.01 2131.71,-667.01 2131.71,-645.73 2131.71,-645.73 2131.71,-639.73 2137.71,-633.73 2143.71,-633.73 2143.71,-633.73 2782.26,-633.73 2782.26,-633.73 2788.26,-633.73 2794.26,-639.73 2794.26,-645.73 2794.26,-645.73 2794.26,-667.01 2794.26,-667.01 2794.26,-673.01 2788.26,-679.01 2782.26,-679.01"/>
<text text-anchor="start" x="2146.11" y="-658.07" font-family="Times,serif" font-weight="bold" font-size="14.00">260: </text>
<text text-anchor="start" x="2185.11" y="-658.07" font-family="Times,serif" font-size="14.00">Hat der BKV die Deaktivierung der Zuordnungserm&#228;chtigung f&#252;r den ZRT, welcher</text>
<text text-anchor="start" x="2146.11" y="-644.07" font-family="Times,serif" font-size="14.00">der genannten Marktlokation zugeordnet ist, vorgenommen?</text>
</g>
<!-- 240&#45;&gt;260 -->
<g id="edge49" class="edge">
<title>240-&gt;260</title>
<path fill="none" stroke="#7aab8a" d="M2367.17,-859.16C2364.52,-831.73 2363.06,-783.43 2379.24,-746.38 2389.46,-722.99 2408.57,-701.92 2425.96,-686.16"/>
<polygon fill="#7aab8a" stroke="#7aab8a" points="2427.94,-689.08 2433.17,-679.86 2423.34,-683.81 2427.94,-689.08"/>
<text text-anchor="start" x="2378.99" y="-765.35" font-family="Times,serif" font-weight="bold" font-size="14.00">NEIN</text>
</g>
<!-- A12 -->
<g id="node43" class="node">
<title>A12</title>
<path fill="#cfb986" stroke="black" stroke-width="0" d="M3219.85,-693.13C3219.85,-693.13 2824.12,-693.13 2824.12,-693.13 2818.12,-693.13 2812.12,-687.13 2812.12,-681.13 2812.12,-681.13 2812.12,-631.61 2812.12,-631.61 2812.12,-625.61 2818.12,-619.61 2824.12,-619.61 2824.12,-619.61 3219.85,-619.61 3219.85,-619.61 3225.85,-619.61 3231.85,-625.61 3231.85,-631.61 3231.85,-631.61 3231.85,-681.13 3231.85,-681.13 3231.85,-687.13 3225.85,-693.13 3219.85,-693.13"/>
<text text-anchor="start" x="2824.36" y="-675.07" font-family="Times,serif" font-weight="bold" font-size="14.00">A12</text>
<text text-anchor="start" x="2824.36" y="-662.97" font-family="Times,serif" text-decoration="underline" font-size="12.00">Hinweis:</text>
<text text-anchor="start" x="2824.36" y="-650.97" font-family="Times,serif" font-size="12.00">Cluster: Ablehnung</text>
<text text-anchor="start" x="2824.36" y="-638.97" font-family="Times,serif" font-size="12.00">Es liegt keine &#196;nderung des Zeitreihentyps vor, f&#252;r welchen keine</text>
<text text-anchor="start" x="2824.36" y="-626.97" font-family="Times,serif" font-size="12.00">Zuordnungserm&#228;chtigung besteht.</text>
</g>
<!-- 250&#45;&gt;A12 -->
<g id="edge50" class="edge">
<title>250-&gt;A12</title>
<path fill="none" stroke="#7aab8a" d="M2782.96,-746.42C2820.62,-732.39 2870.85,-713.68 2915.54,-697.03"/>
<polygon fill="#7aab8a" stroke="#7aab8a" points="2916.61,-700.37 2924.76,-693.59 2914.17,-693.81 2916.61,-700.37"/>
<text text-anchor="start" x="2872.99" y="-716.08" font-family="Times,serif" font-weight="bold" font-size="14.00">NEIN</text>
</g>
<!-- 250&#45;&gt;260 -->
<g id="edge51" class="edge">
<title>250-&gt;260</title>
<path fill="none" stroke="#7aab8a" d="M2673.85,-746.42C2631.02,-728.34 2569.78,-702.47 2524.32,-683.27"/>
<polygon fill="#7aab8a" stroke="#7aab8a" points="2525.97,-680.17 2515.39,-679.5 2523.24,-686.62 2525.97,-680.17"/>
<text text-anchor="start" x="2624.99" y="-716.08" font-family="Times,serif" font-weight="bold" font-size="14.00">JA</text>
</g>
<!-- 260&#45;&gt;A10 -->
<g id="edge53" class="edge">
<title>260-&gt;A10</title>
<path fill="none" stroke="#7aab8a" d="M2647.43,-633.73C2870.08,-606.34 3214.99,-559.28 3214.99,-530.6 3214.99,-530.6 3214.99,-530.6 3214.99,-162.53 3214.99,-78.68 2955.63,-51.03 2803.6,-42.02"/>
<polygon fill="#7aab8a" stroke="#7aab8a" points="2804.09,-38.54 2793.9,-41.47 2803.69,-45.53 2804.09,-38.54"/>
<text text-anchor="start" x="3214.99" y="-350.01" font-family="Times,serif" font-weight="bold" font-size="14.00">JA</text>
</g>
<!-- A09 -->
<g id="node45" class="node">
<title>A09</title>
<path fill="#cfb986" stroke="black" stroke-width="0" d="M2721.98,-566.36C2721.98,-566.36 2204,-566.36 2204,-566.36 2198,-566.36 2192,-560.36 2192,-554.36 2192,-554.36 2192,-504.84 2192,-504.84 2192,-498.84 2198,-492.84 2204,-492.84 2204,-492.84 2721.98,-492.84 2721.98,-492.84 2727.98,-492.84 2733.98,-498.84 2733.98,-504.84 2733.98,-504.84 2733.98,-554.36 2733.98,-554.36 2733.98,-560.36 2727.98,-566.36 2721.98,-566.36"/>
<text text-anchor="start" x="2204.24" y="-548.3" font-family="Times,serif" font-weight="bold" font-size="14.00">A09</text>
<text text-anchor="start" x="2204.24" y="-536.2" font-family="Times,serif" text-decoration="underline" font-size="12.00">Hinweis:</text>
<text text-anchor="start" x="2204.24" y="-524.2" font-family="Times,serif" font-size="12.00">Cluster: Ablehnung</text>
<text text-anchor="start" x="2204.24" y="-512.2" font-family="Times,serif" font-size="12.00">Deaktivierung der Zuordnungserm&#228;chtigung f&#252;r den der Marktlokation zugeordneten</text>
<text text-anchor="start" x="2204.24" y="-500.2" font-family="Times,serif" font-size="12.00">ZRT hat nicht stattgefunden.</text>
</g>
<!-- 260&#45;&gt;A09 -->
<g id="edge52" class="edge">
<title>260-&gt;A09</title>
<path fill="none" stroke="#7aab8a" d="M2462.99,-633.92C2462.99,-618.38 2462.99,-596.78 2462.99,-577.35"/>
<polygon fill="#7aab8a" stroke="#7aab8a" points="2466.49,-577.42 2462.99,-567.42 2459.49,-577.42 2466.49,-577.42"/>
<text text-anchor="start" x="2462.99" y="-589.31" font-family="Times,serif" font-weight="bold" font-size="14.00">NEIN</text>
</g>
</g>
</svg>
  </g>
</svg>
  </g>
</svg>
