<?xml version='1.0' encoding='ASCII' standalone='yes'?>
<svg xmlns="http://www.w3.org/2000/svg" xmlns:xlink="http://www.w3.org/1999/xlink" version="1.1" width="1368.0px" viewBox="0 0 1368.0 477.3333333333333" height="477.3333333333333px">
  <g>
    <svg version="1.1" width="1368.0px" viewBox="0 0 1368.0 477.3333333333333" height="477.3333333333333px">
  <polygon fill="#f3f1f6" points="0,0 1368.0,0 1368.0,477.3333333333333 0,477.3333333333333"/><g>
    <g transform="translate(489.34317093776394, 47.73333333333332) scale(1 1) translate(0, 0) scale(0.6721111424012016 0.6721111424012016) "><!-- note that I manually added the width and height attribute to the root node
  https://chatgpt.com/share/678e3028-70cc-800b-a296-782714735772
  -->
  <defs>
    <style>.cls-1{fill:#fff;}</style>
  </defs>
  <path class="cls-1" d="M122.44,531.2h-56.1c-11,0-19.9-9.12-19.46-20.11C57.47,243.89,278.15,29.78,547.91,29.78v56.02c0,10.98-8.69,19.89-19.66,20.39-225.51,10.31-405.8,197-405.8,425Z"/>
  <path class="cls-1" d="M273.78,531.2h-55.93c-11.23,0-20.09-9.48-19.43-20.69,10.74-183.44,163.39-329.39,349.48-329.39v56.26c0,10.71-8.27,19.62-18.96,20.35-142.35,9.77-255.17,128.69-255.17,273.46Z"/>
  <path class="cls-1" d="M425.77,531.2h-55.45c-11.65,0-20.6-10.17-19.33-21.75,10.87-99.03,95.03-176.34,196.92-176.34v57.01c0,10.05-7.28,18.75-17.23,20.16-59.22,8.4-104.91,59.42-104.91,120.92Z"/>
</g>
    <svg width="1026pt" height="358pt" viewBox="0.00 0.00 1026.00 358.33">
<g id="graph0" class="graph" transform="scale(1 1) rotate(0) translate(4 354.33)">
<title>D</title>
<text text-anchor="start" x="8" y="-330.23" font-family="Times,serif" font-weight="bold" font-size="18.00">GPKE</text>
<text text-anchor="start" x="8" y="-300.13" font-family="Times,serif" font-weight="bold" font-size="16.00">6.30.1: AD: Bestellung &#196;nderung Netzentgelte aufgrund netzorientierter Steuerungsm&#246;glichkeit von LF an NB</text>
<!-- Start -->
<g id="node1" class="node">
<title>Start</title>
<path fill="#7a8da1" stroke="black" stroke-width="0" d="M493.04,-252.33C493.04,-252.33 356.99,-252.33 356.99,-252.33 350.99,-252.33 344.99,-246.33 344.99,-240.33 344.99,-240.33 344.99,-221.05 344.99,-221.05 344.99,-215.05 350.99,-209.05 356.99,-209.05 356.99,-209.05 493.04,-209.05 493.04,-209.05 499.04,-209.05 505.04,-215.05 505.04,-221.05 505.04,-221.05 505.04,-240.33 505.04,-240.33 505.04,-246.33 499.04,-252.33 493.04,-252.33"/>
<text text-anchor="start" x="396.89" y="-231.39" font-family="Times,serif" font-weight="bold" font-size="14.00">E_0570</text>
<text text-anchor="start" x="359.39" y="-219.29" font-family="Times,serif" font-weight="bold" text-decoration="underline" font-size="12.00">Pr&#252;fende Rolle:</text>
<text text-anchor="start" x="464.39" y="-219.29" font-family="Times,serif" font-weight="bold" font-size="12.00"> NB</text>
</g>
<!-- 10 -->
<g id="node2" class="node">
<title>10</title>
<path fill="#7aab8a" stroke="black" stroke-width="0" d="M658.79,-172.05C658.79,-172.05 191.24,-172.05 191.24,-172.05 185.24,-172.05 179.24,-166.05 179.24,-160.05 179.24,-160.05 179.24,-138.77 179.24,-138.77 179.24,-132.77 185.24,-126.77 191.24,-126.77 191.24,-126.77 658.79,-126.77 658.79,-126.77 664.79,-126.77 670.79,-132.77 670.79,-138.77 670.79,-138.77 670.79,-160.05 670.79,-160.05 670.79,-166.05 664.79,-172.05 658.79,-172.05"/>
<text text-anchor="start" x="193.64" y="-151.11" font-family="Times,serif" font-weight="bold" font-size="14.00">10: </text>
<text text-anchor="start" x="222.89" y="-151.11" font-family="Times,serif" font-size="14.00">Ist die &#196;nderung der Netzentgelte aufgrund netzorientierter</text>
<text text-anchor="start" x="193.64" y="-137.11" font-family="Times,serif" font-size="14.00">Steuerungsm&#246;glichkeit m&#246;glich?</text>
</g>
<!-- Start&#45;&gt;10 -->
<g id="edge1" class="edge">
<title>Start-&gt;10</title>
<path fill="none" stroke="black" d="M425.02,-209.27C425.02,-201.3 425.02,-191.95 425.02,-183.09"/>
<polygon fill="black" stroke="black" points="428.52,-183.38 425.02,-173.38 421.52,-183.38 428.52,-183.38"/>
</g>
<!-- A01 -->
<g id="node3" class="node">
<title>A01</title>
<path fill="#cfb986" stroke="black" stroke-width="0" d="M301.76,-61.52C301.76,-61.52 226.28,-61.52 226.28,-61.52 220.28,-61.52 214.28,-55.52 214.28,-49.52 214.28,-49.52 214.28,-24 214.28,-24 214.28,-18 220.28,-12 226.28,-12 226.28,-12 301.76,-12 301.76,-12 307.76,-12 313.76,-18 313.76,-24 313.76,-24 313.76,-49.52 313.76,-49.52 313.76,-55.52 307.76,-61.52 301.76,-61.52"/>
<text text-anchor="start" x="226.52" y="-43.46" font-family="Times,serif" font-weight="bold" font-size="14.00">A01</text>
<text text-anchor="start" x="226.52" y="-31.36" font-family="Times,serif" text-decoration="underline" font-size="12.00">Hinweis:</text>
<text text-anchor="start" x="226.52" y="-19.36" font-family="Times,serif" font-size="12.00">Zustimmung</text>
</g>
<!-- 10&#45;&gt;A01 -->
<g id="edge2" class="edge">
<title>10-&gt;A01</title>
<path fill="none" stroke="#7aab8a" d="M393.59,-126.81C369.12,-109.99 334.85,-86.44 307.71,-67.79"/>
<polygon fill="#7aab8a" stroke="#7aab8a" points="309.9,-65.05 299.68,-62.27 305.93,-70.82 309.9,-65.05"/>
<text text-anchor="start" x="363.02" y="-96.47" font-family="Times,serif" font-weight="bold" font-size="14.00">JA</text>
</g>
<!-- A99 -->
<g id="node4" class="node">
<title>A99</title>
<path fill="#cfb986" stroke="black" stroke-width="0" d="M826.76,-73.52C826.76,-73.52 343.28,-73.52 343.28,-73.52 337.28,-73.52 331.28,-67.52 331.28,-61.52 331.28,-61.52 331.28,-12 331.28,-12 331.28,-6 337.28,0 343.28,0 343.28,0 826.76,0 826.76,0 832.76,0 838.76,-6 838.76,-12 838.76,-12 838.76,-61.52 838.76,-61.52 838.76,-67.52 832.76,-73.52 826.76,-73.52"/>
<text text-anchor="start" x="343.52" y="-55.46" font-family="Times,serif" font-weight="bold" font-size="14.00">A99</text>
<text text-anchor="start" x="343.52" y="-43.36" font-family="Times,serif" text-decoration="underline" font-size="12.00">Hinweis:</text>
<text text-anchor="start" x="343.52" y="-31.36" font-family="Times,serif" font-size="12.00">Ablehnung Sonstiges</text>
<text text-anchor="start" x="343.52" y="-19.36" font-family="Times,serif" font-size="12.00">Hinweis: Das identifizierte Problem ist in der Antwort zu beschreiben/benennen.</text>
<text text-anchor="start" x="343.52" y="-7.36" font-family="Times,serif" font-size="12.00">Nutzungsm&#246;glichkeit: Ende offen</text>
</g>
<!-- 10&#45;&gt;A99 -->
<g id="edge3" class="edge">
<title>10-&gt;A99</title>
<path fill="none" stroke="#7aab8a" d="M456.25,-126.81C475.51,-113.49 500.87,-95.95 523.99,-79.96"/>
<polygon fill="#7aab8a" stroke="#7aab8a" points="525.92,-82.88 532.16,-74.32 521.94,-77.13 525.92,-82.88"/>
<text text-anchor="start" x="505.02" y="-96.47" font-family="Times,serif" font-weight="bold" font-size="14.00">NEIN</text>
</g>
</g>
</svg>
  </g>
</svg>
  </g>
</svg>
