<?xml version='1.0' encoding='ASCII' standalone='yes'?>
<svg xmlns="http://www.w3.org/2000/svg" xmlns:xlink="http://www.w3.org/1999/xlink" version="1.1" width="1285.3333333333333px" viewBox="0 0 1285.3333333333333 532.0" height="532.0px">
  <g>
    <svg version="1.1" width="1285.3333333333333px" viewBox="0 0 1285.3333333333333 532.0" height="532.0px">
  <rect fill="#e7e6e5" x="0" y="0" width="1285.3333333333333" height="532.0" rx="20" ry="20"/><g>
    <g transform="translate(425.7167370693701, 53.19999999999999) scale(1 1) translate(0, 0) scale(0.7490847648549706 0.7490847648549706) "><defs>
    <style>.cls-1{fill:#ffffff88;}</style>
    <!--
    ffffff88 is white with 50% transparency; this matches the colour of the tesa strip on
    ebd.hochfrequenz.de where it crosses the diagram SVG:
    https://github.com/Hochfrequenz/entscheidungsbaumdiagramme/blob/01bd43fa0f1d0333fa93596bc8b9fd1e4b285c8c/src/lib/components/features/svg-container.svelte#L54
    -->
  </defs>
  <path class="cls-1" d="M122.44,531.2h-56.1c-11,0-19.9-9.12-19.46-20.11C57.47,243.89,278.15,29.78,547.91,29.78v56.02c0,10.98-8.69,19.89-19.66,20.39-225.51,10.31-405.8,197-405.8,425Z"/>
  <path class="cls-1" d="M273.78,531.2h-55.93c-11.23,0-20.09-9.48-19.43-20.69,10.74-183.44,163.39-329.39,349.48-329.39v56.26c0,10.71-8.27,19.62-18.96,20.35-142.35,9.77-255.17,128.69-255.17,273.46Z"/>
  <path class="cls-1" d="M425.77,531.2h-55.45c-11.65,0-20.6-10.17-19.33-21.75,10.87-99.03,95.03-176.34,196.92-176.34v57.01c0,10.05-7.28,18.75-17.23,20.16-59.22,8.4-104.91,59.42-104.91,120.92Z"/>
</g>
    <svg width="964pt" height="399pt" viewBox="0.00 0.00 964.00 398.81">
<g id="graph0" class="graph" transform="scale(1 1) rotate(0) translate(18 380.81)">
<title>D</title>
<text text-anchor="start" x="8" y="-342.71" font-family="Roboto, sans-serif" font-weight="bold" font-size="18.00">Zum Modell 2 zur ladevorgangscharfen bilanziellen Energiemengenzuordnungsm&#246;glichkeit</text>
<text text-anchor="start" x="8" y="-314.61" font-family="Roboto, sans-serif" font-weight="bold" font-size="16.00">18.1.4: AD: Anmeldung einer Marktlokation in das Modell 2 durch den NB (LPB)_neu</text>
<!-- Start -->
<g id="node1" class="node">
<title>Start</title>
<path fill="#8ba2d7" stroke="black" stroke-width="0" d="M618.9,-272.81C618.9,-272.81 485.85,-272.81 485.85,-272.81 479.85,-272.81 473.85,-266.81 473.85,-260.81 473.85,-260.81 473.85,-239.53 473.85,-239.53 473.85,-233.53 479.85,-227.53 485.85,-227.53 485.85,-227.53 618.9,-227.53 618.9,-227.53 624.9,-227.53 630.9,-233.53 630.9,-239.53 630.9,-239.53 630.9,-260.81 630.9,-260.81 630.9,-266.81 624.9,-272.81 618.9,-272.81"/>
<text text-anchor="start" x="488.25" y="-251.87" font-family="Roboto, sans-serif" font-weight="bold" font-size="14.00">E_0511</text>
<text text-anchor="start" x="488.25" y="-237.87" font-family="Roboto, sans-serif" font-size="14.00">Pr&#252;fende Rolle: </text>
<text text-anchor="start" x="597.75" y="-237.87" font-family="Roboto, sans-serif" font-weight="bold" font-size="14.00">LF</text>
</g>
<!-- 1 -->
<g id="node2" class="node">
<title>1</title>
<path fill="#c2cee9" stroke="black" stroke-width="0" d="M656.02,-190.53C656.02,-190.53 448.72,-190.53 448.72,-190.53 442.72,-190.53 436.72,-184.53 436.72,-178.53 436.72,-178.53 436.72,-166.53 436.72,-166.53 436.72,-160.53 442.72,-154.53 448.72,-154.53 448.72,-154.53 656.02,-154.53 656.02,-154.53 662.02,-154.53 668.02,-160.53 668.02,-166.53 668.02,-166.53 668.02,-178.53 668.02,-178.53 668.02,-184.53 662.02,-190.53 656.02,-190.53"/>
<text text-anchor="start" x="451.12" y="-168.85" font-family="Roboto, sans-serif" font-weight="bold" font-size="14.00">1: </text>
<text text-anchor="start" x="470.62" y="-168.85" font-family="Roboto, sans-serif" font-size="14.00">Ist ein Fehler aufgetreten?</text>
</g>
<!-- Start&#45;&gt;1 -->
<g id="edge1" class="edge">
<title>Start-&gt;1</title>
<path fill="none" stroke="#88a0d6" d="M552.38,-227.7C552.38,-219.62 552.38,-210.32 552.38,-201.72"/>
<polygon fill="#88a0d6" stroke="#88a0d6" points="555.88,-201.76 552.38,-191.76 548.88,-201.76 555.88,-201.76"/>
</g>
<!-- A99 -->
<g id="node3" class="node">
<title>A99</title>
<path fill="#c4cac1" stroke="black" stroke-width="0" d="M620.65,-101.28C620.65,-101.28 60.1,-101.28 60.1,-101.28 54.1,-101.28 48.1,-95.28 48.1,-89.28 48.1,-89.28 48.1,-12 48.1,-12 48.1,-6 54.1,0 60.1,0 60.1,0 620.65,0 620.65,0 626.65,0 632.65,-6 632.65,-12 632.65,-12 632.65,-89.28 632.65,-89.28 632.65,-95.28 626.65,-101.28 620.65,-101.28"/>
<text text-anchor="start" x="62.5" y="-80.34" font-family="Roboto, sans-serif" font-weight="bold" font-size="14.00">A99</text>
<text text-anchor="start" x="62.5" y="-52.34" font-family="Roboto, sans-serif" font-size="14.00">Cluster: Ablehnung</text>
<text text-anchor="start" x="62.5" y="-38.34" font-family="Roboto, sans-serif" font-size="14.00">Sonstiges</text>
<text text-anchor="start" x="62.5" y="-24.34" font-family="Roboto, sans-serif" font-size="14.00">Hinweis: Das identifizierte Problem ist in der Antwort zu beschreiben/benennen.</text>
<text text-anchor="start" x="62.5" y="-10.34" font-family="Roboto, sans-serif" font-size="14.00">Nutzungsm&#246;glichkeit Ende: 01.10.2024, 00:00 Uhr</text>
</g>
<!-- 1&#45;&gt;A99 -->
<g id="edge2" class="edge">
<title>1-&gt;A99</title>
<path fill="none" stroke="#88a0d6" d="M522.45,-154.61C500.2,-142.03 468.51,-124.1 437.78,-106.73"/>
<polygon fill="#88a0d6" stroke="#88a0d6" points="439.6,-103.73 429.17,-101.86 436.16,-109.83 439.6,-103.73"/>
<text text-anchor="start" x="489.37" y="-124.23" font-family="Roboto, sans-serif" font-weight="bold" font-size="14.00">JA</text>
</g>
<!-- A01 -->
<g id="node4" class="node">
<title>A01</title>
<path fill="#c4cac1" stroke="black" stroke-width="0" d="M867.9,-87.28C867.9,-87.28 662.85,-87.28 662.85,-87.28 656.85,-87.28 650.85,-81.28 650.85,-75.28 650.85,-75.28 650.85,-26 650.85,-26 650.85,-20 656.85,-14 662.85,-14 662.85,-14 867.9,-14 867.9,-14 873.9,-14 879.9,-20 879.9,-26 879.9,-26 879.9,-75.28 879.9,-75.28 879.9,-81.28 873.9,-87.28 867.9,-87.28"/>
<text text-anchor="start" x="665.25" y="-66.34" font-family="Roboto, sans-serif" font-weight="bold" font-size="14.00">A01</text>
<text text-anchor="start" x="665.25" y="-38.34" font-family="Roboto, sans-serif" font-size="14.00">Cluster: Zustimmung</text>
<text text-anchor="start" x="665.25" y="-24.34" font-family="Roboto, sans-serif" font-size="14.00">Best&#228;tigung der Beendigung</text>
</g>
<!-- 1&#45;&gt;A01 -->
<g id="edge3" class="edge">
<title>1-&gt;A01</title>
<path fill="none" stroke="#88a0d6" d="M582.44,-154.61C610.86,-138.61 654.64,-113.97 692.24,-92.81"/>
<polygon fill="#88a0d6" stroke="#88a0d6" points="693.84,-95.92 700.84,-87.97 690.4,-89.82 693.84,-95.92"/>
<text text-anchor="start" x="639.38" y="-124.23" font-family="Roboto, sans-serif" font-weight="bold" font-size="14.00">NEIN</text>
</g>
</g>
</svg>
  </g>
</svg>
  </g>
</svg>
