<?xml version='1.0' encoding='ASCII' standalone='yes'?>
<svg xmlns="http://www.w3.org/2000/svg" xmlns:xlink="http://www.w3.org/1999/xlink" version="1.1" width="1920.0px" viewBox="0 0 1920.0 1818.6666666666667" height="1818.6666666666667px">
  <g>
    <svg version="1.1" width="1920.0px" viewBox="0 0 1920.0 1818.6666666666667" height="1818.6666666666667px">
  <rect fill="#e7e6e5" x="0" y="0" width="1920.0" height="1818.6666666666667" rx="20" ry="20"/><g>
    <g transform="translate(218.346606589693, 181.86666666666665) scale(1 1) translate(0, 0) scale(2.560781000657092 2.560781000657092) "><defs>
    <style>.cls-1{fill:#ffffff88;}</style>
    <!--
    ffffff88 is white with 50% transparency; this matches the colour of the tesa strip on
    ebd.hochfrequenz.de where it crosses the diagram SVG:
    https://github.com/Hochfrequenz/entscheidungsbaumdiagramme/blob/01bd43fa0f1d0333fa93596bc8b9fd1e4b285c8c/src/lib/components/features/svg-container.svelte#L54
    -->
  </defs>
  <path class="cls-1" d="M122.44,531.2h-56.1c-11,0-19.9-9.12-19.46-20.11C57.47,243.89,278.15,29.78,547.91,29.78v56.02c0,10.98-8.69,19.89-19.66,20.39-225.51,10.31-405.8,197-405.8,425Z"/>
  <path class="cls-1" d="M273.78,531.2h-55.93c-11.23,0-20.09-9.48-19.43-20.69,10.74-183.44,163.39-329.39,349.48-329.39v56.26c0,10.71-8.27,19.62-18.96,20.35-142.35,9.77-255.17,128.69-255.17,273.46Z"/>
  <path class="cls-1" d="M425.77,531.2h-55.45c-11.65,0-20.6-10.17-19.33-21.75,10.87-99.03,95.03-176.34,196.92-176.34v57.01c0,10.05-7.28,18.75-17.23,20.16-59.22,8.4-104.91,59.42-104.91,120.92Z"/>
</g>
    <svg width="1440pt" height="1364pt" viewBox="0.00 0.00 1440.00 1364.10">
<g id="graph0" class="graph" transform="scale(0.696266 0.696266) rotate(0) translate(18 1941.17)">
<title>D</title>
<text text-anchor="start" x="764.84" y="-1903.07" font-family="Roboto, sans-serif" font-weight="bold" font-size="18.00">GPKE</text>
<text text-anchor="start" x="764.84" y="-1874.97" font-family="Roboto, sans-serif" font-weight="bold" font-size="16.00">6.36.1: AD Bestellung einer Konfiguration vom LF an NB</text>
<!-- Start -->
<g id="node1" class="node">
<title>Start</title>
<path fill="#8ba2d7" stroke="black" stroke-width="0" d="M307.67,-1833.17C307.67,-1833.17 170.87,-1833.17 170.87,-1833.17 164.87,-1833.17 158.87,-1827.17 158.87,-1821.17 158.87,-1821.17 158.87,-1799.89 158.87,-1799.89 158.87,-1793.89 164.87,-1787.89 170.87,-1787.89 170.87,-1787.89 307.67,-1787.89 307.67,-1787.89 313.67,-1787.89 319.67,-1793.89 319.67,-1799.89 319.67,-1799.89 319.67,-1821.17 319.67,-1821.17 319.67,-1827.17 313.67,-1833.17 307.67,-1833.17"/>
<text text-anchor="start" x="173.27" y="-1812.23" font-family="Roboto, sans-serif" font-weight="bold" font-size="14.00">E_0523</text>
<text text-anchor="start" x="173.27" y="-1798.23" font-family="Roboto, sans-serif" font-size="14.00">Pr&#252;fende Rolle: </text>
<text text-anchor="start" x="282.77" y="-1798.23" font-family="Roboto, sans-serif" font-weight="bold" font-size="14.00">NB</text>
</g>
<!-- 10 -->
<g id="node2" class="node">
<title>10</title>
<path fill="#c2cee9" stroke="black" stroke-width="0" d="M449.8,-1750.89C449.8,-1750.89 28.75,-1750.89 28.75,-1750.89 22.75,-1750.89 16.75,-1744.89 16.75,-1738.89 16.75,-1738.89 16.75,-1726.89 16.75,-1726.89 16.75,-1720.89 22.75,-1714.89 28.75,-1714.89 28.75,-1714.89 449.8,-1714.89 449.8,-1714.89 455.8,-1714.89 461.8,-1720.89 461.8,-1726.89 461.8,-1726.89 461.8,-1738.89 461.8,-1738.89 461.8,-1744.89 455.8,-1750.89 449.8,-1750.89"/>
<text text-anchor="start" x="31.15" y="-1729.22" font-family="Roboto, sans-serif" font-weight="bold" font-size="14.00">10: </text>
<text text-anchor="start" x="60.4" y="-1729.22" font-family="Roboto, sans-serif" font-size="14.00">Handelt es sich um eine kostenpflichtige Konfiguration?</text>
</g>
<!-- Start&#45;&gt;10 -->
<g id="edge1" class="edge">
<title>Start-&gt;10</title>
<path fill="none" stroke="#88a0d6" d="M239.27,-1788.06C239.27,-1779.98 239.27,-1770.68 239.27,-1762.08"/>
<polygon fill="#88a0d6" stroke="#88a0d6" points="242.78,-1762.12 239.28,-1752.12 235.78,-1762.12 242.78,-1762.12"/>
</g>
<!-- A01 -->
<g id="node3" class="node">
<title>A01</title>
<path fill="#c4cac1" stroke="black" stroke-width="0" d="M303.92,-1661.64C303.92,-1661.64 90.62,-1661.64 90.62,-1661.64 84.62,-1661.64 78.62,-1655.64 78.62,-1649.64 78.62,-1649.64 78.62,-1600.36 78.62,-1600.36 78.62,-1594.36 84.62,-1588.36 90.62,-1588.36 90.62,-1588.36 303.92,-1588.36 303.92,-1588.36 309.92,-1588.36 315.92,-1594.36 315.92,-1600.36 315.92,-1600.36 315.92,-1649.64 315.92,-1649.64 315.92,-1655.64 309.92,-1661.64 303.92,-1661.64"/>
<text text-anchor="start" x="93.02" y="-1640.7" font-family="Roboto, sans-serif" font-weight="bold" font-size="14.00">A01</text>
<text text-anchor="start" x="93.02" y="-1612.7" font-family="Roboto, sans-serif" font-size="14.00">Cluster: Ablehnung</text>
<text text-anchor="start" x="93.02" y="-1598.7" font-family="Roboto, sans-serif" font-size="14.00">Kostenpflichtige Konfiguration</text>
</g>
<!-- 10&#45;&gt;A01 -->
<g id="edge2" class="edge">
<title>10-&gt;A01</title>
<path fill="none" stroke="#88a0d6" d="M232.71,-1715.34C228.06,-1703.62 221.59,-1687.29 215.44,-1671.79"/>
<polygon fill="#88a0d6" stroke="#88a0d6" points="218.76,-1670.67 211.82,-1662.67 212.25,-1673.25 218.76,-1670.67"/>
<text text-anchor="start" x="224.27" y="-1684.59" font-family="Roboto, sans-serif" font-weight="bold" font-size="14.00">JA</text>
</g>
<!-- 20 -->
<g id="node4" class="node">
<title>20</title>
<path fill="#c2cee9" stroke="black" stroke-width="0" d="M884.67,-1647.64C884.67,-1647.64 345.88,-1647.64 345.88,-1647.64 339.88,-1647.64 333.88,-1641.64 333.88,-1635.64 333.88,-1635.64 333.88,-1614.36 333.88,-1614.36 333.88,-1608.36 339.88,-1602.36 345.88,-1602.36 345.88,-1602.36 884.67,-1602.36 884.67,-1602.36 890.67,-1602.36 896.67,-1608.36 896.67,-1614.36 896.67,-1614.36 896.67,-1635.64 896.67,-1635.64 896.67,-1641.64 890.67,-1647.64 884.67,-1647.64"/>
<text text-anchor="start" x="348.27" y="-1626.7" font-family="Roboto, sans-serif" font-weight="bold" font-size="14.00">20: </text>
<text text-anchor="start" x="377.52" y="-1626.7" font-family="Roboto, sans-serif" font-size="14.00">Handelt sich um eine Bestellung einer Konfiguration einer &#196;nderung des</text>
<text text-anchor="start" x="348.27" y="-1612.7" font-family="Roboto, sans-serif" font-size="14.00">Bilanzierungsverfahrens (Prognosegrundlage)?</text>
</g>
<!-- 10&#45;&gt;20 -->
<g id="edge3" class="edge">
<title>10-&gt;20</title>
<path fill="none" stroke="#88a0d6" d="M299.27,-1714.99C360.87,-1697.65 457.39,-1670.46 527.56,-1650.7"/>
<polygon fill="#88a0d6" stroke="#88a0d6" points="528.45,-1654.09 537.12,-1648.01 526.55,-1647.35 528.45,-1654.09"/>
<text text-anchor="start" x="415.27" y="-1684.59" font-family="Roboto, sans-serif" font-weight="bold" font-size="14.00">NEIN</text>
</g>
<!-- 30 -->
<g id="node5" class="node">
<title>30</title>
<path fill="#c2cee9" stroke="black" stroke-width="0" d="M848.05,-1523.47C848.05,-1523.47 266.5,-1523.47 266.5,-1523.47 260.5,-1523.47 254.5,-1517.47 254.5,-1511.47 254.5,-1511.47 254.5,-1499.47 254.5,-1499.47 254.5,-1493.47 260.5,-1487.47 266.5,-1487.47 266.5,-1487.47 848.05,-1487.47 848.05,-1487.47 854.05,-1487.47 860.05,-1493.47 860.05,-1499.47 860.05,-1499.47 860.05,-1511.47 860.05,-1511.47 860.05,-1517.47 854.05,-1523.47 848.05,-1523.47"/>
<text text-anchor="start" x="268.9" y="-1501.8" font-family="Roboto, sans-serif" font-weight="bold" font-size="14.00">30: </text>
<text text-anchor="start" x="298.15" y="-1501.8" font-family="Roboto, sans-serif" font-size="14.00">Handelt es sich um eine Bestellung einer Konfiguration einer Z&#228;hlzeitdefinition</text>
</g>
<!-- 20&#45;&gt;30 -->
<g id="edge5" class="edge">
<title>20-&gt;30</title>
<path fill="none" stroke="#88a0d6" d="M604.64,-1602.44C595.06,-1583.03 580.94,-1554.41 570.61,-1533.48"/>
<polygon fill="#88a0d6" stroke="#88a0d6" points="573.83,-1532.1 566.26,-1524.68 567.55,-1535.2 573.83,-1532.1"/>
<text text-anchor="start" x="587.27" y="-1558.06" font-family="Roboto, sans-serif" font-weight="bold" font-size="14.00">NEIN</text>
</g>
<!-- 40 -->
<g id="node6" class="node">
<title>40</title>
<path fill="#c2cee9" stroke="black" stroke-width="0" d="M1498.55,-1535.11C1498.55,-1535.11 890,-1535.11 890,-1535.11 884,-1535.11 878,-1529.11 878,-1523.11 878,-1523.11 878,-1487.83 878,-1487.83 878,-1481.83 884,-1475.83 890,-1475.83 890,-1475.83 1498.55,-1475.83 1498.55,-1475.83 1504.55,-1475.83 1510.55,-1481.83 1510.55,-1487.83 1510.55,-1487.83 1510.55,-1523.11 1510.55,-1523.11 1510.55,-1529.11 1504.55,-1535.11 1498.55,-1535.11"/>
<text text-anchor="start" x="892.4" y="-1514.17" font-family="Roboto, sans-serif" font-weight="bold" font-size="14.00">40: </text>
<text text-anchor="start" x="921.65" y="-1514.17" font-family="Roboto, sans-serif" font-size="14.00">Handelt es sich um eine Marktlokation mit der messtechnischen Einordnung &#8222;iMS&#8220;</text>
<text text-anchor="start" x="892.4" y="-1500.17" font-family="Roboto, sans-serif" font-size="14.00">oder um eine Marktlokation, bei der alle Messlokationen mit einem Z&#228;hler des</text>
<text text-anchor="start" x="892.4" y="-1486.17" font-family="Roboto, sans-serif" font-size="14.00">Typs Lastgangz&#228;hler ausgestattet sind?</text>
</g>
<!-- 20&#45;&gt;40 -->
<g id="edge4" class="edge">
<title>20-&gt;40</title>
<path fill="none" stroke="#88a0d6" d="M721.81,-1602.37C811.69,-1584.13 941.44,-1557.79 1042.23,-1537.33"/>
<polygon fill="#88a0d6" stroke="#88a0d6" points="1042.85,-1540.78 1051.96,-1535.36 1041.46,-1533.92 1042.85,-1540.78"/>
<text text-anchor="start" x="956.27" y="-1558.06" font-family="Roboto, sans-serif" font-weight="bold" font-size="14.00">JA</text>
</g>
<!-- 140 -->
<g id="node23" class="node">
<title>140</title>
<path fill="#c2cee9" stroke="black" stroke-width="0" d="M783.55,-1389.94C783.55,-1389.94 205,-1389.94 205,-1389.94 199,-1389.94 193,-1383.94 193,-1377.94 193,-1377.94 193,-1365.94 193,-1365.94 193,-1359.94 199,-1353.94 205,-1353.94 205,-1353.94 783.55,-1353.94 783.55,-1353.94 789.55,-1353.94 795.55,-1359.94 795.55,-1365.94 795.55,-1365.94 795.55,-1377.94 795.55,-1377.94 795.55,-1383.94 789.55,-1389.94 783.55,-1389.94"/>
<text text-anchor="start" x="207.4" y="-1368.27" font-family="Roboto, sans-serif" font-weight="bold" font-size="14.00">140: </text>
<text text-anchor="start" x="246.4" y="-1368.27" font-family="Roboto, sans-serif" font-size="14.00">Handelt es sich bei der Marktlokation um eine verbrauchende Marktlokation?</text>
</g>
<!-- 30&#45;&gt;140 -->
<g id="edge6" class="edge">
<title>30-&gt;140</title>
<path fill="none" stroke="#88a0d6" d="M549.17,-1487.54C538.54,-1465.35 519.76,-1426.14 507.17,-1399.85"/>
<polygon fill="#88a0d6" stroke="#88a0d6" points="510.48,-1398.67 503,-1391.17 504.17,-1401.7 510.48,-1398.67"/>
<text text-anchor="start" x="532.27" y="-1445.53" font-family="Roboto, sans-serif" font-weight="bold" font-size="14.00">JA</text>
</g>
<!-- 190 -->
<g id="node32" class="node">
<title>190</title>
<path fill="#c2cee9" stroke="black" stroke-width="0" d="M997.67,-729.29C997.67,-729.29 644.88,-729.29 644.88,-729.29 638.88,-729.29 632.88,-723.29 632.88,-717.29 632.88,-717.29 632.88,-705.29 632.88,-705.29 632.88,-699.29 638.88,-693.29 644.88,-693.29 644.88,-693.29 997.67,-693.29 997.67,-693.29 1003.67,-693.29 1009.67,-699.29 1009.67,-705.29 1009.67,-705.29 1009.67,-717.29 1009.67,-717.29 1009.67,-723.29 1003.67,-729.29 997.67,-729.29"/>
<text text-anchor="start" x="647.27" y="-707.62" font-family="Roboto, sans-serif" font-weight="bold" font-size="14.00">190: </text>
<text text-anchor="start" x="686.27" y="-707.62" font-family="Roboto, sans-serif" font-size="14.00">Ist der bestellte Zustand bereits vorhanden?</text>
</g>
<!-- 30&#45;&gt;190 -->
<g id="edge7" class="edge">
<title>30-&gt;190</title>
<path fill="none" stroke="#88a0d6" d="M675.81,-1487.51C720.8,-1475.8 769.52,-1456.01 804.27,-1422.58 838.92,-1389.25 805.63,-1352.42 842.27,-1321.3 934.84,-1242.7 1033.22,-1361.92 1110.28,-1268.05 1240.02,-1109.99 947.65,-1249.47 860.27,-1141.52 835.87,-1111.37 836.8,-1085.12 860.27,-1054.24 866.98,-1045.43 1044.97,-1009.31 1052.28,-1000.99 1081.56,-967.63 1063.9,-946.42 1066.28,-902.08"/>
<text text-anchor="start" x="860.27" y="-1094.21" font-family="Roboto, sans-serif" font-weight="bold" font-size="14.00">NEIN</text>
</g>
<!-- A02 -->
<g id="node7" class="node">
<title>A02</title>
<path fill="#c4cac1" stroke="black" stroke-width="0" d="M1430.93,-1422.58C1430.93,-1422.58 863.63,-1422.58 863.63,-1422.58 857.63,-1422.58 851.63,-1416.58 851.63,-1410.58 851.63,-1410.58 851.63,-1333.3 851.63,-1333.3 851.63,-1327.3 857.63,-1321.3 863.63,-1321.3 863.63,-1321.3 1430.93,-1321.3 1430.93,-1321.3 1436.93,-1321.3 1442.93,-1327.3 1442.93,-1333.3 1442.93,-1333.3 1442.93,-1410.58 1442.93,-1410.58 1442.93,-1416.58 1436.93,-1422.58 1430.93,-1422.58"/>
<text text-anchor="start" x="866.03" y="-1401.64" font-family="Roboto, sans-serif" font-weight="bold" font-size="14.00">A02</text>
<text text-anchor="start" x="866.03" y="-1373.64" font-family="Roboto, sans-serif" font-size="14.00">Cluster: Ablehnung</text>
<text text-anchor="start" x="866.03" y="-1359.64" font-family="Roboto, sans-serif" font-size="14.00">Marktlokation befindet sich nicht in der messtechnischen Einordnung &#8222;iMS&#8220; oder</text>
<text text-anchor="start" x="866.03" y="-1345.64" font-family="Roboto, sans-serif" font-size="14.00">es handelt sich nicht um eine Marktlokation, bei der alle Messlokationen mit</text>
<text text-anchor="start" x="866.03" y="-1331.64" font-family="Roboto, sans-serif" font-size="14.00">einem Z&#228;hler des Typs Lastgangz&#228;hler ausgestattet sind.</text>
</g>
<!-- 40&#45;&gt;A02 -->
<g id="edge8" class="edge">
<title>40-&gt;A02</title>
<path fill="none" stroke="#88a0d6" d="M1165.16,-1476.01C1160.84,-1470.38 1156.95,-1464.23 1154.28,-1457.83 1151.1,-1450.23 1148.98,-1441.92 1147.6,-1433.57"/>
<polygon fill="#88a0d6" stroke="#88a0d6" points="1151.08,-1433.19 1146.34,-1423.72 1144.13,-1434.08 1151.08,-1433.19"/>
<text text-anchor="start" x="1154.28" y="-1445.53" font-family="Roboto, sans-serif" font-weight="bold" font-size="14.00">NEIN</text>
</g>
<!-- 50 -->
<g id="node8" class="node">
<title>50</title>
<path fill="#c2cee9" stroke="black" stroke-width="0" d="M2019.8,-1394.58C2019.8,-1394.58 1472.75,-1394.58 1472.75,-1394.58 1466.75,-1394.58 1460.75,-1388.58 1460.75,-1382.58 1460.75,-1382.58 1460.75,-1361.3 1460.75,-1361.3 1460.75,-1355.3 1466.75,-1349.3 1472.75,-1349.3 1472.75,-1349.3 2019.8,-1349.3 2019.8,-1349.3 2025.8,-1349.3 2031.8,-1355.3 2031.8,-1361.3 2031.8,-1361.3 2031.8,-1382.58 2031.8,-1382.58 2031.8,-1388.58 2025.8,-1394.58 2019.8,-1394.58"/>
<text text-anchor="start" x="1475.15" y="-1373.64" font-family="Roboto, sans-serif" font-weight="bold" font-size="14.00">50: </text>
<text text-anchor="start" x="1504.4" y="-1373.64" font-family="Roboto, sans-serif" font-size="14.00">Entspricht der geplante Termin zur &#196;nderung der Prognosegrundlage den</text>
<text text-anchor="start" x="1475.15" y="-1359.64" font-family="Roboto, sans-serif" font-size="14.00">Prozessfristvorgaben?</text>
</g>
<!-- 40&#45;&gt;50 -->
<g id="edge9" class="edge">
<title>40-&gt;50</title>
<path fill="none" stroke="#88a0d6" d="M1314.39,-1475.85C1412.98,-1452.36 1551.06,-1419.46 1644.33,-1397.23"/>
<polygon fill="#88a0d6" stroke="#88a0d6" points="1645.09,-1400.65 1654.01,-1394.93 1643.47,-1393.84 1645.09,-1400.65"/>
<text text-anchor="start" x="1453.28" y="-1445.53" font-family="Roboto, sans-serif" font-weight="bold" font-size="14.00">JA</text>
</g>
<!-- A03 -->
<g id="node9" class="node">
<title>A03</title>
<path fill="#c4cac1" stroke="black" stroke-width="0" d="M1500.18,-1268.05C1500.18,-1268.05 1360.38,-1268.05 1360.38,-1268.05 1354.38,-1268.05 1348.38,-1262.05 1348.38,-1256.05 1348.38,-1256.05 1348.38,-1206.77 1348.38,-1206.77 1348.38,-1200.77 1354.38,-1194.77 1360.38,-1194.77 1360.38,-1194.77 1500.18,-1194.77 1500.18,-1194.77 1506.18,-1194.77 1512.18,-1200.77 1512.18,-1206.77 1512.18,-1206.77 1512.18,-1256.05 1512.18,-1256.05 1512.18,-1262.05 1506.18,-1268.05 1500.18,-1268.05"/>
<text text-anchor="start" x="1362.78" y="-1247.11" font-family="Roboto, sans-serif" font-weight="bold" font-size="14.00">A03</text>
<text text-anchor="start" x="1362.78" y="-1219.11" font-family="Roboto, sans-serif" font-size="14.00">Cluster: Ablehnung</text>
<text text-anchor="start" x="1362.78" y="-1205.11" font-family="Roboto, sans-serif" font-size="14.00">Frist&#252;berschreitung</text>
</g>
<!-- 50&#45;&gt;A03 -->
<g id="edge10" class="edge">
<title>50-&gt;A03</title>
<path fill="none" stroke="#88a0d6" d="M1697.25,-1349.45C1650.57,-1328.99 1579.16,-1297.68 1521.93,-1272.59"/>
<polygon fill="#88a0d6" stroke="#88a0d6" points="1523.37,-1269.4 1512.81,-1268.59 1520.56,-1275.81 1523.37,-1269.4"/>
<text text-anchor="start" x="1588.28" y="-1291" font-family="Roboto, sans-serif" font-weight="bold" font-size="14.00">NEIN</text>
</g>
<!-- 60 -->
<g id="node10" class="node">
<title>60</title>
<path fill="#c2cee9" stroke="black" stroke-width="0" d="M1959.93,-1249.41C1959.93,-1249.41 1542.62,-1249.41 1542.62,-1249.41 1536.62,-1249.41 1530.62,-1243.41 1530.62,-1237.41 1530.62,-1237.41 1530.62,-1225.41 1530.62,-1225.41 1530.62,-1219.41 1536.62,-1213.41 1542.62,-1213.41 1542.62,-1213.41 1959.93,-1213.41 1959.93,-1213.41 1965.93,-1213.41 1971.93,-1219.41 1971.93,-1225.41 1971.93,-1225.41 1971.93,-1237.41 1971.93,-1237.41 1971.93,-1243.41 1965.93,-1249.41 1959.93,-1249.41"/>
<text text-anchor="start" x="1545.03" y="-1227.74" font-family="Roboto, sans-serif" font-weight="bold" font-size="14.00">60: </text>
<text text-anchor="start" x="1574.28" y="-1227.74" font-family="Roboto, sans-serif" font-size="14.00">Handelt es sich um eine verbrauchende Marktlokation?</text>
</g>
<!-- 50&#45;&gt;60 -->
<g id="edge11" class="edge">
<title>50-&gt;60</title>
<path fill="none" stroke="#88a0d6" d="M1747.05,-1349.6C1747.91,-1325.75 1749.3,-1287.03 1750.25,-1260.68"/>
<polygon fill="#88a0d6" stroke="#88a0d6" points="1753.75,-1260.83 1750.61,-1250.71 1746.76,-1260.58 1753.75,-1260.83"/>
<text text-anchor="start" x="1748.28" y="-1291" font-family="Roboto, sans-serif" font-weight="bold" font-size="14.00">JA</text>
</g>
<!-- A04 -->
<g id="node11" class="node">
<title>A04</title>
<path fill="#c4cac1" stroke="black" stroke-width="0" d="M1448.05,-1141.52C1448.05,-1141.52 920.5,-1141.52 920.5,-1141.52 914.5,-1141.52 908.5,-1135.52 908.5,-1129.52 908.5,-1129.52 908.5,-1066.24 908.5,-1066.24 908.5,-1060.24 914.5,-1054.24 920.5,-1054.24 920.5,-1054.24 1448.05,-1054.24 1448.05,-1054.24 1454.05,-1054.24 1460.05,-1060.24 1460.05,-1066.24 1460.05,-1066.24 1460.05,-1129.52 1460.05,-1129.52 1460.05,-1135.52 1454.05,-1141.52 1448.05,-1141.52"/>
<text text-anchor="start" x="922.9" y="-1120.58" font-family="Roboto, sans-serif" font-weight="bold" font-size="14.00">A04</text>
<text text-anchor="start" x="922.9" y="-1092.58" font-family="Roboto, sans-serif" font-size="14.00">Cluster: Ablehnung</text>
<text text-anchor="start" x="922.9" y="-1078.58" font-family="Roboto, sans-serif" font-size="14.00">Erzeugende Marktlokationen mit iMS oder kME/ RLM werden immer auf der</text>
<text text-anchor="start" x="922.9" y="-1064.58" font-family="Roboto, sans-serif" font-size="14.00">Prognosegrundlage auf Basis von Werten bilanziert.</text>
</g>
<!-- 60&#45;&gt;A04 -->
<g id="edge12" class="edge">
<title>60-&gt;A04</title>
<path fill="none" stroke="#88a0d6" d="M1678.02,-1213.42C1602.7,-1195.95 1482.19,-1167.99 1379.08,-1144.07"/>
<polygon fill="#88a0d6" stroke="#88a0d6" points="1379.89,-1140.67 1369.36,-1141.81 1378.31,-1147.48 1379.89,-1140.67"/>
<text text-anchor="start" x="1518.28" y="-1164.47" font-family="Roboto, sans-serif" font-weight="bold" font-size="14.00">NEIN</text>
</g>
<!-- 70 -->
<g id="node12" class="node">
<title>70</title>
<path fill="#c2cee9" stroke="black" stroke-width="0" d="M2020.18,-1120.52C2020.18,-1120.52 1490.38,-1120.52 1490.38,-1120.52 1484.38,-1120.52 1478.38,-1114.52 1478.38,-1108.52 1478.38,-1108.52 1478.38,-1087.24 1478.38,-1087.24 1478.38,-1081.24 1484.38,-1075.24 1490.38,-1075.24 1490.38,-1075.24 2020.18,-1075.24 2020.18,-1075.24 2026.18,-1075.24 2032.18,-1081.24 2032.18,-1087.24 2032.18,-1087.24 2032.18,-1108.52 2032.18,-1108.52 2032.18,-1114.52 2026.18,-1120.52 2020.18,-1120.52"/>
<text text-anchor="start" x="1492.78" y="-1099.58" font-family="Roboto, sans-serif" font-weight="bold" font-size="14.00">70: </text>
<text text-anchor="start" x="1522.03" y="-1099.58" font-family="Roboto, sans-serif" font-size="14.00">Liegt eine Zuordnungserm&#228;chtigung f&#252;r den sich aus der gew&#252;nschten</text>
<text text-anchor="start" x="1492.78" y="-1085.58" font-family="Roboto, sans-serif" font-size="14.00">Prognosegrundlage ergebenden ZRT vor?</text>
</g>
<!-- 60&#45;&gt;70 -->
<g id="edge13" class="edge">
<title>60-&gt;70</title>
<path fill="none" stroke="#88a0d6" d="M1751.79,-1213.48C1752.42,-1192.79 1753.5,-1157.3 1754.29,-1131.29"/>
<polygon fill="#88a0d6" stroke="#88a0d6" points="1757.78,-1131.7 1754.58,-1121.6 1750.78,-1131.49 1757.78,-1131.7"/>
<text text-anchor="start" x="1753.28" y="-1164.47" font-family="Roboto, sans-serif" font-weight="bold" font-size="14.00">JA</text>
</g>
<!-- A05 -->
<g id="node13" class="node">
<title>A05</title>
<path fill="#c4cac1" stroke="black" stroke-width="0" d="M1428.18,-1000.99C1428.18,-1000.99 1138.38,-1000.99 1138.38,-1000.99 1132.38,-1000.99 1126.38,-994.99 1126.38,-988.99 1126.38,-988.99 1126.38,-939.71 1126.38,-939.71 1126.38,-933.71 1132.38,-927.71 1138.38,-927.71 1138.38,-927.71 1428.18,-927.71 1428.18,-927.71 1434.18,-927.71 1440.18,-933.71 1440.18,-939.71 1440.18,-939.71 1440.18,-988.99 1440.18,-988.99 1440.18,-994.99 1434.18,-1000.99 1428.18,-1000.99"/>
<text text-anchor="start" x="1140.78" y="-980.05" font-family="Roboto, sans-serif" font-weight="bold" font-size="14.00">A05</text>
<text text-anchor="start" x="1140.78" y="-952.05" font-family="Roboto, sans-serif" font-size="14.00">Cluster: Ablehnung</text>
<text text-anchor="start" x="1140.78" y="-938.05" font-family="Roboto, sans-serif" font-size="14.00">Zuordnungserm&#228;chtigung liegt nicht vor.</text>
</g>
<!-- 70&#45;&gt;A05 -->
<g id="edge14" class="edge">
<title>70-&gt;A05</title>
<path fill="none" stroke="#88a0d6" d="M1677.86,-1075.31C1608.58,-1056 1505.37,-1027.24 1421.88,-1003.98"/>
<polygon fill="#88a0d6" stroke="#88a0d6" points="1423.05,-1000.67 1412.48,-1001.36 1421.18,-1007.41 1423.05,-1000.67"/>
<text text-anchor="start" x="1533.28" y="-1023.94" font-family="Roboto, sans-serif" font-weight="bold" font-size="14.00">NEIN</text>
</g>
<!-- 80 -->
<g id="node14" class="node">
<title>80</title>
<path fill="#c2cee9" stroke="black" stroke-width="0" d="M2019.93,-982.35C2019.93,-982.35 1470.62,-982.35 1470.62,-982.35 1464.62,-982.35 1458.62,-976.35 1458.62,-970.35 1458.62,-970.35 1458.62,-958.35 1458.62,-958.35 1458.62,-952.35 1464.62,-946.35 1470.62,-946.35 1470.62,-946.35 2019.93,-946.35 2019.93,-946.35 2025.93,-946.35 2031.93,-952.35 2031.93,-958.35 2031.93,-958.35 2031.93,-970.35 2031.93,-970.35 2031.93,-976.35 2025.93,-982.35 2019.93,-982.35"/>
<text text-anchor="start" x="1473.03" y="-960.67" font-family="Roboto, sans-serif" font-weight="bold" font-size="14.00">80: </text>
<text text-anchor="start" x="1502.28" y="-960.67" font-family="Roboto, sans-serif" font-size="14.00">Ist die gew&#252;nschte Prognosegrundlage auf Basis von Profilen angegeben?</text>
</g>
<!-- 70&#45;&gt;80 -->
<g id="edge15" class="edge">
<title>70-&gt;80</title>
<path fill="none" stroke="#88a0d6" d="M1753.65,-1075.45C1751.95,-1053.16 1749.29,-1018.14 1747.42,-993.6"/>
<polygon fill="#88a0d6" stroke="#88a0d6" points="1750.92,-993.38 1746.67,-983.68 1743.94,-993.91 1750.92,-993.38"/>
<text text-anchor="start" x="1750.28" y="-1023.94" font-family="Roboto, sans-serif" font-weight="bold" font-size="14.00">JA</text>
</g>
<!-- 90 -->
<g id="node15" class="node">
<title>90</title>
<path fill="#c2cee9" stroke="black" stroke-width="0" d="M1705.3,-860.46C1705.3,-860.46 1119.25,-860.46 1119.25,-860.46 1113.25,-860.46 1107.25,-854.46 1107.25,-848.46 1107.25,-848.46 1107.25,-827.18 1107.25,-827.18 1107.25,-821.18 1113.25,-815.18 1119.25,-815.18 1119.25,-815.18 1705.3,-815.18 1705.3,-815.18 1711.3,-815.18 1717.3,-821.18 1717.3,-827.18 1717.3,-827.18 1717.3,-848.46 1717.3,-848.46 1717.3,-854.46 1711.3,-860.46 1705.3,-860.46"/>
<text text-anchor="start" x="1121.65" y="-839.52" font-family="Roboto, sans-serif" font-weight="bold" font-size="14.00">90: </text>
<text text-anchor="start" x="1150.9" y="-839.52" font-family="Roboto, sans-serif" font-size="14.00">Befindet sich die Marktlokation in einem Lokationsb&#252;ndel, in welchem ebenfalls</text>
<text text-anchor="start" x="1121.65" y="-825.52" font-family="Roboto, sans-serif" font-size="14.00">eine erzeugende Marktlokation vorhanden ist?</text>
</g>
<!-- 80&#45;&gt;90 -->
<g id="edge16" class="edge">
<title>80-&gt;90</title>
<path fill="none" stroke="#88a0d6" d="M1700.02,-946.43C1643.5,-925.29 1546.28,-888.93 1480.67,-864.4"/>
<polygon fill="#88a0d6" stroke="#88a0d6" points="1482.02,-861.17 1471.43,-860.94 1479.57,-867.72 1482.02,-861.17"/>
<text text-anchor="start" x="1598.28" y="-897.41" font-family="Roboto, sans-serif" font-weight="bold" font-size="14.00">JA</text>
</g>
<!-- 110 -->
<g id="node18" class="node">
<title>110</title>
<path fill="#c2cee9" stroke="black" stroke-width="0" d="M2020.18,-602.76C2020.18,-602.76 1394.38,-602.76 1394.38,-602.76 1388.38,-602.76 1382.38,-596.76 1382.38,-590.76 1382.38,-590.76 1382.38,-578.76 1382.38,-578.76 1382.38,-572.76 1388.38,-566.76 1394.38,-566.76 1394.38,-566.76 2020.18,-566.76 2020.18,-566.76 2026.18,-566.76 2032.18,-572.76 2032.18,-578.76 2032.18,-578.76 2032.18,-590.76 2032.18,-590.76 2032.18,-596.76 2026.18,-602.76 2020.18,-602.76"/>
<text text-anchor="start" x="1396.78" y="-581.09" font-family="Roboto, sans-serif" font-weight="bold" font-size="14.00">110: </text>
<text text-anchor="start" x="1435.78" y="-581.09" font-family="Roboto, sans-serif" font-size="14.00">Handelt es sich um eine Marktlokation mit der messtechnischen Einordnung &#8222;iMS&#8220;?</text>
</g>
<!-- 80&#45;&gt;110 -->
<g id="edge17" class="edge">
<title>80-&gt;110</title>
<path fill="none" stroke="#88a0d6" d="M1745.3,-946.36C1745.2,-901.68 1743.71,-777.27 1731.28,-674.65 1729.88,-663.13 1727.28,-660.58 1726.28,-649.02"/>
<text text-anchor="start" x="1740.28" y="-770.88" font-family="Roboto, sans-serif" font-weight="bold" font-size="14.00">NEIN</text>
</g>
<!-- 100 -->
<g id="node16" class="node">
<title>100</title>
<path fill="#c2cee9" stroke="black" stroke-width="0" d="M1630.43,-740.93C1630.43,-740.93 1072.12,-740.93 1072.12,-740.93 1066.12,-740.93 1060.12,-734.93 1060.12,-728.93 1060.12,-728.93 1060.12,-693.65 1060.12,-693.65 1060.12,-687.65 1066.12,-681.65 1072.12,-681.65 1072.12,-681.65 1630.43,-681.65 1630.43,-681.65 1636.43,-681.65 1642.43,-687.65 1642.43,-693.65 1642.43,-693.65 1642.43,-728.93 1642.43,-728.93 1642.43,-734.93 1636.43,-740.93 1630.43,-740.93"/>
<text text-anchor="start" x="1074.53" y="-719.99" font-family="Roboto, sans-serif" font-weight="bold" font-size="14.00">100: </text>
<text text-anchor="start" x="1113.53" y="-719.99" font-family="Roboto, sans-serif" font-size="14.00">Entspricht die erzeugte Energiemenge der Marktlokation der gemessenen</text>
<text text-anchor="start" x="1074.53" y="-705.99" font-family="Roboto, sans-serif" font-size="14.00">Energiemenge in der Flussrichtung Erzeugung an der Messlokation der</text>
<text text-anchor="start" x="1074.53" y="-691.99" font-family="Roboto, sans-serif" font-size="14.00">Netz&#252;bergabe?</text>
</g>
<!-- 90&#45;&gt;100 -->
<g id="edge18" class="edge">
<title>90-&gt;100</title>
<path fill="none" stroke="#88a0d6" d="M1401.79,-815.41C1393.16,-797.8 1380.71,-772.39 1370.33,-751.2"/>
<polygon fill="#88a0d6" stroke="#88a0d6" points="1373.48,-749.67 1365.94,-742.23 1367.2,-752.75 1373.48,-749.67"/>
<text text-anchor="start" x="1385.28" y="-770.88" font-family="Roboto, sans-serif" font-weight="bold" font-size="14.00">JA</text>
</g>
<!-- 90&#45;&gt;110 -->
<g id="edge19" class="edge">
<title>90-&gt;110</title>
<path fill="none" stroke="#88a0d6" d="M1516.52,-815.24C1561.81,-801.8 1613.12,-780.62 1651.28,-747.93 1679.62,-723.65 1667.74,-702.77 1692.28,-674.65 1704.72,-660.39 1726.9,-667.94 1726.28,-649.02"/>
<path fill="none" stroke="#88a0d6" d="M1726.28,-647.02C1725.28,-635.62 1722.02,-623.49 1718.48,-613.07"/>
<polygon fill="#88a0d6" stroke="#88a0d6" points="1721.86,-612.13 1715.13,-603.95 1715.29,-614.54 1721.86,-612.13"/>
<text text-anchor="start" x="1692.28" y="-707.62" font-family="Roboto, sans-serif" font-weight="bold" font-size="14.00">NEIN</text>
</g>
<!-- A06 -->
<g id="node17" class="node">
<title>A06</title>
<path fill="#c4cac1" stroke="black" stroke-width="0" d="M1352.18,-621.4C1352.18,-621.4 798.38,-621.4 798.38,-621.4 792.38,-621.4 786.38,-615.4 786.38,-609.4 786.38,-609.4 786.38,-560.12 786.38,-560.12 786.38,-554.12 792.38,-548.12 798.38,-548.12 798.38,-548.12 1352.18,-548.12 1352.18,-548.12 1358.18,-548.12 1364.18,-554.12 1364.18,-560.12 1364.18,-560.12 1364.18,-609.4 1364.18,-609.4 1364.18,-615.4 1358.18,-621.4 1352.18,-621.4"/>
<text text-anchor="start" x="800.78" y="-600.46" font-family="Roboto, sans-serif" font-weight="bold" font-size="14.00">A06</text>
<text text-anchor="start" x="800.78" y="-572.46" font-family="Roboto, sans-serif" font-size="14.00">Cluster: Ablehnung</text>
<text text-anchor="start" x="800.78" y="-558.46" font-family="Roboto, sans-serif" font-size="14.00">Keine Volleinspeisung, keine Prognosegrundlage auf Basis von Profilen m&#246;glich</text>
</g>
<!-- 100&#45;&gt;A06 -->
<g id="edge20" class="edge">
<title>100-&gt;A06</title>
<path fill="none" stroke="#88a0d6" d="M1287.96,-681.72C1251.35,-665.21 1204.72,-644.17 1164.46,-626"/>
<polygon fill="#88a0d6" stroke="#88a0d6" points="1166.03,-622.87 1155.48,-621.95 1163.15,-629.25 1166.03,-622.87"/>
<text text-anchor="start" x="1229.28" y="-644.35" font-family="Roboto, sans-serif" font-weight="bold" font-size="14.00">NEIN</text>
</g>
<!-- 100&#45;&gt;110 -->
<g id="edge21" class="edge">
<title>100-&gt;110</title>
<path fill="none" stroke="#88a0d6" d="M1432.95,-681.72C1498.65,-658.74 1589.42,-626.99 1648.23,-606.41"/>
<polygon fill="#88a0d6" stroke="#88a0d6" points="1649.12,-609.81 1657.4,-603.21 1646.81,-603.2 1649.12,-609.81"/>
<text text-anchor="start" x="1550.28" y="-644.35" font-family="Roboto, sans-serif" font-weight="bold" font-size="14.00">JA</text>
</g>
<!-- 120 -->
<g id="node19" class="node">
<title>120</title>
<path fill="#c2cee9" stroke="black" stroke-width="0" d="M1694.43,-473.87C1694.43,-473.87 1082.12,-473.87 1082.12,-473.87 1076.12,-473.87 1070.12,-467.87 1070.12,-461.87 1070.12,-461.87 1070.12,-440.59 1070.12,-440.59 1070.12,-434.59 1076.12,-428.59 1082.12,-428.59 1082.12,-428.59 1694.43,-428.59 1694.43,-428.59 1700.43,-428.59 1706.43,-434.59 1706.43,-440.59 1706.43,-440.59 1706.43,-461.87 1706.43,-461.87 1706.43,-467.87 1700.43,-473.87 1694.43,-473.87"/>
<text text-anchor="start" x="1084.53" y="-452.93" font-family="Roboto, sans-serif" font-weight="bold" font-size="14.00">120: </text>
<text text-anchor="start" x="1123.53" y="-452.93" font-family="Roboto, sans-serif" font-size="14.00">Besteht f&#252;r die Marktlokation ein Wahlrecht zur &#196;nderung der Prognosegrundlage</text>
<text text-anchor="start" x="1084.53" y="-438.93" font-family="Roboto, sans-serif" font-size="14.00">durch den LF?</text>
</g>
<!-- 110&#45;&gt;120 -->
<g id="edge22" class="edge">
<title>110-&gt;120</title>
<path fill="none" stroke="#88a0d6" d="M1666.22,-566.83C1611.63,-544.32 1514.62,-504.32 1450.87,-478.04"/>
<polygon fill="#88a0d6" stroke="#88a0d6" points="1452.52,-474.93 1441.94,-474.36 1449.85,-481.41 1452.52,-474.93"/>
<text text-anchor="start" x="1576.28" y="-517.82" font-family="Roboto, sans-serif" font-weight="bold" font-size="14.00">JA</text>
</g>
<!-- 130 -->
<g id="node21" class="node">
<title>130</title>
<path fill="#c2cee9" stroke="black" stroke-width="0" d="M2017.3,-335.7C2017.3,-335.7 1383.25,-335.7 1383.25,-335.7 1377.25,-335.7 1371.25,-329.7 1371.25,-323.7 1371.25,-323.7 1371.25,-311.7 1371.25,-311.7 1371.25,-305.7 1377.25,-299.7 1383.25,-299.7 1383.25,-299.7 2017.3,-299.7 2017.3,-299.7 2023.3,-299.7 2029.3,-305.7 2029.3,-311.7 2029.3,-311.7 2029.3,-323.7 2029.3,-323.7 2029.3,-329.7 2023.3,-335.7 2017.3,-335.7"/>
<text text-anchor="start" x="1385.65" y="-314.02" font-family="Roboto, sans-serif" font-weight="bold" font-size="14.00">130: </text>
<text text-anchor="start" x="1424.65" y="-314.02" font-family="Roboto, sans-serif" font-size="14.00">Ist die gew&#252;nschte Prognosegrundlage zum gew&#252;nschten Termin bereits umgesetzt?</text>
</g>
<!-- 110&#45;&gt;130 -->
<g id="edge23" class="edge">
<title>110-&gt;130</title>
<path fill="none" stroke="#88a0d6" d="M1709.45,-567.22C1713.23,-535.97 1720.18,-466.17 1715.28,-407.59 1713.56,-387.06 1709.64,-364.14 1706.24,-346.72"/>
<polygon fill="#88a0d6" stroke="#88a0d6" points="1709.71,-346.23 1704.3,-337.12 1702.85,-347.61 1709.71,-346.23"/>
<text text-anchor="start" x="1716.28" y="-447.55" font-family="Roboto, sans-serif" font-weight="bold" font-size="14.00">NEIN</text>
</g>
<!-- A07 -->
<g id="node20" class="node">
<title>A07</title>
<path fill="#c4cac1" stroke="black" stroke-width="0" d="M1340.93,-354.34C1340.93,-354.34 917.63,-354.34 917.63,-354.34 911.63,-354.34 905.63,-348.34 905.63,-342.34 905.63,-342.34 905.63,-293.06 905.63,-293.06 905.63,-287.06 911.63,-281.06 917.63,-281.06 917.63,-281.06 1340.93,-281.06 1340.93,-281.06 1346.93,-281.06 1352.93,-287.06 1352.93,-293.06 1352.93,-293.06 1352.93,-342.34 1352.93,-342.34 1352.93,-348.34 1346.93,-354.34 1340.93,-354.34"/>
<text text-anchor="start" x="920.03" y="-333.4" font-family="Roboto, sans-serif" font-weight="bold" font-size="14.00">A07</text>
<text text-anchor="start" x="920.03" y="-305.4" font-family="Roboto, sans-serif" font-size="14.00">Cluster: Ablehnung</text>
<text text-anchor="start" x="920.03" y="-291.4" font-family="Roboto, sans-serif" font-size="14.00">Kein Wahlrecht der Prognosegrundlage f&#252;r die Marktlokation</text>
</g>
<!-- 120&#45;&gt;A07 -->
<g id="edge24" class="edge">
<title>120-&gt;A07</title>
<path fill="none" stroke="#88a0d6" d="M1345.8,-428.66C1308.91,-409.92 1254.48,-382.28 1209.42,-359.4"/>
<polygon fill="#88a0d6" stroke="#88a0d6" points="1211.22,-356.39 1200.72,-354.98 1208.06,-362.63 1211.22,-356.39"/>
<text text-anchor="start" x="1266.28" y="-377.29" font-family="Roboto, sans-serif" font-weight="bold" font-size="14.00">NEIN</text>
</g>
<!-- 120&#45;&gt;130 -->
<g id="edge25" class="edge">
<title>120-&gt;130</title>
<path fill="none" stroke="#88a0d6" d="M1439.45,-428.66C1497.55,-404.16 1591.76,-364.45 1649.64,-340.05"/>
<polygon fill="#88a0d6" stroke="#88a0d6" points="1650.75,-343.37 1658.61,-336.27 1648.03,-336.92 1650.75,-343.37"/>
<text text-anchor="start" x="1571.28" y="-377.29" font-family="Roboto, sans-serif" font-weight="bold" font-size="14.00">JA</text>
</g>
<!-- A08 -->
<g id="node22" class="node">
<title>A08</title>
<path fill="#c4cac1" stroke="black" stroke-width="0" d="M1895.43,-227.81C1895.43,-227.81 1505.12,-227.81 1505.12,-227.81 1499.12,-227.81 1493.12,-221.81 1493.12,-215.81 1493.12,-215.81 1493.12,-166.53 1493.12,-166.53 1493.12,-160.53 1499.12,-154.53 1505.12,-154.53 1505.12,-154.53 1895.43,-154.53 1895.43,-154.53 1901.43,-154.53 1907.43,-160.53 1907.43,-166.53 1907.43,-166.53 1907.43,-215.81 1907.43,-215.81 1907.43,-221.81 1901.43,-227.81 1895.43,-227.81"/>
<text text-anchor="start" x="1507.53" y="-206.87" font-family="Roboto, sans-serif" font-weight="bold" font-size="14.00">A08</text>
<text text-anchor="start" x="1507.53" y="-178.87" font-family="Roboto, sans-serif" font-size="14.00">Cluster: Ablehnung</text>
<text text-anchor="start" x="1507.53" y="-164.87" font-family="Roboto, sans-serif" font-size="14.00">&#196;nderung zum gew&#252;nschten Termin bereits umgesetzt.</text>
</g>
<!-- 130&#45;&gt;A08 -->
<g id="edge26" class="edge">
<title>130-&gt;A08</title>
<path fill="none" stroke="#88a0d6" d="M1700.28,-299.91C1700.28,-284.39 1700.28,-260.59 1700.28,-239.3"/>
<polygon fill="#88a0d6" stroke="#88a0d6" points="1703.78,-239.32 1700.28,-229.32 1696.78,-239.32 1703.78,-239.32"/>
<text text-anchor="start" x="1700.28" y="-250.76" font-family="Roboto, sans-serif" font-weight="bold" font-size="14.00">JA</text>
</g>
<!-- 220 -->
<g id="node38" class="node">
<title>220</title>
<path fill="#c2cee9" stroke="black" stroke-width="0" d="M1268.18,-209.17C1268.18,-209.17 864.38,-209.17 864.38,-209.17 858.38,-209.17 852.38,-203.17 852.38,-197.17 852.38,-197.17 852.38,-185.17 852.38,-185.17 852.38,-179.17 858.38,-173.17 864.38,-173.17 864.38,-173.17 1268.18,-173.17 1268.18,-173.17 1274.18,-173.17 1280.18,-179.17 1280.18,-185.17 1280.18,-185.17 1280.18,-197.17 1280.18,-197.17 1280.18,-203.17 1274.18,-209.17 1268.18,-209.17"/>
<text text-anchor="start" x="866.78" y="-187.5" font-family="Roboto, sans-serif" font-weight="bold" font-size="14.00">220: </text>
<text text-anchor="start" x="905.78" y="-187.5" font-family="Roboto, sans-serif" font-size="14.00">Ist ein zuvor nicht spezifizierter Fehler aufgetreten?</text>
</g>
<!-- 130&#45;&gt;220 -->
<g id="edge27" class="edge">
<title>130-&gt;220</title>
<path fill="none" stroke="#88a0d6" d="M1613.78,-299.71C1496.31,-276.64 1286.9,-235.51 1163.92,-211.35"/>
<polygon fill="#88a0d6" stroke="#88a0d6" points="1164.63,-207.92 1154.14,-209.43 1163.28,-214.79 1164.63,-207.92"/>
<text text-anchor="start" x="1420.28" y="-250.76" font-family="Roboto, sans-serif" font-weight="bold" font-size="14.00">NEIN</text>
</g>
<!-- A10 -->
<g id="node24" class="node">
<title>A10</title>
<path fill="#c4cac1" stroke="black" stroke-width="0" d="M480.05,-1268.05C480.05,-1268.05 12.5,-1268.05 12.5,-1268.05 6.5,-1268.05 0.5,-1262.05 0.5,-1256.05 0.5,-1256.05 0.5,-1206.77 0.5,-1206.77 0.5,-1200.77 6.5,-1194.77 12.5,-1194.77 12.5,-1194.77 480.05,-1194.77 480.05,-1194.77 486.05,-1194.77 492.05,-1200.77 492.05,-1206.77 492.05,-1206.77 492.05,-1256.05 492.05,-1256.05 492.05,-1262.05 486.05,-1268.05 480.05,-1268.05"/>
<text text-anchor="start" x="14.9" y="-1247.11" font-family="Roboto, sans-serif" font-weight="bold" font-size="14.00">A10</text>
<text text-anchor="start" x="14.9" y="-1219.11" font-family="Roboto, sans-serif" font-size="14.00">Cluster: Ablehnung</text>
<text text-anchor="start" x="14.9" y="-1205.11" font-family="Roboto, sans-serif" font-size="14.00">Bestellungen sind nur f&#252;r verbrauchende Marktlokationen m&#246;glich</text>
</g>
<!-- 140&#45;&gt;A10 -->
<g id="edge28" class="edge">
<title>140-&gt;A10</title>
<path fill="none" stroke="#88a0d6" d="M463.87,-1353.95C428.17,-1334.01 367.73,-1300.25 319.6,-1273.37"/>
<polygon fill="#88a0d6" stroke="#88a0d6" points="321.6,-1270.48 311.16,-1268.65 318.18,-1276.59 321.6,-1270.48"/>
<text text-anchor="start" x="370.27" y="-1291" font-family="Roboto, sans-serif" font-weight="bold" font-size="14.00">NEIN</text>
</g>
<!-- 150 -->
<g id="node25" class="node">
<title>150</title>
<path fill="#c2cee9" stroke="black" stroke-width="0" d="M1088.92,-1249.41C1088.92,-1249.41 521.62,-1249.41 521.62,-1249.41 515.62,-1249.41 509.62,-1243.41 509.62,-1237.41 509.62,-1237.41 509.62,-1225.41 509.62,-1225.41 509.62,-1219.41 515.62,-1213.41 521.62,-1213.41 521.62,-1213.41 1088.92,-1213.41 1088.92,-1213.41 1094.92,-1213.41 1100.92,-1219.41 1100.92,-1225.41 1100.92,-1225.41 1100.92,-1237.41 1100.92,-1237.41 1100.92,-1243.41 1094.92,-1249.41 1088.92,-1249.41"/>
<text text-anchor="start" x="524.02" y="-1227.74" font-family="Roboto, sans-serif" font-weight="bold" font-size="14.00">150: </text>
<text text-anchor="start" x="563.02" y="-1227.74" font-family="Roboto, sans-serif" font-size="14.00">Handelt es sich bei der Bestellung um eine R&#252;ckkehr auf eine Eintariflogik?</text>
</g>
<!-- 140&#45;&gt;150 -->
<g id="edge29" class="edge">
<title>140-&gt;150</title>
<path fill="none" stroke="#88a0d6" d="M532.41,-1353.95C588.99,-1328.75 695.13,-1281.47 757.03,-1253.9"/>
<polygon fill="#88a0d6" stroke="#88a0d6" points="758.22,-1257.2 765.93,-1249.93 755.37,-1250.81 758.22,-1257.2"/>
<text text-anchor="start" x="677.27" y="-1291" font-family="Roboto, sans-serif" font-weight="bold" font-size="14.00">JA</text>
</g>
<!-- 160 -->
<g id="node26" class="node">
<title>160</title>
<path fill="#c2cee9" stroke="black" stroke-width="0" d="M765.05,-1120.52C765.05,-1120.52 153.5,-1120.52 153.5,-1120.52 147.5,-1120.52 141.5,-1114.52 141.5,-1108.52 141.5,-1108.52 141.5,-1087.24 141.5,-1087.24 141.5,-1081.24 147.5,-1075.24 153.5,-1075.24 153.5,-1075.24 765.05,-1075.24 765.05,-1075.24 771.05,-1075.24 777.05,-1081.24 777.05,-1087.24 777.05,-1087.24 777.05,-1108.52 777.05,-1108.52 777.05,-1114.52 771.05,-1120.52 765.05,-1120.52"/>
<text text-anchor="start" x="155.9" y="-1099.58" font-family="Roboto, sans-serif" font-weight="bold" font-size="14.00">160: </text>
<text text-anchor="start" x="194.9" y="-1099.58" font-family="Roboto, sans-serif" font-size="14.00">Ist die gew&#252;nschte Z&#228;hlzeit zum Anwendungszeitpunkt Bestandteil der &#220;bersicht</text>
<text text-anchor="start" x="155.9" y="-1085.58" font-family="Roboto, sans-serif" font-size="14.00">der Z&#228;hlzeitdefinition, welche zuvor vom NB &#252;bermittelt wurde?</text>
</g>
<!-- 150&#45;&gt;160 -->
<g id="edge31" class="edge">
<title>150-&gt;160</title>
<path fill="none" stroke="#88a0d6" d="M760.75,-1213.48C701.29,-1190.88 595.44,-1150.64 526.31,-1124.36"/>
<polygon fill="#88a0d6" stroke="#88a0d6" points="527.97,-1121.25 517.38,-1120.97 525.49,-1127.79 527.97,-1121.25"/>
<text text-anchor="start" x="662.27" y="-1164.47" font-family="Roboto, sans-serif" font-weight="bold" font-size="14.00">NEIN</text>
</g>
<!-- 150&#45;&gt;190 -->
<g id="edge30" class="edge">
<title>150-&gt;190</title>
<path fill="none" stroke="#88a0d6" d="M802.21,-1213.55C796.98,-1179.24 790.4,-1100.6 829.27,-1054.24 879.06,-994.87 935.24,-1049.97 995.27,-1000.99 1024.24,-977.37 1012.84,-956.62 1036.53,-927.71 1047.58,-914.21 1063.37,-919.29 1066.28,-902.08"/>
<path fill="none" stroke="#88a0d6" d="M1066.28,-900.08C1071.47,-855.63 1075.87,-835.62 1047.28,-801.18 1018.6,-766.64 974.68,-745.45 933.15,-732.49"/>
<polygon fill="#88a0d6" stroke="#88a0d6" points="934.41,-729.21 923.83,-729.72 932.42,-735.92 934.41,-729.21"/>
<text text-anchor="start" x="1036.28" y="-960.67" font-family="Roboto, sans-serif" font-weight="bold" font-size="14.00">JA</text>
</g>
<!-- A11 -->
<g id="node27" class="node">
<title>A11</title>
<path fill="#c4cac1" stroke="black" stroke-width="0" d="M432.42,-1000.99C432.42,-1000.99 12.12,-1000.99 12.12,-1000.99 6.12,-1000.99 0.12,-994.99 0.12,-988.99 0.12,-988.99 0.12,-939.71 0.12,-939.71 0.12,-933.71 6.12,-927.71 12.12,-927.71 12.12,-927.71 432.42,-927.71 432.42,-927.71 438.42,-927.71 444.42,-933.71 444.42,-939.71 444.42,-939.71 444.42,-988.99 444.42,-988.99 444.42,-994.99 438.42,-1000.99 432.42,-1000.99"/>
<text text-anchor="start" x="14.52" y="-980.05" font-family="Roboto, sans-serif" font-weight="bold" font-size="14.00">A11</text>
<text text-anchor="start" x="14.52" y="-952.05" font-family="Roboto, sans-serif" font-size="14.00">Cluster: Ablehnung </text>
<text text-anchor="start" x="14.52" y="-938.05" font-family="Roboto, sans-serif" font-size="14.00">Z&#228;hlzeitdefinition zum Anwendungszeitpunkt nicht bekannt</text>
</g>
<!-- 160&#45;&gt;A11 -->
<g id="edge32" class="edge">
<title>160-&gt;A11</title>
<path fill="none" stroke="#88a0d6" d="M420.4,-1075.31C386.8,-1056.66 337.29,-1029.18 296.17,-1006.36"/>
<polygon fill="#88a0d6" stroke="#88a0d6" points="297.95,-1003.35 287.51,-1001.55 294.56,-1009.47 297.95,-1003.35"/>
<text text-anchor="start" x="347.27" y="-1023.94" font-family="Roboto, sans-serif" font-weight="bold" font-size="14.00">NEIN</text>
</g>
<!-- 170 -->
<g id="node28" class="node">
<title>170</title>
<path fill="#c2cee9" stroke="black" stroke-width="0" d="M974.17,-986.99C974.17,-986.99 474.38,-986.99 474.38,-986.99 468.38,-986.99 462.38,-980.99 462.38,-974.99 462.38,-974.99 462.38,-953.71 462.38,-953.71 462.38,-947.71 468.38,-941.71 474.38,-941.71 474.38,-941.71 974.17,-941.71 974.17,-941.71 980.17,-941.71 986.17,-947.71 986.17,-953.71 986.17,-953.71 986.17,-974.99 986.17,-974.99 986.17,-980.99 980.17,-986.99 974.17,-986.99"/>
<text text-anchor="start" x="476.77" y="-966.05" font-family="Roboto, sans-serif" font-weight="bold" font-size="14.00">170: </text>
<text text-anchor="start" x="515.77" y="-966.05" font-family="Roboto, sans-serif" font-size="14.00">Ist die in der Bestellung genannte Z&#228;hlzeit in der &#220;bersicht der</text>
<text text-anchor="start" x="476.77" y="-952.05" font-family="Roboto, sans-serif" font-size="14.00">Z&#228;hlzeitdefinition des NB als eine bestellbare Z&#228;hlzeit gekennzeichnet?</text>
</g>
<!-- 160&#45;&gt;170 -->
<g id="edge33" class="edge">
<title>160-&gt;170</title>
<path fill="none" stroke="#88a0d6" d="M502.74,-1075.31C548.66,-1052.51 621.14,-1016.54 670.6,-991.99"/>
<polygon fill="#88a0d6" stroke="#88a0d6" points="672.03,-995.19 679.43,-987.61 668.92,-988.92 672.03,-995.19"/>
<text text-anchor="start" x="615.27" y="-1023.94" font-family="Roboto, sans-serif" font-weight="bold" font-size="14.00">JA</text>
</g>
<!-- A12 -->
<g id="node29" class="node">
<title>A12</title>
<path fill="#c4cac1" stroke="black" stroke-width="0" d="M358.17,-874.46C358.17,-874.46 164.37,-874.46 164.37,-874.46 158.37,-874.46 152.37,-868.46 152.37,-862.46 152.37,-862.46 152.37,-813.18 152.37,-813.18 152.37,-807.18 158.37,-801.18 164.37,-801.18 164.37,-801.18 358.17,-801.18 358.17,-801.18 364.17,-801.18 370.17,-807.18 370.17,-813.18 370.17,-813.18 370.17,-862.46 370.17,-862.46 370.17,-868.46 364.17,-874.46 358.17,-874.46"/>
<text text-anchor="start" x="166.77" y="-853.52" font-family="Roboto, sans-serif" font-weight="bold" font-size="14.00">A12</text>
<text text-anchor="start" x="166.77" y="-825.52" font-family="Roboto, sans-serif" font-size="14.00">Cluster: Ablehnung </text>
<text text-anchor="start" x="166.77" y="-811.52" font-family="Roboto, sans-serif" font-size="14.00">Z&#228;hlzeit ist nicht bestallbar</text>
</g>
<!-- 170&#45;&gt;A12 -->
<g id="edge34" class="edge">
<title>170-&gt;A12</title>
<path fill="none" stroke="#88a0d6" d="M636.45,-941.78C569.23,-925.03 473.98,-900.76 380.93,-874.89"/>
<polygon fill="#88a0d6" stroke="#88a0d6" points="381.92,-871.53 371.35,-872.22 380.04,-878.27 381.92,-871.53"/>
<text text-anchor="start" x="501.27" y="-897.41" font-family="Roboto, sans-serif" font-weight="bold" font-size="14.00">NEIN</text>
</g>
<!-- 180 -->
<g id="node30" class="node">
<title>180</title>
<path fill="#c2cee9" stroke="black" stroke-width="0" d="M1026.17,-855.82C1026.17,-855.82 400.38,-855.82 400.38,-855.82 394.38,-855.82 388.38,-849.82 388.38,-843.82 388.38,-843.82 388.38,-831.82 388.38,-831.82 388.38,-825.82 394.38,-819.82 400.38,-819.82 400.38,-819.82 1026.17,-819.82 1026.17,-819.82 1032.17,-819.82 1038.17,-825.82 1038.17,-831.82 1038.17,-831.82 1038.17,-843.82 1038.17,-843.82 1038.17,-849.82 1032.17,-855.82 1026.17,-855.82"/>
<text text-anchor="start" x="402.77" y="-834.14" font-family="Roboto, sans-serif" font-weight="bold" font-size="14.00">180: </text>
<text text-anchor="start" x="441.77" y="-834.14" font-family="Roboto, sans-serif" font-size="14.00">Liegt zum Anwendungszeitpunkt die ausgerollte Z&#228;hlzeit zur Z&#228;hlzeitdefinition vor?</text>
</g>
<!-- 170&#45;&gt;180 -->
<g id="edge35" class="edge">
<title>170-&gt;180</title>
<path fill="none" stroke="#88a0d6" d="M722.38,-941.94C720.55,-921.19 717.76,-889.61 715.75,-866.86"/>
<polygon fill="#88a0d6" stroke="#88a0d6" points="719.25,-866.73 714.89,-857.07 712.28,-867.34 719.25,-866.73"/>
<text text-anchor="start" x="719.27" y="-897.41" font-family="Roboto, sans-serif" font-weight="bold" font-size="14.00">JA</text>
</g>
<!-- A13 -->
<g id="node31" class="node">
<title>A13</title>
<path fill="#c4cac1" stroke="black" stroke-width="0" d="M602.55,-747.93C602.55,-747.93 12,-747.93 12,-747.93 6,-747.93 0,-741.93 0,-735.93 0,-735.93 0,-686.65 0,-686.65 0,-680.65 6,-674.65 12,-674.65 12,-674.65 602.55,-674.65 602.55,-674.65 608.55,-674.65 614.55,-680.65 614.55,-686.65 614.55,-686.65 614.55,-735.93 614.55,-735.93 614.55,-741.93 608.55,-747.93 602.55,-747.93"/>
<text text-anchor="start" x="14.4" y="-726.99" font-family="Roboto, sans-serif" font-weight="bold" font-size="14.00">A13</text>
<text text-anchor="start" x="14.4" y="-698.99" font-family="Roboto, sans-serif" font-size="14.00">Cluster: Ablehnung</text>
<text text-anchor="start" x="14.4" y="-684.99" font-family="Roboto, sans-serif" font-size="14.00">Ausgerollte Z&#228;hlzeit zur Z&#228;hlzeitdefinition liegt zum Anwendungszeitpunkt nicht vor</text>
</g>
<!-- 180&#45;&gt;A13 -->
<g id="edge36" class="edge">
<title>180-&gt;A13</title>
<path fill="none" stroke="#88a0d6" d="M658.1,-819.9C600.86,-802.34 509.36,-774.28 434.17,-751.21"/>
<polygon fill="#88a0d6" stroke="#88a0d6" points="435.23,-747.88 424.64,-748.29 433.18,-754.57 435.23,-747.88"/>
<text text-anchor="start" x="534.27" y="-770.88" font-family="Roboto, sans-serif" font-weight="bold" font-size="14.00">NEIN</text>
</g>
<!-- 180&#45;&gt;190 -->
<g id="edge37" class="edge">
<title>180-&gt;190</title>
<path fill="none" stroke="#88a0d6" d="M727.84,-820.03C746.2,-798.86 777.93,-762.27 799.25,-737.68"/>
<polygon fill="#88a0d6" stroke="#88a0d6" points="801.7,-740.21 805.6,-730.36 796.41,-735.62 801.7,-740.21"/>
<text text-anchor="start" x="773.27" y="-770.88" font-family="Roboto, sans-serif" font-weight="bold" font-size="14.00">JA</text>
</g>
<!-- A14 -->
<g id="node33" class="node">
<title>A14</title>
<path fill="#c4cac1" stroke="black" stroke-width="0" d="M276.05,-621.4C276.05,-621.4 12.5,-621.4 12.5,-621.4 6.5,-621.4 0.5,-615.4 0.5,-609.4 0.5,-609.4 0.5,-560.12 0.5,-560.12 0.5,-554.12 6.5,-548.12 12.5,-548.12 12.5,-548.12 276.05,-548.12 276.05,-548.12 282.05,-548.12 288.05,-554.12 288.05,-560.12 288.05,-560.12 288.05,-609.4 288.05,-609.4 288.05,-615.4 282.05,-621.4 276.05,-621.4"/>
<text text-anchor="start" x="14.9" y="-600.46" font-family="Roboto, sans-serif" font-weight="bold" font-size="14.00">A14</text>
<text text-anchor="start" x="14.9" y="-572.46" font-family="Roboto, sans-serif" font-size="14.00">Cluster: Ablehnung</text>
<text text-anchor="start" x="14.9" y="-558.46" font-family="Roboto, sans-serif" font-size="14.00">Bestellter Zustand bereits vorhanden</text>
</g>
<!-- 190&#45;&gt;A14 -->
<g id="edge38" class="edge">
<title>190-&gt;A14</title>
<path fill="none" stroke="#88a0d6" d="M728.66,-693.3C695.44,-687.29 657.7,-680.56 623.27,-674.65 482.11,-650.42 443.18,-649.91 298.98,-621.7"/>
<polygon fill="#88a0d6" stroke="#88a0d6" points="299.93,-618.31 289.44,-619.82 298.58,-625.18 299.93,-618.31"/>
<text text-anchor="start" x="504.27" y="-644.35" font-family="Roboto, sans-serif" font-weight="bold" font-size="14.00">JA</text>
</g>
<!-- 200 -->
<g id="node34" class="node">
<title>200</title>
<path fill="#c2cee9" stroke="black" stroke-width="0" d="M756.42,-602.76C756.42,-602.76 318.12,-602.76 318.12,-602.76 312.12,-602.76 306.12,-596.76 306.12,-590.76 306.12,-590.76 306.12,-578.76 306.12,-578.76 306.12,-572.76 312.12,-566.76 318.12,-566.76 318.12,-566.76 756.42,-566.76 756.42,-566.76 762.42,-566.76 768.42,-572.76 768.42,-578.76 768.42,-578.76 768.42,-590.76 768.42,-590.76 768.42,-596.76 762.42,-602.76 756.42,-602.76"/>
<text text-anchor="start" x="320.52" y="-581.09" font-family="Roboto, sans-serif" font-weight="bold" font-size="14.00">200: </text>
<text text-anchor="start" x="359.52" y="-581.09" font-family="Roboto, sans-serif" font-size="14.00">Ist die gew&#252;nschte Konfiguration grunds&#228;tzlich m&#246;glich?</text>
</g>
<!-- 190&#45;&gt;200 -->
<g id="edge39" class="edge">
<title>190-&gt;200</title>
<path fill="none" stroke="#88a0d6" d="M782.68,-693.37C731.67,-671 641.78,-631.59 586.11,-607.17"/>
<polygon fill="#88a0d6" stroke="#88a0d6" points="587.74,-604.07 577.17,-603.26 584.93,-610.48 587.74,-604.07"/>
<text text-anchor="start" x="696.27" y="-644.35" font-family="Roboto, sans-serif" font-weight="bold" font-size="14.00">NEIN</text>
</g>
<!-- A15 -->
<g id="node35" class="node">
<title>A15</title>
<path fill="#c4cac1" stroke="black" stroke-width="0" d="M419.05,-494.87C419.05,-494.87 17.5,-494.87 17.5,-494.87 11.5,-494.87 5.5,-488.87 5.5,-482.87 5.5,-482.87 5.5,-419.59 5.5,-419.59 5.5,-413.59 11.5,-407.59 17.5,-407.59 17.5,-407.59 419.05,-407.59 419.05,-407.59 425.05,-407.59 431.05,-413.59 431.05,-419.59 431.05,-419.59 431.05,-482.87 431.05,-482.87 431.05,-488.87 425.05,-494.87 419.05,-494.87"/>
<text text-anchor="start" x="19.9" y="-473.93" font-family="Roboto, sans-serif" font-weight="bold" font-size="14.00">A15</text>
<text text-anchor="start" x="19.9" y="-445.93" font-family="Roboto, sans-serif" font-size="14.00">Cluster: Ablehnung</text>
<text text-anchor="start" x="19.9" y="-431.93" font-family="Roboto, sans-serif" font-size="14.00">Konfiguration technisch nicht m&#246;glich</text>
<text text-anchor="start" x="19.9" y="-417.93" font-family="Roboto, sans-serif" font-size="14.00">Hinweis: z.&#160;B. Z&#228;hlzeit bestellt und Eintarifz&#228;hler verbaut</text>
</g>
<!-- 200&#45;&gt;A15 -->
<g id="edge41" class="edge">
<title>200-&gt;A15</title>
<path fill="none" stroke="#88a0d6" d="M496.22,-566.83C454.88,-549.79 389.2,-522.71 332.07,-499.15"/>
<polygon fill="#88a0d6" stroke="#88a0d6" points="333.49,-495.95 322.91,-495.37 330.82,-502.42 333.49,-495.95"/>
<text text-anchor="start" x="406.27" y="-517.82" font-family="Roboto, sans-serif" font-weight="bold" font-size="14.00">NEIN</text>
</g>
<!-- 210 -->
<g id="node36" class="node">
<title>210</title>
<path fill="#c2cee9" stroke="black" stroke-width="0" d="M1039.92,-473.87C1039.92,-473.87 460.62,-473.87 460.62,-473.87 454.62,-473.87 448.62,-467.87 448.62,-461.87 448.62,-461.87 448.62,-440.59 448.62,-440.59 448.62,-434.59 454.62,-428.59 460.62,-428.59 460.62,-428.59 1039.92,-428.59 1039.92,-428.59 1045.92,-428.59 1051.92,-434.59 1051.92,-440.59 1051.92,-440.59 1051.92,-461.87 1051.92,-461.87 1051.92,-467.87 1045.92,-473.87 1039.92,-473.87"/>
<text text-anchor="start" x="463.02" y="-452.93" font-family="Roboto, sans-serif" font-weight="bold" font-size="14.00">210: </text>
<text text-anchor="start" x="502.02" y="-452.93" font-family="Roboto, sans-serif" font-size="14.00">Wurde die Vorlauffristen zu der geplanten &#196;nderung der Ger&#228;tekonfiguration</text>
<text text-anchor="start" x="463.02" y="-438.93" font-family="Roboto, sans-serif" font-size="14.00">eingehalten?</text>
</g>
<!-- 200&#45;&gt;210 -->
<g id="edge40" class="edge">
<title>200-&gt;210</title>
<path fill="none" stroke="#88a0d6" d="M564.68,-566.83C600.44,-544.76 663.44,-505.85 706.01,-479.57"/>
<polygon fill="#88a0d6" stroke="#88a0d6" points="707.6,-482.69 714.27,-474.46 703.92,-476.74 707.6,-482.69"/>
<text text-anchor="start" x="649.27" y="-517.82" font-family="Roboto, sans-serif" font-weight="bold" font-size="14.00">JA</text>
</g>
<!-- A16 -->
<g id="node37" class="node">
<title>A16</title>
<path fill="#c4cac1" stroke="black" stroke-width="0" d="M821.67,-354.34C821.67,-354.34 678.88,-354.34 678.88,-354.34 672.88,-354.34 666.88,-348.34 666.88,-342.34 666.88,-342.34 666.88,-293.06 666.88,-293.06 666.88,-287.06 672.88,-281.06 678.88,-281.06 678.88,-281.06 821.67,-281.06 821.67,-281.06 827.67,-281.06 833.67,-287.06 833.67,-293.06 833.67,-293.06 833.67,-342.34 833.67,-342.34 833.67,-348.34 827.67,-354.34 821.67,-354.34"/>
<text text-anchor="start" x="681.27" y="-333.4" font-family="Roboto, sans-serif" font-weight="bold" font-size="14.00">A16</text>
<text text-anchor="start" x="681.27" y="-305.4" font-family="Roboto, sans-serif" font-size="14.00">Cluster: Ablehnung </text>
<text text-anchor="start" x="681.27" y="-291.4" font-family="Roboto, sans-serif" font-size="14.00">Frist&#252;berschreitung</text>
</g>
<!-- 210&#45;&gt;A16 -->
<g id="edge43" class="edge">
<title>210-&gt;A16</title>
<path fill="none" stroke="#88a0d6" d="M750.27,-428.8C750.27,-411.71 750.27,-387.14 750.27,-365.54"/>
<polygon fill="#88a0d6" stroke="#88a0d6" points="753.78,-365.76 750.28,-355.76 746.78,-365.76 753.78,-365.76"/>
<text text-anchor="start" x="750.27" y="-377.29" font-family="Roboto, sans-serif" font-weight="bold" font-size="14.00">NEIN</text>
</g>
<!-- 210&#45;&gt;220 -->
<g id="edge42" class="edge">
<title>210-&gt;220</title>
<path fill="none" stroke="#88a0d6" d="M774.55,-428.61C794.35,-410.16 822.22,-382.26 842.27,-354.34 863.71,-324.5 854.1,-306.58 880.52,-281.06 913.31,-249.39 959.52,-227.22 997.65,-212.94"/>
<polygon fill="#88a0d6" stroke="#88a0d6" points="998.54,-216.33 1006.75,-209.63 996.15,-209.76 998.54,-216.33"/>
<text text-anchor="start" x="880.27" y="-314.02" font-family="Roboto, sans-serif" font-weight="bold" font-size="14.00">JA</text>
</g>
<!-- A99 -->
<g id="node39" class="node">
<title>A99</title>
<path fill="#c4cac1" stroke="black" stroke-width="0" d="M1079.55,-101.28C1079.55,-101.28 519,-101.28 519,-101.28 513,-101.28 507,-95.28 507,-89.28 507,-89.28 507,-12 507,-12 507,-6 513,0 519,0 519,0 1079.55,0 1079.55,0 1085.55,0 1091.55,-6 1091.55,-12 1091.55,-12 1091.55,-89.28 1091.55,-89.28 1091.55,-95.28 1085.55,-101.28 1079.55,-101.28"/>
<text text-anchor="start" x="521.4" y="-80.34" font-family="Roboto, sans-serif" font-weight="bold" font-size="14.00">A99</text>
<text text-anchor="start" x="521.4" y="-52.34" font-family="Roboto, sans-serif" font-size="14.00">Cluster: Ablehnung</text>
<text text-anchor="start" x="521.4" y="-38.34" font-family="Roboto, sans-serif" font-size="14.00">Sonstiges</text>
<text text-anchor="start" x="521.4" y="-24.34" font-family="Roboto, sans-serif" font-size="14.00">Hinweis: Das identifizierte Problem ist in der Antwort zu beschreiben/benennen.</text>
<text text-anchor="start" x="521.4" y="-10.34" font-family="Roboto, sans-serif" font-size="14.00">Nutzungsm&#246;glichkeit Ende: 01.10.2024 00:00 Uhr</text>
</g>
<!-- 220&#45;&gt;A99 -->
<g id="edge44" class="edge">
<title>220-&gt;A99</title>
<path fill="none" stroke="#88a0d6" d="M1033.54,-173.18C1001.49,-156.56 950.93,-130.33 904.97,-106.48"/>
<polygon fill="#88a0d6" stroke="#88a0d6" points="906.77,-103.47 896.28,-101.97 903.55,-109.68 906.77,-103.47"/>
<text text-anchor="start" x="956.27" y="-124.23" font-family="Roboto, sans-serif" font-weight="bold" font-size="14.00">JA</text>
</g>
<!-- A17 -->
<g id="node40" class="node">
<title>A17</title>
<path fill="#c4cac1" stroke="black" stroke-width="0" d="M1545.3,-87.28C1545.3,-87.28 1121.25,-87.28 1121.25,-87.28 1115.25,-87.28 1109.25,-81.28 1109.25,-75.28 1109.25,-75.28 1109.25,-26 1109.25,-26 1109.25,-20 1115.25,-14 1121.25,-14 1121.25,-14 1545.3,-14 1545.3,-14 1551.3,-14 1557.3,-20 1557.3,-26 1557.3,-26 1557.3,-75.28 1557.3,-75.28 1557.3,-81.28 1551.3,-87.28 1545.3,-87.28"/>
<text text-anchor="start" x="1123.65" y="-66.34" font-family="Roboto, sans-serif" font-weight="bold" font-size="14.00">A17</text>
<text text-anchor="start" x="1123.65" y="-38.34" font-family="Roboto, sans-serif" font-size="14.00">Cluster: Zustimmung</text>
<text text-anchor="start" x="1123.65" y="-24.34" font-family="Roboto, sans-serif" font-size="14.00">Bestellung wird an den MSB der Marktlokation weitergeleitet</text>
</g>
<!-- 220&#45;&gt;A17 -->
<g id="edge45" class="edge">
<title>220-&gt;A17</title>
<path fill="none" stroke="#88a0d6" d="M1099.01,-173.18C1137.53,-153.2 1202.78,-119.34 1254.66,-92.43"/>
<polygon fill="#88a0d6" stroke="#88a0d6" points="1256.23,-95.56 1263.5,-87.84 1253.01,-89.34 1256.23,-95.56"/>
<text text-anchor="start" x="1199.28" y="-124.23" font-family="Roboto, sans-serif" font-weight="bold" font-size="14.00">NEIN</text>
</g>
</g>
</svg>
  </g>
</svg>
  </g>
</svg>
