<?xml version='1.0' encoding='ASCII' standalone='yes'?>
<svg xmlns="http://www.w3.org/2000/svg" xmlns:xlink="http://www.w3.org/1999/xlink" version="1.1" width="1920.0px" viewBox="0 0 1920.0 1789.3333333333333" height="1789.3333333333333px">
  <g>
    <svg version="1.1" width="1920.0px" viewBox="0 0 1920.0 1789.3333333333333" height="1789.3333333333333px">
  <polygon fill="#c2cee9" points="0,0 1920.0,0 1920.0,1789.3333333333333 0,1789.3333333333333"/><g>
    <g transform="translate(230.30875809631084, 178.93333333333328) scale(1 1) translate(0, 0) scale(2.519478081291655 2.519478081291655) "><!-- note that I manually added the width and height attribute to the root node
  https://chatgpt.com/share/678e3028-70cc-800b-a296-782714735772
  -->
  <defs>
    <style>.cls-1{fill:#fff;}</style>
  </defs>
  <path class="cls-1" d="M122.44,531.2h-56.1c-11,0-19.9-9.12-19.46-20.11C57.47,243.89,278.15,29.78,547.91,29.78v56.02c0,10.98-8.69,19.89-19.66,20.39-225.51,10.31-405.8,197-405.8,425Z"/>
  <path class="cls-1" d="M273.78,531.2h-55.93c-11.23,0-20.09-9.48-19.43-20.69,10.74-183.44,163.39-329.39,349.48-329.39v56.26c0,10.71-8.27,19.62-18.96,20.35-142.35,9.77-255.17,128.69-255.17,273.46Z"/>
  <path class="cls-1" d="M425.77,531.2h-55.45c-11.65,0-20.6-10.17-19.33-21.75,10.87-99.03,95.03-176.34,196.92-176.34v57.01c0,10.05-7.28,18.75-17.23,20.16-59.22,8.4-104.91,59.42-104.91,120.92Z"/>
</g>
    <svg width="1440pt" height="1342pt" viewBox="0.00 0.00 1440.00 1341.96">
<g id="graph0" class="graph" transform="scale(0.752198 0.752198) rotate(0) translate(4 1780.05)">
<title>D</title>
<text text-anchor="start" x="701.95" y="-1755.95" font-family="Roboto, sans-serif" font-weight="bold" font-size="18.00">GPKE</text>
<text text-anchor="start" x="701.95" y="-1725.85" font-family="Roboto, sans-serif" font-weight="bold" font-size="16.00">6.36.1: AD Bestellung einer Konfiguration vom LF an NB</text>
<!-- Start -->
<g id="node1" class="node">
<title>Start</title>
<path fill="#7a8da1" stroke="black" stroke-width="0" d="M559.26,-1678.05C559.26,-1678.05 427.72,-1678.05 427.72,-1678.05 421.72,-1678.05 415.72,-1672.05 415.72,-1666.05 415.72,-1666.05 415.72,-1646.77 415.72,-1646.77 415.72,-1640.77 421.72,-1634.77 427.72,-1634.77 427.72,-1634.77 559.26,-1634.77 559.26,-1634.77 565.26,-1634.77 571.26,-1640.77 571.26,-1646.77 571.26,-1646.77 571.26,-1666.05 571.26,-1666.05 571.26,-1672.05 565.26,-1678.05 559.26,-1678.05"/>
<text text-anchor="start" x="465.74" y="-1657.11" font-family="Roboto, sans-serif" font-weight="bold" font-size="14.00">E_0523</text>
<text text-anchor="start" x="430.12" y="-1645.01" font-family="Roboto, sans-serif" font-weight="bold" text-decoration="underline" font-size="12.00">Pr&#252;fende Rolle:</text>
<text text-anchor="start" x="533.62" y="-1645.01" font-family="Roboto, sans-serif" font-weight="bold" font-size="12.00"> NB</text>
</g>
<!-- 10 -->
<g id="node2" class="node">
<title>10</title>
<path fill="#7aab8a" stroke="black" stroke-width="0" d="M704.01,-1597.77C704.01,-1597.77 282.97,-1597.77 282.97,-1597.77 276.97,-1597.77 270.97,-1591.77 270.97,-1585.77 270.97,-1585.77 270.97,-1573.77 270.97,-1573.77 270.97,-1567.77 276.97,-1561.77 282.97,-1561.77 282.97,-1561.77 704.01,-1561.77 704.01,-1561.77 710.01,-1561.77 716.01,-1567.77 716.01,-1573.77 716.01,-1573.77 716.01,-1585.77 716.01,-1585.77 716.01,-1591.77 710.01,-1597.77 704.01,-1597.77"/>
<text text-anchor="start" x="285.37" y="-1576.1" font-family="Roboto, sans-serif" font-weight="bold" font-size="14.00">10: </text>
<text text-anchor="start" x="314.62" y="-1576.1" font-family="Roboto, sans-serif" font-size="14.00">Handelt es sich um eine kostenpflichtige Konfiguration?</text>
</g>
<!-- Start&#45;&gt;10 -->
<g id="edge1" class="edge">
<title>Start-&gt;10</title>
<path fill="none" stroke="black" d="M493.49,-1635.01C493.49,-1626.94 493.49,-1617.53 493.49,-1608.84"/>
<polygon fill="black" stroke="black" points="496.99,-1609.13 493.49,-1599.13 489.99,-1609.13 496.99,-1609.13"/>
</g>
<!-- A01 -->
<g id="node3" class="node">
<title>A01</title>
<path fill="#cfb986" stroke="black" stroke-width="0" d="M487.36,-1508.52C487.36,-1508.52 307.62,-1508.52 307.62,-1508.52 301.62,-1508.52 295.62,-1502.52 295.62,-1496.52 295.62,-1496.52 295.62,-1459 295.62,-1459 295.62,-1453 301.62,-1447 307.62,-1447 307.62,-1447 487.36,-1447 487.36,-1447 493.36,-1447 499.36,-1453 499.36,-1459 499.36,-1459 499.36,-1496.52 499.36,-1496.52 499.36,-1502.52 493.36,-1508.52 487.36,-1508.52"/>
<text text-anchor="start" x="307.87" y="-1490.46" font-family="Roboto, sans-serif" font-weight="bold" font-size="14.00">A01</text>
<text text-anchor="start" x="307.87" y="-1478.36" font-family="Roboto, sans-serif" text-decoration="underline" font-size="12.00">Hinweis:</text>
<text text-anchor="start" x="307.87" y="-1466.36" font-family="Roboto, sans-serif" font-size="12.00">Cluster: Ablehnung</text>
<text text-anchor="start" x="307.87" y="-1454.36" font-family="Roboto, sans-serif" font-size="12.00">Kostenpflichtige Konfiguration</text>
</g>
<!-- 10&#45;&gt;A01 -->
<g id="edge2" class="edge">
<title>10-&gt;A01</title>
<path fill="none" stroke="#7aab8a" d="M477.2,-1561.8C465.27,-1549.37 448.6,-1532 433.59,-1516.37"/>
<polygon fill="#7aab8a" stroke="#7aab8a" points="436.42,-1514.26 426.97,-1509.47 431.37,-1519.11 436.42,-1514.26"/>
<text text-anchor="start" x="459.49" y="-1531.47" font-family="Roboto, sans-serif" font-weight="bold" font-size="14.00">JA</text>
</g>
<!-- 20 -->
<g id="node4" class="node">
<title>20</title>
<path fill="#7aab8a" stroke="black" stroke-width="0" d="M1067.89,-1500.4C1067.89,-1500.4 529.09,-1500.4 529.09,-1500.4 523.09,-1500.4 517.09,-1494.4 517.09,-1488.4 517.09,-1488.4 517.09,-1467.12 517.09,-1467.12 517.09,-1461.12 523.09,-1455.12 529.09,-1455.12 529.09,-1455.12 1067.89,-1455.12 1067.89,-1455.12 1073.89,-1455.12 1079.89,-1461.12 1079.89,-1467.12 1079.89,-1467.12 1079.89,-1488.4 1079.89,-1488.4 1079.89,-1494.4 1073.89,-1500.4 1067.89,-1500.4"/>
<text text-anchor="start" x="531.49" y="-1479.46" font-family="Roboto, sans-serif" font-weight="bold" font-size="14.00">20: </text>
<text text-anchor="start" x="560.74" y="-1479.46" font-family="Roboto, sans-serif" font-size="14.00">Handelt sich um eine Bestellung einer Konfiguration einer &#196;nderung des</text>
<text text-anchor="start" x="531.49" y="-1465.46" font-family="Roboto, sans-serif" font-size="14.00">Bilanzierungsverfahrens (Prognosegrundlage)?</text>
</g>
<!-- 10&#45;&gt;20 -->
<g id="edge3" class="edge">
<title>10-&gt;20</title>
<path fill="none" stroke="#7aab8a" d="M545.23,-1561.8C593.67,-1545.92 666.65,-1521.99 721.85,-1503.89"/>
<polygon fill="#7aab8a" stroke="#7aab8a" points="722.79,-1507.27 731.2,-1500.82 720.61,-1500.61 722.79,-1507.27"/>
<text text-anchor="start" x="645.49" y="-1531.47" font-family="Roboto, sans-serif" font-weight="bold" font-size="14.00">NEIN</text>
</g>
<!-- 30 -->
<g id="node5" class="node">
<title>30</title>
<path fill="#7aab8a" stroke="black" stroke-width="0" d="M800.26,-1382.11C800.26,-1382.11 218.72,-1382.11 218.72,-1382.11 212.72,-1382.11 206.72,-1376.11 206.72,-1370.11 206.72,-1370.11 206.72,-1358.11 206.72,-1358.11 206.72,-1352.11 212.72,-1346.11 218.72,-1346.11 218.72,-1346.11 800.26,-1346.11 800.26,-1346.11 806.26,-1346.11 812.26,-1352.11 812.26,-1358.11 812.26,-1358.11 812.26,-1370.11 812.26,-1370.11 812.26,-1376.11 806.26,-1382.11 800.26,-1382.11"/>
<text text-anchor="start" x="221.12" y="-1360.44" font-family="Roboto, sans-serif" font-weight="bold" font-size="14.00">30: </text>
<text text-anchor="start" x="250.37" y="-1360.44" font-family="Roboto, sans-serif" font-size="14.00">Handelt es sich um eine Bestellung einer Konfiguration einer Z&#228;hlzeitdefinition</text>
</g>
<!-- 20&#45;&gt;30 -->
<g id="edge5" class="edge">
<title>20-&gt;30</title>
<path fill="none" stroke="#7aab8a" d="M742.77,-1455.23C691.16,-1435.3 614.89,-1405.83 563.76,-1386.08"/>
<polygon fill="#7aab8a" stroke="#7aab8a" points="565.25,-1382.9 554.66,-1382.56 562.72,-1389.43 565.25,-1382.9"/>
<text text-anchor="start" x="670.49" y="-1416.7" font-family="Roboto, sans-serif" font-weight="bold" font-size="14.00">NEIN</text>
</g>
<!-- 40 -->
<g id="node6" class="node">
<title>40</title>
<path fill="#7aab8a" stroke="black" stroke-width="0" d="M1450.76,-1393.75C1450.76,-1393.75 842.22,-1393.75 842.22,-1393.75 836.22,-1393.75 830.22,-1387.75 830.22,-1381.75 830.22,-1381.75 830.22,-1346.47 830.22,-1346.47 830.22,-1340.47 836.22,-1334.47 842.22,-1334.47 842.22,-1334.47 1450.76,-1334.47 1450.76,-1334.47 1456.76,-1334.47 1462.76,-1340.47 1462.76,-1346.47 1462.76,-1346.47 1462.76,-1381.75 1462.76,-1381.75 1462.76,-1387.75 1456.76,-1393.75 1450.76,-1393.75"/>
<text text-anchor="start" x="844.62" y="-1372.81" font-family="Roboto, sans-serif" font-weight="bold" font-size="14.00">40: </text>
<text text-anchor="start" x="873.87" y="-1372.81" font-family="Roboto, sans-serif" font-size="14.00">Handelt es sich um eine Marktlokation mit der messtechnischen Einordnung &#8222;iMS&#8220;</text>
<text text-anchor="start" x="844.62" y="-1358.81" font-family="Roboto, sans-serif" font-size="14.00">oder um eine Marktlokation, bei der alle Messlokationen mit einem Z&#228;hler des</text>
<text text-anchor="start" x="844.62" y="-1344.81" font-family="Roboto, sans-serif" font-size="14.00">Typs Lastgangz&#228;hler ausgestattet sind?</text>
</g>
<!-- 20&#45;&gt;40 -->
<g id="edge4" class="edge">
<title>20-&gt;40</title>
<path fill="none" stroke="#7aab8a" d="M865.59,-1455.23C917,-1438.74 988.74,-1415.72 1046.85,-1397.08"/>
<polygon fill="#7aab8a" stroke="#7aab8a" points="1047.64,-1400.5 1056.09,-1394.11 1045.5,-1393.83 1047.64,-1400.5"/>
<text text-anchor="start" x="992.49" y="-1416.7" font-family="Roboto, sans-serif" font-weight="bold" font-size="14.00">JA</text>
</g>
<!-- 140 -->
<g id="node23" class="node">
<title>140</title>
<path fill="#7aab8a" stroke="black" stroke-width="0" d="M744.76,-1256.46C744.76,-1256.46 166.22,-1256.46 166.22,-1256.46 160.22,-1256.46 154.22,-1250.46 154.22,-1244.46 154.22,-1244.46 154.22,-1232.46 154.22,-1232.46 154.22,-1226.46 160.22,-1220.46 166.22,-1220.46 166.22,-1220.46 744.76,-1220.46 744.76,-1220.46 750.76,-1220.46 756.76,-1226.46 756.76,-1232.46 756.76,-1232.46 756.76,-1244.46 756.76,-1244.46 756.76,-1250.46 750.76,-1256.46 744.76,-1256.46"/>
<text text-anchor="start" x="168.62" y="-1234.79" font-family="Roboto, sans-serif" font-weight="bold" font-size="14.00">140: </text>
<text text-anchor="start" x="207.62" y="-1234.79" font-family="Roboto, sans-serif" font-size="14.00">Handelt es sich bei der Marktlokation um eine verbrauchende Marktlokation?</text>
</g>
<!-- 30&#45;&gt;140 -->
<g id="edge6" class="edge">
<title>30-&gt;140</title>
<path fill="none" stroke="#7aab8a" d="M502.09,-1346.18C493.13,-1325.64 477.9,-1290.77 467.3,-1266.5"/>
<polygon fill="#7aab8a" stroke="#7aab8a" points="470.61,-1265.34 463.4,-1257.58 464.2,-1268.14 470.61,-1265.34"/>
<text text-anchor="start" x="488.49" y="-1304.17" font-family="Roboto, sans-serif" font-weight="bold" font-size="14.00">JA</text>
</g>
<!-- 190 -->
<g id="node32" class="node">
<title>190</title>
<path fill="#7aab8a" stroke="black" stroke-width="0" d="M903.89,-658.61C903.89,-658.61 551.09,-658.61 551.09,-658.61 545.09,-658.61 539.09,-652.61 539.09,-646.61 539.09,-646.61 539.09,-634.61 539.09,-634.61 539.09,-628.61 545.09,-622.61 551.09,-622.61 551.09,-622.61 903.89,-622.61 903.89,-622.61 909.89,-622.61 915.89,-628.61 915.89,-634.61 915.89,-634.61 915.89,-646.61 915.89,-646.61 915.89,-652.61 909.89,-658.61 903.89,-658.61"/>
<text text-anchor="start" x="553.49" y="-636.94" font-family="Roboto, sans-serif" font-weight="bold" font-size="14.00">190: </text>
<text text-anchor="start" x="592.49" y="-636.94" font-family="Roboto, sans-serif" font-size="14.00">Ist der bestellte Zustand bereits vorhanden?</text>
</g>
<!-- 30&#45;&gt;190 -->
<g id="edge7" class="edge">
<title>30-&gt;190</title>
<path fill="none" stroke="#7aab8a" d="M630.61,-1346.14C677.26,-1334.43 728.23,-1314.64 765.49,-1281.22 796.45,-1253.45 771.33,-1222.07 803.49,-1195.7 886.97,-1127.24 973.04,-1226.74 1040.49,-1142.45 1150.6,-1004.86 899.73,-1139.94 810.49,-1027.68 790.16,-1002.1 791.06,-980.43 810.49,-954.16 816.5,-946.03 977.85,-908.53 984.49,-900.91 1010.25,-871.33 996.19,-852.93 998.49,-813.76"/>
<text text-anchor="start" x="810.49" y="-987.25" font-family="Roboto, sans-serif" font-weight="bold" font-size="14.00">NEIN</text>
</g>
<!-- A02 -->
<g id="node7" class="node">
<title>A02</title>
<path fill="#cfb986" stroke="black" stroke-width="0" d="M1304.73,-1281.22C1304.73,-1281.22 824.25,-1281.22 824.25,-1281.22 818.25,-1281.22 812.25,-1275.22 812.25,-1269.22 812.25,-1269.22 812.25,-1207.7 812.25,-1207.7 812.25,-1201.7 818.25,-1195.7 824.25,-1195.7 824.25,-1195.7 1304.73,-1195.7 1304.73,-1195.7 1310.73,-1195.7 1316.73,-1201.7 1316.73,-1207.7 1316.73,-1207.7 1316.73,-1269.22 1316.73,-1269.22 1316.73,-1275.22 1310.73,-1281.22 1304.73,-1281.22"/>
<text text-anchor="start" x="824.49" y="-1263.16" font-family="Roboto, sans-serif" font-weight="bold" font-size="14.00">A02</text>
<text text-anchor="start" x="824.49" y="-1251.06" font-family="Roboto, sans-serif" text-decoration="underline" font-size="12.00">Hinweis:</text>
<text text-anchor="start" x="824.49" y="-1239.06" font-family="Roboto, sans-serif" font-size="12.00">Cluster: Ablehnung</text>
<text text-anchor="start" x="824.49" y="-1227.06" font-family="Roboto, sans-serif" font-size="12.00">Marktlokation befindet sich nicht in der messtechnischen Einordnung &#8222;iMS&#8220; oder</text>
<text text-anchor="start" x="824.49" y="-1215.06" font-family="Roboto, sans-serif" font-size="12.00">es handelt sich nicht um eine Marktlokation, bei der alle Messlokationen mit</text>
<text text-anchor="start" x="824.49" y="-1203.06" font-family="Roboto, sans-serif" font-size="12.00">einem Z&#228;hler des Typs Lastgangz&#228;hler ausgestattet sind.</text>
</g>
<!-- 40&#45;&gt;A02 -->
<g id="edge8" class="edge">
<title>40-&gt;A02</title>
<path fill="none" stroke="#7aab8a" d="M1117.89,-1334.55C1112.8,-1328.8 1107.76,-1322.62 1103.49,-1316.47 1098.02,-1308.59 1092.85,-1299.85 1088.17,-1291.15"/>
<polygon fill="#7aab8a" stroke="#7aab8a" points="1091.33,-1289.64 1083.61,-1282.37 1085.12,-1292.86 1091.33,-1289.64"/>
<text text-anchor="start" x="1103.49" y="-1304.17" font-family="Roboto, sans-serif" font-weight="bold" font-size="14.00">NEIN</text>
</g>
<!-- 50 -->
<g id="node8" class="node">
<title>50</title>
<path fill="#7aab8a" stroke="black" stroke-width="0" d="M1894.01,-1261.1C1894.01,-1261.1 1346.97,-1261.1 1346.97,-1261.1 1340.97,-1261.1 1334.97,-1255.1 1334.97,-1249.1 1334.97,-1249.1 1334.97,-1227.82 1334.97,-1227.82 1334.97,-1221.82 1340.97,-1215.82 1346.97,-1215.82 1346.97,-1215.82 1894.01,-1215.82 1894.01,-1215.82 1900.01,-1215.82 1906.01,-1221.82 1906.01,-1227.82 1906.01,-1227.82 1906.01,-1249.1 1906.01,-1249.1 1906.01,-1255.1 1900.01,-1261.1 1894.01,-1261.1"/>
<text text-anchor="start" x="1349.37" y="-1240.16" font-family="Roboto, sans-serif" font-weight="bold" font-size="14.00">50: </text>
<text text-anchor="start" x="1378.62" y="-1240.16" font-family="Roboto, sans-serif" font-size="14.00">Entspricht der geplante Termin zur &#196;nderung der Prognosegrundlage den</text>
<text text-anchor="start" x="1349.37" y="-1226.16" font-family="Roboto, sans-serif" font-size="14.00">Prozessfristvorgaben?</text>
</g>
<!-- 40&#45;&gt;50 -->
<g id="edge9" class="edge">
<title>40-&gt;50</title>
<path fill="none" stroke="#7aab8a" d="M1256.13,-1334.51C1338.13,-1313.12 1449.08,-1284.18 1526.93,-1263.87"/>
<polygon fill="#7aab8a" stroke="#7aab8a" points="1527.43,-1267.35 1536.22,-1261.44 1525.66,-1260.58 1527.43,-1267.35"/>
<text text-anchor="start" x="1383.49" y="-1304.17" font-family="Roboto, sans-serif" font-weight="bold" font-size="14.00">JA</text>
</g>
<!-- A03 -->
<g id="node9" class="node">
<title>A03</title>
<path fill="#cfb986" stroke="black" stroke-width="0" d="M1375.11,-1142.45C1375.11,-1142.45 1259.88,-1142.45 1259.88,-1142.45 1253.88,-1142.45 1247.88,-1136.45 1247.88,-1130.45 1247.88,-1130.45 1247.88,-1092.93 1247.88,-1092.93 1247.88,-1086.93 1253.88,-1080.93 1259.88,-1080.93 1259.88,-1080.93 1375.11,-1080.93 1375.11,-1080.93 1381.11,-1080.93 1387.11,-1086.93 1387.11,-1092.93 1387.11,-1092.93 1387.11,-1130.45 1387.11,-1130.45 1387.11,-1136.45 1381.11,-1142.45 1375.11,-1142.45"/>
<text text-anchor="start" x="1260.12" y="-1124.39" font-family="Roboto, sans-serif" font-weight="bold" font-size="14.00">A03</text>
<text text-anchor="start" x="1260.12" y="-1112.29" font-family="Roboto, sans-serif" text-decoration="underline" font-size="12.00">Hinweis:</text>
<text text-anchor="start" x="1260.12" y="-1100.29" font-family="Roboto, sans-serif" font-size="12.00">Cluster: Ablehnung</text>
<text text-anchor="start" x="1260.12" y="-1088.29" font-family="Roboto, sans-serif" font-size="12.00">Frist&#252;berschreitung</text>
</g>
<!-- 50&#45;&gt;A03 -->
<g id="edge10" class="edge">
<title>50-&gt;A03</title>
<path fill="none" stroke="#7aab8a" d="M1568.06,-1215.87C1521.05,-1196.51 1451.4,-1167.83 1397.45,-1145.62"/>
<polygon fill="#7aab8a" stroke="#7aab8a" points="1398.86,-1142.41 1388.28,-1141.84 1396.19,-1148.88 1398.86,-1142.41"/>
<text text-anchor="start" x="1468.49" y="-1165.4" font-family="Roboto, sans-serif" font-weight="bold" font-size="14.00">NEIN</text>
</g>
<!-- 60 -->
<g id="node10" class="node">
<title>60</title>
<path fill="#7aab8a" stroke="black" stroke-width="0" d="M1834.14,-1129.69C1834.14,-1129.69 1416.84,-1129.69 1416.84,-1129.69 1410.84,-1129.69 1404.84,-1123.69 1404.84,-1117.69 1404.84,-1117.69 1404.84,-1105.69 1404.84,-1105.69 1404.84,-1099.69 1410.84,-1093.69 1416.84,-1093.69 1416.84,-1093.69 1834.14,-1093.69 1834.14,-1093.69 1840.14,-1093.69 1846.14,-1099.69 1846.14,-1105.69 1846.14,-1105.69 1846.14,-1117.69 1846.14,-1117.69 1846.14,-1123.69 1840.14,-1129.69 1834.14,-1129.69"/>
<text text-anchor="start" x="1419.24" y="-1108.02" font-family="Roboto, sans-serif" font-weight="bold" font-size="14.00">60: </text>
<text text-anchor="start" x="1448.49" y="-1108.02" font-family="Roboto, sans-serif" font-size="14.00">Handelt es sich um eine verbrauchende Marktlokation?</text>
</g>
<!-- 50&#45;&gt;60 -->
<g id="edge11" class="edge">
<title>50-&gt;60</title>
<path fill="none" stroke="#7aab8a" d="M1621.35,-1216.01C1622.18,-1195.22 1623.45,-1163.57 1624.36,-1140.78"/>
<polygon fill="#7aab8a" stroke="#7aab8a" points="1627.85,-1141.11 1624.76,-1130.98 1620.86,-1140.83 1627.85,-1141.11"/>
<text text-anchor="start" x="1622.49" y="-1165.4" font-family="Roboto, sans-serif" font-weight="bold" font-size="14.00">JA</text>
</g>
<!-- A04 -->
<g id="node11" class="node">
<title>A04</title>
<path fill="#cfb986" stroke="black" stroke-width="0" d="M1322.48,-1027.68C1322.48,-1027.68 870.5,-1027.68 870.5,-1027.68 864.5,-1027.68 858.5,-1021.68 858.5,-1015.68 858.5,-1015.68 858.5,-966.16 858.5,-966.16 858.5,-960.16 864.5,-954.16 870.5,-954.16 870.5,-954.16 1322.48,-954.16 1322.48,-954.16 1328.48,-954.16 1334.48,-960.16 1334.48,-966.16 1334.48,-966.16 1334.48,-1015.68 1334.48,-1015.68 1334.48,-1021.68 1328.48,-1027.68 1322.48,-1027.68"/>
<text text-anchor="start" x="870.74" y="-1009.62" font-family="Roboto, sans-serif" font-weight="bold" font-size="14.00">A04</text>
<text text-anchor="start" x="870.74" y="-997.52" font-family="Roboto, sans-serif" text-decoration="underline" font-size="12.00">Hinweis:</text>
<text text-anchor="start" x="870.74" y="-985.52" font-family="Roboto, sans-serif" font-size="12.00">Cluster: Ablehnung</text>
<text text-anchor="start" x="870.74" y="-973.52" font-family="Roboto, sans-serif" font-size="12.00">Erzeugende Marktlokationen mit iMS oder kME/ RLM werden immer auf der</text>
<text text-anchor="start" x="870.74" y="-961.52" font-family="Roboto, sans-serif" font-size="12.00">Prognosegrundlage auf Basis von Werten bilanziert.</text>
</g>
<!-- 60&#45;&gt;A04 -->
<g id="edge12" class="edge">
<title>60-&gt;A04</title>
<path fill="none" stroke="#7aab8a" d="M1549.98,-1093.74C1476.45,-1077.23 1362.13,-1051.56 1266.67,-1030.13"/>
<polygon fill="#7aab8a" stroke="#7aab8a" points="1267.72,-1026.78 1257.2,-1028 1266.19,-1033.61 1267.72,-1026.78"/>
<text text-anchor="start" x="1407.49" y="-1050.63" font-family="Roboto, sans-serif" font-weight="bold" font-size="14.00">NEIN</text>
</g>
<!-- 70 -->
<g id="node12" class="node">
<title>70</title>
<path fill="#7aab8a" stroke="black" stroke-width="0" d="M1894.39,-1013.56C1894.39,-1013.56 1364.59,-1013.56 1364.59,-1013.56 1358.59,-1013.56 1352.59,-1007.56 1352.59,-1001.56 1352.59,-1001.56 1352.59,-980.28 1352.59,-980.28 1352.59,-974.28 1358.59,-968.28 1364.59,-968.28 1364.59,-968.28 1894.39,-968.28 1894.39,-968.28 1900.39,-968.28 1906.39,-974.28 1906.39,-980.28 1906.39,-980.28 1906.39,-1001.56 1906.39,-1001.56 1906.39,-1007.56 1900.39,-1013.56 1894.39,-1013.56"/>
<text text-anchor="start" x="1366.99" y="-992.62" font-family="Roboto, sans-serif" font-weight="bold" font-size="14.00">70: </text>
<text text-anchor="start" x="1396.24" y="-992.62" font-family="Roboto, sans-serif" font-size="14.00">Liegt eine Zuordnungserm&#228;chtigung f&#252;r den sich aus der gew&#252;nschten</text>
<text text-anchor="start" x="1366.99" y="-978.62" font-family="Roboto, sans-serif" font-size="14.00">Prognosegrundlage ergebenden ZRT vor?</text>
</g>
<!-- 60&#45;&gt;70 -->
<g id="edge13" class="edge">
<title>60-&gt;70</title>
<path fill="none" stroke="#7aab8a" d="M1626.05,-1093.93C1626.66,-1076.04 1627.63,-1047.25 1628.38,-1024.81"/>
<polygon fill="#7aab8a" stroke="#7aab8a" points="1631.88,-1025.05 1628.71,-1014.94 1624.88,-1024.81 1631.88,-1025.05"/>
<text text-anchor="start" x="1627.49" y="-1050.63" font-family="Roboto, sans-serif" font-weight="bold" font-size="14.00">JA</text>
</g>
<!-- A05 -->
<g id="node13" class="node">
<title>A05</title>
<path fill="#cfb986" stroke="black" stroke-width="0" d="M1302.86,-900.91C1302.86,-900.91 1060.12,-900.91 1060.12,-900.91 1054.12,-900.91 1048.12,-894.91 1048.12,-888.91 1048.12,-888.91 1048.12,-851.39 1048.12,-851.39 1048.12,-845.39 1054.12,-839.39 1060.12,-839.39 1060.12,-839.39 1302.86,-839.39 1302.86,-839.39 1308.86,-839.39 1314.86,-845.39 1314.86,-851.39 1314.86,-851.39 1314.86,-888.91 1314.86,-888.91 1314.86,-894.91 1308.86,-900.91 1302.86,-900.91"/>
<text text-anchor="start" x="1060.37" y="-882.85" font-family="Roboto, sans-serif" font-weight="bold" font-size="14.00">A05</text>
<text text-anchor="start" x="1060.37" y="-870.75" font-family="Roboto, sans-serif" text-decoration="underline" font-size="12.00">Hinweis:</text>
<text text-anchor="start" x="1060.37" y="-858.75" font-family="Roboto, sans-serif" font-size="12.00">Cluster: Ablehnung</text>
<text text-anchor="start" x="1060.37" y="-846.75" font-family="Roboto, sans-serif" font-size="12.00">Zuordnungserm&#228;chtigung liegt nicht vor.</text>
</g>
<!-- 70&#45;&gt;A05 -->
<g id="edge14" class="edge">
<title>70-&gt;A05</title>
<path fill="none" stroke="#7aab8a" d="M1548.1,-968.34C1480.04,-950.3 1381.9,-924.28 1304.29,-903.71"/>
<polygon fill="#7aab8a" stroke="#7aab8a" points="1305.5,-900.41 1294.94,-901.23 1303.71,-907.17 1305.5,-900.41"/>
<text text-anchor="start" x="1418.49" y="-923.86" font-family="Roboto, sans-serif" font-weight="bold" font-size="14.00">NEIN</text>
</g>
<!-- 80 -->
<g id="node14" class="node">
<title>80</title>
<path fill="#7aab8a" stroke="black" stroke-width="0" d="M1894.14,-888.15C1894.14,-888.15 1344.84,-888.15 1344.84,-888.15 1338.84,-888.15 1332.84,-882.15 1332.84,-876.15 1332.84,-876.15 1332.84,-864.15 1332.84,-864.15 1332.84,-858.15 1338.84,-852.15 1344.84,-852.15 1344.84,-852.15 1894.14,-852.15 1894.14,-852.15 1900.14,-852.15 1906.14,-858.15 1906.14,-864.15 1906.14,-864.15 1906.14,-876.15 1906.14,-876.15 1906.14,-882.15 1900.14,-888.15 1894.14,-888.15"/>
<text text-anchor="start" x="1347.24" y="-866.48" font-family="Roboto, sans-serif" font-weight="bold" font-size="14.00">80: </text>
<text text-anchor="start" x="1376.49" y="-866.48" font-family="Roboto, sans-serif" font-size="14.00">Ist die gew&#252;nschte Prognosegrundlage auf Basis von Profilen angegeben?</text>
</g>
<!-- 70&#45;&gt;80 -->
<g id="edge15" class="edge">
<title>70-&gt;80</title>
<path fill="none" stroke="#7aab8a" d="M1627.68,-968.41C1626.04,-948.99 1623.63,-920.28 1621.84,-899.09"/>
<polygon fill="#7aab8a" stroke="#7aab8a" points="1625.35,-899.08 1621.03,-889.41 1618.38,-899.66 1625.35,-899.08"/>
<text text-anchor="start" x="1624.49" y="-923.86" font-family="Roboto, sans-serif" font-weight="bold" font-size="14.00">JA</text>
</g>
<!-- 90 -->
<g id="node15" class="node">
<title>90</title>
<path fill="#7aab8a" stroke="black" stroke-width="0" d="M1624.51,-778.02C1624.51,-778.02 1038.47,-778.02 1038.47,-778.02 1032.47,-778.02 1026.47,-772.02 1026.47,-766.02 1026.47,-766.02 1026.47,-744.74 1026.47,-744.74 1026.47,-738.74 1032.47,-732.74 1038.47,-732.74 1038.47,-732.74 1624.51,-732.74 1624.51,-732.74 1630.51,-732.74 1636.51,-738.74 1636.51,-744.74 1636.51,-744.74 1636.51,-766.02 1636.51,-766.02 1636.51,-772.02 1630.51,-778.02 1624.51,-778.02"/>
<text text-anchor="start" x="1040.87" y="-757.08" font-family="Roboto, sans-serif" font-weight="bold" font-size="14.00">90: </text>
<text text-anchor="start" x="1070.12" y="-757.08" font-family="Roboto, sans-serif" font-size="14.00">Befindet sich die Marktlokation in einem Lokationsb&#252;ndel, in welchem ebenfalls</text>
<text text-anchor="start" x="1040.87" y="-743.08" font-family="Roboto, sans-serif" font-size="14.00">eine erzeugende Marktlokation vorhanden ist?</text>
</g>
<!-- 80&#45;&gt;90 -->
<g id="edge16" class="edge">
<title>80-&gt;90</title>
<path fill="none" stroke="#7aab8a" d="M1576.37,-852.27C1529,-833.72 1452.36,-803.71 1397.44,-782.2"/>
<polygon fill="#7aab8a" stroke="#7aab8a" points="1398.75,-778.96 1388.17,-778.57 1396.2,-785.48 1398.75,-778.96"/>
<text text-anchor="start" x="1492.49" y="-809.09" font-family="Roboto, sans-serif" font-weight="bold" font-size="14.00">JA</text>
</g>
<!-- 110 -->
<g id="node18" class="node">
<title>110</title>
<path fill="#7aab8a" stroke="black" stroke-width="0" d="M1894.39,-543.84C1894.39,-543.84 1268.59,-543.84 1268.59,-543.84 1262.59,-543.84 1256.59,-537.84 1256.59,-531.84 1256.59,-531.84 1256.59,-519.84 1256.59,-519.84 1256.59,-513.84 1262.59,-507.84 1268.59,-507.84 1268.59,-507.84 1894.39,-507.84 1894.39,-507.84 1900.39,-507.84 1906.39,-513.84 1906.39,-519.84 1906.39,-519.84 1906.39,-531.84 1906.39,-531.84 1906.39,-537.84 1900.39,-543.84 1894.39,-543.84"/>
<text text-anchor="start" x="1270.99" y="-522.17" font-family="Roboto, sans-serif" font-weight="bold" font-size="14.00">110: </text>
<text text-anchor="start" x="1309.99" y="-522.17" font-family="Roboto, sans-serif" font-size="14.00">Handelt es sich um eine Marktlokation mit der messtechnischen Einordnung &#8222;iMS&#8220;?</text>
</g>
<!-- 80&#45;&gt;110 -->
<g id="edge17" class="edge">
<title>80-&gt;110</title>
<path fill="none" stroke="#7aab8a" d="M1626.19,-852.3C1632.43,-835.75 1641.37,-809.64 1645.49,-786.14 1659.02,-708.93 1675.99,-683.97 1650.49,-609.85 1645.79,-596.19 1636.36,-597.43 1630.49,-584.23"/>
<text text-anchor="start" x="1662.49" y="-694.32" font-family="Roboto, sans-serif" font-weight="bold" font-size="14.00">NEIN</text>
</g>
<!-- 100 -->
<g id="node16" class="node">
<title>100</title>
<path fill="#7aab8a" stroke="black" stroke-width="0" d="M1549.64,-670.25C1549.64,-670.25 991.34,-670.25 991.34,-670.25 985.34,-670.25 979.34,-664.25 979.34,-658.25 979.34,-658.25 979.34,-622.97 979.34,-622.97 979.34,-616.97 985.34,-610.97 991.34,-610.97 991.34,-610.97 1549.64,-610.97 1549.64,-610.97 1555.64,-610.97 1561.64,-616.97 1561.64,-622.97 1561.64,-622.97 1561.64,-658.25 1561.64,-658.25 1561.64,-664.25 1555.64,-670.25 1549.64,-670.25"/>
<text text-anchor="start" x="993.74" y="-649.31" font-family="Roboto, sans-serif" font-weight="bold" font-size="14.00">100: </text>
<text text-anchor="start" x="1032.74" y="-649.31" font-family="Roboto, sans-serif" font-size="14.00">Entspricht die erzeugte Energiemenge der Marktlokation der gemessenen</text>
<text text-anchor="start" x="993.74" y="-635.31" font-family="Roboto, sans-serif" font-size="14.00">Energiemenge in der Flussrichtung Erzeugung an der Messlokation der</text>
<text text-anchor="start" x="993.74" y="-621.31" font-family="Roboto, sans-serif" font-size="14.00">Netz&#252;bergabe?</text>
</g>
<!-- 90&#45;&gt;100 -->
<g id="edge18" class="edge">
<title>90-&gt;100</title>
<path fill="none" stroke="#7aab8a" d="M1319.87,-732.9C1311.78,-717.95 1300.77,-697.58 1291.19,-679.89"/>
<polygon fill="#7aab8a" stroke="#7aab8a" points="1294.31,-678.3 1286.48,-671.17 1288.16,-681.63 1294.31,-678.3"/>
<text text-anchor="start" x="1304.49" y="-694.32" font-family="Roboto, sans-serif" font-weight="bold" font-size="14.00">JA</text>
</g>
<!-- 90&#45;&gt;110 -->
<g id="edge19" class="edge">
<title>90-&gt;110</title>
<path fill="none" stroke="#7aab8a" d="M1439.65,-732.77C1483.45,-720.16 1532.54,-700.74 1570.49,-671.37 1596.48,-651.26 1592.59,-636.73 1611.49,-609.85 1619.65,-598.25 1635.45,-597.51 1630.49,-584.23"/>
<path fill="none" stroke="#7aab8a" d="M1630.49,-582.23C1625.56,-571.14 1617.59,-560.69 1609.5,-551.92"/>
<polygon fill="#7aab8a" stroke="#7aab8a" points="1612.04,-549.51 1602.54,-544.83 1607.05,-554.41 1612.04,-549.51"/>
<text text-anchor="start" x="1611.49" y="-636.94" font-family="Roboto, sans-serif" font-weight="bold" font-size="14.00">NEIN</text>
</g>
<!-- A06 -->
<g id="node17" class="node">
<title>A06</title>
<path fill="#cfb986" stroke="black" stroke-width="0" d="M1226.48,-556.6C1226.48,-556.6 756.5,-556.6 756.5,-556.6 750.5,-556.6 744.5,-550.6 744.5,-544.6 744.5,-544.6 744.5,-507.08 744.5,-507.08 744.5,-501.08 750.5,-495.08 756.5,-495.08 756.5,-495.08 1226.48,-495.08 1226.48,-495.08 1232.48,-495.08 1238.48,-501.08 1238.48,-507.08 1238.48,-507.08 1238.48,-544.6 1238.48,-544.6 1238.48,-550.6 1232.48,-556.6 1226.48,-556.6"/>
<text text-anchor="start" x="756.74" y="-538.54" font-family="Roboto, sans-serif" font-weight="bold" font-size="14.00">A06</text>
<text text-anchor="start" x="756.74" y="-526.44" font-family="Roboto, sans-serif" text-decoration="underline" font-size="12.00">Hinweis:</text>
<text text-anchor="start" x="756.74" y="-514.44" font-family="Roboto, sans-serif" font-size="12.00">Cluster: Ablehnung</text>
<text text-anchor="start" x="756.74" y="-502.44" font-family="Roboto, sans-serif" font-size="12.00">Keine Volleinspeisung, keine Prognosegrundlage auf Basis von Profilen m&#246;glich</text>
</g>
<!-- 100&#45;&gt;A06 -->
<g id="edge20" class="edge">
<title>100-&gt;A06</title>
<path fill="none" stroke="#7aab8a" d="M1199.73,-611.01C1161.94,-595.73 1115.17,-576.83 1075.54,-560.81"/>
<polygon fill="#7aab8a" stroke="#7aab8a" points="1077.09,-557.66 1066.5,-557.16 1074.46,-564.15 1077.09,-557.66"/>
<text text-anchor="start" x="1147.49" y="-579.55" font-family="Roboto, sans-serif" font-weight="bold" font-size="14.00">NEIN</text>
</g>
<!-- 100&#45;&gt;110 -->
<g id="edge21" class="edge">
<title>100-&gt;110</title>
<path fill="none" stroke="#7aab8a" d="M1349.37,-611.01C1403.74,-591.29 1474.78,-565.53 1523.88,-547.73"/>
<polygon fill="#7aab8a" stroke="#7aab8a" points="1524.99,-551.05 1533.2,-544.35 1522.6,-544.47 1524.99,-551.05"/>
<text text-anchor="start" x="1444.49" y="-579.55" font-family="Roboto, sans-serif" font-weight="bold" font-size="14.00">JA</text>
</g>
<!-- 120 -->
<g id="node19" class="node">
<title>120</title>
<path fill="#7aab8a" stroke="black" stroke-width="0" d="M1637.64,-427.71C1637.64,-427.71 1025.34,-427.71 1025.34,-427.71 1019.34,-427.71 1013.34,-421.71 1013.34,-415.71 1013.34,-415.71 1013.34,-394.43 1013.34,-394.43 1013.34,-388.43 1019.34,-382.43 1025.34,-382.43 1025.34,-382.43 1637.64,-382.43 1637.64,-382.43 1643.64,-382.43 1649.64,-388.43 1649.64,-394.43 1649.64,-394.43 1649.64,-415.71 1649.64,-415.71 1649.64,-421.71 1643.64,-427.71 1637.64,-427.71"/>
<text text-anchor="start" x="1027.74" y="-406.77" font-family="Roboto, sans-serif" font-weight="bold" font-size="14.00">120: </text>
<text text-anchor="start" x="1066.74" y="-406.77" font-family="Roboto, sans-serif" font-size="14.00">Besteht f&#252;r die Marktlokation ein Wahlrecht zur &#196;nderung der Prognosegrundlage</text>
<text text-anchor="start" x="1027.74" y="-392.77" font-family="Roboto, sans-serif" font-size="14.00">durch den LF?</text>
</g>
<!-- 110&#45;&gt;120 -->
<g id="edge22" class="edge">
<title>110-&gt;120</title>
<path fill="none" stroke="#7aab8a" d="M1545.94,-507.95C1504.49,-488.26 1435.5,-455.48 1386.98,-432.43"/>
<polygon fill="#7aab8a" stroke="#7aab8a" points="1388.55,-429.31 1378.02,-428.18 1385.55,-435.63 1388.55,-429.31"/>
<text text-anchor="start" x="1478.49" y="-464.78" font-family="Roboto, sans-serif" font-weight="bold" font-size="14.00">JA</text>
</g>
<!-- 130 -->
<g id="node21" class="node">
<title>130</title>
<path fill="#7aab8a" stroke="black" stroke-width="0" d="M1891.51,-302.3C1891.51,-302.3 1257.47,-302.3 1257.47,-302.3 1251.47,-302.3 1245.47,-296.3 1245.47,-290.3 1245.47,-290.3 1245.47,-278.3 1245.47,-278.3 1245.47,-272.3 1251.47,-266.3 1257.47,-266.3 1257.47,-266.3 1891.51,-266.3 1891.51,-266.3 1897.51,-266.3 1903.51,-272.3 1903.51,-278.3 1903.51,-278.3 1903.51,-290.3 1903.51,-290.3 1903.51,-296.3 1897.51,-302.3 1891.51,-302.3"/>
<text text-anchor="start" x="1259.87" y="-280.62" font-family="Roboto, sans-serif" font-weight="bold" font-size="14.00">130: </text>
<text text-anchor="start" x="1298.87" y="-280.62" font-family="Roboto, sans-serif" font-size="14.00">Ist die gew&#252;nschte Prognosegrundlage zum gew&#252;nschten Termin bereits umgesetzt?</text>
</g>
<!-- 110&#45;&gt;130 -->
<g id="edge23" class="edge">
<title>110-&gt;130</title>
<path fill="none" stroke="#7aab8a" d="M1604.62,-508.05C1623.14,-493.06 1647.72,-469.28 1658.49,-441.83 1670.43,-411.41 1671.08,-398.46 1658.49,-368.31 1648.49,-344.36 1627.83,-323.79 1609.51,-309.12"/>
<polygon fill="#7aab8a" stroke="#7aab8a" points="1611.75,-306.43 1601.68,-303.13 1607.49,-311.99 1611.75,-306.43"/>
<text text-anchor="start" x="1667.49" y="-401.39" font-family="Roboto, sans-serif" font-weight="bold" font-size="14.00">NEIN</text>
</g>
<!-- A07 -->
<g id="node20" class="node">
<title>A07</title>
<path fill="#cfb986" stroke="black" stroke-width="0" d="M1215.11,-315.06C1215.11,-315.06 853.88,-315.06 853.88,-315.06 847.88,-315.06 841.88,-309.06 841.88,-303.06 841.88,-303.06 841.88,-265.54 841.88,-265.54 841.88,-259.54 847.88,-253.54 853.88,-253.54 853.88,-253.54 1215.11,-253.54 1215.11,-253.54 1221.11,-253.54 1227.11,-259.54 1227.11,-265.54 1227.11,-265.54 1227.11,-303.06 1227.11,-303.06 1227.11,-309.06 1221.11,-315.06 1215.11,-315.06"/>
<text text-anchor="start" x="854.12" y="-297" font-family="Roboto, sans-serif" font-weight="bold" font-size="14.00">A07</text>
<text text-anchor="start" x="854.12" y="-284.9" font-family="Roboto, sans-serif" text-decoration="underline" font-size="12.00">Hinweis:</text>
<text text-anchor="start" x="854.12" y="-272.9" font-family="Roboto, sans-serif" font-size="12.00">Cluster: Ablehnung</text>
<text text-anchor="start" x="854.12" y="-260.9" font-family="Roboto, sans-serif" font-size="12.00">Kein Wahlrecht der Prognosegrundlage f&#252;r die Marktlokation</text>
</g>
<!-- 120&#45;&gt;A07 -->
<g id="edge24" class="edge">
<title>120-&gt;A07</title>
<path fill="none" stroke="#7aab8a" d="M1277.71,-382.56C1233.62,-364.93 1170.41,-339.66 1119.49,-319.29"/>
<polygon fill="#7aab8a" stroke="#7aab8a" points="1120.81,-316.05 1110.22,-315.59 1118.21,-322.55 1120.81,-316.05"/>
<text text-anchor="start" x="1191.49" y="-338.01" font-family="Roboto, sans-serif" font-weight="bold" font-size="14.00">NEIN</text>
</g>
<!-- 120&#45;&gt;130 -->
<g id="edge25" class="edge">
<title>120-&gt;130</title>
<path fill="none" stroke="#7aab8a" d="M1375.5,-382.56C1419.18,-361.21 1485.8,-328.65 1529.74,-307.17"/>
<polygon fill="#7aab8a" stroke="#7aab8a" points="1531.04,-310.43 1538.49,-302.9 1527.97,-304.14 1531.04,-310.43"/>
<text text-anchor="start" x="1474.49" y="-338.01" font-family="Roboto, sans-serif" font-weight="bold" font-size="14.00">JA</text>
</g>
<!-- A08 -->
<g id="node22" class="node">
<title>A08</title>
<path fill="#cfb986" stroke="black" stroke-width="0" d="M1739.36,-200.29C1739.36,-200.29 1409.62,-200.29 1409.62,-200.29 1403.62,-200.29 1397.62,-194.29 1397.62,-188.29 1397.62,-188.29 1397.62,-150.77 1397.62,-150.77 1397.62,-144.77 1403.62,-138.77 1409.62,-138.77 1409.62,-138.77 1739.36,-138.77 1739.36,-138.77 1745.36,-138.77 1751.36,-144.77 1751.36,-150.77 1751.36,-150.77 1751.36,-188.29 1751.36,-188.29 1751.36,-194.29 1745.36,-200.29 1739.36,-200.29"/>
<text text-anchor="start" x="1409.87" y="-182.23" font-family="Roboto, sans-serif" font-weight="bold" font-size="14.00">A08</text>
<text text-anchor="start" x="1409.87" y="-170.13" font-family="Roboto, sans-serif" text-decoration="underline" font-size="12.00">Hinweis:</text>
<text text-anchor="start" x="1409.87" y="-158.13" font-family="Roboto, sans-serif" font-size="12.00">Cluster: Ablehnung</text>
<text text-anchor="start" x="1409.87" y="-146.13" font-family="Roboto, sans-serif" font-size="12.00">&#196;nderung zum gew&#252;nschten Termin bereits umgesetzt.</text>
</g>
<!-- 130&#45;&gt;A08 -->
<g id="edge26" class="edge">
<title>130-&gt;A08</title>
<path fill="none" stroke="#7aab8a" d="M1574.49,-266.66C1574.49,-252.15 1574.49,-230.49 1574.49,-211.41"/>
<polygon fill="#7aab8a" stroke="#7aab8a" points="1577.99,-211.46 1574.49,-201.46 1570.99,-211.46 1577.99,-211.46"/>
<text text-anchor="start" x="1574.49" y="-223.24" font-family="Roboto, sans-serif" font-weight="bold" font-size="14.00">JA</text>
</g>
<!-- 220 -->
<g id="node38" class="node">
<title>220</title>
<path fill="#7aab8a" stroke="black" stroke-width="0" d="M1187.39,-187.53C1187.39,-187.53 783.59,-187.53 783.59,-187.53 777.59,-187.53 771.59,-181.53 771.59,-175.53 771.59,-175.53 771.59,-163.53 771.59,-163.53 771.59,-157.53 777.59,-151.53 783.59,-151.53 783.59,-151.53 1187.39,-151.53 1187.39,-151.53 1193.39,-151.53 1199.39,-157.53 1199.39,-163.53 1199.39,-163.53 1199.39,-175.53 1199.39,-175.53 1199.39,-181.53 1193.39,-187.53 1187.39,-187.53"/>
<text text-anchor="start" x="785.99" y="-165.85" font-family="Roboto, sans-serif" font-weight="bold" font-size="14.00">220: </text>
<text text-anchor="start" x="824.99" y="-165.85" font-family="Roboto, sans-serif" font-size="14.00">Ist ein zuvor nicht spezifizierter Fehler aufgetreten?</text>
</g>
<!-- 130&#45;&gt;220 -->
<g id="edge27" class="edge">
<title>130-&gt;220</title>
<path fill="none" stroke="#7aab8a" d="M1485.99,-266.36C1378.46,-245.77 1197.5,-211.12 1085.16,-189.61"/>
<polygon fill="#7aab8a" stroke="#7aab8a" points="1086.13,-186.24 1075.66,-187.79 1084.82,-193.11 1086.13,-186.24"/>
<text text-anchor="start" x="1314.49" y="-223.24" font-family="Roboto, sans-serif" font-weight="bold" font-size="14.00">NEIN</text>
</g>
<!-- A10 -->
<g id="node24" class="node">
<title>A10</title>
<path fill="#cfb986" stroke="black" stroke-width="0" d="M410.11,-1142.45C410.11,-1142.45 12.88,-1142.45 12.88,-1142.45 6.88,-1142.45 0.88,-1136.45 0.88,-1130.45 0.88,-1130.45 0.88,-1092.93 0.88,-1092.93 0.88,-1086.93 6.88,-1080.93 12.88,-1080.93 12.88,-1080.93 410.11,-1080.93 410.11,-1080.93 416.11,-1080.93 422.11,-1086.93 422.11,-1092.93 422.11,-1092.93 422.11,-1130.45 422.11,-1130.45 422.11,-1136.45 416.11,-1142.45 410.11,-1142.45"/>
<text text-anchor="start" x="13.12" y="-1124.39" font-family="Roboto, sans-serif" font-weight="bold" font-size="14.00">A10</text>
<text text-anchor="start" x="13.12" y="-1112.29" font-family="Roboto, sans-serif" text-decoration="underline" font-size="12.00">Hinweis:</text>
<text text-anchor="start" x="13.12" y="-1100.29" font-family="Roboto, sans-serif" font-size="12.00">Cluster: Ablehnung</text>
<text text-anchor="start" x="13.12" y="-1088.29" font-family="Roboto, sans-serif" font-size="12.00">Bestellungen sind nur f&#252;r verbrauchende Marktlokationen m&#246;glich</text>
</g>
<!-- 140&#45;&gt;A10 -->
<g id="edge28" class="edge">
<title>140-&gt;A10</title>
<path fill="none" stroke="#7aab8a" d="M422.33,-1220.5C385.79,-1201.82 326.03,-1171.26 279.44,-1147.44"/>
<polygon fill="#7aab8a" stroke="#7aab8a" points="281.26,-1144.44 270.76,-1143 278.07,-1150.67 281.26,-1144.44"/>
<text text-anchor="start" x="333.49" y="-1165.4" font-family="Roboto, sans-serif" font-weight="bold" font-size="14.00">NEIN</text>
</g>
<!-- 150 -->
<g id="node25" class="node">
<title>150</title>
<path fill="#7aab8a" stroke="black" stroke-width="0" d="M1019.14,-1129.69C1019.14,-1129.69 451.84,-1129.69 451.84,-1129.69 445.84,-1129.69 439.84,-1123.69 439.84,-1117.69 439.84,-1117.69 439.84,-1105.69 439.84,-1105.69 439.84,-1099.69 445.84,-1093.69 451.84,-1093.69 451.84,-1093.69 1019.14,-1093.69 1019.14,-1093.69 1025.14,-1093.69 1031.14,-1099.69 1031.14,-1105.69 1031.14,-1105.69 1031.14,-1117.69 1031.14,-1117.69 1031.14,-1123.69 1025.14,-1129.69 1019.14,-1129.69"/>
<text text-anchor="start" x="454.24" y="-1108.02" font-family="Roboto, sans-serif" font-weight="bold" font-size="14.00">150: </text>
<text text-anchor="start" x="493.24" y="-1108.02" font-family="Roboto, sans-serif" font-size="14.00">Handelt es sich bei der Bestellung um eine R&#252;ckkehr auf eine Eintariflogik?</text>
</g>
<!-- 140&#45;&gt;150 -->
<g id="edge29" class="edge">
<title>140-&gt;150</title>
<path fill="none" stroke="#7aab8a" d="M493.54,-1220.5C543.83,-1198.09 632.45,-1158.6 687.35,-1134.14"/>
<polygon fill="#7aab8a" stroke="#7aab8a" points="688.43,-1137.49 696.14,-1130.23 685.58,-1131.1 688.43,-1137.49"/>
<text text-anchor="start" x="620.49" y="-1165.4" font-family="Roboto, sans-serif" font-weight="bold" font-size="14.00">JA</text>
</g>
<!-- 160 -->
<g id="node26" class="node">
<title>160</title>
<path fill="#7aab8a" stroke="black" stroke-width="0" d="M715.26,-1013.56C715.26,-1013.56 103.72,-1013.56 103.72,-1013.56 97.72,-1013.56 91.72,-1007.56 91.72,-1001.56 91.72,-1001.56 91.72,-980.28 91.72,-980.28 91.72,-974.28 97.72,-968.28 103.72,-968.28 103.72,-968.28 715.26,-968.28 715.26,-968.28 721.26,-968.28 727.26,-974.28 727.26,-980.28 727.26,-980.28 727.26,-1001.56 727.26,-1001.56 727.26,-1007.56 721.26,-1013.56 715.26,-1013.56"/>
<text text-anchor="start" x="106.12" y="-992.62" font-family="Roboto, sans-serif" font-weight="bold" font-size="14.00">160: </text>
<text text-anchor="start" x="145.12" y="-992.62" font-family="Roboto, sans-serif" font-size="14.00">Ist die gew&#252;nschte Z&#228;hlzeit zum Anwendungszeitpunkt Bestandteil der &#220;bersicht</text>
<text text-anchor="start" x="106.12" y="-978.62" font-family="Roboto, sans-serif" font-size="14.00">der Z&#228;hlzeitdefinition, welche zuvor vom NB &#252;bermittelt wurde?</text>
</g>
<!-- 150&#45;&gt;160 -->
<g id="edge31" class="edge">
<title>150-&gt;160</title>
<path fill="none" stroke="#7aab8a" d="M689.13,-1093.8C634.37,-1073.85 542.75,-1040.47 479.37,-1017.38"/>
<polygon fill="#7aab8a" stroke="#7aab8a" points="480.69,-1014.13 470.09,-1014 478.29,-1020.71 480.69,-1014.13"/>
<text text-anchor="start" x="601.49" y="-1050.63" font-family="Roboto, sans-serif" font-weight="bold" font-size="14.00">NEIN</text>
</g>
<!-- 150&#45;&gt;190 -->
<g id="edge30" class="edge">
<title>150-&gt;190</title>
<path fill="none" stroke="#7aab8a" d="M735.43,-1094.16C736.21,-1062.75 742.36,-994.03 779.49,-954.16 803.31,-928.58 899.94,-922.42 927.49,-900.91 953.44,-880.65 946.9,-864.03 968.74,-839.39 980.32,-826.33 995.31,-830.92 998.49,-813.76"/>
<path fill="none" stroke="#7aab8a" d="M998.49,-811.76C1003.54,-772.45 1006.03,-754.06 979.49,-724.62 951.38,-693.44 911.34,-673.94 871.43,-661.75"/>
<polygon fill="#7aab8a" stroke="#7aab8a" points="872.5,-658.42 861.92,-659 870.56,-665.14 872.5,-658.42"/>
<text text-anchor="start" x="968.49" y="-866.48" font-family="Roboto, sans-serif" font-weight="bold" font-size="14.00">JA</text>
</g>
<!-- A11 -->
<g id="node27" class="node">
<title>A11</title>
<path fill="#cfb986" stroke="black" stroke-width="0" d="M364.98,-900.91C364.98,-900.91 12,-900.91 12,-900.91 6,-900.91 0,-894.91 0,-888.91 0,-888.91 0,-851.39 0,-851.39 0,-845.39 6,-839.39 12,-839.39 12,-839.39 364.98,-839.39 364.98,-839.39 370.98,-839.39 376.98,-845.39 376.98,-851.39 376.98,-851.39 376.98,-888.91 376.98,-888.91 376.98,-894.91 370.98,-900.91 364.98,-900.91"/>
<text text-anchor="start" x="12.24" y="-882.85" font-family="Roboto, sans-serif" font-weight="bold" font-size="14.00">A11</text>
<text text-anchor="start" x="12.24" y="-870.75" font-family="Roboto, sans-serif" text-decoration="underline" font-size="12.00">Hinweis:</text>
<text text-anchor="start" x="12.24" y="-858.75" font-family="Roboto, sans-serif" font-size="12.00">Cluster: Ablehnung </text>
<text text-anchor="start" x="12.24" y="-846.75" font-family="Roboto, sans-serif" font-size="12.00">Z&#228;hlzeitdefinition zum Anwendungszeitpunkt nicht bekannt</text>
</g>
<!-- 160&#45;&gt;A11 -->
<g id="edge32" class="edge">
<title>160-&gt;A11</title>
<path fill="none" stroke="#7aab8a" d="M369.47,-968.41C337.15,-951.05 291.04,-926.26 253.45,-906.06"/>
<polygon fill="#7aab8a" stroke="#7aab8a" points="255.39,-903.13 244.92,-901.48 252.08,-909.3 255.39,-903.13"/>
<text text-anchor="start" x="305.49" y="-923.86" font-family="Roboto, sans-serif" font-weight="bold" font-size="14.00">NEIN</text>
</g>
<!-- 170 -->
<g id="node28" class="node">
<title>170</title>
<path fill="#7aab8a" stroke="black" stroke-width="0" d="M906.39,-892.79C906.39,-892.79 406.59,-892.79 406.59,-892.79 400.59,-892.79 394.59,-886.79 394.59,-880.79 394.59,-880.79 394.59,-859.51 394.59,-859.51 394.59,-853.51 400.59,-847.51 406.59,-847.51 406.59,-847.51 906.39,-847.51 906.39,-847.51 912.39,-847.51 918.39,-853.51 918.39,-859.51 918.39,-859.51 918.39,-880.79 918.39,-880.79 918.39,-886.79 912.39,-892.79 906.39,-892.79"/>
<text text-anchor="start" x="408.99" y="-871.85" font-family="Roboto, sans-serif" font-weight="bold" font-size="14.00">170: </text>
<text text-anchor="start" x="447.99" y="-871.85" font-family="Roboto, sans-serif" font-size="14.00">Ist die in der Bestellung genannte Z&#228;hlzeit in der &#220;bersicht der</text>
<text text-anchor="start" x="408.99" y="-857.85" font-family="Roboto, sans-serif" font-size="14.00">Z&#228;hlzeitdefinition des NB als eine bestellbare Z&#228;hlzeit gekennzeichnet?</text>
</g>
<!-- 160&#45;&gt;170 -->
<g id="edge33" class="edge">
<title>160-&gt;170</title>
<path fill="none" stroke="#7aab8a" d="M454.22,-968.41C495.53,-948.55 557.03,-918.97 601.36,-897.66"/>
<polygon fill="#7aab8a" stroke="#7aab8a" points="602.82,-900.84 610.31,-893.35 599.78,-894.53 602.82,-900.84"/>
<text text-anchor="start" x="554.49" y="-923.86" font-family="Roboto, sans-serif" font-weight="bold" font-size="14.00">JA</text>
</g>
<!-- A12 -->
<g id="node29" class="node">
<title>A12</title>
<path fill="#cfb986" stroke="black" stroke-width="0" d="M290.98,-786.14C290.98,-786.14 130,-786.14 130,-786.14 124,-786.14 118,-780.14 118,-774.14 118,-774.14 118,-736.62 118,-736.62 118,-730.62 124,-724.62 130,-724.62 130,-724.62 290.98,-724.62 290.98,-724.62 296.98,-724.62 302.98,-730.62 302.98,-736.62 302.98,-736.62 302.98,-774.14 302.98,-774.14 302.98,-780.14 296.98,-786.14 290.98,-786.14"/>
<text text-anchor="start" x="130.24" y="-768.08" font-family="Roboto, sans-serif" font-weight="bold" font-size="14.00">A12</text>
<text text-anchor="start" x="130.24" y="-755.98" font-family="Roboto, sans-serif" text-decoration="underline" font-size="12.00">Hinweis:</text>
<text text-anchor="start" x="130.24" y="-743.98" font-family="Roboto, sans-serif" font-size="12.00">Cluster: Ablehnung </text>
<text text-anchor="start" x="130.24" y="-731.98" font-family="Roboto, sans-serif" font-size="12.00">Z&#228;hlzeit ist nicht bestallbar</text>
</g>
<!-- 170&#45;&gt;A12 -->
<g id="edge34" class="edge">
<title>170-&gt;A12</title>
<path fill="none" stroke="#7aab8a" d="M560.98,-847.53C494.25,-832.11 402.87,-810.36 313.76,-786.71"/>
<polygon fill="#7aab8a" stroke="#7aab8a" points="314.93,-783.4 304.37,-784.2 313.13,-790.16 314.93,-783.4"/>
<text text-anchor="start" x="443.49" y="-809.09" font-family="Roboto, sans-serif" font-weight="bold" font-size="14.00">NEIN</text>
</g>
<!-- 180 -->
<g id="node30" class="node">
<title>180</title>
<path fill="#7aab8a" stroke="black" stroke-width="0" d="M958.39,-773.38C958.39,-773.38 332.59,-773.38 332.59,-773.38 326.59,-773.38 320.59,-767.38 320.59,-761.38 320.59,-761.38 320.59,-749.38 320.59,-749.38 320.59,-743.38 326.59,-737.38 332.59,-737.38 332.59,-737.38 958.39,-737.38 958.39,-737.38 964.39,-737.38 970.39,-743.38 970.39,-749.38 970.39,-749.38 970.39,-761.38 970.39,-761.38 970.39,-767.38 964.39,-773.38 958.39,-773.38"/>
<text text-anchor="start" x="334.99" y="-751.71" font-family="Roboto, sans-serif" font-weight="bold" font-size="14.00">180: </text>
<text text-anchor="start" x="373.99" y="-751.71" font-family="Roboto, sans-serif" font-size="14.00">Liegt zum Anwendungszeitpunkt die ausgerollte Z&#228;hlzeit zur Z&#228;hlzeitdefinition vor?</text>
</g>
<!-- 170&#45;&gt;180 -->
<g id="edge35" class="edge">
<title>170-&gt;180</title>
<path fill="none" stroke="#7aab8a" d="M654.4,-847.67C652.65,-829.79 650.15,-804.17 648.25,-784.62"/>
<polygon fill="#7aab8a" stroke="#7aab8a" points="651.75,-784.48 647.29,-774.87 644.78,-785.16 651.75,-784.48"/>
<text text-anchor="start" x="651.49" y="-809.09" font-family="Roboto, sans-serif" font-weight="bold" font-size="14.00">JA</text>
</g>
<!-- A13 -->
<g id="node31" class="node">
<title>A13</title>
<path fill="#cfb986" stroke="black" stroke-width="0" d="M508.98,-671.37C508.98,-671.37 12,-671.37 12,-671.37 6,-671.37 0,-665.37 0,-659.37 0,-659.37 0,-621.85 0,-621.85 0,-615.85 6,-609.85 12,-609.85 12,-609.85 508.98,-609.85 508.98,-609.85 514.98,-609.85 520.98,-615.85 520.98,-621.85 520.98,-621.85 520.98,-659.37 520.98,-659.37 520.98,-665.37 514.98,-671.37 508.98,-671.37"/>
<text text-anchor="start" x="12.24" y="-653.31" font-family="Roboto, sans-serif" font-weight="bold" font-size="14.00">A13</text>
<text text-anchor="start" x="12.24" y="-641.21" font-family="Roboto, sans-serif" text-decoration="underline" font-size="12.00">Hinweis:</text>
<text text-anchor="start" x="12.24" y="-629.21" font-family="Roboto, sans-serif" font-size="12.00">Cluster: Ablehnung</text>
<text text-anchor="start" x="12.24" y="-617.21" font-family="Roboto, sans-serif" font-size="12.00">Ausgerollte Z&#228;hlzeit zur Z&#228;hlzeitdefinition liegt zum Anwendungszeitpunkt nicht vor</text>
</g>
<!-- 180&#45;&gt;A13 -->
<g id="edge36" class="edge">
<title>180-&gt;A13</title>
<path fill="none" stroke="#7aab8a" d="M587.85,-737.5C531.19,-720.9 443.19,-695.12 372.69,-674.48"/>
<polygon fill="#7aab8a" stroke="#7aab8a" points="374.02,-671.22 363.44,-671.76 372.05,-677.93 374.02,-671.22"/>
<text text-anchor="start" x="475.49" y="-694.32" font-family="Roboto, sans-serif" font-weight="bold" font-size="14.00">NEIN</text>
</g>
<!-- 180&#45;&gt;190 -->
<g id="edge37" class="edge">
<title>180-&gt;190</title>
<path fill="none" stroke="#7aab8a" d="M657.59,-737.74C671.03,-719.25 692.91,-689.16 708.61,-667.57"/>
<polygon fill="#7aab8a" stroke="#7aab8a" points="711.4,-669.69 714.45,-659.54 705.74,-665.57 711.4,-669.69"/>
<text text-anchor="start" x="690.49" y="-694.32" font-family="Roboto, sans-serif" font-weight="bold" font-size="14.00">JA</text>
</g>
<!-- A14 -->
<g id="node33" class="node">
<title>A14</title>
<path fill="#cfb986" stroke="black" stroke-width="0" d="M234.36,-556.6C234.36,-556.6 12.62,-556.6 12.62,-556.6 6.62,-556.6 0.63,-550.6 0.63,-544.6 0.63,-544.6 0.63,-507.08 0.63,-507.08 0.63,-501.08 6.63,-495.08 12.63,-495.08 12.63,-495.08 234.36,-495.08 234.36,-495.08 240.36,-495.08 246.36,-501.08 246.36,-507.08 246.36,-507.08 246.36,-544.6 246.36,-544.6 246.36,-550.6 240.36,-556.6 234.36,-556.6"/>
<text text-anchor="start" x="12.87" y="-538.54" font-family="Roboto, sans-serif" font-weight="bold" font-size="14.00">A14</text>
<text text-anchor="start" x="12.87" y="-526.44" font-family="Roboto, sans-serif" text-decoration="underline" font-size="12.00">Hinweis:</text>
<text text-anchor="start" x="12.87" y="-514.44" font-family="Roboto, sans-serif" font-size="12.00">Cluster: Ablehnung</text>
<text text-anchor="start" x="12.87" y="-502.44" font-family="Roboto, sans-serif" font-size="12.00">Bestellter Zustand bereits vorhanden</text>
</g>
<!-- 190&#45;&gt;A14 -->
<g id="edge38" class="edge">
<title>190-&gt;A14</title>
<path fill="none" stroke="#7aab8a" d="M622.71,-622.65C529.5,-607.23 389.25,-583.19 257.17,-556.9"/>
<polygon fill="#7aab8a" stroke="#7aab8a" points="258.03,-553.51 247.54,-554.98 256.66,-560.37 258.03,-553.51"/>
<text text-anchor="start" x="436.49" y="-579.55" font-family="Roboto, sans-serif" font-weight="bold" font-size="14.00">JA</text>
</g>
<!-- 200 -->
<g id="node34" class="node">
<title>200</title>
<path fill="#7aab8a" stroke="black" stroke-width="0" d="M714.64,-543.84C714.64,-543.84 276.34,-543.84 276.34,-543.84 270.34,-543.84 264.34,-537.84 264.34,-531.84 264.34,-531.84 264.34,-519.84 264.34,-519.84 264.34,-513.84 270.34,-507.84 276.34,-507.84 276.34,-507.84 714.64,-507.84 714.64,-507.84 720.64,-507.84 726.64,-513.84 726.64,-519.84 726.64,-519.84 726.64,-531.84 726.64,-531.84 726.64,-537.84 720.64,-543.84 714.64,-543.84"/>
<text text-anchor="start" x="278.74" y="-522.17" font-family="Roboto, sans-serif" font-weight="bold" font-size="14.00">200: </text>
<text text-anchor="start" x="317.74" y="-522.17" font-family="Roboto, sans-serif" font-size="14.00">Ist die gew&#252;nschte Konfiguration grunds&#228;tzlich m&#246;glich?</text>
</g>
<!-- 190&#45;&gt;200 -->
<g id="edge39" class="edge">
<title>190-&gt;200</title>
<path fill="none" stroke="#7aab8a" d="M692.76,-622.73C652.27,-603.05 585.23,-570.46 540.71,-548.82"/>
<polygon fill="#7aab8a" stroke="#7aab8a" points="542.35,-545.72 531.82,-544.5 539.29,-552.02 542.35,-545.72"/>
<text text-anchor="start" x="624.49" y="-579.55" font-family="Roboto, sans-serif" font-weight="bold" font-size="14.00">NEIN</text>
</g>
<!-- A15 -->
<g id="node35" class="node">
<title>A15</title>
<path fill="#cfb986" stroke="black" stroke-width="0" d="M362.11,-441.83C362.11,-441.83 24.88,-441.83 24.88,-441.83 18.88,-441.83 12.88,-435.83 12.88,-429.83 12.88,-429.83 12.88,-380.31 12.88,-380.31 12.88,-374.31 18.88,-368.31 24.88,-368.31 24.88,-368.31 362.11,-368.31 362.11,-368.31 368.11,-368.31 374.11,-374.31 374.11,-380.31 374.11,-380.31 374.11,-429.83 374.11,-429.83 374.11,-435.83 368.11,-441.83 362.11,-441.83"/>
<text text-anchor="start" x="25.12" y="-423.77" font-family="Roboto, sans-serif" font-weight="bold" font-size="14.00">A15</text>
<text text-anchor="start" x="25.12" y="-411.67" font-family="Roboto, sans-serif" text-decoration="underline" font-size="12.00">Hinweis:</text>
<text text-anchor="start" x="25.12" y="-399.67" font-family="Roboto, sans-serif" font-size="12.00">Cluster: Ablehnung</text>
<text text-anchor="start" x="25.12" y="-387.67" font-family="Roboto, sans-serif" font-size="12.00">Konfiguration technisch nicht m&#246;glich</text>
<text text-anchor="start" x="25.12" y="-375.67" font-family="Roboto, sans-serif" font-size="12.00">Hinweis: z.&#160;B. Z&#228;hlzeit bestellt und Eintarifz&#228;hler verbaut</text>
</g>
<!-- 200&#45;&gt;A15 -->
<g id="edge41" class="edge">
<title>200-&gt;A15</title>
<path fill="none" stroke="#7aab8a" d="M452.54,-507.95C411.63,-491.86 348.49,-467.03 294.78,-445.91"/>
<polygon fill="#7aab8a" stroke="#7aab8a" points="296.18,-442.69 285.59,-442.29 293.61,-449.21 296.18,-442.69"/>
<text text-anchor="start" x="371.49" y="-464.78" font-family="Roboto, sans-serif" font-weight="bold" font-size="14.00">NEIN</text>
</g>
<!-- 210 -->
<g id="node36" class="node">
<title>210</title>
<path fill="#7aab8a" stroke="black" stroke-width="0" d="M983.14,-427.71C983.14,-427.71 403.84,-427.71 403.84,-427.71 397.84,-427.71 391.84,-421.71 391.84,-415.71 391.84,-415.71 391.84,-394.43 391.84,-394.43 391.84,-388.43 397.84,-382.43 403.84,-382.43 403.84,-382.43 983.14,-382.43 983.14,-382.43 989.14,-382.43 995.14,-388.43 995.14,-394.43 995.14,-394.43 995.14,-415.71 995.14,-415.71 995.14,-421.71 989.14,-427.71 983.14,-427.71"/>
<text text-anchor="start" x="406.24" y="-406.77" font-family="Roboto, sans-serif" font-weight="bold" font-size="14.00">210: </text>
<text text-anchor="start" x="445.24" y="-406.77" font-family="Roboto, sans-serif" font-size="14.00">Wurde die Vorlauffristen zu der geplanten &#196;nderung der Ger&#228;tekonfiguration</text>
<text text-anchor="start" x="406.24" y="-392.77" font-family="Roboto, sans-serif" font-size="14.00">eingehalten?</text>
</g>
<!-- 200&#45;&gt;210 -->
<g id="edge40" class="edge">
<title>200-&gt;210</title>
<path fill="none" stroke="#7aab8a" d="M523.44,-508.08C555.87,-488.62 609.8,-456.27 648.23,-433.22"/>
<polygon fill="#7aab8a" stroke="#7aab8a" points="649.57,-436.5 656.34,-428.35 645.97,-430.5 649.57,-436.5"/>
<text text-anchor="start" x="599.49" y="-464.78" font-family="Roboto, sans-serif" font-weight="bold" font-size="14.00">JA</text>
</g>
<!-- A16 -->
<g id="node37" class="node">
<title>A16</title>
<path fill="#cfb986" stroke="black" stroke-width="0" d="M751.86,-315.06C751.86,-315.06 635.12,-315.06 635.12,-315.06 629.12,-315.06 623.12,-309.06 623.12,-303.06 623.12,-303.06 623.12,-265.54 623.12,-265.54 623.12,-259.54 629.12,-253.54 635.12,-253.54 635.12,-253.54 751.86,-253.54 751.86,-253.54 757.86,-253.54 763.86,-259.54 763.86,-265.54 763.86,-265.54 763.86,-303.06 763.86,-303.06 763.86,-309.06 757.86,-315.06 751.86,-315.06"/>
<text text-anchor="start" x="635.37" y="-297" font-family="Roboto, sans-serif" font-weight="bold" font-size="14.00">A16</text>
<text text-anchor="start" x="635.37" y="-284.9" font-family="Roboto, sans-serif" text-decoration="underline" font-size="12.00">Hinweis:</text>
<text text-anchor="start" x="635.37" y="-272.9" font-family="Roboto, sans-serif" font-size="12.00">Cluster: Ablehnung </text>
<text text-anchor="start" x="635.37" y="-260.9" font-family="Roboto, sans-serif" font-size="12.00">Frist&#252;berschreitung</text>
</g>
<!-- 210&#45;&gt;A16 -->
<g id="edge43" class="edge">
<title>210-&gt;A16</title>
<path fill="none" stroke="#7aab8a" d="M693.49,-382.56C693.49,-366.84 693.49,-345.04 693.49,-326.06"/>
<polygon fill="#7aab8a" stroke="#7aab8a" points="696.99,-326.2 693.49,-316.2 689.99,-326.2 696.99,-326.2"/>
<text text-anchor="start" x="693.49" y="-338.01" font-family="Roboto, sans-serif" font-weight="bold" font-size="14.00">NEIN</text>
</g>
<!-- 210&#45;&gt;220 -->
<g id="edge42" class="edge">
<title>210-&gt;220</title>
<path fill="none" stroke="#7aab8a" d="M713.61,-382.66C729.97,-364.96 753.39,-338.94 772.49,-315.06 793.53,-288.76 791.03,-275.29 816.74,-253.54 848.82,-226.4 891.29,-205.57 925.59,-191.57"/>
<polygon fill="#7aab8a" stroke="#7aab8a" points="926.56,-194.95 934.55,-188 923.97,-188.45 926.56,-194.95"/>
<text text-anchor="start" x="816.49" y="-280.62" font-family="Roboto, sans-serif" font-weight="bold" font-size="14.00">JA</text>
</g>
<!-- A99 -->
<g id="node39" class="node">
<title>A99</title>
<path fill="#cfb986" stroke="black" stroke-width="0" d="M992.73,-85.52C992.73,-85.52 518.25,-85.52 518.25,-85.52 512.25,-85.52 506.25,-79.52 506.25,-73.52 506.25,-73.52 506.25,-12 506.25,-12 506.25,-6 512.25,0 518.25,0 518.25,0 992.73,0 992.73,0 998.73,0 1004.73,-6 1004.73,-12 1004.73,-12 1004.73,-73.52 1004.73,-73.52 1004.73,-79.52 998.73,-85.52 992.73,-85.52"/>
<text text-anchor="start" x="518.49" y="-67.46" font-family="Roboto, sans-serif" font-weight="bold" font-size="14.00">A99</text>
<text text-anchor="start" x="518.49" y="-55.36" font-family="Roboto, sans-serif" text-decoration="underline" font-size="12.00">Hinweis:</text>
<text text-anchor="start" x="518.49" y="-43.36" font-family="Roboto, sans-serif" font-size="12.00">Cluster: Ablehnung</text>
<text text-anchor="start" x="518.49" y="-31.36" font-family="Roboto, sans-serif" font-size="12.00">Sonstiges</text>
<text text-anchor="start" x="518.49" y="-19.36" font-family="Roboto, sans-serif" font-size="12.00">Hinweis: Das identifizierte Problem ist in der Antwort zu beschreiben/benennen.</text>
<text text-anchor="start" x="518.49" y="-7.36" font-family="Roboto, sans-serif" font-size="12.00">Nutzungsm&#246;glichkeit Ende: 01.10.2024 00:00 Uhr</text>
</g>
<!-- 220&#45;&gt;A99 -->
<g id="edge44" class="edge">
<title>220-&gt;A99</title>
<path fill="none" stroke="#7aab8a" d="M954.47,-151.7C925.76,-136.13 881.69,-112.22 842.32,-90.86"/>
<polygon fill="#7aab8a" stroke="#7aab8a" points="844.21,-87.91 833.75,-86.22 840.87,-94.06 844.21,-87.91"/>
<text text-anchor="start" x="890.49" y="-108.47" font-family="Roboto, sans-serif" font-weight="bold" font-size="14.00">JA</text>
</g>
<!-- A17 -->
<g id="node40" class="node">
<title>A17</title>
<path fill="#cfb986" stroke="black" stroke-width="0" d="M1396.11,-73.52C1396.11,-73.52 1034.88,-73.52 1034.88,-73.52 1028.88,-73.52 1022.88,-67.52 1022.88,-61.52 1022.88,-61.52 1022.88,-24 1022.88,-24 1022.88,-18 1028.88,-12 1034.88,-12 1034.88,-12 1396.11,-12 1396.11,-12 1402.11,-12 1408.11,-18 1408.11,-24 1408.11,-24 1408.11,-61.52 1408.11,-61.52 1408.11,-67.52 1402.11,-73.52 1396.11,-73.52"/>
<text text-anchor="start" x="1035.12" y="-55.46" font-family="Roboto, sans-serif" font-weight="bold" font-size="14.00">A17</text>
<text text-anchor="start" x="1035.12" y="-43.36" font-family="Roboto, sans-serif" text-decoration="underline" font-size="12.00">Hinweis:</text>
<text text-anchor="start" x="1035.12" y="-31.36" font-family="Roboto, sans-serif" font-size="12.00">Cluster: Zustimmung</text>
<text text-anchor="start" x="1035.12" y="-19.36" font-family="Roboto, sans-serif" font-size="12.00">Bestellung wird an den MSB der Marktlokation weitergeleitet</text>
</g>
<!-- 220&#45;&gt;A17 -->
<g id="edge45" class="edge">
<title>220-&gt;A17</title>
<path fill="none" stroke="#7aab8a" d="M1016.51,-151.7C1050.75,-133.13 1106.83,-102.71 1150.74,-78.88"/>
<polygon fill="#7aab8a" stroke="#7aab8a" points="1152.32,-82.01 1159.44,-74.17 1148.98,-75.86 1152.32,-82.01"/>
<text text-anchor="start" x="1100.49" y="-108.47" font-family="Roboto, sans-serif" font-weight="bold" font-size="14.00">NEIN</text>
</g>
</g>
</svg>
  </g>
</svg>
  </g>
</svg>
