<?xml version='1.0' encoding='ASCII' standalone='yes'?>
<svg xmlns="http://www.w3.org/2000/svg" xmlns:xlink="http://www.w3.org/1999/xlink" version="1.1" width="1681.3333333333333px" viewBox="0 0 1681.3333333333333 938.6666666666666" height="938.6666666666666px">
  <g>
    <svg version="1.1" width="1681.3333333333333px" viewBox="0 0 1681.3333333333333 938.6666666666666" height="938.6666666666666px">
  <polygon fill="#f3f1f6" points="0,0 1681.3333333333333,0 1681.3333333333333,938.6666666666666 0,938.6666666666666"/><g>
    <g transform="translate(465.47850823174497, 93.86666666666665) scale(1 1) translate(0, 0) scale(4.245228743922217 4.245228743922217) "><sodipodi:namedview xmlns:sodipodi="http://sodipodi.sourceforge.net/DTD/sodipodi-0.dtd" xmlns:inkscape="http://www.inkscape.org/namespaces/inkscape" id="namedview7" pagecolor="#ffffff" bordercolor="#999999" borderopacity="1" inkscape:pageshadow="0" inkscape:pageopacity="0" inkscape:pagecheckerboard="0" inkscape:document-units="mm" showgrid="false" fit-margin-top="0" fit-margin-left="0" fit-margin-right="0" fit-margin-bottom="0" inkscape:zoom="0.64052329" inkscape:cx="130.36216" inkscape:cy="412.163" inkscape:window-width="1512" inkscape:window-height="916" inkscape:window-x="3840" inkscape:window-y="136" inkscape:window-maximized="0" inkscape:current-layer="layer1"/>
  <defs id="defs2">
    <clipPath clipPathUnits="userSpaceOnUse" id="clipPath23">
      <path d="M 0,568.156 H 579.236 V 0 H 0 Z" id="path21"/>
    </clipPath>
  </defs>
  <g xmlns:inkscape="http://www.inkscape.org/namespaces/inkscape" inkscape:label="Layer 1" inkscape:groupmode="layer" id="layer1" transform="translate(-16.541937,-55.305267)">
    <g id="g19" clip-path="url(#clipPath23)" transform="matrix(0.35277777,0,0,-0.35277777,0.01017023,243.73675)" style="opacity:0.2">
      <g id="g25" transform="translate(122.444,32.7195)">
        <path d="m 0,0 h -56.104 c -11,0 -19.898,9.123 -19.463,20.115 10.594,267.191 231.277,481.302 501.029,481.302 v -56.02 c 0,-10.98 -8.688,-19.892 -19.658,-20.393 C 180.29,414.697 0,228.005 0,0" style="fill:#6ead83;fill-opacity:1;fill-rule:nonzero;stroke:none" id="path27"/>
      </g>
      <g id="g29" transform="translate(273.7828,32.7195)">
        <path d="m 0,0 h -55.926 c -11.228,0 -20.091,9.482 -19.435,20.69 10.744,183.439 163.389,329.388 349.485,329.388 v -56.263 c 0,-10.709 -8.273,-19.617 -18.957,-20.35 C 112.819,263.696 0,144.774 0,0" style="fill:#6ead83;fill-opacity:1;fill-rule:nonzero;stroke:none" id="path31"/>
      </g>
      <g id="g33" transform="translate(425.7667,32.7195)">
        <path d="m 0,0 h -55.445 c -11.653,0 -20.604,10.17 -19.334,21.753 10.866,99.032 95.031,176.341 196.919,176.341 v -57.011 c 0,-10.046 -7.283,-18.755 -17.229,-20.165 C 45.688,112.522 0,61.497 0,0" style="fill:#6ead83;fill-opacity:1;fill-rule:nonzero;stroke:none" id="path35"/>
      </g>
    </g>
  </g>
</g>
    <svg width="1261pt" height="704pt" viewBox="0.00 0.00 1261.14 703.56">
<g id="graph0" class="graph" transform="scale(1 1) rotate(0) translate(4 699.56)">
<title>D</title>
<text text-anchor="start" x="603.07" y="-675.46" font-family="Times,serif" font-weight="bold" font-size="18.00">GPKE</text>
<text text-anchor="start" x="447.57" y="-645.36" font-family="Times,serif" font-weight="bold" font-size="16.00">6.42.1: AD Reklamation einer Konfiguration vom MSB</text>
<!-- Start -->
<g id="node1" class="node">
<title>Start</title>
<polygon fill="#7a8da1" stroke="black" points="218.3,-597.56 86.5,-597.56 86.5,-554.28 218.3,-554.28 218.3,-597.56"/>
<text text-anchor="start" x="130.9" y="-576.62" font-family="Times,serif" font-weight="bold" font-size="14.00">E_0554</text>
<text text-anchor="start" x="100.9" y="-564.52" font-family="Times,serif" font-weight="bold" text-decoration="underline" font-size="12.00">Pr&#252;fende Rolle:</text>
<text text-anchor="start" x="175.9" y="-564.52" font-family="Times,serif" font-weight="bold" font-size="12.00"> MSB</text>
</g>
<!-- 20 -->
<g id="node2" class="node">
<title>20</title>
<path fill="#7aab8a" stroke="black" d="M292.8,-517.28C292.8,-517.28 12,-517.28 12,-517.28 6,-517.28 0,-511.28 0,-505.28 0,-505.28 0,-493.28 0,-493.28 0,-487.28 6,-481.28 12,-481.28 12,-481.28 292.8,-481.28 292.8,-481.28 298.8,-481.28 304.8,-487.28 304.8,-493.28 304.8,-493.28 304.8,-505.28 304.8,-505.28 304.8,-511.28 298.8,-517.28 292.8,-517.28"/>
<text text-anchor="start" x="14.4" y="-495.38" font-family="Times,serif" font-weight="bold" font-size="14.00">20: </text>
<text text-anchor="start" x="35.4" y="-495.38" font-family="Times,serif" font-size="14.00">Ist der Wirkungszeitraum bereits eingetreten?</text>
</g>
<!-- Start&#45;&gt;20 -->
<g id="edge1" class="edge">
<title>Start-&gt;20</title>
<path fill="none" stroke="black" d="M152.4,-554.13C152.4,-546.09 152.4,-536.77 152.4,-528.17"/>
<polygon fill="black" stroke="black" points="155.9,-528.44 152.4,-518.44 148.9,-528.44 155.9,-528.44"/>
</g>
<!-- A02 -->
<g id="node3" class="node">
<title>A02</title>
<polygon fill="#cfb986" stroke="black" points="239.14,-428.48 15.66,-428.48 15.66,-366.96 239.14,-366.96 239.14,-428.48"/>
<text text-anchor="start" x="115.4" y="-410.42" font-family="Times,serif" font-weight="bold" font-size="14.00">A02</text>
<text text-anchor="start" x="27.9" y="-398.32" font-family="Times,serif" text-decoration="underline" font-size="12.00">Hinweis:</text>
<text text-anchor="start" x="27.9" y="-386.32" font-family="Times,serif" font-size="12.00">Cluster: Ablehnung</text>
<text text-anchor="start" x="27.9" y="-374.32" font-family="Times,serif" font-size="12.00">Wirkungszeitraum noch nicht eingetreten</text>
</g>
<!-- 20&#45;&gt;A02 -->
<g id="edge2" class="edge">
<title>20-&gt;A02</title>
<path fill="none" stroke="black" d="M148.05,-480.94C145.14,-469.37 141.2,-453.67 137.54,-439.08"/>
<polygon fill="black" stroke="black" points="140.77,-438.58 134.94,-429.73 133.98,-440.29 140.77,-438.58"/>
<text text-anchor="middle" x="157.9" y="-449.98" font-family="Times,serif" font-size="14.00">Nein</text>
</g>
<!-- 30 -->
<g id="node4" class="node">
<title>30</title>
<path fill="#7aab8a" stroke="black" d="M573.3,-415.72C573.3,-415.72 269.5,-415.72 269.5,-415.72 263.5,-415.72 257.5,-409.72 257.5,-403.72 257.5,-403.72 257.5,-391.72 257.5,-391.72 257.5,-385.72 263.5,-379.72 269.5,-379.72 269.5,-379.72 573.3,-379.72 573.3,-379.72 579.3,-379.72 585.3,-385.72 585.3,-391.72 585.3,-391.72 585.3,-403.72 585.3,-403.72 585.3,-409.72 579.3,-415.72 573.3,-415.72"/>
<text text-anchor="start" x="271.9" y="-393.82" font-family="Times,serif" font-weight="bold" font-size="14.00">30: </text>
<text text-anchor="start" x="292.9" y="-393.82" font-family="Times,serif" font-size="14.00">Ist die Reklamation der Konfiguration berechtigt?</text>
</g>
<!-- 20&#45;&gt;30 -->
<g id="edge3" class="edge">
<title>20-&gt;30</title>
<path fill="none" stroke="black" d="M199.56,-480.82C245.42,-463.85 315.15,-438.04 364.16,-419.9"/>
<polygon fill="black" stroke="black" points="365.13,-422.91 373.29,-416.16 362.7,-416.34 365.13,-422.91"/>
<text text-anchor="middle" x="292.9" y="-449.98" font-family="Times,serif" font-size="14.00">Ja</text>
</g>
<!-- A03 -->
<g id="node5" class="node">
<title>A03</title>
<polygon fill="#cfb986" stroke="black" points="496.14,-314.16 154.66,-314.16 154.66,-252.64 496.14,-252.64 496.14,-314.16"/>
<text text-anchor="start" x="313.4" y="-296.1" font-family="Times,serif" font-weight="bold" font-size="14.00">A03</text>
<text text-anchor="start" x="166.9" y="-284" font-family="Times,serif" text-decoration="underline" font-size="12.00">Hinweis:</text>
<text text-anchor="start" x="166.9" y="-272" font-family="Times,serif" font-size="12.00">Cluster: Ablehnung</text>
<text text-anchor="start" x="166.9" y="-260" font-family="Times,serif" font-size="12.00">Reklamation unbegr&#252;ndet. Bestellte Konfiguration ist eingerichtet</text>
</g>
<!-- 30&#45;&gt;A03 -->
<g id="edge4" class="edge">
<title>30-&gt;A03</title>
<path fill="none" stroke="black" d="M406.82,-379.66C393.93,-364.59 374.67,-342.05 358.12,-322.68"/>
<polygon fill="black" stroke="black" points="360.13,-320.65 350.97,-315.32 354.81,-325.2 360.13,-320.65"/>
<text text-anchor="middle" x="392.9" y="-335.66" font-family="Times,serif" font-size="14.00">Nein</text>
</g>
<!-- 40 -->
<g id="node6" class="node">
<title>40</title>
<path fill="#7aab8a" stroke="black" d="M792.3,-301.4C792.3,-301.4 526.5,-301.4 526.5,-301.4 520.5,-301.4 514.5,-295.4 514.5,-289.4 514.5,-289.4 514.5,-277.4 514.5,-277.4 514.5,-271.4 520.5,-265.4 526.5,-265.4 526.5,-265.4 792.3,-265.4 792.3,-265.4 798.3,-265.4 804.3,-271.4 804.3,-277.4 804.3,-277.4 804.3,-289.4 804.3,-289.4 804.3,-295.4 798.3,-301.4 792.3,-301.4"/>
<text text-anchor="start" x="528.9" y="-279.5" font-family="Times,serif" font-weight="bold" font-size="14.00">40: </text>
<text text-anchor="start" x="549.9" y="-279.5" font-family="Times,serif" font-size="14.00">Kann die Konfiguration korrigiert werden?</text>
</g>
<!-- 30&#45;&gt;40 -->
<g id="edge5" class="edge">
<title>30-&gt;40</title>
<path fill="none" stroke="black" d="M458.33,-379.29C499.84,-359.7 567.34,-327.85 612.54,-306.52"/>
<polygon fill="black" stroke="black" points="613.84,-309.3 621.39,-301.87 610.85,-302.97 613.84,-309.3"/>
<text text-anchor="middle" x="560.9" y="-335.66" font-family="Times,serif" font-size="14.00">Ja</text>
</g>
<!-- A04 -->
<g id="node7" class="node">
<title>A04</title>
<polygon fill="#cfb986" stroke="black" points="756.64,-199.84 344.16,-199.84 344.16,-126.32 756.64,-126.32 756.64,-199.84"/>
<text text-anchor="start" x="538.4" y="-181.78" font-family="Times,serif" font-weight="bold" font-size="14.00">A04</text>
<text text-anchor="start" x="356.4" y="-169.68" font-family="Times,serif" text-decoration="underline" font-size="12.00">Hinweis:</text>
<text text-anchor="start" x="356.4" y="-157.68" font-family="Times,serif" font-size="12.00">Cluster: Ablehnung</text>
<text text-anchor="start" x="356.4" y="-145.68" font-family="Times,serif" font-size="12.00">Konfiguration kann trotz Bestellung nicht vorgenommen werden </text>
<text text-anchor="start" x="356.4" y="-133.68" font-family="Times,serif" font-size="12.00">Hinweis: Das identifizierte Problem ist in der Antwort zu beschreiben/benennen.</text>
</g>
<!-- 40&#45;&gt;A04 -->
<g id="edge6" class="edge">
<title>40-&gt;A04</title>
<path fill="none" stroke="black" d="M643.32,-264.94C629.58,-250.03 609.21,-227.91 591.04,-208.19"/>
<polygon fill="black" stroke="black" points="594.03,-206.19 584.68,-201.2 588.88,-210.93 594.03,-206.19"/>
<text text-anchor="middle" x="628.9" y="-221.34" font-family="Times,serif" font-size="14.00">Nein</text>
</g>
<!-- 50 -->
<g id="node8" class="node">
<title>50</title>
<path fill="#7aab8a" stroke="black" d="M1088.3,-181.08C1088.3,-181.08 786.5,-181.08 786.5,-181.08 780.5,-181.08 774.5,-175.08 774.5,-169.08 774.5,-169.08 774.5,-157.08 774.5,-157.08 774.5,-151.08 780.5,-145.08 786.5,-145.08 786.5,-145.08 1088.3,-145.08 1088.3,-145.08 1094.3,-145.08 1100.3,-151.08 1100.3,-157.08 1100.3,-157.08 1100.3,-169.08 1100.3,-169.08 1100.3,-175.08 1094.3,-181.08 1088.3,-181.08"/>
<text text-anchor="start" x="788.9" y="-159.18" font-family="Times,serif" font-weight="bold" font-size="14.00">50: </text>
<text text-anchor="start" x="809.9" y="-159.18" font-family="Times,serif" font-size="14.00">Kann die Konfiguration sofort korrigiert werden?</text>
</g>
<!-- 40&#45;&gt;50 -->
<g id="edge7" class="edge">
<title>40-&gt;50</title>
<path fill="none" stroke="black" d="M700.42,-264.94C749.94,-243.87 833.22,-208.42 886.71,-185.65"/>
<polygon fill="black" stroke="black" points="887.83,-188.55 895.66,-181.42 885.09,-182.11 887.83,-188.55"/>
<text text-anchor="middle" x="812.9" y="-221.34" font-family="Times,serif" font-size="14.00">Ja</text>
</g>
<!-- A05 -->
<g id="node9" class="node">
<title>A05</title>
<polygon fill="#cfb986" stroke="black" points="894.14,-67.52 688.66,-67.52 688.66,-6 894.14,-6 894.14,-67.52"/>
<text text-anchor="start" x="779.4" y="-49.46" font-family="Times,serif" font-weight="bold" font-size="14.00">A05</text>
<text text-anchor="start" x="700.9" y="-37.36" font-family="Times,serif" text-decoration="underline" font-size="12.00">Hinweis:</text>
<text text-anchor="start" x="700.9" y="-25.36" font-family="Times,serif" font-size="12.00">Cluster: Zustimmung</text>
<text text-anchor="start" x="700.9" y="-13.36" font-family="Times,serif" font-size="12.00">Konfiguration wurde sofort angepasst</text>
</g>
<!-- 50&#45;&gt;A05 -->
<g id="edge8" class="edge">
<title>50-&gt;A05</title>
<path fill="none" stroke="black" d="M917.1,-144.79C895.94,-126.78 862.13,-97.99 834.9,-74.8"/>
<polygon fill="black" stroke="black" points="837.57,-71.62 827.68,-67.8 833.03,-76.95 837.57,-71.62"/>
<text text-anchor="middle" x="878.9" y="-95.02" font-family="Times,serif" font-size="14.00">Ja</text>
</g>
<!-- A06 -->
<g id="node10" class="node">
<title>A06</title>
<polygon fill="#cfb986" stroke="black" points="1253.14,-73.52 911.66,-73.52 911.66,0 1253.14,0 1253.14,-73.52"/>
<text text-anchor="start" x="1070.4" y="-55.46" font-family="Times,serif" font-weight="bold" font-size="14.00">A06</text>
<text text-anchor="start" x="923.9" y="-43.36" font-family="Times,serif" text-decoration="underline" font-size="12.00">Hinweis:</text>
<text text-anchor="start" x="923.9" y="-31.36" font-family="Times,serif" font-size="12.00">Cluster: Zustimmung</text>
<text text-anchor="start" x="923.9" y="-19.36" font-family="Times,serif" font-size="12.00">Konfiguration konnte nicht sofort korrigiert werden.</text>
<text text-anchor="start" x="923.9" y="-7.36" font-family="Times,serif" font-size="12.00">Hinweis: Geplanter Behebungszeitpunkt muss angegeben werden.</text>
</g>
<!-- 50&#45;&gt;A06 -->
<g id="edge9" class="edge">
<title>50-&gt;A06</title>
<path fill="none" stroke="black" d="M957.56,-144.79C976.8,-128.3 1006.57,-102.78 1032.21,-80.79"/>
<polygon fill="black" stroke="black" points="1034.06,-82.96 1039.37,-73.79 1029.5,-77.64 1034.06,-82.96"/>
<text text-anchor="middle" x="1032.9" y="-95.02" font-family="Times,serif" font-size="14.00">Nein</text>
</g>
</g>
</svg>
  </g>
</svg>
  </g>
</svg>
