<?xml version='1.0' encoding='ASCII' standalone='yes'?>
<svg xmlns="http://www.w3.org/2000/svg" xmlns:xlink="http://www.w3.org/1999/xlink" version="1.1" width="4478.666666666667px" viewBox="0 0 4478.666666666667 1413.3333333333333" height="1413.3333333333333px">
  <g>
    <svg version="1.1" width="4478.666666666667px" viewBox="0 0 4478.666666666667 1413.3333333333333" height="1413.3333333333333px">
  <polygon fill="#f3f1f6" points="0,0 4478.666666666667,0 4478.666666666667,1413.3333333333333 0,1413.3333333333333"/><g>
    <g transform="translate(1674.4193447807525, 141.3333333333333) scale(1 1) translate(0, 0) scale(6.39196373374652 6.39196373374652) "><sodipodi:namedview xmlns:sodipodi="http://sodipodi.sourceforge.net/DTD/sodipodi-0.dtd" xmlns:inkscape="http://www.inkscape.org/namespaces/inkscape" id="namedview7" pagecolor="#ffffff" bordercolor="#999999" borderopacity="1" inkscape:pageshadow="0" inkscape:pageopacity="0" inkscape:pagecheckerboard="0" inkscape:document-units="mm" showgrid="false" fit-margin-top="0" fit-margin-left="0" fit-margin-right="0" fit-margin-bottom="0" inkscape:zoom="0.64052329" inkscape:cx="130.36216" inkscape:cy="412.163" inkscape:window-width="1512" inkscape:window-height="916" inkscape:window-x="3840" inkscape:window-y="136" inkscape:window-maximized="0" inkscape:current-layer="layer1"/>
  <defs id="defs2">
    <clipPath clipPathUnits="userSpaceOnUse" id="clipPath23">
      <path d="M 0,568.156 H 579.236 V 0 H 0 Z" id="path21"/>
    </clipPath>
  </defs>
  <g xmlns:inkscape="http://www.inkscape.org/namespaces/inkscape" inkscape:label="Layer 1" inkscape:groupmode="layer" id="layer1" transform="translate(-16.541937,-55.305267)">
    <g id="g19" clip-path="url(#clipPath23)" transform="matrix(0.35277777,0,0,-0.35277777,0.01017023,243.73675)" style="opacity:0.2">
      <g id="g25" transform="translate(122.444,32.7195)">
        <path d="m 0,0 h -56.104 c -11,0 -19.898,9.123 -19.463,20.115 10.594,267.191 231.277,481.302 501.029,481.302 v -56.02 c 0,-10.98 -8.688,-19.892 -19.658,-20.393 C 180.29,414.697 0,228.005 0,0" style="fill:#6ead83;fill-opacity:1;fill-rule:nonzero;stroke:none" id="path27"/>
      </g>
      <g id="g29" transform="translate(273.7828,32.7195)">
        <path d="m 0,0 h -55.926 c -11.228,0 -20.091,9.482 -19.435,20.69 10.744,183.439 163.389,329.388 349.485,329.388 v -56.263 c 0,-10.709 -8.273,-19.617 -18.957,-20.35 C 112.819,263.696 0,144.774 0,0" style="fill:#6ead83;fill-opacity:1;fill-rule:nonzero;stroke:none" id="path31"/>
      </g>
      <g id="g33" transform="translate(425.7667,32.7195)">
        <path d="m 0,0 h -55.445 c -11.653,0 -20.604,10.17 -19.334,21.753 10.866,99.032 95.031,176.341 196.919,176.341 v -57.011 c 0,-10.046 -7.283,-18.755 -17.229,-20.165 C 45.688,112.522 0,61.497 0,0" style="fill:#6ead83;fill-opacity:1;fill-rule:nonzero;stroke:none" id="path35"/>
      </g>
    </g>
  </g>
</g>
    <svg width="3359pt" height="1060pt" viewBox="0.00 0.00 3358.64 1060.28">
<g id="graph0" class="graph" transform="scale(1 1) rotate(0) translate(4 1056.28)">
<title>D</title>
<text text-anchor="start" x="1608.82" y="-1032.18" font-family="Times,serif" font-weight="bold" font-size="18.00">Sperrprozesse Gas</text>
<text text-anchor="start" x="1408.32" y="-1002.08" font-family="Times,serif" font-weight="bold" font-size="16.00">19.2.4: AD: Unterbrechung der Anschlussnutzung (Sperren) auf Anweisung des LF</text>
<!-- Start -->
<g id="node1" class="node">
<title>Start</title>
<polygon fill="#7a8da1" stroke="black" points="391.8,-954.28 269,-954.28 269,-911 391.8,-911 391.8,-954.28"/>
<text text-anchor="start" x="308.9" y="-933.34" font-family="Times,serif" font-weight="bold" font-size="14.00">E_1003</text>
<text text-anchor="start" x="283.4" y="-921.24" font-family="Times,serif" font-weight="bold" text-decoration="underline" font-size="12.00">Pr&#252;fende Rolle:</text>
<text text-anchor="start" x="358.4" y="-921.24" font-family="Times,serif" font-weight="bold" font-size="12.00"> NB</text>
</g>
<!-- 10 -->
<g id="node2" class="node">
<title>10</title>
<path fill="#7aab8a" stroke="black" d="M648.8,-874C648.8,-874 12,-874 12,-874 6,-874 0,-868 0,-862 0,-862 0,-850 0,-850 0,-844 6,-838 12,-838 12,-838 648.8,-838 648.8,-838 654.8,-838 660.8,-844 660.8,-850 660.8,-850 660.8,-862 660.8,-862 660.8,-868 654.8,-874 648.8,-874"/>
<text text-anchor="start" x="14.4" y="-852.1" font-family="Times,serif" font-weight="bold" font-size="14.00">10: </text>
<text text-anchor="start" x="34.4" y="-852.1" font-family="Times,serif" font-size="14.00">War eine Sperrung aus rechtlichen Gr&#252;nden nicht m&#246;glich (z.&#160;B., wenn eine Einstweilige Verf&#252;gung vorlag)?</text>
</g>
<!-- Start&#45;&gt;10 -->
<g id="edge1" class="edge">
<title>Start-&gt;10</title>
<path fill="none" stroke="black" d="M330.4,-910.85C330.4,-902.81 330.4,-893.49 330.4,-884.89"/>
<polygon fill="black" stroke="black" points="333.9,-885.16 330.4,-875.16 326.9,-885.16 333.9,-885.16"/>
</g>
<!-- A01 -->
<g id="node3" class="node">
<title>A01</title>
<polygon fill="#cfb986" stroke="black" points="529.64,-785.2 97.16,-785.2 97.16,-723.68 529.64,-723.68 529.64,-785.2"/>
<text text-anchor="start" x="301.4" y="-767.14" font-family="Times,serif" font-weight="bold" font-size="14.00">A01</text>
<text text-anchor="start" x="109.4" y="-755.04" font-family="Times,serif" text-decoration="underline" font-size="12.00">Hinweis:</text>
<text text-anchor="start" x="109.4" y="-743.04" font-family="Times,serif" font-size="12.00">Cluster: gescheitert</text>
<text text-anchor="start" x="109.4" y="-731.04" font-family="Times,serif" font-size="12.00">Marktlokation wurde nicht gesperrt, da ein rechtlicher Grund vor Ort erkannt wurde.</text>
</g>
<!-- 10&#45;&gt;A01 -->
<g id="edge2" class="edge">
<title>10-&gt;A01</title>
<path fill="none" stroke="black" d="M327.44,-837.66C325.48,-826.2 322.83,-810.69 320.36,-796.23"/>
<polygon fill="black" stroke="black" points="323.66,-795.72 318.53,-786.45 316.76,-796.9 323.66,-795.72"/>
<text text-anchor="middle" x="330.9" y="-806.7" font-family="Times,serif" font-size="14.00">Ja</text>
</g>
<!-- 20 -->
<g id="node4" class="node">
<title>20</title>
<path fill="#7aab8a" stroke="black" d="M1021.3,-777.08C1021.3,-777.08 559.5,-777.08 559.5,-777.08 553.5,-777.08 547.5,-771.08 547.5,-765.08 547.5,-765.08 547.5,-743.8 547.5,-743.8 547.5,-737.8 553.5,-731.8 559.5,-731.8 559.5,-731.8 1021.3,-731.8 1021.3,-731.8 1027.3,-731.8 1033.3,-737.8 1033.3,-743.8 1033.3,-743.8 1033.3,-765.08 1033.3,-765.08 1033.3,-771.08 1027.3,-777.08 1021.3,-777.08"/>
<text text-anchor="start" x="561.9" y="-756.14" font-family="Times,serif" font-weight="bold" font-size="14.00">20: </text>
<text text-anchor="start" x="582.9" y="-756.14" font-family="Times,serif" font-size="14.00">Wurde der Anschlussnutzer angetroffen?</text>
<text text-anchor="start" x="561.9" y="-742.14" font-family="Times,serif" font-size="14.00">Hinweis: Es gab keine Anzeichen daf&#252;r, dass der Anschlussnutzer anwesend war.</text>
</g>
<!-- 10&#45;&gt;20 -->
<g id="edge3" class="edge">
<title>10-&gt;20</title>
<path fill="none" stroke="black" d="M411.05,-837.54C484.98,-821.54 595.19,-797.69 677.79,-779.81"/>
<polygon fill="black" stroke="black" points="678.45,-783.03 687.49,-777.5 676.97,-776.19 678.45,-783.03"/>
<text text-anchor="middle" x="573.9" y="-806.7" font-family="Times,serif" font-size="14.00">Nein</text>
</g>
<!-- A08 -->
<g id="node5" class="node">
<title>A08</title>
<polygon fill="#cfb986" stroke="black" points="803.64,-670.88 277.16,-670.88 277.16,-621.36 803.64,-621.36 803.64,-670.88"/>
<text text-anchor="start" x="528.4" y="-652.82" font-family="Times,serif" font-weight="bold" font-size="14.00">A08</text>
<text text-anchor="start" x="289.4" y="-640.72" font-family="Times,serif" text-decoration="underline" font-size="12.00">Hinweis:</text>
<text text-anchor="start" x="289.4" y="-628.72" font-family="Times,serif" font-size="12.00">Der Anschlussnutzer wurde nicht angetroffen. Es gab keine Anzeichen daf&#252;r, dass dieser anwesend war.</text>
</g>
<!-- 20&#45;&gt;A08 -->
<g id="edge4" class="edge">
<title>20-&gt;A08</title>
<path fill="none" stroke="black" d="M738.6,-731.41C700.55,-715.23 648.52,-693.1 607.32,-675.58"/>
<polygon fill="black" stroke="black" points="608.94,-672.04 598.36,-671.35 606.2,-678.48 608.94,-672.04"/>
<text text-anchor="middle" x="686.9" y="-692.38" font-family="Times,serif" font-size="14.00">Nein</text>
</g>
<!-- 30 -->
<g id="node6" class="node">
<title>30</title>
<path fill="#7aab8a" stroke="black" d="M2142.8,-668.76C2142.8,-668.76 834,-668.76 834,-668.76 828,-668.76 822,-662.76 822,-656.76 822,-656.76 822,-635.48 822,-635.48 822,-629.48 828,-623.48 834,-623.48 834,-623.48 2142.8,-623.48 2142.8,-623.48 2148.8,-623.48 2154.8,-629.48 2154.8,-635.48 2154.8,-635.48 2154.8,-656.76 2154.8,-656.76 2154.8,-662.76 2148.8,-668.76 2142.8,-668.76"/>
<text text-anchor="start" x="836.4" y="-647.82" font-family="Times,serif" font-weight="bold" font-size="14.00">30: </text>
<text text-anchor="start" x="857.4" y="-647.82" font-family="Times,serif" font-size="14.00">War eine Sperrung aus dem Grund &#8222;aktive Zutrittsverweigerung&#8220; nicht m&#246;glich?</text>
<text text-anchor="start" x="836.4" y="-633.82" font-family="Times,serif" font-size="14.00">Hinweis: Unter &#8222;aktive Zutrittsverweigerung&#8220; ist zu verstehen, dass der Anschlussnutzer angetroffen wurde und dieser den Zugang z.&#160;B. durch Drohungen, physische Angriffe, versperren des Zugangs zur Trennstelle unterbunden hat.</text>
</g>
<!-- 20&#45;&gt;30 -->
<g id="edge5" class="edge">
<title>20-&gt;30</title>
<path fill="none" stroke="black" d="M935.45,-731.35C1051.48,-713.67 1213.83,-688.94 1332.6,-670.85"/>
<polygon fill="black" stroke="black" points="1332.88,-674.2 1342.24,-669.23 1331.82,-667.28 1332.88,-674.2"/>
<text text-anchor="middle" x="1207.9" y="-692.38" font-family="Times,serif" font-size="14.00">Ja</text>
</g>
<!-- A02 -->
<g id="node7" class="node">
<title>A02</title>
<polygon fill="#cfb986" stroke="black" points="1444.14,-568.56 1034.66,-568.56 1034.66,-507.04 1444.14,-507.04 1444.14,-568.56"/>
<text text-anchor="start" x="1227.4" y="-550.5" font-family="Times,serif" font-weight="bold" font-size="14.00">A02</text>
<text text-anchor="start" x="1046.9" y="-538.4" font-family="Times,serif" text-decoration="underline" font-size="12.00">Hinweis:</text>
<text text-anchor="start" x="1046.9" y="-526.4" font-family="Times,serif" font-size="12.00">Cluster: gescheitert</text>
<text text-anchor="start" x="1046.9" y="-514.4" font-family="Times,serif" font-size="12.00">Marktlokation wurde nicht gesperrt, da eine aktive Zutrittsverweigerung vorlag.</text>
</g>
<!-- 30&#45;&gt;A02 -->
<g id="edge6" class="edge">
<title>30-&gt;A02</title>
<path fill="none" stroke="black" d="M1436.81,-623.09C1402.93,-608.62 1357.92,-589.41 1319.44,-572.98"/>
<polygon fill="black" stroke="black" points="1321.38,-569.57 1310.81,-568.87 1318.63,-576.01 1321.38,-569.57"/>
<text text-anchor="middle" x="1391.9" y="-590.06" font-family="Times,serif" font-size="14.00">Ja</text>
</g>
<!-- 40 -->
<g id="node8" class="node">
<title>40</title>
<path fill="#7aab8a" stroke="black" d="M2926.8,-560.44C2926.8,-560.44 1474,-560.44 1474,-560.44 1468,-560.44 1462,-554.44 1462,-548.44 1462,-548.44 1462,-527.16 1462,-527.16 1462,-521.16 1468,-515.16 1474,-515.16 1474,-515.16 2926.8,-515.16 2926.8,-515.16 2932.8,-515.16 2938.8,-521.16 2938.8,-527.16 2938.8,-527.16 2938.8,-548.44 2938.8,-548.44 2938.8,-554.44 2932.8,-560.44 2926.8,-560.44"/>
<text text-anchor="start" x="1476.4" y="-539.5" font-family="Times,serif" font-weight="bold" font-size="14.00">40: </text>
<text text-anchor="start" x="1497.4" y="-539.5" font-family="Times,serif" font-size="14.00">War eine Sperrung aus dem Grund &#8222;passive Zutrittsverweigerung&#8220; nicht m&#246;glich?</text>
<text text-anchor="start" x="1476.4" y="-525.5" font-family="Times,serif" font-size="14.00">Hinweis: Unter &#8222;passiver Zutrittsverweigerung&#8220; ist zu verstehen, dass eine Anwesenheit des Anschlussnutzers festgestellt wurde, dieser jedoch seine Anwesenheit verleugnet. (z.B. Anschlussnutzer wurden in der Wohnung gesichtet, &#246;ffnet aber die T&#252;r nicht).</text>
</g>
<!-- 30&#45;&gt;40 -->
<g id="edge7" class="edge">
<title>30-&gt;40</title>
<path fill="none" stroke="black" d="M1636.36,-623.03C1754.71,-605.35 1920.33,-580.62 2041.48,-562.53"/>
<polygon fill="black" stroke="black" points="2041.95,-565.85 2051.32,-560.91 2040.92,-558.93 2041.95,-565.85"/>
<text text-anchor="middle" x="1879.9" y="-590.06" font-family="Times,serif" font-size="14.00">Nein</text>
</g>
<!-- A03 -->
<g id="node9" class="node">
<title>A03</title>
<polygon fill="#cfb986" stroke="black" points="2287.64,-454.24 1873.16,-454.24 1873.16,-392.72 2287.64,-392.72 2287.64,-454.24"/>
<text text-anchor="start" x="2068.4" y="-436.18" font-family="Times,serif" font-weight="bold" font-size="14.00">A03</text>
<text text-anchor="start" x="1885.4" y="-424.08" font-family="Times,serif" text-decoration="underline" font-size="12.00">Hinweis:</text>
<text text-anchor="start" x="1885.4" y="-412.08" font-family="Times,serif" font-size="12.00">Cluster: gescheitert</text>
<text text-anchor="start" x="1885.4" y="-400.08" font-family="Times,serif" font-size="12.00">Marktlokation wurde nicht gesperrt, da eine passive Zutrittsverweigerung vorlag.</text>
</g>
<!-- 40&#45;&gt;A03 -->
<g id="edge8" class="edge">
<title>40-&gt;A03</title>
<path fill="none" stroke="black" d="M2176.98,-514.88C2160.86,-499.79 2139.06,-479.38 2120.24,-461.77"/>
<polygon fill="black" stroke="black" points="2123.08,-459.7 2113.39,-455.42 2118.3,-464.81 2123.08,-459.7"/>
<text text-anchor="middle" x="2153.9" y="-475.74" font-family="Times,serif" font-size="14.00">Ja</text>
</g>
<!-- 50 -->
<g id="node10" class="node">
<title>50</title>
<path fill="#7aab8a" stroke="black" d="M2738.8,-441.48C2738.8,-441.48 2318,-441.48 2318,-441.48 2312,-441.48 2306,-435.48 2306,-429.48 2306,-429.48 2306,-417.48 2306,-417.48 2306,-411.48 2312,-405.48 2318,-405.48 2318,-405.48 2738.8,-405.48 2738.8,-405.48 2744.8,-405.48 2750.8,-411.48 2750.8,-417.48 2750.8,-417.48 2750.8,-429.48 2750.8,-429.48 2750.8,-435.48 2744.8,-441.48 2738.8,-441.48"/>
<text text-anchor="start" x="2320.4" y="-419.58" font-family="Times,serif" font-weight="bold" font-size="14.00">50: </text>
<text text-anchor="start" x="2341.4" y="-419.58" font-family="Times,serif" font-size="14.00">War eine Sperrung wegen eines Verhinderungsgrundes nicht m&#246;glich?</text>
</g>
<!-- 40&#45;&gt;50 -->
<g id="edge9" class="edge">
<title>40-&gt;50</title>
<path fill="none" stroke="black" d="M2264.81,-514.74C2323.51,-494.64 2409.59,-465.16 2467.25,-445.42"/>
<polygon fill="black" stroke="black" points="2467.99,-448.53 2476.31,-441.97 2465.72,-441.9 2467.99,-448.53"/>
<text text-anchor="middle" x="2397.9" y="-475.74" font-family="Times,serif" font-size="14.00">Nein</text>
</g>
<!-- A04 -->
<g id="node11" class="node">
<title>A04</title>
<polygon fill="#cfb986" stroke="black" points="2602.14,-333.04 2232.66,-333.04 2232.66,-259.52 2602.14,-259.52 2602.14,-333.04"/>
<text text-anchor="start" x="2405.4" y="-314.98" font-family="Times,serif" font-weight="bold" font-size="14.00">A04</text>
<text text-anchor="start" x="2244.9" y="-302.88" font-family="Times,serif" text-decoration="underline" font-size="12.00">Hinweis:</text>
<text text-anchor="start" x="2244.9" y="-290.88" font-family="Times,serif" font-size="12.00">Cluster: gescheitert</text>
<text text-anchor="start" x="2244.9" y="-278.88" font-family="Times,serif" font-size="12.00">Marktlokation wurde nicht gesperrt, da ein Verhinderungsgrund vorlag.</text>
<text text-anchor="start" x="2244.9" y="-266.88" font-family="Times,serif" font-size="12.00">Hinweis: Im Freitext muss der Verhinderungsgrund mitgeteilt werden.</text>
</g>
<!-- 50&#45;&gt;A04 -->
<g id="edge10" class="edge">
<title>50-&gt;A04</title>
<path fill="none" stroke="black" d="M2512.97,-405.07C2498.44,-388.69 2476.07,-363.46 2456.63,-341.53"/>
<polygon fill="black" stroke="black" points="2459.6,-339.47 2450.34,-334.31 2454.36,-344.11 2459.6,-339.47"/>
<text text-anchor="middle" x="2488.9" y="-361.42" font-family="Times,serif" font-size="14.00">Ja</text>
</g>
<!-- 60 -->
<g id="node12" class="node">
<title>60</title>
<path fill="#7aab8a" stroke="black" d="M3024.8,-339.92C3024.8,-339.92 2632,-339.92 2632,-339.92 2626,-339.92 2620,-333.92 2620,-327.92 2620,-327.92 2620,-264.64 2620,-264.64 2620,-258.64 2626,-252.64 2632,-252.64 2632,-252.64 3024.8,-252.64 3024.8,-252.64 3030.8,-252.64 3036.8,-258.64 3036.8,-264.64 3036.8,-264.64 3036.8,-327.92 3036.8,-327.92 3036.8,-333.92 3030.8,-339.92 3024.8,-339.92"/>
<text text-anchor="start" x="2634.4" y="-318.98" font-family="Times,serif" font-weight="bold" font-size="14.00">60: </text>
<text text-anchor="start" x="2655.4" y="-318.98" font-family="Times,serif" font-size="14.00">War eine Sperrung aus einem tats&#228;chlichen Grund nicht m&#246;glich?</text>
<text text-anchor="start" x="2634.4" y="-304.98" font-family="Times,serif" font-size="14.00">Unter tats&#228;chliche Gr&#252;nde fallen z. B.</text>
<text text-anchor="start" x="2634.4" y="-290.98" font-family="Times,serif" font-size="14.00">Marktlokation vor Ort nicht identifizierbar</text>
<text text-anchor="start" x="2634.4" y="-276.98" font-family="Times,serif" font-size="14.00">Zugang zur Marktlokation nicht m&#246;glich</text>
<text text-anchor="start" x="2634.4" y="-262.98" font-family="Times,serif" font-size="14.00">Kundenwechsel an der Marktlokation festgestellt</text>
</g>
<!-- 50&#45;&gt;60 -->
<g id="edge11" class="edge">
<title>50-&gt;60</title>
<path fill="none" stroke="black" d="M2570.11,-405.07C2607.55,-389.45 2664.24,-365.79 2714.99,-344.61"/>
<polygon fill="black" stroke="black" points="2716.17,-347.49 2724.05,-340.41 2713.48,-341.03 2716.17,-347.49"/>
<text text-anchor="middle" x="2691.9" y="-361.42" font-family="Times,serif" font-size="14.00">Nein</text>
</g>
<!-- A05 -->
<g id="node13" class="node">
<title>A05</title>
<polygon fill="#cfb986" stroke="black" points="2901.64,-199.84 2537.16,-199.84 2537.16,-126.32 2901.64,-126.32 2901.64,-199.84"/>
<text text-anchor="start" x="2707.4" y="-181.78" font-family="Times,serif" font-weight="bold" font-size="14.00">A05</text>
<text text-anchor="start" x="2549.4" y="-169.68" font-family="Times,serif" text-decoration="underline" font-size="12.00">Hinweis:</text>
<text text-anchor="start" x="2549.4" y="-157.68" font-family="Times,serif" font-size="12.00">Cluster: gescheitert</text>
<text text-anchor="start" x="2549.4" y="-145.68" font-family="Times,serif" font-size="12.00">Marktlokation wurde nicht gesperrt, da ein tats&#228;chlicher Grund vorlag.</text>
<text text-anchor="start" x="2549.4" y="-133.68" font-family="Times,serif" font-size="12.00">Hinweis: Im Freitext muss der tats&#228;chliche Grund mitgeteilt werden.</text>
</g>
<!-- 60&#45;&gt;A05 -->
<g id="edge12" class="edge">
<title>60-&gt;A05</title>
<path fill="none" stroke="black" d="M2792.71,-252.32C2780.98,-238.2 2767.92,-222.49 2756.12,-208.28"/>
<polygon fill="black" stroke="black" points="2758.42,-206.57 2749.33,-201.11 2753.03,-211.04 2758.42,-206.57"/>
<text text-anchor="middle" x="2782.9" y="-221.34" font-family="Times,serif" font-size="14.00">Ja</text>
</g>
<!-- 70 -->
<g id="node14" class="node">
<title>70</title>
<path fill="#7aab8a" stroke="black" d="M3317.3,-181.08C3317.3,-181.08 2931.5,-181.08 2931.5,-181.08 2925.5,-181.08 2919.5,-175.08 2919.5,-169.08 2919.5,-169.08 2919.5,-157.08 2919.5,-157.08 2919.5,-151.08 2925.5,-145.08 2931.5,-145.08 2931.5,-145.08 3317.3,-145.08 3317.3,-145.08 3323.3,-145.08 3329.3,-151.08 3329.3,-157.08 3329.3,-157.08 3329.3,-169.08 3329.3,-169.08 3329.3,-175.08 3323.3,-181.08 3317.3,-181.08"/>
<text text-anchor="start" x="2933.9" y="-159.18" font-family="Times,serif" font-weight="bold" font-size="14.00">70: </text>
<text text-anchor="start" x="2954.9" y="-159.18" font-family="Times,serif" font-size="14.00">War eine Sperrung aus einem technischen Grund nicht m&#246;glich?</text>
</g>
<!-- 60&#45;&gt;70 -->
<g id="edge13" class="edge">
<title>60-&gt;70</title>
<path fill="none" stroke="black" d="M2925.32,-252.32C2975.37,-230.14 3034.3,-204.01 3075,-185.98"/>
<polygon fill="black" stroke="black" points="3076.21,-188.83 3083.93,-181.57 3073.37,-182.43 3076.21,-188.83"/>
<text text-anchor="middle" x="3016.9" y="-221.34" font-family="Times,serif" font-size="14.00">Nein</text>
</g>
<!-- A06 -->
<g id="node15" class="node">
<title>A06</title>
<polygon fill="#cfb986" stroke="black" points="3162.64,-73.52 2804.16,-73.52 2804.16,0 3162.64,0 3162.64,-73.52"/>
<text text-anchor="start" x="2971.4" y="-55.46" font-family="Times,serif" font-weight="bold" font-size="14.00">A06</text>
<text text-anchor="start" x="2816.4" y="-43.36" font-family="Times,serif" text-decoration="underline" font-size="12.00">Hinweis:</text>
<text text-anchor="start" x="2816.4" y="-31.36" font-family="Times,serif" font-size="12.00">Cluster: gescheitert</text>
<text text-anchor="start" x="2816.4" y="-19.36" font-family="Times,serif" font-size="12.00">Marktlokation wurde nicht gesperrt, da ein technischer Grund vorlag.</text>
<text text-anchor="start" x="2816.4" y="-7.36" font-family="Times,serif" font-size="12.00">Hinweis: Im Freitext muss der technische Grund mitgeteilt werden.</text>
</g>
<!-- 70&#45;&gt;A06 -->
<g id="edge14" class="edge">
<title>70-&gt;A06</title>
<path fill="none" stroke="black" d="M3104.79,-144.79C3086.09,-128.3 3057.14,-102.78 3032.2,-80.79"/>
<polygon fill="black" stroke="black" points="3035.08,-78.78 3025.27,-74.79 3030.45,-84.03 3035.08,-78.78"/>
<text text-anchor="middle" x="3067.9" y="-95.02" font-family="Times,serif" font-size="14.00">Ja</text>
</g>
<!-- A07 -->
<g id="node16" class="node">
<title>A07</title>
<polygon fill="#cfb986" stroke="black" points="3350.64,-67.52 3180.16,-67.52 3180.16,-6 3350.64,-6 3350.64,-67.52"/>
<text text-anchor="start" x="3253.4" y="-49.46" font-family="Times,serif" font-weight="bold" font-size="14.00">A07</text>
<text text-anchor="start" x="3192.4" y="-37.36" font-family="Times,serif" text-decoration="underline" font-size="12.00">Hinweis:</text>
<text text-anchor="start" x="3192.4" y="-25.36" font-family="Times,serif" font-size="12.00">Cluster: erfolgreich</text>
<text text-anchor="start" x="3192.4" y="-13.36" font-family="Times,serif" font-size="12.00">Marktlokation wurde gesperrt.</text>
</g>
<!-- 70&#45;&gt;A07 -->
<g id="edge15" class="edge">
<title>70-&gt;A07</title>
<path fill="none" stroke="black" d="M3144.01,-144.79C3164.44,-126.78 3197.09,-97.99 3223.39,-74.8"/>
<polygon fill="black" stroke="black" points="3225.14,-78.04 3230.32,-68.8 3220.51,-72.79 3225.14,-78.04"/>
<text text-anchor="middle" x="3216.9" y="-95.02" font-family="Times,serif" font-size="14.00">Nein</text>
</g>
</g>
</svg>
  </g>
</svg>
  </g>
</svg>
