<?xml version='1.0' encoding='ASCII' standalone='yes'?>
<svg xmlns="http://www.w3.org/2000/svg" xmlns:xlink="http://www.w3.org/1999/xlink" version="1.1" width="6625.333333333333px" viewBox="0 0 6625.333333333333 2210.6666666666665" height="2210.6666666666665px">
  <g>
    <svg version="1.1" width="6625.333333333333px" viewBox="0 0 6625.333333333333 2210.6666666666665" height="2210.6666666666665px">
  <polygon fill="#f3f1f6" points="0,0 6625.333333333333,0 6625.333333333333,2210.6666666666665 0,2210.6666666666665"/><g>
    <g transform="translate(2429.055918534422, 221.0666666666666) scale(1 1) translate(0, 0) scale(9.997996104294085 9.997996104294085) "><sodipodi:namedview xmlns:sodipodi="http://sodipodi.sourceforge.net/DTD/sodipodi-0.dtd" xmlns:inkscape="http://www.inkscape.org/namespaces/inkscape" id="namedview7" pagecolor="#ffffff" bordercolor="#999999" borderopacity="1" inkscape:pageshadow="0" inkscape:pageopacity="0" inkscape:pagecheckerboard="0" inkscape:document-units="mm" showgrid="false" fit-margin-top="0" fit-margin-left="0" fit-margin-right="0" fit-margin-bottom="0" inkscape:zoom="0.64052329" inkscape:cx="130.36216" inkscape:cy="412.163" inkscape:window-width="1512" inkscape:window-height="916" inkscape:window-x="3840" inkscape:window-y="136" inkscape:window-maximized="0" inkscape:current-layer="layer1"/>
  <defs id="defs2">
    <clipPath clipPathUnits="userSpaceOnUse" id="clipPath23">
      <path d="M 0,568.156 H 579.236 V 0 H 0 Z" id="path21"/>
    </clipPath>
  </defs>
  <g xmlns:inkscape="http://www.inkscape.org/namespaces/inkscape" inkscape:label="Layer 1" inkscape:groupmode="layer" id="layer1" transform="translate(-16.541937,-55.305267)">
    <g id="g19" clip-path="url(#clipPath23)" transform="matrix(0.35277777,0,0,-0.35277777,0.01017023,243.73675)" style="opacity:0.2">
      <g id="g25" transform="translate(122.444,32.7195)">
        <path d="m 0,0 h -56.104 c -11,0 -19.898,9.123 -19.463,20.115 10.594,267.191 231.277,481.302 501.029,481.302 v -56.02 c 0,-10.98 -8.688,-19.892 -19.658,-20.393 C 180.29,414.697 0,228.005 0,0" style="fill:#6ead83;fill-opacity:1;fill-rule:nonzero;stroke:none" id="path27"/>
      </g>
      <g id="g29" transform="translate(273.7828,32.7195)">
        <path d="m 0,0 h -55.926 c -11.228,0 -20.091,9.482 -19.435,20.69 10.744,183.439 163.389,329.388 349.485,329.388 v -56.263 c 0,-10.709 -8.273,-19.617 -18.957,-20.35 C 112.819,263.696 0,144.774 0,0" style="fill:#6ead83;fill-opacity:1;fill-rule:nonzero;stroke:none" id="path31"/>
      </g>
      <g id="g33" transform="translate(425.7667,32.7195)">
        <path d="m 0,0 h -55.445 c -11.653,0 -20.604,10.17 -19.334,21.753 10.866,99.032 95.031,176.341 196.919,176.341 v -57.011 c 0,-10.046 -7.283,-18.755 -17.229,-20.165 C 45.688,112.522 0,61.497 0,0" style="fill:#6ead83;fill-opacity:1;fill-rule:nonzero;stroke:none" id="path35"/>
      </g>
    </g>
  </g>
</g>
    <svg width="4969pt" height="1658pt" viewBox="0.00 0.00 4968.80 1658.00">
<g id="graph0" class="graph" transform="scale(1 1) rotate(0) translate(4 1654)">
<title>D</title>
<text text-anchor="start" x="2386.27" y="-1629.9" font-family="Times,serif" font-weight="bold" font-size="18.00">Sperrprozesse Gas</text>
<text text-anchor="start" x="2107.27" y="-1599.8" font-family="Times,serif" font-weight="bold" font-size="16.00">19.2.1: AD: Unterbrechung der Anschlussnutzung (Sperren) auf Anweisung des LF</text>
<!-- Start -->
<g id="node1" class="node">
<title>Start</title>
<polygon fill="#7a8da1" stroke="black" points="248.17,-1552 88.12,-1552 88.12,-1508.72 248.17,-1508.72 248.17,-1552"/>
<text text-anchor="start" x="140.02" y="-1531.06" font-family="Times,serif" font-weight="bold" font-size="14.00">E_1000</text>
<text text-anchor="start" x="102.52" y="-1518.96" font-family="Times,serif" font-weight="bold" text-decoration="underline" font-size="12.00">Pr&#252;fende Rolle:</text>
<text text-anchor="start" x="207.52" y="-1518.96" font-family="Times,serif" font-weight="bold" font-size="12.00"> NB</text>
</g>
<!-- 10 -->
<g id="node2" class="node">
<title>10</title>
<path fill="#7aab8a" stroke="black" d="M324.3,-1471.72C324.3,-1471.72 12,-1471.72 12,-1471.72 6,-1471.72 0,-1465.72 0,-1459.72 0,-1459.72 0,-1447.72 0,-1447.72 0,-1441.72 6,-1435.72 12,-1435.72 12,-1435.72 324.3,-1435.72 324.3,-1435.72 330.3,-1435.72 336.3,-1441.72 336.3,-1447.72 336.3,-1447.72 336.3,-1459.72 336.3,-1459.72 336.3,-1465.72 330.3,-1471.72 324.3,-1471.72"/>
<text text-anchor="start" x="14.4" y="-1450.05" font-family="Times,serif" font-weight="bold" font-size="14.00">10: </text>
<text text-anchor="start" x="43.65" y="-1450.05" font-family="Times,serif" font-size="14.00">Ist die Marktlokation bereits gesperrt?</text>
</g>
<!-- Start&#45;&gt;10 -->
<g id="edge1" class="edge">
<title>Start-&gt;10</title>
<path fill="none" stroke="black" d="M168.15,-1508.57C168.15,-1500.53 168.15,-1491.21 168.15,-1482.61"/>
<polygon fill="black" stroke="black" points="171.65,-1482.88 168.15,-1472.88 164.65,-1482.88 171.65,-1482.88"/>
</g>
<!-- A01 -->
<g id="node3" class="node">
<title>A01</title>
<polygon fill="#cfb986" stroke="black" points="266.64,-1382.47 33.66,-1382.47 33.66,-1320.95 266.64,-1320.95 266.64,-1382.47"/>
<text text-anchor="start" x="135.15" y="-1364.41" font-family="Times,serif" font-weight="bold" font-size="14.00">A01</text>
<text text-anchor="start" x="45.9" y="-1352.31" font-family="Times,serif" text-decoration="underline" font-size="12.00">Hinweis:</text>
<text text-anchor="start" x="45.9" y="-1340.31" font-family="Times,serif" font-size="12.00">Cluster: Ablehnung</text>
<text text-anchor="start" x="45.9" y="-1328.31" font-family="Times,serif" font-size="12.00">Marktlokation ist bereits gesperrt.</text>
</g>
<!-- 10&#45;&gt;A01 -->
<g id="edge2" class="edge">
<title>10-&gt;A01</title>
<path fill="none" stroke="black" d="M165.01,-1435.3C162.94,-1423.79 160.14,-1408.21 157.52,-1393.68"/>
<polygon fill="black" stroke="black" points="160.79,-1393.08 155.58,-1383.86 153.9,-1394.32 160.79,-1393.08"/>
<text text-anchor="middle" x="168.9" y="-1404.42" font-family="Times,serif" font-size="14.00">Ja</text>
</g>
<!-- 20 -->
<g id="node4" class="node">
<title>20</title>
<path fill="#7aab8a" stroke="black" d="M1181.8,-1369.71C1181.8,-1369.71 296.5,-1369.71 296.5,-1369.71 290.5,-1369.71 284.5,-1363.71 284.5,-1357.71 284.5,-1357.71 284.5,-1345.71 284.5,-1345.71 284.5,-1339.71 290.5,-1333.71 296.5,-1333.71 296.5,-1333.71 1181.8,-1333.71 1181.8,-1333.71 1187.8,-1333.71 1193.8,-1339.71 1193.8,-1345.71 1193.8,-1345.71 1193.8,-1357.71 1193.8,-1357.71 1193.8,-1363.71 1187.8,-1369.71 1181.8,-1369.71"/>
<text text-anchor="start" x="298.9" y="-1348.04" font-family="Times,serif" font-weight="bold" font-size="14.00">20: </text>
<text text-anchor="start" x="328.15" y="-1348.04" font-family="Times,serif" font-size="14.00">Liegt f&#252;r die Marktlokation im Zeitraum von 6 WT ab dem fr&#252;hestm&#246;glichen Sperrtermin bereits ein Sperrauftrag vor?</text>
</g>
<!-- 10&#45;&gt;20 -->
<g id="edge3" class="edge">
<title>10-&gt;20</title>
<path fill="none" stroke="black" d="M267.94,-1435.24C368.85,-1417.57 524.44,-1390.32 628.93,-1372.01"/>
<polygon fill="black" stroke="black" points="629.27,-1375.33 638.51,-1370.16 628.06,-1368.44 629.27,-1375.33"/>
<text text-anchor="middle" x="471.02" y="-1404.42" font-family="Times,serif" font-size="14.00">Nein</text>
</g>
<!-- A10 -->
<g id="node5" class="node">
<title>A10</title>
<polygon fill="#cfb986" stroke="black" points="699.01,-1267.7 381.28,-1267.7 381.28,-1206.18 699.01,-1206.18 699.01,-1267.7"/>
<text text-anchor="start" x="525.15" y="-1249.64" font-family="Times,serif" font-weight="bold" font-size="14.00">A10</text>
<text text-anchor="start" x="393.52" y="-1237.54" font-family="Times,serif" text-decoration="underline" font-size="12.00">Hinweis:</text>
<text text-anchor="start" x="393.52" y="-1225.54" font-family="Times,serif" font-size="12.00">Cluster: Ablehnung</text>
<text text-anchor="start" x="393.52" y="-1213.54" font-family="Times,serif" font-size="12.00">Sperrauftrag f&#252;r Marktlokation liegt bereits vor.</text>
</g>
<!-- 20&#45;&gt;A10 -->
<g id="edge4" class="edge">
<title>20-&gt;A10</title>
<path fill="none" stroke="black" d="M708.49,-1333.34C680.37,-1317.4 637.85,-1293.31 602.59,-1273.32"/>
<polygon fill="black" stroke="black" points="604.75,-1269.96 594.32,-1268.07 601.3,-1276.05 604.75,-1269.96"/>
<text text-anchor="middle" x="658.9" y="-1289.65" font-family="Times,serif" font-size="14.00">Ja</text>
</g>
<!-- 30 -->
<g id="node6" class="node">
<title>30</title>
<path fill="#7aab8a" stroke="black" d="M1873.17,-1259.58C1873.17,-1259.58 729.12,-1259.58 729.12,-1259.58 723.12,-1259.58 717.12,-1253.58 717.12,-1247.58 717.12,-1247.58 717.12,-1226.3 717.12,-1226.3 717.12,-1220.3 723.12,-1214.3 729.12,-1214.3 729.12,-1214.3 1873.17,-1214.3 1873.17,-1214.3 1879.17,-1214.3 1885.17,-1220.3 1885.17,-1226.3 1885.17,-1226.3 1885.17,-1247.58 1885.17,-1247.58 1885.17,-1253.58 1879.17,-1259.58 1873.17,-1259.58"/>
<text text-anchor="start" x="731.52" y="-1238.64" font-family="Times,serif" font-weight="bold" font-size="14.00">30: </text>
<text text-anchor="start" x="760.77" y="-1238.64" font-family="Times,serif" font-size="14.00">Ist im gesamten Ausf&#252;hrungszeitraum des Sperrauftrags </text>
<text text-anchor="start" x="731.52" y="-1224.64" font-family="Times,serif" font-size="14.00">(= fr&#252;hestm&#246;glicher Sperrtermin bis fr&#252;hestm&#246;glicher Sperrtermin + 6 WT) der die Sperrung beauftragende LF der zu sperrenden Marktlokation zugeordnet?</text>
</g>
<!-- 20&#45;&gt;30 -->
<g id="edge5" class="edge">
<title>20-&gt;30</title>
<path fill="none" stroke="black" d="M826.35,-1333.21C921.38,-1314.14 1074.07,-1283.51 1180.56,-1262.14"/>
<polygon fill="black" stroke="black" points="1180.92,-1265.43 1190.04,-1260.04 1179.54,-1258.57 1180.92,-1265.43"/>
<text text-anchor="middle" x="1071.02" y="-1289.65" font-family="Times,serif" font-size="14.00">Nein</text>
</g>
<!-- A11 -->
<g id="node7" class="node">
<title>A11</title>
<polygon fill="#cfb986" stroke="black" points="1515.76,-1152.93 614.53,-1152.93 614.53,-1079.41 1515.76,-1079.41 1515.76,-1152.93"/>
<text text-anchor="start" x="1050.15" y="-1134.87" font-family="Times,serif" font-weight="bold" font-size="14.00">A11</text>
<text text-anchor="start" x="626.77" y="-1122.77" font-family="Times,serif" text-decoration="underline" font-size="12.00">Hinweis:</text>
<text text-anchor="start" x="626.77" y="-1110.77" font-family="Times,serif" font-size="12.00">Cluster: Ablehnung</text>
<text text-anchor="start" x="626.77" y="-1098.77" font-family="Times,serif" font-size="12.00">Zuk&#252;nftiger best&#228;tigter Lieferbeginn liegt gegen&#252;ber anderem Lieferanten bereits vor.</text>
<text text-anchor="start" x="626.77" y="-1086.77" font-family="Times,serif" font-size="12.00">Die Ausf&#252;hrungsfrist der 6 WT ab dem fr&#252;hestm&#246;glichen Sperrtermin ber&#252;hrt das best&#228;tigte Lieferbeginndatum gegen&#252;ber anderem Lieferanten.</text>
</g>
<!-- 30&#45;&gt;A11 -->
<g id="edge6" class="edge">
<title>30-&gt;A11</title>
<path fill="none" stroke="black" d="M1257.31,-1213.88C1226.35,-1198.3 1183.94,-1176.95 1146.84,-1158.28"/>
<polygon fill="black" stroke="black" points="1148.54,-1154.71 1138.03,-1153.34 1145.39,-1160.97 1148.54,-1154.71"/>
<text text-anchor="middle" x="1222.02" y="-1174.88" font-family="Times,serif" font-size="14.00">Nein</text>
</g>
<!-- 40 -->
<g id="node8" class="node">
<title>40</title>
<path fill="#7aab8a" stroke="black" d="M2360.55,-1134.17C2360.55,-1134.17 1545.75,-1134.17 1545.75,-1134.17 1539.75,-1134.17 1533.75,-1128.17 1533.75,-1122.17 1533.75,-1122.17 1533.75,-1110.17 1533.75,-1110.17 1533.75,-1104.17 1539.75,-1098.17 1545.75,-1098.17 1545.75,-1098.17 2360.55,-1098.17 2360.55,-1098.17 2366.55,-1098.17 2372.55,-1104.17 2372.55,-1110.17 2372.55,-1110.17 2372.55,-1122.17 2372.55,-1122.17 2372.55,-1128.17 2366.55,-1134.17 2360.55,-1134.17"/>
<text text-anchor="start" x="1548.15" y="-1112.5" font-family="Times,serif" font-weight="bold" font-size="14.00">40: </text>
<text text-anchor="start" x="1577.4" y="-1112.5" font-family="Times,serif" font-size="14.00">Liegt an der zu sperrenden Marktlokation eine 1:1-Beziehung zwischen Marktlokation und Messlokation vor?</text>
</g>
<!-- 30&#45;&gt;40 -->
<g id="edge7" class="edge">
<title>30-&gt;40</title>
<path fill="none" stroke="black" d="M1422.64,-1213.81C1544.47,-1191.62 1730.22,-1157.78 1846.51,-1136.6"/>
<polygon fill="black" stroke="black" points="1846.98,-1139.89 1856.19,-1134.65 1845.73,-1133 1846.98,-1139.89"/>
<text text-anchor="middle" x="1653.9" y="-1174.88" font-family="Times,serif" font-size="14.00">Ja</text>
</g>
<!-- A02 -->
<g id="node9" class="node">
<title>A02</title>
<polygon fill="#cfb986" stroke="black" points="2001.14,-1026.16 1591.16,-1026.16 1591.16,-952.64 2001.14,-952.64 2001.14,-1026.16"/>
<text text-anchor="start" x="1781.15" y="-1008.1" font-family="Times,serif" font-weight="bold" font-size="14.00">A02</text>
<text text-anchor="start" x="1603.4" y="-996" font-family="Times,serif" text-decoration="underline" font-size="12.00">Hinweis:</text>
<text text-anchor="start" x="1603.4" y="-984" font-family="Times,serif" font-size="12.00">Cluster: Ablehnung</text>
<text text-anchor="start" x="1603.4" y="-972" font-family="Times,serif" font-size="12.00">Keine 1:1-Beziehung zwischen Marktlokation und Messlokation.</text>
<text text-anchor="start" x="1603.4" y="-960" font-family="Times,serif" font-size="12.00">Hinweis: Gasspezifische Frage</text>
</g>
<!-- 40&#45;&gt;A02 -->
<g id="edge8" class="edge">
<title>40-&gt;A02</title>
<path fill="none" stroke="black" d="M1931.32,-1097.82C1910.4,-1081.19 1877.98,-1055.43 1850.13,-1033.3"/>
<polygon fill="black" stroke="black" points="1852.66,-1030.04 1842.65,-1026.56 1848.3,-1035.52 1852.66,-1030.04"/>
<text text-anchor="middle" x="1901.02" y="-1048.11" font-family="Times,serif" font-size="14.00">Nein</text>
</g>
<!-- 50 -->
<g id="node10" class="node">
<title>50</title>
<path fill="#7aab8a" stroke="black" d="M2707.55,-1007.4C2707.55,-1007.4 2030.75,-1007.4 2030.75,-1007.4 2024.75,-1007.4 2018.75,-1001.4 2018.75,-995.4 2018.75,-995.4 2018.75,-983.4 2018.75,-983.4 2018.75,-977.4 2024.75,-971.4 2030.75,-971.4 2030.75,-971.4 2707.55,-971.4 2707.55,-971.4 2713.55,-971.4 2719.55,-977.4 2719.55,-983.4 2719.55,-983.4 2719.55,-995.4 2719.55,-995.4 2719.55,-1001.4 2713.55,-1007.4 2707.55,-1007.4"/>
<text text-anchor="start" x="2033.15" y="-985.73" font-family="Times,serif" font-weight="bold" font-size="14.00">50: </text>
<text text-anchor="start" x="2062.4" y="-985.73" font-family="Times,serif" font-size="14.00">Wird die zu sperrende Marktlokation auf Basis von Grund- und Arbeitspreis abgerechnet?</text>
</g>
<!-- 40&#45;&gt;50 -->
<g id="edge9" class="edge">
<title>40-&gt;50</title>
<path fill="none" stroke="black" d="M2011.43,-1097.69C2087.45,-1074.89 2220.23,-1035.07 2300.88,-1010.88"/>
<polygon fill="black" stroke="black" points="2301.36,-1014.09 2309.93,-1007.86 2299.34,-1007.38 2301.36,-1014.09"/>
<text text-anchor="middle" x="2192.9" y="-1048.11" font-family="Times,serif" font-size="14.00">Ja</text>
</g>
<!-- A03 -->
<g id="node11" class="node">
<title>A03</title>
<polygon fill="#cfb986" stroke="black" points="2423.76,-899.39 1930.53,-899.39 1930.53,-825.87 2423.76,-825.87 2423.76,-899.39"/>
<text text-anchor="start" x="2162.15" y="-881.33" font-family="Times,serif" font-weight="bold" font-size="14.00">A03</text>
<text text-anchor="start" x="1942.77" y="-869.23" font-family="Times,serif" text-decoration="underline" font-size="12.00">Hinweis:</text>
<text text-anchor="start" x="1942.77" y="-857.23" font-family="Times,serif" font-size="12.00">Cluster: Ablehnung</text>
<text text-anchor="start" x="1942.77" y="-845.23" font-family="Times,serif" font-size="12.00">Marktlokation wird nicht auf Basis von Grund- und Arbeitspreis abgerechnet.</text>
<text text-anchor="start" x="1942.77" y="-833.23" font-family="Times,serif" font-size="12.00">Hinweis: Gasspezifische Frage</text>
</g>
<!-- 50&#45;&gt;A03 -->
<g id="edge10" class="edge">
<title>50-&gt;A03</title>
<path fill="none" stroke="black" d="M2342.45,-971.05C2316.54,-954.21 2276.19,-927.99 2241.85,-905.67"/>
<polygon fill="black" stroke="black" points="2244.09,-902.31 2233.8,-899.79 2240.28,-908.18 2244.09,-902.31"/>
<text text-anchor="middle" x="2302.02" y="-921.34" font-family="Times,serif" font-size="14.00">Nein</text>
</g>
<!-- 60 -->
<g id="node12" class="node">
<title>60</title>
<path fill="#7aab8a" stroke="black" d="M3322.17,-880.63C3322.17,-880.63 2454.12,-880.63 2454.12,-880.63 2448.12,-880.63 2442.12,-874.63 2442.12,-868.63 2442.12,-868.63 2442.12,-856.63 2442.12,-856.63 2442.12,-850.63 2448.12,-844.63 2454.12,-844.63 2454.12,-844.63 3322.17,-844.63 3322.17,-844.63 3328.17,-844.63 3334.17,-850.63 3334.17,-856.63 3334.17,-856.63 3334.17,-868.63 3334.17,-868.63 3334.17,-874.63 3328.17,-880.63 3322.17,-880.63"/>
<text text-anchor="start" x="2456.52" y="-858.96" font-family="Times,serif" font-weight="bold" font-size="14.00">60: </text>
<text text-anchor="start" x="2485.77" y="-858.96" font-family="Times,serif" font-size="14.00">Sind weitere Marktlokationen von der Sperrung betroffen, f&#252;r die dieser Sperrauftrag keine Wirkung entfalten darf?</text>
</g>
<!-- 50&#45;&gt;60 -->
<g id="edge11" class="edge">
<title>50-&gt;60</title>
<path fill="none" stroke="black" d="M2441.86,-970.92C2537.38,-947.96 2704.72,-907.73 2805.11,-883.59"/>
<polygon fill="black" stroke="black" points="2805.61,-886.83 2814.51,-881.09 2803.97,-880.03 2805.61,-886.83"/>
<text text-anchor="middle" x="2666.9" y="-921.34" font-family="Times,serif" font-size="14.00">Ja</text>
</g>
<!-- A04 -->
<g id="node13" class="node">
<title>A04</title>
<polygon fill="#cfb986" stroke="black" points="2937.76,-772.62 2486.53,-772.62 2486.53,-711.1 2937.76,-711.1 2937.76,-772.62"/>
<text text-anchor="start" x="2697.15" y="-754.56" font-family="Times,serif" font-weight="bold" font-size="14.00">A04</text>
<text text-anchor="start" x="2498.77" y="-742.46" font-family="Times,serif" text-decoration="underline" font-size="12.00">Hinweis:</text>
<text text-anchor="start" x="2498.77" y="-730.46" font-family="Times,serif" font-size="12.00">Cluster: Ablehnung</text>
<text text-anchor="start" x="2498.77" y="-718.46" font-family="Times,serif" font-size="12.00">Mindestens eine weitere Marktlokation ist von der Sperrung betroffen.</text>
</g>
<!-- 60&#45;&gt;A04 -->
<g id="edge12" class="edge">
<title>60-&gt;A04</title>
<path fill="none" stroke="black" d="M2862.56,-844.36C2837.29,-827.31 2797.87,-800.7 2765.72,-779.01"/>
<polygon fill="black" stroke="black" points="2768.11,-775.73 2757.87,-773.04 2764.2,-781.53 2768.11,-775.73"/>
<text text-anchor="middle" x="2812.9" y="-794.57" font-family="Times,serif" font-size="14.00">Ja</text>
</g>
<!-- 70 -->
<g id="node14" class="node">
<title>70</title>
<path fill="#7aab8a" stroke="black" d="M3792.42,-759.86C3792.42,-759.86 2967.87,-759.86 2967.87,-759.86 2961.87,-759.86 2955.87,-753.86 2955.87,-747.86 2955.87,-747.86 2955.87,-735.86 2955.87,-735.86 2955.87,-729.86 2961.87,-723.86 2967.87,-723.86 2967.87,-723.86 3792.42,-723.86 3792.42,-723.86 3798.42,-723.86 3804.42,-729.86 3804.42,-735.86 3804.42,-735.86 3804.42,-747.86 3804.42,-747.86 3804.42,-753.86 3798.42,-759.86 3792.42,-759.86"/>
<text text-anchor="start" x="2970.27" y="-738.19" font-family="Times,serif" font-weight="bold" font-size="14.00">70: </text>
<text text-anchor="start" x="2999.52" y="-738.19" font-family="Times,serif" font-size="14.00">Liegt im gesamten Ausf&#252;hrungszeitraum ein best&#228;tigter Lieferbeginn gegen&#252;ber dem beauftragenden LF vor?</text>
</g>
<!-- 60&#45;&gt;70 -->
<g id="edge13" class="edge">
<title>60-&gt;70</title>
<path fill="none" stroke="black" d="M2960.48,-844.17C3050.24,-822.5 3202.96,-785.63 3297.33,-762.85"/>
<polygon fill="black" stroke="black" points="3298.07,-766.03 3306.97,-760.28 3296.43,-759.23 3298.07,-766.03"/>
<text text-anchor="middle" x="3196.02" y="-794.57" font-family="Times,serif" font-size="14.00">Nein</text>
</g>
<!-- A12 -->
<g id="node15" class="node">
<title>A12</title>
<polygon fill="#cfb986" stroke="black" points="3543.14,-657.85 2881.16,-657.85 2881.16,-596.33 3543.14,-596.33 3543.14,-657.85"/>
<text text-anchor="start" x="3197.15" y="-639.79" font-family="Times,serif" font-weight="bold" font-size="14.00">A12</text>
<text text-anchor="start" x="2893.4" y="-627.69" font-family="Times,serif" text-decoration="underline" font-size="12.00">Hinweis:</text>
<text text-anchor="start" x="2893.4" y="-615.69" font-family="Times,serif" font-size="12.00">Cluster: Ablehnung</text>
<text text-anchor="start" x="2893.4" y="-603.69" font-family="Times,serif" font-size="12.00">Im Ausf&#252;hrungszeitraum liegt bereits ein best&#228;tigter Lieferbeginn gegen&#252;ber dem beauftragenden LF vor.</text>
</g>
<!-- 70&#45;&gt;A12 -->
<g id="edge14" class="edge">
<title>70-&gt;A12</title>
<path fill="none" stroke="black" d="M3354.27,-723.49C3330.83,-707.75 3295.55,-684.07 3266,-664.24"/>
<polygon fill="black" stroke="black" points="3268.29,-660.89 3258.04,-658.22 3264.39,-666.7 3268.29,-660.89"/>
<text text-anchor="middle" x="3313.9" y="-679.8" font-family="Times,serif" font-size="14.00">Ja</text>
</g>
<!-- 80 -->
<g id="node16" class="node">
<title>80</title>
<path fill="#7aab8a" stroke="black" d="M4126.67,-645.09C4126.67,-645.09 3573.62,-645.09 3573.62,-645.09 3567.62,-645.09 3561.62,-639.09 3561.62,-633.09 3561.62,-633.09 3561.62,-621.09 3561.62,-621.09 3561.62,-615.09 3567.62,-609.09 3573.62,-609.09 3573.62,-609.09 4126.67,-609.09 4126.67,-609.09 4132.67,-609.09 4138.67,-615.09 4138.67,-621.09 4138.67,-621.09 4138.67,-633.09 4138.67,-633.09 4138.67,-639.09 4132.67,-645.09 4126.67,-645.09"/>
<text text-anchor="start" x="3576.02" y="-623.42" font-family="Times,serif" font-weight="bold" font-size="14.00">80: </text>
<text text-anchor="start" x="3605.27" y="-623.42" font-family="Times,serif" font-size="14.00">Liegt ein Verhinderungsgrund einer Sperrung an der Marktlokation vor?</text>
</g>
<!-- 70&#45;&gt;80 -->
<g id="edge15" class="edge">
<title>70-&gt;80</title>
<path fill="none" stroke="black" d="M3453.07,-723.36C3537.93,-703 3677.77,-669.45 3766.84,-648.08"/>
<polygon fill="black" stroke="black" points="3767.54,-651.27 3776.44,-645.53 3765.9,-644.46 3767.54,-651.27"/>
<text text-anchor="middle" x="3661.02" y="-679.8" font-family="Times,serif" font-size="14.00">Nein</text>
</g>
<!-- A05 -->
<g id="node17" class="node">
<title>A05</title>
<polygon fill="#cfb986" stroke="black" points="3905.76,-543.08 3610.53,-543.08 3610.53,-457.56 3905.76,-457.56 3905.76,-543.08"/>
<text text-anchor="start" x="3743.15" y="-525.02" font-family="Times,serif" font-weight="bold" font-size="14.00">A05</text>
<text text-anchor="start" x="3622.77" y="-512.92" font-family="Times,serif" text-decoration="underline" font-size="12.00">Hinweis:</text>
<text text-anchor="start" x="3622.77" y="-500.92" font-family="Times,serif" font-size="12.00">Cluster: Ablehnung</text>
<text text-anchor="start" x="3622.77" y="-488.92" font-family="Times,serif" font-size="12.00">Verhinderungsgrund liegt vor.</text>
<text text-anchor="start" x="3622.77" y="-476.92" font-family="Times,serif" font-size="12.00">Hinweis: Das identifizierte Problem ist in der</text>
<text text-anchor="start" x="3622.77" y="-464.92" font-family="Times,serif" font-size="12.00"> Antwort zu beschreiben/benennen.</text>
</g>
<!-- 80&#45;&gt;A05 -->
<g id="edge16" class="edge">
<title>80-&gt;A05</title>
<path fill="none" stroke="black" d="M3837.36,-608.74C3826.56,-594.1 3810.54,-572.37 3795.73,-552.28"/>
<polygon fill="black" stroke="black" points="3798,-550.47 3789.25,-544.5 3792.37,-554.63 3798,-550.47"/>
<text text-anchor="middle" x="3819.9" y="-565.03" font-family="Times,serif" font-size="14.00">Ja</text>
</g>
<!-- 90 -->
<g id="node18" class="node">
<title>90</title>
<path fill="#7aab8a" stroke="black" d="M4244.8,-518.32C4244.8,-518.32 3935.5,-518.32 3935.5,-518.32 3929.5,-518.32 3923.5,-512.32 3923.5,-506.32 3923.5,-506.32 3923.5,-494.32 3923.5,-494.32 3923.5,-488.32 3929.5,-482.32 3935.5,-482.32 3935.5,-482.32 4244.8,-482.32 4244.8,-482.32 4250.8,-482.32 4256.8,-488.32 4256.8,-494.32 4256.8,-494.32 4256.8,-506.32 4256.8,-506.32 4256.8,-512.32 4250.8,-518.32 4244.8,-518.32"/>
<text text-anchor="start" x="3937.9" y="-496.64" font-family="Times,serif" font-weight="bold" font-size="14.00">90: </text>
<text text-anchor="start" x="3967.15" y="-496.64" font-family="Times,serif" font-size="14.00">Ist der Sperrauftrag termingebunden?</text>
</g>
<!-- 80&#45;&gt;90 -->
<g id="edge17" class="edge">
<title>80-&gt;90</title>
<path fill="none" stroke="black" d="M3883.77,-608.61C3926.53,-586.38 4000.41,-547.97 4047.2,-523.65"/>
<polygon fill="black" stroke="black" points="4048.5,-526.4 4055.75,-518.68 4045.27,-520.19 4048.5,-526.4"/>
<text text-anchor="middle" x="3987.02" y="-565.03" font-family="Times,serif" font-size="14.00">Nein</text>
</g>
<!-- 100 -->
<g id="node19" class="node">
<title>100</title>
<path fill="#7aab8a" stroke="black" d="M3925.92,-404.31C3925.92,-404.31 3056.37,-404.31 3056.37,-404.31 3050.37,-404.31 3044.37,-398.31 3044.37,-392.31 3044.37,-392.31 3044.37,-380.31 3044.37,-380.31 3044.37,-374.31 3050.37,-368.31 3056.37,-368.31 3056.37,-368.31 3925.92,-368.31 3925.92,-368.31 3931.92,-368.31 3937.92,-374.31 3937.92,-380.31 3937.92,-380.31 3937.92,-392.31 3937.92,-392.31 3937.92,-398.31 3931.92,-404.31 3925.92,-404.31"/>
<text text-anchor="start" x="3058.77" y="-382.63" font-family="Times,serif" font-weight="bold" font-size="14.00">100: </text>
<text text-anchor="start" x="3097.77" y="-382.63" font-family="Times,serif" font-size="14.00">Liegt der &#252;bermittelte Sperrtermin mindestens 12 WT nach dem Eingangsdatum der Nachricht des Sperrauftrags?</text>
</g>
<!-- 90&#45;&gt;100 -->
<g id="edge18" class="edge">
<title>90-&gt;100</title>
<path fill="none" stroke="black" d="M4021.83,-481.84C3989.59,-473.9 3950.51,-464.7 3915.15,-457.56 3816.96,-437.73 3705.14,-419.38 3620.99,-406.41"/>
<polygon fill="black" stroke="black" points="3621.77,-402.83 3611.35,-404.78 3620.71,-409.75 3621.77,-402.83"/>
<text text-anchor="middle" x="3817.9" y="-426.26" font-family="Times,serif" font-size="14.00">Ja</text>
</g>
<!-- 110 -->
<g id="node21" class="node">
<title>110</title>
<path fill="#7aab8a" stroke="black" d="M4948.8,-404.31C4948.8,-404.31 3967.5,-404.31 3967.5,-404.31 3961.5,-404.31 3955.5,-398.31 3955.5,-392.31 3955.5,-392.31 3955.5,-380.31 3955.5,-380.31 3955.5,-374.31 3961.5,-368.31 3967.5,-368.31 3967.5,-368.31 4948.8,-368.31 4948.8,-368.31 4954.8,-368.31 4960.8,-374.31 4960.8,-380.31 4960.8,-380.31 4960.8,-392.31 4960.8,-392.31 4960.8,-398.31 4954.8,-404.31 4948.8,-404.31"/>
<text text-anchor="start" x="3969.9" y="-382.63" font-family="Times,serif" font-weight="bold" font-size="14.00">110: </text>
<text text-anchor="start" x="4008.9" y="-382.63" font-family="Times,serif" font-size="14.00">Liegt der &#252;bermittelte fr&#252;hestm&#246;gliche Sperrtermin mindestens 6 WT nach dem Eingangsdatum der Nachricht des Sperrauftrags?</text>
</g>
<!-- 90&#45;&gt;110 -->
<g id="edge19" class="edge">
<title>90-&gt;110</title>
<path fill="none" stroke="black" d="M4147.25,-481.94C4212.92,-461.95 4320.64,-429.16 4390.48,-407.91"/>
<polygon fill="black" stroke="black" points="4391.37,-410.99 4399.92,-404.73 4389.33,-404.29 4391.37,-410.99"/>
<text text-anchor="middle" x="4355.02" y="-426.26" font-family="Times,serif" font-size="14.00">Nein</text>
</g>
<!-- A06 -->
<g id="node20" class="node">
<title>A06</title>
<polygon fill="#cfb986" stroke="black" points="3681.51,-315.06 3300.78,-315.06 3300.78,-253.54 3681.51,-253.54 3681.51,-315.06"/>
<text text-anchor="start" x="3476.15" y="-297" font-family="Times,serif" font-weight="bold" font-size="14.00">A06</text>
<text text-anchor="start" x="3313.02" y="-284.9" font-family="Times,serif" text-decoration="underline" font-size="12.00">Hinweis:</text>
<text text-anchor="start" x="3313.02" y="-272.9" font-family="Times,serif" font-size="12.00">Cluster: Ablehnung</text>
<text text-anchor="start" x="3313.02" y="-260.9" font-family="Times,serif" font-size="12.00">Fristverletzung bei einem termingebundenen Sperrauftrag.</text>
</g>
<!-- 100&#45;&gt;A06 -->
<g id="edge20" class="edge">
<title>100-&gt;A06</title>
<path fill="none" stroke="black" d="M3491.15,-367.89C3491.15,-356.38 3491.15,-340.8 3491.15,-326.27"/>
<polygon fill="black" stroke="black" points="3494.65,-326.45 3491.15,-316.45 3487.65,-326.45 3494.65,-326.45"/>
<text text-anchor="middle" x="3508.02" y="-337.01" font-family="Times,serif" font-size="14.00">Nein</text>
</g>
<!-- 120 -->
<g id="node23" class="node">
<title>120</title>
<path fill="#7aab8a" stroke="black" d="M4175.17,-302.3C4175.17,-302.3 3757.12,-302.3 3757.12,-302.3 3751.12,-302.3 3745.12,-296.3 3745.12,-290.3 3745.12,-290.3 3745.12,-278.3 3745.12,-278.3 3745.12,-272.3 3751.12,-266.3 3757.12,-266.3 3757.12,-266.3 4175.17,-266.3 4175.17,-266.3 4181.17,-266.3 4187.17,-272.3 4187.17,-278.3 4187.17,-278.3 4187.17,-290.3 4187.17,-290.3 4187.17,-296.3 4181.17,-302.3 4175.17,-302.3"/>
<text text-anchor="start" x="3759.52" y="-280.62" font-family="Times,serif" font-weight="bold" font-size="14.00">120: </text>
<text text-anchor="start" x="3798.52" y="-280.62" font-family="Times,serif" font-size="14.00">Ist ein zuvor nicht spezifizierter Fehler aufgetreten?</text>
</g>
<!-- 100&#45;&gt;120 -->
<g id="edge21" class="edge">
<title>100-&gt;120</title>
<path fill="none" stroke="black" d="M3574.16,-367.83C3657.51,-350.28 3785.71,-323.29 3872.61,-304.99"/>
<polygon fill="black" stroke="black" points="3873.2,-308.24 3882.26,-302.75 3871.76,-301.39 3873.2,-308.24"/>
<text text-anchor="middle" x="3735.9" y="-337.01" font-family="Times,serif" font-size="14.00">Ja</text>
</g>
<!-- A07 -->
<g id="node22" class="node">
<title>A07</title>
<polygon fill="#cfb986" stroke="black" points="4665.39,-315.06 4250.91,-315.06 4250.91,-253.54 4665.39,-253.54 4665.39,-315.06"/>
<text text-anchor="start" x="4443.15" y="-297" font-family="Times,serif" font-weight="bold" font-size="14.00">A07</text>
<text text-anchor="start" x="4263.15" y="-284.9" font-family="Times,serif" text-decoration="underline" font-size="12.00">Hinweis:</text>
<text text-anchor="start" x="4263.15" y="-272.9" font-family="Times,serif" font-size="12.00">Cluster: Ablehnung</text>
<text text-anchor="start" x="4263.15" y="-260.9" font-family="Times,serif" font-size="12.00">Fristverletzung bei einem nicht termingebundenen Sperrauftrag.</text>
</g>
<!-- 110&#45;&gt;A07 -->
<g id="edge22" class="edge">
<title>110-&gt;A07</title>
<path fill="none" stroke="black" d="M4458.15,-367.89C4458.15,-356.38 4458.15,-340.8 4458.15,-326.27"/>
<polygon fill="black" stroke="black" points="4461.65,-326.45 4458.15,-316.45 4454.65,-326.45 4461.65,-326.45"/>
<text text-anchor="middle" x="4475.02" y="-337.01" font-family="Times,serif" font-size="14.00">Nein</text>
</g>
<!-- 110&#45;&gt;120 -->
<g id="edge23" class="edge">
<title>110-&gt;120</title>
<path fill="none" stroke="black" d="M4372.17,-367.83C4285.75,-350.27 4152.78,-323.24 4062.76,-304.94"/>
<polygon fill="black" stroke="black" points="4063.5,-301.31 4053,-302.75 4062.11,-308.17 4063.5,-301.31"/>
<text text-anchor="middle" x="4291.9" y="-337.01" font-family="Times,serif" font-size="14.00">Ja</text>
</g>
<!-- A99 -->
<g id="node24" class="node">
<title>A99</title>
<polygon fill="#cfb986" stroke="black" points="3989.14,-200.29 3663.16,-200.29 3663.16,-114.77 3989.14,-114.77 3989.14,-200.29"/>
<text text-anchor="start" x="3811.15" y="-182.23" font-family="Times,serif" font-weight="bold" font-size="14.00">A99</text>
<text text-anchor="start" x="3675.4" y="-170.13" font-family="Times,serif" text-decoration="underline" font-size="12.00">Hinweis:</text>
<text text-anchor="start" x="3675.4" y="-158.13" font-family="Times,serif" font-size="12.00">Cluster: Ablehnung Sonstiges</text>
<text text-anchor="start" x="3675.4" y="-146.13" font-family="Times,serif" font-size="12.00">Hinweis: Das identifizierte Problem ist in der </text>
<text text-anchor="start" x="3675.4" y="-134.13" font-family="Times,serif" font-size="12.00">Antwort zu beschreiben/benennen.</text>
<text text-anchor="start" x="3675.4" y="-122.13" font-family="Times,serif" font-size="12.00">Nutzungsm&#246;glichkeit Ende: 01.10.2024 00:00 Uhr</text>
</g>
<!-- 120&#45;&gt;A99 -->
<g id="edge24" class="edge">
<title>120-&gt;A99</title>
<path fill="none" stroke="black" d="M3946.68,-265.95C3929.81,-250.92 3904.56,-228.41 3881.52,-207.88"/>
<polygon fill="black" stroke="black" points="3884.27,-205.75 3874.48,-201.71 3879.62,-210.98 3884.27,-205.75"/>
<text text-anchor="middle" x="3915.9" y="-222.24" font-family="Times,serif" font-size="14.00">Ja</text>
</g>
<!-- 130 -->
<g id="node25" class="node">
<title>130</title>
<path fill="#7aab8a" stroke="black" d="M4681.05,-175.53C4681.05,-175.53 4019.25,-175.53 4019.25,-175.53 4013.25,-175.53 4007.25,-169.53 4007.25,-163.53 4007.25,-163.53 4007.25,-151.53 4007.25,-151.53 4007.25,-145.53 4013.25,-139.53 4019.25,-139.53 4019.25,-139.53 4681.05,-139.53 4681.05,-139.53 4687.05,-139.53 4693.05,-145.53 4693.05,-151.53 4693.05,-151.53 4693.05,-163.53 4693.05,-163.53 4693.05,-169.53 4687.05,-175.53 4681.05,-175.53"/>
<text text-anchor="start" x="4021.65" y="-153.85" font-family="Times,serif" font-weight="bold" font-size="14.00">130: </text>
<text text-anchor="start" x="4060.65" y="-153.85" font-family="Times,serif" font-size="14.00">Kann der Sperrauftrag pauschal &#252;ber das elektronische Preisblatt abgebildet werden?</text>
</g>
<!-- 120&#45;&gt;130 -->
<g id="edge25" class="edge">
<title>120-&gt;130</title>
<path fill="none" stroke="black" d="M4019.95,-265.82C4089.83,-243.11 4211.69,-203.52 4286.22,-179.3"/>
<polygon fill="black" stroke="black" points="4286.98,-182.41 4295.41,-175.99 4284.81,-175.75 4286.98,-182.41"/>
<text text-anchor="middle" x="4175.02" y="-222.24" font-family="Times,serif" font-size="14.00">Nein</text>
</g>
<!-- A08 -->
<g id="node26" class="node">
<title>A08</title>
<polygon fill="#cfb986" stroke="black" points="4327.51,-61.52 3940.78,-61.52 3940.78,0 4327.51,0 4327.51,-61.52"/>
<text text-anchor="start" x="4119.15" y="-43.46" font-family="Times,serif" font-weight="bold" font-size="14.00">A08</text>
<text text-anchor="start" x="3953.02" y="-31.36" font-family="Times,serif" text-decoration="underline" font-size="12.00">Hinweis:</text>
<text text-anchor="start" x="3953.02" y="-19.36" font-family="Times,serif" font-size="12.00">Cluster: Zustimmung</text>
<text text-anchor="start" x="3953.02" y="-7.36" font-family="Times,serif" font-size="12.00">Sperrung wird &#252;ber das elektronische Preisblatt abgebildet.</text>
</g>
<!-- 130&#45;&gt;A08 -->
<g id="edge26" class="edge">
<title>130-&gt;A08</title>
<path fill="none" stroke="black" d="M4320.12,-139.18C4288.07,-120.67 4236.41,-90.83 4195.66,-67.29"/>
<polygon fill="black" stroke="black" points="4197.76,-63.88 4187.35,-61.91 4194.26,-69.95 4197.76,-63.88"/>
<text text-anchor="middle" x="4248.9" y="-83.47" font-family="Times,serif" font-size="14.00">Ja</text>
</g>
<!-- A09 -->
<g id="node27" class="node">
<title>A09</title>
<polygon fill="#cfb986" stroke="black" points="4787.26,-61.52 4345.03,-61.52 4345.03,0 4787.26,0 4787.26,-61.52"/>
<text text-anchor="start" x="4551.15" y="-43.46" font-family="Times,serif" font-weight="bold" font-size="14.00">A09</text>
<text text-anchor="start" x="4357.27" y="-31.36" font-family="Times,serif" text-decoration="underline" font-size="12.00">Hinweis:</text>
<text text-anchor="start" x="4357.27" y="-19.36" font-family="Times,serif" font-size="12.00">Cluster: Zustimmung</text>
<text text-anchor="start" x="4357.27" y="-7.36" font-family="Times,serif" font-size="12.00">Die individuellen Sperrkosten werden in der Nachricht ausgetauscht.</text>
</g>
<!-- 130&#45;&gt;A09 -->
<g id="edge27" class="edge">
<title>130-&gt;A09</title>
<path fill="none" stroke="black" d="M4380.18,-139.18C4412.23,-120.67 4463.89,-90.83 4504.64,-67.29"/>
<polygon fill="black" stroke="black" points="4506.04,-69.95 4512.95,-61.91 4502.54,-63.88 4506.04,-69.95"/>
<text text-anchor="middle" x="4494.02" y="-83.47" font-family="Times,serif" font-size="14.00">Nein</text>
</g>
</g>
</svg>
  </g>
</svg>
  </g>
</svg>
