<svg xmlns="http://www.w3.org/2000/svg" xmlns:xlink="http://www.w3.org/1999/xlink" version="1.1" width="1817.3333333333333px" viewBox="0 0 1817.3333333333333 1920.0" height="1920.0px">
  <g>
    <svg version="1.1" width="1817.3333333333333px" viewBox="0 0 1817.3333333333333 1920.0" height="1920.0px">
  <rect fill="#e7e6e5" x="0" y="0" width="1817.3333333333333" height="1920.0" rx="20" ry="20"/><g>
    <g transform="translate(181.7333333333333, 246.97182054646316) scale(1 1) translate(0, 0) scale(2.5099555739704904 2.5099555739704904) "><defs>
    <style>.cls-1{fill:#ffffff88;}</style>
    <!--
    ffffff88 is white with 50% transparency; this matches the colour of the tesa strip on
    ebd.hochfrequenz.de where it crosses the diagram SVG:
    https://github.com/Hochfrequenz/entscheidungsbaumdiagramme/blob/01bd43fa0f1d0333fa93596bc8b9fd1e4b285c8c/src/lib/components/features/svg-container.svelte#L54
    -->
  </defs>
  <path class="cls-1" d="M122.44,531.2h-56.1c-11,0-19.9-9.12-19.46-20.11C57.47,243.89,278.15,29.78,547.91,29.78v56.02c0,10.98-8.69,19.89-19.66,20.39-225.51,10.31-405.8,197-405.8,425Z"/>
  <path class="cls-1" d="M273.78,531.2h-55.93c-11.23,0-20.09-9.48-19.43-20.69,10.74-183.44,163.39-329.39,349.48-329.39v56.26c0,10.71-8.27,19.62-18.96,20.35-142.35,9.77-255.17,128.69-255.17,273.46Z"/>
  <path class="cls-1" d="M425.77,531.2h-55.45c-11.65,0-20.6-10.17-19.33-21.75,10.87-99.03,95.03-176.34,196.92-176.34v57.01c0,10.05-7.28,18.75-17.23,20.16-59.22,8.4-104.91,59.42-104.91,120.92Z"/>
</g>
    <svg width="1363pt" height="1440pt" viewBox="0.00 0.00 1362.94 1440.00">
<g id="graph0" class="graph" transform="scale(0.953908 0.953908) rotate(0) translate(18 1491.58)">
<title>D</title>
<text text-anchor="start" x="208.9" y="-1453.48" font-family="Roboto, sans-serif" font-weight="bold" font-size="18.00">MaBiS</text>
<text text-anchor="start" x="208.9" y="-1425.38" font-family="Roboto, sans-serif" font-weight="bold" font-size="16.00">7.20.1: AD: Aktivierung eines MaBiS-ZP für Bilanzierungsgebietssummenzeitreihen vom ÜNB an BIKO und NB</text>
<!-- Start -->
<g id="node1" class="node">
<title>Start</title>
<path fill="#8ba2d7" stroke="black" stroke-width="0" d="M373.42,-1383.58C373.42,-1383.58 220.87,-1383.58 220.87,-1383.58 214.87,-1383.58 208.87,-1377.58 208.87,-1371.58 208.87,-1371.58 208.87,-1350.3 208.87,-1350.3 208.87,-1344.3 214.87,-1338.3 220.87,-1338.3 220.87,-1338.3 373.42,-1338.3 373.42,-1338.3 379.42,-1338.3 385.42,-1344.3 385.42,-1350.3 385.42,-1350.3 385.42,-1371.58 385.42,-1371.58 385.42,-1377.58 379.42,-1383.58 373.42,-1383.58"/>
<text text-anchor="start" x="223.27" y="-1362.64" font-family="Roboto, sans-serif" font-weight="bold" font-size="14.00">E_0015</text>
<text text-anchor="start" x="223.27" y="-1348.64" font-family="Roboto, sans-serif" font-size="14.00">Prüfende Rolle: </text>
<text text-anchor="start" x="332.77" y="-1348.64" font-family="Roboto, sans-serif" font-weight="bold" font-size="14.00">BIKO</text>
</g>
<!-- 1 -->
<g id="node2" class="node">
<title>1</title>
<path fill="#c2cee9" stroke="black" stroke-width="0" d="M540.3,-1301.3C540.3,-1301.3 54,-1301.3 54,-1301.3 48,-1301.3 42,-1295.3 42,-1289.3 42,-1289.3 42,-1277.3 42,-1277.3 42,-1271.3 48,-1265.3 54,-1265.3 54,-1265.3 540.3,-1265.3 540.3,-1265.3 546.3,-1265.3 552.3,-1271.3 552.3,-1277.3 552.3,-1277.3 552.3,-1289.3 552.3,-1289.3 552.3,-1295.3 546.3,-1301.3 540.3,-1301.3"/>
<text text-anchor="start" x="56.4" y="-1279.63" font-family="Roboto, sans-serif" font-weight="bold" font-size="14.00">1: </text>
<text text-anchor="start" x="75.9" y="-1279.63" font-family="Roboto, sans-serif" font-size="14.00">Erfolgt die Aktivierung nach Ablauf der Clearingfrist für die KBKA?</text>
</g>
<!-- Start&#45;&gt;1 -->
<g id="edge1" class="edge">
<title>Start-&gt;1</title>
<path fill="none" stroke="#88a0d6" d="M297.15,-1338.47C297.15,-1330.39 297.15,-1321.09 297.15,-1312.49"/>
<polygon fill="#88a0d6" stroke="#88a0d6" points="300.65,-1312.53 297.15,-1302.53 293.65,-1312.53 300.65,-1312.53"/>
</g>
<!-- A01 -->
<g id="node3" class="node">
<title>A01</title>
<path fill="#c4cac1" stroke="black" stroke-width="0" d="M153.05,-1212.05C153.05,-1212.05 13.25,-1212.05 13.25,-1212.05 7.25,-1212.05 1.25,-1206.05 1.25,-1200.05 1.25,-1200.05 1.25,-1150.77 1.25,-1150.77 1.25,-1144.77 7.25,-1138.77 13.25,-1138.77 13.25,-1138.77 153.05,-1138.77 153.05,-1138.77 159.05,-1138.77 165.05,-1144.77 165.05,-1150.77 165.05,-1150.77 165.05,-1200.05 165.05,-1200.05 165.05,-1206.05 159.05,-1212.05 153.05,-1212.05"/>
<text text-anchor="start" x="15.65" y="-1191.11" font-family="Roboto, sans-serif" font-weight="bold" font-size="14.00">A01</text>
<text text-anchor="start" x="15.65" y="-1163.11" font-family="Roboto, sans-serif" font-size="14.00">Cluster: Ablehnung</text>
<text text-anchor="start" x="15.65" y="-1149.11" font-family="Roboto, sans-serif" font-size="14.00">Fristüberschreitung</text>
</g>
<!-- 1&#45;&gt;A01 -->
<g id="edge2" class="edge">
<title>1-&gt;A01</title>
<path fill="none" stroke="#88a0d6" d="M263.24,-1265.52C236.85,-1252.46 199.11,-1233.79 164.98,-1216.9"/>
<polygon fill="#88a0d6" stroke="#88a0d6" points="166.86,-1213.93 156.35,-1212.63 163.76,-1220.2 166.86,-1213.93"/>
<text text-anchor="start" x="221.15" y="-1235" font-family="Roboto, sans-serif" font-weight="bold" font-size="14.00">JA</text>
</g>
<!-- 2 -->
<g id="node4" class="node">
<title>2</title>
<path fill="#c2cee9" stroke="black" stroke-width="0" d="M591.67,-1193.41C591.67,-1193.41 194.62,-1193.41 194.62,-1193.41 188.62,-1193.41 182.62,-1187.41 182.62,-1181.41 182.62,-1181.41 182.62,-1169.41 182.62,-1169.41 182.62,-1163.41 188.62,-1157.41 194.62,-1157.41 194.62,-1157.41 591.67,-1157.41 591.67,-1157.41 597.67,-1157.41 603.67,-1163.41 603.67,-1169.41 603.67,-1169.41 603.67,-1181.41 603.67,-1181.41 603.67,-1187.41 597.67,-1193.41 591.67,-1193.41"/>
<text text-anchor="start" x="197.02" y="-1171.74" font-family="Roboto, sans-serif" font-weight="bold" font-size="14.00">2: </text>
<text text-anchor="start" x="216.52" y="-1171.74" font-family="Roboto, sans-serif" font-size="14.00">Erfolgt die Aktivierung zum Monatsersten 00:00 Uhr?</text>
</g>
<!-- 1&#45;&gt;2 -->
<g id="edge3" class="edge">
<title>1-&gt;2</title>
<path fill="none" stroke="#88a0d6" d="M312.15,-1265.75C327.77,-1248.53 352.42,-1221.33 370.43,-1201.47"/>
<polygon fill="#88a0d6" stroke="#88a0d6" points="372.8,-1204.07 376.92,-1194.31 367.61,-1199.37 372.8,-1204.07"/>
<text text-anchor="start" x="342.15" y="-1235" font-family="Roboto, sans-serif" font-weight="bold" font-size="14.00">NEIN</text>
</g>
<!-- A02 -->
<g id="node5" class="node">
<title>A02</title>
<path fill="#c4cac1" stroke="black" stroke-width="0" d="M263.68,-1085.52C263.68,-1085.52 16.62,-1085.52 16.62,-1085.52 10.62,-1085.52 4.62,-1079.52 4.62,-1073.52 4.62,-1073.52 4.62,-1024.24 4.62,-1024.24 4.62,-1018.24 10.62,-1012.24 16.62,-1012.24 16.62,-1012.24 263.68,-1012.24 263.68,-1012.24 269.68,-1012.24 275.68,-1018.24 275.68,-1024.24 275.68,-1024.24 275.68,-1073.52 275.68,-1073.52 275.68,-1079.52 269.68,-1085.52 263.68,-1085.52"/>
<text text-anchor="start" x="19.03" y="-1064.58" font-family="Roboto, sans-serif" font-weight="bold" font-size="14.00">A02</text>
<text text-anchor="start" x="19.03" y="-1036.58" font-family="Roboto, sans-serif" font-size="14.00">Cluster: Ablehnung</text>
<text text-anchor="start" x="19.03" y="-1022.58" font-family="Roboto, sans-serif" font-size="14.00">Gewählter Zeitpunkt nicht zulässig</text>
</g>
<!-- 2&#45;&gt;A02 -->
<g id="edge4" class="edge">
<title>2-&gt;A02</title>
<path fill="none" stroke="#88a0d6" d="M358.77,-1157.49C323.97,-1140.36 268.87,-1113.24 222.7,-1090.51"/>
<polygon fill="#88a0d6" stroke="#88a0d6" points="224.26,-1087.38 213.74,-1086.1 221.17,-1093.66 224.26,-1087.38"/>
<text text-anchor="start" x="281.15" y="-1108.47" font-family="Roboto, sans-serif" font-weight="bold" font-size="14.00">NEIN</text>
</g>
<!-- 3 -->
<g id="node6" class="node">
<title>3</title>
<path fill="#c2cee9" stroke="black" stroke-width="0" d="M595.05,-1066.88C595.05,-1066.88 305.25,-1066.88 305.25,-1066.88 299.25,-1066.88 293.25,-1060.88 293.25,-1054.88 293.25,-1054.88 293.25,-1042.88 293.25,-1042.88 293.25,-1036.88 299.25,-1030.88 305.25,-1030.88 305.25,-1030.88 595.05,-1030.88 595.05,-1030.88 601.05,-1030.88 607.05,-1036.88 607.05,-1042.88 607.05,-1042.88 607.05,-1054.88 607.05,-1054.88 607.05,-1060.88 601.05,-1066.88 595.05,-1066.88"/>
<text text-anchor="start" x="307.65" y="-1045.2" font-family="Roboto, sans-serif" font-weight="bold" font-size="14.00">3: </text>
<text text-anchor="start" x="327.15" y="-1045.2" font-family="Roboto, sans-serif" font-size="14.00">Ist die richtige Regelzone angegeben?</text>
</g>
<!-- 2&#45;&gt;3 -->
<g id="edge5" class="edge">
<title>2-&gt;3</title>
<path fill="none" stroke="#88a0d6" d="M400.84,-1157.62C410.27,-1137 426.4,-1101.78 437.63,-1077.24"/>
<polygon fill="#88a0d6" stroke="#88a0d6" points="440.79,-1078.73 441.77,-1068.18 434.43,-1075.82 440.79,-1078.73"/>
<text text-anchor="start" x="424.15" y="-1108.47" font-family="Roboto, sans-serif" font-weight="bold" font-size="14.00">JA</text>
</g>
<!-- A03 -->
<g id="node7" class="node">
<title>A03</title>
<path fill="#c4cac1" stroke="black" stroke-width="0" d="M150.3,-958.99C150.3,-958.99 12,-958.99 12,-958.99 6,-958.99 0,-952.99 0,-946.99 0,-946.99 0,-897.71 0,-897.71 0,-891.71 6,-885.71 12,-885.71 12,-885.71 150.3,-885.71 150.3,-885.71 156.3,-885.71 162.3,-891.71 162.3,-897.71 162.3,-897.71 162.3,-946.99 162.3,-946.99 162.3,-952.99 156.3,-958.99 150.3,-958.99"/>
<text text-anchor="start" x="14.4" y="-938.05" font-family="Roboto, sans-serif" font-weight="bold" font-size="14.00">A03</text>
<text text-anchor="start" x="14.4" y="-910.05" font-family="Roboto, sans-serif" font-size="14.00">Cluster: Ablehnung</text>
<text text-anchor="start" x="14.4" y="-896.05" font-family="Roboto, sans-serif" font-size="14.00">Regelzone falsch</text>
</g>
<!-- 3&#45;&gt;A03 -->
<g id="edge6" class="edge">
<title>3-&gt;A03</title>
<path fill="none" stroke="#88a0d6" d="M392.86,-1030.88C338.57,-1014.5 254.58,-988.42 172.75,-959.49"/>
<polygon fill="#88a0d6" stroke="#88a0d6" points="174.02,-956.23 163.43,-956.18 171.68,-962.83 174.02,-956.23"/>
<text text-anchor="start" x="270.15" y="-981.94" font-family="Roboto, sans-serif" font-weight="bold" font-size="14.00">NEIN</text>
</g>
<!-- 4 -->
<g id="node8" class="node">
<title>4</title>
<path fill="#c2cee9" stroke="black" stroke-width="0" d="M820.17,-940.35C820.17,-940.35 192.12,-940.35 192.12,-940.35 186.12,-940.35 180.12,-934.35 180.12,-928.35 180.12,-928.35 180.12,-916.35 180.12,-916.35 180.12,-910.35 186.12,-904.35 192.12,-904.35 192.12,-904.35 820.17,-904.35 820.17,-904.35 826.17,-904.35 832.17,-910.35 832.17,-916.35 832.17,-916.35 832.17,-928.35 832.17,-928.35 832.17,-934.35 826.17,-940.35 820.17,-940.35"/>
<text text-anchor="start" x="194.52" y="-918.67" font-family="Roboto, sans-serif" font-weight="bold" font-size="14.00">4: </text>
<text text-anchor="start" x="214.02" y="-918.67" font-family="Roboto, sans-serif" font-size="14.00">Ist das Bilanzierungsgebiet zum Aktivierungsbeginn in der Regelzone des BIKO gültig?</text>
</g>
<!-- 3&#45;&gt;4 -->
<g id="edge7" class="edge">
<title>3-&gt;4</title>
<path fill="none" stroke="#88a0d6" d="M457.7,-1031.09C466.97,-1010.47 482.81,-975.25 493.85,-950.71"/>
<polygon fill="#88a0d6" stroke="#88a0d6" points="497.01,-952.21 497.92,-941.66 490.62,-949.34 497.01,-952.21"/>
<text text-anchor="start" x="481.15" y="-981.94" font-family="Roboto, sans-serif" font-weight="bold" font-size="14.00">JA</text>
</g>
<!-- A04 -->
<g id="node9" class="node">
<title>A04</title>
<path fill="#c4cac1" stroke="black" stroke-width="0" d="M260.18,-832.46C260.18,-832.46 34.12,-832.46 34.12,-832.46 28.12,-832.46 22.12,-826.46 22.12,-820.46 22.12,-820.46 22.12,-771.18 22.12,-771.18 22.12,-765.18 28.12,-759.18 34.12,-759.18 34.12,-759.18 260.18,-759.18 260.18,-759.18 266.18,-759.18 272.18,-765.18 272.18,-771.18 272.18,-771.18 272.18,-820.46 272.18,-820.46 272.18,-826.46 266.18,-832.46 260.18,-832.46"/>
<text text-anchor="start" x="36.53" y="-811.52" font-family="Roboto, sans-serif" font-weight="bold" font-size="14.00">A04</text>
<text text-anchor="start" x="36.53" y="-783.52" font-family="Roboto, sans-serif" font-size="14.00">Cluster: Ablehnung</text>
<text text-anchor="start" x="36.53" y="-769.52" font-family="Roboto, sans-serif" font-size="14.00">Bilanzierungsgebiet nicht gültig</text>
</g>
<!-- 4&#45;&gt;A04 -->
<g id="edge8" class="edge">
<title>4-&gt;A04</title>
<path fill="none" stroke="#88a0d6" d="M457.36,-904.43C406.95,-886.94 326.51,-859.04 260.17,-836.02"/>
<polygon fill="#88a0d6" stroke="#88a0d6" points="261.68,-832.84 251.08,-832.87 259.38,-839.46 261.68,-832.84"/>
<text text-anchor="start" x="347.15" y="-855.41" font-family="Roboto, sans-serif" font-weight="bold" font-size="14.00">NEIN</text>
</g>
<!-- 5 -->
<g id="node10" class="node">
<title>5</title>
<path fill="#c2cee9" stroke="black" stroke-width="0" d="M858.17,-813.82C858.17,-813.82 302.12,-813.82 302.12,-813.82 296.12,-813.82 290.12,-807.82 290.12,-801.82 290.12,-801.82 290.12,-789.82 290.12,-789.82 290.12,-783.82 296.12,-777.82 302.12,-777.82 302.12,-777.82 858.17,-777.82 858.17,-777.82 864.17,-777.82 870.17,-783.82 870.17,-789.82 870.17,-789.82 870.17,-801.82 870.17,-801.82 870.17,-807.82 864.17,-813.82 858.17,-813.82"/>
<text text-anchor="start" x="304.52" y="-792.14" font-family="Roboto, sans-serif" font-weight="bold" font-size="14.00">5: </text>
<text text-anchor="start" x="324.02" y="-792.14" font-family="Roboto, sans-serif" font-size="14.00">Ist der ÜNB zum Aktivierungsbeginn für das Bilanzierungsgebiet zuständig?</text>
</g>
<!-- 4&#45;&gt;5 -->
<g id="edge9" class="edge">
<title>4-&gt;5</title>
<path fill="none" stroke="#88a0d6" d="M516.13,-904.56C528.49,-883.76 549.69,-848.08 564.29,-823.52"/>
<polygon fill="#88a0d6" stroke="#88a0d6" points="567.22,-825.43 569.32,-815.05 561.2,-821.86 567.22,-825.43"/>
<text text-anchor="start" x="547.15" y="-855.41" font-family="Roboto, sans-serif" font-weight="bold" font-size="14.00">JA</text>
</g>
<!-- A05 -->
<g id="node11" class="node">
<title>A05</title>
<path fill="#c4cac1" stroke="black" stroke-width="0" d="M431.05,-705.93C431.05,-705.93 291.25,-705.93 291.25,-705.93 285.25,-705.93 279.25,-699.93 279.25,-693.93 279.25,-693.93 279.25,-644.65 279.25,-644.65 279.25,-638.65 285.25,-632.65 291.25,-632.65 291.25,-632.65 431.05,-632.65 431.05,-632.65 437.05,-632.65 443.05,-638.65 443.05,-644.65 443.05,-644.65 443.05,-693.93 443.05,-693.93 443.05,-699.93 437.05,-705.93 431.05,-705.93"/>
<text text-anchor="start" x="293.65" y="-684.99" font-family="Roboto, sans-serif" font-weight="bold" font-size="14.00">A05</text>
<text text-anchor="start" x="293.65" y="-656.99" font-family="Roboto, sans-serif" font-size="14.00">Cluster: Ablehnung</text>
<text text-anchor="start" x="293.65" y="-642.99" font-family="Roboto, sans-serif" font-size="14.00">Keine Berechtigung</text>
</g>
<!-- 5&#45;&gt;A05 -->
<g id="edge10" class="edge">
<title>5-&gt;A05</title>
<path fill="none" stroke="#88a0d6" d="M550.61,-778.03C520.8,-761.07 473.6,-734.23 433.77,-711.58"/>
<polygon fill="#88a0d6" stroke="#88a0d6" points="435.55,-708.57 425.13,-706.67 432.09,-714.66 435.55,-708.57"/>
<text text-anchor="start" x="483.15" y="-728.88" font-family="Roboto, sans-serif" font-weight="bold" font-size="14.00">NEIN</text>
</g>
<!-- 6 -->
<g id="node12" class="node">
<title>6</title>
<path fill="#c2cee9" stroke="black" stroke-width="0" d="M973.05,-687.29C973.05,-687.29 473.25,-687.29 473.25,-687.29 467.25,-687.29 461.25,-681.29 461.25,-675.29 461.25,-675.29 461.25,-663.29 461.25,-663.29 461.25,-657.29 467.25,-651.29 473.25,-651.29 473.25,-651.29 973.05,-651.29 973.05,-651.29 979.05,-651.29 985.05,-657.29 985.05,-663.29 985.05,-663.29 985.05,-675.29 985.05,-675.29 985.05,-681.29 979.05,-687.29 973.05,-687.29"/>
<text text-anchor="start" x="475.65" y="-665.62" font-family="Roboto, sans-serif" font-weight="bold" font-size="14.00">6: </text>
<text text-anchor="start" x="495.15" y="-665.62" font-family="Roboto, sans-serif" font-size="14.00">Existiert bereits ein abweichendes Tupel unter der ID des MaBiS-ZP?</text>
</g>
<!-- 5&#45;&gt;6 -->
<g id="edge11" class="edge">
<title>5-&gt;6</title>
<path fill="none" stroke="#88a0d6" d="M599.44,-778.03C624.06,-756.58 666.86,-719.31 695.1,-694.72"/>
<polygon fill="#88a0d6" stroke="#88a0d6" points="697.33,-697.42 702.57,-688.21 692.73,-692.14 697.33,-697.42"/>
<text text-anchor="start" x="660.15" y="-728.88" font-family="Roboto, sans-serif" font-weight="bold" font-size="14.00">JA</text>
</g>
<!-- A06 -->
<g id="node13" class="node">
<title>A06</title>
<path fill="#c4cac1" stroke="black" stroke-width="0" d="M503.55,-579.4C503.55,-579.4 198.75,-579.4 198.75,-579.4 192.75,-579.4 186.75,-573.4 186.75,-567.4 186.75,-567.4 186.75,-518.12 186.75,-518.12 186.75,-512.12 192.75,-506.12 198.75,-506.12 198.75,-506.12 503.55,-506.12 503.55,-506.12 509.55,-506.12 515.55,-512.12 515.55,-518.12 515.55,-518.12 515.55,-567.4 515.55,-567.4 515.55,-573.4 509.55,-579.4 503.55,-579.4"/>
<text text-anchor="start" x="201.15" y="-558.46" font-family="Roboto, sans-serif" font-weight="bold" font-size="14.00">A06</text>
<text text-anchor="start" x="201.15" y="-530.46" font-family="Roboto, sans-serif" font-size="14.00">Cluster: Ablehnung</text>
<text text-anchor="start" x="201.15" y="-516.46" font-family="Roboto, sans-serif" font-size="14.00">Abweichender MaBiS-ZP bereits vorhanden</text>
</g>
<!-- 6&#45;&gt;A06 -->
<g id="edge12" class="edge">
<title>6-&gt;A06</title>
<path fill="none" stroke="#88a0d6" d="M672.59,-651.37C620.36,-633.88 537,-605.98 468.26,-582.96"/>
<polygon fill="#88a0d6" stroke="#88a0d6" points="469.39,-579.65 458.8,-579.8 467.17,-586.29 469.39,-579.65"/>
<text text-anchor="start" x="559.15" y="-602.35" font-family="Roboto, sans-serif" font-weight="bold" font-size="14.00">JA</text>
</g>
<!-- 7 -->
<g id="node14" class="node">
<title>7</title>
<path fill="#c2cee9" stroke="black" stroke-width="0" d="M1138.55,-565.4C1138.55,-565.4 545.75,-565.4 545.75,-565.4 539.75,-565.4 533.75,-559.4 533.75,-553.4 533.75,-553.4 533.75,-532.12 533.75,-532.12 533.75,-526.12 539.75,-520.12 545.75,-520.12 545.75,-520.12 1138.55,-520.12 1138.55,-520.12 1144.55,-520.12 1150.55,-526.12 1150.55,-532.12 1150.55,-532.12 1150.55,-553.4 1150.55,-553.4 1150.55,-559.4 1144.55,-565.4 1138.55,-565.4"/>
<text text-anchor="start" x="548.15" y="-544.46" font-family="Roboto, sans-serif" font-weight="bold" font-size="14.00">7: </text>
<text text-anchor="start" x="567.65" y="-544.46" font-family="Roboto, sans-serif" font-size="14.00">Existiert bereits für das genannte Tupel aus Aggregationsverantwortlicher,</text>
<text text-anchor="start" x="548.15" y="-530.46" font-family="Roboto, sans-serif" font-size="14.00">Bilanzierungsgebiet, Spannungsebene und ZRT eine abweichende ID des MaBiS-ZP?</text>
</g>
<!-- 6&#45;&gt;7 -->
<g id="edge13" class="edge">
<title>6-&gt;7</title>
<path fill="none" stroke="#88a0d6" d="M739.2,-651.5C758.27,-631.54 790.43,-597.89 813.73,-573.5"/>
<polygon fill="#88a0d6" stroke="#88a0d6" points="816.15,-576.03 820.53,-566.39 811.09,-571.2 816.15,-576.03"/>
<text text-anchor="start" x="789.15" y="-602.35" font-family="Roboto, sans-serif" font-weight="bold" font-size="14.00">NEIN</text>
</g>
<!-- A07 -->
<g id="node15" class="node">
<title>A07</title>
<path fill="#c4cac1" stroke="black" stroke-width="0" d="M788.55,-452.87C788.55,-452.87 435.75,-452.87 435.75,-452.87 429.75,-452.87 423.75,-446.87 423.75,-440.87 423.75,-440.87 423.75,-391.59 423.75,-391.59 423.75,-385.59 429.75,-379.59 435.75,-379.59 435.75,-379.59 788.55,-379.59 788.55,-379.59 794.55,-379.59 800.55,-385.59 800.55,-391.59 800.55,-391.59 800.55,-440.87 800.55,-440.87 800.55,-446.87 794.55,-452.87 788.55,-452.87"/>
<text text-anchor="start" x="438.15" y="-431.93" font-family="Roboto, sans-serif" font-weight="bold" font-size="14.00">A07</text>
<text text-anchor="start" x="438.15" y="-403.93" font-family="Roboto, sans-serif" font-size="14.00">Cluster: Ablehnung</text>
<text text-anchor="start" x="438.15" y="-389.93" font-family="Roboto, sans-serif" font-size="14.00">Abweichende ID zum MaBiS-ZP bereits vorhanden</text>
</g>
<!-- 7&#45;&gt;A07 -->
<g id="edge14" class="edge">
<title>7-&gt;A07</title>
<path fill="none" stroke="#88a0d6" d="M802.35,-520.21C770.84,-503.15 725.91,-478.82 687.63,-458.1"/>
<polygon fill="#88a0d6" stroke="#88a0d6" points="689.33,-455.04 678.87,-453.36 686,-461.2 689.33,-455.04"/>
<text text-anchor="start" x="740.15" y="-475.82" font-family="Roboto, sans-serif" font-weight="bold" font-size="14.00">JA</text>
</g>
<!-- 8 -->
<g id="node16" class="node">
<title>8</title>
<path fill="#c2cee9" stroke="black" stroke-width="0" d="M1189.92,-434.23C1189.92,-434.23 830.38,-434.23 830.38,-434.23 824.38,-434.23 818.38,-428.23 818.38,-422.23 818.38,-422.23 818.38,-410.23 818.38,-410.23 818.38,-404.23 824.38,-398.23 830.38,-398.23 830.38,-398.23 1189.92,-398.23 1189.92,-398.23 1195.92,-398.23 1201.92,-404.23 1201.92,-410.23 1201.92,-410.23 1201.92,-422.23 1201.92,-422.23 1201.92,-428.23 1195.92,-434.23 1189.92,-434.23"/>
<text text-anchor="start" x="832.77" y="-412.55" font-family="Roboto, sans-serif" font-weight="bold" font-size="14.00">8: </text>
<text text-anchor="start" x="852.27" y="-412.55" font-family="Roboto, sans-serif" font-size="14.00">Ist der ÜNB zur Aktivierung des ZRT berechtigt?</text>
</g>
<!-- 7&#45;&gt;8 -->
<g id="edge15" class="edge">
<title>7-&gt;8</title>
<path fill="none" stroke="#88a0d6" d="M871.03,-520.35C900.87,-498.23 947.33,-463.79 978.24,-440.88"/>
<polygon fill="#88a0d6" stroke="#88a0d6" points="980.14,-443.83 986.08,-435.07 975.97,-438.21 980.14,-443.83"/>
<text text-anchor="start" x="936.15" y="-475.82" font-family="Roboto, sans-serif" font-weight="bold" font-size="14.00">NEIN</text>
</g>
<!-- A08 -->
<g id="node17" class="node">
<title>A08</title>
<path fill="#c4cac1" stroke="black" stroke-width="0" d="M918.42,-326.34C918.42,-326.34 687.88,-326.34 687.88,-326.34 681.88,-326.34 675.88,-320.34 675.88,-314.34 675.88,-314.34 675.88,-265.06 675.88,-265.06 675.88,-259.06 681.88,-253.06 687.88,-253.06 687.88,-253.06 918.42,-253.06 918.42,-253.06 924.42,-253.06 930.42,-259.06 930.42,-265.06 930.42,-265.06 930.42,-314.34 930.42,-314.34 930.42,-320.34 924.42,-326.34 918.42,-326.34"/>
<text text-anchor="start" x="690.27" y="-305.4" font-family="Roboto, sans-serif" font-weight="bold" font-size="14.00">A08</text>
<text text-anchor="start" x="690.27" y="-277.4" font-family="Roboto, sans-serif" font-size="14.00">Cluster: Ablehnung</text>
<text text-anchor="start" x="690.27" y="-263.4" font-family="Roboto, sans-serif" font-size="14.00">ZRT Aktivierung nicht berechtigt</text>
</g>
<!-- 8&#45;&gt;A08 -->
<g id="edge16" class="edge">
<title>8-&gt;A08</title>
<path fill="none" stroke="#88a0d6" d="M982.23,-398.44C954.05,-381.48 909.44,-354.64 871.79,-331.99"/>
<polygon fill="#88a0d6" stroke="#88a0d6" points="874.05,-329.27 863.68,-327.11 870.44,-335.27 874.05,-329.27"/>
<text text-anchor="start" x="918.15" y="-349.29" font-family="Roboto, sans-serif" font-weight="bold" font-size="14.00">NEIN</text>
</g>
<!-- 9 -->
<g id="node18" class="node">
<title>9</title>
<path fill="#c2cee9" stroke="black" stroke-width="0" d="M1227.43,-307.7C1227.43,-307.7 960.88,-307.7 960.88,-307.7 954.88,-307.7 948.88,-301.7 948.88,-295.7 948.88,-295.7 948.88,-283.7 948.88,-283.7 948.88,-277.7 954.88,-271.7 960.88,-271.7 960.88,-271.7 1227.43,-271.7 1227.43,-271.7 1233.43,-271.7 1239.43,-277.7 1239.43,-283.7 1239.43,-283.7 1239.43,-295.7 1239.43,-295.7 1239.43,-301.7 1233.43,-307.7 1227.43,-307.7"/>
<text text-anchor="start" x="963.28" y="-286.02" font-family="Roboto, sans-serif" font-weight="bold" font-size="14.00">9: </text>
<text text-anchor="start" x="982.78" y="-286.02" font-family="Roboto, sans-serif" font-size="14.00">Passt die OBIS-Kennzahl zum ZRT?</text>
</g>
<!-- 8&#45;&gt;9 -->
<g id="edge17" class="edge">
<title>8-&gt;9</title>
<path fill="none" stroke="#88a0d6" d="M1021.48,-398.44C1035.57,-377.55 1059.79,-341.64 1076.36,-317.07"/>
<polygon fill="#88a0d6" stroke="#88a0d6" points="1079.2,-319.13 1081.89,-308.88 1073.39,-315.21 1079.2,-319.13"/>
<text text-anchor="start" x="1057.15" y="-349.29" font-family="Roboto, sans-serif" font-weight="bold" font-size="14.00">JA</text>
</g>
<!-- A09 -->
<g id="node19" class="node">
<title>A09</title>
<path fill="#c4cac1" stroke="black" stroke-width="0" d="M849.8,-199.81C849.8,-199.81 708.5,-199.81 708.5,-199.81 702.5,-199.81 696.5,-193.81 696.5,-187.81 696.5,-187.81 696.5,-138.53 696.5,-138.53 696.5,-132.53 702.5,-126.53 708.5,-126.53 708.5,-126.53 849.8,-126.53 849.8,-126.53 855.8,-126.53 861.8,-132.53 861.8,-138.53 861.8,-138.53 861.8,-187.81 861.8,-187.81 861.8,-193.81 855.8,-199.81 849.8,-199.81"/>
<text text-anchor="start" x="710.9" y="-178.87" font-family="Roboto, sans-serif" font-weight="bold" font-size="14.00">A09</text>
<text text-anchor="start" x="710.9" y="-150.87" font-family="Roboto, sans-serif" font-size="14.00">Cluster: Ablehnung</text>
<text text-anchor="start" x="710.9" y="-136.87" font-family="Roboto, sans-serif" font-size="14.00">OBIS nicht passend</text>
</g>
<!-- 9&#45;&gt;A09 -->
<g id="edge18" class="edge">
<title>9-&gt;A09</title>
<path fill="none" stroke="#88a0d6" d="M1051.34,-271.78C1005.56,-253.68 931.54,-224.41 872.24,-200.97"/>
<polygon fill="#88a0d6" stroke="#88a0d6" points="873.72,-197.79 863.13,-197.37 871.15,-204.3 873.72,-197.79"/>
<text text-anchor="start" x="955.15" y="-222.76" font-family="Roboto, sans-serif" font-weight="bold" font-size="14.00">NEIN</text>
</g>
<!-- 10 -->
<g id="node20" class="node">
<title>10</title>
<path fill="#c2cee9" stroke="black" stroke-width="0" d="M1380.8,-181.17C1380.8,-181.17 891.5,-181.17 891.5,-181.17 885.5,-181.17 879.5,-175.17 879.5,-169.17 879.5,-169.17 879.5,-157.17 879.5,-157.17 879.5,-151.17 885.5,-145.17 891.5,-145.17 891.5,-145.17 1380.8,-145.17 1380.8,-145.17 1386.8,-145.17 1392.8,-151.17 1392.8,-157.17 1392.8,-157.17 1392.8,-169.17 1392.8,-169.17 1392.8,-175.17 1386.8,-181.17 1380.8,-181.17"/>
<text text-anchor="start" x="893.9" y="-159.5" font-family="Roboto, sans-serif" font-weight="bold" font-size="14.00">10: </text>
<text text-anchor="start" x="923.15" y="-159.5" font-family="Roboto, sans-serif" font-size="14.00">Ist der MaBiS-ZP zum Zeitpunkt der Aktivierung bereits aktiviert?</text>
</g>
<!-- 9&#45;&gt;10 -->
<g id="edge19" class="edge">
<title>9-&gt;10</title>
<path fill="none" stroke="#88a0d6" d="M1099.81,-271.91C1106.73,-251.39 1118.54,-216.39 1126.81,-191.86"/>
<polygon fill="#88a0d6" stroke="#88a0d6" points="1130.08,-193.12 1129.96,-182.53 1123.45,-190.89 1130.08,-193.12"/>
<text text-anchor="start" x="1117.15" y="-222.76" font-family="Roboto, sans-serif" font-weight="bold" font-size="14.00">JA</text>
</g>
<!-- A10 -->
<g id="node21" class="node">
<title>A10</title>
<path fill="#c4cac1" stroke="black" stroke-width="0" d="M1082.17,-73.28C1082.17,-73.28 898.12,-73.28 898.12,-73.28 892.12,-73.28 886.12,-67.28 886.12,-61.28 886.12,-61.28 886.12,-12 886.12,-12 886.12,-6 892.12,0 898.12,0 898.12,0 1082.17,0 1082.17,0 1088.17,0 1094.17,-6 1094.17,-12 1094.17,-12 1094.17,-61.28 1094.17,-61.28 1094.17,-67.28 1088.17,-73.28 1082.17,-73.28"/>
<text text-anchor="start" x="900.52" y="-52.34" font-family="Roboto, sans-serif" font-weight="bold" font-size="14.00">A10</text>
<text text-anchor="start" x="900.52" y="-24.34" font-family="Roboto, sans-serif" font-size="14.00">Cluster: Ablehnung</text>
<text text-anchor="start" x="900.52" y="-10.34" font-family="Roboto, sans-serif" font-size="14.00">MaBiS-ZP bereits aktiviert</text>
</g>
<!-- 10&#45;&gt;A10 -->
<g id="edge20" class="edge">
<title>10-&gt;A10</title>
<path fill="none" stroke="#88a0d6" d="M1116.46,-145.38C1097.09,-128.85 1066.71,-102.94 1040.59,-80.67"/>
<polygon fill="#88a0d6" stroke="#88a0d6" points="1042.96,-78.08 1033.08,-74.25 1038.41,-83.41 1042.96,-78.08"/>
<text text-anchor="start" x="1071.15" y="-96.23" font-family="Roboto, sans-serif" font-weight="bold" font-size="14.00">JA</text>
</g>
<!-- A11 -->
<g id="node22" class="node">
<title>A11</title>
<path fill="#c4cac1" stroke="black" stroke-width="0" d="M1305.68,-73.28C1305.68,-73.28 1124.62,-73.28 1124.62,-73.28 1118.62,-73.28 1112.62,-67.28 1112.62,-61.28 1112.62,-61.28 1112.62,-12 1112.62,-12 1112.62,-6 1118.62,0 1124.62,0 1124.62,0 1305.68,0 1305.68,0 1311.68,0 1317.68,-6 1317.68,-12 1317.68,-12 1317.68,-61.28 1317.68,-61.28 1317.68,-67.28 1311.68,-73.28 1305.68,-73.28"/>
<text text-anchor="start" x="1127.03" y="-52.34" font-family="Roboto, sans-serif" font-weight="bold" font-size="14.00">A11</text>
<text text-anchor="start" x="1127.03" y="-24.34" font-family="Roboto, sans-serif" font-size="14.00">Cluster: Zustimmung</text>
<text text-anchor="start" x="1127.03" y="-10.34" font-family="Roboto, sans-serif" font-size="14.00">Aktivierung durchgeführt</text>
</g>
<!-- 10&#45;&gt;A11 -->
<g id="edge21" class="edge">
<title>10-&gt;A11</title>
<path fill="none" stroke="#88a0d6" d="M1146.8,-145.38C1156.97,-129.36 1172.73,-104.51 1186.56,-82.71"/>
<polygon fill="#88a0d6" stroke="#88a0d6" points="1189.33,-84.87 1191.73,-74.55 1183.42,-81.12 1189.33,-84.87"/>
<text text-anchor="start" x="1180.15" y="-96.23" font-family="Roboto, sans-serif" font-weight="bold" font-size="14.00">NEIN</text>
</g>
</g>
</svg>
  </g>
</svg>
  </g>
<text x="1807.3333333333333" y="1910.0" text-anchor="end" font-family="Roboto, sans-serif" font-size="10" fill="#666666">v4.1 | 11.12.2025 (urspr. 01.04.2025)</text></svg>