<?xml version='1.0' encoding='ASCII' standalone='yes'?>
<svg xmlns="http://www.w3.org/2000/svg" xmlns:xlink="http://www.w3.org/1999/xlink" version="1.1" width="1824.0px" viewBox="0 0 1824.0 1920.0" height="1920.0px">
  <g>
    <svg version="1.1" width="1824.0px" viewBox="0 0 1824.0 1920.0" height="1920.0px">
  <rect fill="#e7e6e5" x="0" y="0" width="1824.0" height="1920.0" rx="20" ry="20"/><g>
    <g transform="translate(182.39999999999995, 244.35616324839452) scale(1 1) translate(0, 0) scale(2.5191630412264345 2.5191630412264345) "><defs>
    <style>.cls-1{fill:#ffffff88;}</style>
    <!--
    ffffff88 is white with 50% transparency; this matches the colour of the tesa strip on
    ebd.hochfrequenz.de where it crosses the diagram SVG:
    https://github.com/Hochfrequenz/entscheidungsbaumdiagramme/blob/01bd43fa0f1d0333fa93596bc8b9fd1e4b285c8c/src/lib/components/features/svg-container.svelte#L54
    -->
  </defs>
  <path class="cls-1" d="M122.44,531.2h-56.1c-11,0-19.9-9.12-19.46-20.11C57.47,243.89,278.15,29.78,547.91,29.78v56.02c0,10.98-8.69,19.89-19.66,20.39-225.51,10.31-405.8,197-405.8,425Z"/>
  <path class="cls-1" d="M273.78,531.2h-55.93c-11.23,0-20.09-9.48-19.43-20.69,10.74-183.44,163.39-329.39,349.48-329.39v56.26c0,10.71-8.27,19.62-18.96,20.35-142.35,9.77-255.17,128.69-255.17,273.46Z"/>
  <path class="cls-1" d="M425.77,531.2h-55.45c-11.65,0-20.6-10.17-19.33-21.75,10.87-99.03,95.03-176.34,196.92-176.34v57.01c0,10.05-7.28,18.75-17.23,20.16-59.22,8.4-104.91,59.42-104.91,120.92Z"/>
</g>
    <svg width="1368pt" height="1440pt" viewBox="0.00 0.00 1367.91 1440.00">
<g id="graph0" class="graph" transform="scale(0.968054 0.968054) rotate(0) translate(18 1469.52)">
<title>D</title>
<text text-anchor="start" x="365.28" y="-1431.42" font-family="Roboto, sans-serif" font-weight="bold" font-size="18.00">MaBiS</text>
<text text-anchor="start" x="365.28" y="-1403.32" font-family="Roboto, sans-serif" font-weight="bold" font-size="16.00">7.48.1: AD: Austausch der Deltazeitreihen&#252;bertrag-Liste von &#220;NB an NB</text>
<!-- Start -->
<g id="node1" class="node">
<title>Start</title>
<path fill="#8ba2d7" stroke="black" stroke-width="0" d="M440.05,-1361.52C440.05,-1361.52 303.25,-1361.52 303.25,-1361.52 297.25,-1361.52 291.25,-1355.52 291.25,-1349.52 291.25,-1349.52 291.25,-1328.24 291.25,-1328.24 291.25,-1322.24 297.25,-1316.24 303.25,-1316.24 303.25,-1316.24 440.05,-1316.24 440.05,-1316.24 446.05,-1316.24 452.05,-1322.24 452.05,-1328.24 452.05,-1328.24 452.05,-1349.52 452.05,-1349.52 452.05,-1355.52 446.05,-1361.52 440.05,-1361.52"/>
<text text-anchor="start" x="305.65" y="-1340.58" font-family="Roboto, sans-serif" font-weight="bold" font-size="14.00">E_0070</text>
<text text-anchor="start" x="305.65" y="-1326.58" font-family="Roboto, sans-serif" font-size="14.00">Pr&#252;fende Rolle: </text>
<text text-anchor="start" x="415.15" y="-1326.58" font-family="Roboto, sans-serif" font-weight="bold" font-size="14.00">NB</text>
</g>
<!-- 1 -->
<g id="node2" class="node">
<title>1</title>
<path fill="#c2cee9" stroke="black" stroke-width="0" d="M636.55,-1279.24C636.55,-1279.24 106.75,-1279.24 106.75,-1279.24 100.75,-1279.24 94.75,-1273.24 94.75,-1267.24 94.75,-1267.24 94.75,-1255.24 94.75,-1255.24 94.75,-1249.24 100.75,-1243.24 106.75,-1243.24 106.75,-1243.24 636.55,-1243.24 636.55,-1243.24 642.55,-1243.24 648.55,-1249.24 648.55,-1255.24 648.55,-1255.24 648.55,-1267.24 648.55,-1267.24 648.55,-1273.24 642.55,-1279.24 636.55,-1279.24"/>
<text text-anchor="start" x="109.15" y="-1257.57" font-family="Roboto, sans-serif" font-weight="bold" font-size="14.00">1: </text>
<text text-anchor="start" x="128.65" y="-1257.57" font-family="Roboto, sans-serif" font-size="14.00">Erfolgt der Eingang der DZ&#220;-Liste innerhalb der Clearingphase f&#252;r DZ&#220;?</text>
</g>
<!-- Start&#45;&gt;1 -->
<g id="edge1" class="edge">
<title>Start-&gt;1</title>
<path fill="none" stroke="#88a0d6" d="M371.65,-1316.41C371.65,-1308.33 371.65,-1299.03 371.65,-1290.43"/>
<polygon fill="#88a0d6" stroke="#88a0d6" points="375.15,-1290.47 371.65,-1280.47 368.15,-1290.47 375.15,-1290.47"/>
</g>
<!-- A01 -->
<g id="node3" class="node">
<title>A01</title>
<path fill="#c4cac1" stroke="black" stroke-width="0" d="M388.8,-1189.99C388.8,-1189.99 16.5,-1189.99 16.5,-1189.99 10.5,-1189.99 4.5,-1183.99 4.5,-1177.99 4.5,-1177.99 4.5,-1128.71 4.5,-1128.71 4.5,-1122.71 10.5,-1116.71 16.5,-1116.71 16.5,-1116.71 388.8,-1116.71 388.8,-1116.71 394.8,-1116.71 400.8,-1122.71 400.8,-1128.71 400.8,-1128.71 400.8,-1177.99 400.8,-1177.99 400.8,-1183.99 394.8,-1189.99 388.8,-1189.99"/>
<text text-anchor="start" x="18.9" y="-1169.05" font-family="Roboto, sans-serif" font-weight="bold" font-size="14.00">A01</text>
<text text-anchor="start" x="18.9" y="-1141.05" font-family="Roboto, sans-serif" font-size="14.00">Cluster: Ablehnung der gesamten Liste</text>
<text text-anchor="start" x="18.9" y="-1127.05" font-family="Roboto, sans-serif" font-size="14.00">Eingang liegt nicht innerhalb der Clearingphase DZ&#220;</text>
</g>
<!-- 1&#45;&gt;A01 -->
<g id="edge2" class="edge">
<title>1-&gt;A01</title>
<path fill="none" stroke="#88a0d6" d="M344.87,-1243.46C324.48,-1230.68 295.5,-1212.53 269.01,-1195.93"/>
<polygon fill="#88a0d6" stroke="#88a0d6" points="271,-1193.05 260.67,-1190.7 267.28,-1198.98 271,-1193.05"/>
<text text-anchor="start" x="311.65" y="-1212.94" font-family="Roboto, sans-serif" font-weight="bold" font-size="14.00">NEIN</text>
</g>
<!-- 2 -->
<g id="node4" class="node">
<title>2</title>
<path fill="#c2cee9" stroke="black" stroke-width="0" d="M664.42,-1171.35C664.42,-1171.35 430.88,-1171.35 430.88,-1171.35 424.88,-1171.35 418.88,-1165.35 418.88,-1159.35 418.88,-1159.35 418.88,-1147.35 418.88,-1147.35 418.88,-1141.35 424.88,-1135.35 430.88,-1135.35 430.88,-1135.35 664.42,-1135.35 664.42,-1135.35 670.42,-1135.35 676.42,-1141.35 676.42,-1147.35 676.42,-1147.35 676.42,-1159.35 676.42,-1159.35 676.42,-1165.35 670.42,-1171.35 664.42,-1171.35"/>
<text text-anchor="start" x="433.27" y="-1149.68" font-family="Roboto, sans-serif" font-weight="bold" font-size="14.00">2: </text>
<text text-anchor="start" x="452.77" y="-1149.68" font-family="Roboto, sans-serif" font-size="14.00">Ist die Marktlokation bekannt?</text>
</g>
<!-- 1&#45;&gt;2 -->
<g id="edge3" class="edge">
<title>1-&gt;2</title>
<path fill="none" stroke="#88a0d6" d="M399.54,-1243.46C429.32,-1225.55 476.68,-1197.05 509.81,-1177.11"/>
<polygon fill="#88a0d6" stroke="#88a0d6" points="511.54,-1180.16 518.31,-1172.01 507.93,-1174.16 511.54,-1180.16"/>
<text text-anchor="start" x="453.65" y="-1212.94" font-family="Roboto, sans-serif" font-weight="bold" font-size="14.00">JA</text>
</g>
<!-- A02 -->
<g id="node5" class="node">
<title>A02</title>
<path fill="#c4cac1" stroke="black" stroke-width="0" d="M297.3,-1063.46C297.3,-1063.46 12,-1063.46 12,-1063.46 6,-1063.46 0,-1057.46 0,-1051.46 0,-1051.46 0,-1002.18 0,-1002.18 0,-996.18 6,-990.18 12,-990.18 12,-990.18 297.3,-990.18 297.3,-990.18 303.3,-990.18 309.3,-996.18 309.3,-1002.18 309.3,-1002.18 309.3,-1051.46 309.3,-1051.46 309.3,-1057.46 303.3,-1063.46 297.3,-1063.46"/>
<text text-anchor="start" x="14.4" y="-1042.52" font-family="Roboto, sans-serif" font-weight="bold" font-size="14.00">A02</text>
<text text-anchor="start" x="14.4" y="-1014.52" font-family="Roboto, sans-serif" font-size="14.00">Cluster: Korrekturliste wegen Ablehnung</text>
<text text-anchor="start" x="14.4" y="-1000.52" font-family="Roboto, sans-serif" font-size="14.00">Marktlokation ist nicht bekannt</text>
</g>
<!-- 2&#45;&gt;A02 -->
<g id="edge4" class="edge">
<title>2-&gt;A02</title>
<path fill="none" stroke="#88a0d6" d="M494.24,-1135.43C438.83,-1117.87 350.27,-1089.81 277.48,-1066.74"/>
<polygon fill="#88a0d6" stroke="#88a0d6" points="278.89,-1063.52 268.3,-1063.83 276.78,-1070.19 278.89,-1063.52"/>
<text text-anchor="start" x="374.65" y="-1086.41" font-family="Roboto, sans-serif" font-weight="bold" font-size="14.00">NEIN</text>
</g>
<!-- 3 -->
<g id="node6" class="node">
<title>3</title>
<path fill="#c2cee9" stroke="black" stroke-width="0" d="M917.55,-1049.46C917.55,-1049.46 339.75,-1049.46 339.75,-1049.46 333.75,-1049.46 327.75,-1043.46 327.75,-1037.46 327.75,-1037.46 327.75,-1016.18 327.75,-1016.18 327.75,-1010.18 333.75,-1004.18 339.75,-1004.18 339.75,-1004.18 917.55,-1004.18 917.55,-1004.18 923.55,-1004.18 929.55,-1010.18 929.55,-1016.18 929.55,-1016.18 929.55,-1037.46 929.55,-1037.46 929.55,-1043.46 923.55,-1049.46 917.55,-1049.46"/>
<text text-anchor="start" x="342.15" y="-1028.52" font-family="Roboto, sans-serif" font-weight="bold" font-size="14.00">3: </text>
<text text-anchor="start" x="361.65" y="-1028.52" font-family="Roboto, sans-serif" font-size="14.00">Entspricht das Bilanzierungsgebiet dem zwischen NB und &#220;NB ausgetauschten</text>
<text text-anchor="start" x="342.15" y="-1014.52" font-family="Roboto, sans-serif" font-size="14.00">Bilanzierungsgebiet?</text>
</g>
<!-- 2&#45;&gt;3 -->
<g id="edge5" class="edge">
<title>2-&gt;3</title>
<path fill="none" stroke="#88a0d6" d="M558.57,-1135.56C571.33,-1115.95 592.68,-1083.12 608.47,-1058.84"/>
<polygon fill="#88a0d6" stroke="#88a0d6" points="611.3,-1060.91 613.82,-1050.62 605.43,-1057.09 611.3,-1060.91"/>
<text text-anchor="start" x="592.65" y="-1086.41" font-family="Roboto, sans-serif" font-weight="bold" font-size="14.00">JA</text>
</g>
<!-- A03 -->
<g id="node7" class="node">
<title>A03</title>
<path fill="#c4cac1" stroke="black" stroke-width="0" d="M958.67,-87.28C958.67,-87.28 600.62,-87.28 600.62,-87.28 594.62,-87.28 588.62,-81.28 588.62,-75.28 588.62,-75.28 588.62,-12 588.62,-12 588.62,-6 594.62,0 600.62,0 600.62,0 958.67,0 958.67,0 964.67,0 970.67,-6 970.67,-12 970.67,-12 970.67,-75.28 970.67,-75.28 970.67,-81.28 964.67,-87.28 958.67,-87.28"/>
<text text-anchor="start" x="603.02" y="-66.34" font-family="Roboto, sans-serif" font-weight="bold" font-size="14.00">A03</text>
<text text-anchor="start" x="603.02" y="-38.34" font-family="Roboto, sans-serif" font-size="14.00">Cluster: Korrekturliste wegen Ablehnung</text>
<text text-anchor="start" x="603.02" y="-24.34" font-family="Roboto, sans-serif" font-size="14.00">bilanzierungsrel. Daten nicht korrekt / fehlen</text>
<text text-anchor="start" x="603.02" y="-10.34" font-family="Roboto, sans-serif" font-size="14.00">Ist mit Werten des NB zu allen Stammdaten gef&#252;llt</text>
</g>
<!-- 3&#45;&gt;A03 -->
<g id="edge6" class="edge">
<title>3-&gt;A03</title>
<path fill="none" stroke="#88a0d6" d="M490.89,-1004.22C407.31,-987.09 316.65,-959.4 316.65,-919.93 316.65,-919.93 316.65,-919.93 316.65,-596.27 316.65,-564.56 313.62,-555.1 324.65,-525.37 338.65,-487.61 350.65,-482.05 375.65,-450.48"/>
<path fill="none" stroke="#88a0d6" d="M375.65,-448.48C393.99,-424.01 405.95,-424.6 425.65,-401.21"/>
<path fill="none" stroke="#88a0d6" d="M425.65,-399.21C446.2,-374.82 459.48,-376.65 479.65,-351.95"/>
<path fill="none" stroke="#88a0d6" d="M479.65,-349.95C498.59,-326.76 508.79,-325.94 527.65,-302.69"/>
<path fill="none" stroke="#88a0d6" d="M527.65,-300.69C546.47,-277.48 560.94,-281.36 579.65,-258.06"/>
<path fill="none" stroke="#88a0d6" d="M579.65,-256.06C597.1,-234.32 608.47,-235.38 625.65,-213.44"/>
<path fill="none" stroke="#88a0d6" d="M625.65,-211.44C644.5,-187.36 657.35,-188.67 675.65,-164.17"/>
<path fill="none" stroke="#88a0d6" d="M675.65,-162.17C693.19,-138.69 706.97,-140.28 721.65,-114.91"/>
<path fill="none" stroke="#88a0d6" d="M721.65,-112.91C724.94,-107.21 728.73,-101.54 732.76,-96.03"/>
<polygon fill="#88a0d6" stroke="#88a0d6" points="735.5,-98.22 738.8,-88.15 729.94,-93.96 735.5,-98.22"/>
<text text-anchor="start" x="324.65" y="-544.34" font-family="Roboto, sans-serif" font-weight="bold" font-size="14.00">NEIN</text>
</g>
<!-- 4 -->
<g id="node8" class="node">
<title>4</title>
<path fill="#c2cee9" stroke="black" stroke-width="0" d="M956.8,-936.93C956.8,-936.93 356.5,-936.93 356.5,-936.93 350.5,-936.93 344.5,-930.93 344.5,-924.93 344.5,-924.93 344.5,-912.93 344.5,-912.93 344.5,-906.93 350.5,-900.93 356.5,-900.93 356.5,-900.93 956.8,-900.93 956.8,-900.93 962.8,-900.93 968.8,-906.93 968.8,-912.93 968.8,-912.93 968.8,-924.93 968.8,-924.93 968.8,-930.93 962.8,-936.93 956.8,-936.93"/>
<text text-anchor="start" x="358.9" y="-915.25" font-family="Roboto, sans-serif" font-weight="bold" font-size="14.00">4: </text>
<text text-anchor="start" x="378.4" y="-915.25" font-family="Roboto, sans-serif" font-size="14.00">Entspricht der Bilanzkreis dem zwischen NB und &#220;NB ausgetauschten Bilanzkreis?</text>
</g>
<!-- 3&#45;&gt;4 -->
<g id="edge7" class="edge">
<title>3-&gt;4</title>
<path fill="none" stroke="#88a0d6" d="M634.32,-1004.39C638.62,-988.11 644.58,-965.58 649.26,-947.88"/>
<polygon fill="#88a0d6" stroke="#88a0d6" points="652.63,-948.83 651.8,-938.26 645.86,-947.04 652.63,-948.83"/>
<text text-anchor="start" x="646.65" y="-959.88" font-family="Roboto, sans-serif" font-weight="bold" font-size="14.00">JA</text>
</g>
<!-- 4&#45;&gt;A03 -->
<g id="edge8" class="edge">
<title>4-&gt;A03</title>
<path fill="none" stroke="#88a0d6" d="M534.52,-900.99C461.84,-887.36 383.65,-864.76 383.65,-830.68 383.65,-830.68 383.65,-830.68 383.65,-596.27 383.65,-531.38 338.22,-503.49 375.65,-450.48"/>
<text text-anchor="start" x="361.65" y="-495.07" font-family="Roboto, sans-serif" font-weight="bold" font-size="14.00">NEIN</text>
</g>
<!-- 5 -->
<g id="node9" class="node">
<title>5</title>
<path fill="#c2cee9" stroke="black" stroke-width="0" d="M875.05,-847.68C875.05,-847.68 438.25,-847.68 438.25,-847.68 432.25,-847.68 426.25,-841.68 426.25,-835.68 426.25,-835.68 426.25,-823.68 426.25,-823.68 426.25,-817.68 432.25,-811.68 438.25,-811.68 438.25,-811.68 875.05,-811.68 875.05,-811.68 881.05,-811.68 887.05,-817.68 887.05,-823.68 887.05,-823.68 887.05,-835.68 887.05,-835.68 887.05,-841.68 881.05,-847.68 875.05,-847.68"/>
<text text-anchor="start" x="440.65" y="-826" font-family="Roboto, sans-serif" font-weight="bold" font-size="14.00">5: </text>
<text text-anchor="start" x="460.15" y="-826" font-family="Roboto, sans-serif" font-size="14.00">Entspricht der Bilanzierungsbeginn der Erwartung des NB?</text>
</g>
<!-- 4&#45;&gt;5 -->
<g id="edge9" class="edge">
<title>4-&gt;5</title>
<path fill="none" stroke="#88a0d6" d="M656.65,-901.11C656.65,-889.16 656.65,-872.83 656.65,-858.9"/>
<polygon fill="#88a0d6" stroke="#88a0d6" points="660.15,-858.96 656.65,-848.96 653.15,-858.96 660.15,-858.96"/>
<text text-anchor="start" x="656.65" y="-870.63" font-family="Roboto, sans-serif" font-weight="bold" font-size="14.00">JA</text>
</g>
<!-- 5&#45;&gt;A03 -->
<g id="edge10" class="edge">
<title>5-&gt;A03</title>
<path fill="none" stroke="#88a0d6" d="M568.89,-811.73C505.01,-796.79 429.65,-772.57 429.65,-741.43 429.65,-741.43 429.65,-741.43 429.65,-547.01 429.65,-482.19 386.4,-452.8 425.65,-401.21"/>
<text text-anchor="start" x="412.65" y="-445.8" font-family="Roboto, sans-serif" font-weight="bold" font-size="14.00">NEIN</text>
</g>
<!-- 6 -->
<g id="node10" class="node">
<title>6</title>
<path fill="#c2cee9" stroke="black" stroke-width="0" d="M894.05,-758.43C894.05,-758.43 469.25,-758.43 469.25,-758.43 463.25,-758.43 457.25,-752.43 457.25,-746.43 457.25,-746.43 457.25,-734.43 457.25,-734.43 457.25,-728.43 463.25,-722.43 469.25,-722.43 469.25,-722.43 894.05,-722.43 894.05,-722.43 900.05,-722.43 906.05,-728.43 906.05,-734.43 906.05,-734.43 906.05,-746.43 906.05,-746.43 906.05,-752.43 900.05,-758.43 894.05,-758.43"/>
<text text-anchor="start" x="471.65" y="-736.75" font-family="Roboto, sans-serif" font-weight="bold" font-size="14.00">6: </text>
<text text-anchor="start" x="491.15" y="-736.75" font-family="Roboto, sans-serif" font-size="14.00">Entspricht das Bilanzierungsende der Erwartung des NB?</text>
</g>
<!-- 5&#45;&gt;6 -->
<g id="edge11" class="edge">
<title>5-&gt;6</title>
<path fill="none" stroke="#88a0d6" d="M661.47,-811.86C664.93,-799.79 669.67,-783.25 673.68,-769.23"/>
<polygon fill="#88a0d6" stroke="#88a0d6" points="677.04,-770.23 676.43,-759.66 670.31,-768.31 677.04,-770.23"/>
<text text-anchor="start" x="670.65" y="-781.38" font-family="Roboto, sans-serif" font-weight="bold" font-size="14.00">JA</text>
</g>
<!-- 6&#45;&gt;A03 -->
<g id="edge12" class="edge">
<title>6-&gt;A03</title>
<path fill="none" stroke="#88a0d6" d="M565.72,-722.49C526.6,-709.66 492.65,-687.13 492.65,-647.54 492.65,-647.54 492.65,-647.54 492.65,-497.74 492.65,-432.69 440.96,-404.25 479.65,-351.95"/>
<text text-anchor="start" x="466.65" y="-396.54" font-family="Roboto, sans-serif" font-weight="bold" font-size="14.00">NEIN</text>
</g>
<!-- 7 -->
<g id="node11" class="node">
<title>7</title>
<path fill="#c2cee9" stroke="black" stroke-width="0" d="M1064.3,-669.18C1064.3,-669.18 533,-669.18 533,-669.18 527,-669.18 521,-663.18 521,-657.18 521,-657.18 521,-635.9 521,-635.9 521,-629.9 527,-623.9 533,-623.9 533,-623.9 1064.3,-623.9 1064.3,-623.9 1070.3,-623.9 1076.3,-629.9 1076.3,-635.9 1076.3,-635.9 1076.3,-657.18 1076.3,-657.18 1076.3,-663.18 1070.3,-669.18 1064.3,-669.18"/>
<text text-anchor="start" x="535.4" y="-648.24" font-family="Roboto, sans-serif" font-weight="bold" font-size="14.00">7: </text>
<text text-anchor="start" x="554.9" y="-648.24" font-family="Roboto, sans-serif" font-size="14.00">Entspricht das normierte Profil dem zwischen NB und LF ausgetauschten</text>
<text text-anchor="start" x="535.4" y="-634.24" font-family="Roboto, sans-serif" font-size="14.00">normierten Profil?</text>
</g>
<!-- 6&#45;&gt;7 -->
<g id="edge13" class="edge">
<title>6-&gt;7</title>
<path fill="none" stroke="#88a0d6" d="M703.11,-722.58C719.63,-709.6 742.83,-691.38 762.24,-676.14"/>
<polygon fill="#88a0d6" stroke="#88a0d6" points="764.24,-679.02 769.94,-670.09 759.91,-673.51 764.24,-679.02"/>
<text text-anchor="start" x="746.65" y="-692.13" font-family="Roboto, sans-serif" font-weight="bold" font-size="14.00">JA</text>
</g>
<!-- 7&#45;&gt;A03 -->
<g id="edge14" class="edge">
<title>7-&gt;A03</title>
<path fill="none" stroke="#88a0d6" d="M632.2,-623.93C601.71,-612.61 573.11,-595.73 552.65,-570.65 533.75,-547.48 509.38,-326.35 527.65,-302.69"/>
<text text-anchor="start" x="521.65" y="-347.27" font-family="Roboto, sans-serif" font-weight="bold" font-size="14.00">NEIN</text>
</g>
<!-- 8 -->
<g id="node12" class="node">
<title>8</title>
<path fill="#c2cee9" stroke="black" stroke-width="0" d="M1127.55,-570.65C1127.55,-570.65 573.75,-570.65 573.75,-570.65 567.75,-570.65 561.75,-564.65 561.75,-558.65 561.75,-558.65 561.75,-537.37 561.75,-537.37 561.75,-531.37 567.75,-525.37 573.75,-525.37 573.75,-525.37 1127.55,-525.37 1127.55,-525.37 1133.55,-525.37 1139.55,-531.37 1139.55,-537.37 1139.55,-537.37 1139.55,-558.65 1139.55,-558.65 1139.55,-564.65 1133.55,-570.65 1127.55,-570.65"/>
<text text-anchor="start" x="576.15" y="-549.71" font-family="Roboto, sans-serif" font-weight="bold" font-size="14.00">8: </text>
<text text-anchor="start" x="595.65" y="-549.71" font-family="Roboto, sans-serif" font-size="14.00">Entspricht die Versionsangabe des Profils der zwischen NB und &#220;NB f&#252;r SLS</text>
<text text-anchor="start" x="576.15" y="-535.71" font-family="Roboto, sans-serif" font-size="14.00">ausgetauschten Version des Profils?</text>
</g>
<!-- 7&#45;&gt;8 -->
<g id="edge15" class="edge">
<title>7-&gt;8</title>
<path fill="none" stroke="#88a0d6" d="M810.19,-624.12C817.12,-611.24 826.07,-594.64 833.79,-580.31"/>
<polygon fill="#88a0d6" stroke="#88a0d6" points="836.76,-582.17 838.42,-571.71 830.6,-578.85 836.76,-582.17"/>
<text text-anchor="start" x="827.65" y="-593.6" font-family="Roboto, sans-serif" font-weight="bold" font-size="14.00">JA</text>
</g>
<!-- 8&#45;&gt;A03 -->
<g id="edge16" class="edge">
<title>8-&gt;A03</title>
<path fill="none" stroke="#88a0d6" d="M700.97,-525.46C668.36,-514.31 636.75,-497.48 613.65,-472.12 597.43,-454.32 564.81,-277.02 579.65,-258.06"/>
<text text-anchor="start" x="576.65" y="-298.01" font-family="Roboto, sans-serif" font-weight="bold" font-size="14.00">NEIN</text>
</g>
<!-- 9 -->
<g id="node13" class="node">
<title>9</title>
<path fill="#c2cee9" stroke="black" stroke-width="0" d="M1184.67,-472.12C1184.67,-472.12 634.62,-472.12 634.62,-472.12 628.62,-472.12 622.62,-466.12 622.62,-460.12 622.62,-460.12 622.62,-438.84 622.62,-438.84 622.62,-432.84 628.62,-426.84 634.62,-426.84 634.62,-426.84 1184.67,-426.84 1184.67,-426.84 1190.67,-426.84 1196.67,-432.84 1196.67,-438.84 1196.67,-438.84 1196.67,-460.12 1196.67,-460.12 1196.67,-466.12 1190.67,-472.12 1184.67,-472.12"/>
<text text-anchor="start" x="637.02" y="-451.18" font-family="Roboto, sans-serif" font-weight="bold" font-size="14.00">9: </text>
<text text-anchor="start" x="656.52" y="-451.18" font-family="Roboto, sans-serif" font-size="14.00">Entspricht die veranschlagte Prognosemenge (JVP) der zwischen NB und LF</text>
<text text-anchor="start" x="637.02" y="-437.18" font-family="Roboto, sans-serif" font-size="14.00">ausgetauschten Prognosemenge?</text>
</g>
<!-- 8&#45;&gt;9 -->
<g id="edge17" class="edge">
<title>8-&gt;9</title>
<path fill="none" stroke="#88a0d6" d="M863.74,-525.59C871.69,-512.59 881.96,-495.78 890.77,-481.37"/>
<polygon fill="#88a0d6" stroke="#88a0d6" points="893.57,-483.49 895.8,-473.13 887.6,-479.84 893.57,-483.49"/>
<text text-anchor="start" x="883.65" y="-495.07" font-family="Roboto, sans-serif" font-weight="bold" font-size="14.00">JA</text>
</g>
<!-- 9&#45;&gt;A03 -->
<g id="edge18" class="edge">
<title>9-&gt;A03</title>
<path fill="none" stroke="#88a0d6" d="M737.41,-426.94C705.44,-415.62 675.1,-398.72 652.65,-373.59 628.61,-346.67 604.26,-242.51 625.65,-213.44"/>
<text text-anchor="start" x="618.65" y="-253.38" font-family="Roboto, sans-serif" font-weight="bold" font-size="14.00">NEIN</text>
</g>
<!-- 10 -->
<g id="node14" class="node">
<title>10</title>
<path fill="#c2cee9" stroke="black" stroke-width="0" d="M1257.55,-373.59C1257.55,-373.59 673.75,-373.59 673.75,-373.59 667.75,-373.59 661.75,-367.59 661.75,-361.59 661.75,-361.59 661.75,-340.31 661.75,-340.31 661.75,-334.31 667.75,-328.31 673.75,-328.31 673.75,-328.31 1257.55,-328.31 1257.55,-328.31 1263.55,-328.31 1269.55,-334.31 1269.55,-340.31 1269.55,-340.31 1269.55,-361.59 1269.55,-361.59 1269.55,-367.59 1263.55,-373.59 1257.55,-373.59"/>
<text text-anchor="start" x="676.15" y="-352.65" font-family="Roboto, sans-serif" font-weight="bold" font-size="14.00">10: </text>
<text text-anchor="start" x="705.4" y="-352.65" font-family="Roboto, sans-serif" font-size="14.00">Entspricht die tats&#228;chlich bilanzierte Menge der erwarteten bilanzierten Menge</text>
<text text-anchor="start" x="676.15" y="-338.65" font-family="Roboto, sans-serif" font-size="14.00">(monatlich gemessene Menge auf Basis von 1/4-h-Werten)?</text>
</g>
<!-- 9&#45;&gt;10 -->
<g id="edge19" class="edge">
<title>9-&gt;10</title>
<path fill="none" stroke="#88a0d6" d="M922.08,-427.06C929.55,-414.18 939.18,-397.58 947.49,-383.25"/>
<polygon fill="#88a0d6" stroke="#88a0d6" points="950.51,-385.03 952.5,-374.62 944.45,-381.52 950.51,-385.03"/>
<text text-anchor="start" x="940.65" y="-396.54" font-family="Roboto, sans-serif" font-weight="bold" font-size="14.00">JA</text>
</g>
<!-- 10&#45;&gt;A03 -->
<g id="edge20" class="edge">
<title>10-&gt;A03</title>
<path fill="none" stroke="#88a0d6" d="M806.61,-328.38C771.83,-317.22 737.68,-300.39 711.65,-275.06 674.52,-238.92 645.95,-206.63 675.65,-164.17"/>
<text text-anchor="start" x="667.65" y="-208.76" font-family="Roboto, sans-serif" font-weight="bold" font-size="14.00">NEIN</text>
</g>
<!-- 11 -->
<g id="node15" class="node">
<title>11</title>
<path fill="#c2cee9" stroke="black" stroke-width="0" d="M1266.42,-275.06C1266.42,-275.06 732.88,-275.06 732.88,-275.06 726.88,-275.06 720.88,-269.06 720.88,-263.06 720.88,-263.06 720.88,-251.06 720.88,-251.06 720.88,-245.06 726.88,-239.06 732.88,-239.06 732.88,-239.06 1266.42,-239.06 1266.42,-239.06 1272.42,-239.06 1278.42,-245.06 1278.42,-251.06 1278.42,-251.06 1278.42,-263.06 1278.42,-263.06 1278.42,-269.06 1272.42,-275.06 1266.42,-275.06"/>
<text text-anchor="start" x="735.27" y="-253.38" font-family="Roboto, sans-serif" font-weight="bold" font-size="14.00">11: </text>
<text text-anchor="start" x="764.52" y="-253.38" font-family="Roboto, sans-serif" font-size="14.00">Entspricht der Zeitreihentyp dem zwischen NB und LF ausgetauschten?</text>
</g>
<!-- 10&#45;&gt;11 -->
<g id="edge21" class="edge">
<title>10-&gt;11</title>
<path fill="none" stroke="#88a0d6" d="M973.54,-328.64C978.3,-315.75 984.43,-299.2 989.55,-285.36"/>
<polygon fill="#88a0d6" stroke="#88a0d6" points="992.68,-286.98 992.87,-276.39 986.12,-284.55 992.68,-286.98"/>
<text text-anchor="start" x="986.65" y="-298.01" font-family="Roboto, sans-serif" font-weight="bold" font-size="14.00">JA</text>
</g>
<!-- 11&#45;&gt;A03 -->
<g id="edge22" class="edge">
<title>11-&gt;A03</title>
<path fill="none" stroke="#88a0d6" d="M884.44,-239.09C821.2,-227.33 751.48,-209.52 730.65,-185.81 709.68,-161.94 704.68,-141.76 721.65,-114.91"/>
<text text-anchor="start" x="730.65" y="-159.5" font-family="Roboto, sans-serif" font-weight="bold" font-size="14.00">NEIN</text>
</g>
<!-- 12 -->
<g id="node16" class="node">
<title>12</title>
<path fill="#c2cee9" stroke="black" stroke-width="0" d="M1365.05,-185.81C1365.05,-185.81 790.25,-185.81 790.25,-185.81 784.25,-185.81 778.25,-179.81 778.25,-173.81 778.25,-173.81 778.25,-152.53 778.25,-152.53 778.25,-146.53 784.25,-140.53 790.25,-140.53 790.25,-140.53 1365.05,-140.53 1365.05,-140.53 1371.05,-140.53 1377.05,-146.53 1377.05,-152.53 1377.05,-152.53 1377.05,-173.81 1377.05,-173.81 1377.05,-179.81 1371.05,-185.81 1365.05,-185.81"/>
<text text-anchor="start" x="792.65" y="-164.87" font-family="Roboto, sans-serif" font-weight="bold" font-size="14.00">12: </text>
<text text-anchor="start" x="821.9" y="-164.87" font-family="Roboto, sans-serif" font-size="14.00">Ist der &#220;bertrag der Energiemenge der Marktlokation aus der &#220;NB-DZR in die</text>
<text text-anchor="start" x="792.65" y="-150.87" font-family="Roboto, sans-serif" font-size="14.00">NB-DZR berechtigt?</text>
</g>
<!-- 11&#45;&gt;12 -->
<g id="edge23" class="edge">
<title>11-&gt;12</title>
<path fill="none" stroke="#88a0d6" d="M1013.96,-239.21C1024.62,-226.65 1039.46,-209.16 1052.14,-194.22"/>
<polygon fill="#88a0d6" stroke="#88a0d6" points="1054.52,-196.83 1058.32,-186.94 1049.18,-192.3 1054.52,-196.83"/>
<text text-anchor="start" x="1042.65" y="-208.76" font-family="Roboto, sans-serif" font-weight="bold" font-size="14.00">JA</text>
</g>
<!-- 12&#45;&gt;A03 -->
<g id="edge24" class="edge">
<title>12-&gt;A03</title>
<path fill="none" stroke="#88a0d6" d="M1022.99,-140.61C988.07,-126.84 941.39,-108.43 898.26,-91.42"/>
<polygon fill="#88a0d6" stroke="#88a0d6" points="899.67,-88.21 889.08,-87.8 897.1,-94.73 899.67,-88.21"/>
<text text-anchor="start" x="972.65" y="-110.23" font-family="Roboto, sans-serif" font-weight="bold" font-size="14.00">NEIN</text>
</g>
<!-- Ende -->
<g id="node17" class="node">
<title>Ende</title>
<path fill="#8ba2d7" stroke="black" stroke-width="0" d="M1097.68,-61.64C1097.68,-61.64 1057.62,-61.64 1057.62,-61.64 1051.62,-61.64 1045.62,-55.64 1045.62,-49.64 1045.62,-49.64 1045.62,-37.64 1045.62,-37.64 1045.62,-31.64 1051.62,-25.64 1057.62,-25.64 1057.62,-25.64 1097.68,-25.64 1097.68,-25.64 1103.68,-25.64 1109.68,-31.64 1109.68,-37.64 1109.68,-37.64 1109.68,-49.64 1109.68,-49.64 1109.68,-55.64 1103.68,-61.64 1097.68,-61.64"/>
<text text-anchor="middle" x="1077.65" y="-38.97" font-family="Roboto, sans-serif" font-size="14.00">Ende</text>
</g>
<!-- 12&#45;&gt;Ende -->
<g id="edge25" class="edge">
<title>12-&gt;Ende</title>
<path fill="none" stroke="#88a0d6" d="M1077.65,-140.61C1077.65,-121.56 1077.65,-93.63 1077.65,-72.81"/>
<polygon fill="#88a0d6" stroke="#88a0d6" points="1081.15,-73.01 1077.65,-63.01 1074.15,-73.01 1081.15,-73.01"/>
<text text-anchor="start" x="1077.65" y="-110.23" font-family="Roboto, sans-serif" font-weight="bold" font-size="14.00">JA</text>
</g>
</g>
</svg>
  </g>
</svg>
  </g>
</svg>
