<svg xmlns="http://www.w3.org/2000/svg" xmlns:xlink="http://www.w3.org/1999/xlink" version="1.1" width="1853.3333333333333px" viewBox="0 0 1853.3333333333333 1765.3333333333333" height="1765.3333333333333px">
  <g>
    <svg version="1.1" width="1853.3333333333333px" viewBox="0 0 1853.3333333333333 1765.3333333333333" height="1765.3333333333333px">
  <rect fill="#e7e6e5" x="0" y="0" width="1853.3333333333333" height="1765.3333333333333" rx="20" ry="20"/><g>
    <g transform="translate(206.76263963202848, 176.53333333333327) scale(1 1) translate(0, 0) scale(2.485684783629025 2.485684783629025) "><defs>
    <style>.cls-1{fill:#ffffff88;}</style>
    <!--
    ffffff88 is white with 50% transparency; this matches the colour of the tesa strip on
    ebd.hochfrequenz.de where it crosses the diagram SVG:
    https://github.com/Hochfrequenz/entscheidungsbaumdiagramme/blob/01bd43fa0f1d0333fa93596bc8b9fd1e4b285c8c/src/lib/components/features/svg-container.svelte#L54
    -->
  </defs>
  <path class="cls-1" d="M122.44,531.2h-56.1c-11,0-19.9-9.12-19.46-20.11C57.47,243.89,278.15,29.78,547.91,29.78v56.02c0,10.98-8.69,19.89-19.66,20.39-225.51,10.31-405.8,197-405.8,425Z"/>
  <path class="cls-1" d="M273.78,531.2h-55.93c-11.23,0-20.09-9.48-19.43-20.69,10.74-183.44,163.39-329.39,349.48-329.39v56.26c0,10.71-8.27,19.62-18.96,20.35-142.35,9.77-255.17,128.69-255.17,273.46Z"/>
  <path class="cls-1" d="M425.77,531.2h-55.45c-11.65,0-20.6-10.17-19.33-21.75,10.87-99.03,95.03-176.34,196.92-176.34v57.01c0,10.05-7.28,18.75-17.23,20.16-59.22,8.4-104.91,59.42-104.91,120.92Z"/>
</g>
    <svg width="1390pt" height="1324pt" viewBox="0.00 0.00 1389.53 1323.77">
<g id="graph0" class="graph" transform="scale(1 1) rotate(0) translate(18 1305.77)">
<title>D</title>
<text text-anchor="start" x="296.14" y="-1267.67" font-family="Roboto, sans-serif" font-weight="bold" font-size="18.00">MaBiS</text>
<text text-anchor="start" x="296.14" y="-1239.57" font-family="Roboto, sans-serif" font-weight="bold" font-size="16.00">7.59.1: AD: Austausch der Lieferantenausfallarbeitsclearingliste (Einzelanforderung)</text>
<g id="clust1" class="cluster">
<title>cluster_msi_4</title>
<path fill="#f0f7ff" stroke="#888888" stroke-width="1.5" stroke-dasharray="5,2" d="M20,-116.53C20,-116.53 874,-116.53 874,-116.53 880,-116.53 886,-122.53 886,-128.53 886,-128.53 886,-763.18 886,-763.18 886,-769.18 880,-775.18 874,-775.18 874,-775.18 20,-775.18 20,-775.18 14,-775.18 8,-769.18 8,-763.18 8,-763.18 8,-128.53 8,-128.53 8,-122.53 14,-116.53 20,-116.53"/>
</g>
<!-- msi_4 -->
<g id="node1" class="node">
<title>msi_4</title>
<polygon fill="#e6f3ff" stroke="black" stroke-width="0" points="863.77,-759.18 534.23,-759.18 534.23,-713.9 869.77,-713.9 869.77,-753.18 863.77,-759.18"/>
<polyline fill="none" stroke="black" stroke-width="0" points="863.77,-759.18 863.77,-753.18"/>
<polyline fill="none" stroke="black" stroke-width="0" points="869.77,-753.18 863.77,-753.18"/>
<text text-anchor="start" x="548.62" y="-738.24" font-family="Roboto, sans-serif" font-style="italic" font-size="14.00">Je Marktlokation erfolgen die nachfolgenden</text>
<text text-anchor="start" x="548.62" y="-724.24" font-family="Roboto, sans-serif" font-style="italic" font-size="14.00">Prüfungen:</text>
</g>
<!-- 4 -->
<g id="node2" class="node">
<title>4</title>
<path fill="#c2cee9" stroke="black" stroke-width="0" d="M503.77,-754.54C503.77,-754.54 36.23,-754.54 36.23,-754.54 30.23,-754.54 24.23,-748.54 24.23,-742.54 24.23,-742.54 24.23,-730.54 24.23,-730.54 24.23,-724.54 30.23,-718.54 36.23,-718.54 36.23,-718.54 503.77,-718.54 503.77,-718.54 509.77,-718.54 515.77,-724.54 515.77,-730.54 515.77,-730.54 515.77,-742.54 515.77,-742.54 515.77,-748.54 509.77,-754.54 503.77,-754.54"/>
<text text-anchor="start" x="38.62" y="-732.87" font-family="Roboto, sans-serif" font-weight="bold" font-size="14.00">4: </text>
<text text-anchor="start" x="58.12" y="-732.87" font-family="Roboto, sans-serif" font-size="14.00">Ist eine erwartete Marktlokation in der LF-AACL nicht enthalten?</text>
</g>
<!-- 5 -->
<g id="node3" class="node">
<title>5</title>
<path fill="#c2cee9" stroke="black" stroke-width="0" d="M858.02,-632.65C858.02,-632.65 277.98,-632.65 277.98,-632.65 271.98,-632.65 265.98,-626.65 265.98,-620.65 265.98,-620.65 265.98,-599.37 265.98,-599.37 265.98,-593.37 271.98,-587.37 277.98,-587.37 277.98,-587.37 858.02,-587.37 858.02,-587.37 864.02,-587.37 870.02,-593.37 870.02,-599.37 870.02,-599.37 870.02,-620.65 870.02,-620.65 870.02,-626.65 864.02,-632.65 858.02,-632.65"/>
<text text-anchor="start" x="280.38" y="-611.71" font-family="Roboto, sans-serif" font-weight="bold" font-size="14.00">5: </text>
<text text-anchor="start" x="299.88" y="-611.71" font-family="Roboto, sans-serif" font-size="14.00">Ist in der LF-AACL eine Marktlokation enthalten, die im Bilanzierungsmonat dem</text>
<text text-anchor="start" x="280.38" y="-597.71" font-family="Roboto, sans-serif" font-size="14.00">LF zur Bilanzierung nicht zugeordnet ist?</text>
</g>
<!-- 4&#45;&gt;5 -->
<g id="edge9" class="edge">
<title>4-&gt;5</title>
<path fill="none" stroke="#88a0d6" d="M310.5,-718.62C360.87,-697.57 447.36,-661.42 506.07,-636.89"/>
<polygon fill="#88a0d6" stroke="#88a0d6" points="507.06,-640.27 514.93,-633.19 504.36,-633.81 507.06,-640.27"/>
<text text-anchor="start" x="436" y="-669.6" font-family="Roboto, sans-serif" font-weight="bold" font-size="14.00">NEIN</text>
</g>
<!-- A04 -->
<g id="node15" class="node">
<title>A04</title>
<path fill="#c4cac1" stroke="black" stroke-width="0" d="M1251.53,-646.65C1251.53,-646.65 914.48,-646.65 914.48,-646.65 908.48,-646.65 902.48,-640.65 902.48,-634.65 902.48,-634.65 902.48,-585.37 902.48,-585.37 902.48,-579.37 908.48,-573.37 914.48,-573.37 914.48,-573.37 1251.53,-573.37 1251.53,-573.37 1257.53,-573.37 1263.53,-579.37 1263.53,-585.37 1263.53,-585.37 1263.53,-634.65 1263.53,-634.65 1263.53,-640.65 1257.53,-646.65 1251.53,-646.65"/>
<text text-anchor="start" x="916.88" y="-625.71" font-family="Roboto, sans-serif" font-weight="bold" font-size="14.00">A04</text>
<text text-anchor="start" x="916.88" y="-597.71" font-family="Roboto, sans-serif" font-size="14.00">Cluster: Korrekturliste wegen Ablehnung</text>
<text text-anchor="start" x="916.88" y="-583.71" font-family="Roboto, sans-serif" font-size="14.00">Zusätzlicher Datensatz / ergänzte Marktlokation</text>
</g>
<!-- 4&#45;&gt;A04 -->
<g id="edge8" class="edge">
<title>4-&gt;A04</title>
<path fill="none" stroke="#88a0d6" d="M390.11,-718.59C556.4,-695.07 841.85,-654.54 890,-646.65 890.39,-646.59 890.77,-646.52 891.16,-646.46"/>
<polygon fill="#88a0d6" stroke="#88a0d6" points="891.7,-649.92 900.99,-644.82 890.55,-643.01 891.7,-649.92"/>
<text text-anchor="start" x="756" y="-669.6" font-family="Roboto, sans-serif" font-weight="bold" font-size="14.00">JA</text>
</g>
<!-- 6 -->
<g id="node4" class="node">
<title>6</title>
<path fill="#c2cee9" stroke="black" stroke-width="0" d="M846.15,-501.48C846.15,-501.48 299.85,-501.48 299.85,-501.48 293.85,-501.48 287.85,-495.48 287.85,-489.48 287.85,-489.48 287.85,-477.48 287.85,-477.48 287.85,-471.48 293.85,-465.48 299.85,-465.48 299.85,-465.48 846.15,-465.48 846.15,-465.48 852.15,-465.48 858.15,-471.48 858.15,-477.48 858.15,-477.48 858.15,-489.48 858.15,-489.48 858.15,-495.48 852.15,-501.48 846.15,-501.48"/>
<text text-anchor="start" x="302.25" y="-479.8" font-family="Roboto, sans-serif" font-weight="bold" font-size="14.00">6: </text>
<text text-anchor="start" x="321.75" y="-479.8" font-family="Roboto, sans-serif" font-size="14.00">Ist die in der LF-AACL enthaltene Marktlokation dem MaBiS-ZP zugeordnet?</text>
</g>
<!-- 5&#45;&gt;6 -->
<g id="edge11" class="edge">
<title>5-&gt;6</title>
<path fill="none" stroke="#88a0d6" d="M568.86,-587.6C569.69,-566.85 570.96,-535.27 571.87,-512.52"/>
<polygon fill="#88a0d6" stroke="#88a0d6" points="575.36,-512.87 572.27,-502.74 568.37,-512.59 575.36,-512.87"/>
<text text-anchor="start" x="570" y="-543.07" font-family="Roboto, sans-serif" font-weight="bold" font-size="14.00">NEIN</text>
</g>
<!-- A05 -->
<g id="node16" class="node">
<title>A05</title>
<path fill="#c4cac1" stroke="black" stroke-width="0" d="M1199.65,-520.12C1199.65,-520.12 914.35,-520.12 914.35,-520.12 908.35,-520.12 902.35,-514.12 902.35,-508.12 902.35,-508.12 902.35,-458.84 902.35,-458.84 902.35,-452.84 908.35,-446.84 914.35,-446.84 914.35,-446.84 1199.65,-446.84 1199.65,-446.84 1205.65,-446.84 1211.65,-452.84 1211.65,-458.84 1211.65,-458.84 1211.65,-508.12 1211.65,-508.12 1211.65,-514.12 1205.65,-520.12 1199.65,-520.12"/>
<text text-anchor="start" x="916.75" y="-499.18" font-family="Roboto, sans-serif" font-weight="bold" font-size="14.00">A05</text>
<text text-anchor="start" x="916.75" y="-471.18" font-family="Roboto, sans-serif" font-size="14.00">Cluster: Korrekturliste wegen Ablehnung</text>
<text text-anchor="start" x="916.75" y="-457.18" font-family="Roboto, sans-serif" font-size="14.00">Marktlokation falschem LF zugeordnet</text>
</g>
<!-- 5&#45;&gt;A05 -->
<g id="edge10" class="edge">
<title>5-&gt;A05</title>
<path fill="none" stroke="#88a0d6" d="M652.9,-587.39C722.52,-569.66 822.81,-544.12 906.06,-522.92"/>
<polygon fill="#88a0d6" stroke="#88a0d6" points="906.87,-526.32 915.7,-520.46 905.14,-519.54 906.87,-526.32"/>
<text text-anchor="start" x="841" y="-543.07" font-family="Roboto, sans-serif" font-weight="bold" font-size="14.00">JA</text>
</g>
<!-- 7 -->
<g id="node5" class="node">
<title>7</title>
<path fill="#c2cee9" stroke="black" stroke-width="0" d="M854.4,-379.59C854.4,-379.59 291.6,-379.59 291.6,-379.59 285.6,-379.59 279.6,-373.59 279.6,-367.59 279.6,-367.59 279.6,-346.31 279.6,-346.31 279.6,-340.31 285.6,-334.31 291.6,-334.31 291.6,-334.31 854.4,-334.31 854.4,-334.31 860.4,-334.31 866.4,-340.31 866.4,-346.31 866.4,-346.31 866.4,-367.59 866.4,-367.59 866.4,-373.59 860.4,-379.59 854.4,-379.59"/>
<text text-anchor="start" x="294" y="-358.65" font-family="Roboto, sans-serif" font-weight="bold" font-size="14.00">7: </text>
<text text-anchor="start" x="313.5" y="-358.65" font-family="Roboto, sans-serif" font-size="14.00">Entspricht das Bilanzierungsgebiet dem zwischen NB und LF ausgetauschten</text>
<text text-anchor="start" x="294" y="-344.65" font-family="Roboto, sans-serif" font-size="14.00">Bilanzierungsgebiet?</text>
</g>
<!-- 6&#45;&gt;7 -->
<g id="edge13" class="edge">
<title>6-&gt;7</title>
<path fill="none" stroke="#88a0d6" d="M573,-465.69C573,-446.6 573,-414.99 573,-390.93"/>
<polygon fill="#88a0d6" stroke="#88a0d6" points="576.5,-391 573,-381 569.5,-391 576.5,-391"/>
<text text-anchor="start" x="573" y="-416.54" font-family="Roboto, sans-serif" font-weight="bold" font-size="14.00">JA</text>
</g>
<!-- A06 -->
<g id="node17" class="node">
<title>A06</title>
<path fill="#c4cac1" stroke="black" stroke-width="0" d="M1341.53,-393.59C1341.53,-393.59 914.48,-393.59 914.48,-393.59 908.48,-393.59 902.48,-387.59 902.48,-381.59 902.48,-381.59 902.48,-332.31 902.48,-332.31 902.48,-326.31 908.48,-320.31 914.48,-320.31 914.48,-320.31 1341.53,-320.31 1341.53,-320.31 1347.53,-320.31 1353.53,-326.31 1353.53,-332.31 1353.53,-332.31 1353.53,-381.59 1353.53,-381.59 1353.53,-387.59 1347.53,-393.59 1341.53,-393.59"/>
<text text-anchor="start" x="916.88" y="-372.65" font-family="Roboto, sans-serif" font-weight="bold" font-size="14.00">A06</text>
<text text-anchor="start" x="916.88" y="-344.65" font-family="Roboto, sans-serif" font-size="14.00">Cluster: Korrekturliste wegen Ablehnung</text>
<text text-anchor="start" x="916.88" y="-330.65" font-family="Roboto, sans-serif" font-size="14.00">Zu viele Marktlokationen enthalten / entfallene Marktlokation</text>
</g>
<!-- 6&#45;&gt;A06 -->
<g id="edge12" class="edge">
<title>6-&gt;A06</title>
<path fill="none" stroke="#88a0d6" d="M648.72,-465.49C727.92,-447.72 854.87,-419.23 958.22,-396.04"/>
<polygon fill="#88a0d6" stroke="#88a0d6" points="958.96,-399.47 967.95,-393.86 957.42,-392.64 958.96,-399.47"/>
<text text-anchor="start" x="883" y="-416.54" font-family="Roboto, sans-serif" font-weight="bold" font-size="14.00">NEIN</text>
</g>
<!-- 8 -->
<g id="node6" class="node">
<title>8</title>
<path fill="#c2cee9" stroke="black" stroke-width="0" d="M739.65,-267.06C739.65,-267.06 154.35,-267.06 154.35,-267.06 148.35,-267.06 142.35,-261.06 142.35,-255.06 142.35,-255.06 142.35,-243.06 142.35,-243.06 142.35,-237.06 148.35,-231.06 154.35,-231.06 154.35,-231.06 739.65,-231.06 739.65,-231.06 745.65,-231.06 751.65,-237.06 751.65,-243.06 751.65,-243.06 751.65,-255.06 751.65,-255.06 751.65,-261.06 745.65,-267.06 739.65,-267.06"/>
<text text-anchor="start" x="156.75" y="-245.38" font-family="Roboto, sans-serif" font-weight="bold" font-size="14.00">8: </text>
<text text-anchor="start" x="176.25" y="-245.38" font-family="Roboto, sans-serif" font-size="14.00">Entspricht der Bilanzkreis dem zwischen NB und LF ausgetauschten Bilanzkreis?</text>
</g>
<!-- 7&#45;&gt;8 -->
<g id="edge15" class="edge">
<title>7-&gt;8</title>
<path fill="none" stroke="#88a0d6" d="M547.5,-334.52C526.74,-317.07 497.43,-292.44 475.82,-274.28"/>
<polygon fill="#88a0d6" stroke="#88a0d6" points="478.14,-271.66 468.23,-267.9 473.64,-277.02 478.14,-271.66"/>
<text text-anchor="start" x="506" y="-290.01" font-family="Roboto, sans-serif" font-weight="bold" font-size="14.00">JA</text>
</g>
<!-- A07 -->
<g id="node18" class="node">
<title>A07</title>
<path fill="#c4cac1" stroke="black" stroke-width="0" d="M872.27,-73.28C872.27,-73.28 557.73,-73.28 557.73,-73.28 551.73,-73.28 545.73,-67.28 545.73,-61.28 545.73,-61.28 545.73,-12 545.73,-12 545.73,-6 551.73,0 557.73,0 557.73,0 872.27,0 872.27,0 878.27,0 884.27,-6 884.27,-12 884.27,-12 884.27,-61.28 884.27,-61.28 884.27,-67.28 878.27,-73.28 872.27,-73.28"/>
<text text-anchor="start" x="560.12" y="-52.34" font-family="Roboto, sans-serif" font-weight="bold" font-size="14.00">A07</text>
<text text-anchor="start" x="560.12" y="-24.34" font-family="Roboto, sans-serif" font-size="14.00">Cluster: Korrekturliste wegen Ablehnung</text>
<text text-anchor="start" x="560.12" y="-10.34" font-family="Roboto, sans-serif" font-size="14.00">bilanzierungsrel. Daten nicht korrekt / fehlen</text>
</g>
<!-- 7&#45;&gt;A07 -->
<g id="edge14" class="edge">
<title>7-&gt;A07</title>
<path fill="none" stroke="#88a0d6" d="M665.06,-334.34C700.99,-321.05 738.82,-300 761,-267.06 798.38,-211.53 795.34,-176.69 766,-116.53 761.06,-106.39 749.28,-111.7 746,-100.91"/>
<text text-anchor="start" x="788" y="-200.76" font-family="Roboto, sans-serif" font-weight="bold" font-size="14.00">NEIN</text>
</g>
<!-- 9 -->
<g id="node7" class="node">
<title>9</title>
<path fill="#c2cee9" stroke="black" stroke-width="0" d="M665.15,-177.81C665.15,-177.81 196.85,-177.81 196.85,-177.81 190.85,-177.81 184.85,-171.81 184.85,-165.81 184.85,-165.81 184.85,-144.53 184.85,-144.53 184.85,-138.53 190.85,-132.53 196.85,-132.53 196.85,-132.53 665.15,-132.53 665.15,-132.53 671.15,-132.53 677.15,-138.53 677.15,-144.53 677.15,-144.53 677.15,-165.81 677.15,-165.81 677.15,-171.81 671.15,-177.81 665.15,-177.81"/>
<text text-anchor="start" x="199.25" y="-156.87" font-family="Roboto, sans-serif" font-weight="bold" font-size="14.00">9: </text>
<text text-anchor="start" x="218.75" y="-156.87" font-family="Roboto, sans-serif" font-size="14.00">Entspricht die tatsächliche Ausfallarbeitsmenge der er-warteten</text>
<text text-anchor="start" x="199.25" y="-142.87" font-family="Roboto, sans-serif" font-size="14.00">Ausfallarbeitsmenge?</text>
</g>
<!-- 8&#45;&gt;9 -->
<g id="edge17" class="edge">
<title>8-&gt;9</title>
<path fill="none" stroke="#88a0d6" d="M444.07,-231.21C442,-219.35 439.17,-203.1 436.67,-188.76"/>
<polygon fill="#88a0d6" stroke="#88a0d6" points="440.19,-188.53 435.02,-179.27 433.29,-189.73 440.19,-188.53"/>
<text text-anchor="start" x="440" y="-200.76" font-family="Roboto, sans-serif" font-weight="bold" font-size="14.00">JA</text>
</g>
<!-- 8&#45;&gt;A07 -->
<g id="edge16" class="edge">
<title>8-&gt;A07</title>
<path fill="none" stroke="#88a0d6" d="M562.29,-231.11C604.17,-220.78 650.01,-204.24 686,-177.81 712.41,-158.41 705,-140.81 727,-116.53 734.34,-108.43 748.52,-111.54 746,-100.91"/>
<path fill="none" stroke="#88a0d6" d="M746,-98.91C744.43,-93.76 742.46,-88.52 740.26,-83.39"/>
<polygon fill="#88a0d6" stroke="#88a0d6" points="743.5,-82.06 736.15,-74.43 737.14,-84.98 743.5,-82.06"/>
<text text-anchor="start" x="727" y="-151.5" font-family="Roboto, sans-serif" font-weight="bold" font-size="14.00">NEIN</text>
</g>
<!-- 9&#45;&gt;A07 -->
<g id="edge18" class="edge">
<title>9-&gt;A07</title>
<path fill="none" stroke="#88a0d6" d="M483.42,-132.66C521.04,-117.23 572.84,-95.97 617.9,-77.48"/>
<polygon fill="#88a0d6" stroke="#88a0d6" points="618.98,-80.82 626.9,-73.79 616.32,-74.35 618.98,-80.82"/>
<text text-anchor="start" x="581" y="-96.23" font-family="Roboto, sans-serif" font-weight="bold" font-size="14.00">NEIN</text>
</g>
<!-- Ende -->
<g id="node19" class="node">
<title>Ende</title>
<path fill="#8ba2d7" stroke="black" stroke-width="0" d="M451.02,-54.64C451.02,-54.64 410.98,-54.64 410.98,-54.64 404.98,-54.64 398.98,-48.64 398.98,-42.64 398.98,-42.64 398.98,-30.64 398.98,-30.64 398.98,-24.64 404.98,-18.64 410.98,-18.64 410.98,-18.64 451.02,-18.64 451.02,-18.64 457.02,-18.64 463.02,-24.64 463.02,-30.64 463.02,-30.64 463.02,-42.64 463.02,-42.64 463.02,-48.64 457.02,-54.64 451.02,-54.64"/>
<text text-anchor="middle" x="431" y="-31.96" font-family="Roboto, sans-serif" font-size="14.00">Ende</text>
</g>
<!-- 9&#45;&gt;Ende -->
<g id="edge19" class="edge">
<title>9-&gt;Ende</title>
<path fill="none" stroke="#88a0d6" d="M431,-132.8C431,-113.99 431,-86.47 431,-65.86"/>
<polygon fill="#88a0d6" stroke="#88a0d6" points="434.5,-65.86 431,-55.86 427.5,-65.86 434.5,-65.86"/>
<text text-anchor="start" x="431" y="-96.23" font-family="Roboto, sans-serif" font-weight="bold" font-size="14.00">JA</text>
</g>
<!-- Start -->
<g id="node8" class="node">
<title>Start</title>
<path fill="#8ba2d7" stroke="black" stroke-width="0" d="M384.52,-1197.77C384.52,-1197.77 251.47,-1197.77 251.47,-1197.77 245.47,-1197.77 239.47,-1191.77 239.47,-1185.77 239.47,-1185.77 239.47,-1164.49 239.47,-1164.49 239.47,-1158.49 245.47,-1152.49 251.47,-1152.49 251.47,-1152.49 384.52,-1152.49 384.52,-1152.49 390.52,-1152.49 396.52,-1158.49 396.52,-1164.49 396.52,-1164.49 396.52,-1185.77 396.52,-1185.77 396.52,-1191.77 390.52,-1197.77 384.52,-1197.77"/>
<text text-anchor="start" x="253.88" y="-1176.83" font-family="Roboto, sans-serif" font-weight="bold" font-size="14.00">E_0097</text>
<text text-anchor="start" x="253.88" y="-1162.83" font-family="Roboto, sans-serif" font-size="14.00">Prüfende Rolle: </text>
<text text-anchor="start" x="363.38" y="-1162.83" font-family="Roboto, sans-serif" font-weight="bold" font-size="14.00">LF</text>
</g>
<!-- 1 -->
<g id="node9" class="node">
<title>1</title>
<path fill="#c2cee9" stroke="black" stroke-width="0" d="M545.77,-1115.49C545.77,-1115.49 90.23,-1115.49 90.23,-1115.49 84.23,-1115.49 78.22,-1109.49 78.22,-1103.49 78.22,-1103.49 78.22,-1091.49 78.22,-1091.49 78.22,-1085.49 84.22,-1079.49 90.22,-1079.49 90.22,-1079.49 545.77,-1079.49 545.77,-1079.49 551.77,-1079.49 557.77,-1085.49 557.77,-1091.49 557.77,-1091.49 557.77,-1103.49 557.77,-1103.49 557.77,-1109.49 551.77,-1115.49 545.77,-1115.49"/>
<text text-anchor="start" x="92.62" y="-1093.82" font-family="Roboto, sans-serif" font-weight="bold" font-size="14.00">1: </text>
<text text-anchor="start" x="112.12" y="-1093.82" font-family="Roboto, sans-serif" font-size="14.00">Entspricht die Gültigkeit (Monat) dem angefragten Zeit-raum?</text>
</g>
<!-- Start&#45;&gt;1 -->
<g id="edge1" class="edge">
<title>Start-&gt;1</title>
<path fill="none" stroke="#88a0d6" d="M318,-1152.66C318,-1144.58 318,-1135.28 318,-1126.68"/>
<polygon fill="#88a0d6" stroke="#88a0d6" points="321.5,-1126.72 318,-1116.72 314.5,-1126.72 321.5,-1126.72"/>
</g>
<!-- A01 -->
<g id="node10" class="node">
<title>A01</title>
<path fill="#c4cac1" stroke="black" stroke-width="0" d="M341.15,-1026.24C341.15,-1026.24 64.85,-1026.24 64.85,-1026.24 58.85,-1026.24 52.85,-1020.24 52.85,-1014.24 52.85,-1014.24 52.85,-964.96 52.85,-964.96 52.85,-958.96 58.85,-952.96 64.85,-952.96 64.85,-952.96 341.15,-952.96 341.15,-952.96 347.15,-952.96 353.15,-958.96 353.15,-964.96 353.15,-964.96 353.15,-1014.24 353.15,-1014.24 353.15,-1020.24 347.15,-1026.24 341.15,-1026.24"/>
<text text-anchor="start" x="67.25" y="-1005.3" font-family="Roboto, sans-serif" font-weight="bold" font-size="14.00">A01</text>
<text text-anchor="start" x="67.25" y="-977.3" font-family="Roboto, sans-serif" font-size="14.00">Cluster: Ablehnung der gesamten Liste</text>
<text text-anchor="start" x="67.25" y="-963.3" font-family="Roboto, sans-serif" font-size="14.00">Zeitraum nicht plausibel</text>
</g>
<!-- 1&#45;&gt;A01 -->
<g id="edge2" class="edge">
<title>1-&gt;A01</title>
<path fill="none" stroke="#88a0d6" d="M299.78,-1079.71C286.39,-1067.38 267.56,-1050.04 250.06,-1033.93"/>
<polygon fill="#88a0d6" stroke="#88a0d6" points="252.45,-1031.37 242.72,-1027.17 247.71,-1036.52 252.45,-1031.37"/>
<text text-anchor="start" x="277" y="-1049.19" font-family="Roboto, sans-serif" font-weight="bold" font-size="14.00">NEIN</text>
</g>
<!-- 2 -->
<g id="node11" class="node">
<title>2</title>
<path fill="#c2cee9" stroke="black" stroke-width="0" d="M780.52,-1007.6C780.52,-1007.6 383.48,-1007.6 383.48,-1007.6 377.48,-1007.6 371.48,-1001.6 371.48,-995.6 371.48,-995.6 371.48,-983.6 371.48,-983.6 371.48,-977.6 377.48,-971.6 383.48,-971.6 383.48,-971.6 780.52,-971.6 780.52,-971.6 786.52,-971.6 792.52,-977.6 792.52,-983.6 792.52,-983.6 792.52,-995.6 792.52,-995.6 792.52,-1001.6 786.52,-1007.6 780.52,-1007.6"/>
<text text-anchor="start" x="385.88" y="-985.92" font-family="Roboto, sans-serif" font-weight="bold" font-size="14.00">2: </text>
<text text-anchor="start" x="405.38" y="-985.92" font-family="Roboto, sans-serif" font-size="14.00">Entspricht der MaBiS-ZP dem angefragten MaBiS-ZP?</text>
</g>
<!-- 1&#45;&gt;2 -->
<g id="edge3" class="edge">
<title>1-&gt;2</title>
<path fill="none" stroke="#88a0d6" d="M360.12,-1079.59C406.1,-1061.15 479.78,-1031.6 529.49,-1011.66"/>
<polygon fill="#88a0d6" stroke="#88a0d6" points="530.64,-1014.97 538.62,-1008 528.04,-1008.47 530.64,-1014.97"/>
<text text-anchor="start" x="442" y="-1049.19" font-family="Roboto, sans-serif" font-weight="bold" font-size="14.00">JA</text>
</g>
<!-- A02 -->
<g id="node12" class="node">
<title>A02</title>
<path fill="#c4cac1" stroke="black" stroke-width="0" d="M558.27,-899.71C558.27,-899.71 177.73,-899.71 177.73,-899.71 171.73,-899.71 165.72,-893.71 165.72,-887.71 165.72,-887.71 165.72,-838.43 165.72,-838.43 165.72,-832.43 171.72,-826.43 177.72,-826.43 177.72,-826.43 558.27,-826.43 558.27,-826.43 564.27,-826.43 570.27,-832.43 570.27,-838.43 570.27,-838.43 570.27,-887.71 570.27,-887.71 570.27,-893.71 564.27,-899.71 558.27,-899.71"/>
<text text-anchor="start" x="180.12" y="-878.77" font-family="Roboto, sans-serif" font-weight="bold" font-size="14.00">A02</text>
<text text-anchor="start" x="180.12" y="-850.77" font-family="Roboto, sans-serif" font-size="14.00">Cluster: Ablehnung der gesamten Liste</text>
<text text-anchor="start" x="180.12" y="-836.77" font-family="Roboto, sans-serif" font-size="14.00">MaBiS-ZP entspricht nicht dem angefragten MaBiS-ZP</text>
</g>
<!-- 2&#45;&gt;A02 -->
<g id="edge4" class="edge">
<title>2-&gt;A02</title>
<path fill="none" stroke="#88a0d6" d="M553.14,-971.81C524.01,-954.85 477.88,-928.01 438.96,-905.36"/>
<polygon fill="#88a0d6" stroke="#88a0d6" points="440.94,-902.47 430.54,-900.46 437.42,-908.52 440.94,-902.47"/>
<text text-anchor="start" x="487" y="-922.66" font-family="Roboto, sans-serif" font-weight="bold" font-size="14.00">NEIN</text>
</g>
<!-- 3 -->
<g id="node13" class="node">
<title>3</title>
<path fill="#c2cee9" stroke="black" stroke-width="0" d="M1189.53,-885.71C1189.53,-885.71 600.48,-885.71 600.48,-885.71 594.48,-885.71 588.48,-879.71 588.48,-873.71 588.48,-873.71 588.48,-852.43 588.48,-852.43 588.48,-846.43 594.48,-840.43 600.48,-840.43 600.48,-840.43 1189.53,-840.43 1189.53,-840.43 1195.53,-840.43 1201.53,-846.43 1201.53,-852.43 1201.53,-852.43 1201.53,-873.71 1201.53,-873.71 1201.53,-879.71 1195.53,-885.71 1189.53,-885.71"/>
<text text-anchor="start" x="602.88" y="-864.77" font-family="Roboto, sans-serif" font-weight="bold" font-size="14.00">3: </text>
<text text-anchor="start" x="622.38" y="-864.77" font-family="Roboto, sans-serif" font-size="14.00">Entspricht die Versionsangabe in der LF-AACL der Versionsangabe der LF-AASZR,</text>
<text text-anchor="start" x="602.88" y="-850.77" font-family="Roboto, sans-serif" font-size="14.00">zu der eine LF-AACL angefordert wurde?</text>
</g>
<!-- 2&#45;&gt;3 -->
<g id="edge5" class="edge">
<title>2-&gt;3</title>
<path fill="none" stroke="#88a0d6" d="M624.54,-971.68C677.55,-950.58 768.66,-914.33 830.34,-889.8"/>
<polygon fill="#88a0d6" stroke="#88a0d6" points="831.33,-893.17 839.32,-886.22 828.74,-886.67 831.33,-893.17"/>
<text text-anchor="start" x="757" y="-922.66" font-family="Roboto, sans-serif" font-weight="bold" font-size="14.00">JA</text>
</g>
<!-- 3&#45;&gt;4 -->
<g id="edge7" class="edge">
<title>3-&gt;4</title>
<path fill="none" stroke="#88a0d6" d="M786.49,-840.45C667.92,-816.82 479.76,-779.33 366.26,-756.72"/>
<polygon fill="#88a0d6" stroke="#88a0d6" points="367.15,-753.33 356.66,-754.81 365.78,-760.19 367.15,-753.33"/>
<text text-anchor="start" x="619" y="-796.13" font-family="Roboto, sans-serif" font-weight="bold" font-size="14.00">JA</text>
</g>
<!-- A03 -->
<g id="node14" class="node">
<title>A03</title>
<path fill="#c4cac1" stroke="black" stroke-width="0" d="M1194.4,-773.18C1194.4,-773.18 913.6,-773.18 913.6,-773.18 907.6,-773.18 901.6,-767.18 901.6,-761.18 901.6,-761.18 901.6,-711.9 901.6,-711.9 901.6,-705.9 907.6,-699.9 913.6,-699.9 913.6,-699.9 1194.4,-699.9 1194.4,-699.9 1200.4,-699.9 1206.4,-705.9 1206.4,-711.9 1206.4,-711.9 1206.4,-761.18 1206.4,-761.18 1206.4,-767.18 1200.4,-773.18 1194.4,-773.18"/>
<text text-anchor="start" x="916" y="-752.24" font-family="Roboto, sans-serif" font-weight="bold" font-size="14.00">A03</text>
<text text-anchor="start" x="916" y="-724.24" font-family="Roboto, sans-serif" font-size="14.00">Cluster: Ablehnung der gesamten Liste </text>
<text text-anchor="start" x="916" y="-710.24" font-family="Roboto, sans-serif" font-size="14.00">Version nicht zugelassen</text>
</g>
<!-- 3&#45;&gt;A03 -->
<g id="edge6" class="edge">
<title>3-&gt;A03</title>
<path fill="none" stroke="#88a0d6" d="M922.33,-840.66C943.54,-824.05 973.61,-800.5 999.67,-780.1"/>
<polygon fill="#88a0d6" stroke="#88a0d6" points="1001.79,-782.88 1007.5,-773.96 997.47,-777.37 1001.79,-782.88"/>
<text text-anchor="start" x="984" y="-796.13" font-family="Roboto, sans-serif" font-weight="bold" font-size="14.00">NEIN</text>
</g>
</g>
</svg>
  </g>
</svg>
  </g>
<text x="1843.3333333333333" y="1755.3333333333333" text-anchor="end" font-family="Roboto, sans-serif" font-size="10" fill="#666666">v4.1 | 11.12.2025 (urspr. 01.04.2025) | ebdamame v1.0.0 | rebdhuhn v1.0.1</text></svg>