<svg xmlns="http://www.w3.org/2000/svg" xmlns:xlink="http://www.w3.org/1999/xlink" version="1.1" width="1920.0px" viewBox="0 0 1920.0 832.0" height="832.0px">
  <g>
    <svg version="1.1" width="1920.0px" viewBox="0 0 1920.0 832.0" height="832.0px">
  <rect fill="#e7e6e5" x="0" y="0" width="1920.0" height="832.0" rx="20" ry="20"/><g>
    <g transform="translate(620.7098845395662, 83.19999999999999) scale(1 1) translate(0, 0) scale(1.1715009856378487 1.1715009856378487) "><defs>
    <style>.cls-1{fill:#ffffff88;}</style>
    <!--
    ffffff88 is white with 50% transparency; this matches the colour of the tesa strip on
    ebd.hochfrequenz.de where it crosses the diagram SVG:
    https://github.com/Hochfrequenz/entscheidungsbaumdiagramme/blob/01bd43fa0f1d0333fa93596bc8b9fd1e4b285c8c/src/lib/components/features/svg-container.svelte#L54
    -->
  </defs>
  <path class="cls-1" d="M122.44,531.2h-56.1c-11,0-19.9-9.12-19.46-20.11C57.47,243.89,278.15,29.78,547.91,29.78v56.02c0,10.98-8.69,19.89-19.66,20.39-225.51,10.31-405.8,197-405.8,425Z"/>
  <path class="cls-1" d="M273.78,531.2h-55.93c-11.23,0-20.09-9.48-19.43-20.69,10.74-183.44,163.39-329.39,349.48-329.39v56.26c0,10.71-8.27,19.62-18.96,20.35-142.35,9.77-255.17,128.69-255.17,273.46Z"/>
  <path class="cls-1" d="M425.77,531.2h-55.45c-11.65,0-20.6-10.17-19.33-21.75,10.87-99.03,95.03-176.34,196.92-176.34v57.01c0,10.05-7.28,18.75-17.23,20.16-59.22,8.4-104.91,59.42-104.91,120.92Z"/>
</g>
    <svg width="1440pt" height="624pt" viewBox="0.00 0.00 1440.00 624.34">
<g id="graph0" class="graph" transform="scale(0.864255 0.864255) rotate(0) translate(18 704.4)">
<title>D</title>
<text text-anchor="start" x="318.59" y="-666.3" font-family="Roboto, sans-serif" font-weight="bold" font-size="18.00">GPKE</text>
<text text-anchor="start" x="318.59" y="-638.2" font-family="Roboto, sans-serif" font-weight="bold" font-size="16.00">6.14.1: AD: Stornieren der Unterbrechung und Wiederherstellung der Anschlussnutzung auf Anweisung des LF</text>
<!-- Start -->
<g id="node1" class="node">
<title>Start</title>
<path fill="#8ba2d7" stroke="black" stroke-width="0" d="M349.8,-596.4C349.8,-596.4 213,-596.4 213,-596.4 207,-596.4 201,-590.4 201,-584.4 201,-584.4 201,-563.12 201,-563.12 201,-557.12 207,-551.12 213,-551.12 213,-551.12 349.8,-551.12 349.8,-551.12 355.8,-551.12 361.8,-557.12 361.8,-563.12 361.8,-563.12 361.8,-584.4 361.8,-584.4 361.8,-590.4 355.8,-596.4 349.8,-596.4"/>
<text text-anchor="start" x="215.4" y="-575.46" font-family="Roboto, sans-serif" font-weight="bold" font-size="14.00">E_0468</text>
<text text-anchor="start" x="215.4" y="-561.46" font-family="Roboto, sans-serif" font-size="14.00">Prüfende Rolle: </text>
<text text-anchor="start" x="324.9" y="-561.46" font-family="Roboto, sans-serif" font-weight="bold" font-size="14.00">NB</text>
</g>
<!-- 1 -->
<g id="node2" class="node">
<title>1</title>
<path fill="#c2cee9" stroke="black" stroke-width="0" d="M530.92,-514.12C530.92,-514.12 31.88,-514.12 31.88,-514.12 25.88,-514.12 19.88,-508.12 19.88,-502.12 19.88,-502.12 19.88,-490.12 19.88,-490.12 19.88,-484.12 25.87,-478.12 31.87,-478.12 31.87,-478.12 530.92,-478.12 530.92,-478.12 536.92,-478.12 542.92,-484.12 542.92,-490.12 542.92,-490.12 542.92,-502.12 542.92,-502.12 542.92,-508.12 536.92,-514.12 530.92,-514.12"/>
<text text-anchor="start" x="34.27" y="-492.44" font-family="Roboto, sans-serif" font-weight="bold" font-size="14.00">1: </text>
<text text-anchor="start" x="53.77" y="-492.44" font-family="Roboto, sans-serif" font-size="14.00">Wurde der Sperr- / Entsperrauftrag bereits durch den NB abgelehnt?</text>
</g>
<!-- Start&#45;&gt;1 -->
<g id="edge1" class="edge">
<title>Start-&gt;1</title>
<path fill="none" stroke="#88a0d6" d="M281.4,-551.29C281.4,-543.21 281.4,-533.91 281.4,-525.31"/>
<polygon fill="#88a0d6" stroke="#88a0d6" points="284.9,-525.35 281.4,-515.35 277.9,-525.35 284.9,-525.35"/>
</g>
<!-- A06 -->
<g id="node3" class="node">
<title>A06</title>
<path fill="#c4cac1" stroke="black" stroke-width="0" d="M520.55,-424.87C520.55,-424.87 22.25,-424.87 22.25,-424.87 16.25,-424.87 10.25,-418.87 10.25,-412.87 10.25,-412.87 10.25,-363.59 10.25,-363.59 10.25,-357.59 16.25,-351.59 22.25,-351.59 22.25,-351.59 520.55,-351.59 520.55,-351.59 526.55,-351.59 532.55,-357.59 532.55,-363.59 532.55,-363.59 532.55,-412.87 532.55,-412.87 532.55,-418.87 526.55,-424.87 520.55,-424.87"/>
<text text-anchor="start" x="24.65" y="-403.93" font-family="Roboto, sans-serif" font-weight="bold" font-size="14.00">A06</text>
<text text-anchor="start" x="24.65" y="-375.93" font-family="Roboto, sans-serif" font-size="14.00">Cluster: Ablehnung</text>
<text text-anchor="start" x="24.65" y="-361.93" font-family="Roboto, sans-serif" font-size="14.00">Auftrag wurde bereits abgelehnt und kann nicht mehr storniert werden</text>
</g>
<!-- 1&#45;&gt;A06 -->
<g id="edge2" class="edge">
<title>1-&gt;A06</title>
<path fill="none" stroke="#88a0d6" d="M279.84,-478.57C278.75,-467.08 277.25,-451.15 275.81,-435.92"/>
<polygon fill="#88a0d6" stroke="#88a0d6" points="279.3,-435.62 274.87,-426 272.33,-436.28 279.3,-435.62"/>
<text text-anchor="start" x="277.4" y="-447.82" font-family="Roboto, sans-serif" font-weight="bold" font-size="14.00">JA</text>
</g>
<!-- 2 -->
<g id="node4" class="node">
<title>2</title>
<path fill="#c2cee9" stroke="black" stroke-width="0" d="M1010.42,-406.23C1010.42,-406.23 562.38,-406.23 562.38,-406.23 556.38,-406.23 550.38,-400.23 550.38,-394.23 550.38,-394.23 550.38,-382.23 550.38,-382.23 550.38,-376.23 556.38,-370.23 562.38,-370.23 562.38,-370.23 1010.42,-370.23 1010.42,-370.23 1016.42,-370.23 1022.42,-376.23 1022.42,-382.23 1022.42,-382.23 1022.42,-394.23 1022.42,-394.23 1022.42,-400.23 1016.42,-406.23 1010.42,-406.23"/>
<text text-anchor="start" x="564.77" y="-384.55" font-family="Roboto, sans-serif" font-weight="bold" font-size="14.00">2: </text>
<text text-anchor="start" x="584.27" y="-384.55" font-family="Roboto, sans-serif" font-size="14.00">Handelt es sich um eine Stornierung eines Entsperrauftrags?</text>
</g>
<!-- 1&#45;&gt;2 -->
<g id="edge3" class="edge">
<title>1-&gt;2</title>
<path fill="none" stroke="#88a0d6" d="M362.26,-478.17C452.85,-459.17 599.42,-428.44 694.34,-408.53"/>
<polygon fill="#88a0d6" stroke="#88a0d6" points="694.82,-412.01 703.89,-406.53 693.38,-405.16 694.82,-412.01"/>
<text text-anchor="start" x="518.4" y="-447.82" font-family="Roboto, sans-serif" font-weight="bold" font-size="14.00">NEIN</text>
</g>
<!-- 3 -->
<g id="node5" class="node">
<title>3</title>
<path fill="#c2cee9" stroke="black" stroke-width="0" d="M593.05,-293.7C593.05,-293.7 61.75,-293.7 61.75,-293.7 55.75,-293.7 49.75,-287.7 49.75,-281.7 49.75,-281.7 49.75,-269.7 49.75,-269.7 49.75,-263.7 55.75,-257.7 61.75,-257.7 61.75,-257.7 593.05,-257.7 593.05,-257.7 599.05,-257.7 605.05,-263.7 605.05,-269.7 605.05,-269.7 605.05,-281.7 605.05,-281.7 605.05,-287.7 599.05,-293.7 593.05,-293.7"/>
<text text-anchor="start" x="64.15" y="-272.02" font-family="Roboto, sans-serif" font-weight="bold" font-size="14.00">3: </text>
<text text-anchor="start" x="83.65" y="-272.02" font-family="Roboto, sans-serif" font-size="14.00">Ist die Stornierung vor der Durchführung der Entsperrung eingegangen?</text>
</g>
<!-- 2&#45;&gt;3 -->
<g id="edge4" class="edge">
<title>2-&gt;3</title>
<path fill="none" stroke="#88a0d6" d="M715.94,-370.26C633.24,-350.35 496.34,-317.38 409.08,-296.37"/>
<polygon fill="#88a0d6" stroke="#88a0d6" points="409.91,-292.97 399.37,-294.03 408.27,-299.77 409.91,-292.97"/>
<text text-anchor="start" x="556.4" y="-321.29" font-family="Roboto, sans-serif" font-weight="bold" font-size="14.00">JA</text>
</g>
<!-- 4 -->
<g id="node8" class="node">
<title>4</title>
<path fill="#c2cee9" stroke="black" stroke-width="0" d="M1233.8,-298.34C1233.8,-298.34 635,-298.34 635,-298.34 629,-298.34 623,-292.34 623,-286.34 623,-286.34 623,-265.06 623,-265.06 623,-259.06 629,-253.06 635,-253.06 635,-253.06 1233.8,-253.06 1233.8,-253.06 1239.8,-253.06 1245.8,-259.06 1245.8,-265.06 1245.8,-265.06 1245.8,-286.34 1245.8,-286.34 1245.8,-292.34 1239.8,-298.34 1233.8,-298.34"/>
<text text-anchor="start" x="637.4" y="-277.4" font-family="Roboto, sans-serif" font-weight="bold" font-size="14.00">4: </text>
<text text-anchor="start" x="656.9" y="-277.4" font-family="Roboto, sans-serif" font-size="14.00">Ist der Nachrichteneingang der Stornierung spätestens am Tag vor dem geplanten</text>
<text text-anchor="start" x="637.4" y="-263.4" font-family="Roboto, sans-serif" font-size="14.00">Ausführungstermin bzw. fixen Sperrtermin aus dem Sperrauftrag eingegangen?</text>
</g>
<!-- 2&#45;&gt;4 -->
<g id="edge5" class="edge">
<title>2-&gt;4</title>
<path fill="none" stroke="#88a0d6" d="M808.88,-370.44C832.13,-353.08 868.84,-325.66 896.57,-304.95"/>
<polygon fill="#88a0d6" stroke="#88a0d6" points="898.47,-307.9 904.39,-299.11 894.28,-302.29 898.47,-307.9"/>
<text text-anchor="start" x="877.4" y="-321.29" font-family="Roboto, sans-serif" font-weight="bold" font-size="14.00">NEIN</text>
</g>
<!-- A01 -->
<g id="node6" class="node">
<title>A01</title>
<path fill="#c4cac1" stroke="black" stroke-width="0" d="M214.8,-199.81C214.8,-199.81 12,-199.81 12,-199.81 6,-199.81 0,-193.81 0,-187.81 0,-187.81 0,-138.53 0,-138.53 0,-132.53 6,-126.53 12,-126.53 12,-126.53 214.8,-126.53 214.8,-126.53 220.8,-126.53 226.8,-132.53 226.8,-138.53 226.8,-138.53 226.8,-187.81 226.8,-187.81 226.8,-193.81 220.8,-199.81 214.8,-199.81"/>
<text text-anchor="start" x="14.4" y="-178.87" font-family="Roboto, sans-serif" font-weight="bold" font-size="14.00">A01</text>
<text text-anchor="start" x="14.4" y="-150.87" font-family="Roboto, sans-serif" font-size="14.00">Cluster: Zustimmung</text>
<text text-anchor="start" x="14.4" y="-136.87" font-family="Roboto, sans-serif" font-size="14.00">Entsperrauftrag ist storniert.</text>
</g>
<!-- 3&#45;&gt;A01 -->
<g id="edge6" class="edge">
<title>3-&gt;A01</title>
<path fill="none" stroke="#88a0d6" d="M294.9,-257.91C267.64,-243.84 227.59,-223.15 192.04,-204.79"/>
<polygon fill="#88a0d6" stroke="#88a0d6" points="193.98,-201.85 183.49,-200.37 190.77,-208.07 193.98,-201.85"/>
<text text-anchor="start" x="245.4" y="-222.76" font-family="Roboto, sans-serif" font-weight="bold" font-size="14.00">JA</text>
</g>
<!-- A02 -->
<g id="node7" class="node">
<title>A02</title>
<path fill="#c4cac1" stroke="black" stroke-width="0" d="M638.05,-199.81C638.05,-199.81 256.75,-199.81 256.75,-199.81 250.75,-199.81 244.75,-193.81 244.75,-187.81 244.75,-187.81 244.75,-138.53 244.75,-138.53 244.75,-132.53 250.75,-126.53 256.75,-126.53 256.75,-126.53 638.05,-126.53 638.05,-126.53 644.05,-126.53 650.05,-132.53 650.05,-138.53 650.05,-138.53 650.05,-187.81 650.05,-187.81 650.05,-193.81 644.05,-199.81 638.05,-199.81"/>
<text text-anchor="start" x="259.15" y="-178.87" font-family="Roboto, sans-serif" font-weight="bold" font-size="14.00">A02</text>
<text text-anchor="start" x="259.15" y="-150.87" font-family="Roboto, sans-serif" font-size="14.00">Cluster: Ablehnung</text>
<text text-anchor="start" x="259.15" y="-136.87" font-family="Roboto, sans-serif" font-size="14.00">Stornierung des Entsperrauftrags nicht mehr möglich.</text>
</g>
<!-- 3&#45;&gt;A02 -->
<g id="edge7" class="edge">
<title>3-&gt;A02</title>
<path fill="none" stroke="#88a0d6" d="M345.63,-257.91C360.19,-244.5 381.27,-225.08 400.48,-207.39"/>
<polygon fill="#88a0d6" stroke="#88a0d6" points="402.75,-210.05 407.74,-200.7 398.01,-204.9 402.75,-210.05"/>
<text text-anchor="start" x="387.4" y="-222.76" font-family="Roboto, sans-serif" font-weight="bold" font-size="14.00">NEIN</text>
</g>
<!-- A03 -->
<g id="node9" class="node">
<title>A03</title>
<path fill="#c4cac1" stroke="black" stroke-width="0" d="M1066.67,-199.81C1066.67,-199.81 680.12,-199.81 680.12,-199.81 674.12,-199.81 668.12,-193.81 668.12,-187.81 668.12,-187.81 668.12,-138.53 668.12,-138.53 668.12,-132.53 674.12,-126.53 680.12,-126.53 680.12,-126.53 1066.67,-126.53 1066.67,-126.53 1072.67,-126.53 1078.67,-132.53 1078.67,-138.53 1078.67,-138.53 1078.67,-187.81 1078.67,-187.81 1078.67,-193.81 1072.67,-199.81 1066.67,-199.81"/>
<text text-anchor="start" x="682.52" y="-178.87" font-family="Roboto, sans-serif" font-weight="bold" font-size="14.00">A03</text>
<text text-anchor="start" x="682.52" y="-150.87" font-family="Roboto, sans-serif" font-size="14.00">Cluster: Zustimmung</text>
<text text-anchor="start" x="682.52" y="-136.87" font-family="Roboto, sans-serif" font-size="14.00">Sperrauftrag ist bis zum Vortag der Sperrung storniert.</text>
</g>
<!-- 4&#45;&gt;A03 -->
<g id="edge8" class="edge">
<title>4-&gt;A03</title>
<path fill="none" stroke="#88a0d6" d="M922.49,-253.13C915.61,-240.65 906.68,-224.48 898.34,-209.35"/>
<polygon fill="#88a0d6" stroke="#88a0d6" points="901.59,-208 893.69,-200.93 895.46,-211.38 901.59,-208"/>
<text text-anchor="start" x="910.4" y="-222.76" font-family="Roboto, sans-serif" font-weight="bold" font-size="14.00">JA</text>
</g>
<!-- 5 -->
<g id="node10" class="node">
<title>5</title>
<path fill="#c2cee9" stroke="black" stroke-width="0" d="M1618.18,-181.17C1618.18,-181.17 1108.62,-181.17 1108.62,-181.17 1102.62,-181.17 1096.62,-175.17 1096.62,-169.17 1096.62,-169.17 1096.62,-157.17 1096.62,-157.17 1096.62,-151.17 1102.62,-145.17 1108.62,-145.17 1108.62,-145.17 1618.18,-145.17 1618.18,-145.17 1624.18,-145.17 1630.18,-151.17 1630.18,-157.17 1630.18,-157.17 1630.18,-169.17 1630.18,-169.17 1630.18,-175.17 1624.18,-181.17 1618.18,-181.17"/>
<text text-anchor="start" x="1111.03" y="-159.5" font-family="Roboto, sans-serif" font-weight="bold" font-size="14.00">5: </text>
<text text-anchor="start" x="1130.53" y="-159.5" font-family="Roboto, sans-serif" font-size="14.00">Ist die Stornierung vor der Durchführung der Sperrung eingegangen?</text>
</g>
<!-- 4&#45;&gt;5 -->
<g id="edge9" class="edge">
<title>4-&gt;5</title>
<path fill="none" stroke="#88a0d6" d="M1018.39,-253.06C1096.28,-232.99 1211.2,-203.38 1286.67,-183.94"/>
<polygon fill="#88a0d6" stroke="#88a0d6" points="1287.23,-187.41 1296.04,-181.52 1285.49,-180.63 1287.23,-187.41"/>
<text text-anchor="start" x="1148.4" y="-222.76" font-family="Roboto, sans-serif" font-weight="bold" font-size="14.00">NEIN</text>
</g>
<!-- A04 -->
<g id="node11" class="node">
<title>A04</title>
<path fill="#c4cac1" stroke="black" stroke-width="0" d="M1178.3,-73.28C1178.3,-73.28 846.5,-73.28 846.5,-73.28 840.5,-73.28 834.5,-67.28 834.5,-61.28 834.5,-61.28 834.5,-12 834.5,-12 834.5,-6 840.5,0 846.5,0 846.5,0 1178.3,0 1178.3,0 1184.3,0 1190.3,-6 1190.3,-12 1190.3,-12 1190.3,-61.28 1190.3,-61.28 1190.3,-67.28 1184.3,-73.28 1178.3,-73.28"/>
<text text-anchor="start" x="848.9" y="-52.34" font-family="Roboto, sans-serif" font-weight="bold" font-size="14.00">A04</text>
<text text-anchor="start" x="848.9" y="-24.34" font-family="Roboto, sans-serif" font-size="14.00">Cluster: Zustimmung</text>
<text text-anchor="start" x="848.9" y="-10.34" font-family="Roboto, sans-serif" font-size="14.00">Sperrauftrag ist am Tag der Sperrung storniert.</text>
</g>
<!-- 5&#45;&gt;A04 -->
<g id="edge10" class="edge">
<title>5-&gt;A04</title>
<path fill="none" stroke="#88a0d6" d="M1315.7,-145.25C1266.51,-127.8 1188.08,-99.97 1123.3,-76.99"/>
<polygon fill="#88a0d6" stroke="#88a0d6" points="1124.64,-73.75 1114.04,-73.7 1122.3,-80.34 1124.64,-73.75"/>
<text text-anchor="start" x="1208.4" y="-96.23" font-family="Roboto, sans-serif" font-weight="bold" font-size="14.00">JA</text>
</g>
<!-- A05 -->
<g id="node12" class="node">
<title>A05</title>
<path fill="#c4cac1" stroke="black" stroke-width="0" d="M1580.18,-73.28C1580.18,-73.28 1220.62,-73.28 1220.62,-73.28 1214.62,-73.28 1208.62,-67.28 1208.62,-61.28 1208.62,-61.28 1208.62,-12 1208.62,-12 1208.62,-6 1214.62,0 1220.62,0 1220.62,0 1580.18,0 1580.18,0 1586.18,0 1592.18,-6 1592.18,-12 1592.18,-12 1592.18,-61.28 1592.18,-61.28 1592.18,-67.28 1586.18,-73.28 1580.18,-73.28"/>
<text text-anchor="start" x="1223.03" y="-52.34" font-family="Roboto, sans-serif" font-weight="bold" font-size="14.00">A05</text>
<text text-anchor="start" x="1223.03" y="-24.34" font-family="Roboto, sans-serif" font-size="14.00">Cluster: Ablehnung</text>
<text text-anchor="start" x="1223.03" y="-10.34" font-family="Roboto, sans-serif" font-size="14.00">Stornierung des Sperrauftrags nicht mehr möglich.</text>
</g>
<!-- 5&#45;&gt;A05 -->
<g id="edge11" class="edge">
<title>5-&gt;A05</title>
<path fill="none" stroke="#88a0d6" d="M1368.39,-145.38C1373.04,-129.72 1380.2,-105.62 1386.57,-84.18"/>
<polygon fill="#88a0d6" stroke="#88a0d6" points="1389.89,-85.31 1389.38,-74.72 1383.18,-83.31 1389.89,-85.31"/>
<text text-anchor="start" x="1383.4" y="-96.23" font-family="Roboto, sans-serif" font-weight="bold" font-size="14.00">NEIN</text>
</g>
</g>
</svg>
  </g>
</svg>
  </g>
<text x="1910.0" y="822.0" text-anchor="end" font-family="Roboto, sans-serif" font-size="10" fill="#666666">v4.1 | 11.12.2025 (urspr. 01.04.2025)</text></svg>