<?xml version='1.0' encoding='ASCII' standalone='yes'?>
<svg xmlns="http://www.w3.org/2000/svg" xmlns:xlink="http://www.w3.org/1999/xlink" version="1.1" width="1822.6666666666667px" viewBox="0 0 1822.6666666666667 1612.0" height="1612.0px">
  <g>
    <svg version="1.1" width="1822.6666666666667px" viewBox="0 0 1822.6666666666667 1612.0" height="1612.0px">
  <rect fill="#e7e6e5" x="0" y="0" width="1822.6666666666667" height="1612.0" rx="20" ry="20"/><g>
    <g transform="translate(253.95873462874306, 161.19999999999996) scale(1 1) translate(0, 0) scale(2.2697831596733318 2.2697831596733318) "><defs>
    <style>.cls-1{fill:#ffffff88;}</style>
    <!--
    ffffff88 is white with 50% transparency; this matches the colour of the tesa strip on
    ebd.hochfrequenz.de where it crosses the diagram SVG:
    https://github.com/Hochfrequenz/entscheidungsbaumdiagramme/blob/01bd43fa0f1d0333fa93596bc8b9fd1e4b285c8c/src/lib/components/features/svg-container.svelte#L54
    -->
  </defs>
  <path class="cls-1" d="M122.44,531.2h-56.1c-11,0-19.9-9.12-19.46-20.11C57.47,243.89,278.15,29.78,547.91,29.78v56.02c0,10.98-8.69,19.89-19.66,20.39-225.51,10.31-405.8,197-405.8,425Z"/>
  <path class="cls-1" d="M273.78,531.2h-55.93c-11.23,0-20.09-9.48-19.43-20.69,10.74-183.44,163.39-329.39,349.48-329.39v56.26c0,10.71-8.27,19.62-18.96,20.35-142.35,9.77-255.17,128.69-255.17,273.46Z"/>
  <path class="cls-1" d="M425.77,531.2h-55.45c-11.65,0-20.6-10.17-19.33-21.75,10.87-99.03,95.03-176.34,196.92-176.34v57.01c0,10.05-7.28,18.75-17.23,20.16-59.22,8.4-104.91,59.42-104.91,120.92Z"/>
</g>
    <svg width="1367pt" height="1209pt" viewBox="0.00 0.00 1366.68 1209.27">
<g id="graph0" class="graph" transform="scale(1 1) rotate(0) translate(18 1191.27)">
<title>D</title>
<text text-anchor="start" x="295.96" y="-1153.17" font-family="Roboto, sans-serif" font-weight="bold" font-size="18.00">GPKE</text>
<text text-anchor="start" x="295.96" y="-1125.07" font-family="Roboto, sans-serif" font-weight="bold" font-size="16.00">6.12.4: AD: Unterbrechung der Anschlussnutzung (Sperren) auf Anweisung des LF</text>
<!-- Start -->
<g id="node1" class="node">
<title>Start</title>
<path fill="#8ba2d7" stroke="black" stroke-width="0" d="M539.92,-1083.27C539.92,-1083.27 403.12,-1083.27 403.12,-1083.27 397.12,-1083.27 391.12,-1077.27 391.12,-1071.27 391.12,-1071.27 391.12,-1049.99 391.12,-1049.99 391.12,-1043.99 397.12,-1037.99 403.12,-1037.99 403.12,-1037.99 539.92,-1037.99 539.92,-1037.99 545.92,-1037.99 551.92,-1043.99 551.92,-1049.99 551.92,-1049.99 551.92,-1071.27 551.92,-1071.27 551.92,-1077.27 545.92,-1083.27 539.92,-1083.27"/>
<text text-anchor="start" x="405.52" y="-1062.33" font-family="Roboto, sans-serif" font-weight="bold" font-size="14.00">E_0472</text>
<text text-anchor="start" x="405.52" y="-1048.33" font-family="Roboto, sans-serif" font-size="14.00">Pr&#252;fende Rolle: </text>
<text text-anchor="start" x="515.02" y="-1048.33" font-family="Roboto, sans-serif" font-weight="bold" font-size="14.00">NB</text>
</g>
<!-- 1 -->
<g id="node2" class="node">
<title>1</title>
<path fill="#c2cee9" stroke="black" stroke-width="0" d="M743.55,-1000.99C743.55,-1000.99 199.5,-1000.99 199.5,-1000.99 193.5,-1000.99 187.5,-994.99 187.5,-988.99 187.5,-988.99 187.5,-967.71 187.5,-967.71 187.5,-961.71 193.5,-955.71 199.5,-955.71 199.5,-955.71 743.55,-955.71 743.55,-955.71 749.55,-955.71 755.55,-961.71 755.55,-967.71 755.55,-967.71 755.55,-988.99 755.55,-988.99 755.55,-994.99 749.55,-1000.99 743.55,-1000.99"/>
<text text-anchor="start" x="201.9" y="-980.05" font-family="Roboto, sans-serif" font-weight="bold" font-size="14.00">1: </text>
<text text-anchor="start" x="221.4" y="-980.05" font-family="Roboto, sans-serif" font-size="14.00">War eine Sperrung aus rechtlichen Gr&#252;nden nicht m&#246;glich (z.&#160;B. wenn eine</text>
<text text-anchor="start" x="201.9" y="-966.05" font-family="Roboto, sans-serif" font-size="14.00">Einstweilige Verf&#252;gung vorlag)?</text>
</g>
<!-- Start&#45;&gt;1 -->
<g id="edge1" class="edge">
<title>Start-&gt;1</title>
<path fill="none" stroke="#88a0d6" d="M471.52,-1038.12C471.52,-1030.2 471.52,-1021.04 471.52,-1012.34"/>
<polygon fill="#88a0d6" stroke="#88a0d6" points="475.03,-1012.44 471.53,-1002.44 468.03,-1012.44 475.03,-1012.44"/>
</g>
<!-- A01 -->
<g id="node3" class="node">
<title>A01</title>
<path fill="#c4cac1" stroke="black" stroke-width="0" d="M601.05,-902.46C601.05,-902.46 12,-902.46 12,-902.46 6,-902.46 0,-896.46 0,-890.46 0,-890.46 0,-841.18 0,-841.18 0,-835.18 6,-829.18 12,-829.18 12,-829.18 601.05,-829.18 601.05,-829.18 607.05,-829.18 613.05,-835.18 613.05,-841.18 613.05,-841.18 613.05,-890.46 613.05,-890.46 613.05,-896.46 607.05,-902.46 601.05,-902.46"/>
<text text-anchor="start" x="14.4" y="-881.52" font-family="Roboto, sans-serif" font-weight="bold" font-size="14.00">A01</text>
<text text-anchor="start" x="14.4" y="-853.52" font-family="Roboto, sans-serif" font-size="14.00">Cluster: gescheitert</text>
<text text-anchor="start" x="14.4" y="-839.52" font-family="Roboto, sans-serif" font-size="14.00">Marktlokation wurde nicht gesperrt, da ein rechtlicher Grund vor Ort erkannt wurde.</text>
</g>
<!-- 1&#45;&gt;A01 -->
<g id="edge2" class="edge">
<title>1-&gt;A01</title>
<path fill="none" stroke="#88a0d6" d="M439.32,-955.78C419.28,-942.35 392.85,-924.65 368.84,-908.56"/>
<polygon fill="#88a0d6" stroke="#88a0d6" points="370.94,-905.76 360.69,-903.1 367.05,-911.57 370.94,-905.76"/>
<text text-anchor="start" x="408.52" y="-925.41" font-family="Roboto, sans-serif" font-weight="bold" font-size="14.00">JA</text>
</g>
<!-- 2 -->
<g id="node4" class="node">
<title>2</title>
<path fill="#c2cee9" stroke="black" stroke-width="0" d="M1214.42,-888.46C1214.42,-888.46 642.62,-888.46 642.62,-888.46 636.62,-888.46 630.62,-882.46 630.62,-876.46 630.62,-876.46 630.62,-855.18 630.62,-855.18 630.62,-849.18 636.62,-843.18 642.62,-843.18 642.62,-843.18 1214.42,-843.18 1214.42,-843.18 1220.42,-843.18 1226.42,-849.18 1226.42,-855.18 1226.42,-855.18 1226.42,-876.46 1226.42,-876.46 1226.42,-882.46 1220.42,-888.46 1214.42,-888.46"/>
<text text-anchor="start" x="645.02" y="-867.52" font-family="Roboto, sans-serif" font-weight="bold" font-size="14.00">2: </text>
<text text-anchor="start" x="664.52" y="-867.52" font-family="Roboto, sans-serif" font-size="14.00">Wurde der Anschlussnutzer angetroffen?</text>
<text text-anchor="start" x="645.02" y="-853.52" font-family="Roboto, sans-serif" font-size="14.00">Hinweis: Es gab keine Anzeichen daf&#252;r, dass der Anschlussnutzer anwesend war.</text>
</g>
<!-- 1&#45;&gt;2 -->
<g id="edge3" class="edge">
<title>1-&gt;2</title>
<path fill="none" stroke="#88a0d6" d="M561,-955.71C637.81,-937.13 748.43,-910.38 828.22,-891.08"/>
<polygon fill="#88a0d6" stroke="#88a0d6" points="828.9,-894.52 837.8,-888.76 827.26,-887.71 828.9,-894.52"/>
<text text-anchor="start" x="699.52" y="-925.41" font-family="Roboto, sans-serif" font-weight="bold" font-size="14.00">NEIN</text>
</g>
<!-- A08 -->
<g id="node5" class="node">
<title>A08</title>
<path fill="#c4cac1" stroke="black" stroke-width="0" d="M641.42,-775.93C641.42,-775.93 63.62,-775.93 63.62,-775.93 57.62,-775.93 51.62,-769.93 51.62,-763.93 51.62,-763.93 51.62,-700.65 51.62,-700.65 51.62,-694.65 57.62,-688.65 63.62,-688.65 63.62,-688.65 641.42,-688.65 641.42,-688.65 647.42,-688.65 653.42,-694.65 653.42,-700.65 653.42,-700.65 653.42,-763.93 653.42,-763.93 653.42,-769.93 647.42,-775.93 641.42,-775.93"/>
<text text-anchor="start" x="66.02" y="-754.99" font-family="Roboto, sans-serif" font-weight="bold" font-size="14.00">A08</text>
<text text-anchor="start" x="66.02" y="-726.99" font-family="Roboto, sans-serif" font-size="14.00">Cluster: gescheitert</text>
<text text-anchor="start" x="66.02" y="-712.99" font-family="Roboto, sans-serif" font-size="14.00">Der Anschlussnutzer wurde nicht angetroffen. Es gab keine Anzeichen daf&#252;r, dass</text>
<text text-anchor="start" x="66.02" y="-698.99" font-family="Roboto, sans-serif" font-size="14.00">dieser anwesend war.</text>
</g>
<!-- 2&#45;&gt;A08 -->
<g id="edge4" class="edge">
<title>2-&gt;A08</title>
<path fill="none" stroke="#88a0d6" d="M834.06,-843.25C757.23,-825.7 646.2,-800.35 550.11,-778.41"/>
<polygon fill="#88a0d6" stroke="#88a0d6" points="551.08,-775.04 540.55,-776.23 549.52,-781.86 551.08,-775.04"/>
<text text-anchor="start" x="691.52" y="-798.88" font-family="Roboto, sans-serif" font-weight="bold" font-size="14.00">NEIN</text>
</g>
<!-- 3 -->
<g id="node6" class="node">
<title>3</title>
<path fill="#c2cee9" stroke="black" stroke-width="0" d="M1269.55,-768.93C1269.55,-768.93 683.5,-768.93 683.5,-768.93 677.5,-768.93 671.5,-762.93 671.5,-756.93 671.5,-756.93 671.5,-707.65 671.5,-707.65 671.5,-701.65 677.5,-695.65 683.5,-695.65 683.5,-695.65 1269.55,-695.65 1269.55,-695.65 1275.55,-695.65 1281.55,-701.65 1281.55,-707.65 1281.55,-707.65 1281.55,-756.93 1281.55,-756.93 1281.55,-762.93 1275.55,-768.93 1269.55,-768.93"/>
<text text-anchor="start" x="685.9" y="-747.99" font-family="Roboto, sans-serif" font-weight="bold" font-size="14.00">3: </text>
<text text-anchor="start" x="705.4" y="-747.99" font-family="Roboto, sans-serif" font-size="14.00">War eine Sperrung aus dem Grund &#8222;aktive Zutrittsverweigerung&#8220; nicht m&#246;glich?</text>
<text text-anchor="start" x="685.9" y="-733.99" font-family="Roboto, sans-serif" font-size="14.00">Hinweis: Unter &#8222;aktive Zutrittsverweigerung&#8220; ist zu verstehen, dass der</text>
<text text-anchor="start" x="685.9" y="-719.99" font-family="Roboto, sans-serif" font-size="14.00">Anschlussnutzer angetroffen wurde und dieser den Zugang z.B. durch Drohungen,</text>
<text text-anchor="start" x="685.9" y="-705.99" font-family="Roboto, sans-serif" font-size="14.00">physische Angriffe, versperren des Zugangs zur Trennstelle unterbunden hat.</text>
</g>
<!-- 2&#45;&gt;3 -->
<g id="edge5" class="edge">
<title>2-&gt;3</title>
<path fill="none" stroke="#88a0d6" d="M936.34,-843.39C942.64,-826.15 951.71,-801.28 959.65,-779.54"/>
<polygon fill="#88a0d6" stroke="#88a0d6" points="962.89,-780.86 963.03,-770.26 956.32,-778.46 962.89,-780.86"/>
<text text-anchor="start" x="953.52" y="-798.88" font-family="Roboto, sans-serif" font-weight="bold" font-size="14.00">JA</text>
</g>
<!-- A02 -->
<g id="node7" class="node">
<title>A02</title>
<path fill="#c4cac1" stroke="black" stroke-width="0" d="M660.05,-628.4C660.05,-628.4 101,-628.4 101,-628.4 95,-628.4 89,-622.4 89,-616.4 89,-616.4 89,-567.12 89,-567.12 89,-561.12 95,-555.12 101,-555.12 101,-555.12 660.05,-555.12 660.05,-555.12 666.05,-555.12 672.05,-561.12 672.05,-567.12 672.05,-567.12 672.05,-616.4 672.05,-616.4 672.05,-622.4 666.05,-628.4 660.05,-628.4"/>
<text text-anchor="start" x="103.4" y="-607.46" font-family="Roboto, sans-serif" font-weight="bold" font-size="14.00">A02</text>
<text text-anchor="start" x="103.4" y="-579.46" font-family="Roboto, sans-serif" font-size="14.00">Cluster: gescheitert</text>
<text text-anchor="start" x="103.4" y="-565.46" font-family="Roboto, sans-serif" font-size="14.00">Marktlokation wurde nicht gesperrt, da eine aktive Zutrittsverweigerung vorlag.</text>
</g>
<!-- 3&#45;&gt;A02 -->
<g id="edge6" class="edge">
<title>3-&gt;A02</title>
<path fill="none" stroke="#88a0d6" d="M823.43,-695.71C738.09,-675.87 631.81,-651.17 544.74,-630.93"/>
<polygon fill="#88a0d6" stroke="#88a0d6" points="545.69,-627.56 535.16,-628.7 544.1,-634.37 545.69,-627.56"/>
<text text-anchor="start" x="713.52" y="-658.35" font-family="Roboto, sans-serif" font-weight="bold" font-size="14.00">JA</text>
</g>
<!-- 4 -->
<g id="node8" class="node">
<title>4</title>
<path fill="#c2cee9" stroke="black" stroke-width="0" d="M1298.8,-635.4C1298.8,-635.4 702.25,-635.4 702.25,-635.4 696.25,-635.4 690.25,-629.4 690.25,-623.4 690.25,-623.4 690.25,-560.12 690.25,-560.12 690.25,-554.12 696.25,-548.12 702.25,-548.12 702.25,-548.12 1298.8,-548.12 1298.8,-548.12 1304.8,-548.12 1310.8,-554.12 1310.8,-560.12 1310.8,-560.12 1310.8,-623.4 1310.8,-623.4 1310.8,-629.4 1304.8,-635.4 1298.8,-635.4"/>
<text text-anchor="start" x="704.65" y="-614.46" font-family="Roboto, sans-serif" font-weight="bold" font-size="14.00">4: </text>
<text text-anchor="start" x="724.15" y="-614.46" font-family="Roboto, sans-serif" font-size="14.00">War eine Sperrung aus dem Grund &#8222;passive Zutrittsverweigerung&#8220; nicht m&#246;glich?</text>
<text text-anchor="start" x="704.65" y="-600.46" font-family="Roboto, sans-serif" font-size="14.00">Hinweis: Unter &#8222;passiver Zutrittsverweigerung&#8220; ist zu verstehen, dass eine</text>
<text text-anchor="start" x="704.65" y="-586.46" font-family="Roboto, sans-serif" font-size="14.00">Anwesenheit des Anschlussnutzers festgestellt wurde, dieser jedoch seine</text>
<text text-anchor="start" x="704.65" y="-572.46" font-family="Roboto, sans-serif" font-size="14.00">Anwesenheit verleugnet. (z.B. Anschlussnutzer wurden in der Wohnung gesichtet,</text>
<text text-anchor="start" x="704.65" y="-558.46" font-family="Roboto, sans-serif" font-size="14.00">&#246;ffnet aber die T&#252;r nicht).</text>
</g>
<!-- 3&#45;&gt;4 -->
<g id="edge7" class="edge">
<title>3-&gt;4</title>
<path fill="none" stroke="#88a0d6" d="M982.64,-695.97C985.25,-680.93 988.35,-663.04 991.23,-646.42"/>
<polygon fill="#88a0d6" stroke="#88a0d6" points="994.66,-647.11 992.92,-636.66 987.76,-645.92 994.66,-647.11"/>
<text text-anchor="start" x="989.52" y="-658.35" font-family="Roboto, sans-serif" font-weight="bold" font-size="14.00">NEIN</text>
</g>
<!-- A03 -->
<g id="node9" class="node">
<title>A03</title>
<path fill="#c4cac1" stroke="black" stroke-width="0" d="M713.3,-494.87C713.3,-494.87 143.75,-494.87 143.75,-494.87 137.75,-494.87 131.75,-488.87 131.75,-482.87 131.75,-482.87 131.75,-433.59 131.75,-433.59 131.75,-427.59 137.75,-421.59 143.75,-421.59 143.75,-421.59 713.3,-421.59 713.3,-421.59 719.3,-421.59 725.3,-427.59 725.3,-433.59 725.3,-433.59 725.3,-482.87 725.3,-482.87 725.3,-488.87 719.3,-494.87 713.3,-494.87"/>
<text text-anchor="start" x="146.15" y="-473.93" font-family="Roboto, sans-serif" font-weight="bold" font-size="14.00">A03</text>
<text text-anchor="start" x="146.15" y="-445.93" font-family="Roboto, sans-serif" font-size="14.00">Cluster: gescheitert</text>
<text text-anchor="start" x="146.15" y="-431.93" font-family="Roboto, sans-serif" font-size="14.00">Marktlokation wurde nicht gesperrt, da eine passive Zutrittsverweigerung vorlag.</text>
</g>
<!-- 4&#45;&gt;A03 -->
<g id="edge8" class="edge">
<title>4-&gt;A03</title>
<path fill="none" stroke="#88a0d6" d="M815.21,-548.15C744.12,-531.8 663.53,-513.27 594.38,-497.37"/>
<polygon fill="#88a0d6" stroke="#88a0d6" points="595.39,-494.01 584.86,-495.18 593.82,-500.83 595.39,-494.01"/>
<text text-anchor="start" x="731.52" y="-517.82" font-family="Roboto, sans-serif" font-weight="bold" font-size="14.00">JA</text>
</g>
<!-- 5 -->
<g id="node10" class="node">
<title>5</title>
<path fill="#c2cee9" stroke="black" stroke-width="0" d="M1269.92,-476.23C1269.92,-476.23 755.12,-476.23 755.12,-476.23 749.12,-476.23 743.12,-470.23 743.12,-464.23 743.12,-464.23 743.12,-452.23 743.12,-452.23 743.12,-446.23 749.12,-440.23 755.12,-440.23 755.12,-440.23 1269.92,-440.23 1269.92,-440.23 1275.92,-440.23 1281.92,-446.23 1281.92,-452.23 1281.92,-452.23 1281.92,-464.23 1281.92,-464.23 1281.92,-470.23 1275.92,-476.23 1269.92,-476.23"/>
<text text-anchor="start" x="757.52" y="-454.55" font-family="Roboto, sans-serif" font-weight="bold" font-size="14.00">5: </text>
<text text-anchor="start" x="777.02" y="-454.55" font-family="Roboto, sans-serif" font-size="14.00">War eine Sperrung wegen eines Verhinderungsgrundes nicht m&#246;glich?</text>
</g>
<!-- 4&#45;&gt;5 -->
<g id="edge9" class="edge">
<title>4-&gt;5</title>
<path fill="none" stroke="#88a0d6" d="M1004.39,-548.42C1006.21,-528.41 1008.34,-505.06 1009.97,-487.28"/>
<polygon fill="#88a0d6" stroke="#88a0d6" points="1013.44,-487.75 1010.86,-477.47 1006.47,-487.11 1013.44,-487.75"/>
<text text-anchor="start" x="1007.53" y="-517.82" font-family="Roboto, sans-serif" font-weight="bold" font-size="14.00">NEIN</text>
</g>
<!-- A04 -->
<g id="node11" class="node">
<title>A04</title>
<path fill="#c4cac1" stroke="black" stroke-width="0" d="M736.42,-368.34C736.42,-368.34 236.62,-368.34 236.62,-368.34 230.62,-368.34 224.62,-362.34 224.62,-356.34 224.62,-356.34 224.62,-293.06 224.62,-293.06 224.62,-287.06 230.62,-281.06 236.62,-281.06 236.62,-281.06 736.42,-281.06 736.42,-281.06 742.42,-281.06 748.42,-287.06 748.42,-293.06 748.42,-293.06 748.42,-356.34 748.42,-356.34 748.42,-362.34 742.42,-368.34 736.42,-368.34"/>
<text text-anchor="start" x="239.02" y="-347.4" font-family="Roboto, sans-serif" font-weight="bold" font-size="14.00">A04</text>
<text text-anchor="start" x="239.02" y="-319.4" font-family="Roboto, sans-serif" font-size="14.00">Cluster: gescheitert</text>
<text text-anchor="start" x="239.02" y="-305.4" font-family="Roboto, sans-serif" font-size="14.00">Marktlokation wurde nicht gesperrt, da ein Verhinderungsgrund vorlag.</text>
<text text-anchor="start" x="239.02" y="-291.4" font-family="Roboto, sans-serif" font-size="14.00">Hinweis: Im Freitext muss der Verhinderungsgrund mitgeteilt werden.</text>
</g>
<!-- 5&#45;&gt;A04 -->
<g id="edge10" class="edge">
<title>5-&gt;A04</title>
<path fill="none" stroke="#88a0d6" d="M944.57,-440.24C874.84,-422.8 763.35,-394.92 667.83,-371.04"/>
<polygon fill="#88a0d6" stroke="#88a0d6" points="668.88,-367.69 658.33,-368.66 667.18,-374.48 668.88,-367.69"/>
<text text-anchor="start" x="796.52" y="-391.29" font-family="Roboto, sans-serif" font-weight="bold" font-size="14.00">JA</text>
</g>
<!-- 6 -->
<g id="node12" class="node">
<title>6</title>
<path fill="#c2cee9" stroke="black" stroke-width="0" d="M1259.05,-368.34C1259.05,-368.34 778,-368.34 778,-368.34 772,-368.34 766,-362.34 766,-356.34 766,-356.34 766,-293.06 766,-293.06 766,-287.06 772,-281.06 778,-281.06 778,-281.06 1259.05,-281.06 1259.05,-281.06 1265.05,-281.06 1271.05,-287.06 1271.05,-293.06 1271.05,-293.06 1271.05,-356.34 1271.05,-356.34 1271.05,-362.34 1265.05,-368.34 1259.05,-368.34"/>
<text text-anchor="start" x="780.4" y="-347.4" font-family="Roboto, sans-serif" font-weight="bold" font-size="14.00">6: </text>
<text text-anchor="start" x="799.9" y="-347.4" font-family="Roboto, sans-serif" font-size="14.00">War eine Sperrung aus einem tats&#228;chlichen Grund nicht m&#246;glich?</text>
<text text-anchor="start" x="780.4" y="-333.4" font-family="Roboto, sans-serif" font-size="14.00">Unter tats&#228;chliche Gr&#252;nde fallen z. B.:</text>
<text text-anchor="start" x="780.4" y="-319.4" font-family="Roboto, sans-serif" font-size="14.00">Marktlokation vor Ort nicht identifizierbar</text>
<text text-anchor="start" x="780.4" y="-305.4" font-family="Roboto, sans-serif" font-size="14.00">Zugang zur Marktlokation nicht m&#246;glich</text>
<text text-anchor="start" x="780.4" y="-291.4" font-family="Roboto, sans-serif" font-size="14.00">Kundenwechsel an der Marktlokation festgestellt</text>
</g>
<!-- 5&#45;&gt;6 -->
<g id="edge11" class="edge">
<title>5-&gt;6</title>
<path fill="none" stroke="#88a0d6" d="M1013.3,-440.3C1014,-424.95 1015.07,-401.47 1016.06,-379.75"/>
<polygon fill="#88a0d6" stroke="#88a0d6" points="1019.55,-379.93 1016.51,-369.78 1012.56,-379.61 1019.55,-379.93"/>
<text text-anchor="start" x="1015.53" y="-391.29" font-family="Roboto, sans-serif" font-weight="bold" font-size="14.00">NEIN</text>
</g>
<!-- A05 -->
<g id="node13" class="node">
<title>A05</title>
<path fill="#c4cac1" stroke="black" stroke-width="0" d="M682.42,-227.81C682.42,-227.81 188.62,-227.81 188.62,-227.81 182.62,-227.81 176.62,-221.81 176.62,-215.81 176.62,-215.81 176.62,-152.53 176.62,-152.53 176.62,-146.53 182.62,-140.53 188.62,-140.53 188.62,-140.53 682.42,-140.53 682.42,-140.53 688.42,-140.53 694.42,-146.53 694.42,-152.53 694.42,-152.53 694.42,-215.81 694.42,-215.81 694.42,-221.81 688.42,-227.81 682.42,-227.81"/>
<text text-anchor="start" x="191.02" y="-206.87" font-family="Roboto, sans-serif" font-weight="bold" font-size="14.00">A05</text>
<text text-anchor="start" x="191.02" y="-178.87" font-family="Roboto, sans-serif" font-size="14.00">Cluster: gescheitert</text>
<text text-anchor="start" x="191.02" y="-164.87" font-family="Roboto, sans-serif" font-size="14.00">Marktlokation wurde nicht gesperrt, da ein tats&#228;chlicher Grund vorlag.</text>
<text text-anchor="start" x="191.02" y="-150.87" font-family="Roboto, sans-serif" font-size="14.00">Hinweis: Im Freitext muss der tats&#228;chliche Grund mitgeteilt werden.</text>
</g>
<!-- 6&#45;&gt;A05 -->
<g id="edge12" class="edge">
<title>6-&gt;A05</title>
<path fill="none" stroke="#88a0d6" d="M839.25,-281.1C771.59,-265.02 694.41,-246.68 625.78,-230.38"/>
<polygon fill="#88a0d6" stroke="#88a0d6" points="626.85,-227.03 616.31,-228.13 625.23,-233.85 626.85,-227.03"/>
<text text-anchor="start" x="761.52" y="-250.76" font-family="Roboto, sans-serif" font-weight="bold" font-size="14.00">JA</text>
</g>
<!-- 7 -->
<g id="node14" class="node">
<title>7</title>
<path fill="#c2cee9" stroke="black" stroke-width="0" d="M1318.67,-206.81C1318.67,-206.81 724.38,-206.81 724.38,-206.81 718.38,-206.81 712.38,-200.81 712.38,-194.81 712.38,-194.81 712.38,-173.53 712.38,-173.53 712.38,-167.53 718.38,-161.53 724.38,-161.53 724.38,-161.53 1318.67,-161.53 1318.67,-161.53 1324.67,-161.53 1330.67,-167.53 1330.67,-173.53 1330.67,-173.53 1330.67,-194.81 1330.67,-194.81 1330.67,-200.81 1324.67,-206.81 1318.67,-206.81"/>
<text text-anchor="start" x="726.77" y="-185.87" font-family="Roboto, sans-serif" font-weight="bold" font-size="14.00">7: </text>
<text text-anchor="start" x="746.27" y="-185.87" font-family="Roboto, sans-serif" font-size="14.00">War eine Sperrung aus einem technischen Grund nicht m&#246;glich (z. B. eine weitere</text>
<text text-anchor="start" x="726.77" y="-171.87" font-family="Roboto, sans-serif" font-size="14.00">Marktlokation w&#228;re von der Sperrung betroffen gewesen)?</text>
</g>
<!-- 6&#45;&gt;7 -->
<g id="edge13" class="edge">
<title>6-&gt;7</title>
<path fill="none" stroke="#88a0d6" d="M1019.44,-281.38C1019.88,-261.05 1020.4,-237.05 1020.81,-218.11"/>
<polygon fill="#88a0d6" stroke="#88a0d6" points="1024.31,-218.35 1021.02,-208.28 1017.31,-218.2 1024.31,-218.35"/>
<text text-anchor="start" x="1019.53" y="-250.76" font-family="Roboto, sans-serif" font-weight="bold" font-size="14.00">NEIN</text>
</g>
<!-- A06 -->
<g id="node15" class="node">
<title>A06</title>
<path fill="#c4cac1" stroke="black" stroke-width="0" d="M968.3,-87.28C968.3,-87.28 482.75,-87.28 482.75,-87.28 476.75,-87.28 470.75,-81.28 470.75,-75.28 470.75,-75.28 470.75,-12 470.75,-12 470.75,-6 476.75,0 482.75,0 482.75,0 968.3,0 968.3,0 974.3,0 980.3,-6 980.3,-12 980.3,-12 980.3,-75.28 980.3,-75.28 980.3,-81.28 974.3,-87.28 968.3,-87.28"/>
<text text-anchor="start" x="485.15" y="-66.34" font-family="Roboto, sans-serif" font-weight="bold" font-size="14.00">A06</text>
<text text-anchor="start" x="485.15" y="-38.34" font-family="Roboto, sans-serif" font-size="14.00">Cluster: gescheitert</text>
<text text-anchor="start" x="485.15" y="-24.34" font-family="Roboto, sans-serif" font-size="14.00">Marktlokation wurde nicht gesperrt, da ein technischer Grund vorlag.</text>
<text text-anchor="start" x="485.15" y="-10.34" font-family="Roboto, sans-serif" font-size="14.00">Hinweis: Im Freitext muss der technische Grund mitgeteilt werden.</text>
</g>
<!-- 7&#45;&gt;A06 -->
<g id="edge14" class="edge">
<title>7-&gt;A06</title>
<path fill="none" stroke="#88a0d6" d="M975.6,-161.68C935.95,-143.12 877.24,-115.64 826.67,-91.98"/>
<polygon fill="#88a0d6" stroke="#88a0d6" points="828.25,-88.85 817.71,-87.78 825.29,-95.19 828.25,-88.85"/>
<text text-anchor="start" x="890.52" y="-110.23" font-family="Roboto, sans-serif" font-weight="bold" font-size="14.00">JA</text>
</g>
<!-- A07 -->
<g id="node16" class="node">
<title>A07</title>
<path fill="#c4cac1" stroke="black" stroke-width="0" d="M1223.18,-80.28C1223.18,-80.28 1009.88,-80.28 1009.88,-80.28 1003.88,-80.28 997.88,-74.28 997.88,-68.28 997.88,-68.28 997.88,-19 997.88,-19 997.88,-13 1003.88,-7 1009.88,-7 1009.88,-7 1223.18,-7 1223.18,-7 1229.18,-7 1235.18,-13 1235.18,-19 1235.18,-19 1235.18,-68.28 1235.18,-68.28 1235.18,-74.28 1229.18,-80.28 1223.18,-80.28"/>
<text text-anchor="start" x="1012.28" y="-59.34" font-family="Roboto, sans-serif" font-weight="bold" font-size="14.00">A07</text>
<text text-anchor="start" x="1012.28" y="-31.34" font-family="Roboto, sans-serif" font-size="14.00">Cluster: erfolgreich</text>
<text text-anchor="start" x="1012.28" y="-17.34" font-family="Roboto, sans-serif" font-size="14.00">Marktlokation wurde gesperrt.</text>
</g>
<!-- 7&#45;&gt;A07 -->
<g id="edge15" class="edge">
<title>7-&gt;A07</title>
<path fill="none" stroke="#88a0d6" d="M1036.16,-161.83C1049.35,-142.6 1069.16,-113.7 1085.82,-89.42"/>
<polygon fill="#88a0d6" stroke="#88a0d6" points="1088.63,-91.5 1091.4,-81.27 1082.86,-87.54 1088.63,-91.5"/>
<text text-anchor="start" x="1074.53" y="-110.23" font-family="Roboto, sans-serif" font-weight="bold" font-size="14.00">NEIN</text>
</g>
</g>
</svg>
  </g>
</svg>
  </g>
</svg>
