<?xml version='1.0' encoding='ASCII' standalone='yes'?>
<svg xmlns="http://www.w3.org/2000/svg" xmlns:xlink="http://www.w3.org/1999/xlink" version="1.1" width="1056.0px" viewBox="0 0 1056.0 1920.0" height="1920.0px">
  <g>
    <svg version="1.1" width="1056.0px" viewBox="0 0 1056.0 1920.0" height="1920.0px">
  <rect fill="#e7e6e5" x="0" y="0" width="1056.0" height="1920.0" rx="20" ry="20"/><g>
    <g transform="translate(105.59999999999998, 545.6798839859125) scale(1 1) translate(0, 0) scale(1.4584628133416202 1.4584628133416202) "><defs>
    <style>.cls-1{fill:#ffffff88;}</style>
    <!--
    ffffff88 is white with 50% transparency; this matches the colour of the tesa strip on
    ebd.hochfrequenz.de where it crosses the diagram SVG:
    https://github.com/Hochfrequenz/entscheidungsbaumdiagramme/blob/01bd43fa0f1d0333fa93596bc8b9fd1e4b285c8c/src/lib/components/features/svg-container.svelte#L54
    -->
  </defs>
  <path class="cls-1" d="M122.44,531.2h-56.1c-11,0-19.9-9.12-19.46-20.11C57.47,243.89,278.15,29.78,547.91,29.78v56.02c0,10.98-8.69,19.89-19.66,20.39-225.51,10.31-405.8,197-405.8,425Z"/>
  <path class="cls-1" d="M273.78,531.2h-55.93c-11.23,0-20.09-9.48-19.43-20.69,10.74-183.44,163.39-329.39,349.48-329.39v56.26c0,10.71-8.27,19.62-18.96,20.35-142.35,9.77-255.17,128.69-255.17,273.46Z"/>
  <path class="cls-1" d="M425.77,531.2h-55.45c-11.65,0-20.6-10.17-19.33-21.75,10.87-99.03,95.03-176.34,196.92-176.34v57.01c0,10.05-7.28,18.75-17.23,20.16-59.22,8.4-104.91,59.42-104.91,120.92Z"/>
</g>
    <svg width="792pt" height="1440pt" viewBox="0.00 0.00 791.67 1440.00">
<g id="graph0" class="graph" transform="scale(0.587654 0.587654) rotate(0) translate(18 2432.42)">
<title>D</title>
<text text-anchor="start" x="453.09" y="-2394.32" font-family="Roboto, sans-serif" font-weight="bold" font-size="18.00">GPKE</text>
<text text-anchor="start" x="453.09" y="-2366.22" font-family="Roboto, sans-serif" font-weight="bold" font-size="16.00">6.54.1: AD: Stammdaten zur Bilanzkreistreue</text>
<!-- Start -->
<g id="node1" class="node">
<title>Start</title>
<path fill="#8ba2d7" stroke="black" stroke-width="0" d="M1076.8,-2324.42C1076.8,-2324.42 928.75,-2324.42 928.75,-2324.42 922.75,-2324.42 916.75,-2318.42 916.75,-2312.42 916.75,-2312.42 916.75,-2291.14 916.75,-2291.14 916.75,-2285.14 922.75,-2279.14 928.75,-2279.14 928.75,-2279.14 1076.8,-2279.14 1076.8,-2279.14 1082.8,-2279.14 1088.8,-2285.14 1088.8,-2291.14 1088.8,-2291.14 1088.8,-2312.42 1088.8,-2312.42 1088.8,-2318.42 1082.8,-2324.42 1076.8,-2324.42"/>
<text text-anchor="start" x="931.15" y="-2303.48" font-family="Roboto, sans-serif" font-weight="bold" font-size="14.00">E_0574</text>
<text text-anchor="start" x="931.15" y="-2289.48" font-family="Roboto, sans-serif" font-size="14.00">Pr&#252;fende Rolle: </text>
<text text-anchor="start" x="1040.65" y="-2289.48" font-family="Roboto, sans-serif" font-weight="bold" font-size="14.00">&#220;NB</text>
</g>
<!-- 10 -->
<g id="node2" class="node">
<title>10</title>
<path fill="#c2cee9" stroke="black" stroke-width="0" d="M1299.17,-2242.14C1299.17,-2242.14 706.38,-2242.14 706.38,-2242.14 700.38,-2242.14 694.38,-2236.14 694.38,-2230.14 694.38,-2230.14 694.38,-2218.14 694.38,-2218.14 694.38,-2212.14 700.38,-2206.14 706.38,-2206.14 706.38,-2206.14 1299.17,-2206.14 1299.17,-2206.14 1305.17,-2206.14 1311.17,-2212.14 1311.17,-2218.14 1311.17,-2218.14 1311.17,-2230.14 1311.17,-2230.14 1311.17,-2236.14 1305.17,-2242.14 1299.17,-2242.14"/>
<text text-anchor="start" x="708.77" y="-2220.47" font-family="Roboto, sans-serif" font-weight="bold" font-size="14.00">10: </text>
<text text-anchor="start" x="738.02" y="-2220.47" font-family="Roboto, sans-serif" font-size="14.00">Handelt es sich um einen Verwendungszeitraum mit der Qualit&#228;t &#8222;keine Daten&#8220;?</text>
</g>
<!-- Start&#45;&gt;10 -->
<g id="edge1" class="edge">
<title>Start-&gt;10</title>
<path fill="none" stroke="#88a0d6" d="M1002.77,-2279.31C1002.77,-2271.23 1002.77,-2261.93 1002.77,-2253.33"/>
<polygon fill="#88a0d6" stroke="#88a0d6" points="1006.28,-2253.37 1002.78,-2243.37 999.28,-2253.37 1006.28,-2253.37"/>
</g>
<!-- 20 -->
<g id="node3" class="node">
<title>20</title>
<path fill="#c2cee9" stroke="black" stroke-width="0" d="M955.8,-2152.89C955.8,-2152.89 333.75,-2152.89 333.75,-2152.89 327.75,-2152.89 321.75,-2146.89 321.75,-2140.89 321.75,-2140.89 321.75,-2091.61 321.75,-2091.61 321.75,-2085.61 327.75,-2079.61 333.75,-2079.61 333.75,-2079.61 955.8,-2079.61 955.8,-2079.61 961.8,-2079.61 967.8,-2085.61 967.8,-2091.61 967.8,-2091.61 967.8,-2140.89 967.8,-2140.89 967.8,-2146.89 961.8,-2152.89 955.8,-2152.89"/>
<text text-anchor="start" x="336.15" y="-2131.95" font-family="Roboto, sans-serif" font-weight="bold" font-size="14.00">20: </text>
<text text-anchor="start" x="365.4" y="-2131.95" font-family="Roboto, sans-serif" font-size="14.00">Entspricht der Absender der Nachricht f&#252;r diesen Verwendungszeitraum dem bisher</text>
<text text-anchor="start" x="336.15" y="-2117.95" font-family="Roboto, sans-serif" font-size="14.00">im System des Empf&#228;ngers zugeordneten Netzbetreiber?</text>
<text text-anchor="start" x="336.15" y="-2103.95" font-family="Roboto, sans-serif" font-size="14.00">Hinweis: Liegt keine bisherige Zuordnung vor, ist die Frage mit "ja" zu</text>
<text text-anchor="start" x="336.15" y="-2089.95" font-family="Roboto, sans-serif" font-size="14.00">beantworten.</text>
</g>
<!-- 10&#45;&gt;20 -->
<g id="edge3" class="edge">
<title>10-&gt;20</title>
<path fill="none" stroke="#88a0d6" d="M945.65,-2206.24C900.03,-2192.75 834.29,-2173.3 775.89,-2156.03"/>
<polygon fill="#88a0d6" stroke="#88a0d6" points="777.11,-2152.74 766.53,-2153.26 775.12,-2159.45 777.11,-2152.74"/>
<text text-anchor="start" x="875.77" y="-2175.84" font-family="Roboto, sans-serif" font-weight="bold" font-size="14.00">NEIN</text>
</g>
<!-- 110 -->
<g id="node19" class="node">
<title>110</title>
<path fill="#c2cee9" stroke="black" stroke-width="0" d="M1141.67,-566.31C1141.67,-566.31 737.88,-566.31 737.88,-566.31 731.88,-566.31 725.88,-560.31 725.88,-554.31 725.88,-554.31 725.88,-542.31 725.88,-542.31 725.88,-536.31 731.88,-530.31 737.88,-530.31 737.88,-530.31 1141.67,-530.31 1141.67,-530.31 1147.67,-530.31 1153.67,-536.31 1153.67,-542.31 1153.67,-542.31 1153.67,-554.31 1153.67,-554.31 1153.67,-560.31 1147.67,-566.31 1141.67,-566.31"/>
<text text-anchor="start" x="740.27" y="-544.63" font-family="Roboto, sans-serif" font-weight="bold" font-size="14.00">110: </text>
<text text-anchor="start" x="779.27" y="-544.63" font-family="Roboto, sans-serif" font-size="14.00">Ist ein zuvor nicht spezifizierter Fehler aufgetreten?</text>
</g>
<!-- 10&#45;&gt;110 -->
<g id="edge2" class="edge">
<title>10-&gt;110</title>
<path fill="none" stroke="#88a0d6" d="M1002.77,-2206.27C1002.77,-2185.37 1002.77,-2148.69 1002.77,-2117.25 1002.77,-2117.25 1002.77,-2117.25 1002.77,-688.21 1002.77,-648.34 993.31,-638.07 973.77,-603.31 968.67,-594.23 956.99,-595.57 958.77,-585.31"/>
<text text-anchor="start" x="1002.77" y="-1356.91" font-family="Roboto, sans-serif" font-weight="bold" font-size="14.00">JA</text>
</g>
<!-- A17_30 -->
<g id="node4" class="node">
<title>A17_30</title>
<path fill="#c4cac1" stroke="black" stroke-width="0" d="M597.05,-2026.36C597.05,-2026.36 12.5,-2026.36 12.5,-2026.36 6.5,-2026.36 0.5,-2020.36 0.5,-2014.36 0.5,-2014.36 0.5,-1965.08 0.5,-1965.08 0.5,-1959.08 6.5,-1953.08 12.5,-1953.08 12.5,-1953.08 597.05,-1953.08 597.05,-1953.08 603.05,-1953.08 609.05,-1959.08 609.05,-1965.08 609.05,-1965.08 609.05,-2014.36 609.05,-2014.36 609.05,-2020.36 603.05,-2026.36 597.05,-2026.36"/>
<text text-anchor="start" x="14.9" y="-2005.42" font-family="Roboto, sans-serif" font-weight="bold" font-size="14.00">A17</text>
<text text-anchor="start" x="14.9" y="-1977.42" font-family="Roboto, sans-serif" font-size="14.00">Der Absender der Nachricht entspricht f&#252;r diesen Verwendungszeitraum nicht dem</text>
<text text-anchor="start" x="14.9" y="-1963.42" font-family="Roboto, sans-serif" font-size="14.00">bisherigen Netzbetreiber. Es wurde damit ein Netzbetreiberwechsel durchgef&#252;hrt.</text>
</g>
<!-- 20&#45;&gt;A17_30 -->
<g id="edge4" class="edge">
<title>20-&gt;A17_30</title>
<path fill="none" stroke="#88a0d6" d="M547.8,-2079.73C505.55,-2064.26 455.87,-2046.06 412.48,-2030.17"/>
<polygon fill="#88a0d6" stroke="#88a0d6" points="413.89,-2026.96 403.3,-2026.81 411.49,-2033.53 413.89,-2026.96"/>
<text text-anchor="start" x="494.77" y="-2049.31" font-family="Roboto, sans-serif" font-weight="bold" font-size="14.00">NEIN</text>
</g>
<!-- 30 -->
<g id="node5" class="node">
<title>30</title>
<path fill="#c2cee9" stroke="black" stroke-width="0" d="M944.67,-1916.08C944.67,-1916.08 342.88,-1916.08 342.88,-1916.08 336.88,-1916.08 330.88,-1910.08 330.88,-1904.08 330.88,-1904.08 330.88,-1892.08 330.88,-1892.08 330.88,-1886.08 336.88,-1880.08 342.88,-1880.08 342.88,-1880.08 944.67,-1880.08 944.67,-1880.08 950.67,-1880.08 956.67,-1886.08 956.67,-1892.08 956.67,-1892.08 956.67,-1904.08 956.67,-1904.08 956.67,-1910.08 950.67,-1916.08 944.67,-1916.08"/>
<text text-anchor="start" x="345.27" y="-1894.41" font-family="Roboto, sans-serif" font-weight="bold" font-size="14.00">30: </text>
<text text-anchor="start" x="374.52" y="-1894.41" font-family="Roboto, sans-serif" font-size="14.00">Ist das Bilanzierungsgebiet zum angegebenen Zeitpunkt in der Regelzone g&#252;ltig?</text>
</g>
<!-- 20&#45;&gt;30 -->
<g id="edge5" class="edge">
<title>20-&gt;30</title>
<path fill="none" stroke="#88a0d6" d="M633.67,-2079.83C623.71,-2040.66 614.82,-1977.49 644.77,-1935.08"/>
<text text-anchor="start" x="632.77" y="-1986.05" font-family="Roboto, sans-serif" font-weight="bold" font-size="14.00">JA</text>
</g>
<!-- A17_30&#45;&gt;30 -->
<g id="edge6" class="edge">
<title>A17_30-&gt;30</title>
<path fill="none" stroke="#88a0d6" d="M609.02,-1958.95C625.49,-1952.46 638.05,-1944.6 644.77,-1935.08"/>
<path fill="none" stroke="#88a0d6" d="M644.77,-1934.08C646.2,-1932.06 647.15,-1929.8 647.73,-1927.43"/>
<polygon fill="#88a0d6" stroke="#88a0d6" points="651.23,-1927.65 648.2,-1917.49 644.23,-1927.32 651.23,-1927.65"/>
</g>
<!-- A03_40 -->
<g id="node6" class="node">
<title>A03_40</title>
<path fill="#c4cac1" stroke="black" stroke-width="0" d="M596.05,-1826.83C596.05,-1826.83 365.5,-1826.83 365.5,-1826.83 359.5,-1826.83 353.5,-1820.83 353.5,-1814.83 353.5,-1814.83 353.5,-1779.55 353.5,-1779.55 353.5,-1773.55 359.5,-1767.55 365.5,-1767.55 365.5,-1767.55 596.05,-1767.55 596.05,-1767.55 602.05,-1767.55 608.05,-1773.55 608.05,-1779.55 608.05,-1779.55 608.05,-1814.83 608.05,-1814.83 608.05,-1820.83 602.05,-1826.83 596.05,-1826.83"/>
<text text-anchor="start" x="367.9" y="-1805.89" font-family="Roboto, sans-serif" font-weight="bold" font-size="14.00">A03</text>
<text text-anchor="start" x="367.9" y="-1777.89" font-family="Roboto, sans-serif" font-size="14.00">Bilanzierungsgebiet nicht g&#252;ltig.</text>
</g>
<!-- 30&#45;&gt;A03_40 -->
<g id="edge7" class="edge">
<title>30-&gt;A03_40</title>
<path fill="none" stroke="#88a0d6" d="M615.75,-1880.08C594.27,-1867.05 563.91,-1848.63 537.43,-1832.56"/>
<polygon fill="#88a0d6" stroke="#88a0d6" points="539.52,-1829.74 529.16,-1827.54 535.89,-1835.72 539.52,-1829.74"/>
<text text-anchor="start" x="580.77" y="-1849.78" font-family="Roboto, sans-serif" font-weight="bold" font-size="14.00">NEIN</text>
</g>
<!-- 40 -->
<g id="node7" class="node">
<title>40</title>
<path fill="#c2cee9" stroke="black" stroke-width="0" d="M910.42,-1730.55C910.42,-1730.55 373.12,-1730.55 373.12,-1730.55 367.12,-1730.55 361.12,-1724.55 361.12,-1718.55 361.12,-1718.55 361.12,-1706.55 361.12,-1706.55 361.12,-1700.55 367.12,-1694.55 373.12,-1694.55 373.12,-1694.55 910.42,-1694.55 910.42,-1694.55 916.42,-1694.55 922.42,-1700.55 922.42,-1706.55 922.42,-1706.55 922.42,-1718.55 922.42,-1718.55 922.42,-1724.55 916.42,-1730.55 910.42,-1730.55"/>
<text text-anchor="start" x="375.52" y="-1708.88" font-family="Roboto, sans-serif" font-weight="bold" font-size="14.00">40: </text>
<text text-anchor="start" x="404.77" y="-1708.88" font-family="Roboto, sans-serif" font-size="14.00">Ist der angegebene Netzbetreiber dem Bilanzierungsgebiet zugeordnet?</text>
</g>
<!-- 30&#45;&gt;40 -->
<g id="edge8" class="edge">
<title>30-&gt;40</title>
<path fill="none" stroke="#88a0d6" d="M638.97,-1880.37C631.71,-1851.67 621.06,-1792.01 643.77,-1749.55"/>
<text text-anchor="start" x="635.77" y="-1793.52" font-family="Roboto, sans-serif" font-weight="bold" font-size="14.00">JA</text>
</g>
<!-- A03_40&#45;&gt;40 -->
<g id="edge9" class="edge">
<title>A03_40-&gt;40</title>
<path fill="none" stroke="#88a0d6" d="M607.74,-1771.95C625.34,-1765.8 639.05,-1758.37 643.77,-1749.55"/>
<path fill="none" stroke="#88a0d6" d="M643.77,-1748.55C644.92,-1746.41 645.66,-1744.09 646.09,-1741.7"/>
<polygon fill="#88a0d6" stroke="#88a0d6" points="649.59,-1741.93 646.23,-1731.88 642.59,-1741.83 649.59,-1741.93"/>
</g>
<!-- A14_60 -->
<g id="node8" class="node">
<title>A14_60</title>
<path fill="#c4cac1" stroke="black" stroke-width="0" d="M593.55,-1641.3C593.55,-1641.3 12,-1641.3 12,-1641.3 6,-1641.3 0,-1635.3 0,-1629.3 0,-1629.3 0,-1594.02 0,-1594.02 0,-1588.02 6,-1582.02 12,-1582.02 12,-1582.02 593.55,-1582.02 593.55,-1582.02 599.55,-1582.02 605.55,-1588.02 605.55,-1594.02 605.55,-1594.02 605.55,-1629.3 605.55,-1629.3 605.55,-1635.3 599.55,-1641.3 593.55,-1641.3"/>
<text text-anchor="start" x="14.4" y="-1620.36" font-family="Roboto, sans-serif" font-weight="bold" font-size="14.00">A14</text>
<text text-anchor="start" x="14.4" y="-1592.36" font-family="Roboto, sans-serif" font-size="14.00">Angegebener NB entspricht nicht dem zugeordneten NB des Bilanzierungsgebiets.</text>
</g>
<!-- 40&#45;&gt;A14_60 -->
<g id="edge10" class="edge">
<title>40-&gt;A14_60</title>
<path fill="none" stroke="#88a0d6" d="M583.5,-1694.55C536.37,-1680.8 468.7,-1661.06 411.61,-1644.41"/>
<polygon fill="#88a0d6" stroke="#88a0d6" points="412.75,-1641.09 402.17,-1641.65 410.79,-1647.81 412.75,-1641.09"/>
<text text-anchor="start" x="511.77" y="-1664.25" font-family="Roboto, sans-serif" font-weight="bold" font-size="14.00">NEIN</text>
</g>
<!-- 60 -->
<g id="node9" class="node">
<title>60</title>
<path fill="#c2cee9" stroke="black" stroke-width="0" d="M874.17,-1545.02C874.17,-1545.02 407.38,-1545.02 407.38,-1545.02 401.38,-1545.02 395.38,-1539.02 395.38,-1533.02 395.38,-1533.02 395.38,-1511.74 395.38,-1511.74 395.38,-1505.74 401.38,-1499.74 407.38,-1499.74 407.38,-1499.74 874.17,-1499.74 874.17,-1499.74 880.17,-1499.74 886.17,-1505.74 886.17,-1511.74 886.17,-1511.74 886.17,-1533.02 886.17,-1533.02 886.17,-1539.02 880.17,-1545.02 874.17,-1545.02"/>
<text text-anchor="start" x="409.77" y="-1524.08" font-family="Roboto, sans-serif" font-weight="bold" font-size="14.00">60: </text>
<text text-anchor="start" x="439.02" y="-1524.08" font-family="Roboto, sans-serif" font-size="14.00">Ist der Messstellenbetreiber zum Zeitpunkt der Pr&#252;fung in der</text>
<text text-anchor="start" x="409.77" y="-1510.08" font-family="Roboto, sans-serif" font-size="14.00">BDEW-Codenummerndatenbank registriert?</text>
</g>
<!-- 40&#45;&gt;60 -->
<g id="edge11" class="edge">
<title>40-&gt;60</title>
<path fill="none" stroke="#88a0d6" d="M636.02,-1695C626.89,-1665.49 612.91,-1603.2 641.77,-1564.02"/>
<text text-anchor="start" x="630.77" y="-1607.99" font-family="Roboto, sans-serif" font-weight="bold" font-size="14.00">JA</text>
</g>
<!-- A14_60&#45;&gt;60 -->
<g id="edge12" class="edge">
<title>A14_60-&gt;60</title>
<path fill="none" stroke="#88a0d6" d="M590.82,-1582.07C617.68,-1576.77 636.82,-1570.75 641.77,-1564.02"/>
<path fill="none" stroke="#88a0d6" d="M641.77,-1563.02C643.33,-1560.9 644.41,-1558.54 645.1,-1556.04"/>
<polygon fill="#88a0d6" stroke="#88a0d6" points="648.58,-1556.42 645.95,-1546.16 641.61,-1555.82 648.58,-1556.42"/>
</g>
<!-- A15_70 -->
<g id="node10" class="node">
<title>A15_70</title>
<path fill="#c4cac1" stroke="black" stroke-width="0" d="M593.05,-1446.49C593.05,-1446.49 356.5,-1446.49 356.5,-1446.49 350.5,-1446.49 344.5,-1440.49 344.5,-1434.49 344.5,-1434.49 344.5,-1399.21 344.5,-1399.21 344.5,-1393.21 350.5,-1387.21 356.5,-1387.21 356.5,-1387.21 593.05,-1387.21 593.05,-1387.21 599.05,-1387.21 605.05,-1393.21 605.05,-1399.21 605.05,-1399.21 605.05,-1434.49 605.05,-1434.49 605.05,-1440.49 599.05,-1446.49 593.05,-1446.49"/>
<text text-anchor="start" x="358.9" y="-1425.55" font-family="Roboto, sans-serif" font-weight="bold" font-size="14.00">A15</text>
<text text-anchor="start" x="358.9" y="-1397.55" font-family="Roboto, sans-serif" font-size="14.00">Messstellenbetreiber nicht g&#252;ltig.</text>
</g>
<!-- 60&#45;&gt;A15_70 -->
<g id="edge13" class="edge">
<title>60-&gt;A15_70</title>
<path fill="none" stroke="#88a0d6" d="M606.38,-1499.93C584.32,-1486.17 555.18,-1468 529.93,-1452.25"/>
<polygon fill="#88a0d6" stroke="#88a0d6" points="532.09,-1449.47 521.75,-1447.15 528.39,-1455.41 532.09,-1449.47"/>
<text text-anchor="start" x="571.77" y="-1469.44" font-family="Roboto, sans-serif" font-weight="bold" font-size="14.00">NEIN</text>
</g>
<!-- 70 -->
<g id="node11" class="node">
<title>70</title>
<path fill="#c2cee9" stroke="black" stroke-width="0" d="M945.67,-1333.96C945.67,-1333.96 331.88,-1333.96 331.88,-1333.96 325.88,-1333.96 319.88,-1327.96 319.88,-1321.96 319.88,-1321.96 319.88,-1300.68 319.88,-1300.68 319.88,-1294.68 325.88,-1288.68 331.88,-1288.68 331.88,-1288.68 945.67,-1288.68 945.67,-1288.68 951.67,-1288.68 957.67,-1294.68 957.67,-1300.68 957.67,-1300.68 957.67,-1321.96 957.67,-1321.96 957.67,-1327.96 951.67,-1333.96 945.67,-1333.96"/>
<text text-anchor="start" x="334.27" y="-1313.02" font-family="Roboto, sans-serif" font-weight="bold" font-size="14.00">70: </text>
<text text-anchor="start" x="363.52" y="-1313.02" font-family="Roboto, sans-serif" font-size="14.00">Ist der Lieferant zum Zeitpunkt der Pr&#252;fung in der BDEW-Codenummerndatenbank</text>
<text text-anchor="start" x="334.27" y="-1299.02" font-family="Roboto, sans-serif" font-size="14.00">registriert?</text>
</g>
<!-- 60&#45;&gt;70 -->
<g id="edge14" class="edge">
<title>60-&gt;70</title>
<path fill="none" stroke="#88a0d6" d="M634.95,-1499.81C627.52,-1467.73 618.16,-1406.42 640.77,-1361.59"/>
<text text-anchor="start" x="630.77" y="-1413.18" font-family="Roboto, sans-serif" font-weight="bold" font-size="14.00">JA</text>
</g>
<!-- A15_70&#45;&gt;70 -->
<g id="edge15" class="edge">
<title>A15_70-&gt;70</title>
<path fill="none" stroke="#88a0d6" d="M600.74,-1387.3C620.36,-1380.01 635.82,-1371.4 640.77,-1361.59"/>
<path fill="none" stroke="#88a0d6" d="M640.77,-1359.59C643.08,-1355.01 644.15,-1349.85 644.44,-1344.67"/>
<polygon fill="#88a0d6" stroke="#88a0d6" points="647.95,-1344.88 644.07,-1335.02 640.95,-1345.14 647.95,-1344.88"/>
</g>
<!-- A04_80 -->
<g id="node12" class="node">
<title>A04_80</title>
<path fill="#c4cac1" stroke="black" stroke-width="0" d="M590.8,-1235.43C590.8,-1235.43 436.75,-1235.43 436.75,-1235.43 430.75,-1235.43 424.75,-1229.43 424.75,-1223.43 424.75,-1223.43 424.75,-1188.15 424.75,-1188.15 424.75,-1182.15 430.75,-1176.15 436.75,-1176.15 436.75,-1176.15 590.8,-1176.15 590.8,-1176.15 596.8,-1176.15 602.8,-1182.15 602.8,-1188.15 602.8,-1188.15 602.8,-1223.43 602.8,-1223.43 602.8,-1229.43 596.8,-1235.43 590.8,-1235.43"/>
<text text-anchor="start" x="439.15" y="-1214.49" font-family="Roboto, sans-serif" font-weight="bold" font-size="14.00">A04</text>
<text text-anchor="start" x="439.15" y="-1186.49" font-family="Roboto, sans-serif" font-size="14.00">Lieferant nicht g&#252;ltig.</text>
</g>
<!-- 70&#45;&gt;A04_80 -->
<g id="edge16" class="edge">
<title>70-&gt;A04_80</title>
<path fill="none" stroke="#88a0d6" d="M609,-1288.73C601.34,-1282.99 593.17,-1276.71 585.77,-1270.68 575.05,-1261.94 563.73,-1252.16 553.32,-1242.94"/>
<polygon fill="#88a0d6" stroke="#88a0d6" points="555.74,-1240.42 545.95,-1236.37 551.08,-1245.64 555.74,-1240.42"/>
<text text-anchor="start" x="585.77" y="-1258.38" font-family="Roboto, sans-serif" font-weight="bold" font-size="14.00">NEIN</text>
</g>
<!-- 80 -->
<g id="node13" class="node">
<title>80</title>
<path fill="#c2cee9" stroke="black" stroke-width="0" d="M906.42,-1122.9C906.42,-1122.9 369.12,-1122.9 369.12,-1122.9 363.12,-1122.9 357.12,-1116.9 357.12,-1110.9 357.12,-1110.9 357.12,-1098.9 357.12,-1098.9 357.12,-1092.9 363.12,-1086.9 369.12,-1086.9 369.12,-1086.9 906.42,-1086.9 906.42,-1086.9 912.42,-1086.9 918.42,-1092.9 918.42,-1098.9 918.42,-1098.9 918.42,-1110.9 918.42,-1110.9 918.42,-1116.9 912.42,-1122.9 906.42,-1122.9"/>
<text text-anchor="start" x="371.52" y="-1101.22" font-family="Roboto, sans-serif" font-weight="bold" font-size="14.00">80: </text>
<text text-anchor="start" x="400.77" y="-1101.22" font-family="Roboto, sans-serif" font-size="14.00">Ist der Bilanzkreis zum angegebenen Zeitpunkt in der Regelzone g&#252;ltig?</text>
</g>
<!-- 70&#45;&gt;80 -->
<g id="edge17" class="edge">
<title>70-&gt;80</title>
<path fill="none" stroke="#88a0d6" d="M633.59,-1288.82C627.06,-1257.08 618.92,-1196.49 638.77,-1150.52"/>
<text text-anchor="start" x="629.77" y="-1202.12" font-family="Roboto, sans-serif" font-weight="bold" font-size="14.00">JA</text>
</g>
<!-- A04_80&#45;&gt;80 -->
<g id="edge18" class="edge">
<title>A04_80-&gt;80</title>
<path fill="none" stroke="#88a0d6" d="M602.54,-1176.29C620.37,-1168.41 634.88,-1159.54 638.77,-1150.52"/>
<path fill="none" stroke="#88a0d6" d="M638.77,-1148.52C640.72,-1144.01 641.59,-1138.98 641.81,-1133.99"/>
<polygon fill="#88a0d6" stroke="#88a0d6" points="645.32,-1134.08 641.41,-1124.23 638.33,-1134.36 645.32,-1134.08"/>
</g>
<!-- A05_90 -->
<g id="node14" class="node">
<title>A05_90</title>
<path fill="#c4cac1" stroke="black" stroke-width="0" d="M589.55,-1033.65C589.55,-1033.65 422,-1033.65 422,-1033.65 416,-1033.65 410,-1027.65 410,-1021.65 410,-1021.65 410,-986.37 410,-986.37 410,-980.37 416,-974.37 422,-974.37 422,-974.37 589.55,-974.37 589.55,-974.37 595.55,-974.37 601.55,-980.37 601.55,-986.37 601.55,-986.37 601.55,-1021.65 601.55,-1021.65 601.55,-1027.65 595.55,-1033.65 589.55,-1033.65"/>
<text text-anchor="start" x="424.4" y="-1012.71" font-family="Roboto, sans-serif" font-weight="bold" font-size="14.00">A05</text>
<text text-anchor="start" x="424.4" y="-984.71" font-family="Roboto, sans-serif" font-size="14.00">Bilanzkreis nicht g&#252;ltig.</text>
</g>
<!-- 80&#45;&gt;A05_90 -->
<g id="edge19" class="edge">
<title>80-&gt;A05_90</title>
<path fill="none" stroke="#88a0d6" d="M611.01,-1086.95C602.51,-1081.37 593.14,-1075.02 584.77,-1068.9 572.64,-1060.02 559.82,-1049.96 548.13,-1040.5"/>
<polygon fill="#88a0d6" stroke="#88a0d6" points="550.57,-1037.98 540.6,-1034.37 546.14,-1043.4 550.57,-1037.98"/>
<text text-anchor="start" x="584.77" y="-1056.6" font-family="Roboto, sans-serif" font-weight="bold" font-size="14.00">NEIN</text>
</g>
<!-- 90 -->
<g id="node15" class="node">
<title>90</title>
<path fill="#c2cee9" stroke="black" stroke-width="0" d="M791.05,-937.37C791.05,-937.37 482.5,-937.37 482.5,-937.37 476.5,-937.37 470.5,-931.37 470.5,-925.37 470.5,-925.37 470.5,-913.37 470.5,-913.37 470.5,-907.37 476.5,-901.37 482.5,-901.37 482.5,-901.37 791.05,-901.37 791.05,-901.37 797.05,-901.37 803.05,-907.37 803.05,-913.37 803.05,-913.37 803.05,-925.37 803.05,-925.37 803.05,-931.37 797.05,-937.37 791.05,-937.37"/>
<text text-anchor="start" x="484.9" y="-915.69" font-family="Roboto, sans-serif" font-weight="bold" font-size="14.00">90: </text>
<text text-anchor="start" x="514.15" y="-915.69" font-family="Roboto, sans-serif" font-size="14.00">Passt die Prognosegrundlage zum ZRT?</text>
</g>
<!-- 80&#45;&gt;90 -->
<g id="edge20" class="edge">
<title>80-&gt;90</title>
<path fill="none" stroke="#88a0d6" d="M633.28,-1087.35C626.5,-1058.89 616.54,-999.59 637.77,-956.37"/>
<text text-anchor="start" x="629.77" y="-1000.33" font-family="Roboto, sans-serif" font-weight="bold" font-size="14.00">JA</text>
</g>
<!-- A05_90&#45;&gt;90 -->
<g id="edge21" class="edge">
<title>A05_90-&gt;90</title>
<path fill="none" stroke="#88a0d6" d="M601.42,-979.44C619.17,-972.83 633.52,-965.04 637.77,-956.37"/>
<path fill="none" stroke="#88a0d6" d="M637.77,-955.37C638.84,-953.2 639.55,-950.85 639.99,-948.44"/>
<polygon fill="#88a0d6" stroke="#88a0d6" points="643.49,-948.72 640.34,-938.6 636.49,-948.47 643.49,-948.72"/>
</g>
<!-- A16_100 -->
<g id="node16" class="node">
<title>A16_100</title>
<path fill="#c4cac1" stroke="black" stroke-width="0" d="M588.67,-848.12C588.67,-848.12 298.88,-848.12 298.88,-848.12 292.88,-848.12 286.88,-842.12 286.88,-836.12 286.88,-836.12 286.88,-800.84 286.88,-800.84 286.88,-794.84 292.88,-788.84 298.88,-788.84 298.88,-788.84 588.67,-788.84 588.67,-788.84 594.67,-788.84 600.67,-794.84 600.67,-800.84 600.67,-800.84 600.67,-836.12 600.67,-836.12 600.67,-842.12 594.67,-848.12 588.67,-848.12"/>
<text text-anchor="start" x="301.27" y="-827.18" font-family="Roboto, sans-serif" font-weight="bold" font-size="14.00">A16</text>
<text text-anchor="start" x="301.27" y="-799.18" font-family="Roboto, sans-serif" font-size="14.00">Prognosegrundlage passt nicht zum ZRT.</text>
</g>
<!-- 90&#45;&gt;A16_100 -->
<g id="edge22" class="edge">
<title>90-&gt;A16_100</title>
<path fill="none" stroke="#88a0d6" d="M603.6,-901.37C577.83,-888.17 541.27,-869.43 509.62,-853.22"/>
<polygon fill="#88a0d6" stroke="#88a0d6" points="511.38,-850.18 500.88,-848.74 508.18,-856.41 511.38,-850.18"/>
<text text-anchor="start" x="562.77" y="-871.07" font-family="Roboto, sans-serif" font-weight="bold" font-size="14.00">NEIN</text>
</g>
<!-- 100 -->
<g id="node17" class="node">
<title>100</title>
<path fill="#c2cee9" stroke="black" stroke-width="0" d="M962.3,-751.84C962.3,-751.84 307.25,-751.84 307.25,-751.84 301.25,-751.84 295.25,-745.84 295.25,-739.84 295.25,-739.84 295.25,-727.84 295.25,-727.84 295.25,-721.84 301.25,-715.84 307.25,-715.84 307.25,-715.84 962.3,-715.84 962.3,-715.84 968.3,-715.84 974.3,-721.84 974.3,-727.84 974.3,-727.84 974.3,-739.84 974.3,-739.84 974.3,-745.84 968.3,-751.84 962.3,-751.84"/>
<text text-anchor="start" x="309.65" y="-730.16" font-family="Roboto, sans-serif" font-weight="bold" font-size="14.00">100: </text>
<text text-anchor="start" x="348.65" y="-730.16" font-family="Roboto, sans-serif" font-size="14.00">Passt die aus der Transaktionsgrunderg&#228;nzung sich ableitende Lieferrichtung zum ZRT?</text>
</g>
<!-- 90&#45;&gt;100 -->
<g id="edge23" class="edge">
<title>90-&gt;100</title>
<path fill="none" stroke="#88a0d6" d="M631.65,-901.48C623.92,-872.52 612.57,-812.47 636.77,-770.84"/>
<text text-anchor="start" x="627.77" y="-814.8" font-family="Roboto, sans-serif" font-weight="bold" font-size="14.00">JA</text>
</g>
<!-- A16_100&#45;&gt;100 -->
<g id="edge24" class="edge">
<title>A16_100-&gt;100</title>
<path fill="none" stroke="#88a0d6" d="M600.36,-793.2C617.99,-787.21 631.53,-779.85 636.77,-770.84"/>
<path fill="none" stroke="#88a0d6" d="M636.77,-769.84C637.99,-767.74 638.78,-765.45 639.25,-763.08"/>
<polygon fill="#88a0d6" stroke="#88a0d6" points="642.75,-763.35 639.43,-753.29 635.75,-763.22 642.75,-763.35"/>
</g>
<!-- A07_110 -->
<g id="node18" class="node">
<title>A07_110</title>
<path fill="#c4cac1" stroke="black" stroke-width="0" d="M867.8,-662.59C867.8,-662.59 659.75,-662.59 659.75,-662.59 653.75,-662.59 647.75,-656.59 647.75,-650.59 647.75,-650.59 647.75,-615.31 647.75,-615.31 647.75,-609.31 653.75,-603.31 659.75,-603.31 659.75,-603.31 867.8,-603.31 867.8,-603.31 873.8,-603.31 879.8,-609.31 879.8,-615.31 879.8,-615.31 879.8,-650.59 879.8,-650.59 879.8,-656.59 873.8,-662.59 867.8,-662.59"/>
<text text-anchor="start" x="662.15" y="-641.65" font-family="Roboto, sans-serif" font-weight="bold" font-size="14.00">A07</text>
<text text-anchor="start" x="662.15" y="-613.65" font-family="Roboto, sans-serif" font-size="14.00">Lieferrichtung nicht passend.</text>
</g>
<!-- 100&#45;&gt;A07_110 -->
<g id="edge25" class="edge">
<title>100-&gt;A07_110</title>
<path fill="none" stroke="#88a0d6" d="M656.95,-715.84C673.58,-703.09 696.93,-685.19 717.56,-669.38"/>
<polygon fill="#88a0d6" stroke="#88a0d6" points="719.5,-672.3 725.31,-663.44 715.24,-666.75 719.5,-672.3"/>
<text text-anchor="start" x="698.77" y="-685.54" font-family="Roboto, sans-serif" font-weight="bold" font-size="14.00">NEIN</text>
</g>
<!-- 100&#45;&gt;110 -->
<g id="edge26" class="edge">
<title>100-&gt;110</title>
<path fill="none" stroke="#88a0d6" d="M794.39,-715.93C869.87,-697.9 946.27,-660.92 958.77,-585.31"/>
<text text-anchor="start" x="953.77" y="-629.27" font-family="Roboto, sans-serif" font-weight="bold" font-size="14.00">JA</text>
</g>
<!-- A07_110&#45;&gt;110 -->
<g id="edge27" class="edge">
<title>A07_110-&gt;110</title>
<path fill="none" stroke="#88a0d6" d="M879.63,-613.07C920.66,-604.78 957.21,-594.8 958.77,-585.31"/>
<path fill="none" stroke="#88a0d6" d="M958.77,-584.31C959.2,-581.76 959.09,-579.21 958.6,-576.71"/>
<polygon fill="#88a0d6" stroke="#88a0d6" points="961.96,-575.68 955.01,-567.68 955.45,-578.26 961.96,-575.68"/>
</g>
<!-- A99_120 -->
<g id="node20" class="node">
<title>A99_120</title>
<path fill="#c4cac1" stroke="black" stroke-width="0" d="M891.55,-477.06C891.55,-477.06 322,-477.06 322,-477.06 316,-477.06 310,-471.06 310,-465.06 310,-465.06 310,-401.78 310,-401.78 310,-395.78 316,-389.78 322,-389.78 322,-389.78 891.55,-389.78 891.55,-389.78 897.55,-389.78 903.55,-395.78 903.55,-401.78 903.55,-401.78 903.55,-465.06 903.55,-465.06 903.55,-471.06 897.55,-477.06 891.55,-477.06"/>
<text text-anchor="start" x="324.4" y="-456.12" font-family="Roboto, sans-serif" font-weight="bold" font-size="14.00">A99</text>
<text text-anchor="start" x="324.4" y="-428.12" font-family="Roboto, sans-serif" font-size="14.00">Sonstige Qualit&#228;tsr&#252;ckmeldung</text>
<text text-anchor="start" x="324.4" y="-414.12" font-family="Roboto, sans-serif" font-size="14.00">Hinweis: Das identifizierte Problem ist in der Antwort zu beschreiben / benennen.</text>
<text text-anchor="start" x="324.4" y="-400.12" font-family="Roboto, sans-serif" font-size="14.00">Nutzungsm&#246;glichkeit Ende: 01.04.2026 00:00 Uhr</text>
</g>
<!-- 110&#45;&gt;A99_120 -->
<g id="edge28" class="edge">
<title>110-&gt;A99_120</title>
<path fill="none" stroke="#88a0d6" d="M889.92,-530.41C850.97,-517.2 794.89,-498.19 742.9,-480.57"/>
<polygon fill="#88a0d6" stroke="#88a0d6" points="744.25,-477.33 733.66,-477.43 742,-483.96 744.25,-477.33"/>
<text text-anchor="start" x="831.77" y="-500.01" font-family="Roboto, sans-serif" font-weight="bold" font-size="14.00">JA</text>
</g>
<!-- 120 -->
<g id="node21" class="node">
<title>120</title>
<path fill="#c2cee9" stroke="black" stroke-width="0" d="M1165.3,-352.78C1165.3,-352.78 690.25,-352.78 690.25,-352.78 684.25,-352.78 678.25,-346.78 678.25,-340.78 678.25,-340.78 678.25,-328.78 678.25,-328.78 678.25,-322.78 684.25,-316.78 690.25,-316.78 690.25,-316.78 1165.3,-316.78 1165.3,-316.78 1171.3,-316.78 1177.3,-322.78 1177.3,-328.78 1177.3,-328.78 1177.3,-340.78 1177.3,-340.78 1177.3,-346.78 1171.3,-352.78 1165.3,-352.78"/>
<text text-anchor="start" x="692.65" y="-331.1" font-family="Roboto, sans-serif" font-weight="bold" font-size="14.00">120: </text>
<text text-anchor="start" x="731.65" y="-331.1" font-family="Roboto, sans-serif" font-size="14.00">Hat keine vorangegangene Pr&#252;fung zu einer Antwort gef&#252;hrt?</text>
</g>
<!-- 110&#45;&gt;120 -->
<g id="edge29" class="edge">
<title>110-&gt;120</title>
<path fill="none" stroke="#88a0d6" d="M935.21,-530.54C927.3,-498.02 914.23,-424.93 939.77,-371.78"/>
<text text-anchor="start" x="931.77" y="-429.74" font-family="Roboto, sans-serif" font-weight="bold" font-size="14.00">NEIN</text>
</g>
<!-- A99_120&#45;&gt;120 -->
<g id="edge30" class="edge">
<title>A99_120-&gt;120</title>
<path fill="none" stroke="#88a0d6" d="M903.31,-389.87C923.25,-384.18 936.74,-378.1 939.77,-371.78"/>
<path fill="none" stroke="#88a0d6" d="M939.77,-370.78C940.91,-368.43 941.37,-365.94 941.36,-363.42"/>
<polygon fill="#88a0d6" stroke="#88a0d6" points="944.84,-362.9 939.16,-353.95 938.02,-364.49 944.84,-362.9"/>
</g>
<!-- A13_130 -->
<g id="node22" class="node">
<title>A13_130</title>
<path fill="#c4cac1" stroke="black" stroke-width="0" d="M606.17,-249.53C606.17,-249.53 19.38,-249.53 19.38,-249.53 13.38,-249.53 7.38,-243.53 7.38,-237.53 7.38,-237.53 7.38,-188.25 7.38,-188.25 7.38,-182.25 13.38,-176.25 19.38,-176.25 19.38,-176.25 606.17,-176.25 606.17,-176.25 612.17,-176.25 618.17,-182.25 618.17,-188.25 618.17,-188.25 618.17,-237.53 618.17,-237.53 618.17,-243.53 612.17,-249.53 606.17,-249.53"/>
<text text-anchor="start" x="21.77" y="-228.59" font-family="Roboto, sans-serif" font-weight="bold" font-size="14.00">A13</text>
<text text-anchor="start" x="21.77" y="-200.59" font-family="Roboto, sans-serif" font-size="14.00">Stammdaten wurden f&#252;r den angegebenen Verwendungszeitraum widerspruchsfrei</text>
<text text-anchor="start" x="21.77" y="-186.59" font-family="Roboto, sans-serif" font-size="14.00">&#252;bernommen.</text>
</g>
<!-- 120&#45;&gt;A13_130 -->
<g id="edge31" class="edge">
<title>120-&gt;A13_130</title>
<path fill="none" stroke="#88a0d6" d="M840.64,-316.79C754.13,-299.93 618.61,-273.51 506.55,-251.66"/>
<polygon fill="#88a0d6" stroke="#88a0d6" points="507.4,-248.27 496.92,-249.79 506.06,-255.14 507.4,-248.27"/>
<text text-anchor="start" x="745.77" y="-286.48" font-family="Roboto, sans-serif" font-weight="bold" font-size="14.00">JA</text>
</g>
<!-- A**_130 -->
<g id="node23" class="node">
<title>A**_130</title>
<path fill="#c4cac1" stroke="black" stroke-width="0" d="M1207.3,-263.53C1207.3,-263.53 648.25,-263.53 648.25,-263.53 642.25,-263.53 636.25,-257.53 636.25,-251.53 636.25,-251.53 636.25,-174.25 636.25,-174.25 636.25,-168.25 642.25,-162.25 648.25,-162.25 648.25,-162.25 1207.3,-162.25 1207.3,-162.25 1213.3,-162.25 1219.3,-168.25 1219.3,-174.25 1219.3,-174.25 1219.3,-251.53 1219.3,-251.53 1219.3,-257.53 1213.3,-263.53 1207.3,-263.53"/>
<text text-anchor="start" x="650.65" y="-242.59" font-family="Roboto, sans-serif" font-weight="bold" font-size="14.00">A**</text>
<text text-anchor="start" x="650.65" y="-214.59" font-family="Roboto, sans-serif" font-size="14.00">Stammdaten wurden &#252;bernommen</text>
<text text-anchor="start" x="650.65" y="-200.59" font-family="Roboto, sans-serif" font-size="14.00">Hinweis A**: Es werden alle gemerkten Antwortcodes der vorhergehenden</text>
<text text-anchor="start" x="650.65" y="-186.59" font-family="Roboto, sans-serif" font-size="14.00">Pr&#252;fschritte f&#252;r jeden fehlerhaft identifizierten Verwendungszeitraum der Daten</text>
<text text-anchor="start" x="650.65" y="-172.59" font-family="Roboto, sans-serif" font-size="14.00">unter Angabe der Zeitraum-ID &#252;bermittelt.</text>
</g>
<!-- 120&#45;&gt;A**_130 -->
<g id="edge32" class="edge">
<title>120-&gt;A**_130</title>
<path fill="none" stroke="#88a0d6" d="M927.77,-316.86C927.77,-305.64 927.77,-290.17 927.77,-274.63"/>
<polygon fill="#88a0d6" stroke="#88a0d6" points="931.28,-274.88 927.78,-264.88 924.28,-274.88 931.28,-274.88"/>
<text text-anchor="start" x="927.77" y="-286.48" font-family="Roboto, sans-serif" font-weight="bold" font-size="14.00">NEIN</text>
</g>
<!-- 130 -->
<g id="node24" class="node">
<title>130</title>
<path fill="#c2cee9" stroke="black" stroke-width="0" d="M1271.68,-125.25C1271.68,-125.25 855.88,-125.25 855.88,-125.25 849.88,-125.25 843.88,-119.25 843.88,-113.25 843.88,-113.25 843.88,-101.25 843.88,-101.25 843.88,-95.25 849.88,-89.25 855.88,-89.25 855.88,-89.25 1271.68,-89.25 1271.68,-89.25 1277.68,-89.25 1283.68,-95.25 1283.68,-101.25 1283.68,-101.25 1283.68,-113.25 1283.68,-113.25 1283.68,-119.25 1277.68,-125.25 1271.68,-125.25"/>
<text text-anchor="start" x="858.28" y="-103.58" font-family="Roboto, sans-serif" font-weight="bold" font-size="14.00">130: </text>
<text text-anchor="start" x="897.28" y="-103.58" font-family="Roboto, sans-serif" font-size="14.00">Sind noch weitere Verwendungszeitr&#228;ume zu pr&#252;fen?</text>
</g>
<!-- A13_130&#45;&gt;130 -->
<g id="edge33" class="edge">
<title>A13_130-&gt;130</title>
<path fill="none" stroke="#88a0d6" d="M519.72,-176.26C555.35,-170.96 592.07,-166.02 626.77,-162.25 760.01,-147.77 797.65,-176.33 927.77,-144.25"/>
<path fill="none" stroke="#88a0d6" d="M927.77,-143.25C947.36,-138.42 968.49,-133.06 988.12,-128.01"/>
<polygon fill="#88a0d6" stroke="#88a0d6" points="988.89,-131.43 997.69,-125.54 987.14,-124.65 988.89,-131.43"/>
</g>
<!-- A**_130&#45;&gt;130 -->
<g id="edge34" class="edge">
<title>A**_130-&gt;130</title>
<path fill="none" stroke="#88a0d6" d="M914.88,-162.44C915.41,-153.58 918.88,-146.44 927.77,-144.25"/>
</g>
<!-- 130&#45;&gt;10 -->
<g id="edge35" class="edge">
<title>130-&gt;10</title>
<path fill="none" stroke="#88a0d6" d="M1162.73,-125.13C1186.65,-133.12 1210.55,-144.9 1228.78,-162.25 1245.89,-178.54 1247.78,-188.27 1247.78,-211.89 1247.78,-2117.25 1247.78,-2117.25 1247.78,-2117.25 1247.78,-2161.56 1213.6,-2187.54 1170.77,-2202.7"/>
<polygon fill="#88a0d6" stroke="#88a0d6" points="1169.86,-2199.32 1161.45,-2205.76 1172.05,-2205.97 1169.86,-2199.32"/>
<text text-anchor="start" x="1247.78" y="-1145.85" font-family="Roboto, sans-serif" font-weight="bold" font-size="14.00">JA</text>
</g>
<!-- Ende -->
<g id="node25" class="node">
<title>Ende</title>
<path fill="#8ba2d7" stroke="black" stroke-width="0" d="M1083.8,-36C1083.8,-36 1043.75,-36 1043.75,-36 1037.75,-36 1031.75,-30 1031.75,-24 1031.75,-24 1031.75,-12 1031.75,-12 1031.75,-6 1037.75,0 1043.75,0 1043.75,0 1083.8,0 1083.8,0 1089.8,0 1095.8,-6 1095.8,-12 1095.8,-12 1095.8,-24 1095.8,-24 1095.8,-30 1089.8,-36 1083.8,-36"/>
<text text-anchor="middle" x="1063.78" y="-13.32" font-family="Roboto, sans-serif" font-size="14.00">Ende</text>
</g>
<!-- 130&#45;&gt;Ende -->
<g id="edge36" class="edge">
<title>130-&gt;Ende</title>
<path fill="none" stroke="#88a0d6" d="M1063.78,-89.43C1063.78,-77.48 1063.78,-61.15 1063.78,-47.22"/>
<polygon fill="#88a0d6" stroke="#88a0d6" points="1067.28,-47.28 1063.78,-37.28 1060.28,-47.28 1067.28,-47.28"/>
<text text-anchor="start" x="1063.78" y="-58.95" font-family="Roboto, sans-serif" font-weight="bold" font-size="14.00">NEIN</text>
</g>
</g>
</svg>
  </g>
</svg>
  </g>
</svg>
