<svg xmlns="http://www.w3.org/2000/svg" xmlns:xlink="http://www.w3.org/1999/xlink" version="1.1" width="1385.3333333333333px" viewBox="0 0 1385.3333333333333 794.6666666666666" height="794.6666666666666px">
  <g>
    <svg version="1.1" width="1385.3333333333333px" viewBox="0 0 1385.3333333333333 794.6666666666666" height="794.6666666666666px">
  <rect fill="#e7e6e5" x="0" y="0" width="1385.3333333333333" height="794.6666666666666" rx="20" ry="20"/><g>
    <g transform="translate(368.6011076692011, 79.46666666666664) scale(1 1) translate(0, 0) scale(1.1189336337182014 1.1189336337182014) "><defs>
    <style>.cls-1{fill:#ffffff88;}</style>
    <!--
    ffffff88 is white with 50% transparency; this matches the colour of the tesa strip on
    ebd.hochfrequenz.de where it crosses the diagram SVG:
    https://github.com/Hochfrequenz/entscheidungsbaumdiagramme/blob/01bd43fa0f1d0333fa93596bc8b9fd1e4b285c8c/src/lib/components/features/svg-container.svelte#L54
    -->
  </defs>
  <path class="cls-1" d="M122.44,531.2h-56.1c-11,0-19.9-9.12-19.46-20.11C57.47,243.89,278.15,29.78,547.91,29.78v56.02c0,10.98-8.69,19.89-19.66,20.39-225.51,10.31-405.8,197-405.8,425Z"/>
  <path class="cls-1" d="M273.78,531.2h-55.93c-11.23,0-20.09-9.48-19.43-20.69,10.74-183.44,163.39-329.39,349.48-329.39v56.26c0,10.71-8.27,19.62-18.96,20.35-142.35,9.77-255.17,128.69-255.17,273.46Z"/>
  <path class="cls-1" d="M425.77,531.2h-55.45c-11.65,0-20.6-10.17-19.33-21.75,10.87-99.03,95.03-176.34,196.92-176.34v57.01c0,10.05-7.28,18.75-17.23,20.16-59.22,8.4-104.91,59.42-104.91,120.92Z"/>
</g>
    <svg width="1039pt" height="596pt" viewBox="0.00 0.00 1038.80 595.87">
<g id="graph0" class="graph" transform="scale(1 1) rotate(0) translate(18 577.87)">
<title>D</title>
<text text-anchor="start" x="317.65" y="-539.77" font-family="Roboto, sans-serif" font-weight="bold" font-size="18.00">GPKE</text>
<text text-anchor="start" x="317.65" y="-511.67" font-family="Roboto, sans-serif" font-weight="bold" font-size="16.00">6.48.2: AD: Steuerbefehl vom NB an MSB</text>
<!-- Start -->
<g id="node1" class="node">
<title>Start</title>
<path fill="#8ba2d7" stroke="black" stroke-width="0" d="M350.92,-469.87C350.92,-469.87 202.12,-469.87 202.12,-469.87 196.12,-469.87 190.12,-463.87 190.12,-457.87 190.12,-457.87 190.12,-436.59 190.12,-436.59 190.12,-430.59 196.12,-424.59 202.12,-424.59 202.12,-424.59 350.92,-424.59 350.92,-424.59 356.92,-424.59 362.92,-430.59 362.92,-436.59 362.92,-436.59 362.92,-457.87 362.92,-457.87 362.92,-463.87 356.92,-469.87 350.92,-469.87"/>
<text text-anchor="start" x="204.52" y="-448.93" font-family="Roboto, sans-serif" font-weight="bold" font-size="14.00">E_0563</text>
<text text-anchor="start" x="204.52" y="-434.93" font-family="Roboto, sans-serif" font-size="14.00">Prüfende Rolle: </text>
<text text-anchor="start" x="314.02" y="-434.93" font-family="Roboto, sans-serif" font-weight="bold" font-size="14.00">MSB</text>
</g>
<!-- 10 -->
<g id="node2" class="node">
<title>10</title>
<path fill="#c2cee9" stroke="black" stroke-width="0" d="M479.55,-387.59C479.55,-387.59 73.5,-387.59 73.5,-387.59 67.5,-387.59 61.5,-381.59 61.5,-375.59 61.5,-375.59 61.5,-363.59 61.5,-363.59 61.5,-357.59 67.5,-351.59 73.5,-351.59 73.5,-351.59 479.55,-351.59 479.55,-351.59 485.55,-351.59 491.55,-357.59 491.55,-363.59 491.55,-363.59 491.55,-375.59 491.55,-375.59 491.55,-381.59 485.55,-387.59 479.55,-387.59"/>
<text text-anchor="start" x="75.9" y="-365.91" font-family="Roboto, sans-serif" font-weight="bold" font-size="14.00">10: </text>
<text text-anchor="start" x="105.15" y="-365.91" font-family="Roboto, sans-serif" font-size="14.00">War eine Verarbeitung im Backend des MSB möglich?</text>
</g>
<!-- Start&#45;&gt;10 -->
<g id="edge1" class="edge">
<title>Start-&gt;10</title>
<path fill="none" stroke="#88a0d6" d="M276.52,-424.76C276.52,-416.68 276.52,-407.38 276.52,-398.78"/>
<polygon fill="#88a0d6" stroke="#88a0d6" points="280.03,-398.82 276.53,-388.82 273.03,-398.82 280.03,-398.82"/>
</g>
<!-- A01 -->
<g id="node3" class="node">
<title>A01</title>
<path fill="#c4cac1" stroke="black" stroke-width="0" d="M241.05,-298.34C241.05,-298.34 12,-298.34 12,-298.34 6,-298.34 0,-292.34 0,-286.34 0,-286.34 0,-251.06 0,-251.06 0,-245.06 6,-239.06 12,-239.06 12,-239.06 241.05,-239.06 241.05,-239.06 247.05,-239.06 253.05,-245.06 253.05,-251.06 253.05,-251.06 253.05,-286.34 253.05,-286.34 253.05,-292.34 247.05,-298.34 241.05,-298.34"/>
<text text-anchor="start" x="14.4" y="-277.4" font-family="Roboto, sans-serif" font-weight="bold" font-size="14.00">A01</text>
<text text-anchor="start" x="14.4" y="-249.4" font-family="Roboto, sans-serif" font-size="14.00">Backend des MSB ist überlastet.</text>
</g>
<!-- 10&#45;&gt;A01 -->
<g id="edge2" class="edge">
<title>10-&gt;A01</title>
<path fill="none" stroke="#88a0d6" d="M250.74,-351.59C231.14,-338.67 203.52,-320.46 179.3,-304.49"/>
<polygon fill="#88a0d6" stroke="#88a0d6" points="181.4,-301.68 171.12,-299.1 177.55,-307.53 181.4,-301.68"/>
<text text-anchor="start" x="218.53" y="-321.29" font-family="Roboto, sans-serif" font-weight="bold" font-size="14.00">NEIN</text>
</g>
<!-- 20 -->
<g id="node4" class="node">
<title>20</title>
<path fill="#c2cee9" stroke="black" stroke-width="0" d="M746.42,-286.7C746.42,-286.7 282.62,-286.7 282.62,-286.7 276.62,-286.7 270.62,-280.7 270.62,-274.7 270.62,-274.7 270.62,-262.7 270.62,-262.7 270.62,-256.7 276.62,-250.7 282.62,-250.7 282.62,-250.7 746.42,-250.7 746.42,-250.7 752.42,-250.7 758.42,-256.7 758.42,-262.7 758.42,-262.7 758.42,-274.7 758.42,-274.7 758.42,-280.7 752.42,-286.7 746.42,-286.7"/>
<text text-anchor="start" x="285.02" y="-265.02" font-family="Roboto, sans-serif" font-weight="bold" font-size="14.00">20: </text>
<text text-anchor="start" x="314.27" y="-265.02" font-family="Roboto, sans-serif" font-size="14.00">War eine Kommunikationsverbindung zur Steuerbox möglich?</text>
</g>
<!-- 10&#45;&gt;20 -->
<g id="edge3" class="edge">
<title>10-&gt;20</title>
<path fill="none" stroke="#88a0d6" d="M317.44,-351.59C357.83,-334.81 419.72,-309.09 463.35,-290.96"/>
<polygon fill="#88a0d6" stroke="#88a0d6" points="464.46,-294.29 472.35,-287.22 461.77,-287.83 464.46,-294.29"/>
<text text-anchor="start" x="395.52" y="-321.29" font-family="Roboto, sans-serif" font-weight="bold" font-size="14.00">JA</text>
</g>
<!-- A02 -->
<g id="node5" class="node">
<title>A02</title>
<path fill="#c4cac1" stroke="black" stroke-width="0" d="M460.55,-185.81C460.55,-185.81 78.5,-185.81 78.5,-185.81 72.5,-185.81 66.5,-179.81 66.5,-173.81 66.5,-173.81 66.5,-138.53 66.5,-138.53 66.5,-132.53 72.5,-126.53 78.5,-126.53 78.5,-126.53 460.55,-126.53 460.55,-126.53 466.55,-126.53 472.55,-132.53 472.55,-138.53 472.55,-138.53 472.55,-173.81 472.55,-173.81 472.55,-179.81 466.55,-185.81 460.55,-185.81"/>
<text text-anchor="start" x="80.9" y="-164.87" font-family="Roboto, sans-serif" font-weight="bold" font-size="14.00">A02</text>
<text text-anchor="start" x="80.9" y="-136.87" font-family="Roboto, sans-serif" font-size="14.00">Kommunikationsverbindung zur Steuerbox ist gestört.</text>
</g>
<!-- 20&#45;&gt;A02 -->
<g id="edge4" class="edge">
<title>20-&gt;A02</title>
<path fill="none" stroke="#88a0d6" d="M477.05,-250.79C441.56,-234.78 387.27,-210.29 343.13,-190.38"/>
<polygon fill="#88a0d6" stroke="#88a0d6" points="344.66,-187.23 334.1,-186.3 341.78,-193.61 344.66,-187.23"/>
<text text-anchor="start" x="406.52" y="-208.76" font-family="Roboto, sans-serif" font-weight="bold" font-size="14.00">NEIN</text>
</g>
<!-- 30 -->
<g id="node6" class="node">
<title>30</title>
<path fill="#c2cee9" stroke="black" stroke-width="0" d="M942.8,-174.17C942.8,-174.17 502.25,-174.17 502.25,-174.17 496.25,-174.17 490.25,-168.17 490.25,-162.17 490.25,-162.17 490.25,-150.17 490.25,-150.17 490.25,-144.17 496.25,-138.17 502.25,-138.17 502.25,-138.17 942.8,-138.17 942.8,-138.17 948.8,-138.17 954.8,-144.17 954.8,-150.17 954.8,-150.17 954.8,-162.17 954.8,-162.17 954.8,-168.17 948.8,-174.17 942.8,-174.17"/>
<text text-anchor="start" x="504.65" y="-152.5" font-family="Roboto, sans-serif" font-weight="bold" font-size="14.00">30: </text>
<text text-anchor="start" x="533.9" y="-152.5" font-family="Roboto, sans-serif" font-size="14.00">War es prozessual möglich den Steuerbefehl umzusetzen?</text>
</g>
<!-- 20&#45;&gt;30 -->
<g id="edge5" class="edge">
<title>20-&gt;30</title>
<path fill="none" stroke="#88a0d6" d="M546.12,-250.91C582.08,-231.8 640.98,-200.5 680.72,-179.38"/>
<polygon fill="#88a0d6" stroke="#88a0d6" points="682.11,-182.61 689.3,-174.83 678.83,-176.43 682.11,-182.61"/>
<text text-anchor="start" x="630.52" y="-208.76" font-family="Roboto, sans-serif" font-weight="bold" font-size="14.00">JA</text>
</g>
<!-- A03 -->
<g id="node7" class="node">
<title>A03</title>
<path fill="#c4cac1" stroke="black" stroke-width="0" d="M550.17,-73.28C550.17,-73.28 36.88,-73.28 36.88,-73.28 30.88,-73.28 24.88,-67.28 24.88,-61.28 24.88,-61.28 24.88,-12 24.88,-12 24.88,-6 30.88,0 36.88,0 36.88,0 550.17,0 550.17,0 556.17,0 562.17,-6 562.17,-12 562.17,-12 562.17,-61.28 562.17,-61.28 562.17,-67.28 556.17,-73.28 550.17,-73.28"/>
<text text-anchor="start" x="39.27" y="-52.34" font-family="Roboto, sans-serif" font-weight="bold" font-size="14.00">A03</text>
<text text-anchor="start" x="39.27" y="-24.34" font-family="Roboto, sans-serif" font-size="14.00">Prozessual ist es derzeit nicht möglich die Anforderung umzusetzen (z.B.</text>
<text text-anchor="start" x="39.27" y="-10.34" font-family="Roboto, sans-serif" font-size="14.00">aufgrund von Wartungsarbeiten).</text>
</g>
<!-- 30&#45;&gt;A03 -->
<g id="edge6" class="edge">
<title>30-&gt;A03</title>
<path fill="none" stroke="#88a0d6" d="M660.6,-138.21C601.65,-122.06 510.83,-97.17 434.27,-76.2"/>
<polygon fill="#88a0d6" stroke="#88a0d6" points="435.6,-72.93 425.03,-73.67 433.75,-79.69 435.6,-72.93"/>
<text text-anchor="start" x="545.52" y="-96.23" font-family="Roboto, sans-serif" font-weight="bold" font-size="14.00">NEIN</text>
</g>
<!-- A04 -->
<g id="node8" class="node">
<title>A04</title>
<path fill="#c4cac1" stroke="black" stroke-width="0" d="M990.8,-66.28C990.8,-66.28 592.25,-66.28 592.25,-66.28 586.25,-66.28 580.25,-60.28 580.25,-54.28 580.25,-54.28 580.25,-19 580.25,-19 580.25,-13 586.25,-7 592.25,-7 592.25,-7 990.8,-7 990.8,-7 996.8,-7 1002.8,-13 1002.8,-19 1002.8,-19 1002.8,-54.28 1002.8,-54.28 1002.8,-60.28 996.8,-66.28 990.8,-66.28"/>
<text text-anchor="start" x="594.65" y="-45.34" font-family="Roboto, sans-serif" font-weight="bold" font-size="14.00">A04</text>
<text text-anchor="start" x="594.65" y="-17.34" font-family="Roboto, sans-serif" font-size="14.00">Der Steuerbefehl kann grundsätzlich umgesetzt werden.</text>
</g>
<!-- 30&#45;&gt;A04 -->
<g id="edge7" class="edge">
<title>30-&gt;A04</title>
<path fill="none" stroke="#88a0d6" d="M732.41,-138.33C741.93,-122.11 756.67,-97 769.05,-75.91"/>
<polygon fill="#88a0d6" stroke="#88a0d6" points="771.92,-77.95 773.96,-67.56 765.88,-74.41 771.92,-77.95"/>
<text text-anchor="start" x="758.52" y="-96.23" font-family="Roboto, sans-serif" font-weight="bold" font-size="14.00">JA</text>
</g>
</g>
</svg>
  </g>
</svg>
  </g>
<text x="1375.3333333333333" y="784.6666666666666" text-anchor="end" font-family="Roboto, sans-serif" font-size="10" fill="#666666">v4.1 | 11.12.2025 (urspr. 01.04.2025)</text></svg>